<?xml version="1.0" encoding="us-ascii" standalone="no"?><svg xmlns="http://www.w3.org/2000/svg" xmlns:xlink="http://www.w3.org/1999/xlink" contentStyleType="text/css" height="1660px" preserveAspectRatio="none" style="width:3613px;height:1660px;background:#FFFFFF;" version="1.1" viewBox="0 0 3613 1660" width="3613px" zoomAndPan="magnify"><defs/><g><text fill="#000000" font-family="sans-serif" font-size="14" font-weight="bold" lengthAdjust="spacing" textLength="179" x="1716.25" y="27.6738">US008 Sequence Diagram</text><rect fill="#FFFFFF" height="1443.9297" style="stroke:#181818;stroke-width:1.0;" width="10" x="21.5" y="127.2813"/><rect fill="#FFFFFF" height="69.1641" style="stroke:#181818;stroke-width:1.0;" width="10" x="599.5" y="147.8047"/><rect fill="#FFFFFF" height="1316.7188" style="stroke:#181818;stroke-width:1.0;" width="10" x="599.5" y="245.4922"/><rect fill="#FFFFFF" height="370.8047" style="stroke:#181818;stroke-width:1.0;" width="10" x="1055.5" y="274.0156"/><rect fill="#FFFFFF" height="860.3438" style="stroke:#181818;stroke-width:1.0;" width="10" x="1055.5" y="673.3438"/><rect fill="#FFFFFF" height="28.5234" style="stroke:#181818;stroke-width:1.0;" width="10" x="1220.5" y="473.6797"/><rect fill="#FFFFFF" height="28.5234" style="stroke:#181818;stroke-width:1.0;" width="10" x="1220.5" y="701.8672"/><rect fill="#FFFFFF" height="28.5234" style="stroke:#181818;stroke-width:1.0;" width="10" x="1325.5" y="530.7266"/><rect fill="#FFFFFF" height="28.5234" style="stroke:#181818;stroke-width:1.0;" width="10" x="1450.5" y="302.5391"/><rect fill="#FFFFFF" height="28.5234" style="stroke:#181818;stroke-width:1.0;" width="10" x="1597.5" y="359.5859"/><rect fill="#FFFFFF" height="28.5234" style="stroke:#181818;stroke-width:1.0;" width="10" x="1730.5" y="416.6328"/><rect fill="#FFFFFF" height="28.5234" style="stroke:#181818;stroke-width:1.0;" width="10" x="1868.5" y="587.7734"/><rect fill="#FFFFFF" height="28.5234" style="stroke:#181818;stroke-width:1.0;" width="10" x="2035.5" y="758.9141"/><rect fill="#FFFFFF" height="69.1641" style="stroke:#181818;stroke-width:1.0;" width="10" x="2035.5" y="815.9609"/><rect fill="#FFFFFF" height="591.5156" style="stroke:#181818;stroke-width:1.0;" width="10" x="2199.5" y="913.6484"/><rect fill="#FFFFFF" height="33.5234" style="stroke:#181818;stroke-width:1.0;" width="10" x="2204.5" y="1365.4766"/><rect fill="#FFFFFF" height="30" style="stroke:#181818;stroke-width:1.0;" width="10" x="2751.5" y="1439.6406"/><rect fill="#FFFFFF" height="30" style="stroke:#181818;stroke-width:1.0;" width="10" x="3035.5" y="1006.3359"/><rect fill="#FFFFFF" height="30" style="stroke:#181818;stroke-width:1.0;" width="10" x="3035.5" y="1064.8594"/><rect fill="#FFFFFF" height="30" style="stroke:#181818;stroke-width:1.0;" width="10" x="3035.5" y="1123.3828"/><rect fill="#FFFFFF" height="30" style="stroke:#181818;stroke-width:1.0;" width="10" x="3035.5" y="1181.9063"/><rect fill="#FFFFFF" height="30" style="stroke:#181818;stroke-width:1.0;" width="10" x="3035.5" y="1240.4297"/><rect fill="#FFFFFF" height="30" style="stroke:#181818;stroke-width:1.0;" width="10" x="3035.5" y="1298.9531"/><rect fill="none" height="508.3516" style="stroke:#000000;stroke-width:1.5;" width="1048.5" x="2124" y="969.2891"/><line style="stroke:#181818;stroke-width:0.5;stroke-dasharray:5.0,5.0;" x1="26" x2="26" y1="117.2813" y2="1580.2109"/><line style="stroke:#181818;stroke-width:0.5;stroke-dasharray:5.0,5.0;" x1="604" x2="604" y1="117.2813" y2="1580.2109"/><line style="stroke:#181818;stroke-width:0.5;stroke-dasharray:5.0,5.0;" x1="1060" x2="1060" y1="186.125" y2="1580.2109"/><line style="stroke:#181818;stroke-width:0.5;stroke-dasharray:5.0,5.0;" x1="1225" x2="1225" y1="117.2813" y2="1580.2109"/><line style="stroke:#181818;stroke-width:0.5;stroke-dasharray:5.0,5.0;" x1="1330" x2="1330" y1="117.2813" y2="1580.2109"/><line style="stroke:#181818;stroke-width:0.5;stroke-dasharray:5.0,5.0;" x1="1455" x2="1455" y1="117.2813" y2="1580.2109"/><line style="stroke:#181818;stroke-width:0.5;stroke-dasharray:5.0,5.0;" x1="1602" x2="1602" y1="117.2813" y2="1580.2109"/><line style="stroke:#181818;stroke-width:0.5;stroke-dasharray:5.0,5.0;" x1="1735" x2="1735" y1="117.2813" y2="1580.2109"/><line style="stroke:#181818;stroke-width:0.5;stroke-dasharray:5.0,5.0;" x1="1873" x2="1873" y1="117.2813" y2="1580.2109"/><line style="stroke:#181818;stroke-width:0.5;stroke-dasharray:5.0,5.0;" x1="2040" x2="2040" y1="117.2813" y2="1580.2109"/><line style="stroke:#181818;stroke-width:0.5;stroke-dasharray:5.0,5.0;" x1="2204" x2="2204" y1="117.2813" y2="1580.2109"/><line style="stroke:#181818;stroke-width:0.5;stroke-dasharray:5.0,5.0;" x1="2477.5" x2="2477.5" y1="1408.7969" y2="1580.2109"/><line style="stroke:#181818;stroke-width:0.5;stroke-dasharray:5.0,5.0;" x1="2756.5" x2="2756.5" y1="951.9688" y2="1580.2109"/><line style="stroke:#181818;stroke-width:0.5;stroke-dasharray:5.0,5.0;" x1="3040.5" x2="3040.5" y1="854.2813" y2="1580.2109"/><line style="stroke:#181818;stroke-width:0.5;stroke-dasharray:5.0,5.0;" x1="3359.5" x2="3359.5" y1="117.2813" y2="1580.2109"/><line style="stroke:#181818;stroke-width:0.5;stroke-dasharray:5.0,5.0;" x1="3581.5" x2="3581.5" y1="117.2813" y2="1580.2109"/><text fill="#000000" font-family="sans-serif" font-size="14" lengthAdjust="spacing" textLength="37" x="5" y="114.3145">Agent</text><ellipse cx="26.5" cy="50.1406" fill="#E3E3E3" rx="8" ry="8" style="stroke:#181818;stroke-width:0.5;"/><path d="M26.5,58.1406 L26.5,85.1406 M13.5,66.1406 L39.5,66.1406 M26.5,85.1406 L13.5,100.1406 M26.5,85.1406 L39.5,100.1406 " fill="none" style="stroke:#181818;stroke-width:0.5;"/><text fill="#000000" font-family="sans-serif" font-size="14" lengthAdjust="spacing" textLength="37" x="5" y="1591.8848">Agent</text><ellipse cx="26.5" cy="1603.3516" fill="#E3E3E3" rx="8" ry="8" style="stroke:#181818;stroke-width:0.5;"/><path d="M26.5,1611.3516 L26.5,1638.3516 M13.5,1619.3516 L39.5,1619.3516 M26.5,1638.3516 L13.5,1653.3516 M26.5,1638.3516 L39.5,1653.3516 " fill="none" style="stroke:#181818;stroke-width:0.5;"/><rect fill="#E3E3E3" height="29.6406" rx="2.5" ry="2.5" style="stroke:#181818;stroke-width:0.5;" width="163" x="523" y="86.6406"/><text fill="#000000" font-family="sans-serif" font-size="14" lengthAdjust="spacing" textLength="149" x="530" y="106.3145">:ListBookingRequestsUI</text><rect fill="#E3E3E3" height="29.6406" rx="2.5" ry="2.5" style="stroke:#181818;stroke-width:0.5;" width="163" x="523" y="1579.2109"/><text fill="#000000" font-family="sans-serif" font-size="14" lengthAdjust="spacing" textLength="149" x="530" y="1598.8848">:ListBookingRequestsUI</text><rect fill="#E3E3E3" height="29.6406" rx="2.5" ry="2.5" style="stroke:#181818;stroke-width:0.5;" width="213" x="954" y="1579.2109"/><text fill="#000000" font-family="sans-serif" font-size="14" lengthAdjust="spacing" textLength="199" x="961" y="1598.8848">:ListBookingRequestsController</text><rect fill="#E3E3E3" height="29.6406" rx="2.5" ry="2.5" style="stroke:#181818;stroke-width:0.5;" width="97" x="1177" y="86.6406"/><text fill="#000000" font-family="sans-serif" font-size="14" lengthAdjust="spacing" textLength="83" x="1184" y="106.3145">:Repositories</text><rect fill="#E3E3E3" height="29.6406" rx="2.5" ry="2.5" style="stroke:#181818;stroke-width:0.5;" width="97" x="1177" y="1579.2109"/><text fill="#000000" font-family="sans-serif" font-size="14" lengthAdjust="spacing" textLength="83" x="1184" y="1598.8848">:Repositories</text><rect fill="#E3E3E3" height="45.2813" rx="2.5" ry="2.5" style="stroke:#181818;stroke-width:0.5;" width="93" x="1284" y="71"/><text fill="#000000" font-family="sans-serif" font-size="14" lengthAdjust="spacing" textLength="72" x="1292.5" y="90.6738">Repository:</text><text fill="#000000" font-family="sans-serif" font-size="14" lengthAdjust="spacing" textLength="79" x="1291" y="106.3145">Repositories</text><rect fill="#E3E3E3" height="45.2813" rx="2.5" ry="2.5" style="stroke:#181818;stroke-width:0.5;" width="93" x="1284" y="1579.2109"/><text fill="#000000" font-family="sans-serif" font-size="14" lengthAdjust="spacing" textLength="72" x="1292.5" y="1598.8848">Repository:</text><text fill="#000000" font-family="sans-serif" font-size="14" lengthAdjust="spacing" textLength="79" x="1291" y="1614.5254">Repositories</text><rect fill="#E3E3E3" height="29.6406" rx="2.5" ry="2.5" style="stroke:#181818;stroke-width:0.5;" width="137" x="1387" y="86.6406"/><text fill="#000000" font-family="sans-serif" font-size="14" lengthAdjust="spacing" textLength="123" x="1394" y="106.3145">:ApplicationSession</text><rect fill="#E3E3E3" height="29.6406" rx="2.5" ry="2.5" style="stroke:#181818;stroke-width:0.5;" width="137" x="1387" y="1579.2109"/><text fill="#000000" font-family="sans-serif" font-size="14" lengthAdjust="spacing" textLength="123" x="1394" y="1598.8848">:ApplicationSession</text><rect fill="#E3E3E3" height="45.2813" rx="2.5" ry="2.5" style="stroke:#181818;stroke-width:0.5;" width="137" x="1534" y="71"/><text fill="#000000" font-family="sans-serif" font-size="14" lengthAdjust="spacing" textLength="74" x="1565.5" y="90.6738">appSession</text><text fill="#000000" font-family="sans-serif" font-size="14" lengthAdjust="spacing" textLength="123" x="1541" y="106.3145">:ApplicationSession</text><rect fill="#E3E3E3" height="45.2813" rx="2.5" ry="2.5" style="stroke:#181818;stroke-width:0.5;" width="137" x="1534" y="1579.2109"/><text fill="#000000" font-family="sans-serif" font-size="14" lengthAdjust="spacing" textLength="74" x="1565.5" y="1598.8848">appSession</text><text fill="#000000" font-family="sans-serif" font-size="14" lengthAdjust="spacing" textLength="123" x="1541" y="1614.5254">:ApplicationSession</text><rect fill="#E3E3E3" height="45.2813" rx="2.5" ry="2.5" style="stroke:#181818;stroke-width:0.5;" width="109" x="1681" y="71"/><text fill="#000000" font-family="sans-serif" font-size="14" lengthAdjust="spacing" textLength="95" x="1688" y="90.6738">currentSession</text><text fill="#000000" font-family="sans-serif" font-size="14" lengthAdjust="spacing" textLength="83" x="1694" y="106.3145">:UserSession</text><rect fill="#E3E3E3" height="45.2813" rx="2.5" ry="2.5" style="stroke:#181818;stroke-width:0.5;" width="109" x="1681" y="1579.2109"/><text fill="#000000" font-family="sans-serif" font-size="14" lengthAdjust="spacing" textLength="95" x="1688" y="1598.8848">currentSession</text><text fill="#000000" font-family="sans-serif" font-size="14" lengthAdjust="spacing" textLength="83" x="1694" y="1614.5254">:UserSession</text><rect fill="#E3E3E3" height="45.2813" rx="2.5" ry="2.5" style="stroke:#181818;stroke-width:0.5;" width="147" x="1800" y="71"/><text fill="#000000" font-family="sans-serif" font-size="14" lengthAdjust="spacing" textLength="133" x="1807" y="90.6738">employeeRepository:</text><text fill="#000000" font-family="sans-serif" font-size="14" lengthAdjust="spacing" textLength="130" x="1808.5" y="106.3145">EmployeeRepository</text><rect fill="#E3E3E3" height="45.2813" rx="2.5" ry="2.5" style="stroke:#181818;stroke-width:0.5;" width="147" x="1800" y="1579.2109"/><text fill="#000000" font-family="sans-serif" font-size="14" lengthAdjust="spacing" textLength="133" x="1807" y="1598.8848">employeeRepository:</text><text fill="#000000" font-family="sans-serif" font-size="14" lengthAdjust="spacing" textLength="130" x="1808.5" y="1614.5254">EmployeeRepository</text><rect fill="#E3E3E3" height="45.2813" rx="2.5" ry="2.5" style="stroke:#181818;stroke-width:0.5;" width="167" x="1957" y="71"/><text fill="#000000" font-family="sans-serif" font-size="14" lengthAdjust="spacing" textLength="149" x="1968" y="90.6738">visitRequestRepository:</text><text fill="#000000" font-family="sans-serif" font-size="14" lengthAdjust="spacing" textLength="147" x="1967" y="106.3145">VisitRequestRepository</text><rect fill="#E3E3E3" height="45.2813" rx="2.5" ry="2.5" style="stroke:#181818;stroke-width:0.5;" width="167" x="1957" y="1579.2109"/><text fill="#000000" font-family="sans-serif" font-size="14" lengthAdjust="spacing" textLength="149" x="1968" y="1598.8848">visitRequestRepository:</text><text fill="#000000" font-family="sans-serif" font-size="14" lengthAdjust="spacing" textLength="147" x="1967" y="1614.5254">VisitRequestRepository</text><rect fill="#E3E3E3" height="29.6406" rx="2.5" ry="2.5" style="stroke:#181818;stroke-width:0.5;" width="141" x="2134" y="86.6406"/><text fill="#000000" font-family="sans-serif" font-size="14" lengthAdjust="spacing" textLength="127" x="2141" y="106.3145">VisitRequestMapper</text><rect fill="#E3E3E3" height="29.6406" rx="2.5" ry="2.5" style="stroke:#181818;stroke-width:0.5;" width="141" x="2134" y="1579.2109"/><text fill="#000000" font-family="sans-serif" font-size="14" lengthAdjust="spacing" textLength="127" x="2141" y="1598.8848">VisitRequestMapper</text><rect fill="#E3E3E3" height="29.6406" rx="2.5" ry="2.5" style="stroke:#181818;stroke-width:0.5;" width="234" x="2360.5" y="1579.2109"/><text fill="#000000" font-family="sans-serif" font-size="14" lengthAdjust="spacing" textLength="220" x="2367.5" y="1598.8848">visitRequestDTO:VisitRequestDTO</text><rect fill="#E3E3E3" height="29.6406" rx="2.5" ry="2.5" style="stroke:#181818;stroke-width:0.5;" width="304" x="2604.5" y="1579.2109"/><text fill="#000000" font-family="sans-serif" font-size="14" lengthAdjust="spacing" textLength="290" x="2611.5" y="1598.8848">ListVisitRequestDTO : List&lt;VisitRequestDTO&gt;</text><rect fill="#E3E3E3" height="29.6406" rx="2.5" ry="2.5" style="stroke:#181818;stroke-width:0.5;" width="244" x="2918.5" y="1579.2109"/><text fill="#000000" font-family="sans-serif" font-size="14" lengthAdjust="spacing" textLength="230" x="2925.5" y="1598.8848">ListVisitRequest : List&lt;VisitRequest&gt;</text><rect fill="#E3E3E3" height="29.6406" rx="2.5" ry="2.5" style="stroke:#181818;stroke-width:0.5;" width="374" x="3172.5" y="86.6406"/><text fill="#000000" font-family="sans-serif" font-size="14" lengthAdjust="spacing" textLength="360" x="3179.5" y="106.3145">AnnouncementRequestDTO:AnnouncementRequestDTO</text><rect fill="#E3E3E3" height="29.6406" rx="2.5" ry="2.5" style="stroke:#181818;stroke-width:0.5;" width="374" x="3172.5" y="1579.2109"/><text fill="#000000" font-family="sans-serif" font-size="14" lengthAdjust="spacing" textLength="360" x="3179.5" y="1598.8848">AnnouncementRequestDTO:AnnouncementRequestDTO</text><rect fill="#E3E3E3" height="29.6406" rx="2.5" ry="2.5" style="stroke:#181818;stroke-width:0.5;" width="51" x="3556.5" y="86.6406"/><text fill="#000000" font-family="sans-serif" font-size="14" lengthAdjust="spacing" textLength="37" x="3563.5" y="106.3145">Agent</text><rect fill="#E3E3E3" height="29.6406" rx="2.5" ry="2.5" style="stroke:#181818;stroke-width:0.5;" width="51" x="3556.5" y="1579.2109"/><text fill="#000000" font-family="sans-serif" font-size="14" lengthAdjust="spacing" textLength="37" x="3563.5" y="1598.8848">Agent</text><rect fill="#FFFFFF" height="1443.9297" style="stroke:#181818;stroke-width:1.0;" width="10" x="21.5" y="127.2813"/><rect fill="#FFFFFF" height="69.1641" style="stroke:#181818;stroke-width:1.0;" width="10" x="599.5" y="147.8047"/><rect fill="#FFFFFF" height="1316.7188" style="stroke:#181818;stroke-width:1.0;" width="10" x="599.5" y="245.4922"/><rect fill="#FFFFFF" height="370.8047" style="stroke:#181818;stroke-width:1.0;" width="10" x="1055.5" y="274.0156"/><rect fill="#FFFFFF" height="860.3438" style="stroke:#181818;stroke-width:1.0;" width="10" x="1055.5" y="673.3438"/><rect fill="#FFFFFF" height="28.5234" style="stroke:#181818;stroke-width:1.0;" width="10" x="1220.5" y="473.6797"/><rect fill="#FFFFFF" height="28.5234" style="stroke:#181818;stroke-width:1.0;" width="10" x="1220.5" y="701.8672"/><rect fill="#FFFFFF" height="28.5234" style="stroke:#181818;stroke-width:1.0;" width="10" x="1325.5" y="530.7266"/><rect fill="#FFFFFF" height="28.5234" style="stroke:#181818;stroke-width:1.0;" width="10" x="1450.5" y="302.5391"/><rect fill="#FFFFFF" height="28.5234" style="stroke:#181818;stroke-width:1.0;" width="10" x="1597.5" y="359.5859"/><rect fill="#FFFFFF" height="28.5234" style="stroke:#181818;stroke-width:1.0;" width="10" x="1730.5" y="416.6328"/><rect fill="#FFFFFF" height="28.5234" style="stroke:#181818;stroke-width:1.0;" width="10" x="1868.5" y="587.7734"/><rect fill="#FFFFFF" height="28.5234" style="stroke:#181818;stroke-width:1.0;" width="10" x="2035.5" y="758.9141"/><rect fill="#FFFFFF" height="69.1641" style="stroke:#181818;stroke-width:1.0;" width="10" x="2035.5" y="815.9609"/><rect fill="#FFFFFF" height="591.5156" style="stroke:#181818;stroke-width:1.0;" width="10" x="2199.5" y="913.6484"/><rect fill="#FFFFFF" height="33.5234" style="stroke:#181818;stroke-width:1.0;" width="10" x="2204.5" y="1365.4766"/><rect fill="#FFFFFF" height="30" style="stroke:#181818;stroke-width:1.0;" width="10" x="2751.5" y="1439.6406"/><rect fill="#FFFFFF" height="30" style="stroke:#181818;stroke-width:1.0;" width="10" x="3035.5" y="1006.3359"/><rect fill="#FFFFFF" height="30" style="stroke:#181818;stroke-width:1.0;" width="10" x="3035.5" y="1064.8594"/><rect fill="#FFFFFF" height="30" style="stroke:#181818;stroke-width:1.0;" width="10" x="3035.5" y="1123.3828"/><rect fill="#FFFFFF" height="30" style="stroke:#181818;stroke-width:1.0;" width="10" x="3035.5" y="1181.9063"/><rect fill="#FFFFFF" height="30" style="stroke:#181818;stroke-width:1.0;" width="10" x="3035.5" y="1240.4297"/><rect fill="#FFFFFF" height="30" style="stroke:#181818;stroke-width:1.0;" width="10" x="3035.5" y="1298.9531"/><polygon fill="#181818" points="587.5,143.8047,597.5,147.8047,587.5,151.8047,591.5,147.8047" style="stroke:#181818;stroke-width:1.0;"/><line style="stroke:#181818;stroke-width:1.0;" x1="31.5" x2="593.5" y1="147.8047" y2="147.8047"/><text fill="#000000" font-family="sans-serif" font-size="13" font-weight="bold" lengthAdjust="spacing" textLength="7" x="38.5" y="143.0498">1</text><text fill="#000000" font-family="sans-serif" font-size="13" lengthAdjust="spacing" textLength="319" x="49.5" y="143.0498">asks for the list of all booking requests made for myself</text><polygon fill="#181818" points="942,172.3281,952,176.3281,942,180.3281,946,176.3281" style="stroke:#181818;stroke-width:1.0;"/><line style="stroke:#181818;stroke-width:1.0;" x1="609.5" x2="948" y1="176.3281" y2="176.3281"/><text fill="#000000" font-family="sans-serif" font-size="13" font-weight="bold" lengthAdjust="spacing" textLength="7" x="616.5" y="171.5732">2</text><text fill="#000000" font-family="sans-serif" font-size="13" lengthAdjust="spacing" textLength="36" x="627.5" y="171.5732">create</text><rect fill="#E3E3E3" height="29.6406" rx="2.5" ry="2.5" style="stroke:#181818;stroke-width:0.5;" width="213" x="954" y="155.8047"/><text fill="#000000" font-family="sans-serif" font-size="14" lengthAdjust="spacing" textLength="199" x="961" y="175.4785">:ListBookingRequestsController</text><polygon fill="#181818" points="42.5,212.9688,32.5,216.9688,42.5,220.9688,38.5,216.9688" style="stroke:#181818;stroke-width:1.0;"/><line style="stroke:#181818;stroke-width:1.0;stroke-dasharray:2.0,2.0;" x1="36.5" x2="603.5" y1="216.9688" y2="216.9688"/><text fill="#000000" font-family="sans-serif" font-size="13" font-weight="bold" lengthAdjust="spacing" textLength="7" x="48.5" y="212.2139">3</text><text fill="#000000" font-family="sans-serif" font-size="13" lengthAdjust="spacing" textLength="384" x="59.5" y="212.2139">asks for the period of time that the agent wants to see its requests</text><polygon fill="#181818" points="587.5,241.4922,597.5,245.4922,587.5,249.4922,591.5,245.4922" style="stroke:#181818;stroke-width:1.0;"/><line style="stroke:#181818;stroke-width:1.0;" x1="31.5" x2="593.5" y1="245.4922" y2="245.4922"/><text fill="#000000" font-family="sans-serif" font-size="13" font-weight="bold" lengthAdjust="spacing" textLength="7" x="38.5" y="240.7373">4</text><text fill="#000000" font-family="sans-serif" font-size="13" lengthAdjust="spacing" textLength="270" x="49.5" y="240.7373">select a specific period of time for the requests</text><polygon fill="#181818" points="1043.5,270.0156,1053.5,274.0156,1043.5,278.0156,1047.5,274.0156" style="stroke:#181818;stroke-width:1.0;"/><line style="stroke:#181818;stroke-width:1.0;" x1="609.5" x2="1049.5" y1="274.0156" y2="274.0156"/><text fill="#000000" font-family="sans-serif" font-size="13" font-weight="bold" lengthAdjust="spacing" textLength="7" x="616.5" y="269.2607">5</text><text fill="#000000" font-family="sans-serif" font-size="13" lengthAdjust="spacing" textLength="137" x="627.5" y="269.2607">getAgentFromSession()</text><polygon fill="#181818" points="1438.5,298.5391,1448.5,302.5391,1438.5,306.5391,1442.5,302.5391" style="stroke:#181818;stroke-width:1.0;"/><line style="stroke:#181818;stroke-width:1.0;" x1="1065.5" x2="1444.5" y1="302.5391" y2="302.5391"/><text fill="#000000" font-family="sans-serif" font-size="13" font-weight="bold" lengthAdjust="spacing" textLength="7" x="1072.5" y="297.7842">6</text><text fill="#000000" font-family="sans-serif" font-size="13" lengthAdjust="spacing" textLength="75" x="1083.5" y="297.7842">getInstance()</text><polygon fill="#181818" points="1076.5,327.0625,1066.5,331.0625,1076.5,335.0625,1072.5,331.0625" style="stroke:#181818;stroke-width:1.0;"/><line style="stroke:#181818;stroke-width:1.0;stroke-dasharray:2.0,2.0;" x1="1070.5" x2="1454.5" y1="331.0625" y2="331.0625"/><text fill="#000000" font-family="sans-serif" font-size="13" font-weight="bold" lengthAdjust="spacing" textLength="7" x="1082.5" y="326.3076">7</text><text fill="#000000" font-family="sans-serif" font-size="13" lengthAdjust="spacing" textLength="68" x="1093.5" y="326.3076">appSession</text><polygon fill="#181818" points="1585.5,355.5859,1595.5,359.5859,1585.5,363.5859,1589.5,359.5859" style="stroke:#181818;stroke-width:1.0;"/><line style="stroke:#181818;stroke-width:1.0;" x1="1065.5" x2="1591.5" y1="359.5859" y2="359.5859"/><text fill="#000000" font-family="sans-serif" font-size="13" font-weight="bold" lengthAdjust="spacing" textLength="7" x="1072.5" y="354.8311">8</text><text fill="#000000" font-family="sans-serif" font-size="13" lengthAdjust="spacing" textLength="115" x="1083.5" y="354.8311">getCurrentSession()</text><polygon fill="#181818" points="1076.5,384.1094,1066.5,388.1094,1076.5,392.1094,1072.5,388.1094" style="stroke:#181818;stroke-width:1.0;"/><line style="stroke:#181818;stroke-width:1.0;stroke-dasharray:2.0,2.0;" x1="1070.5" x2="1601.5" y1="388.1094" y2="388.1094"/><text fill="#000000" font-family="sans-serif" font-size="13" font-weight="bold" lengthAdjust="spacing" textLength="7" x="1082.5" y="383.3545">9</text><text fill="#000000" font-family="sans-serif" font-size="13" lengthAdjust="spacing" textLength="87" x="1093.5" y="383.3545">currentSession</text><polygon fill="#181818" points="1718.5,412.6328,1728.5,416.6328,1718.5,420.6328,1722.5,416.6328" style="stroke:#181818;stroke-width:1.0;"/><line style="stroke:#181818;stroke-width:1.0;" x1="1065.5" x2="1724.5" y1="416.6328" y2="416.6328"/><text fill="#000000" font-family="sans-serif" font-size="13" font-weight="bold" lengthAdjust="spacing" textLength="14" x="1072.5" y="411.8779">10</text><text fill="#000000" font-family="sans-serif" font-size="13" lengthAdjust="spacing" textLength="133" x="1090.5" y="411.8779">email = getUserEmail()</text><polygon fill="#181818" points="1076.5,441.1563,1066.5,445.1563,1076.5,449.1563,1072.5,445.1563" style="stroke:#181818;stroke-width:1.0;"/><line style="stroke:#181818;stroke-width:1.0;stroke-dasharray:2.0,2.0;" x1="1070.5" x2="1734.5" y1="445.1563" y2="445.1563"/><text fill="#000000" font-family="sans-serif" font-size="13" font-weight="bold" lengthAdjust="spacing" textLength="14" x="1082.5" y="440.4014">11</text><text fill="#000000" font-family="sans-serif" font-size="13" lengthAdjust="spacing" textLength="31" x="1100.5" y="440.4014">email</text><polygon fill="#181818" points="1208.5,469.6797,1218.5,473.6797,1208.5,477.6797,1212.5,473.6797" style="stroke:#181818;stroke-width:1.0;"/><line style="stroke:#181818;stroke-width:1.0;" x1="1065.5" x2="1214.5" y1="473.6797" y2="473.6797"/><text fill="#000000" font-family="sans-serif" font-size="13" font-weight="bold" lengthAdjust="spacing" textLength="14" x="1072.5" y="468.9248">12</text><text fill="#000000" font-family="sans-serif" font-size="13" lengthAdjust="spacing" textLength="75" x="1090.5" y="468.9248">getInstance()</text><polygon fill="#181818" points="1076.5,498.2031,1066.5,502.2031,1076.5,506.2031,1072.5,502.2031" style="stroke:#181818;stroke-width:1.0;"/><line style="stroke:#181818;stroke-width:1.0;stroke-dasharray:2.0,2.0;" x1="1070.5" x2="1224.5" y1="502.2031" y2="502.2031"/><text fill="#000000" font-family="sans-serif" font-size="13" font-weight="bold" lengthAdjust="spacing" textLength="14" x="1082.5" y="497.4482">13</text><text fill="#000000" font-family="sans-serif" font-size="13" lengthAdjust="spacing" textLength="72" x="1100.5" y="497.4482">Repositories</text><polygon fill="#181818" points="1313.5,526.7266,1323.5,530.7266,1313.5,534.7266,1317.5,530.7266" style="stroke:#181818;stroke-width:1.0;"/><line style="stroke:#181818;stroke-width:1.0;" x1="1065.5" x2="1319.5" y1="530.7266" y2="530.7266"/><text fill="#000000" font-family="sans-serif" font-size="13" font-weight="bold" lengthAdjust="spacing" textLength="14" x="1072.5" y="525.9717">14</text><text fill="#000000" font-family="sans-serif" font-size="13" lengthAdjust="spacing" textLength="146" x="1090.5" y="525.9717">getEmployeeRepository()</text><polygon fill="#181818" points="1076.5,555.25,1066.5,559.25,1076.5,563.25,1072.5,559.25" style="stroke:#181818;stroke-width:1.0;"/><line style="stroke:#181818;stroke-width:1.0;stroke-dasharray:2.0,2.0;" x1="1070.5" x2="1329.5" y1="559.25" y2="559.25"/><text fill="#000000" font-family="sans-serif" font-size="13" font-weight="bold" lengthAdjust="spacing" textLength="14" x="1082.5" y="554.4951">15</text><text fill="#000000" font-family="sans-serif" font-size="13" lengthAdjust="spacing" textLength="120" x="1100.5" y="554.4951">EmployeeRepository</text><polygon fill="#181818" points="1856.5,583.7734,1866.5,587.7734,1856.5,591.7734,1860.5,587.7734" style="stroke:#181818;stroke-width:1.0;"/><line style="stroke:#181818;stroke-width:1.0;" x1="1065.5" x2="1862.5" y1="587.7734" y2="587.7734"/><text fill="#000000" font-family="sans-serif" font-size="13" font-weight="bold" lengthAdjust="spacing" textLength="14" x="1072.5" y="583.0186">16</text><text fill="#000000" font-family="sans-serif" font-size="13" lengthAdjust="spacing" textLength="212" x="1090.5" y="583.0186">agent = getEmployeeByEmail(email)</text><polygon fill="#181818" points="1076.5,612.2969,1066.5,616.2969,1076.5,620.2969,1072.5,616.2969" style="stroke:#181818;stroke-width:1.0;"/><line style="stroke:#181818;stroke-width:1.0;stroke-dasharray:2.0,2.0;" x1="1070.5" x2="1872.5" y1="616.2969" y2="616.2969"/><text fill="#000000" font-family="sans-serif" font-size="13" font-weight="bold" lengthAdjust="spacing" textLength="14" x="1082.5" y="611.542">17</text><text fill="#000000" font-family="sans-serif" font-size="13" lengthAdjust="spacing" textLength="32" x="1100.5" y="611.542">agent</text><polygon fill="#181818" points="620.5,640.8203,610.5,644.8203,620.5,648.8203,616.5,644.8203" style="stroke:#181818;stroke-width:1.0;"/><line style="stroke:#181818;stroke-width:1.0;stroke-dasharray:2.0,2.0;" x1="614.5" x2="1059.5" y1="644.8203" y2="644.8203"/><text fill="#000000" font-family="sans-serif" font-size="13" font-weight="bold" lengthAdjust="spacing" textLength="14" x="626.5" y="640.0654">18</text><text fill="#000000" font-family="sans-serif" font-size="13" lengthAdjust="spacing" textLength="32" x="644.5" y="640.0654">agent</text><polygon fill="#181818" points="1043.5,669.3438,1053.5,673.3438,1043.5,677.3438,1047.5,673.3438" style="stroke:#181818;stroke-width:1.0;"/><line style="stroke:#181818;stroke-width:1.0;" x1="609.5" x2="1049.5" y1="673.3438" y2="673.3438"/><text fill="#000000" font-family="sans-serif" font-size="13" font-weight="bold" lengthAdjust="spacing" textLength="14" x="616.5" y="668.5889">19</text><text fill="#000000" font-family="sans-serif" font-size="13" lengthAdjust="spacing" textLength="409" x="634.5" y="668.5889">getVisitRequestsByAgent(String agent,DateTime begin,DateTime end )</text><polygon fill="#181818" points="1208.5,697.8672,1218.5,701.8672,1208.5,705.8672,1212.5,701.8672" style="stroke:#181818;stroke-width:1.0;"/><line style="stroke:#181818;stroke-width:1.0;" x1="1065.5" x2="1214.5" y1="701.8672" y2="701.8672"/><text fill="#000000" font-family="sans-serif" font-size="13" font-weight="bold" lengthAdjust="spacing" textLength="14" x="1072.5" y="697.1123">20</text><text fill="#000000" font-family="sans-serif" font-size="13" lengthAdjust="spacing" textLength="75" x="1090.5" y="697.1123">getInstance()</text><polygon fill="#181818" points="1076.5,726.3906,1066.5,730.3906,1076.5,734.3906,1072.5,730.3906" style="stroke:#181818;stroke-width:1.0;"/><line style="stroke:#181818;stroke-width:1.0;stroke-dasharray:2.0,2.0;" x1="1070.5" x2="1224.5" y1="730.3906" y2="730.3906"/><text fill="#000000" font-family="sans-serif" font-size="13" font-weight="bold" lengthAdjust="spacing" textLength="14" x="1082.5" y="725.6357">21</text><text fill="#000000" font-family="sans-serif" font-size="13" lengthAdjust="spacing" textLength="72" x="1100.5" y="725.6357">Repositories</text><polygon fill="#181818" points="2023.5,754.9141,2033.5,758.9141,2023.5,762.9141,2027.5,758.9141" style="stroke:#181818;stroke-width:1.0;"/><line style="stroke:#181818;stroke-width:1.0;" x1="1065.5" x2="2029.5" y1="758.9141" y2="758.9141"/><text fill="#000000" font-family="sans-serif" font-size="13" font-weight="bold" lengthAdjust="spacing" textLength="14" x="1072.5" y="754.1592">22</text><text fill="#000000" font-family="sans-serif" font-size="13" lengthAdjust="spacing" textLength="162" x="1090.5" y="754.1592">getVisitRequestRepository()</text><polygon fill="#181818" points="1076.5,783.4375,1066.5,787.4375,1076.5,791.4375,1072.5,787.4375" style="stroke:#181818;stroke-width:1.0;"/><line style="stroke:#181818;stroke-width:1.0;stroke-dasharray:2.0,2.0;" x1="1070.5" x2="2039.5" y1="787.4375" y2="787.4375"/><text fill="#000000" font-family="sans-serif" font-size="13" font-weight="bold" lengthAdjust="spacing" textLength="14" x="1082.5" y="782.6826">23</text><text fill="#000000" font-family="sans-serif" font-size="13" lengthAdjust="spacing" textLength="132" x="1100.5" y="782.6826">visitRequestRepository</text><polygon fill="#181818" points="2023.5,811.9609,2033.5,815.9609,2023.5,819.9609,2027.5,815.9609" style="stroke:#181818;stroke-width:1.0;"/><line style="stroke:#181818;stroke-width:1.0;" x1="1065.5" x2="2029.5" y1="815.9609" y2="815.9609"/><text fill="#000000" font-family="sans-serif" font-size="13" font-weight="bold" lengthAdjust="spacing" textLength="14" x="1072.5" y="811.2061">24</text><text fill="#000000" font-family="sans-serif" font-size="13" lengthAdjust="spacing" textLength="459" x="1090.5" y="811.2061">getVisitRequestsByAgentInPeriod(String email, DateTime begin, DateTime end)</text><polygon fill="#181818" points="2906.5,840.4844,2916.5,844.4844,2906.5,848.4844,2910.5,844.4844" style="stroke:#181818;stroke-width:1.0;"/><line style="stroke:#181818;stroke-width:1.0;" x1="2045.5" x2="2912.5" y1="844.4844" y2="844.4844"/><text fill="#000000" font-family="sans-serif" font-size="13" font-weight="bold" lengthAdjust="spacing" textLength="14" x="2052.5" y="839.7295">25</text><text fill="#000000" font-family="sans-serif" font-size="13" lengthAdjust="spacing" textLength="44" x="2070.5" y="839.7295">create()</text><rect fill="#E3E3E3" height="29.6406" rx="2.5" ry="2.5" style="stroke:#181818;stroke-width:0.5;" width="244" x="2918.5" y="823.9609"/><text fill="#000000" font-family="sans-serif" font-size="14" lengthAdjust="spacing" textLength="230" x="2925.5" y="843.6348">ListVisitRequest : List&lt;VisitRequest&gt;</text><polygon fill="#181818" points="1076.5,881.125,1066.5,885.125,1076.5,889.125,1072.5,885.125" style="stroke:#181818;stroke-width:1.0;"/><line style="stroke:#181818;stroke-width:1.0;stroke-dasharray:2.0,2.0;" x1="1070.5" x2="2039.5" y1="885.125" y2="885.125"/><text fill="#000000" font-family="sans-serif" font-size="13" font-weight="bold" lengthAdjust="spacing" textLength="14" x="1082.5" y="880.3701">26</text><text fill="#000000" font-family="sans-serif" font-size="13" lengthAdjust="spacing" textLength="174" x="1100.5" y="880.3701">visitRequestsByAgentInPeriod</text><polygon fill="#181818" points="2187.5,909.6484,2197.5,913.6484,2187.5,917.6484,2191.5,913.6484" style="stroke:#181818;stroke-width:1.0;"/><line style="stroke:#181818;stroke-width:1.0;" x1="1065.5" x2="2193.5" y1="913.6484" y2="913.6484"/><text fill="#000000" font-family="sans-serif" font-size="13" font-weight="bold" lengthAdjust="spacing" textLength="14" x="1072.5" y="908.8936">27</text><text fill="#000000" font-family="sans-serif" font-size="13" lengthAdjust="spacing" textLength="307" x="1090.5" y="908.8936">getVisitRequestsDTO(visitRequestsByAgentInPeriod)</text><polygon fill="#181818" points="2592.5,938.1719,2602.5,942.1719,2592.5,946.1719,2596.5,942.1719" style="stroke:#181818;stroke-width:1.0;"/><line style="stroke:#181818;stroke-width:1.0;" x1="2209.5" x2="2598.5" y1="942.1719" y2="942.1719"/><text fill="#000000" font-family="sans-serif" font-size="13" font-weight="bold" lengthAdjust="spacing" textLength="14" x="2216.5" y="937.417">28</text><text fill="#000000" font-family="sans-serif" font-size="13" lengthAdjust="spacing" textLength="44" x="2234.5" y="937.417">create()</text><rect fill="#E3E3E3" height="29.6406" rx="2.5" ry="2.5" style="stroke:#181818;stroke-width:0.5;" width="304" x="2604.5" y="921.6484"/><text fill="#000000" font-family="sans-serif" font-size="14" lengthAdjust="spacing" textLength="290" x="2611.5" y="941.3223">ListVisitRequestDTO : List&lt;VisitRequestDTO&gt;</text><path d="M2124,969.2891 L2197,969.2891 L2197,975.8125 L2187,985.8125 L2124,985.8125 L2124,969.2891 " fill="#EEEEEE" style="stroke:#000000;stroke-width:1.5;"/><rect fill="none" height="508.3516" style="stroke:#000000;stroke-width:1.5;" width="1048.5" x="2124" y="969.2891"/><text fill="#000000" font-family="sans-serif" font-size="13" font-weight="bold" lengthAdjust="spacing" textLength="28" x="2139" y="982.0576">loop</text><text fill="#000000" font-family="sans-serif" font-size="11" font-weight="bold" lengthAdjust="spacing" textLength="198" x="2212" y="981.2471">[for each object in ListVisitRequest]</text><polygon fill="#181818" points="3023.5,1002.3359,3033.5,1006.3359,3023.5,1010.3359,3027.5,1006.3359" style="stroke:#181818;stroke-width:1.0;"/><line style="stroke:#181818;stroke-width:1.0;" x1="2209.5" x2="3029.5" y1="1006.3359" y2="1006.3359"/><text fill="#000000" font-family="sans-serif" font-size="13" font-weight="bold" lengthAdjust="spacing" textLength="14" x="2216.5" y="1001.5811">29</text><text fill="#000000" font-family="sans-serif" font-size="13" lengthAdjust="spacing" textLength="227" x="2234.5" y="1001.5811">clientName = getBusinessTypeObject()</text><polygon fill="#181818" points="3023.5,1060.8594,3033.5,1064.8594,3023.5,1068.8594,3027.5,1064.8594" style="stroke:#181818;stroke-width:1.0;"/><line style="stroke:#181818;stroke-width:1.0;" x1="2209.5" x2="3029.5" y1="1064.8594" y2="1064.8594"/><text fill="#000000" font-family="sans-serif" font-size="13" font-weight="bold" lengthAdjust="spacing" textLength="14" x="2216.5" y="1060.1045">30</text><text fill="#000000" font-family="sans-serif" font-size="13" lengthAdjust="spacing" textLength="140" x="2234.5" y="1060.1045">Property = getProperty()</text><polygon fill="#181818" points="3023.5,1119.3828,3033.5,1123.3828,3023.5,1127.3828,3027.5,1123.3828" style="stroke:#181818;stroke-width:1.0;"/><line style="stroke:#181818;stroke-width:1.0;" x1="2209.5" x2="3029.5" y1="1123.3828" y2="1123.3828"/><text fill="#000000" font-family="sans-serif" font-size="13" font-weight="bold" lengthAdjust="spacing" textLength="14" x="2216.5" y="1118.6279">31</text><text fill="#000000" font-family="sans-serif" font-size="13" lengthAdjust="spacing" textLength="198" x="2234.5" y="1118.6279">preferredDate = getPreferredDate()</text><polygon fill="#181818" points="3023.5,1177.9063,3033.5,1181.9063,3023.5,1185.9063,3027.5,1181.9063" style="stroke:#181818;stroke-width:1.0;"/><line style="stroke:#181818;stroke-width:1.0;" x1="2209.5" x2="3029.5" y1="1181.9063" y2="1181.9063"/><text fill="#000000" font-family="sans-serif" font-size="13" font-weight="bold" lengthAdjust="spacing" textLength="14" x="2216.5" y="1177.1514">32</text><text fill="#000000" font-family="sans-serif" font-size="13" lengthAdjust="spacing" textLength="138" x="2234.5" y="1177.1514">Address = getAddress()</text><polygon fill="#181818" points="3023.5,1236.4297,3033.5,1240.4297,3023.5,1244.4297,3027.5,1240.4297" style="stroke:#181818;stroke-width:1.0;"/><line style="stroke:#181818;stroke-width:1.0;" x1="2209.5" x2="3029.5" y1="1240.4297" y2="1240.4297"/><text fill="#000000" font-family="sans-serif" font-size="13" font-weight="bold" lengthAdjust="spacing" textLength="14" x="2216.5" y="1235.6748">33</text><text fill="#000000" font-family="sans-serif" font-size="13" lengthAdjust="spacing" textLength="270" x="2234.5" y="1235.6748">clientPhoneNumber = getClientPhoneNumber()</text><polygon fill="#181818" points="3023.5,1294.9531,3033.5,1298.9531,3023.5,1302.9531,3027.5,1298.9531" style="stroke:#181818;stroke-width:1.0;"/><line style="stroke:#181818;stroke-width:1.0;" x1="2209.5" x2="3029.5" y1="1298.9531" y2="1298.9531"/><text fill="#000000" font-family="sans-serif" font-size="13" font-weight="bold" lengthAdjust="spacing" textLength="14" x="2216.5" y="1294.1982">34</text><text fill="#000000" font-family="sans-serif" font-size="13" lengthAdjust="spacing" textLength="141" x="2234.5" y="1294.1982">timeSlot = getTimeSlot()</text><line style="stroke:#181818;stroke-width:1.0;" x1="2209.5" x2="2256.5" y1="1352.4766" y2="1352.4766"/><line style="stroke:#181818;stroke-width:1.0;" x1="2256.5" x2="2256.5" y1="1352.4766" y2="1365.4766"/><line style="stroke:#181818;stroke-width:1.0;" x1="2215.5" x2="2256.5" y1="1365.4766" y2="1365.4766"/><polygon fill="#181818" points="2225.5,1361.4766,2215.5,1365.4766,2225.5,1369.4766,2221.5,1365.4766" style="stroke:#181818;stroke-width:1.0;"/><text fill="#000000" font-family="sans-serif" font-size="13" font-weight="bold" lengthAdjust="spacing" textLength="14" x="2221.5" y="1347.7217">35</text><text fill="#000000" font-family="sans-serif" font-size="13" lengthAdjust="spacing" textLength="231" x="2239.5" y="1347.7217">VisitRequestDTO= toDTO(VisitRequest)</text><polygon fill="#181818" points="2348.5,1395,2358.5,1399,2348.5,1403,2352.5,1399" style="stroke:#181818;stroke-width:1.0;"/><line style="stroke:#181818;stroke-width:1.0;stroke-dasharray:2.0,2.0;" x1="2209.5" x2="2354.5" y1="1399" y2="1399"/><text fill="#000000" font-family="sans-serif" font-size="13" font-weight="bold" lengthAdjust="spacing" textLength="14" x="2216.5" y="1394.2451">36</text><text fill="#000000" font-family="sans-serif" font-size="13" lengthAdjust="spacing" textLength="44" x="2234.5" y="1394.2451">create()</text><rect fill="#E3E3E3" height="29.6406" rx="2.5" ry="2.5" style="stroke:#181818;stroke-width:0.5;" width="234" x="2360.5" y="1378.4766"/><text fill="#000000" font-family="sans-serif" font-size="14" lengthAdjust="spacing" textLength="220" x="2367.5" y="1398.1504">visitRequestDTO:VisitRequestDTO</text><polygon fill="#181818" points="2739.5,1435.6406,2749.5,1439.6406,2739.5,1443.6406,2743.5,1439.6406" style="stroke:#181818;stroke-width:1.0;"/><line style="stroke:#181818;stroke-width:1.0;" x1="2209.5" x2="2745.5" y1="1439.6406" y2="1439.6406"/><text fill="#000000" font-family="sans-serif" font-size="13" font-weight="bold" lengthAdjust="spacing" textLength="14" x="2216.5" y="1434.8857">37</text><text fill="#000000" font-family="sans-serif" font-size="13" lengthAdjust="spacing" textLength="129" x="2234.5" y="1434.8857">add(VisitRequestDTO)</text><polygon fill="#181818" points="1076.5,1501.1641,1066.5,1505.1641,1076.5,1509.1641,1072.5,1505.1641" style="stroke:#181818;stroke-width:1.0;"/><line style="stroke:#181818;stroke-width:1.0;stroke-dasharray:2.0,2.0;" x1="1070.5" x2="2203.5" y1="1505.1641" y2="1505.1641"/><text fill="#000000" font-family="sans-serif" font-size="13" font-weight="bold" lengthAdjust="spacing" textLength="14" x="1082.5" y="1500.4092">38</text><text fill="#000000" font-family="sans-serif" font-size="13" lengthAdjust="spacing" textLength="124" x="1100.5" y="1500.4092">visitRequestsDTOList</text><polygon fill="#181818" points="620.5,1529.6875,610.5,1533.6875,620.5,1537.6875,616.5,1533.6875" style="stroke:#181818;stroke-width:1.0;"/><line style="stroke:#181818;stroke-width:1.0;stroke-dasharray:2.0,2.0;" x1="614.5" x2="1059.5" y1="1533.6875" y2="1533.6875"/><text fill="#000000" font-family="sans-serif" font-size="13" font-weight="bold" lengthAdjust="spacing" textLength="14" x="626.5" y="1528.9326">39</text><text fill="#000000" font-family="sans-serif" font-size="13" lengthAdjust="spacing" textLength="124" x="644.5" y="1528.9326">visitRequestsDTOList</text><polygon fill="#181818" points="42.5,1558.2109,32.5,1562.2109,42.5,1566.2109,38.5,1562.2109" style="stroke:#181818;stroke-width:1.0;"/><line style="stroke:#181818;stroke-width:1.0;stroke-dasharray:2.0,2.0;" x1="36.5" x2="603.5" y1="1562.2109" y2="1562.2109"/><text fill="#000000" font-family="sans-serif" font-size="13" font-weight="bold" lengthAdjust="spacing" textLength="14" x="48.5" y="1557.4561">40</text><text fill="#000000" font-family="sans-serif" font-size="13" lengthAdjust="spacing" textLength="526" x="66.5" y="1557.4561">show the list of booking requests based on the selected date and sorted in ascending order</text><!--SRC=[jLTDRziu4BtpLn0vPOCMwB4mcW9EubqOg1D3TdmAiA2biSr69hKYtS3_laEAj4YAJjp3vX9nEFFc3JaVj7hbec4jszEz5BBSjN8FLBS78Egqqx3obMrXeOyrq1PApSIs3XNKZbNoZOijtR1Q0I6QQrHzNdpvyfKkuBy3Y1Be0sTRr2RieAKuxDVG4i9ABLjwDTw2q5UKAMg_2248h7d96oOqlHhzu4hVIOaEjuM1KrezJwt-y_HZrNifT2lh6bfhShyiVYH61JHISQJ2GLcT6UFY93p6shryH5_4mFISsMZSD3KlcUPIB40f_6Vr_ntFvx4cQngdy2BEMGsCoaFRuj7rXiyAsj1YCLaifa-FiHNicreU0OAONiHa8BG0aoAsfRyuxhf3ZW1MsGqBiYeAGjBx3VLd6Bsxg5KnY_L2Xm_Bfz4gNdT6gm8_OpkJ4uak7L4Z_PQ8lpl77qBaxBrnR3aMGXum__TuEm7tlBYxM-kU3CyfA9D_S8_Y7nOG_yKq-CAXtGVz_1rB0qaozQhe1cjCxu3Mo9ZA3MLrJTTTZM0zTqL2zwm2gxa_AgWtCJgMcHKW9YAR2hgvGVIo1TnrLEmcxdO44jTufrnMnhdcfiFicBPoPfNVC3n5jQGAW7ByzAmwOFoh8EBIoUDGaJNs9igeQg3a6rwcJZsN6FoT615q2zfw-HiRewkcwxyygvEfRIbUQYqHmHHsXp0L2djc2HbBM_rUQYq-zyxxHa26nn1PUfydb_THEyWu3gqJjt4hoRZEUNRj1SrXptXDRmqBquCcPfaXuFkHt_000H6BbF6VclOiuhvzxlG35acZzne93d9obC9sds5s1ixJ2qS7CXissimvPU1YPlwqXcWPWk-GcnGZLuwt8RcxOtU3zZA6z70gUDcaED5nI1a2WNxds9RlUVsejFhIjESNDbzrTxI5UhtGhUbh5k_J0q8iJUslOSj5lmHHqNDbJFwVbFh3fBeahNgIE5O79vBBge2cdSGdCQw2oyjFzYor62RWGyzUqLJCRMFsLsKpwnDDxeg6btLX0CRnpOsVInZs9G6cj2u8CuXpDWmJf_VrUmw2O9A0PhqFN7GE42qNKYrbOoSQSjnHkVvfPXyND7se49VGY6VX4AdcIEQHuSdQGhyxA2wmro-F3JnP79Sl0J4oE0x7euUTjnBdhJvse7xbKo_5-W2iQM43E8KgamGUCH1T2flYZgkgnL0xHBUu66k0rftaV2S5FDeVD1tkVIg-t4FYm3nR5hLq7NdfLgTolkXGJt2OgSbhznQVN2PPGt6SdFdSFEMdmHrcQAWMCPgH38RBSPm0LNMT43nBnZoGpxfnh-Tmt_JxRIiF3Sb7aUaAY69gwTremhrWcj4_Wt9ZX_GfbhoarKw-HG_umUDzpHJWGrTOhUuXZElAe3CCNSdMhB4zC5NYMHXRsLRu2pp_kYRaDm00]--></g></svg>