<?xml version="1.0" encoding="us-ascii" standalone="no"?><svg xmlns="http://www.w3.org/2000/svg" xmlns:xlink="http://www.w3.org/1999/xlink" contentStyleType="text/css" height="1631px" preserveAspectRatio="none" style="width:3226px;height:1631px;background:#FFFFFF;" version="1.1" viewBox="0 0 3226 1631" width="3226px" zoomAndPan="magnify"><defs/><g><text fill="#000000" font-family="sans-serif" font-size="14" font-weight="bold" lengthAdjust="spacing" textLength="179" x="1522.75" y="27.6738">US008 Sequence Diagram</text><rect fill="#FFFFFF" height="1415.0078" style="stroke:#181818;stroke-width:1.0;" width="10" x="21.5" y="127.2813"/><rect fill="#FFFFFF" height="69.1641" style="stroke:#181818;stroke-width:1.0;" width="10" x="464.5" y="147.8047"/><rect fill="#FFFFFF" height="28.5234" style="stroke:#181818;stroke-width:1.0;" width="10" x="464.5" y="245.4922"/><rect fill="#FFFFFF" height="1230.75" style="stroke:#181818;stroke-width:1.0;" width="10" x="464.5" y="302.5391"/><rect fill="#FFFFFF" height="1129.1797" style="stroke:#181818;stroke-width:1.0;" width="10" x="835.5" y="361.0625"/><rect fill="#FFFFFF" height="28.5234" style="stroke:#181818;stroke-width:1.0;" width="10" x="1007.5" y="431.1094"/><rect fill="#FFFFFF" height="28.5234" style="stroke:#181818;stroke-width:1.0;" width="10" x="1822.5" y="488.1563"/><rect fill="#FFFFFF" height="296.4766" style="stroke:#181818;stroke-width:1.0;" width="10" x="1822.5" y="545.2031"/><rect fill="#FFFFFF" height="39.5234" style="stroke:#181818;stroke-width:1.0;" width="10" x="1827.5" y="662.2969"/><rect fill="#FFFFFF" height="39.5234" style="stroke:#181818;stroke-width:1.0;" width="10" x="1827.5" y="759.6328"/><rect fill="#FFFFFF" height="591.5156" style="stroke:#181818;stroke-width:1.0;" width="10" x="1997.5" y="870.2031"/><rect fill="#FFFFFF" height="33.5234" style="stroke:#181818;stroke-width:1.0;" width="10" x="2002.5" y="1322.0313"/><rect fill="#FFFFFF" height="30" style="stroke:#181818;stroke-width:1.0;" width="10" x="2549.5" y="1396.1953"/><rect fill="#FFFFFF" height="30" style="stroke:#181818;stroke-width:1.0;" width="10" x="2898.5" y="962.8906"/><rect fill="#FFFFFF" height="30" style="stroke:#181818;stroke-width:1.0;" width="10" x="2898.5" y="1021.4141"/><rect fill="#FFFFFF" height="30" style="stroke:#181818;stroke-width:1.0;" width="10" x="2898.5" y="1079.9375"/><rect fill="#FFFFFF" height="30" style="stroke:#181818;stroke-width:1.0;" width="10" x="2898.5" y="1138.4609"/><rect fill="#FFFFFF" height="30" style="stroke:#181818;stroke-width:1.0;" width="10" x="2898.5" y="1196.9844"/><rect fill="#FFFFFF" height="30" style="stroke:#181818;stroke-width:1.0;" width="10" x="2898.5" y="1255.5078"/><rect fill="#FFFFFF" height="28.5234" style="stroke:#181818;stroke-width:1.0;" width="10" x="3155.5" y="573.7266"/><rect fill="none" height="196.9063" style="stroke:#000000;stroke-width:1.5;" width="268.5" x="1734" y="617.25"/><rect fill="none" height="508.3516" style="stroke:#000000;stroke-width:1.5;" width="1178.5" x="1922" y="925.8438"/><line style="stroke:#181818;stroke-width:0.5;stroke-dasharray:5.0,5.0;" x1="26" x2="26" y1="117.2813" y2="1551.2891"/><line style="stroke:#181818;stroke-width:0.5;stroke-dasharray:5.0,5.0;" x1="469" x2="469" y1="117.2813" y2="1551.2891"/><line style="stroke:#181818;stroke-width:0.5;stroke-dasharray:5.0,5.0;" x1="840" x2="840" y1="186.125" y2="1551.2891"/><line style="stroke:#181818;stroke-width:0.5;stroke-dasharray:5.0,5.0;" x1="1012" x2="1012" y1="117.2813" y2="1551.2891"/><line style="stroke:#181818;stroke-width:0.5;stroke-dasharray:5.0,5.0;" x1="1117" x2="1117" y1="117.2813" y2="1551.2891"/><line style="stroke:#181818;stroke-width:0.5;stroke-dasharray:5.0,5.0;" x1="1242" x2="1242" y1="117.2813" y2="1551.2891"/><line style="stroke:#181818;stroke-width:0.5;stroke-dasharray:5.0,5.0;" x1="1389" x2="1389" y1="117.2813" y2="1551.2891"/><line style="stroke:#181818;stroke-width:0.5;stroke-dasharray:5.0,5.0;" x1="1522" x2="1522" y1="117.2813" y2="1551.2891"/><line style="stroke:#181818;stroke-width:0.5;stroke-dasharray:5.0,5.0;" x1="1660" x2="1660" y1="117.2813" y2="1551.2891"/><line style="stroke:#181818;stroke-width:0.5;stroke-dasharray:5.0,5.0;" x1="1827" x2="1827" y1="117.2813" y2="1551.2891"/><line style="stroke:#181818;stroke-width:0.5;stroke-dasharray:5.0,5.0;" x1="2002" x2="2002" y1="117.2813" y2="1551.2891"/><line style="stroke:#181818;stroke-width:0.5;stroke-dasharray:5.0,5.0;" x1="2275.5" x2="2275.5" y1="1365.3516" y2="1551.2891"/><line style="stroke:#181818;stroke-width:0.5;stroke-dasharray:5.0,5.0;" x1="2554.5" x2="2554.5" y1="908.5234" y2="1551.2891"/><line style="stroke:#181818;stroke-width:0.5;stroke-dasharray:5.0,5.0;" x1="2903.5" x2="2903.5" y1="117.2813" y2="1551.2891"/><line style="stroke:#181818;stroke-width:0.5;stroke-dasharray:5.0,5.0;" x1="3160.5" x2="3160.5" y1="117.2813" y2="1551.2891"/><text fill="#000000" font-family="sans-serif" font-size="14" lengthAdjust="spacing" textLength="37" x="5" y="114.3145">Agent</text><ellipse cx="26.5" cy="50.1406" fill="#E3E3E3" rx="8" ry="8" style="stroke:#181818;stroke-width:0.5;"/><path d="M26.5,58.1406 L26.5,85.1406 M13.5,66.1406 L39.5,66.1406 M26.5,85.1406 L13.5,100.1406 M26.5,85.1406 L39.5,100.1406 " fill="none" style="stroke:#181818;stroke-width:0.5;"/><text fill="#000000" font-family="sans-serif" font-size="14" lengthAdjust="spacing" textLength="37" x="5" y="1562.9629">Agent</text><ellipse cx="26.5" cy="1574.4297" fill="#E3E3E3" rx="8" ry="8" style="stroke:#181818;stroke-width:0.5;"/><path d="M26.5,1582.4297 L26.5,1609.4297 M13.5,1590.4297 L39.5,1590.4297 M26.5,1609.4297 L13.5,1624.4297 M26.5,1609.4297 L39.5,1624.4297 " fill="none" style="stroke:#181818;stroke-width:0.5;"/><rect fill="#E3E3E3" height="29.6406" rx="2.5" ry="2.5" style="stroke:#181818;stroke-width:0.5;" width="163" x="388" y="86.6406"/><text fill="#000000" font-family="sans-serif" font-size="14" lengthAdjust="spacing" textLength="149" x="395" y="106.3145">:ListBookingRequestsUI</text><rect fill="#E3E3E3" height="29.6406" rx="2.5" ry="2.5" style="stroke:#181818;stroke-width:0.5;" width="163" x="388" y="1550.2891"/><text fill="#000000" font-family="sans-serif" font-size="14" lengthAdjust="spacing" textLength="149" x="395" y="1569.9629">:ListBookingRequestsUI</text><rect fill="#E3E3E3" height="29.6406" rx="2.5" ry="2.5" style="stroke:#181818;stroke-width:0.5;" width="213" x="734" y="1550.2891"/><text fill="#000000" font-family="sans-serif" font-size="14" lengthAdjust="spacing" textLength="199" x="741" y="1569.9629">:ListBookingRequestsController</text><rect fill="#E3E3E3" height="29.6406" rx="2.5" ry="2.5" style="stroke:#181818;stroke-width:0.5;" width="97" x="964" y="86.6406"/><text fill="#000000" font-family="sans-serif" font-size="14" lengthAdjust="spacing" textLength="83" x="971" y="106.3145">:Repositories</text><rect fill="#E3E3E3" height="29.6406" rx="2.5" ry="2.5" style="stroke:#181818;stroke-width:0.5;" width="97" x="964" y="1550.2891"/><text fill="#000000" font-family="sans-serif" font-size="14" lengthAdjust="spacing" textLength="83" x="971" y="1569.9629">:Repositories</text><rect fill="#E3E3E3" height="45.2813" rx="2.5" ry="2.5" style="stroke:#181818;stroke-width:0.5;" width="93" x="1071" y="71"/><text fill="#000000" font-family="sans-serif" font-size="14" lengthAdjust="spacing" textLength="72" x="1079.5" y="90.6738">Repository:</text><text fill="#000000" font-family="sans-serif" font-size="14" lengthAdjust="spacing" textLength="79" x="1078" y="106.3145">Repositories</text><rect fill="#E3E3E3" height="45.2813" rx="2.5" ry="2.5" style="stroke:#181818;stroke-width:0.5;" width="93" x="1071" y="1550.2891"/><text fill="#000000" font-family="sans-serif" font-size="14" lengthAdjust="spacing" textLength="72" x="1079.5" y="1569.9629">Repository:</text><text fill="#000000" font-family="sans-serif" font-size="14" lengthAdjust="spacing" textLength="79" x="1078" y="1585.6035">Repositories</text><rect fill="#E3E3E3" height="29.6406" rx="2.5" ry="2.5" style="stroke:#181818;stroke-width:0.5;" width="137" x="1174" y="86.6406"/><text fill="#000000" font-family="sans-serif" font-size="14" lengthAdjust="spacing" textLength="123" x="1181" y="106.3145">:ApplicationSession</text><rect fill="#E3E3E3" height="29.6406" rx="2.5" ry="2.5" style="stroke:#181818;stroke-width:0.5;" width="137" x="1174" y="1550.2891"/><text fill="#000000" font-family="sans-serif" font-size="14" lengthAdjust="spacing" textLength="123" x="1181" y="1569.9629">:ApplicationSession</text><rect fill="#E3E3E3" height="45.2813" rx="2.5" ry="2.5" style="stroke:#181818;stroke-width:0.5;" width="137" x="1321" y="71"/><text fill="#000000" font-family="sans-serif" font-size="14" lengthAdjust="spacing" textLength="74" x="1352.5" y="90.6738">appSession</text><text fill="#000000" font-family="sans-serif" font-size="14" lengthAdjust="spacing" textLength="123" x="1328" y="106.3145">:ApplicationSession</text><rect fill="#E3E3E3" height="45.2813" rx="2.5" ry="2.5" style="stroke:#181818;stroke-width:0.5;" width="137" x="1321" y="1550.2891"/><text fill="#000000" font-family="sans-serif" font-size="14" lengthAdjust="spacing" textLength="74" x="1352.5" y="1569.9629">appSession</text><text fill="#000000" font-family="sans-serif" font-size="14" lengthAdjust="spacing" textLength="123" x="1328" y="1585.6035">:ApplicationSession</text><rect fill="#E3E3E3" height="45.2813" rx="2.5" ry="2.5" style="stroke:#181818;stroke-width:0.5;" width="109" x="1468" y="71"/><text fill="#000000" font-family="sans-serif" font-size="14" lengthAdjust="spacing" textLength="95" x="1475" y="90.6738">currentSession</text><text fill="#000000" font-family="sans-serif" font-size="14" lengthAdjust="spacing" textLength="83" x="1481" y="106.3145">:UserSession</text><rect fill="#E3E3E3" height="45.2813" rx="2.5" ry="2.5" style="stroke:#181818;stroke-width:0.5;" width="109" x="1468" y="1550.2891"/><text fill="#000000" font-family="sans-serif" font-size="14" lengthAdjust="spacing" textLength="95" x="1475" y="1569.9629">currentSession</text><text fill="#000000" font-family="sans-serif" font-size="14" lengthAdjust="spacing" textLength="83" x="1481" y="1585.6035">:UserSession</text><rect fill="#E3E3E3" height="45.2813" rx="2.5" ry="2.5" style="stroke:#181818;stroke-width:0.5;" width="147" x="1587" y="71"/><text fill="#000000" font-family="sans-serif" font-size="14" lengthAdjust="spacing" textLength="133" x="1594" y="90.6738">employeeRepository:</text><text fill="#000000" font-family="sans-serif" font-size="14" lengthAdjust="spacing" textLength="130" x="1595.5" y="106.3145">EmployeeRepository</text><rect fill="#E3E3E3" height="45.2813" rx="2.5" ry="2.5" style="stroke:#181818;stroke-width:0.5;" width="147" x="1587" y="1550.2891"/><text fill="#000000" font-family="sans-serif" font-size="14" lengthAdjust="spacing" textLength="133" x="1594" y="1569.9629">employeeRepository:</text><text fill="#000000" font-family="sans-serif" font-size="14" lengthAdjust="spacing" textLength="130" x="1595.5" y="1585.6035">EmployeeRepository</text><rect fill="#E3E3E3" height="45.2813" rx="2.5" ry="2.5" style="stroke:#181818;stroke-width:0.5;" width="167" x="1744" y="71"/><text fill="#000000" font-family="sans-serif" font-size="14" lengthAdjust="spacing" textLength="149" x="1755" y="90.6738">visitRequestRepository:</text><text fill="#000000" font-family="sans-serif" font-size="14" lengthAdjust="spacing" textLength="147" x="1754" y="106.3145">VisitRequestRepository</text><rect fill="#E3E3E3" height="45.2813" rx="2.5" ry="2.5" style="stroke:#181818;stroke-width:0.5;" width="167" x="1744" y="1550.2891"/><text fill="#000000" font-family="sans-serif" font-size="14" lengthAdjust="spacing" textLength="149" x="1755" y="1569.9629">visitRequestRepository:</text><text fill="#000000" font-family="sans-serif" font-size="14" lengthAdjust="spacing" textLength="147" x="1754" y="1585.6035">VisitRequestRepository</text><rect fill="#E3E3E3" height="29.6406" rx="2.5" ry="2.5" style="stroke:#181818;stroke-width:0.5;" width="141" x="1932" y="86.6406"/><text fill="#000000" font-family="sans-serif" font-size="14" lengthAdjust="spacing" textLength="127" x="1939" y="106.3145">VisitRequestMapper</text><rect fill="#E3E3E3" height="29.6406" rx="2.5" ry="2.5" style="stroke:#181818;stroke-width:0.5;" width="141" x="1932" y="1550.2891"/><text fill="#000000" font-family="sans-serif" font-size="14" lengthAdjust="spacing" textLength="127" x="1939" y="1569.9629">VisitRequestMapper</text><rect fill="#E3E3E3" height="29.6406" rx="2.5" ry="2.5" style="stroke:#181818;stroke-width:0.5;" width="234" x="2158.5" y="1550.2891"/><text fill="#000000" font-family="sans-serif" font-size="14" lengthAdjust="spacing" textLength="220" x="2165.5" y="1569.9629">visitRequestDTO:VisitRequestDTO</text><rect fill="#E3E3E3" height="29.6406" rx="2.5" ry="2.5" style="stroke:#181818;stroke-width:0.5;" width="304" x="2402.5" y="1550.2891"/><text fill="#000000" font-family="sans-serif" font-size="14" lengthAdjust="spacing" textLength="290" x="2409.5" y="1569.9629">ListVisitRequestDTO : List&lt;VisitRequestDTO&gt;</text><rect fill="#E3E3E3" height="29.6406" rx="2.5" ry="2.5" style="stroke:#181818;stroke-width:0.5;" width="374" x="2716.5" y="86.6406"/><text fill="#000000" font-family="sans-serif" font-size="14" lengthAdjust="spacing" textLength="360" x="2723.5" y="106.3145">visitRequestsByAgentInPeriodSorted : List&lt;VisitRequest&gt;</text><rect fill="#E3E3E3" height="29.6406" rx="2.5" ry="2.5" style="stroke:#181818;stroke-width:0.5;" width="374" x="2716.5" y="1550.2891"/><text fill="#000000" font-family="sans-serif" font-size="14" lengthAdjust="spacing" textLength="360" x="2723.5" y="1569.9629">visitRequestsByAgentInPeriodSorted : List&lt;VisitRequest&gt;</text><rect fill="#E3E3E3" height="29.6406" rx="2.5" ry="2.5" style="stroke:#181818;stroke-width:0.5;" width="120" x="3100.5" y="86.6406"/><text fill="#000000" font-family="sans-serif" font-size="14" lengthAdjust="spacing" textLength="106" x="3107.5" y="106.3145">ConfigProperties</text><rect fill="#E3E3E3" height="29.6406" rx="2.5" ry="2.5" style="stroke:#181818;stroke-width:0.5;" width="120" x="3100.5" y="1550.2891"/><text fill="#000000" font-family="sans-serif" font-size="14" lengthAdjust="spacing" textLength="106" x="3107.5" y="1569.9629">ConfigProperties</text><rect fill="#FFFFFF" height="1415.0078" style="stroke:#181818;stroke-width:1.0;" width="10" x="21.5" y="127.2813"/><rect fill="#FFFFFF" height="69.1641" style="stroke:#181818;stroke-width:1.0;" width="10" x="464.5" y="147.8047"/><rect fill="#FFFFFF" height="28.5234" style="stroke:#181818;stroke-width:1.0;" width="10" x="464.5" y="245.4922"/><rect fill="#FFFFFF" height="1230.75" style="stroke:#181818;stroke-width:1.0;" width="10" x="464.5" y="302.5391"/><rect fill="#FFFFFF" height="1129.1797" style="stroke:#181818;stroke-width:1.0;" width="10" x="835.5" y="361.0625"/><rect fill="#FFFFFF" height="28.5234" style="stroke:#181818;stroke-width:1.0;" width="10" x="1007.5" y="431.1094"/><rect fill="#FFFFFF" height="28.5234" style="stroke:#181818;stroke-width:1.0;" width="10" x="1822.5" y="488.1563"/><rect fill="#FFFFFF" height="296.4766" style="stroke:#181818;stroke-width:1.0;" width="10" x="1822.5" y="545.2031"/><rect fill="#FFFFFF" height="39.5234" style="stroke:#181818;stroke-width:1.0;" width="10" x="1827.5" y="662.2969"/><rect fill="#FFFFFF" height="39.5234" style="stroke:#181818;stroke-width:1.0;" width="10" x="1827.5" y="759.6328"/><rect fill="#FFFFFF" height="591.5156" style="stroke:#181818;stroke-width:1.0;" width="10" x="1997.5" y="870.2031"/><rect fill="#FFFFFF" height="33.5234" style="stroke:#181818;stroke-width:1.0;" width="10" x="2002.5" y="1322.0313"/><rect fill="#FFFFFF" height="30" style="stroke:#181818;stroke-width:1.0;" width="10" x="2549.5" y="1396.1953"/><rect fill="#FFFFFF" height="30" style="stroke:#181818;stroke-width:1.0;" width="10" x="2898.5" y="962.8906"/><rect fill="#FFFFFF" height="30" style="stroke:#181818;stroke-width:1.0;" width="10" x="2898.5" y="1021.4141"/><rect fill="#FFFFFF" height="30" style="stroke:#181818;stroke-width:1.0;" width="10" x="2898.5" y="1079.9375"/><rect fill="#FFFFFF" height="30" style="stroke:#181818;stroke-width:1.0;" width="10" x="2898.5" y="1138.4609"/><rect fill="#FFFFFF" height="30" style="stroke:#181818;stroke-width:1.0;" width="10" x="2898.5" y="1196.9844"/><rect fill="#FFFFFF" height="30" style="stroke:#181818;stroke-width:1.0;" width="10" x="2898.5" y="1255.5078"/><rect fill="#FFFFFF" height="28.5234" style="stroke:#181818;stroke-width:1.0;" width="10" x="3155.5" y="573.7266"/><polygon fill="#181818" points="452.5,143.8047,462.5,147.8047,452.5,151.8047,456.5,147.8047" style="stroke:#181818;stroke-width:1.0;"/><line style="stroke:#181818;stroke-width:1.0;" x1="31.5" x2="458.5" y1="147.8047" y2="147.8047"/><text fill="#000000" font-family="sans-serif" font-size="13" font-weight="bold" lengthAdjust="spacing" textLength="7" x="38.5" y="143.0498">1</text><text fill="#000000" font-family="sans-serif" font-size="13" lengthAdjust="spacing" textLength="319" x="49.5" y="143.0498">asks for the list of all booking requests made for myself</text><polygon fill="#181818" points="722,172.3281,732,176.3281,722,180.3281,726,176.3281" style="stroke:#181818;stroke-width:1.0;"/><line style="stroke:#181818;stroke-width:1.0;" x1="474.5" x2="728" y1="176.3281" y2="176.3281"/><text fill="#000000" font-family="sans-serif" font-size="13" font-weight="bold" lengthAdjust="spacing" textLength="7" x="481.5" y="171.5732">2</text><text fill="#000000" font-family="sans-serif" font-size="13" lengthAdjust="spacing" textLength="36" x="492.5" y="171.5732">create</text><rect fill="#E3E3E3" height="29.6406" rx="2.5" ry="2.5" style="stroke:#181818;stroke-width:0.5;" width="213" x="734" y="155.8047"/><text fill="#000000" font-family="sans-serif" font-size="14" lengthAdjust="spacing" textLength="199" x="741" y="175.4785">:ListBookingRequestsController</text><polygon fill="#181818" points="42.5,212.9688,32.5,216.9688,42.5,220.9688,38.5,216.9688" style="stroke:#181818;stroke-width:1.0;"/><line style="stroke:#181818;stroke-width:1.0;stroke-dasharray:2.0,2.0;" x1="36.5" x2="468.5" y1="216.9688" y2="216.9688"/><text fill="#000000" font-family="sans-serif" font-size="13" font-weight="bold" lengthAdjust="spacing" textLength="7" x="48.5" y="212.2139">3</text><text fill="#000000" font-family="sans-serif" font-size="13" lengthAdjust="spacing" textLength="273" x="59.5" y="212.2139">asks for the start date to view booking requests</text><polygon fill="#181818" points="452.5,241.4922,462.5,245.4922,452.5,249.4922,456.5,245.4922" style="stroke:#181818;stroke-width:1.0;"/><line style="stroke:#181818;stroke-width:1.0;" x1="31.5" x2="458.5" y1="245.4922" y2="245.4922"/><text fill="#000000" font-family="sans-serif" font-size="13" font-weight="bold" lengthAdjust="spacing" textLength="7" x="38.5" y="240.7373">4</text><text fill="#000000" font-family="sans-serif" font-size="13" lengthAdjust="spacing" textLength="123" x="49.5" y="240.7373">selects the start date</text><polygon fill="#181818" points="42.5,270.0156,32.5,274.0156,42.5,278.0156,38.5,274.0156" style="stroke:#181818;stroke-width:1.0;"/><line style="stroke:#181818;stroke-width:1.0;stroke-dasharray:2.0,2.0;" x1="36.5" x2="468.5" y1="274.0156" y2="274.0156"/><text fill="#000000" font-family="sans-serif" font-size="13" font-weight="bold" lengthAdjust="spacing" textLength="7" x="48.5" y="269.2607">5</text><text fill="#000000" font-family="sans-serif" font-size="13" lengthAdjust="spacing" textLength="268" x="59.5" y="269.2607">asks for the end date to view booking requests</text><polygon fill="#181818" points="452.5,298.5391,462.5,302.5391,452.5,306.5391,456.5,302.5391" style="stroke:#181818;stroke-width:1.0;"/><line style="stroke:#181818;stroke-width:1.0;" x1="31.5" x2="458.5" y1="302.5391" y2="302.5391"/><text fill="#000000" font-family="sans-serif" font-size="13" font-weight="bold" lengthAdjust="spacing" textLength="7" x="38.5" y="297.7842">6</text><text fill="#000000" font-family="sans-serif" font-size="13" lengthAdjust="spacing" textLength="118" x="49.5" y="297.7842">selects the end date</text><polygon fill="#181818" points="823.5,357.0625,833.5,361.0625,823.5,365.0625,827.5,361.0625" style="stroke:#181818;stroke-width:1.0;"/><line style="stroke:#181818;stroke-width:1.0;" x1="474.5" x2="829.5" y1="361.0625" y2="361.0625"/><text fill="#000000" font-family="sans-serif" font-size="13" font-weight="bold" lengthAdjust="spacing" textLength="7" x="481.5" y="356.3076">7</text><text fill="#000000" font-family="sans-serif" font-size="13" lengthAdjust="spacing" textLength="331" x="492.5" y="356.3076">getVisitRequestsByAgent(DateTime begin,DateTime end)</text><line style="stroke:#181818;stroke-width:1.0;stroke-dasharray:2.0,2.0;" x1="845.5" x2="887.5" y1="389.5859" y2="389.5859"/><line style="stroke:#181818;stroke-width:1.0;stroke-dasharray:2.0,2.0;" x1="887.5" x2="887.5" y1="389.5859" y2="402.5859"/><line style="stroke:#181818;stroke-width:1.0;stroke-dasharray:2.0,2.0;" x1="846.5" x2="887.5" y1="402.5859" y2="402.5859"/><polygon fill="#181818" points="856.5,398.5859,846.5,402.5859,856.5,406.5859,852.5,402.5859" style="stroke:#181818;stroke-width:1.0;"/><text fill="#000000" font-family="sans-serif" font-size="13" font-weight="bold" lengthAdjust="spacing" textLength="7" x="852.5" y="384.8311">8</text><text fill="#000000" font-family="sans-serif" font-size="13" lengthAdjust="spacing" textLength="137" x="863.5" y="384.8311">getAgentFromSession()</text><polygon fill="#181818" points="995.5,427.1094,1005.5,431.1094,995.5,435.1094,999.5,431.1094" style="stroke:#181818;stroke-width:1.0;"/><line style="stroke:#181818;stroke-width:1.0;" x1="845.5" x2="1001.5" y1="431.1094" y2="431.1094"/><text fill="#000000" font-family="sans-serif" font-size="13" font-weight="bold" lengthAdjust="spacing" textLength="7" x="852.5" y="426.3545">9</text><text fill="#000000" font-family="sans-serif" font-size="13" lengthAdjust="spacing" textLength="75" x="863.5" y="426.3545">getInstance()</text><polygon fill="#181818" points="856.5,455.6328,846.5,459.6328,856.5,463.6328,852.5,459.6328" style="stroke:#181818;stroke-width:1.0;"/><line style="stroke:#181818;stroke-width:1.0;stroke-dasharray:2.0,2.0;" x1="850.5" x2="1011.5" y1="459.6328" y2="459.6328"/><text fill="#000000" font-family="sans-serif" font-size="13" font-weight="bold" lengthAdjust="spacing" textLength="14" x="862.5" y="454.8779">10</text><text fill="#000000" font-family="sans-serif" font-size="13" lengthAdjust="spacing" textLength="72" x="880.5" y="454.8779">Repositories</text><polygon fill="#181818" points="1810.5,484.1563,1820.5,488.1563,1810.5,492.1563,1814.5,488.1563" style="stroke:#181818;stroke-width:1.0;"/><line style="stroke:#181818;stroke-width:1.0;" x1="845.5" x2="1816.5" y1="488.1563" y2="488.1563"/><text fill="#000000" font-family="sans-serif" font-size="13" font-weight="bold" lengthAdjust="spacing" textLength="14" x="852.5" y="483.4014">11</text><text fill="#000000" font-family="sans-serif" font-size="13" lengthAdjust="spacing" textLength="162" x="870.5" y="483.4014">getVisitRequestRepository()</text><polygon fill="#181818" points="856.5,512.6797,846.5,516.6797,856.5,520.6797,852.5,516.6797" style="stroke:#181818;stroke-width:1.0;"/><line style="stroke:#181818;stroke-width:1.0;stroke-dasharray:2.0,2.0;" x1="850.5" x2="1826.5" y1="516.6797" y2="516.6797"/><text fill="#000000" font-family="sans-serif" font-size="13" font-weight="bold" lengthAdjust="spacing" textLength="14" x="862.5" y="511.9248">12</text><text fill="#000000" font-family="sans-serif" font-size="13" lengthAdjust="spacing" textLength="132" x="880.5" y="511.9248">visitRequestRepository</text><polygon fill="#181818" points="1810.5,541.2031,1820.5,545.2031,1810.5,549.2031,1814.5,545.2031" style="stroke:#181818;stroke-width:1.0;"/><line style="stroke:#181818;stroke-width:1.0;" x1="845.5" x2="1816.5" y1="545.2031" y2="545.2031"/><text fill="#000000" font-family="sans-serif" font-size="13" font-weight="bold" lengthAdjust="spacing" textLength="14" x="852.5" y="540.4482">13</text><text fill="#000000" font-family="sans-serif" font-size="13" lengthAdjust="spacing" textLength="459" x="870.5" y="540.4482">getVisitRequestsByAgentInPeriod(String email, DateTime begin, DateTime end)</text><polygon fill="#181818" points="3143.5,569.7266,3153.5,573.7266,3143.5,577.7266,3147.5,573.7266" style="stroke:#181818;stroke-width:1.0;"/><line style="stroke:#181818;stroke-width:1.0;" x1="1832.5" x2="3149.5" y1="573.7266" y2="573.7266"/><text fill="#000000" font-family="sans-serif" font-size="13" font-weight="bold" lengthAdjust="spacing" textLength="14" x="1839.5" y="568.9717">14</text><text fill="#000000" font-family="sans-serif" font-size="13" lengthAdjust="spacing" textLength="156" x="1857.5" y="568.9717">configureSortingAlgorithm()</text><polygon fill="#181818" points="1843.5,598.25,1833.5,602.25,1843.5,606.25,1839.5,602.25" style="stroke:#181818;stroke-width:1.0;"/><line style="stroke:#181818;stroke-width:1.0;stroke-dasharray:2.0,2.0;" x1="1837.5" x2="3159.5" y1="602.25" y2="602.25"/><text fill="#000000" font-family="sans-serif" font-size="13" font-weight="bold" lengthAdjust="spacing" textLength="14" x="1849.5" y="597.4951">15</text><text fill="#000000" font-family="sans-serif" font-size="13" lengthAdjust="spacing" textLength="94" x="1867.5" y="597.4951">sortingAlgorithm</text><path d="M1734,617.25 L1795,617.25 L1795,623.7734 L1785,633.7734 L1734,633.7734 L1734,617.25 " fill="#EEEEEE" style="stroke:#000000;stroke-width:1.5;"/><rect fill="none" height="196.9063" style="stroke:#000000;stroke-width:1.5;" width="268.5" x="1734" y="617.25"/><text fill="#000000" font-family="sans-serif" font-size="13" font-weight="bold" lengthAdjust="spacing" textLength="16" x="1749" y="630.0186">alt</text><text fill="#000000" font-family="sans-serif" font-size="11" font-weight="bold" lengthAdjust="spacing" textLength="187" x="1810" y="629.208">[if( sortAlgorithm = "BubbleSort")]</text><line style="stroke:#181818;stroke-width:1.0;" x1="1832.5" x2="1879.5" y1="649.2969" y2="649.2969"/><line style="stroke:#181818;stroke-width:1.0;" x1="1879.5" x2="1879.5" y1="649.2969" y2="662.2969"/><line style="stroke:#181818;stroke-width:1.0;" x1="1838.5" x2="1879.5" y1="662.2969" y2="662.2969"/><polygon fill="#181818" points="1848.5,658.2969,1838.5,662.2969,1848.5,666.2969,1844.5,662.2969" style="stroke:#181818;stroke-width:1.0;"/><text fill="#000000" font-family="sans-serif" font-size="13" font-weight="bold" lengthAdjust="spacing" textLength="14" x="1844.5" y="644.542">16</text><text fill="#000000" font-family="sans-serif" font-size="13" lengthAdjust="spacing" textLength="128" x="1862.5" y="644.542">sort(visitRequestsList)</text><line style="stroke:#181818;stroke-width:1.0;stroke-dasharray:2.0,2.0;" x1="1837.5" x2="1879.5" y1="700.8203" y2="700.8203"/><line style="stroke:#181818;stroke-width:1.0;stroke-dasharray:2.0,2.0;" x1="1879.5" x2="1879.5" y1="700.8203" y2="713.8203"/><line style="stroke:#181818;stroke-width:1.0;stroke-dasharray:2.0,2.0;" x1="1832.5" x2="1879.5" y1="713.8203" y2="713.8203"/><polygon fill="#181818" points="1842.5,709.8203,1832.5,713.8203,1842.5,717.8203,1838.5,713.8203" style="stroke:#181818;stroke-width:1.0;"/><text fill="#000000" font-family="sans-serif" font-size="13" font-weight="bold" lengthAdjust="spacing" textLength="14" x="1844.5" y="696.0654">17</text><text fill="#000000" font-family="sans-serif" font-size="13" lengthAdjust="spacing" textLength="128" x="1862.5" y="696.0654">sort(visitRequestsList)</text><line style="stroke:#000000;stroke-width:1.0;stroke-dasharray:2.0,2.0;" x1="1734" x2="2002.5" y1="717.8203" y2="717.8203"/><text fill="#000000" font-family="sans-serif" font-size="11" font-weight="bold" lengthAdjust="spacing" textLength="215" x="1739" y="727.7783">[alt if( sortAlgorithm = "InsertionSort")]</text><line style="stroke:#181818;stroke-width:1.0;" x1="1832.5" x2="1879.5" y1="746.6328" y2="746.6328"/><line style="stroke:#181818;stroke-width:1.0;" x1="1879.5" x2="1879.5" y1="746.6328" y2="759.6328"/><line style="stroke:#181818;stroke-width:1.0;" x1="1838.5" x2="1879.5" y1="759.6328" y2="759.6328"/><polygon fill="#181818" points="1848.5,755.6328,1838.5,759.6328,1848.5,763.6328,1844.5,759.6328" style="stroke:#181818;stroke-width:1.0;"/><text fill="#000000" font-family="sans-serif" font-size="13" font-weight="bold" lengthAdjust="spacing" textLength="14" x="1844.5" y="741.8779">18</text><text fill="#000000" font-family="sans-serif" font-size="13" lengthAdjust="spacing" textLength="128" x="1862.5" y="741.8779">sort(visitRequestsList)</text><line style="stroke:#181818;stroke-width:1.0;stroke-dasharray:2.0,2.0;" x1="1837.5" x2="1879.5" y1="798.1563" y2="798.1563"/><line style="stroke:#181818;stroke-width:1.0;stroke-dasharray:2.0,2.0;" x1="1879.5" x2="1879.5" y1="798.1563" y2="811.1563"/><line style="stroke:#181818;stroke-width:1.0;stroke-dasharray:2.0,2.0;" x1="1832.5" x2="1879.5" y1="811.1563" y2="811.1563"/><polygon fill="#181818" points="1842.5,807.1563,1832.5,811.1563,1842.5,815.1563,1838.5,811.1563" style="stroke:#181818;stroke-width:1.0;"/><text fill="#000000" font-family="sans-serif" font-size="13" font-weight="bold" lengthAdjust="spacing" textLength="14" x="1844.5" y="793.4014">19</text><text fill="#000000" font-family="sans-serif" font-size="13" lengthAdjust="spacing" textLength="128" x="1862.5" y="793.4014">sort(visitRequestsList)</text><polygon fill="#181818" points="856.5,837.6797,846.5,841.6797,856.5,845.6797,852.5,841.6797" style="stroke:#181818;stroke-width:1.0;"/><line style="stroke:#181818;stroke-width:1.0;stroke-dasharray:2.0,2.0;" x1="850.5" x2="1826.5" y1="841.6797" y2="841.6797"/><text fill="#000000" font-family="sans-serif" font-size="13" font-weight="bold" lengthAdjust="spacing" textLength="14" x="862.5" y="836.9248">20</text><text fill="#000000" font-family="sans-serif" font-size="13" lengthAdjust="spacing" textLength="212" x="880.5" y="836.9248">visitRequestsByAgentInPeriodSorted</text><polygon fill="#181818" points="1985.5,866.2031,1995.5,870.2031,1985.5,874.2031,1989.5,870.2031" style="stroke:#181818;stroke-width:1.0;"/><line style="stroke:#181818;stroke-width:1.0;" x1="845.5" x2="1991.5" y1="870.2031" y2="870.2031"/><text fill="#000000" font-family="sans-serif" font-size="13" font-weight="bold" lengthAdjust="spacing" textLength="14" x="852.5" y="865.4482">21</text><text fill="#000000" font-family="sans-serif" font-size="13" lengthAdjust="spacing" textLength="307" x="870.5" y="865.4482">getVisitRequestsDTO(visitRequestsByAgentInPeriod)</text><polygon fill="#181818" points="2390.5,894.7266,2400.5,898.7266,2390.5,902.7266,2394.5,898.7266" style="stroke:#181818;stroke-width:1.0;"/><line style="stroke:#181818;stroke-width:1.0;" x1="2007.5" x2="2396.5" y1="898.7266" y2="898.7266"/><text fill="#000000" font-family="sans-serif" font-size="13" font-weight="bold" lengthAdjust="spacing" textLength="14" x="2014.5" y="893.9717">22</text><text fill="#000000" font-family="sans-serif" font-size="13" lengthAdjust="spacing" textLength="44" x="2032.5" y="893.9717">create()</text><rect fill="#E3E3E3" height="29.6406" rx="2.5" ry="2.5" style="stroke:#181818;stroke-width:0.5;" width="304" x="2402.5" y="878.2031"/><text fill="#000000" font-family="sans-serif" font-size="14" lengthAdjust="spacing" textLength="290" x="2409.5" y="897.877">ListVisitRequestDTO : List&lt;VisitRequestDTO&gt;</text><path d="M1922,925.8438 L1995,925.8438 L1995,932.3672 L1985,942.3672 L1922,942.3672 L1922,925.8438 " fill="#EEEEEE" style="stroke:#000000;stroke-width:1.5;"/><rect fill="none" height="508.3516" style="stroke:#000000;stroke-width:1.5;" width="1178.5" x="1922" y="925.8438"/><text fill="#000000" font-family="sans-serif" font-size="13" font-weight="bold" lengthAdjust="spacing" textLength="28" x="1937" y="938.6123">loop</text><text fill="#000000" font-family="sans-serif" font-size="11" font-weight="bold" lengthAdjust="spacing" textLength="198" x="2010" y="937.8018">[for each object in ListVisitRequest]</text><polygon fill="#181818" points="2886.5,958.8906,2896.5,962.8906,2886.5,966.8906,2890.5,962.8906" style="stroke:#181818;stroke-width:1.0;"/><line style="stroke:#181818;stroke-width:1.0;" x1="2007.5" x2="2892.5" y1="962.8906" y2="962.8906"/><text fill="#000000" font-family="sans-serif" font-size="13" font-weight="bold" lengthAdjust="spacing" textLength="14" x="2014.5" y="958.1357">23</text><text fill="#000000" font-family="sans-serif" font-size="13" lengthAdjust="spacing" textLength="174" x="2032.5" y="958.1357">clientName = getClientName()</text><polygon fill="#181818" points="2886.5,1017.4141,2896.5,1021.4141,2886.5,1025.4141,2890.5,1021.4141" style="stroke:#181818;stroke-width:1.0;"/><line style="stroke:#181818;stroke-width:1.0;" x1="2007.5" x2="2892.5" y1="1021.4141" y2="1021.4141"/><text fill="#000000" font-family="sans-serif" font-size="13" font-weight="bold" lengthAdjust="spacing" textLength="14" x="2014.5" y="1016.6592">24</text><text fill="#000000" font-family="sans-serif" font-size="13" lengthAdjust="spacing" textLength="140" x="2032.5" y="1016.6592">Property = getProperty()</text><polygon fill="#181818" points="2886.5,1075.9375,2896.5,1079.9375,2886.5,1083.9375,2890.5,1079.9375" style="stroke:#181818;stroke-width:1.0;"/><line style="stroke:#181818;stroke-width:1.0;" x1="2007.5" x2="2892.5" y1="1079.9375" y2="1079.9375"/><text fill="#000000" font-family="sans-serif" font-size="13" font-weight="bold" lengthAdjust="spacing" textLength="14" x="2014.5" y="1075.1826">25</text><text fill="#000000" font-family="sans-serif" font-size="13" lengthAdjust="spacing" textLength="198" x="2032.5" y="1075.1826">preferredDate = getPreferredDate()</text><polygon fill="#181818" points="2886.5,1134.4609,2896.5,1138.4609,2886.5,1142.4609,2890.5,1138.4609" style="stroke:#181818;stroke-width:1.0;"/><line style="stroke:#181818;stroke-width:1.0;" x1="2007.5" x2="2892.5" y1="1138.4609" y2="1138.4609"/><text fill="#000000" font-family="sans-serif" font-size="13" font-weight="bold" lengthAdjust="spacing" textLength="14" x="2014.5" y="1133.7061">26</text><text fill="#000000" font-family="sans-serif" font-size="13" lengthAdjust="spacing" textLength="138" x="2032.5" y="1133.7061">Address = getAddress()</text><polygon fill="#181818" points="2886.5,1192.9844,2896.5,1196.9844,2886.5,1200.9844,2890.5,1196.9844" style="stroke:#181818;stroke-width:1.0;"/><line style="stroke:#181818;stroke-width:1.0;" x1="2007.5" x2="2892.5" y1="1196.9844" y2="1196.9844"/><text fill="#000000" font-family="sans-serif" font-size="13" font-weight="bold" lengthAdjust="spacing" textLength="14" x="2014.5" y="1192.2295">27</text><text fill="#000000" font-family="sans-serif" font-size="13" lengthAdjust="spacing" textLength="270" x="2032.5" y="1192.2295">clientPhoneNumber = getClientPhoneNumber()</text><polygon fill="#181818" points="2886.5,1251.5078,2896.5,1255.5078,2886.5,1259.5078,2890.5,1255.5078" style="stroke:#181818;stroke-width:1.0;"/><line style="stroke:#181818;stroke-width:1.0;" x1="2007.5" x2="2892.5" y1="1255.5078" y2="1255.5078"/><text fill="#000000" font-family="sans-serif" font-size="13" font-weight="bold" lengthAdjust="spacing" textLength="14" x="2014.5" y="1250.7529">28</text><text fill="#000000" font-family="sans-serif" font-size="13" lengthAdjust="spacing" textLength="141" x="2032.5" y="1250.7529">timeSlot = getTimeSlot()</text><line style="stroke:#181818;stroke-width:1.0;" x1="2007.5" x2="2054.5" y1="1309.0313" y2="1309.0313"/><line style="stroke:#181818;stroke-width:1.0;" x1="2054.5" x2="2054.5" y1="1309.0313" y2="1322.0313"/><line style="stroke:#181818;stroke-width:1.0;" x1="2013.5" x2="2054.5" y1="1322.0313" y2="1322.0313"/><polygon fill="#181818" points="2023.5,1318.0313,2013.5,1322.0313,2023.5,1326.0313,2019.5,1322.0313" style="stroke:#181818;stroke-width:1.0;"/><text fill="#000000" font-family="sans-serif" font-size="13" font-weight="bold" lengthAdjust="spacing" textLength="14" x="2019.5" y="1304.2764">29</text><text fill="#000000" font-family="sans-serif" font-size="13" lengthAdjust="spacing" textLength="231" x="2037.5" y="1304.2764">VisitRequestDTO= toDTO(VisitRequest)</text><polygon fill="#181818" points="2146.5,1351.5547,2156.5,1355.5547,2146.5,1359.5547,2150.5,1355.5547" style="stroke:#181818;stroke-width:1.0;"/><line style="stroke:#181818;stroke-width:1.0;stroke-dasharray:2.0,2.0;" x1="2007.5" x2="2152.5" y1="1355.5547" y2="1355.5547"/><text fill="#000000" font-family="sans-serif" font-size="13" font-weight="bold" lengthAdjust="spacing" textLength="14" x="2014.5" y="1350.7998">30</text><text fill="#000000" font-family="sans-serif" font-size="13" lengthAdjust="spacing" textLength="44" x="2032.5" y="1350.7998">create()</text><rect fill="#E3E3E3" height="29.6406" rx="2.5" ry="2.5" style="stroke:#181818;stroke-width:0.5;" width="234" x="2158.5" y="1335.0313"/><text fill="#000000" font-family="sans-serif" font-size="14" lengthAdjust="spacing" textLength="220" x="2165.5" y="1354.7051">visitRequestDTO:VisitRequestDTO</text><polygon fill="#181818" points="2537.5,1392.1953,2547.5,1396.1953,2537.5,1400.1953,2541.5,1396.1953" style="stroke:#181818;stroke-width:1.0;"/><line style="stroke:#181818;stroke-width:1.0;" x1="2007.5" x2="2543.5" y1="1396.1953" y2="1396.1953"/><text fill="#000000" font-family="sans-serif" font-size="13" font-weight="bold" lengthAdjust="spacing" textLength="14" x="2014.5" y="1391.4404">31</text><text fill="#000000" font-family="sans-serif" font-size="13" lengthAdjust="spacing" textLength="129" x="2032.5" y="1391.4404">add(VisitRequestDTO)</text><polygon fill="#181818" points="856.5,1457.7188,846.5,1461.7188,856.5,1465.7188,852.5,1461.7188" style="stroke:#181818;stroke-width:1.0;"/><line style="stroke:#181818;stroke-width:1.0;stroke-dasharray:2.0,2.0;" x1="850.5" x2="2001.5" y1="1461.7188" y2="1461.7188"/><text fill="#000000" font-family="sans-serif" font-size="13" font-weight="bold" lengthAdjust="spacing" textLength="14" x="862.5" y="1456.9639">32</text><text fill="#000000" font-family="sans-serif" font-size="13" lengthAdjust="spacing" textLength="162" x="880.5" y="1456.9639">visitRequestsDTOListSorted</text><polygon fill="#181818" points="485.5,1486.2422,475.5,1490.2422,485.5,1494.2422,481.5,1490.2422" style="stroke:#181818;stroke-width:1.0;"/><line style="stroke:#181818;stroke-width:1.0;stroke-dasharray:2.0,2.0;" x1="479.5" x2="839.5" y1="1490.2422" y2="1490.2422"/><text fill="#000000" font-family="sans-serif" font-size="13" font-weight="bold" lengthAdjust="spacing" textLength="14" x="491.5" y="1485.4873">33</text><text fill="#000000" font-family="sans-serif" font-size="13" lengthAdjust="spacing" textLength="162" x="509.5" y="1485.4873">visitRequestsDTOListSorted</text><polygon fill="#181818" points="42.5,1529.2891,32.5,1533.2891,42.5,1537.2891,38.5,1533.2891" style="stroke:#181818;stroke-width:1.0;"/><line style="stroke:#181818;stroke-width:1.0;stroke-dasharray:2.0,2.0;" x1="36.5" x2="468.5" y1="1533.2891" y2="1533.2891"/><text fill="#000000" font-family="sans-serif" font-size="13" font-weight="bold" lengthAdjust="spacing" textLength="14" x="48.5" y="1521.2725">34</text><text fill="#000000" font-family="sans-serif" font-size="13" lengthAdjust="spacing" textLength="387" x="66.5" y="1514.0107">show the list of booking requests based on the selected date range</text><text fill="#000000" font-family="sans-serif" font-size="13" lengthAdjust="spacing" textLength="351" x="70.5" y="1528.5342">and sorted in ascending order and display operation success</text><!--SRC=[dLXRRnih47xdLw2yr8aQgOz7raab9t4bItLgUHC_HQhmBbxJh64Fu4R-zsTWRzmsThjzg86PRpw6cM68UcEy9f8Sy45maU-bE52ivP4YrQ_K97yZ9StqgQ9OqbmJNbQkWDgJGhmpNk8TgHH5I3CDeY_Pbo__u8p-TwGyf_YHaHAa4JbgmO-7BPK8aLmBYQzc9UNw2XE5xI-4401hbhEQS8slfj-PqlT2WC5oRU2KLYyBA_-oE2_w8BYMeggej2eFp-llWTAQra8neCAeiZ9BmdW_UVAbX_afVkMHwfZQT5RN5Sk9Pe9dL2dupyh_dArMlYIfwrRWbOzfHKhvKKfmtQ3uegXqDR9vbYr-FFbQz51NuaIfiwTNFeycBS1yxUlYtmnMMoTx09laWWNPhDS8XUVhoYzXz-r1RTPBNyur-FZyOxhnnutIPWq_VJqJ4u4idc8p-sym_RKr746ufjNzoORfWg-ePAB8XDIqI25sSAZ_C7mGzEmtqRGBTjpymBTV8Pm1XgWtXNUG5tfFSGMOMEmmgIgyRU8QSh3XWG-ae5RoS5Aqsldea1fs0Z01sKJzpGsWvvB2Qal5Bi9gGo0mhJHu01S6ImiuRVeUCMX0u2kePxUPzxS53A5sg02waVILprEZlBY4M9BL1xGws6vR0QrFvf_lKW0egRQ8tw1sjWatkMxaN0XRTZxryrOPG4pwDo0B3bw1GfbIjaLYKBPAjmE5eMBq8ixM0-NESc_umIiTAVC-G63Shpmf0cdxRK4217eWhC9tXekfMdCpJD7eIjY0rM4uT2nOYaMiFN3nw_teUJXSWXjY00sWW5bBpBqfKln64JkIxiK3_E8odV9P4j7drtak1apH_93YV0t1QDFhpgLuVshEr9vDWYHSBGFMVDsJQi5ID3oLnhpDw4ubrh09sCqF6MnzkKcKzyaZQ3qpw8Usj6JySp-4Ad6DakcD_S_CtPuh5EYF8l5i80uIbmKYncSZ4KNf0hTuv3Ol36EQzkBlfs7a77AwaKXIys4SFdZq7BjhUf9fQQu86uIVSN2wE7cy7sy0-0k-O-LA2kXPDBWJgg6TEKfgkW8mDwjASBJU7v9U2VNTlGLBrb_MyIf0HabFnT2E_KfZjfjOf1u6KlRg_hZTLfRwrVMWq6wsDpxnkY7JzSJvuBchE-vB44REF5YcyCuOtmOaZDaqjCpjJeB4_8CD-Tz8DCJWVuK-jdMdTsms3srAASMnlYYZqktg1TdbfDSopYveaISVcGdswDXOke6nR0m0sirDrvmELR4IehPD7t3SOx7z1QqQPXo77Ntd7i2pS81KCI3pH22XxLNqq8_RH7G8eSWDhVq1hisZKmFMZRgS3h7EWDMIxYWqJOMfEHsYCtKfR8WxAme9zqg3s0uknehG6W-kzeBJ9_jSTntfJ5zk8J2WeTfcbMXxXUTsrDV9YvpQmq641c-vEtWSc21rf_sWJCTa7vS6DuxCqKnTeWH66zlGbHJ5920uIiQyFaVDcCN0abCFahj8r0H0CJaKreB4diA6fkspyDy0DYsOMyw2HvxQYtVlsHizURT4mLjRyEOPQTzkj7qBIi9BYbyv9k0FrJpAeLOGbOE338YG1KInMIsOgYjomYQDxTzMi3hcEQGBIZzd4VeV]--></g></svg>