<?xml version="1.0" encoding="us-ascii" standalone="no"?><svg xmlns="http://www.w3.org/2000/svg" xmlns:xlink="http://www.w3.org/1999/xlink" contentStyleType="text/css" height="1237px" preserveAspectRatio="none" style="width:2342px;height:1237px;background:#FFFFFF;" version="1.1" viewBox="0 0 2342 1237" width="2342px" zoomAndPan="magnify"><defs/><g><rect fill="#FFFFFF" height="1087.6563" style="stroke:#181818;stroke-width:1.0;" width="10" x="439" y="81.8047"/><rect fill="#FFFFFF" height="28.5234" style="stroke:#181818;stroke-width:1.0;" width="10" x="604" y="110.3281"/><rect fill="#FFFFFF" height="28.5234" style="stroke:#181818;stroke-width:1.0;" width="10" x="938" y="167.375"/><rect fill="#FFFFFF" height="296.4766" style="stroke:#181818;stroke-width:1.0;" width="10" x="938" y="224.4219"/><rect fill="#FFFFFF" height="39.5234" style="stroke:#181818;stroke-width:1.0;" width="10" x="943" y="341.5156"/><rect fill="#FFFFFF" height="39.5234" style="stroke:#181818;stroke-width:1.0;" width="10" x="943" y="438.8516"/><rect fill="#FFFFFF" height="591.5156" style="stroke:#181818;stroke-width:1.0;" width="10" x="1113" y="549.4219"/><rect fill="#FFFFFF" height="33.5234" style="stroke:#181818;stroke-width:1.0;" width="10" x="1118" y="1001.25"/><rect fill="#FFFFFF" height="30" style="stroke:#181818;stroke-width:1.0;" width="10" x="1665" y="1075.4141"/><rect fill="#FFFFFF" height="30" style="stroke:#181818;stroke-width:1.0;" width="10" x="2014" y="642.1094"/><rect fill="#FFFFFF" height="30" style="stroke:#181818;stroke-width:1.0;" width="10" x="2014" y="700.6328"/><rect fill="#FFFFFF" height="30" style="stroke:#181818;stroke-width:1.0;" width="10" x="2014" y="759.1563"/><rect fill="#FFFFFF" height="30" style="stroke:#181818;stroke-width:1.0;" width="10" x="2014" y="817.6797"/><rect fill="#FFFFFF" height="30" style="stroke:#181818;stroke-width:1.0;" width="10" x="2014" y="876.2031"/><rect fill="#FFFFFF" height="30" style="stroke:#181818;stroke-width:1.0;" width="10" x="2014" y="934.7266"/><rect fill="#FFFFFF" height="28.5234" style="stroke:#181818;stroke-width:1.0;" width="10" x="2271" y="252.9453"/><rect fill="none" height="196.9063" style="stroke:#000000;stroke-width:1.5;" width="268.5" x="849.5" y="296.4688"/><rect fill="none" height="508.3516" style="stroke:#000000;stroke-width:1.5;" width="1178.5" x="1037.5" y="605.0625"/><line style="stroke:#181818;stroke-width:0.5;stroke-dasharray:5.0,5.0;" x1="443.5" x2="443.5" y1="51.2813" y2="1187.4609"/><line style="stroke:#181818;stroke-width:0.5;stroke-dasharray:5.0,5.0;" x1="608.5" x2="608.5" y1="51.2813" y2="1187.4609"/><line style="stroke:#181818;stroke-width:0.5;stroke-dasharray:5.0,5.0;" x1="942.5" x2="942.5" y1="51.2813" y2="1187.4609"/><line style="stroke:#181818;stroke-width:0.5;stroke-dasharray:5.0,5.0;" x1="1117.5" x2="1117.5" y1="51.2813" y2="1187.4609"/><line style="stroke:#181818;stroke-width:0.5;stroke-dasharray:5.0,5.0;" x1="1391" x2="1391" y1="1044.5703" y2="1187.4609"/><line style="stroke:#181818;stroke-width:0.5;stroke-dasharray:5.0,5.0;" x1="1670" x2="1670" y1="587.7422" y2="1187.4609"/><line style="stroke:#181818;stroke-width:0.5;stroke-dasharray:5.0,5.0;" x1="2019" x2="2019" y1="51.2813" y2="1187.4609"/><line style="stroke:#181818;stroke-width:0.5;stroke-dasharray:5.0,5.0;" x1="2276" x2="2276" y1="51.2813" y2="1187.4609"/><rect fill="#E2E2F0" height="29.6406" rx="2.5" ry="2.5" style="stroke:#181818;stroke-width:0.5;" width="213" x="337.5" y="20.6406"/><text fill="#000000" font-family="sans-serif" font-size="14" lengthAdjust="spacing" textLength="199" x="344.5" y="40.3145">:ListBookingRequestsController</text><rect fill="#E2E2F0" height="29.6406" rx="2.5" ry="2.5" style="stroke:#181818;stroke-width:0.5;" width="213" x="337.5" y="1186.4609"/><text fill="#000000" font-family="sans-serif" font-size="14" lengthAdjust="spacing" textLength="199" x="344.5" y="1206.1348">:ListBookingRequestsController</text><rect fill="#E2E2F0" height="29.6406" rx="2.5" ry="2.5" style="stroke:#181818;stroke-width:0.5;" width="97" x="560.5" y="20.6406"/><text fill="#000000" font-family="sans-serif" font-size="14" lengthAdjust="spacing" textLength="83" x="567.5" y="40.3145">:Repositories</text><rect fill="#E2E2F0" height="29.6406" rx="2.5" ry="2.5" style="stroke:#181818;stroke-width:0.5;" width="97" x="560.5" y="1186.4609"/><text fill="#000000" font-family="sans-serif" font-size="14" lengthAdjust="spacing" textLength="83" x="567.5" y="1206.1348">:Repositories</text><rect fill="#E2E2F0" height="45.2813" rx="2.5" ry="2.5" style="stroke:#181818;stroke-width:0.5;" width="167" x="859.5" y="5"/><text fill="#000000" font-family="sans-serif" font-size="14" lengthAdjust="spacing" textLength="149" x="870.5" y="24.6738">visitRequestRepository:</text><text fill="#000000" font-family="sans-serif" font-size="14" lengthAdjust="spacing" textLength="147" x="869.5" y="40.3145">VisitRequestRepository</text><rect fill="#E2E2F0" height="45.2813" rx="2.5" ry="2.5" style="stroke:#181818;stroke-width:0.5;" width="167" x="859.5" y="1186.4609"/><text fill="#000000" font-family="sans-serif" font-size="14" lengthAdjust="spacing" textLength="149" x="870.5" y="1206.1348">visitRequestRepository:</text><text fill="#000000" font-family="sans-serif" font-size="14" lengthAdjust="spacing" textLength="147" x="869.5" y="1221.7754">VisitRequestRepository</text><rect fill="#E2E2F0" height="29.6406" rx="2.5" ry="2.5" style="stroke:#181818;stroke-width:0.5;" width="141" x="1047.5" y="20.6406"/><text fill="#000000" font-family="sans-serif" font-size="14" lengthAdjust="spacing" textLength="127" x="1054.5" y="40.3145">VisitRequestMapper</text><rect fill="#E2E2F0" height="29.6406" rx="2.5" ry="2.5" style="stroke:#181818;stroke-width:0.5;" width="141" x="1047.5" y="1186.4609"/><text fill="#000000" font-family="sans-serif" font-size="14" lengthAdjust="spacing" textLength="127" x="1054.5" y="1206.1348">VisitRequestMapper</text><rect fill="#E2E2F0" height="29.6406" rx="2.5" ry="2.5" style="stroke:#181818;stroke-width:0.5;" width="234" x="1274" y="1186.4609"/><text fill="#000000" font-family="sans-serif" font-size="14" lengthAdjust="spacing" textLength="220" x="1281" y="1206.1348">visitRequestDTO:VisitRequestDTO</text><rect fill="#E2E2F0" height="29.6406" rx="2.5" ry="2.5" style="stroke:#181818;stroke-width:0.5;" width="304" x="1518" y="1186.4609"/><text fill="#000000" font-family="sans-serif" font-size="14" lengthAdjust="spacing" textLength="290" x="1525" y="1206.1348">ListVisitRequestDTO : List&lt;VisitRequestDTO&gt;</text><rect fill="#E2E2F0" height="29.6406" rx="2.5" ry="2.5" style="stroke:#181818;stroke-width:0.5;" width="374" x="1832" y="20.6406"/><text fill="#000000" font-family="sans-serif" font-size="14" lengthAdjust="spacing" textLength="360" x="1839" y="40.3145">visitRequestsByAgentInPeriodSorted : List&lt;VisitRequest&gt;</text><rect fill="#E2E2F0" height="29.6406" rx="2.5" ry="2.5" style="stroke:#181818;stroke-width:0.5;" width="374" x="1832" y="1186.4609"/><text fill="#000000" font-family="sans-serif" font-size="14" lengthAdjust="spacing" textLength="360" x="1839" y="1206.1348">visitRequestsByAgentInPeriodSorted : List&lt;VisitRequest&gt;</text><rect fill="#E2E2F0" height="29.6406" rx="2.5" ry="2.5" style="stroke:#181818;stroke-width:0.5;" width="120" x="2216" y="20.6406"/><text fill="#000000" font-family="sans-serif" font-size="14" lengthAdjust="spacing" textLength="106" x="2223" y="40.3145">ConfigProperties</text><rect fill="#E2E2F0" height="29.6406" rx="2.5" ry="2.5" style="stroke:#181818;stroke-width:0.5;" width="120" x="2216" y="1186.4609"/><text fill="#000000" font-family="sans-serif" font-size="14" lengthAdjust="spacing" textLength="106" x="2223" y="1206.1348">ConfigProperties</text><rect fill="#FFFFFF" height="1087.6563" style="stroke:#181818;stroke-width:1.0;" width="10" x="439" y="81.8047"/><rect fill="#FFFFFF" height="28.5234" style="stroke:#181818;stroke-width:1.0;" width="10" x="604" y="110.3281"/><rect fill="#FFFFFF" height="28.5234" style="stroke:#181818;stroke-width:1.0;" width="10" x="938" y="167.375"/><rect fill="#FFFFFF" height="296.4766" style="stroke:#181818;stroke-width:1.0;" width="10" x="938" y="224.4219"/><rect fill="#FFFFFF" height="39.5234" style="stroke:#181818;stroke-width:1.0;" width="10" x="943" y="341.5156"/><rect fill="#FFFFFF" height="39.5234" style="stroke:#181818;stroke-width:1.0;" width="10" x="943" y="438.8516"/><rect fill="#FFFFFF" height="591.5156" style="stroke:#181818;stroke-width:1.0;" width="10" x="1113" y="549.4219"/><rect fill="#FFFFFF" height="33.5234" style="stroke:#181818;stroke-width:1.0;" width="10" x="1118" y="1001.25"/><rect fill="#FFFFFF" height="30" style="stroke:#181818;stroke-width:1.0;" width="10" x="1665" y="1075.4141"/><rect fill="#FFFFFF" height="30" style="stroke:#181818;stroke-width:1.0;" width="10" x="2014" y="642.1094"/><rect fill="#FFFFFF" height="30" style="stroke:#181818;stroke-width:1.0;" width="10" x="2014" y="700.6328"/><rect fill="#FFFFFF" height="30" style="stroke:#181818;stroke-width:1.0;" width="10" x="2014" y="759.1563"/><rect fill="#FFFFFF" height="30" style="stroke:#181818;stroke-width:1.0;" width="10" x="2014" y="817.6797"/><rect fill="#FFFFFF" height="30" style="stroke:#181818;stroke-width:1.0;" width="10" x="2014" y="876.2031"/><rect fill="#FFFFFF" height="30" style="stroke:#181818;stroke-width:1.0;" width="10" x="2014" y="934.7266"/><rect fill="#FFFFFF" height="28.5234" style="stroke:#181818;stroke-width:1.0;" width="10" x="2271" y="252.9453"/><polygon fill="#181818" points="427,77.8047,437,81.8047,427,85.8047,431,81.8047" style="stroke:#181818;stroke-width:1.0;"/><line style="stroke:#181818;stroke-width:1.0;" x1="0" x2="433" y1="81.8047" y2="81.8047"/><text fill="#000000" font-family="sans-serif" font-size="13" font-weight="bold" lengthAdjust="spacing" textLength="7" x="7" y="77.0498">1</text><text fill="#000000" font-family="sans-serif" font-size="13" lengthAdjust="spacing" textLength="409" x="18" y="77.0498">getVisitRequestsByAgent(String agent,DateTime begin,DateTime end )</text><polygon fill="#181818" points="592,106.3281,602,110.3281,592,114.3281,596,110.3281" style="stroke:#181818;stroke-width:1.0;"/><line style="stroke:#181818;stroke-width:1.0;" x1="449" x2="598" y1="110.3281" y2="110.3281"/><text fill="#000000" font-family="sans-serif" font-size="13" font-weight="bold" lengthAdjust="spacing" textLength="7" x="456" y="105.5732">2</text><text fill="#000000" font-family="sans-serif" font-size="13" lengthAdjust="spacing" textLength="75" x="467" y="105.5732">getInstance()</text><polygon fill="#181818" points="460,134.8516,450,138.8516,460,142.8516,456,138.8516" style="stroke:#181818;stroke-width:1.0;"/><line style="stroke:#181818;stroke-width:1.0;stroke-dasharray:2.0,2.0;" x1="454" x2="608" y1="138.8516" y2="138.8516"/><text fill="#000000" font-family="sans-serif" font-size="13" font-weight="bold" lengthAdjust="spacing" textLength="7" x="466" y="134.0967">3</text><text fill="#000000" font-family="sans-serif" font-size="13" lengthAdjust="spacing" textLength="72" x="477" y="134.0967">Repositories</text><polygon fill="#181818" points="926,163.375,936,167.375,926,171.375,930,167.375" style="stroke:#181818;stroke-width:1.0;"/><line style="stroke:#181818;stroke-width:1.0;" x1="449" x2="932" y1="167.375" y2="167.375"/><text fill="#000000" font-family="sans-serif" font-size="13" font-weight="bold" lengthAdjust="spacing" textLength="7" x="456" y="162.6201">4</text><text fill="#000000" font-family="sans-serif" font-size="13" lengthAdjust="spacing" textLength="162" x="467" y="162.6201">getVisitRequestRepository()</text><polygon fill="#181818" points="460,191.8984,450,195.8984,460,199.8984,456,195.8984" style="stroke:#181818;stroke-width:1.0;"/><line style="stroke:#181818;stroke-width:1.0;stroke-dasharray:2.0,2.0;" x1="454" x2="942" y1="195.8984" y2="195.8984"/><text fill="#000000" font-family="sans-serif" font-size="13" font-weight="bold" lengthAdjust="spacing" textLength="7" x="466" y="191.1436">5</text><text fill="#000000" font-family="sans-serif" font-size="13" lengthAdjust="spacing" textLength="132" x="477" y="191.1436">visitRequestRepository</text><polygon fill="#181818" points="926,220.4219,936,224.4219,926,228.4219,930,224.4219" style="stroke:#181818;stroke-width:1.0;"/><line style="stroke:#181818;stroke-width:1.0;" x1="449" x2="932" y1="224.4219" y2="224.4219"/><text fill="#000000" font-family="sans-serif" font-size="13" font-weight="bold" lengthAdjust="spacing" textLength="7" x="456" y="219.667">6</text><text fill="#000000" font-family="sans-serif" font-size="13" lengthAdjust="spacing" textLength="459" x="467" y="219.667">getVisitRequestsByAgentInPeriod(String email, DateTime begin, DateTime end)</text><polygon fill="#181818" points="2259,248.9453,2269,252.9453,2259,256.9453,2263,252.9453" style="stroke:#181818;stroke-width:1.0;"/><line style="stroke:#181818;stroke-width:1.0;" x1="948" x2="2265" y1="252.9453" y2="252.9453"/><text fill="#000000" font-family="sans-serif" font-size="13" font-weight="bold" lengthAdjust="spacing" textLength="7" x="955" y="248.1904">7</text><text fill="#000000" font-family="sans-serif" font-size="13" lengthAdjust="spacing" textLength="156" x="966" y="248.1904">configureSortingAlgorithm()</text><polygon fill="#181818" points="959,277.4688,949,281.4688,959,285.4688,955,281.4688" style="stroke:#181818;stroke-width:1.0;"/><line style="stroke:#181818;stroke-width:1.0;stroke-dasharray:2.0,2.0;" x1="953" x2="2275" y1="281.4688" y2="281.4688"/><text fill="#000000" font-family="sans-serif" font-size="13" font-weight="bold" lengthAdjust="spacing" textLength="7" x="965" y="276.7139">8</text><text fill="#000000" font-family="sans-serif" font-size="13" lengthAdjust="spacing" textLength="94" x="976" y="276.7139">sortingAlgorithm</text><path d="M849.5,296.4688 L910.5,296.4688 L910.5,302.9922 L900.5,312.9922 L849.5,312.9922 L849.5,296.4688 " fill="#EEEEEE" style="stroke:#000000;stroke-width:1.5;"/><rect fill="none" height="196.9063" style="stroke:#000000;stroke-width:1.5;" width="268.5" x="849.5" y="296.4688"/><text fill="#000000" font-family="sans-serif" font-size="13" font-weight="bold" lengthAdjust="spacing" textLength="16" x="864.5" y="309.2373">alt</text><text fill="#000000" font-family="sans-serif" font-size="11" font-weight="bold" lengthAdjust="spacing" textLength="187" x="925.5" y="308.4268">[if( sortAlgorithm = "BubbleSort")]</text><line style="stroke:#181818;stroke-width:1.0;" x1="948" x2="995" y1="328.5156" y2="328.5156"/><line style="stroke:#181818;stroke-width:1.0;" x1="995" x2="995" y1="328.5156" y2="341.5156"/><line style="stroke:#181818;stroke-width:1.0;" x1="954" x2="995" y1="341.5156" y2="341.5156"/><polygon fill="#181818" points="964,337.5156,954,341.5156,964,345.5156,960,341.5156" style="stroke:#181818;stroke-width:1.0;"/><text fill="#000000" font-family="sans-serif" font-size="13" font-weight="bold" lengthAdjust="spacing" textLength="7" x="960" y="323.7607">9</text><text fill="#000000" font-family="sans-serif" font-size="13" lengthAdjust="spacing" textLength="128" x="971" y="323.7607">sort(visitRequestsList)</text><line style="stroke:#181818;stroke-width:1.0;stroke-dasharray:2.0,2.0;" x1="953" x2="995" y1="380.0391" y2="380.0391"/><line style="stroke:#181818;stroke-width:1.0;stroke-dasharray:2.0,2.0;" x1="995" x2="995" y1="380.0391" y2="393.0391"/><line style="stroke:#181818;stroke-width:1.0;stroke-dasharray:2.0,2.0;" x1="948" x2="995" y1="393.0391" y2="393.0391"/><polygon fill="#181818" points="958,389.0391,948,393.0391,958,397.0391,954,393.0391" style="stroke:#181818;stroke-width:1.0;"/><text fill="#000000" font-family="sans-serif" font-size="13" font-weight="bold" lengthAdjust="spacing" textLength="14" x="960" y="375.2842">10</text><text fill="#000000" font-family="sans-serif" font-size="13" lengthAdjust="spacing" textLength="128" x="978" y="375.2842">sort(visitRequestsList)</text><line style="stroke:#000000;stroke-width:1.0;stroke-dasharray:2.0,2.0;" x1="849.5" x2="1118" y1="397.0391" y2="397.0391"/><text fill="#000000" font-family="sans-serif" font-size="11" font-weight="bold" lengthAdjust="spacing" textLength="215" x="854.5" y="406.9971">[alt if( sortAlgorithm = "InsertionSort")]</text><line style="stroke:#181818;stroke-width:1.0;" x1="948" x2="995" y1="425.8516" y2="425.8516"/><line style="stroke:#181818;stroke-width:1.0;" x1="995" x2="995" y1="425.8516" y2="438.8516"/><line style="stroke:#181818;stroke-width:1.0;" x1="954" x2="995" y1="438.8516" y2="438.8516"/><polygon fill="#181818" points="964,434.8516,954,438.8516,964,442.8516,960,438.8516" style="stroke:#181818;stroke-width:1.0;"/><text fill="#000000" font-family="sans-serif" font-size="13" font-weight="bold" lengthAdjust="spacing" textLength="14" x="960" y="421.0967">11</text><text fill="#000000" font-family="sans-serif" font-size="13" lengthAdjust="spacing" textLength="128" x="978" y="421.0967">sort(visitRequestsList)</text><line style="stroke:#181818;stroke-width:1.0;stroke-dasharray:2.0,2.0;" x1="953" x2="995" y1="477.375" y2="477.375"/><line style="stroke:#181818;stroke-width:1.0;stroke-dasharray:2.0,2.0;" x1="995" x2="995" y1="477.375" y2="490.375"/><line style="stroke:#181818;stroke-width:1.0;stroke-dasharray:2.0,2.0;" x1="948" x2="995" y1="490.375" y2="490.375"/><polygon fill="#181818" points="958,486.375,948,490.375,958,494.375,954,490.375" style="stroke:#181818;stroke-width:1.0;"/><text fill="#000000" font-family="sans-serif" font-size="13" font-weight="bold" lengthAdjust="spacing" textLength="14" x="960" y="472.6201">12</text><text fill="#000000" font-family="sans-serif" font-size="13" lengthAdjust="spacing" textLength="128" x="978" y="472.6201">sort(visitRequestsList)</text><polygon fill="#181818" points="460,516.8984,450,520.8984,460,524.8984,456,520.8984" style="stroke:#181818;stroke-width:1.0;"/><line style="stroke:#181818;stroke-width:1.0;stroke-dasharray:2.0,2.0;" x1="454" x2="942" y1="520.8984" y2="520.8984"/><text fill="#000000" font-family="sans-serif" font-size="13" font-weight="bold" lengthAdjust="spacing" textLength="14" x="466" y="516.1436">13</text><text fill="#000000" font-family="sans-serif" font-size="13" lengthAdjust="spacing" textLength="212" x="484" y="516.1436">visitRequestsByAgentInPeriodSorted</text><polygon fill="#181818" points="1101,545.4219,1111,549.4219,1101,553.4219,1105,549.4219" style="stroke:#181818;stroke-width:1.0;"/><line style="stroke:#181818;stroke-width:1.0;" x1="449" x2="1107" y1="549.4219" y2="549.4219"/><text fill="#000000" font-family="sans-serif" font-size="13" font-weight="bold" lengthAdjust="spacing" textLength="14" x="456" y="544.667">14</text><text fill="#000000" font-family="sans-serif" font-size="13" lengthAdjust="spacing" textLength="307" x="474" y="544.667">getVisitRequestsDTO(visitRequestsByAgentInPeriod)</text><polygon fill="#181818" points="1506,573.9453,1516,577.9453,1506,581.9453,1510,577.9453" style="stroke:#181818;stroke-width:1.0;"/><line style="stroke:#181818;stroke-width:1.0;" x1="1123" x2="1512" y1="577.9453" y2="577.9453"/><text fill="#000000" font-family="sans-serif" font-size="13" font-weight="bold" lengthAdjust="spacing" textLength="14" x="1130" y="573.1904">15</text><text fill="#000000" font-family="sans-serif" font-size="13" lengthAdjust="spacing" textLength="44" x="1148" y="573.1904">create()</text><rect fill="#E2E2F0" height="29.6406" rx="2.5" ry="2.5" style="stroke:#181818;stroke-width:0.5;" width="304" x="1518" y="557.4219"/><text fill="#000000" font-family="sans-serif" font-size="14" lengthAdjust="spacing" textLength="290" x="1525" y="577.0957">ListVisitRequestDTO : List&lt;VisitRequestDTO&gt;</text><path d="M1037.5,605.0625 L1110.5,605.0625 L1110.5,611.5859 L1100.5,621.5859 L1037.5,621.5859 L1037.5,605.0625 " fill="#EEEEEE" style="stroke:#000000;stroke-width:1.5;"/><rect fill="none" height="508.3516" style="stroke:#000000;stroke-width:1.5;" width="1178.5" x="1037.5" y="605.0625"/><text fill="#000000" font-family="sans-serif" font-size="13" font-weight="bold" lengthAdjust="spacing" textLength="28" x="1052.5" y="617.8311">loop</text><text fill="#000000" font-family="sans-serif" font-size="11" font-weight="bold" lengthAdjust="spacing" textLength="198" x="1125.5" y="617.0205">[for each object in ListVisitRequest]</text><polygon fill="#181818" points="2002,638.1094,2012,642.1094,2002,646.1094,2006,642.1094" style="stroke:#181818;stroke-width:1.0;"/><line style="stroke:#181818;stroke-width:1.0;" x1="1123" x2="2008" y1="642.1094" y2="642.1094"/><text fill="#000000" font-family="sans-serif" font-size="13" font-weight="bold" lengthAdjust="spacing" textLength="14" x="1130" y="637.3545">16</text><text fill="#000000" font-family="sans-serif" font-size="13" lengthAdjust="spacing" textLength="174" x="1148" y="637.3545">clientName = getClientName()</text><polygon fill="#181818" points="2002,696.6328,2012,700.6328,2002,704.6328,2006,700.6328" style="stroke:#181818;stroke-width:1.0;"/><line style="stroke:#181818;stroke-width:1.0;" x1="1123" x2="2008" y1="700.6328" y2="700.6328"/><text fill="#000000" font-family="sans-serif" font-size="13" font-weight="bold" lengthAdjust="spacing" textLength="14" x="1130" y="695.8779">17</text><text fill="#000000" font-family="sans-serif" font-size="13" lengthAdjust="spacing" textLength="138" x="1148" y="695.8779">property = getProperty()</text><polygon fill="#181818" points="2002,755.1563,2012,759.1563,2002,763.1563,2006,759.1563" style="stroke:#181818;stroke-width:1.0;"/><line style="stroke:#181818;stroke-width:1.0;" x1="1123" x2="2008" y1="759.1563" y2="759.1563"/><text fill="#000000" font-family="sans-serif" font-size="13" font-weight="bold" lengthAdjust="spacing" textLength="14" x="1130" y="754.4014">18</text><text fill="#000000" font-family="sans-serif" font-size="13" lengthAdjust="spacing" textLength="198" x="1148" y="754.4014">preferredDate = getPreferredDate()</text><polygon fill="#181818" points="2002,813.6797,2012,817.6797,2002,821.6797,2006,817.6797" style="stroke:#181818;stroke-width:1.0;"/><line style="stroke:#181818;stroke-width:1.0;" x1="1123" x2="2008" y1="817.6797" y2="817.6797"/><text fill="#000000" font-family="sans-serif" font-size="13" font-weight="bold" lengthAdjust="spacing" textLength="14" x="1130" y="812.9248">19</text><text fill="#000000" font-family="sans-serif" font-size="13" lengthAdjust="spacing" textLength="136" x="1148" y="812.9248">address = getAddress()</text><polygon fill="#181818" points="2002,872.2031,2012,876.2031,2002,880.2031,2006,876.2031" style="stroke:#181818;stroke-width:1.0;"/><line style="stroke:#181818;stroke-width:1.0;" x1="1123" x2="2008" y1="876.2031" y2="876.2031"/><text fill="#000000" font-family="sans-serif" font-size="13" font-weight="bold" lengthAdjust="spacing" textLength="14" x="1130" y="871.4482">20</text><text fill="#000000" font-family="sans-serif" font-size="13" lengthAdjust="spacing" textLength="270" x="1148" y="871.4482">clientPhoneNumber = getClientPhoneNumber()</text><polygon fill="#181818" points="2002,930.7266,2012,934.7266,2002,938.7266,2006,934.7266" style="stroke:#181818;stroke-width:1.0;"/><line style="stroke:#181818;stroke-width:1.0;" x1="1123" x2="2008" y1="934.7266" y2="934.7266"/><text fill="#000000" font-family="sans-serif" font-size="13" font-weight="bold" lengthAdjust="spacing" textLength="14" x="1130" y="929.9717">21</text><text fill="#000000" font-family="sans-serif" font-size="13" lengthAdjust="spacing" textLength="141" x="1148" y="929.9717">timeSlot = getTimeSlot()</text><line style="stroke:#181818;stroke-width:1.0;" x1="1123" x2="1170" y1="988.25" y2="988.25"/><line style="stroke:#181818;stroke-width:1.0;" x1="1170" x2="1170" y1="988.25" y2="1001.25"/><line style="stroke:#181818;stroke-width:1.0;" x1="1129" x2="1170" y1="1001.25" y2="1001.25"/><polygon fill="#181818" points="1139,997.25,1129,1001.25,1139,1005.25,1135,1001.25" style="stroke:#181818;stroke-width:1.0;"/><text fill="#000000" font-family="sans-serif" font-size="13" font-weight="bold" lengthAdjust="spacing" textLength="14" x="1135" y="983.4951">22</text><text fill="#000000" font-family="sans-serif" font-size="13" lengthAdjust="spacing" textLength="231" x="1153" y="983.4951">VisitRequestDTO= toDTO(VisitRequest)</text><polygon fill="#181818" points="1262,1030.7734,1272,1034.7734,1262,1038.7734,1266,1034.7734" style="stroke:#181818;stroke-width:1.0;"/><line style="stroke:#181818;stroke-width:1.0;stroke-dasharray:2.0,2.0;" x1="1123" x2="1268" y1="1034.7734" y2="1034.7734"/><text fill="#000000" font-family="sans-serif" font-size="13" font-weight="bold" lengthAdjust="spacing" textLength="14" x="1130" y="1030.0186">23</text><text fill="#000000" font-family="sans-serif" font-size="13" lengthAdjust="spacing" textLength="44" x="1148" y="1030.0186">create()</text><rect fill="#E2E2F0" height="29.6406" rx="2.5" ry="2.5" style="stroke:#181818;stroke-width:0.5;" width="234" x="1274" y="1014.25"/><text fill="#000000" font-family="sans-serif" font-size="14" lengthAdjust="spacing" textLength="220" x="1281" y="1033.9238">visitRequestDTO:VisitRequestDTO</text><polygon fill="#181818" points="1653,1071.4141,1663,1075.4141,1653,1079.4141,1657,1075.4141" style="stroke:#181818;stroke-width:1.0;"/><line style="stroke:#181818;stroke-width:1.0;" x1="1123" x2="1659" y1="1075.4141" y2="1075.4141"/><text fill="#000000" font-family="sans-serif" font-size="13" font-weight="bold" lengthAdjust="spacing" textLength="14" x="1130" y="1070.6592">24</text><text fill="#000000" font-family="sans-serif" font-size="13" lengthAdjust="spacing" textLength="129" x="1148" y="1070.6592">add(VisitRequestDTO)</text><polygon fill="#181818" points="460,1136.9375,450,1140.9375,460,1144.9375,456,1140.9375" style="stroke:#181818;stroke-width:1.0;"/><line style="stroke:#181818;stroke-width:1.0;stroke-dasharray:2.0,2.0;" x1="454" x2="1117" y1="1140.9375" y2="1140.9375"/><text fill="#000000" font-family="sans-serif" font-size="13" font-weight="bold" lengthAdjust="spacing" textLength="14" x="466" y="1136.1826">25</text><text fill="#000000" font-family="sans-serif" font-size="13" lengthAdjust="spacing" textLength="162" x="484" y="1136.1826">visitRequestsDTOListSorted</text><polygon fill="#181818" points="11,1165.4609,1,1169.4609,11,1173.4609,7,1169.4609" style="stroke:#181818;stroke-width:1.0;"/><line style="stroke:#181818;stroke-width:1.0;stroke-dasharray:2.0,2.0;" x1="5" x2="443" y1="1169.4609" y2="1169.4609"/><text fill="#000000" font-family="sans-serif" font-size="13" font-weight="bold" lengthAdjust="spacing" textLength="14" x="17" y="1164.7061">26</text><text fill="#000000" font-family="sans-serif" font-size="13" lengthAdjust="spacing" textLength="162" x="35" y="1164.7061">visitRequestsDTOListSorted</text><!--SRC=[dPPBR-CW483l-HKebtMhPdEtsaffUwbKToCtocal99uuxDhW1Lof_tu7_C8ORzFb50RuvZtnjxFMbOhNwwgWNDTbyVqeohM2FpNm8wmoHdD9ouLT5PMQ7Lc55yaoVc5AFmZnc_4yDTULLe-2QocA0kIIK4KUT-cBzoY5IYYcXMIWx9s4CjuBFoPQo3l3avO_t8j_ydtmm3BtQJgrrxsVqAfgRTodoVYUg_1fzoFUZ_VDetsAFyVlJ3YykoGcHdhhYUzRnHE4grezV6nouFgPRq4oaRq9gI4B4JiSEanhBNXT7a3YXgpkRGPYaiF8iWuTlMc9oIFKR6wUg8OTAu4S86Tys0BFoDM2D8iUDNl7aoQrYrPiDaRRE9V4AdxcIbEifAXdE1G_-VqDZxHQtLiTCN7hPxYUmUV8paWiZab4XWT1CsqzzMBS6OFQs8RhCsZQ6EFOGsPJr6M_InMKb1KtnCiLSPCrvu1ZFDek-8dbMocm3JI6CYP7Awabc493LPiYno3hSncCYF_UzSixih6oGLSUUH6CqXJjw2yqOQV8adeCkIFBX_fmAApfowlXGUjihpmQDPXff6bXZvBKfVeImao-lMCe5CoxWSrYd1QyysJy-2iEZTTC3KxX_qMVSxrTW_CuId8fwceadU-dy0oyeBUSvagclOLpD_gN6izBHqVYbaRIA43QzJNsZmIy4_KvAuIeo4b8WZQUYJZyWYCcdHF_Rw8B1V8i3aa5GsDUARRpdR7ziT-thUWOj9Y4eTK_uAgcapuQMDjN_PppMP_2u0HIGcOcJaTqH9TYVIxDCWbADSHDixcODQ4r4ToU1OTN-s_e1j8HNwx1Kw1nrhuLGZVSNRlh9-L5GUrnMA7U1y8TqS8KgIiU5sMu9lkwDDnfPSxsQh88CDhQjhc9F0DdZJ6VDBDgpA6doPq88Iy2Cm4ffeVyMH3moJsxNQqQsDTPzbFdBm00]--></g></svg>