<?xml version="1.0" encoding="us-ascii" standalone="no"?><svg xmlns="http://www.w3.org/2000/svg" xmlns:xlink="http://www.w3.org/1999/xlink" contentStyleType="text/css" height="587.4px" preserveAspectRatio="none" style="width:1466px;height:587px;background:#FFFFFF;" version="1.1" viewBox="0 0 1466 587" width="1466.3px" zoomAndPan="magnify"><defs/><g><rect fill="#FFFFFF" height="389.7094" style="stroke:#181818;stroke-width:1.1;" width="11" x="23.65" y="99.7047"/><rect fill="#FFFFFF" height="76.0805" style="stroke:#181818;stroke-width:1.1;" width="11" x="865.15" y="122.2805"/><rect fill="#FFFFFF" height="31.3758" style="stroke:#181818;stroke-width:1.1;" width="11" x="865.15" y="229.7367"/><rect fill="#FFFFFF" height="187.0258" style="stroke:#181818;stroke-width:1.1;" width="11" x="865.15" y="292.4883"/><rect fill="#FFFFFF" height="124.2742" style="stroke:#181818;stroke-width:1.1;" width="11" x="1277.65" y="323.8641"/><line style="stroke:#181818;stroke-width:0.55;stroke-dasharray:5.0,5.0;" x1="28.6" x2="28.6" y1="88.7047" y2="499.3141"/><line style="stroke:#181818;stroke-width:0.55;stroke-dasharray:5.0,5.0;" x1="870.1" x2="870.1" y1="88.7047" y2="499.3141"/><line style="stroke:#181818;stroke-width:0.55;stroke-dasharray:5.0,5.0;" x1="1282.6" x2="1282.6" y1="164.4328" y2="499.3141"/><text fill="#000000" font-family="sans-serif" font-size="15.4" lengthAdjust="spacing" textLength="40.7" x="5.5" y="85.4412">Agent</text><ellipse cx="29.15" cy="14.85" fill="#E3E3E3" rx="8.8" ry="8.8" style="stroke:#181818;stroke-width:0.55;"/><path d="M29.15,23.65 L29.15,53.35 M14.85,32.45 L43.45,32.45 M29.15,53.35 L14.85,69.85 M29.15,53.35 L43.45,69.85 " fill="none" style="stroke:#181818;stroke-width:0.55;"/><text fill="#000000" font-family="sans-serif" font-size="15.4" lengthAdjust="spacing" textLength="40.7" x="5.5" y="512.1553">Agent</text><ellipse cx="29.15" cy="524.7688" fill="#E3E3E3" rx="8.8" ry="8.8" style="stroke:#181818;stroke-width:0.55;"/><path d="M29.15,533.5688 L29.15,563.2688 M14.85,542.3688 L43.45,542.3688 M29.15,563.2688 L14.85,579.7688 M29.15,563.2688 L43.45,579.7688 " fill="none" style="stroke:#181818;stroke-width:0.55;"/><rect fill="#E3E3E3" height="32.6047" rx="2.75" ry="2.75" style="stroke:#181818;stroke-width:0.55;" width="179.3" x="781" y="55"/><text fill="#000000" font-family="sans-serif" font-size="15.4" lengthAdjust="spacing" textLength="163.9" x="788.7" y="76.6412">:ListBookingRequestsUI</text><rect fill="#E3E3E3" height="32.6047" rx="2.75" ry="2.75" style="stroke:#181818;stroke-width:0.55;" width="179.3" x="781" y="498.2141"/><text fill="#000000" font-family="sans-serif" font-size="15.4" lengthAdjust="spacing" textLength="163.9" x="788.7" y="519.8553">:ListBookingRequestsUI</text><rect fill="#E3E3E3" height="32.6047" rx="2.75" ry="2.75" style="stroke:#181818;stroke-width:0.55;" width="234.3" x="1166" y="498.2141"/><text fill="#000000" font-family="sans-serif" font-size="15.4" lengthAdjust="spacing" textLength="218.9" x="1173.7" y="519.8553">:ListBookingRequestsController</text><rect fill="#FFFFFF" height="389.7094" style="stroke:#181818;stroke-width:1.1;" width="11" x="23.65" y="99.7047"/><rect fill="#FFFFFF" height="76.0805" style="stroke:#181818;stroke-width:1.1;" width="11" x="865.15" y="122.2805"/><rect fill="#FFFFFF" height="31.3758" style="stroke:#181818;stroke-width:1.1;" width="11" x="865.15" y="229.7367"/><rect fill="#FFFFFF" height="187.0258" style="stroke:#181818;stroke-width:1.1;" width="11" x="865.15" y="292.4883"/><rect fill="#FFFFFF" height="124.2742" style="stroke:#181818;stroke-width:1.1;" width="11" x="1277.65" y="323.8641"/><polygon fill="#181818" points="851.95,117.8805,862.95,122.2805,851.95,126.6805,856.35,122.2805" style="stroke:#181818;stroke-width:1.1;"/><line style="stroke:#181818;stroke-width:1.1;" x1="34.65" x2="858.55" y1="122.2805" y2="122.2805"/><text fill="#000000" font-family="sans-serif" font-size="14.3" font-weight="bold" lengthAdjust="spacing" textLength="7.7" x="42.35" y="117.0501">1</text><text fill="#000000" font-family="sans-serif" font-size="14.3" lengthAdjust="spacing" textLength="350.9" x="54.45" y="117.0501">asks for the list of all booking requests made for myself</text><polygon fill="#181818" points="1152.8,149.2563,1163.8,153.6563,1152.8,158.0563,1157.2,153.6563" style="stroke:#181818;stroke-width:1.1;"/><line style="stroke:#181818;stroke-width:1.1;" x1="876.15" x2="1159.4" y1="153.6563" y2="153.6563"/><text fill="#000000" font-family="sans-serif" font-size="14.3" font-weight="bold" lengthAdjust="spacing" textLength="7.7" x="883.85" y="148.4259">2</text><text fill="#000000" font-family="sans-serif" font-size="14.3" lengthAdjust="spacing" textLength="39.6" x="895.95" y="148.4259">create</text><rect fill="#E3E3E3" height="32.6047" rx="2.75" ry="2.75" style="stroke:#181818;stroke-width:0.55;" width="234.3" x="1166" y="131.0805"/><text fill="#000000" font-family="sans-serif" font-size="15.4" lengthAdjust="spacing" textLength="218.9" x="1173.7" y="152.7217">:ListBookingRequestsController</text><polygon fill="#181818" points="46.75,193.9609,35.75,198.3609,46.75,202.7609,42.35,198.3609" style="stroke:#181818;stroke-width:1.1;"/><line style="stroke:#181818;stroke-width:1.1;stroke-dasharray:2.0,2.0;" x1="40.15" x2="869.55" y1="198.3609" y2="198.3609"/><text fill="#000000" font-family="sans-serif" font-size="14.3" font-weight="bold" lengthAdjust="spacing" textLength="7.7" x="53.35" y="193.1306">3</text><text fill="#000000" font-family="sans-serif" font-size="14.3" lengthAdjust="spacing" textLength="300.3" x="65.45" y="193.1306">asks for the start date to view booking requests</text><polygon fill="#181818" points="851.95,225.3367,862.95,229.7367,851.95,234.1367,856.35,229.7367" style="stroke:#181818;stroke-width:1.1;"/><line style="stroke:#181818;stroke-width:1.1;" x1="34.65" x2="858.55" y1="229.7367" y2="229.7367"/><text fill="#000000" font-family="sans-serif" font-size="14.3" font-weight="bold" lengthAdjust="spacing" textLength="7.7" x="42.35" y="224.5063">4</text><text fill="#000000" font-family="sans-serif" font-size="14.3" lengthAdjust="spacing" textLength="135.3" x="54.45" y="224.5063">selects the start date</text><polygon fill="#181818" points="46.75,256.7125,35.75,261.1125,46.75,265.5125,42.35,261.1125" style="stroke:#181818;stroke-width:1.1;"/><line style="stroke:#181818;stroke-width:1.1;stroke-dasharray:2.0,2.0;" x1="40.15" x2="869.55" y1="261.1125" y2="261.1125"/><text fill="#000000" font-family="sans-serif" font-size="14.3" font-weight="bold" lengthAdjust="spacing" textLength="7.7" x="53.35" y="255.8821">5</text><text fill="#000000" font-family="sans-serif" font-size="14.3" lengthAdjust="spacing" textLength="294.8" x="65.45" y="255.8821">asks for the end date to view booking requests</text><polygon fill="#181818" points="851.95,288.0883,862.95,292.4883,851.95,296.8883,856.35,292.4883" style="stroke:#181818;stroke-width:1.1;"/><line style="stroke:#181818;stroke-width:1.1;" x1="34.65" x2="858.55" y1="292.4883" y2="292.4883"/><text fill="#000000" font-family="sans-serif" font-size="14.3" font-weight="bold" lengthAdjust="spacing" textLength="7.7" x="42.35" y="287.2579">6</text><text fill="#000000" font-family="sans-serif" font-size="14.3" lengthAdjust="spacing" textLength="129.8" x="54.45" y="287.2579">selects the end date</text><polygon fill="#181818" points="1264.45,319.4641,1275.45,323.8641,1264.45,328.2641,1268.85,323.8641" style="stroke:#181818;stroke-width:1.1;"/><line style="stroke:#181818;stroke-width:1.1;" x1="876.15" x2="1271.05" y1="323.8641" y2="323.8641"/><text fill="#000000" font-family="sans-serif" font-size="14.3" font-weight="bold" lengthAdjust="spacing" textLength="7.7" x="883.85" y="318.6337">7</text><text fill="#000000" font-family="sans-serif" font-size="14.3" lengthAdjust="spacing" textLength="368.5" x="895.95" y="318.6337">getVisitRequestsByAgent(DateTime begin,DateTime end )</text><line style="stroke:#181818;stroke-width:1.1;stroke-dasharray:2.0,2.0;" x1="1288.65" x2="1334.85" y1="355.2398" y2="355.2398"/><line style="stroke:#181818;stroke-width:1.1;stroke-dasharray:2.0,2.0;" x1="1334.85" x2="1334.85" y1="355.2398" y2="369.5398"/><line style="stroke:#181818;stroke-width:1.1;stroke-dasharray:2.0,2.0;" x1="1289.75" x2="1334.85" y1="369.5398" y2="369.5398"/><polygon fill="#181818" points="1300.75,365.1398,1289.75,369.5398,1300.75,373.9398,1296.35,369.5398" style="stroke:#181818;stroke-width:1.1;"/><text fill="#000000" font-family="sans-serif" font-size="14.3" font-weight="bold" lengthAdjust="spacing" textLength="7.7" x="1296.35" y="350.0095">8</text><text fill="#000000" font-family="sans-serif" font-size="14.3" lengthAdjust="spacing" textLength="150.7" x="1308.45" y="350.0095">getAgentFromSession()</text><rect fill="none" height="41.7227" style="stroke:#000000;stroke-width:1.6500000000000001;" width="248.6" x="1162.7" y="378.3398"/><path d="M1162.7,378.3398 L1230.9,378.3398 L1230.9,384.9398 L1219.9,395.9398 L1162.7,395.9398 L1162.7,378.3398 " fill="#EEEEEE" style="stroke:#000000;stroke-width:2.2;"/><text fill="#000000" font-family="sans-serif" font-size="14.3" font-weight="bold" lengthAdjust="spacing" textLength="18.7" x="1177" y="393.4853">ref</text><text fill="#000000" font-family="sans-serif" font-size="13.2" lengthAdjust="spacing" textLength="239.8" x="1167.1" y="412.2895">get Visit Requests List Ascending Order</text><polygon fill="#181818" points="888.25,443.7383,877.25,448.1383,888.25,452.5383,883.85,448.1383" style="stroke:#181818;stroke-width:1.1;"/><line style="stroke:#181818;stroke-width:1.1;stroke-dasharray:2.0,2.0;" x1="881.65" x2="1282.05" y1="448.1383" y2="448.1383"/><text fill="#000000" font-family="sans-serif" font-size="14.3" font-weight="bold" lengthAdjust="spacing" textLength="7.7" x="894.85" y="442.9079">9</text><text fill="#000000" font-family="sans-serif" font-size="14.3" lengthAdjust="spacing" textLength="178.2" x="906.95" y="442.9079">visitRequestsDTOListSorted</text><polygon fill="#181818" points="46.75,475.1141,35.75,479.5141,46.75,483.9141,42.35,479.5141" style="stroke:#181818;stroke-width:1.1;"/><line style="stroke:#181818;stroke-width:1.1;stroke-dasharray:2.0,2.0;" x1="40.15" x2="869.55" y1="479.5141" y2="479.5141"/><text fill="#000000" font-family="sans-serif" font-size="14.3" font-weight="bold" lengthAdjust="spacing" textLength="15.4" x="53.35" y="474.2837">10</text><text fill="#000000" font-family="sans-serif" font-size="14.3" lengthAdjust="spacing" textLength="784.3" x="73.15" y="474.2837">show the list of booking requests based on the selected date and sorted in ascending order and displays operation success</text><!--SRC=[ZLFBRkCm3BpxAuYSkiNc1t9Oe0yiKA10WIRjNR5fHuWiUaKwGVw-b6GdST9sgvD4KZD3QiHRwpiJJ0ijUIetWLe42JqMVCnqfjoQ1fToS0W1Ip6-SUS5l34LxQrle3QEiIWAqmlvlbrZq7qf561srw2N6HY6jDCYlIosj9tn0hF5isMv9rBGvXN_zSZ2Rq-f_ktf_wKFv2MGSnZIbOVLwxCoW2wbjpiZED92ti3yZmB3Ggkt3BKgb0s2KsIW6enpiCuCsd6cWDPKc2hR0wEhf-WgCWKKKv4Z_-sjefS1DJj8oLbDPmKNt2pQ95GHJ0Xs5lTN4WQKl2gSa9zoq_vKgZuPNr2SggSWf_XtKj5NFnNwfSflP8xmv-rU3Jgku-uqzGKqAE-MhOpMk3yaffj7lRsoQkyrDjR_FXuZsw_YaYOxQ8Z6mtmWWCIG8F_gRraYioL_4n5oUS0QQ8SXGwIGNe2a2KPH43qCTrmgUnpSIwZqhwJYg4SnYibZ9-RvEApTUN-FgvS8jgGWM7tbaE53vFNP-_A6zfClS6N_jM6iW7nsKdek76nWL38dVh1UhJ9sHR6hbAqiTyuS6AZ3O4Gd1joNfGwl-DmdHV41]--></g></svg>