<?xml version="1.0" encoding="us-ascii" standalone="no"?><svg xmlns="http://www.w3.org/2000/svg" xmlns:xlink="http://www.w3.org/1999/xlink" contentStyleType="text/css" height="1455px" preserveAspectRatio="none" style="width:1400px;height:1455px;background:#FFFFFF;" version="1.1" viewBox="0 0 1400 1455" width="1400px" zoomAndPan="magnify"><defs><filter height="300%" id="f1ssgrekz79vfl" width="300%" x="-1" y="-1"><feGaussianBlur result="blurOut" stdDeviation="2.0"/><feColorMatrix in="blurOut" result="blurOut2" type="matrix" values="0 0 0 0 0 0 0 0 0 0 0 0 0 0 0 0 0 0 .4 0"/><feOffset dx="4.0" dy="4.0" in="blurOut2" result="blurOut3"/><feBlend in="SourceGraphic" in2="blurOut3" mode="normal"/></filter></defs><g><!--class ListBookingRequestsUI--><g id="elem_ListBookingRequestsUI"><rect codeLine="13" fill="#F1F1F1" filter="url(#f1ssgrekz79vfl)" height="48" id="ListBookingRequestsUI" rx="2.5" ry="2.5" style="stroke:#181818;stroke-width:0.5;" width="177" x="155" y="12"/><ellipse cx="170" cy="28" fill="#ADD1B2" rx="11" ry="11" style="stroke:#181818;stroke-width:1.0;"/><path d="M172.7656,23.875 Q172.9219,23.6563 173.1094,23.5469 Q173.2969,23.4375 173.5156,23.4375 Q173.8906,23.4375 174.125,23.7031 Q174.3594,23.9531 174.3594,24.5625 L174.3594,26.0156 Q174.3594,26.625 174.125,26.8906 Q173.8906,27.1563 173.5156,27.1563 Q173.1719,27.1563 172.9688,26.9531 Q172.7656,26.7656 172.6563,26.25 Q172.6094,25.8906 172.4219,25.7031 Q172.0938,25.3281 171.4844,25.1094 Q170.875,24.8906 170.25,24.8906 Q169.4844,24.8906 168.8438,25.2188 Q168.2188,25.5469 167.7188,26.2969 Q167.2344,27.0469 167.2344,28.0781 L167.2344,29.1719 Q167.2344,30.4063 168.125,31.2344 Q169.0156,32.0469 170.6094,32.0469 Q171.5469,32.0469 172.2031,31.7969 Q172.5938,31.6406 173.0156,31.2031 Q173.2813,30.9375 173.4219,30.8594 Q173.5781,30.7813 173.7813,30.7813 Q174.1094,30.7813 174.3594,31.0469 Q174.625,31.2969 174.625,31.6406 Q174.625,31.9844 174.2813,32.3906 Q173.7813,32.9688 172.9844,33.2969 Q171.9063,33.75 170.6094,33.75 Q169.0938,33.75 167.8906,33.125 Q166.9063,32.625 166.2188,31.5625 Q165.5313,30.4844 165.5313,29.2031 L165.5313,28.0469 Q165.5313,26.7188 166.1406,25.5781 Q166.7656,24.4219 167.8594,23.8125 Q168.9531,23.1875 170.1875,23.1875 Q170.9219,23.1875 171.5625,23.3594 Q172.2188,23.5156 172.7656,23.875 Z " fill="#000000"/><text fill="#000000" font-family="sans-serif" font-size="14" lengthAdjust="spacing" textLength="145" x="184" y="33.7969">ListBookingRequestsUI</text><line style="stroke:#181818;stroke-width:0.5;" x1="156" x2="331" y1="44" y2="44"/><line style="stroke:#181818;stroke-width:0.5;" x1="156" x2="331" y1="52" y2="52"/></g><!--class ListBookingRequestsController--><g id="elem_ListBookingRequestsController"><rect codeLine="17" fill="#F1F1F1" filter="url(#f1ssgrekz79vfl)" height="48" id="ListBookingRequestsController" rx="2.5" ry="2.5" style="stroke:#181818;stroke-width:0.5;" width="227" x="350" y="12"/><ellipse cx="365" cy="28" fill="#ADD1B2" rx="11" ry="11" style="stroke:#181818;stroke-width:1.0;"/><path d="M367.7656,23.875 Q367.9219,23.6563 368.1094,23.5469 Q368.2969,23.4375 368.5156,23.4375 Q368.8906,23.4375 369.125,23.7031 Q369.3594,23.9531 369.3594,24.5625 L369.3594,26.0156 Q369.3594,26.625 369.125,26.8906 Q368.8906,27.1563 368.5156,27.1563 Q368.1719,27.1563 367.9688,26.9531 Q367.7656,26.7656 367.6563,26.25 Q367.6094,25.8906 367.4219,25.7031 Q367.0938,25.3281 366.4844,25.1094 Q365.875,24.8906 365.25,24.8906 Q364.4844,24.8906 363.8438,25.2188 Q363.2188,25.5469 362.7188,26.2969 Q362.2344,27.0469 362.2344,28.0781 L362.2344,29.1719 Q362.2344,30.4063 363.125,31.2344 Q364.0156,32.0469 365.6094,32.0469 Q366.5469,32.0469 367.2031,31.7969 Q367.5938,31.6406 368.0156,31.2031 Q368.2813,30.9375 368.4219,30.8594 Q368.5781,30.7813 368.7813,30.7813 Q369.1094,30.7813 369.3594,31.0469 Q369.625,31.2969 369.625,31.6406 Q369.625,31.9844 369.2813,32.3906 Q368.7813,32.9688 367.9844,33.2969 Q366.9063,33.75 365.6094,33.75 Q364.0938,33.75 362.8906,33.125 Q361.9063,32.625 361.2188,31.5625 Q360.5313,30.4844 360.5313,29.2031 L360.5313,28.0469 Q360.5313,26.7188 361.1406,25.5781 Q361.7656,24.4219 362.8594,23.8125 Q363.9531,23.1875 365.1875,23.1875 Q365.9219,23.1875 366.5625,23.3594 Q367.2188,23.5156 367.7656,23.875 Z " fill="#000000"/><text fill="#000000" font-family="sans-serif" font-size="14" lengthAdjust="spacing" textLength="195" x="379" y="33.7969">ListBookingRequestsController</text><line style="stroke:#181818;stroke-width:0.5;" x1="351" x2="576" y1="44" y2="44"/><line style="stroke:#181818;stroke-width:0.5;" x1="351" x2="576" y1="52" y2="52"/></g><!--class Repositories--><g id="elem_Repositories"><rect codeLine="20" fill="#F1F1F1" filter="url(#f1ssgrekz79vfl)" height="159.7266" id="Repositories" rx="2.5" ry="2.5" style="stroke:#181818;stroke-width:0.5;" width="213" x="527" y="115"/><ellipse cx="589.75" cy="131" fill="#ADD1B2" rx="11" ry="11" style="stroke:#181818;stroke-width:1.0;"/><path d="M592.5156,126.875 Q592.6719,126.6563 592.8594,126.5469 Q593.0469,126.4375 593.2656,126.4375 Q593.6406,126.4375 593.875,126.7031 Q594.1094,126.9531 594.1094,127.5625 L594.1094,129.0156 Q594.1094,129.625 593.875,129.8906 Q593.6406,130.1563 593.2656,130.1563 Q592.9219,130.1563 592.7188,129.9531 Q592.5156,129.7656 592.4063,129.25 Q592.3594,128.8906 592.1719,128.7031 Q591.8438,128.3281 591.2344,128.1094 Q590.625,127.8906 590,127.8906 Q589.2344,127.8906 588.5938,128.2188 Q587.9688,128.5469 587.4688,129.2969 Q586.9844,130.0469 586.9844,131.0781 L586.9844,132.1719 Q586.9844,133.4063 587.875,134.2344 Q588.7656,135.0469 590.3594,135.0469 Q591.2969,135.0469 591.9531,134.7969 Q592.3438,134.6406 592.7656,134.2031 Q593.0313,133.9375 593.1719,133.8594 Q593.3281,133.7813 593.5313,133.7813 Q593.8594,133.7813 594.1094,134.0469 Q594.375,134.2969 594.375,134.6406 Q594.375,134.9844 594.0313,135.3906 Q593.5313,135.9688 592.7344,136.2969 Q591.6563,136.75 590.3594,136.75 Q588.8438,136.75 587.6406,136.125 Q586.6563,135.625 585.9688,134.5625 Q585.2813,133.4844 585.2813,132.2031 L585.2813,131.0469 Q585.2813,129.7188 585.8906,128.5781 Q586.5156,127.4219 587.6094,126.8125 Q588.7031,126.1875 589.9375,126.1875 Q590.6719,126.1875 591.3125,126.3594 Q591.9688,126.5156 592.5156,126.875 Z " fill="#000000"/><text fill="#000000" font-family="sans-serif" font-size="14" lengthAdjust="spacing" textLength="79" x="610.25" y="136.7969">Repositories</text><line style="stroke:#181818;stroke-width:0.5;" x1="528" x2="739" y1="147" y2="147"/><text fill="#000000" font-family="sans-serif" font-size="14" lengthAdjust="spacing" textLength="158" x="533" y="166.1074">+getEmployeeRepository</text><line style="stroke:#181818;stroke-width:0.5;" x1="528" x2="739" y1="173.6211" y2="173.6211"/><text fill="#000000" font-family="sans-serif" font-size="14" lengthAdjust="spacing" textLength="94" x="533" y="192.7285">-Repositories()</text><text fill="#000000" font-family="sans-serif" font-size="14" lengthAdjust="spacing" textLength="182" x="533" y="211.3496">+getInstance() : Repositories</text><text fill="#000000" font-family="sans-serif" font-size="14" lengthAdjust="spacing" textLength="193" x="533" y="229.9707">+getAnnouncementRequests()</text><text fill="#000000" font-family="sans-serif" font-size="14" lengthAdjust="spacing" textLength="201" x="533" y="248.5918">+getAnnouncementRepository()</text><text fill="#000000" font-family="sans-serif" font-size="14" lengthAdjust="spacing" textLength="196" x="533" y="267.2129">+getAuthenticationRepository()</text></g><!--class VisitRequestRepository--><g id="elem_VisitRequestRepository"><rect codeLine="30" fill="#F1F1F1" filter="url(#f1ssgrekz79vfl)" height="85.2422" id="VisitRequestRepository" rx="2.5" ry="2.5" style="stroke:#181818;stroke-width:0.5;" width="646" x="310.5" y="349.5"/><ellipse cx="555.75" cy="365.5" fill="#ADD1B2" rx="11" ry="11" style="stroke:#181818;stroke-width:1.0;"/><path d="M558.5156,361.375 Q558.6719,361.1563 558.8594,361.0469 Q559.0469,360.9375 559.2656,360.9375 Q559.6406,360.9375 559.875,361.2031 Q560.1094,361.4531 560.1094,362.0625 L560.1094,363.5156 Q560.1094,364.125 559.875,364.3906 Q559.6406,364.6563 559.2656,364.6563 Q558.9219,364.6563 558.7188,364.4531 Q558.5156,364.2656 558.4063,363.75 Q558.3594,363.3906 558.1719,363.2031 Q557.8438,362.8281 557.2344,362.6094 Q556.625,362.3906 556,362.3906 Q555.2344,362.3906 554.5938,362.7188 Q553.9688,363.0469 553.4688,363.7969 Q552.9844,364.5469 552.9844,365.5781 L552.9844,366.6719 Q552.9844,367.9063 553.875,368.7344 Q554.7656,369.5469 556.3594,369.5469 Q557.2969,369.5469 557.9531,369.2969 Q558.3438,369.1406 558.7656,368.7031 Q559.0313,368.4375 559.1719,368.3594 Q559.3281,368.2813 559.5313,368.2813 Q559.8594,368.2813 560.1094,368.5469 Q560.375,368.7969 560.375,369.1406 Q560.375,369.4844 560.0313,369.8906 Q559.5313,370.4688 558.7344,370.7969 Q557.6563,371.25 556.3594,371.25 Q554.8438,371.25 553.6406,370.625 Q552.6563,370.125 551.9688,369.0625 Q551.2813,367.9844 551.2813,366.7031 L551.2813,365.5469 Q551.2813,364.2188 551.8906,363.0781 Q552.5156,361.9219 553.6094,361.3125 Q554.7031,360.6875 555.9375,360.6875 Q556.6719,360.6875 557.3125,360.8594 Q557.9688,361.0156 558.5156,361.375 Z " fill="#000000"/><text fill="#000000" font-family="sans-serif" font-size="14" lengthAdjust="spacing" textLength="147" x="576.25" y="371.2969">VisitRequestRepository</text><line style="stroke:#181818;stroke-width:0.5;" x1="311.5" x2="955.5" y1="381.5" y2="381.5"/><text fill="#000000" font-family="sans-serif" font-size="14" lengthAdjust="spacing" textLength="210" x="316.5" y="400.6074">-List&lt;VisitRequest&gt; visitRequests</text><line style="stroke:#181818;stroke-width:0.5;" x1="311.5" x2="955.5" y1="408.1211" y2="408.1211"/><text fill="#000000" font-family="sans-serif" font-size="14" lengthAdjust="spacing" textLength="634" x="316.5" y="427.2285">+getVisitRequestsByAgentInPeriod(String visitRequestsListByAgent, DateTime begin, DateTime end)</text></g><!--class EmployeeRepository--><g id="elem_EmployeeRepository"><rect codeLine="35" fill="#F1F1F1" filter="url(#f1ssgrekz79vfl)" height="85.2422" id="EmployeeRepository" rx="2.5" ry="2.5" style="stroke:#181818;stroke-width:0.5;" width="236" x="1062.5" y="349.5"/><ellipse cx="1111.25" cy="365.5" fill="#ADD1B2" rx="11" ry="11" style="stroke:#181818;stroke-width:1.0;"/><path d="M1114.0156,361.375 Q1114.1719,361.1563 1114.3594,361.0469 Q1114.5469,360.9375 1114.7656,360.9375 Q1115.1406,360.9375 1115.375,361.2031 Q1115.6094,361.4531 1115.6094,362.0625 L1115.6094,363.5156 Q1115.6094,364.125 1115.375,364.3906 Q1115.1406,364.6563 1114.7656,364.6563 Q1114.4219,364.6563 1114.2188,364.4531 Q1114.0156,364.2656 1113.9063,363.75 Q1113.8594,363.3906 1113.6719,363.2031 Q1113.3438,362.8281 1112.7344,362.6094 Q1112.125,362.3906 1111.5,362.3906 Q1110.7344,362.3906 1110.0938,362.7188 Q1109.4688,363.0469 1108.9688,363.7969 Q1108.4844,364.5469 1108.4844,365.5781 L1108.4844,366.6719 Q1108.4844,367.9063 1109.375,368.7344 Q1110.2656,369.5469 1111.8594,369.5469 Q1112.7969,369.5469 1113.4531,369.2969 Q1113.8438,369.1406 1114.2656,368.7031 Q1114.5313,368.4375 1114.6719,368.3594 Q1114.8281,368.2813 1115.0313,368.2813 Q1115.3594,368.2813 1115.6094,368.5469 Q1115.875,368.7969 1115.875,369.1406 Q1115.875,369.4844 1115.5313,369.8906 Q1115.0313,370.4688 1114.2344,370.7969 Q1113.1563,371.25 1111.8594,371.25 Q1110.3438,371.25 1109.1406,370.625 Q1108.1563,370.125 1107.4688,369.0625 Q1106.7813,367.9844 1106.7813,366.7031 L1106.7813,365.5469 Q1106.7813,364.2188 1107.3906,363.0781 Q1108.0156,361.9219 1109.1094,361.3125 Q1110.2031,360.6875 1111.4375,360.6875 Q1112.1719,360.6875 1112.8125,360.8594 Q1113.4688,361.0156 1114.0156,361.375 Z " fill="#000000"/><text fill="#000000" font-family="sans-serif" font-size="14" lengthAdjust="spacing" textLength="130" x="1131.75" y="371.2969">EmployeeRepository</text><line style="stroke:#181818;stroke-width:0.5;" x1="1063.5" x2="1297.5" y1="381.5" y2="381.5"/><text fill="#000000" font-family="sans-serif" font-size="14" lengthAdjust="spacing" textLength="177" x="1068.5" y="400.6074">-List&lt;Employee&gt; employees</text><line style="stroke:#181818;stroke-width:0.5;" x1="1063.5" x2="1297.5" y1="408.1211" y2="408.1211"/><text fill="#000000" font-family="sans-serif" font-size="14" lengthAdjust="spacing" textLength="224" x="1068.5" y="427.2285">+getEmployeeByEmail(String email)</text></g><!--class VisitRequest--><g id="elem_VisitRequest"><rect codeLine="42" fill="#F1F1F1" filter="url(#f1ssgrekz79vfl)" height="141.1055" id="VisitRequest" rx="2.5" ry="2.5" style="stroke:#181818;stroke-width:0.5;" width="171" x="456" y="527"/><ellipse cx="498" cy="543" fill="#ADD1B2" rx="11" ry="11" style="stroke:#181818;stroke-width:1.0;"/><path d="M500.7656,538.875 Q500.9219,538.6563 501.1094,538.5469 Q501.2969,538.4375 501.5156,538.4375 Q501.8906,538.4375 502.125,538.7031 Q502.3594,538.9531 502.3594,539.5625 L502.3594,541.0156 Q502.3594,541.625 502.125,541.8906 Q501.8906,542.1563 501.5156,542.1563 Q501.1719,542.1563 500.9688,541.9531 Q500.7656,541.7656 500.6563,541.25 Q500.6094,540.8906 500.4219,540.7031 Q500.0938,540.3281 499.4844,540.1094 Q498.875,539.8906 498.25,539.8906 Q497.4844,539.8906 496.8438,540.2188 Q496.2188,540.5469 495.7188,541.2969 Q495.2344,542.0469 495.2344,543.0781 L495.2344,544.1719 Q495.2344,545.4063 496.125,546.2344 Q497.0156,547.0469 498.6094,547.0469 Q499.5469,547.0469 500.2031,546.7969 Q500.5938,546.6406 501.0156,546.2031 Q501.2813,545.9375 501.4219,545.8594 Q501.5781,545.7813 501.7813,545.7813 Q502.1094,545.7813 502.3594,546.0469 Q502.625,546.2969 502.625,546.6406 Q502.625,546.9844 502.2813,547.3906 Q501.7813,547.9688 500.9844,548.2969 Q499.9063,548.75 498.6094,548.75 Q497.0938,548.75 495.8906,548.125 Q494.9063,547.625 494.2188,546.5625 Q493.5313,545.4844 493.5313,544.2031 L493.5313,543.0469 Q493.5313,541.7188 494.1406,540.5781 Q494.7656,539.4219 495.8594,538.8125 Q496.9531,538.1875 498.1875,538.1875 Q498.9219,538.1875 499.5625,538.3594 Q500.2188,538.5156 500.7656,538.875 Z " fill="#000000"/><text fill="#000000" font-family="sans-serif" font-size="14" lengthAdjust="spacing" textLength="79" x="518" y="548.7969">VisitRequest</text><line style="stroke:#181818;stroke-width:0.5;" x1="457" x2="626" y1="559" y2="559"/><text fill="#000000" font-family="sans-serif" font-size="14" lengthAdjust="spacing" textLength="158" x="462" y="578.1074">-List&lt;DateTime&gt; timeSlot</text><text fill="#000000" font-family="sans-serif" font-size="14" lengthAdjust="spacing" textLength="115" x="462" y="596.7285">-String clientName</text><text fill="#000000" font-family="sans-serif" font-size="14" lengthAdjust="spacing" textLength="159" x="462" y="615.3496">-long clientPhoneNumber</text><text fill="#000000" font-family="sans-serif" font-size="14" lengthAdjust="spacing" textLength="115" x="462" y="633.9707">-String clientReply</text><text fill="#000000" font-family="sans-serif" font-size="14" lengthAdjust="spacing" textLength="107" x="462" y="652.5918">-int wasAccepted</text><line style="stroke:#181818;stroke-width:0.5;" x1="457" x2="626" y1="660.1055" y2="660.1055"/></g><!--class Property--><g id="elem_Property"><rect codeLine="52" fill="#F1F1F1" filter="url(#f1ssgrekz79vfl)" height="122.4844" id="Property" rx="2.5" ry="2.5" style="stroke:#181818;stroke-width:0.5;" width="213" x="192" y="723"/><ellipse cx="267.25" cy="739" fill="#ADD1B2" rx="11" ry="11" style="stroke:#181818;stroke-width:1.0;"/><path d="M270.0156,734.875 Q270.1719,734.6563 270.3594,734.5469 Q270.5469,734.4375 270.7656,734.4375 Q271.1406,734.4375 271.375,734.7031 Q271.6094,734.9531 271.6094,735.5625 L271.6094,737.0156 Q271.6094,737.625 271.375,737.8906 Q271.1406,738.1563 270.7656,738.1563 Q270.4219,738.1563 270.2188,737.9531 Q270.0156,737.7656 269.9063,737.25 Q269.8594,736.8906 269.6719,736.7031 Q269.3438,736.3281 268.7344,736.1094 Q268.125,735.8906 267.5,735.8906 Q266.7344,735.8906 266.0938,736.2188 Q265.4688,736.5469 264.9688,737.2969 Q264.4844,738.0469 264.4844,739.0781 L264.4844,740.1719 Q264.4844,741.4063 265.375,742.2344 Q266.2656,743.0469 267.8594,743.0469 Q268.7969,743.0469 269.4531,742.7969 Q269.8438,742.6406 270.2656,742.2031 Q270.5313,741.9375 270.6719,741.8594 Q270.8281,741.7813 271.0313,741.7813 Q271.3594,741.7813 271.6094,742.0469 Q271.875,742.2969 271.875,742.6406 Q271.875,742.9844 271.5313,743.3906 Q271.0313,743.9688 270.2344,744.2969 Q269.1563,744.75 267.8594,744.75 Q266.3438,744.75 265.1406,744.125 Q264.1563,743.625 263.4688,742.5625 Q262.7813,741.4844 262.7813,740.2031 L262.7813,739.0469 Q262.7813,737.7188 263.3906,736.5781 Q264.0156,735.4219 265.1094,734.8125 Q266.2031,734.1875 267.4375,734.1875 Q268.1719,734.1875 268.8125,734.3594 Q269.4688,734.5156 270.0156,734.875 Z " fill="#000000"/><text fill="#000000" font-family="sans-serif" font-size="14" lengthAdjust="spacing" textLength="54" x="287.75" y="744.7969">Property</text><line style="stroke:#181818;stroke-width:0.5;" x1="193" x2="404" y1="755" y2="755"/><text fill="#000000" font-family="sans-serif" font-size="14" lengthAdjust="spacing" textLength="83" x="198" y="774.1074">-double price</text><text fill="#000000" font-family="sans-serif" font-size="14" lengthAdjust="spacing" textLength="81" x="198" y="792.7285">-double area</text><text fill="#000000" font-family="sans-serif" font-size="14" lengthAdjust="spacing" textLength="165" x="198" y="811.3496">-double distanceToCentre</text><text fill="#000000" font-family="sans-serif" font-size="14" lengthAdjust="spacing" textLength="201" x="198" y="829.9707">-List&lt;Photograph&gt; photographs</text><line style="stroke:#181818;stroke-width:0.5;" x1="193" x2="404" y1="837.4844" y2="837.4844"/></g><!--class SortingAlgorithm--><g id="elem_SortingAlgorithm"><rect codeLine="62" fill="#F1F1F1" filter="url(#f1ssgrekz79vfl)" height="66.6211" id="SortingAlgorithm" rx="2.5" ry="2.5" style="stroke:#181818;stroke-width:0.5;" width="274" x="549.5" y="750.5"/><ellipse cx="630.25" cy="766.5" fill="#B4A7E5" rx="11" ry="11" style="stroke:#181818;stroke-width:1.0;"/><path d="M631.2031,763.1406 L631.2031,769.7969 L632.9219,769.7969 Q633.5313,769.7969 633.7969,770.0313 Q634.0625,770.2656 634.0625,770.6563 Q634.0625,771.0313 633.7969,771.2656 Q633.5313,771.5 632.9219,771.5 L627.7813,771.5 Q627.1719,771.5 626.9063,771.2656 Q626.6406,771.0313 626.6406,770.6406 Q626.6406,770.2656 626.9063,770.0313 Q627.1719,769.7969 627.7813,769.7969 L629.5,769.7969 L629.5,763.1406 L627.7813,763.1406 Q627.1719,763.1406 626.9063,762.9063 Q626.6406,762.6719 626.6406,762.2813 Q626.6406,761.9063 626.9063,761.6719 Q627.1719,761.4375 627.7813,761.4375 L632.9219,761.4375 Q633.5313,761.4375 633.7969,761.6719 Q634.0625,761.9063 634.0625,762.2813 Q634.0625,762.6719 633.7969,762.9063 Q633.5313,763.1406 632.9219,763.1406 L631.2031,763.1406 Z " fill="#000000"/><text fill="#000000" font-family="sans-serif" font-size="14" font-style="italic" lengthAdjust="spacing" textLength="104" x="650.75" y="772.2969">SortingAlgorithm</text><line style="stroke:#181818;stroke-width:0.5;" x1="550.5" x2="822.5" y1="782.5" y2="782.5"/><line style="stroke:#181818;stroke-width:0.5;" x1="550.5" x2="822.5" y1="790.5" y2="790.5"/><text fill="#000000" font-family="sans-serif" font-size="14" lengthAdjust="spacing" textLength="262" x="555.5" y="809.6074">+sort(List&lt;VisitRequest&gt; visitRequestList)</text></g><!--class BubbleSort--><g id="elem_BubbleSort"><rect codeLine="68" fill="#F1F1F1" filter="url(#f1ssgrekz79vfl)" height="66.6211" id="BubbleSort" rx="2.5" ry="2.5" style="stroke:#181818;stroke-width:0.5;" width="268" x="552.5" y="1022"/><ellipse cx="647.25" cy="1038" fill="#ADD1B2" rx="11" ry="11" style="stroke:#181818;stroke-width:1.0;"/><path d="M650.0156,1033.875 Q650.1719,1033.6563 650.3594,1033.5469 Q650.5469,1033.4375 650.7656,1033.4375 Q651.1406,1033.4375 651.375,1033.7031 Q651.6094,1033.9531 651.6094,1034.5625 L651.6094,1036.0156 Q651.6094,1036.625 651.375,1036.8906 Q651.1406,1037.1563 650.7656,1037.1563 Q650.4219,1037.1563 650.2188,1036.9531 Q650.0156,1036.7656 649.9063,1036.25 Q649.8594,1035.8906 649.6719,1035.7031 Q649.3438,1035.3281 648.7344,1035.1094 Q648.125,1034.8906 647.5,1034.8906 Q646.7344,1034.8906 646.0938,1035.2188 Q645.4688,1035.5469 644.9688,1036.2969 Q644.4844,1037.0469 644.4844,1038.0781 L644.4844,1039.1719 Q644.4844,1040.4063 645.375,1041.2344 Q646.2656,1042.0469 647.8594,1042.0469 Q648.7969,1042.0469 649.4531,1041.7969 Q649.8438,1041.6406 650.2656,1041.2031 Q650.5313,1040.9375 650.6719,1040.8594 Q650.8281,1040.7813 651.0313,1040.7813 Q651.3594,1040.7813 651.6094,1041.0469 Q651.875,1041.2969 651.875,1041.6406 Q651.875,1041.9844 651.5313,1042.3906 Q651.0313,1042.9688 650.2344,1043.2969 Q649.1563,1043.75 647.8594,1043.75 Q646.3438,1043.75 645.1406,1043.125 Q644.1563,1042.625 643.4688,1041.5625 Q642.7813,1040.4844 642.7813,1039.2031 L642.7813,1038.0469 Q642.7813,1036.7188 643.3906,1035.5781 Q644.0156,1034.4219 645.1094,1033.8125 Q646.2031,1033.1875 647.4375,1033.1875 Q648.1719,1033.1875 648.8125,1033.3594 Q649.4688,1033.5156 650.0156,1033.875 Z " fill="#000000"/><text fill="#000000" font-family="sans-serif" font-size="14" lengthAdjust="spacing" textLength="70" x="667.75" y="1043.7969">BubbleSort</text><line style="stroke:#181818;stroke-width:0.5;" x1="553.5" x2="819.5" y1="1054" y2="1054"/><line style="stroke:#181818;stroke-width:0.5;" x1="553.5" x2="819.5" y1="1062" y2="1062"/><text fill="#000000" font-family="sans-serif" font-size="14" lengthAdjust="spacing" textLength="256" x="558.5" y="1081.1074">+sort(List&lt;VisitRequest&gt; visitRequests) {</text></g><!--class InsertionSort--><g id="elem_InsertionSort"><rect codeLine="76" fill="#F1F1F1" filter="url(#f1ssgrekz79vfl)" height="66.6211" id="InsertionSort" rx="2.5" ry="2.5" style="stroke:#181818;stroke-width:0.5;" width="268" x="838.5" y="1022"/><ellipse cx="928.25" cy="1038" fill="#ADD1B2" rx="11" ry="11" style="stroke:#181818;stroke-width:1.0;"/><path d="M931.0156,1033.875 Q931.1719,1033.6563 931.3594,1033.5469 Q931.5469,1033.4375 931.7656,1033.4375 Q932.1406,1033.4375 932.375,1033.7031 Q932.6094,1033.9531 932.6094,1034.5625 L932.6094,1036.0156 Q932.6094,1036.625 932.375,1036.8906 Q932.1406,1037.1563 931.7656,1037.1563 Q931.4219,1037.1563 931.2188,1036.9531 Q931.0156,1036.7656 930.9063,1036.25 Q930.8594,1035.8906 930.6719,1035.7031 Q930.3438,1035.3281 929.7344,1035.1094 Q929.125,1034.8906 928.5,1034.8906 Q927.7344,1034.8906 927.0938,1035.2188 Q926.4688,1035.5469 925.9688,1036.2969 Q925.4844,1037.0469 925.4844,1038.0781 L925.4844,1039.1719 Q925.4844,1040.4063 926.375,1041.2344 Q927.2656,1042.0469 928.8594,1042.0469 Q929.7969,1042.0469 930.4531,1041.7969 Q930.8438,1041.6406 931.2656,1041.2031 Q931.5313,1040.9375 931.6719,1040.8594 Q931.8281,1040.7813 932.0313,1040.7813 Q932.3594,1040.7813 932.6094,1041.0469 Q932.875,1041.2969 932.875,1041.6406 Q932.875,1041.9844 932.5313,1042.3906 Q932.0313,1042.9688 931.2344,1043.2969 Q930.1563,1043.75 928.8594,1043.75 Q927.3438,1043.75 926.1406,1043.125 Q925.1563,1042.625 924.4688,1041.5625 Q923.7813,1040.4844 923.7813,1039.2031 L923.7813,1038.0469 Q923.7813,1036.7188 924.3906,1035.5781 Q925.0156,1034.4219 926.1094,1033.8125 Q927.2031,1033.1875 928.4375,1033.1875 Q929.1719,1033.1875 929.8125,1033.3594 Q930.4688,1033.5156 931.0156,1033.875 Z " fill="#000000"/><text fill="#000000" font-family="sans-serif" font-size="14" lengthAdjust="spacing" textLength="80" x="948.75" y="1043.7969">InsertionSort</text><line style="stroke:#181818;stroke-width:0.5;" x1="839.5" x2="1105.5" y1="1054" y2="1054"/><line style="stroke:#181818;stroke-width:0.5;" x1="839.5" x2="1105.5" y1="1062" y2="1062"/><text fill="#000000" font-family="sans-serif" font-size="14" lengthAdjust="spacing" textLength="256" x="844.5" y="1081.1074">+sort(List&lt;VisitRequest&gt; visitRequests) {</text></g><!--class DateTime--><g id="elem_DateTime"><rect codeLine="83" fill="#F1F1F1" filter="url(#f1ssgrekz79vfl)" height="66.6211" id="DateTime" rx="2.5" ry="2.5" style="stroke:#181818;stroke-width:0.5;" width="102" x="432.5" y="1022"/><ellipse cx="451.55" cy="1038" fill="#ADD1B2" rx="11" ry="11" style="stroke:#181818;stroke-width:1.0;"/><path d="M454.3156,1033.875 Q454.4719,1033.6563 454.6594,1033.5469 Q454.8469,1033.4375 455.0656,1033.4375 Q455.4406,1033.4375 455.675,1033.7031 Q455.9094,1033.9531 455.9094,1034.5625 L455.9094,1036.0156 Q455.9094,1036.625 455.675,1036.8906 Q455.4406,1037.1563 455.0656,1037.1563 Q454.7219,1037.1563 454.5188,1036.9531 Q454.3156,1036.7656 454.2063,1036.25 Q454.1594,1035.8906 453.9719,1035.7031 Q453.6438,1035.3281 453.0344,1035.1094 Q452.425,1034.8906 451.8,1034.8906 Q451.0344,1034.8906 450.3938,1035.2188 Q449.7688,1035.5469 449.2688,1036.2969 Q448.7844,1037.0469 448.7844,1038.0781 L448.7844,1039.1719 Q448.7844,1040.4063 449.675,1041.2344 Q450.5656,1042.0469 452.1594,1042.0469 Q453.0969,1042.0469 453.7531,1041.7969 Q454.1438,1041.6406 454.5656,1041.2031 Q454.8313,1040.9375 454.9719,1040.8594 Q455.1281,1040.7813 455.3313,1040.7813 Q455.6594,1040.7813 455.9094,1041.0469 Q456.175,1041.2969 456.175,1041.6406 Q456.175,1041.9844 455.8313,1042.3906 Q455.3313,1042.9688 454.5344,1043.2969 Q453.4563,1043.75 452.1594,1043.75 Q450.6438,1043.75 449.4406,1043.125 Q448.4563,1042.625 447.7688,1041.5625 Q447.0813,1040.4844 447.0813,1039.2031 L447.0813,1038.0469 Q447.0813,1036.7188 447.6906,1035.5781 Q448.3156,1034.4219 449.4094,1033.8125 Q450.5031,1033.1875 451.7375,1033.1875 Q452.4719,1033.1875 453.1125,1033.3594 Q453.7688,1033.5156 454.3156,1033.875 Z " fill="#000000"/><text fill="#000000" font-family="sans-serif" font-size="14" lengthAdjust="spacing" textLength="61" x="466.45" y="1043.7969">DateTime</text><line style="stroke:#181818;stroke-width:0.5;" x1="433.5" x2="533.5" y1="1054" y2="1054"/><text fill="#000000" font-family="sans-serif" font-size="14" lengthAdjust="spacing" textLength="90" x="438.5" y="1073.1074">Calendar date</text><line style="stroke:#181818;stroke-width:0.5;" x1="433.5" x2="533.5" y1="1080.6211" y2="1080.6211"/></g><!--class Address--><g id="elem_Address"><rect codeLine="88" fill="#F1F1F1" filter="url(#f1ssgrekz79vfl)" height="122.4844" id="Address" rx="2.5" ry="2.5" style="stroke:#181818;stroke-width:0.5;" width="146" x="666.5" y="1321"/><ellipse cx="709.4" cy="1337" fill="#ADD1B2" rx="11" ry="11" style="stroke:#181818;stroke-width:1.0;"/><path d="M712.1656,1332.875 Q712.3219,1332.6563 712.5094,1332.5469 Q712.6969,1332.4375 712.9156,1332.4375 Q713.2906,1332.4375 713.525,1332.7031 Q713.7594,1332.9531 713.7594,1333.5625 L713.7594,1335.0156 Q713.7594,1335.625 713.525,1335.8906 Q713.2906,1336.1563 712.9156,1336.1563 Q712.5719,1336.1563 712.3688,1335.9531 Q712.1656,1335.7656 712.0563,1335.25 Q712.0094,1334.8906 711.8219,1334.7031 Q711.4938,1334.3281 710.8844,1334.1094 Q710.275,1333.8906 709.65,1333.8906 Q708.8844,1333.8906 708.2438,1334.2188 Q707.6188,1334.5469 707.1188,1335.2969 Q706.6344,1336.0469 706.6344,1337.0781 L706.6344,1338.1719 Q706.6344,1339.4063 707.525,1340.2344 Q708.4156,1341.0469 710.0094,1341.0469 Q710.9469,1341.0469 711.6031,1340.7969 Q711.9938,1340.6406 712.4156,1340.2031 Q712.6813,1339.9375 712.8219,1339.8594 Q712.9781,1339.7813 713.1813,1339.7813 Q713.5094,1339.7813 713.7594,1340.0469 Q714.025,1340.2969 714.025,1340.6406 Q714.025,1340.9844 713.6813,1341.3906 Q713.1813,1341.9688 712.3844,1342.2969 Q711.3063,1342.75 710.0094,1342.75 Q708.4938,1342.75 707.2906,1342.125 Q706.3063,1341.625 705.6188,1340.5625 Q704.9313,1339.4844 704.9313,1338.2031 L704.9313,1337.0469 Q704.9313,1335.7188 705.5406,1334.5781 Q706.1656,1333.4219 707.2594,1332.8125 Q708.3531,1332.1875 709.5875,1332.1875 Q710.3219,1332.1875 710.9625,1332.3594 Q711.6188,1332.5156 712.1656,1332.875 Z " fill="#000000"/><text fill="#000000" font-family="sans-serif" font-size="14" lengthAdjust="spacing" textLength="52" x="729.6" y="1342.7969">Address</text><line style="stroke:#181818;stroke-width:0.5;" x1="667.5" x2="811.5" y1="1353" y2="1353"/><text fill="#000000" font-family="sans-serif" font-size="14" lengthAdjust="spacing" textLength="134" x="672.5" y="1372.1074">-String streetAddress</text><text fill="#000000" font-family="sans-serif" font-size="14" lengthAdjust="spacing" textLength="67" x="672.5" y="1390.7285">-String city</text><text fill="#000000" font-family="sans-serif" font-size="14" lengthAdjust="spacing" textLength="77" x="672.5" y="1409.3496">-String state</text><text fill="#000000" font-family="sans-serif" font-size="14" lengthAdjust="spacing" textLength="97" x="672.5" y="1427.9707">-String zipCode</text><line style="stroke:#181818;stroke-width:0.5;" x1="667.5" x2="811.5" y1="1435.4844" y2="1435.4844"/></g><!--class PropertyType--><g id="elem_PropertyType"><rect codeLine="96" fill="#F1F1F1" filter="url(#f1ssgrekz79vfl)" height="66.6211" id="PropertyType" rx="2.5" ry="2.5" style="stroke:#181818;stroke-width:0.5;" width="129" x="49" y="1022"/><ellipse cx="68.95" cy="1038" fill="#ADD1B2" rx="11" ry="11" style="stroke:#181818;stroke-width:1.0;"/><path d="M71.7156,1033.875 Q71.8719,1033.6563 72.0594,1033.5469 Q72.2469,1033.4375 72.4656,1033.4375 Q72.8406,1033.4375 73.075,1033.7031 Q73.3094,1033.9531 73.3094,1034.5625 L73.3094,1036.0156 Q73.3094,1036.625 73.075,1036.8906 Q72.8406,1037.1563 72.4656,1037.1563 Q72.1219,1037.1563 71.9188,1036.9531 Q71.7156,1036.7656 71.6063,1036.25 Q71.5594,1035.8906 71.3719,1035.7031 Q71.0438,1035.3281 70.4344,1035.1094 Q69.825,1034.8906 69.2,1034.8906 Q68.4344,1034.8906 67.7938,1035.2188 Q67.1688,1035.5469 66.6688,1036.2969 Q66.1844,1037.0469 66.1844,1038.0781 L66.1844,1039.1719 Q66.1844,1040.4063 67.075,1041.2344 Q67.9656,1042.0469 69.5594,1042.0469 Q70.4969,1042.0469 71.1531,1041.7969 Q71.5438,1041.6406 71.9656,1041.2031 Q72.2313,1040.9375 72.3719,1040.8594 Q72.5281,1040.7813 72.7313,1040.7813 Q73.0594,1040.7813 73.3094,1041.0469 Q73.575,1041.2969 73.575,1041.6406 Q73.575,1041.9844 73.2313,1042.3906 Q72.7313,1042.9688 71.9344,1043.2969 Q70.8563,1043.75 69.5594,1043.75 Q68.0438,1043.75 66.8406,1043.125 Q65.8563,1042.625 65.1688,1041.5625 Q64.4813,1040.4844 64.4813,1039.2031 L64.4813,1038.0469 Q64.4813,1036.7188 65.0906,1035.5781 Q65.7156,1034.4219 66.8094,1033.8125 Q67.9031,1033.1875 69.1375,1033.1875 Q69.8719,1033.1875 70.5125,1033.3594 Q71.1688,1033.5156 71.7156,1033.875 Z " fill="#000000"/><text fill="#000000" font-family="sans-serif" font-size="14" lengthAdjust="spacing" textLength="86" x="84.05" y="1043.7969">PropertyType</text><line style="stroke:#181818;stroke-width:0.5;" x1="50" x2="177" y1="1054" y2="1054"/><text fill="#000000" font-family="sans-serif" font-size="14" lengthAdjust="spacing" textLength="117" x="55" y="1073.1074">-String Description</text><line style="stroke:#181818;stroke-width:0.5;" x1="50" x2="177" y1="1080.6211" y2="1080.6211"/></g><!--class Photographs--><g id="elem_Photographs"><rect codeLine="100" fill="#F1F1F1" filter="url(#f1ssgrekz79vfl)" height="66.6211" id="Photographs" rx="2.5" ry="2.5" style="stroke:#181818;stroke-width:0.5;" width="113" x="196" y="1022"/><ellipse cx="211" cy="1038" fill="#ADD1B2" rx="11" ry="11" style="stroke:#181818;stroke-width:1.0;"/><path d="M213.7656,1033.875 Q213.9219,1033.6563 214.1094,1033.5469 Q214.2969,1033.4375 214.5156,1033.4375 Q214.8906,1033.4375 215.125,1033.7031 Q215.3594,1033.9531 215.3594,1034.5625 L215.3594,1036.0156 Q215.3594,1036.625 215.125,1036.8906 Q214.8906,1037.1563 214.5156,1037.1563 Q214.1719,1037.1563 213.9688,1036.9531 Q213.7656,1036.7656 213.6563,1036.25 Q213.6094,1035.8906 213.4219,1035.7031 Q213.0938,1035.3281 212.4844,1035.1094 Q211.875,1034.8906 211.25,1034.8906 Q210.4844,1034.8906 209.8438,1035.2188 Q209.2188,1035.5469 208.7188,1036.2969 Q208.2344,1037.0469 208.2344,1038.0781 L208.2344,1039.1719 Q208.2344,1040.4063 209.125,1041.2344 Q210.0156,1042.0469 211.6094,1042.0469 Q212.5469,1042.0469 213.2031,1041.7969 Q213.5938,1041.6406 214.0156,1041.2031 Q214.2813,1040.9375 214.4219,1040.8594 Q214.5781,1040.7813 214.7813,1040.7813 Q215.1094,1040.7813 215.3594,1041.0469 Q215.625,1041.2969 215.625,1041.6406 Q215.625,1041.9844 215.2813,1042.3906 Q214.7813,1042.9688 213.9844,1043.2969 Q212.9063,1043.75 211.6094,1043.75 Q210.0938,1043.75 208.8906,1043.125 Q207.9063,1042.625 207.2188,1041.5625 Q206.5313,1040.4844 206.5313,1039.2031 L206.5313,1038.0469 Q206.5313,1036.7188 207.1406,1035.5781 Q207.7656,1034.4219 208.8594,1033.8125 Q209.9531,1033.1875 211.1875,1033.1875 Q211.9219,1033.1875 212.5625,1033.3594 Q213.2188,1033.5156 213.7656,1033.875 Z " fill="#000000"/><text fill="#000000" font-family="sans-serif" font-size="14" lengthAdjust="spacing" textLength="81" x="225" y="1043.7969">Photographs</text><line style="stroke:#181818;stroke-width:0.5;" x1="197" x2="308" y1="1054" y2="1054"/><text fill="#000000" font-family="sans-serif" font-size="14" lengthAdjust="spacing" textLength="62" x="202" y="1073.1074">-String uri</text><line style="stroke:#181818;stroke-width:0.5;" x1="197" x2="308" y1="1080.6211" y2="1080.6211"/></g><!--class Store--><g id="elem_Store"><rect codeLine="104" fill="#F1F1F1" filter="url(#f1ssgrekz79vfl)" height="122.4844" id="Store" rx="2.5" ry="2.5" style="stroke:#181818;stroke-width:0.5;" width="137" x="671" y="1144"/><ellipse cx="718.25" cy="1160" fill="#ADD1B2" rx="11" ry="11" style="stroke:#181818;stroke-width:1.0;"/><path d="M721.0156,1155.875 Q721.1719,1155.6563 721.3594,1155.5469 Q721.5469,1155.4375 721.7656,1155.4375 Q722.1406,1155.4375 722.375,1155.7031 Q722.6094,1155.9531 722.6094,1156.5625 L722.6094,1158.0156 Q722.6094,1158.625 722.375,1158.8906 Q722.1406,1159.1563 721.7656,1159.1563 Q721.4219,1159.1563 721.2188,1158.9531 Q721.0156,1158.7656 720.9063,1158.25 Q720.8594,1157.8906 720.6719,1157.7031 Q720.3438,1157.3281 719.7344,1157.1094 Q719.125,1156.8906 718.5,1156.8906 Q717.7344,1156.8906 717.0938,1157.2188 Q716.4688,1157.5469 715.9688,1158.2969 Q715.4844,1159.0469 715.4844,1160.0781 L715.4844,1161.1719 Q715.4844,1162.4063 716.375,1163.2344 Q717.2656,1164.0469 718.8594,1164.0469 Q719.7969,1164.0469 720.4531,1163.7969 Q720.8438,1163.6406 721.2656,1163.2031 Q721.5313,1162.9375 721.6719,1162.8594 Q721.8281,1162.7813 722.0313,1162.7813 Q722.3594,1162.7813 722.6094,1163.0469 Q722.875,1163.2969 722.875,1163.6406 Q722.875,1163.9844 722.5313,1164.3906 Q722.0313,1164.9688 721.2344,1165.2969 Q720.1563,1165.75 718.8594,1165.75 Q717.3438,1165.75 716.1406,1165.125 Q715.1563,1164.625 714.4688,1163.5625 Q713.7813,1162.4844 713.7813,1161.2031 L713.7813,1160.0469 Q713.7813,1158.7188 714.3906,1157.5781 Q715.0156,1156.4219 716.1094,1155.8125 Q717.2031,1155.1875 718.4375,1155.1875 Q719.1719,1155.1875 719.8125,1155.3594 Q720.4688,1155.5156 721.0156,1155.875 Z " fill="#000000"/><text fill="#000000" font-family="sans-serif" font-size="14" lengthAdjust="spacing" textLength="34" x="738.75" y="1165.7969">Store</text><line style="stroke:#181818;stroke-width:0.5;" x1="672" x2="807" y1="1176" y2="1176"/><text fill="#000000" font-family="sans-serif" font-size="14" lengthAdjust="spacing" textLength="64" x="677" y="1195.1074">-Integer id</text><text fill="#000000" font-family="sans-serif" font-size="14" lengthAdjust="spacing" textLength="119" x="677" y="1213.7285">-String designation</text><text fill="#000000" font-family="sans-serif" font-size="14" lengthAdjust="spacing" textLength="79" x="677" y="1232.3496">-String email</text><text fill="#000000" font-family="sans-serif" font-size="14" lengthAdjust="spacing" textLength="125" x="677" y="1250.9707">-long phoneNumber</text><line style="stroke:#181818;stroke-width:0.5;" x1="672" x2="807" y1="1258.4844" y2="1258.4844"/></g><!--class Employee--><g id="elem_Employee"><rect codeLine="113" fill="#F1F1F1" filter="url(#f1ssgrekz79vfl)" height="66.6211" id="Employee" rx="2.5" ry="2.5" style="stroke:#181818;stroke-width:0.5;" width="107" x="1127" y="564"/><ellipse cx="1147.85" cy="580" fill="#ADD1B2" rx="11" ry="11" style="stroke:#181818;stroke-width:1.0;"/><path d="M1150.6156,575.875 Q1150.7719,575.6563 1150.9594,575.5469 Q1151.1469,575.4375 1151.3656,575.4375 Q1151.7406,575.4375 1151.975,575.7031 Q1152.2094,575.9531 1152.2094,576.5625 L1152.2094,578.0156 Q1152.2094,578.625 1151.975,578.8906 Q1151.7406,579.1563 1151.3656,579.1563 Q1151.0219,579.1563 1150.8188,578.9531 Q1150.6156,578.7656 1150.5063,578.25 Q1150.4594,577.8906 1150.2719,577.7031 Q1149.9438,577.3281 1149.3344,577.1094 Q1148.725,576.8906 1148.1,576.8906 Q1147.3344,576.8906 1146.6938,577.2188 Q1146.0688,577.5469 1145.5688,578.2969 Q1145.0844,579.0469 1145.0844,580.0781 L1145.0844,581.1719 Q1145.0844,582.4063 1145.975,583.2344 Q1146.8656,584.0469 1148.4594,584.0469 Q1149.3969,584.0469 1150.0531,583.7969 Q1150.4438,583.6406 1150.8656,583.2031 Q1151.1313,582.9375 1151.2719,582.8594 Q1151.4281,582.7813 1151.6313,582.7813 Q1151.9594,582.7813 1152.2094,583.0469 Q1152.475,583.2969 1152.475,583.6406 Q1152.475,583.9844 1152.1313,584.3906 Q1151.6313,584.9688 1150.8344,585.2969 Q1149.7563,585.75 1148.4594,585.75 Q1146.9438,585.75 1145.7406,585.125 Q1144.7563,584.625 1144.0688,583.5625 Q1143.3813,582.4844 1143.3813,581.2031 L1143.3813,580.0469 Q1143.3813,578.7188 1143.9906,577.5781 Q1144.6156,576.4219 1145.7094,575.8125 Q1146.8031,575.1875 1148.0375,575.1875 Q1148.7719,575.1875 1149.4125,575.3594 Q1150.0688,575.5156 1150.6156,575.875 Z " fill="#000000"/><text fill="#000000" font-family="sans-serif" font-size="14" lengthAdjust="spacing" textLength="62" x="1163.15" y="585.7969">Employee</text><line style="stroke:#181818;stroke-width:0.5;" x1="1128" x2="1233" y1="596" y2="596"/><text fill="#000000" font-family="sans-serif" font-size="14" lengthAdjust="spacing" textLength="95" x="1133" y="615.1074">List&lt;Role&gt; role</text><line style="stroke:#181818;stroke-width:0.5;" x1="1128" x2="1233" y1="622.6211" y2="622.6211"/></g><!--class Role--><g id="elem_Role"><rect codeLine="118" fill="#F1F1F1" filter="url(#f1ssgrekz79vfl)" height="85.2422" id="Role" rx="2.5" ry="2.5" style="stroke:#181818;stroke-width:0.5;" width="127" x="1163" y="741.5"/><ellipse cx="1207.75" cy="757.5" fill="#ADD1B2" rx="11" ry="11" style="stroke:#181818;stroke-width:1.0;"/><path d="M1210.5156,753.375 Q1210.6719,753.1563 1210.8594,753.0469 Q1211.0469,752.9375 1211.2656,752.9375 Q1211.6406,752.9375 1211.875,753.2031 Q1212.1094,753.4531 1212.1094,754.0625 L1212.1094,755.5156 Q1212.1094,756.125 1211.875,756.3906 Q1211.6406,756.6563 1211.2656,756.6563 Q1210.9219,756.6563 1210.7188,756.4531 Q1210.5156,756.2656 1210.4063,755.75 Q1210.3594,755.3906 1210.1719,755.2031 Q1209.8438,754.8281 1209.2344,754.6094 Q1208.625,754.3906 1208,754.3906 Q1207.2344,754.3906 1206.5938,754.7188 Q1205.9688,755.0469 1205.4688,755.7969 Q1204.9844,756.5469 1204.9844,757.5781 L1204.9844,758.6719 Q1204.9844,759.9063 1205.875,760.7344 Q1206.7656,761.5469 1208.3594,761.5469 Q1209.2969,761.5469 1209.9531,761.2969 Q1210.3438,761.1406 1210.7656,760.7031 Q1211.0313,760.4375 1211.1719,760.3594 Q1211.3281,760.2813 1211.5313,760.2813 Q1211.8594,760.2813 1212.1094,760.5469 Q1212.375,760.7969 1212.375,761.1406 Q1212.375,761.4844 1212.0313,761.8906 Q1211.5313,762.4688 1210.7344,762.7969 Q1209.6563,763.25 1208.3594,763.25 Q1206.8438,763.25 1205.6406,762.625 Q1204.6563,762.125 1203.9688,761.0625 Q1203.2813,759.9844 1203.2813,758.7031 L1203.2813,757.5469 Q1203.2813,756.2188 1203.8906,755.0781 Q1204.5156,753.9219 1205.6094,753.3125 Q1206.7031,752.6875 1207.9375,752.6875 Q1208.6719,752.6875 1209.3125,752.8594 Q1209.9688,753.0156 1210.5156,753.375 Z " fill="#000000"/><text fill="#000000" font-family="sans-serif" font-size="14" lengthAdjust="spacing" textLength="29" x="1228.25" y="763.2969">Role</text><line style="stroke:#181818;stroke-width:0.5;" x1="1164" x2="1289" y1="773.5" y2="773.5"/><text fill="#000000" font-family="sans-serif" font-size="14" lengthAdjust="spacing" textLength="64" x="1169" y="792.6074">-Integer id</text><text fill="#000000" font-family="sans-serif" font-size="14" lengthAdjust="spacing" textLength="115" x="1169" y="811.2285">-String description</text><line style="stroke:#181818;stroke-width:0.5;" x1="1164" x2="1289" y1="818.7422" y2="818.7422"/></g><!--class Person--><g id="elem_Person"><rect codeLine="123" fill="#F1F1F1" filter="url(#f1ssgrekz79vfl)" height="141.1055" id="Person" rx="2.5" ry="2.5" style="stroke:#181818;stroke-width:0.5;" width="169" x="1219" y="863"/><ellipse cx="1276.75" cy="879" fill="#ADD1B2" rx="11" ry="11" style="stroke:#181818;stroke-width:1.0;"/><path d="M1279.5156,874.875 Q1279.6719,874.6563 1279.8594,874.5469 Q1280.0469,874.4375 1280.2656,874.4375 Q1280.6406,874.4375 1280.875,874.7031 Q1281.1094,874.9531 1281.1094,875.5625 L1281.1094,877.0156 Q1281.1094,877.625 1280.875,877.8906 Q1280.6406,878.1563 1280.2656,878.1563 Q1279.9219,878.1563 1279.7188,877.9531 Q1279.5156,877.7656 1279.4063,877.25 Q1279.3594,876.8906 1279.1719,876.7031 Q1278.8438,876.3281 1278.2344,876.1094 Q1277.625,875.8906 1277,875.8906 Q1276.2344,875.8906 1275.5938,876.2188 Q1274.9688,876.5469 1274.4688,877.2969 Q1273.9844,878.0469 1273.9844,879.0781 L1273.9844,880.1719 Q1273.9844,881.4063 1274.875,882.2344 Q1275.7656,883.0469 1277.3594,883.0469 Q1278.2969,883.0469 1278.9531,882.7969 Q1279.3438,882.6406 1279.7656,882.2031 Q1280.0313,881.9375 1280.1719,881.8594 Q1280.3281,881.7813 1280.5313,881.7813 Q1280.8594,881.7813 1281.1094,882.0469 Q1281.375,882.2969 1281.375,882.6406 Q1281.375,882.9844 1281.0313,883.3906 Q1280.5313,883.9688 1279.7344,884.2969 Q1278.6563,884.75 1277.3594,884.75 Q1275.8438,884.75 1274.6406,884.125 Q1273.6563,883.625 1272.9688,882.5625 Q1272.2813,881.4844 1272.2813,880.2031 L1272.2813,879.0469 Q1272.2813,877.7188 1272.8906,876.5781 Q1273.5156,875.4219 1274.6094,874.8125 Q1275.7031,874.1875 1276.9375,874.1875 Q1277.6719,874.1875 1278.3125,874.3594 Q1278.9688,874.5156 1279.5156,874.875 Z " fill="#000000"/><text fill="#000000" font-family="sans-serif" font-size="14" lengthAdjust="spacing" textLength="45" x="1297.25" y="884.7969">Person</text><line style="stroke:#181818;stroke-width:0.5;" x1="1220" x2="1387" y1="895" y2="895"/><text fill="#000000" font-family="sans-serif" font-size="14" lengthAdjust="spacing" textLength="79" x="1225" y="914.1074">-String email</text><text fill="#000000" font-family="sans-serif" font-size="14" lengthAdjust="spacing" textLength="81" x="1225" y="932.7285">-String name</text><text fill="#000000" font-family="sans-serif" font-size="14" lengthAdjust="spacing" textLength="157" x="1225" y="951.3496">-Integer passportNumber</text><text fill="#000000" font-family="sans-serif" font-size="14" lengthAdjust="spacing" textLength="125" x="1225" y="969.9707">-long phoneNumber</text><text fill="#000000" font-family="sans-serif" font-size="14" lengthAdjust="spacing" textLength="113" x="1225" y="988.5918">-String taxNumber</text><line style="stroke:#181818;stroke-width:0.5;" x1="1220" x2="1387" y1="996.1055" y2="996.1055"/></g><!--class VisitRequestMapper--><g id="elem_VisitRequestMapper"><rect codeLine="133" fill="#F1F1F1" filter="url(#f1ssgrekz79vfl)" height="103.8633" id="VisitRequestMapper" rx="2.5" ry="2.5" style="stroke:#181818;stroke-width:0.5;" width="371" x="6" y="143"/><ellipse cx="123.75" cy="159" fill="#ADD1B2" rx="11" ry="11" style="stroke:#181818;stroke-width:1.0;"/><path d="M126.5156,154.875 Q126.6719,154.6563 126.8594,154.5469 Q127.0469,154.4375 127.2656,154.4375 Q127.6406,154.4375 127.875,154.7031 Q128.1094,154.9531 128.1094,155.5625 L128.1094,157.0156 Q128.1094,157.625 127.875,157.8906 Q127.6406,158.1563 127.2656,158.1563 Q126.9219,158.1563 126.7188,157.9531 Q126.5156,157.7656 126.4063,157.25 Q126.3594,156.8906 126.1719,156.7031 Q125.8438,156.3281 125.2344,156.1094 Q124.625,155.8906 124,155.8906 Q123.2344,155.8906 122.5938,156.2188 Q121.9688,156.5469 121.4688,157.2969 Q120.9844,158.0469 120.9844,159.0781 L120.9844,160.1719 Q120.9844,161.4063 121.875,162.2344 Q122.7656,163.0469 124.3594,163.0469 Q125.2969,163.0469 125.9531,162.7969 Q126.3438,162.6406 126.7656,162.2031 Q127.0313,161.9375 127.1719,161.8594 Q127.3281,161.7813 127.5313,161.7813 Q127.8594,161.7813 128.1094,162.0469 Q128.375,162.2969 128.375,162.6406 Q128.375,162.9844 128.0313,163.3906 Q127.5313,163.9688 126.7344,164.2969 Q125.6563,164.75 124.3594,164.75 Q122.8438,164.75 121.6406,164.125 Q120.6563,163.625 119.9688,162.5625 Q119.2813,161.4844 119.2813,160.2031 L119.2813,159.0469 Q119.2813,157.7188 119.8906,156.5781 Q120.5156,155.4219 121.6094,154.8125 Q122.7031,154.1875 123.9375,154.1875 Q124.6719,154.1875 125.3125,154.3594 Q125.9688,154.5156 126.5156,154.875 Z " fill="#000000"/><text fill="#000000" font-family="sans-serif" font-size="14" lengthAdjust="spacing" textLength="127" x="144.25" y="164.7969">VisitRequestMapper</text><line style="stroke:#181818;stroke-width:0.5;" x1="7" x2="376" y1="175" y2="175"/><line style="stroke:#181818;stroke-width:0.5;" x1="7" x2="376" y1="183" y2="183"/><text fill="#000000" font-family="sans-serif" font-size="14" lengthAdjust="spacing" textLength="220" x="12" y="202.1074">+toDTO(VisitRequest visitRequest)</text><text fill="#000000" font-family="sans-serif" font-size="14" lengthAdjust="spacing" textLength="285" x="12" y="220.7285">+toEntity(VisitRequestDTO visitRequestDTO)</text><text fill="#000000" font-family="sans-serif" font-size="14" lengthAdjust="spacing" textLength="359" x="12" y="239.3496">+getVisitRequestsDTO(List&lt;VisitRequest&gt; visitRequests)</text></g><!--class VisitRequestDTO--><g id="elem_VisitRequestDTO"><rect codeLine="140" fill="#F1F1F1" filter="url(#f1ssgrekz79vfl)" height="159.7266" id="VisitRequestDTO" rx="2.5" ry="2.5" style="stroke:#181818;stroke-width:0.5;" width="201" x="91" y="312"/><ellipse cx="133" cy="328" fill="#ADD1B2" rx="11" ry="11" style="stroke:#181818;stroke-width:1.0;"/><path d="M135.7656,323.875 Q135.9219,323.6563 136.1094,323.5469 Q136.2969,323.4375 136.5156,323.4375 Q136.8906,323.4375 137.125,323.7031 Q137.3594,323.9531 137.3594,324.5625 L137.3594,326.0156 Q137.3594,326.625 137.125,326.8906 Q136.8906,327.1563 136.5156,327.1563 Q136.1719,327.1563 135.9688,326.9531 Q135.7656,326.7656 135.6563,326.25 Q135.6094,325.8906 135.4219,325.7031 Q135.0938,325.3281 134.4844,325.1094 Q133.875,324.8906 133.25,324.8906 Q132.4844,324.8906 131.8438,325.2188 Q131.2188,325.5469 130.7188,326.2969 Q130.2344,327.0469 130.2344,328.0781 L130.2344,329.1719 Q130.2344,330.4063 131.125,331.2344 Q132.0156,332.0469 133.6094,332.0469 Q134.5469,332.0469 135.2031,331.7969 Q135.5938,331.6406 136.0156,331.2031 Q136.2813,330.9375 136.4219,330.8594 Q136.5781,330.7813 136.7813,330.7813 Q137.1094,330.7813 137.3594,331.0469 Q137.625,331.2969 137.625,331.6406 Q137.625,331.9844 137.2813,332.3906 Q136.7813,332.9688 135.9844,333.2969 Q134.9063,333.75 133.6094,333.75 Q132.0938,333.75 130.8906,333.125 Q129.9063,332.625 129.2188,331.5625 Q128.5313,330.4844 128.5313,329.2031 L128.5313,328.0469 Q128.5313,326.7188 129.1406,325.5781 Q129.7656,324.4219 130.8594,323.8125 Q131.9531,323.1875 133.1875,323.1875 Q133.9219,323.1875 134.5625,323.3594 Q135.2188,323.5156 135.7656,323.875 Z " fill="#000000"/><text fill="#000000" font-family="sans-serif" font-size="14" lengthAdjust="spacing" textLength="109" x="153" y="333.7969">VisitRequestDTO</text><line style="stroke:#181818;stroke-width:0.5;" x1="92" x2="291" y1="344" y2="344"/><text fill="#000000" font-family="sans-serif" font-size="14" lengthAdjust="spacing" textLength="146" x="97" y="363.1074">-PropertyDTO property</text><text fill="#000000" font-family="sans-serif" font-size="14" lengthAdjust="spacing" textLength="189" x="97" y="381.7285">-DateTimeDTO preferredDate</text><text fill="#000000" font-family="sans-serif" font-size="14" lengthAdjust="spacing" textLength="158" x="97" y="400.3496">-List&lt;DateTime&gt; timeSlot</text><text fill="#000000" font-family="sans-serif" font-size="14" lengthAdjust="spacing" textLength="115" x="97" y="418.9707">-String clientName</text><text fill="#000000" font-family="sans-serif" font-size="14" lengthAdjust="spacing" textLength="159" x="97" y="437.5918">-long clientPhoneNumber</text><text fill="#000000" font-family="sans-serif" font-size="14" lengthAdjust="spacing" textLength="118" x="97" y="456.2129">-String ClientReply</text><line style="stroke:#181818;stroke-width:0.5;" x1="92" x2="291" y1="463.7266" y2="463.7266"/></g><!--class Agent--><g id="elem_Agent"><rect fill="#F1F1F1" filter="url(#f1ssgrekz79vfl)" height="48" id="Agent" rx="2.5" ry="2.5" style="stroke:#181818;stroke-width:0.5;" width="69" x="975" y="368"/><ellipse cx="990" cy="384" fill="#ADD1B2" rx="11" ry="11" style="stroke:#181818;stroke-width:1.0;"/><path d="M992.7656,379.875 Q992.9219,379.6563 993.1094,379.5469 Q993.2969,379.4375 993.5156,379.4375 Q993.8906,379.4375 994.125,379.7031 Q994.3594,379.9531 994.3594,380.5625 L994.3594,382.0156 Q994.3594,382.625 994.125,382.8906 Q993.8906,383.1563 993.5156,383.1563 Q993.1719,383.1563 992.9688,382.9531 Q992.7656,382.7656 992.6563,382.25 Q992.6094,381.8906 992.4219,381.7031 Q992.0938,381.3281 991.4844,381.1094 Q990.875,380.8906 990.25,380.8906 Q989.4844,380.8906 988.8438,381.2188 Q988.2188,381.5469 987.7188,382.2969 Q987.2344,383.0469 987.2344,384.0781 L987.2344,385.1719 Q987.2344,386.4063 988.125,387.2344 Q989.0156,388.0469 990.6094,388.0469 Q991.5469,388.0469 992.2031,387.7969 Q992.5938,387.6406 993.0156,387.2031 Q993.2813,386.9375 993.4219,386.8594 Q993.5781,386.7813 993.7813,386.7813 Q994.1094,386.7813 994.3594,387.0469 Q994.625,387.2969 994.625,387.6406 Q994.625,387.9844 994.2813,388.3906 Q993.7813,388.9688 992.9844,389.2969 Q991.9063,389.75 990.6094,389.75 Q989.0938,389.75 987.8906,389.125 Q986.9063,388.625 986.2188,387.5625 Q985.5313,386.4844 985.5313,385.2031 L985.5313,384.0469 Q985.5313,382.7188 986.1406,381.5781 Q986.7656,380.4219 987.8594,379.8125 Q988.9531,379.1875 990.1875,379.1875 Q990.9219,379.1875 991.5625,379.3594 Q992.2188,379.5156 992.7656,379.875 Z " fill="#000000"/><text fill="#000000" font-family="sans-serif" font-size="14" lengthAdjust="spacing" textLength="37" x="1004" y="389.7969">Agent</text><line style="stroke:#181818;stroke-width:0.5;" x1="976" x2="1043" y1="400" y2="400"/><line style="stroke:#181818;stroke-width:0.5;" x1="976" x2="1043" y1="408" y2="408"/></g><path d="M332.0156,36 C338.0078,36 343.9999,36 349.992,36 " fill="none" style="stroke:#181818;stroke-width:1.0;stroke-dasharray:7.0,7.0;"/><polygon fill="#181818" points="349.992,36,340.992,32,344.992,36,340.992,40,349.992,36" style="stroke:#181818;stroke-width:1.0;"/><path d="M488.5841,60.1659 C504.47,74.837 526.0369,94.7547 547.6751,114.7382 " fill="none" style="stroke:#181818;stroke-width:1.0;stroke-dasharray:7.0,7.0;"/><polygon fill="#181818" points="547.6751,114.7382,543.7772,105.6935,544.0019,111.3459,538.3495,111.5706,547.6751,114.7382" style="stroke:#181818;stroke-width:1.0;"/><text fill="#000000" font-family="sans-serif" font-size="13" lengthAdjust="spacing" textLength="67" x="528.5" y="93.0283">repositories</text><path d="M633.5,275.0329 C633.5,300.476 633.5,327.6607 633.5,349.3101 " fill="none" style="stroke:#181818;stroke-width:1.0;"/><polygon fill="#181818" points="633.5,349.3101,637.5,340.3101,633.5,344.3101,629.5,340.3101,633.5,349.3101" style="stroke:#181818;stroke-width:1.0;"/><text fill="#000000" font-family="sans-serif" font-size="13" lengthAdjust="spacing" textLength="7" x="625.5" y="345.3385">1</text><path d="M740.3689,216.6213 C827.0217,235.4253 951.1282,267.1437 1053.5,312 C1076.6888,322.1606 1100.6361,336.041 1121.4005,349.3338 " fill="none" style="stroke:#181818;stroke-width:1.0;"/><polygon fill="#181818" points="1121.4005,349.3338,1115.9773,341.1126,1117.1895,346.638,1111.664,347.8502,1121.4005,349.3338" style="stroke:#181818;stroke-width:1.0;"/><text fill="#000000" font-family="sans-serif" font-size="13" lengthAdjust="spacing" textLength="7" x="1113.4005" y="345.3621">1</text><path d="M614.6604,434.6723 C602.6745,461.1847 586.8556,496.1755 572.9943,526.836 " fill="none" style="stroke:#181818;stroke-width:1.0;"/><polygon fill="#181818" points="572.9943,526.836,580.3466,520.2829,575.054,522.28,573.057,516.9874,572.9943,526.836" style="stroke:#181818;stroke-width:1.0;"/><text fill="#000000" font-family="sans-serif" font-size="13" lengthAdjust="spacing" textLength="49" x="588.5" y="505.0283">contains</text><path d="M1180.5,434.6723 C1180.5,472.9292 1180.5,528.8398 1180.5,563.9197 " fill="none" style="stroke:#181818;stroke-width:1.0;"/><polygon fill="#181818" points="1180.5,563.9197,1184.5,554.9197,1180.5,558.9197,1176.5,554.9197,1180.5,563.9197" style="stroke:#181818;stroke-width:1.0;"/><text fill="#000000" font-family="sans-serif" font-size="13" lengthAdjust="spacing" textLength="49" x="1181.5" y="505.0283">contains</text><path d="M455.8273,663.5478 C430.4117,682.8448 402.6991,703.8858 377.7127,722.857 " fill="none" style="stroke:#181818;stroke-width:1.0;"/><polygon fill="#181818" points="377.7127,722.857,387.2995,720.6004,381.6949,719.8335,382.4618,714.2289,377.7127,722.857" style="stroke:#181818;stroke-width:1.0;"/><text fill="#000000" font-family="sans-serif" font-size="13" lengthAdjust="spacing" textLength="47" x="420.5" y="701.0283">refers to</text><text fill="#000000" font-family="sans-serif" font-size="13" lengthAdjust="spacing" textLength="7" x="369.7127" y="718.8854">1</text><text fill="#000000" font-family="sans-serif" font-size="13" lengthAdjust="spacing" textLength="5" x="449.8273" y="659.5761">*</text><path d="M532.6279,668.253 C519.9187,768.174 497.0321,948.1095 487.6667,1021.741 " fill="none" style="stroke:#181818;stroke-width:1.0;"/><polygon fill="#181818" points="487.6667,1021.741,492.7703,1013.3177,488.2976,1016.781,484.8343,1012.3082,487.6667,1021.741" style="stroke:#181818;stroke-width:1.0;"/><text fill="#000000" font-family="sans-serif" font-size="13" lengthAdjust="spacing" textLength="7" x="475.6667" y="1017.7693">1</text><text fill="#000000" font-family="sans-serif" font-size="13" lengthAdjust="spacing" textLength="7" x="524.6279" y="683.2813">1</text><path d="M191.7693,816.2023 C165.2106,827.7193 138.3908,843.0108 117.5,863 C40.8297,936.3616 -18.3213,1000.6807 40.5,1089 C183.5713,1303.8196 518.0721,1360.8791 666.4223,1375.812 " fill="none" style="stroke:#181818;stroke-width:1.0;"/><polygon fill="none" points="666.4223,1375.812,660.8531,1371.2312,654.4826,1374.6102,660.0518,1379.191,666.4223,1375.812" style="stroke:#181818;stroke-width:1.0;"/><text fill="#000000" font-family="sans-serif" font-size="13" lengthAdjust="spacing" textLength="7" x="658.4223" y="1371.8403">1</text><text fill="#000000" font-family="sans-serif" font-size="13" lengthAdjust="spacing" textLength="7" x="183.7693" y="812.2306">1</text><path d="M308.7486,845.0205 C323.7657,932.3048 350.4174,1084.4504 354.5,1089 C435.4499,1179.2098 583.8663,1199.9415 670.8793,1203.9511 " fill="none" style="stroke:#181818;stroke-width:1.0;"/><polygon fill="#181818" points="670.8793,1203.9511,662.073,1199.541,665.8846,1203.7209,661.7047,1207.5325,670.8793,1203.9511" style="stroke:#181818;stroke-width:1.0;"/><text fill="#000000" font-family="sans-serif" font-size="13" lengthAdjust="spacing" textLength="67" x="355.5" y="1061.0283">listed under</text><text fill="#000000" font-family="sans-serif" font-size="13" lengthAdjust="spacing" textLength="7" x="662.8793" y="1199.9794">1</text><text fill="#000000" font-family="sans-serif" font-size="13" lengthAdjust="spacing" textLength="5" x="302.7486" y="860.0488">*</text><path d="M288.234,845.1456 C278.9133,899.7522 265.5187,978.2274 258.0573,1021.9417 " fill="none" style="stroke:#181818;stroke-width:1.0;"/><polygon fill="#181818" points="258.0573,1021.9417,263.5145,1013.743,258.8985,1017.013,255.6286,1012.397,258.0573,1021.9417" style="stroke:#181818;stroke-width:1.0;"/><text fill="#000000" font-family="sans-serif" font-size="13" lengthAdjust="spacing" textLength="21" x="285.5" y="939.0283">has</text><text fill="#000000" font-family="sans-serif" font-size="13" lengthAdjust="spacing" textLength="29" x="228.0573" y="1017.97">1..30</text><text fill="#000000" font-family="sans-serif" font-size="13" lengthAdjust="spacing" textLength="7" x="280.234" y="860.1739">1</text><path d="M196.9354,845.1489 C190.9641,850.7477 185.4037,856.703 180.5,863 C143.1691,910.9381 125.7264,981.2216 118.3194,1021.9706 " fill="none" style="stroke:#181818;stroke-width:1.0;"/><polygon fill="#181818" points="118.3194,1021.9706,123.8645,1013.8311,119.2136,1017.0512,115.9935,1012.4003,118.3194,1021.9706" style="stroke:#181818;stroke-width:1.0;"/><text fill="#000000" font-family="sans-serif" font-size="13" lengthAdjust="spacing" textLength="74" x="181.5" y="939.0283">cataloged as</text><text fill="#000000" font-family="sans-serif" font-size="13" lengthAdjust="spacing" textLength="7" x="110.3194" y="1017.9989">1</text><text fill="#000000" font-family="sans-serif" font-size="13" lengthAdjust="spacing" textLength="5" x="190.9354" y="860.1772">*</text><path d="M346.3286,845.064 C350.8524,851.0701 355.3097,857.1201 359.5,863 C398.2324,917.3499 439.6979,983.1171 463.5186,1021.7256 " fill="none" style="stroke:#181818;stroke-width:1.0;"/><polygon fill="#181818" points="463.5186,1021.7256,462.1971,1011.9658,460.8932,1017.4704,455.3886,1016.1665,463.5186,1021.7256" style="stroke:#181818;stroke-width:1.0;"/><text fill="#000000" font-family="sans-serif" font-size="13" lengthAdjust="spacing" textLength="32" x="452.5" y="939.0283">has a</text><text fill="#000000" font-family="sans-serif" font-size="13" lengthAdjust="spacing" textLength="7" x="455.5186" y="1017.754">1</text><text fill="#000000" font-family="sans-serif" font-size="13" lengthAdjust="spacing" textLength="7" x="338.3286" y="860.0923">1</text><path d="M1255.7576,1004.4219 C1227.3597,1042.9839 1189.0375,1090.1634 1148.5,1126 C1042.7072,1219.5247 898.6695,1300.5523 812.7763,1344.9203 " fill="none" style="stroke:#181818;stroke-width:1.0;"/><polygon fill="#181818" points="812.7763,1344.9203,822.6083,1344.3437,817.2187,1342.6256,818.9368,1337.236,812.7763,1344.9203" style="stroke:#181818;stroke-width:1.0;"/><text fill="#000000" font-family="sans-serif" font-size="13" lengthAdjust="spacing" textLength="39" x="1168.5" y="1122.0283">has an</text><path d="M739.5,1266.2251 C739.5,1283.9227 739.5,1303.2744 739.5,1320.9605 " fill="none" style="stroke:#181818;stroke-width:1.0;"/><polygon fill="#181818" points="739.5,1320.9605,743.5,1311.9605,739.5,1315.9605,735.5,1311.9605,739.5,1320.9605" style="stroke:#181818;stroke-width:1.0;"/><text fill="#000000" font-family="sans-serif" font-size="13" lengthAdjust="spacing" textLength="39" x="740.5" y="1299.0283">has an</text><text fill="#000000" font-family="sans-serif" font-size="13" lengthAdjust="spacing" textLength="7" x="731.5" y="1316.9888">1</text><text fill="#000000" font-family="sans-serif" font-size="13" lengthAdjust="spacing" textLength="7" x="731.5" y="1281.2534">1</text><path d="M423.3655,60.1659 C385.7564,81.874 328.247,115.0688 279.9134,142.9673 " fill="none" style="stroke:#181818;stroke-width:1.0;stroke-dasharray:7.0,7.0;"/><polygon fill="#181818" points="279.9134,142.9673,289.7077,141.9324,284.2438,140.4677,285.7085,135.0038,279.9134,142.9673" style="stroke:#181818;stroke-width:1.0;"/><path d="M127.5756,247.2612 C109.4872,265.5595 92.1173,287.7206 82.5,312 C56.3118,378.1133 39.2969,415.5174 82.5,472 C127.6153,530.9826 335.9388,568.544 455.845,585.6672 " fill="none" style="stroke:#181818;stroke-width:1.0;stroke-dasharray:7.0,7.0;"/><polygon fill="#181818" points="455.845,585.6672,447.5009,580.435,450.8952,584.9603,446.3699,588.3547,455.845,585.6672" style="stroke:#181818;stroke-width:1.0;"/><path d="M191.5,247.234 C191.5,266.9813 191.5,290.025 191.5,311.8046 " fill="none" style="stroke:#181818;stroke-width:1.0;stroke-dasharray:7.0,7.0;"/><polygon fill="#181818" points="191.5,311.8046,195.5,302.8046,191.5,306.8046,187.5,302.8046,191.5,311.8046" style="stroke:#181818;stroke-width:1.0;"/><path d="M1002.0286,416.2982 C995.2001,434.0095 983.407,457.6928 965.5,472 C866.7531,550.896 719.4993,579.8075 627.0696,590.3942 " fill="none" style="stroke:#181818;stroke-width:1.0;"/><text fill="#000000" font-family="sans-serif" font-size="13" lengthAdjust="spacing" textLength="82" x="937.5" y="505.0283">intends to see</text><text fill="#000000" font-family="sans-serif" font-size="13" lengthAdjust="spacing" textLength="5" x="628.0696" y="586.4225">*</text><text fill="#000000" font-family="sans-serif" font-size="13" lengthAdjust="spacing" textLength="7" x="994.0286" y="431.3265">1</text><path d="M1020.2033,416.1985 C1028.2588,432.5379 1040.1681,454.5265 1053.5,472 C1079.6268,506.2432 1114.9908,540.1357 1141.7669,563.8915 " fill="none" style="stroke:#181818;stroke-width:1.0;"/><polygon fill="#FFFFFF" points="1141.7669,563.8915,1133.7803,548.7847,1125.8164,557.7611,1141.7669,563.8915" style="stroke:#181818;stroke-width:1.0;"/><path d="M1172.7618,631.1025 C1167.0497,656.1234 1159.4407,691.5897 1154.5,723 C1148.1453,763.4002 1141.5346,1057.4602 1115.5,1089 C1110.4619,1095.1035 915.303,1152.7434 808.1953,1184.0276 " fill="none" style="stroke:#181818;stroke-width:1.0;"/><polygon fill="#181818" points="808.1953,1184.0276,817.9558,1185.3438,812.9947,1182.6257,815.7128,1177.6647,808.1953,1184.0276" style="stroke:#181818;stroke-width:1.0;"/><text fill="#000000" font-family="sans-serif" font-size="13" lengthAdjust="spacing" textLength="63" x="1145.5" y="939.0283">works on a</text><text fill="#000000" font-family="sans-serif" font-size="13" lengthAdjust="spacing" textLength="7" x="809.1953" y="1180.0559">1</text><text fill="#000000" font-family="sans-serif" font-size="13" lengthAdjust="spacing" textLength="5" x="1166.7618" y="646.1309">*</text><path d="M1188.618,631.0602 C1196.2783,661.7848 1207.7984,707.9904 1216.1227,741.378 " fill="none" style="stroke:#181818;stroke-width:1.0;"/><polygon fill="#181818" points="1216.1227,741.378,1217.8266,731.6777,1214.9131,736.5266,1210.0643,733.613,1216.1227,741.378" style="stroke:#181818;stroke-width:1.0;"/><text fill="#000000" font-family="sans-serif" font-size="13" lengthAdjust="spacing" textLength="21" x="1206.5" y="701.0283">has</text><text fill="#000000" font-family="sans-serif" font-size="13" lengthAdjust="spacing" textLength="15" x="1200.1227" y="737.4064">1..</text><text fill="#000000" font-family="sans-serif" font-size="13" lengthAdjust="spacing" textLength="7" x="1180.618" y="646.0885">1</text><path d="M1225.4169,631.1376 C1252.3433,653.5821 1284.232,685.957 1299.5,723 C1317.66,767.0596 1318.2818,820.8858 1314.5594,862.9458 " fill="none" style="stroke:#181818;stroke-width:1.0;"/><polygon fill="#FFFFFF" points="1314.5594,862.9458,1321.9465,847.5371,1309.9933,846.4792,1314.5594,862.9458" style="stroke:#181818;stroke-width:1.0;"/><path d="M596.3183,668.2515 C618.453,696.416 642.9295,727.5602 660.7909,750.2874 " fill="none" style="stroke:#181818;stroke-width:1.0;"/><polygon fill="#181818" points="660.7909,750.2874,658.3746,740.7395,657.7013,746.3562,652.0847,745.6829,660.7909,750.2874" style="stroke:#181818;stroke-width:1.0;"/><text fill="#000000" font-family="sans-serif" font-size="13" lengthAdjust="spacing" textLength="78" x="623.5" y="701.0283">makes use of</text><text fill="#000000" font-family="sans-serif" font-size="13" lengthAdjust="spacing" textLength="7" x="652.7909" y="746.3157">1</text><text fill="#000000" font-family="sans-serif" font-size="13" lengthAdjust="spacing" textLength="5" x="590.3183" y="683.2799">*</text><path d="M686.5,817.508 C686.5,869.3071 686.5,970.0051 686.5,1021.8767 " fill="none" style="stroke:#181818;stroke-width:1.0;stroke-dasharray:7.0,7.0;"/><polygon fill="#FFFFFF" points="686.5,817.508,680.5,833.508,692.5,833.508,686.5,817.508" style="stroke:#181818;stroke-width:1.0;"/><text fill="#000000" font-family="sans-serif" font-size="13" lengthAdjust="spacing" textLength="67" x="687.5" y="939.0283">implements</text><path d="M720.9983,817.508 C775.9688,869.3071 882.832,970.0051 937.8794,1021.8767 " fill="none" style="stroke:#181818;stroke-width:1.0;stroke-dasharray:7.0,7.0;"/><polygon fill="#FFFFFF" points="720.9983,817.508,728.5281,832.8475,736.7577,824.1141,720.9983,817.508" style="stroke:#181818;stroke-width:1.0;"/><text fill="#000000" font-family="sans-serif" font-size="13" lengthAdjust="spacing" textLength="67" x="918.5" y="939.0283">implements</text><!--SRC=[dLPBR-Cs4BxpLqnzSTpKHXP5ByR2WFCu16YtGPpspaWJcOX4iYJLLElDVzyX9KgKhMo2-c2RCzzydE4yoBbz5b9pmokeb5JPtgWAmPaQsQ3HF7lc1UvSKo8Op1oNHPa2x9xdwaN8ehMS3vfII7IDHj2gRFo2JUYKSIeraYf7Ynf-ks0_QSEBYaF96rKxi1NIvfmbB5d9hTqwPyHZxV0sKt8dlY9SC3OlySc1Ks14iNUG2- -wK9AnO0E_2-ikbIAcuXx_gT4w-zVjWR7N7m2kb7H6bIMQmu2xHwsiSCe8j71Wov7WRC7EeK1tAosvdk7P0jOZGAlUIgbgKbSeNTmicevrdMNZjLvPkpt9HSPzR2VgcqgNga4S54c0VmiITRiD01-13_rpgjx0lycgSpe5sCjcMv0Zj_8EZL3vsOvIGXKnCWidsk9-WMlky45GkJrY8MIoHfal1YTF8o07WtzHim7i_jbHp9VDJSL56Jr1lrYmD-AFfD6B3JZwtfNAiML7a9M27F_2AsJBKlM2kxsI-AMk7j4SGSdbic5B8HsySBlDCjGEyzI3EwCq6kT3obNzIFsbZSYmNt63l5_aeYsX1tL5v0OxZsb_fmh3zNu3klzlMRiFROxcYMS8E-epycrR5bHtRbyTA8cMP6Vl9DkhHyTsMJ-IEvxkmE3y8nHsGNtHKdGSr0uKDrNi_wHfMMAo3koAbrGst41EeWInpNE3rj8ECJMMJexQffKFuaou9WLv6e1Uy5NeAnfB4wbxe16Mq5-ZpOpGxQ1vZTWXBOU-HceZ1hOT5NQWkQLy5MX0v3sGfg4ePEXlQisqccaP2b4d9SXEM-V0mi7UgvBAciPN6eON-ewVthSFPGWRZLLoYABperl9q1oHIvE1fhp6vZZnDPev_b_qVYYHj0x-u5hxcNjEy_pwuS-pL3SgaKM0tD10TCq8HLOZ8AtR2JaQOfxxtI9yOuAGBHrBB0k_d-x-isKir5QAJsWCvbuOP-q7nmwyCtUkahdJVbwxtydR3bQR7zzoatQ36bP4a5vcQteV95SROwExSRdSmEpJRFhQcSR2r0KsJH1CKjMQ7WEE2sdPAKa0H_4077FFVfv5Fs9QVO2KFKj5TeJz5B4mYyaakcZNgbK8ASwUg8DsdoxWC0dMz3goT5T0BNFAme3iTrcjVhsOfODb3Njkamq7tqUZQWtqKk2bAeYSMzWSUTWQn0029t0sdq_HjiMs1X0MB9RqdYlerJLlnVCvuRvjkdb1VeNVODl5tv6JZeMO4mTE4EzNuUcq6EUdbPr0FuAXfcKiF5fQ5qE-HeK6_fQLkQyAEWdiqEq1z5N6-Z9C3h7BzeiopnReVFW0Ib8z2sEwpN3KT-pnVASADvJJqQs_Xee_Kt_LbXxUJ_xiZm3m-TjgbTpn51pj61wVzYtqw3OV6tIVxm00]--></g></svg>