<?xml version="1.0" encoding="us-ascii" standalone="no"?><svg xmlns="http://www.w3.org/2000/svg" xmlns:xlink="http://www.w3.org/1999/xlink" contentStyleType="text/css" height="639px" preserveAspectRatio="none" style="width:1363px;height:639px;background:#FFFFFF;" version="1.1" viewBox="0 0 1363 639" width="1363px" zoomAndPan="magnify"><defs/><g><rect fill="#FFFFFF" height="454.0352" style="stroke:#181818;stroke-width:1.0;" width="10" x="21.5" y="93.6211"/><rect fill="#FFFFFF" height="74.9121" style="stroke:#181818;stroke-width:1.0;" width="10" x="786.5" y="116.9121"/><rect fill="#FFFFFF" height="31.291" style="stroke:#181818;stroke-width:1.0;" width="10" x="786.5" y="223.1152"/><rect fill="#FFFFFF" height="252.959" style="stroke:#181818;stroke-width:1.0;" width="10" x="786.5" y="285.6973"/><rect fill="#FFFFFF" height="79.543" style="stroke:#181818;stroke-width:1.0;" width="10" x="1235.5" y="316.9883"/><rect fill="#FFFFFF" height="79.543" style="stroke:#181818;stroke-width:1.0;" width="10" x="1235.5" y="427.8223"/><line style="stroke:#181818;stroke-width:0.5;stroke-dasharray:5.0,5.0;" x1="26" x2="26" y1="83.6211" y2="556.6563"/><line style="stroke:#181818;stroke-width:0.5;stroke-dasharray:5.0,5.0;" x1="791" x2="791" y1="83.6211" y2="556.6563"/><line style="stroke:#181818;stroke-width:0.5;stroke-dasharray:5.0,5.0;" x1="1240" x2="1240" y1="156.7227" y2="556.6563"/><text fill="#000000" font-family="sans-serif" font-size="14" lengthAdjust="spacing" textLength="37" x="5" y="80.1074">Agent</text><ellipse cx="26.5" cy="13.5" fill="#E3E3E3" rx="8" ry="8" style="stroke:#181818;stroke-width:0.5;"/><path d="M26.5,21.5 L26.5,48.5 M13.5,29.5 L39.5,29.5 M26.5,48.5 L13.5,63.5 M26.5,48.5 L39.5,63.5 " fill="none" style="stroke:#181818;stroke-width:0.5;"/><text fill="#000000" font-family="sans-serif" font-size="14" lengthAdjust="spacing" textLength="37" x="5" y="570.7637">Agent</text><ellipse cx="26.5" cy="582.7773" fill="#E3E3E3" rx="8" ry="8" style="stroke:#181818;stroke-width:0.5;"/><path d="M26.5,590.7773 L26.5,617.7773 M13.5,598.7773 L39.5,598.7773 M26.5,617.7773 L13.5,632.7773 M26.5,617.7773 L39.5,632.7773 " fill="none" style="stroke:#181818;stroke-width:0.5;"/><rect fill="#E3E3E3" height="32.6211" rx="2.5" ry="2.5" style="stroke:#181818;stroke-width:0.5;" width="163" x="710" y="50"/><text fill="#000000" font-family="sans-serif" font-size="14" lengthAdjust="spacing" textLength="149" x="717" y="72.1074">:ListBookingRequestsUI</text><rect fill="#E3E3E3" height="32.6211" rx="2.5" ry="2.5" style="stroke:#181818;stroke-width:0.5;" width="163" x="710" y="555.6563"/><text fill="#000000" font-family="sans-serif" font-size="14" lengthAdjust="spacing" textLength="149" x="717" y="577.7637">:ListBookingRequestsUI</text><rect fill="#E3E3E3" height="32.6211" rx="2.5" ry="2.5" style="stroke:#181818;stroke-width:0.5;" width="213" x="1134" y="555.6563"/><text fill="#000000" font-family="sans-serif" font-size="14" lengthAdjust="spacing" textLength="199" x="1141" y="577.7637">:ListBookingRequestsController</text><rect fill="#FFFFFF" height="454.0352" style="stroke:#181818;stroke-width:1.0;" width="10" x="21.5" y="93.6211"/><rect fill="#FFFFFF" height="74.9121" style="stroke:#181818;stroke-width:1.0;" width="10" x="786.5" y="116.9121"/><rect fill="#FFFFFF" height="31.291" style="stroke:#181818;stroke-width:1.0;" width="10" x="786.5" y="223.1152"/><rect fill="#FFFFFF" height="252.959" style="stroke:#181818;stroke-width:1.0;" width="10" x="786.5" y="285.6973"/><rect fill="#FFFFFF" height="79.543" style="stroke:#181818;stroke-width:1.0;" width="10" x="1235.5" y="316.9883"/><rect fill="#FFFFFF" height="79.543" style="stroke:#181818;stroke-width:1.0;" width="10" x="1235.5" y="427.8223"/><polygon fill="#181818" points="774.5,112.9121,784.5,116.9121,774.5,120.9121,778.5,116.9121" style="stroke:#181818;stroke-width:1.0;"/><line style="stroke:#181818;stroke-width:1.0;" x1="31.5" x2="780.5" y1="116.9121" y2="116.9121"/><text fill="#000000" font-family="sans-serif" font-size="13" font-weight="bold" lengthAdjust="spacing" textLength="7" x="38.5" y="111.6494">1</text><text fill="#000000" font-family="sans-serif" font-size="13" lengthAdjust="spacing" textLength="319" x="49.5" y="111.6494">asks for the list of all booking requests made for myself</text><polygon fill="#181818" points="1122,144.2031,1132,148.2031,1122,152.2031,1126,148.2031" style="stroke:#181818;stroke-width:1.0;"/><line style="stroke:#181818;stroke-width:1.0;" x1="796.5" x2="1128" y1="148.2031" y2="148.2031"/><text fill="#000000" font-family="sans-serif" font-size="13" font-weight="bold" lengthAdjust="spacing" textLength="7" x="803.5" y="142.9404">2</text><text fill="#000000" font-family="sans-serif" font-size="13" lengthAdjust="spacing" textLength="36" x="814.5" y="142.9404">create</text><rect fill="#E3E3E3" height="32.6211" rx="2.5" ry="2.5" style="stroke:#181818;stroke-width:0.5;" width="213" x="1134" y="124.9121"/><text fill="#000000" font-family="sans-serif" font-size="14" lengthAdjust="spacing" textLength="199" x="1141" y="147.0195">:ListBookingRequestsController</text><polygon fill="#181818" points="42.5,187.8242,32.5,191.8242,42.5,195.8242,38.5,191.8242" style="stroke:#181818;stroke-width:1.0;"/><line style="stroke:#181818;stroke-width:1.0;stroke-dasharray:2.0,2.0;" x1="36.5" x2="790.5" y1="191.8242" y2="191.8242"/><text fill="#000000" font-family="sans-serif" font-size="13" font-weight="bold" lengthAdjust="spacing" textLength="7" x="48.5" y="186.5615">3</text><text fill="#000000" font-family="sans-serif" font-size="13" lengthAdjust="spacing" textLength="273" x="59.5" y="186.5615">asks for the start date to view booking requests</text><polygon fill="#181818" points="774.5,219.1152,784.5,223.1152,774.5,227.1152,778.5,223.1152" style="stroke:#181818;stroke-width:1.0;"/><line style="stroke:#181818;stroke-width:1.0;" x1="31.5" x2="780.5" y1="223.1152" y2="223.1152"/><text fill="#000000" font-family="sans-serif" font-size="13" font-weight="bold" lengthAdjust="spacing" textLength="7" x="38.5" y="217.8525">4</text><text fill="#000000" font-family="sans-serif" font-size="13" lengthAdjust="spacing" textLength="123" x="49.5" y="217.8525">selects the start date</text><polygon fill="#181818" points="42.5,250.4063,32.5,254.4063,42.5,258.4063,38.5,254.4063" style="stroke:#181818;stroke-width:1.0;"/><line style="stroke:#181818;stroke-width:1.0;stroke-dasharray:2.0,2.0;" x1="36.5" x2="790.5" y1="254.4063" y2="254.4063"/><text fill="#000000" font-family="sans-serif" font-size="13" font-weight="bold" lengthAdjust="spacing" textLength="7" x="48.5" y="249.1436">5</text><text fill="#000000" font-family="sans-serif" font-size="13" lengthAdjust="spacing" textLength="268" x="59.5" y="249.1436">asks for the end date to view booking requests</text><polygon fill="#181818" points="774.5,281.6973,784.5,285.6973,774.5,289.6973,778.5,285.6973" style="stroke:#181818;stroke-width:1.0;"/><line style="stroke:#181818;stroke-width:1.0;" x1="31.5" x2="780.5" y1="285.6973" y2="285.6973"/><text fill="#000000" font-family="sans-serif" font-size="13" font-weight="bold" lengthAdjust="spacing" textLength="7" x="38.5" y="280.4346">6</text><text fill="#000000" font-family="sans-serif" font-size="13" lengthAdjust="spacing" textLength="118" x="49.5" y="280.4346">selects the end date</text><polygon fill="#181818" points="1223.5,312.9883,1233.5,316.9883,1223.5,320.9883,1227.5,316.9883" style="stroke:#181818;stroke-width:1.0;"/><line style="stroke:#181818;stroke-width:1.0;" x1="796.5" x2="1229.5" y1="316.9883" y2="316.9883"/><text fill="#000000" font-family="sans-serif" font-size="13" font-weight="bold" lengthAdjust="spacing" textLength="7" x="803.5" y="311.7256">7</text><text fill="#000000" font-family="sans-serif" font-size="13" lengthAdjust="spacing" textLength="137" x="814.5" y="311.7256">getAgentFromSession()</text><rect fill="none" height="43.252" style="stroke:#000000;stroke-width:1.5;" width="219" x="1131" y="324.9883"/><path d="M1131,324.9883 L1193,324.9883 L1193,333.9883 L1183,343.9883 L1131,343.9883 L1131,324.9883 " fill="#EEEEEE" style="stroke:#000000;stroke-width:2.0;"/><text fill="#000000" font-family="sans-serif" font-size="13" font-weight="bold" lengthAdjust="spacing" textLength="17" x="1144" y="341.0166">ref</text><text fill="#000000" font-family="sans-serif" font-size="12" lengthAdjust="spacing" textLength="132" x="1174.5" y="360.9375">get Agent From Session</text><polygon fill="#181818" points="807.5,392.5313,797.5,396.5313,807.5,400.5313,803.5,396.5313" style="stroke:#181818;stroke-width:1.0;"/><line style="stroke:#181818;stroke-width:1.0;stroke-dasharray:2.0,2.0;" x1="801.5" x2="1239.5" y1="396.5313" y2="396.5313"/><text fill="#000000" font-family="sans-serif" font-size="13" font-weight="bold" lengthAdjust="spacing" textLength="7" x="813.5" y="391.2686">8</text><text fill="#000000" font-family="sans-serif" font-size="13" lengthAdjust="spacing" textLength="32" x="824.5" y="391.2686">agent</text><polygon fill="#181818" points="1223.5,423.8223,1233.5,427.8223,1223.5,431.8223,1227.5,427.8223" style="stroke:#181818;stroke-width:1.0;"/><line style="stroke:#181818;stroke-width:1.0;" x1="796.5" x2="1229.5" y1="427.8223" y2="427.8223"/><text fill="#000000" font-family="sans-serif" font-size="13" font-weight="bold" lengthAdjust="spacing" textLength="7" x="803.5" y="422.5596">9</text><text fill="#000000" font-family="sans-serif" font-size="13" lengthAdjust="spacing" textLength="409" x="814.5" y="422.5596">getVisitRequestsByAgent(String agent,DateTime begin,DateTime end )</text><rect fill="none" height="43.252" style="stroke:#000000;stroke-width:1.5;" width="226" x="1131" y="435.8223"/><path d="M1131,435.8223 L1193,435.8223 L1193,444.8223 L1183,454.8223 L1131,454.8223 L1131,435.8223 " fill="#EEEEEE" style="stroke:#000000;stroke-width:2.0;"/><text fill="#000000" font-family="sans-serif" font-size="13" font-weight="bold" lengthAdjust="spacing" textLength="17" x="1144" y="451.8506">ref</text><text fill="#000000" font-family="sans-serif" font-size="12" lengthAdjust="spacing" textLength="218" x="1135" y="471.7715">get Visit Requests List Ascending Order</text><polygon fill="#181818" points="807.5,503.3652,797.5,507.3652,807.5,511.3652,803.5,507.3652" style="stroke:#181818;stroke-width:1.0;"/><line style="stroke:#181818;stroke-width:1.0;stroke-dasharray:2.0,2.0;" x1="801.5" x2="1239.5" y1="507.3652" y2="507.3652"/><text fill="#000000" font-family="sans-serif" font-size="13" font-weight="bold" lengthAdjust="spacing" textLength="14" x="813.5" y="502.1025">10</text><text fill="#000000" font-family="sans-serif" font-size="13" lengthAdjust="spacing" textLength="162" x="831.5" y="502.1025">visitRequestsDTOListSorted</text><polygon fill="#181818" points="42.5,534.6563,32.5,538.6563,42.5,542.6563,38.5,538.6563" style="stroke:#181818;stroke-width:1.0;"/><line style="stroke:#181818;stroke-width:1.0;stroke-dasharray:2.0,2.0;" x1="36.5" x2="790.5" y1="538.6563" y2="538.6563"/><text fill="#000000" font-family="sans-serif" font-size="13" font-weight="bold" lengthAdjust="spacing" textLength="14" x="48.5" y="533.3936">11</text><text fill="#000000" font-family="sans-serif" font-size="13" lengthAdjust="spacing" textLength="713" x="66.5" y="533.3936">show the list of booking requests based on the selected date and sorted in ascending order and displays operation success</text><!--SRC=[ZLFBJkim4DtxAqPT0Rhy00ia7heI4X8IBUpTP99QTUnSpwHL_vwndP2afULcvTWpvs6VeQrnhGwwWSOxNso2Rn0uTAZe-wJLnLRNkEI3HGXOi7QrdHRGHfT-RrmDbRQ4IYdTiNTTiyOWwu9zWCL3ZOuNe0dIIegacKrXMkqO5dUlXlZHUm6jt_5VXyJqyPBgFrv-BttoZeEt5aDgULgzlwhP1_A94hFJZ8C2o0kulHSEk9F6BK4bOdc3O8K4V0NQMbXdCZ6VsQ3H9QRAva1egpcww4qRWYd8KShDZQ0N0ULqL9CBf2ABEA8d5ijGHZpsi3EuFr7He-Iln1d_U3QtA6hb0Uc8OgoUWupxbwIYA_zNw5cL5sGEy5Ex5-vQkcla1FTNqhn48kFTrRKwRiqPoPi1A_0x37apxmbAhohYG0_K7qPHqZI09kBRf5uk9wNhrF6KS28uwVqqP7W8y-CXyLujESHhJ7X_dWLYPMGwrrWRD_v69UVCgNFcehT42GCdnA621oe4BvA-XLA6T-PrbhU9OxdntLJ-y-ejWYrzO2pFXNGseJz5Z3P-Fnl4ao5SQy8IlCjXJed1FebQ95FY1-CahOCh7rsbqz9GQ_M1mBSODClB0dL58O-iVewgKby0]--></g></svg>