<?xml version="1.0" encoding="us-ascii" standalone="no"?><svg xmlns="http://www.w3.org/2000/svg" xmlns:xlink="http://www.w3.org/1999/xlink" contentStyleType="text/css" height="1329px" preserveAspectRatio="none" style="width:2410px;height:1329px;background:#FFFFFF;" version="1.1" viewBox="0 0 2410 1329" width="2410px" zoomAndPan="magnify"><defs/><g><rect fill="#FFFFFF" height="1165.1484" style="stroke:#181818;stroke-width:1.0;" width="10" x="439" y="90.5332"/><rect fill="#FFFFFF" height="31.291" style="stroke:#181818;stroke-width:1.0;" width="10" x="604" y="121.8242"/><rect fill="#FFFFFF" height="31.291" style="stroke:#181818;stroke-width:1.0;" width="10" x="1006" y="184.4063"/><rect fill="#FFFFFF" height="320.959" style="stroke:#181818;stroke-width:1.0;" width="10" x="1006" y="246.9883"/><rect fill="#FFFFFF" height="42.291" style="stroke:#181818;stroke-width:1.0;" width="10" x="1011" y="375.1523"/><rect fill="#FFFFFF" height="42.291" style="stroke:#181818;stroke-width:1.0;" width="10" x="1011" y="480.3652"/><rect fill="#FFFFFF" height="625.1523" style="stroke:#181818;stroke-width:1.0;" width="10" x="1181" y="599.2383"/><rect fill="#FFFFFF" height="36.291" style="stroke:#181818;stroke-width:1.0;" width="10" x="1186" y="1076.1875"/><rect fill="#FFFFFF" height="30" style="stroke:#181818;stroke-width:1.0;" width="10" x="1733" y="1156.0996"/><rect fill="#FFFFFF" height="30" style="stroke:#181818;stroke-width:1.0;" width="10" x="2082" y="700.4414"/><rect fill="#FFFFFF" height="30" style="stroke:#181818;stroke-width:1.0;" width="10" x="2082" y="761.7324"/><rect fill="#FFFFFF" height="30" style="stroke:#181818;stroke-width:1.0;" width="10" x="2082" y="823.0234"/><rect fill="#FFFFFF" height="30" style="stroke:#181818;stroke-width:1.0;" width="10" x="2082" y="884.3145"/><rect fill="#FFFFFF" height="30" style="stroke:#181818;stroke-width:1.0;" width="10" x="2082" y="945.6055"/><rect fill="#FFFFFF" height="30" style="stroke:#181818;stroke-width:1.0;" width="10" x="2082" y="1006.8965"/><rect fill="#FFFFFF" height="31.291" style="stroke:#181818;stroke-width:1.0;" width="10" x="2339" y="278.2793"/><rect fill="none" height="213.0859" style="stroke:#000000;stroke-width:1.5;" width="268.5" x="917.5" y="324.5703"/><rect fill="none" height="536.2402" style="stroke:#000000;stroke-width:1.5;" width="1178.5" x="1105.5" y="657.8594"/><line style="stroke:#181818;stroke-width:0.5;stroke-dasharray:5.0,5.0;" x1="443.5" x2="443.5" y1="57.2422" y2="1273.6816"/><line style="stroke:#181818;stroke-width:0.5;stroke-dasharray:5.0,5.0;" x1="608.5" x2="608.5" y1="57.2422" y2="1273.6816"/><line style="stroke:#181818;stroke-width:0.5;stroke-dasharray:5.0,5.0;" x1="713.5" x2="713.5" y1="57.2422" y2="1273.6816"/><line style="stroke:#181818;stroke-width:0.5;stroke-dasharray:5.0,5.0;" x1="843.5" x2="843.5" y1="57.2422" y2="1273.6816"/><line style="stroke:#181818;stroke-width:0.5;stroke-dasharray:5.0,5.0;" x1="1010.5" x2="1010.5" y1="57.2422" y2="1273.6816"/><line style="stroke:#181818;stroke-width:0.5;stroke-dasharray:5.0,5.0;" x1="1185.5" x2="1185.5" y1="57.2422" y2="1273.6816"/><line style="stroke:#181818;stroke-width:0.5;stroke-dasharray:5.0,5.0;" x1="1459" x2="1459" y1="1120.998" y2="1273.6816"/><line style="stroke:#181818;stroke-width:0.5;stroke-dasharray:5.0,5.0;" x1="1738" x2="1738" y1="639.0488" y2="1273.6816"/><line style="stroke:#181818;stroke-width:0.5;stroke-dasharray:5.0,5.0;" x1="2087" x2="2087" y1="57.2422" y2="1273.6816"/><line style="stroke:#181818;stroke-width:0.5;stroke-dasharray:5.0,5.0;" x1="2344" x2="2344" y1="57.2422" y2="1273.6816"/><rect fill="#E2E2F0" height="32.6211" rx="2.5" ry="2.5" style="stroke:#181818;stroke-width:0.5;" width="213" x="337.5" y="23.6211"/><text fill="#000000" font-family="sans-serif" font-size="14" lengthAdjust="spacing" textLength="199" x="344.5" y="45.7285">:ListBookingRequestsController</text><rect fill="#E2E2F0" height="32.6211" rx="2.5" ry="2.5" style="stroke:#181818;stroke-width:0.5;" width="213" x="337.5" y="1272.6816"/><text fill="#000000" font-family="sans-serif" font-size="14" lengthAdjust="spacing" textLength="199" x="344.5" y="1294.7891">:ListBookingRequestsController</text><rect fill="#E2E2F0" height="32.6211" rx="2.5" ry="2.5" style="stroke:#181818;stroke-width:0.5;" width="97" x="560.5" y="23.6211"/><text fill="#000000" font-family="sans-serif" font-size="14" lengthAdjust="spacing" textLength="83" x="567.5" y="45.7285">:Repositories</text><rect fill="#E2E2F0" height="32.6211" rx="2.5" ry="2.5" style="stroke:#181818;stroke-width:0.5;" width="97" x="560.5" y="1272.6816"/><text fill="#000000" font-family="sans-serif" font-size="14" lengthAdjust="spacing" textLength="83" x="567.5" y="1294.7891">:Repositories</text><rect fill="#E2E2F0" height="51.2422" rx="2.5" ry="2.5" style="stroke:#181818;stroke-width:0.5;" width="93" x="667.5" y="5"/><text fill="#000000" font-family="sans-serif" font-size="14" lengthAdjust="spacing" textLength="72" x="676" y="27.1074">Repository:</text><text fill="#000000" font-family="sans-serif" font-size="14" lengthAdjust="spacing" textLength="79" x="674.5" y="45.7285">Repositories</text><rect fill="#E2E2F0" height="51.2422" rx="2.5" ry="2.5" style="stroke:#181818;stroke-width:0.5;" width="93" x="667.5" y="1272.6816"/><text fill="#000000" font-family="sans-serif" font-size="14" lengthAdjust="spacing" textLength="72" x="676" y="1294.7891">Repository:</text><text fill="#000000" font-family="sans-serif" font-size="14" lengthAdjust="spacing" textLength="79" x="674.5" y="1313.4102">Repositories</text><rect fill="#E2E2F0" height="51.2422" rx="2.5" ry="2.5" style="stroke:#181818;stroke-width:0.5;" width="147" x="770.5" y="5"/><text fill="#000000" font-family="sans-serif" font-size="14" lengthAdjust="spacing" textLength="133" x="777.5" y="27.1074">employeeRepository:</text><text fill="#000000" font-family="sans-serif" font-size="14" lengthAdjust="spacing" textLength="130" x="779" y="45.7285">EmployeeRepository</text><rect fill="#E2E2F0" height="51.2422" rx="2.5" ry="2.5" style="stroke:#181818;stroke-width:0.5;" width="147" x="770.5" y="1272.6816"/><text fill="#000000" font-family="sans-serif" font-size="14" lengthAdjust="spacing" textLength="133" x="777.5" y="1294.7891">employeeRepository:</text><text fill="#000000" font-family="sans-serif" font-size="14" lengthAdjust="spacing" textLength="130" x="779" y="1313.4102">EmployeeRepository</text><rect fill="#E2E2F0" height="51.2422" rx="2.5" ry="2.5" style="stroke:#181818;stroke-width:0.5;" width="167" x="927.5" y="5"/><text fill="#000000" font-family="sans-serif" font-size="14" lengthAdjust="spacing" textLength="149" x="938.5" y="27.1074">visitRequestRepository:</text><text fill="#000000" font-family="sans-serif" font-size="14" lengthAdjust="spacing" textLength="147" x="937.5" y="45.7285">VisitRequestRepository</text><rect fill="#E2E2F0" height="51.2422" rx="2.5" ry="2.5" style="stroke:#181818;stroke-width:0.5;" width="167" x="927.5" y="1272.6816"/><text fill="#000000" font-family="sans-serif" font-size="14" lengthAdjust="spacing" textLength="149" x="938.5" y="1294.7891">visitRequestRepository:</text><text fill="#000000" font-family="sans-serif" font-size="14" lengthAdjust="spacing" textLength="147" x="937.5" y="1313.4102">VisitRequestRepository</text><rect fill="#E2E2F0" height="32.6211" rx="2.5" ry="2.5" style="stroke:#181818;stroke-width:0.5;" width="141" x="1115.5" y="23.6211"/><text fill="#000000" font-family="sans-serif" font-size="14" lengthAdjust="spacing" textLength="127" x="1122.5" y="45.7285">VisitRequestMapper</text><rect fill="#E2E2F0" height="32.6211" rx="2.5" ry="2.5" style="stroke:#181818;stroke-width:0.5;" width="141" x="1115.5" y="1272.6816"/><text fill="#000000" font-family="sans-serif" font-size="14" lengthAdjust="spacing" textLength="127" x="1122.5" y="1294.7891">VisitRequestMapper</text><rect fill="#E2E2F0" height="32.6211" rx="2.5" ry="2.5" style="stroke:#181818;stroke-width:0.5;" width="234" x="1342" y="1272.6816"/><text fill="#000000" font-family="sans-serif" font-size="14" lengthAdjust="spacing" textLength="220" x="1349" y="1294.7891">visitRequestDTO:VisitRequestDTO</text><rect fill="#E2E2F0" height="32.6211" rx="2.5" ry="2.5" style="stroke:#181818;stroke-width:0.5;" width="304" x="1586" y="1272.6816"/><text fill="#000000" font-family="sans-serif" font-size="14" lengthAdjust="spacing" textLength="290" x="1593" y="1294.7891">ListVisitRequestDTO : List&lt;VisitRequestDTO&gt;</text><rect fill="#E2E2F0" height="32.6211" rx="2.5" ry="2.5" style="stroke:#181818;stroke-width:0.5;" width="374" x="1900" y="23.6211"/><text fill="#000000" font-family="sans-serif" font-size="14" lengthAdjust="spacing" textLength="360" x="1907" y="45.7285">visitRequestsByAgentInPeriodSorted : List&lt;VisitRequest&gt;</text><rect fill="#E2E2F0" height="32.6211" rx="2.5" ry="2.5" style="stroke:#181818;stroke-width:0.5;" width="374" x="1900" y="1272.6816"/><text fill="#000000" font-family="sans-serif" font-size="14" lengthAdjust="spacing" textLength="360" x="1907" y="1294.7891">visitRequestsByAgentInPeriodSorted : List&lt;VisitRequest&gt;</text><rect fill="#E2E2F0" height="32.6211" rx="2.5" ry="2.5" style="stroke:#181818;stroke-width:0.5;" width="120" x="2284" y="23.6211"/><text fill="#000000" font-family="sans-serif" font-size="14" lengthAdjust="spacing" textLength="106" x="2291" y="45.7285">ConfigProperties</text><rect fill="#E2E2F0" height="32.6211" rx="2.5" ry="2.5" style="stroke:#181818;stroke-width:0.5;" width="120" x="2284" y="1272.6816"/><text fill="#000000" font-family="sans-serif" font-size="14" lengthAdjust="spacing" textLength="106" x="2291" y="1294.7891">ConfigProperties</text><rect fill="#FFFFFF" height="1165.1484" style="stroke:#181818;stroke-width:1.0;" width="10" x="439" y="90.5332"/><rect fill="#FFFFFF" height="31.291" style="stroke:#181818;stroke-width:1.0;" width="10" x="604" y="121.8242"/><rect fill="#FFFFFF" height="31.291" style="stroke:#181818;stroke-width:1.0;" width="10" x="1006" y="184.4063"/><rect fill="#FFFFFF" height="320.959" style="stroke:#181818;stroke-width:1.0;" width="10" x="1006" y="246.9883"/><rect fill="#FFFFFF" height="42.291" style="stroke:#181818;stroke-width:1.0;" width="10" x="1011" y="375.1523"/><rect fill="#FFFFFF" height="42.291" style="stroke:#181818;stroke-width:1.0;" width="10" x="1011" y="480.3652"/><rect fill="#FFFFFF" height="625.1523" style="stroke:#181818;stroke-width:1.0;" width="10" x="1181" y="599.2383"/><rect fill="#FFFFFF" height="36.291" style="stroke:#181818;stroke-width:1.0;" width="10" x="1186" y="1076.1875"/><rect fill="#FFFFFF" height="30" style="stroke:#181818;stroke-width:1.0;" width="10" x="1733" y="1156.0996"/><rect fill="#FFFFFF" height="30" style="stroke:#181818;stroke-width:1.0;" width="10" x="2082" y="700.4414"/><rect fill="#FFFFFF" height="30" style="stroke:#181818;stroke-width:1.0;" width="10" x="2082" y="761.7324"/><rect fill="#FFFFFF" height="30" style="stroke:#181818;stroke-width:1.0;" width="10" x="2082" y="823.0234"/><rect fill="#FFFFFF" height="30" style="stroke:#181818;stroke-width:1.0;" width="10" x="2082" y="884.3145"/><rect fill="#FFFFFF" height="30" style="stroke:#181818;stroke-width:1.0;" width="10" x="2082" y="945.6055"/><rect fill="#FFFFFF" height="30" style="stroke:#181818;stroke-width:1.0;" width="10" x="2082" y="1006.8965"/><rect fill="#FFFFFF" height="31.291" style="stroke:#181818;stroke-width:1.0;" width="10" x="2339" y="278.2793"/><polygon fill="#181818" points="427,86.5332,437,90.5332,427,94.5332,431,90.5332" style="stroke:#181818;stroke-width:1.0;"/><line style="stroke:#181818;stroke-width:1.0;" x1="0" x2="433" y1="90.5332" y2="90.5332"/><text fill="#000000" font-family="sans-serif" font-size="13" font-weight="bold" lengthAdjust="spacing" textLength="7" x="7" y="85.2705">1</text><text fill="#000000" font-family="sans-serif" font-size="13" lengthAdjust="spacing" textLength="409" x="18" y="85.2705">getVisitRequestsByAgent(String agent,DateTime begin,DateTime end )</text><polygon fill="#181818" points="592,117.8242,602,121.8242,592,125.8242,596,121.8242" style="stroke:#181818;stroke-width:1.0;"/><line style="stroke:#181818;stroke-width:1.0;" x1="449" x2="598" y1="121.8242" y2="121.8242"/><text fill="#000000" font-family="sans-serif" font-size="13" font-weight="bold" lengthAdjust="spacing" textLength="7" x="456" y="116.5615">2</text><text fill="#000000" font-family="sans-serif" font-size="13" lengthAdjust="spacing" textLength="75" x="467" y="116.5615">getInstance()</text><polygon fill="#181818" points="460,149.1152,450,153.1152,460,157.1152,456,153.1152" style="stroke:#181818;stroke-width:1.0;"/><line style="stroke:#181818;stroke-width:1.0;stroke-dasharray:2.0,2.0;" x1="454" x2="608" y1="153.1152" y2="153.1152"/><text fill="#000000" font-family="sans-serif" font-size="13" font-weight="bold" lengthAdjust="spacing" textLength="7" x="466" y="147.8525">3</text><text fill="#000000" font-family="sans-serif" font-size="13" lengthAdjust="spacing" textLength="72" x="477" y="147.8525">Repositories</text><polygon fill="#181818" points="994,180.4063,1004,184.4063,994,188.4063,998,184.4063" style="stroke:#181818;stroke-width:1.0;"/><line style="stroke:#181818;stroke-width:1.0;" x1="449" x2="1000" y1="184.4063" y2="184.4063"/><text fill="#000000" font-family="sans-serif" font-size="13" font-weight="bold" lengthAdjust="spacing" textLength="7" x="456" y="179.1436">4</text><text fill="#000000" font-family="sans-serif" font-size="13" lengthAdjust="spacing" textLength="162" x="467" y="179.1436">getVisitRequestRepository()</text><polygon fill="#181818" points="460,211.6973,450,215.6973,460,219.6973,456,215.6973" style="stroke:#181818;stroke-width:1.0;"/><line style="stroke:#181818;stroke-width:1.0;stroke-dasharray:2.0,2.0;" x1="454" x2="1010" y1="215.6973" y2="215.6973"/><text fill="#000000" font-family="sans-serif" font-size="13" font-weight="bold" lengthAdjust="spacing" textLength="7" x="466" y="210.4346">5</text><text fill="#000000" font-family="sans-serif" font-size="13" lengthAdjust="spacing" textLength="132" x="477" y="210.4346">visitRequestRepository</text><polygon fill="#181818" points="994,242.9883,1004,246.9883,994,250.9883,998,246.9883" style="stroke:#181818;stroke-width:1.0;"/><line style="stroke:#181818;stroke-width:1.0;" x1="449" x2="1000" y1="246.9883" y2="246.9883"/><text fill="#000000" font-family="sans-serif" font-size="13" font-weight="bold" lengthAdjust="spacing" textLength="7" x="456" y="241.7256">6</text><text fill="#000000" font-family="sans-serif" font-size="13" lengthAdjust="spacing" textLength="459" x="467" y="241.7256">getVisitRequestsByAgentInPeriod(String email, DateTime begin, DateTime end)</text><polygon fill="#181818" points="2327,274.2793,2337,278.2793,2327,282.2793,2331,278.2793" style="stroke:#181818;stroke-width:1.0;"/><line style="stroke:#181818;stroke-width:1.0;" x1="1016" x2="2333" y1="278.2793" y2="278.2793"/><text fill="#000000" font-family="sans-serif" font-size="13" font-weight="bold" lengthAdjust="spacing" textLength="7" x="1023" y="273.0166">7</text><text fill="#000000" font-family="sans-serif" font-size="13" lengthAdjust="spacing" textLength="156" x="1034" y="273.0166">configureSortingAlgorithm()</text><polygon fill="#181818" points="1027,305.5703,1017,309.5703,1027,313.5703,1023,309.5703" style="stroke:#181818;stroke-width:1.0;"/><line style="stroke:#181818;stroke-width:1.0;stroke-dasharray:2.0,2.0;" x1="1021" x2="2343" y1="309.5703" y2="309.5703"/><text fill="#000000" font-family="sans-serif" font-size="13" font-weight="bold" lengthAdjust="spacing" textLength="7" x="1033" y="304.3076">8</text><text fill="#000000" font-family="sans-serif" font-size="13" lengthAdjust="spacing" textLength="94" x="1044" y="304.3076">sortingAlgorithm</text><path d="M917.5,324.5703 L978.5,324.5703 L978.5,333.8613 L968.5,343.8613 L917.5,343.8613 L917.5,324.5703 " fill="#EEEEEE" style="stroke:#000000;stroke-width:1.5;"/><rect fill="none" height="213.0859" style="stroke:#000000;stroke-width:1.5;" width="268.5" x="917.5" y="324.5703"/><text fill="#000000" font-family="sans-serif" font-size="13" font-weight="bold" lengthAdjust="spacing" textLength="16" x="932.5" y="339.5986">alt</text><text fill="#000000" font-family="sans-serif" font-size="11" font-weight="bold" lengthAdjust="spacing" textLength="187" x="993.5" y="338.4404">[if( sortAlgorithm = "BubbleSort")]</text><line style="stroke:#181818;stroke-width:1.0;" x1="1016" x2="1063" y1="362.1523" y2="362.1523"/><line style="stroke:#181818;stroke-width:1.0;" x1="1063" x2="1063" y1="362.1523" y2="375.1523"/><line style="stroke:#181818;stroke-width:1.0;" x1="1022" x2="1063" y1="375.1523" y2="375.1523"/><polygon fill="#181818" points="1032,371.1523,1022,375.1523,1032,379.1523,1028,375.1523" style="stroke:#181818;stroke-width:1.0;"/><text fill="#000000" font-family="sans-serif" font-size="13" font-weight="bold" lengthAdjust="spacing" textLength="7" x="1028" y="356.8896">9</text><text fill="#000000" font-family="sans-serif" font-size="13" lengthAdjust="spacing" textLength="128" x="1039" y="356.8896">sort(visitRequestsList)</text><line style="stroke:#181818;stroke-width:1.0;stroke-dasharray:2.0,2.0;" x1="1021" x2="1063" y1="416.4434" y2="416.4434"/><line style="stroke:#181818;stroke-width:1.0;stroke-dasharray:2.0,2.0;" x1="1063" x2="1063" y1="416.4434" y2="429.4434"/><line style="stroke:#181818;stroke-width:1.0;stroke-dasharray:2.0,2.0;" x1="1016" x2="1063" y1="429.4434" y2="429.4434"/><polygon fill="#181818" points="1026,425.4434,1016,429.4434,1026,433.4434,1022,429.4434" style="stroke:#181818;stroke-width:1.0;"/><text fill="#000000" font-family="sans-serif" font-size="13" font-weight="bold" lengthAdjust="spacing" textLength="14" x="1028" y="411.1807">10</text><text fill="#000000" font-family="sans-serif" font-size="13" lengthAdjust="spacing" textLength="128" x="1046" y="411.1807">sort(visitRequestsList)</text><line style="stroke:#000000;stroke-width:1.0;stroke-dasharray:2.0,2.0;" x1="917.5" x2="1186" y1="433.4434" y2="433.4434"/><text fill="#000000" font-family="sans-serif" font-size="11" font-weight="bold" lengthAdjust="spacing" textLength="215" x="922.5" y="445.3135">[alt if( sortAlgorithm = "InsertionSort")]</text><line style="stroke:#181818;stroke-width:1.0;" x1="1016" x2="1063" y1="467.3652" y2="467.3652"/><line style="stroke:#181818;stroke-width:1.0;" x1="1063" x2="1063" y1="467.3652" y2="480.3652"/><line style="stroke:#181818;stroke-width:1.0;" x1="1022" x2="1063" y1="480.3652" y2="480.3652"/><polygon fill="#181818" points="1032,476.3652,1022,480.3652,1032,484.3652,1028,480.3652" style="stroke:#181818;stroke-width:1.0;"/><text fill="#000000" font-family="sans-serif" font-size="13" font-weight="bold" lengthAdjust="spacing" textLength="14" x="1028" y="462.1025">11</text><text fill="#000000" font-family="sans-serif" font-size="13" lengthAdjust="spacing" textLength="128" x="1046" y="462.1025">sort(visitRequestsList)</text><line style="stroke:#181818;stroke-width:1.0;stroke-dasharray:2.0,2.0;" x1="1021" x2="1063" y1="521.6563" y2="521.6563"/><line style="stroke:#181818;stroke-width:1.0;stroke-dasharray:2.0,2.0;" x1="1063" x2="1063" y1="521.6563" y2="534.6563"/><line style="stroke:#181818;stroke-width:1.0;stroke-dasharray:2.0,2.0;" x1="1016" x2="1063" y1="534.6563" y2="534.6563"/><polygon fill="#181818" points="1026,530.6563,1016,534.6563,1026,538.6563,1022,534.6563" style="stroke:#181818;stroke-width:1.0;"/><text fill="#000000" font-family="sans-serif" font-size="13" font-weight="bold" lengthAdjust="spacing" textLength="14" x="1028" y="516.3936">12</text><text fill="#000000" font-family="sans-serif" font-size="13" lengthAdjust="spacing" textLength="128" x="1046" y="516.3936">sort(visitRequestsList)</text><polygon fill="#181818" points="460,563.9473,450,567.9473,460,571.9473,456,567.9473" style="stroke:#181818;stroke-width:1.0;"/><line style="stroke:#181818;stroke-width:1.0;stroke-dasharray:2.0,2.0;" x1="454" x2="1010" y1="567.9473" y2="567.9473"/><text fill="#000000" font-family="sans-serif" font-size="13" font-weight="bold" lengthAdjust="spacing" textLength="14" x="466" y="562.6846">13</text><text fill="#000000" font-family="sans-serif" font-size="13" lengthAdjust="spacing" textLength="212" x="484" y="562.6846">visitRequestsByAgentInPeriodSorted</text><polygon fill="#181818" points="1169,595.2383,1179,599.2383,1169,603.2383,1173,599.2383" style="stroke:#181818;stroke-width:1.0;"/><line style="stroke:#181818;stroke-width:1.0;" x1="449" x2="1175" y1="599.2383" y2="599.2383"/><text fill="#000000" font-family="sans-serif" font-size="13" font-weight="bold" lengthAdjust="spacing" textLength="14" x="456" y="593.9756">14</text><text fill="#000000" font-family="sans-serif" font-size="13" lengthAdjust="spacing" textLength="307" x="474" y="593.9756">getVisitRequestsDTO(visitRequestsByAgentInPeriod)</text><polygon fill="#181818" points="1574,626.5293,1584,630.5293,1574,634.5293,1578,630.5293" style="stroke:#181818;stroke-width:1.0;"/><line style="stroke:#181818;stroke-width:1.0;" x1="1191" x2="1580" y1="630.5293" y2="630.5293"/><text fill="#000000" font-family="sans-serif" font-size="13" font-weight="bold" lengthAdjust="spacing" textLength="14" x="1198" y="625.2666">15</text><text fill="#000000" font-family="sans-serif" font-size="13" lengthAdjust="spacing" textLength="44" x="1216" y="625.2666">create()</text><rect fill="#E2E2F0" height="32.6211" rx="2.5" ry="2.5" style="stroke:#181818;stroke-width:0.5;" width="304" x="1586" y="607.2383"/><text fill="#000000" font-family="sans-serif" font-size="14" lengthAdjust="spacing" textLength="290" x="1593" y="629.3457">ListVisitRequestDTO : List&lt;VisitRequestDTO&gt;</text><path d="M1105.5,657.8594 L1178.5,657.8594 L1178.5,667.1504 L1168.5,677.1504 L1105.5,677.1504 L1105.5,657.8594 " fill="#EEEEEE" style="stroke:#000000;stroke-width:1.5;"/><rect fill="none" height="536.2402" style="stroke:#000000;stroke-width:1.5;" width="1178.5" x="1105.5" y="657.8594"/><text fill="#000000" font-family="sans-serif" font-size="13" font-weight="bold" lengthAdjust="spacing" textLength="28" x="1120.5" y="672.8877">loop</text><text fill="#000000" font-family="sans-serif" font-size="11" font-weight="bold" lengthAdjust="spacing" textLength="198" x="1193.5" y="671.7295">[for each object in ListVisitRequest]</text><polygon fill="#181818" points="2070,696.4414,2080,700.4414,2070,704.4414,2074,700.4414" style="stroke:#181818;stroke-width:1.0;"/><line style="stroke:#181818;stroke-width:1.0;" x1="1191" x2="2076" y1="700.4414" y2="700.4414"/><text fill="#000000" font-family="sans-serif" font-size="13" font-weight="bold" lengthAdjust="spacing" textLength="14" x="1198" y="695.1787">16</text><text fill="#000000" font-family="sans-serif" font-size="13" lengthAdjust="spacing" textLength="174" x="1216" y="695.1787">clientName = getClientName()</text><polygon fill="#181818" points="2070,757.7324,2080,761.7324,2070,765.7324,2074,761.7324" style="stroke:#181818;stroke-width:1.0;"/><line style="stroke:#181818;stroke-width:1.0;" x1="1191" x2="2076" y1="761.7324" y2="761.7324"/><text fill="#000000" font-family="sans-serif" font-size="13" font-weight="bold" lengthAdjust="spacing" textLength="14" x="1198" y="756.4697">17</text><text fill="#000000" font-family="sans-serif" font-size="13" lengthAdjust="spacing" textLength="138" x="1216" y="756.4697">property = getProperty()</text><polygon fill="#181818" points="2070,819.0234,2080,823.0234,2070,827.0234,2074,823.0234" style="stroke:#181818;stroke-width:1.0;"/><line style="stroke:#181818;stroke-width:1.0;" x1="1191" x2="2076" y1="823.0234" y2="823.0234"/><text fill="#000000" font-family="sans-serif" font-size="13" font-weight="bold" lengthAdjust="spacing" textLength="14" x="1198" y="817.7607">18</text><text fill="#000000" font-family="sans-serif" font-size="13" lengthAdjust="spacing" textLength="198" x="1216" y="817.7607">preferredDate = getPreferredDate()</text><polygon fill="#181818" points="2070,880.3145,2080,884.3145,2070,888.3145,2074,884.3145" style="stroke:#181818;stroke-width:1.0;"/><line style="stroke:#181818;stroke-width:1.0;" x1="1191" x2="2076" y1="884.3145" y2="884.3145"/><text fill="#000000" font-family="sans-serif" font-size="13" font-weight="bold" lengthAdjust="spacing" textLength="14" x="1198" y="879.0518">19</text><text fill="#000000" font-family="sans-serif" font-size="13" lengthAdjust="spacing" textLength="136" x="1216" y="879.0518">address = getAddress()</text><polygon fill="#181818" points="2070,941.6055,2080,945.6055,2070,949.6055,2074,945.6055" style="stroke:#181818;stroke-width:1.0;"/><line style="stroke:#181818;stroke-width:1.0;" x1="1191" x2="2076" y1="945.6055" y2="945.6055"/><text fill="#000000" font-family="sans-serif" font-size="13" font-weight="bold" lengthAdjust="spacing" textLength="14" x="1198" y="940.3428">20</text><text fill="#000000" font-family="sans-serif" font-size="13" lengthAdjust="spacing" textLength="270" x="1216" y="940.3428">clientPhoneNumber = getClientPhoneNumber()</text><polygon fill="#181818" points="2070,1002.8965,2080,1006.8965,2070,1010.8965,2074,1006.8965" style="stroke:#181818;stroke-width:1.0;"/><line style="stroke:#181818;stroke-width:1.0;" x1="1191" x2="2076" y1="1006.8965" y2="1006.8965"/><text fill="#000000" font-family="sans-serif" font-size="13" font-weight="bold" lengthAdjust="spacing" textLength="14" x="1198" y="1001.6338">21</text><text fill="#000000" font-family="sans-serif" font-size="13" lengthAdjust="spacing" textLength="141" x="1216" y="1001.6338">timeSlot = getTimeSlot()</text><line style="stroke:#181818;stroke-width:1.0;" x1="1191" x2="1238" y1="1063.1875" y2="1063.1875"/><line style="stroke:#181818;stroke-width:1.0;" x1="1238" x2="1238" y1="1063.1875" y2="1076.1875"/><line style="stroke:#181818;stroke-width:1.0;" x1="1197" x2="1238" y1="1076.1875" y2="1076.1875"/><polygon fill="#181818" points="1207,1072.1875,1197,1076.1875,1207,1080.1875,1203,1076.1875" style="stroke:#181818;stroke-width:1.0;"/><text fill="#000000" font-family="sans-serif" font-size="13" font-weight="bold" lengthAdjust="spacing" textLength="14" x="1203" y="1057.9248">22</text><text fill="#000000" font-family="sans-serif" font-size="13" lengthAdjust="spacing" textLength="231" x="1221" y="1057.9248">VisitRequestDTO= toDTO(VisitRequest)</text><polygon fill="#181818" points="1330,1108.4785,1340,1112.4785,1330,1116.4785,1334,1112.4785" style="stroke:#181818;stroke-width:1.0;"/><line style="stroke:#181818;stroke-width:1.0;stroke-dasharray:2.0,2.0;" x1="1191" x2="1336" y1="1112.4785" y2="1112.4785"/><text fill="#000000" font-family="sans-serif" font-size="13" font-weight="bold" lengthAdjust="spacing" textLength="14" x="1198" y="1107.2158">23</text><text fill="#000000" font-family="sans-serif" font-size="13" lengthAdjust="spacing" textLength="44" x="1216" y="1107.2158">create()</text><rect fill="#E2E2F0" height="32.6211" rx="2.5" ry="2.5" style="stroke:#181818;stroke-width:0.5;" width="234" x="1342" y="1089.1875"/><text fill="#000000" font-family="sans-serif" font-size="14" lengthAdjust="spacing" textLength="220" x="1349" y="1111.2949">visitRequestDTO:VisitRequestDTO</text><polygon fill="#181818" points="1721,1152.0996,1731,1156.0996,1721,1160.0996,1725,1156.0996" style="stroke:#181818;stroke-width:1.0;"/><line style="stroke:#181818;stroke-width:1.0;" x1="1191" x2="1727" y1="1156.0996" y2="1156.0996"/><text fill="#000000" font-family="sans-serif" font-size="13" font-weight="bold" lengthAdjust="spacing" textLength="14" x="1198" y="1150.8369">24</text><text fill="#000000" font-family="sans-serif" font-size="13" lengthAdjust="spacing" textLength="129" x="1216" y="1150.8369">add(VisitRequestDTO)</text><polygon fill="#181818" points="460,1220.3906,450,1224.3906,460,1228.3906,456,1224.3906" style="stroke:#181818;stroke-width:1.0;"/><line style="stroke:#181818;stroke-width:1.0;stroke-dasharray:2.0,2.0;" x1="454" x2="1185" y1="1224.3906" y2="1224.3906"/><text fill="#000000" font-family="sans-serif" font-size="13" font-weight="bold" lengthAdjust="spacing" textLength="14" x="466" y="1219.1279">25</text><text fill="#000000" font-family="sans-serif" font-size="13" lengthAdjust="spacing" textLength="162" x="484" y="1219.1279">visitRequestsDTOListSorted</text><polygon fill="#181818" points="11,1251.6816,1,1255.6816,11,1259.6816,7,1255.6816" style="stroke:#181818;stroke-width:1.0;"/><line style="stroke:#181818;stroke-width:1.0;stroke-dasharray:2.0,2.0;" x1="5" x2="443" y1="1255.6816" y2="1255.6816"/><text fill="#000000" font-family="sans-serif" font-size="13" font-weight="bold" lengthAdjust="spacing" textLength="14" x="17" y="1250.4189">26</text><text fill="#000000" font-family="sans-serif" font-size="13" lengthAdjust="spacing" textLength="162" x="35" y="1250.4189">visitRequestsDTOListSorted</text><!--SRC=[dLPBJ-Cm4BxtLrYzR41qkKU0nEk0H5WKgfwukCqqzMvYPsq7gVz-nyxBTX8ewrCzdldczSqqFmvQLog-lAmAodLT5ZztehnKyBS6leDLncWkQRcmfw9IinshK94iusUcz9qGVnZFKwEkjBeNN4jH522NX2folqwV0wCKAg6O5fA1iZe9PRmN7dtjGHwJTpuoTSnyEoYhGXm17Fjt_ZWIMf37rBSb7mnVsuGyWCtaWmNPfEcuGAv-GgkgBSecJNmzr-73-bUyyU-DqIR5dxwTgN-WIs9Yf5U1-APrF89mNQkxusqEN3_nLv1CP6z2QiYc43iuJ9ZMMl2wt8B42rdTs9R790SliWuwUjCIsKAekLmyK0rhLWBPGixuS0MUaRC5QGxTQVQ1BmsN5gtON8mtdpp4EdxYIbEaRjHZE2W1smQD06crkh4-OkAoRb3Fu6l8BaWanwWYWy5ac9PFlHXl9g2sjjFyd0pDXt7Y8RCjwhhVjGfAoeeB4lIAkCsQIy097cCNVC_oLobm33IMCYOxAwab6AAXgziYnoBhGpbPaT3UpIjuihMoHLS1ycAoIcDent-X2Tj75gc78TTaULTljuKDVNas6BJ9ziuZRy3C88s9xJMfQ_Kf23Fz3fwXK32V1WwBILhmBXFV-3i9-MU6WsFm_qAVIxqzG_AuId8fwigJpi_Jz0uyORQSuKh6iuLxD_hCJP2buoDngP4q3X3j_1pdHmBgH7tF2Y4giXUIO8m78hQ_OOTDvoJyc-XAWNWM3f4AXi6yK1pdQnFxVNzlHz49Q34gG-j_WAkQIJesOErSzNiknFeI3FOW9MHcutI8ZkXKs12NPfa4fHh4s-PoCjO8hQdWwq5mUB7_XcuX7V7f7W876dVjMo5qWxjkR_scFAceFHmoDFX0k2PQ69AwOf-KqvpiUMbmnyoSdTLaCO7HSjls9We2d0t6VDBCkZ6FWITt8qnbCR4J4CNCKBWB9d9otwvMgmRi-rZsK-SV]--></g></svg>