<?xml version="1.0" encoding="us-ascii" standalone="no"?><svg xmlns="http://www.w3.org/2000/svg" xmlns:xlink="http://www.w3.org/1999/xlink" contentStyleType="text/css" height="2472px" preserveAspectRatio="none" style="width:2013px;height:2472px;background:#FFFFFF;" version="1.1" viewBox="0 0 2013 2472" width="2013px" zoomAndPan="magnify"><defs><filter height="300%" id="f1ahq2esxng4ou" width="300%" x="-1" y="-1"><feGaussianBlur result="blurOut" stdDeviation="2.0"/><feColorMatrix in="blurOut" result="blurOut2" type="matrix" values="0 0 0 0 0 0 0 0 0 0 0 0 0 0 0 0 0 0 .4 0"/><feOffset dx="4.0" dy="4.0" in="blurOut2" result="blurOut3"/><feBlend in="SourceGraphic" in2="blurOut3" mode="normal"/></filter></defs><g><!--class ApplicationSession--><g id="elem_ApplicationSession"><rect codeLine="12" fill="#F1F1F1" filter="url(#f1ahq2esxng4ou)" height="85.2422" id="ApplicationSession" rx="2.5" ry="2.5" style="stroke:#181818;stroke-width:0.5;" width="151" x="322.5" y="273.5"/><ellipse cx="337.5" cy="289.5" fill="#ADD1B2" rx="11" ry="11" style="stroke:#181818;stroke-width:1.0;"/><path d="M340.2656,285.375 Q340.4219,285.1563 340.6094,285.0469 Q340.7969,284.9375 341.0156,284.9375 Q341.3906,284.9375 341.625,285.2031 Q341.8594,285.4531 341.8594,286.0625 L341.8594,287.5156 Q341.8594,288.125 341.625,288.3906 Q341.3906,288.6563 341.0156,288.6563 Q340.6719,288.6563 340.4688,288.4531 Q340.2656,288.2656 340.1563,287.75 Q340.1094,287.3906 339.9219,287.2031 Q339.5938,286.8281 338.9844,286.6094 Q338.375,286.3906 337.75,286.3906 Q336.9844,286.3906 336.3438,286.7188 Q335.7188,287.0469 335.2188,287.7969 Q334.7344,288.5469 334.7344,289.5781 L334.7344,290.6719 Q334.7344,291.9063 335.625,292.7344 Q336.5156,293.5469 338.1094,293.5469 Q339.0469,293.5469 339.7031,293.2969 Q340.0938,293.1406 340.5156,292.7031 Q340.7813,292.4375 340.9219,292.3594 Q341.0781,292.2813 341.2813,292.2813 Q341.6094,292.2813 341.8594,292.5469 Q342.125,292.7969 342.125,293.1406 Q342.125,293.4844 341.7813,293.8906 Q341.2813,294.4688 340.4844,294.7969 Q339.4063,295.25 338.1094,295.25 Q336.5938,295.25 335.3906,294.625 Q334.4063,294.125 333.7188,293.0625 Q333.0313,291.9844 333.0313,290.7031 L333.0313,289.5469 Q333.0313,288.2188 333.6406,287.0781 Q334.2656,285.9219 335.3594,285.3125 Q336.4531,284.6875 337.6875,284.6875 Q338.4219,284.6875 339.0625,284.8594 Q339.7188,285.0156 340.2656,285.375 Z " fill="#000000"/><text fill="#000000" font-family="sans-serif" font-size="14" lengthAdjust="spacing" textLength="119" x="351.5" y="295.2969">ApplicationSession</text><line style="stroke:#181818;stroke-width:0.5;" x1="323.5" x2="472.5" y1="305.5" y2="305.5"/><line style="stroke:#181818;stroke-width:0.5;" x1="323.5" x2="472.5" y1="313.5" y2="313.5"/><text fill="#000000" font-family="sans-serif" font-size="14" lengthAdjust="spacing" textLength="128" x="328.5" y="332.6074">+static getInstance()</text><text fill="#000000" font-family="sans-serif" font-size="14" lengthAdjust="spacing" textLength="136" x="328.5" y="351.2285">+getCurrentSession()</text></g><!--class UserSession--><g id="elem_UserSession"><rect codeLine="18" fill="#F1F1F1" filter="url(#f1ahq2esxng4ou)" height="66.6211" id="UserSession" rx="2.5" ry="2.5" style="stroke:#181818;stroke-width:0.5;" width="113" x="408.5" y="512"/><ellipse cx="424.4" cy="528" fill="#ADD1B2" rx="11" ry="11" style="stroke:#181818;stroke-width:1.0;"/><path d="M427.1656,523.875 Q427.3219,523.6563 427.5094,523.5469 Q427.6969,523.4375 427.9156,523.4375 Q428.2906,523.4375 428.525,523.7031 Q428.7594,523.9531 428.7594,524.5625 L428.7594,526.0156 Q428.7594,526.625 428.525,526.8906 Q428.2906,527.1563 427.9156,527.1563 Q427.5719,527.1563 427.3688,526.9531 Q427.1656,526.7656 427.0563,526.25 Q427.0094,525.8906 426.8219,525.7031 Q426.4938,525.3281 425.8844,525.1094 Q425.275,524.8906 424.65,524.8906 Q423.8844,524.8906 423.2438,525.2188 Q422.6188,525.5469 422.1188,526.2969 Q421.6344,527.0469 421.6344,528.0781 L421.6344,529.1719 Q421.6344,530.4063 422.525,531.2344 Q423.4156,532.0469 425.0094,532.0469 Q425.9469,532.0469 426.6031,531.7969 Q426.9938,531.6406 427.4156,531.2031 Q427.6813,530.9375 427.8219,530.8594 Q427.9781,530.7813 428.1813,530.7813 Q428.5094,530.7813 428.7594,531.0469 Q429.025,531.2969 429.025,531.6406 Q429.025,531.9844 428.6813,532.3906 Q428.1813,532.9688 427.3844,533.2969 Q426.3063,533.75 425.0094,533.75 Q423.4938,533.75 422.2906,533.125 Q421.3063,532.625 420.6188,531.5625 Q419.9313,530.4844 419.9313,529.2031 L419.9313,528.0469 Q419.9313,526.7188 420.5406,525.5781 Q421.1656,524.4219 422.2594,523.8125 Q423.3531,523.1875 424.5875,523.1875 Q425.3219,523.1875 425.9625,523.3594 Q426.6188,523.5156 427.1656,523.875 Z " fill="#000000"/><text fill="#000000" font-family="sans-serif" font-size="14" lengthAdjust="spacing" textLength="79" x="438.6" y="533.7969">UserSession</text><line style="stroke:#181818;stroke-width:0.5;" x1="409.5" x2="520.5" y1="544" y2="544"/><line style="stroke:#181818;stroke-width:0.5;" x1="409.5" x2="520.5" y1="552" y2="552"/><text fill="#000000" font-family="sans-serif" font-size="14" lengthAdjust="spacing" textLength="101" x="414.5" y="571.1074">+getUserEmail()</text></g><!--class AnnouncementRequestUI--><g id="elem_AnnouncementRequestUI"><rect codeLine="23" fill="#F1F1F1" filter="url(#f1ahq2esxng4ou)" height="48" id="AnnouncementRequestUI" rx="2.5" ry="2.5" style="stroke:#181818;stroke-width:0.5;" width="192" x="86" y="72"/><ellipse cx="101" cy="88" fill="#ADD1B2" rx="11" ry="11" style="stroke:#181818;stroke-width:1.0;"/><path d="M103.7656,83.875 Q103.9219,83.6563 104.1094,83.5469 Q104.2969,83.4375 104.5156,83.4375 Q104.8906,83.4375 105.125,83.7031 Q105.3594,83.9531 105.3594,84.5625 L105.3594,86.0156 Q105.3594,86.625 105.125,86.8906 Q104.8906,87.1563 104.5156,87.1563 Q104.1719,87.1563 103.9688,86.9531 Q103.7656,86.7656 103.6563,86.25 Q103.6094,85.8906 103.4219,85.7031 Q103.0938,85.3281 102.4844,85.1094 Q101.875,84.8906 101.25,84.8906 Q100.4844,84.8906 99.8438,85.2188 Q99.2188,85.5469 98.7188,86.2969 Q98.2344,87.0469 98.2344,88.0781 L98.2344,89.1719 Q98.2344,90.4063 99.125,91.2344 Q100.0156,92.0469 101.6094,92.0469 Q102.5469,92.0469 103.2031,91.7969 Q103.5938,91.6406 104.0156,91.2031 Q104.2813,90.9375 104.4219,90.8594 Q104.5781,90.7813 104.7813,90.7813 Q105.1094,90.7813 105.3594,91.0469 Q105.625,91.2969 105.625,91.6406 Q105.625,91.9844 105.2813,92.3906 Q104.7813,92.9688 103.9844,93.2969 Q102.9063,93.75 101.6094,93.75 Q100.0938,93.75 98.8906,93.125 Q97.9063,92.625 97.2188,91.5625 Q96.5313,90.4844 96.5313,89.2031 L96.5313,88.0469 Q96.5313,86.7188 97.1406,85.5781 Q97.7656,84.4219 98.8594,83.8125 Q99.9531,83.1875 101.1875,83.1875 Q101.9219,83.1875 102.5625,83.3594 Q103.2188,83.5156 103.7656,83.875 Z " fill="#000000"/><text fill="#000000" font-family="sans-serif" font-size="14" lengthAdjust="spacing" textLength="160" x="115" y="93.7969">AnnouncementRequestUI</text><line style="stroke:#181818;stroke-width:0.5;" x1="87" x2="277" y1="104" y2="104"/><line style="stroke:#181818;stroke-width:0.5;" x1="87" x2="277" y1="112" y2="112"/></g><!--class AnnouncementRequestController--><g id="elem_AnnouncementRequestController"><rect codeLine="27" fill="#F1F1F1" filter="url(#f1ahq2esxng4ou)" height="178.3477" id="AnnouncementRequestController" rx="2.5" ry="2.5" style="stroke:#181818;stroke-width:0.5;" width="768" x="313" y="7"/><ellipse cx="587.75" cy="23" fill="#ADD1B2" rx="11" ry="11" style="stroke:#181818;stroke-width:1.0;"/><path d="M590.5156,18.875 Q590.6719,18.6563 590.8594,18.5469 Q591.0469,18.4375 591.2656,18.4375 Q591.6406,18.4375 591.875,18.7031 Q592.1094,18.9531 592.1094,19.5625 L592.1094,21.0156 Q592.1094,21.625 591.875,21.8906 Q591.6406,22.1563 591.2656,22.1563 Q590.9219,22.1563 590.7188,21.9531 Q590.5156,21.7656 590.4063,21.25 Q590.3594,20.8906 590.1719,20.7031 Q589.8438,20.3281 589.2344,20.1094 Q588.625,19.8906 588,19.8906 Q587.2344,19.8906 586.5938,20.2188 Q585.9688,20.5469 585.4688,21.2969 Q584.9844,22.0469 584.9844,23.0781 L584.9844,24.1719 Q584.9844,25.4063 585.875,26.2344 Q586.7656,27.0469 588.3594,27.0469 Q589.2969,27.0469 589.9531,26.7969 Q590.3438,26.6406 590.7656,26.2031 Q591.0313,25.9375 591.1719,25.8594 Q591.3281,25.7813 591.5313,25.7813 Q591.8594,25.7813 592.1094,26.0469 Q592.375,26.2969 592.375,26.6406 Q592.375,26.9844 592.0313,27.3906 Q591.5313,27.9688 590.7344,28.2969 Q589.6563,28.75 588.3594,28.75 Q586.8438,28.75 585.6406,28.125 Q584.6563,27.625 583.9688,26.5625 Q583.2813,25.4844 583.2813,24.2031 L583.2813,23.0469 Q583.2813,21.7188 583.8906,20.5781 Q584.5156,19.4219 585.6094,18.8125 Q586.7031,18.1875 587.9375,18.1875 Q588.6719,18.1875 589.3125,18.3594 Q589.9688,18.5156 590.5156,18.875 Z " fill="#000000"/><text fill="#000000" font-family="sans-serif" font-size="14" lengthAdjust="spacing" textLength="210" x="608.25" y="28.7969">AnnouncementRequestController</text><line style="stroke:#181818;stroke-width:0.5;" x1="314" x2="1080" y1="39" y2="39"/><line style="stroke:#181818;stroke-width:0.5;" x1="314" x2="1080" y1="47" y2="47"/><text fill="#000000" font-family="sans-serif" font-size="14" lengthAdjust="spacing" textLength="373" x="319" y="66.1074">+getBusinessTypeByDescription(businessTypeDescription)</text><text fill="#000000" font-family="sans-serif" font-size="14" lengthAdjust="spacing" textLength="134" x="319" y="84.7285">+getBusinessTypes()</text><text fill="#000000" font-family="sans-serif" font-size="14" lengthAdjust="spacing" textLength="254" x="319" y="103.3496">+getAnnouncementRequestRepository()</text><text fill="#000000" font-family="sans-serif" font-size="14" lengthAdjust="spacing" textLength="201" x="319" y="121.9707">+getAnnouncementRepository()</text><text fill="#000000" font-family="sans-serif" font-size="14" lengthAdjust="spacing" textLength="196" x="319" y="140.5918">+getAuthenticationRepository()</text><text fill="#000000" font-family="sans-serif" font-size="14" lengthAdjust="spacing" textLength="158" x="319" y="159.2129">+getAgentFromSession()</text><text fill="#000000" font-family="sans-serif" font-size="14" lengthAdjust="spacing" textLength="756" x="319" y="177.834">+createAnnouncement(AnnouncementRequestDTO announcementRequestDTO,double commission, double listedPrice)</text></g><!--class AnnouncementRequestRepository--><g id="elem_AnnouncementRequestRepository"><rect codeLine="38" fill="#F1F1F1" filter="url(#f1ahq2esxng4ou)" height="85.2422" id="AnnouncementRequestRepository" rx="2.5" ry="2.5" style="stroke:#181818;stroke-width:0.5;" width="365" x="1019.5" y="705"/><ellipse cx="1089.75" cy="721" fill="#ADD1B2" rx="11" ry="11" style="stroke:#181818;stroke-width:1.0;"/><path d="M1092.5156,716.875 Q1092.6719,716.6563 1092.8594,716.5469 Q1093.0469,716.4375 1093.2656,716.4375 Q1093.6406,716.4375 1093.875,716.7031 Q1094.1094,716.9531 1094.1094,717.5625 L1094.1094,719.0156 Q1094.1094,719.625 1093.875,719.8906 Q1093.6406,720.1563 1093.2656,720.1563 Q1092.9219,720.1563 1092.7188,719.9531 Q1092.5156,719.7656 1092.4063,719.25 Q1092.3594,718.8906 1092.1719,718.7031 Q1091.8438,718.3281 1091.2344,718.1094 Q1090.625,717.8906 1090,717.8906 Q1089.2344,717.8906 1088.5938,718.2188 Q1087.9688,718.5469 1087.4688,719.2969 Q1086.9844,720.0469 1086.9844,721.0781 L1086.9844,722.1719 Q1086.9844,723.4063 1087.875,724.2344 Q1088.7656,725.0469 1090.3594,725.0469 Q1091.2969,725.0469 1091.9531,724.7969 Q1092.3438,724.6406 1092.7656,724.2031 Q1093.0313,723.9375 1093.1719,723.8594 Q1093.3281,723.7813 1093.5313,723.7813 Q1093.8594,723.7813 1094.1094,724.0469 Q1094.375,724.2969 1094.375,724.6406 Q1094.375,724.9844 1094.0313,725.3906 Q1093.5313,725.9688 1092.7344,726.2969 Q1091.6563,726.75 1090.3594,726.75 Q1088.8438,726.75 1087.6406,726.125 Q1086.6563,725.625 1085.9688,724.5625 Q1085.2813,723.4844 1085.2813,722.2031 L1085.2813,721.0469 Q1085.2813,719.7188 1085.8906,718.5781 Q1086.5156,717.4219 1087.6094,716.8125 Q1088.7031,716.1875 1089.9375,716.1875 Q1090.6719,716.1875 1091.3125,716.3594 Q1091.9688,716.5156 1092.5156,716.875 Z " fill="#000000"/><text fill="#000000" font-family="sans-serif" font-size="14" lengthAdjust="spacing" textLength="216" x="1110.25" y="726.7969">AnnouncementRequestRepository</text><line style="stroke:#181818;stroke-width:0.5;" x1="1020.5" x2="1383.5" y1="737" y2="737"/><text fill="#000000" font-family="sans-serif" font-size="14" lengthAdjust="spacing" textLength="353" x="1025.5" y="756.1074">-List &lt;AnnouncementRequest&gt; announcementRequests</text><line style="stroke:#181818;stroke-width:0.5;" x1="1020.5" x2="1383.5" y1="763.6211" y2="763.6211"/><text fill="#000000" font-family="sans-serif" font-size="14" lengthAdjust="spacing" textLength="246" x="1025.5" y="782.7285">+getAnnouncementRequestsByAgent()</text></g><!--class EmployeeRepository--><g id="elem_EmployeeRepository"><rect codeLine="46" fill="#F1F1F1" filter="url(#f1ahq2esxng4ou)" height="66.6211" id="EmployeeRepository" rx="2.5" ry="2.5" style="stroke:#181818;stroke-width:0.5;" width="236" x="1312" y="820"/><ellipse cx="1360.75" cy="836" fill="#ADD1B2" rx="11" ry="11" style="stroke:#181818;stroke-width:1.0;"/><path d="M1363.5156,831.875 Q1363.6719,831.6563 1363.8594,831.5469 Q1364.0469,831.4375 1364.2656,831.4375 Q1364.6406,831.4375 1364.875,831.7031 Q1365.1094,831.9531 1365.1094,832.5625 L1365.1094,834.0156 Q1365.1094,834.625 1364.875,834.8906 Q1364.6406,835.1563 1364.2656,835.1563 Q1363.9219,835.1563 1363.7188,834.9531 Q1363.5156,834.7656 1363.4063,834.25 Q1363.3594,833.8906 1363.1719,833.7031 Q1362.8438,833.3281 1362.2344,833.1094 Q1361.625,832.8906 1361,832.8906 Q1360.2344,832.8906 1359.5938,833.2188 Q1358.9688,833.5469 1358.4688,834.2969 Q1357.9844,835.0469 1357.9844,836.0781 L1357.9844,837.1719 Q1357.9844,838.4063 1358.875,839.2344 Q1359.7656,840.0469 1361.3594,840.0469 Q1362.2969,840.0469 1362.9531,839.7969 Q1363.3438,839.6406 1363.7656,839.2031 Q1364.0313,838.9375 1364.1719,838.8594 Q1364.3281,838.7813 1364.5313,838.7813 Q1364.8594,838.7813 1365.1094,839.0469 Q1365.375,839.2969 1365.375,839.6406 Q1365.375,839.9844 1365.0313,840.3906 Q1364.5313,840.9688 1363.7344,841.2969 Q1362.6563,841.75 1361.3594,841.75 Q1359.8438,841.75 1358.6406,841.125 Q1357.6563,840.625 1356.9688,839.5625 Q1356.2813,838.4844 1356.2813,837.2031 L1356.2813,836.0469 Q1356.2813,834.7188 1356.8906,833.5781 Q1357.5156,832.4219 1358.6094,831.8125 Q1359.7031,831.1875 1360.9375,831.1875 Q1361.6719,831.1875 1362.3125,831.3594 Q1362.9688,831.5156 1363.5156,831.875 Z " fill="#000000"/><text fill="#000000" font-family="sans-serif" font-size="14" lengthAdjust="spacing" textLength="130" x="1381.25" y="841.7969">EmployeeRepository</text><line style="stroke:#181818;stroke-width:0.5;" x1="1313" x2="1547" y1="852" y2="852"/><line style="stroke:#181818;stroke-width:0.5;" x1="1313" x2="1547" y1="860" y2="860"/><text fill="#000000" font-family="sans-serif" font-size="14" lengthAdjust="spacing" textLength="224" x="1318" y="879.1074">+getEmployeeByEmail(String email)</text></g><!--class AnnouncementRequestMapper--><g id="elem_AnnouncementRequestMapper"><rect codeLine="52" fill="#F1F1F1" filter="url(#f1ahq2esxng4ou)" height="103.8633" id="AnnouncementRequestMapper" rx="2.5" ry="2.5" style="stroke:#181818;stroke-width:0.5;" width="574" x="651" y="264"/><ellipse cx="835.75" cy="280" fill="#ADD1B2" rx="11" ry="11" style="stroke:#181818;stroke-width:1.0;"/><path d="M838.5156,275.875 Q838.6719,275.6563 838.8594,275.5469 Q839.0469,275.4375 839.2656,275.4375 Q839.6406,275.4375 839.875,275.7031 Q840.1094,275.9531 840.1094,276.5625 L840.1094,278.0156 Q840.1094,278.625 839.875,278.8906 Q839.6406,279.1563 839.2656,279.1563 Q838.9219,279.1563 838.7188,278.9531 Q838.5156,278.7656 838.4063,278.25 Q838.3594,277.8906 838.1719,277.7031 Q837.8438,277.3281 837.2344,277.1094 Q836.625,276.8906 836,276.8906 Q835.2344,276.8906 834.5938,277.2188 Q833.9688,277.5469 833.4688,278.2969 Q832.9844,279.0469 832.9844,280.0781 L832.9844,281.1719 Q832.9844,282.4063 833.875,283.2344 Q834.7656,284.0469 836.3594,284.0469 Q837.2969,284.0469 837.9531,283.7969 Q838.3438,283.6406 838.7656,283.2031 Q839.0313,282.9375 839.1719,282.8594 Q839.3281,282.7813 839.5313,282.7813 Q839.8594,282.7813 840.1094,283.0469 Q840.375,283.2969 840.375,283.6406 Q840.375,283.9844 840.0313,284.3906 Q839.5313,284.9688 838.7344,285.2969 Q837.6563,285.75 836.3594,285.75 Q834.8438,285.75 833.6406,285.125 Q832.6563,284.625 831.9688,283.5625 Q831.2813,282.4844 831.2813,281.2031 L831.2813,280.0469 Q831.2813,278.7188 831.8906,277.5781 Q832.5156,276.4219 833.6094,275.8125 Q834.7031,275.1875 835.9375,275.1875 Q836.6719,275.1875 837.3125,275.3594 Q837.9688,275.5156 838.5156,275.875 Z " fill="#000000"/><text fill="#000000" font-family="sans-serif" font-size="14" lengthAdjust="spacing" textLength="196" x="856.25" y="285.7969">AnnouncementRequestMapper</text><line style="stroke:#181818;stroke-width:0.5;" x1="652" x2="1224" y1="296" y2="296"/><line style="stroke:#181818;stroke-width:0.5;" x1="652" x2="1224" y1="304" y2="304"/><text fill="#000000" font-family="sans-serif" font-size="14" lengthAdjust="spacing" textLength="359" x="657" y="323.1074">+toDTO(AnnouncementRequest announcementRequest)</text><text fill="#000000" font-family="sans-serif" font-size="14" lengthAdjust="spacing" textLength="267" x="657" y="341.7285">+toEntity(AnnouncementRequestDTO dto)</text><text fill="#000000" font-family="sans-serif" font-size="14" lengthAdjust="spacing" textLength="562" x="657" y="360.3496">+getAnnouncementsRequestsByAgentToDto(String announcementRequestsListByAgent)</text></g><!--class AnnouncementRequestDTO--><g id="elem_AnnouncementRequestDTO"><rect codeLine="60" fill="#F1F1F1" filter="url(#f1ahq2esxng4ou)" height="196.9688" id="AnnouncementRequestDTO" rx="2.5" ry="2.5" style="stroke:#181818;stroke-width:0.5;" width="346" x="879" y="447"/><ellipse cx="958.75" cy="463" fill="#ADD1B2" rx="11" ry="11" style="stroke:#181818;stroke-width:1.0;"/><path d="M961.5156,458.875 Q961.6719,458.6563 961.8594,458.5469 Q962.0469,458.4375 962.2656,458.4375 Q962.6406,458.4375 962.875,458.7031 Q963.1094,458.9531 963.1094,459.5625 L963.1094,461.0156 Q963.1094,461.625 962.875,461.8906 Q962.6406,462.1563 962.2656,462.1563 Q961.9219,462.1563 961.7188,461.9531 Q961.5156,461.7656 961.4063,461.25 Q961.3594,460.8906 961.1719,460.7031 Q960.8438,460.3281 960.2344,460.1094 Q959.625,459.8906 959,459.8906 Q958.2344,459.8906 957.5938,460.2188 Q956.9688,460.5469 956.4688,461.2969 Q955.9844,462.0469 955.9844,463.0781 L955.9844,464.1719 Q955.9844,465.4063 956.875,466.2344 Q957.7656,467.0469 959.3594,467.0469 Q960.2969,467.0469 960.9531,466.7969 Q961.3438,466.6406 961.7656,466.2031 Q962.0313,465.9375 962.1719,465.8594 Q962.3281,465.7813 962.5313,465.7813 Q962.8594,465.7813 963.1094,466.0469 Q963.375,466.2969 963.375,466.6406 Q963.375,466.9844 963.0313,467.3906 Q962.5313,467.9688 961.7344,468.2969 Q960.6563,468.75 959.3594,468.75 Q957.8438,468.75 956.6406,468.125 Q955.6563,467.625 954.9688,466.5625 Q954.2813,465.4844 954.2813,464.2031 L954.2813,463.0469 Q954.2813,461.7188 954.8906,460.5781 Q955.5156,459.4219 956.6094,458.8125 Q957.7031,458.1875 958.9375,458.1875 Q959.6719,458.1875 960.3125,458.3594 Q960.9688,458.5156 961.5156,458.875 Z " fill="#000000"/><text fill="#000000" font-family="sans-serif" font-size="14" lengthAdjust="spacing" textLength="178" x="979.25" y="468.7969">AnnouncementRequestDTO</text><line style="stroke:#181818;stroke-width:0.5;" x1="880" x2="1224" y1="479" y2="479"/><text fill="#000000" font-family="sans-serif" font-size="14" lengthAdjust="spacing" textLength="117" x="885" y="498.1074">-double listedPrice</text><text fill="#000000" font-family="sans-serif" font-size="14" lengthAdjust="spacing" textLength="132" x="885" y="516.7285">-Integer rentDuration</text><text fill="#000000" font-family="sans-serif" font-size="14" lengthAdjust="spacing" textLength="112" x="885" y="535.3496">-AgentDTO agent</text><text fill="#000000" font-family="sans-serif" font-size="14" lengthAdjust="spacing" textLength="128" x="885" y="553.9707">-DateTimeDTO date</text><text fill="#000000" font-family="sans-serif" font-size="14" lengthAdjust="spacing" textLength="125" x="885" y="572.5918">-double commission</text><text fill="#000000" font-family="sans-serif" font-size="14" lengthAdjust="spacing" textLength="216" x="885" y="591.2129">-BusinessTypeDTO businessType</text><text fill="#000000" font-family="sans-serif" font-size="14" lengthAdjust="spacing" textLength="146" x="885" y="609.834">-PropertyDTO property</text><text fill="#000000" font-family="sans-serif" font-size="14" lengthAdjust="spacing" textLength="334" x="885" y="628.4551">-AnnouncementRequestDTO announcementRequest</text><line style="stroke:#181818;stroke-width:0.5;" x1="880" x2="1224" y1="635.9688" y2="635.9688"/></g><!--class AnnouncementRepository--><g id="elem_AnnouncementRepository"><rect codeLine="79" fill="#F1F1F1" filter="url(#f1ahq2esxng4ou)" height="85.2422" id="AnnouncementRepository" rx="2.5" ry="2.5" style="stroke:#181818;stroke-width:0.5;" width="768" x="7" y="705"/><ellipse cx="305.25" cy="721" fill="#ADD1B2" rx="11" ry="11" style="stroke:#181818;stroke-width:1.0;"/><path d="M308.0156,716.875 Q308.1719,716.6563 308.3594,716.5469 Q308.5469,716.4375 308.7656,716.4375 Q309.1406,716.4375 309.375,716.7031 Q309.6094,716.9531 309.6094,717.5625 L309.6094,719.0156 Q309.6094,719.625 309.375,719.8906 Q309.1406,720.1563 308.7656,720.1563 Q308.4219,720.1563 308.2188,719.9531 Q308.0156,719.7656 307.9063,719.25 Q307.8594,718.8906 307.6719,718.7031 Q307.3438,718.3281 306.7344,718.1094 Q306.125,717.8906 305.5,717.8906 Q304.7344,717.8906 304.0938,718.2188 Q303.4688,718.5469 302.9688,719.2969 Q302.4844,720.0469 302.4844,721.0781 L302.4844,722.1719 Q302.4844,723.4063 303.375,724.2344 Q304.2656,725.0469 305.8594,725.0469 Q306.7969,725.0469 307.4531,724.7969 Q307.8438,724.6406 308.2656,724.2031 Q308.5313,723.9375 308.6719,723.8594 Q308.8281,723.7813 309.0313,723.7813 Q309.3594,723.7813 309.6094,724.0469 Q309.875,724.2969 309.875,724.6406 Q309.875,724.9844 309.5313,725.3906 Q309.0313,725.9688 308.2344,726.2969 Q307.1563,726.75 305.8594,726.75 Q304.3438,726.75 303.1406,726.125 Q302.1563,725.625 301.4688,724.5625 Q300.7813,723.4844 300.7813,722.2031 L300.7813,721.0469 Q300.7813,719.7188 301.3906,718.5781 Q302.0156,717.4219 303.1094,716.8125 Q304.2031,716.1875 305.4375,716.1875 Q306.1719,716.1875 306.8125,716.3594 Q307.4688,716.5156 308.0156,716.875 Z " fill="#000000"/><text fill="#000000" font-family="sans-serif" font-size="14" lengthAdjust="spacing" textLength="163" x="325.75" y="726.7969">AnnouncementRepository</text><line style="stroke:#181818;stroke-width:0.5;" x1="8" x2="774" y1="737" y2="737"/><text fill="#000000" font-family="sans-serif" font-size="14" lengthAdjust="spacing" textLength="244" x="13" y="756.1074">-List&lt;Announcement&gt; Announcements</text><line style="stroke:#181818;stroke-width:0.5;" x1="8" x2="774" y1="763.6211" y2="763.6211"/><text fill="#000000" font-family="sans-serif" font-size="14" lengthAdjust="spacing" textLength="756" x="13" y="782.7285">+createAnnouncement(AnnouncementRequestDTO announcementRequestDTO,double commission, double listedPrice)</text></g><!--class Address--><g id="elem_Address"><rect codeLine="85" fill="#F1F1F1" filter="url(#f1ahq2esxng4ou)" height="122.4844" id="Address" rx="2.5" ry="2.5" style="stroke:#181818;stroke-width:0.5;" width="146" x="1283" y="2009"/><ellipse cx="1325.9" cy="2025" fill="#ADD1B2" rx="11" ry="11" style="stroke:#181818;stroke-width:1.0;"/><path d="M1328.6656,2020.875 Q1328.8219,2020.6563 1329.0094,2020.5469 Q1329.1969,2020.4375 1329.4156,2020.4375 Q1329.7906,2020.4375 1330.025,2020.7031 Q1330.2594,2020.9531 1330.2594,2021.5625 L1330.2594,2023.0156 Q1330.2594,2023.625 1330.025,2023.8906 Q1329.7906,2024.1563 1329.4156,2024.1563 Q1329.0719,2024.1563 1328.8688,2023.9531 Q1328.6656,2023.7656 1328.5563,2023.25 Q1328.5094,2022.8906 1328.3219,2022.7031 Q1327.9938,2022.3281 1327.3844,2022.1094 Q1326.775,2021.8906 1326.15,2021.8906 Q1325.3844,2021.8906 1324.7438,2022.2188 Q1324.1188,2022.5469 1323.6188,2023.2969 Q1323.1344,2024.0469 1323.1344,2025.0781 L1323.1344,2026.1719 Q1323.1344,2027.4063 1324.025,2028.2344 Q1324.9156,2029.0469 1326.5094,2029.0469 Q1327.4469,2029.0469 1328.1031,2028.7969 Q1328.4938,2028.6406 1328.9156,2028.2031 Q1329.1813,2027.9375 1329.3219,2027.8594 Q1329.4781,2027.7813 1329.6813,2027.7813 Q1330.0094,2027.7813 1330.2594,2028.0469 Q1330.525,2028.2969 1330.525,2028.6406 Q1330.525,2028.9844 1330.1813,2029.3906 Q1329.6813,2029.9688 1328.8844,2030.2969 Q1327.8063,2030.75 1326.5094,2030.75 Q1324.9938,2030.75 1323.7906,2030.125 Q1322.8063,2029.625 1322.1188,2028.5625 Q1321.4313,2027.4844 1321.4313,2026.2031 L1321.4313,2025.0469 Q1321.4313,2023.7188 1322.0406,2022.5781 Q1322.6656,2021.4219 1323.7594,2020.8125 Q1324.8531,2020.1875 1326.0875,2020.1875 Q1326.8219,2020.1875 1327.4625,2020.3594 Q1328.1188,2020.5156 1328.6656,2020.875 Z " fill="#000000"/><text fill="#000000" font-family="sans-serif" font-size="14" lengthAdjust="spacing" textLength="52" x="1346.1" y="2030.7969">Address</text><line style="stroke:#181818;stroke-width:0.5;" x1="1284" x2="1428" y1="2041" y2="2041"/><text fill="#000000" font-family="sans-serif" font-size="14" lengthAdjust="spacing" textLength="134" x="1289" y="2060.1074">-String streetAddress</text><text fill="#000000" font-family="sans-serif" font-size="14" lengthAdjust="spacing" textLength="67" x="1289" y="2078.7285">-String city</text><text fill="#000000" font-family="sans-serif" font-size="14" lengthAdjust="spacing" textLength="77" x="1289" y="2097.3496">-String state</text><text fill="#000000" font-family="sans-serif" font-size="14" lengthAdjust="spacing" textLength="97" x="1289" y="2115.9707">-String zipCode</text><line style="stroke:#181818;stroke-width:0.5;" x1="1284" x2="1428" y1="2123.4844" y2="2123.4844"/></g><!--class Repositories--><g id="elem_Repositories"><rect codeLine="95" fill="#F1F1F1" filter="url(#f1ahq2esxng4ou)" height="122.4844" id="Repositories" rx="2.5" ry="2.5" style="stroke:#181818;stroke-width:0.5;" width="213" x="1331.5" y="484.5"/><ellipse cx="1394.25" cy="500.5" fill="#ADD1B2" rx="11" ry="11" style="stroke:#181818;stroke-width:1.0;"/><path d="M1397.0156,496.375 Q1397.1719,496.1563 1397.3594,496.0469 Q1397.5469,495.9375 1397.7656,495.9375 Q1398.1406,495.9375 1398.375,496.2031 Q1398.6094,496.4531 1398.6094,497.0625 L1398.6094,498.5156 Q1398.6094,499.125 1398.375,499.3906 Q1398.1406,499.6563 1397.7656,499.6563 Q1397.4219,499.6563 1397.2188,499.4531 Q1397.0156,499.2656 1396.9063,498.75 Q1396.8594,498.3906 1396.6719,498.2031 Q1396.3438,497.8281 1395.7344,497.6094 Q1395.125,497.3906 1394.5,497.3906 Q1393.7344,497.3906 1393.0938,497.7188 Q1392.4688,498.0469 1391.9688,498.7969 Q1391.4844,499.5469 1391.4844,500.5781 L1391.4844,501.6719 Q1391.4844,502.9063 1392.375,503.7344 Q1393.2656,504.5469 1394.8594,504.5469 Q1395.7969,504.5469 1396.4531,504.2969 Q1396.8438,504.1406 1397.2656,503.7031 Q1397.5313,503.4375 1397.6719,503.3594 Q1397.8281,503.2813 1398.0313,503.2813 Q1398.3594,503.2813 1398.6094,503.5469 Q1398.875,503.7969 1398.875,504.1406 Q1398.875,504.4844 1398.5313,504.8906 Q1398.0313,505.4688 1397.2344,505.7969 Q1396.1563,506.25 1394.8594,506.25 Q1393.3438,506.25 1392.1406,505.625 Q1391.1563,505.125 1390.4688,504.0625 Q1389.7813,502.9844 1389.7813,501.7031 L1389.7813,500.5469 Q1389.7813,499.2188 1390.3906,498.0781 Q1391.0156,496.9219 1392.1094,496.3125 Q1393.2031,495.6875 1394.4375,495.6875 Q1395.1719,495.6875 1395.8125,495.8594 Q1396.4688,496.0156 1397.0156,496.375 Z " fill="#000000"/><text fill="#000000" font-family="sans-serif" font-size="14" lengthAdjust="spacing" textLength="79" x="1414.75" y="506.2969">Repositories</text><line style="stroke:#181818;stroke-width:0.5;" x1="1332.5" x2="1543.5" y1="516.5" y2="516.5"/><line style="stroke:#181818;stroke-width:0.5;" x1="1332.5" x2="1543.5" y1="524.5" y2="524.5"/><text fill="#000000" font-family="sans-serif" font-size="14" lengthAdjust="spacing" textLength="94" x="1337.5" y="543.6074">-Repositories()</text><text fill="#000000" font-family="sans-serif" font-size="14" lengthAdjust="spacing" textLength="182" x="1337.5" y="562.2285">+getInstance() : Repositories</text><text fill="#000000" font-family="sans-serif" font-size="14" lengthAdjust="spacing" textLength="193" x="1337.5" y="580.8496">+getAnnouncementRequests()</text><text fill="#000000" font-family="sans-serif" font-size="14" lengthAdjust="spacing" textLength="201" x="1337.5" y="599.4707">+getAnnouncementRepository()</text></g><!--class BusinessType--><g id="elem_BusinessType"><rect codeLine="104" fill="#F1F1F1" filter="url(#f1ahq2esxng4ou)" height="66.6211" id="BusinessType" rx="2.5" ry="2.5" style="stroke:#181818;stroke-width:0.5;" width="127" x="792.5" y="1146"/><ellipse cx="810.2" cy="1162" fill="#ADD1B2" rx="11" ry="11" style="stroke:#181818;stroke-width:1.0;"/><path d="M812.9656,1157.875 Q813.1219,1157.6563 813.3094,1157.5469 Q813.4969,1157.4375 813.7156,1157.4375 Q814.0906,1157.4375 814.325,1157.7031 Q814.5594,1157.9531 814.5594,1158.5625 L814.5594,1160.0156 Q814.5594,1160.625 814.325,1160.8906 Q814.0906,1161.1563 813.7156,1161.1563 Q813.3719,1161.1563 813.1688,1160.9531 Q812.9656,1160.7656 812.8563,1160.25 Q812.8094,1159.8906 812.6219,1159.7031 Q812.2938,1159.3281 811.6844,1159.1094 Q811.075,1158.8906 810.45,1158.8906 Q809.6844,1158.8906 809.0438,1159.2188 Q808.4188,1159.5469 807.9188,1160.2969 Q807.4344,1161.0469 807.4344,1162.0781 L807.4344,1163.1719 Q807.4344,1164.4063 808.325,1165.2344 Q809.2156,1166.0469 810.8094,1166.0469 Q811.7469,1166.0469 812.4031,1165.7969 Q812.7938,1165.6406 813.2156,1165.2031 Q813.4813,1164.9375 813.6219,1164.8594 Q813.7781,1164.7813 813.9813,1164.7813 Q814.3094,1164.7813 814.5594,1165.0469 Q814.825,1165.2969 814.825,1165.6406 Q814.825,1165.9844 814.4813,1166.3906 Q813.9813,1166.9688 813.1844,1167.2969 Q812.1063,1167.75 810.8094,1167.75 Q809.2938,1167.75 808.0906,1167.125 Q807.1063,1166.625 806.4188,1165.5625 Q805.7313,1164.4844 805.7313,1163.2031 L805.7313,1162.0469 Q805.7313,1160.7188 806.3406,1159.5781 Q806.9656,1158.4219 808.0594,1157.8125 Q809.1531,1157.1875 810.3875,1157.1875 Q811.1219,1157.1875 811.7625,1157.3594 Q812.4188,1157.5156 812.9656,1157.875 Z " fill="#000000"/><text fill="#000000" font-family="sans-serif" font-size="14" lengthAdjust="spacing" textLength="89" x="824.8" y="1167.7969">BusinessType</text><line style="stroke:#181818;stroke-width:0.5;" x1="793.5" x2="918.5" y1="1178" y2="1178"/><text fill="#000000" font-family="sans-serif" font-size="14" lengthAdjust="spacing" textLength="115" x="798.5" y="1197.1074">-String description</text><line style="stroke:#181818;stroke-width:0.5;" x1="793.5" x2="918.5" y1="1204.6211" y2="1204.6211"/></g><!--class PropertyType--><g id="elem_PropertyType"><rect codeLine="110" fill="#F1F1F1" filter="url(#f1ahq2esxng4ou)" height="66.6211" id="PropertyType" rx="2.5" ry="2.5" style="stroke:#181818;stroke-width:0.5;" width="127" x="1720.5" y="1826"/><ellipse cx="1739.55" cy="1842" fill="#ADD1B2" rx="11" ry="11" style="stroke:#181818;stroke-width:1.0;"/><path d="M1742.3156,1837.875 Q1742.4719,1837.6563 1742.6594,1837.5469 Q1742.8469,1837.4375 1743.0656,1837.4375 Q1743.4406,1837.4375 1743.675,1837.7031 Q1743.9094,1837.9531 1743.9094,1838.5625 L1743.9094,1840.0156 Q1743.9094,1840.625 1743.675,1840.8906 Q1743.4406,1841.1563 1743.0656,1841.1563 Q1742.7219,1841.1563 1742.5188,1840.9531 Q1742.3156,1840.7656 1742.2063,1840.25 Q1742.1594,1839.8906 1741.9719,1839.7031 Q1741.6438,1839.3281 1741.0344,1839.1094 Q1740.425,1838.8906 1739.8,1838.8906 Q1739.0344,1838.8906 1738.3938,1839.2188 Q1737.7688,1839.5469 1737.2688,1840.2969 Q1736.7844,1841.0469 1736.7844,1842.0781 L1736.7844,1843.1719 Q1736.7844,1844.4063 1737.675,1845.2344 Q1738.5656,1846.0469 1740.1594,1846.0469 Q1741.0969,1846.0469 1741.7531,1845.7969 Q1742.1438,1845.6406 1742.5656,1845.2031 Q1742.8313,1844.9375 1742.9719,1844.8594 Q1743.1281,1844.7813 1743.3313,1844.7813 Q1743.6594,1844.7813 1743.9094,1845.0469 Q1744.175,1845.2969 1744.175,1845.6406 Q1744.175,1845.9844 1743.8313,1846.3906 Q1743.3313,1846.9688 1742.5344,1847.2969 Q1741.4563,1847.75 1740.1594,1847.75 Q1738.6438,1847.75 1737.4406,1847.125 Q1736.4563,1846.625 1735.7688,1845.5625 Q1735.0813,1844.4844 1735.0813,1843.2031 L1735.0813,1842.0469 Q1735.0813,1840.7188 1735.6906,1839.5781 Q1736.3156,1838.4219 1737.4094,1837.8125 Q1738.5031,1837.1875 1739.7375,1837.1875 Q1740.4719,1837.1875 1741.1125,1837.3594 Q1741.7688,1837.5156 1742.3156,1837.875 Z " fill="#000000"/><text fill="#000000" font-family="sans-serif" font-size="14" lengthAdjust="spacing" textLength="86" x="1754.45" y="1847.7969">PropertyType</text><line style="stroke:#181818;stroke-width:0.5;" x1="1721.5" x2="1846.5" y1="1858" y2="1858"/><text fill="#000000" font-family="sans-serif" font-size="14" lengthAdjust="spacing" textLength="115" x="1726.5" y="1877.1074">-String description</text><line style="stroke:#181818;stroke-width:0.5;" x1="1721.5" x2="1846.5" y1="1884.6211" y2="1884.6211"/></g><!--class Agent--><g id="elem_Agent"><rect codeLine="114" fill="#F1F1F1" filter="url(#f1ahq2esxng4ou)" height="48" id="Agent" rx="2.5" ry="2.5" style="stroke:#181818;stroke-width:0.5;" width="69" x="1190.5" y="1308"/><ellipse cx="1205.5" cy="1324" fill="#ADD1B2" rx="11" ry="11" style="stroke:#181818;stroke-width:1.0;"/><path d="M1208.2656,1319.875 Q1208.4219,1319.6563 1208.6094,1319.5469 Q1208.7969,1319.4375 1209.0156,1319.4375 Q1209.3906,1319.4375 1209.625,1319.7031 Q1209.8594,1319.9531 1209.8594,1320.5625 L1209.8594,1322.0156 Q1209.8594,1322.625 1209.625,1322.8906 Q1209.3906,1323.1563 1209.0156,1323.1563 Q1208.6719,1323.1563 1208.4688,1322.9531 Q1208.2656,1322.7656 1208.1563,1322.25 Q1208.1094,1321.8906 1207.9219,1321.7031 Q1207.5938,1321.3281 1206.9844,1321.1094 Q1206.375,1320.8906 1205.75,1320.8906 Q1204.9844,1320.8906 1204.3438,1321.2188 Q1203.7188,1321.5469 1203.2188,1322.2969 Q1202.7344,1323.0469 1202.7344,1324.0781 L1202.7344,1325.1719 Q1202.7344,1326.4063 1203.625,1327.2344 Q1204.5156,1328.0469 1206.1094,1328.0469 Q1207.0469,1328.0469 1207.7031,1327.7969 Q1208.0938,1327.6406 1208.5156,1327.2031 Q1208.7813,1326.9375 1208.9219,1326.8594 Q1209.0781,1326.7813 1209.2813,1326.7813 Q1209.6094,1326.7813 1209.8594,1327.0469 Q1210.125,1327.2969 1210.125,1327.6406 Q1210.125,1327.9844 1209.7813,1328.3906 Q1209.2813,1328.9688 1208.4844,1329.2969 Q1207.4063,1329.75 1206.1094,1329.75 Q1204.5938,1329.75 1203.3906,1329.125 Q1202.4063,1328.625 1201.7188,1327.5625 Q1201.0313,1326.4844 1201.0313,1325.2031 L1201.0313,1324.0469 Q1201.0313,1322.7188 1201.6406,1321.5781 Q1202.2656,1320.4219 1203.3594,1319.8125 Q1204.4531,1319.1875 1205.6875,1319.1875 Q1206.4219,1319.1875 1207.0625,1319.3594 Q1207.7188,1319.5156 1208.2656,1319.875 Z " fill="#000000"/><text fill="#000000" font-family="sans-serif" font-size="14" lengthAdjust="spacing" textLength="37" x="1219.5" y="1329.7969">Agent</text><line style="stroke:#181818;stroke-width:0.5;" x1="1191.5" x2="1258.5" y1="1340" y2="1340"/><line style="stroke:#181818;stroke-width:0.5;" x1="1191.5" x2="1258.5" y1="1348" y2="1348"/></g><!--class Person--><g id="elem_Person"><rect codeLine="117" fill="#F1F1F1" filter="url(#f1ahq2esxng4ou)" height="141.1055" id="Person" rx="2.5" ry="2.5" style="stroke:#181818;stroke-width:0.5;" width="169" x="1026.5" y="1386"/><ellipse cx="1084.25" cy="1402" fill="#ADD1B2" rx="11" ry="11" style="stroke:#181818;stroke-width:1.0;"/><path d="M1087.0156,1397.875 Q1087.1719,1397.6563 1087.3594,1397.5469 Q1087.5469,1397.4375 1087.7656,1397.4375 Q1088.1406,1397.4375 1088.375,1397.7031 Q1088.6094,1397.9531 1088.6094,1398.5625 L1088.6094,1400.0156 Q1088.6094,1400.625 1088.375,1400.8906 Q1088.1406,1401.1563 1087.7656,1401.1563 Q1087.4219,1401.1563 1087.2188,1400.9531 Q1087.0156,1400.7656 1086.9063,1400.25 Q1086.8594,1399.8906 1086.6719,1399.7031 Q1086.3438,1399.3281 1085.7344,1399.1094 Q1085.125,1398.8906 1084.5,1398.8906 Q1083.7344,1398.8906 1083.0938,1399.2188 Q1082.4688,1399.5469 1081.9688,1400.2969 Q1081.4844,1401.0469 1081.4844,1402.0781 L1081.4844,1403.1719 Q1081.4844,1404.4063 1082.375,1405.2344 Q1083.2656,1406.0469 1084.8594,1406.0469 Q1085.7969,1406.0469 1086.4531,1405.7969 Q1086.8438,1405.6406 1087.2656,1405.2031 Q1087.5313,1404.9375 1087.6719,1404.8594 Q1087.8281,1404.7813 1088.0313,1404.7813 Q1088.3594,1404.7813 1088.6094,1405.0469 Q1088.875,1405.2969 1088.875,1405.6406 Q1088.875,1405.9844 1088.5313,1406.3906 Q1088.0313,1406.9688 1087.2344,1407.2969 Q1086.1563,1407.75 1084.8594,1407.75 Q1083.3438,1407.75 1082.1406,1407.125 Q1081.1563,1406.625 1080.4688,1405.5625 Q1079.7813,1404.4844 1079.7813,1403.2031 L1079.7813,1402.0469 Q1079.7813,1400.7188 1080.3906,1399.5781 Q1081.0156,1398.4219 1082.1094,1397.8125 Q1083.2031,1397.1875 1084.4375,1397.1875 Q1085.1719,1397.1875 1085.8125,1397.3594 Q1086.4688,1397.5156 1087.0156,1397.875 Z " fill="#000000"/><text fill="#000000" font-family="sans-serif" font-size="14" lengthAdjust="spacing" textLength="45" x="1104.75" y="1407.7969">Person</text><line style="stroke:#181818;stroke-width:0.5;" x1="1027.5" x2="1194.5" y1="1418" y2="1418"/><text fill="#000000" font-family="sans-serif" font-size="14" lengthAdjust="spacing" textLength="79" x="1032.5" y="1437.1074">-String email</text><text fill="#000000" font-family="sans-serif" font-size="14" lengthAdjust="spacing" textLength="81" x="1032.5" y="1455.7285">-String name</text><text fill="#000000" font-family="sans-serif" font-size="14" lengthAdjust="spacing" textLength="157" x="1032.5" y="1474.3496">-Integer passportNumber</text><text fill="#000000" font-family="sans-serif" font-size="14" lengthAdjust="spacing" textLength="142" x="1032.5" y="1492.9707">-Integer phoneNumber</text><text fill="#000000" font-family="sans-serif" font-size="14" lengthAdjust="spacing" textLength="113" x="1032.5" y="1511.5918">-String taxNumber</text><line style="stroke:#181818;stroke-width:0.5;" x1="1027.5" x2="1194.5" y1="1519.1055" y2="1519.1055"/></g><!--class Property--><g id="elem_Property"><rect codeLine="126" fill="#F1F1F1" filter="url(#f1ahq2esxng4ou)" height="122.4844" id="Property" rx="2.5" ry="2.5" style="stroke:#181818;stroke-width:0.5;" width="177" x="1478.5" y="1588"/><ellipse cx="1535.75" cy="1604" fill="#ADD1B2" rx="11" ry="11" style="stroke:#181818;stroke-width:1.0;"/><path d="M1538.5156,1599.875 Q1538.6719,1599.6563 1538.8594,1599.5469 Q1539.0469,1599.4375 1539.2656,1599.4375 Q1539.6406,1599.4375 1539.875,1599.7031 Q1540.1094,1599.9531 1540.1094,1600.5625 L1540.1094,1602.0156 Q1540.1094,1602.625 1539.875,1602.8906 Q1539.6406,1603.1563 1539.2656,1603.1563 Q1538.9219,1603.1563 1538.7188,1602.9531 Q1538.5156,1602.7656 1538.4063,1602.25 Q1538.3594,1601.8906 1538.1719,1601.7031 Q1537.8438,1601.3281 1537.2344,1601.1094 Q1536.625,1600.8906 1536,1600.8906 Q1535.2344,1600.8906 1534.5938,1601.2188 Q1533.9688,1601.5469 1533.4688,1602.2969 Q1532.9844,1603.0469 1532.9844,1604.0781 L1532.9844,1605.1719 Q1532.9844,1606.4063 1533.875,1607.2344 Q1534.7656,1608.0469 1536.3594,1608.0469 Q1537.2969,1608.0469 1537.9531,1607.7969 Q1538.3438,1607.6406 1538.7656,1607.2031 Q1539.0313,1606.9375 1539.1719,1606.8594 Q1539.3281,1606.7813 1539.5313,1606.7813 Q1539.8594,1606.7813 1540.1094,1607.0469 Q1540.375,1607.2969 1540.375,1607.6406 Q1540.375,1607.9844 1540.0313,1608.3906 Q1539.5313,1608.9688 1538.7344,1609.2969 Q1537.6563,1609.75 1536.3594,1609.75 Q1534.8438,1609.75 1533.6406,1609.125 Q1532.6563,1608.625 1531.9688,1607.5625 Q1531.2813,1606.4844 1531.2813,1605.2031 L1531.2813,1604.0469 Q1531.2813,1602.7188 1531.8906,1601.5781 Q1532.5156,1600.4219 1533.6094,1599.8125 Q1534.7031,1599.1875 1535.9375,1599.1875 Q1536.6719,1599.1875 1537.3125,1599.3594 Q1537.9688,1599.5156 1538.5156,1599.875 Z " fill="#000000"/><text fill="#000000" font-family="sans-serif" font-size="14" lengthAdjust="spacing" textLength="54" x="1556.25" y="1609.7969">Property</text><line style="stroke:#181818;stroke-width:0.5;" x1="1479.5" x2="1654.5" y1="1620" y2="1620"/><text fill="#000000" font-family="sans-serif" font-size="14" lengthAdjust="spacing" textLength="83" x="1484.5" y="1639.1074">-double price</text><text fill="#000000" font-family="sans-serif" font-size="14" lengthAdjust="spacing" textLength="81" x="1484.5" y="1657.7285">-double area</text><text fill="#000000" font-family="sans-serif" font-size="14" lengthAdjust="spacing" textLength="165" x="1484.5" y="1676.3496">-double distanceToCentre</text><text fill="#000000" font-family="sans-serif" font-size="14" lengthAdjust="spacing" textLength="164" x="1484.5" y="1694.9707">-List&lt;String&gt; photographs</text><line style="stroke:#181818;stroke-width:0.5;" x1="1479.5" x2="1654.5" y1="1702.4844" y2="1702.4844"/></g><!--class Inhabitable--><g id="elem_Inhabitable"><rect codeLine="134" fill="#F1F1F1" filter="url(#f1ahq2esxng4ou)" height="103.8633" id="Inhabitable" rx="2.5" ry="2.5" style="stroke:#181818;stroke-width:0.5;" width="201" x="1800.5" y="2192"/><ellipse cx="1862.25" cy="2208" fill="#ADD1B2" rx="11" ry="11" style="stroke:#181818;stroke-width:1.0;"/><path d="M1865.0156,2203.875 Q1865.1719,2203.6563 1865.3594,2203.5469 Q1865.5469,2203.4375 1865.7656,2203.4375 Q1866.1406,2203.4375 1866.375,2203.7031 Q1866.6094,2203.9531 1866.6094,2204.5625 L1866.6094,2206.0156 Q1866.6094,2206.625 1866.375,2206.8906 Q1866.1406,2207.1563 1865.7656,2207.1563 Q1865.4219,2207.1563 1865.2188,2206.9531 Q1865.0156,2206.7656 1864.9063,2206.25 Q1864.8594,2205.8906 1864.6719,2205.7031 Q1864.3438,2205.3281 1863.7344,2205.1094 Q1863.125,2204.8906 1862.5,2204.8906 Q1861.7344,2204.8906 1861.0938,2205.2188 Q1860.4688,2205.5469 1859.9688,2206.2969 Q1859.4844,2207.0469 1859.4844,2208.0781 L1859.4844,2209.1719 Q1859.4844,2210.4063 1860.375,2211.2344 Q1861.2656,2212.0469 1862.8594,2212.0469 Q1863.7969,2212.0469 1864.4531,2211.7969 Q1864.8438,2211.6406 1865.2656,2211.2031 Q1865.5313,2210.9375 1865.6719,2210.8594 Q1865.8281,2210.7813 1866.0313,2210.7813 Q1866.3594,2210.7813 1866.6094,2211.0469 Q1866.875,2211.2969 1866.875,2211.6406 Q1866.875,2211.9844 1866.5313,2212.3906 Q1866.0313,2212.9688 1865.2344,2213.2969 Q1864.1563,2213.75 1862.8594,2213.75 Q1861.3438,2213.75 1860.1406,2213.125 Q1859.1563,2212.625 1858.4688,2211.5625 Q1857.7813,2210.4844 1857.7813,2209.2031 L1857.7813,2208.0469 Q1857.7813,2206.7188 1858.3906,2205.5781 Q1859.0156,2204.4219 1860.1094,2203.8125 Q1861.2031,2203.1875 1862.4375,2203.1875 Q1863.1719,2203.1875 1863.8125,2203.3594 Q1864.4688,2203.5156 1865.0156,2203.875 Z " fill="#000000"/><text fill="#000000" font-family="sans-serif" font-size="14" lengthAdjust="spacing" textLength="69" x="1882.75" y="2213.7969">Inhabitable</text><line style="stroke:#181818;stroke-width:0.5;" x1="1801.5" x2="2000.5" y1="2224" y2="2224"/><text fill="#000000" font-family="sans-serif" font-size="14" lengthAdjust="spacing" textLength="158" x="1806.5" y="2243.1074">-Integer bedroomNumber</text><text fill="#000000" font-family="sans-serif" font-size="14" lengthAdjust="spacing" textLength="162" x="1806.5" y="2261.7285">-Integer bathroomNumber</text><text fill="#000000" font-family="sans-serif" font-size="14" lengthAdjust="spacing" textLength="189" x="1806.5" y="2280.3496">-Integer parkingSpaceNumber</text><line style="stroke:#181818;stroke-width:0.5;" x1="1801.5" x2="2000.5" y1="2287.8633" y2="2287.8633"/></g><!--class DateTime--><g id="elem_DateTime"><rect codeLine="144" fill="#F1F1F1" filter="url(#f1ahq2esxng4ou)" height="66.6211" id="DateTime" rx="2.5" ry="2.5" style="stroke:#181818;stroke-width:0.5;" width="107" x="689.5" y="1615.5"/><ellipse cx="710.8" cy="1631.5" fill="#ADD1B2" rx="11" ry="11" style="stroke:#181818;stroke-width:1.0;"/><path d="M713.5656,1627.375 Q713.7219,1627.1563 713.9094,1627.0469 Q714.0969,1626.9375 714.3156,1626.9375 Q714.6906,1626.9375 714.925,1627.2031 Q715.1594,1627.4531 715.1594,1628.0625 L715.1594,1629.5156 Q715.1594,1630.125 714.925,1630.3906 Q714.6906,1630.6563 714.3156,1630.6563 Q713.9719,1630.6563 713.7688,1630.4531 Q713.5656,1630.2656 713.4563,1629.75 Q713.4094,1629.3906 713.2219,1629.2031 Q712.8938,1628.8281 712.2844,1628.6094 Q711.675,1628.3906 711.05,1628.3906 Q710.2844,1628.3906 709.6438,1628.7188 Q709.0188,1629.0469 708.5188,1629.7969 Q708.0344,1630.5469 708.0344,1631.5781 L708.0344,1632.6719 Q708.0344,1633.9063 708.925,1634.7344 Q709.8156,1635.5469 711.4094,1635.5469 Q712.3469,1635.5469 713.0031,1635.2969 Q713.3938,1635.1406 713.8156,1634.7031 Q714.0813,1634.4375 714.2219,1634.3594 Q714.3781,1634.2813 714.5813,1634.2813 Q714.9094,1634.2813 715.1594,1634.5469 Q715.425,1634.7969 715.425,1635.1406 Q715.425,1635.4844 715.0813,1635.8906 Q714.5813,1636.4688 713.7844,1636.7969 Q712.7063,1637.25 711.4094,1637.25 Q709.8938,1637.25 708.6906,1636.625 Q707.7063,1636.125 707.0188,1635.0625 Q706.3313,1633.9844 706.3313,1632.7031 L706.3313,1631.5469 Q706.3313,1630.2188 706.9406,1629.0781 Q707.5656,1627.9219 708.6594,1627.3125 Q709.7531,1626.6875 710.9875,1626.6875 Q711.7219,1626.6875 712.3625,1626.8594 Q713.0188,1627.0156 713.5656,1627.375 Z " fill="#000000"/><text fill="#000000" font-family="sans-serif" font-size="14" lengthAdjust="spacing" textLength="61" x="726.2" y="1637.2969">DateTime</text><line style="stroke:#181818;stroke-width:0.5;" x1="690.5" x2="795.5" y1="1647.5" y2="1647.5"/><text fill="#000000" font-family="sans-serif" font-size="14" lengthAdjust="spacing" textLength="95" x="695.5" y="1666.6074">-Calendar date</text><line style="stroke:#181818;stroke-width:0.5;" x1="690.5" x2="795.5" y1="1674.1211" y2="1674.1211"/></g><!--class Photograph--><g id="elem_Photograph"><rect codeLine="151" fill="#F1F1F1" filter="url(#f1ahq2esxng4ou)" height="66.6211" id="Photograph" rx="2.5" ry="2.5" style="stroke:#181818;stroke-width:0.5;" width="106" x="1579" y="1826"/><ellipse cx="1594" cy="1842" fill="#ADD1B2" rx="11" ry="11" style="stroke:#181818;stroke-width:1.0;"/><path d="M1596.7656,1837.875 Q1596.9219,1837.6563 1597.1094,1837.5469 Q1597.2969,1837.4375 1597.5156,1837.4375 Q1597.8906,1837.4375 1598.125,1837.7031 Q1598.3594,1837.9531 1598.3594,1838.5625 L1598.3594,1840.0156 Q1598.3594,1840.625 1598.125,1840.8906 Q1597.8906,1841.1563 1597.5156,1841.1563 Q1597.1719,1841.1563 1596.9688,1840.9531 Q1596.7656,1840.7656 1596.6563,1840.25 Q1596.6094,1839.8906 1596.4219,1839.7031 Q1596.0938,1839.3281 1595.4844,1839.1094 Q1594.875,1838.8906 1594.25,1838.8906 Q1593.4844,1838.8906 1592.8438,1839.2188 Q1592.2188,1839.5469 1591.7188,1840.2969 Q1591.2344,1841.0469 1591.2344,1842.0781 L1591.2344,1843.1719 Q1591.2344,1844.4063 1592.125,1845.2344 Q1593.0156,1846.0469 1594.6094,1846.0469 Q1595.5469,1846.0469 1596.2031,1845.7969 Q1596.5938,1845.6406 1597.0156,1845.2031 Q1597.2813,1844.9375 1597.4219,1844.8594 Q1597.5781,1844.7813 1597.7813,1844.7813 Q1598.1094,1844.7813 1598.3594,1845.0469 Q1598.625,1845.2969 1598.625,1845.6406 Q1598.625,1845.9844 1598.2813,1846.3906 Q1597.7813,1846.9688 1596.9844,1847.2969 Q1595.9063,1847.75 1594.6094,1847.75 Q1593.0938,1847.75 1591.8906,1847.125 Q1590.9063,1846.625 1590.2188,1845.5625 Q1589.5313,1844.4844 1589.5313,1843.2031 L1589.5313,1842.0469 Q1589.5313,1840.7188 1590.1406,1839.5781 Q1590.7656,1838.4219 1591.8594,1837.8125 Q1592.9531,1837.1875 1594.1875,1837.1875 Q1594.9219,1837.1875 1595.5625,1837.3594 Q1596.2188,1837.5156 1596.7656,1837.875 Z " fill="#000000"/><text fill="#000000" font-family="sans-serif" font-size="14" lengthAdjust="spacing" textLength="74" x="1608" y="1847.7969">Photograph</text><line style="stroke:#181818;stroke-width:0.5;" x1="1580" x2="1684" y1="1858" y2="1858"/><text fill="#000000" font-family="sans-serif" font-size="14" lengthAdjust="spacing" textLength="68" x="1585" y="1877.1074">-String URI</text><line style="stroke:#181818;stroke-width:0.5;" x1="1580" x2="1684" y1="1884.6211" y2="1884.6211"/></g><!--class Employee--><g id="elem_Employee"><rect codeLine="155" fill="#F1F1F1" filter="url(#f1ahq2esxng4ou)" height="66.6211" id="Employee" rx="2.5" ry="2.5" style="stroke:#181818;stroke-width:0.5;" width="112" x="1193" y="1615.5"/><ellipse cx="1216.1" cy="1631.5" fill="#ADD1B2" rx="11" ry="11" style="stroke:#181818;stroke-width:1.0;"/><path d="M1218.8656,1627.375 Q1219.0219,1627.1563 1219.2094,1627.0469 Q1219.3969,1626.9375 1219.6156,1626.9375 Q1219.9906,1626.9375 1220.225,1627.2031 Q1220.4594,1627.4531 1220.4594,1628.0625 L1220.4594,1629.5156 Q1220.4594,1630.125 1220.225,1630.3906 Q1219.9906,1630.6563 1219.6156,1630.6563 Q1219.2719,1630.6563 1219.0688,1630.4531 Q1218.8656,1630.2656 1218.7563,1629.75 Q1218.7094,1629.3906 1218.5219,1629.2031 Q1218.1938,1628.8281 1217.5844,1628.6094 Q1216.975,1628.3906 1216.35,1628.3906 Q1215.5844,1628.3906 1214.9438,1628.7188 Q1214.3188,1629.0469 1213.8188,1629.7969 Q1213.3344,1630.5469 1213.3344,1631.5781 L1213.3344,1632.6719 Q1213.3344,1633.9063 1214.225,1634.7344 Q1215.1156,1635.5469 1216.7094,1635.5469 Q1217.6469,1635.5469 1218.3031,1635.2969 Q1218.6938,1635.1406 1219.1156,1634.7031 Q1219.3813,1634.4375 1219.5219,1634.3594 Q1219.6781,1634.2813 1219.8813,1634.2813 Q1220.2094,1634.2813 1220.4594,1634.5469 Q1220.725,1634.7969 1220.725,1635.1406 Q1220.725,1635.4844 1220.3813,1635.8906 Q1219.8813,1636.4688 1219.0844,1636.7969 Q1218.0063,1637.25 1216.7094,1637.25 Q1215.1938,1637.25 1213.9906,1636.625 Q1213.0063,1636.125 1212.3188,1635.0625 Q1211.6313,1633.9844 1211.6313,1632.7031 L1211.6313,1631.5469 Q1211.6313,1630.2188 1212.2406,1629.0781 Q1212.8656,1627.9219 1213.9594,1627.3125 Q1215.0531,1626.6875 1216.2875,1626.6875 Q1217.0219,1626.6875 1217.6625,1626.8594 Q1218.3188,1627.0156 1218.8656,1627.375 Z " fill="#000000"/><text fill="#000000" font-family="sans-serif" font-size="14" lengthAdjust="spacing" textLength="62" x="1231.9" y="1637.2969">Employee</text><line style="stroke:#181818;stroke-width:0.5;" x1="1194" x2="1304" y1="1647.5" y2="1647.5"/><text fill="#000000" font-family="sans-serif" font-size="14" lengthAdjust="spacing" textLength="100" x="1199" y="1666.6074">-List&lt;Role&gt; role</text><line style="stroke:#181818;stroke-width:0.5;" x1="1194" x2="1304" y1="1674.1211" y2="1674.1211"/></g><!--class House--><g id="elem_House"><rect codeLine="161" fill="#F1F1F1" filter="url(#f1ahq2esxng4ou)" height="103.8633" id="House" rx="2.5" ry="2.5" style="stroke:#181818;stroke-width:0.5;" width="159" x="1821.5" y="2357"/><ellipse cx="1876.75" cy="2373" fill="#ADD1B2" rx="11" ry="11" style="stroke:#181818;stroke-width:1.0;"/><path d="M1879.5156,2368.875 Q1879.6719,2368.6563 1879.8594,2368.5469 Q1880.0469,2368.4375 1880.2656,2368.4375 Q1880.6406,2368.4375 1880.875,2368.7031 Q1881.1094,2368.9531 1881.1094,2369.5625 L1881.1094,2371.0156 Q1881.1094,2371.625 1880.875,2371.8906 Q1880.6406,2372.1563 1880.2656,2372.1563 Q1879.9219,2372.1563 1879.7188,2371.9531 Q1879.5156,2371.7656 1879.4063,2371.25 Q1879.3594,2370.8906 1879.1719,2370.7031 Q1878.8438,2370.3281 1878.2344,2370.1094 Q1877.625,2369.8906 1877,2369.8906 Q1876.2344,2369.8906 1875.5938,2370.2188 Q1874.9688,2370.5469 1874.4688,2371.2969 Q1873.9844,2372.0469 1873.9844,2373.0781 L1873.9844,2374.1719 Q1873.9844,2375.4063 1874.875,2376.2344 Q1875.7656,2377.0469 1877.3594,2377.0469 Q1878.2969,2377.0469 1878.9531,2376.7969 Q1879.3438,2376.6406 1879.7656,2376.2031 Q1880.0313,2375.9375 1880.1719,2375.8594 Q1880.3281,2375.7813 1880.5313,2375.7813 Q1880.8594,2375.7813 1881.1094,2376.0469 Q1881.375,2376.2969 1881.375,2376.6406 Q1881.375,2376.9844 1881.0313,2377.3906 Q1880.5313,2377.9688 1879.7344,2378.2969 Q1878.6563,2378.75 1877.3594,2378.75 Q1875.8438,2378.75 1874.6406,2378.125 Q1873.6563,2377.625 1872.9688,2376.5625 Q1872.2813,2375.4844 1872.2813,2374.2031 L1872.2813,2373.0469 Q1872.2813,2371.7188 1872.8906,2370.5781 Q1873.5156,2369.4219 1874.6094,2368.8125 Q1875.7031,2368.1875 1876.9375,2368.1875 Q1877.6719,2368.1875 1878.3125,2368.3594 Q1878.9688,2368.5156 1879.5156,2368.875 Z " fill="#000000"/><text fill="#000000" font-family="sans-serif" font-size="14" lengthAdjust="spacing" textLength="40" x="1897.25" y="2378.7969">House</text><line style="stroke:#181818;stroke-width:0.5;" x1="1822.5" x2="1979.5" y1="2389" y2="2389"/><text fill="#000000" font-family="sans-serif" font-size="14" lengthAdjust="spacing" textLength="147" x="1827.5" y="2408.1074">-Boolean hasBasement</text><text fill="#000000" font-family="sans-serif" font-size="14" lengthAdjust="spacing" textLength="108" x="1827.5" y="2426.7285">-Boolean hasLoft</text><text fill="#000000" font-family="sans-serif" font-size="14" lengthAdjust="spacing" textLength="128" x="1827.5" y="2445.3496">-String sunExposure</text><line style="stroke:#181818;stroke-width:0.5;" x1="1822.5" x2="1979.5" y1="2452.8633" y2="2452.8633"/></g><!--class AnnouncementRequest--><g id="elem_AnnouncementRequest"><rect codeLine="168" fill="#F1F1F1" filter="url(#f1ahq2esxng4ou)" height="85.2422" id="AnnouncementRequest" rx="2.5" ry="2.5" style="stroke:#181818;stroke-width:0.5;" width="180" x="926" y="917"/><ellipse cx="941" cy="933" fill="#ADD1B2" rx="11" ry="11" style="stroke:#181818;stroke-width:1.0;"/><path d="M943.7656,928.875 Q943.9219,928.6563 944.1094,928.5469 Q944.2969,928.4375 944.5156,928.4375 Q944.8906,928.4375 945.125,928.7031 Q945.3594,928.9531 945.3594,929.5625 L945.3594,931.0156 Q945.3594,931.625 945.125,931.8906 Q944.8906,932.1563 944.5156,932.1563 Q944.1719,932.1563 943.9688,931.9531 Q943.7656,931.7656 943.6563,931.25 Q943.6094,930.8906 943.4219,930.7031 Q943.0938,930.3281 942.4844,930.1094 Q941.875,929.8906 941.25,929.8906 Q940.4844,929.8906 939.8438,930.2188 Q939.2188,930.5469 938.7188,931.2969 Q938.2344,932.0469 938.2344,933.0781 L938.2344,934.1719 Q938.2344,935.4063 939.125,936.2344 Q940.0156,937.0469 941.6094,937.0469 Q942.5469,937.0469 943.2031,936.7969 Q943.5938,936.6406 944.0156,936.2031 Q944.2813,935.9375 944.4219,935.8594 Q944.5781,935.7813 944.7813,935.7813 Q945.1094,935.7813 945.3594,936.0469 Q945.625,936.2969 945.625,936.6406 Q945.625,936.9844 945.2813,937.3906 Q944.7813,937.9688 943.9844,938.2969 Q942.9063,938.75 941.6094,938.75 Q940.0938,938.75 938.8906,938.125 Q937.9063,937.625 937.2188,936.5625 Q936.5313,935.4844 936.5313,934.2031 L936.5313,933.0469 Q936.5313,931.7188 937.1406,930.5781 Q937.7656,929.4219 938.8594,928.8125 Q939.9531,928.1875 941.1875,928.1875 Q941.9219,928.1875 942.5625,928.3594 Q943.2188,928.5156 943.7656,928.875 Z " fill="#000000"/><text fill="#000000" font-family="sans-serif" font-size="14" lengthAdjust="spacing" textLength="148" x="955" y="938.7969">AnnouncementRequest</text><line style="stroke:#181818;stroke-width:0.5;" x1="927" x2="1105" y1="949" y2="949"/><text fill="#000000" font-family="sans-serif" font-size="14" lengthAdjust="spacing" textLength="132" x="932" y="968.1074">-Integer rentDuration</text><text fill="#000000" font-family="sans-serif" font-size="14" lengthAdjust="spacing" textLength="98" x="932" y="986.7285">-boolean status</text><line style="stroke:#181818;stroke-width:0.5;" x1="927" x2="1105" y1="994.2422" y2="994.2422"/></g><!--class Client--><g id="elem_Client"><rect codeLine="174" fill="#F1F1F1" filter="url(#f1ahq2esxng4ou)" height="48" id="Client" rx="2.5" ry="2.5" style="stroke:#181818;stroke-width:0.5;" width="68" x="1051" y="1155.5"/><ellipse cx="1066" cy="1171.5" fill="#ADD1B2" rx="11" ry="11" style="stroke:#181818;stroke-width:1.0;"/><path d="M1068.7656,1167.375 Q1068.9219,1167.1563 1069.1094,1167.0469 Q1069.2969,1166.9375 1069.5156,1166.9375 Q1069.8906,1166.9375 1070.125,1167.2031 Q1070.3594,1167.4531 1070.3594,1168.0625 L1070.3594,1169.5156 Q1070.3594,1170.125 1070.125,1170.3906 Q1069.8906,1170.6563 1069.5156,1170.6563 Q1069.1719,1170.6563 1068.9688,1170.4531 Q1068.7656,1170.2656 1068.6563,1169.75 Q1068.6094,1169.3906 1068.4219,1169.2031 Q1068.0938,1168.8281 1067.4844,1168.6094 Q1066.875,1168.3906 1066.25,1168.3906 Q1065.4844,1168.3906 1064.8438,1168.7188 Q1064.2188,1169.0469 1063.7188,1169.7969 Q1063.2344,1170.5469 1063.2344,1171.5781 L1063.2344,1172.6719 Q1063.2344,1173.9063 1064.125,1174.7344 Q1065.0156,1175.5469 1066.6094,1175.5469 Q1067.5469,1175.5469 1068.2031,1175.2969 Q1068.5938,1175.1406 1069.0156,1174.7031 Q1069.2813,1174.4375 1069.4219,1174.3594 Q1069.5781,1174.2813 1069.7813,1174.2813 Q1070.1094,1174.2813 1070.3594,1174.5469 Q1070.625,1174.7969 1070.625,1175.1406 Q1070.625,1175.4844 1070.2813,1175.8906 Q1069.7813,1176.4688 1068.9844,1176.7969 Q1067.9063,1177.25 1066.6094,1177.25 Q1065.0938,1177.25 1063.8906,1176.625 Q1062.9063,1176.125 1062.2188,1175.0625 Q1061.5313,1173.9844 1061.5313,1172.7031 L1061.5313,1171.5469 Q1061.5313,1170.2188 1062.1406,1169.0781 Q1062.7656,1167.9219 1063.8594,1167.3125 Q1064.9531,1166.6875 1066.1875,1166.6875 Q1066.9219,1166.6875 1067.5625,1166.8594 Q1068.2188,1167.0156 1068.7656,1167.375 Z " fill="#000000"/><text fill="#000000" font-family="sans-serif" font-size="14" lengthAdjust="spacing" textLength="36" x="1080" y="1177.2969">Client</text><line style="stroke:#181818;stroke-width:0.5;" x1="1052" x2="1118" y1="1187.5" y2="1187.5"/><line style="stroke:#181818;stroke-width:0.5;" x1="1052" x2="1118" y1="1195.5" y2="1195.5"/></g><!--class Announcement--><g id="elem_Announcement"><rect codeLine="180" fill="#F1F1F1" filter="url(#f1ahq2esxng4ou)" height="196.9688" id="Announcement" rx="2.5" ry="2.5" style="stroke:#181818;stroke-width:0.5;" width="545" x="212.5" y="1081"/><ellipse cx="433.25" cy="1097" fill="#ADD1B2" rx="11" ry="11" style="stroke:#181818;stroke-width:1.0;"/><path d="M436.0156,1092.875 Q436.1719,1092.6563 436.3594,1092.5469 Q436.5469,1092.4375 436.7656,1092.4375 Q437.1406,1092.4375 437.375,1092.7031 Q437.6094,1092.9531 437.6094,1093.5625 L437.6094,1095.0156 Q437.6094,1095.625 437.375,1095.8906 Q437.1406,1096.1563 436.7656,1096.1563 Q436.4219,1096.1563 436.2188,1095.9531 Q436.0156,1095.7656 435.9063,1095.25 Q435.8594,1094.8906 435.6719,1094.7031 Q435.3438,1094.3281 434.7344,1094.1094 Q434.125,1093.8906 433.5,1093.8906 Q432.7344,1093.8906 432.0938,1094.2188 Q431.4688,1094.5469 430.9688,1095.2969 Q430.4844,1096.0469 430.4844,1097.0781 L430.4844,1098.1719 Q430.4844,1099.4063 431.375,1100.2344 Q432.2656,1101.0469 433.8594,1101.0469 Q434.7969,1101.0469 435.4531,1100.7969 Q435.8438,1100.6406 436.2656,1100.2031 Q436.5313,1099.9375 436.6719,1099.8594 Q436.8281,1099.7813 437.0313,1099.7813 Q437.3594,1099.7813 437.6094,1100.0469 Q437.875,1100.2969 437.875,1100.6406 Q437.875,1100.9844 437.5313,1101.3906 Q437.0313,1101.9688 436.2344,1102.2969 Q435.1563,1102.75 433.8594,1102.75 Q432.3438,1102.75 431.1406,1102.125 Q430.1563,1101.625 429.4688,1100.5625 Q428.7813,1099.4844 428.7813,1098.2031 L428.7813,1097.0469 Q428.7813,1095.7188 429.3906,1094.5781 Q430.0156,1093.4219 431.1094,1092.8125 Q432.2031,1092.1875 433.4375,1092.1875 Q434.1719,1092.1875 434.8125,1092.3594 Q435.4688,1092.5156 436.0156,1092.875 Z " fill="#000000"/><text fill="#000000" font-family="sans-serif" font-size="14" lengthAdjust="spacing" textLength="95" x="453.75" y="1102.7969">Announcement</text><line style="stroke:#181818;stroke-width:0.5;" x1="213.5" x2="756.5" y1="1113" y2="1113"/><text fill="#000000" font-family="sans-serif" font-size="14" lengthAdjust="spacing" textLength="117" x="218.5" y="1132.1074">-double listedPrice</text><text fill="#000000" font-family="sans-serif" font-size="14" lengthAdjust="spacing" textLength="132" x="218.5" y="1150.7285">-Integer rentDuration</text><line style="stroke:#181818;stroke-width:0.5;" x1="213.5" x2="756.5" y1="1158.2422" y2="1158.2422"/><text fill="#000000" font-family="sans-serif" font-size="14" lengthAdjust="spacing" textLength="249" x="218.5" y="1177.3496">+createAnnouncement( DateTime date,</text><text fill="#000000" font-family="sans-serif" font-size="14" lengthAdjust="spacing" textLength="529" x="222.5" y="1195.9707">Commission commission, PropertyType propertyType, BusinessType businessType,</text><text fill="#000000" font-family="sans-serif" font-size="14" lengthAdjust="spacing" textLength="346" x="222.5" y="1214.5918">Property property, Employee agent, double listedPrice)</text><text fill="#000000" font-family="sans-serif" font-size="14" lengthAdjust="spacing" textLength="249" x="218.5" y="1233.2129">+createAnnouncement( DateTime date,</text><text fill="#000000" font-family="sans-serif" font-size="14" lengthAdjust="spacing" textLength="529" x="222.5" y="1251.834">Commission commission, PropertyType propertyType, BusinessType businessType,</text><text fill="#000000" font-family="sans-serif" font-size="14" lengthAdjust="spacing" textLength="481" x="222.5" y="1270.4551">Property property, Employee agent, double listedPrice, Integer rentDuration)</text></g><!--class Role--><g id="elem_Role"><rect codeLine="191" fill="#F1F1F1" filter="url(#f1ahq2esxng4ou)" height="85.2422" id="Role" rx="2.5" ry="2.5" style="stroke:#181818;stroke-width:0.5;" width="127" x="1116.5" y="1817"/><ellipse cx="1161.25" cy="1833" fill="#ADD1B2" rx="11" ry="11" style="stroke:#181818;stroke-width:1.0;"/><path d="M1164.0156,1828.875 Q1164.1719,1828.6563 1164.3594,1828.5469 Q1164.5469,1828.4375 1164.7656,1828.4375 Q1165.1406,1828.4375 1165.375,1828.7031 Q1165.6094,1828.9531 1165.6094,1829.5625 L1165.6094,1831.0156 Q1165.6094,1831.625 1165.375,1831.8906 Q1165.1406,1832.1563 1164.7656,1832.1563 Q1164.4219,1832.1563 1164.2188,1831.9531 Q1164.0156,1831.7656 1163.9063,1831.25 Q1163.8594,1830.8906 1163.6719,1830.7031 Q1163.3438,1830.3281 1162.7344,1830.1094 Q1162.125,1829.8906 1161.5,1829.8906 Q1160.7344,1829.8906 1160.0938,1830.2188 Q1159.4688,1830.5469 1158.9688,1831.2969 Q1158.4844,1832.0469 1158.4844,1833.0781 L1158.4844,1834.1719 Q1158.4844,1835.4063 1159.375,1836.2344 Q1160.2656,1837.0469 1161.8594,1837.0469 Q1162.7969,1837.0469 1163.4531,1836.7969 Q1163.8438,1836.6406 1164.2656,1836.2031 Q1164.5313,1835.9375 1164.6719,1835.8594 Q1164.8281,1835.7813 1165.0313,1835.7813 Q1165.3594,1835.7813 1165.6094,1836.0469 Q1165.875,1836.2969 1165.875,1836.6406 Q1165.875,1836.9844 1165.5313,1837.3906 Q1165.0313,1837.9688 1164.2344,1838.2969 Q1163.1563,1838.75 1161.8594,1838.75 Q1160.3438,1838.75 1159.1406,1838.125 Q1158.1563,1837.625 1157.4688,1836.5625 Q1156.7813,1835.4844 1156.7813,1834.2031 L1156.7813,1833.0469 Q1156.7813,1831.7188 1157.3906,1830.5781 Q1158.0156,1829.4219 1159.1094,1828.8125 Q1160.2031,1828.1875 1161.4375,1828.1875 Q1162.1719,1828.1875 1162.8125,1828.3594 Q1163.4688,1828.5156 1164.0156,1828.875 Z " fill="#000000"/><text fill="#000000" font-family="sans-serif" font-size="14" lengthAdjust="spacing" textLength="29" x="1181.75" y="1838.7969">Role</text><line style="stroke:#181818;stroke-width:0.5;" x1="1117.5" x2="1242.5" y1="1849" y2="1849"/><text fill="#000000" font-family="sans-serif" font-size="14" lengthAdjust="spacing" textLength="64" x="1122.5" y="1868.1074">-Integer id</text><text fill="#000000" font-family="sans-serif" font-size="14" lengthAdjust="spacing" textLength="115" x="1122.5" y="1886.7285">-String description</text><line style="stroke:#181818;stroke-width:0.5;" x1="1117.5" x2="1242.5" y1="1894.2422" y2="1894.2422"/></g><!--class Commission--><g id="elem_Commission"><rect codeLine="196" fill="#F1F1F1" filter="url(#f1ahq2esxng4ou)" height="85.2422" id="Commission" rx="2.5" ry="2.5" style="stroke:#181818;stroke-width:0.5;" width="161" x="554.5" y="1414"/><ellipse cx="593.35" cy="1430" fill="#ADD1B2" rx="11" ry="11" style="stroke:#181818;stroke-width:1.0;"/><path d="M596.1156,1425.875 Q596.2719,1425.6563 596.4594,1425.5469 Q596.6469,1425.4375 596.8656,1425.4375 Q597.2406,1425.4375 597.475,1425.7031 Q597.7094,1425.9531 597.7094,1426.5625 L597.7094,1428.0156 Q597.7094,1428.625 597.475,1428.8906 Q597.2406,1429.1563 596.8656,1429.1563 Q596.5219,1429.1563 596.3188,1428.9531 Q596.1156,1428.7656 596.0063,1428.25 Q595.9594,1427.8906 595.7719,1427.7031 Q595.4438,1427.3281 594.8344,1427.1094 Q594.225,1426.8906 593.6,1426.8906 Q592.8344,1426.8906 592.1938,1427.2188 Q591.5688,1427.5469 591.0688,1428.2969 Q590.5844,1429.0469 590.5844,1430.0781 L590.5844,1431.1719 Q590.5844,1432.4063 591.475,1433.2344 Q592.3656,1434.0469 593.9594,1434.0469 Q594.8969,1434.0469 595.5531,1433.7969 Q595.9438,1433.6406 596.3656,1433.2031 Q596.6313,1432.9375 596.7719,1432.8594 Q596.9281,1432.7813 597.1313,1432.7813 Q597.4594,1432.7813 597.7094,1433.0469 Q597.975,1433.2969 597.975,1433.6406 Q597.975,1433.9844 597.6313,1434.3906 Q597.1313,1434.9688 596.3344,1435.2969 Q595.2563,1435.75 593.9594,1435.75 Q592.4438,1435.75 591.2406,1435.125 Q590.2563,1434.625 589.5688,1433.5625 Q588.8813,1432.4844 588.8813,1431.2031 L588.8813,1430.0469 Q588.8813,1428.7188 589.4906,1427.5781 Q590.1156,1426.4219 591.2094,1425.8125 Q592.3031,1425.1875 593.5375,1425.1875 Q594.2719,1425.1875 594.9125,1425.3594 Q595.5688,1425.5156 596.1156,1425.875 Z " fill="#000000"/><text fill="#000000" font-family="sans-serif" font-size="14" lengthAdjust="spacing" textLength="76" x="612.65" y="1435.7969">Commission</text><line style="stroke:#181818;stroke-width:0.5;" x1="555.5" x2="714.5" y1="1446" y2="1446"/><text fill="#000000" font-family="sans-serif" font-size="14" lengthAdjust="spacing" textLength="86" x="560.5" y="1465.1074">-double value</text><text fill="#000000" font-family="sans-serif" font-size="14" lengthAdjust="spacing" textLength="149" x="560.5" y="1483.7285">-String typeCommission</text><line style="stroke:#181818;stroke-width:0.5;" x1="555.5" x2="714.5" y1="1491.2422" y2="1491.2422"/></g><!--class Store--><g id="elem_Store"><rect codeLine="204" fill="#F1F1F1" filter="url(#f1ahq2esxng4ou)" height="141.1055" id="Store" rx="2.5" ry="2.5" style="stroke:#181818;stroke-width:0.5;" width="154" x="1279" y="1789"/><ellipse cx="1334.75" cy="1805" fill="#ADD1B2" rx="11" ry="11" style="stroke:#181818;stroke-width:1.0;"/><path d="M1337.5156,1800.875 Q1337.6719,1800.6563 1337.8594,1800.5469 Q1338.0469,1800.4375 1338.2656,1800.4375 Q1338.6406,1800.4375 1338.875,1800.7031 Q1339.1094,1800.9531 1339.1094,1801.5625 L1339.1094,1803.0156 Q1339.1094,1803.625 1338.875,1803.8906 Q1338.6406,1804.1563 1338.2656,1804.1563 Q1337.9219,1804.1563 1337.7188,1803.9531 Q1337.5156,1803.7656 1337.4063,1803.25 Q1337.3594,1802.8906 1337.1719,1802.7031 Q1336.8438,1802.3281 1336.2344,1802.1094 Q1335.625,1801.8906 1335,1801.8906 Q1334.2344,1801.8906 1333.5938,1802.2188 Q1332.9688,1802.5469 1332.4688,1803.2969 Q1331.9844,1804.0469 1331.9844,1805.0781 L1331.9844,1806.1719 Q1331.9844,1807.4063 1332.875,1808.2344 Q1333.7656,1809.0469 1335.3594,1809.0469 Q1336.2969,1809.0469 1336.9531,1808.7969 Q1337.3438,1808.6406 1337.7656,1808.2031 Q1338.0313,1807.9375 1338.1719,1807.8594 Q1338.3281,1807.7813 1338.5313,1807.7813 Q1338.8594,1807.7813 1339.1094,1808.0469 Q1339.375,1808.2969 1339.375,1808.6406 Q1339.375,1808.9844 1339.0313,1809.3906 Q1338.5313,1809.9688 1337.7344,1810.2969 Q1336.6563,1810.75 1335.3594,1810.75 Q1333.8438,1810.75 1332.6406,1810.125 Q1331.6563,1809.625 1330.9688,1808.5625 Q1330.2813,1807.4844 1330.2813,1806.2031 L1330.2813,1805.0469 Q1330.2813,1803.7188 1330.8906,1802.5781 Q1331.5156,1801.4219 1332.6094,1800.8125 Q1333.7031,1800.1875 1334.9375,1800.1875 Q1335.6719,1800.1875 1336.3125,1800.3594 Q1336.9688,1800.5156 1337.5156,1800.875 Z " fill="#000000"/><text fill="#000000" font-family="sans-serif" font-size="14" lengthAdjust="spacing" textLength="34" x="1355.25" y="1810.7969">Store</text><line style="stroke:#181818;stroke-width:0.5;" x1="1280" x2="1432" y1="1821" y2="1821"/><text fill="#000000" font-family="sans-serif" font-size="14" lengthAdjust="spacing" textLength="64" x="1285" y="1840.1074">-Integer id</text><text fill="#000000" font-family="sans-serif" font-size="14" lengthAdjust="spacing" textLength="119" x="1285" y="1858.7285">-String designation</text><text fill="#000000" font-family="sans-serif" font-size="14" lengthAdjust="spacing" textLength="112" x="1285" y="1877.3496">-Address address</text><text fill="#000000" font-family="sans-serif" font-size="14" lengthAdjust="spacing" textLength="79" x="1285" y="1895.9707">-String email</text><text fill="#000000" font-family="sans-serif" font-size="14" lengthAdjust="spacing" textLength="142" x="1285" y="1914.5918">-Integer phoneNumber</text><line style="stroke:#181818;stroke-width:0.5;" x1="1280" x2="1432" y1="1922.1055" y2="1922.1055"/></g><!--link Repositories to Repositories--><g id="link_Repositories_Repositories"><path codeLine="215" d="M1544.75,522.65 C1565.11,525.38 1579.5,533 1579.5,545.5 C1579.5,556.93 1567.47,564.27 1549.86,567.54 " fill="none" id="Repositories-to-Repositories" style="stroke:#181818;stroke-width:1.0;"/><polygon fill="#181818" points="1544.75,568.35,1554.2675,570.8832,1549.6876,567.5628,1553.008,562.983,1544.75,568.35" style="stroke:#181818;stroke-width:1.0;"/><text fill="#000000" font-family="sans-serif" font-size="13" lengthAdjust="spacing" textLength="49" x="1585.5" y="551.0283">instance</text></g><!--link Employee to Store--><g id="link_Employee_Store"><path codeLine="216" d="M1254.12,1682.71 C1258.46,1705.03 1265.94,1734.82 1278,1759 C1282.26,1767.54 1287.31,1776.04 1292.78,1784.28 " fill="none" id="Employee-to-Store" style="stroke:#181818;stroke-width:1.0;"/><polygon fill="#181818" points="1295.85,1788.83,1294.1244,1779.1335,1293.0502,1784.6874,1287.4963,1783.6132,1295.85,1788.83" style="stroke:#181818;stroke-width:1.0;"/><polygon fill="#000000" points="1284.7786,1754.3185,1284.3077,1744.8196,1278.8144,1746.9105,1284.7786,1754.3185" style="stroke:#000000;stroke-width:1.0;"/><text fill="#000000" font-family="sans-serif" font-size="13" lengthAdjust="spacing" textLength="63" x="1292" y="1755.0283">works on a</text><text fill="#000000" font-family="sans-serif" font-size="13" lengthAdjust="spacing" textLength="5" x="1249.5703" y="1704.0507">*</text><text fill="#000000" font-family="sans-serif" font-size="13" lengthAdjust="spacing" textLength="7" x="1282.2861" y="1777.7035">1</text></g><!--link Repositories to EmployeeRepository--><g id="link_Repositories_EmployeeRepository"><path codeLine="218" d="M1436.43,606.59 C1434.81,668.35 1432.35,762.61 1430.99,814.66 " fill="none" id="Repositories-to-EmployeeRepository" style="stroke:#181818;stroke-width:1.0;"/><polygon fill="#181818" points="1430.85,819.87,1435.08,810.9758,1430.9785,814.8717,1427.0827,810.7702,1430.85,819.87" style="stroke:#181818;stroke-width:1.0;"/></g><!--link AnnouncementRequestUI to AnnouncementRequestController--><g id="link_AnnouncementRequestUI_AnnouncementRequestController"><path codeLine="221" d="M278.06,96 C287.93,96 297.8,96 307.67,96 " fill="none" id="AnnouncementRequestUI-to-AnnouncementRequestController" style="stroke:#181818;stroke-width:1.0;stroke-dasharray:7.0,7.0;"/><polygon fill="#181818" points="312.83,96,303.83,92,307.83,96,303.83,100,312.83,96" style="stroke:#181818;stroke-width:1.0;"/></g><!--link AnnouncementRequestController to ApplicationSession--><g id="link_AnnouncementRequestController_ApplicationSession"><path codeLine="223" d="M543.06,185 C528.54,194.69 514.3,204.76 501,215 C479.71,231.4 458.09,251.72 440.18,269.75 " fill="none" id="AnnouncementRequestController-to-ApplicationSession" style="stroke:#181818;stroke-width:1.0;stroke-dasharray:7.0,7.0;"/><polygon fill="#181818" points="436.65,273.32,445.8208,269.7288,440.164,269.7631,440.1298,264.1064,436.65,273.32" style="stroke:#181818;stroke-width:1.0;"/></g><!--link AnnouncementRequestController to UserSession--><g id="link_AnnouncementRequestController_UserSession"><path codeLine="224" d="M594.43,185.01 C586.19,194.61 578.54,204.66 572,215 C511.79,310.17 482.42,442.39 470.98,506.55 " fill="none" id="AnnouncementRequestController-to-UserSession" style="stroke:#181818;stroke-width:1.0;stroke-dasharray:7.0,7.0;"/><polygon fill="#181818" points="470.06,511.8,475.5659,503.6339,470.9306,506.8764,467.6881,502.241,470.06,511.8" style="stroke:#181818;stroke-width:1.0;"/></g><!--link ApplicationSession to UserSession--><g id="link_ApplicationSession_UserSession"><path codeLine="226" d="M410.29,358.73 C422.78,401.13 441.95,466.22 453.96,507.02 " fill="none" id="ApplicationSession-to-UserSession" style="stroke:#181818;stroke-width:1.0;"/><polygon fill="#181818" points="455.39,511.87,456.6832,502.1064,453.9769,507.0739,449.0094,504.3675,455.39,511.87" style="stroke:#181818;stroke-width:1.0;"/></g><!--link Repositories to AnnouncementRequestRepository--><g id="link_Repositories_AnnouncementRequestRepository"><path codeLine="229" d="M1408.53,606.78 C1394.77,630.33 1376.62,656.15 1355,675 C1343.19,685.3 1329.63,694.42 1315.58,702.4 " fill="none" id="Repositories-to-AnnouncementRequestRepository" style="stroke:#181818;stroke-width:1.0;"/><polygon fill="#181818" points="1311.21,704.84,1321.02,703.9658,1315.5808,702.4118,1317.1348,696.9726,1311.21,704.84" style="stroke:#181818;stroke-width:1.0;"/><text fill="#000000" font-family="sans-serif" font-size="13" lengthAdjust="spacing" textLength="7" x="1321.0575" y="693.7186">1</text></g><!--link Repositories to AnnouncementRepository--><g id="link_Repositories_AnnouncementRepository"><path codeLine="230" d="M1334.46,606.51 C1305.66,620.89 1273.81,634.75 1243,644 C1095.2,688.38 927.51,713.63 780.23,727.96 " fill="none" id="Repositories-to-AnnouncementRepository" style="stroke:#181818;stroke-width:1.0;"/><polygon fill="#181818" points="775,728.46,784.3463,731.5659,779.9763,727.9738,783.5684,723.6038,775,728.46" style="stroke:#181818;stroke-width:1.0;"/><text fill="#000000" font-family="sans-serif" font-size="13" lengthAdjust="spacing" textLength="7" x="782.8711" y="724.9294">1</text></g><!--reverse link Property to Inhabitable--><g id="link_Property_Inhabitable"><path codeLine="234" d="M1675.2,1671.62 C1741.29,1690.8 1821.25,1725.96 1865,1789 C1950.43,1912.09 1929.11,2101.72 1912.27,2191.93 " fill="none" id="Property-backto-Inhabitable" style="stroke:#181818;stroke-width:1.0;"/><polygon fill="none" points="1673.09,1678.3,1655.64,1666.28,1676.78,1664.8,1673.09,1678.3" style="stroke:#181818;stroke-width:1.0;"/></g><!--link Property to Photograph--><g id="link_Property_Photograph"><path codeLine="236" d="M1585.71,1710.03 C1596.86,1745.77 1610.65,1790.03 1620.27,1820.88 " fill="none" id="Property-to-Photograph" style="stroke:#181818;stroke-width:1.0;"/><polygon fill="#181818" points="1621.78,1825.71,1622.9235,1815.9277,1620.2935,1820.9361,1615.2852,1818.3061,1621.78,1825.71" style="stroke:#181818;stroke-width:1.0;"/><text fill="#000000" font-family="sans-serif" font-size="13" lengthAdjust="spacing" textLength="21" x="1600" y="1755.0283">has</text><text fill="#000000" font-family="sans-serif" font-size="13" lengthAdjust="spacing" textLength="29" x="1588.0678" y="1814.7406">1..30</text></g><!--link AnnouncementRepository to Announcement--><g id="link_AnnouncementRepository_Announcement"><path codeLine="238" d="M400.1,790.12 C414.39,855.49 442.52,984.17 462.48,1075.47 " fill="none" id="AnnouncementRepository-to-Announcement" style="stroke:#181818;stroke-width:1.0;"/><polygon fill="#181818" points="463.6,1080.61,465.5793,1070.9621,462.529,1075.7261,457.765,1072.6757,463.6,1080.61" style="stroke:#181818;stroke-width:1.0;"/><text fill="#000000" font-family="sans-serif" font-size="13" lengthAdjust="spacing" textLength="42" x="447" y="965.0283">contais</text><text fill="#000000" font-family="sans-serif" font-size="13" lengthAdjust="spacing" textLength="5" x="456.8448" y="1069.7637">*</text></g><!--link Announcement to DateTime--><g id="link_Announcement_DateTime"><path codeLine="240" d="M465.31,1278.17 C455.85,1352.39 455.29,1453.84 503,1527 C543.76,1589.51 627.26,1621.14 684.19,1636.08 " fill="none" id="Announcement-to-DateTime" style="stroke:#181818;stroke-width:1.0;"/><polygon fill="#181818" points="689.27,1637.38,681.5468,1631.2683,684.4269,1636.1371,679.5582,1639.0172,689.27,1637.38" style="stroke:#181818;stroke-width:1.0;"/><text fill="#000000" font-family="sans-serif" font-size="13" lengthAdjust="spacing" textLength="32" x="504" y="1462.0283">has a</text><text fill="#000000" font-family="sans-serif" font-size="13" lengthAdjust="spacing" textLength="7" x="456.607" y="1300.0805">1</text><text fill="#000000" font-family="sans-serif" font-size="13" lengthAdjust="spacing" textLength="7" x="674.5797" y="1631.7497">1</text></g><!--link Client to Person--><g id="link_Client_Person"><path codeLine="242" d="M1087.22,1203.95 C1090.58,1239.54 1097.16,1309.09 1102.54,1366.05 " fill="none" id="Client-to-Person" style="stroke:#181818;stroke-width:1.0;"/><polygon fill="none" points="1109.51,1365.42,1104.43,1385.99,1095.58,1366.74,1109.51,1365.42" style="stroke:#181818;stroke-width:1.0;"/></g><!--reverse link Inhabitable to House--><g id="link_Inhabitable_House"><path codeLine="246" d="M1901,2316.3 C1901,2329.93 1901,2343.93 1901,2356.77 " fill="none" id="Inhabitable-backto-House" style="stroke:#181818;stroke-width:1.0;"/><polygon fill="none" points="1894,2316.13,1901,2296.13,1908,2316.13,1894,2316.13" style="stroke:#181818;stroke-width:1.0;"/></g><!--link Property to Address--><g id="link_Property_Address"><path codeLine="253" d="M1546.22,1710.09 C1525.27,1767.93 1490.45,1857.12 1451,1930 C1437.31,1955.29 1420.11,1981.67 1404.13,2004.56 " fill="none" id="Property-to-Address" style="stroke:#181818;stroke-width:1.0;"/><polygon fill="#181818" points="1401.16,2008.8,1409.6076,2003.7366,1404.035,2004.7092,1403.0624,1999.1366,1401.16,2008.8" style="stroke:#181818;stroke-width:1.0;"/><text fill="#000000" font-family="sans-serif" font-size="13" lengthAdjust="spacing" textLength="39" x="1515" y="1865.0283">has an</text><text fill="#000000" font-family="sans-serif" font-size="13" lengthAdjust="spacing" textLength="7" x="1536.2609" y="1732.5878">1</text><text fill="#000000" font-family="sans-serif" font-size="13" lengthAdjust="spacing" textLength="7" x="1398.9769" y="1997.7581">1</text></g><!--link Person to Address--><g id="link_Person_Address"><path codeLine="255" d="M1087.63,1527.01 C1059.33,1624.61 1024.11,1804.36 1099,1930 C1138.48,1996.23 1221.68,2032.82 1282.76,2051.61 " fill="none" id="Person-Address" style="stroke:#181818;stroke-width:1.0;"/><text fill="#000000" font-family="sans-serif" font-size="13" lengthAdjust="spacing" textLength="39" x="1055" y="1755.0283">has an</text><text fill="#000000" font-family="sans-serif" font-size="13" lengthAdjust="spacing" textLength="7" x="1077.859" y="1549.1958">1</text><text fill="#000000" font-family="sans-serif" font-size="13" lengthAdjust="spacing" textLength="7" x="1267.8462" y="2045.8553">1</text></g><!--link Agent to Employee--><g id="link_Agent_Employee"><path codeLine="257" d="M1226.76,1356.16 C1230.57,1406.14 1239.64,1525.2 1244.95,1594.83 " fill="none" id="Agent-to-Employee" style="stroke:#181818;stroke-width:1.0;"/><polygon fill="none" points="1251.96,1594.66,1246.5,1615.13,1238,1595.72,1251.96,1594.66" style="stroke:#181818;stroke-width:1.0;"/></g><!--reverse link Person to Employee--><g id="link_Person_Employee"><path codeLine="259" d="M1173.4,1543.64 C1191.87,1569.14 1210.98,1595.52 1225.37,1615.38 " fill="none" id="Person-backto-Employee" style="stroke:#181818;stroke-width:1.0;"/><polygon fill="none" points="1167.47,1547.39,1161.41,1527.08,1178.81,1539.17,1167.47,1547.39" style="stroke:#181818;stroke-width:1.0;"/></g><!--reverse link AnnouncementRequest to Agent--><g id="link_AnnouncementRequest_Agent"><path codeLine="261" d="M1069.98,1005.94 C1079.24,1014.35 1088.58,1023.25 1097,1032 C1116.49,1052.26 1123.24,1056.49 1137,1081 C1180.7,1158.84 1208.7,1262.27 1219.7,1307.81 " fill="none" id="AnnouncementRequest-backto-Agent" style="stroke:#181818;stroke-width:1.0;"/><polygon fill="#181818" points="1066.02,1002.36,1070.0338,1011.3539,1069.7365,1005.7048,1075.3855,1005.4075,1066.02,1002.36" style="stroke:#181818;stroke-width:1.0;"/><text fill="#000000" font-family="sans-serif" font-size="13" lengthAdjust="spacing" textLength="82" x="1116" y="1047.0283">intends to see</text><text fill="#000000" font-family="sans-serif" font-size="13" lengthAdjust="spacing" textLength="5" x="1068.2965" y="1024.2566">*</text><text fill="#000000" font-family="sans-serif" font-size="13" lengthAdjust="spacing" textLength="7" x="1210.555" y="1296.9056">1</text></g><!--link AnnouncementRequest to DateTime--><g id="link_AnnouncementRequest_DateTime"><path codeLine="262" d="M1008.95,1002.05 C997.77,1063.63 973.44,1182.17 937,1278 C888.54,1405.44 806.64,1545.24 766.54,1610.52 " fill="none" id="AnnouncementRequest-to-DateTime" style="stroke:#181818;stroke-width:1.0;"/><polygon fill="#181818" points="763.73,1615.09,771.8618,1609.5336,766.3569,1610.8356,765.0548,1605.3307,763.73,1615.09" style="stroke:#181818;stroke-width:1.0;"/><text fill="#000000" font-family="sans-serif" font-size="13" lengthAdjust="spacing" textLength="32" x="926" y="1337.5283">has a</text><text fill="#000000" font-family="sans-serif" font-size="13" lengthAdjust="spacing" textLength="7" x="1000.2686" y="1024.2183">1</text><text fill="#000000" font-family="sans-serif" font-size="13" lengthAdjust="spacing" textLength="7" x="759.9068" y="1604.3607">1</text></g><!--link AnnouncementRequest to Property--><g id="link_AnnouncementRequest_Property"><path codeLine="263" d="M1106.21,978.5 C1141.09,989.2 1179.22,1005.98 1207,1032 C1322.26,1139.99 1273.44,1219.56 1353,1356 C1401.23,1438.71 1467.84,1526.39 1513.88,1583.83 " fill="none" id="AnnouncementRequest-to-Property" style="stroke:#181818;stroke-width:1.0;"/><polygon fill="#181818" points="1517.16,1587.91,1514.6485,1578.3868,1514.0313,1584.0098,1508.4082,1583.3927,1517.16,1587.91" style="stroke:#181818;stroke-width:1.0;"/><text fill="#000000" font-family="sans-serif" font-size="13" lengthAdjust="spacing" textLength="47" x="1354" y="1337.5283">refers to</text><text fill="#000000" font-family="sans-serif" font-size="13" lengthAdjust="spacing" textLength="7" x="1113.9704" y="976.3999">1</text><text fill="#000000" font-family="sans-serif" font-size="13" lengthAdjust="spacing" textLength="7" x="1503.9926" y="1576.8808">1</text></g><!--reverse link AnnouncementRequest to Client--><g id="link_AnnouncementRequest_Client"><path codeLine="264" d="M1030.69,1006.91 C1045.1,1052.45 1066.5,1120.04 1077.64,1155.26 " fill="none" id="AnnouncementRequest-backto-Client" style="stroke:#181818;stroke-width:1.0;"/><polygon fill="#181818" points="1029.14,1002.02,1028.0232,1011.8053,1030.6395,1006.7899,1035.655,1009.4061,1029.14,1002.02" style="stroke:#181818;stroke-width:1.0;"/><text fill="#000000" font-family="sans-serif" font-size="13" lengthAdjust="spacing" textLength="43" x="1045" y="1047.0283">creates</text><text fill="#000000" font-family="sans-serif" font-size="13" lengthAdjust="spacing" textLength="5" x="1025.8358" y="1024.1835">*</text><text fill="#000000" font-family="sans-serif" font-size="13" lengthAdjust="spacing" textLength="7" x="1067.9929" y="1144.3434">1</text></g><!--link Property to PropertyType--><g id="link_Property_PropertyType"><path codeLine="266" d="M1629.47,1710.03 C1667.13,1746.21 1713.87,1791.12 1746.03,1822.02 " fill="none" id="Property-to-PropertyType" style="stroke:#181818;stroke-width:1.0;"/><polygon fill="#181818" points="1749.88,1825.71,1746.1591,1816.591,1746.2736,1822.2467,1740.6179,1822.3612,1749.88,1825.71" style="stroke:#181818;stroke-width:1.0;"/><text fill="#000000" font-family="sans-serif" font-size="13" lengthAdjust="spacing" textLength="74" x="1676" y="1755.0283">cataloged as</text><text fill="#000000" font-family="sans-serif" font-size="13" lengthAdjust="spacing" textLength="5" x="1631.7788" y="1732.5205">*</text><text fill="#000000" font-family="sans-serif" font-size="13" lengthAdjust="spacing" textLength="7" x="1735.7087" y="1814.7406">1</text></g><!--link AnnouncementRequestRepository to AnnouncementRequest--><g id="link_AnnouncementRequestRepository_AnnouncementRequest"><path codeLine="268" d="M1165.03,790.24 C1133.65,825.67 1088.7,876.42 1056.38,912.91 " fill="none" id="AnnouncementRequestRepository-to-AnnouncementRequest" style="stroke:#181818;stroke-width:1.0;"/><polygon fill="#181818" points="1052.9,916.84,1061.8612,912.7538,1056.2147,913.0967,1055.8718,907.4502,1052.9,916.84" style="stroke:#181818;stroke-width:1.0;"/><text fill="#000000" font-family="sans-serif" font-size="13" lengthAdjust="spacing" textLength="42" x="1137" y="859.0283">contais</text></g><!--link AnnouncementRequestController to AnnouncementRequestMapper--><g id="link_AnnouncementRequestController_AnnouncementRequestMapper"><path codeLine="269" d="M794.33,185.04 C822.48,210.5 852.38,237.55 877.57,260.34 " fill="none" id="AnnouncementRequestController-to-AnnouncementRequestMapper" style="stroke:#181818;stroke-width:1.0;stroke-dasharray:7.0,7.0;"/><polygon fill="#181818" points="881.58,263.96,877.6026,254.95,877.8771,260.6002,872.2269,260.8747,881.58,263.96" style="stroke:#181818;stroke-width:1.0;"/><text fill="#000000" font-family="sans-serif" font-size="13" lengthAdjust="spacing" textLength="178" x="848" y="230.0283">AnnouncementRequestMapper</text></g><!--link AnnouncementRequestController to AnnouncementRepository--><g id="link_AnnouncementRequestController_AnnouncementRepository"><path codeLine="270" d="M660.9,185.12 C651.19,210.37 641.14,238.08 633,264 C580.88,429.99 637.78,500.78 539,644 C523.13,667.01 500.29,686.45 477.28,702.01 " fill="none" id="AnnouncementRequestController-to-AnnouncementRepository" style="stroke:#181818;stroke-width:1.0;stroke-dasharray:7.0,7.0;"/><polygon fill="#181818" points="472.98,704.87,482.6899,703.2213,477.1446,702.1031,478.2628,696.5578,472.98,704.87" style="stroke:#181818;stroke-width:1.0;"/><text fill="#000000" font-family="sans-serif" font-size="13" lengthAdjust="spacing" textLength="149" x="609" y="413.0283">AnnouncementRepository</text></g><!--link AnnouncementRequestController to Repositories--><g id="link_AnnouncementRequestController_Repositories"><path codeLine="271" d="M1081.11,134.5 C1158.01,152.09 1235.98,177.73 1304,215 C1402.42,268.93 1436.36,293.78 1478,398 C1488.41,424.05 1483.26,453.74 1473.68,479.56 " fill="none" id="AnnouncementRequestController-to-Repositories" style="stroke:#181818;stroke-width:1.0;stroke-dasharray:7.0,7.0;"/><polygon fill="#181818" points="1471.85,484.33,1478.807,477.3586,1473.6401,479.6614,1471.3373,474.4945,1471.85,484.33" style="stroke:#181818;stroke-width:1.0;"/><text fill="#000000" font-family="sans-serif" font-size="13" lengthAdjust="spacing" textLength="67" x="1465" y="321.5283">repositories</text></g><!--link AnnouncementRequestController to AnnouncementRequestRepository--><g id="link_AnnouncementRequestController_AnnouncementRequestRepository"><path codeLine="274" d="M1081.18,179.51 C1156.28,203.42 1219.23,231.88 1243,264 C1293.23,331.88 1258.97,561.08 1243,644 C1239.36,662.92 1232.25,682.79 1224.96,699.95 " fill="none" id="AnnouncementRequestController-to-AnnouncementRequestRepository" style="stroke:#181818;stroke-width:1.0;stroke-dasharray:7.0,7.0;"/><polygon fill="#181818" points="1222.91,704.71,1230.1394,698.0215,1224.8848,700.1165,1222.7898,694.8619,1222.91,704.71" style="stroke:#181818;stroke-width:1.0;"/><text fill="#000000" font-family="sans-serif" font-size="13" lengthAdjust="spacing" textLength="197" x="1270" y="413.0283">AnnouncementRequestRepository</text></g><!--link AnnouncementRequest to BusinessType--><g id="link_AnnouncementRequest_BusinessType"><path codeLine="275" d="M925.81,987.74 C904.69,998.29 884.46,1012.64 871,1032 C848.98,1063.69 847.71,1108.93 850.38,1140.73 " fill="none" id="AnnouncementRequest-to-BusinessType" style="stroke:#181818;stroke-width:1.0;"/><polygon fill="#181818" points="850.84,1145.72,854.0015,1136.3924,850.3835,1140.7409,846.0349,1137.1228,850.84,1145.72" style="stroke:#181818;stroke-width:1.0;"/><text fill="#000000" font-family="sans-serif" font-size="13" lengthAdjust="spacing" textLength="74" x="872" y="1047.0283">cataloged as</text><text fill="#000000" font-family="sans-serif" font-size="13" lengthAdjust="spacing" textLength="7" x="911.0513" y="986.4051">1</text><text fill="#000000" font-family="sans-serif" font-size="13" lengthAdjust="spacing" textLength="5" x="844.3798" y="1134.7525">*</text></g><!--link Employee to Role--><g id="link_Employee_Role"><path codeLine="278" d="M1222.01,1682.51 C1210.07,1698.76 1197.13,1719.34 1190,1740 C1181.52,1764.59 1178.96,1793.68 1178.55,1816.89 " fill="none" id="Employee-Role" style="stroke:#181818;stroke-width:1.0;"/><text fill="#000000" font-family="sans-serif" font-size="13" lengthAdjust="spacing" textLength="21" x="1191" y="1755.0283">has</text><text fill="#000000" font-family="sans-serif" font-size="13" lengthAdjust="spacing" textLength="7" x="1209.579" y="1704.081">1</text><text fill="#000000" font-family="sans-serif" font-size="13" lengthAdjust="spacing" textLength="20" x="1156.7252" y="1805.7766">1..*</text></g><!--link AnnouncementRequest to Announcement--><g id="link_AnnouncementRequest_Announcement"><path codeLine="280" d="M925.82,984.18 C881.59,996.74 827.88,1013.41 781,1032 C746.18,1045.8 709.87,1062.1 675.08,1078.72 " fill="none" id="AnnouncementRequest-to-Announcement" style="stroke:#181818;stroke-width:1.0;"/><polygon fill="#181818" points="670.4,1080.96,680.2444,1080.6634,674.9058,1078.7926,676.7766,1073.4541,670.4,1080.96" style="stroke:#181818;stroke-width:1.0;"/><text fill="#000000" font-family="sans-serif" font-size="13" lengthAdjust="spacing" textLength="71" x="782" y="1047.0283">can become</text></g><!--link AnnouncementRequestMapper to AnnouncementRequest--><g id="link_AnnouncementRequestMapper_AnnouncementRequest"><path codeLine="292" d="M899.07,368.16 C884.05,391 868.66,419.04 861,447 C837.87,531.44 841.13,558.73 861,644 C884.77,745.98 946.58,852.91 984.57,912.09 " fill="none" id="AnnouncementRequestMapper-to-AnnouncementRequest" style="stroke:#181818;stroke-width:1.0;stroke-dasharray:7.0,7.0;"/><polygon fill="#181818" points="987.49,916.62,985.9796,906.8877,984.7826,912.4164,979.2538,911.2195,987.49,916.62" style="stroke:#181818;stroke-width:1.0;"/></g><!--link AnnouncementRequestMapper to AnnouncementRequestDTO--><g id="link_AnnouncementRequestMapper_AnnouncementRequestDTO"><path codeLine="296" d="M963.58,368.06 C974.58,390.01 987.85,416.49 1000.73,442.19 " fill="none" id="AnnouncementRequestMapper-to-AnnouncementRequestDTO" style="stroke:#181818;stroke-width:1.0;stroke-dasharray:7.0,7.0;"/><polygon fill="#181818" points="1003.13,446.98,1002.6702,437.1419,1000.8882,442.5107,995.5194,440.7287,1003.13,446.98" style="stroke:#181818;stroke-width:1.0;"/></g><!--link Store to Address--><g id="link_Store_Address"><path codeLine="298" d="M1356,1930.22 C1356,1953.88 1356,1980.22 1356,2003.54 " fill="none" id="Store-to-Address" style="stroke:#181818;stroke-width:1.0;"/><polygon fill="#181818" points="1356,2008.77,1360,1999.77,1356,2003.77,1352,1999.77,1356,2008.77" style="stroke:#181818;stroke-width:1.0;"/><text fill="#000000" font-family="sans-serif" font-size="13" lengthAdjust="spacing" textLength="39" x="1357" y="1975.0283">has an</text><text fill="#000000" font-family="sans-serif" font-size="13" lengthAdjust="spacing" textLength="7" x="1348.6555" y="1952.0557">1</text><text fill="#000000" font-family="sans-serif" font-size="13" lengthAdjust="spacing" textLength="7" x="1348.5953" y="1997.7246">1</text></g><!--link Property to Store--><g id="link_Property_Store"><path codeLine="300" d="M1478.1,1687.27 C1453.03,1701.02 1427.35,1718.58 1408,1740 C1396.54,1752.69 1387.29,1768.31 1379.96,1784 " fill="none" id="Property-to-Store" style="stroke:#181818;stroke-width:1.0;"/><polygon fill="#181818" points="1377.75,1788.87,1385.1157,1782.3319,1379.819,1784.3182,1377.8328,1779.0215,1377.75,1788.87" style="stroke:#181818;stroke-width:1.0;"/><text fill="#000000" font-family="sans-serif" font-size="13" lengthAdjust="spacing" textLength="67" x="1409" y="1755.0283">listed under</text><text fill="#000000" font-family="sans-serif" font-size="13" lengthAdjust="spacing" textLength="5" x="1465.5309" y="1686.7556">*</text><text fill="#000000" font-family="sans-serif" font-size="13" lengthAdjust="spacing" textLength="7" x="1372.632" y="1777.7476">1</text></g><!--link EmployeeRepository to Employee--><g id="link_EmployeeRepository_Employee"><path codeLine="302" d="M1429.44,887.09 C1428.85,924.22 1428,986.73 1428,1040.5 C1428,1040.5 1428,1040.5 1428,1457.5 C1428,1528.35 1361.44,1583.63 1309.49,1615.98 " fill="none" id="EmployeeRepository-to-Employee" style="stroke:#181818;stroke-width:1.0;"/><polygon fill="#181818" points="1305.15,1618.66,1314.9125,1617.3589,1309.4107,1616.0435,1310.7261,1610.5417,1305.15,1618.66" style="stroke:#181818;stroke-width:1.0;"/><text fill="#000000" font-family="sans-serif" font-size="13" lengthAdjust="spacing" textLength="42" x="1429" y="1185.0283">contais</text><text fill="#000000" font-family="sans-serif" font-size="13" lengthAdjust="spacing" textLength="7" x="1421.7168" y="908.6753">1</text><text fill="#000000" font-family="sans-serif" font-size="13" lengthAdjust="spacing" textLength="5" x="1313.0311" y="1610.5142">*</text></g><!--link Announcement to Commission--><g id="link_Announcement_Commission"><path codeLine="304" d="M538.31,1278.23 C562.56,1322.7 590.13,1373.25 609.61,1408.95 " fill="none" id="Announcement-to-Commission" style="stroke:#181818;stroke-width:1.0;"/><polygon fill="#181818" points="612.18,1413.67,611.3819,1403.8535,609.7857,1409.2805,604.3587,1407.6843,612.18,1413.67" style="stroke:#181818;stroke-width:1.0;"/><text fill="#000000" font-family="sans-serif" font-size="13" lengthAdjust="spacing" textLength="32" x="579" y="1337.5283">has a</text><text fill="#000000" font-family="sans-serif" font-size="13" lengthAdjust="spacing" textLength="7" x="534.9679" y="1300.1449">1</text><text fill="#000000" font-family="sans-serif" font-size="13" lengthAdjust="spacing" textLength="7" x="601.1497" y="1402.8422">1</text></g><!--SRC=[rLTBR-Cs4BxhLn2-EDvOmHP5BqPW87PIrC2sNSJ9hHTQOcnY9L8bgUvwlVlVEto9b4KvQGy5geDXpOl3cMy-KbFvYR862roZcZDU70Il2LAY9LdGDBZuXFTaguuLGO8K2hDz5Hl80oxvPyhsrdCQD1LbH1qRWXfU7VLBbj1neNZin7X996dGJ- -poBoei9HtIWcwQnNP59njwLU2m6PQaHU554U2xWyAbLJdI3dBCkE3xfgceWNMeYsHKcjE6OBd6aa5uWBjYTem-CyASZLpAf2jMo48Kyu9DDzzo6T9H1JBM6lPGurf5HlUCSPR25j3d4VoPqkaUjwSj7xSOCsP4hogY3Xb9lAgbL0hAP-WMglZFP65e8tUpjKkqaJosT1FGbRN84kizqWQBgdYufYqELUswW1oLz2XUW_Adm56eMhNXI1OaJZgLIAD-wVV4KwAvoLlTu2zWjSrDL7do8agAXKfFmfQa5bsiUmXqrEMVm0tT9kmMgPIa6ELawkZsIziCejMVwYRYXy9YPVK4RnyTRGusGAOOMY8VfbbbzF_5JUD1OJYK99K0LEfpup30_HB7SUANYhk01CRoBCzFl5xnNtAgIBfcZfRsuhnpUXLOMpoOHFryEKRfiYU2AI7xxuL1cYWo4ri0nFz1_pl0LPFj2Pc5_0_X0nGCH7ZIT36yTo0qqV1eRZgg5MD-s_ytWvJspxxfFOTa63HrmFVicSi_zE9SScMfO1wwEnSYwKI111XvLcEdBW088KtpPyal7wbpHh8EuPojtDA9FGyxmck7Eu2-Q95ps08Iu-sgrbA5v5HXC2u-z4Eoq2OKS8U2zOuPHl6LCFm5BaI8JaxXNgOoGwl3DUwM1xU3VWqSFZzrjOx8cB5WJFIIPspmb-SQ9YhNjArjp5JrBrY059uAwcjynDVG-P2snaisYMMUc75zm8t1ncjic47lACAGmGzj3xB7Ia5vxLBAf9ZTKWgu1o7qto_XVk4tzttU63yDCDkrhWYhCJ2JhKrSrlkKWpDUNxS3CdNiVpj8w_84i5vseFbBxoLn70GMd7GOOOEMAwmD40w4t_WBqRaGT-oXo-0j5ROaACq1oaagIpVkTXwVDgurEkA6aYDyIT4J71cUXMOZmIDT5KsfPt_mT2wuuWUNSHpq96YVfdtvgb7fJgSz-jyvbrBB6-dcUZwVvFh7ANAFNDOTgp7xQoWpfQM-WH3b-WaR2wq-IzSmOtQ0rrVbuDLRowsG7l4N6lp_feeeZ2wP_umXRFDKZl2Zk9Hb9ybBjIB5hEINRd7xNc-x9Fz0b57wrbNrCcxYRQR_30n-IxGPou-IGJjn6YP23YyIS6ooJirkbbUlaid_O8QtUW0mo-5rvtYRu5i6C7iesSpt2RKu_ALzIqkKOMo3jYttt9uOWgFb3REpSsFxoSHhouqvPrNomVNFj34tj8Bc4McC3rpCYdcFbS_oYOwmbbcgGuClYtTmQaJZn8rkLkYTlSgdxWDx6fWqUl2GWmRowsTDZ7djbtP0ypxsKM3D7NDrlk_zR5DA0rr1GUMr5-X4lmIRb7IvxMuRErtlG2-UO4aOOsaHyZAbdRXw5z6XGERyx2Q2y4KArpnFIdHiFTdM3G14XO11cyOjB4FdCMevXz7zVakHiRazNZnq2r4V2rzdKn6TZcQrld0Ny84T34-riwxrz6jTJ0Z_cwYZwJaQ5jGdpTL1sLmnuDZ5iPWEerrEW6BjF4qfjDiu6RIqRyfIDjdjFrZiFbNJl25b6Nc1BfC9T7OQDu36tTisUi0Qbcf3vRXAHMtocj7Q3BE89pj7Kswvsy0]--></g></svg>