<?xml version="1.0" encoding="us-ascii" standalone="no"?><svg xmlns="http://www.w3.org/2000/svg" xmlns:xlink="http://www.w3.org/1999/xlink" contentStyleType="text/css" height="635px" preserveAspectRatio="none" style="width:2500px;height:635px;background:#FFFFFF;" version="1.1" viewBox="0 0 2500 635" width="2500px" zoomAndPan="magnify"><defs/><g><rect fill="#FFFFFF" height="480.1133" style="stroke:#181818;stroke-width:1.0;" width="10" x="469" y="90.5332"/><rect fill="#FFFFFF" height="31.291" style="stroke:#181818;stroke-width:1.0;" width="10" x="641.5" y="121.8242"/><rect fill="#FFFFFF" height="31.291" style="stroke:#181818;stroke-width:1.0;" width="10" x="746.5" y="184.4063"/><rect fill="#FFFFFF" height="314.6582" style="stroke:#181818;stroke-width:1.0;" width="10" x="1297.5" y="246.9883"/><rect fill="#FFFFFF" height="130.873" style="stroke:#181818;stroke-width:1.0;" width="10" x="1302.5" y="392.4824"/><rect fill="#FFFFFF" height="42.291" style="stroke:#181818;stroke-width:1.0;" width="10" x="1307.5" y="436.7734"/><rect fill="#FFFFFF" height="74.9121" style="stroke:#181818;stroke-width:1.0;" width="10" x="1782.5" y="278.2793"/><line style="stroke:#181818;stroke-width:0.5;stroke-dasharray:5.0,5.0;" x1="474" x2="474" y1="57.2422" y2="579.6465"/><line style="stroke:#181818;stroke-width:0.5;stroke-dasharray:5.0,5.0;" x1="646" x2="646" y1="57.2422" y2="579.6465"/><line style="stroke:#181818;stroke-width:0.5;stroke-dasharray:5.0,5.0;" x1="751" x2="751" y1="57.2422" y2="579.6465"/><line style="stroke:#181818;stroke-width:0.5;stroke-dasharray:5.0,5.0;" x1="881" x2="881" y1="57.2422" y2="579.6465"/><line style="stroke:#181818;stroke-width:0.5;stroke-dasharray:5.0,5.0;" x1="1083" x2="1083" y1="57.2422" y2="579.6465"/><line style="stroke:#181818;stroke-width:0.5;stroke-dasharray:5.0,5.0;" x1="1302" x2="1302" y1="57.2422" y2="579.6465"/><line style="stroke:#181818;stroke-width:0.5;stroke-dasharray:5.0,5.0;" x1="1787.5" x2="1787.5" y1="57.2422" y2="579.6465"/><line style="stroke:#181818;stroke-width:0.5;stroke-dasharray:5.0,5.0;" x1="2089.5" x2="2089.5" y1="57.2422" y2="579.6465"/><line style="stroke:#181818;stroke-width:0.5;stroke-dasharray:5.0,5.0;" x1="2390.5" x2="2390.5" y1="318.0898" y2="579.6465"/><rect fill="#E2E2F0" height="32.6211" rx="2.5" ry="2.5" style="stroke:#181818;stroke-width:0.5;" width="228" x="360" y="23.6211"/><text fill="#000000" font-family="sans-serif" font-size="14" lengthAdjust="spacing" textLength="214" x="367" y="45.7285">:AnnouncementRequestController</text><rect fill="#E2E2F0" height="32.6211" rx="2.5" ry="2.5" style="stroke:#181818;stroke-width:0.5;" width="228" x="360" y="578.6465"/><text fill="#000000" font-family="sans-serif" font-size="14" lengthAdjust="spacing" textLength="214" x="367" y="600.7539">:AnnouncementRequestController</text><rect fill="#E2E2F0" height="32.6211" rx="2.5" ry="2.5" style="stroke:#181818;stroke-width:0.5;" width="97" x="598" y="23.6211"/><text fill="#000000" font-family="sans-serif" font-size="14" lengthAdjust="spacing" textLength="83" x="605" y="45.7285">:Repositories</text><rect fill="#E2E2F0" height="32.6211" rx="2.5" ry="2.5" style="stroke:#181818;stroke-width:0.5;" width="97" x="598" y="578.6465"/><text fill="#000000" font-family="sans-serif" font-size="14" lengthAdjust="spacing" textLength="83" x="605" y="600.7539">:Repositories</text><rect fill="#E2E2F0" height="51.2422" rx="2.5" ry="2.5" style="stroke:#181818;stroke-width:0.5;" width="93" x="705" y="5"/><text fill="#000000" font-family="sans-serif" font-size="14" lengthAdjust="spacing" textLength="72" x="713.5" y="27.1074">Repository:</text><text fill="#000000" font-family="sans-serif" font-size="14" lengthAdjust="spacing" textLength="79" x="712" y="45.7285">Repositories</text><rect fill="#E2E2F0" height="51.2422" rx="2.5" ry="2.5" style="stroke:#181818;stroke-width:0.5;" width="93" x="705" y="578.6465"/><text fill="#000000" font-family="sans-serif" font-size="14" lengthAdjust="spacing" textLength="72" x="713.5" y="600.7539">Repository:</text><text fill="#000000" font-family="sans-serif" font-size="14" lengthAdjust="spacing" textLength="79" x="712" y="619.375">Repositories</text><rect fill="#E2E2F0" height="51.2422" rx="2.5" ry="2.5" style="stroke:#181818;stroke-width:0.5;" width="147" x="808" y="5"/><text fill="#000000" font-family="sans-serif" font-size="14" lengthAdjust="spacing" textLength="133" x="815" y="27.1074">employeeRepository:</text><text fill="#000000" font-family="sans-serif" font-size="14" lengthAdjust="spacing" textLength="130" x="816.5" y="45.7285">EmployeeRepository</text><rect fill="#E2E2F0" height="51.2422" rx="2.5" ry="2.5" style="stroke:#181818;stroke-width:0.5;" width="147" x="808" y="578.6465"/><text fill="#000000" font-family="sans-serif" font-size="14" lengthAdjust="spacing" textLength="133" x="815" y="600.7539">employeeRepository:</text><text fill="#000000" font-family="sans-serif" font-size="14" lengthAdjust="spacing" textLength="130" x="816.5" y="619.375">EmployeeRepository</text><rect fill="#E2E2F0" height="51.2422" rx="2.5" ry="2.5" style="stroke:#181818;stroke-width:0.5;" width="237" x="965" y="5"/><text fill="#000000" font-family="sans-serif" font-size="14" lengthAdjust="spacing" textLength="219" x="976" y="27.1074">announcementRequestRepository:</text><text fill="#000000" font-family="sans-serif" font-size="14" lengthAdjust="spacing" textLength="216" x="975.5" y="45.7285">AnnouncementRequestRepository</text><rect fill="#E2E2F0" height="51.2422" rx="2.5" ry="2.5" style="stroke:#181818;stroke-width:0.5;" width="237" x="965" y="578.6465"/><text fill="#000000" font-family="sans-serif" font-size="14" lengthAdjust="spacing" textLength="219" x="976" y="600.7539">announcementRequestRepository:</text><text fill="#000000" font-family="sans-serif" font-size="14" lengthAdjust="spacing" textLength="216" x="975.5" y="619.375">AnnouncementRequestRepository</text><rect fill="#E2E2F0" height="51.2422" rx="2.5" ry="2.5" style="stroke:#181818;stroke-width:0.5;" width="181" x="1212" y="5"/><text fill="#000000" font-family="sans-serif" font-size="14" lengthAdjust="spacing" textLength="167" x="1219" y="27.1074">AnnouncementRepository:</text><text fill="#000000" font-family="sans-serif" font-size="14" lengthAdjust="spacing" textLength="163" x="1221" y="45.7285">AnnouncementRepository</text><rect fill="#E2E2F0" height="51.2422" rx="2.5" ry="2.5" style="stroke:#181818;stroke-width:0.5;" width="181" x="1212" y="578.6465"/><text fill="#000000" font-family="sans-serif" font-size="14" lengthAdjust="spacing" textLength="167" x="1219" y="600.7539">AnnouncementRepository:</text><text fill="#000000" font-family="sans-serif" font-size="14" lengthAdjust="spacing" textLength="163" x="1221" y="619.375">AnnouncementRepository</text><rect fill="#E2E2F0" height="32.6211" rx="2.5" ry="2.5" style="stroke:#181818;stroke-width:0.5;" width="210" x="1682.5" y="23.6211"/><text fill="#000000" font-family="sans-serif" font-size="14" lengthAdjust="spacing" textLength="196" x="1689.5" y="45.7285">AnnouncementRequestMapper</text><rect fill="#E2E2F0" height="32.6211" rx="2.5" ry="2.5" style="stroke:#181818;stroke-width:0.5;" width="210" x="1682.5" y="578.6465"/><text fill="#000000" font-family="sans-serif" font-size="14" lengthAdjust="spacing" textLength="196" x="1689.5" y="600.7539">AnnouncementRequestMapper</text><rect fill="#E2E2F0" height="32.6211" rx="2.5" ry="2.5" style="stroke:#181818;stroke-width:0.5;" width="374" x="1902.5" y="23.6211"/><text fill="#000000" font-family="sans-serif" font-size="14" lengthAdjust="spacing" textLength="360" x="1909.5" y="45.7285">AnnouncementRequestDTO:AnnouncementRequestDTO</text><rect fill="#E2E2F0" height="32.6211" rx="2.5" ry="2.5" style="stroke:#181818;stroke-width:0.5;" width="374" x="1902.5" y="578.6465"/><text fill="#000000" font-family="sans-serif" font-size="14" lengthAdjust="spacing" textLength="360" x="1909.5" y="600.7539">AnnouncementRequestDTO:AnnouncementRequestDTO</text><rect fill="#E2E2F0" height="32.6211" rx="2.5" ry="2.5" style="stroke:#181818;stroke-width:0.5;" width="208" x="2286.5" y="578.6465"/><text fill="#000000" font-family="sans-serif" font-size="14" lengthAdjust="spacing" textLength="194" x="2293.5" y="600.7539">Announcement:Announcement</text><rect fill="#FFFFFF" height="480.1133" style="stroke:#181818;stroke-width:1.0;" width="10" x="469" y="90.5332"/><rect fill="#FFFFFF" height="31.291" style="stroke:#181818;stroke-width:1.0;" width="10" x="641.5" y="121.8242"/><rect fill="#FFFFFF" height="31.291" style="stroke:#181818;stroke-width:1.0;" width="10" x="746.5" y="184.4063"/><rect fill="#FFFFFF" height="314.6582" style="stroke:#181818;stroke-width:1.0;" width="10" x="1297.5" y="246.9883"/><rect fill="#FFFFFF" height="130.873" style="stroke:#181818;stroke-width:1.0;" width="10" x="1302.5" y="392.4824"/><rect fill="#FFFFFF" height="42.291" style="stroke:#181818;stroke-width:1.0;" width="10" x="1307.5" y="436.7734"/><rect fill="#FFFFFF" height="74.9121" style="stroke:#181818;stroke-width:1.0;" width="10" x="1782.5" y="278.2793"/><polygon fill="#181818" points="457,86.5332,467,90.5332,457,94.5332,461,90.5332" style="stroke:#181818;stroke-width:1.0;"/><line style="stroke:#181818;stroke-width:1.0;" x1="0" x2="463" y1="90.5332" y2="90.5332"/><text fill="#000000" font-family="sans-serif" font-size="13" font-weight="bold" lengthAdjust="spacing" textLength="7" x="7" y="85.2705">1</text><text fill="#000000" font-family="sans-serif" font-size="13" lengthAdjust="spacing" textLength="439" x="18" y="85.2705">createAnnouncement(AnnouncementRequestDTO, commission, listedPrice)</text><polygon fill="#181818" points="629.5,117.8242,639.5,121.8242,629.5,125.8242,633.5,121.8242" style="stroke:#181818;stroke-width:1.0;"/><line style="stroke:#181818;stroke-width:1.0;" x1="479" x2="635.5" y1="121.8242" y2="121.8242"/><text fill="#000000" font-family="sans-serif" font-size="13" font-weight="bold" lengthAdjust="spacing" textLength="7" x="486" y="116.5615">2</text><text fill="#000000" font-family="sans-serif" font-size="13" lengthAdjust="spacing" textLength="75" x="497" y="116.5615">getInstance()</text><polygon fill="#181818" points="490,149.1152,480,153.1152,490,157.1152,486,153.1152" style="stroke:#181818;stroke-width:1.0;"/><line style="stroke:#181818;stroke-width:1.0;stroke-dasharray:2.0,2.0;" x1="484" x2="645.5" y1="153.1152" y2="153.1152"/><text fill="#000000" font-family="sans-serif" font-size="13" font-weight="bold" lengthAdjust="spacing" textLength="7" x="496" y="147.8525">3</text><text fill="#000000" font-family="sans-serif" font-size="13" lengthAdjust="spacing" textLength="72" x="507" y="147.8525">Repositories</text><polygon fill="#181818" points="734.5,180.4063,744.5,184.4063,734.5,188.4063,738.5,184.4063" style="stroke:#181818;stroke-width:1.0;"/><line style="stroke:#181818;stroke-width:1.0;" x1="479" x2="740.5" y1="184.4063" y2="184.4063"/><text fill="#000000" font-family="sans-serif" font-size="13" font-weight="bold" lengthAdjust="spacing" textLength="7" x="486" y="179.1436">4</text><text fill="#000000" font-family="sans-serif" font-size="13" lengthAdjust="spacing" textLength="175" x="497" y="179.1436">getAnnouncementRepository()</text><polygon fill="#181818" points="490,211.6973,480,215.6973,490,219.6973,486,215.6973" style="stroke:#181818;stroke-width:1.0;"/><line style="stroke:#181818;stroke-width:1.0;stroke-dasharray:2.0,2.0;" x1="484" x2="750.5" y1="215.6973" y2="215.6973"/><text fill="#000000" font-family="sans-serif" font-size="13" font-weight="bold" lengthAdjust="spacing" textLength="7" x="496" y="210.4346">5</text><text fill="#000000" font-family="sans-serif" font-size="13" lengthAdjust="spacing" textLength="147" x="507" y="210.4346">announcementRepository</text><polygon fill="#181818" points="1285.5,242.9883,1295.5,246.9883,1285.5,250.9883,1289.5,246.9883" style="stroke:#181818;stroke-width:1.0;"/><line style="stroke:#181818;stroke-width:1.0;" x1="479" x2="1291.5" y1="246.9883" y2="246.9883"/><text fill="#000000" font-family="sans-serif" font-size="13" font-weight="bold" lengthAdjust="spacing" textLength="7" x="486" y="241.7256">6</text><text fill="#000000" font-family="sans-serif" font-size="13" lengthAdjust="spacing" textLength="435" x="497" y="241.7256">createAnnouncement(AnnouncementRequestDTO,commission, listedPrice)</text><polygon fill="#181818" points="1770.5,274.2793,1780.5,278.2793,1770.5,282.2793,1774.5,278.2793" style="stroke:#181818;stroke-width:1.0;"/><line style="stroke:#181818;stroke-width:1.0;" x1="1307.5" x2="1776.5" y1="278.2793" y2="278.2793"/><text fill="#000000" font-family="sans-serif" font-size="13" font-weight="bold" lengthAdjust="spacing" textLength="7" x="1314.5" y="273.0166">7</text><text fill="#000000" font-family="sans-serif" font-size="13" lengthAdjust="spacing" textLength="445" x="1325.5" y="273.0166">announcementToEntity(AnnouncementRequestDTO,commission, listedPrice)</text><polygon fill="#181818" points="2274.5,305.5703,2284.5,309.5703,2274.5,313.5703,2278.5,309.5703" style="stroke:#181818;stroke-width:1.0;"/><line style="stroke:#181818;stroke-width:1.0;" x1="1792.5" x2="2280.5" y1="309.5703" y2="309.5703"/><text fill="#000000" font-family="sans-serif" font-size="13" font-weight="bold" lengthAdjust="spacing" textLength="7" x="1799.5" y="304.3076">8</text><text fill="#000000" font-family="sans-serif" font-size="13" lengthAdjust="spacing" textLength="327" x="1810.5" y="304.3076">create( announcement request, commission, listedPrice)</text><rect fill="#E2E2F0" height="32.6211" rx="2.5" ry="2.5" style="stroke:#181818;stroke-width:0.5;" width="208" x="2286.5" y="286.2793"/><text fill="#000000" font-family="sans-serif" font-size="14" lengthAdjust="spacing" textLength="194" x="2293.5" y="308.3867">Announcement:Announcement</text><polygon fill="#181818" points="1318.5,349.1914,1308.5,353.1914,1318.5,357.1914,1314.5,353.1914" style="stroke:#181818;stroke-width:1.0;"/><line style="stroke:#181818;stroke-width:1.0;stroke-dasharray:2.0,2.0;" x1="1312.5" x2="1786.5" y1="353.1914" y2="353.1914"/><text fill="#000000" font-family="sans-serif" font-size="13" font-weight="bold" lengthAdjust="spacing" textLength="7" x="1324.5" y="347.9287">9</text><text fill="#000000" font-family="sans-serif" font-size="13" lengthAdjust="spacing" textLength="85" x="1335.5" y="347.9287">announcement</text><line style="stroke:#181818;stroke-width:1.0;" x1="1307.5" x2="1354.5" y1="379.4824" y2="379.4824"/><line style="stroke:#181818;stroke-width:1.0;" x1="1354.5" x2="1354.5" y1="379.4824" y2="392.4824"/><line style="stroke:#181818;stroke-width:1.0;" x1="1313.5" x2="1354.5" y1="392.4824" y2="392.4824"/><polygon fill="#181818" points="1323.5,388.4824,1313.5,392.4824,1323.5,396.4824,1319.5,392.4824" style="stroke:#181818;stroke-width:1.0;"/><text fill="#000000" font-family="sans-serif" font-size="13" font-weight="bold" lengthAdjust="spacing" textLength="14" x="1319.5" y="374.2197">10</text><text fill="#000000" font-family="sans-serif" font-size="13" lengthAdjust="spacing" textLength="223" x="1337.5" y="374.2197">validateAnnouncement(announcement)</text><line style="stroke:#181818;stroke-width:1.0;" x1="1312.5" x2="1359.5" y1="423.7734" y2="423.7734"/><line style="stroke:#181818;stroke-width:1.0;" x1="1359.5" x2="1359.5" y1="423.7734" y2="436.7734"/><line style="stroke:#181818;stroke-width:1.0;" x1="1318.5" x2="1359.5" y1="436.7734" y2="436.7734"/><polygon fill="#181818" points="1328.5,432.7734,1318.5,436.7734,1328.5,440.7734,1324.5,436.7734" style="stroke:#181818;stroke-width:1.0;"/><text fill="#000000" font-family="sans-serif" font-size="13" font-weight="bold" lengthAdjust="spacing" textLength="14" x="1324.5" y="418.5107">11</text><text fill="#000000" font-family="sans-serif" font-size="13" lengthAdjust="spacing" textLength="114" x="1342.5" y="418.5107">add(announcement)</text><line style="stroke:#181818;stroke-width:1.0;stroke-dasharray:2.0,2.0;" x1="1317.5" x2="1359.5" y1="478.0645" y2="478.0645"/><line style="stroke:#181818;stroke-width:1.0;stroke-dasharray:2.0,2.0;" x1="1359.5" x2="1359.5" y1="478.0645" y2="491.0645"/><line style="stroke:#181818;stroke-width:1.0;stroke-dasharray:2.0,2.0;" x1="1312.5" x2="1359.5" y1="491.0645" y2="491.0645"/><polygon fill="#181818" points="1322.5,487.0645,1312.5,491.0645,1322.5,495.0645,1318.5,491.0645" style="stroke:#181818;stroke-width:1.0;"/><text fill="#000000" font-family="sans-serif" font-size="13" font-weight="bold" lengthAdjust="spacing" textLength="14" x="1324.5" y="472.8018">12</text><text fill="#000000" font-family="sans-serif" font-size="13" lengthAdjust="spacing" textLength="4" x="1342.5" y="472.8018">&#160;</text><line style="stroke:#181818;stroke-width:1.0;stroke-dasharray:2.0,2.0;" x1="1312.5" x2="1354.5" y1="522.3555" y2="522.3555"/><line style="stroke:#181818;stroke-width:1.0;stroke-dasharray:2.0,2.0;" x1="1354.5" x2="1354.5" y1="522.3555" y2="535.3555"/><line style="stroke:#181818;stroke-width:1.0;stroke-dasharray:2.0,2.0;" x1="1307.5" x2="1354.5" y1="535.3555" y2="535.3555"/><polygon fill="#181818" points="1317.5,531.3555,1307.5,535.3555,1317.5,539.3555,1313.5,535.3555" style="stroke:#181818;stroke-width:1.0;"/><text fill="#000000" font-family="sans-serif" font-size="13" font-weight="bold" lengthAdjust="spacing" textLength="14" x="1319.5" y="517.0928">13</text><text fill="#000000" font-family="sans-serif" font-size="13" lengthAdjust="spacing" textLength="4" x="1337.5" y="517.0928">&#160;</text><polygon fill="#181818" points="490,557.6465,480,561.6465,490,565.6465,486,561.6465" style="stroke:#181818;stroke-width:1.0;"/><line style="stroke:#181818;stroke-width:1.0;stroke-dasharray:2.0,2.0;" x1="484" x2="1301.5" y1="561.6465" y2="561.6465"/><text fill="#000000" font-family="sans-serif" font-size="13" font-weight="bold" lengthAdjust="spacing" textLength="14" x="496" y="556.3838">14</text><text fill="#000000" font-family="sans-serif" font-size="13" lengthAdjust="spacing" textLength="110" x="514" y="556.3838">newAnnouncement</text><!--SRC=[hLGxRuCm4Dxv5LQMaYeqEqCab6QeLDGAPSpYmYcr1BPhcrJvzpMF9DZO957g2HttFNptmTEtKbp6ooKlCLLrLRxah5fA-Ac1vX0L1Ey5he80ruhHkle24UZ3iL0a9rn3q2nEA6Mrxgw0ggn1IhLcL0bMbY1c24kqtcRl5YW3pYHHJ12GRK-A2JqNZsRtfHwZ7Hr1VJ2eUCcE00FuZcv6nPPZavbOXCUtCdYIgVSjPP9Pd2R4osMIE5zDyRPMKinvF_maIw-slsu_OdUvfz1FWP_5m7Q89YOeMZMRHp7A1M05mwxGBRT0EdyLaP8mka0baGgAJq5oc0UeEpXNvA39kb05ft8h5Asi66dfFQWtAXNMKk6Pn6IoecSqMNpH-Kh351g80hp4jbdRg7lPuVZk3hUcITIxnExuZAqw64yktQxkskhDI_N4_J8wZvd6PfR6m-jksOOgeewFUz8VqF2S5gthhUxpysaKeJ5l93gnYKoRNDvPctiC74dhFIBZJCpA8tF09IdidGwrvvR4rSKzwWWNnQI1UnruBNWzs0J3gVlI-j-Qzrkuhjp_8IZy9evmtNBBFm00]--></g></svg>