<?xml version="1.0" encoding="us-ascii" standalone="no"?><svg xmlns="http://www.w3.org/2000/svg" xmlns:xlink="http://www.w3.org/1999/xlink" contentStyleType="text/css" height="1347px" preserveAspectRatio="none" style="width:4327px;height:1347px;background:#FFFFFF;" version="1.1" viewBox="0 0 4327 1347" width="4327px" zoomAndPan="magnify"><defs/><g><text fill="#000000" font-family="sans-serif" font-size="14" font-weight="bold" lengthAdjust="spacing" textLength="179" x="2073.25" y="30.1074">US008 Sequence Diagram</text><rect fill="#FFFFFF" height="1121.8262" style="stroke:#181818;stroke-width:1.0;" width="10" x="36.5" y="133.2422"/><rect fill="#FFFFFF" height="296.5801" style="stroke:#181818;stroke-width:1.0;" width="10" x="774.5" y="156.5332"/><rect fill="#FFFFFF" height="75.582" style="stroke:#181818;stroke-width:1.0;" width="10" x="774.5" y="484.4043"/><rect fill="#FFFFFF" height="57.582" style="stroke:#181818;stroke-width:1.0;" width="10" x="774.5" y="591.2773"/><rect fill="#FFFFFF" height="31.291" style="stroke:#181818;stroke-width:1.0;" width="10" x="774.5" y="680.1504"/><rect fill="#FFFFFF" height="75.582" style="stroke:#181818;stroke-width:1.0;" width="10" x="774.5" y="742.7324"/><rect fill="#FFFFFF" height="247.3379" style="stroke:#181818;stroke-width:1.0;" width="10" x="774.5" y="849.6055"/><rect fill="#FFFFFF" height="42.291" style="stroke:#181818;stroke-width:1.0;" width="10" x="779.5" y="888.8965"/><rect fill="#FFFFFF" height="117.834" style="stroke:#181818;stroke-width:1.0;" width="10" x="774.5" y="1128.2344"/><rect fill="#FFFFFF" height="79.543" style="stroke:#181818;stroke-width:1.0;" width="10" x="1257.5" y="231.4453"/><rect fill="#FFFFFF" height="79.543" style="stroke:#181818;stroke-width:1.0;" width="10" x="1257.5" y="342.2793"/><rect fill="#FFFFFF" height="79.543" style="stroke:#181818;stroke-width:1.0;" width="10" x="1257.5" y="969.4785"/><rect fill="#FFFFFF" height="95.543" style="stroke:#181818;stroke-width:1.0;" width="10" x="1257.5" y="1159.5254"/><rect fill="none" height="609.5" style="stroke:#000000;stroke-width:1.5;" width="1376.5" x="10" y="606.2773"/><line style="stroke:#181818;stroke-width:0.5;stroke-dasharray:5.0,5.0;" x1="41" x2="41" y1="123.2422" y2="1264.0684"/><line style="stroke:#181818;stroke-width:0.5;stroke-dasharray:5.0,5.0;" x1="779.5" x2="779.5" y1="123.2422" y2="1264.0684"/><line style="stroke:#181818;stroke-width:0.5;stroke-dasharray:5.0,5.0;" x1="1262.5" x2="1262.5" y1="196.3438" y2="1264.0684"/><line style="stroke:#181818;stroke-width:0.5;stroke-dasharray:5.0,5.0;" x1="1434.5" x2="1434.5" y1="123.2422" y2="1264.0684"/><line style="stroke:#181818;stroke-width:0.5;stroke-dasharray:5.0,5.0;" x1="1539.5" x2="1539.5" y1="123.2422" y2="1264.0684"/><line style="stroke:#181818;stroke-width:0.5;stroke-dasharray:5.0,5.0;" x1="1664.5" x2="1664.5" y1="123.2422" y2="1264.0684"/><line style="stroke:#181818;stroke-width:0.5;stroke-dasharray:5.0,5.0;" x1="1811.5" x2="1811.5" y1="123.2422" y2="1264.0684"/><line style="stroke:#181818;stroke-width:0.5;stroke-dasharray:5.0,5.0;" x1="1944.5" x2="1944.5" y1="123.2422" y2="1264.0684"/><line style="stroke:#181818;stroke-width:0.5;stroke-dasharray:5.0,5.0;" x1="2082.5" x2="2082.5" y1="123.2422" y2="1264.0684"/><line style="stroke:#181818;stroke-width:0.5;stroke-dasharray:5.0,5.0;" x1="2284.5" x2="2284.5" y1="123.2422" y2="1264.0684"/><line style="stroke:#181818;stroke-width:0.5;stroke-dasharray:5.0,5.0;" x1="2503.5" x2="2503.5" y1="123.2422" y2="1264.0684"/><line style="stroke:#181818;stroke-width:0.5;stroke-dasharray:5.0,5.0;" x1="2709.5" x2="2709.5" y1="123.2422" y2="1264.0684"/><line style="stroke:#181818;stroke-width:0.5;stroke-dasharray:5.0,5.0;" x1="3045.5" x2="3045.5" y1="123.2422" y2="1264.0684"/><line style="stroke:#181818;stroke-width:0.5;stroke-dasharray:5.0,5.0;" x1="3467.5" x2="3467.5" y1="123.2422" y2="1264.0684"/><line style="stroke:#181818;stroke-width:0.5;stroke-dasharray:5.0,5.0;" x1="3855.5" x2="3855.5" y1="123.2422" y2="1264.0684"/><line style="stroke:#181818;stroke-width:0.5;stroke-dasharray:5.0,5.0;" x1="4156.5" x2="4156.5" y1="123.2422" y2="1264.0684"/><line style="stroke:#181818;stroke-width:0.5;stroke-dasharray:5.0,5.0;" x1="4295.5" x2="4295.5" y1="123.2422" y2="1264.0684"/><text fill="#000000" font-family="sans-serif" font-size="14" lengthAdjust="spacing" textLength="37" x="20" y="119.7285">Agent</text><ellipse cx="41.5" cy="53.1211" fill="#E3E3E3" rx="8" ry="8" style="stroke:#181818;stroke-width:0.5;"/><path d="M41.5,61.1211 L41.5,88.1211 M28.5,69.1211 L54.5,69.1211 M41.5,88.1211 L28.5,103.1211 M41.5,88.1211 L54.5,103.1211 " fill="none" style="stroke:#181818;stroke-width:0.5;"/><text fill="#000000" font-family="sans-serif" font-size="14" lengthAdjust="spacing" textLength="37" x="20" y="1278.1758">Agent</text><ellipse cx="41.5" cy="1290.1895" fill="#E3E3E3" rx="8" ry="8" style="stroke:#181818;stroke-width:0.5;"/><path d="M41.5,1298.1895 L41.5,1325.1895 M28.5,1306.1895 L54.5,1306.1895 M41.5,1325.1895 L28.5,1340.1895 M41.5,1325.1895 L54.5,1340.1895 " fill="none" style="stroke:#181818;stroke-width:0.5;"/><rect fill="#E3E3E3" height="32.6211" rx="2.5" ry="2.5" style="stroke:#181818;stroke-width:0.5;" width="178" x="690.5" y="89.6211"/><text fill="#000000" font-family="sans-serif" font-size="14" lengthAdjust="spacing" textLength="164" x="697.5" y="111.7285">:AnnouncementRequestUI</text><rect fill="#E3E3E3" height="32.6211" rx="2.5" ry="2.5" style="stroke:#181818;stroke-width:0.5;" width="178" x="690.5" y="1263.0684"/><text fill="#000000" font-family="sans-serif" font-size="14" lengthAdjust="spacing" textLength="164" x="697.5" y="1285.1758">:AnnouncementRequestUI</text><rect fill="#E3E3E3" height="32.6211" rx="2.5" ry="2.5" style="stroke:#181818;stroke-width:0.5;" width="228" x="1148.5" y="1263.0684"/><text fill="#000000" font-family="sans-serif" font-size="14" lengthAdjust="spacing" textLength="214" x="1155.5" y="1285.1758">:AnnouncementRequestController</text><rect fill="#E3E3E3" height="32.6211" rx="2.5" ry="2.5" style="stroke:#181818;stroke-width:0.5;" width="97" x="1386.5" y="89.6211"/><text fill="#000000" font-family="sans-serif" font-size="14" lengthAdjust="spacing" textLength="83" x="1393.5" y="111.7285">:Repositories</text><rect fill="#E3E3E3" height="32.6211" rx="2.5" ry="2.5" style="stroke:#181818;stroke-width:0.5;" width="97" x="1386.5" y="1263.0684"/><text fill="#000000" font-family="sans-serif" font-size="14" lengthAdjust="spacing" textLength="83" x="1393.5" y="1285.1758">:Repositories</text><rect fill="#E3E3E3" height="51.2422" rx="2.5" ry="2.5" style="stroke:#181818;stroke-width:0.5;" width="93" x="1493.5" y="71"/><text fill="#000000" font-family="sans-serif" font-size="14" lengthAdjust="spacing" textLength="72" x="1502" y="93.1074">Repository:</text><text fill="#000000" font-family="sans-serif" font-size="14" lengthAdjust="spacing" textLength="79" x="1500.5" y="111.7285">Repositories</text><rect fill="#E3E3E3" height="51.2422" rx="2.5" ry="2.5" style="stroke:#181818;stroke-width:0.5;" width="93" x="1493.5" y="1263.0684"/><text fill="#000000" font-family="sans-serif" font-size="14" lengthAdjust="spacing" textLength="72" x="1502" y="1285.1758">Repository:</text><text fill="#000000" font-family="sans-serif" font-size="14" lengthAdjust="spacing" textLength="79" x="1500.5" y="1303.7969">Repositories</text><rect fill="#E3E3E3" height="32.6211" rx="2.5" ry="2.5" style="stroke:#181818;stroke-width:0.5;" width="137" x="1596.5" y="89.6211"/><text fill="#000000" font-family="sans-serif" font-size="14" lengthAdjust="spacing" textLength="123" x="1603.5" y="111.7285">:ApplicationSession</text><rect fill="#E3E3E3" height="32.6211" rx="2.5" ry="2.5" style="stroke:#181818;stroke-width:0.5;" width="137" x="1596.5" y="1263.0684"/><text fill="#000000" font-family="sans-serif" font-size="14" lengthAdjust="spacing" textLength="123" x="1603.5" y="1285.1758">:ApplicationSession</text><rect fill="#E3E3E3" height="51.2422" rx="2.5" ry="2.5" style="stroke:#181818;stroke-width:0.5;" width="137" x="1743.5" y="71"/><text fill="#000000" font-family="sans-serif" font-size="14" lengthAdjust="spacing" textLength="74" x="1775" y="93.1074">appSession</text><text fill="#000000" font-family="sans-serif" font-size="14" lengthAdjust="spacing" textLength="123" x="1750.5" y="111.7285">:ApplicationSession</text><rect fill="#E3E3E3" height="51.2422" rx="2.5" ry="2.5" style="stroke:#181818;stroke-width:0.5;" width="137" x="1743.5" y="1263.0684"/><text fill="#000000" font-family="sans-serif" font-size="14" lengthAdjust="spacing" textLength="74" x="1775" y="1285.1758">appSession</text><text fill="#000000" font-family="sans-serif" font-size="14" lengthAdjust="spacing" textLength="123" x="1750.5" y="1303.7969">:ApplicationSession</text><rect fill="#E3E3E3" height="51.2422" rx="2.5" ry="2.5" style="stroke:#181818;stroke-width:0.5;" width="109" x="1890.5" y="71"/><text fill="#000000" font-family="sans-serif" font-size="14" lengthAdjust="spacing" textLength="95" x="1897.5" y="93.1074">currentSession</text><text fill="#000000" font-family="sans-serif" font-size="14" lengthAdjust="spacing" textLength="83" x="1903.5" y="111.7285">:UserSession</text><rect fill="#E3E3E3" height="51.2422" rx="2.5" ry="2.5" style="stroke:#181818;stroke-width:0.5;" width="109" x="1890.5" y="1263.0684"/><text fill="#000000" font-family="sans-serif" font-size="14" lengthAdjust="spacing" textLength="95" x="1897.5" y="1285.1758">currentSession</text><text fill="#000000" font-family="sans-serif" font-size="14" lengthAdjust="spacing" textLength="83" x="1903.5" y="1303.7969">:UserSession</text><rect fill="#E3E3E3" height="51.2422" rx="2.5" ry="2.5" style="stroke:#181818;stroke-width:0.5;" width="147" x="2009.5" y="71"/><text fill="#000000" font-family="sans-serif" font-size="14" lengthAdjust="spacing" textLength="133" x="2016.5" y="93.1074">employeeRepository:</text><text fill="#000000" font-family="sans-serif" font-size="14" lengthAdjust="spacing" textLength="130" x="2018" y="111.7285">EmployeeRepository</text><rect fill="#E3E3E3" height="51.2422" rx="2.5" ry="2.5" style="stroke:#181818;stroke-width:0.5;" width="147" x="2009.5" y="1263.0684"/><text fill="#000000" font-family="sans-serif" font-size="14" lengthAdjust="spacing" textLength="133" x="2016.5" y="1285.1758">employeeRepository:</text><text fill="#000000" font-family="sans-serif" font-size="14" lengthAdjust="spacing" textLength="130" x="2018" y="1303.7969">EmployeeRepository</text><rect fill="#E3E3E3" height="51.2422" rx="2.5" ry="2.5" style="stroke:#181818;stroke-width:0.5;" width="237" x="2166.5" y="71"/><text fill="#000000" font-family="sans-serif" font-size="14" lengthAdjust="spacing" textLength="219" x="2177.5" y="93.1074">announcementRequestRepository:</text><text fill="#000000" font-family="sans-serif" font-size="14" lengthAdjust="spacing" textLength="216" x="2177" y="111.7285">AnnouncementRequestRepository</text><rect fill="#E3E3E3" height="51.2422" rx="2.5" ry="2.5" style="stroke:#181818;stroke-width:0.5;" width="237" x="2166.5" y="1263.0684"/><text fill="#000000" font-family="sans-serif" font-size="14" lengthAdjust="spacing" textLength="219" x="2177.5" y="1285.1758">announcementRequestRepository:</text><text fill="#000000" font-family="sans-serif" font-size="14" lengthAdjust="spacing" textLength="216" x="2177" y="1303.7969">AnnouncementRequestRepository</text><rect fill="#E3E3E3" height="51.2422" rx="2.5" ry="2.5" style="stroke:#181818;stroke-width:0.5;" width="181" x="2413.5" y="71"/><text fill="#000000" font-family="sans-serif" font-size="14" lengthAdjust="spacing" textLength="167" x="2420.5" y="93.1074">AnnouncementRepository:</text><text fill="#000000" font-family="sans-serif" font-size="14" lengthAdjust="spacing" textLength="163" x="2422.5" y="111.7285">AnnouncementRepository</text><rect fill="#E3E3E3" height="51.2422" rx="2.5" ry="2.5" style="stroke:#181818;stroke-width:0.5;" width="181" x="2413.5" y="1263.0684"/><text fill="#000000" font-family="sans-serif" font-size="14" lengthAdjust="spacing" textLength="167" x="2420.5" y="1285.1758">AnnouncementRepository:</text><text fill="#000000" font-family="sans-serif" font-size="14" lengthAdjust="spacing" textLength="163" x="2422.5" y="1303.7969">AnnouncementRepository</text><rect fill="#E3E3E3" height="32.6211" rx="2.5" ry="2.5" style="stroke:#181818;stroke-width:0.5;" width="210" x="2604.5" y="89.6211"/><text fill="#000000" font-family="sans-serif" font-size="14" lengthAdjust="spacing" textLength="196" x="2611.5" y="111.7285">AnnouncementRequestMapper</text><rect fill="#E3E3E3" height="32.6211" rx="2.5" ry="2.5" style="stroke:#181818;stroke-width:0.5;" width="210" x="2604.5" y="1263.0684"/><text fill="#000000" font-family="sans-serif" font-size="14" lengthAdjust="spacing" textLength="196" x="2611.5" y="1285.1758">AnnouncementRequestMapper</text><rect fill="#E3E3E3" height="32.6211" rx="2.5" ry="2.5" style="stroke:#181818;stroke-width:0.5;" width="442" x="2824.5" y="89.6211"/><text fill="#000000" font-family="sans-serif" font-size="14" lengthAdjust="spacing" textLength="428" x="2831.5" y="111.7285">ListAnnouncementRequestDTO : List&lt;AnnouncementRequestDTO&gt;</text><rect fill="#E3E3E3" height="32.6211" rx="2.5" ry="2.5" style="stroke:#181818;stroke-width:0.5;" width="442" x="2824.5" y="1263.0684"/><text fill="#000000" font-family="sans-serif" font-size="14" lengthAdjust="spacing" textLength="428" x="2831.5" y="1285.1758">ListAnnouncementRequestDTO : List&lt;AnnouncementRequestDTO&gt;</text><rect fill="#E3E3E3" height="32.6211" rx="2.5" ry="2.5" style="stroke:#181818;stroke-width:0.5;" width="382" x="3276.5" y="89.6211"/><text fill="#000000" font-family="sans-serif" font-size="14" lengthAdjust="spacing" textLength="368" x="3283.5" y="111.7285">ListAnnouncementRequest : List&lt;AnnouncementRequest&gt;</text><rect fill="#E3E3E3" height="32.6211" rx="2.5" ry="2.5" style="stroke:#181818;stroke-width:0.5;" width="382" x="3276.5" y="1263.0684"/><text fill="#000000" font-family="sans-serif" font-size="14" lengthAdjust="spacing" textLength="368" x="3283.5" y="1285.1758">ListAnnouncementRequest : List&lt;AnnouncementRequest&gt;</text><rect fill="#E3E3E3" height="32.6211" rx="2.5" ry="2.5" style="stroke:#181818;stroke-width:0.5;" width="374" x="3668.5" y="89.6211"/><text fill="#000000" font-family="sans-serif" font-size="14" lengthAdjust="spacing" textLength="360" x="3675.5" y="111.7285">AnnouncementRequestDTO:AnnouncementRequestDTO</text><rect fill="#E3E3E3" height="32.6211" rx="2.5" ry="2.5" style="stroke:#181818;stroke-width:0.5;" width="374" x="3668.5" y="1263.0684"/><text fill="#000000" font-family="sans-serif" font-size="14" lengthAdjust="spacing" textLength="360" x="3675.5" y="1285.1758">AnnouncementRequestDTO:AnnouncementRequestDTO</text><rect fill="#E3E3E3" height="32.6211" rx="2.5" ry="2.5" style="stroke:#181818;stroke-width:0.5;" width="208" x="4052.5" y="89.6211"/><text fill="#000000" font-family="sans-serif" font-size="14" lengthAdjust="spacing" textLength="194" x="4059.5" y="111.7285">Announcement:Announcement</text><rect fill="#E3E3E3" height="32.6211" rx="2.5" ry="2.5" style="stroke:#181818;stroke-width:0.5;" width="208" x="4052.5" y="1263.0684"/><text fill="#000000" font-family="sans-serif" font-size="14" lengthAdjust="spacing" textLength="194" x="4059.5" y="1285.1758">Announcement:Announcement</text><rect fill="#E3E3E3" height="32.6211" rx="2.5" ry="2.5" style="stroke:#181818;stroke-width:0.5;" width="51" x="4270.5" y="89.6211"/><text fill="#000000" font-family="sans-serif" font-size="14" lengthAdjust="spacing" textLength="37" x="4277.5" y="111.7285">Agent</text><rect fill="#E3E3E3" height="32.6211" rx="2.5" ry="2.5" style="stroke:#181818;stroke-width:0.5;" width="51" x="4270.5" y="1263.0684"/><text fill="#000000" font-family="sans-serif" font-size="14" lengthAdjust="spacing" textLength="37" x="4277.5" y="1285.1758">Agent</text><rect fill="#FFFFFF" height="1121.8262" style="stroke:#181818;stroke-width:1.0;" width="10" x="36.5" y="133.2422"/><rect fill="#FFFFFF" height="296.5801" style="stroke:#181818;stroke-width:1.0;" width="10" x="774.5" y="156.5332"/><rect fill="#FFFFFF" height="75.582" style="stroke:#181818;stroke-width:1.0;" width="10" x="774.5" y="484.4043"/><rect fill="#FFFFFF" height="57.582" style="stroke:#181818;stroke-width:1.0;" width="10" x="774.5" y="591.2773"/><rect fill="#FFFFFF" height="31.291" style="stroke:#181818;stroke-width:1.0;" width="10" x="774.5" y="680.1504"/><rect fill="#FFFFFF" height="75.582" style="stroke:#181818;stroke-width:1.0;" width="10" x="774.5" y="742.7324"/><rect fill="#FFFFFF" height="247.3379" style="stroke:#181818;stroke-width:1.0;" width="10" x="774.5" y="849.6055"/><rect fill="#FFFFFF" height="42.291" style="stroke:#181818;stroke-width:1.0;" width="10" x="779.5" y="888.8965"/><rect fill="#FFFFFF" height="117.834" style="stroke:#181818;stroke-width:1.0;" width="10" x="774.5" y="1128.2344"/><rect fill="#FFFFFF" height="79.543" style="stroke:#181818;stroke-width:1.0;" width="10" x="1257.5" y="231.4453"/><rect fill="#FFFFFF" height="79.543" style="stroke:#181818;stroke-width:1.0;" width="10" x="1257.5" y="342.2793"/><rect fill="#FFFFFF" height="79.543" style="stroke:#181818;stroke-width:1.0;" width="10" x="1257.5" y="969.4785"/><rect fill="#FFFFFF" height="95.543" style="stroke:#181818;stroke-width:1.0;" width="10" x="1257.5" y="1159.5254"/><polygon fill="#181818" points="762.5,152.5332,772.5,156.5332,762.5,160.5332,766.5,156.5332" style="stroke:#181818;stroke-width:1.0;"/><line style="stroke:#181818;stroke-width:1.0;" x1="46.5" x2="768.5" y1="156.5332" y2="156.5332"/><text fill="#000000" font-family="sans-serif" font-size="13" font-weight="bold" lengthAdjust="spacing" textLength="7" x="53.5" y="151.2705">1</text><text fill="#000000" font-family="sans-serif" font-size="13" lengthAdjust="spacing" textLength="319" x="64.5" y="151.2705">asks to see the list of property announcement requests</text><polygon fill="#181818" points="1136.5,183.8242,1146.5,187.8242,1136.5,191.8242,1140.5,187.8242" style="stroke:#181818;stroke-width:1.0;"/><line style="stroke:#181818;stroke-width:1.0;" x1="784.5" x2="1142.5" y1="187.8242" y2="187.8242"/><text fill="#000000" font-family="sans-serif" font-size="13" font-weight="bold" lengthAdjust="spacing" textLength="7" x="791.5" y="182.5615">2</text><text fill="#000000" font-family="sans-serif" font-size="13" lengthAdjust="spacing" textLength="36" x="802.5" y="182.5615">create</text><rect fill="#E3E3E3" height="32.6211" rx="2.5" ry="2.5" style="stroke:#181818;stroke-width:0.5;" width="228" x="1148.5" y="164.5332"/><text fill="#000000" font-family="sans-serif" font-size="14" lengthAdjust="spacing" textLength="214" x="1155.5" y="186.6406">:AnnouncementRequestController</text><polygon fill="#181818" points="1245.5,227.4453,1255.5,231.4453,1245.5,235.4453,1249.5,231.4453" style="stroke:#181818;stroke-width:1.0;"/><line style="stroke:#181818;stroke-width:1.0;" x1="784.5" x2="1251.5" y1="231.4453" y2="231.4453"/><text fill="#000000" font-family="sans-serif" font-size="13" font-weight="bold" lengthAdjust="spacing" textLength="7" x="791.5" y="226.1826">3</text><text fill="#000000" font-family="sans-serif" font-size="13" lengthAdjust="spacing" textLength="137" x="802.5" y="226.1826">getAgentFromSession()</text><rect fill="none" height="43.252" style="stroke:#000000;stroke-width:1.5;" width="234" x="1145.5" y="239.4453"/><path d="M1145.5,239.4453 L1207.5,239.4453 L1207.5,248.4453 L1197.5,258.4453 L1145.5,258.4453 L1145.5,239.4453 " fill="#EEEEEE" style="stroke:#000000;stroke-width:2.0;"/><text fill="#000000" font-family="sans-serif" font-size="13" font-weight="bold" lengthAdjust="spacing" textLength="17" x="1158.5" y="255.4736">ref</text><text fill="#000000" font-family="sans-serif" font-size="12" lengthAdjust="spacing" textLength="132" x="1196.5" y="275.3945">get Agent From Session</text><polygon fill="#181818" points="795.5,306.9883,785.5,310.9883,795.5,314.9883,791.5,310.9883" style="stroke:#181818;stroke-width:1.0;"/><line style="stroke:#181818;stroke-width:1.0;stroke-dasharray:2.0,2.0;" x1="789.5" x2="1261.5" y1="310.9883" y2="310.9883"/><text fill="#000000" font-family="sans-serif" font-size="13" font-weight="bold" lengthAdjust="spacing" textLength="7" x="801.5" y="305.7256">4</text><text fill="#000000" font-family="sans-serif" font-size="13" lengthAdjust="spacing" textLength="32" x="812.5" y="305.7256">agent</text><polygon fill="#181818" points="1245.5,338.2793,1255.5,342.2793,1245.5,346.2793,1249.5,342.2793" style="stroke:#181818;stroke-width:1.0;"/><line style="stroke:#181818;stroke-width:1.0;" x1="784.5" x2="1251.5" y1="342.2793" y2="342.2793"/><text fill="#000000" font-family="sans-serif" font-size="13" font-weight="bold" lengthAdjust="spacing" textLength="7" x="791.5" y="337.0166">5</text><text fill="#000000" font-family="sans-serif" font-size="13" lengthAdjust="spacing" textLength="257" x="802.5" y="337.0166">getAnnouncementsRequestsByAgent(agent)</text><rect fill="none" height="43.252" style="stroke:#000000;stroke-width:1.5;" width="234" x="1145.5" y="350.2793"/><path d="M1145.5,350.2793 L1207.5,350.2793 L1207.5,359.2793 L1197.5,369.2793 L1145.5,369.2793 L1145.5,350.2793 " fill="#EEEEEE" style="stroke:#000000;stroke-width:2.0;"/><text fill="#000000" font-family="sans-serif" font-size="13" font-weight="bold" lengthAdjust="spacing" textLength="17" x="1158.5" y="366.3076">ref</text><text fill="#000000" font-family="sans-serif" font-size="12" lengthAdjust="spacing" textLength="170" x="1177.5" y="386.2285">get AnnouncementRequestList</text><polygon fill="#181818" points="795.5,417.8223,785.5,421.8223,795.5,425.8223,791.5,421.8223" style="stroke:#181818;stroke-width:1.0;"/><line style="stroke:#181818;stroke-width:1.0;stroke-dasharray:2.0,2.0;" x1="789.5" x2="1261.5" y1="421.8223" y2="421.8223"/><text fill="#000000" font-family="sans-serif" font-size="13" font-weight="bold" lengthAdjust="spacing" textLength="7" x="801.5" y="416.5596">6</text><text fill="#000000" font-family="sans-serif" font-size="13" lengthAdjust="spacing" textLength="182" x="812.5" y="416.5596">ListAnnouncementRequestDTO</text><polygon fill="#181818" points="57.5,449.1133,47.5,453.1133,57.5,457.1133,53.5,453.1133" style="stroke:#181818;stroke-width:1.0;"/><line style="stroke:#181818;stroke-width:1.0;stroke-dasharray:2.0,2.0;" x1="51.5" x2="778.5" y1="453.1133" y2="453.1133"/><text fill="#000000" font-family="sans-serif" font-size="13" font-weight="bold" lengthAdjust="spacing" textLength="7" x="63.5" y="447.8506">7</text><text fill="#000000" font-family="sans-serif" font-size="13" lengthAdjust="spacing" textLength="693" x="74.5" y="447.8506">provides the list of announcement request responsible for that agent, sorted by the creation date, and asks to select one</text><polygon fill="#181818" points="762.5,480.4043,772.5,484.4043,762.5,488.4043,766.5,484.4043" style="stroke:#181818;stroke-width:1.0;"/><line style="stroke:#181818;stroke-width:1.0;" x1="46.5" x2="768.5" y1="484.4043" y2="484.4043"/><text fill="#000000" font-family="sans-serif" font-size="13" font-weight="bold" lengthAdjust="spacing" textLength="7" x="53.5" y="479.1416">8</text><text fill="#000000" font-family="sans-serif" font-size="13" lengthAdjust="spacing" textLength="178" x="64.5" y="479.1416">selects announcement request</text><line style="stroke:#181818;stroke-width:1.0;" x1="784.5" x2="826.5" y1="515.6953" y2="515.6953"/><line style="stroke:#181818;stroke-width:1.0;" x1="826.5" x2="826.5" y1="515.6953" y2="528.6953"/><line style="stroke:#181818;stroke-width:1.0;" x1="785.5" x2="826.5" y1="528.6953" y2="528.6953"/><polygon fill="#181818" points="795.5,524.6953,785.5,528.6953,795.5,532.6953,791.5,528.6953" style="stroke:#181818;stroke-width:1.0;"/><text fill="#000000" font-family="sans-serif" font-size="13" font-weight="bold" lengthAdjust="spacing" textLength="7" x="791.5" y="510.4326">9</text><text fill="#000000" font-family="sans-serif" font-size="13" lengthAdjust="spacing" textLength="224" x="802.5" y="510.4326">keepData(AnnouncementRequestDTO)</text><polygon fill="#181818" points="57.5,555.9863,47.5,559.9863,57.5,563.9863,53.5,559.9863" style="stroke:#181818;stroke-width:1.0;"/><line style="stroke:#181818;stroke-width:1.0;stroke-dasharray:2.0,2.0;" x1="51.5" x2="778.5" y1="559.9863" y2="559.9863"/><text fill="#000000" font-family="sans-serif" font-size="13" font-weight="bold" lengthAdjust="spacing" textLength="14" x="63.5" y="554.7236">10</text><text fill="#000000" font-family="sans-serif" font-size="13" lengthAdjust="spacing" textLength="326" x="81.5" y="554.7236">ask if the user wants to post the property announcement</text><polygon fill="#181818" points="762.5,587.2773,772.5,591.2773,762.5,595.2773,766.5,591.2773" style="stroke:#181818;stroke-width:1.0;"/><line style="stroke:#181818;stroke-width:1.0;" x1="46.5" x2="768.5" y1="591.2773" y2="591.2773"/><text fill="#000000" font-family="sans-serif" font-size="13" font-weight="bold" lengthAdjust="spacing" textLength="14" x="53.5" y="586.0146">11</text><text fill="#000000" font-family="sans-serif" font-size="13" lengthAdjust="spacing" textLength="196" x="71.5" y="586.0146">provides the request data (yes/no)</text><path d="M10,606.2773 L71,606.2773 L71,615.5684 L61,625.5684 L10,625.5684 L10,606.2773 " fill="#EEEEEE" style="stroke:#000000;stroke-width:1.5;"/><rect fill="none" height="609.5" style="stroke:#000000;stroke-width:1.5;" width="1376.5" x="10" y="606.2773"/><text fill="#000000" font-family="sans-serif" font-size="13" font-weight="bold" lengthAdjust="spacing" textLength="16" x="25" y="621.3057">alt</text><text fill="#000000" font-family="sans-serif" font-size="11" font-weight="bold" lengthAdjust="spacing" textLength="92" x="86" y="620.1475">[if answer = yes]</text><polygon fill="#181818" points="57.5,644.8594,47.5,648.8594,57.5,652.8594,53.5,648.8594" style="stroke:#181818;stroke-width:1.0;"/><line style="stroke:#181818;stroke-width:1.0;stroke-dasharray:2.0,2.0;" x1="51.5" x2="778.5" y1="648.8594" y2="648.8594"/><text fill="#000000" font-family="sans-serif" font-size="13" font-weight="bold" lengthAdjust="spacing" textLength="14" x="63.5" y="643.5967">12</text><text fill="#000000" font-family="sans-serif" font-size="13" lengthAdjust="spacing" textLength="258" x="81.5" y="643.5967">Asks if commission is in percentage or value</text><polygon fill="#181818" points="762.5,676.1504,772.5,680.1504,762.5,684.1504,766.5,680.1504" style="stroke:#181818;stroke-width:1.0;"/><line style="stroke:#181818;stroke-width:1.0;" x1="46.5" x2="768.5" y1="680.1504" y2="680.1504"/><text fill="#000000" font-family="sans-serif" font-size="13" font-weight="bold" lengthAdjust="spacing" textLength="14" x="53.5" y="674.8877">13</text><text fill="#000000" font-family="sans-serif" font-size="13" lengthAdjust="spacing" textLength="143" x="71.5" y="674.8877">inputs the pretend option</text><polygon fill="#181818" points="57.5,707.4414,47.5,711.4414,57.5,715.4414,53.5,711.4414" style="stroke:#181818;stroke-width:1.0;"/><line style="stroke:#181818;stroke-width:1.0;stroke-dasharray:2.0,2.0;" x1="51.5" x2="778.5" y1="711.4414" y2="711.4414"/><text fill="#000000" font-family="sans-serif" font-size="13" font-weight="bold" lengthAdjust="spacing" textLength="14" x="63.5" y="706.1787">14</text><text fill="#000000" font-family="sans-serif" font-size="13" lengthAdjust="spacing" textLength="154" x="81.5" y="706.1787">request data (commission)</text><polygon fill="#181818" points="762.5,738.7324,772.5,742.7324,762.5,746.7324,766.5,742.7324" style="stroke:#181818;stroke-width:1.0;"/><line style="stroke:#181818;stroke-width:1.0;" x1="46.5" x2="768.5" y1="742.7324" y2="742.7324"/><text fill="#000000" font-family="sans-serif" font-size="13" font-weight="bold" lengthAdjust="spacing" textLength="14" x="53.5" y="737.4697">15</text><text fill="#000000" font-family="sans-serif" font-size="13" lengthAdjust="spacing" textLength="145" x="71.5" y="737.4697">provides the request data</text><line style="stroke:#181818;stroke-width:1.0;" x1="784.5" x2="826.5" y1="774.0234" y2="774.0234"/><line style="stroke:#181818;stroke-width:1.0;" x1="826.5" x2="826.5" y1="774.0234" y2="787.0234"/><line style="stroke:#181818;stroke-width:1.0;" x1="785.5" x2="826.5" y1="787.0234" y2="787.0234"/><polygon fill="#181818" points="795.5,783.0234,785.5,787.0234,795.5,791.0234,791.5,787.0234" style="stroke:#181818;stroke-width:1.0;"/><text fill="#000000" font-family="sans-serif" font-size="13" font-weight="bold" lengthAdjust="spacing" textLength="14" x="791.5" y="768.7607">16</text><text fill="#000000" font-family="sans-serif" font-size="13" lengthAdjust="spacing" textLength="133" x="809.5" y="768.7607">keepData(commission)</text><polygon fill="#181818" points="57.5,814.3145,47.5,818.3145,57.5,822.3145,53.5,818.3145" style="stroke:#181818;stroke-width:1.0;"/><line style="stroke:#181818;stroke-width:1.0;stroke-dasharray:2.0,2.0;" x1="51.5" x2="778.5" y1="818.3145" y2="818.3145"/><text fill="#000000" font-family="sans-serif" font-size="13" font-weight="bold" lengthAdjust="spacing" textLength="14" x="63.5" y="813.0518">17</text><text fill="#000000" font-family="sans-serif" font-size="13" lengthAdjust="spacing" textLength="146" x="81.5" y="813.0518">request data confirmation</text><polygon fill="#181818" points="762.5,845.6055,772.5,849.6055,762.5,853.6055,766.5,849.6055" style="stroke:#181818;stroke-width:1.0;"/><line style="stroke:#181818;stroke-width:1.0;" x1="46.5" x2="768.5" y1="849.6055" y2="849.6055"/><text fill="#000000" font-family="sans-serif" font-size="13" font-weight="bold" lengthAdjust="spacing" textLength="14" x="53.5" y="844.3428">18</text><text fill="#000000" font-family="sans-serif" font-size="13" lengthAdjust="spacing" textLength="78" x="71.5" y="844.3428">confirms data</text><line style="stroke:#181818;stroke-width:1.0;" x1="784.5" x2="831.5" y1="875.8965" y2="875.8965"/><line style="stroke:#181818;stroke-width:1.0;" x1="831.5" x2="831.5" y1="875.8965" y2="888.8965"/><line style="stroke:#181818;stroke-width:1.0;" x1="790.5" x2="831.5" y1="888.8965" y2="888.8965"/><polygon fill="#181818" points="800.5,884.8965,790.5,888.8965,800.5,892.8965,796.5,888.8965" style="stroke:#181818;stroke-width:1.0;"/><text fill="#000000" font-family="sans-serif" font-size="13" font-weight="bold" lengthAdjust="spacing" textLength="14" x="796.5" y="870.6338">19</text><text fill="#000000" font-family="sans-serif" font-size="13" lengthAdjust="spacing" textLength="194" x="814.5" y="870.6338">confirmCommission(Commission)</text><line style="stroke:#181818;stroke-width:1.0;stroke-dasharray:2.0,2.0;" x1="789.5" x2="831.5" y1="930.1875" y2="930.1875"/><line style="stroke:#181818;stroke-width:1.0;stroke-dasharray:2.0,2.0;" x1="831.5" x2="831.5" y1="930.1875" y2="943.1875"/><line style="stroke:#181818;stroke-width:1.0;stroke-dasharray:2.0,2.0;" x1="784.5" x2="831.5" y1="943.1875" y2="943.1875"/><polygon fill="#181818" points="794.5,939.1875,784.5,943.1875,794.5,947.1875,790.5,943.1875" style="stroke:#181818;stroke-width:1.0;"/><text fill="#000000" font-family="sans-serif" font-size="13" font-weight="bold" lengthAdjust="spacing" textLength="14" x="796.5" y="924.9248">20</text><text fill="#000000" font-family="sans-serif" font-size="13" lengthAdjust="spacing" textLength="4" x="814.5" y="924.9248">&#160;</text><polygon fill="#181818" points="1245.5,965.4785,1255.5,969.4785,1245.5,973.4785,1249.5,969.4785" style="stroke:#181818;stroke-width:1.0;"/><line style="stroke:#181818;stroke-width:1.0;" x1="784.5" x2="1251.5" y1="969.4785" y2="969.4785"/><text fill="#000000" font-family="sans-serif" font-size="13" font-weight="bold" lengthAdjust="spacing" textLength="14" x="791.5" y="964.2158">21</text><text fill="#000000" font-family="sans-serif" font-size="13" lengthAdjust="spacing" textLength="370" x="809.5" y="964.2158">createAnnouncement(AnnouncementRequestDTO, commission)</text><rect fill="none" height="43.252" style="stroke:#000000;stroke-width:1.5;" width="234" x="1145.5" y="977.4785"/><path d="M1145.5,977.4785 L1207.5,977.4785 L1207.5,986.4785 L1197.5,996.4785 L1145.5,996.4785 L1145.5,977.4785 " fill="#EEEEEE" style="stroke:#000000;stroke-width:2.0;"/><text fill="#000000" font-family="sans-serif" font-size="13" font-weight="bold" lengthAdjust="spacing" textLength="17" x="1158.5" y="993.5068">ref</text><text fill="#000000" font-family="sans-serif" font-size="12" lengthAdjust="spacing" textLength="123" x="1201" y="1013.4277">Create Announcement</text><polygon fill="#181818" points="795.5,1045.0215,785.5,1049.0215,795.5,1053.0215,791.5,1049.0215" style="stroke:#181818;stroke-width:1.0;"/><line style="stroke:#181818;stroke-width:1.0;stroke-dasharray:2.0,2.0;" x1="789.5" x2="1261.5" y1="1049.0215" y2="1049.0215"/><text fill="#000000" font-family="sans-serif" font-size="13" font-weight="bold" lengthAdjust="spacing" textLength="14" x="801.5" y="1043.7588">22</text><text fill="#000000" font-family="sans-serif" font-size="13" lengthAdjust="spacing" textLength="110" x="819.5" y="1043.7588">newAnnouncement</text><line style="stroke:#000000;stroke-width:1.0;stroke-dasharray:2.0,2.0;" x1="10" x2="1386.5" y1="1058.0215" y2="1058.0215"/><text fill="#000000" font-family="sans-serif" font-size="11" font-weight="bold" lengthAdjust="spacing" textLength="90" x="15" y="1069.8916">[if answer is no]</text><polygon fill="#181818" points="57.5,1092.9434,47.5,1096.9434,57.5,1100.9434,53.5,1096.9434" style="stroke:#181818;stroke-width:1.0;"/><line style="stroke:#181818;stroke-width:1.0;stroke-dasharray:2.0,2.0;" x1="51.5" x2="778.5" y1="1096.9434" y2="1096.9434"/><text fill="#000000" font-family="sans-serif" font-size="13" font-weight="bold" lengthAdjust="spacing" textLength="14" x="63.5" y="1091.6807">23</text><text fill="#000000" font-family="sans-serif" font-size="13" lengthAdjust="spacing" textLength="291" x="81.5" y="1091.6807">Asks for a message why the request was declined</text><polygon fill="#181818" points="762.5,1124.2344,772.5,1128.2344,762.5,1132.2344,766.5,1128.2344" style="stroke:#181818;stroke-width:1.0;"/><line style="stroke:#181818;stroke-width:1.0;" x1="46.5" x2="768.5" y1="1128.2344" y2="1128.2344"/><text fill="#000000" font-family="sans-serif" font-size="13" font-weight="bold" lengthAdjust="spacing" textLength="14" x="53.5" y="1122.9717">24</text><text fill="#000000" font-family="sans-serif" font-size="13" lengthAdjust="spacing" textLength="89" x="71.5" y="1122.9717">Insert message</text><polygon fill="#181818" points="1245.5,1155.5254,1255.5,1159.5254,1245.5,1163.5254,1249.5,1159.5254" style="stroke:#181818;stroke-width:1.0;"/><line style="stroke:#181818;stroke-width:1.0;" x1="784.5" x2="1251.5" y1="1159.5254" y2="1159.5254"/><text fill="#000000" font-family="sans-serif" font-size="13" font-weight="bold" lengthAdjust="spacing" textLength="14" x="791.5" y="1154.2627">25</text><text fill="#000000" font-family="sans-serif" font-size="13" lengthAdjust="spacing" textLength="436" x="809.5" y="1154.2627">createEmail(String sender, String recipient, String subject, String message)</text><rect fill="none" height="43.252" style="stroke:#000000;stroke-width:1.5;" width="234" x="1145.5" y="1167.5254"/><path d="M1145.5,1167.5254 L1207.5,1167.5254 L1207.5,1176.5254 L1197.5,1186.5254 L1145.5,1186.5254 L1145.5,1167.5254 " fill="#EEEEEE" style="stroke:#000000;stroke-width:2.0;"/><text fill="#000000" font-family="sans-serif" font-size="13" font-weight="bold" lengthAdjust="spacing" textLength="17" x="1158.5" y="1183.5537">ref</text><text fill="#000000" font-family="sans-serif" font-size="12" lengthAdjust="spacing" textLength="69" x="1228" y="1203.4746">create Email</text><polygon fill="#181818" points="57.5,1242.0684,47.5,1246.0684,57.5,1250.0684,53.5,1246.0684" style="stroke:#181818;stroke-width:1.0;"/><line style="stroke:#181818;stroke-width:1.0;stroke-dasharray:2.0,2.0;" x1="51.5" x2="778.5" y1="1246.0684" y2="1246.0684"/><text fill="#000000" font-family="sans-serif" font-size="13" font-weight="bold" lengthAdjust="spacing" textLength="14" x="63.5" y="1240.8057">26</text><text fill="#000000" font-family="sans-serif" font-size="13" lengthAdjust="spacing" textLength="153" x="81.5" y="1240.8057">Display operation success</text><!--SRC=[fLPDR-Cs4BthLmnoSXPPx1uBemtW9jd2GD9TsEjRW0KZZMqs4gcIL0pz-pvIiYrAyWTGNMmDPnxVl1aEPT-bAeKH1HLQwNHhTC7aJCM9FQoK8dqN6rwwEcSod3gXDddNmMv5fdTIRMWjSij9ugI3wshvzUjljEH_ArOfqwCK6tWded9QLSKRcoGHgTE6RcORLkw6XANmBqaI03kPob8eHpVJcLAw0aQ1nON7isur3_wh-MNN1wsSqNdE9eGy_5myzu8MN6ehGKMo3JulGgg3iOwzZ_OflQf1wAcmwQmiSvaA9xLQihNu2Vw_PZz-n9wYB5k7LtKgQX2KLiOWvMFWohBfHYoVbilvzx_ZA2xANDVCdPnUrTF0602U5d4iYQ7K4Sxit7gJnQA76OUSn8f1HfVEuGOgBv2vxOZPuYLsVvRMZOGy_lnEK_ABlu-ltWUuvza2_wz2F0DtmBgO2JQRZflRx0PikjvHQ1EG9FqJs3cWVs6DyE3eoW_XU7zalItyfS_tE9R8JDXtIqwJPOoKBLEEJ4clgJGQohiwQY0Cbi3Qnk0uty40GC3we_lf4w1JmrZjBs5XmowG-8P1rdR_v3Q63ES_CRmc_S6cUKLOIzu7KXkPiCh0Qzti4tRu7993RY5fRywuXnnpQYXr4hLjUUoVTTXn4g2kvJWii- -V8z7mTDc6Ifpkv_Cf88T6bQalseVCs4QL72iWVcsfbPLlk0BMcEvkAroZrnrPRHndz5O7c515w4mPjhu3MjRfcHmN3Md5VORxZeXxhV6teupETPIlvJjp-IYSc8nBT3kg1uYIN8SqAanQsk6S1EOOG2wOHzlykcmYiVUwGYH1avhj5wLlXpc9t7b2GjaTwFn1S0JqQduWFQMP5nS-gIuA6JgS90oAm3E51uf4ADY7o77_3rbsE4uHLLREjecoymseIr_CmEoKu1q1uxIEb6x_fqHNLxkxPNAPOghLMff277AyIB6Di5VHQfqV3gGc3pr9JWcArn4wRKge_tqx6fkPsUtn4mr_H_rg34OJ3F5myXCdu4SZofkFewb5winHi5AywqUCZgJZup7nbKcTRaSNAprUmz3pVWm9AZ3LVOlljdNKDJjSQncdkLISZKevBErSuSoxFUAbA-iW_bCXP3vPEkE_bIsKOND7xIi-h6KfmvJSErHl_s2e7TxRtKQlYh62D7jIs3IknFxnbetHLJagtQEqPIvgycEicTEsIbEG61NfFm00]--></g></svg>