<?xml version="1.0" encoding="us-ascii" standalone="no"?><svg xmlns="http://www.w3.org/2000/svg" xmlns:xlink="http://www.w3.org/1999/xlink" contentStyleType="text/css" height="1042px" preserveAspectRatio="none" style="width:2677px;height:1042px;background:#FFFFFF;" version="1.1" viewBox="0 0 2677 1042" width="2677px" zoomAndPan="magnify"><defs/><g><rect fill="#FFFFFF" height="886.4805" style="stroke:#181818;stroke-width:1.0;" width="10" x="287" y="90.5332"/><rect fill="#FFFFFF" height="31.291" style="stroke:#181818;stroke-width:1.0;" width="10" x="459.5" y="121.8242"/><rect fill="#FFFFFF" height="31.291" style="stroke:#181818;stroke-width:1.0;" width="10" x="564.5" y="184.4063"/><rect fill="#FFFFFF" height="31.291" style="stroke:#181818;stroke-width:1.0;" width="10" x="739.5" y="246.9883"/><rect fill="#FFFFFF" height="658.4434" style="stroke:#181818;stroke-width:1.0;" width="10" x="1164" y="309.5703"/><rect fill="#FFFFFF" height="36.291" style="stroke:#181818;stroke-width:1.0;" width="10" x="1169" y="819.8105"/><rect fill="#FFFFFF" height="30" style="stroke:#181818;stroke-width:1.0;" width="10" x="1557" y="899.7227"/><rect fill="#FFFFFF" height="30" style="stroke:#181818;stroke-width:1.0;" width="10" x="2030" y="410.7734"/><rect fill="#FFFFFF" height="30" style="stroke:#181818;stroke-width:1.0;" width="10" x="2030" y="472.0645"/><rect fill="#FFFFFF" height="30" style="stroke:#181818;stroke-width:1.0;" width="10" x="2030" y="533.3555"/><rect fill="#FFFFFF" height="30" style="stroke:#181818;stroke-width:1.0;" width="10" x="2030" y="594.6465"/><rect fill="#FFFFFF" height="30" style="stroke:#181818;stroke-width:1.0;" width="10" x="2030" y="682.2285"/><rect fill="#FFFFFF" height="30" style="stroke:#181818;stroke-width:1.0;" width="10" x="2030" y="750.5195"/><rect fill="none" height="569.5313" style="stroke:#000000;stroke-width:1.5;" width="1627" x="1044" y="368.1914"/><rect fill="none" height="80.582" style="stroke:#000000;stroke-width:1.5;" width="1233" x="1054" y="639.6465"/><line style="stroke:#181818;stroke-width:0.5;stroke-dasharray:5.0,5.0;" x1="292" x2="292" y1="57.2422" y2="986.0137"/><line style="stroke:#181818;stroke-width:0.5;stroke-dasharray:5.0,5.0;" x1="464" x2="464" y1="57.2422" y2="986.0137"/><line style="stroke:#181818;stroke-width:0.5;stroke-dasharray:5.0,5.0;" x1="569" x2="569" y1="57.2422" y2="986.0137"/><line style="stroke:#181818;stroke-width:0.5;stroke-dasharray:5.0,5.0;" x1="744" x2="744" y1="57.2422" y2="986.0137"/><line style="stroke:#181818;stroke-width:0.5;stroke-dasharray:5.0,5.0;" x1="963" x2="963" y1="57.2422" y2="986.0137"/><line style="stroke:#181818;stroke-width:0.5;stroke-dasharray:5.0,5.0;" x1="1169" x2="1169" y1="57.2422" y2="986.0137"/><line style="stroke:#181818;stroke-width:0.5;stroke-dasharray:5.0,5.0;" x1="1562" x2="1562" y1="349.3809" y2="986.0137"/><line style="stroke:#181818;stroke-width:0.5;stroke-dasharray:5.0,5.0;" x1="2035" x2="2035" y1="57.2422" y2="986.0137"/><line style="stroke:#181818;stroke-width:0.5;stroke-dasharray:5.0,5.0;" x1="2474" x2="2474" y1="864.6211" y2="986.0137"/><rect fill="#E2E2F0" height="32.6211" rx="2.5" ry="2.5" style="stroke:#181818;stroke-width:0.5;" width="228" x="178" y="23.6211"/><text fill="#000000" font-family="sans-serif" font-size="14" lengthAdjust="spacing" textLength="214" x="185" y="45.7285">:AnnouncementRequestController</text><rect fill="#E2E2F0" height="32.6211" rx="2.5" ry="2.5" style="stroke:#181818;stroke-width:0.5;" width="228" x="178" y="985.0137"/><text fill="#000000" font-family="sans-serif" font-size="14" lengthAdjust="spacing" textLength="214" x="185" y="1007.1211">:AnnouncementRequestController</text><rect fill="#E2E2F0" height="32.6211" rx="2.5" ry="2.5" style="stroke:#181818;stroke-width:0.5;" width="97" x="416" y="23.6211"/><text fill="#000000" font-family="sans-serif" font-size="14" lengthAdjust="spacing" textLength="83" x="423" y="45.7285">:Repositories</text><rect fill="#E2E2F0" height="32.6211" rx="2.5" ry="2.5" style="stroke:#181818;stroke-width:0.5;" width="97" x="416" y="985.0137"/><text fill="#000000" font-family="sans-serif" font-size="14" lengthAdjust="spacing" textLength="83" x="423" y="1007.1211">:Repositories</text><rect fill="#E2E2F0" height="51.2422" rx="2.5" ry="2.5" style="stroke:#181818;stroke-width:0.5;" width="93" x="523" y="5"/><text fill="#000000" font-family="sans-serif" font-size="14" lengthAdjust="spacing" textLength="72" x="531.5" y="27.1074">Repository:</text><text fill="#000000" font-family="sans-serif" font-size="14" lengthAdjust="spacing" textLength="79" x="530" y="45.7285">Repositories</text><rect fill="#E2E2F0" height="51.2422" rx="2.5" ry="2.5" style="stroke:#181818;stroke-width:0.5;" width="93" x="523" y="985.0137"/><text fill="#000000" font-family="sans-serif" font-size="14" lengthAdjust="spacing" textLength="72" x="531.5" y="1007.1211">Repository:</text><text fill="#000000" font-family="sans-serif" font-size="14" lengthAdjust="spacing" textLength="79" x="530" y="1025.7422">Repositories</text><rect fill="#E2E2F0" height="51.2422" rx="2.5" ry="2.5" style="stroke:#181818;stroke-width:0.5;" width="237" x="626" y="5"/><text fill="#000000" font-family="sans-serif" font-size="14" lengthAdjust="spacing" textLength="219" x="637" y="27.1074">announcementRequestRepository:</text><text fill="#000000" font-family="sans-serif" font-size="14" lengthAdjust="spacing" textLength="216" x="636.5" y="45.7285">AnnouncementRequestRepository</text><rect fill="#E2E2F0" height="51.2422" rx="2.5" ry="2.5" style="stroke:#181818;stroke-width:0.5;" width="237" x="626" y="985.0137"/><text fill="#000000" font-family="sans-serif" font-size="14" lengthAdjust="spacing" textLength="219" x="637" y="1007.1211">announcementRequestRepository:</text><text fill="#000000" font-family="sans-serif" font-size="14" lengthAdjust="spacing" textLength="216" x="636.5" y="1025.7422">AnnouncementRequestRepository</text><rect fill="#E2E2F0" height="51.2422" rx="2.5" ry="2.5" style="stroke:#181818;stroke-width:0.5;" width="181" x="873" y="5"/><text fill="#000000" font-family="sans-serif" font-size="14" lengthAdjust="spacing" textLength="167" x="880" y="27.1074">AnnouncementRepository:</text><text fill="#000000" font-family="sans-serif" font-size="14" lengthAdjust="spacing" textLength="163" x="882" y="45.7285">AnnouncementRepository</text><rect fill="#E2E2F0" height="51.2422" rx="2.5" ry="2.5" style="stroke:#181818;stroke-width:0.5;" width="181" x="873" y="985.0137"/><text fill="#000000" font-family="sans-serif" font-size="14" lengthAdjust="spacing" textLength="167" x="880" y="1007.1211">AnnouncementRepository:</text><text fill="#000000" font-family="sans-serif" font-size="14" lengthAdjust="spacing" textLength="163" x="882" y="1025.7422">AnnouncementRepository</text><rect fill="#E2E2F0" height="32.6211" rx="2.5" ry="2.5" style="stroke:#181818;stroke-width:0.5;" width="210" x="1064" y="23.6211"/><text fill="#000000" font-family="sans-serif" font-size="14" lengthAdjust="spacing" textLength="196" x="1071" y="45.7285">AnnouncementRequestMapper</text><rect fill="#E2E2F0" height="32.6211" rx="2.5" ry="2.5" style="stroke:#181818;stroke-width:0.5;" width="210" x="1064" y="985.0137"/><text fill="#000000" font-family="sans-serif" font-size="14" lengthAdjust="spacing" textLength="196" x="1071" y="1007.1211">AnnouncementRequestMapper</text><rect fill="#E2E2F0" height="32.6211" rx="2.5" ry="2.5" style="stroke:#181818;stroke-width:0.5;" width="442" x="1341" y="985.0137"/><text fill="#000000" font-family="sans-serif" font-size="14" lengthAdjust="spacing" textLength="428" x="1348" y="1007.1211">ListAnnouncementRequestDTO : List&lt;AnnouncementRequestDTO&gt;</text><rect fill="#E2E2F0" height="32.6211" rx="2.5" ry="2.5" style="stroke:#181818;stroke-width:0.5;" width="484" x="1793" y="23.6211"/><text fill="#000000" font-family="sans-serif" font-size="14" lengthAdjust="spacing" textLength="470" x="1800" y="45.7285">AnnouncementRequestsByAgentSortedList : List&lt;AnnouncementRequest&gt;</text><rect fill="#E2E2F0" height="32.6211" rx="2.5" ry="2.5" style="stroke:#181818;stroke-width:0.5;" width="484" x="1793" y="985.0137"/><text fill="#000000" font-family="sans-serif" font-size="14" lengthAdjust="spacing" textLength="470" x="1800" y="1007.1211">AnnouncementRequestsByAgentSortedList : List&lt;AnnouncementRequest&gt;</text><rect fill="#E2E2F0" height="32.6211" rx="2.5" ry="2.5" style="stroke:#181818;stroke-width:0.5;" width="374" x="2287" y="985.0137"/><text fill="#000000" font-family="sans-serif" font-size="14" lengthAdjust="spacing" textLength="360" x="2294" y="1007.1211">AnnouncementRequestDTO:AnnouncementRequestDTO</text><rect fill="#FFFFFF" height="886.4805" style="stroke:#181818;stroke-width:1.0;" width="10" x="287" y="90.5332"/><rect fill="#FFFFFF" height="31.291" style="stroke:#181818;stroke-width:1.0;" width="10" x="459.5" y="121.8242"/><rect fill="#FFFFFF" height="31.291" style="stroke:#181818;stroke-width:1.0;" width="10" x="564.5" y="184.4063"/><rect fill="#FFFFFF" height="31.291" style="stroke:#181818;stroke-width:1.0;" width="10" x="739.5" y="246.9883"/><rect fill="#FFFFFF" height="658.4434" style="stroke:#181818;stroke-width:1.0;" width="10" x="1164" y="309.5703"/><rect fill="#FFFFFF" height="36.291" style="stroke:#181818;stroke-width:1.0;" width="10" x="1169" y="819.8105"/><rect fill="#FFFFFF" height="30" style="stroke:#181818;stroke-width:1.0;" width="10" x="1557" y="899.7227"/><rect fill="#FFFFFF" height="30" style="stroke:#181818;stroke-width:1.0;" width="10" x="2030" y="410.7734"/><rect fill="#FFFFFF" height="30" style="stroke:#181818;stroke-width:1.0;" width="10" x="2030" y="472.0645"/><rect fill="#FFFFFF" height="30" style="stroke:#181818;stroke-width:1.0;" width="10" x="2030" y="533.3555"/><rect fill="#FFFFFF" height="30" style="stroke:#181818;stroke-width:1.0;" width="10" x="2030" y="594.6465"/><rect fill="#FFFFFF" height="30" style="stroke:#181818;stroke-width:1.0;" width="10" x="2030" y="682.2285"/><rect fill="#FFFFFF" height="30" style="stroke:#181818;stroke-width:1.0;" width="10" x="2030" y="750.5195"/><polygon fill="#181818" points="275,86.5332,285,90.5332,275,94.5332,279,90.5332" style="stroke:#181818;stroke-width:1.0;"/><line style="stroke:#181818;stroke-width:1.0;" x1="0" x2="281" y1="90.5332" y2="90.5332"/><text fill="#000000" font-family="sans-serif" font-size="13" font-weight="bold" lengthAdjust="spacing" textLength="7" x="7" y="85.2705">1</text><text fill="#000000" font-family="sans-serif" font-size="13" lengthAdjust="spacing" textLength="257" x="18" y="85.2705">getAnnouncementsRequestsByAgent(agent)</text><polygon fill="#181818" points="447.5,117.8242,457.5,121.8242,447.5,125.8242,451.5,121.8242" style="stroke:#181818;stroke-width:1.0;"/><line style="stroke:#181818;stroke-width:1.0;" x1="297" x2="453.5" y1="121.8242" y2="121.8242"/><text fill="#000000" font-family="sans-serif" font-size="13" font-weight="bold" lengthAdjust="spacing" textLength="7" x="304" y="116.5615">2</text><text fill="#000000" font-family="sans-serif" font-size="13" lengthAdjust="spacing" textLength="75" x="315" y="116.5615">getInstance()</text><polygon fill="#181818" points="308,149.1152,298,153.1152,308,157.1152,304,153.1152" style="stroke:#181818;stroke-width:1.0;"/><line style="stroke:#181818;stroke-width:1.0;stroke-dasharray:2.0,2.0;" x1="302" x2="463.5" y1="153.1152" y2="153.1152"/><text fill="#000000" font-family="sans-serif" font-size="13" font-weight="bold" lengthAdjust="spacing" textLength="7" x="314" y="147.8525">3</text><text fill="#000000" font-family="sans-serif" font-size="13" lengthAdjust="spacing" textLength="72" x="325" y="147.8525">Repositories</text><polygon fill="#181818" points="552.5,180.4063,562.5,184.4063,552.5,188.4063,556.5,184.4063" style="stroke:#181818;stroke-width:1.0;"/><line style="stroke:#181818;stroke-width:1.0;" x1="297" x2="558.5" y1="184.4063" y2="184.4063"/><text fill="#000000" font-family="sans-serif" font-size="13" font-weight="bold" lengthAdjust="spacing" textLength="7" x="304" y="179.1436">4</text><text fill="#000000" font-family="sans-serif" font-size="13" lengthAdjust="spacing" textLength="223" x="315" y="179.1436">getAnnouncementRequestRepository()</text><polygon fill="#181818" points="308,211.6973,298,215.6973,308,219.6973,304,215.6973" style="stroke:#181818;stroke-width:1.0;"/><line style="stroke:#181818;stroke-width:1.0;stroke-dasharray:2.0,2.0;" x1="302" x2="568.5" y1="215.6973" y2="215.6973"/><text fill="#000000" font-family="sans-serif" font-size="13" font-weight="bold" lengthAdjust="spacing" textLength="7" x="314" y="210.4346">5</text><text fill="#000000" font-family="sans-serif" font-size="13" lengthAdjust="spacing" textLength="195" x="325" y="210.4346">announcementRequestRepository</text><polygon fill="#181818" points="727.5,242.9883,737.5,246.9883,727.5,250.9883,731.5,246.9883" style="stroke:#181818;stroke-width:1.0;"/><line style="stroke:#181818;stroke-width:1.0;" x1="297" x2="733.5" y1="246.9883" y2="246.9883"/><text fill="#000000" font-family="sans-serif" font-size="13" font-weight="bold" lengthAdjust="spacing" textLength="7" x="304" y="241.7256">6</text><text fill="#000000" font-family="sans-serif" font-size="13" lengthAdjust="spacing" textLength="265" x="315" y="241.7256">getAnnouncementsRequestsAgentSort(agent)</text><polygon fill="#181818" points="308,274.2793,298,278.2793,308,282.2793,304,278.2793" style="stroke:#181818;stroke-width:1.0;"/><line style="stroke:#181818;stroke-width:1.0;stroke-dasharray:2.0,2.0;" x1="302" x2="743.5" y1="278.2793" y2="278.2793"/><text fill="#000000" font-family="sans-serif" font-size="13" font-weight="bold" lengthAdjust="spacing" textLength="7" x="314" y="273.0166">7</text><text fill="#000000" font-family="sans-serif" font-size="13" lengthAdjust="spacing" textLength="228" x="325" y="273.0166">announcementRequestsByAgentSorted</text><polygon fill="#181818" points="1152,305.5703,1162,309.5703,1152,313.5703,1156,309.5703" style="stroke:#181818;stroke-width:1.0;"/><line style="stroke:#181818;stroke-width:1.0;" x1="297" x2="1158" y1="309.5703" y2="309.5703"/><text fill="#000000" font-family="sans-serif" font-size="13" font-weight="bold" lengthAdjust="spacing" textLength="7" x="304" y="304.3076">8</text><text fill="#000000" font-family="sans-serif" font-size="13" lengthAdjust="spacing" textLength="384" x="315" y="304.3076">getAnnouncementRequestsDTO(announcementRequestsByAgent)</text><polygon fill="#181818" points="1329,336.8613,1339,340.8613,1329,344.8613,1333,340.8613" style="stroke:#181818;stroke-width:1.0;"/><line style="stroke:#181818;stroke-width:1.0;" x1="1174" x2="1335" y1="340.8613" y2="340.8613"/><text fill="#000000" font-family="sans-serif" font-size="13" font-weight="bold" lengthAdjust="spacing" textLength="7" x="1181" y="335.5986">9</text><text fill="#000000" font-family="sans-serif" font-size="13" lengthAdjust="spacing" textLength="44" x="1192" y="335.5986">create()</text><rect fill="#E2E2F0" height="32.6211" rx="2.5" ry="2.5" style="stroke:#181818;stroke-width:0.5;" width="442" x="1341" y="317.5703"/><text fill="#000000" font-family="sans-serif" font-size="14" lengthAdjust="spacing" textLength="428" x="1348" y="339.6777">ListAnnouncementRequestDTO : List&lt;AnnouncementRequestDTO&gt;</text><path d="M1044,368.1914 L1117,368.1914 L1117,377.4824 L1107,387.4824 L1044,387.4824 L1044,368.1914 " fill="#EEEEEE" style="stroke:#000000;stroke-width:1.5;"/><rect fill="none" height="569.5313" style="stroke:#000000;stroke-width:1.5;" width="1627" x="1044" y="368.1914"/><text fill="#000000" font-family="sans-serif" font-size="13" font-weight="bold" lengthAdjust="spacing" textLength="28" x="1059" y="383.2197">loop</text><polygon fill="#181818" points="2018,406.7734,2028,410.7734,2018,414.7734,2022,410.7734" style="stroke:#181818;stroke-width:1.0;"/><line style="stroke:#181818;stroke-width:1.0;" x1="1174" x2="2024" y1="410.7734" y2="410.7734"/><text fill="#000000" font-family="sans-serif" font-size="13" font-weight="bold" lengthAdjust="spacing" textLength="14" x="1181" y="405.5107">10</text><text fill="#000000" font-family="sans-serif" font-size="13" lengthAdjust="spacing" textLength="242" x="1199" y="405.5107">businessType = getBusinessTypeObject()</text><polygon fill="#181818" points="2018,468.0645,2028,472.0645,2018,476.0645,2022,472.0645" style="stroke:#181818;stroke-width:1.0;"/><line style="stroke:#181818;stroke-width:1.0;" x1="1174" x2="2024" y1="472.0645" y2="472.0645"/><text fill="#000000" font-family="sans-serif" font-size="13" font-weight="bold" lengthAdjust="spacing" textLength="14" x="1181" y="466.8018">11</text><text fill="#000000" font-family="sans-serif" font-size="13" lengthAdjust="spacing" textLength="138" x="1199" y="466.8018">property = getProperty()</text><polygon fill="#181818" points="2018,529.3555,2028,533.3555,2018,537.3555,2022,533.3555" style="stroke:#181818;stroke-width:1.0;"/><line style="stroke:#181818;stroke-width:1.0;" x1="1174" x2="2024" y1="533.3555" y2="533.3555"/><text fill="#000000" font-family="sans-serif" font-size="13" font-weight="bold" lengthAdjust="spacing" textLength="14" x="1181" y="528.0928">12</text><text fill="#000000" font-family="sans-serif" font-size="13" lengthAdjust="spacing" textLength="94" x="1199" y="528.0928">date = getDate()</text><polygon fill="#181818" points="2018,590.6465,2028,594.6465,2018,598.6465,2022,594.6465" style="stroke:#181818;stroke-width:1.0;"/><line style="stroke:#181818;stroke-width:1.0;" x1="1174" x2="2024" y1="594.6465" y2="594.6465"/><text fill="#000000" font-family="sans-serif" font-size="13" font-weight="bold" lengthAdjust="spacing" textLength="14" x="1181" y="589.3838">13</text><text fill="#000000" font-family="sans-serif" font-size="13" lengthAdjust="spacing" textLength="106" x="1199" y="589.3838">client = getClient()</text><path d="M1054,639.6465 L1119,639.6465 L1119,648.9375 L1109,658.9375 L1054,658.9375 L1054,639.6465 " fill="#EEEEEE" style="stroke:#000000;stroke-width:1.5;"/><rect fill="none" height="80.582" style="stroke:#000000;stroke-width:1.5;" width="1233" x="1054" y="639.6465"/><text fill="#000000" font-family="sans-serif" font-size="13" font-weight="bold" lengthAdjust="spacing" textLength="20" x="1069" y="654.6748">opt</text><text fill="#000000" font-family="sans-serif" font-size="11" font-weight="bold" lengthAdjust="spacing" textLength="134" x="1134" y="653.5166">[if businessType = Rent]</text><polygon fill="#181818" points="2018,678.2285,2028,682.2285,2018,686.2285,2022,682.2285" style="stroke:#181818;stroke-width:1.0;"/><line style="stroke:#181818;stroke-width:1.0;" x1="1174" x2="2024" y1="682.2285" y2="682.2285"/><text fill="#000000" font-family="sans-serif" font-size="13" font-weight="bold" lengthAdjust="spacing" textLength="14" x="1181" y="676.9658">14</text><text fill="#000000" font-family="sans-serif" font-size="13" lengthAdjust="spacing" textLength="187" x="1199" y="676.9658">rentDuration = getRentDuration()</text><polygon fill="#181818" points="2018,746.5195,2028,750.5195,2018,754.5195,2022,750.5195" style="stroke:#181818;stroke-width:1.0;"/><line style="stroke:#181818;stroke-width:1.0;" x1="1174" x2="2024" y1="750.5195" y2="750.5195"/><text fill="#000000" font-family="sans-serif" font-size="13" font-weight="bold" lengthAdjust="spacing" textLength="14" x="1181" y="745.2568">15</text><text fill="#000000" font-family="sans-serif" font-size="13" lengthAdjust="spacing" textLength="110" x="1199" y="745.2568">Agent = getAgent()</text><line style="stroke:#181818;stroke-width:1.0;" x1="1174" x2="1221" y1="806.8105" y2="806.8105"/><line style="stroke:#181818;stroke-width:1.0;" x1="1221" x2="1221" y1="806.8105" y2="819.8105"/><line style="stroke:#181818;stroke-width:1.0;" x1="1180" x2="1221" y1="819.8105" y2="819.8105"/><polygon fill="#181818" points="1190,815.8105,1180,819.8105,1190,823.8105,1186,819.8105" style="stroke:#181818;stroke-width:1.0;"/><text fill="#000000" font-family="sans-serif" font-size="13" font-weight="bold" lengthAdjust="spacing" textLength="14" x="1186" y="801.5479">16</text><text fill="#000000" font-family="sans-serif" font-size="13" lengthAdjust="spacing" textLength="351" x="1204" y="801.5479">AnnouncementRequestDTO= toDTO(announcementRequest)</text><polygon fill="#181818" points="2275,852.1016,2285,856.1016,2275,860.1016,2279,856.1016" style="stroke:#181818;stroke-width:1.0;"/><line style="stroke:#181818;stroke-width:1.0;stroke-dasharray:2.0,2.0;" x1="1174" x2="2281" y1="856.1016" y2="856.1016"/><text fill="#000000" font-family="sans-serif" font-size="13" font-weight="bold" lengthAdjust="spacing" textLength="14" x="1181" y="850.8389">17</text><text fill="#000000" font-family="sans-serif" font-size="13" lengthAdjust="spacing" textLength="44" x="1199" y="850.8389">create()</text><rect fill="#E2E2F0" height="32.6211" rx="2.5" ry="2.5" style="stroke:#181818;stroke-width:0.5;" width="374" x="2287" y="832.8105"/><text fill="#000000" font-family="sans-serif" font-size="14" lengthAdjust="spacing" textLength="360" x="2294" y="854.918">AnnouncementRequestDTO:AnnouncementRequestDTO</text><polygon fill="#181818" points="1545,895.7227,1555,899.7227,1545,903.7227,1549,899.7227" style="stroke:#181818;stroke-width:1.0;"/><line style="stroke:#181818;stroke-width:1.0;stroke-dasharray:2.0,2.0;" x1="1174" x2="1551" y1="899.7227" y2="899.7227"/><text fill="#000000" font-family="sans-serif" font-size="13" font-weight="bold" lengthAdjust="spacing" textLength="14" x="1181" y="894.46">18</text><text fill="#000000" font-family="sans-serif" font-size="13" lengthAdjust="spacing" textLength="190" x="1199" y="894.46">add(AnnouncementRequestDTO)</text><polygon fill="#181818" points="308,964.0137,298,968.0137,308,972.0137,304,968.0137" style="stroke:#181818;stroke-width:1.0;"/><line style="stroke:#181818;stroke-width:1.0;stroke-dasharray:2.0,2.0;" x1="302" x2="1168" y1="968.0137" y2="968.0137"/><text fill="#000000" font-family="sans-serif" font-size="13" font-weight="bold" lengthAdjust="spacing" textLength="14" x="314" y="962.751">19</text><text fill="#000000" font-family="sans-serif" font-size="13" lengthAdjust="spacing" textLength="182" x="332" y="962.751">ListAnnouncementRequestDTO</text><!--SRC=[bPLDZvim48Rl_8hHNafNIdD7tKXiSgaKj1NDSIyEU5DNOBksgPH_Nt-HnJQGNH-Yu9bvvhLvRRxyLehBOhlb7Q9gwBjl3Ukt4lyTC6tmfYNe8b2VPMXGZ0xz6OiiuqWeqX2k2-2XA2bbWyxjCLMrgPDgpwWIhEkmU00aON-gZr5HZJcJH351iBGv5IBqDdaDiz_d2tYbIUcaB8l40Kh5JMYlj5oBMtfPro4pB5baXP3Pq1hNIgaGvtuFoxeAquz4gfcIm-a52Z31x_FHdSKTorh_loj0Fb_BYtxynOJ2hQ6km6_akrZTkfYVzcirsh8CDZlhdG8kE5YhZEJboFn-pK0Fr2Zo3odiN6U7cRQF1XWQ3Ipx1vKAQNRk4E-Co9Kk6X4scvrb5p1rfajjyIBAmKPLiQ9LN-RHIcE5eJZmwbQFGXQfZP6ZJdqQOFbrtBmo-qBCIHg72HZMkhxGVh56oml5LKkR9xMZyfKEYTHgr5WPiZikZuy5D0Bh1Fq6NFmYsC2XOupVybrw0UT14egbF5qvXYUZwtaoytB-WniLlqbpUA9LcYbdfWcR2wOl1dLrt9_-AR7lYBlBQqt4iWvkTH_a9A2c8tet7Mfl_tzI5ECAo5kyURK6fSs4dZqC0Yd2g6jPJsO-sHZJTd9RJBfOVpYyksmyzoFRusaUP_qvV-yzWM8B5XtRpRXpDAXbnmRr2S61IUkSi_NfQzjyNbhQttyyqWR7yUOUOtfJtH59-hfxVVaZjYJ_plWF]--></g></svg>