<?xml version="1.0" encoding="us-ascii" standalone="no"?><svg xmlns="http://www.w3.org/2000/svg" xmlns:xlink="http://www.w3.org/1999/xlink" contentStyleType="text/css" height="532px" preserveAspectRatio="none" style="width:1792px;height:532px;background:#FFFFFF;" version="1.1" viewBox="0 0 1792 532" width="1792px" zoomAndPan="magnify"><defs/><g><rect fill="#FFFFFF" height="156.4551" style="stroke:#181818;stroke-width:1.0;" width="10" x="466" y="90.5332"/><rect fill="#FFFFFF" height="31.291" style="stroke:#181818;stroke-width:1.0;" width="10" x="638.5" y="121.8242"/><rect fill="#FFFFFF" height="31.291" style="stroke:#181818;stroke-width:1.0;" width="10" x="791" y="184.4063"/><rect fill="#FFFFFF" height="220.1641" style="stroke:#181818;stroke-width:1.0;" width="10" x="1123" y="246.9883"/><rect fill="#FFFFFF" height="42.291" style="stroke:#181818;stroke-width:1.0;" width="10" x="1128" y="408.8613"/><rect fill="#FFFFFF" height="30" style="stroke:#181818;stroke-width:1.0;" width="10" x="1594" y="278.2793"/><rect fill="#FFFFFF" height="30" style="stroke:#181818;stroke-width:1.0;" width="10" x="1594" y="339.5703"/><line style="stroke:#181818;stroke-width:0.5;stroke-dasharray:5.0,5.0;" x1="471" x2="471" y1="57.2422" y2="476.1523"/><line style="stroke:#181818;stroke-width:0.5;stroke-dasharray:5.0,5.0;" x1="643" x2="643" y1="57.2422" y2="476.1523"/><line style="stroke:#181818;stroke-width:0.5;stroke-dasharray:5.0,5.0;" x1="795.5" x2="795.5" y1="57.2422" y2="476.1523"/><line style="stroke:#181818;stroke-width:0.5;stroke-dasharray:5.0,5.0;" x1="925.5" x2="925.5" y1="57.2422" y2="476.1523"/><line style="stroke:#181818;stroke-width:0.5;stroke-dasharray:5.0,5.0;" x1="1127.5" x2="1127.5" y1="57.2422" y2="476.1523"/><line style="stroke:#181818;stroke-width:0.5;stroke-dasharray:5.0,5.0;" x1="1599" x2="1599" y1="57.2422" y2="476.1523"/><rect fill="#E2E2F0" height="32.6211" rx="2.5" ry="2.5" style="stroke:#181818;stroke-width:0.5;" width="228" x="357" y="23.6211"/><text fill="#000000" font-family="sans-serif" font-size="14" lengthAdjust="spacing" textLength="214" x="364" y="45.7285">:AnnouncementRequestController</text><rect fill="#E2E2F0" height="32.6211" rx="2.5" ry="2.5" style="stroke:#181818;stroke-width:0.5;" width="228" x="357" y="475.1523"/><text fill="#000000" font-family="sans-serif" font-size="14" lengthAdjust="spacing" textLength="214" x="364" y="497.2598">:AnnouncementRequestController</text><rect fill="#E2E2F0" height="32.6211" rx="2.5" ry="2.5" style="stroke:#181818;stroke-width:0.5;" width="97" x="595" y="23.6211"/><text fill="#000000" font-family="sans-serif" font-size="14" lengthAdjust="spacing" textLength="83" x="602" y="45.7285">:Repositories</text><rect fill="#E2E2F0" height="32.6211" rx="2.5" ry="2.5" style="stroke:#181818;stroke-width:0.5;" width="97" x="595" y="475.1523"/><text fill="#000000" font-family="sans-serif" font-size="14" lengthAdjust="spacing" textLength="83" x="602" y="497.2598">:Repositories</text><rect fill="#E2E2F0" height="51.2422" rx="2.5" ry="2.5" style="stroke:#181818;stroke-width:0.5;" width="93" x="749.5" y="5"/><text fill="#000000" font-family="sans-serif" font-size="14" lengthAdjust="spacing" textLength="72" x="758" y="27.1074">Repository:</text><text fill="#000000" font-family="sans-serif" font-size="14" lengthAdjust="spacing" textLength="79" x="756.5" y="45.7285">Repositories</text><rect fill="#E2E2F0" height="51.2422" rx="2.5" ry="2.5" style="stroke:#181818;stroke-width:0.5;" width="93" x="749.5" y="475.1523"/><text fill="#000000" font-family="sans-serif" font-size="14" lengthAdjust="spacing" textLength="72" x="758" y="497.2598">Repository:</text><text fill="#000000" font-family="sans-serif" font-size="14" lengthAdjust="spacing" textLength="79" x="756.5" y="515.8809">Repositories</text><rect fill="#E2E2F0" height="51.2422" rx="2.5" ry="2.5" style="stroke:#181818;stroke-width:0.5;" width="147" x="852.5" y="5"/><text fill="#000000" font-family="sans-serif" font-size="14" lengthAdjust="spacing" textLength="133" x="859.5" y="27.1074">employeeRepository:</text><text fill="#000000" font-family="sans-serif" font-size="14" lengthAdjust="spacing" textLength="130" x="861" y="45.7285">EmployeeRepository</text><rect fill="#E2E2F0" height="51.2422" rx="2.5" ry="2.5" style="stroke:#181818;stroke-width:0.5;" width="147" x="852.5" y="475.1523"/><text fill="#000000" font-family="sans-serif" font-size="14" lengthAdjust="spacing" textLength="133" x="859.5" y="497.2598">employeeRepository:</text><text fill="#000000" font-family="sans-serif" font-size="14" lengthAdjust="spacing" textLength="130" x="861" y="515.8809">EmployeeRepository</text><rect fill="#E2E2F0" height="51.2422" rx="2.5" ry="2.5" style="stroke:#181818;stroke-width:0.5;" width="237" x="1009.5" y="5"/><text fill="#000000" font-family="sans-serif" font-size="14" lengthAdjust="spacing" textLength="219" x="1020.5" y="27.1074">announcementRequestRepository:</text><text fill="#000000" font-family="sans-serif" font-size="14" lengthAdjust="spacing" textLength="216" x="1020" y="45.7285">AnnouncementRequestRepository</text><rect fill="#E2E2F0" height="51.2422" rx="2.5" ry="2.5" style="stroke:#181818;stroke-width:0.5;" width="237" x="1009.5" y="475.1523"/><text fill="#000000" font-family="sans-serif" font-size="14" lengthAdjust="spacing" textLength="219" x="1020.5" y="497.2598">announcementRequestRepository:</text><text fill="#000000" font-family="sans-serif" font-size="14" lengthAdjust="spacing" textLength="216" x="1020" y="515.8809">AnnouncementRequestRepository</text><rect fill="#E2E2F0" height="32.6211" rx="2.5" ry="2.5" style="stroke:#181818;stroke-width:0.5;" width="374" x="1412" y="23.6211"/><text fill="#000000" font-family="sans-serif" font-size="14" lengthAdjust="spacing" textLength="360" x="1419" y="45.7285">AnnouncementRequestDTO:AnnouncementRequestDTO</text><rect fill="#E2E2F0" height="32.6211" rx="2.5" ry="2.5" style="stroke:#181818;stroke-width:0.5;" width="374" x="1412" y="475.1523"/><text fill="#000000" font-family="sans-serif" font-size="14" lengthAdjust="spacing" textLength="360" x="1419" y="497.2598">AnnouncementRequestDTO:AnnouncementRequestDTO</text><rect fill="#FFFFFF" height="156.4551" style="stroke:#181818;stroke-width:1.0;" width="10" x="466" y="90.5332"/><rect fill="#FFFFFF" height="31.291" style="stroke:#181818;stroke-width:1.0;" width="10" x="638.5" y="121.8242"/><rect fill="#FFFFFF" height="31.291" style="stroke:#181818;stroke-width:1.0;" width="10" x="791" y="184.4063"/><rect fill="#FFFFFF" height="220.1641" style="stroke:#181818;stroke-width:1.0;" width="10" x="1123" y="246.9883"/><rect fill="#FFFFFF" height="42.291" style="stroke:#181818;stroke-width:1.0;" width="10" x="1128" y="408.8613"/><rect fill="#FFFFFF" height="30" style="stroke:#181818;stroke-width:1.0;" width="10" x="1594" y="278.2793"/><rect fill="#FFFFFF" height="30" style="stroke:#181818;stroke-width:1.0;" width="10" x="1594" y="339.5703"/><polygon fill="#181818" points="454,86.5332,464,90.5332,454,94.5332,458,90.5332" style="stroke:#181818;stroke-width:1.0;"/><line style="stroke:#181818;stroke-width:1.0;" x1="0" x2="460" y1="90.5332" y2="90.5332"/><text fill="#000000" font-family="sans-serif" font-size="13" font-weight="bold" lengthAdjust="spacing" textLength="7" x="7" y="85.2705">1</text><text fill="#000000" font-family="sans-serif" font-size="13" lengthAdjust="spacing" textLength="436" x="18" y="85.2705">createEmail(String sender, String recipient, String subject, String message)</text><polygon fill="#181818" points="626.5,117.8242,636.5,121.8242,626.5,125.8242,630.5,121.8242" style="stroke:#181818;stroke-width:1.0;"/><line style="stroke:#181818;stroke-width:1.0;" x1="476" x2="632.5" y1="121.8242" y2="121.8242"/><text fill="#000000" font-family="sans-serif" font-size="13" font-weight="bold" lengthAdjust="spacing" textLength="7" x="483" y="116.5615">2</text><text fill="#000000" font-family="sans-serif" font-size="13" lengthAdjust="spacing" textLength="75" x="494" y="116.5615">getInstance()</text><polygon fill="#181818" points="487,149.1152,477,153.1152,487,157.1152,483,153.1152" style="stroke:#181818;stroke-width:1.0;"/><line style="stroke:#181818;stroke-width:1.0;stroke-dasharray:2.0,2.0;" x1="481" x2="642.5" y1="153.1152" y2="153.1152"/><text fill="#000000" font-family="sans-serif" font-size="13" font-weight="bold" lengthAdjust="spacing" textLength="7" x="493" y="147.8525">3</text><text fill="#000000" font-family="sans-serif" font-size="13" lengthAdjust="spacing" textLength="72" x="504" y="147.8525">Repositories</text><polygon fill="#181818" points="779,180.4063,789,184.4063,779,188.4063,783,184.4063" style="stroke:#181818;stroke-width:1.0;"/><line style="stroke:#181818;stroke-width:1.0;" x1="476" x2="785" y1="184.4063" y2="184.4063"/><text fill="#000000" font-family="sans-serif" font-size="13" font-weight="bold" lengthAdjust="spacing" textLength="7" x="483" y="179.1436">4</text><text fill="#000000" font-family="sans-serif" font-size="13" lengthAdjust="spacing" textLength="285" x="494" y="179.1436">getAnnouncementRequestRepositoryRepository()</text><polygon fill="#181818" points="487,211.6973,477,215.6973,487,219.6973,483,215.6973" style="stroke:#181818;stroke-width:1.0;"/><line style="stroke:#181818;stroke-width:1.0;stroke-dasharray:2.0,2.0;" x1="481" x2="795" y1="215.6973" y2="215.6973"/><text fill="#000000" font-family="sans-serif" font-size="13" font-weight="bold" lengthAdjust="spacing" textLength="7" x="493" y="210.4346">5</text><text fill="#000000" font-family="sans-serif" font-size="13" lengthAdjust="spacing" textLength="147" x="504" y="210.4346">announcementRepository</text><polygon fill="#181818" points="1111,242.9883,1121,246.9883,1111,250.9883,1115,246.9883" style="stroke:#181818;stroke-width:1.0;"/><line style="stroke:#181818;stroke-width:1.0;" x1="471" x2="1117" y1="246.9883" y2="246.9883"/><text fill="#000000" font-family="sans-serif" font-size="13" font-weight="bold" lengthAdjust="spacing" textLength="7" x="478" y="241.7256">6</text><text fill="#000000" font-family="sans-serif" font-size="13" lengthAdjust="spacing" textLength="436" x="489" y="241.7256">createEmail(String sender, String recipient, String subject, String message)</text><polygon fill="#181818" points="1582,274.2793,1592,278.2793,1582,282.2793,1586,278.2793" style="stroke:#181818;stroke-width:1.0;"/><line style="stroke:#181818;stroke-width:1.0;" x1="1133" x2="1588" y1="278.2793" y2="278.2793"/><text fill="#000000" font-family="sans-serif" font-size="13" font-weight="bold" lengthAdjust="spacing" textLength="7" x="1140" y="273.0166">7</text><text fill="#000000" font-family="sans-serif" font-size="13" lengthAdjust="spacing" textLength="266" x="1151" y="273.0166">sender = getAgent().getEmployee().getEmail()</text><polygon fill="#181818" points="1582,335.5703,1592,339.5703,1582,343.5703,1586,339.5703" style="stroke:#181818;stroke-width:1.0;"/><line style="stroke:#181818;stroke-width:1.0;" x1="1133" x2="1588" y1="339.5703" y2="339.5703"/><text fill="#000000" font-family="sans-serif" font-size="13" font-weight="bold" lengthAdjust="spacing" textLength="7" x="1140" y="334.3076">8</text><text fill="#000000" font-family="sans-serif" font-size="13" lengthAdjust="spacing" textLength="187" x="1151" y="334.3076">recipient = getClient().getEmail()</text><line style="stroke:#181818;stroke-width:1.0;" x1="1133" x2="1180" y1="395.8613" y2="395.8613"/><line style="stroke:#181818;stroke-width:1.0;" x1="1180" x2="1180" y1="395.8613" y2="408.8613"/><line style="stroke:#181818;stroke-width:1.0;" x1="1139" x2="1180" y1="408.8613" y2="408.8613"/><polygon fill="#181818" points="1149,404.8613,1139,408.8613,1149,412.8613,1145,408.8613" style="stroke:#181818;stroke-width:1.0;"/><text fill="#000000" font-family="sans-serif" font-size="13" font-weight="bold" lengthAdjust="spacing" textLength="7" x="1145" y="390.5986">9</text><text fill="#000000" font-family="sans-serif" font-size="13" lengthAdjust="spacing" textLength="436" x="1156" y="390.5986">createEmail(String sender, String recipient, String subject, String message)</text><line style="stroke:#181818;stroke-width:1.0;stroke-dasharray:2.0,2.0;" x1="1138" x2="1180" y1="450.1523" y2="450.1523"/><line style="stroke:#181818;stroke-width:1.0;stroke-dasharray:2.0,2.0;" x1="1180" x2="1180" y1="450.1523" y2="463.1523"/><line style="stroke:#181818;stroke-width:1.0;stroke-dasharray:2.0,2.0;" x1="1133" x2="1180" y1="463.1523" y2="463.1523"/><polygon fill="#181818" points="1143,459.1523,1133,463.1523,1143,467.1523,1139,463.1523" style="stroke:#181818;stroke-width:1.0;"/><text fill="#000000" font-family="sans-serif" font-size="13" font-weight="bold" lengthAdjust="spacing" textLength="14" x="1145" y="444.8896">10</text><text fill="#000000" font-family="sans-serif" font-size="13" lengthAdjust="spacing" textLength="4" x="1163" y="444.8896">&#160;</text><!--SRC=[jLCxRy8m4DxpAooMWjJ07gb8Y39KQbKfPMGnuHHS-P7QJYN-VIzsNdQ0Bcqc-tpVunvvE5jRcMorgZYLjXPyMIYnAZWr9ZqnMcegaYIfgBQiO1Mca5csaLBLiW01qkRmLOEnMoMjLfo3dX5go7QVlqQW72fbc5MQWN4vRvJ9FdW9iuTuHWvo0hq50r5nTG4OmGzoDmawZbqUOWcTLXNmREwzEyfDdiUzkW9wthzdryCj2PwGXjPMoLeSGISaNRkEaemK6gY5dQ2Cpp-iPh8a1kG9z2DfhnfGco5l7p7ryHEAuIx065h28Y7uqSAoRwJq8tCXhuMQuOHGlGJx8esbw7pkuGC-6gT_ZIdITDqMCfwfppt1JQxGLcpfxc26qyJnn6rej6jvk1SzXCIcOxhEBcv5zkTZ6-cwmGM5kJri8dZm3fgTyuBaoRMiHANvOed7xlVeRet5HSpNh6Gas-ufcUZqbNYfBMSZhO7z6lsl_F_GoHjTytBJeZ7d1m00]--></g></svg>