<?xml version="1.0" encoding="us-ascii" standalone="no"?><svg xmlns="http://www.w3.org/2000/svg" xmlns:xlink="http://www.w3.org/1999/xlink" contentStyleType="text/css" height="776px" preserveAspectRatio="none" style="width:958px;height:776px;background:#FFFFFF;" version="1.1" viewBox="0 0 958 776" width="958px" zoomAndPan="magnify"><defs/><g><text fill="#000000" font-family="sans-serif" font-size="14" font-weight="bold" lengthAdjust="spacing" textLength="930" x="10" y="30.1074">US008- As an agent, I intend to see the list of property announcement requests made to myself, so that I can post the announcement.</text><rect fill="#FFFFFF" height="551.5781" style="stroke:#181818;stroke-width:1.0;" width="10" x="166.75" y="133.2422"/><rect fill="#FFFFFF" height="31.291" style="stroke:#181818;stroke-width:1.0;" width="10" x="763.75" y="156.5332"/><rect fill="#FFFFFF" height="31.291" style="stroke:#181818;stroke-width:1.0;" width="10" x="763.75" y="219.1152"/><rect fill="#FFFFFF" height="57.582" style="stroke:#181818;stroke-width:1.0;" width="10" x="763.75" y="281.6973"/><rect fill="#FFFFFF" height="31.291" style="stroke:#181818;stroke-width:1.0;" width="10" x="763.75" y="370.5703"/><rect fill="#FFFFFF" height="31.291" style="stroke:#181818;stroke-width:1.0;" width="10" x="763.75" y="433.1523"/><rect fill="#FFFFFF" height="79.2129" style="stroke:#181818;stroke-width:1.0;" width="10" x="763.75" y="495.7344"/><rect fill="#FFFFFF" height="31.291" style="stroke:#181818;stroke-width:1.0;" width="10" x="763.75" y="606.2383"/><rect fill="none" height="348.832" style="stroke:#000000;stroke-width:1.5;" width="670.5" x="140.25" y="296.6973"/><line style="stroke:#181818;stroke-width:0.5;stroke-dasharray:5.0,5.0;" x1="171.25" x2="171.25" y1="123.2422" y2="693.8203"/><line style="stroke:#181818;stroke-width:0.5;stroke-dasharray:5.0,5.0;" x1="768.75" x2="768.75" y1="123.2422" y2="693.8203"/><text fill="#000000" font-family="sans-serif" font-size="14" lengthAdjust="spacing" textLength="37" x="150.25" y="119.7285">Agent</text><ellipse cx="171.75" cy="53.1211" fill="#E3E3E3" rx="8" ry="8" style="stroke:#181818;stroke-width:0.5;"/><path d="M171.75,61.1211 L171.75,88.1211 M158.75,69.1211 L184.75,69.1211 M171.75,88.1211 L158.75,103.1211 M171.75,88.1211 L184.75,103.1211 " fill="none" style="stroke:#181818;stroke-width:0.5;"/><text fill="#000000" font-family="sans-serif" font-size="14" lengthAdjust="spacing" textLength="37" x="150.25" y="707.9277">Agent</text><ellipse cx="171.75" cy="719.9414" fill="#E3E3E3" rx="8" ry="8" style="stroke:#181818;stroke-width:0.5;"/><path d="M171.75,727.9414 L171.75,754.9414 M158.75,735.9414 L184.75,735.9414 M171.75,754.9414 L158.75,769.9414 M171.75,754.9414 L184.75,769.9414 " fill="none" style="stroke:#181818;stroke-width:0.5;"/><rect fill="#E3E3E3" height="32.6211" rx="2.5" ry="2.5" style="stroke:#181818;stroke-width:0.5;" width="64" x="736.75" y="89.6211"/><text fill="#000000" font-family="sans-serif" font-size="14" lengthAdjust="spacing" textLength="50" x="743.75" y="111.7285">:System</text><rect fill="#E3E3E3" height="32.6211" rx="2.5" ry="2.5" style="stroke:#181818;stroke-width:0.5;" width="64" x="736.75" y="692.8203"/><text fill="#000000" font-family="sans-serif" font-size="14" lengthAdjust="spacing" textLength="50" x="743.75" y="714.9277">:System</text><rect fill="#FFFFFF" height="551.5781" style="stroke:#181818;stroke-width:1.0;" width="10" x="166.75" y="133.2422"/><rect fill="#FFFFFF" height="31.291" style="stroke:#181818;stroke-width:1.0;" width="10" x="763.75" y="156.5332"/><rect fill="#FFFFFF" height="31.291" style="stroke:#181818;stroke-width:1.0;" width="10" x="763.75" y="219.1152"/><rect fill="#FFFFFF" height="57.582" style="stroke:#181818;stroke-width:1.0;" width="10" x="763.75" y="281.6973"/><rect fill="#FFFFFF" height="31.291" style="stroke:#181818;stroke-width:1.0;" width="10" x="763.75" y="370.5703"/><rect fill="#FFFFFF" height="31.291" style="stroke:#181818;stroke-width:1.0;" width="10" x="763.75" y="433.1523"/><rect fill="#FFFFFF" height="79.2129" style="stroke:#181818;stroke-width:1.0;" width="10" x="763.75" y="495.7344"/><rect fill="#FFFFFF" height="31.291" style="stroke:#181818;stroke-width:1.0;" width="10" x="763.75" y="606.2383"/><polygon fill="#181818" points="751.75,152.5332,761.75,156.5332,751.75,160.5332,755.75,156.5332" style="stroke:#181818;stroke-width:1.0;"/><line style="stroke:#181818;stroke-width:1.0;" x1="176.75" x2="757.75" y1="156.5332" y2="156.5332"/><text fill="#000000" font-family="sans-serif" font-size="13" font-weight="bold" lengthAdjust="spacing" textLength="7" x="183.75" y="151.2705">1</text><text fill="#000000" font-family="sans-serif" font-size="13" lengthAdjust="spacing" textLength="319" x="194.75" y="151.2705">asks to see the list of property announcement requests</text><polygon fill="#181818" points="187.75,183.8242,177.75,187.8242,187.75,191.8242,183.75,187.8242" style="stroke:#181818;stroke-width:1.0;"/><line style="stroke:#181818;stroke-width:1.0;stroke-dasharray:2.0,2.0;" x1="181.75" x2="767.75" y1="187.8242" y2="187.8242"/><text fill="#000000" font-family="sans-serif" font-size="13" font-weight="bold" lengthAdjust="spacing" textLength="7" x="193.75" y="182.5615">2</text><text fill="#000000" font-family="sans-serif" font-size="13" lengthAdjust="spacing" textLength="526" x="204.75" y="182.5615">provides the list of announcement request responsible for that agent and asks to select one</text><polygon fill="#181818" points="751.75,215.1152,761.75,219.1152,751.75,223.1152,755.75,219.1152" style="stroke:#181818;stroke-width:1.0;"/><line style="stroke:#181818;stroke-width:1.0;" x1="176.75" x2="757.75" y1="219.1152" y2="219.1152"/><text fill="#000000" font-family="sans-serif" font-size="13" font-weight="bold" lengthAdjust="spacing" textLength="7" x="183.75" y="213.8525">3</text><text fill="#000000" font-family="sans-serif" font-size="13" lengthAdjust="spacing" textLength="178" x="194.75" y="213.8525">selects announcement request</text><polygon fill="#181818" points="187.75,246.4063,177.75,250.4063,187.75,254.4063,183.75,250.4063" style="stroke:#181818;stroke-width:1.0;"/><line style="stroke:#181818;stroke-width:1.0;stroke-dasharray:2.0,2.0;" x1="181.75" x2="767.75" y1="250.4063" y2="250.4063"/><text fill="#000000" font-family="sans-serif" font-size="13" font-weight="bold" lengthAdjust="spacing" textLength="7" x="193.75" y="245.1436">4</text><text fill="#000000" font-family="sans-serif" font-size="13" lengthAdjust="spacing" textLength="326" x="204.75" y="245.1436">ask if the user wants to post the property announcement</text><polygon fill="#181818" points="751.75,277.6973,761.75,281.6973,751.75,285.6973,755.75,281.6973" style="stroke:#181818;stroke-width:1.0;"/><line style="stroke:#181818;stroke-width:1.0;" x1="176.75" x2="757.75" y1="281.6973" y2="281.6973"/><text fill="#000000" font-family="sans-serif" font-size="13" font-weight="bold" lengthAdjust="spacing" textLength="7" x="183.75" y="276.4346">5</text><text fill="#000000" font-family="sans-serif" font-size="13" lengthAdjust="spacing" textLength="196" x="194.75" y="276.4346">provides the request data (yes/no)</text><path d="M140.25,296.6973 L201.25,296.6973 L201.25,305.9883 L191.25,315.9883 L140.25,315.9883 L140.25,296.6973 " fill="#EEEEEE" style="stroke:#000000;stroke-width:1.5;"/><rect fill="none" height="348.832" style="stroke:#000000;stroke-width:1.5;" width="670.5" x="140.25" y="296.6973"/><text fill="#000000" font-family="sans-serif" font-size="13" font-weight="bold" lengthAdjust="spacing" textLength="16" x="155.25" y="311.7256">alt</text><text fill="#000000" font-family="sans-serif" font-size="11" font-weight="bold" lengthAdjust="spacing" textLength="92" x="216.25" y="310.5674">[if answer = yes]</text><polygon fill="#181818" points="187.75,335.2793,177.75,339.2793,187.75,343.2793,183.75,339.2793" style="stroke:#181818;stroke-width:1.0;"/><line style="stroke:#181818;stroke-width:1.0;stroke-dasharray:2.0,2.0;" x1="181.75" x2="767.75" y1="339.2793" y2="339.2793"/><text fill="#000000" font-family="sans-serif" font-size="13" font-weight="bold" lengthAdjust="spacing" textLength="7" x="193.75" y="334.0166">6</text><text fill="#000000" font-family="sans-serif" font-size="13" lengthAdjust="spacing" textLength="150" x="204.75" y="334.0166">request data(commission)</text><polygon fill="#181818" points="751.75,366.5703,761.75,370.5703,751.75,374.5703,755.75,370.5703" style="stroke:#181818;stroke-width:1.0;"/><line style="stroke:#181818;stroke-width:1.0;" x1="176.75" x2="757.75" y1="370.5703" y2="370.5703"/><text fill="#000000" font-family="sans-serif" font-size="13" font-weight="bold" lengthAdjust="spacing" textLength="7" x="183.75" y="365.3076">7</text><text fill="#000000" font-family="sans-serif" font-size="13" lengthAdjust="spacing" textLength="145" x="194.75" y="365.3076">provides the request data</text><polygon fill="#181818" points="187.75,397.8613,177.75,401.8613,187.75,405.8613,183.75,401.8613" style="stroke:#181818;stroke-width:1.0;"/><line style="stroke:#181818;stroke-width:1.0;stroke-dasharray:2.0,2.0;" x1="181.75" x2="767.75" y1="401.8613" y2="401.8613"/><text fill="#000000" font-family="sans-serif" font-size="13" font-weight="bold" lengthAdjust="spacing" textLength="7" x="193.75" y="396.5986">8</text><text fill="#000000" font-family="sans-serif" font-size="13" lengthAdjust="spacing" textLength="146" x="204.75" y="396.5986">request data confirmation</text><polygon fill="#181818" points="751.75,429.1523,761.75,433.1523,751.75,437.1523,755.75,433.1523" style="stroke:#181818;stroke-width:1.0;"/><line style="stroke:#181818;stroke-width:1.0;" x1="176.75" x2="757.75" y1="433.1523" y2="433.1523"/><text fill="#000000" font-family="sans-serif" font-size="13" font-weight="bold" lengthAdjust="spacing" textLength="7" x="183.75" y="427.8896">9</text><text fill="#000000" font-family="sans-serif" font-size="13" lengthAdjust="spacing" textLength="78" x="194.75" y="427.8896">confirms data</text><polygon fill="#181818" points="187.75,460.4434,177.75,464.4434,187.75,468.4434,183.75,464.4434" style="stroke:#181818;stroke-width:1.0;"/><line style="stroke:#181818;stroke-width:1.0;stroke-dasharray:2.0,2.0;" x1="181.75" x2="767.75" y1="464.4434" y2="464.4434"/><text fill="#000000" font-family="sans-serif" font-size="13" font-weight="bold" lengthAdjust="spacing" textLength="14" x="193.75" y="459.1807">10</text><text fill="#000000" font-family="sans-serif" font-size="13" lengthAdjust="spacing" textLength="545" x="211.75" y="459.1807">asks what the message to send the email to the customer about the announcement request is</text><polygon fill="#181818" points="751.75,491.7344,761.75,495.7344,751.75,499.7344,755.75,495.7344" style="stroke:#181818;stroke-width:1.0;"/><line style="stroke:#181818;stroke-width:1.0;" x1="176.75" x2="757.75" y1="495.7344" y2="495.7344"/><text fill="#000000" font-family="sans-serif" font-size="13" font-weight="bold" lengthAdjust="spacing" textLength="14" x="183.75" y="490.4717">11</text><text fill="#000000" font-family="sans-serif" font-size="13" lengthAdjust="spacing" textLength="89" x="201.75" y="490.4717">insert message</text><polygon fill="#181818" points="187.75,523.0254,177.75,527.0254,187.75,531.0254,183.75,527.0254" style="stroke:#181818;stroke-width:1.0;"/><line style="stroke:#181818;stroke-width:1.0;stroke-dasharray:2.0,2.0;" x1="181.75" x2="762.75" y1="527.0254" y2="527.0254"/><text fill="#000000" font-family="sans-serif" font-size="13" font-weight="bold" lengthAdjust="spacing" textLength="14" x="193.75" y="521.7627">12</text><text fill="#000000" font-family="sans-serif" font-size="13" lengthAdjust="spacing" textLength="329" x="211.75" y="521.7627">Display refreshed list of property announcement requests</text><line style="stroke:#000000;stroke-width:1.0;stroke-dasharray:2.0,2.0;" x1="140.25" x2="810.75" y1="536.0254" y2="536.0254"/><text fill="#000000" font-family="sans-serif" font-size="11" font-weight="bold" lengthAdjust="spacing" textLength="86" x="145.25" y="547.8955">[if answer = no]</text><polygon fill="#181818" points="187.75,570.9473,177.75,574.9473,187.75,578.9473,183.75,574.9473" style="stroke:#181818;stroke-width:1.0;"/><line style="stroke:#181818;stroke-width:1.0;stroke-dasharray:2.0,2.0;" x1="181.75" x2="767.75" y1="574.9473" y2="574.9473"/><text fill="#000000" font-family="sans-serif" font-size="13" font-weight="bold" lengthAdjust="spacing" textLength="14" x="193.75" y="569.6846">13</text><text fill="#000000" font-family="sans-serif" font-size="13" lengthAdjust="spacing" textLength="289" x="211.75" y="569.6846">asks for a message why the request was declined</text><polygon fill="#181818" points="751.75,602.2383,761.75,606.2383,751.75,610.2383,755.75,606.2383" style="stroke:#181818;stroke-width:1.0;"/><line style="stroke:#181818;stroke-width:1.0;" x1="176.75" x2="757.75" y1="606.2383" y2="606.2383"/><text fill="#000000" font-family="sans-serif" font-size="13" font-weight="bold" lengthAdjust="spacing" textLength="14" x="183.75" y="600.9756">14</text><text fill="#000000" font-family="sans-serif" font-size="13" lengthAdjust="spacing" textLength="89" x="201.75" y="600.9756">insert message</text><polygon fill="#181818" points="187.75,633.5293,177.75,637.5293,187.75,641.5293,183.75,637.5293" style="stroke:#181818;stroke-width:1.0;"/><line style="stroke:#181818;stroke-width:1.0;stroke-dasharray:2.0,2.0;" x1="181.75" x2="767.75" y1="637.5293" y2="637.5293"/><text fill="#000000" font-family="sans-serif" font-size="13" font-weight="bold" lengthAdjust="spacing" textLength="14" x="193.75" y="632.2666">15</text><text fill="#000000" font-family="sans-serif" font-size="13" lengthAdjust="spacing" textLength="329" x="211.75" y="632.2666">Display refreshed list of property announcement requests</text><polygon fill="#181818" points="187.75,671.8203,177.75,675.8203,187.75,679.8203,183.75,675.8203" style="stroke:#181818;stroke-width:1.0;"/><line style="stroke:#181818;stroke-width:1.0;stroke-dasharray:2.0,2.0;" x1="181.75" x2="767.75" y1="675.8203" y2="675.8203"/><text fill="#000000" font-family="sans-serif" font-size="13" font-weight="bold" lengthAdjust="spacing" textLength="14" x="193.75" y="670.5576">16</text><text fill="#000000" font-family="sans-serif" font-size="13" lengthAdjust="spacing" textLength="151" x="211.75" y="670.5576">display operation success</text><!--SRC=[hLH1Zjim3Bpx5KHEMs3Jxh48q08BxANde0zWP3eHOackIA_XtvUIdS11b3G1gaiKcHpE32dnqVeE8pfmmGTpYC4HIEofulEN3iqHzxILiIM8P0Jzlbq6y07hC5Y_XmPRfgggn8h6_jw-lNrVmpi3Ub04Bw_m2wmNyZL802QjTI1eBGk41heOEeeoQhWFlJVaD4Kh_kc9XS5XJIdDZKnjymeSD1j58OtYTq514jeo-MjLOI_1zsv7KVT6GeJLUwAo0cJ8kqfLY3MsGwssscn75dBvyxJDUVOJXURu2jBAUrZ_dADWenb7VbvNHZjNE9NCfpFoMelaQfi4zMbhuWly4gp-SXSysvqseb7LsQhS18sl5rnRxIW4JxbYJLTCIc8tSnuNQqyfPKa5JKe5R9CLzKmH1kr3vdPkQT702UvXmXVEdKogKH1UHk9lFdmfqqv7hK1YY9u7vVS3D64ABgXPGh-Ou9nbji7Fw7SvFq5wJhY1ymzQO89lR7GeIkokZLU4vanUa7Ycpmn36iEanX6pZkCqW-azq3DoQDjqalwOdaLVemYu2_trrJuhilo8jML_hTU1anENPIZSmoc8-x3SjJWggqPlte7gHsz_NXCgwUDvEMW-t7SpNMmyMpaSnej16VG9gycqrbFzv6qf6dF3alze1boj0cETbkhcbDLpwLGcppTmRupAk6d0Nm00]--></g></svg>