<?xml version="1.0" encoding="us-ascii" standalone="no"?><svg xmlns="http://www.w3.org/2000/svg" xmlns:xlink="http://www.w3.org/1999/xlink" contentStyleType="text/css" height="1852.2px" preserveAspectRatio="none" style="width:1029px;height:1852px;background:#FFFFFF;" version="1.1" viewBox="0 0 1029 1852" width="1029.6px" zoomAndPan="magnify"><defs/><g><rect fill="#FFFFFF" height="1684.3324" style="stroke:#181818;stroke-width:0.9;" width="9" x="39.6" y="84.259"/><rect fill="#FFFFFF" height="167.1715" style="stroke:#181818;stroke-width:0.9;" width="9" x="430.2" y="105.2209"/><rect fill="#FFFFFF" height="68.0238" style="stroke:#181818;stroke-width:0.9;" width="9" x="430.2" y="300.5543"/><rect fill="#FFFFFF" height="68.0238" style="stroke:#181818;stroke-width:0.9;" width="9" x="430.2" y="396.74"/><rect fill="#FFFFFF" height="367.2756" style="stroke:#181818;stroke-width:0.9;" width="9" x="430.2" y="492.9258"/><rect fill="#FFFFFF" height="127.9125" style="stroke:#181818;stroke-width:0.9;" width="9" x="430.2" y="888.3633"/><rect fill="#FFFFFF" height="28.1619" style="stroke:#181818;stroke-width:0.9;" width="9" x="430.2" y="1068.0996"/><rect fill="#FFFFFF" height="68.0238" style="stroke:#181818;stroke-width:0.9;" width="9" x="430.2" y="1124.4234"/><rect fill="#FFFFFF" height="186.0363" style="stroke:#181818;stroke-width:0.9;" width="9" x="430.2" y="1220.6092"/><rect fill="#FFFFFF" height="28.1619" style="stroke:#181818;stroke-width:0.9;" width="9" x="430.2" y="1434.8074"/><rect fill="#FFFFFF" height="107.8857" style="stroke:#181818;stroke-width:0.9;" width="9" x="430.2" y="1491.1313"/><rect fill="#FFFFFF" height="127.9125" style="stroke:#181818;stroke-width:0.9;" width="9" x="430.2" y="1627.1789"/><rect fill="#FFFFFF" height="71.5887" style="stroke:#181818;stroke-width:0.9;" width="9" x="919.8" y="172.6418"/><rect fill="#FFFFFF" height="71.5887" style="stroke:#181818;stroke-width:0.9;" width="9" x="919.8" y="560.9496"/><rect fill="#FFFFFF" height="71.5887" style="stroke:#181818;stroke-width:0.9;" width="9" x="919.8" y="660.7002"/><rect fill="#FFFFFF" height="71.5887" style="stroke:#181818;stroke-width:0.9;" width="9" x="919.8" y="760.4508"/><rect fill="#FFFFFF" height="71.5887" style="stroke:#181818;stroke-width:0.9;" width="9" x="919.8" y="916.5252"/><rect fill="#FFFFFF" height="71.5887" style="stroke:#181818;stroke-width:0.9;" width="9" x="919.8" y="1248.7711"/><rect fill="#FFFFFF" height="71.5887" style="stroke:#181818;stroke-width:0.9;" width="9" x="919.8" y="1655.3408"/><rect fill="none" height="325.9459" style="stroke:#000000;stroke-width:1.35;" width="1015.2" x="9" y="1029.7758"/><rect fill="none" height="393.9697" style="stroke:#000000;stroke-width:1.35;" width="1015.2" x="9" y="1368.3217"/><line style="stroke:#181818;stroke-width:0.45;stroke-dasharray:5.0,5.0;" x1="44.1" x2="44.1" y1="75.259" y2="1777.5914"/><line style="stroke:#181818;stroke-width:0.45;stroke-dasharray:5.0,5.0;" x1="434.7" x2="434.7" y1="75.259" y2="1777.5914"/><line style="stroke:#181818;stroke-width:0.45;stroke-dasharray:5.0,5.0;" x1="924.3" x2="924.3" y1="141.0504" y2="1777.5914"/><text fill="#000000" font-family="sans-serif" font-size="12.6" lengthAdjust="spacing" textLength="46.8" x="18" y="72.0967">Client UI</text><ellipse cx="44.1" cy="12.15" fill="#E3E3E3" rx="7.2" ry="7.2" style="stroke:#181818;stroke-width:0.45;"/><path d="M44.1,19.35 L44.1,43.65 M32.4,26.55 L55.8,26.55 M44.1,43.65 L32.4,57.15 M44.1,43.65 L55.8,57.15 " fill="none" style="stroke:#181818;stroke-width:0.45;"/><text fill="#000000" font-family="sans-serif" font-size="12.6" lengthAdjust="spacing" textLength="46.8" x="18" y="1790.2881">Client UI</text><ellipse cx="44.1" cy="1801.1004" fill="#E3E3E3" rx="7.2" ry="7.2" style="stroke:#181818;stroke-width:0.45;"/><path d="M44.1,1808.3004 L44.1,1832.6004 M32.4,1815.5004 L55.8,1815.5004 M44.1,1832.6004 L32.4,1846.1004 M44.1,1832.6004 L55.8,1846.1004 " fill="none" style="stroke:#181818;stroke-width:0.45;"/><rect fill="#E3E3E3" height="29.359" rx="2.25" ry="2.25" style="stroke:#181818;stroke-width:0.45;" width="136.8" x="366.3" y="45"/><text fill="#000000" font-family="sans-serif" font-size="12.6" lengthAdjust="spacing" textLength="124.2" x="372.6" y="64.8967">:CreateVisitRequestUI</text><rect fill="#E3E3E3" height="29.359" rx="2.25" ry="2.25" style="stroke:#181818;stroke-width:0.45;" width="136.8" x="366.3" y="1776.6914"/><text fill="#000000" font-family="sans-serif" font-size="12.6" lengthAdjust="spacing" textLength="124.2" x="372.6" y="1796.5881">:CreateVisitRequestUI</text><rect fill="#E3E3E3" height="29.359" rx="2.25" ry="2.25" style="stroke:#181818;stroke-width:0.45;" width="181.8" x="833.4" y="1776.6914"/><text fill="#000000" font-family="sans-serif" font-size="12.6" lengthAdjust="spacing" textLength="169.2" x="839.7" y="1796.5881">:CreateVisitRequestController</text><rect fill="#FFFFFF" height="1684.3324" style="stroke:#181818;stroke-width:0.9;" width="9" x="39.6" y="84.259"/><rect fill="#FFFFFF" height="167.1715" style="stroke:#181818;stroke-width:0.9;" width="9" x="430.2" y="105.2209"/><rect fill="#FFFFFF" height="68.0238" style="stroke:#181818;stroke-width:0.9;" width="9" x="430.2" y="300.5543"/><rect fill="#FFFFFF" height="68.0238" style="stroke:#181818;stroke-width:0.9;" width="9" x="430.2" y="396.74"/><rect fill="#FFFFFF" height="367.2756" style="stroke:#181818;stroke-width:0.9;" width="9" x="430.2" y="492.9258"/><rect fill="#FFFFFF" height="127.9125" style="stroke:#181818;stroke-width:0.9;" width="9" x="430.2" y="888.3633"/><rect fill="#FFFFFF" height="28.1619" style="stroke:#181818;stroke-width:0.9;" width="9" x="430.2" y="1068.0996"/><rect fill="#FFFFFF" height="68.0238" style="stroke:#181818;stroke-width:0.9;" width="9" x="430.2" y="1124.4234"/><rect fill="#FFFFFF" height="186.0363" style="stroke:#181818;stroke-width:0.9;" width="9" x="430.2" y="1220.6092"/><rect fill="#FFFFFF" height="28.1619" style="stroke:#181818;stroke-width:0.9;" width="9" x="430.2" y="1434.8074"/><rect fill="#FFFFFF" height="107.8857" style="stroke:#181818;stroke-width:0.9;" width="9" x="430.2" y="1491.1313"/><rect fill="#FFFFFF" height="127.9125" style="stroke:#181818;stroke-width:0.9;" width="9" x="430.2" y="1627.1789"/><rect fill="#FFFFFF" height="71.5887" style="stroke:#181818;stroke-width:0.9;" width="9" x="919.8" y="172.6418"/><rect fill="#FFFFFF" height="71.5887" style="stroke:#181818;stroke-width:0.9;" width="9" x="919.8" y="560.9496"/><rect fill="#FFFFFF" height="71.5887" style="stroke:#181818;stroke-width:0.9;" width="9" x="919.8" y="660.7002"/><rect fill="#FFFFFF" height="71.5887" style="stroke:#181818;stroke-width:0.9;" width="9" x="919.8" y="760.4508"/><rect fill="#FFFFFF" height="71.5887" style="stroke:#181818;stroke-width:0.9;" width="9" x="919.8" y="916.5252"/><rect fill="#FFFFFF" height="71.5887" style="stroke:#181818;stroke-width:0.9;" width="9" x="919.8" y="1248.7711"/><rect fill="#FFFFFF" height="71.5887" style="stroke:#181818;stroke-width:0.9;" width="9" x="919.8" y="1655.3408"/><polygon fill="#181818" points="419.4,101.6209,428.4,105.2209,419.4,108.8209,423,105.2209" style="stroke:#181818;stroke-width:0.9;"/><line style="stroke:#181818;stroke-width:0.9;" x1="48.6" x2="424.8" y1="105.2209" y2="105.2209"/><text fill="#000000" font-family="sans-serif" font-size="11.7" font-weight="bold" lengthAdjust="spacing" textLength="6.3" x="54.9" y="100.4845">1</text><text fill="#000000" font-family="sans-serif" font-size="11.7" lengthAdjust="spacing" textLength="140.4" x="64.8" y="100.4845">asks to post a visit request</text><polygon fill="#181818" points="822.6,129.7828,831.6,133.3828,822.6,136.9828,826.2,133.3828" style="stroke:#181818;stroke-width:0.9;"/><line style="stroke:#181818;stroke-width:0.9;" x1="439.2" x2="828" y1="133.3828" y2="133.3828"/><text fill="#000000" font-family="sans-serif" font-size="11.7" font-weight="bold" lengthAdjust="spacing" textLength="6.3" x="445.5" y="128.6464">2</text><text fill="#000000" font-family="sans-serif" font-size="11.7" lengthAdjust="spacing" textLength="169.2" x="455.4" y="128.6464">CreateVisitRequestListController</text><rect fill="#E3E3E3" height="29.359" rx="2.25" ry="2.25" style="stroke:#181818;stroke-width:0.45;" width="181.8" x="833.4" y="112.4209"/><text fill="#000000" font-family="sans-serif" font-size="12.6" lengthAdjust="spacing" textLength="169.2" x="839.7" y="132.3176">:CreateVisitRequestController</text><polygon fill="#181818" points="909,169.0418,918,172.6418,909,176.2418,912.6,172.6418" style="stroke:#181818;stroke-width:0.9;"/><line style="stroke:#181818;stroke-width:0.9;" x1="439.2" x2="914.4" y1="172.6418" y2="172.6418"/><text fill="#000000" font-family="sans-serif" font-size="11.7" font-weight="bold" lengthAdjust="spacing" textLength="6.3" x="445.5" y="167.9054">3</text><text fill="#000000" font-family="sans-serif" font-size="11.7" lengthAdjust="spacing" textLength="79.2" x="455.4" y="167.9054">getPropertyList</text><rect fill="none" height="38.9268" style="stroke:#000000;stroke-width:1.35;" width="187.2" x="830.7" y="179.8418"/><path d="M830.7,179.8418 L886.5,179.8418 L886.5,187.9418 L877.5,196.9418 L830.7,196.9418 L830.7,179.8418 " fill="#EEEEEE" style="stroke:#000000;stroke-width:1.8;"/><text fill="#000000" font-family="sans-serif" font-size="11.7" font-weight="bold" lengthAdjust="spacing" textLength="15.3" x="842.4" y="194.2673">ref</text><text fill="#000000" font-family="sans-serif" font-size="10.8" lengthAdjust="spacing" textLength="79.2" x="884.7" y="212.1961">get Property List</text><polygon fill="#181818" points="449.1,240.6305,440.1,244.2305,449.1,247.8305,445.5,244.2305" style="stroke:#181818;stroke-width:0.9;"/><line style="stroke:#181818;stroke-width:0.9;stroke-dasharray:2.0,2.0;" x1="443.7" x2="923.4" y1="244.2305" y2="244.2305"/><text fill="#000000" font-family="sans-serif" font-size="11.7" font-weight="bold" lengthAdjust="spacing" textLength="6.3" x="454.5" y="239.494">4</text><text fill="#000000" font-family="sans-serif" font-size="11.7" lengthAdjust="spacing" textLength="61.2" x="464.4" y="239.494">propertyList</text><polygon fill="#181818" points="58.5,268.7924,49.5,272.3924,58.5,275.9924,54.9,272.3924" style="stroke:#181818;stroke-width:0.9;"/><line style="stroke:#181818;stroke-width:0.9;stroke-dasharray:2.0,2.0;" x1="53.1" x2="433.8" y1="272.3924" y2="272.3924"/><text fill="#000000" font-family="sans-serif" font-size="11.7" font-weight="bold" lengthAdjust="spacing" textLength="6.3" x="63.9" y="267.656">5</text><text fill="#000000" font-family="sans-serif" font-size="11.7" lengthAdjust="spacing" textLength="251.1" x="73.8" y="267.656">show list of all properties and asks to select one</text><polygon fill="#181818" points="419.4,296.9543,428.4,300.5543,419.4,304.1543,423,300.5543" style="stroke:#181818;stroke-width:0.9;"/><line style="stroke:#181818;stroke-width:0.9;" x1="48.6" x2="424.8" y1="300.5543" y2="300.5543"/><text fill="#000000" font-family="sans-serif" font-size="11.7" font-weight="bold" lengthAdjust="spacing" textLength="6.3" x="54.9" y="295.8179">6</text><text fill="#000000" font-family="sans-serif" font-size="11.7" lengthAdjust="spacing" textLength="87.3" x="64.8" y="295.8179">select a property</text><line style="stroke:#181818;stroke-width:0.9;" x1="439.2" x2="477" y1="328.7162" y2="328.7162"/><line style="stroke:#181818;stroke-width:0.9;" x1="477" x2="477" y1="328.7162" y2="340.4162"/><line style="stroke:#181818;stroke-width:0.9;" x1="440.1" x2="477" y1="340.4162" y2="340.4162"/><polygon fill="#181818" points="449.1,336.8162,440.1,340.4162,449.1,344.0162,445.5,340.4162" style="stroke:#181818;stroke-width:0.9;"/><text fill="#000000" font-family="sans-serif" font-size="11.7" font-weight="bold" lengthAdjust="spacing" textLength="6.3" x="445.5" y="323.9798">7</text><text fill="#000000" font-family="sans-serif" font-size="11.7" lengthAdjust="spacing" textLength="99" x="455.4" y="323.9798">keepData(property)</text><polygon fill="#181818" points="58.5,364.9781,49.5,368.5781,58.5,372.1781,54.9,368.5781" style="stroke:#181818;stroke-width:0.9;"/><line style="stroke:#181818;stroke-width:0.9;stroke-dasharray:2.0,2.0;" x1="53.1" x2="433.8" y1="368.5781" y2="368.5781"/><text fill="#000000" font-family="sans-serif" font-size="11.7" font-weight="bold" lengthAdjust="spacing" textLength="6.3" x="63.9" y="363.8417">8</text><text fill="#000000" font-family="sans-serif" font-size="11.7" lengthAdjust="spacing" textLength="113.4" x="73.8" y="363.8417">request preferred date</text><polygon fill="#181818" points="419.4,393.14,428.4,396.74,419.4,400.34,423,396.74" style="stroke:#181818;stroke-width:0.9;"/><line style="stroke:#181818;stroke-width:0.9;" x1="48.6" x2="424.8" y1="396.74" y2="396.74"/><text fill="#000000" font-family="sans-serif" font-size="11.7" font-weight="bold" lengthAdjust="spacing" textLength="6.3" x="54.9" y="392.0036">9</text><text fill="#000000" font-family="sans-serif" font-size="11.7" lengthAdjust="spacing" textLength="103.5" x="64.8" y="392.0036">insert preferred date</text><line style="stroke:#181818;stroke-width:0.9;" x1="439.2" x2="477" y1="424.902" y2="424.902"/><line style="stroke:#181818;stroke-width:0.9;" x1="477" x2="477" y1="424.902" y2="436.602"/><line style="stroke:#181818;stroke-width:0.9;" x1="440.1" x2="477" y1="436.602" y2="436.602"/><polygon fill="#181818" points="449.1,433.002,440.1,436.602,449.1,440.202,445.5,436.602" style="stroke:#181818;stroke-width:0.9;"/><text fill="#000000" font-family="sans-serif" font-size="11.7" font-weight="bold" lengthAdjust="spacing" textLength="12.6" x="445.5" y="420.1655">10</text><text fill="#000000" font-family="sans-serif" font-size="11.7" lengthAdjust="spacing" textLength="126" x="461.7" y="420.1655">keepData(preferredDate)</text><polygon fill="#181818" points="58.5,461.1639,49.5,464.7639,58.5,468.3639,54.9,464.7639" style="stroke:#181818;stroke-width:0.9;"/><line style="stroke:#181818;stroke-width:0.9;stroke-dasharray:2.0,2.0;" x1="53.1" x2="433.8" y1="464.7639" y2="464.7639"/><text fill="#000000" font-family="sans-serif" font-size="11.7" font-weight="bold" lengthAdjust="spacing" textLength="12.6" x="63.9" y="460.0274">11</text><text fill="#000000" font-family="sans-serif" font-size="11.7" lengthAdjust="spacing" textLength="87.3" x="80.1" y="460.0274">request time slot</text><polygon fill="#181818" points="419.4,489.3258,428.4,492.9258,419.4,496.5258,423,492.9258" style="stroke:#181818;stroke-width:0.9;"/><line style="stroke:#181818;stroke-width:0.9;" x1="48.6" x2="424.8" y1="492.9258" y2="492.9258"/><text fill="#000000" font-family="sans-serif" font-size="11.7" font-weight="bold" lengthAdjust="spacing" textLength="12.6" x="54.9" y="488.1894">12</text><text fill="#000000" font-family="sans-serif" font-size="11.7" lengthAdjust="spacing" textLength="77.4" x="71.1" y="488.1894">insert time slot</text><line style="stroke:#181818;stroke-width:0.9;" x1="439.2" x2="477" y1="521.0877" y2="521.0877"/><line style="stroke:#181818;stroke-width:0.9;" x1="477" x2="477" y1="521.0877" y2="532.7877"/><line style="stroke:#181818;stroke-width:0.9;" x1="440.1" x2="477" y1="532.7877" y2="532.7877"/><polygon fill="#181818" points="449.1,529.1877,440.1,532.7877,449.1,536.3877,445.5,532.7877" style="stroke:#181818;stroke-width:0.9;"/><text fill="#000000" font-family="sans-serif" font-size="11.7" font-weight="bold" lengthAdjust="spacing" textLength="12.6" x="445.5" y="516.3513">13</text><text fill="#000000" font-family="sans-serif" font-size="11.7" lengthAdjust="spacing" textLength="99.9" x="461.7" y="516.3513">keepData(timeSlot)</text><polygon fill="#181818" points="909,557.3496,918,560.9496,909,564.5496,912.6,560.9496" style="stroke:#181818;stroke-width:0.9;"/><line style="stroke:#181818;stroke-width:0.9;stroke-dasharray:2.0,2.0;" x1="439.2" x2="914.4" y1="560.9496" y2="560.9496"/><text fill="#000000" font-family="sans-serif" font-size="11.7" font-weight="bold" lengthAdjust="spacing" textLength="12.6" x="445.5" y="556.2132">14</text><text fill="#000000" font-family="sans-serif" font-size="11.7" lengthAdjust="spacing" textLength="53.1" x="461.7" y="556.2132">getClient()</text><rect fill="none" height="38.9268" style="stroke:#000000;stroke-width:1.35;" width="187.2" x="830.7" y="568.1496"/><path d="M830.7,568.1496 L886.5,568.1496 L886.5,576.2496 L877.5,585.2496 L830.7,585.2496 L830.7,568.1496 " fill="#EEEEEE" style="stroke:#000000;stroke-width:1.8;"/><text fill="#000000" font-family="sans-serif" font-size="11.7" font-weight="bold" lengthAdjust="spacing" textLength="15.3" x="842.4" y="582.5751">ref</text><text fill="#000000" font-family="sans-serif" font-size="10.8" lengthAdjust="spacing" textLength="46.8" x="900.9" y="600.5039">get Client</text><polygon fill="#181818" points="449.1,628.9383,440.1,632.5383,449.1,636.1383,445.5,632.5383" style="stroke:#181818;stroke-width:0.9;"/><line style="stroke:#181818;stroke-width:0.9;stroke-dasharray:2.0,2.0;" x1="443.7" x2="923.4" y1="632.5383" y2="632.5383"/><text fill="#000000" font-family="sans-serif" font-size="11.7" font-weight="bold" lengthAdjust="spacing" textLength="12.6" x="454.5" y="627.8019">15</text><text fill="#000000" font-family="sans-serif" font-size="11.7" lengthAdjust="spacing" textLength="27.9" x="470.7" y="627.8019">client</text><polygon fill="#181818" points="909,657.1002,918,660.7002,909,664.3002,912.6,660.7002" style="stroke:#181818;stroke-width:0.9;"/><line style="stroke:#181818;stroke-width:0.9;" x1="439.2" x2="914.4" y1="660.7002" y2="660.7002"/><text fill="#000000" font-family="sans-serif" font-size="11.7" font-weight="bold" lengthAdjust="spacing" textLength="12.6" x="445.5" y="655.9638">16</text><text fill="#000000" font-family="sans-serif" font-size="11.7" lengthAdjust="spacing" textLength="85.5" x="461.7" y="655.9638">client.getName()</text><rect fill="none" height="38.9268" style="stroke:#000000;stroke-width:1.35;" width="187.2" x="830.7" y="667.9002"/><path d="M830.7,667.9002 L886.5,667.9002 L886.5,676.0002 L877.5,685.0002 L830.7,685.0002 L830.7,667.9002 " fill="#EEEEEE" style="stroke:#000000;stroke-width:1.8;"/><text fill="#000000" font-family="sans-serif" font-size="11.7" font-weight="bold" lengthAdjust="spacing" textLength="15.3" x="842.4" y="682.3257">ref</text><text fill="#000000" font-family="sans-serif" font-size="10.8" lengthAdjust="spacing" textLength="80.1" x="884.25" y="700.2545">get Client Name</text><polygon fill="#181818" points="449.1,728.6889,440.1,732.2889,449.1,735.8889,445.5,732.2889" style="stroke:#181818;stroke-width:0.9;"/><line style="stroke:#181818;stroke-width:0.9;stroke-dasharray:2.0,2.0;" x1="443.7" x2="923.4" y1="732.2889" y2="732.2889"/><text fill="#000000" font-family="sans-serif" font-size="11.7" font-weight="bold" lengthAdjust="spacing" textLength="12.6" x="454.5" y="727.5524">17</text><text fill="#000000" font-family="sans-serif" font-size="11.7" lengthAdjust="spacing" textLength="58.5" x="470.7" y="727.5524">clientName</text><polygon fill="#181818" points="909,756.8508,918,760.4508,909,764.0508,912.6,760.4508" style="stroke:#181818;stroke-width:0.9;"/><line style="stroke:#181818;stroke-width:0.9;" x1="439.2" x2="914.4" y1="760.4508" y2="760.4508"/><text fill="#000000" font-family="sans-serif" font-size="11.7" font-weight="bold" lengthAdjust="spacing" textLength="12.6" x="445.5" y="755.7144">18</text><text fill="#000000" font-family="sans-serif" font-size="11.7" lengthAdjust="spacing" textLength="128.7" x="461.7" y="755.7144">client.getPhoneNumber()</text><rect fill="none" height="38.9268" style="stroke:#000000;stroke-width:1.35;" width="187.2" x="830.7" y="767.6508"/><path d="M830.7,767.6508 L886.5,767.6508 L886.5,775.7508 L877.5,784.7508 L830.7,784.7508 L830.7,767.6508 " fill="#EEEEEE" style="stroke:#000000;stroke-width:1.8;"/><text fill="#000000" font-family="sans-serif" font-size="11.7" font-weight="bold" lengthAdjust="spacing" textLength="15.3" x="842.4" y="782.0763">ref</text><text fill="#000000" font-family="sans-serif" font-size="10.8" lengthAdjust="spacing" textLength="125.1" x="861.75" y="800.0051">get Client Phone Number</text><polygon fill="#181818" points="449.1,828.4395,440.1,832.0395,449.1,835.6395,445.5,832.0395" style="stroke:#181818;stroke-width:0.9;"/><line style="stroke:#181818;stroke-width:0.9;stroke-dasharray:2.0,2.0;" x1="443.7" x2="923.4" y1="832.0395" y2="832.0395"/><text fill="#000000" font-family="sans-serif" font-size="11.7" font-weight="bold" lengthAdjust="spacing" textLength="12.6" x="454.5" y="827.303">19</text><text fill="#000000" font-family="sans-serif" font-size="11.7" lengthAdjust="spacing" textLength="101.7" x="470.7" y="827.303">clientPhoneNumber</text><polygon fill="#181818" points="58.5,856.6014,49.5,860.2014,58.5,863.8014,54.9,860.2014" style="stroke:#181818;stroke-width:0.9;"/><line style="stroke:#181818;stroke-width:0.9;stroke-dasharray:2.0,2.0;" x1="53.1" x2="433.8" y1="860.2014" y2="860.2014"/><text fill="#000000" font-family="sans-serif" font-size="11.7" font-weight="bold" lengthAdjust="spacing" textLength="12.6" x="63.9" y="855.4649">20</text><text fill="#000000" font-family="sans-serif" font-size="11.7" lengthAdjust="spacing" textLength="183.6" x="80.1" y="855.4649">asks to confirmation to submit data</text><polygon fill="#181818" points="419.4,884.7633,428.4,888.3633,419.4,891.9633,423,888.3633" style="stroke:#181818;stroke-width:0.9;"/><line style="stroke:#181818;stroke-width:0.9;" x1="48.6" x2="424.8" y1="888.3633" y2="888.3633"/><text fill="#000000" font-family="sans-serif" font-size="11.7" font-weight="bold" lengthAdjust="spacing" textLength="12.6" x="54.9" y="883.6269">21</text><text fill="#000000" font-family="sans-serif" font-size="11.7" lengthAdjust="spacing" textLength="141.3" x="71.1" y="883.6269">confirmation to submit data</text><polygon fill="#181818" points="909,912.9252,918,916.5252,909,920.1252,912.6,916.5252" style="stroke:#181818;stroke-width:0.9;"/><line style="stroke:#181818;stroke-width:0.9;" x1="439.2" x2="914.4" y1="916.5252" y2="916.5252"/><text fill="#000000" font-family="sans-serif" font-size="11.7" font-weight="bold" lengthAdjust="spacing" textLength="12.6" x="445.5" y="911.7888">22</text><text fill="#000000" font-family="sans-serif" font-size="11.7" lengthAdjust="spacing" textLength="447.3" x="461.7" y="911.7888">creatVisitRequest (property, preferredDate, timeSlot, clientName, clientPhoneNumber)</text><rect fill="none" height="38.9268" style="stroke:#000000;stroke-width:1.35;" width="187.2" x="830.7" y="923.7252"/><path d="M830.7,923.7252 L886.5,923.7252 L886.5,931.8252 L877.5,940.8252 L830.7,940.8252 L830.7,923.7252 " fill="#EEEEEE" style="stroke:#000000;stroke-width:1.8;"/><text fill="#000000" font-family="sans-serif" font-size="11.7" font-weight="bold" lengthAdjust="spacing" textLength="15.3" x="842.4" y="938.1507">ref</text><text fill="#000000" font-family="sans-serif" font-size="10.8" lengthAdjust="spacing" textLength="99" x="874.8" y="956.0795">create Visit Request</text><polygon fill="#181818" points="449.1,984.5139,440.1,988.1139,449.1,991.7139,445.5,988.1139" style="stroke:#181818;stroke-width:0.9;"/><line style="stroke:#181818;stroke-width:0.9;stroke-dasharray:2.0,2.0;" x1="443.7" x2="923.4" y1="988.1139" y2="988.1139"/><text fill="#000000" font-family="sans-serif" font-size="11.7" font-weight="bold" lengthAdjust="spacing" textLength="12.6" x="454.5" y="983.3774">23</text><text fill="#000000" font-family="sans-serif" font-size="11.7" lengthAdjust="spacing" textLength="70.2" x="470.7" y="983.3774">wasAccepted</text><polygon fill="#181818" points="58.5,1012.6758,49.5,1016.2758,58.5,1019.8758,54.9,1016.2758" style="stroke:#181818;stroke-width:0.9;"/><line style="stroke:#181818;stroke-width:0.9;stroke-dasharray:2.0,2.0;" x1="53.1" x2="433.8" y1="1016.2758" y2="1016.2758"/><text fill="#000000" font-family="sans-serif" font-size="11.7" font-weight="bold" lengthAdjust="spacing" textLength="12.6" x="63.9" y="1011.5394">24</text><text fill="#000000" font-family="sans-serif" font-size="11.7" lengthAdjust="spacing" textLength="304.2" x="80.1" y="1011.5394">show success message and asks to add another time slot</text><path d="M9,1029.7758 L74.7,1029.7758 L74.7,1038.1377 L65.7,1047.1377 L9,1047.1377 L9,1029.7758 " fill="#EEEEEE" style="stroke:#000000;stroke-width:1.35;"/><rect fill="none" height="325.9459" style="stroke:#000000;stroke-width:1.35;" width="1015.2" x="9" y="1029.7758"/><text fill="#000000" font-family="sans-serif" font-size="11.7" font-weight="bold" lengthAdjust="spacing" textLength="25.2" x="22.5" y="1043.3013">loop</text><polygon fill="#181818" points="419.4,1064.4996,428.4,1068.0996,419.4,1071.6996,423,1068.0996" style="stroke:#181818;stroke-width:0.9;"/><line style="stroke:#181818;stroke-width:0.9;" x1="48.6" x2="424.8" y1="1068.0996" y2="1068.0996"/><text fill="#000000" font-family="sans-serif" font-size="11.7" font-weight="bold" lengthAdjust="spacing" textLength="12.6" x="54.9" y="1063.3632">25</text><text fill="#000000" font-family="sans-serif" font-size="11.7" lengthAdjust="spacing" textLength="206.1" x="71.1" y="1063.3632">confirmation to submit another time slot</text><polygon fill="#181818" points="58.5,1092.6615,49.5,1096.2615,58.5,1099.8615,54.9,1096.2615" style="stroke:#181818;stroke-width:0.9;"/><line style="stroke:#181818;stroke-width:0.9;stroke-dasharray:2.0,2.0;" x1="53.1" x2="433.8" y1="1096.2615" y2="1096.2615"/><text fill="#000000" font-family="sans-serif" font-size="11.7" font-weight="bold" lengthAdjust="spacing" textLength="12.6" x="63.9" y="1091.5251">26</text><text fill="#000000" font-family="sans-serif" font-size="11.7" lengthAdjust="spacing" textLength="87.3" x="80.1" y="1091.5251">request time slot</text><polygon fill="#181818" points="419.4,1120.8234,428.4,1124.4234,419.4,1128.0234,423,1124.4234" style="stroke:#181818;stroke-width:0.9;"/><line style="stroke:#181818;stroke-width:0.9;" x1="48.6" x2="424.8" y1="1124.4234" y2="1124.4234"/><text fill="#000000" font-family="sans-serif" font-size="11.7" font-weight="bold" lengthAdjust="spacing" textLength="12.6" x="54.9" y="1119.687">27</text><text fill="#000000" font-family="sans-serif" font-size="11.7" lengthAdjust="spacing" textLength="77.4" x="71.1" y="1119.687">insert time slot</text><line style="stroke:#181818;stroke-width:0.9;" x1="439.2" x2="477" y1="1152.5854" y2="1152.5854"/><line style="stroke:#181818;stroke-width:0.9;" x1="477" x2="477" y1="1152.5854" y2="1164.2854"/><line style="stroke:#181818;stroke-width:0.9;" x1="440.1" x2="477" y1="1164.2854" y2="1164.2854"/><polygon fill="#181818" points="449.1,1160.6854,440.1,1164.2854,449.1,1167.8854,445.5,1164.2854" style="stroke:#181818;stroke-width:0.9;"/><text fill="#000000" font-family="sans-serif" font-size="11.7" font-weight="bold" lengthAdjust="spacing" textLength="12.6" x="445.5" y="1147.8489">28</text><text fill="#000000" font-family="sans-serif" font-size="11.7" lengthAdjust="spacing" textLength="99.9" x="461.7" y="1147.8489">keepData(timeSlot)</text><polygon fill="#181818" points="58.5,1188.8473,49.5,1192.4473,58.5,1196.0473,54.9,1192.4473" style="stroke:#181818;stroke-width:0.9;"/><line style="stroke:#181818;stroke-width:0.9;stroke-dasharray:2.0,2.0;" x1="53.1" x2="433.8" y1="1192.4473" y2="1192.4473"/><text fill="#000000" font-family="sans-serif" font-size="11.7" font-weight="bold" lengthAdjust="spacing" textLength="12.6" x="63.9" y="1187.7108">29</text><text fill="#000000" font-family="sans-serif" font-size="11.7" lengthAdjust="spacing" textLength="183.6" x="80.1" y="1187.7108">asks to confirmation to submit data</text><polygon fill="#181818" points="419.4,1217.0092,428.4,1220.6092,419.4,1224.2092,423,1220.6092" style="stroke:#181818;stroke-width:0.9;"/><line style="stroke:#181818;stroke-width:0.9;" x1="48.6" x2="424.8" y1="1220.6092" y2="1220.6092"/><text fill="#000000" font-family="sans-serif" font-size="11.7" font-weight="bold" lengthAdjust="spacing" textLength="12.6" x="54.9" y="1215.8728">30</text><text fill="#000000" font-family="sans-serif" font-size="11.7" lengthAdjust="spacing" textLength="141.3" x="71.1" y="1215.8728">confirmation to submit data</text><polygon fill="#181818" points="909,1245.1711,918,1248.7711,909,1252.3711,912.6,1248.7711" style="stroke:#181818;stroke-width:0.9;"/><line style="stroke:#181818;stroke-width:0.9;" x1="439.2" x2="914.4" y1="1248.7711" y2="1248.7711"/><text fill="#000000" font-family="sans-serif" font-size="11.7" font-weight="bold" lengthAdjust="spacing" textLength="12.6" x="445.5" y="1244.0347">31</text><text fill="#000000" font-family="sans-serif" font-size="11.7" lengthAdjust="spacing" textLength="447.3" x="461.7" y="1244.0347">creatVisitRequest (property, preferredDate, timeSlot, clientName, clientPhoneNumber)</text><rect fill="none" height="38.9268" style="stroke:#000000;stroke-width:1.35;" width="187.2" x="830.7" y="1255.9711"/><path d="M830.7,1255.9711 L886.5,1255.9711 L886.5,1264.0711 L877.5,1273.0711 L830.7,1273.0711 L830.7,1255.9711 " fill="#EEEEEE" style="stroke:#000000;stroke-width:1.8;"/><text fill="#000000" font-family="sans-serif" font-size="11.7" font-weight="bold" lengthAdjust="spacing" textLength="15.3" x="842.4" y="1270.3966">ref</text><text fill="#000000" font-family="sans-serif" font-size="10.8" lengthAdjust="spacing" textLength="99" x="874.8" y="1288.3254">create Visit Request</text><polygon fill="#181818" points="449.1,1316.7598,440.1,1320.3598,449.1,1323.9598,445.5,1320.3598" style="stroke:#181818;stroke-width:0.9;"/><line style="stroke:#181818;stroke-width:0.9;stroke-dasharray:2.0,2.0;" x1="443.7" x2="923.4" y1="1320.3598" y2="1320.3598"/><text fill="#000000" font-family="sans-serif" font-size="11.7" font-weight="bold" lengthAdjust="spacing" textLength="12.6" x="454.5" y="1315.6233">32</text><text fill="#000000" font-family="sans-serif" font-size="11.7" lengthAdjust="spacing" textLength="70.2" x="470.7" y="1315.6233">wasAccepted</text><polygon fill="#181818" points="58.5,1344.9217,49.5,1348.5217,58.5,1352.1217,54.9,1348.5217" style="stroke:#181818;stroke-width:0.9;"/><line style="stroke:#181818;stroke-width:0.9;stroke-dasharray:2.0,2.0;" x1="53.1" x2="429.3" y1="1348.5217" y2="1348.5217"/><text fill="#000000" font-family="sans-serif" font-size="11.7" font-weight="bold" lengthAdjust="spacing" textLength="12.6" x="63.9" y="1343.7853">33</text><text fill="#000000" font-family="sans-serif" font-size="11.7" lengthAdjust="spacing" textLength="304.2" x="80.1" y="1343.7853">show success message and asks to add another time slot</text><path d="M9,1368.3217 L74.7,1368.3217 L74.7,1376.6836 L65.7,1385.6836 L9,1385.6836 L9,1368.3217 " fill="#EEEEEE" style="stroke:#000000;stroke-width:1.35;"/><rect fill="none" height="393.9697" style="stroke:#000000;stroke-width:1.35;" width="1015.2" x="9" y="1368.3217"/><text fill="#000000" font-family="sans-serif" font-size="11.7" font-weight="bold" lengthAdjust="spacing" textLength="25.2" x="22.5" y="1381.8472">loop</text><polygon fill="#181818" points="58.5,1403.0455,49.5,1406.6455,58.5,1410.2455,54.9,1406.6455" style="stroke:#181818;stroke-width:0.9;"/><line style="stroke:#181818;stroke-width:0.9;stroke-dasharray:2.0,2.0;" x1="53.1" x2="433.8" y1="1406.6455" y2="1406.6455"/><text fill="#000000" font-family="sans-serif" font-size="11.7" font-weight="bold" lengthAdjust="spacing" textLength="12.6" x="63.9" y="1401.9091">34</text><text fill="#000000" font-family="sans-serif" font-size="11.7" lengthAdjust="spacing" textLength="129.6" x="80.1" y="1401.9091">asks to add another date</text><polygon fill="#181818" points="419.4,1431.2074,428.4,1434.8074,419.4,1438.4074,423,1434.8074" style="stroke:#181818;stroke-width:0.9;"/><line style="stroke:#181818;stroke-width:0.9;" x1="48.6" x2="424.8" y1="1434.8074" y2="1434.8074"/><text fill="#000000" font-family="sans-serif" font-size="11.7" font-weight="bold" lengthAdjust="spacing" textLength="12.6" x="54.9" y="1430.071">35</text><text fill="#000000" font-family="sans-serif" font-size="11.7" lengthAdjust="spacing" textLength="183.6" x="71.1" y="1430.071">confirmation to submit another date</text><polygon fill="#181818" points="58.5,1459.3693,49.5,1462.9693,58.5,1466.5693,54.9,1462.9693" style="stroke:#181818;stroke-width:0.9;"/><line style="stroke:#181818;stroke-width:0.9;stroke-dasharray:2.0,2.0;" x1="53.1" x2="433.8" y1="1462.9693" y2="1462.9693"/><text fill="#000000" font-family="sans-serif" font-size="11.7" font-weight="bold" lengthAdjust="spacing" textLength="12.6" x="63.9" y="1458.2329">36</text><text fill="#000000" font-family="sans-serif" font-size="11.7" lengthAdjust="spacing" textLength="64.8" x="80.1" y="1458.2329">request date</text><polygon fill="#181818" points="419.4,1487.5313,428.4,1491.1313,419.4,1494.7313,423,1491.1313" style="stroke:#181818;stroke-width:0.9;"/><line style="stroke:#181818;stroke-width:0.9;" x1="48.6" x2="424.8" y1="1491.1313" y2="1491.1313"/><text fill="#000000" font-family="sans-serif" font-size="11.7" font-weight="bold" lengthAdjust="spacing" textLength="12.6" x="54.9" y="1486.3948">37</text><text fill="#000000" font-family="sans-serif" font-size="11.7" lengthAdjust="spacing" textLength="54.9" x="71.1" y="1486.3948">insert date</text><line style="stroke:#181818;stroke-width:0.9;stroke-dasharray:2.0,2.0;" x1="439.2" x2="477" y1="1519.2932" y2="1519.2932"/><line style="stroke:#181818;stroke-width:0.9;stroke-dasharray:2.0,2.0;" x1="477" x2="477" y1="1519.2932" y2="1530.9932"/><line style="stroke:#181818;stroke-width:0.9;stroke-dasharray:2.0,2.0;" x1="440.1" x2="477" y1="1530.9932" y2="1530.9932"/><polygon fill="#181818" points="449.1,1527.3932,440.1,1530.9932,449.1,1534.5932,445.5,1530.9932" style="stroke:#181818;stroke-width:0.9;"/><text fill="#000000" font-family="sans-serif" font-size="11.7" font-weight="bold" lengthAdjust="spacing" textLength="12.6" x="445.5" y="1514.5567">38</text><text fill="#000000" font-family="sans-serif" font-size="11.7" lengthAdjust="spacing" textLength="126" x="461.7" y="1514.5567">keepData(preferredDate)</text><line style="stroke:#181818;stroke-width:0.9;stroke-dasharray:2.0,2.0;" x1="439.2" x2="477" y1="1559.1551" y2="1559.1551"/><line style="stroke:#181818;stroke-width:0.9;stroke-dasharray:2.0,2.0;" x1="477" x2="477" y1="1559.1551" y2="1570.8551"/><line style="stroke:#181818;stroke-width:0.9;stroke-dasharray:2.0,2.0;" x1="440.1" x2="477" y1="1570.8551" y2="1570.8551"/><polygon fill="#181818" points="449.1,1567.2551,440.1,1570.8551,449.1,1574.4551,445.5,1570.8551" style="stroke:#181818;stroke-width:0.9;"/><text fill="#000000" font-family="sans-serif" font-size="11.7" font-weight="bold" lengthAdjust="spacing" textLength="12.6" x="445.5" y="1554.4187">39</text><text fill="#000000" font-family="sans-serif" font-size="11.7" lengthAdjust="spacing" textLength="70.2" x="461.7" y="1554.4187">validateDate()</text><polygon fill="#181818" points="58.5,1595.417,49.5,1599.017,58.5,1602.617,54.9,1599.017" style="stroke:#181818;stroke-width:0.9;"/><line style="stroke:#181818;stroke-width:0.9;stroke-dasharray:2.0,2.0;" x1="53.1" x2="433.8" y1="1599.017" y2="1599.017"/><text fill="#000000" font-family="sans-serif" font-size="11.7" font-weight="bold" lengthAdjust="spacing" textLength="12.6" x="63.9" y="1594.2806">40</text><text fill="#000000" font-family="sans-serif" font-size="11.7" lengthAdjust="spacing" textLength="183.6" x="80.1" y="1594.2806">asks to confirmation to submit data</text><polygon fill="#181818" points="419.4,1623.5789,428.4,1627.1789,419.4,1630.7789,423,1627.1789" style="stroke:#181818;stroke-width:0.9;"/><line style="stroke:#181818;stroke-width:0.9;" x1="48.6" x2="424.8" y1="1627.1789" y2="1627.1789"/><text fill="#000000" font-family="sans-serif" font-size="11.7" font-weight="bold" lengthAdjust="spacing" textLength="12.6" x="54.9" y="1622.4425">41</text><text fill="#000000" font-family="sans-serif" font-size="11.7" lengthAdjust="spacing" textLength="141.3" x="71.1" y="1622.4425">confirmation to submit data</text><polygon fill="#181818" points="909,1651.7408,918,1655.3408,909,1658.9408,912.6,1655.3408" style="stroke:#181818;stroke-width:0.9;"/><line style="stroke:#181818;stroke-width:0.9;" x1="439.2" x2="914.4" y1="1655.3408" y2="1655.3408"/><text fill="#000000" font-family="sans-serif" font-size="11.7" font-weight="bold" lengthAdjust="spacing" textLength="12.6" x="445.5" y="1650.6044">42</text><text fill="#000000" font-family="sans-serif" font-size="11.7" lengthAdjust="spacing" textLength="447.3" x="461.7" y="1650.6044">creatVisitRequest (property, preferredDate, timeSlot, clientName, clientPhoneNumber)</text><rect fill="none" height="38.9268" style="stroke:#000000;stroke-width:1.35;" width="187.2" x="830.7" y="1662.5408"/><path d="M830.7,1662.5408 L886.5,1662.5408 L886.5,1670.6408 L877.5,1679.6408 L830.7,1679.6408 L830.7,1662.5408 " fill="#EEEEEE" style="stroke:#000000;stroke-width:1.8;"/><text fill="#000000" font-family="sans-serif" font-size="11.7" font-weight="bold" lengthAdjust="spacing" textLength="15.3" x="842.4" y="1676.9663">ref</text><text fill="#000000" font-family="sans-serif" font-size="10.8" lengthAdjust="spacing" textLength="99" x="874.8" y="1694.8951">create Visit Request</text><polygon fill="#181818" points="449.1,1723.3295,440.1,1726.9295,449.1,1730.5295,445.5,1726.9295" style="stroke:#181818;stroke-width:0.9;"/><line style="stroke:#181818;stroke-width:0.9;stroke-dasharray:2.0,2.0;" x1="443.7" x2="923.4" y1="1726.9295" y2="1726.9295"/><text fill="#000000" font-family="sans-serif" font-size="11.7" font-weight="bold" lengthAdjust="spacing" textLength="12.6" x="454.5" y="1722.1931">43</text><text fill="#000000" font-family="sans-serif" font-size="11.7" lengthAdjust="spacing" textLength="70.2" x="470.7" y="1722.1931">wasAccepted</text><polygon fill="#181818" points="58.5,1751.4914,49.5,1755.0914,58.5,1758.6914,54.9,1755.0914" style="stroke:#181818;stroke-width:0.9;"/><line style="stroke:#181818;stroke-width:0.9;stroke-dasharray:2.0,2.0;" x1="53.1" x2="433.8" y1="1755.0914" y2="1755.0914"/><text fill="#000000" font-family="sans-serif" font-size="11.7" font-weight="bold" lengthAdjust="spacing" textLength="12.6" x="63.9" y="1750.355">44</text><text fill="#000000" font-family="sans-serif" font-size="11.7" lengthAdjust="spacing" textLength="343.8" x="80.1" y="1750.355">show success message and asks to add another date or time slot</text><!--SRC=[lLV1Rjim3BtpAuXUrXJfW1rsM0y3YknI80YATjrTjPb4Y6rvafokVp_AJbmxaMGRBUf3aKRYqwF8z-YOdInAeKMEkIfKijKg9xIw8Z3jIYcIdTZGettD23KbLXIRhBl1R4MgNcInmRN83060gAmggloPDC2NhKm9rqhPP_KFH6ALnej59gcm-7HtWSBWOha2Xh8oaQNWhozk5fg4fJ_IIFj0Voiozh3rwMvmvq8LLgii8zs0_tvOWZjNxdbZVHOWF_m1htyo8Dxmjfr1gx1KngB0lKFZL6kuPhTxMWmcqNx9yOpY3hcwOgHpEalPfGI-I8xRaBtNgYHjNrr0kwbtRfDARyqzcjQezgIRzTDL1ur7R3m3hnygKeS27l2Qt_NneieknzxUb4veTXTTgYvNll8RRXVrWXa3e5gZoB8Zg2I3WeaSYs4eusP3LH1u3kdMe5lAGvHegSRBzrQ8Edf7LFuILbmUesVzUhL979g3Jw4rQKqffWmD0QO-eh8mV40Gm1SU9dl0uFzeYB6LB76JAGjJhlN0rXCSKKMVfOjzv50FmLO3ZIzSphgT66d_SEUxfc_0mDleFNsrReNVllUN-jsVD83nleUGn9lehyni9NBY78SI36JtbXew8F2f6689zA9E-GzGlz-o7bVrPKKoW97MT99E3OuDkd_pMVswjViHpRh3763GjNhIQIqfKSLQwbnOgOhQeghdd2S5ArTCKbCCP-IqSIXkrdH73RQsDSUU9ypnABvvfmVcvpSp2-jkbEngIeGrAJomWi2a2LJhHPZR9A7IKWeHaKLcYwautXZC-G-_kFI6YaZvSw7ibjaFEc7RebfL9MPAbPFA6JadMDnFjMkVmYOwTyrrZ3m2v2VBO-mu_noDn7KonW875NCYc_1qyWbdyCtiO-G37PvHrOHxfujSlma5KZYjzWGTzb-ml2KyHOzACumNuHjHw_lvZNij30NkHIOT1xVzSZRY8aQDnG-veL6E4BgniCrzdaa4-VbDOuA1J3UJOME9_mWC6Ksane5Vhkyp8DUhgBppDTngdWi8JbQ0RWhB5Vm7]--></g></svg>