<?xml version="1.0" encoding="us-ascii" standalone="no"?><svg xmlns="http://www.w3.org/2000/svg" xmlns:xlink="http://www.w3.org/1999/xlink" contentStyleType="text/css" height="973px" preserveAspectRatio="none" style="width:1702px;height:973px;background:#FFFFFF;" version="1.1" viewBox="0 0 1702 973" width="1702px" zoomAndPan="magnify"><defs><filter height="300%" id="f16i6d2oka9lnz" width="300%" x="-1" y="-1"><feGaussianBlur result="blurOut" stdDeviation="2.0"/><feColorMatrix in="blurOut" result="blurOut2" type="matrix" values="0 0 0 0 0 0 0 0 0 0 0 0 0 0 0 0 0 0 .4 0"/><feOffset dx="4.0" dy="4.0" in="blurOut2" result="blurOut3"/><feBlend in="SourceGraphic" in2="blurOut3" mode="normal"/></filter></defs><g><!--class CreateVisitRequestUI--><g id="elem_CreateVisitRequestUI"><rect codeLine="12" fill="#F1F1F1" filter="url(#f16i6d2oka9lnz)" height="48" id="CreateVisitRequestUI" rx="2.5" ry="2.5" style="stroke:#181818;stroke-width:0.5;" width="166" x="34.5" y="66.5"/><ellipse cx="49.5" cy="82.5" fill="#ADD1B2" rx="11" ry="11" style="stroke:#181818;stroke-width:1.0;"/><path d="M52.2656,78.375 Q52.4219,78.1563 52.6094,78.0469 Q52.7969,77.9375 53.0156,77.9375 Q53.3906,77.9375 53.625,78.2031 Q53.8594,78.4531 53.8594,79.0625 L53.8594,80.5156 Q53.8594,81.125 53.625,81.3906 Q53.3906,81.6563 53.0156,81.6563 Q52.6719,81.6563 52.4688,81.4531 Q52.2656,81.2656 52.1563,80.75 Q52.1094,80.3906 51.9219,80.2031 Q51.5938,79.8281 50.9844,79.6094 Q50.375,79.3906 49.75,79.3906 Q48.9844,79.3906 48.3438,79.7188 Q47.7188,80.0469 47.2188,80.7969 Q46.7344,81.5469 46.7344,82.5781 L46.7344,83.6719 Q46.7344,84.9063 47.625,85.7344 Q48.5156,86.5469 50.1094,86.5469 Q51.0469,86.5469 51.7031,86.2969 Q52.0938,86.1406 52.5156,85.7031 Q52.7813,85.4375 52.9219,85.3594 Q53.0781,85.2813 53.2813,85.2813 Q53.6094,85.2813 53.8594,85.5469 Q54.125,85.7969 54.125,86.1406 Q54.125,86.4844 53.7813,86.8906 Q53.2813,87.4688 52.4844,87.7969 Q51.4063,88.25 50.1094,88.25 Q48.5938,88.25 47.3906,87.625 Q46.4063,87.125 45.7188,86.0625 Q45.0313,84.9844 45.0313,83.7031 L45.0313,82.5469 Q45.0313,81.2188 45.6406,80.0781 Q46.2656,78.9219 47.3594,78.3125 Q48.4531,77.6875 49.6875,77.6875 Q50.4219,77.6875 51.0625,77.8594 Q51.7188,78.0156 52.2656,78.375 Z " fill="#000000"/><text fill="#000000" font-family="sans-serif" font-size="14" lengthAdjust="spacing" textLength="134" x="63.5" y="87.3535">CreateVisitRequestUI</text><line style="stroke:#181818;stroke-width:0.5;" x1="35.5" x2="199.5" y1="98.5" y2="98.5"/><line style="stroke:#181818;stroke-width:0.5;" x1="35.5" x2="199.5" y1="106.5" y2="106.5"/></g><!--class CreateVisitRequestListController--><g id="elem_CreateVisitRequestListController"><rect codeLine="15" fill="#F1F1F1" filter="url(#f16i6d2oka9lnz)" height="157.4844" id="CreateVisitRequestListController" rx="2.5" ry="2.5" style="stroke:#181818;stroke-width:0.5;" width="273" x="219" y="12"/><ellipse cx="249.75" cy="28" fill="#ADD1B2" rx="11" ry="11" style="stroke:#181818;stroke-width:1.0;"/><path d="M252.5156,23.875 Q252.6719,23.6563 252.8594,23.5469 Q253.0469,23.4375 253.2656,23.4375 Q253.6406,23.4375 253.875,23.7031 Q254.1094,23.9531 254.1094,24.5625 L254.1094,26.0156 Q254.1094,26.625 253.875,26.8906 Q253.6406,27.1563 253.2656,27.1563 Q252.9219,27.1563 252.7188,26.9531 Q252.5156,26.7656 252.4063,26.25 Q252.3594,25.8906 252.1719,25.7031 Q251.8438,25.3281 251.2344,25.1094 Q250.625,24.8906 250,24.8906 Q249.2344,24.8906 248.5938,25.2188 Q247.9688,25.5469 247.4688,26.2969 Q246.9844,27.0469 246.9844,28.0781 L246.9844,29.1719 Q246.9844,30.4063 247.875,31.2344 Q248.7656,32.0469 250.3594,32.0469 Q251.2969,32.0469 251.9531,31.7969 Q252.3438,31.6406 252.7656,31.2031 Q253.0313,30.9375 253.1719,30.8594 Q253.3281,30.7813 253.5313,30.7813 Q253.8594,30.7813 254.1094,31.0469 Q254.375,31.2969 254.375,31.6406 Q254.375,31.9844 254.0313,32.3906 Q253.5313,32.9688 252.7344,33.2969 Q251.6563,33.75 250.3594,33.75 Q248.8438,33.75 247.6406,33.125 Q246.6563,32.625 245.9688,31.5625 Q245.2813,30.4844 245.2813,29.2031 L245.2813,28.0469 Q245.2813,26.7188 245.8906,25.5781 Q246.5156,24.4219 247.6094,23.8125 Q248.7031,23.1875 249.9375,23.1875 Q250.6719,23.1875 251.3125,23.3594 Q251.9688,23.5156 252.5156,23.875 Z " fill="#000000"/><text fill="#000000" font-family="sans-serif" font-size="14" lengthAdjust="spacing" textLength="206" x="267.25" y="32.8535">CreateVisitRequestListController</text><line style="stroke:#181818;stroke-width:0.5;" x1="220" x2="491" y1="44" y2="44"/><line style="stroke:#181818;stroke-width:0.5;" x1="220" x2="491" y1="52" y2="52"/><text fill="#000000" font-family="sans-serif" font-size="14" lengthAdjust="spacing" textLength="154" x="225" y="68.6738">-getClientFromSession()</text><text fill="#000000" font-family="sans-serif" font-size="14" lengthAdjust="spacing" textLength="225" x="225" y="84.3145">+getPropertyListByAnnouncement()</text><text fill="#000000" font-family="sans-serif" font-size="14" lengthAdjust="spacing" textLength="74" x="225" y="99.9551">+getClient()</text><text fill="#000000" font-family="sans-serif" font-size="14" lengthAdjust="spacing" textLength="111" x="225" y="115.5957">+client.getName()</text><text fill="#000000" font-family="sans-serif" font-size="14" lengthAdjust="spacing" textLength="165" x="225" y="131.2363">+client.getPhoneNumber()</text><text fill="#000000" font-family="sans-serif" font-size="14" lengthAdjust="spacing" textLength="253" x="225" y="146.877">+CreateVisitRequest (VisitRequestDTO)</text><text fill="#000000" font-family="sans-serif" font-size="14" lengthAdjust="spacing" textLength="261" x="225" y="162.5176">+ValidateVisitRequest (VisitRequestDTO)</text></g><!--class ClientRepository--><g id="elem_ClientRepository"><rect codeLine="25" fill="#F1F1F1" filter="url(#f16i6d2oka9lnz)" height="110.5625" id="ClientRepository" rx="2.5" ry="2.5" style="stroke:#181818;stroke-width:0.5;" width="176" x="151.5" y="415"/><ellipse cx="184.5" cy="431" fill="#ADD1B2" rx="11" ry="11" style="stroke:#181818;stroke-width:1.0;"/><path d="M187.2656,426.875 Q187.4219,426.6563 187.6094,426.5469 Q187.7969,426.4375 188.0156,426.4375 Q188.3906,426.4375 188.625,426.7031 Q188.8594,426.9531 188.8594,427.5625 L188.8594,429.0156 Q188.8594,429.625 188.625,429.8906 Q188.3906,430.1563 188.0156,430.1563 Q187.6719,430.1563 187.4688,429.9531 Q187.2656,429.7656 187.1563,429.25 Q187.1094,428.8906 186.9219,428.7031 Q186.5938,428.3281 185.9844,428.1094 Q185.375,427.8906 184.75,427.8906 Q183.9844,427.8906 183.3438,428.2188 Q182.7188,428.5469 182.2188,429.2969 Q181.7344,430.0469 181.7344,431.0781 L181.7344,432.1719 Q181.7344,433.4063 182.625,434.2344 Q183.5156,435.0469 185.1094,435.0469 Q186.0469,435.0469 186.7031,434.7969 Q187.0938,434.6406 187.5156,434.2031 Q187.7813,433.9375 187.9219,433.8594 Q188.0781,433.7813 188.2813,433.7813 Q188.6094,433.7813 188.8594,434.0469 Q189.125,434.2969 189.125,434.6406 Q189.125,434.9844 188.7813,435.3906 Q188.2813,435.9688 187.4844,436.2969 Q186.4063,436.75 185.1094,436.75 Q183.5938,436.75 182.3906,436.125 Q181.4063,435.625 180.7188,434.5625 Q180.0313,433.4844 180.0313,432.2031 L180.0313,431.0469 Q180.0313,429.7188 180.6406,428.5781 Q181.2656,427.4219 182.3594,426.8125 Q183.4531,426.1875 184.6875,426.1875 Q185.4219,426.1875 186.0625,426.3594 Q186.7188,426.5156 187.2656,426.875 Z " fill="#000000"/><text fill="#000000" font-family="sans-serif" font-size="14" lengthAdjust="spacing" textLength="104" x="202.5" y="435.8535">ClientRepository</text><line style="stroke:#181818;stroke-width:0.5;" x1="152.5" x2="326.5" y1="447" y2="447"/><text fill="#000000" font-family="sans-serif" font-size="14" lengthAdjust="spacing" textLength="157" x="157.5" y="463.6738">-ArrayList&lt;Client&gt; clients</text><line style="stroke:#181818;stroke-width:0.5;" x1="152.5" x2="326.5" y1="470.6406" y2="470.6406"/><text fill="#000000" font-family="sans-serif" font-size="14" lengthAdjust="spacing" textLength="110" x="157.5" y="487.3145">+getClientName()</text><text fill="#000000" font-family="sans-serif" font-size="14" lengthAdjust="spacing" textLength="164" x="157.5" y="502.9551">+getClientPhoneNumber()</text><text fill="#000000" font-family="sans-serif" font-size="14" lengthAdjust="spacing" textLength="157" x="157.5" y="518.5957">+getClientByEmail(email)</text></g><!--class Person--><g id="elem_Person"><rect codeLine="32" fill="#F1F1F1" filter="url(#f16i6d2oka9lnz)" height="141.8438" id="Person" rx="2.5" ry="2.5" style="stroke:#181818;stroke-width:0.5;" width="169" x="23" y="796.5"/><ellipse cx="80.75" cy="812.5" fill="#ADD1B2" rx="11" ry="11" style="stroke:#181818;stroke-width:1.0;"/><path d="M83.5156,808.375 Q83.6719,808.1563 83.8594,808.0469 Q84.0469,807.9375 84.2656,807.9375 Q84.6406,807.9375 84.875,808.2031 Q85.1094,808.4531 85.1094,809.0625 L85.1094,810.5156 Q85.1094,811.125 84.875,811.3906 Q84.6406,811.6563 84.2656,811.6563 Q83.9219,811.6563 83.7188,811.4531 Q83.5156,811.2656 83.4063,810.75 Q83.3594,810.3906 83.1719,810.2031 Q82.8438,809.8281 82.2344,809.6094 Q81.625,809.3906 81,809.3906 Q80.2344,809.3906 79.5938,809.7188 Q78.9688,810.0469 78.4688,810.7969 Q77.9844,811.5469 77.9844,812.5781 L77.9844,813.6719 Q77.9844,814.9063 78.875,815.7344 Q79.7656,816.5469 81.3594,816.5469 Q82.2969,816.5469 82.9531,816.2969 Q83.3438,816.1406 83.7656,815.7031 Q84.0313,815.4375 84.1719,815.3594 Q84.3281,815.2813 84.5313,815.2813 Q84.8594,815.2813 85.1094,815.5469 Q85.375,815.7969 85.375,816.1406 Q85.375,816.4844 85.0313,816.8906 Q84.5313,817.4688 83.7344,817.7969 Q82.6563,818.25 81.3594,818.25 Q79.8438,818.25 78.6406,817.625 Q77.6563,817.125 76.9688,816.0625 Q76.2813,814.9844 76.2813,813.7031 L76.2813,812.5469 Q76.2813,811.2188 76.8906,810.0781 Q77.5156,808.9219 78.6094,808.3125 Q79.7031,807.6875 80.9375,807.6875 Q81.6719,807.6875 82.3125,807.8594 Q82.9688,808.0156 83.5156,808.375 Z " fill="#000000"/><text fill="#000000" font-family="sans-serif" font-size="14" lengthAdjust="spacing" textLength="45" x="101.25" y="817.3535">Person</text><line style="stroke:#181818;stroke-width:0.5;" x1="24" x2="191" y1="828.5" y2="828.5"/><text fill="#000000" font-family="sans-serif" font-size="14" lengthAdjust="spacing" textLength="79" x="29" y="845.1738">-String email</text><text fill="#000000" font-family="sans-serif" font-size="14" lengthAdjust="spacing" textLength="81" x="29" y="860.8145">-String name</text><text fill="#000000" font-family="sans-serif" font-size="14" lengthAdjust="spacing" textLength="157" x="29" y="876.4551">-Integer passportNumber</text><text fill="#000000" font-family="sans-serif" font-size="14" lengthAdjust="spacing" textLength="125" x="29" y="892.0957">-long phoneNumber</text><text fill="#000000" font-family="sans-serif" font-size="14" lengthAdjust="spacing" textLength="113" x="29" y="907.7363">-String taxNumber</text><text fill="#000000" font-family="sans-serif" font-size="14" lengthAdjust="spacing" textLength="112" x="29" y="923.377">-Address address</text><line style="stroke:#181818;stroke-width:0.5;" x1="24" x2="191" y1="930.3438" y2="930.3438"/></g><!--class Client--><g id="elem_Client"><rect codeLine="41" fill="#F1F1F1" filter="url(#f16i6d2oka9lnz)" height="63.6406" id="Client" rx="2.5" ry="2.5" style="stroke:#181818;stroke-width:0.5;" width="110" x="52.5" y="617.5"/><ellipse cx="86.4" cy="633.5" fill="#ADD1B2" rx="11" ry="11" style="stroke:#181818;stroke-width:1.0;"/><path d="M89.1656,629.375 Q89.3219,629.1563 89.5094,629.0469 Q89.6969,628.9375 89.9156,628.9375 Q90.2906,628.9375 90.525,629.2031 Q90.7594,629.4531 90.7594,630.0625 L90.7594,631.5156 Q90.7594,632.125 90.525,632.3906 Q90.2906,632.6563 89.9156,632.6563 Q89.5719,632.6563 89.3688,632.4531 Q89.1656,632.2656 89.0563,631.75 Q89.0094,631.3906 88.8219,631.2031 Q88.4938,630.8281 87.8844,630.6094 Q87.275,630.3906 86.65,630.3906 Q85.8844,630.3906 85.2438,630.7188 Q84.6188,631.0469 84.1188,631.7969 Q83.6344,632.5469 83.6344,633.5781 L83.6344,634.6719 Q83.6344,635.9063 84.525,636.7344 Q85.4156,637.5469 87.0094,637.5469 Q87.9469,637.5469 88.6031,637.2969 Q88.9938,637.1406 89.4156,636.7031 Q89.6813,636.4375 89.8219,636.3594 Q89.9781,636.2813 90.1813,636.2813 Q90.5094,636.2813 90.7594,636.5469 Q91.025,636.7969 91.025,637.1406 Q91.025,637.4844 90.6813,637.8906 Q90.1813,638.4688 89.3844,638.7969 Q88.3063,639.25 87.0094,639.25 Q85.4938,639.25 84.2906,638.625 Q83.3063,638.125 82.6188,637.0625 Q81.9313,635.9844 81.9313,634.7031 L81.9313,633.5469 Q81.9313,632.2188 82.5406,631.0781 Q83.1656,629.9219 84.2594,629.3125 Q85.3531,628.6875 86.5875,628.6875 Q87.3219,628.6875 87.9625,628.8594 Q88.6188,629.0156 89.1656,629.375 Z " fill="#000000"/><text fill="#000000" font-family="sans-serif" font-size="14" lengthAdjust="spacing" textLength="36" x="104.6" y="638.3535">Client</text><line style="stroke:#181818;stroke-width:0.5;" x1="53.5" x2="161.5" y1="649.5" y2="649.5"/><text fill="#000000" font-family="sans-serif" font-size="14" lengthAdjust="spacing" textLength="98" x="58.5" y="666.1738">-Person person</text><line style="stroke:#181818;stroke-width:0.5;" x1="53.5" x2="161.5" y1="673.1406" y2="673.1406"/></g><!--class ApplicationSession--><g id="elem_ApplicationSession"><rect codeLine="45" fill="#F1F1F1" filter="url(#f16i6d2oka9lnz)" height="79.2813" id="ApplicationSession" rx="2.5" ry="2.5" style="stroke:#181818;stroke-width:0.5;" width="151" x="6" y="252.5"/><ellipse cx="21" cy="268.5" fill="#ADD1B2" rx="11" ry="11" style="stroke:#181818;stroke-width:1.0;"/><path d="M23.7656,264.375 Q23.9219,264.1563 24.1094,264.0469 Q24.2969,263.9375 24.5156,263.9375 Q24.8906,263.9375 25.125,264.2031 Q25.3594,264.4531 25.3594,265.0625 L25.3594,266.5156 Q25.3594,267.125 25.125,267.3906 Q24.8906,267.6563 24.5156,267.6563 Q24.1719,267.6563 23.9688,267.4531 Q23.7656,267.2656 23.6563,266.75 Q23.6094,266.3906 23.4219,266.2031 Q23.0938,265.8281 22.4844,265.6094 Q21.875,265.3906 21.25,265.3906 Q20.4844,265.3906 19.8438,265.7188 Q19.2188,266.0469 18.7188,266.7969 Q18.2344,267.5469 18.2344,268.5781 L18.2344,269.6719 Q18.2344,270.9063 19.125,271.7344 Q20.0156,272.5469 21.6094,272.5469 Q22.5469,272.5469 23.2031,272.2969 Q23.5938,272.1406 24.0156,271.7031 Q24.2813,271.4375 24.4219,271.3594 Q24.5781,271.2813 24.7813,271.2813 Q25.1094,271.2813 25.3594,271.5469 Q25.625,271.7969 25.625,272.1406 Q25.625,272.4844 25.2813,272.8906 Q24.7813,273.4688 23.9844,273.7969 Q22.9063,274.25 21.6094,274.25 Q20.0938,274.25 18.8906,273.625 Q17.9063,273.125 17.2188,272.0625 Q16.5313,270.9844 16.5313,269.7031 L16.5313,268.5469 Q16.5313,267.2188 17.1406,266.0781 Q17.7656,264.9219 18.8594,264.3125 Q19.9531,263.6875 21.1875,263.6875 Q21.9219,263.6875 22.5625,263.8594 Q23.2188,264.0156 23.7656,264.375 Z " fill="#000000"/><text fill="#000000" font-family="sans-serif" font-size="14" lengthAdjust="spacing" textLength="119" x="35" y="273.3535">ApplicationSession</text><line style="stroke:#181818;stroke-width:0.5;" x1="7" x2="156" y1="284.5" y2="284.5"/><line style="stroke:#181818;stroke-width:0.5;" x1="7" x2="156" y1="292.5" y2="292.5"/><text fill="#000000" font-family="sans-serif" font-size="14" lengthAdjust="spacing" textLength="128" x="12" y="309.1738">+static getInstance()</text><text fill="#000000" font-family="sans-serif" font-size="14" lengthAdjust="spacing" textLength="136" x="12" y="324.8145">+getCurrentSession()</text></g><!--class UserSession--><g id="elem_UserSession"><rect codeLine="51" fill="#F1F1F1" filter="url(#f16i6d2oka9lnz)" height="63.6406" id="UserSession" rx="2.5" ry="2.5" style="stroke:#181818;stroke-width:0.5;" width="113" x="20" y="438.5"/><ellipse cx="35.9" cy="454.5" fill="#ADD1B2" rx="11" ry="11" style="stroke:#181818;stroke-width:1.0;"/><path d="M38.6656,450.375 Q38.8219,450.1563 39.0094,450.0469 Q39.1969,449.9375 39.4156,449.9375 Q39.7906,449.9375 40.025,450.2031 Q40.2594,450.4531 40.2594,451.0625 L40.2594,452.5156 Q40.2594,453.125 40.025,453.3906 Q39.7906,453.6563 39.4156,453.6563 Q39.0719,453.6563 38.8688,453.4531 Q38.6656,453.2656 38.5563,452.75 Q38.5094,452.3906 38.3219,452.2031 Q37.9938,451.8281 37.3844,451.6094 Q36.775,451.3906 36.15,451.3906 Q35.3844,451.3906 34.7438,451.7188 Q34.1188,452.0469 33.6188,452.7969 Q33.1344,453.5469 33.1344,454.5781 L33.1344,455.6719 Q33.1344,456.9063 34.025,457.7344 Q34.9156,458.5469 36.5094,458.5469 Q37.4469,458.5469 38.1031,458.2969 Q38.4938,458.1406 38.9156,457.7031 Q39.1813,457.4375 39.3219,457.3594 Q39.4781,457.2813 39.6813,457.2813 Q40.0094,457.2813 40.2594,457.5469 Q40.525,457.7969 40.525,458.1406 Q40.525,458.4844 40.1813,458.8906 Q39.6813,459.4688 38.8844,459.7969 Q37.8063,460.25 36.5094,460.25 Q34.9938,460.25 33.7906,459.625 Q32.8063,459.125 32.1188,458.0625 Q31.4313,456.9844 31.4313,455.7031 L31.4313,454.5469 Q31.4313,453.2188 32.0406,452.0781 Q32.6656,450.9219 33.7594,450.3125 Q34.8531,449.6875 36.0875,449.6875 Q36.8219,449.6875 37.4625,449.8594 Q38.1188,450.0156 38.6656,450.375 Z " fill="#000000"/><text fill="#000000" font-family="sans-serif" font-size="14" lengthAdjust="spacing" textLength="79" x="50.1" y="459.3535">UserSession</text><line style="stroke:#181818;stroke-width:0.5;" x1="21" x2="132" y1="470.5" y2="470.5"/><line style="stroke:#181818;stroke-width:0.5;" x1="21" x2="132" y1="478.5" y2="478.5"/><text fill="#000000" font-family="sans-serif" font-size="14" lengthAdjust="spacing" textLength="101" x="26" y="495.1738">+getUserEmail()</text></g><!--class Repositories--><g id="elem_Repositories"><rect codeLine="56" fill="#F1F1F1" filter="url(#f16i6d2oka9lnz)" height="141.8438" id="Repositories" rx="2.5" ry="2.5" style="stroke:#181818;stroke-width:0.5;" width="213" x="249" y="221"/><ellipse cx="311.75" cy="237" fill="#ADD1B2" rx="11" ry="11" style="stroke:#181818;stroke-width:1.0;"/><path d="M314.5156,232.875 Q314.6719,232.6563 314.8594,232.5469 Q315.0469,232.4375 315.2656,232.4375 Q315.6406,232.4375 315.875,232.7031 Q316.1094,232.9531 316.1094,233.5625 L316.1094,235.0156 Q316.1094,235.625 315.875,235.8906 Q315.6406,236.1563 315.2656,236.1563 Q314.9219,236.1563 314.7188,235.9531 Q314.5156,235.7656 314.4063,235.25 Q314.3594,234.8906 314.1719,234.7031 Q313.8438,234.3281 313.2344,234.1094 Q312.625,233.8906 312,233.8906 Q311.2344,233.8906 310.5938,234.2188 Q309.9688,234.5469 309.4688,235.2969 Q308.9844,236.0469 308.9844,237.0781 L308.9844,238.1719 Q308.9844,239.4063 309.875,240.2344 Q310.7656,241.0469 312.3594,241.0469 Q313.2969,241.0469 313.9531,240.7969 Q314.3438,240.6406 314.7656,240.2031 Q315.0313,239.9375 315.1719,239.8594 Q315.3281,239.7813 315.5313,239.7813 Q315.8594,239.7813 316.1094,240.0469 Q316.375,240.2969 316.375,240.6406 Q316.375,240.9844 316.0313,241.3906 Q315.5313,241.9688 314.7344,242.2969 Q313.6563,242.75 312.3594,242.75 Q310.8438,242.75 309.6406,242.125 Q308.6563,241.625 307.9688,240.5625 Q307.2813,239.4844 307.2813,238.2031 L307.2813,237.0469 Q307.2813,235.7188 307.8906,234.5781 Q308.5156,233.4219 309.6094,232.8125 Q310.7031,232.1875 311.9375,232.1875 Q312.6719,232.1875 313.3125,232.3594 Q313.9688,232.5156 314.5156,232.875 Z " fill="#000000"/><text fill="#000000" font-family="sans-serif" font-size="14" lengthAdjust="spacing" textLength="79" x="332.25" y="241.8535">Repositories</text><line style="stroke:#181818;stroke-width:0.5;" x1="250" x2="461" y1="253" y2="253"/><line style="stroke:#181818;stroke-width:0.5;" x1="250" x2="461" y1="261" y2="261"/><text fill="#000000" font-family="sans-serif" font-size="14" lengthAdjust="spacing" textLength="94" x="255" y="277.6738">-Repositories()</text><text fill="#000000" font-family="sans-serif" font-size="14" lengthAdjust="spacing" textLength="182" x="255" y="293.3145">+getInstance() : Repositories</text><text fill="#000000" font-family="sans-serif" font-size="14" lengthAdjust="spacing" textLength="136" x="255" y="308.9551">+getCurrentSession()</text><text fill="#000000" font-family="sans-serif" font-size="14" lengthAdjust="spacing" textLength="142" x="255" y="324.5957">+getClientRepository()</text><text fill="#000000" font-family="sans-serif" font-size="14" lengthAdjust="spacing" textLength="201" x="255" y="340.2363">+getAnnouncementRepository()</text><text fill="#000000" font-family="sans-serif" font-size="14" lengthAdjust="spacing" textLength="185" x="255" y="355.877">+getVisitRequestRepository()</text></g><!--class AnnouncementRepository--><g id="elem_AnnouncementRepository"><rect codeLine="65" fill="#F1F1F1" filter="url(#f16i6d2oka9lnz)" height="110.5625" id="AnnouncementRepository" rx="2.5" ry="2.5" style="stroke:#181818;stroke-width:0.5;" width="349" x="181" y="594"/><ellipse cx="269.75" cy="610" fill="#ADD1B2" rx="11" ry="11" style="stroke:#181818;stroke-width:1.0;"/><path d="M272.5156,605.875 Q272.6719,605.6563 272.8594,605.5469 Q273.0469,605.4375 273.2656,605.4375 Q273.6406,605.4375 273.875,605.7031 Q274.1094,605.9531 274.1094,606.5625 L274.1094,608.0156 Q274.1094,608.625 273.875,608.8906 Q273.6406,609.1563 273.2656,609.1563 Q272.9219,609.1563 272.7188,608.9531 Q272.5156,608.7656 272.4063,608.25 Q272.3594,607.8906 272.1719,607.7031 Q271.8438,607.3281 271.2344,607.1094 Q270.625,606.8906 270,606.8906 Q269.2344,606.8906 268.5938,607.2188 Q267.9688,607.5469 267.4688,608.2969 Q266.9844,609.0469 266.9844,610.0781 L266.9844,611.1719 Q266.9844,612.4063 267.875,613.2344 Q268.7656,614.0469 270.3594,614.0469 Q271.2969,614.0469 271.9531,613.7969 Q272.3438,613.6406 272.7656,613.2031 Q273.0313,612.9375 273.1719,612.8594 Q273.3281,612.7813 273.5313,612.7813 Q273.8594,612.7813 274.1094,613.0469 Q274.375,613.2969 274.375,613.6406 Q274.375,613.9844 274.0313,614.3906 Q273.5313,614.9688 272.7344,615.2969 Q271.6563,615.75 270.3594,615.75 Q268.8438,615.75 267.6406,615.125 Q266.6563,614.625 265.9688,613.5625 Q265.2813,612.4844 265.2813,611.2031 L265.2813,610.0469 Q265.2813,608.7188 265.8906,607.5781 Q266.5156,606.4219 267.6094,605.8125 Q268.7031,605.1875 269.9375,605.1875 Q270.6719,605.1875 271.3125,605.3594 Q271.9688,605.5156 272.5156,605.875 Z " fill="#000000"/><text fill="#000000" font-family="sans-serif" font-size="14" lengthAdjust="spacing" textLength="163" x="290.25" y="614.8535">AnnouncementRepository</text><line style="stroke:#181818;stroke-width:0.5;" x1="182" x2="529" y1="626" y2="626"/><text fill="#000000" font-family="sans-serif" font-size="14" lengthAdjust="spacing" textLength="277" x="187" y="642.6738">-ArrayList&lt;Announcement&gt; announcements</text><text fill="#000000" font-family="sans-serif" font-size="14" lengthAdjust="spacing" textLength="332" x="187" y="658.3145">-ArrayList&lt;SaleAnnouncement&gt; saleAnnouncements</text><text fill="#000000" font-family="sans-serif" font-size="14" lengthAdjust="spacing" textLength="337" x="187" y="673.9551">-ArrayList &lt;RentAnnouncement&gt; rentAnnouncements</text><line style="stroke:#181818;stroke-width:0.5;" x1="182" x2="529" y1="680.9219" y2="680.9219"/><text fill="#000000" font-family="sans-serif" font-size="14" lengthAdjust="spacing" textLength="225" x="187" y="697.5957">+getPropertyListByAnnouncement()</text></g><!--class VisitRequestRepository--><g id="elem_VisitRequestRepository"><rect codeLine="72" fill="#F1F1F1" filter="url(#f16i6d2oka9lnz)" height="94.9219" id="VisitRequestRepository" rx="2.5" ry="2.5" style="stroke:#181818;stroke-width:0.5;" width="271" x="384" y="423"/><ellipse cx="441.75" cy="439" fill="#ADD1B2" rx="11" ry="11" style="stroke:#181818;stroke-width:1.0;"/><path d="M444.5156,434.875 Q444.6719,434.6563 444.8594,434.5469 Q445.0469,434.4375 445.2656,434.4375 Q445.6406,434.4375 445.875,434.7031 Q446.1094,434.9531 446.1094,435.5625 L446.1094,437.0156 Q446.1094,437.625 445.875,437.8906 Q445.6406,438.1563 445.2656,438.1563 Q444.9219,438.1563 444.7188,437.9531 Q444.5156,437.7656 444.4063,437.25 Q444.3594,436.8906 444.1719,436.7031 Q443.8438,436.3281 443.2344,436.1094 Q442.625,435.8906 442,435.8906 Q441.2344,435.8906 440.5938,436.2188 Q439.9688,436.5469 439.4688,437.2969 Q438.9844,438.0469 438.9844,439.0781 L438.9844,440.1719 Q438.9844,441.4063 439.875,442.2344 Q440.7656,443.0469 442.3594,443.0469 Q443.2969,443.0469 443.9531,442.7969 Q444.3438,442.6406 444.7656,442.2031 Q445.0313,441.9375 445.1719,441.8594 Q445.3281,441.7813 445.5313,441.7813 Q445.8594,441.7813 446.1094,442.0469 Q446.375,442.2969 446.375,442.6406 Q446.375,442.9844 446.0313,443.3906 Q445.5313,443.9688 444.7344,444.2969 Q443.6563,444.75 442.3594,444.75 Q440.8438,444.75 439.6406,444.125 Q438.6563,443.625 437.9688,442.5625 Q437.2813,441.4844 437.2813,440.2031 L437.2813,439.0469 Q437.2813,437.7188 437.8906,436.5781 Q438.5156,435.4219 439.6094,434.8125 Q440.7031,434.1875 441.9375,434.1875 Q442.6719,434.1875 443.3125,434.3594 Q443.9688,434.5156 444.5156,434.875 Z " fill="#000000"/><text fill="#000000" font-family="sans-serif" font-size="14" lengthAdjust="spacing" textLength="147" x="462.25" y="443.8535">VisitRequestRepository</text><line style="stroke:#181818;stroke-width:0.5;" x1="385" x2="654" y1="455" y2="455"/><text fill="#000000" font-family="sans-serif" font-size="14" lengthAdjust="spacing" textLength="241" x="390" y="471.6738">-ArrayList &lt;VisitRequest&gt; visitRequest</text><line style="stroke:#181818;stroke-width:0.5;" x1="385" x2="654" y1="478.6406" y2="478.6406"/><text fill="#000000" font-family="sans-serif" font-size="14" lengthAdjust="spacing" textLength="253" x="390" y="495.3145">+CreateVisitRequest (VisitRequestDTO)</text><text fill="#000000" font-family="sans-serif" font-size="14" lengthAdjust="spacing" textLength="259" x="390" y="510.9551">+validateVisitRequest (VisitRequestDTO)</text></g><!--class VisitRequest--><g id="elem_VisitRequest"><rect codeLine="78" fill="#F1F1F1" filter="url(#f16i6d2oka9lnz)" height="173.125" id="VisitRequest" rx="2.5" ry="2.5" style="stroke:#181818;stroke-width:0.5;" width="188" x="569.5" y="781"/><ellipse cx="619.75" cy="797" fill="#ADD1B2" rx="11" ry="11" style="stroke:#181818;stroke-width:1.0;"/><path d="M622.5156,792.875 Q622.6719,792.6563 622.8594,792.5469 Q623.0469,792.4375 623.2656,792.4375 Q623.6406,792.4375 623.875,792.7031 Q624.1094,792.9531 624.1094,793.5625 L624.1094,795.0156 Q624.1094,795.625 623.875,795.8906 Q623.6406,796.1563 623.2656,796.1563 Q622.9219,796.1563 622.7188,795.9531 Q622.5156,795.7656 622.4063,795.25 Q622.3594,794.8906 622.1719,794.7031 Q621.8438,794.3281 621.2344,794.1094 Q620.625,793.8906 620,793.8906 Q619.2344,793.8906 618.5938,794.2188 Q617.9688,794.5469 617.4688,795.2969 Q616.9844,796.0469 616.9844,797.0781 L616.9844,798.1719 Q616.9844,799.4063 617.875,800.2344 Q618.7656,801.0469 620.3594,801.0469 Q621.2969,801.0469 621.9531,800.7969 Q622.3438,800.6406 622.7656,800.2031 Q623.0313,799.9375 623.1719,799.8594 Q623.3281,799.7813 623.5313,799.7813 Q623.8594,799.7813 624.1094,800.0469 Q624.375,800.2969 624.375,800.6406 Q624.375,800.9844 624.0313,801.3906 Q623.5313,801.9688 622.7344,802.2969 Q621.6563,802.75 620.3594,802.75 Q618.8438,802.75 617.6406,802.125 Q616.6563,801.625 615.9688,800.5625 Q615.2813,799.4844 615.2813,798.2031 L615.2813,797.0469 Q615.2813,795.7188 615.8906,794.5781 Q616.5156,793.4219 617.6094,792.8125 Q618.7031,792.1875 619.9375,792.1875 Q620.6719,792.1875 621.3125,792.3594 Q621.9688,792.5156 622.5156,792.875 Z " fill="#000000"/><text fill="#000000" font-family="sans-serif" font-size="14" lengthAdjust="spacing" textLength="79" x="640.25" y="801.8535">VisitRequest</text><line style="stroke:#181818;stroke-width:0.5;" x1="570.5" x2="756.5" y1="813" y2="813"/><text fill="#000000" font-family="sans-serif" font-size="14" lengthAdjust="spacing" textLength="116" x="575.5" y="829.6738">-Property property</text><text fill="#000000" font-family="sans-serif" font-size="14" lengthAdjust="spacing" textLength="135" x="575.5" y="845.3145">-String preferredDate</text><text fill="#000000" font-family="sans-serif" font-size="14" lengthAdjust="spacing" textLength="96" x="575.5" y="860.9551">-String timeSlot</text><text fill="#000000" font-family="sans-serif" font-size="14" lengthAdjust="spacing" textLength="115" x="575.5" y="876.5957">-String clientName</text><text fill="#000000" font-family="sans-serif" font-size="14" lengthAdjust="spacing" textLength="176" x="575.5" y="892.2363">-Integer clientPhoneNumber</text><text fill="#000000" font-family="sans-serif" font-size="14" lengthAdjust="spacing" textLength="115" x="575.5" y="907.877">-String clientReply</text><text fill="#000000" font-family="sans-serif" font-size="14" lengthAdjust="spacing" textLength="82" x="575.5" y="923.5176">-Agent agent</text><text fill="#000000" font-family="sans-serif" font-size="14" lengthAdjust="spacing" textLength="136" x="575.5" y="939.1582">-Integer wasAccepted</text><line style="stroke:#181818;stroke-width:0.5;" x1="570.5" x2="756.5" y1="946.125" y2="946.125"/></g><!--class VisitRequestMapper--><g id="elem_VisitRequestMapper"><rect codeLine="89" fill="#F1F1F1" filter="url(#f16i6d2oka9lnz)" height="79.2813" id="VisitRequestMapper" rx="2.5" ry="2.5" style="stroke:#181818;stroke-width:0.5;" width="190" x="568.5" y="610"/><ellipse cx="597.45" cy="626" fill="#ADD1B2" rx="11" ry="11" style="stroke:#181818;stroke-width:1.0;"/><path d="M600.2156,621.875 Q600.3719,621.6563 600.5594,621.5469 Q600.7469,621.4375 600.9656,621.4375 Q601.3406,621.4375 601.575,621.7031 Q601.8094,621.9531 601.8094,622.5625 L601.8094,624.0156 Q601.8094,624.625 601.575,624.8906 Q601.3406,625.1563 600.9656,625.1563 Q600.6219,625.1563 600.4188,624.9531 Q600.2156,624.7656 600.1063,624.25 Q600.0594,623.8906 599.8719,623.7031 Q599.5438,623.3281 598.9344,623.1094 Q598.325,622.8906 597.7,622.8906 Q596.9344,622.8906 596.2938,623.2188 Q595.6688,623.5469 595.1688,624.2969 Q594.6844,625.0469 594.6844,626.0781 L594.6844,627.1719 Q594.6844,628.4063 595.575,629.2344 Q596.4656,630.0469 598.0594,630.0469 Q598.9969,630.0469 599.6531,629.7969 Q600.0438,629.6406 600.4656,629.2031 Q600.7313,628.9375 600.8719,628.8594 Q601.0281,628.7813 601.2313,628.7813 Q601.5594,628.7813 601.8094,629.0469 Q602.075,629.2969 602.075,629.6406 Q602.075,629.9844 601.7313,630.3906 Q601.2313,630.9688 600.4344,631.2969 Q599.3563,631.75 598.0594,631.75 Q596.5438,631.75 595.3406,631.125 Q594.3563,630.625 593.6688,629.5625 Q592.9813,628.4844 592.9813,627.2031 L592.9813,626.0469 Q592.9813,624.7188 593.5906,623.5781 Q594.2156,622.4219 595.3094,621.8125 Q596.4031,621.1875 597.6375,621.1875 Q598.3719,621.1875 599.0125,621.3594 Q599.6688,621.5156 600.2156,621.875 Z " fill="#000000"/><text fill="#000000" font-family="sans-serif" font-size="14" lengthAdjust="spacing" textLength="127" x="614.55" y="630.8535">VisitRequestMapper</text><line style="stroke:#181818;stroke-width:0.5;" x1="569.5" x2="757.5" y1="642" y2="642"/><line style="stroke:#181818;stroke-width:0.5;" x1="569.5" x2="757.5" y1="650" y2="650"/><text fill="#000000" font-family="sans-serif" font-size="14" lengthAdjust="spacing" textLength="178" x="574.5" y="666.6738">+toEntity (VisitRequestDTO)</text><text fill="#000000" font-family="sans-serif" font-size="14" lengthAdjust="spacing" textLength="143" x="574.5" y="682.3145">+toDTO (VisitRequest)</text></g><!--class VisitRequestDTO--><g id="elem_VisitRequestDTO"><rect codeLine="94" fill="#F1F1F1" filter="url(#f16i6d2oka9lnz)" height="173.125" id="VisitRequestDTO" rx="2.5" ry="2.5" style="stroke:#181818;stroke-width:0.5;" width="913" x="777" y="563"/><ellipse cx="1174.75" cy="579" fill="#ADD1B2" rx="11" ry="11" style="stroke:#181818;stroke-width:1.0;"/><path d="M1177.5156,574.875 Q1177.6719,574.6563 1177.8594,574.5469 Q1178.0469,574.4375 1178.2656,574.4375 Q1178.6406,574.4375 1178.875,574.7031 Q1179.1094,574.9531 1179.1094,575.5625 L1179.1094,577.0156 Q1179.1094,577.625 1178.875,577.8906 Q1178.6406,578.1563 1178.2656,578.1563 Q1177.9219,578.1563 1177.7188,577.9531 Q1177.5156,577.7656 1177.4063,577.25 Q1177.3594,576.8906 1177.1719,576.7031 Q1176.8438,576.3281 1176.2344,576.1094 Q1175.625,575.8906 1175,575.8906 Q1174.2344,575.8906 1173.5938,576.2188 Q1172.9688,576.5469 1172.4688,577.2969 Q1171.9844,578.0469 1171.9844,579.0781 L1171.9844,580.1719 Q1171.9844,581.4063 1172.875,582.2344 Q1173.7656,583.0469 1175.3594,583.0469 Q1176.2969,583.0469 1176.9531,582.7969 Q1177.3438,582.6406 1177.7656,582.2031 Q1178.0313,581.9375 1178.1719,581.8594 Q1178.3281,581.7813 1178.5313,581.7813 Q1178.8594,581.7813 1179.1094,582.0469 Q1179.375,582.2969 1179.375,582.6406 Q1179.375,582.9844 1179.0313,583.3906 Q1178.5313,583.9688 1177.7344,584.2969 Q1176.6563,584.75 1175.3594,584.75 Q1173.8438,584.75 1172.6406,584.125 Q1171.6563,583.625 1170.9688,582.5625 Q1170.2813,581.4844 1170.2813,580.2031 L1170.2813,579.0469 Q1170.2813,577.7188 1170.8906,576.5781 Q1171.5156,575.4219 1172.6094,574.8125 Q1173.7031,574.1875 1174.9375,574.1875 Q1175.6719,574.1875 1176.3125,574.3594 Q1176.9688,574.5156 1177.5156,574.875 Z " fill="#000000"/><text fill="#000000" font-family="sans-serif" font-size="14" lengthAdjust="spacing" textLength="109" x="1195.25" y="583.8535">VisitRequestDTO</text><line style="stroke:#181818;stroke-width:0.5;" x1="778" x2="1689" y1="595" y2="595"/><text fill="#000000" font-family="sans-serif" font-size="14" lengthAdjust="spacing" textLength="146" x="783" y="611.6738">-PropertyDTO property</text><text fill="#000000" font-family="sans-serif" font-size="14" lengthAdjust="spacing" textLength="189" x="783" y="627.3145">-DateTimeDTO preferredDate</text><text fill="#000000" font-family="sans-serif" font-size="14" lengthAdjust="spacing" textLength="158" x="783" y="642.9551">-List&lt;DateTime&gt; timeSlot</text><text fill="#000000" font-family="sans-serif" font-size="14" lengthAdjust="spacing" textLength="115" x="783" y="658.5957">-String clientName</text><text fill="#000000" font-family="sans-serif" font-size="14" lengthAdjust="spacing" textLength="159" x="783" y="674.2363">-long clientPhoneNumber</text><text fill="#000000" font-family="sans-serif" font-size="14" lengthAdjust="spacing" textLength="82" x="783" y="689.877">-Agent agent</text><text fill="#000000" font-family="sans-serif" font-size="14" lengthAdjust="spacing" textLength="136" x="783" y="705.5176">-Integer wasAccepted</text><line style="stroke:#181818;stroke-width:0.5;" x1="778" x2="1689" y1="712.4844" y2="712.4844"/><text fill="#000000" font-family="sans-serif" font-size="14" lengthAdjust="spacing" textLength="901" x="783" y="729.1582">+VisitRequestDTO(PropertyDTO property, DateTimeDTO preferredDate, List&lt;DateTime&gt; timeSlot, String clientName, long clientPhoneNumber)</text></g><!--class PropertyDTO--><g id="elem_PropertyDTO"><rect codeLine="105" fill="#F1F1F1" filter="url(#f16i6d2oka9lnz)" height="188.7656" id="PropertyDTO" rx="2.5" ry="2.5" style="stroke:#181818;stroke-width:0.5;" width="247" x="1002" y="773"/><ellipse cx="1079.25" cy="789" fill="#ADD1B2" rx="11" ry="11" style="stroke:#181818;stroke-width:1.0;"/><path d="M1082.0156,784.875 Q1082.1719,784.6563 1082.3594,784.5469 Q1082.5469,784.4375 1082.7656,784.4375 Q1083.1406,784.4375 1083.375,784.7031 Q1083.6094,784.9531 1083.6094,785.5625 L1083.6094,787.0156 Q1083.6094,787.625 1083.375,787.8906 Q1083.1406,788.1563 1082.7656,788.1563 Q1082.4219,788.1563 1082.2188,787.9531 Q1082.0156,787.7656 1081.9063,787.25 Q1081.8594,786.8906 1081.6719,786.7031 Q1081.3438,786.3281 1080.7344,786.1094 Q1080.125,785.8906 1079.5,785.8906 Q1078.7344,785.8906 1078.0938,786.2188 Q1077.4688,786.5469 1076.9688,787.2969 Q1076.4844,788.0469 1076.4844,789.0781 L1076.4844,790.1719 Q1076.4844,791.4063 1077.375,792.2344 Q1078.2656,793.0469 1079.8594,793.0469 Q1080.7969,793.0469 1081.4531,792.7969 Q1081.8438,792.6406 1082.2656,792.2031 Q1082.5313,791.9375 1082.6719,791.8594 Q1082.8281,791.7813 1083.0313,791.7813 Q1083.3594,791.7813 1083.6094,792.0469 Q1083.875,792.2969 1083.875,792.6406 Q1083.875,792.9844 1083.5313,793.3906 Q1083.0313,793.9688 1082.2344,794.2969 Q1081.1563,794.75 1079.8594,794.75 Q1078.3438,794.75 1077.1406,794.125 Q1076.1563,793.625 1075.4688,792.5625 Q1074.7813,791.4844 1074.7813,790.2031 L1074.7813,789.0469 Q1074.7813,787.7188 1075.3906,786.5781 Q1076.0156,785.4219 1077.1094,784.8125 Q1078.2031,784.1875 1079.4375,784.1875 Q1080.1719,784.1875 1080.8125,784.3594 Q1081.4688,784.5156 1082.0156,784.875 Z " fill="#000000"/><text fill="#000000" font-family="sans-serif" font-size="14" lengthAdjust="spacing" textLength="84" x="1099.75" y="793.8535">PropertyDTO</text><line style="stroke:#181818;stroke-width:0.5;" x1="1003" x2="1248" y1="805" y2="805"/><text fill="#000000" font-family="sans-serif" font-size="14" lengthAdjust="spacing" textLength="89" x="1008" y="821.6738">-Double price;</text><text fill="#000000" font-family="sans-serif" font-size="14" lengthAdjust="spacing" textLength="87" x="1008" y="837.3145">-Double area;</text><text fill="#000000" font-family="sans-serif" font-size="14" lengthAdjust="spacing" textLength="146" x="1008" y="852.9551">-AddressDTO address;</text><text fill="#000000" font-family="sans-serif" font-size="14" lengthAdjust="spacing" textLength="171" x="1008" y="868.5957">-Double distanceToCentre;</text><text fill="#000000" font-family="sans-serif" font-size="14" lengthAdjust="spacing" textLength="235" x="1008" y="884.2363">-List&lt;PhotographDTO&gt; photographs;</text><text fill="#000000" font-family="sans-serif" font-size="14" lengthAdjust="spacing" textLength="214" x="1008" y="899.877">-PropertyTypeDTO propertyType;</text><text fill="#000000" font-family="sans-serif" font-size="14" lengthAdjust="spacing" textLength="109" x="1008" y="915.5176">-StoreDTO store;</text><text fill="#000000" font-family="sans-serif" font-size="14" lengthAdjust="spacing" textLength="133" x="1008" y="931.1582">-PersonDTO creator;</text><text fill="#000000" font-family="sans-serif" font-size="14" lengthAdjust="spacing" textLength="132" x="1008" y="946.7988">-DateTimeDTO date;</text><line style="stroke:#181818;stroke-width:0.5;" x1="1003" x2="1248" y1="953.7656" y2="953.7656"/></g><!--class DateTimeDTO--><g id="elem_DateTimeDTO"><rect codeLine="117" fill="#F1F1F1" filter="url(#f16i6d2oka9lnz)" height="126.2031" id="DateTimeDTO" rx="2.5" ry="2.5" style="stroke:#181818;stroke-width:0.5;" width="146" x="1267.5" y="804.5"/><ellipse cx="1292.85" cy="820.5" fill="#ADD1B2" rx="11" ry="11" style="stroke:#181818;stroke-width:1.0;"/><path d="M1295.6156,816.375 Q1295.7719,816.1563 1295.9594,816.0469 Q1296.1469,815.9375 1296.3656,815.9375 Q1296.7406,815.9375 1296.975,816.2031 Q1297.2094,816.4531 1297.2094,817.0625 L1297.2094,818.5156 Q1297.2094,819.125 1296.975,819.3906 Q1296.7406,819.6563 1296.3656,819.6563 Q1296.0219,819.6563 1295.8188,819.4531 Q1295.6156,819.2656 1295.5063,818.75 Q1295.4594,818.3906 1295.2719,818.2031 Q1294.9438,817.8281 1294.3344,817.6094 Q1293.725,817.3906 1293.1,817.3906 Q1292.3344,817.3906 1291.6938,817.7188 Q1291.0688,818.0469 1290.5688,818.7969 Q1290.0844,819.5469 1290.0844,820.5781 L1290.0844,821.6719 Q1290.0844,822.9063 1290.975,823.7344 Q1291.8656,824.5469 1293.4594,824.5469 Q1294.3969,824.5469 1295.0531,824.2969 Q1295.4438,824.1406 1295.8656,823.7031 Q1296.1313,823.4375 1296.2719,823.3594 Q1296.4281,823.2813 1296.6313,823.2813 Q1296.9594,823.2813 1297.2094,823.5469 Q1297.475,823.7969 1297.475,824.1406 Q1297.475,824.4844 1297.1313,824.8906 Q1296.6313,825.4688 1295.8344,825.7969 Q1294.7563,826.25 1293.4594,826.25 Q1291.9438,826.25 1290.7406,825.625 Q1289.7563,825.125 1289.0688,824.0625 Q1288.3813,822.9844 1288.3813,821.7031 L1288.3813,820.5469 Q1288.3813,819.2188 1288.9906,818.0781 Q1289.6156,816.9219 1290.7094,816.3125 Q1291.8031,815.6875 1293.0375,815.6875 Q1293.7719,815.6875 1294.4125,815.8594 Q1295.0688,816.0156 1295.6156,816.375 Z " fill="#000000"/><text fill="#000000" font-family="sans-serif" font-size="14" lengthAdjust="spacing" textLength="91" x="1309.15" y="825.3535">DateTimeDTO</text><line style="stroke:#181818;stroke-width:0.5;" x1="1268.5" x2="1412.5" y1="836.5" y2="836.5"/><text fill="#000000" font-family="sans-serif" font-size="14" lengthAdjust="spacing" textLength="134" x="1273.5" y="853.1738">-Integer dayOfMonth;</text><text fill="#000000" font-family="sans-serif" font-size="14" lengthAdjust="spacing" textLength="96" x="1273.5" y="868.8145">-Integer month;</text><text fill="#000000" font-family="sans-serif" font-size="14" lengthAdjust="spacing" textLength="85" x="1273.5" y="884.4551">-Integer year;</text><text fill="#000000" font-family="sans-serif" font-size="14" lengthAdjust="spacing" textLength="86" x="1273.5" y="900.0957">-Integer hour;</text><text fill="#000000" font-family="sans-serif" font-size="14" lengthAdjust="spacing" textLength="99" x="1273.5" y="915.7363">-Integer minute;</text><line style="stroke:#181818;stroke-width:0.5;" x1="1268.5" x2="1412.5" y1="922.7031" y2="922.7031"/></g><path d="M157.0725,275.8468 C167.8009,278.4594 175,283.8438 175,292 C175,300.1563 167.8009,305.5406 157.0725,308.1532 " fill="none" style="stroke:#181818;stroke-width:1.0;"/><polygon fill="#181818" points="157.0725,308.1532,166.7634,309.9102,161.9306,306.9702,164.8706,302.1373,157.0725,308.1532" style="stroke:#181818;stroke-width:1.0;"/><text fill="#000000" font-family="sans-serif" font-size="13" lengthAdjust="spacing" textLength="49" x="176" y="296.7686">instance</text><path d="M80.4027,331.7337 C79.4943,363.8001 78.2206,408.7625 77.3785,438.4877 " fill="none" style="stroke:#181818;stroke-width:1.0;"/><polygon fill="#181818" points="77.3785,438.4877,81.6318,429.6046,77.5201,433.4897,73.635,429.378,77.3785,438.4877" style="stroke:#181818;stroke-width:1.0;"/><text fill="#000000" font-family="sans-serif" font-size="13" lengthAdjust="spacing" textLength="72" x="80.5" y="393.7686">userSession</text><text fill="#000000" font-family="sans-serif" font-size="13" lengthAdjust="spacing" textLength="7" x="69.3785" y="435.2563">1</text><path d="M248.7799,169.2032 C209.5612,197.7583 166.8577,228.8509 134.4137,252.4735 " fill="none" style="stroke:#181818;stroke-width:1.0;stroke-dasharray:7.0,7.0;"/><polygon fill="#181818" points="134.4137,252.4735,144.0438,250.4096,138.4557,249.5304,139.335,243.9423,134.4137,252.4735" style="stroke:#181818;stroke-width:1.0;"/><path d="M462.2014,277.2036 C473.0648,280.1304 480,285.0625 480,292 C480,298.9375 473.0648,303.8696 462.2014,306.7964 " fill="none" style="stroke:#181818;stroke-width:1.0;"/><polygon fill="#181818" points="462.2014,306.7964,471.932,308.3174,467.0292,305.4957,469.8509,300.5929,462.2014,306.7964" style="stroke:#181818;stroke-width:1.0;"/><text fill="#000000" font-family="sans-serif" font-size="13" lengthAdjust="spacing" textLength="49" x="481" y="296.7686">instance</text><path d="M200.707,90.5 C206.7536,90.5 212.8002,90.5 218.8468,90.5 " fill="none" style="stroke:#181818;stroke-width:1.0;stroke-dasharray:7.0,7.0;"/><polygon fill="#181818" points="218.8468,90.5,209.8468,86.5,213.8468,90.5,209.8468,94.5,218.8468,90.5" style="stroke:#181818;stroke-width:1.0;"/><path d="M355.5,169.2032 C355.5,186.2706 355.5,204.2445 355.5,220.9881 " fill="none" style="stroke:#181818;stroke-width:1.0;stroke-dasharray:7.0,7.0;"/><polygon fill="#181818" points="355.5,220.9881,359.5,211.9881,355.5,215.9881,351.5,211.9881,355.5,220.9881" style="stroke:#181818;stroke-width:1.0;"/><text fill="#000000" font-family="sans-serif" font-size="13" lengthAdjust="spacing" textLength="67" x="356.5" y="199.7686">repositories</text><path d="M309.4871,363.011 C298.1645,380.2389 286.2046,398.4366 275.4369,414.8202 " fill="none" style="stroke:#181818;stroke-width:1.0;"/><polygon fill="#181818" points="275.4369,414.8202,283.7226,409.496,278.183,410.6418,277.0372,405.1022,275.4369,414.8202" style="stroke:#181818;stroke-width:1.0;"/><text fill="#000000" font-family="sans-serif" font-size="13" lengthAdjust="spacing" textLength="7" x="267.4369" y="411.5887">1</text><path d="M420.5527,363.011 C439.2434,383.1263 459.1625,404.5636 476.1926,422.8918 " fill="none" style="stroke:#181818;stroke-width:1.0;"/><polygon fill="#181818" points="476.1926,422.8918,472.9967,413.5759,472.7892,419.2289,467.1361,419.0214,476.1926,422.8918" style="stroke:#181818;stroke-width:1.0;"/><text fill="#000000" font-family="sans-serif" font-size="13" lengthAdjust="spacing" textLength="7" x="468.1926" y="419.6603">1</text><path d="M198.8186,526.0501 C176.4719,556.015 149.5609,592.1002 130.7637,617.3055 " fill="none" style="stroke:#181818;stroke-width:1.0;"/><polygon fill="#181818" points="130.7637,617.3055,139.3506,612.4821,133.7528,613.2973,132.9376,607.6995,130.7637,617.3055" style="stroke:#181818;stroke-width:1.0;"/><text fill="#000000" font-family="sans-serif" font-size="13" lengthAdjust="spacing" textLength="7" x="122.7637" y="614.074">1</text><path d="M107.5,681.9083 C107.5,711.7448 107.5,757.6494 107.5,796.2159 " fill="none" style="stroke:#181818;stroke-width:1.0;"/><polygon fill="#181818" points="107.5,796.2159,111.5,787.2159,107.5,791.2159,103.5,787.2159,107.5,796.2159" style="stroke:#181818;stroke-width:1.0;"/><text fill="#000000" font-family="sans-serif" font-size="13" lengthAdjust="spacing" textLength="7" x="99.5" y="792.9845">1</text><path d="M355.5,363.2354 C355.5,430.9217 355.5,531.9251 355.5,593.8217 " fill="none" style="stroke:#181818;stroke-width:1.0;"/><polygon fill="#181818" points="355.5,593.8217,359.5,584.8217,355.5,588.8217,351.5,584.8217,355.5,593.8217" style="stroke:#181818;stroke-width:1.0;"/><text fill="#000000" font-family="sans-serif" font-size="13" lengthAdjust="spacing" textLength="7" x="347.5" y="590.5903">1</text><path d="M557.3343,518.0047 C580.5832,546.5815 610.0193,582.7633 631.9959,609.7763 " fill="none" style="stroke:#181818;stroke-width:1.0;"/><polygon fill="#181818" points="631.9959,609.7763,629.419,600.2705,628.8405,605.8977,623.2133,605.3192,631.9959,609.7763" style="stroke:#181818;stroke-width:1.0;"/><text fill="#000000" font-family="sans-serif" font-size="13" lengthAdjust="spacing" textLength="7" x="623.9959" y="606.5448">1</text><text fill="#000000" font-family="sans-serif" font-size="13" lengthAdjust="spacing" textLength="7" x="549.3343" y="530.7732">1</text><path d="M480.1491,169.188 C501.1347,185.0031 521.8152,202.5093 539.5,221 C610.229,294.9521 634.7915,316.7792 663.5,415 C682.8907,481.3419 676.4524,562.8895 669.9889,609.9606 " fill="none" style="stroke:#181818;stroke-width:1.0;"/><polygon fill="#181818" points="669.9889,609.9606,675.176,601.5884,670.669,605.0071,667.2504,600.5001,669.9889,609.9606" style="stroke:#181818;stroke-width:1.0;"/><text fill="#000000" font-family="sans-serif" font-size="13" lengthAdjust="spacing" textLength="7" x="661.9889" y="606.7292">1</text><text fill="#000000" font-family="sans-serif" font-size="13" lengthAdjust="spacing" textLength="7" x="472.1491" y="181.9566">1</text><path d="M663.5,689.1165 C663.5,714.5992 663.5,749.019 663.5,780.7578 " fill="none" style="stroke:#181818;stroke-width:1.0;"/><polygon fill="#181818" points="663.5,780.7578,667.5,771.7578,663.5,775.7578,659.5,771.7578,663.5,780.7578" style="stroke:#181818;stroke-width:1.0;"/><text fill="#000000" font-family="sans-serif" font-size="13" lengthAdjust="spacing" textLength="7" x="655.5" y="777.5264">1</text><text fill="#000000" font-family="sans-serif" font-size="13" lengthAdjust="spacing" textLength="7" x="655.5" y="701.885">1</text><path d="M758.6855,649.5 C764.7135,649.5 770.7414,649.5 776.7693,649.5 " fill="none" style="stroke:#181818;stroke-width:1.0;"/><polygon fill="#181818" points="776.7693,649.5,767.7693,645.5,771.7693,649.5,767.7693,653.5,776.7693,649.5" style="stroke:#181818;stroke-width:1.0;"/><text fill="#000000" font-family="sans-serif" font-size="13" lengthAdjust="spacing" textLength="7" x="768.7693" y="646.2686">1</text><text fill="#000000" font-family="sans-serif" font-size="13" lengthAdjust="spacing" textLength="7" x="759.6855" y="646.2686">1</text><path d="M1190.6604,736.1792 C1184.6534,748.1932 1178.4537,760.5926 1172.3765,772.747 " fill="none" style="stroke:#181818;stroke-width:1.0;"/><polygon fill="#181818" points="1172.3765,772.747,1179.9791,766.486,1174.6126,768.2749,1172.8237,762.9083,1172.3765,772.747" style="stroke:#181818;stroke-width:1.0;"/><text fill="#000000" font-family="sans-serif" font-size="13" lengthAdjust="spacing" textLength="7" x="1164.3765" y="769.5155">1</text><text fill="#000000" font-family="sans-serif" font-size="13" lengthAdjust="spacing" textLength="7" x="1182.6604" y="748.9477">1</text><path d="M1275.9429,736.1792 C1287.2039,758.9116 1299.1483,783.0237 1309.6608,804.2452 " fill="none" style="stroke:#181818;stroke-width:1.0;"/><polygon fill="#181818" points="1309.6608,804.2452,1309.2501,794.4049,1307.4414,799.7648,1302.0815,797.956,1309.6608,804.2452" style="stroke:#181818;stroke-width:1.0;"/><text fill="#000000" font-family="sans-serif" font-size="13" lengthAdjust="spacing" textLength="7" x="1301.6608" y="801.0137">1</text><text fill="#000000" font-family="sans-serif" font-size="13" lengthAdjust="spacing" textLength="7" x="1267.9429" y="748.9477">1</text><!--SRC=[bLPBJzmm4BxdLxXSe2gWzjf5AosFIaY58dRXRf8XQv7Ohkr0KzJ_td6UjkEmi8TiFFFDw_FOattznBYaYfQa55oaMoLA84PLa8mQITCdciFQr0KG1QcXF2zSWDxIJBmmdeUM1UDWQWb4ABCLynQVfA9vIKb1Qr4Peal063Hn3DA2QhqoHh67oi1bAlYQ_GNoDKds2tWqn0YYMBur96CsGoPuaZGsX9mfe0RkcMRc5dvNeCtT9NbD_lM0gVudq-PCSAD4KO12BC7V4Sd1d1KCkFc1BAr1QunoyBbHVh7A6oKaA5DRyzDwnRceU0eb6hYeriKWIPlbCIgkQGaHySrMSBYkoWTGWtQQCZbmL-URNptqdXOismqUsMW2tu8KY12gxejVAKMRoavQnB9BKOULUMKCqbWLW_AqlYWfAmx0FfrSRa1fmGV-rxZxs34DoXTnZDb9Bhc173TDeWE9RTV6x9I5GB0SK_6z6Fh74w-oJE4k4zh-XnprQNLPokPl1AsaB5XARIjslPAyTeLhW-BKrd_9yHsRnEEaKWhTZmqskBpJe49VQ635BO4ETjX11dfWq1Mw8SSqo7SFz4PMmHwE7UFgt4CGHxYTw2568gC-cfBSjdHXIqATbGwXQrg03zU193GX9xSezMrK86biTby4GrtnoYVdZPoum2LvTbOVlmwUFtWTk9gXuRloYEnU_6Ca5Jm2DajsZd624yPAM1V2-D9qk3U2Cvo6LqVC3gah-WnMEGe8jS_0rGlLgpG5QI2B5tT59TRIdoeZBhXXME8SZqRWmjVEi6Pn8NDM5f1doTeWFQrgoc3Jk3re-LuccmjlZiRtiTMD4R-YWrWbX_D57CxbVpXD_N0cQtSmZD5xQiz5zO2V9rAn51Q-ZEBnMFXtkasmkzO3SCRQgt0ZpZ2y6dmr-MCsHkIAoYqwMDf9qYq7Btrc6_pgSRcnwyMmMK8rIcrV5juOiUBK7cUX5f7Ei4TtCVBWg5w3BSne_Uln2ZzYjej0KyQ4DL0LohQYciXAngik1VkR3Zboj8oCFXmhh9inKHiqslksvmuujAYSSPVi_4exFeu5JX9l4Df0di39Aub-AABNNQ7VazmqhdB7x3HBIqSuMMTWyK62knFQ1uvxm21kMt0IfTF6vp26YSTlR68fjZVjEqZRvM0gcpMP1q-nU9Xyk3ruhcFdzdaRw1nFfEa_]--></g></svg>