<?xml version="1.0" encoding="us-ascii" standalone="no"?><svg xmlns="http://www.w3.org/2000/svg" xmlns:xlink="http://www.w3.org/1999/xlink" contentStyleType="text/css" height="1587px" preserveAspectRatio="none" style="width:950px;height:1587px;background:#FFFFFF;" version="1.1" viewBox="0 0 950 1587" width="950px" zoomAndPan="magnify"><defs/><g><rect fill="#FFFFFF" height="1406.7734" style="stroke:#181818;stroke-width:1.0;" width="10" x="44" y="90.6406"/><rect fill="#FFFFFF" height="169.1406" style="stroke:#181818;stroke-width:1.0;" width="10" x="478" y="111.1641"/><rect fill="#FFFFFF" height="70.0469" style="stroke:#181818;stroke-width:1.0;" width="10" x="478" y="308.8281"/><rect fill="#FFFFFF" height="70.0469" style="stroke:#181818;stroke-width:1.0;" width="10" x="478" y="407.3984"/><rect fill="#FFFFFF" height="70.0469" style="stroke:#181818;stroke-width:1.0;" width="10" x="478" y="505.9688"/><rect fill="#FFFFFF" height="128.5" style="stroke:#181818;stroke-width:1.0;" width="10" x="478" y="604.5391"/><rect fill="#FFFFFF" height="28.5234" style="stroke:#181818;stroke-width:1.0;" width="10" x="478" y="785.0859"/><rect fill="#FFFFFF" height="70.0469" style="stroke:#181818;stroke-width:1.0;" width="10" x="478" y="842.1328"/><rect fill="#FFFFFF" height="187.5469" style="stroke:#181818;stroke-width:1.0;" width="10" x="478" y="940.7031"/><rect fill="#FFFFFF" height="28.5234" style="stroke:#181818;stroke-width:1.0;" width="10" x="478" y="1156.7734"/><rect fill="#FFFFFF" height="111.5703" style="stroke:#181818;stroke-width:1.0;" width="10" x="478" y="1213.8203"/><rect fill="#FFFFFF" height="128.5" style="stroke:#181818;stroke-width:1.0;" width="10" x="478" y="1353.9141"/><rect fill="#FFFFFF" height="71.4531" style="stroke:#181818;stroke-width:1.0;" width="10" x="828" y="180.3281"/><rect fill="#FFFFFF" height="71.4531" style="stroke:#181818;stroke-width:1.0;" width="10" x="828" y="633.0625"/><rect fill="#FFFFFF" height="71.4531" style="stroke:#181818;stroke-width:1.0;" width="10" x="828" y="969.2266"/><rect fill="#FFFFFF" height="71.4531" style="stroke:#181818;stroke-width:1.0;" width="10" x="828" y="1382.4375"/><rect fill="none" height="329.1641" style="stroke:#000000;stroke-width:1.5;" width="934" x="10" y="748.0391"/><rect fill="none" height="399.2109" style="stroke:#000000;stroke-width:1.5;" width="934" x="10" y="1091.2031"/><line style="stroke:#181818;stroke-width:0.5;stroke-dasharray:5.0,5.0;" x1="49" x2="49" y1="80.6406" y2="1507.4141"/><line style="stroke:#181818;stroke-width:0.5;stroke-dasharray:5.0,5.0;" x1="483" x2="483" y1="80.6406" y2="1507.4141"/><line style="stroke:#181818;stroke-width:0.5;stroke-dasharray:5.0,5.0;" x1="833" x2="833" y1="149.4844" y2="1507.4141"/><text fill="#000000" font-family="sans-serif" font-size="14" lengthAdjust="spacing" textLength="52" x="20" y="77.6738">Client UI</text><ellipse cx="49" cy="13.5" fill="#E3E3E3" rx="8" ry="8" style="stroke:#181818;stroke-width:0.5;"/><path d="M49,21.5 L49,48.5 M36,29.5 L62,29.5 M49,48.5 L36,63.5 M49,48.5 L62,63.5 " fill="none" style="stroke:#181818;stroke-width:0.5;"/><text fill="#000000" font-family="sans-serif" font-size="14" lengthAdjust="spacing" textLength="52" x="20" y="1519.0879">Client UI</text><ellipse cx="49" cy="1530.5547" fill="#E3E3E3" rx="8" ry="8" style="stroke:#181818;stroke-width:0.5;"/><path d="M49,1538.5547 L49,1565.5547 M36,1546.5547 L62,1546.5547 M49,1565.5547 L36,1580.5547 M49,1565.5547 L62,1580.5547 " fill="none" style="stroke:#181818;stroke-width:0.5;"/><rect fill="#E3E3E3" height="29.6406" rx="2.5" ry="2.5" style="stroke:#181818;stroke-width:0.5;" width="152" x="407" y="50"/><text fill="#000000" font-family="sans-serif" font-size="14" lengthAdjust="spacing" textLength="138" x="414" y="69.6738">:CreateVisitRequestUI</text><rect fill="#E3E3E3" height="29.6406" rx="2.5" ry="2.5" style="stroke:#181818;stroke-width:0.5;" width="152" x="407" y="1506.4141"/><text fill="#000000" font-family="sans-serif" font-size="14" lengthAdjust="spacing" textLength="138" x="414" y="1526.0879">:CreateVisitRequestUI</text><rect fill="#E3E3E3" height="29.6406" rx="2.5" ry="2.5" style="stroke:#181818;stroke-width:0.5;" width="202" x="732" y="1506.4141"/><text fill="#000000" font-family="sans-serif" font-size="14" lengthAdjust="spacing" textLength="188" x="739" y="1526.0879">:CreateVisitRequestController</text><rect fill="#FFFFFF" height="1406.7734" style="stroke:#181818;stroke-width:1.0;" width="10" x="44" y="90.6406"/><rect fill="#FFFFFF" height="169.1406" style="stroke:#181818;stroke-width:1.0;" width="10" x="478" y="111.1641"/><rect fill="#FFFFFF" height="70.0469" style="stroke:#181818;stroke-width:1.0;" width="10" x="478" y="308.8281"/><rect fill="#FFFFFF" height="70.0469" style="stroke:#181818;stroke-width:1.0;" width="10" x="478" y="407.3984"/><rect fill="#FFFFFF" height="70.0469" style="stroke:#181818;stroke-width:1.0;" width="10" x="478" y="505.9688"/><rect fill="#FFFFFF" height="128.5" style="stroke:#181818;stroke-width:1.0;" width="10" x="478" y="604.5391"/><rect fill="#FFFFFF" height="28.5234" style="stroke:#181818;stroke-width:1.0;" width="10" x="478" y="785.0859"/><rect fill="#FFFFFF" height="70.0469" style="stroke:#181818;stroke-width:1.0;" width="10" x="478" y="842.1328"/><rect fill="#FFFFFF" height="187.5469" style="stroke:#181818;stroke-width:1.0;" width="10" x="478" y="940.7031"/><rect fill="#FFFFFF" height="28.5234" style="stroke:#181818;stroke-width:1.0;" width="10" x="478" y="1156.7734"/><rect fill="#FFFFFF" height="111.5703" style="stroke:#181818;stroke-width:1.0;" width="10" x="478" y="1213.8203"/><rect fill="#FFFFFF" height="128.5" style="stroke:#181818;stroke-width:1.0;" width="10" x="478" y="1353.9141"/><rect fill="#FFFFFF" height="71.4531" style="stroke:#181818;stroke-width:1.0;" width="10" x="828" y="180.3281"/><rect fill="#FFFFFF" height="71.4531" style="stroke:#181818;stroke-width:1.0;" width="10" x="828" y="633.0625"/><rect fill="#FFFFFF" height="71.4531" style="stroke:#181818;stroke-width:1.0;" width="10" x="828" y="969.2266"/><rect fill="#FFFFFF" height="71.4531" style="stroke:#181818;stroke-width:1.0;" width="10" x="828" y="1382.4375"/><polygon fill="#181818" points="466,107.1641,476,111.1641,466,115.1641,470,111.1641" style="stroke:#181818;stroke-width:1.0;"/><line style="stroke:#181818;stroke-width:1.0;" x1="54" x2="472" y1="111.1641" y2="111.1641"/><text fill="#000000" font-family="sans-serif" font-size="13" font-weight="bold" lengthAdjust="spacing" textLength="7" x="61" y="106.4092">1</text><text fill="#000000" font-family="sans-serif" font-size="13" lengthAdjust="spacing" textLength="156" x="72" y="106.4092">asks to post a visit request</text><polygon fill="#181818" points="720,135.6875,730,139.6875,720,143.6875,724,139.6875" style="stroke:#181818;stroke-width:1.0;"/><line style="stroke:#181818;stroke-width:1.0;" x1="488" x2="726" y1="139.6875" y2="139.6875"/><text fill="#000000" font-family="sans-serif" font-size="13" font-weight="bold" lengthAdjust="spacing" textLength="7" x="495" y="134.9326">2</text><text fill="#000000" font-family="sans-serif" font-size="13" lengthAdjust="spacing" textLength="188" x="506" y="134.9326">CreateVisitRequestListController</text><rect fill="#E3E3E3" height="29.6406" rx="2.5" ry="2.5" style="stroke:#181818;stroke-width:0.5;" width="202" x="732" y="119.1641"/><text fill="#000000" font-family="sans-serif" font-size="14" lengthAdjust="spacing" textLength="188" x="739" y="138.8379">:CreateVisitRequestController</text><polygon fill="#181818" points="816,176.3281,826,180.3281,816,184.3281,820,180.3281" style="stroke:#181818;stroke-width:1.0;"/><line style="stroke:#181818;stroke-width:1.0;" x1="488" x2="822" y1="180.3281" y2="180.3281"/><text fill="#000000" font-family="sans-serif" font-size="13" font-weight="bold" lengthAdjust="spacing" textLength="7" x="495" y="175.5732">3</text><text fill="#000000" font-family="sans-serif" font-size="13" lengthAdjust="spacing" textLength="88" x="506" y="175.5732">getPropertyList</text><rect fill="none" height="37.9297" style="stroke:#000000;stroke-width:1.5;" width="208" x="729" y="188.3281"/><path d="M729,188.3281 L791,188.3281 L791,194.3281 L781,204.3281 L729,204.3281 L729,188.3281 " fill="#EEEEEE" style="stroke:#000000;stroke-width:2.0;"/><text fill="#000000" font-family="sans-serif" font-size="13" font-weight="bold" lengthAdjust="spacing" textLength="17" x="742" y="202.0967">ref</text><text fill="#000000" font-family="sans-serif" font-size="12" lengthAdjust="spacing" textLength="88" x="789" y="219.1914">get Property List</text><polygon fill="#181818" points="499,247.7813,489,251.7813,499,255.7813,495,251.7813" style="stroke:#181818;stroke-width:1.0;"/><line style="stroke:#181818;stroke-width:1.0;stroke-dasharray:2.0,2.0;" x1="493" x2="832" y1="251.7813" y2="251.7813"/><text fill="#000000" font-family="sans-serif" font-size="13" font-weight="bold" lengthAdjust="spacing" textLength="7" x="505" y="247.0264">4</text><text fill="#000000" font-family="sans-serif" font-size="13" lengthAdjust="spacing" textLength="68" x="516" y="247.0264">propertyList</text><polygon fill="#181818" points="65,276.3047,55,280.3047,65,284.3047,61,280.3047" style="stroke:#181818;stroke-width:1.0;"/><line style="stroke:#181818;stroke-width:1.0;stroke-dasharray:2.0,2.0;" x1="59" x2="482" y1="280.3047" y2="280.3047"/><text fill="#000000" font-family="sans-serif" font-size="13" font-weight="bold" lengthAdjust="spacing" textLength="7" x="71" y="275.5498">5</text><text fill="#000000" font-family="sans-serif" font-size="13" lengthAdjust="spacing" textLength="279" x="82" y="275.5498">show list of all properties and asks to select one</text><polygon fill="#181818" points="466,304.8281,476,308.8281,466,312.8281,470,308.8281" style="stroke:#181818;stroke-width:1.0;"/><line style="stroke:#181818;stroke-width:1.0;" x1="54" x2="472" y1="308.8281" y2="308.8281"/><text fill="#000000" font-family="sans-serif" font-size="13" font-weight="bold" lengthAdjust="spacing" textLength="7" x="61" y="304.0732">6</text><text fill="#000000" font-family="sans-serif" font-size="13" lengthAdjust="spacing" textLength="97" x="72" y="304.0732">select a property</text><line style="stroke:#181818;stroke-width:1.0;" x1="488" x2="530" y1="337.3516" y2="337.3516"/><line style="stroke:#181818;stroke-width:1.0;" x1="530" x2="530" y1="337.3516" y2="350.3516"/><line style="stroke:#181818;stroke-width:1.0;" x1="489" x2="530" y1="350.3516" y2="350.3516"/><polygon fill="#181818" points="499,346.3516,489,350.3516,499,354.3516,495,350.3516" style="stroke:#181818;stroke-width:1.0;"/><text fill="#000000" font-family="sans-serif" font-size="13" font-weight="bold" lengthAdjust="spacing" textLength="7" x="495" y="332.5967">7</text><text fill="#000000" font-family="sans-serif" font-size="13" lengthAdjust="spacing" textLength="110" x="506" y="332.5967">keepData(property)</text><polygon fill="#181818" points="65,374.875,55,378.875,65,382.875,61,378.875" style="stroke:#181818;stroke-width:1.0;"/><line style="stroke:#181818;stroke-width:1.0;stroke-dasharray:2.0,2.0;" x1="59" x2="482" y1="378.875" y2="378.875"/><text fill="#000000" font-family="sans-serif" font-size="13" font-weight="bold" lengthAdjust="spacing" textLength="7" x="71" y="374.1201">8</text><text fill="#000000" font-family="sans-serif" font-size="13" lengthAdjust="spacing" textLength="126" x="82" y="374.1201">request preferred date</text><polygon fill="#181818" points="466,403.3984,476,407.3984,466,411.3984,470,407.3984" style="stroke:#181818;stroke-width:1.0;"/><line style="stroke:#181818;stroke-width:1.0;" x1="54" x2="472" y1="407.3984" y2="407.3984"/><text fill="#000000" font-family="sans-serif" font-size="13" font-weight="bold" lengthAdjust="spacing" textLength="7" x="61" y="402.6436">9</text><text fill="#000000" font-family="sans-serif" font-size="13" lengthAdjust="spacing" textLength="115" x="72" y="402.6436">insert preferred date</text><line style="stroke:#181818;stroke-width:1.0;" x1="488" x2="530" y1="435.9219" y2="435.9219"/><line style="stroke:#181818;stroke-width:1.0;" x1="530" x2="530" y1="435.9219" y2="448.9219"/><line style="stroke:#181818;stroke-width:1.0;" x1="489" x2="530" y1="448.9219" y2="448.9219"/><polygon fill="#181818" points="499,444.9219,489,448.9219,499,452.9219,495,448.9219" style="stroke:#181818;stroke-width:1.0;"/><text fill="#000000" font-family="sans-serif" font-size="13" font-weight="bold" lengthAdjust="spacing" textLength="14" x="495" y="431.167">10</text><text fill="#000000" font-family="sans-serif" font-size="13" lengthAdjust="spacing" textLength="140" x="513" y="431.167">keepData(preferredDate)</text><polygon fill="#181818" points="65,473.4453,55,477.4453,65,481.4453,61,477.4453" style="stroke:#181818;stroke-width:1.0;"/><line style="stroke:#181818;stroke-width:1.0;stroke-dasharray:2.0,2.0;" x1="59" x2="482" y1="477.4453" y2="477.4453"/><text fill="#000000" font-family="sans-serif" font-size="13" font-weight="bold" lengthAdjust="spacing" textLength="14" x="71" y="472.6904">11</text><text fill="#000000" font-family="sans-serif" font-size="13" lengthAdjust="spacing" textLength="97" x="89" y="472.6904">request time slot</text><polygon fill="#181818" points="466,501.9688,476,505.9688,466,509.9688,470,505.9688" style="stroke:#181818;stroke-width:1.0;"/><line style="stroke:#181818;stroke-width:1.0;" x1="54" x2="472" y1="505.9688" y2="505.9688"/><text fill="#000000" font-family="sans-serif" font-size="13" font-weight="bold" lengthAdjust="spacing" textLength="14" x="61" y="501.2139">12</text><text fill="#000000" font-family="sans-serif" font-size="13" lengthAdjust="spacing" textLength="86" x="79" y="501.2139">insert time slot</text><line style="stroke:#181818;stroke-width:1.0;" x1="488" x2="530" y1="539.4922" y2="539.4922"/><line style="stroke:#181818;stroke-width:1.0;" x1="530" x2="530" y1="539.4922" y2="552.4922"/><line style="stroke:#181818;stroke-width:1.0;" x1="483" x2="530" y1="552.4922" y2="552.4922"/><polygon fill="#181818" points="493,548.4922,483,552.4922,493,556.4922,489,552.4922" style="stroke:#181818;stroke-width:1.0;"/><text fill="#000000" font-family="sans-serif" font-size="13" font-weight="bold" lengthAdjust="spacing" textLength="14" x="495" y="534.7373">13</text><text fill="#000000" font-family="sans-serif" font-size="13" lengthAdjust="spacing" textLength="111" x="513" y="534.7373">keepData(timeSlot)</text><polygon fill="#181818" points="65,572.0156,55,576.0156,65,580.0156,61,576.0156" style="stroke:#181818;stroke-width:1.0;"/><line style="stroke:#181818;stroke-width:1.0;stroke-dasharray:2.0,2.0;" x1="59" x2="482" y1="576.0156" y2="576.0156"/><text fill="#000000" font-family="sans-serif" font-size="13" font-weight="bold" lengthAdjust="spacing" textLength="14" x="71" y="571.2607">14</text><text fill="#000000" font-family="sans-serif" font-size="13" lengthAdjust="spacing" textLength="204" x="89" y="571.2607">asks to confirmation to submit data</text><polygon fill="#181818" points="466,600.5391,476,604.5391,466,608.5391,470,604.5391" style="stroke:#181818;stroke-width:1.0;"/><line style="stroke:#181818;stroke-width:1.0;" x1="54" x2="472" y1="604.5391" y2="604.5391"/><text fill="#000000" font-family="sans-serif" font-size="13" font-weight="bold" lengthAdjust="spacing" textLength="14" x="61" y="599.7842">15</text><text fill="#000000" font-family="sans-serif" font-size="13" lengthAdjust="spacing" textLength="157" x="79" y="599.7842">confirmation to submit data</text><polygon fill="#181818" points="816,629.0625,826,633.0625,816,637.0625,820,633.0625" style="stroke:#181818;stroke-width:1.0;"/><line style="stroke:#181818;stroke-width:1.0;" x1="488" x2="822" y1="633.0625" y2="633.0625"/><text fill="#000000" font-family="sans-serif" font-size="13" font-weight="bold" lengthAdjust="spacing" textLength="14" x="495" y="628.3076">16</text><text fill="#000000" font-family="sans-serif" font-size="13" lengthAdjust="spacing" textLength="303" x="513" y="628.3076">creatVisitRequest (property, preferredDate, timeSlot)</text><rect fill="none" height="37.9297" style="stroke:#000000;stroke-width:1.5;" width="208" x="729" y="641.0625"/><path d="M729,641.0625 L791,641.0625 L791,647.0625 L781,657.0625 L729,657.0625 L729,641.0625 " fill="#EEEEEE" style="stroke:#000000;stroke-width:2.0;"/><text fill="#000000" font-family="sans-serif" font-size="13" font-weight="bold" lengthAdjust="spacing" textLength="17" x="742" y="654.8311">ref</text><text fill="#000000" font-family="sans-serif" font-size="12" lengthAdjust="spacing" textLength="110" x="778" y="671.9258">create Visit Request</text><polygon fill="#181818" points="499,700.5156,489,704.5156,499,708.5156,495,704.5156" style="stroke:#181818;stroke-width:1.0;"/><line style="stroke:#181818;stroke-width:1.0;stroke-dasharray:2.0,2.0;" x1="493" x2="832" y1="704.5156" y2="704.5156"/><text fill="#000000" font-family="sans-serif" font-size="13" font-weight="bold" lengthAdjust="spacing" textLength="14" x="505" y="699.7607">17</text><text fill="#000000" font-family="sans-serif" font-size="13" lengthAdjust="spacing" textLength="78" x="523" y="699.7607">wasAccepted</text><polygon fill="#181818" points="65,729.0391,55,733.0391,65,737.0391,61,733.0391" style="stroke:#181818;stroke-width:1.0;"/><line style="stroke:#181818;stroke-width:1.0;stroke-dasharray:2.0,2.0;" x1="59" x2="482" y1="733.0391" y2="733.0391"/><text fill="#000000" font-family="sans-serif" font-size="13" font-weight="bold" lengthAdjust="spacing" textLength="14" x="71" y="728.2842">18</text><text fill="#000000" font-family="sans-serif" font-size="13" lengthAdjust="spacing" textLength="338" x="89" y="728.2842">show success message and asks to add another time slot</text><path d="M10,748.0391 L83,748.0391 L83,754.5625 L73,764.5625 L10,764.5625 L10,748.0391 " fill="#EEEEEE" style="stroke:#000000;stroke-width:1.5;"/><rect fill="none" height="329.1641" style="stroke:#000000;stroke-width:1.5;" width="934" x="10" y="748.0391"/><text fill="#000000" font-family="sans-serif" font-size="13" font-weight="bold" lengthAdjust="spacing" textLength="28" x="25" y="760.8076">loop</text><polygon fill="#181818" points="466,781.0859,476,785.0859,466,789.0859,470,785.0859" style="stroke:#181818;stroke-width:1.0;"/><line style="stroke:#181818;stroke-width:1.0;" x1="54" x2="472" y1="785.0859" y2="785.0859"/><text fill="#000000" font-family="sans-serif" font-size="13" font-weight="bold" lengthAdjust="spacing" textLength="14" x="61" y="780.3311">19</text><text fill="#000000" font-family="sans-serif" font-size="13" lengthAdjust="spacing" textLength="229" x="79" y="780.3311">confirmation to submit another time slot</text><polygon fill="#181818" points="65,809.6094,55,813.6094,65,817.6094,61,813.6094" style="stroke:#181818;stroke-width:1.0;"/><line style="stroke:#181818;stroke-width:1.0;stroke-dasharray:2.0,2.0;" x1="59" x2="482" y1="813.6094" y2="813.6094"/><text fill="#000000" font-family="sans-serif" font-size="13" font-weight="bold" lengthAdjust="spacing" textLength="14" x="71" y="808.8545">20</text><text fill="#000000" font-family="sans-serif" font-size="13" lengthAdjust="spacing" textLength="97" x="89" y="808.8545">request time slot</text><polygon fill="#181818" points="466,838.1328,476,842.1328,466,846.1328,470,842.1328" style="stroke:#181818;stroke-width:1.0;"/><line style="stroke:#181818;stroke-width:1.0;" x1="54" x2="472" y1="842.1328" y2="842.1328"/><text fill="#000000" font-family="sans-serif" font-size="13" font-weight="bold" lengthAdjust="spacing" textLength="14" x="61" y="837.3779">21</text><text fill="#000000" font-family="sans-serif" font-size="13" lengthAdjust="spacing" textLength="86" x="79" y="837.3779">insert time slot</text><line style="stroke:#181818;stroke-width:1.0;" x1="488" x2="530" y1="870.6563" y2="870.6563"/><line style="stroke:#181818;stroke-width:1.0;" x1="530" x2="530" y1="870.6563" y2="883.6563"/><line style="stroke:#181818;stroke-width:1.0;" x1="489" x2="530" y1="883.6563" y2="883.6563"/><polygon fill="#181818" points="499,879.6563,489,883.6563,499,887.6563,495,883.6563" style="stroke:#181818;stroke-width:1.0;"/><text fill="#000000" font-family="sans-serif" font-size="13" font-weight="bold" lengthAdjust="spacing" textLength="14" x="495" y="865.9014">22</text><text fill="#000000" font-family="sans-serif" font-size="13" lengthAdjust="spacing" textLength="111" x="513" y="865.9014">keepData(timeSlot)</text><polygon fill="#181818" points="65,908.1797,55,912.1797,65,916.1797,61,912.1797" style="stroke:#181818;stroke-width:1.0;"/><line style="stroke:#181818;stroke-width:1.0;stroke-dasharray:2.0,2.0;" x1="59" x2="482" y1="912.1797" y2="912.1797"/><text fill="#000000" font-family="sans-serif" font-size="13" font-weight="bold" lengthAdjust="spacing" textLength="14" x="71" y="907.4248">23</text><text fill="#000000" font-family="sans-serif" font-size="13" lengthAdjust="spacing" textLength="204" x="89" y="907.4248">asks to confirmation to submit data</text><polygon fill="#181818" points="466,936.7031,476,940.7031,466,944.7031,470,940.7031" style="stroke:#181818;stroke-width:1.0;"/><line style="stroke:#181818;stroke-width:1.0;" x1="54" x2="472" y1="940.7031" y2="940.7031"/><text fill="#000000" font-family="sans-serif" font-size="13" font-weight="bold" lengthAdjust="spacing" textLength="14" x="61" y="935.9482">24</text><text fill="#000000" font-family="sans-serif" font-size="13" lengthAdjust="spacing" textLength="157" x="79" y="935.9482">confirmation to submit data</text><polygon fill="#181818" points="816,965.2266,826,969.2266,816,973.2266,820,969.2266" style="stroke:#181818;stroke-width:1.0;"/><line style="stroke:#181818;stroke-width:1.0;" x1="488" x2="822" y1="969.2266" y2="969.2266"/><text fill="#000000" font-family="sans-serif" font-size="13" font-weight="bold" lengthAdjust="spacing" textLength="14" x="495" y="964.4717">25</text><text fill="#000000" font-family="sans-serif" font-size="13" lengthAdjust="spacing" textLength="303" x="513" y="964.4717">creatVisitRequest (property, preferredDate, timeSlot)</text><rect fill="none" height="37.9297" style="stroke:#000000;stroke-width:1.5;" width="208" x="729" y="977.2266"/><path d="M729,977.2266 L791,977.2266 L791,983.2266 L781,993.2266 L729,993.2266 L729,977.2266 " fill="#EEEEEE" style="stroke:#000000;stroke-width:2.0;"/><text fill="#000000" font-family="sans-serif" font-size="13" font-weight="bold" lengthAdjust="spacing" textLength="17" x="742" y="990.9951">ref</text><text fill="#000000" font-family="sans-serif" font-size="12" lengthAdjust="spacing" textLength="110" x="778" y="1008.0898">create Visit Request</text><polygon fill="#181818" points="499,1036.6797,489,1040.6797,499,1044.6797,495,1040.6797" style="stroke:#181818;stroke-width:1.0;"/><line style="stroke:#181818;stroke-width:1.0;stroke-dasharray:2.0,2.0;" x1="493" x2="832" y1="1040.6797" y2="1040.6797"/><text fill="#000000" font-family="sans-serif" font-size="13" font-weight="bold" lengthAdjust="spacing" textLength="14" x="505" y="1035.9248">26</text><text fill="#000000" font-family="sans-serif" font-size="13" lengthAdjust="spacing" textLength="78" x="523" y="1035.9248">wasAccepted</text><polygon fill="#181818" points="65,1065.2031,55,1069.2031,65,1073.2031,61,1069.2031" style="stroke:#181818;stroke-width:1.0;"/><line style="stroke:#181818;stroke-width:1.0;stroke-dasharray:2.0,2.0;" x1="59" x2="477" y1="1069.2031" y2="1069.2031"/><text fill="#000000" font-family="sans-serif" font-size="13" font-weight="bold" lengthAdjust="spacing" textLength="14" x="71" y="1064.4482">27</text><text fill="#000000" font-family="sans-serif" font-size="13" lengthAdjust="spacing" textLength="338" x="89" y="1064.4482">show success message and asks to add another time slot</text><path d="M10,1091.2031 L83,1091.2031 L83,1097.7266 L73,1107.7266 L10,1107.7266 L10,1091.2031 " fill="#EEEEEE" style="stroke:#000000;stroke-width:1.5;"/><rect fill="none" height="399.2109" style="stroke:#000000;stroke-width:1.5;" width="934" x="10" y="1091.2031"/><text fill="#000000" font-family="sans-serif" font-size="13" font-weight="bold" lengthAdjust="spacing" textLength="28" x="25" y="1103.9717">loop</text><polygon fill="#181818" points="65,1124.25,55,1128.25,65,1132.25,61,1128.25" style="stroke:#181818;stroke-width:1.0;"/><line style="stroke:#181818;stroke-width:1.0;stroke-dasharray:2.0,2.0;" x1="59" x2="482" y1="1128.25" y2="1128.25"/><text fill="#000000" font-family="sans-serif" font-size="13" font-weight="bold" lengthAdjust="spacing" textLength="14" x="71" y="1123.4951">28</text><text fill="#000000" font-family="sans-serif" font-size="13" lengthAdjust="spacing" textLength="144" x="89" y="1123.4951">asks to add another date</text><polygon fill="#181818" points="466,1152.7734,476,1156.7734,466,1160.7734,470,1156.7734" style="stroke:#181818;stroke-width:1.0;"/><line style="stroke:#181818;stroke-width:1.0;" x1="54" x2="472" y1="1156.7734" y2="1156.7734"/><text fill="#000000" font-family="sans-serif" font-size="13" font-weight="bold" lengthAdjust="spacing" textLength="14" x="61" y="1152.0186">29</text><text fill="#000000" font-family="sans-serif" font-size="13" lengthAdjust="spacing" textLength="204" x="79" y="1152.0186">confirmation to submit another date</text><polygon fill="#181818" points="65,1181.2969,55,1185.2969,65,1189.2969,61,1185.2969" style="stroke:#181818;stroke-width:1.0;"/><line style="stroke:#181818;stroke-width:1.0;stroke-dasharray:2.0,2.0;" x1="59" x2="482" y1="1185.2969" y2="1185.2969"/><text fill="#000000" font-family="sans-serif" font-size="13" font-weight="bold" lengthAdjust="spacing" textLength="14" x="71" y="1180.542">30</text><text fill="#000000" font-family="sans-serif" font-size="13" lengthAdjust="spacing" textLength="72" x="89" y="1180.542">request date</text><polygon fill="#181818" points="466,1209.8203,476,1213.8203,466,1217.8203,470,1213.8203" style="stroke:#181818;stroke-width:1.0;"/><line style="stroke:#181818;stroke-width:1.0;" x1="54" x2="472" y1="1213.8203" y2="1213.8203"/><text fill="#000000" font-family="sans-serif" font-size="13" font-weight="bold" lengthAdjust="spacing" textLength="14" x="61" y="1209.0654">31</text><text fill="#000000" font-family="sans-serif" font-size="13" lengthAdjust="spacing" textLength="61" x="79" y="1209.0654">insert date</text><line style="stroke:#181818;stroke-width:1.0;stroke-dasharray:2.0,2.0;" x1="488" x2="530" y1="1242.3438" y2="1242.3438"/><line style="stroke:#181818;stroke-width:1.0;stroke-dasharray:2.0,2.0;" x1="530" x2="530" y1="1242.3438" y2="1255.3438"/><line style="stroke:#181818;stroke-width:1.0;stroke-dasharray:2.0,2.0;" x1="489" x2="530" y1="1255.3438" y2="1255.3438"/><polygon fill="#181818" points="499,1251.3438,489,1255.3438,499,1259.3438,495,1255.3438" style="stroke:#181818;stroke-width:1.0;"/><text fill="#000000" font-family="sans-serif" font-size="13" font-weight="bold" lengthAdjust="spacing" textLength="14" x="495" y="1237.5889">32</text><text fill="#000000" font-family="sans-serif" font-size="13" lengthAdjust="spacing" textLength="140" x="513" y="1237.5889">keepData(preferredDate)</text><line style="stroke:#181818;stroke-width:1.0;stroke-dasharray:2.0,2.0;" x1="488" x2="530" y1="1283.8672" y2="1283.8672"/><line style="stroke:#181818;stroke-width:1.0;stroke-dasharray:2.0,2.0;" x1="530" x2="530" y1="1283.8672" y2="1296.8672"/><line style="stroke:#181818;stroke-width:1.0;stroke-dasharray:2.0,2.0;" x1="489" x2="530" y1="1296.8672" y2="1296.8672"/><polygon fill="#181818" points="499,1292.8672,489,1296.8672,499,1300.8672,495,1296.8672" style="stroke:#181818;stroke-width:1.0;"/><text fill="#000000" font-family="sans-serif" font-size="13" font-weight="bold" lengthAdjust="spacing" textLength="14" x="495" y="1279.1123">33</text><text fill="#000000" font-family="sans-serif" font-size="13" lengthAdjust="spacing" textLength="78" x="513" y="1279.1123">validateDate()</text><polygon fill="#181818" points="65,1321.3906,55,1325.3906,65,1329.3906,61,1325.3906" style="stroke:#181818;stroke-width:1.0;"/><line style="stroke:#181818;stroke-width:1.0;stroke-dasharray:2.0,2.0;" x1="59" x2="482" y1="1325.3906" y2="1325.3906"/><text fill="#000000" font-family="sans-serif" font-size="13" font-weight="bold" lengthAdjust="spacing" textLength="14" x="71" y="1320.6357">34</text><text fill="#000000" font-family="sans-serif" font-size="13" lengthAdjust="spacing" textLength="204" x="89" y="1320.6357">asks to confirmation to submit data</text><polygon fill="#181818" points="466,1349.9141,476,1353.9141,466,1357.9141,470,1353.9141" style="stroke:#181818;stroke-width:1.0;"/><line style="stroke:#181818;stroke-width:1.0;" x1="54" x2="472" y1="1353.9141" y2="1353.9141"/><text fill="#000000" font-family="sans-serif" font-size="13" font-weight="bold" lengthAdjust="spacing" textLength="14" x="61" y="1349.1592">35</text><text fill="#000000" font-family="sans-serif" font-size="13" lengthAdjust="spacing" textLength="157" x="79" y="1349.1592">confirmation to submit data</text><polygon fill="#181818" points="816,1378.4375,826,1382.4375,816,1386.4375,820,1382.4375" style="stroke:#181818;stroke-width:1.0;"/><line style="stroke:#181818;stroke-width:1.0;" x1="488" x2="822" y1="1382.4375" y2="1382.4375"/><text fill="#000000" font-family="sans-serif" font-size="13" font-weight="bold" lengthAdjust="spacing" textLength="14" x="495" y="1377.6826">36</text><text fill="#000000" font-family="sans-serif" font-size="13" lengthAdjust="spacing" textLength="303" x="513" y="1377.6826">creatVisitRequest (property, preferredDate, timeSlot)</text><rect fill="none" height="37.9297" style="stroke:#000000;stroke-width:1.5;" width="208" x="729" y="1390.4375"/><path d="M729,1390.4375 L791,1390.4375 L791,1396.4375 L781,1406.4375 L729,1406.4375 L729,1390.4375 " fill="#EEEEEE" style="stroke:#000000;stroke-width:2.0;"/><text fill="#000000" font-family="sans-serif" font-size="13" font-weight="bold" lengthAdjust="spacing" textLength="17" x="742" y="1404.2061">ref</text><text fill="#000000" font-family="sans-serif" font-size="12" lengthAdjust="spacing" textLength="110" x="778" y="1421.3008">create Visit Request</text><polygon fill="#181818" points="499,1449.8906,489,1453.8906,499,1457.8906,495,1453.8906" style="stroke:#181818;stroke-width:1.0;"/><line style="stroke:#181818;stroke-width:1.0;stroke-dasharray:2.0,2.0;" x1="493" x2="832" y1="1453.8906" y2="1453.8906"/><text fill="#000000" font-family="sans-serif" font-size="13" font-weight="bold" lengthAdjust="spacing" textLength="14" x="505" y="1449.1357">37</text><text fill="#000000" font-family="sans-serif" font-size="13" lengthAdjust="spacing" textLength="78" x="523" y="1449.1357">wasAccepted</text><polygon fill="#181818" points="65,1478.4141,55,1482.4141,65,1486.4141,61,1482.4141" style="stroke:#181818;stroke-width:1.0;"/><line style="stroke:#181818;stroke-width:1.0;stroke-dasharray:2.0,2.0;" x1="59" x2="482" y1="1482.4141" y2="1482.4141"/><text fill="#000000" font-family="sans-serif" font-size="13" font-weight="bold" lengthAdjust="spacing" textLength="14" x="71" y="1477.6592">38</text><text fill="#000000" font-family="sans-serif" font-size="13" lengthAdjust="spacing" textLength="382" x="89" y="1477.6592">show success message and asks to add another date or time slot</text><!--SRC=[lLV1Rjim3BthAuXUrXRj3-GmOCWk1O9XQDVT5Pj9XCYY9yd9-lUZdCILKycnqM0w18abFZwAVAJZjihKqieAAZ9KR2nL2DusA5otKyjYAzVuujyqWiN2IxFMyG6taINjbLd3Icg7GWZPU39DjKGhn9UDAX5MH7v9VuKiF5cucMk5niFhqmr81_F53y5GNXMgblpuPZQtA3t-LaxvP_pJeFF7ewzF5q_EoNXBMgCzWFzwNeZWL-tuOEjB02_-0ezV6H1cV6phm1FKv3n8s0Kq3hM5EvmEgyDW4jr3jcUKuEJ-df4-qbcec998MRBT6lrFIpLQ_nOCkaCzluTGUdjXMLm1xT0Uzizt0pISiE43UBlGb0559C1RVe-dYwfZZhsp9PxHZ3T3g25Mll8PbmljGJC0q0garYTGXGua4pabmw7cOWCoA19EuXp4gJnQoOxgSFhU4z5QRn7hxzBBsvFrNJzVNH37uc0lk49hiOIIeKM6QOgeCeuTP05IvdcoHmp-XPSOUyKITvgyc7AjHxO9um5Lz5a6snSsVISeueBB5b0lYguw2Z8hPIlf5PcsMffbnQBbIvIJ0Xl26IdyW19a7wiUkWfwW5vw7Y2w1v6H-2XnjpuHMgzmT2iogXPfEU-b-rOKM7iiytc8w7pKiMlOtZce-8E7H4_0ikJlXlo6sL-ikgvRMMfgq4Jrf7mD-CbcxxzA0n9hd4hwNCVKVuRyvFeVspgl989X8OmPTHSbSQQB_A1BAUFYcBkEFaJ4Sr0M-UA8aTknaWdXF9qJXDQVLiaKdgCFQY-FDy1tG8wVvpTknkOCTrAhm24SlxqRSH6Z1jjLRcYKv7CtbkzZL-m2MGBfhZ2XGqpl5fSxn_0hSwwJ32Gnyvx_kGuJYX4eEI7pjPIuWEni528EWVzc_GC0]--></g></svg>