<?xml version="1.0" encoding="us-ascii" standalone="no"?><svg xmlns="http://www.w3.org/2000/svg" xmlns:xlink="http://www.w3.org/1999/xlink" contentStyleType="text/css" height="776px" preserveAspectRatio="none" style="width:1707px;height:776px;background:#FFFFFF;" version="1.1" viewBox="0 0 1707 776" width="1707px" zoomAndPan="magnify"><defs/><g><rect fill="#FFFFFF" height="626.0156" style="stroke:#181818;stroke-width:1.0;" width="10" x="254" y="81.8047"/><rect fill="#FFFFFF" height="28.5234" style="stroke:#181818;stroke-width:1.0;" width="10" x="413.5" y="110.3281"/><rect fill="#FFFFFF" height="28.5234" style="stroke:#181818;stroke-width:1.0;" width="10" x="520.5" y="167.375"/><rect fill="#FFFFFF" height="454.875" style="stroke:#181818;stroke-width:1.0;" width="10" x="737" y="224.4219"/><rect fill="#FFFFFF" height="426.3516" style="stroke:#181818;stroke-width:1.0;" width="10" x="1043" y="252.9453"/><rect fill="#FFFFFF" height="34.5234" style="stroke:#181818;stroke-width:1.0;" width="10" x="1360" y="281.4688"/><rect fill="#FFFFFF" height="34.5234" style="stroke:#181818;stroke-width:1.0;" width="10" x="1360" y="351.5156"/><rect fill="#FFFFFF" height="30" style="stroke:#181818;stroke-width:1.0;" width="10" x="1360" y="421.5625"/><rect fill="#FFFFFF" height="30" style="stroke:#181818;stroke-width:1.0;" width="10" x="1360" y="480.0859"/><rect fill="#FFFFFF" height="30" style="stroke:#181818;stroke-width:1.0;" width="10" x="1360" y="538.6094"/><line style="stroke:#181818;stroke-width:0.5;stroke-dasharray:5.0,5.0;" x1="259" x2="259" y1="51.2813" y2="725.8203"/><line style="stroke:#181818;stroke-width:0.5;stroke-dasharray:5.0,5.0;" x1="418" x2="418" y1="51.2813" y2="725.8203"/><line style="stroke:#181818;stroke-width:0.5;stroke-dasharray:5.0,5.0;" x1="525" x2="525" y1="51.2813" y2="725.8203"/><line style="stroke:#181818;stroke-width:0.5;stroke-dasharray:5.0,5.0;" x1="742" x2="742" y1="51.2813" y2="725.8203"/><line style="stroke:#181818;stroke-width:0.5;stroke-dasharray:5.0,5.0;" x1="1048" x2="1048" y1="51.2813" y2="725.8203"/><line style="stroke:#181818;stroke-width:0.5;stroke-dasharray:5.0,5.0;" x1="1365" x2="1365" y1="51.2813" y2="725.8203"/><line style="stroke:#181818;stroke-width:0.5;stroke-dasharray:5.0,5.0;" x1="1611" x2="1611" y1="606.9297" y2="725.8203"/><rect fill="#E3E3E3" height="29.6406" rx="2.5" ry="2.5" style="stroke:#181818;stroke-width:0.5;" width="202" x="158" y="20.6406"/><text fill="#000000" font-family="sans-serif" font-size="14" lengthAdjust="spacing" textLength="188" x="165" y="40.3145">:CreateVisitRequestController</text><rect fill="#E3E3E3" height="29.6406" rx="2.5" ry="2.5" style="stroke:#181818;stroke-width:0.5;" width="202" x="158" y="724.8203"/><text fill="#000000" font-family="sans-serif" font-size="14" lengthAdjust="spacing" textLength="188" x="165" y="744.4941">:CreateVisitRequestController</text><rect fill="#E3E3E3" height="29.6406" rx="2.5" ry="2.5" style="stroke:#181818;stroke-width:0.5;" width="97" x="370" y="20.6406"/><text fill="#000000" font-family="sans-serif" font-size="14" lengthAdjust="spacing" textLength="83" x="377" y="40.3145">:Repositories</text><rect fill="#E3E3E3" height="29.6406" rx="2.5" ry="2.5" style="stroke:#181818;stroke-width:0.5;" width="97" x="370" y="724.8203"/><text fill="#000000" font-family="sans-serif" font-size="14" lengthAdjust="spacing" textLength="83" x="377" y="744.4941">:Repositories</text><rect fill="#E3E3E3" height="45.2813" rx="2.5" ry="2.5" style="stroke:#181818;stroke-width:0.5;" width="97" x="477" y="5"/><text fill="#000000" font-family="sans-serif" font-size="14" lengthAdjust="spacing" textLength="79" x="486" y="24.6738">Repositories</text><text fill="#000000" font-family="sans-serif" font-size="14" lengthAdjust="spacing" textLength="83" x="484" y="40.3145">:Repositories</text><rect fill="#E3E3E3" height="45.2813" rx="2.5" ry="2.5" style="stroke:#181818;stroke-width:0.5;" width="97" x="477" y="724.8203"/><text fill="#000000" font-family="sans-serif" font-size="14" lengthAdjust="spacing" textLength="79" x="486" y="744.4941">Repositories</text><text fill="#000000" font-family="sans-serif" font-size="14" lengthAdjust="spacing" textLength="83" x="484" y="760.1348">:Repositories</text><rect fill="#E3E3E3" height="29.6406" rx="2.5" ry="2.5" style="stroke:#181818;stroke-width:0.5;" width="316" x="584" y="20.6406"/><text fill="#000000" font-family="sans-serif" font-size="14" lengthAdjust="spacing" textLength="302" x="591" y="40.3145">VisitRequestRepository:\VisitRequestRepository</text><rect fill="#E3E3E3" height="29.6406" rx="2.5" ry="2.5" style="stroke:#181818;stroke-width:0.5;" width="316" x="584" y="724.8203"/><text fill="#000000" font-family="sans-serif" font-size="14" lengthAdjust="spacing" textLength="302" x="591" y="744.4941">VisitRequestRepository:\VisitRequestRepository</text><rect fill="#E3E3E3" height="29.6406" rx="2.5" ry="2.5" style="stroke:#181818;stroke-width:0.5;" width="276" x="910" y="20.6406"/><text fill="#000000" font-family="sans-serif" font-size="14" lengthAdjust="spacing" textLength="262" x="917" y="40.3145">VisitRequestMapper:\VisitRequestMapper</text><rect fill="#E3E3E3" height="29.6406" rx="2.5" ry="2.5" style="stroke:#181818;stroke-width:0.5;" width="276" x="910" y="724.8203"/><text fill="#000000" font-family="sans-serif" font-size="14" lengthAdjust="spacing" textLength="262" x="917" y="744.4941">VisitRequestMapper:\VisitRequestMapper</text><rect fill="#E3E3E3" height="29.6406" rx="2.5" ry="2.5" style="stroke:#181818;stroke-width:0.5;" width="240" x="1245" y="20.6406"/><text fill="#000000" font-family="sans-serif" font-size="14" lengthAdjust="spacing" textLength="226" x="1252" y="40.3145">VisitRequestDTO:\VisitRequestDTO</text><rect fill="#E3E3E3" height="29.6406" rx="2.5" ry="2.5" style="stroke:#181818;stroke-width:0.5;" width="240" x="1245" y="724.8203"/><text fill="#000000" font-family="sans-serif" font-size="14" lengthAdjust="spacing" textLength="226" x="1252" y="744.4941">VisitRequestDTO:\VisitRequestDTO</text><rect fill="#E3E3E3" height="29.6406" rx="2.5" ry="2.5" style="stroke:#181818;stroke-width:0.5;" width="180" x="1521" y="724.8203"/><text fill="#000000" font-family="sans-serif" font-size="14" lengthAdjust="spacing" textLength="166" x="1528" y="744.4941">VisitRequest:\VisitRequest</text><rect fill="#FFFFFF" height="626.0156" style="stroke:#181818;stroke-width:1.0;" width="10" x="254" y="81.8047"/><rect fill="#FFFFFF" height="28.5234" style="stroke:#181818;stroke-width:1.0;" width="10" x="413.5" y="110.3281"/><rect fill="#FFFFFF" height="28.5234" style="stroke:#181818;stroke-width:1.0;" width="10" x="520.5" y="167.375"/><rect fill="#FFFFFF" height="454.875" style="stroke:#181818;stroke-width:1.0;" width="10" x="737" y="224.4219"/><rect fill="#FFFFFF" height="426.3516" style="stroke:#181818;stroke-width:1.0;" width="10" x="1043" y="252.9453"/><rect fill="#FFFFFF" height="34.5234" style="stroke:#181818;stroke-width:1.0;" width="10" x="1360" y="281.4688"/><rect fill="#FFFFFF" height="34.5234" style="stroke:#181818;stroke-width:1.0;" width="10" x="1360" y="351.5156"/><rect fill="#FFFFFF" height="30" style="stroke:#181818;stroke-width:1.0;" width="10" x="1360" y="421.5625"/><rect fill="#FFFFFF" height="30" style="stroke:#181818;stroke-width:1.0;" width="10" x="1360" y="480.0859"/><rect fill="#FFFFFF" height="30" style="stroke:#181818;stroke-width:1.0;" width="10" x="1360" y="538.6094"/><polygon fill="#181818" points="242,77.8047,252,81.8047,242,85.8047,246,81.8047" style="stroke:#181818;stroke-width:1.0;"/><line style="stroke:#181818;stroke-width:1.0;" x1="0" x2="248" y1="81.8047" y2="81.8047"/><text fill="#000000" font-family="sans-serif" font-size="13" font-weight="bold" lengthAdjust="spacing" textLength="7" x="7" y="77.0498">1</text><text fill="#000000" font-family="sans-serif" font-size="13" lengthAdjust="spacing" textLength="224" x="18" y="77.0498">CreateVisitRequest (VisitRequestDTO)</text><polygon fill="#181818" points="401.5,106.3281,411.5,110.3281,401.5,114.3281,405.5,110.3281" style="stroke:#181818;stroke-width:1.0;"/><line style="stroke:#181818;stroke-width:1.0;" x1="264" x2="407.5" y1="110.3281" y2="110.3281"/><text fill="#000000" font-family="sans-serif" font-size="13" font-weight="bold" lengthAdjust="spacing" textLength="7" x="271" y="105.5732">2</text><text fill="#000000" font-family="sans-serif" font-size="13" lengthAdjust="spacing" textLength="75" x="282" y="105.5732">getInstance()</text><polygon fill="#181818" points="275,134.8516,265,138.8516,275,142.8516,271,138.8516" style="stroke:#181818;stroke-width:1.0;"/><line style="stroke:#181818;stroke-width:1.0;stroke-dasharray:2.0,2.0;" x1="269" x2="417.5" y1="138.8516" y2="138.8516"/><text fill="#000000" font-family="sans-serif" font-size="13" font-weight="bold" lengthAdjust="spacing" textLength="7" x="281" y="134.0967">3</text><text fill="#000000" font-family="sans-serif" font-size="13" lengthAdjust="spacing" textLength="67" x="292" y="134.0967">repositories</text><polygon fill="#181818" points="508.5,163.375,518.5,167.375,508.5,171.375,512.5,167.375" style="stroke:#181818;stroke-width:1.0;"/><line style="stroke:#181818;stroke-width:1.0;" x1="264" x2="514.5" y1="167.375" y2="167.375"/><text fill="#000000" font-family="sans-serif" font-size="13" font-weight="bold" lengthAdjust="spacing" textLength="7" x="271" y="162.6201">4</text><text fill="#000000" font-family="sans-serif" font-size="13" lengthAdjust="spacing" textLength="162" x="282" y="162.6201">getVisitRequestRepository()</text><polygon fill="#181818" points="275,191.8984,265,195.8984,275,199.8984,271,195.8984" style="stroke:#181818;stroke-width:1.0;"/><line style="stroke:#181818;stroke-width:1.0;stroke-dasharray:2.0,2.0;" x1="269" x2="524.5" y1="195.8984" y2="195.8984"/><text fill="#000000" font-family="sans-serif" font-size="13" font-weight="bold" lengthAdjust="spacing" textLength="7" x="281" y="191.1436">5</text><text fill="#000000" font-family="sans-serif" font-size="13" lengthAdjust="spacing" textLength="136" x="292" y="191.1436">RequestVisitRepository</text><polygon fill="#181818" points="725,220.4219,735,224.4219,725,228.4219,729,224.4219" style="stroke:#181818;stroke-width:1.0;"/><line style="stroke:#181818;stroke-width:1.0;" x1="264" x2="731" y1="224.4219" y2="224.4219"/><text fill="#000000" font-family="sans-serif" font-size="13" font-weight="bold" lengthAdjust="spacing" textLength="7" x="271" y="219.667">6</text><text fill="#000000" font-family="sans-serif" font-size="13" lengthAdjust="spacing" textLength="222" x="282" y="219.667">createVisitRequest (VisitRequestDTO)</text><polygon fill="#181818" points="1031,248.9453,1041,252.9453,1031,256.9453,1035,252.9453" style="stroke:#181818;stroke-width:1.0;"/><line style="stroke:#181818;stroke-width:1.0;" x1="747" x2="1037" y1="252.9453" y2="252.9453"/><text fill="#000000" font-family="sans-serif" font-size="13" font-weight="bold" lengthAdjust="spacing" textLength="7" x="754" y="248.1904">7</text><text fill="#000000" font-family="sans-serif" font-size="13" lengthAdjust="spacing" textLength="153" x="765" y="248.1904">toEntity(VisitRequestDTO)</text><polygon fill="#181818" points="1348,277.4688,1358,281.4688,1348,285.4688,1352,281.4688" style="stroke:#181818;stroke-width:1.0;"/><line style="stroke:#181818;stroke-width:1.0;stroke-dasharray:2.0,2.0;" x1="1053" x2="1354" y1="281.4688" y2="281.4688"/><text fill="#000000" font-family="sans-serif" font-size="13" font-weight="bold" lengthAdjust="spacing" textLength="7" x="1060" y="276.7139">8</text><text fill="#000000" font-family="sans-serif" font-size="13" lengthAdjust="spacing" textLength="164" x="1071" y="276.7139">propertyDTO = getProperty()</text><line style="stroke:#181818;stroke-width:1.0;stroke-dasharray:2.0,2.0;" x1="1053" x2="1095" y1="314.9922" y2="314.9922"/><line style="stroke:#181818;stroke-width:1.0;stroke-dasharray:2.0,2.0;" x1="1095" x2="1095" y1="314.9922" y2="327.9922"/><line style="stroke:#181818;stroke-width:1.0;stroke-dasharray:2.0,2.0;" x1="1048" x2="1095" y1="327.9922" y2="327.9922"/><polygon fill="#181818" points="1058,323.9922,1048,327.9922,1058,331.9922,1054,327.9922" style="stroke:#181818;stroke-width:1.0;"/><text fill="#000000" font-family="sans-serif" font-size="13" font-weight="bold" lengthAdjust="spacing" textLength="7" x="1060" y="310.2373">9</text><text fill="#000000" font-family="sans-serif" font-size="13" lengthAdjust="spacing" textLength="260" x="1071" y="310.2373">convertPropertyDTOToProperty(propertyDTO)</text><polygon fill="#181818" points="1348,347.5156,1358,351.5156,1348,355.5156,1352,351.5156" style="stroke:#181818;stroke-width:1.0;"/><line style="stroke:#181818;stroke-width:1.0;stroke-dasharray:2.0,2.0;" x1="1053" x2="1354" y1="351.5156" y2="351.5156"/><text fill="#000000" font-family="sans-serif" font-size="13" font-weight="bold" lengthAdjust="spacing" textLength="14" x="1060" y="346.7607">10</text><text fill="#000000" font-family="sans-serif" font-size="13" lengthAdjust="spacing" textLength="198" x="1078" y="346.7607">preferredDate = getPreferredDate()</text><line style="stroke:#181818;stroke-width:1.0;stroke-dasharray:2.0,2.0;" x1="1053" x2="1095" y1="385.0391" y2="385.0391"/><line style="stroke:#181818;stroke-width:1.0;stroke-dasharray:2.0,2.0;" x1="1095" x2="1095" y1="385.0391" y2="398.0391"/><line style="stroke:#181818;stroke-width:1.0;stroke-dasharray:2.0,2.0;" x1="1048" x2="1095" y1="398.0391" y2="398.0391"/><polygon fill="#181818" points="1058,394.0391,1048,398.0391,1058,402.0391,1054,398.0391" style="stroke:#181818;stroke-width:1.0;"/><text fill="#000000" font-family="sans-serif" font-size="13" font-weight="bold" lengthAdjust="spacing" textLength="14" x="1060" y="380.2842">11</text><text fill="#000000" font-family="sans-serif" font-size="13" lengthAdjust="spacing" textLength="261" x="1078" y="380.2842">DateTimeDTOToDateformatted(preferredDate)</text><polygon fill="#181818" points="1348,417.5625,1358,421.5625,1348,425.5625,1352,421.5625" style="stroke:#181818;stroke-width:1.0;"/><line style="stroke:#181818;stroke-width:1.0;stroke-dasharray:2.0,2.0;" x1="1053" x2="1354" y1="421.5625" y2="421.5625"/><text fill="#000000" font-family="sans-serif" font-size="13" font-weight="bold" lengthAdjust="spacing" textLength="14" x="1060" y="416.8076">12</text><text fill="#000000" font-family="sans-serif" font-size="13" lengthAdjust="spacing" textLength="141" x="1078" y="416.8076">timeSlot = getTimeSlot()</text><polygon fill="#181818" points="1348,476.0859,1358,480.0859,1348,484.0859,1352,480.0859" style="stroke:#181818;stroke-width:1.0;"/><line style="stroke:#181818;stroke-width:1.0;stroke-dasharray:2.0,2.0;" x1="1053" x2="1354" y1="480.0859" y2="480.0859"/><text fill="#000000" font-family="sans-serif" font-size="13" font-weight="bold" lengthAdjust="spacing" textLength="14" x="1060" y="475.3311">13</text><text fill="#000000" font-family="sans-serif" font-size="13" lengthAdjust="spacing" textLength="174" x="1078" y="475.3311">clientName = getClientName()</text><polygon fill="#181818" points="1348,534.6094,1358,538.6094,1348,542.6094,1352,538.6094" style="stroke:#181818;stroke-width:1.0;"/><line style="stroke:#181818;stroke-width:1.0;stroke-dasharray:2.0,2.0;" x1="1053" x2="1354" y1="538.6094" y2="538.6094"/><text fill="#000000" font-family="sans-serif" font-size="13" font-weight="bold" lengthAdjust="spacing" textLength="14" x="1060" y="533.8545">14</text><text fill="#000000" font-family="sans-serif" font-size="13" lengthAdjust="spacing" textLength="270" x="1078" y="533.8545">clientPhoneNumber = getClientPhoneNumber()</text><polygon fill="#181818" points="1509,593.1328,1519,597.1328,1509,601.1328,1513,597.1328" style="stroke:#181818;stroke-width:1.0;"/><line style="stroke:#181818;stroke-width:1.0;stroke-dasharray:2.0,2.0;" x1="1053" x2="1515" y1="597.1328" y2="597.1328"/><text fill="#000000" font-family="sans-serif" font-size="13" font-weight="bold" lengthAdjust="spacing" textLength="14" x="1060" y="592.3779">15</text><text fill="#000000" font-family="sans-serif" font-size="13" lengthAdjust="spacing" textLength="426" x="1078" y="592.3779">create(property, preferredDate, timeSlot, clientName, clientPhoneNumber)</text><rect fill="#E3E3E3" height="29.6406" rx="2.5" ry="2.5" style="stroke:#181818;stroke-width:0.5;" width="180" x="1521" y="576.6094"/><text fill="#000000" font-family="sans-serif" font-size="14" lengthAdjust="spacing" textLength="166" x="1528" y="596.2832">VisitRequest:\VisitRequest</text><line style="stroke:#181818;stroke-width:1.0;stroke-dasharray:2.0,2.0;" x1="747" x2="789" y1="637.7734" y2="637.7734"/><line style="stroke:#181818;stroke-width:1.0;stroke-dasharray:2.0,2.0;" x1="789" x2="789" y1="637.7734" y2="650.7734"/><line style="stroke:#181818;stroke-width:1.0;stroke-dasharray:2.0,2.0;" x1="748" x2="789" y1="650.7734" y2="650.7734"/><polygon fill="#181818" points="758,646.7734,748,650.7734,758,654.7734,754,650.7734" style="stroke:#181818;stroke-width:1.0;"/><text fill="#000000" font-family="sans-serif" font-size="13" font-weight="bold" lengthAdjust="spacing" textLength="14" x="754" y="633.0186">16</text><text fill="#000000" font-family="sans-serif" font-size="13" lengthAdjust="spacing" textLength="229" x="772" y="633.0186">validateVisitRequest (VisitRequestDTO)</text><polygon fill="#181818" points="275,675.2969,265,679.2969,275,683.2969,271,679.2969" style="stroke:#181818;stroke-width:1.0;"/><line style="stroke:#181818;stroke-width:1.0;stroke-dasharray:2.0,2.0;" x1="269" x2="741" y1="679.2969" y2="679.2969"/><text fill="#000000" font-family="sans-serif" font-size="13" font-weight="bold" lengthAdjust="spacing" textLength="14" x="281" y="674.542">17</text><text fill="#000000" font-family="sans-serif" font-size="13" lengthAdjust="spacing" textLength="78" x="299" y="674.542">wasAccepted</text><polygon fill="#181818" points="11,703.8203,1,707.8203,11,711.8203,7,707.8203" style="stroke:#181818;stroke-width:1.0;"/><line style="stroke:#181818;stroke-width:1.0;stroke-dasharray:2.0,2.0;" x1="5" x2="258" y1="707.8203" y2="707.8203"/><text fill="#000000" font-family="sans-serif" font-size="13" font-weight="bold" lengthAdjust="spacing" textLength="14" x="17" y="703.0654">18</text><text fill="#000000" font-family="sans-serif" font-size="13" lengthAdjust="spacing" textLength="78" x="35" y="703.0654">wasAccepted</text><!--SRC=[jLJDZjem4BxdAQoz55QatAEsqehjeT9cYqAqfxsupW3M9dPg3wnu-zh693OaY7RLdEBnV3-U6VlJ5h7LsNpUrbJWhga_CzdCDVpUWM2GLfnk56qI_SP5IyqVQQIGRAja0mJL3eATbh8tke4L7ceW2XXIiQd31BsbbNpdOaFMjDQG92QCdF7MA9ExRA608hnmpR6m-XeNKg2ITGtgZb1D5cNnT8Ofe9KcNoeEskLqWSEAMtcK8eQ4Y5TnIR1yUYXZHEYefyzUX-EEvAKenZboshQWOlmnvh7vEFQn_1a3JS2ZpDyuBWPvH98aT6SAj6j-WKhIRwx092ENZI2JCysfmHB_KOPyRm37_dHX-pb2GppG5QEp0VmXj1aJ1fEGC28TQcYKESIT-iDaPWxx_aQm2cwNE1t3piRHzt3lpIa6p-1cAjfoJ6bVSa_bQKzyOuQFVD5kvz6C7idOBHqa8rydOwSuLh7aJYCd6Shl0ZaUhXC7P7cqSSQRksguAJRbQ9Kqrm4FTlNLrdlf0vDHTZl-mvJ6As5Ix0r-sVEMikCCrAPZ9RycSF8CQr0AgaURxrq7eN-rRh4bRy1vjekrL0r5X6eIINx0EXhwLItnwBhqgziD_vKOgpa8VAQDBzAYM_zNmULM2dXsJrse6uG_81_Tabx__jxAkxlO3Tai7fHPL_nPK9dPfUdfcKRXDSnj9tjQy-g69viCCFW7w9tg1yQWDMCrVjHyVAlesR-awJNM06Qp_W00]--></g></svg>