<?xml version="1.0" encoding="us-ascii" standalone="no"?><svg xmlns="http://www.w3.org/2000/svg" xmlns:xlink="http://www.w3.org/1999/xlink" contentStyleType="text/css" height="543.2px" preserveAspectRatio="none" style="width:1197px;height:543px;background:#FFFFFF;" version="1.1" viewBox="0 0 1197 543" width="1197.7px" zoomAndPan="magnify"><defs/><g><rect fill="#FFFFFF" height="438.2109" style="stroke:#181818;stroke-width:0.6999999999999998;" width="7" x="180.6" y="57.2633"/><rect fill="#FFFFFF" height="19.9664" style="stroke:#181818;stroke-width:0.6999999999999998;" width="7" x="292.25" y="77.2297"/><rect fill="#FFFFFF" height="19.9664" style="stroke:#181818;stroke-width:0.6999999999999998;" width="7" x="367.15" y="117.1625"/><rect fill="#FFFFFF" height="318.4125" style="stroke:#181818;stroke-width:0.6999999999999998;" width="7" x="518.7" y="157.0953"/><rect fill="#FFFFFF" height="298.4461" style="stroke:#181818;stroke-width:0.6999999999999998;" width="7" x="732.9" y="177.0617"/><rect fill="#FFFFFF" height="24.1664" style="stroke:#181818;stroke-width:0.6999999999999998;" width="7" x="954.8" y="197.0281"/><rect fill="#FFFFFF" height="24.1664" style="stroke:#181818;stroke-width:0.6999999999999998;" width="7" x="954.8" y="246.0609"/><rect fill="#FFFFFF" height="21" style="stroke:#181818;stroke-width:0.6999999999999998;" width="7" x="954.8" y="295.0937"/><rect fill="#FFFFFF" height="21" style="stroke:#181818;stroke-width:0.6999999999999998;" width="7" x="954.8" y="336.0602"/><rect fill="#FFFFFF" height="21" style="stroke:#181818;stroke-width:0.6999999999999998;" width="7" x="954.8" y="377.0266"/><line style="stroke:#181818;stroke-width:0.3499999999999999;stroke-dasharray:5.0,5.0;" x1="184.1" x2="184.1" y1="35.8969" y2="508.0742"/><line style="stroke:#181818;stroke-width:0.3499999999999999;stroke-dasharray:5.0,5.0;" x1="295.4" x2="295.4" y1="35.8969" y2="508.0742"/><line style="stroke:#181818;stroke-width:0.3499999999999999;stroke-dasharray:5.0,5.0;" x1="370.3" x2="370.3" y1="35.8969" y2="508.0742"/><line style="stroke:#181818;stroke-width:0.3499999999999999;stroke-dasharray:5.0,5.0;" x1="522.2" x2="522.2" y1="35.8969" y2="508.0742"/><line style="stroke:#181818;stroke-width:0.3499999999999999;stroke-dasharray:5.0,5.0;" x1="736.4" x2="736.4" y1="35.8969" y2="508.0742"/><line style="stroke:#181818;stroke-width:0.3499999999999999;stroke-dasharray:5.0,5.0;" x1="958.3" x2="958.3" y1="35.8969" y2="508.0742"/><line style="stroke:#181818;stroke-width:0.3499999999999999;stroke-dasharray:5.0,5.0;" x1="1130.5" x2="1130.5" y1="424.8508" y2="508.0742"/><rect fill="#E3E3E3" height="20.7484" rx="1.75" ry="1.75" style="stroke:#181818;stroke-width:0.3499999999999999;" width="141.4" x="113.4" y="14.4484"/><text fill="#000000" font-family="sans-serif" font-size="9.8" lengthAdjust="spacing" textLength="131.6" x="118.3" y="28.2201">:CreateVisitRequestController</text><rect fill="#E3E3E3" height="20.7484" rx="1.75" ry="1.75" style="stroke:#181818;stroke-width:0.3499999999999999;" width="141.4" x="113.4" y="507.3742"/><text fill="#000000" font-family="sans-serif" font-size="9.8" lengthAdjust="spacing" textLength="131.6" x="118.3" y="521.1459">:CreateVisitRequestController</text><rect fill="#E3E3E3" height="20.7484" rx="1.75" ry="1.75" style="stroke:#181818;stroke-width:0.3499999999999999;" width="67.9" x="261.8" y="14.4484"/><text fill="#000000" font-family="sans-serif" font-size="9.8" lengthAdjust="spacing" textLength="58.1" x="266.7" y="28.2201">:Repositories</text><rect fill="#E3E3E3" height="20.7484" rx="1.75" ry="1.75" style="stroke:#181818;stroke-width:0.3499999999999999;" width="67.9" x="261.8" y="507.3742"/><text fill="#000000" font-family="sans-serif" font-size="9.8" lengthAdjust="spacing" textLength="58.1" x="266.7" y="521.1459">:Repositories</text><rect fill="#E3E3E3" height="31.6969" rx="1.75" ry="1.75" style="stroke:#181818;stroke-width:0.3499999999999999;" width="67.9" x="336.7" y="3.5"/><text fill="#000000" font-family="sans-serif" font-size="9.8" lengthAdjust="spacing" textLength="55.3" x="343" y="17.2717">Repositories</text><text fill="#000000" font-family="sans-serif" font-size="9.8" lengthAdjust="spacing" textLength="58.1" x="341.6" y="28.2201">:Repositories</text><rect fill="#E3E3E3" height="31.6969" rx="1.75" ry="1.75" style="stroke:#181818;stroke-width:0.3499999999999999;" width="67.9" x="336.7" y="507.3742"/><text fill="#000000" font-family="sans-serif" font-size="9.8" lengthAdjust="spacing" textLength="55.3" x="343" y="521.1459">Repositories</text><text fill="#000000" font-family="sans-serif" font-size="9.8" lengthAdjust="spacing" textLength="58.1" x="341.6" y="532.0943">:Repositories</text><rect fill="#E3E3E3" height="20.7484" rx="1.75" ry="1.75" style="stroke:#181818;stroke-width:0.3499999999999999;" width="221.2" x="411.6" y="14.4484"/><text fill="#000000" font-family="sans-serif" font-size="9.8" lengthAdjust="spacing" textLength="211.4" x="416.5" y="28.2201">VisitRequestRepository:\VisitRequestRepository</text><rect fill="#E3E3E3" height="20.7484" rx="1.75" ry="1.75" style="stroke:#181818;stroke-width:0.3499999999999999;" width="221.2" x="411.6" y="507.3742"/><text fill="#000000" font-family="sans-serif" font-size="9.8" lengthAdjust="spacing" textLength="211.4" x="416.5" y="521.1459">VisitRequestRepository:\VisitRequestRepository</text><rect fill="#E3E3E3" height="20.7484" rx="1.75" ry="1.75" style="stroke:#181818;stroke-width:0.3499999999999999;" width="193.2" x="639.8" y="14.4484"/><text fill="#000000" font-family="sans-serif" font-size="9.8" lengthAdjust="spacing" textLength="183.4" x="644.7" y="28.2201">VisitRequestMapper:\VisitRequestMapper</text><rect fill="#E3E3E3" height="20.7484" rx="1.75" ry="1.75" style="stroke:#181818;stroke-width:0.3499999999999999;" width="193.2" x="639.8" y="507.3742"/><text fill="#000000" font-family="sans-serif" font-size="9.8" lengthAdjust="spacing" textLength="183.4" x="644.7" y="521.1459">VisitRequestMapper:\VisitRequestMapper</text><rect fill="#E3E3E3" height="20.7484" rx="1.75" ry="1.75" style="stroke:#181818;stroke-width:0.3499999999999999;" width="168" x="874.3" y="14.4484"/><text fill="#000000" font-family="sans-serif" font-size="9.8" lengthAdjust="spacing" textLength="158.2" x="879.2" y="28.2201">VisitRequestDTO:\VisitRequestDTO</text><rect fill="#E3E3E3" height="20.7484" rx="1.75" ry="1.75" style="stroke:#181818;stroke-width:0.3499999999999999;" width="168" x="874.3" y="507.3742"/><text fill="#000000" font-family="sans-serif" font-size="9.8" lengthAdjust="spacing" textLength="158.2" x="879.2" y="521.1459">VisitRequestDTO:\VisitRequestDTO</text><rect fill="#E3E3E3" height="20.7484" rx="1.75" ry="1.75" style="stroke:#181818;stroke-width:0.3499999999999999;" width="126" x="1067.5" y="507.3742"/><text fill="#000000" font-family="sans-serif" font-size="9.8" lengthAdjust="spacing" textLength="116.2" x="1072.4" y="521.1459">VisitRequest:\VisitRequest</text><rect fill="#FFFFFF" height="438.2109" style="stroke:#181818;stroke-width:0.6999999999999998;" width="7" x="180.6" y="57.2633"/><rect fill="#FFFFFF" height="19.9664" style="stroke:#181818;stroke-width:0.6999999999999998;" width="7" x="292.25" y="77.2297"/><rect fill="#FFFFFF" height="19.9664" style="stroke:#181818;stroke-width:0.6999999999999998;" width="7" x="367.15" y="117.1625"/><rect fill="#FFFFFF" height="318.4125" style="stroke:#181818;stroke-width:0.6999999999999998;" width="7" x="518.7" y="157.0953"/><rect fill="#FFFFFF" height="298.4461" style="stroke:#181818;stroke-width:0.6999999999999998;" width="7" x="732.9" y="177.0617"/><rect fill="#FFFFFF" height="24.1664" style="stroke:#181818;stroke-width:0.6999999999999998;" width="7" x="954.8" y="197.0281"/><rect fill="#FFFFFF" height="24.1664" style="stroke:#181818;stroke-width:0.6999999999999998;" width="7" x="954.8" y="246.0609"/><rect fill="#FFFFFF" height="21" style="stroke:#181818;stroke-width:0.6999999999999998;" width="7" x="954.8" y="295.0937"/><rect fill="#FFFFFF" height="21" style="stroke:#181818;stroke-width:0.6999999999999998;" width="7" x="954.8" y="336.0602"/><rect fill="#FFFFFF" height="21" style="stroke:#181818;stroke-width:0.6999999999999998;" width="7" x="954.8" y="377.0266"/><polygon fill="#181818" points="172.2,54.4633,179.2,57.2633,172.2,60.0633,175,57.2633" style="stroke:#181818;stroke-width:0.6999999999999998;"/><line style="stroke:#181818;stroke-width:0.6999999999999998;" x1="0" x2="176.4" y1="57.2633" y2="57.2633"/><text fill="#000000" font-family="sans-serif" font-size="9.1" font-weight="bold" lengthAdjust="spacing" textLength="4.9" x="4.9" y="53.9349">1</text><text fill="#000000" font-family="sans-serif" font-size="9.1" lengthAdjust="spacing" textLength="159.6" x="12.6" y="53.9349">CreateVisitRequest ((VisitRequestDTO)</text><polygon fill="#181818" points="283.85,74.4297,290.85,77.2297,283.85,80.0297,286.65,77.2297" style="stroke:#181818;stroke-width:0.6999999999999998;"/><line style="stroke:#181818;stroke-width:0.6999999999999998;" x1="187.6" x2="288.05" y1="77.2297" y2="77.2297"/><text fill="#000000" font-family="sans-serif" font-size="9.1" font-weight="bold" lengthAdjust="spacing" textLength="4.9" x="192.5" y="73.9013">2</text><text fill="#000000" font-family="sans-serif" font-size="9.1" lengthAdjust="spacing" textLength="52.5" x="200.2" y="73.9013">getInstance()</text><polygon fill="#181818" points="195.3,94.3961,188.3,97.1961,195.3,99.9961,192.5,97.1961" style="stroke:#181818;stroke-width:0.6999999999999998;"/><line style="stroke:#181818;stroke-width:0.6999999999999998;stroke-dasharray:2.0,2.0;" x1="191.1" x2="295.05" y1="97.1961" y2="97.1961"/><text fill="#000000" font-family="sans-serif" font-size="9.1" font-weight="bold" lengthAdjust="spacing" textLength="4.9" x="199.5" y="93.8677">3</text><text fill="#000000" font-family="sans-serif" font-size="9.1" lengthAdjust="spacing" textLength="46.9" x="207.2" y="93.8677">repositories</text><polygon fill="#181818" points="358.75,114.3625,365.75,117.1625,358.75,119.9625,361.55,117.1625" style="stroke:#181818;stroke-width:0.6999999999999998;"/><line style="stroke:#181818;stroke-width:0.6999999999999998;" x1="187.6" x2="362.95" y1="117.1625" y2="117.1625"/><text fill="#000000" font-family="sans-serif" font-size="9.1" font-weight="bold" lengthAdjust="spacing" textLength="4.9" x="192.5" y="113.8341">4</text><text fill="#000000" font-family="sans-serif" font-size="9.1" lengthAdjust="spacing" textLength="113.4" x="200.2" y="113.8341">getVisitRequestRepository()</text><polygon fill="#181818" points="195.3,134.3289,188.3,137.1289,195.3,139.9289,192.5,137.1289" style="stroke:#181818;stroke-width:0.6999999999999998;"/><line style="stroke:#181818;stroke-width:0.6999999999999998;stroke-dasharray:2.0,2.0;" x1="191.1" x2="369.95" y1="137.1289" y2="137.1289"/><text fill="#000000" font-family="sans-serif" font-size="9.1" font-weight="bold" lengthAdjust="spacing" textLength="4.9" x="199.5" y="133.8005">5</text><text fill="#000000" font-family="sans-serif" font-size="9.1" lengthAdjust="spacing" textLength="95.2" x="207.2" y="133.8005">RequestVisitRepository</text><polygon fill="#181818" points="510.3,154.2953,517.3,157.0953,510.3,159.8953,513.1,157.0953" style="stroke:#181818;stroke-width:0.6999999999999998;"/><line style="stroke:#181818;stroke-width:0.6999999999999998;" x1="187.6" x2="514.5" y1="157.0953" y2="157.0953"/><text fill="#000000" font-family="sans-serif" font-size="9.1" font-weight="bold" lengthAdjust="spacing" textLength="4.9" x="192.5" y="153.7669">6</text><text fill="#000000" font-family="sans-serif" font-size="9.1" lengthAdjust="spacing" textLength="155.4" x="200.2" y="153.7669">createVisitRequest (VisitRequestDTO)</text><polygon fill="#181818" points="724.5,174.2617,731.5,177.0617,724.5,179.8617,727.3,177.0617" style="stroke:#181818;stroke-width:0.6999999999999998;"/><line style="stroke:#181818;stroke-width:0.6999999999999998;" x1="525.7" x2="728.7" y1="177.0617" y2="177.0617"/><text fill="#000000" font-family="sans-serif" font-size="9.1" font-weight="bold" lengthAdjust="spacing" textLength="4.9" x="530.6" y="173.7333">7</text><text fill="#000000" font-family="sans-serif" font-size="9.1" lengthAdjust="spacing" textLength="107.1" x="538.3" y="173.7333">toEntity(VisitRequestDTO)</text><polygon fill="#181818" points="946.4,194.2281,953.4,197.0281,946.4,199.8281,949.2,197.0281" style="stroke:#181818;stroke-width:0.6999999999999998;"/><line style="stroke:#181818;stroke-width:0.6999999999999998;stroke-dasharray:2.0,2.0;" x1="739.9" x2="950.6" y1="197.0281" y2="197.0281"/><text fill="#000000" font-family="sans-serif" font-size="9.1" font-weight="bold" lengthAdjust="spacing" textLength="4.9" x="744.8" y="193.6997">8</text><text fill="#000000" font-family="sans-serif" font-size="9.1" lengthAdjust="spacing" textLength="114.8" x="752.5" y="193.6997">propertyDTO = getProperty()</text><line style="stroke:#181818;stroke-width:0.6999999999999998;stroke-dasharray:2.0,2.0;" x1="739.9" x2="769.3" y1="220.4945" y2="220.4945"/><line style="stroke:#181818;stroke-width:0.6999999999999998;stroke-dasharray:2.0,2.0;" x1="769.3" x2="769.3" y1="220.4945" y2="229.5945"/><line style="stroke:#181818;stroke-width:0.6999999999999998;stroke-dasharray:2.0,2.0;" x1="736.4" x2="769.3" y1="229.5945" y2="229.5945"/><polygon fill="#181818" points="743.4,226.7945,736.4,229.5945,743.4,232.3945,740.6,229.5945" style="stroke:#181818;stroke-width:0.6999999999999998;"/><text fill="#000000" font-family="sans-serif" font-size="9.1" font-weight="bold" lengthAdjust="spacing" textLength="4.9" x="744.8" y="217.1661">9</text><text fill="#000000" font-family="sans-serif" font-size="9.1" lengthAdjust="spacing" textLength="182" x="752.5" y="217.1661">convertPropertyDTOToProperty(propertyDTO)</text><polygon fill="#181818" points="946.4,243.2609,953.4,246.0609,946.4,248.8609,949.2,246.0609" style="stroke:#181818;stroke-width:0.6999999999999998;"/><line style="stroke:#181818;stroke-width:0.6999999999999998;stroke-dasharray:2.0,2.0;" x1="739.9" x2="950.6" y1="246.0609" y2="246.0609"/><text fill="#000000" font-family="sans-serif" font-size="9.1" font-weight="bold" lengthAdjust="spacing" textLength="9.8" x="744.8" y="242.7325">10</text><text fill="#000000" font-family="sans-serif" font-size="9.1" lengthAdjust="spacing" textLength="138.6" x="757.4" y="242.7325">preferredDate = getPreferredDate()</text><line style="stroke:#181818;stroke-width:0.6999999999999998;stroke-dasharray:2.0,2.0;" x1="739.9" x2="769.3" y1="269.5273" y2="269.5273"/><line style="stroke:#181818;stroke-width:0.6999999999999998;stroke-dasharray:2.0,2.0;" x1="769.3" x2="769.3" y1="269.5273" y2="278.6273"/><line style="stroke:#181818;stroke-width:0.6999999999999998;stroke-dasharray:2.0,2.0;" x1="736.4" x2="769.3" y1="278.6273" y2="278.6273"/><polygon fill="#181818" points="743.4,275.8273,736.4,278.6273,743.4,281.4273,740.6,278.6273" style="stroke:#181818;stroke-width:0.6999999999999998;"/><text fill="#000000" font-family="sans-serif" font-size="9.1" font-weight="bold" lengthAdjust="spacing" textLength="9.8" x="744.8" y="266.1989">11</text><text fill="#000000" font-family="sans-serif" font-size="9.1" lengthAdjust="spacing" textLength="182.7" x="757.4" y="266.1989">DateTimeDTOToDateformatted(preferredDate)</text><polygon fill="#181818" points="946.4,292.2937,953.4,295.0937,946.4,297.8937,949.2,295.0937" style="stroke:#181818;stroke-width:0.6999999999999998;"/><line style="stroke:#181818;stroke-width:0.6999999999999998;stroke-dasharray:2.0,2.0;" x1="739.9" x2="950.6" y1="295.0937" y2="295.0937"/><text fill="#000000" font-family="sans-serif" font-size="9.1" font-weight="bold" lengthAdjust="spacing" textLength="9.8" x="744.8" y="291.7653">12</text><text fill="#000000" font-family="sans-serif" font-size="9.1" lengthAdjust="spacing" textLength="98.7" x="757.4" y="291.7653">timeSlot = getTimeSlot()</text><polygon fill="#181818" points="946.4,333.2602,953.4,336.0602,946.4,338.8602,949.2,336.0602" style="stroke:#181818;stroke-width:0.6999999999999998;"/><line style="stroke:#181818;stroke-width:0.6999999999999998;stroke-dasharray:2.0,2.0;" x1="739.9" x2="950.6" y1="336.0602" y2="336.0602"/><text fill="#000000" font-family="sans-serif" font-size="9.1" font-weight="bold" lengthAdjust="spacing" textLength="9.8" x="744.8" y="332.7317">13</text><text fill="#000000" font-family="sans-serif" font-size="9.1" lengthAdjust="spacing" textLength="121.8" x="757.4" y="332.7317">clientName = getClientName()</text><polygon fill="#181818" points="946.4,374.2266,953.4,377.0266,946.4,379.8266,949.2,377.0266" style="stroke:#181818;stroke-width:0.6999999999999998;"/><line style="stroke:#181818;stroke-width:0.6999999999999998;stroke-dasharray:2.0,2.0;" x1="739.9" x2="950.6" y1="377.0266" y2="377.0266"/><text fill="#000000" font-family="sans-serif" font-size="9.1" font-weight="bold" lengthAdjust="spacing" textLength="9.8" x="744.8" y="373.6981">14</text><text fill="#000000" font-family="sans-serif" font-size="9.1" lengthAdjust="spacing" textLength="189" x="757.4" y="373.6981">clientPhoneNumber = getClientPhoneNumber()</text><polygon fill="#181818" points="1059.1,415.193,1066.1,417.993,1059.1,420.793,1061.9,417.993" style="stroke:#181818;stroke-width:0.6999999999999998;"/><line style="stroke:#181818;stroke-width:0.6999999999999998;stroke-dasharray:2.0,2.0;" x1="739.9" x2="1063.3" y1="417.993" y2="417.993"/><text fill="#000000" font-family="sans-serif" font-size="9.1" font-weight="bold" lengthAdjust="spacing" textLength="9.8" x="744.8" y="414.6646">15</text><text fill="#000000" font-family="sans-serif" font-size="9.1" lengthAdjust="spacing" textLength="298.2" x="757.4" y="414.6646">create(property, preferredDate, timeSlot, clientName, clientPhoneNumber)</text><rect fill="#E3E3E3" height="20.7484" rx="1.75" ry="1.75" style="stroke:#181818;stroke-width:0.3499999999999999;" width="126" x="1067.5" y="403.6266"/><text fill="#000000" font-family="sans-serif" font-size="9.8" lengthAdjust="spacing" textLength="116.2" x="1072.4" y="417.3982">VisitRequest:\VisitRequest</text><line style="stroke:#181818;stroke-width:0.6999999999999998;stroke-dasharray:2.0,2.0;" x1="525.7" x2="555.1" y1="446.4414" y2="446.4414"/><line style="stroke:#181818;stroke-width:0.6999999999999998;stroke-dasharray:2.0,2.0;" x1="555.1" x2="555.1" y1="446.4414" y2="455.5414"/><line style="stroke:#181818;stroke-width:0.6999999999999998;stroke-dasharray:2.0,2.0;" x1="526.4" x2="555.1" y1="455.5414" y2="455.5414"/><polygon fill="#181818" points="533.4,452.7414,526.4,455.5414,533.4,458.3414,530.6,455.5414" style="stroke:#181818;stroke-width:0.6999999999999998;"/><text fill="#000000" font-family="sans-serif" font-size="9.1" font-weight="bold" lengthAdjust="spacing" textLength="9.8" x="530.6" y="443.113">16</text><text fill="#000000" font-family="sans-serif" font-size="9.1" lengthAdjust="spacing" textLength="160.3" x="543.2" y="443.113">validateVisitRequest (VisitRequestDTO)</text><polygon fill="#181818" points="195.3,472.7078,188.3,475.5078,195.3,478.3078,192.5,475.5078" style="stroke:#181818;stroke-width:0.6999999999999998;"/><line style="stroke:#181818;stroke-width:0.6999999999999998;stroke-dasharray:2.0,2.0;" x1="191.1" x2="521.5" y1="475.5078" y2="475.5078"/><text fill="#000000" font-family="sans-serif" font-size="9.1" font-weight="bold" lengthAdjust="spacing" textLength="9.8" x="199.5" y="472.1794">17</text><text fill="#000000" font-family="sans-serif" font-size="9.1" lengthAdjust="spacing" textLength="54.6" x="212.1" y="472.1794">wasAccepted</text><polygon fill="#181818" points="7.7,492.6742,0.7,495.4742,7.7,498.2742,4.9,495.4742" style="stroke:#181818;stroke-width:0.6999999999999998;"/><line style="stroke:#181818;stroke-width:0.6999999999999998;stroke-dasharray:2.0,2.0;" x1="3.5" x2="183.4" y1="495.4742" y2="495.4742"/><text fill="#000000" font-family="sans-serif" font-size="9.1" font-weight="bold" lengthAdjust="spacing" textLength="9.8" x="11.9" y="492.1458">18</text><text fill="#000000" font-family="sans-serif" font-size="9.1" lengthAdjust="spacing" textLength="54.6" x="24.5" y="492.1458">wasAccepted</text><!--SRC=[jLHFRziW5B_xKw1UbbJnShUsILMwmwIwYnohfrueVabGRV3W9LM-_O0G6n8xwrQDatcytn_UU_ZJ5h7LsNpUrbJWhga_CzdCDVpQWM2GLfnk56qI_Sf5IyqNQQIGRAja0mJL3eAJbh9Nke4L7ceW2XXIiQd31BsbbNpZOaFMjDQG92QCdF7MA9ERRA608ZnnpR6m-XeNKg2ITGtgXb1D5cNnS8Ofe9KcNoeEskLqWSEAMtcK8eQ4Y6TnIR1yk2jZHEYefy-UX-EEvAaenZboshQWOlmnvh7vEFQ-_1a3JS2ZpDSuBWPvH98aT6SAj6jUG2NfDrTWaf7BHf39v4nqQi34BygGxmtYsA0kR9TZDCm3RJ526y0VGfivOJ092IFIeOv6cKFSgRzDPWQnRt04g-3z4gThsE4u-Xvklhd5u1tSK4L7ZYdjQ-wfFEs9RypmaIywxJoQsICP6sZXHGV9oEfax1Z7AfRSQUGaG_bT8CV3TUA0B8yEpdXpLmqtngOShPBcFU31xhxQUYzzO3BARkT_cD9u9KoAlS4lUzvITfo1sdIivDS4JfvX3Kf1TM_plUiWzA_MBRRa3JZFThEMgg68K4qYoGzOHqE_gYKUNPT-ztx3VoN6QWu27sdZYxJezlzLSBcL0XxTloxK3S8Va8zUIQz_UslbtLliXcmM3ygiA_uigCpiqlJqJAFm6kQrapsjUVNd1t_vbFiVq1lLTun1QyPg_Ahv-57Hitz9qski0Snc_GO0]--></g></svg>