<?xml version="1.0" encoding="us-ascii" standalone="no"?><svg xmlns="http://www.w3.org/2000/svg" xmlns:xlink="http://www.w3.org/1999/xlink" contentStyleType="text/css" height="391px" preserveAspectRatio="none" style="width:902px;height:391px;background:#FFFFFF;" version="1.1" viewBox="0 0 902 391" width="902px" zoomAndPan="magnify"><defs/><g><rect fill="#FFFFFF" height="241.1875" style="stroke:#181818;stroke-width:1.0;" width="10" x="218" y="81.8047"/><rect fill="#FFFFFF" height="28.5234" style="stroke:#181818;stroke-width:1.0;" width="10" x="377.5" y="110.3281"/><rect fill="#FFFFFF" height="28.5234" style="stroke:#181818;stroke-width:1.0;" width="10" x="484.5" y="167.375"/><rect fill="#FFFFFF" height="70.0469" style="stroke:#181818;stroke-width:1.0;" width="10" x="717" y="224.4219"/><line style="stroke:#181818;stroke-width:0.5;stroke-dasharray:5.0,5.0;" x1="223" x2="223" y1="51.2813" y2="340.9922"/><line style="stroke:#181818;stroke-width:0.5;stroke-dasharray:5.0,5.0;" x1="382" x2="382" y1="51.2813" y2="340.9922"/><line style="stroke:#181818;stroke-width:0.5;stroke-dasharray:5.0,5.0;" x1="489" x2="489" y1="51.2813" y2="340.9922"/><line style="stroke:#181818;stroke-width:0.5;stroke-dasharray:5.0,5.0;" x1="722" x2="722" y1="51.2813" y2="340.9922"/><rect fill="#E3E3E3" height="29.6406" rx="2.5" ry="2.5" style="stroke:#181818;stroke-width:0.5;" width="202" x="122" y="20.6406"/><text fill="#000000" font-family="sans-serif" font-size="14" lengthAdjust="spacing" textLength="188" x="129" y="40.3145">:CreateVisitRequestController</text><rect fill="#E3E3E3" height="29.6406" rx="2.5" ry="2.5" style="stroke:#181818;stroke-width:0.5;" width="202" x="122" y="339.9922"/><text fill="#000000" font-family="sans-serif" font-size="14" lengthAdjust="spacing" textLength="188" x="129" y="359.666">:CreateVisitRequestController</text><rect fill="#E3E3E3" height="29.6406" rx="2.5" ry="2.5" style="stroke:#181818;stroke-width:0.5;" width="97" x="334" y="20.6406"/><text fill="#000000" font-family="sans-serif" font-size="14" lengthAdjust="spacing" textLength="83" x="341" y="40.3145">:Repositories</text><rect fill="#E3E3E3" height="29.6406" rx="2.5" ry="2.5" style="stroke:#181818;stroke-width:0.5;" width="97" x="334" y="339.9922"/><text fill="#000000" font-family="sans-serif" font-size="14" lengthAdjust="spacing" textLength="83" x="341" y="359.666">:Repositories</text><rect fill="#E3E3E3" height="45.2813" rx="2.5" ry="2.5" style="stroke:#181818;stroke-width:0.5;" width="97" x="441" y="5"/><text fill="#000000" font-family="sans-serif" font-size="14" lengthAdjust="spacing" textLength="79" x="450" y="24.6738">Repositories</text><text fill="#000000" font-family="sans-serif" font-size="14" lengthAdjust="spacing" textLength="83" x="448" y="40.3145">:Repositories</text><rect fill="#E3E3E3" height="45.2813" rx="2.5" ry="2.5" style="stroke:#181818;stroke-width:0.5;" width="97" x="441" y="339.9922"/><text fill="#000000" font-family="sans-serif" font-size="14" lengthAdjust="spacing" textLength="79" x="450" y="359.666">Repositories</text><text fill="#000000" font-family="sans-serif" font-size="14" lengthAdjust="spacing" textLength="83" x="448" y="375.3066">:Repositories</text><rect fill="#E3E3E3" height="29.6406" rx="2.5" ry="2.5" style="stroke:#181818;stroke-width:0.5;" width="348" x="548" y="20.6406"/><text fill="#000000" font-family="sans-serif" font-size="14" lengthAdjust="spacing" textLength="334" x="555" y="40.3145">AnnouncementRepository:\AnnouncementRepository</text><rect fill="#E3E3E3" height="29.6406" rx="2.5" ry="2.5" style="stroke:#181818;stroke-width:0.5;" width="348" x="548" y="339.9922"/><text fill="#000000" font-family="sans-serif" font-size="14" lengthAdjust="spacing" textLength="334" x="555" y="359.666">AnnouncementRepository:\AnnouncementRepository</text><rect fill="#FFFFFF" height="241.1875" style="stroke:#181818;stroke-width:1.0;" width="10" x="218" y="81.8047"/><rect fill="#FFFFFF" height="28.5234" style="stroke:#181818;stroke-width:1.0;" width="10" x="377.5" y="110.3281"/><rect fill="#FFFFFF" height="28.5234" style="stroke:#181818;stroke-width:1.0;" width="10" x="484.5" y="167.375"/><rect fill="#FFFFFF" height="70.0469" style="stroke:#181818;stroke-width:1.0;" width="10" x="717" y="224.4219"/><polygon fill="#181818" points="206,77.8047,216,81.8047,206,85.8047,210,81.8047" style="stroke:#181818;stroke-width:1.0;"/><line style="stroke:#181818;stroke-width:1.0;" x1="0" x2="212" y1="81.8047" y2="81.8047"/><text fill="#000000" font-family="sans-serif" font-size="13" lengthAdjust="spacing" textLength="199" x="7" y="77.0498">getPropertyListByAnnouncement()</text><polygon fill="#181818" points="365.5,106.3281,375.5,110.3281,365.5,114.3281,369.5,110.3281" style="stroke:#181818;stroke-width:1.0;"/><line style="stroke:#181818;stroke-width:1.0;" x1="228" x2="371.5" y1="110.3281" y2="110.3281"/><text fill="#000000" font-family="sans-serif" font-size="13" lengthAdjust="spacing" textLength="75" x="235" y="105.5732">getInstance()</text><polygon fill="#181818" points="239,134.8516,229,138.8516,239,142.8516,235,138.8516" style="stroke:#181818;stroke-width:1.0;"/><line style="stroke:#181818;stroke-width:1.0;stroke-dasharray:2.0,2.0;" x1="233" x2="381.5" y1="138.8516" y2="138.8516"/><text fill="#000000" font-family="sans-serif" font-size="13" lengthAdjust="spacing" textLength="67" x="245" y="134.0967">repositories</text><polygon fill="#181818" points="472.5,163.375,482.5,167.375,472.5,171.375,476.5,167.375" style="stroke:#181818;stroke-width:1.0;"/><line style="stroke:#181818;stroke-width:1.0;" x1="228" x2="478.5" y1="167.375" y2="167.375"/><text fill="#000000" font-family="sans-serif" font-size="13" lengthAdjust="spacing" textLength="175" x="235" y="162.6201">getAnnouncementRepository()</text><polygon fill="#181818" points="239,191.8984,229,195.8984,239,199.8984,235,195.8984" style="stroke:#181818;stroke-width:1.0;"/><line style="stroke:#181818;stroke-width:1.0;" x1="233" x2="488.5" y1="195.8984" y2="195.8984"/><text fill="#000000" font-family="sans-serif" font-size="13" lengthAdjust="spacing" textLength="149" x="245" y="191.1436">AnnouncementRepository</text><polygon fill="#181818" points="705,220.4219,715,224.4219,705,228.4219,709,224.4219" style="stroke:#181818;stroke-width:1.0;"/><line style="stroke:#181818;stroke-width:1.0;" x1="228" x2="711" y1="224.4219" y2="224.4219"/><text fill="#000000" font-family="sans-serif" font-size="13" lengthAdjust="spacing" textLength="199" x="235" y="219.667">getPropertyListByAnnouncement()</text><line style="stroke:#181818;stroke-width:1.0;stroke-dasharray:2.0,2.0;" x1="727" x2="769" y1="252.9453" y2="252.9453"/><line style="stroke:#181818;stroke-width:1.0;stroke-dasharray:2.0,2.0;" x1="769" x2="769" y1="252.9453" y2="265.9453"/><line style="stroke:#181818;stroke-width:1.0;stroke-dasharray:2.0,2.0;" x1="728" x2="769" y1="265.9453" y2="265.9453"/><polygon fill="#181818" points="738,261.9453,728,265.9453,738,269.9453,734,265.9453" style="stroke:#181818;stroke-width:1.0;"/><text fill="#000000" font-family="sans-serif" font-size="13" lengthAdjust="spacing" textLength="96" x="734" y="248.1904">getPropertyList()</text><polygon fill="#181818" points="239,290.4688,229,294.4688,239,298.4688,235,294.4688" style="stroke:#181818;stroke-width:1.0;"/><line style="stroke:#181818;stroke-width:1.0;stroke-dasharray:2.0,2.0;" x1="233" x2="721" y1="294.4688" y2="294.4688"/><text fill="#000000" font-family="sans-serif" font-size="13" font-weight="bold" lengthAdjust="spacing" textLength="18" x="245" y="289.7139">3.6</text><text fill="#000000" font-family="sans-serif" font-size="13" lengthAdjust="spacing" textLength="171" x="267" y="289.7139">propertyListByAnnouncement</text><polygon fill="#181818" points="11,318.9922,1,322.9922,11,326.9922,7,322.9922" style="stroke:#181818;stroke-width:1.0;"/><line style="stroke:#181818;stroke-width:1.0;stroke-dasharray:2.0,2.0;" x1="5" x2="222" y1="322.9922" y2="322.9922"/><text fill="#000000" font-family="sans-serif" font-size="13" font-weight="bold" lengthAdjust="spacing" textLength="18" x="17" y="318.2373">3.7</text><text fill="#000000" font-family="sans-serif" font-size="13" lengthAdjust="spacing" textLength="171" x="39" y="318.2373">propertyListByAnnouncement</text><!--SRC=[ZP4nRy8m48Lt_mgBfUqG62frYAfAWQaI0mge4ujhhi4YiLtxqYh_lhO9IKoDXAVeSk-xT-yUZeZQvek5hfd4jgddN3KB2zyjI0xPGR3Ai8OGUn9IC_T96oKLFnhL04NJmkIFPlp4AjXYLmCrm979gfuss2Cxg5yXA_h5QWk445T7mOLsi-aiNnbW21_22Yoz0uih9T6ekWOpeypIrQvSNsbAqChrAoF0XfwXq6s5duzAnfAfOY__0pRhOXSh2YbLw-9eGEA8p_VfUe0K9I4qUmkEQKuhm8rH6WnsQs5nsKsbZq-4kiSuYX-t_tbB4ch-1OH39HOxaz-bTL5pS9n1DC1ISGnT_gMmMUyyTsSSqnba1xWFVt7k4prRJIVM1n3v3bU8Z0RA66aQbV8OeowcYlBEkqIs_5sdhXmbkm4RvQnriRJD9nZwF7-9bkhr_KxwfXSo6JjPBRBpccNtWAuGNl47]--></g></svg>