<?xml version="1.0" encoding="us-ascii" standalone="no"?><svg xmlns="http://www.w3.org/2000/svg" xmlns:xlink="http://www.w3.org/1999/xlink" contentStyleType="text/css" height="444.6px" preserveAspectRatio="none" style="width:850px;height:444px;background:#FFFFFF;" version="1.1" viewBox="0 0 850 444" width="850.5px" zoomAndPan="magnify"><defs/><g><rect fill="#FFFFFF" height="266.9572" style="stroke:#181818;stroke-width:0.9;" width="9" x="280.8" y="105.1418"/><rect fill="#FFFFFF" height="28.1619" style="stroke:#181818;stroke-width:0.9;" width="9" x="552.6" y="133.3037"/><rect fill="#FFFFFF" height="28.1619" style="stroke:#181818;stroke-width:0.9;" width="9" x="647.1" y="189.6275"/><rect fill="#FFFFFF" height="28.1619" style="stroke:#181818;stroke-width:0.9;" width="9" x="760.5" y="269.6133"/><rect fill="none" height="312.4811" style="stroke:#000000;stroke-width:1.35;" width="842.85" x="2.7" y="66.818"/><rect fill="none" height="113.5477" style="stroke:#000000;stroke-width:1.35;" width="632.25" x="204.3" y="231.2895"/><line style="stroke:#181818;stroke-width:0.45;stroke-dasharray:5.0,5.0;" x1="285.3" x2="285.3" y1="51.518" y2="394.599"/><line style="stroke:#181818;stroke-width:0.45;stroke-dasharray:5.0,5.0;" x1="556.65" x2="556.65" y1="51.518" y2="394.599"/><line style="stroke:#181818;stroke-width:0.45;stroke-dasharray:5.0,5.0;" x1="651.15" x2="651.15" y1="51.518" y2="394.599"/><line style="stroke:#181818;stroke-width:0.45;stroke-dasharray:5.0,5.0;" x1="764.55" x2="764.55" y1="51.518" y2="394.599"/><rect fill="#E3E3E3" height="29.359" rx="2.25" ry="2.25" style="stroke:#181818;stroke-width:0.45;" width="144" x="213.3" y="21.259"/><text fill="#000000" font-family="sans-serif" font-size="12.6" lengthAdjust="spacing" textLength="131.4" x="219.6" y="41.1557">:DivideStoresController</text><rect fill="#E3E3E3" height="29.359" rx="2.25" ry="2.25" style="stroke:#181818;stroke-width:0.45;" width="144" x="213.3" y="393.699"/><text fill="#000000" font-family="sans-serif" font-size="12.6" lengthAdjust="spacing" textLength="131.4" x="219.6" y="413.5957">:DivideStoresController</text><rect fill="#E3E3E3" height="29.359" rx="2.25" ry="2.25" style="stroke:#181818;stroke-width:0.45;" width="87.3" x="513.45" y="21.259"/><text fill="#000000" font-family="sans-serif" font-size="12.6" lengthAdjust="spacing" textLength="74.7" x="519.75" y="41.1557">:Repositories</text><rect fill="#E3E3E3" height="29.359" rx="2.25" ry="2.25" style="stroke:#181818;stroke-width:0.45;" width="87.3" x="513.45" y="393.699"/><text fill="#000000" font-family="sans-serif" font-size="12.6" lengthAdjust="spacing" textLength="74.7" x="519.75" y="413.5957">:Repositories</text><rect fill="#E3E3E3" height="46.118" rx="2.25" ry="2.25" style="stroke:#181818;stroke-width:0.45;" width="83.7" x="609.75" y="4.5"/><text fill="#000000" font-family="sans-serif" font-size="12.6" lengthAdjust="spacing" textLength="70.2" x="616.5" y="24.3967">repositories:</text><text fill="#000000" font-family="sans-serif" font-size="12.6" lengthAdjust="spacing" textLength="71.1" x="616.05" y="41.1557">Repositories</text><rect fill="#E3E3E3" height="46.118" rx="2.25" ry="2.25" style="stroke:#181818;stroke-width:0.45;" width="83.7" x="609.75" y="393.699"/><text fill="#000000" font-family="sans-serif" font-size="12.6" lengthAdjust="spacing" textLength="70.2" x="616.5" y="413.5957">repositories:</text><text fill="#000000" font-family="sans-serif" font-size="12.6" lengthAdjust="spacing" textLength="71.1" x="616.05" y="430.3547">Repositories</text><rect fill="#E3E3E3" height="46.118" rx="2.25" ry="2.25" style="stroke:#181818;stroke-width:0.45;" width="125.1" x="702.45" y="4.5"/><text fill="#000000" font-family="sans-serif" font-size="12.6" lengthAdjust="spacing" textLength="112.5" x="708.75" y="24.3967">propertyRepository:</text><text fill="#000000" font-family="sans-serif" font-size="12.6" lengthAdjust="spacing" textLength="109.8" x="710.1" y="41.1557">PropertyRepository</text><rect fill="#E3E3E3" height="46.118" rx="2.25" ry="2.25" style="stroke:#181818;stroke-width:0.45;" width="125.1" x="702.45" y="393.699"/><text fill="#000000" font-family="sans-serif" font-size="12.6" lengthAdjust="spacing" textLength="112.5" x="708.75" y="413.5957">propertyRepository:</text><text fill="#000000" font-family="sans-serif" font-size="12.6" lengthAdjust="spacing" textLength="109.8" x="710.1" y="430.3547">PropertyRepository</text><rect fill="#FFFFFF" height="266.9572" style="stroke:#181818;stroke-width:0.9;" width="9" x="280.8" y="105.1418"/><rect fill="#FFFFFF" height="28.1619" style="stroke:#181818;stroke-width:0.9;" width="9" x="552.6" y="133.3037"/><rect fill="#FFFFFF" height="28.1619" style="stroke:#181818;stroke-width:0.9;" width="9" x="647.1" y="189.6275"/><rect fill="#FFFFFF" height="28.1619" style="stroke:#181818;stroke-width:0.9;" width="9" x="760.5" y="269.6133"/><path d="M2.7,66.818 L317.7,66.818 L317.7,75.1799 L308.7,84.1799 L2.7,84.1799 L2.7,66.818 " fill="#EEEEEE" style="stroke:#000000;stroke-width:1.35;"/><rect fill="none" height="312.4811" style="stroke:#000000;stroke-width:1.35;" width="842.85" x="2.7" y="66.818"/><text fill="#000000" font-family="sans-serif" font-size="11.7" font-weight="bold" lengthAdjust="spacing" textLength="274.5" x="16.2" y="80.3435">Get Number of Properties in each Store from list</text><polygon fill="#181818" points="270,101.5418,279,105.1418,270,108.7418,273.6,105.1418" style="stroke:#181818;stroke-width:0.9;"/><line style="stroke:#181818;stroke-width:0.9;" x1="0" x2="275.4" y1="105.1418" y2="105.1418"/><text fill="#000000" font-family="sans-serif" font-size="11.7" font-weight="bold" lengthAdjust="spacing" textLength="12.6" x="6.3" y="100.4054">29</text><text fill="#000000" font-family="sans-serif" font-size="11.7" lengthAdjust="spacing" textLength="241.2" x="22.5" y="100.4054">getPropertyNumberInEach(selectedStoresList)</text><polygon fill="#181818" points="541.8,129.7037,550.8,133.3037,541.8,136.9037,545.4,133.3037" style="stroke:#181818;stroke-width:0.9;"/><line style="stroke:#181818;stroke-width:0.9;" x1="289.8" x2="547.2" y1="133.3037" y2="133.3037"/><text fill="#000000" font-family="sans-serif" font-size="11.7" font-weight="bold" lengthAdjust="spacing" textLength="12.6" x="296.1" y="128.5673">30</text><text fill="#000000" font-family="sans-serif" font-size="11.7" lengthAdjust="spacing" textLength="67.5" x="312.3" y="128.5673">getInstance()</text><polygon fill="#181818" points="299.7,157.8656,290.7,161.4656,299.7,165.0656,296.1,161.4656" style="stroke:#181818;stroke-width:0.9;"/><line style="stroke:#181818;stroke-width:0.9;stroke-dasharray:2.0,2.0;" x1="294.3" x2="556.2" y1="161.4656" y2="161.4656"/><text fill="#000000" font-family="sans-serif" font-size="11.7" font-weight="bold" lengthAdjust="spacing" textLength="12.6" x="305.1" y="156.7292">31</text><text fill="#000000" font-family="sans-serif" font-size="11.7" lengthAdjust="spacing" textLength="60.3" x="321.3" y="156.7292">repositories</text><polygon fill="#181818" points="636.3,186.0275,645.3,189.6275,636.3,193.2275,639.9,189.6275" style="stroke:#181818;stroke-width:0.9;"/><line style="stroke:#181818;stroke-width:0.9;" x1="289.8" x2="641.7" y1="189.6275" y2="189.6275"/><text fill="#000000" font-family="sans-serif" font-size="11.7" font-weight="bold" lengthAdjust="spacing" textLength="12.6" x="296.1" y="184.8911">32</text><text fill="#000000" font-family="sans-serif" font-size="11.7" lengthAdjust="spacing" textLength="123.3" x="312.3" y="184.8911">getPropertyRepository()</text><polygon fill="#181818" points="299.7,214.1895,290.7,217.7895,299.7,221.3895,296.1,217.7895" style="stroke:#181818;stroke-width:0.9;"/><line style="stroke:#181818;stroke-width:0.9;stroke-dasharray:2.0,2.0;" x1="294.3" x2="650.7" y1="217.7895" y2="217.7895"/><text fill="#000000" font-family="sans-serif" font-size="11.7" font-weight="bold" lengthAdjust="spacing" textLength="12.6" x="305.1" y="213.053">33</text><text fill="#000000" font-family="sans-serif" font-size="11.7" lengthAdjust="spacing" textLength="98.1" x="321.3" y="213.053">propertyRepository</text><path d="M204.3,231.2895 L270,231.2895 L270,239.6514 L261,248.6514 L204.3,248.6514 L204.3,231.2895 " fill="#EEEEEE" style="stroke:#000000;stroke-width:1.35;"/><rect fill="none" height="113.5477" style="stroke:#000000;stroke-width:1.35;" width="632.25" x="204.3" y="231.2895"/><text fill="#000000" font-family="sans-serif" font-size="11.7" font-weight="bold" lengthAdjust="spacing" textLength="25.2" x="217.8" y="244.8149">loop</text><text fill="#000000" font-family="sans-serif" font-size="9.9" font-weight="bold" lengthAdjust="spacing" textLength="167.4" x="283.5" y="243.7726">[each storeDTO in (storeListDTO)]</text><polygon fill="#181818" points="749.7,266.0133,758.7,269.6133,749.7,273.2133,753.3,269.6133" style="stroke:#181818;stroke-width:0.9;"/><line style="stroke:#181818;stroke-width:0.9;" x1="289.8" x2="755.1" y1="269.6133" y2="269.6133"/><text fill="#000000" font-family="sans-serif" font-size="11.7" font-weight="bold" lengthAdjust="spacing" textLength="12.6" x="296.1" y="264.8769">34</text><text fill="#000000" font-family="sans-serif" font-size="11.7" lengthAdjust="spacing" textLength="198" x="312.3" y="264.8769">getNumberPropertiesFromStore(store)</text><polygon fill="#181818" points="299.7,294.1752,290.7,297.7752,299.7,301.3752,296.1,297.7752" style="stroke:#181818;stroke-width:0.9;"/><line style="stroke:#181818;stroke-width:0.9;stroke-dasharray:2.0,2.0;" x1="294.3" x2="764.1" y1="297.7752" y2="297.7752"/><text fill="#000000" font-family="sans-serif" font-size="11.7" font-weight="bold" lengthAdjust="spacing" textLength="12.6" x="305.1" y="293.0388">35</text><text fill="#000000" font-family="sans-serif" font-size="11.7" lengthAdjust="spacing" textLength="82.8" x="321.3" y="293.0388">propertyNumber</text><line style="stroke:#181818;stroke-width:0.9;" x1="289.8" x2="327.6" y1="325.9371" y2="325.9371"/><line style="stroke:#181818;stroke-width:0.9;" x1="327.6" x2="327.6" y1="325.9371" y2="337.6371"/><line style="stroke:#181818;stroke-width:0.9;" x1="290.7" x2="327.6" y1="337.6371" y2="337.6371"/><polygon fill="#181818" points="299.7,334.0371,290.7,337.6371,299.7,341.2371,296.1,337.6371" style="stroke:#181818;stroke-width:0.9;"/><text fill="#000000" font-family="sans-serif" font-size="11.7" font-weight="bold" lengthAdjust="spacing" textLength="12.6" x="296.1" y="321.2007">36</text><text fill="#000000" font-family="sans-serif" font-size="11.7" lengthAdjust="spacing" textLength="234" x="312.3" y="321.2007">addToNumberPropertiesList(propertyNumber)</text><polygon fill="#181818" points="9.9,368.499,0.9,372.099,9.9,375.699,6.3,372.099" style="stroke:#181818;stroke-width:0.9;"/><line style="stroke:#181818;stroke-width:0.9;stroke-dasharray:2.0,2.0;" x1="4.5" x2="284.4" y1="372.099" y2="372.099"/><text fill="#000000" font-family="sans-serif" font-size="11.7" font-weight="bold" lengthAdjust="spacing" textLength="12.6" x="15.3" y="367.3626">37</text><text fill="#000000" font-family="sans-serif" font-size="11.7" lengthAdjust="spacing" textLength="110.7" x="31.5" y="367.3626">numberPropertiesList</text><!--SRC=[bLEnRi8m4Dtz5IUcC6JfrgYgL45R8Q4MGSOkRd84YyIsR8UAlwzZ0uc9eQgtdE-zvtVtelUCIwfe0utWejWfqI0OrIBHbnj9YpsjS6EEDOB2mb1UrSC6lQEb-66yWYsjDH9YouOLJ59kO9BDsO6L5YuKwfdWHecwHZK1gc6MhvTNtMkKGZFRp52xdalXk66Ti14yXAW18llY8uBLyYKF4L89YSeSUsgBMusA3YtjDo64jbQtRRvHmSCZ8PKIhOHtDF3XYs8B9m8h2um3qc87pZHixLIXPjeGE9tqsLc732eqPs7FjE2l5fbehEsaiVHZMrhmz8AcXM47Qj2F3mR7aLhooCoyre9hkxu2asc02rXZ0nzrToUcafwiPJ1SomXUul_apiQwNOPJw-4HJu4lbuDeYsFjNpwEnxttEzhh-re8wIEWkmNEyyyk4udxw9Pf2zER9hl8UPC-4dsmtcoIN28yqn-6NNHZ7KuWxKCeWmH68GF3DsdFx_TJf6MPYsi3dVSab1kRG5wEQazfUkBb4Sfx-t4_YQK4zy_-0W00]--></g></svg>