<?xml version="1.0" encoding="us-ascii" standalone="no"?><svg xmlns="http://www.w3.org/2000/svg" xmlns:xlink="http://www.w3.org/1999/xlink" contentStyleType="text/css" height="951.3px" preserveAspectRatio="none" style="width:1110px;height:951px;background:#FFFFFF;" version="1.1" viewBox="0 0 1110 951" width="1110.6px" zoomAndPan="magnify"><defs/><g><rect fill="#FFFFFF" height="773.1914" style="stroke:#181818;stroke-width:0.9;" width="9" x="108" y="105.1418"/><rect fill="#FFFFFF" height="28.1619" style="stroke:#181818;stroke-width:0.9;" width="9" x="232.65" y="133.3037"/><rect fill="#FFFFFF" height="28.1619" style="stroke:#181818;stroke-width:0.9;" width="9" x="327.15" y="189.6275"/><rect fill="#FFFFFF" height="67.4209" style="stroke:#181818;stroke-width:0.9;" width="9" x="431.1" y="245.9514"/><rect fill="#FFFFFF" height="508.6371" style="stroke:#181818;stroke-width:0.9;" width="9" x="536.4" y="341.5342"/><rect fill="#FFFFFF" height="32.6619" style="stroke:#181818;stroke-width:0.9;" width="9" x="540.9" y="715.6266"/><rect fill="#FFFFFF" height="28.1619" style="stroke:#181818;stroke-width:0.9;" width="9" x="711" y="787.5475"/><rect fill="#FFFFFF" height="27" style="stroke:#181818;stroke-width:0.9;" width="9" x="878.4" y="432.617"/><rect fill="#FFFFFF" height="27" style="stroke:#181818;stroke-width:0.9;" width="9" x="878.4" y="487.7789"/><rect fill="#FFFFFF" height="27" style="stroke:#181818;stroke-width:0.9;" width="9" x="878.4" y="542.9408"/><rect fill="#FFFFFF" height="27" style="stroke:#181818;stroke-width:0.9;" width="9" x="878.4" y="598.1027"/><rect fill="#FFFFFF" height="27" style="stroke:#181818;stroke-width:0.9;" width="9" x="878.4" y="653.2646"/><rect fill="none" height="818.7152" style="stroke:#000000;stroke-width:1.35;" width="1102.5" x="2.7" y="66.818"/><rect fill="none" height="467.8752" style="stroke:#000000;stroke-width:1.35;" width="607.5" x="488.7" y="355.0342"/><line style="stroke:#181818;stroke-width:0.45;stroke-dasharray:5.0,5.0;" x1="112.5" x2="112.5" y1="51.518" y2="900.8332"/><line style="stroke:#181818;stroke-width:0.45;stroke-dasharray:5.0,5.0;" x1="236.7" x2="236.7" y1="51.518" y2="900.8332"/><line style="stroke:#181818;stroke-width:0.45;stroke-dasharray:5.0,5.0;" x1="331.2" x2="331.2" y1="51.518" y2="900.8332"/><line style="stroke:#181818;stroke-width:0.45;stroke-dasharray:5.0,5.0;" x1="435.6" x2="435.6" y1="51.518" y2="900.8332"/><line style="stroke:#181818;stroke-width:0.45;stroke-dasharray:5.0,5.0;" x1="540.9" x2="540.9" y1="51.518" y2="900.8332"/><line style="stroke:#181818;stroke-width:0.45;stroke-dasharray:5.0,5.0;" x1="715.5" x2="715.5" y1="401.0256" y2="900.8332"/><line style="stroke:#181818;stroke-width:0.45;stroke-dasharray:5.0,5.0;" x1="882.9" x2="882.9" y1="281.7809" y2="900.8332"/><line style="stroke:#181818;stroke-width:0.45;stroke-dasharray:5.0,5.0;" x1="1022.4" x2="1022.4" y1="755.9561" y2="900.8332"/><rect fill="#E3E3E3" height="29.359" rx="2.25" ry="2.25" style="stroke:#181818;stroke-width:0.45;" width="144" x="40.5" y="21.259"/><text fill="#000000" font-family="sans-serif" font-size="12.6" lengthAdjust="spacing" textLength="131.4" x="46.8" y="41.1557">:DivideStoresController</text><rect fill="#E3E3E3" height="29.359" rx="2.25" ry="2.25" style="stroke:#181818;stroke-width:0.45;" width="144" x="40.5" y="899.9332"/><text fill="#000000" font-family="sans-serif" font-size="12.6" lengthAdjust="spacing" textLength="131.4" x="46.8" y="919.8299">:DivideStoresController</text><rect fill="#E3E3E3" height="29.359" rx="2.25" ry="2.25" style="stroke:#181818;stroke-width:0.45;" width="87.3" x="193.5" y="21.259"/><text fill="#000000" font-family="sans-serif" font-size="12.6" lengthAdjust="spacing" textLength="74.7" x="199.8" y="41.1557">:Repositories</text><rect fill="#E3E3E3" height="29.359" rx="2.25" ry="2.25" style="stroke:#181818;stroke-width:0.45;" width="87.3" x="193.5" y="899.9332"/><text fill="#000000" font-family="sans-serif" font-size="12.6" lengthAdjust="spacing" textLength="74.7" x="199.8" y="919.8299">:Repositories</text><rect fill="#E3E3E3" height="46.118" rx="2.25" ry="2.25" style="stroke:#181818;stroke-width:0.45;" width="83.7" x="289.8" y="4.5"/><text fill="#000000" font-family="sans-serif" font-size="12.6" lengthAdjust="spacing" textLength="70.2" x="296.55" y="24.3967">repositories:</text><text fill="#000000" font-family="sans-serif" font-size="12.6" lengthAdjust="spacing" textLength="71.1" x="296.1" y="41.1557">Repositories</text><rect fill="#E3E3E3" height="46.118" rx="2.25" ry="2.25" style="stroke:#181818;stroke-width:0.45;" width="83.7" x="289.8" y="899.9332"/><text fill="#000000" font-family="sans-serif" font-size="12.6" lengthAdjust="spacing" textLength="70.2" x="296.55" y="919.8299">repositories:</text><text fill="#000000" font-family="sans-serif" font-size="12.6" lengthAdjust="spacing" textLength="71.1" x="296.1" y="936.5889">Repositories</text><rect fill="#E3E3E3" height="46.118" rx="2.25" ry="2.25" style="stroke:#181818;stroke-width:0.45;" width="106.2" x="382.5" y="4.5"/><text fill="#000000" font-family="sans-serif" font-size="12.6" lengthAdjust="spacing" textLength="93.6" x="388.8" y="24.3967">storeRepository:</text><text fill="#000000" font-family="sans-serif" font-size="12.6" lengthAdjust="spacing" textLength="91.8" x="389.7" y="41.1557">StoreRepository</text><rect fill="#E3E3E3" height="46.118" rx="2.25" ry="2.25" style="stroke:#181818;stroke-width:0.45;" width="106.2" x="382.5" y="899.9332"/><text fill="#000000" font-family="sans-serif" font-size="12.6" lengthAdjust="spacing" textLength="93.6" x="388.8" y="919.8299">storeRepository:</text><text fill="#000000" font-family="sans-serif" font-size="12.6" lengthAdjust="spacing" textLength="91.8" x="389.7" y="936.5889">StoreRepository</text><rect fill="#E3E3E3" height="29.359" rx="2.25" ry="2.25" style="stroke:#181818;stroke-width:0.45;" width="86.4" x="497.7" y="21.259"/><text fill="#000000" font-family="sans-serif" font-size="12.6" lengthAdjust="spacing" textLength="73.8" x="504" y="41.1557">StoreMapper</text><rect fill="#E3E3E3" height="29.359" rx="2.25" ry="2.25" style="stroke:#181818;stroke-width:0.45;" width="86.4" x="497.7" y="899.9332"/><text fill="#000000" font-family="sans-serif" font-size="12.6" lengthAdjust="spacing" textLength="73.8" x="504" y="919.8299">StoreMapper</text><rect fill="#E3E3E3" height="29.359" rx="2.25" ry="2.25" style="stroke:#181818;stroke-width:0.45;" width="185.4" x="622.8" y="899.9332"/><text fill="#000000" font-family="sans-serif" font-size="12.6" lengthAdjust="spacing" textLength="172.8" x="629.1" y="919.8299">ListStoreDTO:List&lt;StoreDTO&gt;</text><rect fill="#E3E3E3" height="29.359" rx="2.25" ry="2.25" style="stroke:#181818;stroke-width:0.45;" width="131.4" x="817.2" y="899.9332"/><text fill="#000000" font-family="sans-serif" font-size="12.6" lengthAdjust="spacing" textLength="118.8" x="823.5" y="919.8299">ListStore:List&lt;Store&gt;</text><rect fill="#E3E3E3" height="29.359" rx="2.25" ry="2.25" style="stroke:#181818;stroke-width:0.45;" width="129.6" x="957.6" y="899.9332"/><text fill="#000000" font-family="sans-serif" font-size="12.6" lengthAdjust="spacing" textLength="117" x="963.9" y="919.8299">StoreDTO:storeDTO</text><rect fill="#FFFFFF" height="773.1914" style="stroke:#181818;stroke-width:0.9;" width="9" x="108" y="105.1418"/><rect fill="#FFFFFF" height="28.1619" style="stroke:#181818;stroke-width:0.9;" width="9" x="232.65" y="133.3037"/><rect fill="#FFFFFF" height="28.1619" style="stroke:#181818;stroke-width:0.9;" width="9" x="327.15" y="189.6275"/><rect fill="#FFFFFF" height="67.4209" style="stroke:#181818;stroke-width:0.9;" width="9" x="431.1" y="245.9514"/><rect fill="#FFFFFF" height="508.6371" style="stroke:#181818;stroke-width:0.9;" width="9" x="536.4" y="341.5342"/><rect fill="#FFFFFF" height="32.6619" style="stroke:#181818;stroke-width:0.9;" width="9" x="540.9" y="715.6266"/><rect fill="#FFFFFF" height="28.1619" style="stroke:#181818;stroke-width:0.9;" width="9" x="711" y="787.5475"/><rect fill="#FFFFFF" height="27" style="stroke:#181818;stroke-width:0.9;" width="9" x="878.4" y="432.617"/><rect fill="#FFFFFF" height="27" style="stroke:#181818;stroke-width:0.9;" width="9" x="878.4" y="487.7789"/><rect fill="#FFFFFF" height="27" style="stroke:#181818;stroke-width:0.9;" width="9" x="878.4" y="542.9408"/><rect fill="#FFFFFF" height="27" style="stroke:#181818;stroke-width:0.9;" width="9" x="878.4" y="598.1027"/><rect fill="#FFFFFF" height="27" style="stroke:#181818;stroke-width:0.9;" width="9" x="878.4" y="653.2646"/><path d="M2.7,66.818 L120.6,66.818 L120.6,75.1799 L111.6,84.1799 L2.7,84.1799 L2.7,66.818 " fill="#EEEEEE" style="stroke:#000000;stroke-width:1.35;"/><rect fill="none" height="818.7152" style="stroke:#000000;stroke-width:1.35;" width="1102.5" x="2.7" y="66.818"/><text fill="#000000" font-family="sans-serif" font-size="11.7" font-weight="bold" lengthAdjust="spacing" textLength="77.4" x="16.2" y="80.3435">Get Store List</text><polygon fill="#181818" points="97.2,101.5418,106.2,105.1418,97.2,108.7418,100.8,105.1418" style="stroke:#181818;stroke-width:0.9;"/><line style="stroke:#181818;stroke-width:0.9;stroke-dasharray:2.0,2.0;" x1="0" x2="102.6" y1="105.1418" y2="105.1418"/><text fill="#000000" font-family="sans-serif" font-size="11.7" font-weight="bold" lengthAdjust="spacing" textLength="6.3" x="6.3" y="100.4054">5</text><text fill="#000000" font-family="sans-serif" font-size="11.7" lengthAdjust="spacing" textLength="57.6" x="16.2" y="100.4054">getStores()</text><polygon fill="#181818" points="221.85,129.7037,230.85,133.3037,221.85,136.9037,225.45,133.3037" style="stroke:#181818;stroke-width:0.9;"/><line style="stroke:#181818;stroke-width:0.9;" x1="117" x2="227.25" y1="133.3037" y2="133.3037"/><text fill="#000000" font-family="sans-serif" font-size="11.7" font-weight="bold" lengthAdjust="spacing" textLength="6.3" x="123.3" y="128.5673">6</text><text fill="#000000" font-family="sans-serif" font-size="11.7" lengthAdjust="spacing" textLength="67.5" x="133.2" y="128.5673">getInstance()</text><polygon fill="#181818" points="126.9,157.8656,117.9,161.4656,126.9,165.0656,123.3,161.4656" style="stroke:#181818;stroke-width:0.9;"/><line style="stroke:#181818;stroke-width:0.9;stroke-dasharray:2.0,2.0;" x1="121.5" x2="236.25" y1="161.4656" y2="161.4656"/><text fill="#000000" font-family="sans-serif" font-size="11.7" font-weight="bold" lengthAdjust="spacing" textLength="6.3" x="132.3" y="156.7292">7</text><text fill="#000000" font-family="sans-serif" font-size="11.7" lengthAdjust="spacing" textLength="60.3" x="142.2" y="156.7292">repositories</text><polygon fill="#181818" points="316.35,186.0275,325.35,189.6275,316.35,193.2275,319.95,189.6275" style="stroke:#181818;stroke-width:0.9;"/><line style="stroke:#181818;stroke-width:0.9;" x1="117" x2="321.75" y1="189.6275" y2="189.6275"/><text fill="#000000" font-family="sans-serif" font-size="11.7" font-weight="bold" lengthAdjust="spacing" textLength="6.3" x="123.3" y="184.8911">8</text><text fill="#000000" font-family="sans-serif" font-size="11.7" lengthAdjust="spacing" textLength="107.1" x="133.2" y="184.8911">getStoreRepository()</text><polygon fill="#181818" points="126.9,214.1895,117.9,217.7895,126.9,221.3895,123.3,217.7895" style="stroke:#181818;stroke-width:0.9;"/><line style="stroke:#181818;stroke-width:0.9;stroke-dasharray:2.0,2.0;" x1="121.5" x2="330.75" y1="217.7895" y2="217.7895"/><text fill="#000000" font-family="sans-serif" font-size="11.7" font-weight="bold" lengthAdjust="spacing" textLength="6.3" x="132.3" y="213.053">9</text><text fill="#000000" font-family="sans-serif" font-size="11.7" lengthAdjust="spacing" textLength="81.9" x="142.2" y="213.053">storeRepository</text><polygon fill="#181818" points="420.3,242.3514,429.3,245.9514,420.3,249.5514,423.9,245.9514" style="stroke:#181818;stroke-width:0.9;"/><line style="stroke:#181818;stroke-width:0.9;" x1="117" x2="425.7" y1="245.9514" y2="245.9514"/><text fill="#000000" font-family="sans-serif" font-size="11.7" font-weight="bold" lengthAdjust="spacing" textLength="12.6" x="123.3" y="241.2149">10</text><text fill="#000000" font-family="sans-serif" font-size="11.7" lengthAdjust="spacing" textLength="57.6" x="139.5" y="241.2149">getStores()</text><polygon fill="#181818" points="806.4,270.5133,815.4,274.1133,806.4,277.7133,810,274.1133" style="stroke:#181818;stroke-width:0.9;"/><line style="stroke:#181818;stroke-width:0.9;" x1="440.1" x2="811.8" y1="274.1133" y2="274.1133"/><text fill="#000000" font-family="sans-serif" font-size="11.7" font-weight="bold" lengthAdjust="spacing" textLength="12.6" x="446.4" y="269.3769">11</text><text fill="#000000" font-family="sans-serif" font-size="11.7" lengthAdjust="spacing" textLength="3.6" x="462.6" y="269.3769">&#160;</text><rect fill="#E3E3E3" height="29.359" rx="2.25" ry="2.25" style="stroke:#181818;stroke-width:0.45;" width="131.4" x="817.2" y="253.1514"/><text fill="#000000" font-family="sans-serif" font-size="12.6" lengthAdjust="spacing" textLength="118.8" x="823.5" y="273.048">ListStore:List&lt;Store&gt;</text><polygon fill="#181818" points="126.9,309.7723,117.9,313.3723,126.9,316.9723,123.3,313.3723" style="stroke:#181818;stroke-width:0.9;"/><line style="stroke:#181818;stroke-width:0.9;stroke-dasharray:2.0,2.0;" x1="121.5" x2="434.7" y1="313.3723" y2="313.3723"/><text fill="#000000" font-family="sans-serif" font-size="11.7" font-weight="bold" lengthAdjust="spacing" textLength="12.6" x="132.3" y="308.6358">12</text><text fill="#000000" font-family="sans-serif" font-size="11.7" lengthAdjust="spacing" textLength="45" x="148.5" y="308.6358">storeList</text><polygon fill="#181818" points="525.6,337.9342,534.6,341.5342,525.6,345.1342,529.2,341.5342" style="stroke:#181818;stroke-width:0.9;"/><line style="stroke:#181818;stroke-width:0.9;" x1="117" x2="531" y1="341.5342" y2="341.5342"/><text fill="#000000" font-family="sans-serif" font-size="11.7" font-weight="bold" lengthAdjust="spacing" textLength="12.6" x="123.3" y="336.7978">13</text><text fill="#000000" font-family="sans-serif" font-size="11.7" lengthAdjust="spacing" textLength="126" x="139.5" y="336.7978">getStoresDTO(storeList)</text><path d="M488.7,355.0342 L554.4,355.0342 L554.4,363.3961 L545.4,372.3961 L488.7,372.3961 L488.7,355.0342 " fill="#EEEEEE" style="stroke:#000000;stroke-width:1.35;"/><rect fill="none" height="467.8752" style="stroke:#000000;stroke-width:1.35;" width="607.5" x="488.7" y="355.0342"/><text fill="#000000" font-family="sans-serif" font-size="11.7" font-weight="bold" lengthAdjust="spacing" textLength="25.2" x="502.2" y="368.5597">loop</text><text fill="#000000" font-family="sans-serif" font-size="9.9" font-weight="bold" lengthAdjust="spacing" textLength="141.3" x="567.9" y="367.5173">[for each object in ListStore]</text><polygon fill="#181818" points="612,389.758,621,393.358,612,396.958,615.6,393.358" style="stroke:#181818;stroke-width:0.9;"/><line style="stroke:#181818;stroke-width:0.9;" x1="545.4" x2="617.4" y1="393.358" y2="393.358"/><text fill="#000000" font-family="sans-serif" font-size="11.7" font-weight="bold" lengthAdjust="spacing" textLength="12.6" x="551.7" y="388.6216">14</text><text fill="#000000" font-family="sans-serif" font-size="11.7" lengthAdjust="spacing" textLength="39.6" x="567.9" y="388.6216">create()</text><rect fill="#E3E3E3" height="29.359" rx="2.25" ry="2.25" style="stroke:#181818;stroke-width:0.45;" width="185.4" x="622.8" y="372.3961"/><text fill="#000000" font-family="sans-serif" font-size="12.6" lengthAdjust="spacing" textLength="172.8" x="629.1" y="392.2928">ListStoreDTO:List&lt;StoreDTO&gt;</text><polygon fill="#181818" points="867.6,429.017,876.6,432.617,867.6,436.217,871.2,432.617" style="stroke:#181818;stroke-width:0.9;"/><line style="stroke:#181818;stroke-width:0.9;" x1="545.4" x2="873" y1="432.617" y2="432.617"/><text fill="#000000" font-family="sans-serif" font-size="11.7" font-weight="bold" lengthAdjust="spacing" textLength="12.6" x="551.7" y="427.8806">15</text><text fill="#000000" font-family="sans-serif" font-size="11.7" lengthAdjust="spacing" textLength="55.8" x="567.9" y="427.8806">id = getId()</text><polygon fill="#181818" points="867.6,484.1789,876.6,487.7789,867.6,491.3789,871.2,487.7789" style="stroke:#181818;stroke-width:0.9;"/><line style="stroke:#181818;stroke-width:0.9;" x1="545.4" x2="873" y1="487.7789" y2="487.7789"/><text fill="#000000" font-family="sans-serif" font-size="11.7" font-weight="bold" lengthAdjust="spacing" textLength="12.6" x="551.7" y="483.0425">16</text><text fill="#000000" font-family="sans-serif" font-size="11.7" lengthAdjust="spacing" textLength="158.4" x="567.9" y="483.0425">designation = getDesignation()</text><polygon fill="#181818" points="867.6,539.3408,876.6,542.9408,867.6,546.5408,871.2,542.9408" style="stroke:#181818;stroke-width:0.9;"/><line style="stroke:#181818;stroke-width:0.9;" x1="545.4" x2="873" y1="542.9408" y2="542.9408"/><text fill="#000000" font-family="sans-serif" font-size="11.7" font-weight="bold" lengthAdjust="spacing" textLength="12.6" x="551.7" y="538.2044">17</text><text fill="#000000" font-family="sans-serif" font-size="11.7" lengthAdjust="spacing" textLength="109.8" x="567.9" y="538.2044">adress = getAdress()</text><polygon fill="#181818" points="867.6,594.5027,876.6,598.1027,867.6,601.7027,871.2,598.1027" style="stroke:#181818;stroke-width:0.9;"/><line style="stroke:#181818;stroke-width:0.9;" x1="545.4" x2="873" y1="598.1027" y2="598.1027"/><text fill="#000000" font-family="sans-serif" font-size="11.7" font-weight="bold" lengthAdjust="spacing" textLength="12.6" x="551.7" y="593.3663">18</text><text fill="#000000" font-family="sans-serif" font-size="11.7" lengthAdjust="spacing" textLength="95.4" x="567.9" y="593.3663">email = getEmail()</text><polygon fill="#181818" points="867.6,649.6646,876.6,653.2646,867.6,656.8646,871.2,653.2646" style="stroke:#181818;stroke-width:0.9;"/><line style="stroke:#181818;stroke-width:0.9;" x1="545.4" x2="873" y1="653.2646" y2="653.2646"/><text fill="#000000" font-family="sans-serif" font-size="11.7" font-weight="bold" lengthAdjust="spacing" textLength="12.6" x="551.7" y="648.5282">19</text><text fill="#000000" font-family="sans-serif" font-size="11.7" lengthAdjust="spacing" textLength="183.6" x="567.9" y="648.5282">phoneNumber = getPhoneNumber()</text><line style="stroke:#181818;stroke-width:0.9;" x1="545.4" x2="587.7" y1="703.9266" y2="703.9266"/><line style="stroke:#181818;stroke-width:0.9;" x1="587.7" x2="587.7" y1="703.9266" y2="715.6266"/><line style="stroke:#181818;stroke-width:0.9;" x1="550.8" x2="587.7" y1="715.6266" y2="715.6266"/><polygon fill="#181818" points="559.8,712.0266,550.8,715.6266,559.8,719.2266,556.2,715.6266" style="stroke:#181818;stroke-width:0.9;"/><text fill="#000000" font-family="sans-serif" font-size="11.7" font-weight="bold" lengthAdjust="spacing" textLength="12.6" x="556.2" y="699.1901">20</text><text fill="#000000" font-family="sans-serif" font-size="11.7" lengthAdjust="spacing" textLength="125.1" x="572.4" y="699.1901">StoreDTO=toDTO(store)</text><polygon fill="#181818" points="946.8,744.6885,955.8,748.2885,946.8,751.8885,950.4,748.2885" style="stroke:#181818;stroke-width:0.9;"/><line style="stroke:#181818;stroke-width:0.9;" x1="545.4" x2="952.2" y1="748.2885" y2="748.2885"/><text fill="#000000" font-family="sans-serif" font-size="11.7" font-weight="bold" lengthAdjust="spacing" textLength="12.6" x="551.7" y="743.5521">21</text><text fill="#000000" font-family="sans-serif" font-size="11.7" lengthAdjust="spacing" textLength="39.6" x="567.9" y="743.5521">create()</text><rect fill="#E3E3E3" height="29.359" rx="2.25" ry="2.25" style="stroke:#181818;stroke-width:0.45;" width="129.6" x="957.6" y="727.3266"/><text fill="#000000" font-family="sans-serif" font-size="12.6" lengthAdjust="spacing" textLength="117" x="963.9" y="747.2232">StoreDTO:storeDTO</text><polygon fill="#181818" points="700.2,783.9475,709.2,787.5475,700.2,791.1475,703.8,787.5475" style="stroke:#181818;stroke-width:0.9;"/><line style="stroke:#181818;stroke-width:0.9;" x1="545.4" x2="705.6" y1="787.5475" y2="787.5475"/><text fill="#000000" font-family="sans-serif" font-size="11.7" font-weight="bold" lengthAdjust="spacing" textLength="12.6" x="551.7" y="782.811">22</text><text fill="#000000" font-family="sans-serif" font-size="11.7" lengthAdjust="spacing" textLength="77.4" x="567.9" y="782.811">add(StoreDTO)</text><polygon fill="#181818" points="555.3,812.1094,546.3,815.7094,555.3,819.3094,551.7,815.7094" style="stroke:#181818;stroke-width:0.9;"/><line style="stroke:#181818;stroke-width:0.9;" x1="549.9" x2="714.6" y1="815.7094" y2="815.7094"/><text fill="#000000" font-family="sans-serif" font-size="11.7" font-weight="bold" lengthAdjust="spacing" textLength="12.6" x="560.7" y="810.9729">23</text><text fill="#000000" font-family="sans-serif" font-size="11.7" lengthAdjust="spacing" textLength="3.6" x="576.9" y="810.9729">&#160;</text><polygon fill="#181818" points="126.9,846.5713,117.9,850.1713,126.9,853.7713,123.3,850.1713" style="stroke:#181818;stroke-width:0.9;"/><line style="stroke:#181818;stroke-width:0.9;stroke-dasharray:2.0,2.0;" x1="121.5" x2="540" y1="850.1713" y2="850.1713"/><text fill="#000000" font-family="sans-serif" font-size="11.7" font-weight="bold" lengthAdjust="spacing" textLength="12.6" x="132.3" y="845.4349">24</text><text fill="#000000" font-family="sans-serif" font-size="11.7" lengthAdjust="spacing" textLength="68.4" x="148.5" y="845.4349">storeListDTO</text><polygon fill="#181818" points="9.9,874.7332,0.9,878.3332,9.9,881.9332,6.3,878.3332" style="stroke:#181818;stroke-width:0.9;"/><line style="stroke:#181818;stroke-width:0.9;stroke-dasharray:2.0,2.0;" x1="4.5" x2="111.6" y1="878.3332" y2="878.3332"/><text fill="#000000" font-family="sans-serif" font-size="11.7" font-weight="bold" lengthAdjust="spacing" textLength="12.6" x="15.3" y="873.5968">25</text><text fill="#000000" font-family="sans-serif" font-size="11.7" lengthAdjust="spacing" textLength="68.4" x="31.5" y="873.5968">storeListDTO</text><!--SRC=[lLNBRjim4BphAnOvkGPyp4L80WHnK1Imso3siHT6siXC958WwHJv-wwMUb2lg9TQ9ugSsPbTBadxBbKfZ2YWq4ed9wCB16VE6DbsfHJ9kyZmu3vp18E94ohBGu0zYLJ_aIg3Lv5RZ2AQTZAHfL0EhkAj_90fqRL1-w2LCphFqLo1iF1mVDuDqCzOQYi9BD4offtuFCXAs6dLfvY04VzMem1Fk_jZds4hBrrS8XtwCyopZYRwH8RjHLdM_gtRYpvY9wrZrFRuAwv-Rfg_EsRal4w_CxI04n8cR5G2jXxKPggmKIJELA9pyO86hgCeC_fSmdTqm2oeuaURpHtN7cB8q0lRrRT894v-28T-NnX0m8aDyBmVob8l94XC2BusojJEzP3LDnMziHT3kBSzQeh_BjCaKZL2a777cqk0EsVacCDq5WVDDETo7AknnNqss8b9ExuXHtuydmBvLbclPo7ThhDfReKPknDQdT-z2ErIrwtQUBFMwQ3qbdAjItZL1aZp1FhbZIuMa0hQap2L1GctUPBiUaq-4eEaG3LRm1DKfd3BZPiEIjppMf-uuNfGd1gnB9YYbPaIJb9Ji_AscxYG1P7I5bclVi_Z2mbZ8MJkTH-huOLaovDM-DDVVop-r4tyNml-N3HtywtJxS7uGdPyCCPXHvt-XSdfUAEJmusHhXgpYtMfNfO9ZrsyEl_b-l4RDKIXIcSyJrnPGo_3xCErcyqclAONwFpiaHVWH_Cl]--></g></svg>