<?xml version="1.0" encoding="us-ascii" standalone="no"?><svg xmlns="http://www.w3.org/2000/svg" xmlns:xlink="http://www.w3.org/1999/xlink" contentStyleType="text/css" height="1061.1px" preserveAspectRatio="none" style="width:1553px;height:1061px;background:#FFFFFF;" version="1.1" viewBox="0 0 1553 1061" width="1553.4px" zoomAndPan="magnify"><defs/><g><!--class ApplicationSession--><g id="elem_ApplicationSession"><rect codeLine="12" fill="#F1F1F1" height="76.718" id="ApplicationSession" rx="2.25" ry="2.25" style="stroke:#181818;stroke-width:0.45;" width="135.9" x="976.5" y="212.85"/><ellipse cx="990" cy="227.25" fill="#ADD1B2" rx="9.9" ry="9.9" style="stroke:#181818;stroke-width:0.9;"/><path d="M992.4891,223.5375 Q992.6297,223.3406 992.7984,223.2422 Q992.9672,223.1438 993.1641,223.1438 Q993.5016,223.1438 993.7125,223.3828 Q993.9234,223.6078 993.9234,224.1563 L993.9234,225.4641 Q993.9234,226.0125 993.7125,226.2516 Q993.5016,226.4906 993.1641,226.4906 Q992.8547,226.4906 992.6719,226.3078 Q992.4891,226.1391 992.3906,225.675 Q992.3484,225.3516 992.1797,225.1828 Q991.8844,224.8453 991.3359,224.6484 Q990.7875,224.4516 990.225,224.4516 Q989.5359,224.4516 988.9594,224.7469 Q988.3969,225.0422 987.9469,225.7172 Q987.5109,226.3922 987.5109,227.3203 L987.5109,228.3047 Q987.5109,229.4156 988.3125,230.1609 Q989.1141,230.8922 990.5484,230.8922 Q991.3922,230.8922 991.9828,230.6672 Q992.3344,230.5266 992.7141,230.1328 Q992.9531,229.8938 993.0797,229.8234 Q993.2203,229.7531 993.4031,229.7531 Q993.6984,229.7531 993.9234,229.9922 Q994.1625,230.2172 994.1625,230.5266 Q994.1625,230.8359 993.8531,231.2016 Q993.4031,231.7219 992.6859,232.0172 Q991.7156,232.425 990.5484,232.425 Q989.1844,232.425 988.1016,231.8625 Q987.2156,231.4125 986.5969,230.4563 Q985.9781,229.4859 985.9781,228.3328 L985.9781,227.2922 Q985.9781,226.0969 986.5266,225.0703 Q987.0891,224.0297 988.0734,223.4813 Q989.0578,222.9188 990.1688,222.9188 Q990.8297,222.9188 991.4063,223.0734 Q991.9969,223.2141 992.4891,223.5375 Z " fill="#000000"/><text fill="#000000" font-family="sans-serif" font-size="12.6" lengthAdjust="spacing" textLength="107.1" x="1002.6" y="232.4672">ApplicationSession</text><line style="stroke:#181818;stroke-width:0.45;" x1="977.4" x2="1111.5" y1="241.65" y2="241.65"/><line style="stroke:#181818;stroke-width:0.45;" x1="977.4" x2="1111.5" y1="248.85" y2="248.85"/><text fill="#000000" font-family="sans-serif" font-size="12.6" lengthAdjust="spacing" textLength="115.2" x="981.9" y="266.0467">+static getInstance()</text><text fill="#000000" font-family="sans-serif" font-size="12.6" lengthAdjust="spacing" textLength="122.4" x="981.9" y="282.8057">+getCurrentSession()</text></g><!--class UserSession--><g id="elem_UserSession"><rect codeLine="18" fill="#F1F1F1" height="59.959" id="UserSession" rx="2.25" ry="2.25" style="stroke:#181818;stroke-width:0.45;" width="101.7" x="1084.5" y="380.7"/><ellipse cx="1098.81" cy="395.1" fill="#ADD1B2" rx="9.9" ry="9.9" style="stroke:#181818;stroke-width:0.9;"/><path d="M1101.2991,391.3875 Q1101.4397,391.1906 1101.6084,391.0922 Q1101.7772,390.9938 1101.9741,390.9938 Q1102.3116,390.9938 1102.5225,391.2328 Q1102.7334,391.4578 1102.7334,392.0063 L1102.7334,393.3141 Q1102.7334,393.8625 1102.5225,394.1016 Q1102.3116,394.3406 1101.9741,394.3406 Q1101.6647,394.3406 1101.4819,394.1578 Q1101.2991,393.9891 1101.2006,393.525 Q1101.1584,393.2016 1100.9897,393.0328 Q1100.6944,392.6953 1100.1459,392.4984 Q1099.5975,392.3016 1099.035,392.3016 Q1098.3459,392.3016 1097.7694,392.5969 Q1097.2069,392.8922 1096.7569,393.5672 Q1096.3209,394.2422 1096.3209,395.1703 L1096.3209,396.1547 Q1096.3209,397.2656 1097.1225,398.0109 Q1097.9241,398.7422 1099.3584,398.7422 Q1100.2022,398.7422 1100.7928,398.5172 Q1101.1444,398.3766 1101.5241,397.9828 Q1101.7631,397.7438 1101.8897,397.6734 Q1102.0303,397.6031 1102.2131,397.6031 Q1102.5084,397.6031 1102.7334,397.8422 Q1102.9725,398.0672 1102.9725,398.3766 Q1102.9725,398.6859 1102.6631,399.0516 Q1102.2131,399.5719 1101.4959,399.8672 Q1100.5256,400.275 1099.3584,400.275 Q1097.9944,400.275 1096.9116,399.7125 Q1096.0256,399.2625 1095.4069,398.3063 Q1094.7881,397.3359 1094.7881,396.1828 L1094.7881,395.1422 Q1094.7881,393.9469 1095.3366,392.9203 Q1095.8991,391.8797 1096.8834,391.3313 Q1097.8678,390.7688 1098.9788,390.7688 Q1099.6397,390.7688 1100.2163,390.9234 Q1100.8069,391.0641 1101.2991,391.3875 Z " fill="#000000"/><text fill="#000000" font-family="sans-serif" font-size="12.6" lengthAdjust="spacing" textLength="71.1" x="1111.59" y="400.3172">UserSession</text><line style="stroke:#181818;stroke-width:0.45;" x1="1085.4" x2="1185.3" y1="409.5" y2="409.5"/><line style="stroke:#181818;stroke-width:0.45;" x1="1085.4" x2="1185.3" y1="416.7" y2="416.7"/><text fill="#000000" font-family="sans-serif" font-size="12.6" lengthAdjust="spacing" textLength="90.9" x="1089.9" y="433.8967">+getUserEmail()</text></g><!--class StoreRepository--><g id="elem_StoreRepository"><rect codeLine="28" fill="#F1F1F1" height="59.959" id="StoreRepository" rx="2.25" ry="2.25" style="stroke:#181818;stroke-width:0.45;" width="120.6" x="589.05" y="380.7"/><ellipse cx="602.55" cy="395.1" fill="#ADD1B2" rx="9.9" ry="9.9" style="stroke:#181818;stroke-width:0.9;"/><path d="M605.0391,391.3875 Q605.1797,391.1906 605.3484,391.0922 Q605.5172,390.9938 605.7141,390.9938 Q606.0516,390.9938 606.2625,391.2328 Q606.4734,391.4578 606.4734,392.0063 L606.4734,393.3141 Q606.4734,393.8625 606.2625,394.1016 Q606.0516,394.3406 605.7141,394.3406 Q605.4047,394.3406 605.2219,394.1578 Q605.0391,393.9891 604.9406,393.525 Q604.8984,393.2016 604.7297,393.0328 Q604.4344,392.6953 603.8859,392.4984 Q603.3375,392.3016 602.775,392.3016 Q602.0859,392.3016 601.5094,392.5969 Q600.9469,392.8922 600.4969,393.5672 Q600.0609,394.2422 600.0609,395.1703 L600.0609,396.1547 Q600.0609,397.2656 600.8625,398.0109 Q601.6641,398.7422 603.0984,398.7422 Q603.9422,398.7422 604.5328,398.5172 Q604.8844,398.3766 605.2641,397.9828 Q605.5031,397.7438 605.6297,397.6734 Q605.7703,397.6031 605.9531,397.6031 Q606.2484,397.6031 606.4734,397.8422 Q606.7125,398.0672 606.7125,398.3766 Q606.7125,398.6859 606.4031,399.0516 Q605.9531,399.5719 605.2359,399.8672 Q604.2656,400.275 603.0984,400.275 Q601.7344,400.275 600.6516,399.7125 Q599.7656,399.2625 599.1469,398.3063 Q598.5281,397.3359 598.5281,396.1828 L598.5281,395.1422 Q598.5281,393.9469 599.0766,392.9203 Q599.6391,391.8797 600.6234,391.3313 Q601.6078,390.7688 602.7188,390.7688 Q603.3797,390.7688 603.9563,390.9234 Q604.5469,391.0641 605.0391,391.3875 Z " fill="#000000"/><text fill="#000000" font-family="sans-serif" font-size="12.6" lengthAdjust="spacing" textLength="91.8" x="615.15" y="400.3172">StoreRepository</text><line style="stroke:#181818;stroke-width:0.45;" x1="589.95" x2="708.75" y1="409.5" y2="409.5"/><line style="stroke:#181818;stroke-width:0.45;" x1="589.95" x2="708.75" y1="416.7" y2="416.7"/><text fill="#000000" font-family="sans-serif" font-size="12.6" lengthAdjust="spacing" textLength="64.8" x="594.45" y="433.8967">+getStore()</text></g><!--class DivideStoresAlgorithm--><g id="elem_DivideStoresAlgorithm"><rect codeLine="31" fill="#F1F1F1" height="143.7539" id="DivideStoresAlgorithm" rx="2.25" ry="2.25" style="stroke:#181818;stroke-width:0.45;" width="545.4" x="1002.15" y="10.8"/><ellipse cx="1208.475" cy="25.2" fill="#ADD1B2" rx="9.9" ry="9.9" style="stroke:#181818;stroke-width:0.9;"/><path d="M1210.9641,21.4875 Q1211.1047,21.2906 1211.2734,21.1922 Q1211.4422,21.0938 1211.6391,21.0938 Q1211.9766,21.0938 1212.1875,21.3328 Q1212.3984,21.5578 1212.3984,22.1063 L1212.3984,23.4141 Q1212.3984,23.9625 1212.1875,24.2016 Q1211.9766,24.4406 1211.6391,24.4406 Q1211.3297,24.4406 1211.1469,24.2578 Q1210.9641,24.0891 1210.8656,23.625 Q1210.8234,23.3016 1210.6547,23.1328 Q1210.3594,22.7953 1209.8109,22.5984 Q1209.2625,22.4016 1208.7,22.4016 Q1208.0109,22.4016 1207.4344,22.6969 Q1206.8719,22.9922 1206.4219,23.6672 Q1205.9859,24.3422 1205.9859,25.2703 L1205.9859,26.2547 Q1205.9859,27.3656 1206.7875,28.1109 Q1207.5891,28.8422 1209.0234,28.8422 Q1209.8672,28.8422 1210.4578,28.6172 Q1210.8094,28.4766 1211.1891,28.0828 Q1211.4281,27.8438 1211.5547,27.7734 Q1211.6953,27.7031 1211.8781,27.7031 Q1212.1734,27.7031 1212.3984,27.9422 Q1212.6375,28.1672 1212.6375,28.4766 Q1212.6375,28.7859 1212.3281,29.1516 Q1211.8781,29.6719 1211.1609,29.9672 Q1210.1906,30.375 1209.0234,30.375 Q1207.6594,30.375 1206.5766,29.8125 Q1205.6906,29.3625 1205.0719,28.4063 Q1204.4531,27.4359 1204.4531,26.2828 L1204.4531,25.2422 Q1204.4531,24.0469 1205.0016,23.0203 Q1205.5641,21.9797 1206.5484,21.4313 Q1207.5328,20.8688 1208.6438,20.8688 Q1209.3047,20.8688 1209.8813,21.0234 Q1210.4719,21.1641 1210.9641,21.4875 Z " fill="#000000"/><text fill="#000000" font-family="sans-serif" font-size="12.6" lengthAdjust="spacing" textLength="125.1" x="1226.925" y="30.4172">DivideStoresAlgorithm</text><line style="stroke:#181818;stroke-width:0.45;" x1="1003.05" x2="1546.65" y1="39.6" y2="39.6"/><line style="stroke:#181818;stroke-width:0.45;" x1="1003.05" x2="1546.65" y1="46.8" y2="46.8"/><text fill="#000000" font-family="sans-serif" font-size="12.6" lengthAdjust="spacing" textLength="416.7" x="1007.55" y="63.9967">+divideStores(Integer[] selectedStoresList,Integer[] numberPropertiesList)</text><text fill="#000000" font-family="sans-serif" font-size="12.6" lengthAdjust="spacing" textLength="257.4" x="1007.55" y="80.7557">-getTotalSum(Integer[] numberPropertiesList)</text><text fill="#000000" font-family="sans-serif" font-size="12.6" lengthAdjust="spacing" textLength="113.4" x="1007.55" y="97.5146">-getBinary(Integer i)</text><text fill="#000000" font-family="sans-serif" font-size="12.6" lengthAdjust="spacing" textLength="340.2" x="1007.55" y="114.2736">-getPartialSum(String binary,Integer[] numberPropertiesList)</text><text fill="#000000" font-family="sans-serif" font-size="12.6" lengthAdjust="spacing" textLength="247.5" x="1007.55" y="131.0326">-saveMinimum(String binary, Integer partial)</text><text fill="#000000" font-family="sans-serif" font-size="12.6" lengthAdjust="spacing" textLength="534.6" x="1007.55" y="147.7916">-getPairOfSublists(String[] minVal, Integer[] selectedStoresList, Integer[] numberPropertiesList)</text></g><!--class PropertyRepository--><g id="elem_PropertyRepository"><rect codeLine="39" fill="#F1F1F1" height="93.477" id="PropertyRepository" rx="2.25" ry="2.25" style="stroke:#181818;stroke-width:0.45;" width="275.4" x="638.55" y="684"/><ellipse cx="717.525" cy="698.4" fill="#ADD1B2" rx="9.9" ry="9.9" style="stroke:#181818;stroke-width:0.9;"/><path d="M720.0141,694.6875 Q720.1547,694.4906 720.3234,694.3922 Q720.4922,694.2938 720.6891,694.2938 Q721.0266,694.2938 721.2375,694.5328 Q721.4484,694.7578 721.4484,695.3063 L721.4484,696.6141 Q721.4484,697.1625 721.2375,697.4016 Q721.0266,697.6406 720.6891,697.6406 Q720.3797,697.6406 720.1969,697.4578 Q720.0141,697.2891 719.9156,696.825 Q719.8734,696.5016 719.7047,696.3328 Q719.4094,695.9953 718.8609,695.7984 Q718.3125,695.6016 717.75,695.6016 Q717.0609,695.6016 716.4844,695.8969 Q715.9219,696.1922 715.4719,696.8672 Q715.0359,697.5422 715.0359,698.4703 L715.0359,699.4547 Q715.0359,700.5656 715.8375,701.3109 Q716.6391,702.0422 718.0734,702.0422 Q718.9172,702.0422 719.5078,701.8172 Q719.8594,701.6766 720.2391,701.2828 Q720.4781,701.0438 720.6047,700.9734 Q720.7453,700.9031 720.9281,700.9031 Q721.2234,700.9031 721.4484,701.1422 Q721.6875,701.3672 721.6875,701.6766 Q721.6875,701.9859 721.3781,702.3516 Q720.9281,702.8719 720.2109,703.1672 Q719.2406,703.575 718.0734,703.575 Q716.7094,703.575 715.6266,703.0125 Q714.7406,702.5625 714.1219,701.6063 Q713.5031,700.6359 713.5031,699.4828 L713.5031,698.4422 Q713.5031,697.2469 714.0516,696.2203 Q714.6141,695.1797 715.5984,694.6313 Q716.5828,694.0688 717.6938,694.0688 Q718.3547,694.0688 718.9313,694.2234 Q719.5219,694.3641 720.0141,694.6875 Z " fill="#000000"/><text fill="#000000" font-family="sans-serif" font-size="12.6" lengthAdjust="spacing" textLength="109.8" x="735.975" y="703.6172">PropertyRepository</text><line style="stroke:#181818;stroke-width:0.45;" x1="639.45" x2="913.05" y1="712.8" y2="712.8"/><line style="stroke:#181818;stroke-width:0.45;" x1="639.45" x2="913.05" y1="720" y2="720"/><text fill="#000000" font-family="sans-serif" font-size="12.6" lengthAdjust="spacing" textLength="64.8" x="643.95" y="737.1967">+getStore()</text><text fill="#000000" font-family="sans-serif" font-size="12.6" lengthAdjust="spacing" textLength="260.1" x="643.95" y="753.9557">+getNumberPropertiesFromStore(Store store)</text><text fill="#000000" font-family="sans-serif" font-size="12.6" lengthAdjust="spacing" textLength="264.6" x="643.95" y="770.7146">-addToNumberPropertiesList(propertyNumber)</text></g><!--class Repositories--><g id="elem_Repositories"><rect codeLine="44" fill="#F1F1F1" height="93.477" id="Repositories" rx="2.25" ry="2.25" style="stroke:#181818;stroke-width:0.45;" width="174.6" x="688.95" y="204.3"/><ellipse cx="736.875" cy="218.7" fill="#ADD1B2" rx="9.9" ry="9.9" style="stroke:#181818;stroke-width:0.9;"/><path d="M739.3641,214.9875 Q739.5047,214.7906 739.6734,214.6922 Q739.8422,214.5938 740.0391,214.5938 Q740.3766,214.5938 740.5875,214.8328 Q740.7984,215.0578 740.7984,215.6063 L740.7984,216.9141 Q740.7984,217.4625 740.5875,217.7016 Q740.3766,217.9406 740.0391,217.9406 Q739.7297,217.9406 739.5469,217.7578 Q739.3641,217.5891 739.2656,217.125 Q739.2234,216.8016 739.0547,216.6328 Q738.7594,216.2953 738.2109,216.0984 Q737.6625,215.9016 737.1,215.9016 Q736.4109,215.9016 735.8344,216.1969 Q735.2719,216.4922 734.8219,217.1672 Q734.3859,217.8422 734.3859,218.7703 L734.3859,219.7547 Q734.3859,220.8656 735.1875,221.6109 Q735.9891,222.3422 737.4234,222.3422 Q738.2672,222.3422 738.8578,222.1172 Q739.2094,221.9766 739.5891,221.5828 Q739.8281,221.3438 739.9547,221.2734 Q740.0953,221.2031 740.2781,221.2031 Q740.5734,221.2031 740.7984,221.4422 Q741.0375,221.6672 741.0375,221.9766 Q741.0375,222.2859 740.7281,222.6516 Q740.2781,223.1719 739.5609,223.4672 Q738.5906,223.875 737.4234,223.875 Q736.0594,223.875 734.9766,223.3125 Q734.0906,222.8625 733.4719,221.9063 Q732.8531,220.9359 732.8531,219.7828 L732.8531,218.7422 Q732.8531,217.5469 733.4016,216.5203 Q733.9641,215.4797 734.9484,214.9313 Q735.9328,214.3688 737.0438,214.3688 Q737.7047,214.3688 738.2813,214.5234 Q738.8719,214.6641 739.3641,214.9875 Z " fill="#000000"/><text fill="#000000" font-family="sans-serif" font-size="12.6" lengthAdjust="spacing" textLength="71.1" x="755.325" y="223.9172">Repositories</text><line style="stroke:#181818;stroke-width:0.45;" x1="689.85" x2="862.65" y1="233.1" y2="233.1"/><line style="stroke:#181818;stroke-width:0.45;" x1="689.85" x2="862.65" y1="240.3" y2="240.3"/><text fill="#000000" font-family="sans-serif" font-size="12.6" lengthAdjust="spacing" textLength="84.6" x="694.35" y="257.4967">-Repositories()</text><text fill="#000000" font-family="sans-serif" font-size="12.6" lengthAdjust="spacing" textLength="163.8" x="694.35" y="274.2557">+getInstance() : Repositories</text><text fill="#000000" font-family="sans-serif" font-size="12.6" lengthAdjust="spacing" textLength="126" x="694.35" y="291.0146">+getStoreRepository()</text></g><!--class DivideStoresController--><g id="elem_DivideStoresController"><rect codeLine="51" fill="#F1F1F1" height="110.2359" id="DivideStoresController" rx="2.25" ry="2.25" style="stroke:#181818;stroke-width:0.45;" width="244.8" x="741.15" y="27.9"/><ellipse cx="795.825" cy="42.3" fill="#ADD1B2" rx="9.9" ry="9.9" style="stroke:#181818;stroke-width:0.9;"/><path d="M798.3141,38.5875 Q798.4547,38.3906 798.6234,38.2922 Q798.7922,38.1938 798.9891,38.1938 Q799.3266,38.1938 799.5375,38.4328 Q799.7484,38.6578 799.7484,39.2063 L799.7484,40.5141 Q799.7484,41.0625 799.5375,41.3016 Q799.3266,41.5406 798.9891,41.5406 Q798.6797,41.5406 798.4969,41.3578 Q798.3141,41.1891 798.2156,40.725 Q798.1734,40.4016 798.0047,40.2328 Q797.7094,39.8953 797.1609,39.6984 Q796.6125,39.5016 796.05,39.5016 Q795.3609,39.5016 794.7844,39.7969 Q794.2219,40.0922 793.7719,40.7672 Q793.3359,41.4422 793.3359,42.3703 L793.3359,43.3547 Q793.3359,44.4656 794.1375,45.2109 Q794.9391,45.9422 796.3734,45.9422 Q797.2172,45.9422 797.8078,45.7172 Q798.1594,45.5766 798.5391,45.1828 Q798.7781,44.9438 798.9047,44.8734 Q799.0453,44.8031 799.2281,44.8031 Q799.5234,44.8031 799.7484,45.0422 Q799.9875,45.2672 799.9875,45.5766 Q799.9875,45.8859 799.6781,46.2516 Q799.2281,46.7719 798.5109,47.0672 Q797.5406,47.475 796.3734,47.475 Q795.0094,47.475 793.9266,46.9125 Q793.0406,46.4625 792.4219,45.5063 Q791.8031,44.5359 791.8031,43.3828 L791.8031,42.3422 Q791.8031,41.1469 792.3516,40.1203 Q792.9141,39.0797 793.8984,38.5313 Q794.8828,37.9688 795.9938,37.9688 Q796.6547,37.9688 797.2313,38.1234 Q797.8219,38.2641 798.3141,38.5875 Z " fill="#000000"/><text fill="#000000" font-family="sans-serif" font-size="12.6" lengthAdjust="spacing" textLength="127.8" x="814.275" y="47.5172">DivideStoresController</text><line style="stroke:#181818;stroke-width:0.45;" x1="742.05" x2="985.05" y1="56.7" y2="56.7"/><line style="stroke:#181818;stroke-width:0.45;" x1="742.05" x2="985.05" y1="63.9" y2="63.9"/><text fill="#000000" font-family="sans-serif" font-size="12.6" lengthAdjust="spacing" textLength="234" x="746.55" y="81.0967">+DivideStoresController(storeRepository)</text><text fill="#000000" font-family="sans-serif" font-size="12.6" lengthAdjust="spacing" textLength="123.3" x="746.55" y="97.8557">-getStoreRepository()</text><text fill="#000000" font-family="sans-serif" font-size="12.6" lengthAdjust="spacing" textLength="62.1" x="746.55" y="114.6146">-getStore()</text><text fill="#000000" font-family="sans-serif" font-size="12.6" lengthAdjust="spacing" textLength="68.4" x="746.55" y="131.3736">-getStores()</text></g><!--class Store--><g id="elem_Store"><rect codeLine="58" fill="#F1F1F1" height="194.0309" id="Store" rx="2.25" ry="2.25" style="stroke:#181818;stroke-width:0.45;" width="138.6" x="303.75" y="633.6"/><ellipse cx="353.925" cy="648" fill="#ADD1B2" rx="9.9" ry="9.9" style="stroke:#181818;stroke-width:0.9;"/><path d="M356.4141,644.2875 Q356.5547,644.0906 356.7234,643.9922 Q356.8922,643.8938 357.0891,643.8938 Q357.4266,643.8938 357.6375,644.1328 Q357.8484,644.3578 357.8484,644.9063 L357.8484,646.2141 Q357.8484,646.7625 357.6375,647.0016 Q357.4266,647.2406 357.0891,647.2406 Q356.7797,647.2406 356.5969,647.0578 Q356.4141,646.8891 356.3156,646.425 Q356.2734,646.1016 356.1047,645.9328 Q355.8094,645.5953 355.2609,645.3984 Q354.7125,645.2016 354.15,645.2016 Q353.4609,645.2016 352.8844,645.4969 Q352.3219,645.7922 351.8719,646.4672 Q351.4359,647.1422 351.4359,648.0703 L351.4359,649.0547 Q351.4359,650.1656 352.2375,650.9109 Q353.0391,651.6422 354.4734,651.6422 Q355.3172,651.6422 355.9078,651.4172 Q356.2594,651.2766 356.6391,650.8828 Q356.8781,650.6438 357.0047,650.5734 Q357.1453,650.5031 357.3281,650.5031 Q357.6234,650.5031 357.8484,650.7422 Q358.0875,650.9672 358.0875,651.2766 Q358.0875,651.5859 357.7781,651.9516 Q357.3281,652.4719 356.6109,652.7672 Q355.6406,653.175 354.4734,653.175 Q353.1094,653.175 352.0266,652.6125 Q351.1406,652.1625 350.5219,651.2063 Q349.9031,650.2359 349.9031,649.0828 L349.9031,648.0422 Q349.9031,646.8469 350.4516,645.8203 Q351.0141,644.7797 351.9984,644.2313 Q352.9828,643.6688 354.0938,643.6688 Q354.7547,643.6688 355.3313,643.8234 Q355.9219,643.9641 356.4141,644.2875 Z " fill="#000000"/><text fill="#000000" font-family="sans-serif" font-size="12.6" lengthAdjust="spacing" textLength="30.6" x="372.375" y="653.2172">Store</text><line style="stroke:#181818;stroke-width:0.45;" x1="304.65" x2="441.45" y1="662.4" y2="662.4"/><text fill="#000000" font-family="sans-serif" font-size="12.6" lengthAdjust="spacing" textLength="57.6" x="309.15" y="679.5967">-Integer id</text><text fill="#000000" font-family="sans-serif" font-size="12.6" lengthAdjust="spacing" textLength="107.1" x="309.15" y="696.3557">-String designation</text><text fill="#000000" font-family="sans-serif" font-size="12.6" lengthAdjust="spacing" textLength="71.1" x="309.15" y="713.1146">-String email</text><text fill="#000000" font-family="sans-serif" font-size="12.6" lengthAdjust="spacing" textLength="127.8" x="309.15" y="729.8736">-Integer phoneNumber</text><line style="stroke:#181818;stroke-width:0.45;" x1="304.65" x2="441.45" y1="736.6359" y2="736.6359"/><text fill="#000000" font-family="sans-serif" font-size="12.6" lengthAdjust="spacing" textLength="44.1" x="309.15" y="753.8326">+getId()</text><text fill="#000000" font-family="sans-serif" font-size="12.6" lengthAdjust="spacing" textLength="101.7" x="309.15" y="770.5916">+getDesignation()</text><text fill="#000000" font-family="sans-serif" font-size="12.6" lengthAdjust="spacing" textLength="81" x="309.15" y="787.3506">+getAddress()</text><text fill="#000000" font-family="sans-serif" font-size="12.6" lengthAdjust="spacing" textLength="64.8" x="309.15" y="804.1096">+getEmail()</text><text fill="#000000" font-family="sans-serif" font-size="12.6" lengthAdjust="spacing" textLength="115.2" x="309.15" y="820.8686">+getPhoneNumber()</text></g><!--class Address--><g id="elem_Address"><rect codeLine="70" fill="#F1F1F1" height="110.2359" id="Address" rx="2.25" ry="2.25" style="stroke:#181818;stroke-width:0.45;" width="131.4" x="183.15" y="903.6"/><ellipse cx="221.76" cy="918" fill="#ADD1B2" rx="9.9" ry="9.9" style="stroke:#181818;stroke-width:0.9;"/><path d="M224.2491,914.2875 Q224.3897,914.0906 224.5584,913.9922 Q224.7272,913.8938 224.9241,913.8938 Q225.2616,913.8938 225.4725,914.1328 Q225.6834,914.3578 225.6834,914.9063 L225.6834,916.2141 Q225.6834,916.7625 225.4725,917.0016 Q225.2616,917.2406 224.9241,917.2406 Q224.6147,917.2406 224.4319,917.0578 Q224.2491,916.8891 224.1506,916.425 Q224.1084,916.1016 223.9397,915.9328 Q223.6444,915.5953 223.0959,915.3984 Q222.5475,915.2016 221.985,915.2016 Q221.2959,915.2016 220.7194,915.4969 Q220.1569,915.7922 219.7069,916.4672 Q219.2709,917.1422 219.2709,918.0703 L219.2709,919.0547 Q219.2709,920.1656 220.0725,920.9109 Q220.8741,921.6422 222.3084,921.6422 Q223.1522,921.6422 223.7428,921.4172 Q224.0944,921.2766 224.4741,920.8828 Q224.7131,920.6438 224.8397,920.5734 Q224.9803,920.5031 225.1631,920.5031 Q225.4584,920.5031 225.6834,920.7422 Q225.9225,920.9672 225.9225,921.2766 Q225.9225,921.5859 225.6131,921.9516 Q225.1631,922.4719 224.4459,922.7672 Q223.4756,923.175 222.3084,923.175 Q220.9444,923.175 219.8616,922.6125 Q218.9756,922.1625 218.3569,921.2063 Q217.7381,920.2359 217.7381,919.0828 L217.7381,918.0422 Q217.7381,916.8469 218.2866,915.8203 Q218.8491,914.7797 219.8334,914.2313 Q220.8178,913.6688 221.9288,913.6688 Q222.5897,913.6688 223.1663,913.8234 Q223.7569,913.9641 224.2491,914.2875 Z " fill="#000000"/><text fill="#000000" font-family="sans-serif" font-size="12.6" lengthAdjust="spacing" textLength="46.8" x="239.94" y="923.2172">Address</text><line style="stroke:#181818;stroke-width:0.45;" x1="184.05" x2="313.65" y1="932.4" y2="932.4"/><text fill="#000000" font-family="sans-serif" font-size="12.6" lengthAdjust="spacing" textLength="120.6" x="188.55" y="949.5967">-String streetAddress</text><text fill="#000000" font-family="sans-serif" font-size="12.6" lengthAdjust="spacing" textLength="60.3" x="188.55" y="966.3557">-String city</text><text fill="#000000" font-family="sans-serif" font-size="12.6" lengthAdjust="spacing" textLength="69.3" x="188.55" y="983.1146">-String state</text><text fill="#000000" font-family="sans-serif" font-size="12.6" lengthAdjust="spacing" textLength="87.3" x="188.55" y="999.8736">-String zipCode</text><line style="stroke:#181818;stroke-width:0.45;" x1="184.05" x2="313.65" y1="1006.6359" y2="1006.6359"/></g><!--class StoreMapper--><g id="elem_StoreMapper"><rect codeLine="79" fill="#F1F1F1" height="76.718" id="StoreMapper" rx="2.25" ry="2.25" style="stroke:#181818;stroke-width:0.45;" width="219.6" x="335.25" y="212.85"/><ellipse cx="404.325" cy="227.25" fill="#ADD1B2" rx="9.9" ry="9.9" style="stroke:#181818;stroke-width:0.9;"/><path d="M406.8141,223.5375 Q406.9547,223.3406 407.1234,223.2422 Q407.2922,223.1438 407.4891,223.1438 Q407.8266,223.1438 408.0375,223.3828 Q408.2484,223.6078 408.2484,224.1563 L408.2484,225.4641 Q408.2484,226.0125 408.0375,226.2516 Q407.8266,226.4906 407.4891,226.4906 Q407.1797,226.4906 406.9969,226.3078 Q406.8141,226.1391 406.7156,225.675 Q406.6734,225.3516 406.5047,225.1828 Q406.2094,224.8453 405.6609,224.6484 Q405.1125,224.4516 404.55,224.4516 Q403.8609,224.4516 403.2844,224.7469 Q402.7219,225.0422 402.2719,225.7172 Q401.8359,226.3922 401.8359,227.3203 L401.8359,228.3047 Q401.8359,229.4156 402.6375,230.1609 Q403.4391,230.8922 404.8734,230.8922 Q405.7172,230.8922 406.3078,230.6672 Q406.6594,230.5266 407.0391,230.1328 Q407.2781,229.8938 407.4047,229.8234 Q407.5453,229.7531 407.7281,229.7531 Q408.0234,229.7531 408.2484,229.9922 Q408.4875,230.2172 408.4875,230.5266 Q408.4875,230.8359 408.1781,231.2016 Q407.7281,231.7219 407.0109,232.0172 Q406.0406,232.425 404.8734,232.425 Q403.5094,232.425 402.4266,231.8625 Q401.5406,231.4125 400.9219,230.4563 Q400.3031,229.4859 400.3031,228.3328 L400.3031,227.2922 Q400.3031,226.0969 400.8516,225.0703 Q401.4141,224.0297 402.3984,223.4813 Q403.3828,222.9188 404.4938,222.9188 Q405.1547,222.9188 405.7313,223.0734 Q406.3219,223.2141 406.8141,223.5375 Z " fill="#000000"/><text fill="#000000" font-family="sans-serif" font-size="12.6" lengthAdjust="spacing" textLength="73.8" x="422.775" y="232.4672">StoreMapper</text><line style="stroke:#181818;stroke-width:0.45;" x1="336.15" x2="553.95" y1="241.65" y2="241.65"/><line style="stroke:#181818;stroke-width:0.45;" x1="336.15" x2="553.95" y1="248.85" y2="248.85"/><text fill="#000000" font-family="sans-serif" font-size="12.6" lengthAdjust="spacing" textLength="117" x="340.65" y="266.0467">+toDTO(Store store)</text><text fill="#000000" font-family="sans-serif" font-size="12.6" lengthAdjust="spacing" textLength="208.8" x="340.65" y="282.8057">+getStoresDTO(List&lt;store&gt; storelist)</text></g><!--class Property--><g id="elem_Property"><rect codeLine="85" fill="#F1F1F1" height="194.0309" id="Property" rx="2.25" ry="2.25" style="stroke:#181818;stroke-width:0.45;" width="191.7" x="331.2" y="861.3"/><ellipse cx="398.925" cy="875.7" fill="#ADD1B2" rx="9.9" ry="9.9" style="stroke:#181818;stroke-width:0.9;"/><path d="M401.4141,871.9875 Q401.5547,871.7906 401.7234,871.6922 Q401.8922,871.5938 402.0891,871.5938 Q402.4266,871.5938 402.6375,871.8328 Q402.8484,872.0578 402.8484,872.6063 L402.8484,873.9141 Q402.8484,874.4625 402.6375,874.7016 Q402.4266,874.9406 402.0891,874.9406 Q401.7797,874.9406 401.5969,874.7578 Q401.4141,874.5891 401.3156,874.125 Q401.2734,873.8016 401.1047,873.6328 Q400.8094,873.2953 400.2609,873.0984 Q399.7125,872.9016 399.15,872.9016 Q398.4609,872.9016 397.8844,873.1969 Q397.3219,873.4922 396.8719,874.1672 Q396.4359,874.8422 396.4359,875.7703 L396.4359,876.7547 Q396.4359,877.8656 397.2375,878.6109 Q398.0391,879.3422 399.4734,879.3422 Q400.3172,879.3422 400.9078,879.1172 Q401.2594,878.9766 401.6391,878.5828 Q401.8781,878.3438 402.0047,878.2734 Q402.1453,878.2031 402.3281,878.2031 Q402.6234,878.2031 402.8484,878.4422 Q403.0875,878.6672 403.0875,878.9766 Q403.0875,879.2859 402.7781,879.6516 Q402.3281,880.1719 401.6109,880.4672 Q400.6406,880.875 399.4734,880.875 Q398.1094,880.875 397.0266,880.3125 Q396.1406,879.8625 395.5219,878.9063 Q394.9031,877.9359 394.9031,876.7828 L394.9031,875.7422 Q394.9031,874.5469 395.4516,873.5203 Q396.0141,872.4797 396.9984,871.9313 Q397.9828,871.3688 399.0938,871.3688 Q399.7547,871.3688 400.3313,871.5234 Q400.9219,871.6641 401.4141,871.9875 Z " fill="#000000"/><text fill="#000000" font-family="sans-serif" font-size="12.6" lengthAdjust="spacing" textLength="48.6" x="417.375" y="880.9172">Property</text><line style="stroke:#181818;stroke-width:0.45;" x1="332.1" x2="522" y1="890.1" y2="890.1"/><text fill="#000000" font-family="sans-serif" font-size="12.6" lengthAdjust="spacing" textLength="74.7" x="336.6" y="907.2967">-double price</text><text fill="#000000" font-family="sans-serif" font-size="12.6" lengthAdjust="spacing" textLength="72.9" x="336.6" y="924.0557">-double area</text><text fill="#000000" font-family="sans-serif" font-size="12.6" lengthAdjust="spacing" textLength="100.8" x="336.6" y="940.8146">-Address address</text><text fill="#000000" font-family="sans-serif" font-size="12.6" lengthAdjust="spacing" textLength="148.5" x="336.6" y="957.5736">-double distanceToCentre</text><text fill="#000000" font-family="sans-serif" font-size="12.6" lengthAdjust="spacing" textLength="180.9" x="336.6" y="974.3326">-List&lt;Photograph&gt; photographs</text><text fill="#000000" font-family="sans-serif" font-size="12.6" lengthAdjust="spacing" textLength="162" x="336.6" y="991.0916">-PropertyType propertyType</text><text fill="#000000" font-family="sans-serif" font-size="12.6" lengthAdjust="spacing" textLength="67.5" x="336.6" y="1007.8506">-Store store</text><text fill="#000000" font-family="sans-serif" font-size="12.6" lengthAdjust="spacing" textLength="89.1" x="336.6" y="1024.6096">-Person creator</text><text fill="#000000" font-family="sans-serif" font-size="12.6" lengthAdjust="spacing" textLength="88.2" x="336.6" y="1041.3686">-DateTime date</text><line style="stroke:#181818;stroke-width:0.45;" x1="332.1" x2="522" y1="1048.1309" y2="1048.1309"/></g><!--class DivideStoresUI--><g id="elem_DivideStoresUI"><rect codeLine="103" fill="#F1F1F1" height="43.2" id="DivideStoresUI" rx="2.25" ry="2.25" style="stroke:#181818;stroke-width:0.45;" width="111.6" x="613.35" y="61.2"/><ellipse cx="626.85" cy="75.6" fill="#ADD1B2" rx="9.9" ry="9.9" style="stroke:#181818;stroke-width:0.9;"/><path d="M629.3391,71.8875 Q629.4797,71.6906 629.6484,71.5922 Q629.8172,71.4938 630.0141,71.4938 Q630.3516,71.4938 630.5625,71.7328 Q630.7734,71.9578 630.7734,72.5063 L630.7734,73.8141 Q630.7734,74.3625 630.5625,74.6016 Q630.3516,74.8406 630.0141,74.8406 Q629.7047,74.8406 629.5219,74.6578 Q629.3391,74.4891 629.2406,74.025 Q629.1984,73.7016 629.0297,73.5328 Q628.7344,73.1953 628.1859,72.9984 Q627.6375,72.8016 627.075,72.8016 Q626.3859,72.8016 625.8094,73.0969 Q625.2469,73.3922 624.7969,74.0672 Q624.3609,74.7422 624.3609,75.6703 L624.3609,76.6547 Q624.3609,77.7656 625.1625,78.5109 Q625.9641,79.2422 627.3984,79.2422 Q628.2422,79.2422 628.8328,79.0172 Q629.1844,78.8766 629.5641,78.4828 Q629.8031,78.2438 629.9297,78.1734 Q630.0703,78.1031 630.2531,78.1031 Q630.5484,78.1031 630.7734,78.3422 Q631.0125,78.5672 631.0125,78.8766 Q631.0125,79.1859 630.7031,79.5516 Q630.2531,80.0719 629.5359,80.3672 Q628.5656,80.775 627.3984,80.775 Q626.0344,80.775 624.9516,80.2125 Q624.0656,79.7625 623.4469,78.8063 Q622.8281,77.8359 622.8281,76.6828 L622.8281,75.6422 Q622.8281,74.4469 623.3766,73.4203 Q623.9391,72.3797 624.9234,71.8313 Q625.9078,71.2688 627.0188,71.2688 Q627.6797,71.2688 628.2563,71.4234 Q628.8469,71.5641 629.3391,71.8875 Z " fill="#000000"/><text fill="#000000" font-family="sans-serif" font-size="12.6" lengthAdjust="spacing" textLength="82.8" x="639.45" y="80.8172">DivideStoresUI</text><line style="stroke:#181818;stroke-width:0.45;" x1="614.25" x2="724.05" y1="90" y2="90"/><line style="stroke:#181818;stroke-width:0.45;" x1="614.25" x2="724.05" y1="97.2" y2="97.2"/></g><!--class StoreManager--><g id="elem_StoreManager"><rect codeLine="107" fill="#F1F1F1" height="43.2" id="StoreManager" rx="2.25" ry="2.25" style="stroke:#181818;stroke-width:0.45;" width="109.8" x="199.35" y="61.2"/><ellipse cx="212.85" cy="75.6" fill="#ADD1B2" rx="9.9" ry="9.9" style="stroke:#181818;stroke-width:0.9;"/><path d="M215.3391,71.8875 Q215.4797,71.6906 215.6484,71.5922 Q215.8172,71.4938 216.0141,71.4938 Q216.3516,71.4938 216.5625,71.7328 Q216.7734,71.9578 216.7734,72.5063 L216.7734,73.8141 Q216.7734,74.3625 216.5625,74.6016 Q216.3516,74.8406 216.0141,74.8406 Q215.7047,74.8406 215.5219,74.6578 Q215.3391,74.4891 215.2406,74.025 Q215.1984,73.7016 215.0297,73.5328 Q214.7344,73.1953 214.1859,72.9984 Q213.6375,72.8016 213.075,72.8016 Q212.3859,72.8016 211.8094,73.0969 Q211.2469,73.3922 210.7969,74.0672 Q210.3609,74.7422 210.3609,75.6703 L210.3609,76.6547 Q210.3609,77.7656 211.1625,78.5109 Q211.9641,79.2422 213.3984,79.2422 Q214.2422,79.2422 214.8328,79.0172 Q215.1844,78.8766 215.5641,78.4828 Q215.8031,78.2438 215.9297,78.1734 Q216.0703,78.1031 216.2531,78.1031 Q216.5484,78.1031 216.7734,78.3422 Q217.0125,78.5672 217.0125,78.8766 Q217.0125,79.1859 216.7031,79.5516 Q216.2531,80.0719 215.5359,80.3672 Q214.5656,80.775 213.3984,80.775 Q212.0344,80.775 210.9516,80.2125 Q210.0656,79.7625 209.4469,78.8063 Q208.8281,77.8359 208.8281,76.6828 L208.8281,75.6422 Q208.8281,74.4469 209.3766,73.4203 Q209.9391,72.3797 210.9234,71.8313 Q211.9078,71.2688 213.0188,71.2688 Q213.6797,71.2688 214.2563,71.4234 Q214.8469,71.5641 215.3391,71.8875 Z " fill="#000000"/><text fill="#000000" font-family="sans-serif" font-size="12.6" lengthAdjust="spacing" textLength="81" x="225.45" y="80.8172">StoreManager</text><line style="stroke:#181818;stroke-width:0.45;" x1="200.25" x2="308.25" y1="90" y2="90"/><line style="stroke:#181818;stroke-width:0.45;" x1="200.25" x2="308.25" y1="97.2" y2="97.2"/></g><!--class Employee--><g id="elem_Employee"><rect codeLine="112" fill="#F1F1F1" height="43.2" id="Employee" rx="2.25" ry="2.25" style="stroke:#181818;stroke-width:0.45;" width="84.6" x="143.55" y="229.5"/><ellipse cx="157.05" cy="243.9" fill="#ADD1B2" rx="9.9" ry="9.9" style="stroke:#181818;stroke-width:0.9;"/><path d="M159.5391,240.1875 Q159.6797,239.9906 159.8484,239.8922 Q160.0172,239.7938 160.2141,239.7938 Q160.5516,239.7938 160.7625,240.0328 Q160.9734,240.2578 160.9734,240.8063 L160.9734,242.1141 Q160.9734,242.6625 160.7625,242.9016 Q160.5516,243.1406 160.2141,243.1406 Q159.9047,243.1406 159.7219,242.9578 Q159.5391,242.7891 159.4406,242.325 Q159.3984,242.0016 159.2297,241.8328 Q158.9344,241.4953 158.3859,241.2984 Q157.8375,241.1016 157.275,241.1016 Q156.5859,241.1016 156.0094,241.3969 Q155.4469,241.6922 154.9969,242.3672 Q154.5609,243.0422 154.5609,243.9703 L154.5609,244.9547 Q154.5609,246.0656 155.3625,246.8109 Q156.1641,247.5422 157.5984,247.5422 Q158.4422,247.5422 159.0328,247.3172 Q159.3844,247.1766 159.7641,246.7828 Q160.0031,246.5438 160.1297,246.4734 Q160.2703,246.4031 160.4531,246.4031 Q160.7484,246.4031 160.9734,246.6422 Q161.2125,246.8672 161.2125,247.1766 Q161.2125,247.4859 160.9031,247.8516 Q160.4531,248.3719 159.7359,248.6672 Q158.7656,249.075 157.5984,249.075 Q156.2344,249.075 155.1516,248.5125 Q154.2656,248.0625 153.6469,247.1063 Q153.0281,246.1359 153.0281,244.9828 L153.0281,243.9422 Q153.0281,242.7469 153.5766,241.7203 Q154.1391,240.6797 155.1234,240.1313 Q156.1078,239.5688 157.2188,239.5688 Q157.8797,239.5688 158.4563,239.7234 Q159.0469,239.8641 159.5391,240.1875 Z " fill="#000000"/><text fill="#000000" font-family="sans-serif" font-size="12.6" lengthAdjust="spacing" textLength="55.8" x="169.65" y="249.1172">Employee</text><line style="stroke:#181818;stroke-width:0.45;" x1="144.45" x2="227.25" y1="258.3" y2="258.3"/><line style="stroke:#181818;stroke-width:0.45;" x1="144.45" x2="227.25" y1="265.5" y2="265.5"/></g><!--class Person--><g id="elem_Person"><rect codeLine="118" fill="#F1F1F1" height="126.9949" id="Person" rx="2.25" ry="2.25" style="stroke:#181818;stroke-width:0.45;" width="152.1" x="5.4" y="490.5"/><ellipse cx="57.375" cy="504.9" fill="#ADD1B2" rx="9.9" ry="9.9" style="stroke:#181818;stroke-width:0.9;"/><path d="M59.8641,501.1875 Q60.0047,500.9906 60.1734,500.8922 Q60.3422,500.7938 60.5391,500.7938 Q60.8766,500.7938 61.0875,501.0328 Q61.2984,501.2578 61.2984,501.8063 L61.2984,503.1141 Q61.2984,503.6625 61.0875,503.9016 Q60.8766,504.1406 60.5391,504.1406 Q60.2297,504.1406 60.0469,503.9578 Q59.8641,503.7891 59.7656,503.325 Q59.7234,503.0016 59.5547,502.8328 Q59.2594,502.4953 58.7109,502.2984 Q58.1625,502.1016 57.6,502.1016 Q56.9109,502.1016 56.3344,502.3969 Q55.7719,502.6922 55.3219,503.3672 Q54.8859,504.0422 54.8859,504.9703 L54.8859,505.9547 Q54.8859,507.0656 55.6875,507.8109 Q56.4891,508.5422 57.9234,508.5422 Q58.7672,508.5422 59.3578,508.3172 Q59.7094,508.1766 60.0891,507.7828 Q60.3281,507.5438 60.4547,507.4734 Q60.5953,507.4031 60.7781,507.4031 Q61.0734,507.4031 61.2984,507.6422 Q61.5375,507.8672 61.5375,508.1766 Q61.5375,508.4859 61.2281,508.8516 Q60.7781,509.3719 60.0609,509.6672 Q59.0906,510.075 57.9234,510.075 Q56.5594,510.075 55.4766,509.5125 Q54.5906,509.0625 53.9719,508.1063 Q53.3531,507.1359 53.3531,505.9828 L53.3531,504.9422 Q53.3531,503.7469 53.9016,502.7203 Q54.4641,501.6797 55.4484,501.1313 Q56.4328,500.5688 57.5438,500.5688 Q58.2047,500.5688 58.7813,500.7234 Q59.3719,500.8641 59.8641,501.1875 Z " fill="#000000"/><text fill="#000000" font-family="sans-serif" font-size="12.6" lengthAdjust="spacing" textLength="40.5" x="75.825" y="510.1172">Person</text><line style="stroke:#181818;stroke-width:0.45;" x1="6.3" x2="156.6" y1="519.3" y2="519.3"/><text fill="#000000" font-family="sans-serif" font-size="12.6" lengthAdjust="spacing" textLength="71.1" x="10.8" y="536.4967">-String email</text><text fill="#000000" font-family="sans-serif" font-size="12.6" lengthAdjust="spacing" textLength="72.9" x="10.8" y="553.2557">-String name</text><text fill="#000000" font-family="sans-serif" font-size="12.6" lengthAdjust="spacing" textLength="141.3" x="10.8" y="570.0146">-Integer passportNumber</text><text fill="#000000" font-family="sans-serif" font-size="12.6" lengthAdjust="spacing" textLength="112.5" x="10.8" y="586.7736">-long phoneNumber</text><text fill="#000000" font-family="sans-serif" font-size="12.6" lengthAdjust="spacing" textLength="101.7" x="10.8" y="603.5326">-String taxNumber</text><line style="stroke:#181818;stroke-width:0.45;" x1="6.3" x2="156.6" y1="610.2949" y2="610.2949"/></g><!--class Role--><g id="elem_Role"><rect codeLine="127" fill="#F1F1F1" height="76.718" id="Role" rx="2.25" ry="2.25" style="stroke:#181818;stroke-width:0.45;" width="114.3" x="197.1" y="372.6"/><ellipse cx="237.375" cy="387" fill="#ADD1B2" rx="9.9" ry="9.9" style="stroke:#181818;stroke-width:0.9;"/><path d="M239.8641,383.2875 Q240.0047,383.0906 240.1734,382.9922 Q240.3422,382.8938 240.5391,382.8938 Q240.8766,382.8938 241.0875,383.1328 Q241.2984,383.3578 241.2984,383.9063 L241.2984,385.2141 Q241.2984,385.7625 241.0875,386.0016 Q240.8766,386.2406 240.5391,386.2406 Q240.2297,386.2406 240.0469,386.0578 Q239.8641,385.8891 239.7656,385.425 Q239.7234,385.1016 239.5547,384.9328 Q239.2594,384.5953 238.7109,384.3984 Q238.1625,384.2016 237.6,384.2016 Q236.9109,384.2016 236.3344,384.4969 Q235.7719,384.7922 235.3219,385.4672 Q234.8859,386.1422 234.8859,387.0703 L234.8859,388.0547 Q234.8859,389.1656 235.6875,389.9109 Q236.4891,390.6422 237.9234,390.6422 Q238.7672,390.6422 239.3578,390.4172 Q239.7094,390.2766 240.0891,389.8828 Q240.3281,389.6438 240.4547,389.5734 Q240.5953,389.5031 240.7781,389.5031 Q241.0734,389.5031 241.2984,389.7422 Q241.5375,389.9672 241.5375,390.2766 Q241.5375,390.5859 241.2281,390.9516 Q240.7781,391.4719 240.0609,391.7672 Q239.0906,392.175 237.9234,392.175 Q236.5594,392.175 235.4766,391.6125 Q234.5906,391.1625 233.9719,390.2063 Q233.3531,389.2359 233.3531,388.0828 L233.3531,387.0422 Q233.3531,385.8469 233.9016,384.8203 Q234.4641,383.7797 235.4484,383.2313 Q236.4328,382.6688 237.5438,382.6688 Q238.2047,382.6688 238.7813,382.8234 Q239.3719,382.9641 239.8641,383.2875 Z " fill="#000000"/><text fill="#000000" font-family="sans-serif" font-size="12.6" lengthAdjust="spacing" textLength="26.1" x="255.825" y="392.2172">Role</text><line style="stroke:#181818;stroke-width:0.45;" x1="198" x2="310.5" y1="401.4" y2="401.4"/><text fill="#000000" font-family="sans-serif" font-size="12.6" lengthAdjust="spacing" textLength="57.6" x="202.5" y="418.5967">-Integer id</text><text fill="#000000" font-family="sans-serif" font-size="12.6" lengthAdjust="spacing" textLength="103.5" x="202.5" y="435.3557">-String description</text><line style="stroke:#181818;stroke-width:0.45;" x1="198" x2="310.5" y1="442.118" y2="442.118"/></g><!--class StoreDTO--><g id="elem_StoreDTO"><rect codeLine="132" fill="#F1F1F1" height="126.9949" id="StoreDTO" rx="2.25" ry="2.25" style="stroke:#181818;stroke-width:0.45;" width="138.6" x="434.25" y="347.4"/><ellipse cx="471.24" cy="361.8" fill="#ADD1B2" rx="9.9" ry="9.9" style="stroke:#181818;stroke-width:0.9;"/><path d="M473.7291,358.0875 Q473.8697,357.8906 474.0384,357.7922 Q474.2072,357.6938 474.4041,357.6938 Q474.7416,357.6938 474.9525,357.9328 Q475.1634,358.1578 475.1634,358.7063 L475.1634,360.0141 Q475.1634,360.5625 474.9525,360.8016 Q474.7416,361.0406 474.4041,361.0406 Q474.0947,361.0406 473.9119,360.8578 Q473.7291,360.6891 473.6306,360.225 Q473.5884,359.9016 473.4197,359.7328 Q473.1244,359.3953 472.5759,359.1984 Q472.0275,359.0016 471.465,359.0016 Q470.7759,359.0016 470.1994,359.2969 Q469.6369,359.5922 469.1869,360.2672 Q468.7509,360.9422 468.7509,361.8703 L468.7509,362.8547 Q468.7509,363.9656 469.5525,364.7109 Q470.3541,365.4422 471.7884,365.4422 Q472.6322,365.4422 473.2228,365.2172 Q473.5744,365.0766 473.9541,364.6828 Q474.1931,364.4438 474.3197,364.3734 Q474.4603,364.3031 474.6431,364.3031 Q474.9384,364.3031 475.1634,364.5422 Q475.4025,364.7672 475.4025,365.0766 Q475.4025,365.3859 475.0931,365.7516 Q474.6431,366.2719 473.9259,366.5672 Q472.9556,366.975 471.7884,366.975 Q470.4244,366.975 469.3416,366.4125 Q468.4556,365.9625 467.8369,365.0063 Q467.2181,364.0359 467.2181,362.8828 L467.2181,361.8422 Q467.2181,360.6469 467.7666,359.6203 Q468.3291,358.5797 469.3134,358.0313 Q470.2978,357.4688 471.4088,357.4688 Q472.0697,357.4688 472.6463,357.6234 Q473.2369,357.7641 473.7291,358.0875 Z " fill="#000000"/><text fill="#000000" font-family="sans-serif" font-size="12.6" lengthAdjust="spacing" textLength="57.6" x="489.06" y="367.0172">StoreDTO</text><line style="stroke:#181818;stroke-width:0.45;" x1="435.15" x2="571.95" y1="376.2" y2="376.2"/><text fill="#000000" font-family="sans-serif" font-size="12.6" lengthAdjust="spacing" textLength="57.6" x="439.65" y="393.3967">-Integer id</text><text fill="#000000" font-family="sans-serif" font-size="12.6" lengthAdjust="spacing" textLength="107.1" x="439.65" y="410.1557">-String designation</text><text fill="#000000" font-family="sans-serif" font-size="12.6" lengthAdjust="spacing" textLength="127.8" x="439.65" y="426.9146">-AddressDTO address</text><text fill="#000000" font-family="sans-serif" font-size="12.6" lengthAdjust="spacing" textLength="71.1" x="439.65" y="443.6736">-String email</text><text fill="#000000" font-family="sans-serif" font-size="12.6" lengthAdjust="spacing" textLength="112.5" x="439.65" y="460.4326">-long phoneNumber</text><line style="stroke:#181818;stroke-width:0.45;" x1="435.15" x2="571.95" y1="467.1949" y2="467.1949"/></g><path d="M863.8392,240.0271 C873.5076,242.1303 879.75,245.8213 879.75,251.1 C879.75,256.3787 873.5076,260.0697 863.8392,262.1729 " fill="none" style="stroke:#181818;stroke-width:0.9;"/><polygon fill="#181818" points="863.8392,262.1729,872.5194,263.9689,868.2364,261.2164,870.9889,256.9334,863.8392,262.1729" style="stroke:#181818;stroke-width:0.9;"/><text fill="#000000" font-family="sans-serif" font-size="11.7" lengthAdjust="spacing" textLength="44.1" x="880.65" y="256.0755">instance</text><path d="M1112.4653,239.288 C1122.1208,241.1984 1128.6,245.1357 1128.6,251.1 C1128.6,257.0643 1122.1208,261.0016 1112.4653,262.912 " fill="none" style="stroke:#181818;stroke-width:0.9;"/><polygon fill="#181818" points="1112.4653,262.912,1121.11,264.8714,1116.8797,262.0386,1119.7125,257.8083,1112.4653,262.912" style="stroke:#181818;stroke-width:0.9;"/><text fill="#000000" font-family="sans-serif" font-size="11.7" lengthAdjust="spacing" textLength="44.1" x="1129.5" y="256.0755">instance</text><path d="M724.9641,82.8 C730.2874,82.8 735.6106,82.8 740.9339,82.8 " fill="none" style="stroke:#181818;stroke-width:0.9;stroke-dasharray:7.0,7.0;"/><polygon fill="#181818" points="740.9339,82.8,732.8339,79.2,736.4339,82.8,732.8339,86.4,740.9339,82.8" style="stroke:#181818;stroke-width:0.9;"/><path d="M835.2062,137.7578 C823.9543,159.2176 811.1487,183.6406 800.3534,204.2296 " fill="none" style="stroke:#181818;stroke-width:0.9;stroke-dasharray:7.0,7.0;"/><polygon fill="#181818" points="800.3534,204.2296,807.3031,198.7276,802.443,200.2442,800.9264,195.3842,800.3534,204.2296" style="stroke:#181818;stroke-width:0.9;"/><text fill="#000000" font-family="sans-serif" font-size="11.7" lengthAdjust="spacing" textLength="60.3" x="818.55" y="184.5255">repositories</text><path d="M768.1852,137.8264 C756.4826,143.8216 744.5833,149.6221 733.05,154.8 C673.7206,181.4358 632.7578,151.1014 595.35,204.3 C557.2373,258.5011 599.1204,337.7998 627.5554,380.3531 " fill="none" style="stroke:#181818;stroke-width:0.9;stroke-dasharray:7.0,7.0;"/><polygon fill="#181818" points="627.5554,380.3531,626.0483,371.6182,625.0553,376.6116,620.0619,375.6185,627.5554,380.3531" style="stroke:#181818;stroke-width:0.9;"/><text fill="#000000" font-family="sans-serif" font-size="11.7" lengthAdjust="spacing" textLength="83.7" x="596.25" y="256.0755">StoreRepository</text><path d="M739.2041,298.1103 C717.8423,324.6989 691.6207,357.3364 673.0306,380.4753 " fill="none" style="stroke:#181818;stroke-width:0.9;"/><polygon fill="#181818" points="673.0306,380.4753,680.9102,376.4155,675.849,376.9672,675.2973,371.906,673.0306,380.4753" style="stroke:#181818;stroke-width:0.9;"/><text fill="#000000" font-family="sans-serif" font-size="11.7" lengthAdjust="spacing" textLength="6.3" x="665.8306" y="376.9007">1</text><path d="M245.7254,104.4507 C232.5823,136.4437 207.5172,197.4574 194.3743,229.45 " fill="none" style="stroke:#181818;stroke-width:0.9;"/><polygon fill="#FFFFFF" points="194.3743,229.45,204.8412,218.1821,194.8513,214.0782,194.3743,229.45" style="stroke:#181818;stroke-width:0.9;"/><text fill="#000000" font-family="sans-serif" font-size="11.7" lengthAdjust="spacing" textLength="6.3" x="187.1743" y="225.8755">1</text><text fill="#000000" font-family="sans-serif" font-size="11.7" lengthAdjust="spacing" textLength="6.3" x="238.5254" y="117.9762">1</text><path d="M775.4037,137.7328 C761.6099,144.4056 747.2211,150.4103 733.05,154.8 C665.4517,175.7396 641.7073,148.3877 574.65,171 C546.2904,180.5631 517.6026,197.2146 494.4523,212.7892 " fill="none" style="stroke:#181818;stroke-width:0.9;stroke-dasharray:7.0,7.0;"/><polygon fill="#181818" points="494.4523,212.7892,503.1824,211.2548,498.186,210.2773,499.1634,205.2809,494.4523,212.7892" style="stroke:#181818;stroke-width:0.9;"/><path d="M986.0563,82.8 C991.4148,82.8 996.7733,82.8 1002.1318,82.8 " fill="none" style="stroke:#181818;stroke-width:0.9;stroke-dasharray:7.0,7.0;"/><polygon fill="#181818" points="1002.1318,82.8,994.0318,79.2,997.6318,82.8,994.0318,86.4,1002.1318,82.8" style="stroke:#181818;stroke-width:0.9;"/><path d="M903.138,137.7139 C915.4667,157.6269 927.4698,181.0273 933.75,204.3 C944.5881,244.4634 940.9849,256.934 933.75,297.9 C907.8921,444.3158 836.2926,606.3485 799.1961,683.7744 " fill="none" style="stroke:#181818;stroke-width:0.9;stroke-dasharray:7.0,7.0;"/><polygon fill="#181818" points="799.1961,683.7744,805.9426,678.0251,801.1405,679.7161,799.4494,674.914,799.1961,683.7744" style="stroke:#181818;stroke-width:0.9;"/><text fill="#000000" font-family="sans-serif" font-size="11.7" lengthAdjust="spacing" textLength="98.1" x="931.05" y="327.6255">propertyRepository</text><path d="M1065.992,289.4319 C1082.0572,317.3472 1103.6937,354.9432 1118.5036,380.6773 " fill="none" style="stroke:#181818;stroke-width:0.9;"/><polygon fill="#181818" points="1118.5036,380.6773,1117.5836,371.8612,1116.259,376.7771,1111.3432,375.4526,1118.5036,380.6773" style="stroke:#181818;stroke-width:0.9;"/><text fill="#000000" font-family="sans-serif" font-size="11.7" lengthAdjust="spacing" textLength="64.8" x="1090.35" y="327.6255">userSession</text><text fill="#000000" font-family="sans-serif" font-size="11.7" lengthAdjust="spacing" textLength="6.3" x="1111.3036" y="377.1028">1</text><path d="M926.6434,137.8885 C938.9604,148.7325 951.6956,160.1332 963.45,171 C977.8917,184.3511 993.4105,199.3566 1006.9612,212.6868 " fill="none" style="stroke:#181818;stroke-width:0.9;stroke-dasharray:7.0,7.0;"/><polygon fill="#181818" points="1006.9612,212.6868,1003.7115,204.4401,1003.7532,209.5311,998.6622,209.5728,1006.9612,212.6868" style="stroke:#181818;stroke-width:0.9;"/><path d="M956.3254,137.7701 C968.7889,143.9848 981.5784,149.8547 994.05,154.8 C1074.7689,186.8071 1129.995,135.5602 1183.05,204.3 C1223.4706,256.6703 1183.1785,337.4262 1155.8967,380.5044 " fill="none" style="stroke:#181818;stroke-width:0.9;stroke-dasharray:7.0,7.0;"/><polygon fill="#181818" points="1155.8967,380.5044,1163.2719,375.5874,1158.3044,376.7026,1157.1891,371.7351,1155.8967,380.5044" style="stroke:#181818;stroke-width:0.9;"/><path d="M776.25,298.2573 C776.25,389.7308 776.25,592.7598 776.25,683.9681 " fill="none" style="stroke:#181818;stroke-width:0.9;"/><polygon fill="#181818" points="776.25,683.9681,779.85,675.8681,776.25,679.4681,772.65,675.8681,776.25,683.9681" style="stroke:#181818;stroke-width:0.9;"/><text fill="#000000" font-family="sans-serif" font-size="11.7" lengthAdjust="spacing" textLength="6.3" x="769.05" y="680.3936">1</text><path d="M705.1633,777.6865 C652.7169,811.6145 580.7683,858.1585 523.1915,895.4054 " fill="none" style="stroke:#181818;stroke-width:0.9;"/><polygon fill="#181818" points="523.1915,895.4054,531.9479,894.0284,526.9698,892.9611,528.0371,887.9831,523.1915,895.4054" style="stroke:#181818;stroke-width:0.9;"/><text fill="#000000" font-family="sans-serif" font-size="11.7" lengthAdjust="spacing" textLength="4.5" x="524.0915" y="891.8309">*</text><path d="M623.8516,441.1105 C583.0385,488.1055 501.638,581.8353 442.6161,649.7971 " fill="none" style="stroke:#181818;stroke-width:0.9;"/><polygon fill="#181818" points="442.6161,649.7971,450.6453,646.0419,445.5667,646.3995,445.2092,641.3209,442.6161,649.7971" style="stroke:#181818;stroke-width:0.9;"/><text fill="#000000" font-family="sans-serif" font-size="11.7" lengthAdjust="spacing" textLength="44.1" x="576.45" y="558.9255">contains</text><text fill="#000000" font-family="sans-serif" font-size="11.7" lengthAdjust="spacing" textLength="4.5" x="443.5161" y="646.2225">*</text><text fill="#000000" font-family="sans-serif" font-size="11.7" lengthAdjust="spacing" textLength="6.3" x="616.6516" y="454.636">1</text><path d="M458.9137,289.4319 C465.2995,306.6737 473.0532,327.6086 480.2947,347.1606 " fill="none" style="stroke:#181818;stroke-width:0.9;"/><polygon fill="#181818" points="480.2947,347.1606,480.8573,338.3145,478.7317,342.9407,474.1055,340.8152,480.2947,347.1606" style="stroke:#181818;stroke-width:0.9;"/><path d="M437.0985,289.5159 C433.5143,307.0561 429.373,328.2523 426.15,347.4 C409.819,444.4209 394.7622,555.9009 384.8853,633.3811 " fill="none" style="stroke:#181818;stroke-width:0.9;"/><polygon fill="#181818" points="384.8853,633.3811,389.4807,625.8014,385.4543,628.9172,382.3385,624.8909,384.8853,633.3811" style="stroke:#181818;stroke-width:0.9;"/><path d="M320.0178,828.1572 C305.8424,853.9399 291.0228,880.8944 278.5996,903.4902 " fill="none" style="stroke:#181818;stroke-width:0.9;"/><polygon fill="#181818" points="278.5996,903.4902,285.6567,898.1267,280.7676,899.5469,279.3474,894.6578,278.5996,903.4902" style="stroke:#181818;stroke-width:0.9;"/><text fill="#000000" font-family="sans-serif" font-size="11.7" lengthAdjust="spacing" textLength="6.3" x="271.3996" y="899.9157">1</text><text fill="#000000" font-family="sans-serif" font-size="11.7" lengthAdjust="spacing" textLength="6.3" x="312.8178" y="841.6827">1</text><path d="M314.6309,958.5 C320.0469,958.5 325.4629,958.5 330.8789,958.5 " fill="none" style="stroke:#181818;stroke-width:0.9;"/><polygon fill="#181818" points="314.6309,958.5,322.7309,962.1,319.1309,958.5,322.7309,954.9,314.6309,958.5" style="stroke:#181818;stroke-width:0.9;"/><text fill="#000000" font-family="sans-serif" font-size="11.7" lengthAdjust="spacing" textLength="6.3" x="323.6789" y="954.9255">1</text><text fill="#000000" font-family="sans-serif" font-size="11.7" lengthAdjust="spacing" textLength="6.3" x="315.5309" y="954.9255">1</text><path d="M396.1075,828.1572 C398.7161,839.0699 401.3749,850.1925 403.9836,861.1057 " fill="none" style="stroke:#181818;stroke-width:0.9;"/><polygon fill="#181818" points="403.9836,861.1057,405.6018,852.3907,402.9374,856.729,398.5991,854.0646,403.9836,861.1057" style="stroke:#181818;stroke-width:0.9;"/><text fill="#000000" font-family="sans-serif" font-size="11.7" lengthAdjust="spacing" textLength="6.3" x="396.7836" y="857.5312">1</text><text fill="#000000" font-family="sans-serif" font-size="11.7" lengthAdjust="spacing" textLength="6.3" x="388.9075" y="841.6827">1</text><path d="M107.6063,617.7797 C140.2505,696.3189 195.5289,829.314 226.3606,903.4925 " fill="none" style="stroke:#181818;stroke-width:0.9;"/><polygon fill="#181818" points="226.3606,903.4925,226.576,894.6311,224.6335,899.3371,219.9275,897.3945,226.3606,903.4925" style="stroke:#181818;stroke-width:0.9;"/><text fill="#000000" font-family="sans-serif" font-size="11.7" lengthAdjust="spacing" textLength="6.3" x="219.1606" y="899.9179">1</text><text fill="#000000" font-family="sans-serif" font-size="11.7" lengthAdjust="spacing" textLength="6.3" x="100.4063" y="631.3052">1</text><path d="M176.2163,272.7763 C170.8194,284.7432 164.1332,300.1356 158.85,314.1 C136.5146,373.1364 114.6917,441.8058 99.9427,490.3401 " fill="none" style="stroke:#181818;stroke-width:0.9;"/><polygon fill="#FFFFFF" points="99.9427,490.3401,109.2964,478.1323,98.963,474.9921,99.9427,490.3401" style="stroke:#181818;stroke-width:0.9;"/><text fill="#000000" font-family="sans-serif" font-size="11.7" lengthAdjust="spacing" textLength="6.3" x="92.7427" y="486.7656">1</text><text fill="#000000" font-family="sans-serif" font-size="11.7" lengthAdjust="spacing" textLength="6.3" x="169.0163" y="286.3018">1</text><path d="M194.933,272.9745 C205.9077,298.3175 224.573,341.4196 238.0381,372.5134 " fill="none" style="stroke:#181818;stroke-width:0.9;"/><polygon fill="#181818" points="238.0381,372.5134,238.1228,363.6498,236.2499,368.3839,231.5157,366.511,238.0381,372.5134" style="stroke:#181818;stroke-width:0.9;"/><text fill="#000000" font-family="sans-serif" font-size="11.7" lengthAdjust="spacing" textLength="18" x="219.1381" y="368.9389">1..*</text><text fill="#000000" font-family="sans-serif" font-size="11.7" lengthAdjust="spacing" textLength="6.3" x="187.733" y="286.5">1</text><path d="M182.0196,272.91 C175.5279,313.1327 165.2104,403.5594 188.55,474.3 C211.656,544.3326 261.5555,611.4566 303.6403,659.3306 " fill="none" style="stroke:#181818;stroke-width:0.9;"/><polygon fill="#181818" points="303.6403,659.3306,300.9962,650.8702,300.6693,655.9508,295.5886,655.6239,303.6403,659.3306" style="stroke:#181818;stroke-width:0.9;"/><text fill="#000000" font-family="sans-serif" font-size="11.7" lengthAdjust="spacing" textLength="6.3" x="296.4403" y="655.7561">1</text><text fill="#000000" font-family="sans-serif" font-size="11.7" lengthAdjust="spacing" textLength="6.3" x="174.8196" y="286.4355">1</text><path d="M260.1855,104.7328 C272.5667,149.2096 301.4551,256.2097 319.05,347.4 C337.7272,444.1998 352.7601,555.9517 362.1755,633.5667 " fill="none" style="stroke:#181818;stroke-width:0.9;"/><text fill="#000000" font-family="sans-serif" font-size="11.7" lengthAdjust="spacing" textLength="83.7" x="317.25" y="327.6255">intends to divide</text><text fill="#000000" font-family="sans-serif" font-size="11.7" lengthAdjust="spacing" textLength="18" x="343.2755" y="629.9922">2..*</text><text fill="#000000" font-family="sans-serif" font-size="11.7" lengthAdjust="spacing" textLength="6.3" x="252.9855" y="118.2583">1</text><!--SRC=[ZLPBRnit4BxpLx2-MAsxGjEZ40XmxGGma8SHARqKET3ByOe8boH8Ait6zN_lS4dkSbSR9Jf8udppviSXBzrdeGophAMjLhe-MDq2zVO8P4GCgp-p1dQ-aq0jr9wfHfOAxi2u_bUeXZuowKf42WM-Cq2DbbrOaCi5K5kloI_6igPbLB9E7prrBM0SHWfdjMJENNjlnSFHmrsjrKvy0_e78PSI7ZtrcbhH73pb8cGfj2Aajw7NnaXHio3QWNC1UI8KFrVKUHJNj05_f_2_gc7rQu9GTdEq5fHFHeWyPvSV7TYvBpG8ubSj4pBgzfzeiFFQmWSmsWdyrz72g8TwWwXwAxu83htKNSj6M-4FRJRW1RYwKnuQiFzyeWuarWmy0c-4yx-Fe3gs3s3lhJPWlOXmhBB2y7ljcTmTszNF6lmb5BDTLgTYHEuPgaTdEzmdPCH3h_jpkJZs1TuA9TeJSvfZcHYWZ2Zi-yVTyK6Y7vVCC4mhrDzC3eRB7Q8_IYllI99tv_Tl4BoRENkDnoegzTz8ElnEDL36-Lw_MmY_CYbg1CTiXYnGCULHJOHbBYEjwMQYDCj_B0sjHvwNNBpHobij9Uv3hduPNhcfnrpgOgmfT29mvQcBxSib3mJaIP18my69HlN7VGf0E9apOtFG2cA7YwRnt49St8xk2karvvYSAoJvtEVr_UYvh24PFf4gPUMyXS4V6PAjXUyA7UPXM7qJvaPp86JMcRVC866Uo9NNj_ltKx9T3GqDKE3NonxPHWNPyttqbncFQNADfmj7k1Kr32jcWP4g9Hqud99FC1UHTNjzW_FJebqV4LlYTMEPEMn3uzD_jClXzlrbKIn2pKCLg0VMQKLhZ8u2KjrYM_O2xomU-XCRGfQu-_4EQVDCPkrIUAzXlugwNxL6wWxWYPJI61PvLqsOb5UAjPZREAESCtYd9L9LL6hKANasxB5dNvDeZFL1Ium-ONV9xDeA4- -svx8MtDGpHiDng3BzK7_SjMbHf_c6v2P3fzfEXz26YZHcoEbT6xGNf8KDcUtKUlkTmJBLBERHUdsIaIrdtVVCjYVtycOkcPUErLoyk3ZHAXaLyAhwhrVCX3gNUN5upsIw-2muvtRXrjeCXwiiC7oMzYsLMhnrqC6nUFcStO-5LzSPxV91DMjuIkEq7B9GOQ_zswXDo7o7u-v4hHxRK7nBUePq9CLEz3hvRCs0Z4Jnw15_ynpFep78NbQJ0b9AfTK0fG6tv34pYPRqIgDf3WPilSO2mpGPm8YL12OBlAKNVmRJr1g14qLn5rxNyUb9_WS0]--></g></svg>