<?xml version="1.0" encoding="us-ascii" standalone="no"?><svg xmlns="http://www.w3.org/2000/svg" xmlns:xlink="http://www.w3.org/1999/xlink" contentStyleType="text/css" height="833.4px" preserveAspectRatio="none" style="width:954px;height:833px;background:#FFFFFF;" version="1.1" viewBox="0 0 954 833" width="954px" zoomAndPan="magnify"><defs/><g><rect fill="#FFFFFF" height="658.6893" style="stroke:#181818;stroke-width:0.9;" width="9" x="65.7" y="84.259"/><rect fill="#FFFFFF" height="67.4209" style="stroke:#181818;stroke-width:0.9;" width="9" x="514.8" y="120.7828"/><rect fill="#FFFFFF" height="165.9393" style="stroke:#181818;stroke-width:0.9;" width="9" x="514.8" y="216.3656"/><rect fill="#FFFFFF" height="332.4814" style="stroke:#181818;stroke-width:0.9;" width="9" x="514.8" y="410.4668"/><rect fill="#FFFFFF" height="85.9535" style="stroke:#181818;stroke-width:0.9;" width="9" x="838.8" y="244.5275"/><rect fill="#FFFFFF" height="100.3184" style="stroke:#181818;stroke-width:0.9;" width="9" x="838.8" y="484.7906"/><rect fill="#FFFFFF" height="85.9535" style="stroke:#181818;stroke-width:0.9;" width="9" x="838.8" y="613.2709"/><rect fill="none" height="113.5477" style="stroke:#000000;stroke-width:1.35;" width="660.6" x="9" y="343.9811"/><line style="stroke:#181818;stroke-width:0.45;stroke-dasharray:5.0,5.0;" x1="70.2" x2="70.2" y1="75.259" y2="759.1482"/><line style="stroke:#181818;stroke-width:0.45;stroke-dasharray:5.0,5.0;" x1="519.3" x2="519.3" y1="75.259" y2="759.1482"/><line style="stroke:#181818;stroke-width:0.45;stroke-dasharray:5.0,5.0;" x1="843.3" x2="843.3" y1="156.6123" y2="759.1482"/><text fill="#000000" font-family="sans-serif" font-size="12.6" lengthAdjust="spacing" textLength="99" x="18" y="72.0967">Network Manager</text><ellipse cx="70.2" cy="12.15" fill="#E3E3E3" rx="7.2" ry="7.2" style="stroke:#181818;stroke-width:0.45;"/><path d="M70.2,19.35 L70.2,43.65 M58.5,26.55 L81.9,26.55 M70.2,43.65 L58.5,57.15 M70.2,43.65 L81.9,57.15 " fill="none" style="stroke:#181818;stroke-width:0.45;"/><text fill="#000000" font-family="sans-serif" font-size="12.6" lengthAdjust="spacing" textLength="99" x="18" y="771.8449">Network Manager</text><ellipse cx="70.2" cy="782.6572" fill="#E3E3E3" rx="7.2" ry="7.2" style="stroke:#181818;stroke-width:0.45;"/><path d="M70.2,789.8572 L70.2,814.1572 M58.5,797.0572 L81.9,797.0572 M70.2,814.1572 L58.5,827.6572 M70.2,814.1572 L81.9,827.6572 " fill="none" style="stroke:#181818;stroke-width:0.45;"/><rect fill="#E3E3E3" height="29.359" rx="2.25" ry="2.25" style="stroke:#181818;stroke-width:0.45;" width="99" x="469.8" y="45"/><text fill="#000000" font-family="sans-serif" font-size="12.6" lengthAdjust="spacing" textLength="86.4" x="476.1" y="64.8967">:DivideStoresUI</text><rect fill="#E3E3E3" height="29.359" rx="2.25" ry="2.25" style="stroke:#181818;stroke-width:0.45;" width="99" x="469.8" y="758.2482"/><text fill="#000000" font-family="sans-serif" font-size="12.6" lengthAdjust="spacing" textLength="86.4" x="476.1" y="778.1449">:DivideStoresUI</text><rect fill="#E3E3E3" height="29.359" rx="2.25" ry="2.25" style="stroke:#181818;stroke-width:0.45;" width="144" x="771.3" y="758.2482"/><text fill="#000000" font-family="sans-serif" font-size="12.6" lengthAdjust="spacing" textLength="131.4" x="777.6" y="778.1449">:DivideStoresController</text><rect fill="#FFFFFF" height="658.6893" style="stroke:#181818;stroke-width:0.9;" width="9" x="65.7" y="84.259"/><rect fill="#FFFFFF" height="67.4209" style="stroke:#181818;stroke-width:0.9;" width="9" x="514.8" y="120.7828"/><rect fill="#FFFFFF" height="165.9393" style="stroke:#181818;stroke-width:0.9;" width="9" x="514.8" y="216.3656"/><rect fill="#FFFFFF" height="332.4814" style="stroke:#181818;stroke-width:0.9;" width="9" x="514.8" y="410.4668"/><rect fill="#FFFFFF" height="85.9535" style="stroke:#181818;stroke-width:0.9;" width="9" x="838.8" y="244.5275"/><rect fill="#FFFFFF" height="100.3184" style="stroke:#181818;stroke-width:0.9;" width="9" x="838.8" y="484.7906"/><rect fill="#FFFFFF" height="85.9535" style="stroke:#181818;stroke-width:0.9;" width="9" x="838.8" y="613.2709"/><polygon fill="#181818" points="504,117.1828,513,120.7828,504,124.3828,507.6,120.7828" style="stroke:#181818;stroke-width:0.9;"/><line style="stroke:#181818;stroke-width:0.9;" x1="74.7" x2="509.4" y1="120.7828" y2="120.7828"/><text fill="#000000" font-family="sans-serif" font-size="11.7" font-weight="bold" lengthAdjust="spacing" textLength="6.3" x="81" y="108.2654">1</text><text fill="#000000" font-family="sans-serif" font-size="11.7" lengthAdjust="spacing" textLength="404.1" x="90.9" y="100.4845">asks to divide stores into two sublists so that they have the closest number of</text><text fill="#000000" font-family="sans-serif" font-size="11.7" lengthAdjust="spacing" textLength="162" x="90.9" y="116.0464">properties between the sublists</text><polygon fill="#181818" points="760.5,145.3447,769.5,148.9447,760.5,152.5447,764.1,148.9447" style="stroke:#181818;stroke-width:0.9;"/><line style="stroke:#181818;stroke-width:0.9;" x1="523.8" x2="765.9" y1="148.9447" y2="148.9447"/><text fill="#000000" font-family="sans-serif" font-size="11.7" font-weight="bold" lengthAdjust="spacing" textLength="6.3" x="530.1" y="144.2083">2</text><text fill="#000000" font-family="sans-serif" font-size="11.7" lengthAdjust="spacing" textLength="150.3" x="540" y="144.2083">create DivideStoresController</text><rect fill="#E3E3E3" height="29.359" rx="2.25" ry="2.25" style="stroke:#181818;stroke-width:0.45;" width="144" x="771.3" y="127.9828"/><text fill="#000000" font-family="sans-serif" font-size="12.6" lengthAdjust="spacing" textLength="131.4" x="777.6" y="147.8795">:DivideStoresController</text><polygon fill="#181818" points="84.6,184.6037,75.6,188.2037,84.6,191.8037,81,188.2037" style="stroke:#181818;stroke-width:0.9;"/><line style="stroke:#181818;stroke-width:0.9;stroke-dasharray:2.0,2.0;" x1="79.2" x2="518.4" y1="188.2037" y2="188.2037"/><text fill="#000000" font-family="sans-serif" font-size="11.7" font-weight="bold" lengthAdjust="spacing" textLength="6.3" x="90" y="183.4673">3</text><text fill="#000000" font-family="sans-serif" font-size="11.7" lengthAdjust="spacing" textLength="155.7" x="99.9" y="183.4673">requests the number of stores</text><polygon fill="#181818" points="504,212.7656,513,216.3656,504,219.9656,507.6,216.3656" style="stroke:#181818;stroke-width:0.9;"/><line style="stroke:#181818;stroke-width:0.9;" x1="74.7" x2="509.4" y1="216.3656" y2="216.3656"/><text fill="#000000" font-family="sans-serif" font-size="11.7" font-weight="bold" lengthAdjust="spacing" textLength="6.3" x="81" y="211.6292">4</text><text fill="#000000" font-family="sans-serif" font-size="11.7" lengthAdjust="spacing" textLength="119.7" x="90.9" y="211.6292">insert number of stores</text><polygon fill="#181818" points="828,240.9275,837,244.5275,828,248.1275,831.6,244.5275" style="stroke:#181818;stroke-width:0.9;"/><line style="stroke:#181818;stroke-width:0.9;" x1="523.8" x2="833.4" y1="244.5275" y2="244.5275"/><text fill="#000000" font-family="sans-serif" font-size="11.7" font-weight="bold" lengthAdjust="spacing" textLength="6.3" x="530.1" y="239.7911">5</text><text fill="#000000" font-family="sans-serif" font-size="11.7" lengthAdjust="spacing" textLength="57.6" x="540" y="239.7911">getStores()</text><rect fill="none" height="53.2916" style="stroke:#000000;stroke-width:1.35;" width="149.4" x="768.6" y="251.7275"/><path d="M768.6,251.7275 L824.4,251.7275 L824.4,259.8275 L815.4,268.8275 L768.6,268.8275 L768.6,251.7275 " fill="#EEEEEE" style="stroke:#000000;stroke-width:1.8;"/><text fill="#000000" font-family="sans-serif" font-size="11.7" font-weight="bold" lengthAdjust="spacing" textLength="15.3" x="780.3" y="266.153">ref</text><text fill="#000000" font-family="sans-serif" font-size="10.8" lengthAdjust="spacing" textLength="66.6" x="810" y="284.0818">Get Store List</text><text fill="#000000" font-family="sans-serif" font-size="10.8" lengthAdjust="spacing" textLength="2.7" x="841.95" y="298.4467">&#160;</text><polygon fill="#181818" points="533.7,326.8811,524.7,330.4811,533.7,334.0811,530.1,330.4811" style="stroke:#181818;stroke-width:0.9;"/><line style="stroke:#181818;stroke-width:0.9;stroke-dasharray:2.0,2.0;" x1="528.3" x2="842.4" y1="330.4811" y2="330.4811"/><text fill="#000000" font-family="sans-serif" font-size="11.7" font-weight="bold" lengthAdjust="spacing" textLength="12.6" x="539.1" y="325.7446">25</text><text fill="#000000" font-family="sans-serif" font-size="11.7" lengthAdjust="spacing" textLength="68.4" x="555.3" y="325.7446">storeListDTO</text><path d="M9,343.9811 L74.7,343.9811 L74.7,352.343 L65.7,361.343 L9,361.343 L9,343.9811 " fill="#EEEEEE" style="stroke:#000000;stroke-width:1.35;"/><rect fill="none" height="113.5477" style="stroke:#000000;stroke-width:1.35;" width="660.6" x="9" y="343.9811"/><text fill="#000000" font-family="sans-serif" font-size="11.7" font-weight="bold" lengthAdjust="spacing" textLength="25.2" x="22.5" y="357.5065">loop</text><text fill="#000000" font-family="sans-serif" font-size="9.9" font-weight="bold" lengthAdjust="spacing" textLength="95.4" x="88.2" y="356.4642">[number of stores]</text><polygon fill="#181818" points="84.6,378.7049,75.6,382.3049,84.6,385.9049,81,382.3049" style="stroke:#181818;stroke-width:0.9;"/><line style="stroke:#181818;stroke-width:0.9;" x1="79.2" x2="518.4" y1="382.3049" y2="382.3049"/><text fill="#000000" font-family="sans-serif" font-size="11.7" font-weight="bold" lengthAdjust="spacing" textLength="12.6" x="90" y="377.5685">26</text><text fill="#000000" font-family="sans-serif" font-size="11.7" lengthAdjust="spacing" textLength="402.3" x="106.2" y="377.5685">provides the  stores and asks to select a store from the list of available stores</text><polygon fill="#181818" points="504,406.8668,513,410.4668,504,414.0668,507.6,410.4668" style="stroke:#181818;stroke-width:0.9;"/><line style="stroke:#181818;stroke-width:0.9;" x1="74.7" x2="509.4" y1="410.4668" y2="410.4668"/><text fill="#000000" font-family="sans-serif" font-size="11.7" font-weight="bold" lengthAdjust="spacing" textLength="12.6" x="81" y="405.7304">27</text><text fill="#000000" font-family="sans-serif" font-size="11.7" lengthAdjust="spacing" textLength="112.5" x="97.2" y="405.7304">selects store from list</text><line style="stroke:#181818;stroke-width:0.9;" x1="523.8" x2="561.6" y1="438.6287" y2="438.6287"/><line style="stroke:#181818;stroke-width:0.9;" x1="561.6" x2="561.6" y1="438.6287" y2="450.3287"/><line style="stroke:#181818;stroke-width:0.9;" x1="524.7" x2="561.6" y1="450.3287" y2="450.3287"/><polygon fill="#181818" points="533.7,446.7287,524.7,450.3287,533.7,453.9287,530.1,450.3287" style="stroke:#181818;stroke-width:0.9;"/><text fill="#000000" font-family="sans-serif" font-size="11.7" font-weight="bold" lengthAdjust="spacing" textLength="12.6" x="530.1" y="433.8923">28</text><text fill="#000000" font-family="sans-serif" font-size="11.7" lengthAdjust="spacing" textLength="112.5" x="546.3" y="433.8923">addToStoreList(pRep)</text><polygon fill="#181818" points="828,481.1906,837,484.7906,828,488.3906,831.6,484.7906" style="stroke:#181818;stroke-width:0.9;"/><line style="stroke:#181818;stroke-width:0.9;" x1="523.8" x2="833.4" y1="484.7906" y2="484.7906"/><text fill="#000000" font-family="sans-serif" font-size="11.7" font-weight="bold" lengthAdjust="spacing" textLength="12.6" x="530.1" y="480.0542">29</text><text fill="#000000" font-family="sans-serif" font-size="11.7" lengthAdjust="spacing" textLength="241.2" x="546.3" y="480.0542">getPropertyNumberInEach(selectedStoresList)</text><rect fill="none" height="67.6564" style="stroke:#000000;stroke-width:1.35;" width="149.4" x="768.6" y="491.9906"/><path d="M768.6,491.9906 L824.4,491.9906 L824.4,500.0906 L815.4,509.0906 L768.6,509.0906 L768.6,491.9906 " fill="#EEEEEE" style="stroke:#000000;stroke-width:1.8;"/><text fill="#000000" font-family="sans-serif" font-size="11.7" font-weight="bold" lengthAdjust="spacing" textLength="15.3" x="780.3" y="506.4161">ref</text><text fill="#000000" font-family="sans-serif" font-size="10.8" lengthAdjust="spacing" textLength="126" x="780.3" y="524.3449">Get Number of Properties</text><text fill="#000000" font-family="sans-serif" font-size="10.8" lengthAdjust="spacing" textLength="107.1" x="791.1" y="538.7098">in each Store from list</text><text fill="#000000" font-family="sans-serif" font-size="10.8" lengthAdjust="spacing" textLength="2.7" x="841.95" y="553.0746">&#160;</text><polygon fill="#181818" points="533.7,581.509,524.7,585.109,533.7,588.709,530.1,585.109" style="stroke:#181818;stroke-width:0.9;"/><line style="stroke:#181818;stroke-width:0.9;" x1="528.3" x2="842.4" y1="585.109" y2="585.109"/><text fill="#000000" font-family="sans-serif" font-size="11.7" font-weight="bold" lengthAdjust="spacing" textLength="12.6" x="539.1" y="580.3726">37</text><text fill="#000000" font-family="sans-serif" font-size="11.7" lengthAdjust="spacing" textLength="110.7" x="555.3" y="580.3726">numberPropertiesList</text><polygon fill="#181818" points="828,609.6709,837,613.2709,828,616.8709,831.6,613.2709" style="stroke:#181818;stroke-width:0.9;"/><line style="stroke:#181818;stroke-width:0.9;" x1="523.8" x2="833.4" y1="613.2709" y2="613.2709"/><text fill="#000000" font-family="sans-serif" font-size="11.7" font-weight="bold" lengthAdjust="spacing" textLength="12.6" x="530.1" y="608.5345">38</text><text fill="#000000" font-family="sans-serif" font-size="11.7" lengthAdjust="spacing" textLength="281.7" x="546.3" y="608.5345">divideStores(selectedStoresList,numberPropertiesList)</text><rect fill="none" height="53.2916" style="stroke:#000000;stroke-width:1.35;" width="180" x="768.6" y="620.4709"/><path d="M768.6,620.4709 L824.4,620.4709 L824.4,628.5709 L815.4,637.5709 L768.6,637.5709 L768.6,620.4709 " fill="#EEEEEE" style="stroke:#000000;stroke-width:1.8;"/><text fill="#000000" font-family="sans-serif" font-size="11.7" font-weight="bold" lengthAdjust="spacing" textLength="15.3" x="780.3" y="634.8964">ref</text><text fill="#000000" font-family="sans-serif" font-size="10.8" lengthAdjust="spacing" textLength="172.8" x="772.2" y="652.8252">Divide Stores between two sublists</text><text fill="#000000" font-family="sans-serif" font-size="10.8" lengthAdjust="spacing" textLength="2.7" x="857.25" y="667.19">&#160;</text><polygon fill="#181818" points="533.7,695.6244,524.7,699.2244,533.7,702.8244,530.1,699.2244" style="stroke:#181818;stroke-width:0.9;"/><line style="stroke:#181818;stroke-width:0.9;" x1="528.3" x2="842.4" y1="699.2244" y2="699.2244"/><text fill="#000000" font-family="sans-serif" font-size="11.7" font-weight="bold" lengthAdjust="spacing" textLength="12.6" x="539.1" y="694.488">50</text><text fill="#000000" font-family="sans-serif" font-size="11.7" lengthAdjust="spacing" textLength="72.9" x="555.3" y="694.488">pairOfSublists</text><polygon fill="#181818" points="80.1,739.3482,71.1,742.9482,80.1,746.5482,76.5,742.9482" style="stroke:#181818;stroke-width:0.9;"/><line style="stroke:#181818;stroke-width:0.9;" x1="74.7" x2="518.4" y1="742.9482" y2="742.9482"/><text fill="#000000" font-family="sans-serif" font-size="11.7" font-weight="bold" lengthAdjust="spacing" textLength="12.6" x="85.5" y="730.4309">51</text><text fill="#000000" font-family="sans-serif" font-size="11.7" lengthAdjust="spacing" textLength="375.3" x="101.7" y="722.6499">provide a pair of sublists with minimum difference between the number of</text><text fill="#000000" font-family="sans-serif" font-size="11.7" lengthAdjust="spacing" textLength="198" x="101.7" y="738.2118">properties associated with their stores</text><!--SRC=[dLLDRzim3BthLn2vB2rMODXG3CYXbtOO0cHfqIItNHYRZeNOaYSfoVBlHqd-IcElmtm8_44-llT8CNOlLOK6IoYrqabkT4dWp864RRzKcEnnHojtBWWC9GxLhkW7s1nJVP9g1naMbeJ0WzFgK6x92F4Xbob1fhNRwjy24wSDJ9RaJjhiuGSgHZOJGDlS2yPqCf4LAWUJsPCySlwAiyXkvY5mC_zBpADMpkYYg44VrwyB8NnPUKH7RH41zLM_WBi7neKPv-mjE0rfm0GRG44gViMKmHwsXRJEWkNd71t_q1boF9A_WwJGbgo3A1vqzbDLHbV4R1bbowg9L8XiW5eY_cffiiIB3_vYUapI2xgzPQA98HyvhBtBzbcSLikSSVz-7SWBy2HQchNEa9NI1Gqnv99KbZKDvuyAwGGmmevS93szkSuANJEKWJuoV7Zg6V6T78HSMB23BJwfbDLbuR4RGFXyV-5aA7_Nw0YqFShJ-haZsdCWr2wqhiQrHbcDGpFWXlkMH8UR0K8cruoMfO8F4M3y1XcVkH3hvy7Zun5bWTk2nhioDhqHslQHFQfusvFhkThCUVRJTArNZINJwfMghZbixtWhN-AGdvV1fBdwXaa-ZMGeZNtsa3V3q_v-kvUj-I_jSRh0aWhOeBoUYqxuq72qzRiX-V9rO4XgJsD8LtVH63eqAiCEfRr3Ec3Bnw4I_-LLt0RHXTw-wIskVtNa_jEu8nLAyvojtcwmTxouEY5y0ZnIE5BDMZr9bqCfbImF9TkMPMH89NInEeUNArgh4yd5qmZ2aOmzljTwZysVmXy0]--></g></svg>