<?xml version="1.0" encoding="us-ascii" standalone="no"?><svg xmlns="http://www.w3.org/2000/svg" xmlns:xlink="http://www.w3.org/1999/xlink" contentStyleType="text/css" height="681.3px" preserveAspectRatio="none" style="width:1049px;height:681px;background:#FFFFFF;" version="1.1" viewBox="0 0 1049 681" width="1049.4px" zoomAndPan="magnify"><defs/><g><rect fill="#FFFFFF" height="503.1668" style="stroke:#181818;stroke-width:0.9;" width="9" x="321.3" y="105.1418"/><rect fill="#FFFFFF" height="446.843" style="stroke:#181818;stroke-width:0.9;" width="9" x="645.3" y="133.3037"/><rect fill="#FFFFFF" height="38.0619" style="stroke:#181818;stroke-width:0.9;" width="9" x="649.8" y="168.6656"/><rect fill="#FFFFFF" height="38.0619" style="stroke:#181818;stroke-width:0.9;" width="9" x="649.8" y="272.0514"/><rect fill="#FFFFFF" height="38.0619" style="stroke:#181818;stroke-width:0.9;" width="9" x="649.8" y="351.7752"/><rect fill="#FFFFFF" height="38.0619" style="stroke:#181818;stroke-width:0.9;" width="9" x="649.8" y="455.1609"/><rect fill="none" height="548.6906" style="stroke:#000000;stroke-width:1.35;" width="1041.3" x="2.7" y="66.818"/><rect fill="none" height="286.4953" style="stroke:#000000;stroke-width:1.35;" width="357.75" x="561.15" y="226.5275"/><rect fill="none" height="97.0857" style="stroke:#000000;stroke-width:1.35;" width="318.6" x="570.15" y="409.6371"/><line style="stroke:#181818;stroke-width:0.45;stroke-dasharray:5.0,5.0;" x1="325.8" x2="325.8" y1="51.518" y2="630.8086"/><line style="stroke:#181818;stroke-width:0.45;stroke-dasharray:5.0,5.0;" x1="649.35" x2="649.35" y1="51.518" y2="630.8086"/><rect fill="#E3E3E3" height="29.359" rx="2.25" ry="2.25" style="stroke:#181818;stroke-width:0.45;" width="144" x="253.8" y="21.259"/><text fill="#000000" font-family="sans-serif" font-size="12.6" lengthAdjust="spacing" textLength="131.4" x="260.1" y="41.1557">:DivideStoresController</text><rect fill="#E3E3E3" height="29.359" rx="2.25" ry="2.25" style="stroke:#181818;stroke-width:0.45;" width="144" x="253.8" y="629.9086"/><text fill="#000000" font-family="sans-serif" font-size="12.6" lengthAdjust="spacing" textLength="131.4" x="260.1" y="649.8053">:DivideStoresController</text><rect fill="#E3E3E3" height="46.118" rx="2.25" ry="2.25" style="stroke:#181818;stroke-width:0.45;" width="141.3" x="579.15" y="4.5"/><text fill="#000000" font-family="sans-serif" font-size="12.6" lengthAdjust="spacing" textLength="128.7" x="585.45" y="24.3967">DivideStoresAlgorithm:</text><text fill="#000000" font-family="sans-serif" font-size="12.6" lengthAdjust="spacing" textLength="123.3" x="588.15" y="41.1557">divideStoresAlgorithm</text><rect fill="#E3E3E3" height="46.118" rx="2.25" ry="2.25" style="stroke:#181818;stroke-width:0.45;" width="141.3" x="579.15" y="629.9086"/><text fill="#000000" font-family="sans-serif" font-size="12.6" lengthAdjust="spacing" textLength="128.7" x="585.45" y="649.8053">DivideStoresAlgorithm:</text><text fill="#000000" font-family="sans-serif" font-size="12.6" lengthAdjust="spacing" textLength="123.3" x="588.15" y="666.5643">divideStoresAlgorithm</text><rect fill="#FFFFFF" height="503.1668" style="stroke:#181818;stroke-width:0.9;" width="9" x="321.3" y="105.1418"/><rect fill="#FFFFFF" height="446.843" style="stroke:#181818;stroke-width:0.9;" width="9" x="645.3" y="133.3037"/><rect fill="#FFFFFF" height="38.0619" style="stroke:#181818;stroke-width:0.9;" width="9" x="649.8" y="168.6656"/><rect fill="#FFFFFF" height="38.0619" style="stroke:#181818;stroke-width:0.9;" width="9" x="649.8" y="272.0514"/><rect fill="#FFFFFF" height="38.0619" style="stroke:#181818;stroke-width:0.9;" width="9" x="649.8" y="351.7752"/><rect fill="#FFFFFF" height="38.0619" style="stroke:#181818;stroke-width:0.9;" width="9" x="649.8" y="455.1609"/><path d="M2.7,66.818 L241.2,66.818 L241.2,75.1799 L232.2,84.1799 L2.7,84.1799 L2.7,66.818 " fill="#EEEEEE" style="stroke:#000000;stroke-width:1.35;"/><rect fill="none" height="548.6906" style="stroke:#000000;stroke-width:1.35;" width="1041.3" x="2.7" y="66.818"/><text fill="#000000" font-family="sans-serif" font-size="11.7" font-weight="bold" lengthAdjust="spacing" textLength="198" x="16.2" y="80.3435">Divide Stores between two sublists</text><polygon fill="#181818" points="310.5,101.5418,319.5,105.1418,310.5,108.7418,314.1,105.1418" style="stroke:#181818;stroke-width:0.9;"/><line style="stroke:#181818;stroke-width:0.9;" x1="0" x2="315.9" y1="105.1418" y2="105.1418"/><text fill="#000000" font-family="sans-serif" font-size="11.7" font-weight="bold" lengthAdjust="spacing" textLength="12.6" x="6.3" y="100.4054">38</text><text fill="#000000" font-family="sans-serif" font-size="11.7" lengthAdjust="spacing" textLength="281.7" x="22.5" y="100.4054">divideStores(selectedStoresList,numberPropertiesList)</text><polygon fill="#181818" points="634.5,129.7037,643.5,133.3037,634.5,136.9037,638.1,133.3037" style="stroke:#181818;stroke-width:0.9;"/><line style="stroke:#181818;stroke-width:0.9;" x1="330.3" x2="639.9" y1="133.3037" y2="133.3037"/><text fill="#000000" font-family="sans-serif" font-size="11.7" font-weight="bold" lengthAdjust="spacing" textLength="12.6" x="336.6" y="128.5673">39</text><text fill="#000000" font-family="sans-serif" font-size="11.7" lengthAdjust="spacing" textLength="281.7" x="352.8" y="128.5673">divideStores(selectedStoresList,numberPropertiesList)</text><line style="stroke:#181818;stroke-width:0.9;" x1="654.3" x2="696.6" y1="156.9656" y2="156.9656"/><line style="stroke:#181818;stroke-width:0.9;" x1="696.6" x2="696.6" y1="156.9656" y2="168.6656"/><line style="stroke:#181818;stroke-width:0.9;" x1="659.7" x2="696.6" y1="168.6656" y2="168.6656"/><polygon fill="#181818" points="668.7,165.0656,659.7,168.6656,668.7,172.2656,665.1,168.6656" style="stroke:#181818;stroke-width:0.9;"/><text fill="#000000" font-family="sans-serif" font-size="11.7" font-weight="bold" lengthAdjust="spacing" textLength="12.6" x="665.1" y="152.2292">40</text><text fill="#000000" font-family="sans-serif" font-size="11.7" lengthAdjust="spacing" textLength="183.6" x="681.3" y="152.2292">getTotalSum(numberPropertiesList)</text><line style="stroke:#181818;stroke-width:0.9;stroke-dasharray:2.0,2.0;" x1="658.8" x2="696.6" y1="205.8275" y2="205.8275"/><line style="stroke:#181818;stroke-width:0.9;stroke-dasharray:2.0,2.0;" x1="696.6" x2="696.6" y1="205.8275" y2="217.5275"/><line style="stroke:#181818;stroke-width:0.9;stroke-dasharray:2.0,2.0;" x1="654.3" x2="696.6" y1="217.5275" y2="217.5275"/><polygon fill="#181818" points="663.3,213.9275,654.3,217.5275,663.3,221.1275,659.7,217.5275" style="stroke:#181818;stroke-width:0.9;"/><text fill="#000000" font-family="sans-serif" font-size="11.7" font-weight="bold" lengthAdjust="spacing" textLength="12.6" x="665.1" y="201.0911">41</text><text fill="#000000" font-family="sans-serif" font-size="11.7" lengthAdjust="spacing" textLength="22.5" x="681.3" y="201.0911">total</text><path d="M561.15,226.5275 L626.85,226.5275 L626.85,234.8895 L617.85,243.8895 L561.15,243.8895 L561.15,226.5275 " fill="#EEEEEE" style="stroke:#000000;stroke-width:1.35;"/><rect fill="none" height="286.4953" style="stroke:#000000;stroke-width:1.35;" width="357.75" x="561.15" y="226.5275"/><text fill="#000000" font-family="sans-serif" font-size="11.7" font-weight="bold" lengthAdjust="spacing" textLength="25.2" x="574.65" y="240.053">loop</text><text fill="#000000" font-family="sans-serif" font-size="9.9" font-weight="bold" lengthAdjust="spacing" textLength="257.4" x="640.35" y="239.0106">[i = 1 to i = Math.pow(2,selectedStoresList.length)-1]</text><line style="stroke:#181818;stroke-width:0.9;" x1="654.3" x2="696.6" y1="260.3514" y2="260.3514"/><line style="stroke:#181818;stroke-width:0.9;" x1="696.6" x2="696.6" y1="260.3514" y2="272.0514"/><line style="stroke:#181818;stroke-width:0.9;" x1="659.7" x2="696.6" y1="272.0514" y2="272.0514"/><polygon fill="#181818" points="668.7,268.4514,659.7,272.0514,668.7,275.6514,665.1,272.0514" style="stroke:#181818;stroke-width:0.9;"/><text fill="#000000" font-family="sans-serif" font-size="11.7" font-weight="bold" lengthAdjust="spacing" textLength="12.6" x="665.1" y="255.6149">42</text><text fill="#000000" font-family="sans-serif" font-size="11.7" lengthAdjust="spacing" textLength="59.4" x="681.3" y="255.6149">getBinary(i)</text><line style="stroke:#181818;stroke-width:0.9;stroke-dasharray:2.0,2.0;" x1="658.8" x2="696.6" y1="309.2133" y2="309.2133"/><line style="stroke:#181818;stroke-width:0.9;stroke-dasharray:2.0,2.0;" x1="696.6" x2="696.6" y1="309.2133" y2="320.9133"/><line style="stroke:#181818;stroke-width:0.9;stroke-dasharray:2.0,2.0;" x1="654.3" x2="696.6" y1="320.9133" y2="320.9133"/><polygon fill="#181818" points="663.3,317.3133,654.3,320.9133,663.3,324.5133,659.7,320.9133" style="stroke:#181818;stroke-width:0.9;"/><text fill="#000000" font-family="sans-serif" font-size="11.7" font-weight="bold" lengthAdjust="spacing" textLength="12.6" x="665.1" y="304.4769">43</text><text fill="#000000" font-family="sans-serif" font-size="11.7" lengthAdjust="spacing" textLength="31.5" x="681.3" y="304.4769">binary</text><line style="stroke:#181818;stroke-width:0.9;" x1="654.3" x2="696.6" y1="340.0752" y2="340.0752"/><line style="stroke:#181818;stroke-width:0.9;" x1="696.6" x2="696.6" y1="340.0752" y2="351.7752"/><line style="stroke:#181818;stroke-width:0.9;" x1="659.7" x2="696.6" y1="351.7752" y2="351.7752"/><polygon fill="#181818" points="668.7,348.1752,659.7,351.7752,668.7,355.3752,665.1,351.7752" style="stroke:#181818;stroke-width:0.9;"/><text fill="#000000" font-family="sans-serif" font-size="11.7" font-weight="bold" lengthAdjust="spacing" textLength="12.6" x="665.1" y="335.3388">44</text><text fill="#000000" font-family="sans-serif" font-size="11.7" lengthAdjust="spacing" textLength="226.8" x="681.3" y="335.3388">getPartialSum(binary,numberPropertiesList)</text><line style="stroke:#181818;stroke-width:0.9;stroke-dasharray:2.0,2.0;" x1="658.8" x2="696.6" y1="388.9371" y2="388.9371"/><line style="stroke:#181818;stroke-width:0.9;stroke-dasharray:2.0,2.0;" x1="696.6" x2="696.6" y1="388.9371" y2="400.6371"/><line style="stroke:#181818;stroke-width:0.9;stroke-dasharray:2.0,2.0;" x1="654.3" x2="696.6" y1="400.6371" y2="400.6371"/><polygon fill="#181818" points="663.3,397.0371,654.3,400.6371,663.3,404.2371,659.7,400.6371" style="stroke:#181818;stroke-width:0.9;"/><text fill="#000000" font-family="sans-serif" font-size="11.7" font-weight="bold" lengthAdjust="spacing" textLength="12.6" x="665.1" y="384.2007">45</text><text fill="#000000" font-family="sans-serif" font-size="11.7" lengthAdjust="spacing" textLength="31.5" x="681.3" y="384.2007">partial</text><path d="M570.15,409.6371 L628.65,409.6371 L628.65,417.999 L619.65,426.999 L570.15,426.999 L570.15,409.6371 " fill="#EEEEEE" style="stroke:#000000;stroke-width:1.35;"/><rect fill="none" height="97.0857" style="stroke:#000000;stroke-width:1.35;" width="318.6" x="570.15" y="409.6371"/><text fill="#000000" font-family="sans-serif" font-size="11.7" font-weight="bold" lengthAdjust="spacing" textLength="18" x="583.65" y="423.1626">opt</text><text fill="#000000" font-family="sans-serif" font-size="9.9" font-weight="bold" lengthAdjust="spacing" textLength="242.1" x="642.15" y="422.1202">[getAbsoluteDifference(total, partial) &lt; minVal[1]]</text><line style="stroke:#181818;stroke-width:0.9;" x1="654.3" x2="696.6" y1="443.4609" y2="443.4609"/><line style="stroke:#181818;stroke-width:0.9;" x1="696.6" x2="696.6" y1="443.4609" y2="455.1609"/><line style="stroke:#181818;stroke-width:0.9;" x1="659.7" x2="696.6" y1="455.1609" y2="455.1609"/><polygon fill="#181818" points="668.7,451.5609,659.7,455.1609,668.7,458.7609,665.1,455.1609" style="stroke:#181818;stroke-width:0.9;"/><text fill="#000000" font-family="sans-serif" font-size="11.7" font-weight="bold" lengthAdjust="spacing" textLength="12.6" x="665.1" y="438.7245">46</text><text fill="#000000" font-family="sans-serif" font-size="11.7" lengthAdjust="spacing" textLength="148.5" x="681.3" y="438.7245">saveMinimum(binary, partial)</text><line style="stroke:#181818;stroke-width:0.9;stroke-dasharray:2.0,2.0;" x1="658.8" x2="696.6" y1="492.3229" y2="492.3229"/><line style="stroke:#181818;stroke-width:0.9;stroke-dasharray:2.0,2.0;" x1="696.6" x2="696.6" y1="492.3229" y2="504.0229"/><line style="stroke:#181818;stroke-width:0.9;stroke-dasharray:2.0,2.0;" x1="654.3" x2="696.6" y1="504.0229" y2="504.0229"/><polygon fill="#181818" points="663.3,500.4229,654.3,504.0229,663.3,507.6229,659.7,504.0229" style="stroke:#181818;stroke-width:0.9;"/><text fill="#000000" font-family="sans-serif" font-size="11.7" font-weight="bold" lengthAdjust="spacing" textLength="12.6" x="665.1" y="487.5864">47</text><text fill="#000000" font-family="sans-serif" font-size="11.7" lengthAdjust="spacing" textLength="36" x="681.3" y="487.5864">minVal</text><line style="stroke:#181818;stroke-width:0.9;" x1="654.3" x2="692.1" y1="540.2848" y2="540.2848"/><line style="stroke:#181818;stroke-width:0.9;" x1="692.1" x2="692.1" y1="540.2848" y2="551.9848"/><line style="stroke:#181818;stroke-width:0.9;" x1="655.2" x2="692.1" y1="551.9848" y2="551.9848"/><polygon fill="#181818" points="664.2,548.3848,655.2,551.9848,664.2,555.5848,660.6,551.9848" style="stroke:#181818;stroke-width:0.9;"/><text fill="#000000" font-family="sans-serif" font-size="11.7" font-weight="bold" lengthAdjust="spacing" textLength="12.6" x="660.6" y="535.5483">48</text><text fill="#000000" font-family="sans-serif" font-size="11.7" lengthAdjust="spacing" textLength="356.4" x="676.8" y="535.5483">getPairOfSublists(minVal, selectedStoresList, numberPropertiesList)</text><polygon fill="#181818" points="340.2,576.5467,331.2,580.1467,340.2,583.7467,336.6,580.1467" style="stroke:#181818;stroke-width:0.9;"/><line style="stroke:#181818;stroke-width:0.9;stroke-dasharray:2.0,2.0;" x1="334.8" x2="648.9" y1="580.1467" y2="580.1467"/><text fill="#000000" font-family="sans-serif" font-size="11.7" font-weight="bold" lengthAdjust="spacing" textLength="12.6" x="345.6" y="575.4103">49</text><text fill="#000000" font-family="sans-serif" font-size="11.7" lengthAdjust="spacing" textLength="72.9" x="361.8" y="575.4103">pairOfSublists</text><polygon fill="#181818" points="9.9,604.7086,0.9,608.3086,9.9,611.9086,6.3,608.3086" style="stroke:#181818;stroke-width:0.9;"/><line style="stroke:#181818;stroke-width:0.9;stroke-dasharray:2.0,2.0;" x1="4.5" x2="324.9" y1="608.3086" y2="608.3086"/><text fill="#000000" font-family="sans-serif" font-size="11.7" font-weight="bold" lengthAdjust="spacing" textLength="12.6" x="15.3" y="603.5722">50</text><text fill="#000000" font-family="sans-serif" font-size="11.7" lengthAdjust="spacing" textLength="72.9" x="31.5" y="603.5722">pairOfSublists</text><!--SRC=[jLJDRjim3BxhAOYU7C0faErI1Ds0hZssMD4KktGxq3PZ2vL5GQ8JzErdMwddDcbc89jEDYr-Vv8PdhLrwB66cYtdbUUQG7n3AWnV7ERFMD9ANWo1frpGbcQy8LHOy5RR4jPe0YdLbaNdsg4LE5lUw8qksdRs5AxPYcTZo9y11hX-VBXzktky-SgKxBLKzVAdBGxLUmmqfL8A6s7Rr1bv-7oXLEcvSH3187P1Hh8biY1RXj1aHWS92dPh_hKN0qiOCoM1J6kOYlXwsxQaaUNUiwDMTopE1Xp0NFG6XQ8t6AqUl-Lf1PzEyvwjIm4Eh8viu2n97bdGh9ewcOO_cMVW6iYaO_fmRq5_XJJC3ZHyWKMBrJ_SeLJdZhV9ftG_iND3jfHgDbyS5pWAuvksw5yI_KzzPpteASOFIRtlVf9uSf4W_Uy7w2BbgKxOIMVWAWji6g4RlLwJ9vjJqj-Gz9Ld1fTGQ_i3pTFYruTeUza4tD2Tjhh-ayo0U1nbYlZzLAB4emqJWo5RgAdr_UkW_VVrQZV5aYWgXGDp12OEaft9tH1qR_1FSNivdqy47G7rixFD0Vev_Xi0]--></g></svg>