<?xml version="1.0" encoding="us-ascii" standalone="no"?><svg xmlns="http://www.w3.org/2000/svg" xmlns:xlink="http://www.w3.org/1999/xlink" contentStyleType="text/css" height="507px" preserveAspectRatio="none" style="width:769px;height:507px;background:#FFFFFF;" version="1.1" viewBox="0 0 769 507" width="769px" zoomAndPan="magnify"><defs><filter height="300%" id="f10zfa1grj2auu" width="300%" x="-1" y="-1"><feGaussianBlur result="blurOut" stdDeviation="2.0"/><feColorMatrix in="blurOut" result="blurOut2" type="matrix" values="0 0 0 0 0 0 0 0 0 0 0 0 0 0 0 0 0 0 .4 0"/><feOffset dx="4.0" dy="4.0" in="blurOut2" result="blurOut3"/><feBlend in="SourceGraphic" in2="blurOut3" mode="normal"/></filter></defs><g><!--class Client--><g id="elem_Client"><rect codeLine="18" fill="#F1F1F1" filter="url(#f10zfa1grj2auu)" height="141.1055" id="Client" rx="2.5" ry="2.5" style="stroke:#181818;stroke-width:0.5;" width="169" x="320.5" y="354"/><ellipse cx="382.75" cy="370" fill="#ADD1B2" rx="11" ry="11" style="stroke:#181818;stroke-width:1.0;"/><path d="M385.5156,365.875 Q385.6719,365.6563 385.8594,365.5469 Q386.0469,365.4375 386.2656,365.4375 Q386.6406,365.4375 386.875,365.7031 Q387.1094,365.9531 387.1094,366.5625 L387.1094,368.0156 Q387.1094,368.625 386.875,368.8906 Q386.6406,369.1563 386.2656,369.1563 Q385.9219,369.1563 385.7188,368.9531 Q385.5156,368.7656 385.4063,368.25 Q385.3594,367.8906 385.1719,367.7031 Q384.8438,367.3281 384.2344,367.1094 Q383.625,366.8906 383,366.8906 Q382.2344,366.8906 381.5938,367.2188 Q380.9688,367.5469 380.4688,368.2969 Q379.9844,369.0469 379.9844,370.0781 L379.9844,371.1719 Q379.9844,372.4063 380.875,373.2344 Q381.7656,374.0469 383.3594,374.0469 Q384.2969,374.0469 384.9531,373.7969 Q385.3438,373.6406 385.7656,373.2031 Q386.0313,372.9375 386.1719,372.8594 Q386.3281,372.7813 386.5313,372.7813 Q386.8594,372.7813 387.1094,373.0469 Q387.375,373.2969 387.375,373.6406 Q387.375,373.9844 387.0313,374.3906 Q386.5313,374.9688 385.7344,375.2969 Q384.6563,375.75 383.3594,375.75 Q381.8438,375.75 380.6406,375.125 Q379.6563,374.625 378.9688,373.5625 Q378.2813,372.4844 378.2813,371.2031 L378.2813,370.0469 Q378.2813,368.7188 378.8906,367.5781 Q379.5156,366.4219 380.6094,365.8125 Q381.7031,365.1875 382.9375,365.1875 Q383.6719,365.1875 384.3125,365.3594 Q384.9688,365.5156 385.5156,365.875 Z " fill="#000000"/><text fill="#000000" font-family="sans-serif" font-size="14" lengthAdjust="spacing" textLength="36" x="403.25" y="375.7969">Client</text><line style="stroke:#181818;stroke-width:0.5;" x1="321.5" x2="488.5" y1="386" y2="386"/><text fill="#000000" font-family="sans-serif" font-size="14" lengthAdjust="spacing" textLength="81" x="326.5" y="405.1074">-String name</text><text fill="#000000" font-family="sans-serif" font-size="14" lengthAdjust="spacing" textLength="79" x="326.5" y="423.7285">-String email</text><text fill="#000000" font-family="sans-serif" font-size="14" lengthAdjust="spacing" textLength="157" x="326.5" y="442.3496">-Integer passportNumber</text><text fill="#000000" font-family="sans-serif" font-size="14" lengthAdjust="spacing" textLength="113" x="326.5" y="460.9707">-String taxNumber</text><text fill="#000000" font-family="sans-serif" font-size="14" lengthAdjust="spacing" textLength="142" x="326.5" y="479.5918">-Integer phoneNumber</text><line style="stroke:#181818;stroke-width:0.5;" x1="321.5" x2="488.5" y1="487.1055" y2="487.1055"/></g><!--class Address--><g id="elem_Address"><rect codeLine="26" fill="#F1F1F1" filter="url(#f10zfa1grj2auu)" height="122.4844" id="Address" rx="2.5" ry="2.5" style="stroke:#181818;stroke-width:0.5;" width="146" x="525" y="363.5"/><ellipse cx="567.9" cy="379.5" fill="#ADD1B2" rx="11" ry="11" style="stroke:#181818;stroke-width:1.0;"/><path d="M570.6656,375.375 Q570.8219,375.1563 571.0094,375.0469 Q571.1969,374.9375 571.4156,374.9375 Q571.7906,374.9375 572.025,375.2031 Q572.2594,375.4531 572.2594,376.0625 L572.2594,377.5156 Q572.2594,378.125 572.025,378.3906 Q571.7906,378.6563 571.4156,378.6563 Q571.0719,378.6563 570.8688,378.4531 Q570.6656,378.2656 570.5563,377.75 Q570.5094,377.3906 570.3219,377.2031 Q569.9938,376.8281 569.3844,376.6094 Q568.775,376.3906 568.15,376.3906 Q567.3844,376.3906 566.7438,376.7188 Q566.1188,377.0469 565.6188,377.7969 Q565.1344,378.5469 565.1344,379.5781 L565.1344,380.6719 Q565.1344,381.9063 566.025,382.7344 Q566.9156,383.5469 568.5094,383.5469 Q569.4469,383.5469 570.1031,383.2969 Q570.4938,383.1406 570.9156,382.7031 Q571.1813,382.4375 571.3219,382.3594 Q571.4781,382.2813 571.6813,382.2813 Q572.0094,382.2813 572.2594,382.5469 Q572.525,382.7969 572.525,383.1406 Q572.525,383.4844 572.1813,383.8906 Q571.6813,384.4688 570.8844,384.7969 Q569.8063,385.25 568.5094,385.25 Q566.9938,385.25 565.7906,384.625 Q564.8063,384.125 564.1188,383.0625 Q563.4313,381.9844 563.4313,380.7031 L563.4313,379.5469 Q563.4313,378.2188 564.0406,377.0781 Q564.6656,375.9219 565.7594,375.3125 Q566.8531,374.6875 568.0875,374.6875 Q568.8219,374.6875 569.4625,374.8594 Q570.1188,375.0156 570.6656,375.375 Z " fill="#000000"/><text fill="#000000" font-family="sans-serif" font-size="14" lengthAdjust="spacing" textLength="52" x="588.1" y="385.2969">Address</text><line style="stroke:#181818;stroke-width:0.5;" x1="526" x2="670" y1="395.5" y2="395.5"/><text fill="#000000" font-family="sans-serif" font-size="14" lengthAdjust="spacing" textLength="134" x="531" y="414.6074">-String streetAddress</text><text fill="#000000" font-family="sans-serif" font-size="14" lengthAdjust="spacing" textLength="77" x="531" y="433.2285">-String state</text><text fill="#000000" font-family="sans-serif" font-size="14" lengthAdjust="spacing" textLength="67" x="531" y="451.8496">-String city</text><text fill="#000000" font-family="sans-serif" font-size="14" lengthAdjust="spacing" textLength="97" x="531" y="470.4707">-String zipCode</text><line style="stroke:#181818;stroke-width:0.5;" x1="526" x2="670" y1="477.9844" y2="477.9844"/></g><!--class ClientRepository--><g id="elem_ClientRepository"><rect codeLine="37" fill="#F1F1F1" filter="url(#f10zfa1grj2auu)" height="85.2422" id="ClientRepository" rx="2.5" ry="2.5" style="stroke:#181818;stroke-width:0.5;" width="236" x="287" y="190"/><ellipse cx="348.75" cy="206" fill="#ADD1B2" rx="11" ry="11" style="stroke:#181818;stroke-width:1.0;"/><path d="M351.5156,201.875 Q351.6719,201.6563 351.8594,201.5469 Q352.0469,201.4375 352.2656,201.4375 Q352.6406,201.4375 352.875,201.7031 Q353.1094,201.9531 353.1094,202.5625 L353.1094,204.0156 Q353.1094,204.625 352.875,204.8906 Q352.6406,205.1563 352.2656,205.1563 Q351.9219,205.1563 351.7188,204.9531 Q351.5156,204.7656 351.4063,204.25 Q351.3594,203.8906 351.1719,203.7031 Q350.8438,203.3281 350.2344,203.1094 Q349.625,202.8906 349,202.8906 Q348.2344,202.8906 347.5938,203.2188 Q346.9688,203.5469 346.4688,204.2969 Q345.9844,205.0469 345.9844,206.0781 L345.9844,207.1719 Q345.9844,208.4063 346.875,209.2344 Q347.7656,210.0469 349.3594,210.0469 Q350.2969,210.0469 350.9531,209.7969 Q351.3438,209.6406 351.7656,209.2031 Q352.0313,208.9375 352.1719,208.8594 Q352.3281,208.7813 352.5313,208.7813 Q352.8594,208.7813 353.1094,209.0469 Q353.375,209.2969 353.375,209.6406 Q353.375,209.9844 353.0313,210.3906 Q352.5313,210.9688 351.7344,211.2969 Q350.6563,211.75 349.3594,211.75 Q347.8438,211.75 346.6406,211.125 Q345.6563,210.625 344.9688,209.5625 Q344.2813,208.4844 344.2813,207.2031 L344.2813,206.0469 Q344.2813,204.7188 344.8906,203.5781 Q345.5156,202.4219 346.6094,201.8125 Q347.7031,201.1875 348.9375,201.1875 Q349.6719,201.1875 350.3125,201.3594 Q350.9688,201.5156 351.5156,201.875 Z " fill="#000000"/><text fill="#000000" font-family="sans-serif" font-size="14" lengthAdjust="spacing" textLength="104" x="369.25" y="211.7969">ClientRepository</text><line style="stroke:#181818;stroke-width:0.5;" x1="288" x2="522" y1="222" y2="222"/><line style="stroke:#181818;stroke-width:0.5;" x1="288" x2="522" y1="230" y2="230"/><text fill="#000000" font-family="sans-serif" font-size="14" lengthAdjust="spacing" textLength="198" x="293" y="249.1074">+create(email,passportNumber,</text><text fill="#000000" font-family="sans-serif" font-size="14" lengthAdjust="spacing" textLength="220" x="297" y="267.7285">taxNumber,address,phoneNumber)</text></g><!--class Repositories--><g id="elem_Repositories"><rect codeLine="41" fill="#F1F1F1" filter="url(#f10zfa1grj2auu)" height="103.8633" id="Repositories" rx="2.5" ry="2.5" style="stroke:#181818;stroke-width:0.5;" width="194" x="472" y="7"/><ellipse cx="525.25" cy="23" fill="#ADD1B2" rx="11" ry="11" style="stroke:#181818;stroke-width:1.0;"/><path d="M528.0156,18.875 Q528.1719,18.6563 528.3594,18.5469 Q528.5469,18.4375 528.7656,18.4375 Q529.1406,18.4375 529.375,18.7031 Q529.6094,18.9531 529.6094,19.5625 L529.6094,21.0156 Q529.6094,21.625 529.375,21.8906 Q529.1406,22.1563 528.7656,22.1563 Q528.4219,22.1563 528.2188,21.9531 Q528.0156,21.7656 527.9063,21.25 Q527.8594,20.8906 527.6719,20.7031 Q527.3438,20.3281 526.7344,20.1094 Q526.125,19.8906 525.5,19.8906 Q524.7344,19.8906 524.0938,20.2188 Q523.4688,20.5469 522.9688,21.2969 Q522.4844,22.0469 522.4844,23.0781 L522.4844,24.1719 Q522.4844,25.4063 523.375,26.2344 Q524.2656,27.0469 525.8594,27.0469 Q526.7969,27.0469 527.4531,26.7969 Q527.8438,26.6406 528.2656,26.2031 Q528.5313,25.9375 528.6719,25.8594 Q528.8281,25.7813 529.0313,25.7813 Q529.3594,25.7813 529.6094,26.0469 Q529.875,26.2969 529.875,26.6406 Q529.875,26.9844 529.5313,27.3906 Q529.0313,27.9688 528.2344,28.2969 Q527.1563,28.75 525.8594,28.75 Q524.3438,28.75 523.1406,28.125 Q522.1563,27.625 521.4688,26.5625 Q520.7813,25.4844 520.7813,24.2031 L520.7813,23.0469 Q520.7813,21.7188 521.3906,20.5781 Q522.0156,19.4219 523.1094,18.8125 Q524.2031,18.1875 525.4375,18.1875 Q526.1719,18.1875 526.8125,18.3594 Q527.4688,18.5156 528.0156,18.875 Z " fill="#000000"/><text fill="#000000" font-family="sans-serif" font-size="14" lengthAdjust="spacing" textLength="79" x="545.75" y="28.7969">Repositories</text><line style="stroke:#181818;stroke-width:0.5;" x1="473" x2="665" y1="39" y2="39"/><line style="stroke:#181818;stroke-width:0.5;" x1="473" x2="665" y1="47" y2="47"/><text fill="#000000" font-family="sans-serif" font-size="14" lengthAdjust="spacing" textLength="94" x="478" y="66.1074">-Repositories()</text><text fill="#000000" font-family="sans-serif" font-size="14" lengthAdjust="spacing" textLength="182" x="478" y="84.7285">+getInstance() : Repositories</text><text fill="#000000" font-family="sans-serif" font-size="14" lengthAdjust="spacing" textLength="142" x="478" y="103.3496">+getClientRepository()</text></g><!--class SignController--><g id="elem_SignController"><rect codeLine="47" fill="#F1F1F1" filter="url(#f10zfa1grj2auu)" height="103.8633" id="SignController" rx="2.5" ry="2.5" style="stroke:#181818;stroke-width:0.5;" width="254" x="114" y="7"/><ellipse cx="191.75" cy="23" fill="#ADD1B2" rx="11" ry="11" style="stroke:#181818;stroke-width:1.0;"/><path d="M194.5156,18.875 Q194.6719,18.6563 194.8594,18.5469 Q195.0469,18.4375 195.2656,18.4375 Q195.6406,18.4375 195.875,18.7031 Q196.1094,18.9531 196.1094,19.5625 L196.1094,21.0156 Q196.1094,21.625 195.875,21.8906 Q195.6406,22.1563 195.2656,22.1563 Q194.9219,22.1563 194.7188,21.9531 Q194.5156,21.7656 194.4063,21.25 Q194.3594,20.8906 194.1719,20.7031 Q193.8438,20.3281 193.2344,20.1094 Q192.625,19.8906 192,19.8906 Q191.2344,19.8906 190.5938,20.2188 Q189.9688,20.5469 189.4688,21.2969 Q188.9844,22.0469 188.9844,23.0781 L188.9844,24.1719 Q188.9844,25.4063 189.875,26.2344 Q190.7656,27.0469 192.3594,27.0469 Q193.2969,27.0469 193.9531,26.7969 Q194.3438,26.6406 194.7656,26.2031 Q195.0313,25.9375 195.1719,25.8594 Q195.3281,25.7813 195.5313,25.7813 Q195.8594,25.7813 196.1094,26.0469 Q196.375,26.2969 196.375,26.6406 Q196.375,26.9844 196.0313,27.3906 Q195.5313,27.9688 194.7344,28.2969 Q193.6563,28.75 192.3594,28.75 Q190.8438,28.75 189.6406,28.125 Q188.6563,27.625 187.9688,26.5625 Q187.2813,25.4844 187.2813,24.2031 L187.2813,23.0469 Q187.2813,21.7188 187.8906,20.5781 Q188.5156,19.4219 189.6094,18.8125 Q190.7031,18.1875 191.9375,18.1875 Q192.6719,18.1875 193.3125,18.3594 Q193.9688,18.5156 194.5156,18.875 Z " fill="#000000"/><text fill="#000000" font-family="sans-serif" font-size="14" lengthAdjust="spacing" textLength="90" x="212.25" y="28.7969">SignController</text><line style="stroke:#181818;stroke-width:0.5;" x1="115" x2="367" y1="39" y2="39"/><line style="stroke:#181818;stroke-width:0.5;" x1="115" x2="367" y1="47" y2="47"/><text fill="#000000" font-family="sans-serif" font-size="14" lengthAdjust="spacing" textLength="108" x="120" y="66.1074">+SignController()</text><text fill="#000000" font-family="sans-serif" font-size="14" lengthAdjust="spacing" textLength="242" x="120" y="84.7285">+registerClient(email,passportNumber,</text><text fill="#000000" font-family="sans-serif" font-size="14" lengthAdjust="spacing" textLength="220" x="124" y="103.3496">taxNumber,address,phoneNumber)</text></g><!--class SignUI--><g id="elem_SignUI"><rect codeLine="54" fill="#F1F1F1" filter="url(#f10zfa1grj2auu)" height="48" id="SignUI" rx="2.5" ry="2.5" style="stroke:#181818;stroke-width:0.5;" width="72" x="7" y="35"/><ellipse cx="22" cy="51" fill="#ADD1B2" rx="11" ry="11" style="stroke:#181818;stroke-width:1.0;"/><path d="M24.7656,46.875 Q24.9219,46.6563 25.1094,46.5469 Q25.2969,46.4375 25.5156,46.4375 Q25.8906,46.4375 26.125,46.7031 Q26.3594,46.9531 26.3594,47.5625 L26.3594,49.0156 Q26.3594,49.625 26.125,49.8906 Q25.8906,50.1563 25.5156,50.1563 Q25.1719,50.1563 24.9688,49.9531 Q24.7656,49.7656 24.6563,49.25 Q24.6094,48.8906 24.4219,48.7031 Q24.0938,48.3281 23.4844,48.1094 Q22.875,47.8906 22.25,47.8906 Q21.4844,47.8906 20.8438,48.2188 Q20.2188,48.5469 19.7188,49.2969 Q19.2344,50.0469 19.2344,51.0781 L19.2344,52.1719 Q19.2344,53.4063 20.125,54.2344 Q21.0156,55.0469 22.6094,55.0469 Q23.5469,55.0469 24.2031,54.7969 Q24.5938,54.6406 25.0156,54.2031 Q25.2813,53.9375 25.4219,53.8594 Q25.5781,53.7813 25.7813,53.7813 Q26.1094,53.7813 26.3594,54.0469 Q26.625,54.2969 26.625,54.6406 Q26.625,54.9844 26.2813,55.3906 Q25.7813,55.9688 24.9844,56.2969 Q23.9063,56.75 22.6094,56.75 Q21.0938,56.75 19.8906,56.125 Q18.9063,55.625 18.2188,54.5625 Q17.5313,53.4844 17.5313,52.2031 L17.5313,51.0469 Q17.5313,49.7188 18.1406,48.5781 Q18.7656,47.4219 19.8594,46.8125 Q20.9531,46.1875 22.1875,46.1875 Q22.9219,46.1875 23.5625,46.3594 Q24.2188,46.5156 24.7656,46.875 Z " fill="#000000"/><text fill="#000000" font-family="sans-serif" font-size="14" lengthAdjust="spacing" textLength="40" x="36" y="56.7969">SignUI</text><line style="stroke:#181818;stroke-width:0.5;" x1="8" x2="78" y1="67" y2="67"/><line style="stroke:#181818;stroke-width:0.5;" x1="8" x2="78" y1="75" y2="75"/></g><!--link Repositories to Repositories--><g id="link_Repositories_Repositories"><path codeLine="57" d="M666.28,42.72 C686.48,44.43 701,49.86 701,59 C701,67.36 688.87,72.61 671.36,74.76 " fill="none" id="Repositories-to-Repositories" style="stroke:#181818;stroke-width:1.0;"/><polygon fill="#181818" points="666.28,75.28,675.6438,78.3327,671.2535,74.7655,674.8206,70.3751,666.28,75.28" style="stroke:#181818;stroke-width:1.0;"/><text fill="#000000" font-family="sans-serif" font-size="13" lengthAdjust="spacing" textLength="49" x="707" y="64.5283">instance</text></g><!--link SignUI to SignController--><g id="link_SignUI_SignController"><path codeLine="59" d="M79.09,59 C90.65,59 101.69,59 108.5,59 " fill="none" id="SignUI-to-SignController" style="stroke:#181818;stroke-width:1.0;stroke-dasharray:7.0,7.0;"/><polygon fill="#181818" points="113.75,59,104.75,55,108.75,59,104.75,63,113.75,59" style="stroke:#181818;stroke-width:1.0;"/></g><!--link SignController to Repositories--><g id="link_SignController_Repositories"><path codeLine="61" d="M368.28,59 C400.8,59 435.34,59 466.44,59 " fill="none" id="SignController-to-Repositories" style="stroke:#181818;stroke-width:1.0;stroke-dasharray:7.0,7.0;"/><polygon fill="#181818" points="471.8,59,462.8,55,466.8,59,462.8,63,471.8,59" style="stroke:#181818;stroke-width:1.0;"/><text fill="#000000" font-family="sans-serif" font-size="13" lengthAdjust="spacing" textLength="67" x="386.5" y="52.0283">repositories</text></g><!--link Repositories to ClientRepository--><g id="link_Repositories_ClientRepository"><path codeLine="63" d="M519.79,111.46 C497.05,135.24 470.27,163.25 448.3,186.22 " fill="none" id="Repositories-to-ClientRepository" style="stroke:#181818;stroke-width:1.0;"/><polygon fill="#181818" points="444.81,189.86,453.929,186.1391,448.2733,186.2536,448.1588,180.5979,444.81,189.86" style="stroke:#181818;stroke-width:1.0;"/><text fill="#000000" font-family="sans-serif" font-size="13" lengthAdjust="spacing" textLength="7" x="443.5969" y="178.7418">1</text></g><!--link SignController to ClientRepository--><g id="link_SignController_ClientRepository"><path codeLine="65" d="M290.21,111.46 C312.95,135.24 339.73,163.25 361.7,186.22 " fill="none" id="SignController-to-ClientRepository" style="stroke:#181818;stroke-width:1.0;stroke-dasharray:7.0,7.0;"/><polygon fill="#181818" points="365.19,189.86,361.8412,180.5979,361.7267,186.2536,356.071,186.1391,365.19,189.86" style="stroke:#181818;stroke-width:1.0;"/><text fill="#000000" font-family="sans-serif" font-size="13" lengthAdjust="spacing" textLength="95" x="334" y="156.0283">ClientRepository</text></g><!--link ClientRepository to Client--><g id="link_ClientRepository_Client"><path codeLine="68" d="M405,275.2 C405,296.71 405,323.63 405,348.6 " fill="none" id="ClientRepository-to-Client" style="stroke:#181818;stroke-width:1.0;"/><polygon fill="#181818" points="405,353.9,409,344.9,405,348.9,401,344.9,405,353.9" style="stroke:#181818;stroke-width:1.0;"/><text fill="#000000" font-family="sans-serif" font-size="13" lengthAdjust="spacing" textLength="31" x="406" y="320.0283">client</text><text fill="#000000" font-family="sans-serif" font-size="13" lengthAdjust="spacing" textLength="7" x="397.4422" y="297.3922">1</text><text fill="#000000" font-family="sans-serif" font-size="13" lengthAdjust="spacing" textLength="5" x="399.7422" y="342.7807">*</text></g><!--link Client to Address--><g id="link_Client_Address"><path codeLine="71" d="M489.69,424.5 C496.68,424.5 504.54,424.5 511.66,424.5 " fill="none" id="Client-to-Address" style="stroke:#181818;stroke-width:1.0;"/><polygon fill="none" points="524.72,424.5,518.72,420.5,512.72,424.5,518.72,428.5,524.72,424.5" style="stroke:#181818;stroke-width:1.0;"/></g><!--SRC=[fL8zRzim4DtvAuWiibixQ5SF0GAZWvSC4R9rOQYhJ8JY2SSpMiN8V-_fmv8ePOicwjszz-uTcSKt5sf3fj8L1hHdmWeqqmNKLAcDVJCbvDnuq0IMJIZzl26UJO5_NIYNJEy2S5E3hj4txO_AFYaYCQhCmn_MZ9fSUMPTkDR8OL0pEUjDZ8_Cv5ul32UB8NVle7yefRAkfbyYK0unjiJigZ8jttTT0hU5NvLnVhDLsOSGL4yuUWU1zLMrdNkTYxR42AQ2586MEq2dm502oLvYh6Nufqlr2fJsi_cNm2FdZ066oiTjYCUY81cw7sBIY4m0F1HNDSEmmApZPW6zk_g81QWkSPhv6MgCZf6Q8RqioXA8xAOBkqlZxNw7ATJEz4FjPd6sKvvHsa4SLpi7vHB6cpa5oH8iRBRwa3HDBSk1DpElt9NXY849lPVzNWTM2ez-1AMB3DGhVY7etFxb9BQ29R7t3-aQ3jeDGPKQIFSFYp7xoYpD_Kg4vWjQE8hbtS-xrVMkLKLszGOEd_3KgglLxto-tNo4QBl3sAxtU7lHWlq7]--></g></svg>