<?xml version="1.0" encoding="us-ascii" standalone="no"?><svg xmlns="http://www.w3.org/2000/svg" xmlns:xlink="http://www.w3.org/1999/xlink" contentStyleType="text/css" height="507px" preserveAspectRatio="none" style="width:1653px;height:507px;background:#FFFFFF;" version="1.1" viewBox="0 0 1653 507" width="1653px" zoomAndPan="magnify"><defs/><g><rect fill="#FFFFFF" height="318.2813" style="stroke:#181818;stroke-width:1.0;" width="10" x="60" y="90.6406"/><rect fill="#FFFFFF" height="69.1641" style="stroke:#181818;stroke-width:1.0;" width="10" x="526" y="111.1641"/><rect fill="#FFFFFF" height="185.5469" style="stroke:#181818;stroke-width:1.0;" width="10" x="526" y="223.375"/><rect fill="#FFFFFF" height="128.5" style="stroke:#181818;stroke-width:1.0;" width="10" x="1036" y="251.8984"/><rect fill="#FFFFFF" height="71.4531" style="stroke:#181818;stroke-width:1.0;" width="10" x="1578" y="280.4219"/><line style="stroke:#181818;stroke-width:0.5;stroke-dasharray:5.0,5.0;" x1="65" x2="65" y1="80.6406" y2="426.9219"/><line style="stroke:#181818;stroke-width:0.5;stroke-dasharray:5.0,5.0;" x1="531" x2="531" y1="80.6406" y2="426.9219"/><line style="stroke:#181818;stroke-width:0.5;stroke-dasharray:5.0,5.0;" x1="1041" x2="1041" y1="149.4844" y2="426.9219"/><line style="stroke:#181818;stroke-width:0.5;stroke-dasharray:5.0,5.0;" x1="1582.5" x2="1582.5" y1="80.6406" y2="426.9219"/><text fill="#000000" font-family="sans-serif" font-size="14" lengthAdjust="spacing" textLength="114" x="5" y="77.6738">Unregistered User</text><ellipse cx="65" cy="13.5" fill="#E3E3E3" rx="8" ry="8" style="stroke:#181818;stroke-width:0.5;"/><path d="M65,21.5 L65,48.5 M52,29.5 L78,29.5 M65,48.5 L52,63.5 M65,48.5 L78,63.5 " fill="none" style="stroke:#181818;stroke-width:0.5;"/><text fill="#000000" font-family="sans-serif" font-size="14" lengthAdjust="spacing" textLength="114" x="5" y="438.5957">Unregistered User</text><ellipse cx="65" cy="450.0625" fill="#E3E3E3" rx="8" ry="8" style="stroke:#181818;stroke-width:0.5;"/><path d="M65,458.0625 L65,485.0625 M52,466.0625 L78,466.0625 M65,485.0625 L52,500.0625 M65,485.0625 L78,500.0625 " fill="none" style="stroke:#181818;stroke-width:0.5;"/><rect fill="#E3E3E3" height="29.6406" rx="2.5" ry="2.5" style="stroke:#181818;stroke-width:0.5;" width="58" x="502" y="50"/><text fill="#000000" font-family="sans-serif" font-size="14" lengthAdjust="spacing" textLength="44" x="509" y="69.6738">:SignUI</text><rect fill="#E3E3E3" height="29.6406" rx="2.5" ry="2.5" style="stroke:#181818;stroke-width:0.5;" width="58" x="502" y="425.9219"/><text fill="#000000" font-family="sans-serif" font-size="14" lengthAdjust="spacing" textLength="44" x="509" y="445.5957">:SignUI</text><rect fill="#E3E3E3" height="29.6406" rx="2.5" ry="2.5" style="stroke:#181818;stroke-width:0.5;" width="108" x="987" y="425.9219"/><text fill="#000000" font-family="sans-serif" font-size="14" lengthAdjust="spacing" textLength="94" x="994" y="445.5957">:SignController</text><rect fill="#E3E3E3" height="45.2813" rx="2.5" ry="2.5" style="stroke:#181818;stroke-width:0.5;" width="123" x="1521.5" y="34.3594"/><text fill="#000000" font-family="sans-serif" font-size="14" lengthAdjust="spacing" textLength="109" x="1528.5" y="54.0332">:clientRepository:</text><text fill="#000000" font-family="sans-serif" font-size="14" lengthAdjust="spacing" textLength="104" x="1531" y="69.6738">ClientRepository</text><rect fill="#E3E3E3" height="45.2813" rx="2.5" ry="2.5" style="stroke:#181818;stroke-width:0.5;" width="123" x="1521.5" y="425.9219"/><text fill="#000000" font-family="sans-serif" font-size="14" lengthAdjust="spacing" textLength="109" x="1528.5" y="445.5957">:clientRepository:</text><text fill="#000000" font-family="sans-serif" font-size="14" lengthAdjust="spacing" textLength="104" x="1531" y="461.2363">ClientRepository</text><rect fill="#FFFFFF" height="318.2813" style="stroke:#181818;stroke-width:1.0;" width="10" x="60" y="90.6406"/><rect fill="#FFFFFF" height="69.1641" style="stroke:#181818;stroke-width:1.0;" width="10" x="526" y="111.1641"/><rect fill="#FFFFFF" height="185.5469" style="stroke:#181818;stroke-width:1.0;" width="10" x="526" y="223.375"/><rect fill="#FFFFFF" height="128.5" style="stroke:#181818;stroke-width:1.0;" width="10" x="1036" y="251.8984"/><rect fill="#FFFFFF" height="71.4531" style="stroke:#181818;stroke-width:1.0;" width="10" x="1578" y="280.4219"/><polygon fill="#181818" points="514,107.1641,524,111.1641,514,115.1641,518,111.1641" style="stroke:#181818;stroke-width:1.0;"/><line style="stroke:#181818;stroke-width:1.0;" x1="70" x2="520" y1="111.1641" y2="111.1641"/><text fill="#000000" font-family="sans-serif" font-size="13" font-weight="bold" lengthAdjust="spacing" textLength="7" x="77" y="106.4092">1</text><text fill="#000000" font-family="sans-serif" font-size="13" lengthAdjust="spacing" textLength="173" x="88" y="106.4092">asks to register in the system</text><polygon fill="#181818" points="975,135.6875,985,139.6875,975,143.6875,979,139.6875" style="stroke:#181818;stroke-width:1.0;"/><line style="stroke:#181818;stroke-width:1.0;" x1="536" x2="981" y1="139.6875" y2="139.6875"/><text fill="#000000" font-family="sans-serif" font-size="13" font-weight="bold" lengthAdjust="spacing" textLength="7" x="543" y="134.9326">2</text><text fill="#000000" font-family="sans-serif" font-size="13" lengthAdjust="spacing" textLength="36" x="554" y="134.9326">create</text><rect fill="#E3E3E3" height="29.6406" rx="2.5" ry="2.5" style="stroke:#181818;stroke-width:0.5;" width="108" x="987" y="119.1641"/><text fill="#000000" font-family="sans-serif" font-size="14" lengthAdjust="spacing" textLength="94" x="994" y="138.8379">:SignController</text><polygon fill="#181818" points="81,176.3281,71,180.3281,81,184.3281,77,180.3281" style="stroke:#181818;stroke-width:1.0;"/><line style="stroke:#181818;stroke-width:1.0;stroke-dasharray:2.0,2.0;" x1="75" x2="530" y1="180.3281" y2="180.3281"/><text fill="#000000" font-family="sans-serif" font-size="13" font-weight="bold" lengthAdjust="spacing" textLength="7" x="87" y="175.5732">3</text><text fill="#000000" font-family="sans-serif" font-size="13" lengthAdjust="spacing" textLength="103" x="98" y="175.5732">request to fill data</text><polygon fill="#181818" points="514,219.375,524,223.375,514,227.375,518,223.375" style="stroke:#181818;stroke-width:1.0;"/><line style="stroke:#181818;stroke-width:1.0;" x1="70" x2="520" y1="223.375" y2="223.375"/><text fill="#000000" font-family="sans-serif" font-size="13" font-weight="bold" lengthAdjust="spacing" textLength="7" x="77" y="211.3584">4</text><text fill="#000000" font-family="sans-serif" font-size="13" lengthAdjust="spacing" textLength="422" x="88" y="204.0967">request data to create a new client ( name, passportNumber, taxNumber,</text><text fill="#000000" font-family="sans-serif" font-size="13" lengthAdjust="spacing" textLength="177" x="92" y="218.6201">address, email, phoneNumber)</text><polygon fill="#181818" points="1024,247.8984,1034,251.8984,1024,255.8984,1028,251.8984" style="stroke:#181818;stroke-width:1.0;"/><line style="stroke:#181818;stroke-width:1.0;" x1="536" x2="1030" y1="251.8984" y2="251.8984"/><text fill="#000000" font-family="sans-serif" font-size="13" font-weight="bold" lengthAdjust="spacing" textLength="7" x="543" y="247.1436">5</text><text fill="#000000" font-family="sans-serif" font-size="13" lengthAdjust="spacing" textLength="470" x="554" y="247.1436">create(name,email,passportNumber,taxNumber,address,phoneNumber,password)</text><polygon fill="#181818" points="1566,276.4219,1576,280.4219,1566,284.4219,1570,280.4219" style="stroke:#181818;stroke-width:1.0;"/><line style="stroke:#181818;stroke-width:1.0;" x1="1046" x2="1572" y1="280.4219" y2="280.4219"/><text fill="#000000" font-family="sans-serif" font-size="13" font-weight="bold" lengthAdjust="spacing" textLength="7" x="1053" y="275.667">6</text><text fill="#000000" font-family="sans-serif" font-size="13" lengthAdjust="spacing" textLength="502" x="1064" y="275.667">create(name,  email,  passportNumber, taxNumber, address, phoneNumber, password)</text><rect fill="none" height="37.9297" style="stroke:#000000;stroke-width:1.5;" width="129" x="1518.5" y="288.4219"/><path d="M1518.5,288.4219 L1580.5,288.4219 L1580.5,294.4219 L1570.5,304.4219 L1518.5,304.4219 L1518.5,288.4219 " fill="#EEEEEE" style="stroke:#000000;stroke-width:2.0;"/><text fill="#000000" font-family="sans-serif" font-size="13" font-weight="bold" lengthAdjust="spacing" textLength="17" x="1531.5" y="302.1904">ref</text><text fill="#000000" font-family="sans-serif" font-size="12" lengthAdjust="spacing" textLength="69" x="1548.5" y="319.2852">Create client</text><polygon fill="#181818" points="1057,347.875,1047,351.875,1057,355.875,1053,351.875" style="stroke:#181818;stroke-width:1.0;"/><line style="stroke:#181818;stroke-width:1.0;stroke-dasharray:2.0,2.0;" x1="1051" x2="1582" y1="351.875" y2="351.875"/><text fill="#000000" font-family="sans-serif" font-size="13" font-weight="bold" lengthAdjust="spacing" textLength="7" x="1063" y="347.1201">7</text><text fill="#000000" font-family="sans-serif" font-size="13" lengthAdjust="spacing" textLength="31" x="1074" y="347.1201">client</text><polygon fill="#181818" points="547,376.3984,537,380.3984,547,384.3984,543,380.3984" style="stroke:#181818;stroke-width:1.0;"/><line style="stroke:#181818;stroke-width:1.0;stroke-dasharray:2.0,2.0;" x1="541" x2="1040" y1="380.3984" y2="380.3984"/><text fill="#000000" font-family="sans-serif" font-size="13" font-weight="bold" lengthAdjust="spacing" textLength="7" x="553" y="375.6436">8</text><text fill="#000000" font-family="sans-serif" font-size="13" lengthAdjust="spacing" textLength="31" x="564" y="375.6436">client</text><polygon fill="#181818" points="76,404.9219,66,408.9219,76,412.9219,72,408.9219" style="stroke:#181818;stroke-width:1.0;"/><line style="stroke:#181818;stroke-width:1.0;stroke-dasharray:2.0,2.0;" x1="70" x2="530" y1="408.9219" y2="408.9219"/><text fill="#000000" font-family="sans-serif" font-size="13" font-weight="bold" lengthAdjust="spacing" textLength="7" x="82" y="404.167">9</text><text fill="#000000" font-family="sans-serif" font-size="13" lengthAdjust="spacing" textLength="158" x="93" y="404.167">displays operation success</text><!--SRC=[VLExSkCm3Epv5HWtbsHyFw0YZIlFU58efouD8i8InnIfa50S__sHb6KzB8UL262n2t3bJygqwB21nXfRrius1Emw4lwMQR4yOKNlVD44Zaf6K-bfWQzHshCo5HnHUn82ExQcQpx92V6dLfBWQ2r_sX-19Li7cy8ugfHdSYIXyEGsW1wAGeI6h4hLec7OPE-gCiM-p-rNSZjhs5cjh_ZTl_omg2gr8iCvjTQhm7p9Fink4UgXXrn4SUeRcQ8G0TTJ5F3tDT135kfE7jZ2e1sK0Qu9_2NScX4ozjcFmNXAHp6ST4xZeNlWYE6Nby3JbysXacvT4_mE7qKM0UpegoFFKUTHQGqI6SLAbwXDB0OSi14J6rpr8XWwGxzAU0A33Ms3AxnlhUEtzCvROFmPFZyCe9IElDy2DQXqgAwjeJx_B1xjQ5p3RGbFYQnlic0S2GUo2KagFbidd-UR-cM9yIJkgE6GpnN0CCXlSz-6dWg11qhcQeBz5Zb7Hx3VmMGhkLt_BlsBB9DaP0IBUxe4FUJ9At7Ix467cTdYZt6_ekIOLVpIgAi-pK0gtsgyUB0jEMHb3VYkBCFwn8fHfzT2_0S0]--></g></svg>