<?xml version="1.0" encoding="us-ascii" standalone="no"?><svg xmlns="http://www.w3.org/2000/svg" xmlns:xlink="http://www.w3.org/1999/xlink" contentStyleType="text/css" height="541px" preserveAspectRatio="none" style="width:699px;height:541px;background:#FFFFFF;" version="1.1" viewBox="0 0 699 541" width="699px" zoomAndPan="magnify"><defs/><g><rect fill="#FFFFFF" height="359.2793" style="stroke:#181818;stroke-width:1.0;" width="10" x="328" y="107.8242"/><rect fill="#FFFFFF" height="262.4063" style="stroke:#181818;stroke-width:1.0;" width="10" x="333" y="166.4063"/><rect fill="#FFFFFF" height="130.873" style="stroke:#181818;stroke-width:1.0;" width="10" x="338" y="253.6484"/><rect fill="#FFFFFF" height="42.291" style="stroke:#181818;stroke-width:1.0;" width="10" x="343" y="297.9395"/><line style="stroke:#181818;stroke-width:0.5;stroke-dasharray:5.0,5.0;" x1="332.5" x2="332.5" y1="57.2422" y2="485.1035"/><line style="stroke:#181818;stroke-width:0.5;stroke-dasharray:5.0,5.0;" x1="667" x2="667" y1="156.9453" y2="485.1035"/><rect fill="#E3E3E3" height="51.2422" rx="2.5" ry="2.5" style="stroke:#181818;stroke-width:0.5;" width="123" x="271.5" y="5"/><text fill="#000000" font-family="sans-serif" font-size="14" lengthAdjust="spacing" textLength="109" x="278.5" y="27.1074">:clientRepository:</text><text fill="#000000" font-family="sans-serif" font-size="14" lengthAdjust="spacing" textLength="104" x="281" y="45.7285">ClientRepository</text><rect fill="#E3E3E3" height="51.2422" rx="2.5" ry="2.5" style="stroke:#181818;stroke-width:0.5;" width="123" x="271.5" y="484.1035"/><text fill="#000000" font-family="sans-serif" font-size="14" lengthAdjust="spacing" textLength="109" x="278.5" y="506.2109">:clientRepository:</text><text fill="#000000" font-family="sans-serif" font-size="14" lengthAdjust="spacing" textLength="104" x="281" y="524.832">ClientRepository</text><rect fill="#E3E3E3" height="51.2422" rx="2.5" ry="2.5" style="stroke:#181818;stroke-width:0.5;" width="51" x="642" y="484.1035"/><text fill="#000000" font-family="sans-serif" font-size="14" lengthAdjust="spacing" textLength="37" x="649" y="506.2109">client:</text><text fill="#000000" font-family="sans-serif" font-size="14" lengthAdjust="spacing" textLength="36" x="649.5" y="524.832">Client</text><rect fill="#FFFFFF" height="359.2793" style="stroke:#181818;stroke-width:1.0;" width="10" x="328" y="107.8242"/><rect fill="#FFFFFF" height="262.4063" style="stroke:#181818;stroke-width:1.0;" width="10" x="333" y="166.4063"/><rect fill="#FFFFFF" height="130.873" style="stroke:#181818;stroke-width:1.0;" width="10" x="338" y="253.6484"/><rect fill="#FFFFFF" height="42.291" style="stroke:#181818;stroke-width:1.0;" width="10" x="343" y="297.9395"/><polygon fill="#181818" points="316,103.8242,326,107.8242,316,111.8242,320,107.8242" style="stroke:#181818;stroke-width:1.0;"/><line style="stroke:#181818;stroke-width:1.0;" x1="0" x2="322" y1="107.8242" y2="107.8242"/><text fill="#000000" font-family="sans-serif" font-size="13" font-weight="bold" lengthAdjust="spacing" textLength="7" x="7" y="93.916">6</text><text fill="#000000" font-family="sans-serif" font-size="13" lengthAdjust="spacing" textLength="294" x="18" y="85.2705">registerClient( name, passportNumber, taxNumber,</text><text fill="#000000" font-family="sans-serif" font-size="13" lengthAdjust="spacing" textLength="177" x="22" y="102.5615">address, email, phoneNumber)</text><polygon fill="#181818" points="630,152.4063,640,156.4063,630,160.4063,634,156.4063" style="stroke:#181818;stroke-width:1.0;"/><line style="stroke:#181818;stroke-width:1.0;" x1="338" x2="636" y1="156.4063" y2="156.4063"/><text fill="#000000" font-family="sans-serif" font-size="13" font-weight="bold" lengthAdjust="spacing" textLength="18" x="345" y="142.498">6.1</text><text fill="#000000" font-family="sans-serif" font-size="13" lengthAdjust="spacing" textLength="254" x="367" y="133.8525">create( name, passportNumber, taxNumber,</text><text fill="#000000" font-family="sans-serif" font-size="13" lengthAdjust="spacing" textLength="177" x="371" y="151.1436">address, email, phoneNumber)</text><rect fill="#E3E3E3" height="51.2422" rx="2.5" ry="2.5" style="stroke:#181818;stroke-width:0.5;" width="51" x="642" y="115.8242"/><text fill="#000000" font-family="sans-serif" font-size="14" lengthAdjust="spacing" textLength="37" x="649" y="137.9316">client:</text><text fill="#000000" font-family="sans-serif" font-size="14" lengthAdjust="spacing" textLength="36" x="649.5" y="156.5527">Client</text><line style="stroke:#181818;stroke-width:1.0;" x1="343" x2="385" y1="201.3574" y2="201.3574"/><line style="stroke:#181818;stroke-width:1.0;" x1="385" x2="385" y1="201.3574" y2="214.3574"/><line style="stroke:#181818;stroke-width:1.0;" x1="344" x2="385" y1="214.3574" y2="214.3574"/><polygon fill="#181818" points="354,210.3574,344,214.3574,354,218.3574,350,214.3574" style="stroke:#181818;stroke-width:1.0;"/><text fill="#000000" font-family="sans-serif" font-size="13" font-weight="bold" lengthAdjust="spacing" textLength="18" x="350" y="196.0947">6.2</text><text fill="#000000" font-family="sans-serif" font-size="13" lengthAdjust="spacing" textLength="147" x="372" y="196.0947">addEmployee (employee)</text><line style="stroke:#181818;stroke-width:1.0;" x1="343" x2="390" y1="240.6484" y2="240.6484"/><line style="stroke:#181818;stroke-width:1.0;" x1="390" x2="390" y1="240.6484" y2="253.6484"/><line style="stroke:#181818;stroke-width:1.0;" x1="349" x2="390" y1="253.6484" y2="253.6484"/><polygon fill="#181818" points="359,249.6484,349,253.6484,359,257.6484,355,253.6484" style="stroke:#181818;stroke-width:1.0;"/><text fill="#000000" font-family="sans-serif" font-size="13" font-weight="bold" lengthAdjust="spacing" textLength="18" x="355" y="235.3857">6.3</text><text fill="#000000" font-family="sans-serif" font-size="13" lengthAdjust="spacing" textLength="115" x="377" y="235.3857">generatePassword()</text><line style="stroke:#181818;stroke-width:1.0;" x1="348" x2="395" y1="284.9395" y2="284.9395"/><line style="stroke:#181818;stroke-width:1.0;" x1="395" x2="395" y1="284.9395" y2="297.9395"/><line style="stroke:#181818;stroke-width:1.0;" x1="354" x2="395" y1="297.9395" y2="297.9395"/><polygon fill="#181818" points="364,293.9395,354,297.9395,364,301.9395,360,297.9395" style="stroke:#181818;stroke-width:1.0;"/><text fill="#000000" font-family="sans-serif" font-size="13" font-weight="bold" lengthAdjust="spacing" textLength="18" x="360" y="279.6768">6.4</text><text fill="#000000" font-family="sans-serif" font-size="13" lengthAdjust="spacing" textLength="165" x="382" y="279.6768">validateEmployee(employee)</text><line style="stroke:#181818;stroke-width:1.0;stroke-dasharray:2.0,2.0;" x1="353" x2="395" y1="339.2305" y2="339.2305"/><line style="stroke:#181818;stroke-width:1.0;stroke-dasharray:2.0,2.0;" x1="395" x2="395" y1="339.2305" y2="352.2305"/><line style="stroke:#181818;stroke-width:1.0;stroke-dasharray:2.0,2.0;" x1="348" x2="395" y1="352.2305" y2="352.2305"/><polygon fill="#181818" points="358,348.2305,348,352.2305,358,356.2305,354,352.2305" style="stroke:#181818;stroke-width:1.0;"/><text fill="#000000" font-family="sans-serif" font-size="13" font-weight="bold" lengthAdjust="spacing" textLength="18" x="360" y="333.9678">6.5</text><text fill="#000000" font-family="sans-serif" font-size="13" lengthAdjust="spacing" textLength="4" x="382" y="333.9678">&#160;</text><line style="stroke:#181818;stroke-width:1.0;stroke-dasharray:2.0,2.0;" x1="348" x2="390" y1="383.5215" y2="383.5215"/><line style="stroke:#181818;stroke-width:1.0;stroke-dasharray:2.0,2.0;" x1="390" x2="390" y1="383.5215" y2="396.5215"/><line style="stroke:#181818;stroke-width:1.0;stroke-dasharray:2.0,2.0;" x1="343" x2="390" y1="396.5215" y2="396.5215"/><polygon fill="#181818" points="353,392.5215,343,396.5215,353,400.5215,349,396.5215" style="stroke:#181818;stroke-width:1.0;"/><text fill="#000000" font-family="sans-serif" font-size="13" font-weight="bold" lengthAdjust="spacing" textLength="18" x="355" y="378.2588">6.6</text><text fill="#000000" font-family="sans-serif" font-size="13" lengthAdjust="spacing" textLength="4" x="377" y="378.2588">&#160;</text><line style="stroke:#181818;stroke-width:1.0;stroke-dasharray:2.0,2.0;" x1="343" x2="385" y1="427.8125" y2="427.8125"/><line style="stroke:#181818;stroke-width:1.0;stroke-dasharray:2.0,2.0;" x1="385" x2="385" y1="427.8125" y2="440.8125"/><line style="stroke:#181818;stroke-width:1.0;stroke-dasharray:2.0,2.0;" x1="338" x2="385" y1="440.8125" y2="440.8125"/><polygon fill="#181818" points="348,436.8125,338,440.8125,348,444.8125,344,440.8125" style="stroke:#181818;stroke-width:1.0;"/><text fill="#000000" font-family="sans-serif" font-size="13" font-weight="bold" lengthAdjust="spacing" textLength="18" x="350" y="422.5498">6.7</text><text fill="#000000" font-family="sans-serif" font-size="13" lengthAdjust="spacing" textLength="4" x="372" y="422.5498">&#160;</text><polygon fill="#181818" points="11,463.1035,1,467.1035,11,471.1035,7,467.1035" style="stroke:#181818;stroke-width:1.0;"/><line style="stroke:#181818;stroke-width:1.0;stroke-dasharray:2.0,2.0;" x1="5" x2="332" y1="467.1035" y2="467.1035"/><text fill="#000000" font-family="sans-serif" font-size="13" font-weight="bold" lengthAdjust="spacing" textLength="7" x="17" y="461.8408">7</text><text fill="#000000" font-family="sans-serif" font-size="13" lengthAdjust="spacing" textLength="31" x="28" y="461.8408">client</text><!--SRC=[jPDDQy8m6CVl-HGFNgPI1xjiKCOkieCmnd0UlJmsZsqmoLEI-FRj5ssLgbjN6Cif9F-NNqBYLygMwD20OSjPuTWG1BScuSyx9MOhpEapx3M1eooWpNLJu0kKl5KsXoLgJqBWEh1TcmKvU1JYhb2IOCaS5hmJqH9Kfagq0NfffXNPCAMIlGhizkdSZg-MUe0Unc_JIsTbFCjhqMGc15oFqSl13cbapvKFv2fB7omQIkBnl2_PXVSZS081TwVft09AwSZx1CYWqb5TiALgVt1RLG_CWjfWe2FsjQfvEVSFjxm7rYFoP3OSff0vYad_0DiAUKipJG_nhwRKl2U2FjMpGJTlJfPSRFk81zYoa_qMtmLPb_0DQYMZuKJNWFjJnxcdAlfH9waxSajKXvYsY7PxuzazYU_l_daqgdzAzRj-Qn1V]--></g></svg>