<?xml version="1.0" encoding="us-ascii" standalone="no"?><svg xmlns="http://www.w3.org/2000/svg" xmlns:xlink="http://www.w3.org/1999/xlink" contentStyleType="text/css" height="769px" preserveAspectRatio="none" style="width:1981px;height:769px;background:#FFFFFF;" version="1.1" viewBox="0 0 1981 769" width="1981px" zoomAndPan="magnify"><defs/><g><rect fill="#FFFFFF" height="580.7734" style="stroke:#181818;stroke-width:1.0;" width="10" x="60" y="90.6406"/><rect fill="#FFFFFF" height="69.1641" style="stroke:#181818;stroke-width:1.0;" width="10" x="526" y="111.1641"/><rect fill="#FFFFFF" height="448.0391" style="stroke:#181818;stroke-width:1.0;" width="10" x="526" y="223.375"/><rect fill="#FFFFFF" height="390.9922" style="stroke:#181818;stroke-width:1.0;" width="10" x="1068" y="251.8984"/><rect fill="#FFFFFF" height="333.9453" style="stroke:#181818;stroke-width:1.0;" width="10" x="1610" y="280.4219"/><rect fill="#FFFFFF" height="245.375" style="stroke:#181818;stroke-width:1.0;" width="10" x="1615" y="333.4688"/><rect fill="#FFFFFF" height="122.5703" style="stroke:#181818;stroke-width:1.0;" width="10" x="1620" y="414.75"/><rect fill="#FFFFFF" height="39.5234" style="stroke:#181818;stroke-width:1.0;" width="10" x="1625" y="456.2734"/><line style="stroke:#181818;stroke-width:0.5;stroke-dasharray:5.0,5.0;" x1="65" x2="65" y1="80.6406" y2="689.4141"/><line style="stroke:#181818;stroke-width:0.5;stroke-dasharray:5.0,5.0;" x1="531" x2="531" y1="80.6406" y2="689.4141"/><line style="stroke:#181818;stroke-width:0.5;stroke-dasharray:5.0,5.0;" x1="1073" x2="1073" y1="149.4844" y2="689.4141"/><line style="stroke:#181818;stroke-width:0.5;stroke-dasharray:5.0,5.0;" x1="1614.5" x2="1614.5" y1="80.6406" y2="689.4141"/><line style="stroke:#181818;stroke-width:0.5;stroke-dasharray:5.0,5.0;" x1="1949" x2="1949" y1="326.5625" y2="689.4141"/><text fill="#000000" font-family="sans-serif" font-size="14" lengthAdjust="spacing" textLength="114" x="5" y="77.6738">Unregistered User</text><ellipse cx="65" cy="13.5" fill="#E3E3E3" rx="8" ry="8" style="stroke:#181818;stroke-width:0.5;"/><path d="M65,21.5 L65,48.5 M52,29.5 L78,29.5 M65,48.5 L52,63.5 M65,48.5 L78,63.5 " fill="none" style="stroke:#181818;stroke-width:0.5;"/><text fill="#000000" font-family="sans-serif" font-size="14" lengthAdjust="spacing" textLength="114" x="5" y="701.0879">Unregistered User</text><ellipse cx="65" cy="712.5547" fill="#E3E3E3" rx="8" ry="8" style="stroke:#181818;stroke-width:0.5;"/><path d="M65,720.5547 L65,747.5547 M52,728.5547 L78,728.5547 M65,747.5547 L52,762.5547 M65,747.5547 L78,762.5547 " fill="none" style="stroke:#181818;stroke-width:0.5;"/><rect fill="#E3E3E3" height="29.6406" rx="2.5" ry="2.5" style="stroke:#181818;stroke-width:0.5;" width="58" x="502" y="50"/><text fill="#000000" font-family="sans-serif" font-size="14" lengthAdjust="spacing" textLength="44" x="509" y="69.6738">:SignUI</text><rect fill="#E3E3E3" height="29.6406" rx="2.5" ry="2.5" style="stroke:#181818;stroke-width:0.5;" width="58" x="502" y="688.4141"/><text fill="#000000" font-family="sans-serif" font-size="14" lengthAdjust="spacing" textLength="44" x="509" y="708.0879">:SignUI</text><rect fill="#E3E3E3" height="29.6406" rx="2.5" ry="2.5" style="stroke:#181818;stroke-width:0.5;" width="108" x="1019" y="688.4141"/><text fill="#000000" font-family="sans-serif" font-size="14" lengthAdjust="spacing" textLength="94" x="1026" y="708.0879">:SignController</text><rect fill="#E3E3E3" height="45.2813" rx="2.5" ry="2.5" style="stroke:#181818;stroke-width:0.5;" width="123" x="1553.5" y="34.3594"/><text fill="#000000" font-family="sans-serif" font-size="14" lengthAdjust="spacing" textLength="109" x="1560.5" y="54.0332">:clientRepository:</text><text fill="#000000" font-family="sans-serif" font-size="14" lengthAdjust="spacing" textLength="104" x="1563" y="69.6738">ClientRepository</text><rect fill="#E3E3E3" height="45.2813" rx="2.5" ry="2.5" style="stroke:#181818;stroke-width:0.5;" width="123" x="1553.5" y="688.4141"/><text fill="#000000" font-family="sans-serif" font-size="14" lengthAdjust="spacing" textLength="109" x="1560.5" y="708.0879">:clientRepository:</text><text fill="#000000" font-family="sans-serif" font-size="14" lengthAdjust="spacing" textLength="104" x="1563" y="723.7285">ClientRepository</text><rect fill="#E3E3E3" height="45.2813" rx="2.5" ry="2.5" style="stroke:#181818;stroke-width:0.5;" width="51" x="1924" y="688.4141"/><text fill="#000000" font-family="sans-serif" font-size="14" lengthAdjust="spacing" textLength="37" x="1931" y="708.0879">client:</text><text fill="#000000" font-family="sans-serif" font-size="14" lengthAdjust="spacing" textLength="36" x="1931.5" y="723.7285">Client</text><rect fill="#FFFFFF" height="580.7734" style="stroke:#181818;stroke-width:1.0;" width="10" x="60" y="90.6406"/><rect fill="#FFFFFF" height="69.1641" style="stroke:#181818;stroke-width:1.0;" width="10" x="526" y="111.1641"/><rect fill="#FFFFFF" height="448.0391" style="stroke:#181818;stroke-width:1.0;" width="10" x="526" y="223.375"/><rect fill="#FFFFFF" height="390.9922" style="stroke:#181818;stroke-width:1.0;" width="10" x="1068" y="251.8984"/><rect fill="#FFFFFF" height="333.9453" style="stroke:#181818;stroke-width:1.0;" width="10" x="1610" y="280.4219"/><rect fill="#FFFFFF" height="245.375" style="stroke:#181818;stroke-width:1.0;" width="10" x="1615" y="333.4688"/><rect fill="#FFFFFF" height="122.5703" style="stroke:#181818;stroke-width:1.0;" width="10" x="1620" y="414.75"/><rect fill="#FFFFFF" height="39.5234" style="stroke:#181818;stroke-width:1.0;" width="10" x="1625" y="456.2734"/><polygon fill="#181818" points="514,107.1641,524,111.1641,514,115.1641,518,111.1641" style="stroke:#181818;stroke-width:1.0;"/><line style="stroke:#181818;stroke-width:1.0;" x1="70" x2="520" y1="111.1641" y2="111.1641"/><text fill="#000000" font-family="sans-serif" font-size="13" font-weight="bold" lengthAdjust="spacing" textLength="7" x="77" y="106.4092">1</text><text fill="#000000" font-family="sans-serif" font-size="13" lengthAdjust="spacing" textLength="173" x="88" y="106.4092">asks to register in the system</text><polygon fill="#181818" points="1007,135.6875,1017,139.6875,1007,143.6875,1011,139.6875" style="stroke:#181818;stroke-width:1.0;"/><line style="stroke:#181818;stroke-width:1.0;" x1="536" x2="1013" y1="139.6875" y2="139.6875"/><text fill="#000000" font-family="sans-serif" font-size="13" font-weight="bold" lengthAdjust="spacing" textLength="7" x="543" y="134.9326">2</text><text fill="#000000" font-family="sans-serif" font-size="13" lengthAdjust="spacing" textLength="36" x="554" y="134.9326">create</text><rect fill="#E3E3E3" height="29.6406" rx="2.5" ry="2.5" style="stroke:#181818;stroke-width:0.5;" width="108" x="1019" y="119.1641"/><text fill="#000000" font-family="sans-serif" font-size="14" lengthAdjust="spacing" textLength="94" x="1026" y="138.8379">:SignController</text><polygon fill="#181818" points="81,176.3281,71,180.3281,81,184.3281,77,180.3281" style="stroke:#181818;stroke-width:1.0;"/><line style="stroke:#181818;stroke-width:1.0;stroke-dasharray:2.0,2.0;" x1="75" x2="530" y1="180.3281" y2="180.3281"/><text fill="#000000" font-family="sans-serif" font-size="13" font-weight="bold" lengthAdjust="spacing" textLength="7" x="87" y="175.5732">3</text><text fill="#000000" font-family="sans-serif" font-size="13" lengthAdjust="spacing" textLength="103" x="98" y="175.5732">request to fill data</text><polygon fill="#181818" points="514,219.375,524,223.375,514,227.375,518,223.375" style="stroke:#181818;stroke-width:1.0;"/><line style="stroke:#181818;stroke-width:1.0;" x1="70" x2="520" y1="223.375" y2="223.375"/><text fill="#000000" font-family="sans-serif" font-size="13" font-weight="bold" lengthAdjust="spacing" textLength="7" x="77" y="211.3584">4</text><text fill="#000000" font-family="sans-serif" font-size="13" lengthAdjust="spacing" textLength="422" x="88" y="204.0967">request data to create a new client ( name, passportNumber, taxNumber,</text><text fill="#000000" font-family="sans-serif" font-size="13" lengthAdjust="spacing" textLength="177" x="92" y="218.6201">address, email, phoneNumber)</text><polygon fill="#181818" points="1056,247.8984,1066,251.8984,1056,255.8984,1060,251.8984" style="stroke:#181818;stroke-width:1.0;"/><line style="stroke:#181818;stroke-width:1.0;" x1="536" x2="1062" y1="251.8984" y2="251.8984"/><text fill="#000000" font-family="sans-serif" font-size="13" font-weight="bold" lengthAdjust="spacing" textLength="7" x="543" y="247.1436">5</text><text fill="#000000" font-family="sans-serif" font-size="13" lengthAdjust="spacing" textLength="502" x="554" y="247.1436">create(name,  email,  passportNumber, taxNumber, address, phoneNumber, password)</text><polygon fill="#181818" points="1598,276.4219,1608,280.4219,1598,284.4219,1602,280.4219" style="stroke:#181818;stroke-width:1.0;"/><line style="stroke:#181818;stroke-width:1.0;" x1="1078" x2="1604" y1="280.4219" y2="280.4219"/><text fill="#000000" font-family="sans-serif" font-size="13" font-weight="bold" lengthAdjust="spacing" textLength="7" x="1085" y="275.667">6</text><text fill="#000000" font-family="sans-serif" font-size="13" lengthAdjust="spacing" textLength="502" x="1096" y="275.667">create(name,  email,  passportNumber, taxNumber, address, phoneNumber, password)</text><polygon fill="#181818" points="1912,319.4688,1922,323.4688,1912,327.4688,1916,323.4688" style="stroke:#181818;stroke-width:1.0;"/><line style="stroke:#181818;stroke-width:1.0;" x1="1620" x2="1918" y1="323.4688" y2="323.4688"/><text fill="#000000" font-family="sans-serif" font-size="13" font-weight="bold" lengthAdjust="spacing" textLength="18" x="1627" y="311.4521">6.1</text><text fill="#000000" font-family="sans-serif" font-size="13" lengthAdjust="spacing" textLength="254" x="1649" y="304.1904">create( name, passportNumber, taxNumber,</text><text fill="#000000" font-family="sans-serif" font-size="13" lengthAdjust="spacing" textLength="177" x="1653" y="318.7139">address, email, phoneNumber)</text><rect fill="#E3E3E3" height="45.2813" rx="2.5" ry="2.5" style="stroke:#181818;stroke-width:0.5;" width="51" x="1924" y="288.4219"/><text fill="#000000" font-family="sans-serif" font-size="14" lengthAdjust="spacing" textLength="37" x="1931" y="308.0957">client:</text><text fill="#000000" font-family="sans-serif" font-size="14" lengthAdjust="spacing" textLength="36" x="1931.5" y="323.7363">Client</text><line style="stroke:#181818;stroke-width:1.0;" x1="1625" x2="1667" y1="365.2266" y2="365.2266"/><line style="stroke:#181818;stroke-width:1.0;" x1="1667" x2="1667" y1="365.2266" y2="378.2266"/><line style="stroke:#181818;stroke-width:1.0;" x1="1626" x2="1667" y1="378.2266" y2="378.2266"/><polygon fill="#181818" points="1636,374.2266,1626,378.2266,1636,382.2266,1632,378.2266" style="stroke:#181818;stroke-width:1.0;"/><text fill="#000000" font-family="sans-serif" font-size="13" font-weight="bold" lengthAdjust="spacing" textLength="18" x="1632" y="360.4717">6.2</text><text fill="#000000" font-family="sans-serif" font-size="13" lengthAdjust="spacing" textLength="147" x="1654" y="360.4717">addEmployee (employee)</text><line style="stroke:#181818;stroke-width:1.0;" x1="1625" x2="1672" y1="401.75" y2="401.75"/><line style="stroke:#181818;stroke-width:1.0;" x1="1672" x2="1672" y1="401.75" y2="414.75"/><line style="stroke:#181818;stroke-width:1.0;" x1="1631" x2="1672" y1="414.75" y2="414.75"/><polygon fill="#181818" points="1641,410.75,1631,414.75,1641,418.75,1637,414.75" style="stroke:#181818;stroke-width:1.0;"/><text fill="#000000" font-family="sans-serif" font-size="13" font-weight="bold" lengthAdjust="spacing" textLength="18" x="1637" y="396.9951">6.3</text><text fill="#000000" font-family="sans-serif" font-size="13" lengthAdjust="spacing" textLength="115" x="1659" y="396.9951">generatePassword()</text><line style="stroke:#181818;stroke-width:1.0;" x1="1630" x2="1677" y1="443.2734" y2="443.2734"/><line style="stroke:#181818;stroke-width:1.0;" x1="1677" x2="1677" y1="443.2734" y2="456.2734"/><line style="stroke:#181818;stroke-width:1.0;" x1="1636" x2="1677" y1="456.2734" y2="456.2734"/><polygon fill="#181818" points="1646,452.2734,1636,456.2734,1646,460.2734,1642,456.2734" style="stroke:#181818;stroke-width:1.0;"/><text fill="#000000" font-family="sans-serif" font-size="13" font-weight="bold" lengthAdjust="spacing" textLength="18" x="1642" y="438.5186">6.4</text><text fill="#000000" font-family="sans-serif" font-size="13" lengthAdjust="spacing" textLength="165" x="1664" y="438.5186">validateEmployee(employee)</text><line style="stroke:#181818;stroke-width:1.0;stroke-dasharray:2.0,2.0;" x1="1635" x2="1677" y1="494.7969" y2="494.7969"/><line style="stroke:#181818;stroke-width:1.0;stroke-dasharray:2.0,2.0;" x1="1677" x2="1677" y1="494.7969" y2="507.7969"/><line style="stroke:#181818;stroke-width:1.0;stroke-dasharray:2.0,2.0;" x1="1630" x2="1677" y1="507.7969" y2="507.7969"/><polygon fill="#181818" points="1640,503.7969,1630,507.7969,1640,511.7969,1636,507.7969" style="stroke:#181818;stroke-width:1.0;"/><text fill="#000000" font-family="sans-serif" font-size="13" font-weight="bold" lengthAdjust="spacing" textLength="18" x="1642" y="490.042">6.5</text><text fill="#000000" font-family="sans-serif" font-size="13" lengthAdjust="spacing" textLength="4" x="1664" y="490.042">&#160;</text><line style="stroke:#181818;stroke-width:1.0;stroke-dasharray:2.0,2.0;" x1="1630" x2="1672" y1="536.3203" y2="536.3203"/><line style="stroke:#181818;stroke-width:1.0;stroke-dasharray:2.0,2.0;" x1="1672" x2="1672" y1="536.3203" y2="549.3203"/><line style="stroke:#181818;stroke-width:1.0;stroke-dasharray:2.0,2.0;" x1="1625" x2="1672" y1="549.3203" y2="549.3203"/><polygon fill="#181818" points="1635,545.3203,1625,549.3203,1635,553.3203,1631,549.3203" style="stroke:#181818;stroke-width:1.0;"/><text fill="#000000" font-family="sans-serif" font-size="13" font-weight="bold" lengthAdjust="spacing" textLength="18" x="1637" y="531.5654">6.6</text><text fill="#000000" font-family="sans-serif" font-size="13" lengthAdjust="spacing" textLength="4" x="1659" y="531.5654">&#160;</text><line style="stroke:#181818;stroke-width:1.0;stroke-dasharray:2.0,2.0;" x1="1625" x2="1667" y1="577.8438" y2="577.8438"/><line style="stroke:#181818;stroke-width:1.0;stroke-dasharray:2.0,2.0;" x1="1667" x2="1667" y1="577.8438" y2="590.8438"/><line style="stroke:#181818;stroke-width:1.0;stroke-dasharray:2.0,2.0;" x1="1620" x2="1667" y1="590.8438" y2="590.8438"/><polygon fill="#181818" points="1630,586.8438,1620,590.8438,1630,594.8438,1626,590.8438" style="stroke:#181818;stroke-width:1.0;"/><text fill="#000000" font-family="sans-serif" font-size="13" font-weight="bold" lengthAdjust="spacing" textLength="18" x="1632" y="573.0889">6.7</text><text fill="#000000" font-family="sans-serif" font-size="13" lengthAdjust="spacing" textLength="4" x="1654" y="573.0889">&#160;</text><polygon fill="#181818" points="1089,610.3672,1079,614.3672,1089,618.3672,1085,614.3672" style="stroke:#181818;stroke-width:1.0;"/><line style="stroke:#181818;stroke-width:1.0;stroke-dasharray:2.0,2.0;" x1="1083" x2="1614" y1="614.3672" y2="614.3672"/><text fill="#000000" font-family="sans-serif" font-size="13" font-weight="bold" lengthAdjust="spacing" textLength="7" x="1095" y="609.6123">7</text><text fill="#000000" font-family="sans-serif" font-size="13" lengthAdjust="spacing" textLength="31" x="1106" y="609.6123">client</text><polygon fill="#181818" points="547,638.8906,537,642.8906,547,646.8906,543,642.8906" style="stroke:#181818;stroke-width:1.0;"/><line style="stroke:#181818;stroke-width:1.0;stroke-dasharray:2.0,2.0;" x1="541" x2="1072" y1="642.8906" y2="642.8906"/><text fill="#000000" font-family="sans-serif" font-size="13" font-weight="bold" lengthAdjust="spacing" textLength="7" x="553" y="638.1357">8</text><text fill="#000000" font-family="sans-serif" font-size="13" lengthAdjust="spacing" textLength="31" x="564" y="638.1357">client</text><polygon fill="#181818" points="76,667.4141,66,671.4141,76,675.4141,72,671.4141" style="stroke:#181818;stroke-width:1.0;"/><line style="stroke:#181818;stroke-width:1.0;stroke-dasharray:2.0,2.0;" x1="70" x2="530" y1="671.4141" y2="671.4141"/><text fill="#000000" font-family="sans-serif" font-size="13" font-weight="bold" lengthAdjust="spacing" textLength="7" x="82" y="666.6592">9</text><text fill="#000000" font-family="sans-serif" font-size="13" lengthAdjust="spacing" textLength="158" x="93" y="666.6592">displays operation success</text><!--SRC=[jLHBZvim4BxxLunoQHAbbNff9GwzH3qWHLN5XjjUPc42LenDRRFP_FlQuHaMs5KVFXdFV8yPnZPdBalKM42Xf4fohGe2gojYfekKc9mnemTx5GIQ4eio4yC4asEgBbncS49XY36ih99LyKIQiGyvJmbEIjadzS8miKh3AfQQCcuiQKeXDgHNW0RYc3b2onDUehIm2Xvu9kEmZeKJiRsILYiX6lp-61r6MOdW96r4fJBSAL-3HxaV7TNGGtIFh85TUfCK7falWJ-Z9M-NGRFY63v-SoOXS8bd0rP1Mo5m2JOdC5VtLVIGdYVi3_rADFdZMpN3SyVkDFpnTkjqwhHxQ4eTwmt-2kzDnWwiwLT5ndgV9ou4f6YHJR1uRsnKO8lr64_G-4MGT86wRx06YGNjtEmOKofjVzocOGSMNzhjemHCKqt6x80AvC9bvqfI7T-mkHxrRUYQiAx5MfebrKvoe5NRl2YTRjXzonQwwTVDX3TpYFw75PXPlIitjUDOT_NWowVF4vOFKUquF6wtdUb_yxTcFSvMqhbn_NFqtujIg2iHhAdPRTw7pKYITce_c-Qj_x1xa-JFABYRTMhT3SpzbKQdKmlDvWqlzLkM5wZUGRD4iGmVZDrNnfR9tQK9cdVYBHNs-hRTNg59_FZnctpx0aYvAGLU3QZIpmnN4aoL96wosSJZD_oCsMy0]--></g></svg>