<?xml version="1.0" encoding="us-ascii" standalone="no"?><svg xmlns="http://www.w3.org/2000/svg" xmlns:xlink="http://www.w3.org/1999/xlink" contentStyleType="text/css" height="860px" preserveAspectRatio="none" style="width:1573px;height:860px;background:#FFFFFF;" version="1.1" viewBox="0 0 1573 860" width="1573px" zoomAndPan="magnify"><defs/><g><rect fill="#FFFFFF" height="665.8105" style="stroke:#181818;stroke-width:1.0;" width="10" x="60" y="93.6211"/><rect fill="#FFFFFF" height="74.9121" style="stroke:#181818;stroke-width:1.0;" width="10" x="526" y="116.9121"/><rect fill="#FFFFFF" height="519.0254" style="stroke:#181818;stroke-width:1.0;" width="10" x="526" y="240.4063"/><rect fill="#FFFFFF" height="439.1523" style="stroke:#181818;stroke-width:1.0;" width="10" x="864" y="288.9883"/><rect fill="#FFFFFF" height="359.2793" style="stroke:#181818;stroke-width:1.0;" width="10" x="1202" y="337.5703"/><rect fill="#FFFFFF" height="262.4063" style="stroke:#181818;stroke-width:1.0;" width="10" x="1207" y="396.1523"/><rect fill="#FFFFFF" height="130.873" style="stroke:#181818;stroke-width:1.0;" width="10" x="1212" y="483.3945"/><rect fill="#FFFFFF" height="42.291" style="stroke:#181818;stroke-width:1.0;" width="10" x="1217" y="527.6855"/><line style="stroke:#181818;stroke-width:0.5;stroke-dasharray:5.0,5.0;" x1="65" x2="65" y1="83.6211" y2="777.4316"/><line style="stroke:#181818;stroke-width:0.5;stroke-dasharray:5.0,5.0;" x1="531" x2="531" y1="83.6211" y2="777.4316"/><line style="stroke:#181818;stroke-width:0.5;stroke-dasharray:5.0,5.0;" x1="869" x2="869" y1="156.7227" y2="777.4316"/><line style="stroke:#181818;stroke-width:0.5;stroke-dasharray:5.0,5.0;" x1="1206.5" x2="1206.5" y1="83.6211" y2="777.4316"/><line style="stroke:#181818;stroke-width:0.5;stroke-dasharray:5.0,5.0;" x1="1541" x2="1541" y1="386.6914" y2="777.4316"/><text fill="#000000" font-family="sans-serif" font-size="14" lengthAdjust="spacing" textLength="114" x="5" y="80.1074">Unregistered User</text><ellipse cx="65" cy="13.5" fill="#E3E3E3" rx="8" ry="8" style="stroke:#181818;stroke-width:0.5;"/><path d="M65,21.5 L65,48.5 M52,29.5 L78,29.5 M65,48.5 L52,63.5 M65,48.5 L78,63.5 " fill="none" style="stroke:#181818;stroke-width:0.5;"/><text fill="#000000" font-family="sans-serif" font-size="14" lengthAdjust="spacing" textLength="114" x="5" y="791.5391">Unregistered User</text><ellipse cx="65" cy="803.5527" fill="#E3E3E3" rx="8" ry="8" style="stroke:#181818;stroke-width:0.5;"/><path d="M65,811.5527 L65,838.5527 M52,819.5527 L78,819.5527 M65,838.5527 L52,853.5527 M65,838.5527 L78,853.5527 " fill="none" style="stroke:#181818;stroke-width:0.5;"/><rect fill="#E3E3E3" height="32.6211" rx="2.5" ry="2.5" style="stroke:#181818;stroke-width:0.5;" width="58" x="502" y="50"/><text fill="#000000" font-family="sans-serif" font-size="14" lengthAdjust="spacing" textLength="44" x="509" y="72.1074">:SignUI</text><rect fill="#E3E3E3" height="32.6211" rx="2.5" ry="2.5" style="stroke:#181818;stroke-width:0.5;" width="58" x="502" y="776.4316"/><text fill="#000000" font-family="sans-serif" font-size="14" lengthAdjust="spacing" textLength="44" x="509" y="798.5391">:SignUI</text><rect fill="#E3E3E3" height="32.6211" rx="2.5" ry="2.5" style="stroke:#181818;stroke-width:0.5;" width="108" x="815" y="776.4316"/><text fill="#000000" font-family="sans-serif" font-size="14" lengthAdjust="spacing" textLength="94" x="822" y="798.5391">:SignController</text><rect fill="#E3E3E3" height="51.2422" rx="2.5" ry="2.5" style="stroke:#181818;stroke-width:0.5;" width="123" x="1145.5" y="31.3789"/><text fill="#000000" font-family="sans-serif" font-size="14" lengthAdjust="spacing" textLength="109" x="1152.5" y="53.4863">:clientRepository:</text><text fill="#000000" font-family="sans-serif" font-size="14" lengthAdjust="spacing" textLength="104" x="1155" y="72.1074">ClientRepository</text><rect fill="#E3E3E3" height="51.2422" rx="2.5" ry="2.5" style="stroke:#181818;stroke-width:0.5;" width="123" x="1145.5" y="776.4316"/><text fill="#000000" font-family="sans-serif" font-size="14" lengthAdjust="spacing" textLength="109" x="1152.5" y="798.5391">:clientRepository:</text><text fill="#000000" font-family="sans-serif" font-size="14" lengthAdjust="spacing" textLength="104" x="1155" y="817.1602">ClientRepository</text><rect fill="#E3E3E3" height="51.2422" rx="2.5" ry="2.5" style="stroke:#181818;stroke-width:0.5;" width="51" x="1516" y="776.4316"/><text fill="#000000" font-family="sans-serif" font-size="14" lengthAdjust="spacing" textLength="37" x="1523" y="798.5391">client:</text><text fill="#000000" font-family="sans-serif" font-size="14" lengthAdjust="spacing" textLength="36" x="1523.5" y="817.1602">Client</text><rect fill="#FFFFFF" height="665.8105" style="stroke:#181818;stroke-width:1.0;" width="10" x="60" y="93.6211"/><rect fill="#FFFFFF" height="74.9121" style="stroke:#181818;stroke-width:1.0;" width="10" x="526" y="116.9121"/><rect fill="#FFFFFF" height="519.0254" style="stroke:#181818;stroke-width:1.0;" width="10" x="526" y="240.4063"/><rect fill="#FFFFFF" height="439.1523" style="stroke:#181818;stroke-width:1.0;" width="10" x="864" y="288.9883"/><rect fill="#FFFFFF" height="359.2793" style="stroke:#181818;stroke-width:1.0;" width="10" x="1202" y="337.5703"/><rect fill="#FFFFFF" height="262.4063" style="stroke:#181818;stroke-width:1.0;" width="10" x="1207" y="396.1523"/><rect fill="#FFFFFF" height="130.873" style="stroke:#181818;stroke-width:1.0;" width="10" x="1212" y="483.3945"/><rect fill="#FFFFFF" height="42.291" style="stroke:#181818;stroke-width:1.0;" width="10" x="1217" y="527.6855"/><polygon fill="#181818" points="514,112.9121,524,116.9121,514,120.9121,518,116.9121" style="stroke:#181818;stroke-width:1.0;"/><line style="stroke:#181818;stroke-width:1.0;" x1="70" x2="520" y1="116.9121" y2="116.9121"/><text fill="#000000" font-family="sans-serif" font-size="13" font-weight="bold" lengthAdjust="spacing" textLength="7" x="77" y="111.6494">1</text><text fill="#000000" font-family="sans-serif" font-size="13" lengthAdjust="spacing" textLength="173" x="88" y="111.6494">asks to register in the system</text><polygon fill="#181818" points="803,144.2031,813,148.2031,803,152.2031,807,148.2031" style="stroke:#181818;stroke-width:1.0;"/><line style="stroke:#181818;stroke-width:1.0;" x1="536" x2="809" y1="148.2031" y2="148.2031"/><text fill="#000000" font-family="sans-serif" font-size="13" font-weight="bold" lengthAdjust="spacing" textLength="7" x="543" y="142.9404">2</text><text fill="#000000" font-family="sans-serif" font-size="13" lengthAdjust="spacing" textLength="36" x="554" y="142.9404">create</text><rect fill="#E3E3E3" height="32.6211" rx="2.5" ry="2.5" style="stroke:#181818;stroke-width:0.5;" width="108" x="815" y="124.9121"/><text fill="#000000" font-family="sans-serif" font-size="14" lengthAdjust="spacing" textLength="94" x="822" y="147.0195">:SignController</text><polygon fill="#181818" points="81,187.8242,71,191.8242,81,195.8242,77,191.8242" style="stroke:#181818;stroke-width:1.0;"/><line style="stroke:#181818;stroke-width:1.0;stroke-dasharray:2.0,2.0;" x1="75" x2="530" y1="191.8242" y2="191.8242"/><text fill="#000000" font-family="sans-serif" font-size="13" font-weight="bold" lengthAdjust="spacing" textLength="7" x="87" y="186.5615">3</text><text fill="#000000" font-family="sans-serif" font-size="13" lengthAdjust="spacing" textLength="103" x="98" y="186.5615">request to fill data</text><polygon fill="#181818" points="514,236.4063,524,240.4063,514,244.4063,518,240.4063" style="stroke:#181818;stroke-width:1.0;"/><line style="stroke:#181818;stroke-width:1.0;" x1="70" x2="520" y1="240.4063" y2="240.4063"/><text fill="#000000" font-family="sans-serif" font-size="13" font-weight="bold" lengthAdjust="spacing" textLength="7" x="77" y="226.498">4</text><text fill="#000000" font-family="sans-serif" font-size="13" lengthAdjust="spacing" textLength="422" x="88" y="217.8525">request data to create a new client ( name, passportNumber, taxNumber,</text><text fill="#000000" font-family="sans-serif" font-size="13" lengthAdjust="spacing" textLength="177" x="92" y="235.1436">address, email, phoneNumber)</text><polygon fill="#181818" points="852,284.9883,862,288.9883,852,292.9883,856,288.9883" style="stroke:#181818;stroke-width:1.0;"/><line style="stroke:#181818;stroke-width:1.0;" x1="536" x2="858" y1="288.9883" y2="288.9883"/><text fill="#000000" font-family="sans-serif" font-size="13" font-weight="bold" lengthAdjust="spacing" textLength="7" x="543" y="275.0801">5</text><text fill="#000000" font-family="sans-serif" font-size="13" lengthAdjust="spacing" textLength="294" x="554" y="266.4346">registerClient( name, passportNumber, taxNumber,</text><text fill="#000000" font-family="sans-serif" font-size="13" lengthAdjust="spacing" textLength="177" x="558" y="283.7256">address, email, phoneNumber)</text><polygon fill="#181818" points="1190,333.5703,1200,337.5703,1190,341.5703,1194,337.5703" style="stroke:#181818;stroke-width:1.0;"/><line style="stroke:#181818;stroke-width:1.0;" x1="874" x2="1196" y1="337.5703" y2="337.5703"/><text fill="#000000" font-family="sans-serif" font-size="13" font-weight="bold" lengthAdjust="spacing" textLength="7" x="881" y="323.6621">6</text><text fill="#000000" font-family="sans-serif" font-size="13" lengthAdjust="spacing" textLength="294" x="892" y="315.0166">registerClient( name, passportNumber, taxNumber,</text><text fill="#000000" font-family="sans-serif" font-size="13" lengthAdjust="spacing" textLength="177" x="896" y="332.3076">address, email, phoneNumber)</text><polygon fill="#181818" points="1504,382.1523,1514,386.1523,1504,390.1523,1508,386.1523" style="stroke:#181818;stroke-width:1.0;"/><line style="stroke:#181818;stroke-width:1.0;" x1="1212" x2="1510" y1="386.1523" y2="386.1523"/><text fill="#000000" font-family="sans-serif" font-size="13" font-weight="bold" lengthAdjust="spacing" textLength="18" x="1219" y="372.2441">6.1</text><text fill="#000000" font-family="sans-serif" font-size="13" lengthAdjust="spacing" textLength="254" x="1241" y="363.5986">create( name, passportNumber, taxNumber,</text><text fill="#000000" font-family="sans-serif" font-size="13" lengthAdjust="spacing" textLength="177" x="1245" y="380.8896">address, email, phoneNumber)</text><rect fill="#E3E3E3" height="51.2422" rx="2.5" ry="2.5" style="stroke:#181818;stroke-width:0.5;" width="51" x="1516" y="345.5703"/><text fill="#000000" font-family="sans-serif" font-size="14" lengthAdjust="spacing" textLength="37" x="1523" y="367.6777">client:</text><text fill="#000000" font-family="sans-serif" font-size="14" lengthAdjust="spacing" textLength="36" x="1523.5" y="386.2988">Client</text><line style="stroke:#181818;stroke-width:1.0;" x1="1217" x2="1259" y1="431.1035" y2="431.1035"/><line style="stroke:#181818;stroke-width:1.0;" x1="1259" x2="1259" y1="431.1035" y2="444.1035"/><line style="stroke:#181818;stroke-width:1.0;" x1="1218" x2="1259" y1="444.1035" y2="444.1035"/><polygon fill="#181818" points="1228,440.1035,1218,444.1035,1228,448.1035,1224,444.1035" style="stroke:#181818;stroke-width:1.0;"/><text fill="#000000" font-family="sans-serif" font-size="13" font-weight="bold" lengthAdjust="spacing" textLength="18" x="1224" y="425.8408">6.2</text><text fill="#000000" font-family="sans-serif" font-size="13" lengthAdjust="spacing" textLength="147" x="1246" y="425.8408">addEmployee (employee)</text><line style="stroke:#181818;stroke-width:1.0;" x1="1217" x2="1264" y1="470.3945" y2="470.3945"/><line style="stroke:#181818;stroke-width:1.0;" x1="1264" x2="1264" y1="470.3945" y2="483.3945"/><line style="stroke:#181818;stroke-width:1.0;" x1="1223" x2="1264" y1="483.3945" y2="483.3945"/><polygon fill="#181818" points="1233,479.3945,1223,483.3945,1233,487.3945,1229,483.3945" style="stroke:#181818;stroke-width:1.0;"/><text fill="#000000" font-family="sans-serif" font-size="13" font-weight="bold" lengthAdjust="spacing" textLength="18" x="1229" y="465.1318">6.3</text><text fill="#000000" font-family="sans-serif" font-size="13" lengthAdjust="spacing" textLength="115" x="1251" y="465.1318">generatePassword()</text><line style="stroke:#181818;stroke-width:1.0;" x1="1222" x2="1269" y1="514.6855" y2="514.6855"/><line style="stroke:#181818;stroke-width:1.0;" x1="1269" x2="1269" y1="514.6855" y2="527.6855"/><line style="stroke:#181818;stroke-width:1.0;" x1="1228" x2="1269" y1="527.6855" y2="527.6855"/><polygon fill="#181818" points="1238,523.6855,1228,527.6855,1238,531.6855,1234,527.6855" style="stroke:#181818;stroke-width:1.0;"/><text fill="#000000" font-family="sans-serif" font-size="13" font-weight="bold" lengthAdjust="spacing" textLength="18" x="1234" y="509.4229">6.4</text><text fill="#000000" font-family="sans-serif" font-size="13" lengthAdjust="spacing" textLength="165" x="1256" y="509.4229">validateEmployee(employee)</text><line style="stroke:#181818;stroke-width:1.0;stroke-dasharray:2.0,2.0;" x1="1227" x2="1269" y1="568.9766" y2="568.9766"/><line style="stroke:#181818;stroke-width:1.0;stroke-dasharray:2.0,2.0;" x1="1269" x2="1269" y1="568.9766" y2="581.9766"/><line style="stroke:#181818;stroke-width:1.0;stroke-dasharray:2.0,2.0;" x1="1222" x2="1269" y1="581.9766" y2="581.9766"/><polygon fill="#181818" points="1232,577.9766,1222,581.9766,1232,585.9766,1228,581.9766" style="stroke:#181818;stroke-width:1.0;"/><text fill="#000000" font-family="sans-serif" font-size="13" font-weight="bold" lengthAdjust="spacing" textLength="18" x="1234" y="563.7139">6.5</text><text fill="#000000" font-family="sans-serif" font-size="13" lengthAdjust="spacing" textLength="4" x="1256" y="563.7139">&#160;</text><line style="stroke:#181818;stroke-width:1.0;stroke-dasharray:2.0,2.0;" x1="1222" x2="1264" y1="613.2676" y2="613.2676"/><line style="stroke:#181818;stroke-width:1.0;stroke-dasharray:2.0,2.0;" x1="1264" x2="1264" y1="613.2676" y2="626.2676"/><line style="stroke:#181818;stroke-width:1.0;stroke-dasharray:2.0,2.0;" x1="1217" x2="1264" y1="626.2676" y2="626.2676"/><polygon fill="#181818" points="1227,622.2676,1217,626.2676,1227,630.2676,1223,626.2676" style="stroke:#181818;stroke-width:1.0;"/><text fill="#000000" font-family="sans-serif" font-size="13" font-weight="bold" lengthAdjust="spacing" textLength="18" x="1229" y="608.0049">6.6</text><text fill="#000000" font-family="sans-serif" font-size="13" lengthAdjust="spacing" textLength="4" x="1251" y="608.0049">&#160;</text><line style="stroke:#181818;stroke-width:1.0;stroke-dasharray:2.0,2.0;" x1="1217" x2="1259" y1="657.5586" y2="657.5586"/><line style="stroke:#181818;stroke-width:1.0;stroke-dasharray:2.0,2.0;" x1="1259" x2="1259" y1="657.5586" y2="670.5586"/><line style="stroke:#181818;stroke-width:1.0;stroke-dasharray:2.0,2.0;" x1="1212" x2="1259" y1="670.5586" y2="670.5586"/><polygon fill="#181818" points="1222,666.5586,1212,670.5586,1222,674.5586,1218,670.5586" style="stroke:#181818;stroke-width:1.0;"/><text fill="#000000" font-family="sans-serif" font-size="13" font-weight="bold" lengthAdjust="spacing" textLength="18" x="1224" y="652.2959">6.7</text><text fill="#000000" font-family="sans-serif" font-size="13" lengthAdjust="spacing" textLength="4" x="1246" y="652.2959">&#160;</text><polygon fill="#181818" points="885,692.8496,875,696.8496,885,700.8496,881,696.8496" style="stroke:#181818;stroke-width:1.0;"/><line style="stroke:#181818;stroke-width:1.0;stroke-dasharray:2.0,2.0;" x1="879" x2="1206" y1="696.8496" y2="696.8496"/><text fill="#000000" font-family="sans-serif" font-size="13" font-weight="bold" lengthAdjust="spacing" textLength="7" x="891" y="691.5869">7</text><text fill="#000000" font-family="sans-serif" font-size="13" lengthAdjust="spacing" textLength="31" x="902" y="691.5869">client</text><polygon fill="#181818" points="547,724.1406,537,728.1406,547,732.1406,543,728.1406" style="stroke:#181818;stroke-width:1.0;"/><line style="stroke:#181818;stroke-width:1.0;stroke-dasharray:2.0,2.0;" x1="541" x2="868" y1="728.1406" y2="728.1406"/><text fill="#000000" font-family="sans-serif" font-size="13" font-weight="bold" lengthAdjust="spacing" textLength="7" x="553" y="722.8779">8</text><text fill="#000000" font-family="sans-serif" font-size="13" lengthAdjust="spacing" textLength="31" x="564" y="722.8779">client</text><polygon fill="#181818" points="76,755.4316,66,759.4316,76,763.4316,72,759.4316" style="stroke:#181818;stroke-width:1.0;"/><line style="stroke:#181818;stroke-width:1.0;stroke-dasharray:2.0,2.0;" x1="70" x2="530" y1="759.4316" y2="759.4316"/><text fill="#000000" font-family="sans-serif" font-size="13" font-weight="bold" lengthAdjust="spacing" textLength="7" x="82" y="754.1689">9</text><text fill="#000000" font-family="sans-serif" font-size="13" lengthAdjust="spacing" textLength="158" x="93" y="754.1689">displays operation success</text><!--SRC=[jLHDRzim3BthLn2vB0tI0RjiW0-x13qO28R1ZM-zi3PZ2v4bJvAR-jzFybSSrt4BRDL99laU7scAviHbYHeBA9HKIQvLGM1rHSmCdXAJ4sRqQ6j1e2cnA3Cn3Z0vfkhCPGP758OOmyegMHNFf1dxalEKuAYKVLQl31EhDAnYgIdZnfAc5693UWLe88wP8xGyuILA2wlWaMSo3bjVEEFRAMcr4gB3xmxHVXAL24xIHbGgmrtcEdYIkucfXUwZQsGB7CAxeF30V0dy1IrvkGow4yTm_zE9XC05dWnO1Ns5m2NOdC3KxgkuG2uyuSNeJwB9cvjgndR7xd9uysRZyhHXrz2K1jO6_WRlHSOEhEbFHSPwdKSk1AHeaSsmU6riKc2FzHXFqEb5a7I6jc-m1ea5RTti65CgRNyrqx05Yw_zzKa2fgacOxP01NBXedCbgVNViLizkhIXqT8skVrB_o7hLSSMckbFey5hsKUVe0Hkd8ieDxDJt_3muFlNRpEAzr4hE3niDlq8VOBMAuqtAndKkFOv-eUY5AecWZLrjxkFOJEIf5sstww0izBfUW6trBrPyXSKt4qwzUf6ulufnv2dJNGpRloatvEyGFK1cYMAPVXex7umjapktapGROdtih2tZwtPGRFuwUgRtNm1fDoK0ci3glGpmvK4KoM9csmsi_h6dp7x2m00]--></g></svg>