<?xml version="1.0" encoding="us-ascii" standalone="no"?><svg xmlns="http://www.w3.org/2000/svg" xmlns:xlink="http://www.w3.org/1999/xlink" contentStyleType="text/css" height="484px" preserveAspectRatio="none" style="width:899px;height:484px;background:#FFFFFF;" version="1.1" viewBox="0 0 899 484" width="899px" zoomAndPan="magnify"><defs/><g><rect fill="#FFFFFF" height="333.9453" style="stroke:#181818;stroke-width:1.0;" width="10" x="532" y="81.8047"/><rect fill="#FFFFFF" height="245.375" style="stroke:#181818;stroke-width:1.0;" width="10" x="537" y="134.8516"/><rect fill="#FFFFFF" height="122.5703" style="stroke:#181818;stroke-width:1.0;" width="10" x="542" y="216.1328"/><rect fill="#FFFFFF" height="39.5234" style="stroke:#181818;stroke-width:1.0;" width="10" x="547" y="257.6563"/><line style="stroke:#181818;stroke-width:0.5;stroke-dasharray:5.0,5.0;" x1="536.5" x2="536.5" y1="51.2813" y2="433.75"/><line style="stroke:#181818;stroke-width:0.5;stroke-dasharray:5.0,5.0;" x1="867" x2="867" y1="127.9453" y2="433.75"/><rect fill="#E3E3E3" height="45.2813" rx="2.5" ry="2.5" style="stroke:#181818;stroke-width:0.5;" width="123" x="475.5" y="5"/><text fill="#000000" font-family="sans-serif" font-size="14" lengthAdjust="spacing" textLength="109" x="482.5" y="24.6738">:clientRepository:</text><text fill="#000000" font-family="sans-serif" font-size="14" lengthAdjust="spacing" textLength="104" x="485" y="40.3145">ClientRepository</text><rect fill="#E3E3E3" height="45.2813" rx="2.5" ry="2.5" style="stroke:#181818;stroke-width:0.5;" width="123" x="475.5" y="432.75"/><text fill="#000000" font-family="sans-serif" font-size="14" lengthAdjust="spacing" textLength="109" x="482.5" y="452.4238">:clientRepository:</text><text fill="#000000" font-family="sans-serif" font-size="14" lengthAdjust="spacing" textLength="104" x="485" y="468.0645">ClientRepository</text><rect fill="#E3E3E3" height="45.2813" rx="2.5" ry="2.5" style="stroke:#181818;stroke-width:0.5;" width="51" x="842" y="432.75"/><text fill="#000000" font-family="sans-serif" font-size="14" lengthAdjust="spacing" textLength="37" x="849" y="452.4238">client:</text><text fill="#000000" font-family="sans-serif" font-size="14" lengthAdjust="spacing" textLength="36" x="849.5" y="468.0645">Client</text><rect fill="#FFFFFF" height="333.9453" style="stroke:#181818;stroke-width:1.0;" width="10" x="532" y="81.8047"/><rect fill="#FFFFFF" height="245.375" style="stroke:#181818;stroke-width:1.0;" width="10" x="537" y="134.8516"/><rect fill="#FFFFFF" height="122.5703" style="stroke:#181818;stroke-width:1.0;" width="10" x="542" y="216.1328"/><rect fill="#FFFFFF" height="39.5234" style="stroke:#181818;stroke-width:1.0;" width="10" x="547" y="257.6563"/><polygon fill="#181818" points="520,77.8047,530,81.8047,520,85.8047,524,81.8047" style="stroke:#181818;stroke-width:1.0;"/><line style="stroke:#181818;stroke-width:1.0;" x1="0" x2="526" y1="81.8047" y2="81.8047"/><text fill="#000000" font-family="sans-serif" font-size="13" font-weight="bold" lengthAdjust="spacing" textLength="7" x="7" y="77.0498">6</text><text fill="#000000" font-family="sans-serif" font-size="13" lengthAdjust="spacing" textLength="502" x="18" y="77.0498">create(name,  email,  passportNumber, taxNumber, address, phoneNumber, password)</text><polygon fill="#181818" points="830,120.8516,840,124.8516,830,128.8516,834,124.8516" style="stroke:#181818;stroke-width:1.0;"/><line style="stroke:#181818;stroke-width:1.0;" x1="542" x2="836" y1="124.8516" y2="124.8516"/><text fill="#000000" font-family="sans-serif" font-size="13" font-weight="bold" lengthAdjust="spacing" textLength="18" x="549" y="112.835">6.1</text><text fill="#000000" font-family="sans-serif" font-size="13" lengthAdjust="spacing" textLength="250" x="571" y="105.5732">create(name, passportNumber, taxNumber,</text><text fill="#000000" font-family="sans-serif" font-size="13" lengthAdjust="spacing" textLength="177" x="575" y="120.0967">address, email, phoneNumber)</text><rect fill="#E3E3E3" height="45.2813" rx="2.5" ry="2.5" style="stroke:#181818;stroke-width:0.5;" width="51" x="842" y="89.8047"/><text fill="#000000" font-family="sans-serif" font-size="14" lengthAdjust="spacing" textLength="37" x="849" y="109.4785">client:</text><text fill="#000000" font-family="sans-serif" font-size="14" lengthAdjust="spacing" textLength="36" x="849.5" y="125.1191">Client</text><line style="stroke:#181818;stroke-width:1.0;" x1="547" x2="589" y1="166.6094" y2="166.6094"/><line style="stroke:#181818;stroke-width:1.0;" x1="589" x2="589" y1="166.6094" y2="179.6094"/><line style="stroke:#181818;stroke-width:1.0;" x1="548" x2="589" y1="179.6094" y2="179.6094"/><polygon fill="#181818" points="558,175.6094,548,179.6094,558,183.6094,554,179.6094" style="stroke:#181818;stroke-width:1.0;"/><text fill="#000000" font-family="sans-serif" font-size="13" font-weight="bold" lengthAdjust="spacing" textLength="18" x="554" y="161.8545">6.2</text><text fill="#000000" font-family="sans-serif" font-size="13" lengthAdjust="spacing" textLength="147" x="576" y="161.8545">addEmployee (employee)</text><line style="stroke:#181818;stroke-width:1.0;" x1="547" x2="594" y1="203.1328" y2="203.1328"/><line style="stroke:#181818;stroke-width:1.0;" x1="594" x2="594" y1="203.1328" y2="216.1328"/><line style="stroke:#181818;stroke-width:1.0;" x1="553" x2="594" y1="216.1328" y2="216.1328"/><polygon fill="#181818" points="563,212.1328,553,216.1328,563,220.1328,559,216.1328" style="stroke:#181818;stroke-width:1.0;"/><text fill="#000000" font-family="sans-serif" font-size="13" font-weight="bold" lengthAdjust="spacing" textLength="18" x="559" y="198.3779">6.3</text><text fill="#000000" font-family="sans-serif" font-size="13" lengthAdjust="spacing" textLength="115" x="581" y="198.3779">generatePassword()</text><line style="stroke:#181818;stroke-width:1.0;" x1="552" x2="599" y1="244.6563" y2="244.6563"/><line style="stroke:#181818;stroke-width:1.0;" x1="599" x2="599" y1="244.6563" y2="257.6563"/><line style="stroke:#181818;stroke-width:1.0;" x1="558" x2="599" y1="257.6563" y2="257.6563"/><polygon fill="#181818" points="568,253.6563,558,257.6563,568,261.6563,564,257.6563" style="stroke:#181818;stroke-width:1.0;"/><text fill="#000000" font-family="sans-serif" font-size="13" font-weight="bold" lengthAdjust="spacing" textLength="18" x="564" y="239.9014">6.4</text><text fill="#000000" font-family="sans-serif" font-size="13" lengthAdjust="spacing" textLength="165" x="586" y="239.9014">validateEmployee(employee)</text><line style="stroke:#181818;stroke-width:1.0;stroke-dasharray:2.0,2.0;" x1="557" x2="599" y1="296.1797" y2="296.1797"/><line style="stroke:#181818;stroke-width:1.0;stroke-dasharray:2.0,2.0;" x1="599" x2="599" y1="296.1797" y2="309.1797"/><line style="stroke:#181818;stroke-width:1.0;stroke-dasharray:2.0,2.0;" x1="552" x2="599" y1="309.1797" y2="309.1797"/><polygon fill="#181818" points="562,305.1797,552,309.1797,562,313.1797,558,309.1797" style="stroke:#181818;stroke-width:1.0;"/><text fill="#000000" font-family="sans-serif" font-size="13" font-weight="bold" lengthAdjust="spacing" textLength="18" x="564" y="291.4248">6.5</text><text fill="#000000" font-family="sans-serif" font-size="13" lengthAdjust="spacing" textLength="4" x="586" y="291.4248">&#160;</text><line style="stroke:#181818;stroke-width:1.0;stroke-dasharray:2.0,2.0;" x1="552" x2="594" y1="337.7031" y2="337.7031"/><line style="stroke:#181818;stroke-width:1.0;stroke-dasharray:2.0,2.0;" x1="594" x2="594" y1="337.7031" y2="350.7031"/><line style="stroke:#181818;stroke-width:1.0;stroke-dasharray:2.0,2.0;" x1="547" x2="594" y1="350.7031" y2="350.7031"/><polygon fill="#181818" points="557,346.7031,547,350.7031,557,354.7031,553,350.7031" style="stroke:#181818;stroke-width:1.0;"/><text fill="#000000" font-family="sans-serif" font-size="13" font-weight="bold" lengthAdjust="spacing" textLength="18" x="559" y="332.9482">6.6</text><text fill="#000000" font-family="sans-serif" font-size="13" lengthAdjust="spacing" textLength="4" x="581" y="332.9482">&#160;</text><line style="stroke:#181818;stroke-width:1.0;stroke-dasharray:2.0,2.0;" x1="547" x2="589" y1="379.2266" y2="379.2266"/><line style="stroke:#181818;stroke-width:1.0;stroke-dasharray:2.0,2.0;" x1="589" x2="589" y1="379.2266" y2="392.2266"/><line style="stroke:#181818;stroke-width:1.0;stroke-dasharray:2.0,2.0;" x1="542" x2="589" y1="392.2266" y2="392.2266"/><polygon fill="#181818" points="552,388.2266,542,392.2266,552,396.2266,548,392.2266" style="stroke:#181818;stroke-width:1.0;"/><text fill="#000000" font-family="sans-serif" font-size="13" font-weight="bold" lengthAdjust="spacing" textLength="18" x="554" y="374.4717">6.7</text><text fill="#000000" font-family="sans-serif" font-size="13" lengthAdjust="spacing" textLength="4" x="576" y="374.4717">&#160;</text><polygon fill="#181818" points="11,411.75,1,415.75,11,419.75,7,415.75" style="stroke:#181818;stroke-width:1.0;"/><line style="stroke:#181818;stroke-width:1.0;stroke-dasharray:2.0,2.0;" x1="5" x2="536" y1="415.75" y2="415.75"/><text fill="#000000" font-family="sans-serif" font-size="13" font-weight="bold" lengthAdjust="spacing" textLength="7" x="17" y="410.9951">7</text><text fill="#000000" font-family="sans-serif" font-size="13" lengthAdjust="spacing" textLength="31" x="28" y="410.9951">client</text><!--SRC=[fPExJiCm58PtFyKH2stL8h60526MYg4IGgXqx79gdoPMVPFjtjwU94rAI4i8maiivxzyEOh3HXg77ZLeQopFlDK4qM-9XVCRXto3ANt4eoBmn2EQL3K58KDXzzAai4OLY37SHcksUaKU7XYxpQGWM5iRL_R0SakKN3eq4MuIhYIPE2TdWupM7vEbcRQERW03J5_dtvqdurbUYMOBng2z9i-57HBWdZ3ImA2cCG1fb2f_EWp1MH_VIk0nH3pKMnJ2KmXZS9arL9yMXhtrOdYbgrh8ezpbNILtMzMSpjtzPKW1MpBF5gDHYxe3Tcc-UAjlQs0FsPyOBs7cIH7_efsoHo8OKBKRzlEcPCZdRU_Ly0PzfzSdV8TAYjnGqpNW_jLnxZaL_QWJr1-v8wf7J5T4jxtnrpsowxD_capgcr9UgjyQs2S0]--></g></svg>