<?xml version="1.0" encoding="us-ascii" standalone="no"?><svg xmlns="http://www.w3.org/2000/svg" xmlns:xlink="http://www.w3.org/1999/xlink" contentStyleType="text/css" height="580px" preserveAspectRatio="none" style="width:1277px;height:580px;background:#FFFFFF;" version="1.1" viewBox="0 0 1277 580" width="1277px" zoomAndPan="magnify"><defs/><g><rect fill="#FFFFFF" height="386.0742" style="stroke:#181818;stroke-width:1.0;" width="10" x="60" y="93.6211"/><rect fill="#FFFFFF" height="74.9121" style="stroke:#181818;stroke-width:1.0;" width="10" x="526" y="116.9121"/><rect fill="#FFFFFF" height="239.2891" style="stroke:#181818;stroke-width:1.0;" width="10" x="526" y="240.4063"/><rect fill="#FFFFFF" height="159.416" style="stroke:#181818;stroke-width:1.0;" width="10" x="864" y="288.9883"/><rect fill="#FFFFFF" height="79.543" style="stroke:#181818;stroke-width:1.0;" width="10" x="1202" y="337.5703"/><line style="stroke:#181818;stroke-width:0.5;stroke-dasharray:5.0,5.0;" x1="65" x2="65" y1="83.6211" y2="497.6953"/><line style="stroke:#181818;stroke-width:0.5;stroke-dasharray:5.0,5.0;" x1="531" x2="531" y1="83.6211" y2="497.6953"/><line style="stroke:#181818;stroke-width:0.5;stroke-dasharray:5.0,5.0;" x1="869" x2="869" y1="156.7227" y2="497.6953"/><line style="stroke:#181818;stroke-width:0.5;stroke-dasharray:5.0,5.0;" x1="1206.5" x2="1206.5" y1="83.6211" y2="497.6953"/><text fill="#000000" font-family="sans-serif" font-size="14" lengthAdjust="spacing" textLength="114" x="5" y="80.1074">Unregistered User</text><ellipse cx="65" cy="13.5" fill="#E3E3E3" rx="8" ry="8" style="stroke:#181818;stroke-width:0.5;"/><path d="M65,21.5 L65,48.5 M52,29.5 L78,29.5 M65,48.5 L52,63.5 M65,48.5 L78,63.5 " fill="none" style="stroke:#181818;stroke-width:0.5;"/><text fill="#000000" font-family="sans-serif" font-size="14" lengthAdjust="spacing" textLength="114" x="5" y="511.8027">Unregistered User</text><ellipse cx="65" cy="523.8164" fill="#E3E3E3" rx="8" ry="8" style="stroke:#181818;stroke-width:0.5;"/><path d="M65,531.8164 L65,558.8164 M52,539.8164 L78,539.8164 M65,558.8164 L52,573.8164 M65,558.8164 L78,573.8164 " fill="none" style="stroke:#181818;stroke-width:0.5;"/><rect fill="#E3E3E3" height="32.6211" rx="2.5" ry="2.5" style="stroke:#181818;stroke-width:0.5;" width="58" x="502" y="50"/><text fill="#000000" font-family="sans-serif" font-size="14" lengthAdjust="spacing" textLength="44" x="509" y="72.1074">:SignUI</text><rect fill="#E3E3E3" height="32.6211" rx="2.5" ry="2.5" style="stroke:#181818;stroke-width:0.5;" width="58" x="502" y="496.6953"/><text fill="#000000" font-family="sans-serif" font-size="14" lengthAdjust="spacing" textLength="44" x="509" y="518.8027">:SignUI</text><rect fill="#E3E3E3" height="32.6211" rx="2.5" ry="2.5" style="stroke:#181818;stroke-width:0.5;" width="108" x="815" y="496.6953"/><text fill="#000000" font-family="sans-serif" font-size="14" lengthAdjust="spacing" textLength="94" x="822" y="518.8027">:SignController</text><rect fill="#E3E3E3" height="51.2422" rx="2.5" ry="2.5" style="stroke:#181818;stroke-width:0.5;" width="123" x="1145.5" y="31.3789"/><text fill="#000000" font-family="sans-serif" font-size="14" lengthAdjust="spacing" textLength="109" x="1152.5" y="53.4863">:clientRepository:</text><text fill="#000000" font-family="sans-serif" font-size="14" lengthAdjust="spacing" textLength="104" x="1155" y="72.1074">ClientRepository</text><rect fill="#E3E3E3" height="51.2422" rx="2.5" ry="2.5" style="stroke:#181818;stroke-width:0.5;" width="123" x="1145.5" y="496.6953"/><text fill="#000000" font-family="sans-serif" font-size="14" lengthAdjust="spacing" textLength="109" x="1152.5" y="518.8027">:clientRepository:</text><text fill="#000000" font-family="sans-serif" font-size="14" lengthAdjust="spacing" textLength="104" x="1155" y="537.4238">ClientRepository</text><rect fill="#FFFFFF" height="386.0742" style="stroke:#181818;stroke-width:1.0;" width="10" x="60" y="93.6211"/><rect fill="#FFFFFF" height="74.9121" style="stroke:#181818;stroke-width:1.0;" width="10" x="526" y="116.9121"/><rect fill="#FFFFFF" height="239.2891" style="stroke:#181818;stroke-width:1.0;" width="10" x="526" y="240.4063"/><rect fill="#FFFFFF" height="159.416" style="stroke:#181818;stroke-width:1.0;" width="10" x="864" y="288.9883"/><rect fill="#FFFFFF" height="79.543" style="stroke:#181818;stroke-width:1.0;" width="10" x="1202" y="337.5703"/><polygon fill="#181818" points="514,112.9121,524,116.9121,514,120.9121,518,116.9121" style="stroke:#181818;stroke-width:1.0;"/><line style="stroke:#181818;stroke-width:1.0;" x1="70" x2="520" y1="116.9121" y2="116.9121"/><text fill="#000000" font-family="sans-serif" font-size="13" font-weight="bold" lengthAdjust="spacing" textLength="7" x="77" y="111.6494">1</text><text fill="#000000" font-family="sans-serif" font-size="13" lengthAdjust="spacing" textLength="173" x="88" y="111.6494">asks to register in the system</text><polygon fill="#181818" points="803,144.2031,813,148.2031,803,152.2031,807,148.2031" style="stroke:#181818;stroke-width:1.0;"/><line style="stroke:#181818;stroke-width:1.0;" x1="536" x2="809" y1="148.2031" y2="148.2031"/><text fill="#000000" font-family="sans-serif" font-size="13" font-weight="bold" lengthAdjust="spacing" textLength="7" x="543" y="142.9404">2</text><text fill="#000000" font-family="sans-serif" font-size="13" lengthAdjust="spacing" textLength="36" x="554" y="142.9404">create</text><rect fill="#E3E3E3" height="32.6211" rx="2.5" ry="2.5" style="stroke:#181818;stroke-width:0.5;" width="108" x="815" y="124.9121"/><text fill="#000000" font-family="sans-serif" font-size="14" lengthAdjust="spacing" textLength="94" x="822" y="147.0195">:SignController</text><polygon fill="#181818" points="81,187.8242,71,191.8242,81,195.8242,77,191.8242" style="stroke:#181818;stroke-width:1.0;"/><line style="stroke:#181818;stroke-width:1.0;stroke-dasharray:2.0,2.0;" x1="75" x2="530" y1="191.8242" y2="191.8242"/><text fill="#000000" font-family="sans-serif" font-size="13" font-weight="bold" lengthAdjust="spacing" textLength="7" x="87" y="186.5615">3</text><text fill="#000000" font-family="sans-serif" font-size="13" lengthAdjust="spacing" textLength="103" x="98" y="186.5615">request to fill data</text><polygon fill="#181818" points="514,236.4063,524,240.4063,514,244.4063,518,240.4063" style="stroke:#181818;stroke-width:1.0;"/><line style="stroke:#181818;stroke-width:1.0;" x1="70" x2="520" y1="240.4063" y2="240.4063"/><text fill="#000000" font-family="sans-serif" font-size="13" font-weight="bold" lengthAdjust="spacing" textLength="7" x="77" y="226.498">4</text><text fill="#000000" font-family="sans-serif" font-size="13" lengthAdjust="spacing" textLength="422" x="88" y="217.8525">request data to create a new client ( name, passportNumber, taxNumber,</text><text fill="#000000" font-family="sans-serif" font-size="13" lengthAdjust="spacing" textLength="177" x="92" y="235.1436">address, email, phoneNumber)</text><polygon fill="#181818" points="852,284.9883,862,288.9883,852,292.9883,856,288.9883" style="stroke:#181818;stroke-width:1.0;"/><line style="stroke:#181818;stroke-width:1.0;" x1="536" x2="858" y1="288.9883" y2="288.9883"/><text fill="#000000" font-family="sans-serif" font-size="13" font-weight="bold" lengthAdjust="spacing" textLength="7" x="543" y="275.0801">5</text><text fill="#000000" font-family="sans-serif" font-size="13" lengthAdjust="spacing" textLength="294" x="554" y="266.4346">registerClient( name, passportNumber, taxNumber,</text><text fill="#000000" font-family="sans-serif" font-size="13" lengthAdjust="spacing" textLength="177" x="558" y="283.7256">address, email, phoneNumber)</text><polygon fill="#181818" points="1190,333.5703,1200,337.5703,1190,341.5703,1194,337.5703" style="stroke:#181818;stroke-width:1.0;"/><line style="stroke:#181818;stroke-width:1.0;" x1="874" x2="1196" y1="337.5703" y2="337.5703"/><text fill="#000000" font-family="sans-serif" font-size="13" font-weight="bold" lengthAdjust="spacing" textLength="7" x="881" y="323.6621">6</text><text fill="#000000" font-family="sans-serif" font-size="13" lengthAdjust="spacing" textLength="294" x="892" y="315.0166">registerClient( name, passportNumber, taxNumber,</text><text fill="#000000" font-family="sans-serif" font-size="13" lengthAdjust="spacing" textLength="177" x="896" y="332.3076">address, email, phoneNumber)</text><rect fill="none" height="43.252" style="stroke:#000000;stroke-width:1.5;" width="129" x="1142.5" y="345.5703"/><path d="M1142.5,345.5703 L1204.5,345.5703 L1204.5,354.5703 L1194.5,364.5703 L1142.5,364.5703 L1142.5,345.5703 " fill="#EEEEEE" style="stroke:#000000;stroke-width:2.0;"/><text fill="#000000" font-family="sans-serif" font-size="13" font-weight="bold" lengthAdjust="spacing" textLength="17" x="1155.5" y="361.5986">ref</text><text fill="#000000" font-family="sans-serif" font-size="12" lengthAdjust="spacing" textLength="69" x="1172.5" y="381.5195">Create client</text><polygon fill="#181818" points="885,413.1133,875,417.1133,885,421.1133,881,417.1133" style="stroke:#181818;stroke-width:1.0;"/><line style="stroke:#181818;stroke-width:1.0;stroke-dasharray:2.0,2.0;" x1="879" x2="1206" y1="417.1133" y2="417.1133"/><text fill="#000000" font-family="sans-serif" font-size="13" font-weight="bold" lengthAdjust="spacing" textLength="7" x="891" y="411.8506">7</text><text fill="#000000" font-family="sans-serif" font-size="13" lengthAdjust="spacing" textLength="31" x="902" y="411.8506">client</text><polygon fill="#181818" points="547,444.4043,537,448.4043,547,452.4043,543,448.4043" style="stroke:#181818;stroke-width:1.0;"/><line style="stroke:#181818;stroke-width:1.0;stroke-dasharray:2.0,2.0;" x1="541" x2="868" y1="448.4043" y2="448.4043"/><text fill="#000000" font-family="sans-serif" font-size="13" font-weight="bold" lengthAdjust="spacing" textLength="7" x="553" y="443.1416">8</text><text fill="#000000" font-family="sans-serif" font-size="13" lengthAdjust="spacing" textLength="31" x="564" y="443.1416">client</text><polygon fill="#181818" points="76,475.6953,66,479.6953,76,483.6953,72,479.6953" style="stroke:#181818;stroke-width:1.0;"/><line style="stroke:#181818;stroke-width:1.0;stroke-dasharray:2.0,2.0;" x1="70" x2="530" y1="479.6953" y2="479.6953"/><text fill="#000000" font-family="sans-serif" font-size="13" font-weight="bold" lengthAdjust="spacing" textLength="7" x="82" y="474.4326">9</text><text fill="#000000" font-family="sans-serif" font-size="13" lengthAdjust="spacing" textLength="158" x="93" y="474.4326">displays operation success</text><!--SRC=[jLCnSkCm3Epv2eoRt6MS3wYunfLdF2cKOvS68M69OuhKaL0I__v8qOviMKcLi181BB1ShEB1k1u3Tj1vvrKRV4V0OI0HFp8zgWCszCH7In18CRh6NXR45hL_Cww1FTf8Gk30tWtT2mKXxbgZ2VRUyuj_5wZO1rX95wWnaIcG1Xafh00ZI2bIGpRAzEWOLjMJQPpSbjns8RVnZeEtzeJV_Artiofb3JckgVVHfCd7wjbjPg42tTKYapElo9I923WTAU7XJneFLQexH60FP-vW771B48_frasGgSzs2kQZ0kNmoFCodhgd6JbyVv_cbB9hgAQFhYFy1fz9oWGEz6-Wo9ddtbWB6Xd5GfVCJSmUUCPcJ6vmuelWw0sAbF0B77QqJgw8iVU17ySzhu7n_Vpvx02r3XJZ6gX3OrDrwnsL_6_ncKQJ32EN8d9PrpTClLBi2p7p6JbaBhlw1vZCfqraaWjdkK1xyA_9QmkvJLbFMSmyIKvdiBXzt0ZTrQDbyaEhJpfSUIx_7xSAZSPPnC_zkcZN2hI9lSLZ1DzJG3RUGHoKIjA91RzUNgNu3m00]--></g></svg>