<?xml version="1.0" encoding="us-ascii" standalone="no"?><svg xmlns="http://www.w3.org/2000/svg" xmlns:xlink="http://www.w3.org/1999/xlink" contentStyleType="text/css" height="941px" preserveAspectRatio="none" style="width:783px;height:941px;background:#FFFFFF;" version="1.1" viewBox="0 0 783 941" width="783px" zoomAndPan="magnify"><defs/><g><text fill="#000000" font-family="sans-serif" font-size="14" font-weight="bold" lengthAdjust="spacing" textLength="755" x="10" y="30.1074">As an owner, I intend to submit a request for listing a property sale or rent, choosing the responsible agent.</text><rect fill="#FFFFFF" height="715.9551" style="stroke:#181818;stroke-width:1.0;" width="10" x="124.75" y="133.2422"/><rect fill="#FFFFFF" height="31.291" style="stroke:#181818;stroke-width:1.0;" width="10" x="632.75" y="156.5332"/><rect fill="#FFFFFF" height="31.291" style="stroke:#181818;stroke-width:1.0;" width="10" x="632.75" y="219.1152"/><rect fill="#FFFFFF" height="31.291" style="stroke:#181818;stroke-width:1.0;" width="10" x="632.75" y="281.6973"/><rect fill="#FFFFFF" height="337.4629" style="stroke:#181818;stroke-width:1.0;" width="10" x="632.75" y="344.2793"/><rect fill="#FFFFFF" height="57.582" style="stroke:#181818;stroke-width:1.0;" width="10" x="632.75" y="713.0332"/><rect fill="#FFFFFF" height="47.291" style="stroke:#181818;stroke-width:1.0;" width="10" x="632.75" y="801.9063"/><rect fill="none" height="292.1719" style="stroke:#000000;stroke-width:1.5;" width="583.5" x="96.25" y="359.2793"/><rect fill="none" height="81.873" style="stroke:#000000;stroke-width:1.5;" width="583.5" x="96.25" y="728.0332"/><line style="stroke:#181818;stroke-width:0.5;stroke-dasharray:5.0,5.0;" x1="129.25" x2="129.25" y1="123.2422" y2="858.1973"/><line style="stroke:#181818;stroke-width:0.5;stroke-dasharray:5.0,5.0;" x1="637.75" x2="637.75" y1="123.2422" y2="858.1973"/><text fill="#000000" font-family="sans-serif" font-size="14" lengthAdjust="spacing" textLength="41" x="106.25" y="119.7285">Owner</text><ellipse cx="129.75" cy="53.1211" fill="#E3E3E3" rx="8" ry="8" style="stroke:#181818;stroke-width:0.5;"/><path d="M129.75,61.1211 L129.75,88.1211 M116.75,69.1211 L142.75,69.1211 M129.75,88.1211 L116.75,103.1211 M129.75,88.1211 L142.75,103.1211 " fill="none" style="stroke:#181818;stroke-width:0.5;"/><text fill="#000000" font-family="sans-serif" font-size="14" lengthAdjust="spacing" textLength="41" x="106.25" y="872.3047">Owner</text><ellipse cx="129.75" cy="884.3184" fill="#E3E3E3" rx="8" ry="8" style="stroke:#181818;stroke-width:0.5;"/><path d="M129.75,892.3184 L129.75,919.3184 M116.75,900.3184 L142.75,900.3184 M129.75,919.3184 L116.75,934.3184 M129.75,919.3184 L142.75,934.3184 " fill="none" style="stroke:#181818;stroke-width:0.5;"/><rect fill="#E3E3E3" height="32.6211" rx="2.5" ry="2.5" style="stroke:#181818;stroke-width:0.5;" width="64" x="605.75" y="89.6211"/><text fill="#000000" font-family="sans-serif" font-size="14" lengthAdjust="spacing" textLength="50" x="612.75" y="111.7285">:System</text><rect fill="#E3E3E3" height="32.6211" rx="2.5" ry="2.5" style="stroke:#181818;stroke-width:0.5;" width="64" x="605.75" y="857.1973"/><text fill="#000000" font-family="sans-serif" font-size="14" lengthAdjust="spacing" textLength="50" x="612.75" y="879.3047">:System</text><rect fill="#FFFFFF" height="715.9551" style="stroke:#181818;stroke-width:1.0;" width="10" x="124.75" y="133.2422"/><rect fill="#FFFFFF" height="31.291" style="stroke:#181818;stroke-width:1.0;" width="10" x="632.75" y="156.5332"/><rect fill="#FFFFFF" height="31.291" style="stroke:#181818;stroke-width:1.0;" width="10" x="632.75" y="219.1152"/><rect fill="#FFFFFF" height="31.291" style="stroke:#181818;stroke-width:1.0;" width="10" x="632.75" y="281.6973"/><rect fill="#FFFFFF" height="337.4629" style="stroke:#181818;stroke-width:1.0;" width="10" x="632.75" y="344.2793"/><rect fill="#FFFFFF" height="57.582" style="stroke:#181818;stroke-width:1.0;" width="10" x="632.75" y="713.0332"/><rect fill="#FFFFFF" height="47.291" style="stroke:#181818;stroke-width:1.0;" width="10" x="632.75" y="801.9063"/><polygon fill="#181818" points="620.75,152.5332,630.75,156.5332,620.75,160.5332,624.75,156.5332" style="stroke:#181818;stroke-width:1.0;"/><line style="stroke:#181818;stroke-width:1.0;" x1="134.75" x2="626.75" y1="156.5332" y2="156.5332"/><text fill="#000000" font-family="sans-serif" font-size="13" font-weight="bold" lengthAdjust="spacing" textLength="7" x="141.75" y="151.2705">1</text><text fill="#000000" font-family="sans-serif" font-size="13" lengthAdjust="spacing" textLength="157" x="152.75" y="151.2705">asks to fill the request form</text><polygon fill="#181818" points="145.75,183.8242,135.75,187.8242,145.75,191.8242,141.75,187.8242" style="stroke:#181818;stroke-width:1.0;"/><line style="stroke:#181818;stroke-width:1.0;stroke-dasharray:2.0,2.0;" x1="139.75" x2="636.75" y1="187.8242" y2="187.8242"/><text fill="#000000" font-family="sans-serif" font-size="13" font-weight="bold" lengthAdjust="spacing" textLength="7" x="151.75" y="182.5615">2</text><text fill="#000000" font-family="sans-serif" font-size="13" lengthAdjust="spacing" textLength="284" x="162.75" y="182.5615">provides property type list and asks to select one</text><polygon fill="#181818" points="620.75,215.1152,630.75,219.1152,620.75,223.1152,624.75,219.1152" style="stroke:#181818;stroke-width:1.0;"/><line style="stroke:#181818;stroke-width:1.0;" x1="134.75" x2="626.75" y1="219.1152" y2="219.1152"/><text fill="#000000" font-family="sans-serif" font-size="13" font-weight="bold" lengthAdjust="spacing" textLength="7" x="141.75" y="213.8525">3</text><text fill="#000000" font-family="sans-serif" font-size="13" lengthAdjust="spacing" textLength="172" x="152.75" y="213.8525">selects property type from list</text><polygon fill="#181818" points="145.75,246.4063,135.75,250.4063,145.75,254.4063,141.75,250.4063" style="stroke:#181818;stroke-width:1.0;"/><line style="stroke:#181818;stroke-width:1.0;stroke-dasharray:2.0,2.0;" x1="139.75" x2="636.75" y1="250.4063" y2="250.4063"/><text fill="#000000" font-family="sans-serif" font-size="13" font-weight="bold" lengthAdjust="spacing" textLength="7" x="151.75" y="245.1436">4</text><text fill="#000000" font-family="sans-serif" font-size="13" lengthAdjust="spacing" textLength="237" x="162.75" y="245.1436">provides store list and asks to select one</text><polygon fill="#181818" points="620.75,277.6973,630.75,281.6973,620.75,285.6973,624.75,281.6973" style="stroke:#181818;stroke-width:1.0;"/><line style="stroke:#181818;stroke-width:1.0;" x1="134.75" x2="626.75" y1="281.6973" y2="281.6973"/><text fill="#000000" font-family="sans-serif" font-size="13" font-weight="bold" lengthAdjust="spacing" textLength="7" x="141.75" y="276.4346">5</text><text fill="#000000" font-family="sans-serif" font-size="13" lengthAdjust="spacing" textLength="125" x="152.75" y="276.4346">selects store from list</text><polygon fill="#181818" points="145.75,308.9883,135.75,312.9883,145.75,316.9883,141.75,312.9883" style="stroke:#181818;stroke-width:1.0;"/><line style="stroke:#181818;stroke-width:1.0;stroke-dasharray:2.0,2.0;" x1="139.75" x2="636.75" y1="312.9883" y2="312.9883"/><text fill="#000000" font-family="sans-serif" font-size="13" font-weight="bold" lengthAdjust="spacing" textLength="7" x="151.75" y="307.7256">6</text><text fill="#000000" font-family="sans-serif" font-size="13" lengthAdjust="spacing" textLength="251" x="162.75" y="307.7256">provides agents list  and asks to select one</text><polygon fill="#181818" points="620.75,340.2793,630.75,344.2793,620.75,348.2793,624.75,344.2793" style="stroke:#181818;stroke-width:1.0;"/><line style="stroke:#181818;stroke-width:1.0;" x1="134.75" x2="626.75" y1="344.2793" y2="344.2793"/><text fill="#000000" font-family="sans-serif" font-size="13" font-weight="bold" lengthAdjust="spacing" textLength="7" x="141.75" y="339.0166">7</text><text fill="#000000" font-family="sans-serif" font-size="13" lengthAdjust="spacing" textLength="128" x="152.75" y="339.0166">selects agent from list</text><path d="M96.25,359.2793 L157.25,359.2793 L157.25,368.5703 L147.25,378.5703 L96.25,378.5703 L96.25,359.2793 " fill="#EEEEEE" style="stroke:#000000;stroke-width:1.5;"/><rect fill="none" height="292.1719" style="stroke:#000000;stroke-width:1.5;" width="583.5" x="96.25" y="359.2793"/><text fill="#000000" font-family="sans-serif" font-size="13" font-weight="bold" lengthAdjust="spacing" textLength="16" x="111.25" y="374.3076">alt</text><text fill="#000000" font-family="sans-serif" font-size="11" font-weight="bold" lengthAdjust="spacing" textLength="107" x="172.25" y="373.1494">[if property == land]</text><polygon fill="#181818" points="145.75,397.8613,135.75,401.8613,145.75,405.8613,141.75,401.8613" style="stroke:#181818;stroke-width:1.0;"/><line style="stroke:#181818;stroke-width:1.0;stroke-dasharray:2.0,2.0;" x1="139.75" x2="631.75" y1="401.8613" y2="401.8613"/><text fill="#000000" font-family="sans-serif" font-size="13" font-weight="bold" lengthAdjust="spacing" textLength="7" x="151.75" y="396.5986">8</text><text fill="#000000" font-family="sans-serif" font-size="13" lengthAdjust="spacing" textLength="422" x="162.75" y="396.5986">requests land data (price, area, address, distanceToCentre, photographs)</text><polygon fill="#181818" points="620.75,429.1523,630.75,433.1523,620.75,437.1523,624.75,433.1523" style="stroke:#181818;stroke-width:1.0;"/><line style="stroke:#181818;stroke-width:1.0;" x1="134.75" x2="626.75" y1="433.1523" y2="433.1523"/><text fill="#000000" font-family="sans-serif" font-size="13" font-weight="bold" lengthAdjust="spacing" textLength="7" x="141.75" y="427.8896">9</text><text fill="#000000" font-family="sans-serif" font-size="13" lengthAdjust="spacing" textLength="122" x="152.75" y="427.8896">types requested data</text><line style="stroke:#000000;stroke-width:1.0;stroke-dasharray:2.0,2.0;" x1="96.25" x2="679.75" y1="442.1523" y2="442.1523"/><text fill="#000000" font-family="sans-serif" font-size="11" font-weight="bold" lengthAdjust="spacing" textLength="141" x="101.25" y="454.0225">[if property == apartment]</text><polygon fill="#181818" points="145.75,494.3652,135.75,498.3652,145.75,502.3652,141.75,498.3652" style="stroke:#181818;stroke-width:1.0;"/><line style="stroke:#181818;stroke-width:1.0;stroke-dasharray:2.0,2.0;" x1="139.75" x2="631.75" y1="498.3652" y2="498.3652"/><text fill="#000000" font-family="sans-serif" font-size="13" font-weight="bold" lengthAdjust="spacing" textLength="14" x="151.75" y="484.457">10</text><text fill="#000000" font-family="sans-serif" font-size="13" lengthAdjust="spacing" textLength="456" x="169.75" y="475.8115">requests apartment data (price, area, address, distanceToCentre, photographs,</text><text fill="#000000" font-family="sans-serif" font-size="13" lengthAdjust="spacing" textLength="427" x="169.75" y="493.1025">bedroomNumber, bathroomNumber, parkingSpaceNumber, equipmentList)</text><polygon fill="#181818" points="620.75,525.6563,630.75,529.6563,620.75,533.6563,624.75,529.6563" style="stroke:#181818;stroke-width:1.0;"/><line style="stroke:#181818;stroke-width:1.0;" x1="134.75" x2="626.75" y1="529.6563" y2="529.6563"/><text fill="#000000" font-family="sans-serif" font-size="13" font-weight="bold" lengthAdjust="spacing" textLength="14" x="141.75" y="524.3936">11</text><text fill="#000000" font-family="sans-serif" font-size="13" lengthAdjust="spacing" textLength="122" x="159.75" y="524.3936">types requested data</text><line style="stroke:#000000;stroke-width:1.0;stroke-dasharray:2.0,2.0;" x1="96.25" x2="679.75" y1="538.6563" y2="538.6563"/><text fill="#000000" font-family="sans-serif" font-size="11" font-weight="bold" lengthAdjust="spacing" textLength="119" x="101.25" y="550.5264">[if property == house]</text><polygon fill="#181818" points="145.75,608.1602,135.75,612.1602,145.75,616.1602,141.75,612.1602" style="stroke:#181818;stroke-width:1.0;"/><line style="stroke:#181818;stroke-width:1.0;stroke-dasharray:2.0,2.0;" x1="139.75" x2="631.75" y1="612.1602" y2="612.1602"/><text fill="#000000" font-family="sans-serif" font-size="13" font-weight="bold" lengthAdjust="spacing" textLength="14" x="151.75" y="589.6064">12</text><text fill="#000000" font-family="sans-serif" font-size="13" lengthAdjust="spacing" textLength="433" x="169.75" y="572.3154">requests house data (price, area, address, distanceToCentre, photographs,</text><text fill="#000000" font-family="sans-serif" font-size="13" lengthAdjust="spacing" textLength="427" x="169.75" y="589.6064">bedroomNumber, bathroomNumber, parkingSpaceNumber, equipmentList,</text><text fill="#000000" font-family="sans-serif" font-size="13" lengthAdjust="spacing" textLength="218" x="169.75" y="606.8975">hasBasement, hasLoft, sunExposure)</text><polygon fill="#181818" points="620.75,639.4512,630.75,643.4512,620.75,647.4512,624.75,643.4512" style="stroke:#181818;stroke-width:1.0;"/><line style="stroke:#181818;stroke-width:1.0;" x1="134.75" x2="626.75" y1="643.4512" y2="643.4512"/><text fill="#000000" font-family="sans-serif" font-size="13" font-weight="bold" lengthAdjust="spacing" textLength="14" x="141.75" y="638.1885">13</text><text fill="#000000" font-family="sans-serif" font-size="13" lengthAdjust="spacing" textLength="122" x="159.75" y="638.1885">types requested data</text><polygon fill="#181818" points="145.75,677.7422,135.75,681.7422,145.75,685.7422,141.75,681.7422" style="stroke:#181818;stroke-width:1.0;"/><line style="stroke:#181818;stroke-width:1.0;stroke-dasharray:2.0,2.0;" x1="139.75" x2="636.75" y1="681.7422" y2="681.7422"/><text fill="#000000" font-family="sans-serif" font-size="13" font-weight="bold" lengthAdjust="spacing" textLength="14" x="151.75" y="676.4795">14</text><text fill="#000000" font-family="sans-serif" font-size="13" lengthAdjust="spacing" textLength="289" x="169.75" y="676.4795">provides business type list and asks to select one</text><polygon fill="#181818" points="620.75,709.0332,630.75,713.0332,620.75,717.0332,624.75,713.0332" style="stroke:#181818;stroke-width:1.0;"/><line style="stroke:#181818;stroke-width:1.0;" x1="134.75" x2="626.75" y1="713.0332" y2="713.0332"/><text fill="#000000" font-family="sans-serif" font-size="13" font-weight="bold" lengthAdjust="spacing" textLength="14" x="141.75" y="707.7705">15</text><text fill="#000000" font-family="sans-serif" font-size="13" lengthAdjust="spacing" textLength="120" x="159.75" y="707.7705">select business type</text><path d="M96.25,728.0332 L157.25,728.0332 L157.25,737.3242 L147.25,747.3242 L96.25,747.3242 L96.25,728.0332 " fill="#EEEEEE" style="stroke:#000000;stroke-width:1.5;"/><rect fill="none" height="81.873" style="stroke:#000000;stroke-width:1.5;" width="583.5" x="96.25" y="728.0332"/><text fill="#000000" font-family="sans-serif" font-size="13" font-weight="bold" lengthAdjust="spacing" textLength="16" x="111.25" y="743.0615">alt</text><text fill="#000000" font-family="sans-serif" font-size="11" font-weight="bold" lengthAdjust="spacing" textLength="111" x="172.25" y="741.9033">[if business == rent]</text><polygon fill="#181818" points="145.75,766.6152,135.75,770.6152,145.75,774.6152,141.75,770.6152" style="stroke:#181818;stroke-width:1.0;"/><line style="stroke:#181818;stroke-width:1.0;stroke-dasharray:2.0,2.0;" x1="139.75" x2="636.75" y1="770.6152" y2="770.6152"/><text fill="#000000" font-family="sans-serif" font-size="13" font-weight="bold" lengthAdjust="spacing" textLength="14" x="151.75" y="765.3525">16</text><text fill="#000000" font-family="sans-serif" font-size="13" lengthAdjust="spacing" textLength="157" x="169.75" y="765.3525">requests data(rentDuration)</text><polygon fill="#181818" points="620.75,797.9063,630.75,801.9063,620.75,805.9063,624.75,801.9063" style="stroke:#181818;stroke-width:1.0;"/><line style="stroke:#181818;stroke-width:1.0;" x1="134.75" x2="626.75" y1="801.9063" y2="801.9063"/><text fill="#000000" font-family="sans-serif" font-size="13" font-weight="bold" lengthAdjust="spacing" textLength="14" x="141.75" y="796.6436">17</text><text fill="#000000" font-family="sans-serif" font-size="13" lengthAdjust="spacing" textLength="122" x="159.75" y="796.6436">types requested data</text><polygon fill="#181818" points="145.75,836.1973,135.75,840.1973,145.75,844.1973,141.75,840.1973" style="stroke:#181818;stroke-width:1.0;"/><line style="stroke:#181818;stroke-width:1.0;stroke-dasharray:2.0,2.0;" x1="139.75" x2="631.75" y1="840.1973" y2="840.1973"/><text fill="#000000" font-family="sans-serif" font-size="13" font-weight="bold" lengthAdjust="spacing" textLength="14" x="151.75" y="834.9346">18</text><text fill="#000000" font-family="sans-serif" font-size="13" lengthAdjust="spacing" textLength="158" x="169.75" y="834.9346">displays operation success</text><!--SRC=[nLN1Rjim3BtxAuXSrWBkFY101sph3WEAxP0TTw5jsXPYIvf8j_FVZv8Tfyk29WtMpOT0jXuV7vz8XRV6UWpOG- -iAzlWUW890sMyx7WijzZGHiQE850fQ9lkAO1RhDoZiGtKs35bcHXHw7i6jE0UBOKSFeEnGhO2SS13qHi1LB8V0x50xG9qXYLI8FZWF0KPWL5PT2kGbHpArZcE26cZ3FREiYaKeTgilCqo7CJPeIyewBeK3LnzZSbNW0nfbQbUCQNnQ0LMwyt8GdtQdfOfpZoWq8pFG9-qX9jtCmZM6h3bM4XjkcwMinJIfvY5PqSCypDpt2ZTnBkEzJwOYdXVk8oUaY5gOBLaO-hKV72M4bj5HvFygNQAEwIlzQXJZilridhy2Zedshs-omMcpk19uL-Lc8XFM9Y-TGActZj_UmkTwdXE_DnAd81GeI1S-M1AoW43eVvMbNO_vr1fPhGbVNCVLKrGW6-Tk2QWR_awU_EYoc9Fy2uvJOadYcDraOxvOM4OXwjN9MTLjw0lBp7_RWkgWdFzbpJrEHGexTDtpQ6NLBFH6unstrI0yJ7nlNB_UvTQDp2TvL12_bTtbA95_e1CVRg1zUNUrRhWmNxwwHqFWLxPmUTdPHdqOj1_1lNaqflpYDRTiF_EVMhI5x0UTJXt5g87Ln5zDmGKu-prIsGUTVIKeOTorh6PV8SZG-pLf4AFkIorbkmN]--></g></svg>