<?xml version="1.0" encoding="us-ascii" standalone="no"?><svg xmlns="http://www.w3.org/2000/svg" xmlns:xlink="http://www.w3.org/1999/xlink" contentStyleType="text/css" height="724px" preserveAspectRatio="none" style="width:1071px;height:724px;background:#FFFFFF;" version="1.1" viewBox="0 0 1071 724" width="1071px" zoomAndPan="magnify"><defs/><g><rect fill="#FFFFFF" height="568.6953" style="stroke:#181818;stroke-width:1.0;" width="10" x="207" y="90.5332"/><rect fill="#FFFFFF" height="31.291" style="stroke:#181818;stroke-width:1.0;" width="10" x="353" y="121.8242"/><rect fill="#FFFFFF" height="31.291" style="stroke:#181818;stroke-width:1.0;" width="10" x="460" y="184.4063"/><rect fill="#FFFFFF" height="403.2402" style="stroke:#181818;stroke-width:1.0;" width="10" x="588" y="246.9883"/><rect fill="#FFFFFF" height="130.873" style="stroke:#181818;stroke-width:1.0;" width="10" x="593" y="481.0645"/><rect fill="#FFFFFF" height="42.291" style="stroke:#181818;stroke-width:1.0;" width="10" x="598" y="525.3555"/><rect fill="#FFFFFF" height="163.4941" style="stroke:#181818;stroke-width:1.0;" width="10" x="832" y="278.2793"/><rect fill="#FFFFFF" height="42.291" style="stroke:#181818;stroke-width:1.0;" width="10" x="837" y="317.5703"/><line style="stroke:#181818;stroke-width:0.5;stroke-dasharray:5.0,5.0;" x1="211.5" x2="211.5" y1="57.2422" y2="668.2285"/><line style="stroke:#181818;stroke-width:0.5;stroke-dasharray:5.0,5.0;" x1="357.5" x2="357.5" y1="57.2422" y2="668.2285"/><line style="stroke:#181818;stroke-width:0.5;stroke-dasharray:5.0,5.0;" x1="464.5" x2="464.5" y1="57.2422" y2="668.2285"/><line style="stroke:#181818;stroke-width:0.5;stroke-dasharray:5.0,5.0;" x1="592.5" x2="592.5" y1="57.2422" y2="668.2285"/><line style="stroke:#181818;stroke-width:0.5;stroke-dasharray:5.0,5.0;" x1="837" x2="837" y1="57.2422" y2="668.2285"/><line style="stroke:#181818;stroke-width:0.5;stroke-dasharray:5.0,5.0;" x1="1025" x2="1025" y1="406.6719" y2="668.2285"/><rect fill="#E3E3E3" height="32.6211" rx="2.5" ry="2.5" style="stroke:#181818;stroke-width:0.5;" width="175" x="124.5" y="23.6211"/><text fill="#000000" font-family="sans-serif" font-size="14" lengthAdjust="spacing" textLength="161" x="131.5" y="45.7285">:AnnouncementController</text><rect fill="#E3E3E3" height="32.6211" rx="2.5" ry="2.5" style="stroke:#181818;stroke-width:0.5;" width="175" x="124.5" y="667.2285"/><text fill="#000000" font-family="sans-serif" font-size="14" lengthAdjust="spacing" textLength="161" x="131.5" y="689.3359">:AnnouncementController</text><rect fill="#E3E3E3" height="32.6211" rx="2.5" ry="2.5" style="stroke:#181818;stroke-width:0.5;" width="97" x="309.5" y="23.6211"/><text fill="#000000" font-family="sans-serif" font-size="14" lengthAdjust="spacing" textLength="83" x="316.5" y="45.7285">:Repositories</text><rect fill="#E3E3E3" height="32.6211" rx="2.5" ry="2.5" style="stroke:#181818;stroke-width:0.5;" width="97" x="309.5" y="667.2285"/><text fill="#000000" font-family="sans-serif" font-size="14" lengthAdjust="spacing" textLength="83" x="316.5" y="689.3359">:Repositories</text><rect fill="#E3E3E3" height="51.2422" rx="2.5" ry="2.5" style="stroke:#181818;stroke-width:0.5;" width="97" x="416.5" y="5"/><text fill="#000000" font-family="sans-serif" font-size="14" lengthAdjust="spacing" textLength="74" x="428" y="27.1074">repositories</text><text fill="#000000" font-family="sans-serif" font-size="14" lengthAdjust="spacing" textLength="83" x="423.5" y="45.7285">:Repositories</text><rect fill="#E3E3E3" height="51.2422" rx="2.5" ry="2.5" style="stroke:#181818;stroke-width:0.5;" width="97" x="416.5" y="667.2285"/><text fill="#000000" font-family="sans-serif" font-size="14" lengthAdjust="spacing" textLength="74" x="428" y="689.3359">repositories</text><text fill="#000000" font-family="sans-serif" font-size="14" lengthAdjust="spacing" textLength="83" x="423.5" y="707.957">:Repositories</text><rect fill="#E3E3E3" height="51.2422" rx="2.5" ry="2.5" style="stroke:#181818;stroke-width:0.5;" width="139" x="523.5" y="5"/><text fill="#000000" font-family="sans-serif" font-size="14" lengthAdjust="spacing" textLength="125" x="530.5" y="27.1074">propertyRepository:</text><text fill="#000000" font-family="sans-serif" font-size="14" lengthAdjust="spacing" textLength="122" x="532" y="45.7285">PropertyRepository</text><rect fill="#E3E3E3" height="51.2422" rx="2.5" ry="2.5" style="stroke:#181818;stroke-width:0.5;" width="139" x="523.5" y="667.2285"/><text fill="#000000" font-family="sans-serif" font-size="14" lengthAdjust="spacing" textLength="125" x="530.5" y="689.3359">propertyRepository:</text><text fill="#000000" font-family="sans-serif" font-size="14" lengthAdjust="spacing" textLength="122" x="532" y="707.957">PropertyRepository</text><rect fill="#E3E3E3" height="32.6211" rx="2.5" ry="2.5" style="stroke:#181818;stroke-width:0.5;" width="116" x="779" y="23.6211"/><text fill="#000000" font-family="sans-serif" font-size="14" lengthAdjust="spacing" textLength="102" x="786" y="45.7285">PropertyMapper</text><rect fill="#E3E3E3" height="32.6211" rx="2.5" ry="2.5" style="stroke:#181818;stroke-width:0.5;" width="116" x="779" y="667.2285"/><text fill="#000000" font-family="sans-serif" font-size="14" lengthAdjust="spacing" textLength="102" x="786" y="689.3359">PropertyMapper</text><rect fill="#E3E3E3" height="32.6211" rx="2.5" ry="2.5" style="stroke:#181818;stroke-width:0.5;" width="79" x="986" y="667.2285"/><text fill="#000000" font-family="sans-serif" font-size="14" lengthAdjust="spacing" textLength="65" x="993" y="689.3359">Apartment</text><rect fill="#FFFFFF" height="568.6953" style="stroke:#181818;stroke-width:1.0;" width="10" x="207" y="90.5332"/><rect fill="#FFFFFF" height="31.291" style="stroke:#181818;stroke-width:1.0;" width="10" x="353" y="121.8242"/><rect fill="#FFFFFF" height="31.291" style="stroke:#181818;stroke-width:1.0;" width="10" x="460" y="184.4063"/><rect fill="#FFFFFF" height="403.2402" style="stroke:#181818;stroke-width:1.0;" width="10" x="588" y="246.9883"/><rect fill="#FFFFFF" height="130.873" style="stroke:#181818;stroke-width:1.0;" width="10" x="593" y="481.0645"/><rect fill="#FFFFFF" height="42.291" style="stroke:#181818;stroke-width:1.0;" width="10" x="598" y="525.3555"/><rect fill="#FFFFFF" height="163.4941" style="stroke:#181818;stroke-width:1.0;" width="10" x="832" y="278.2793"/><rect fill="#FFFFFF" height="42.291" style="stroke:#181818;stroke-width:1.0;" width="10" x="837" y="317.5703"/><polygon fill="#181818" points="195,86.5332,205,90.5332,195,94.5332,199,90.5332" style="stroke:#181818;stroke-width:1.0;"/><line style="stroke:#181818;stroke-width:1.0;" x1="0" x2="201" y1="90.5332" y2="90.5332"/><text fill="#000000" font-family="sans-serif" font-size="13" font-weight="bold" lengthAdjust="spacing" textLength="7" x="7" y="85.2705">1</text><text fill="#000000" font-family="sans-serif" font-size="13" lengthAdjust="spacing" textLength="177" x="18" y="85.2705">createProperty(apartmentDTO)</text><polygon fill="#181818" points="341,117.8242,351,121.8242,341,125.8242,345,121.8242" style="stroke:#181818;stroke-width:1.0;"/><line style="stroke:#181818;stroke-width:1.0;" x1="217" x2="347" y1="121.8242" y2="121.8242"/><text fill="#000000" font-family="sans-serif" font-size="13" font-weight="bold" lengthAdjust="spacing" textLength="7" x="224" y="116.5615">2</text><text fill="#000000" font-family="sans-serif" font-size="13" lengthAdjust="spacing" textLength="75" x="235" y="116.5615">getInstance()</text><polygon fill="#181818" points="228,149.1152,218,153.1152,228,157.1152,224,153.1152" style="stroke:#181818;stroke-width:1.0;"/><line style="stroke:#181818;stroke-width:1.0;stroke-dasharray:2.0,2.0;" x1="222" x2="357" y1="153.1152" y2="153.1152"/><text fill="#000000" font-family="sans-serif" font-size="13" font-weight="bold" lengthAdjust="spacing" textLength="7" x="234" y="147.8525">3</text><text fill="#000000" font-family="sans-serif" font-size="13" lengthAdjust="spacing" textLength="67" x="245" y="147.8525">repositories</text><polygon fill="#181818" points="448,180.4063,458,184.4063,448,188.4063,452,184.4063" style="stroke:#181818;stroke-width:1.0;"/><line style="stroke:#181818;stroke-width:1.0;" x1="217" x2="454" y1="184.4063" y2="184.4063"/><text fill="#000000" font-family="sans-serif" font-size="13" font-weight="bold" lengthAdjust="spacing" textLength="7" x="224" y="179.1436">4</text><text fill="#000000" font-family="sans-serif" font-size="13" lengthAdjust="spacing" textLength="137" x="235" y="179.1436">getPropertyRepository()</text><polygon fill="#181818" points="228,211.6973,218,215.6973,228,219.6973,224,215.6973" style="stroke:#181818;stroke-width:1.0;"/><line style="stroke:#181818;stroke-width:1.0;" x1="222" x2="464" y1="215.6973" y2="215.6973"/><text fill="#000000" font-family="sans-serif" font-size="13" font-weight="bold" lengthAdjust="spacing" textLength="7" x="234" y="210.4346">5</text><text fill="#000000" font-family="sans-serif" font-size="13" lengthAdjust="spacing" textLength="109" x="245" y="210.4346">propertyRepository</text><polygon fill="#181818" points="576,242.9883,586,246.9883,576,250.9883,580,246.9883" style="stroke:#181818;stroke-width:1.0;"/><line style="stroke:#181818;stroke-width:1.0;" x1="217" x2="582" y1="246.9883" y2="246.9883"/><text fill="#000000" font-family="sans-serif" font-size="13" font-weight="bold" lengthAdjust="spacing" textLength="7" x="224" y="241.7256">6</text><text fill="#000000" font-family="sans-serif" font-size="13" lengthAdjust="spacing" textLength="177" x="235" y="241.7256">createProperty(apartmentDTO)</text><polygon fill="#181818" points="820,274.2793,830,278.2793,820,282.2793,824,278.2793" style="stroke:#181818;stroke-width:1.0;"/><line style="stroke:#181818;stroke-width:1.0;" x1="598" x2="826" y1="278.2793" y2="278.2793"/><text fill="#000000" font-family="sans-serif" font-size="13" font-weight="bold" lengthAdjust="spacing" textLength="7" x="605" y="273.0166">7</text><text fill="#000000" font-family="sans-serif" font-size="13" lengthAdjust="spacing" textLength="204" x="616" y="273.0166">apartmentToEntity (ApartmentDTO)</text><line style="stroke:#181818;stroke-width:1.0;" x1="842" x2="889" y1="304.5703" y2="304.5703"/><line style="stroke:#181818;stroke-width:1.0;" x1="889" x2="889" y1="304.5703" y2="317.5703"/><line style="stroke:#181818;stroke-width:1.0;" x1="848" x2="889" y1="317.5703" y2="317.5703"/><polygon fill="#181818" points="858,313.5703,848,317.5703,858,321.5703,854,317.5703" style="stroke:#181818;stroke-width:1.0;"/><text fill="#000000" font-family="sans-serif" font-size="13" font-weight="bold" lengthAdjust="spacing" textLength="7" x="854" y="299.3076">8</text><text fill="#000000" font-family="sans-serif" font-size="13" lengthAdjust="spacing" textLength="137" x="865" y="299.3076">toEntity(apartmentDTO)</text><line style="stroke:#181818;stroke-width:1.0;stroke-dasharray:2.0,2.0;" x1="847" x2="889" y1="358.8613" y2="358.8613"/><line style="stroke:#181818;stroke-width:1.0;stroke-dasharray:2.0,2.0;" x1="889" x2="889" y1="358.8613" y2="371.8613"/><line style="stroke:#181818;stroke-width:1.0;stroke-dasharray:2.0,2.0;" x1="842" x2="889" y1="371.8613" y2="371.8613"/><polygon fill="#181818" points="852,367.8613,842,371.8613,852,375.8613,848,371.8613" style="stroke:#181818;stroke-width:1.0;"/><text fill="#000000" font-family="sans-serif" font-size="13" font-weight="bold" lengthAdjust="spacing" textLength="7" x="854" y="353.5986">9</text><text fill="#000000" font-family="sans-serif" font-size="13" lengthAdjust="spacing" textLength="4" x="865" y="353.5986">&#160;</text><polygon fill="#181818" points="974,394.1523,984,398.1523,974,402.1523,978,398.1523" style="stroke:#181818;stroke-width:1.0;"/><line style="stroke:#181818;stroke-width:1.0;" x1="842" x2="980" y1="398.1523" y2="398.1523"/><text fill="#000000" font-family="sans-serif" font-size="13" font-weight="bold" lengthAdjust="spacing" textLength="14" x="849" y="392.8896">10</text><text fill="#000000" font-family="sans-serif" font-size="13" lengthAdjust="spacing" textLength="102" x="867" y="392.8896">create(apartment)</text><rect fill="#E3E3E3" height="32.6211" rx="2.5" ry="2.5" style="stroke:#181818;stroke-width:0.5;" width="79" x="986" y="374.8613"/><text fill="#000000" font-family="sans-serif" font-size="14" lengthAdjust="spacing" textLength="65" x="993" y="396.9688">Apartment</text><polygon fill="#181818" points="609,437.7734,599,441.7734,609,445.7734,605,441.7734" style="stroke:#181818;stroke-width:1.0;"/><line style="stroke:#181818;stroke-width:1.0;stroke-dasharray:2.0,2.0;" x1="603" x2="836" y1="441.7734" y2="441.7734"/><text fill="#000000" font-family="sans-serif" font-size="13" font-weight="bold" lengthAdjust="spacing" textLength="14" x="615" y="436.5107">11</text><text fill="#000000" font-family="sans-serif" font-size="13" lengthAdjust="spacing" textLength="58" x="633" y="436.5107">apartment</text><line style="stroke:#181818;stroke-width:1.0;" x1="598" x2="645" y1="468.0645" y2="468.0645"/><line style="stroke:#181818;stroke-width:1.0;" x1="645" x2="645" y1="468.0645" y2="481.0645"/><line style="stroke:#181818;stroke-width:1.0;" x1="604" x2="645" y1="481.0645" y2="481.0645"/><polygon fill="#181818" points="614,477.0645,604,481.0645,614,485.0645,610,481.0645" style="stroke:#181818;stroke-width:1.0;"/><text fill="#000000" font-family="sans-serif" font-size="13" font-weight="bold" lengthAdjust="spacing" textLength="14" x="610" y="462.8018">12</text><text fill="#000000" font-family="sans-serif" font-size="13" lengthAdjust="spacing" textLength="169" x="628" y="462.8018">validateApartment(apartment)</text><line style="stroke:#181818;stroke-width:1.0;" x1="603" x2="650" y1="512.3555" y2="512.3555"/><line style="stroke:#181818;stroke-width:1.0;" x1="650" x2="650" y1="512.3555" y2="525.3555"/><line style="stroke:#181818;stroke-width:1.0;" x1="609" x2="650" y1="525.3555" y2="525.3555"/><polygon fill="#181818" points="619,521.3555,609,525.3555,619,529.3555,615,525.3555" style="stroke:#181818;stroke-width:1.0;"/><text fill="#000000" font-family="sans-serif" font-size="13" font-weight="bold" lengthAdjust="spacing" textLength="14" x="615" y="507.0928">13</text><text fill="#000000" font-family="sans-serif" font-size="13" lengthAdjust="spacing" textLength="147" x="633" y="507.0928">addApartment(apartment)</text><line style="stroke:#181818;stroke-width:1.0;stroke-dasharray:2.0,2.0;" x1="608" x2="650" y1="566.6465" y2="566.6465"/><line style="stroke:#181818;stroke-width:1.0;stroke-dasharray:2.0,2.0;" x1="650" x2="650" y1="566.6465" y2="579.6465"/><line style="stroke:#181818;stroke-width:1.0;stroke-dasharray:2.0,2.0;" x1="603" x2="650" y1="579.6465" y2="579.6465"/><polygon fill="#181818" points="613,575.6465,603,579.6465,613,583.6465,609,579.6465" style="stroke:#181818;stroke-width:1.0;"/><text fill="#000000" font-family="sans-serif" font-size="13" font-weight="bold" lengthAdjust="spacing" textLength="14" x="615" y="561.3838">14</text><text fill="#000000" font-family="sans-serif" font-size="13" lengthAdjust="spacing" textLength="4" x="633" y="561.3838">&#160;</text><line style="stroke:#181818;stroke-width:1.0;stroke-dasharray:2.0,2.0;" x1="603" x2="645" y1="610.9375" y2="610.9375"/><line style="stroke:#181818;stroke-width:1.0;stroke-dasharray:2.0,2.0;" x1="645" x2="645" y1="610.9375" y2="623.9375"/><line style="stroke:#181818;stroke-width:1.0;stroke-dasharray:2.0,2.0;" x1="598" x2="645" y1="623.9375" y2="623.9375"/><polygon fill="#181818" points="608,619.9375,598,623.9375,608,627.9375,604,623.9375" style="stroke:#181818;stroke-width:1.0;"/><text fill="#000000" font-family="sans-serif" font-size="13" font-weight="bold" lengthAdjust="spacing" textLength="14" x="610" y="605.6748">15</text><text fill="#000000" font-family="sans-serif" font-size="13" lengthAdjust="spacing" textLength="4" x="628" y="605.6748">&#160;</text><polygon fill="#181818" points="228,646.2285,218,650.2285,228,654.2285,224,650.2285" style="stroke:#181818;stroke-width:1.0;"/><line style="stroke:#181818;stroke-width:1.0;" x1="222" x2="592" y1="650.2285" y2="650.2285"/><text fill="#000000" font-family="sans-serif" font-size="13" font-weight="bold" lengthAdjust="spacing" textLength="14" x="234" y="644.9658">16</text><text fill="#000000" font-family="sans-serif" font-size="13" lengthAdjust="spacing" textLength="58" x="252" y="644.9658">apartment</text><!--SRC=[fPD1JuGm48Nl_HKJBwuccXXl74o8UZ2HBC4zUgamxZP2Iyhiwlvx2oobkrHWOs_0lE_Dp2lLbv0brxo0GacLRhGg44XlaLNsIydJBxx6Dzhd21fJudATkmNLXcVgMyWrVFAyGiRubfJS5X-euVxsZh7BZSWGFfMY3_N363Co4gaekIIu248frLQcMA2aHoL9gpn7VG6yWiTLydfIdM2fAa5A2woQ6ljY_oRgnepriKGxYdSv1CIluUgqgLAh4ZNjUtZmBkF1orQVi5DvM3_LypG5OPmiOyO6LHqlucLv63YEPf7w1JE0cuTcJm6a6ZbXHrtmJlgqMbwPklRmbCJEbBMxjQ_hfvhasIO4i4PwaPK9FiL5ZtAFnVhYy2fyJZTs5ZSqhpp3yosx8Ul4swc6aKxDrzuMNqcBFKnWyCCxv9Svanp3RRi9d1jkSoTXv1XcJOu22rgfPqc2zh08lUpnhKGJTj713kXWyyS4_tPfR4Qht7r7R6nFRTVDJtTztKNGDturratNInA05R0pcfgJdc7lU2uoexAPpMpl-Ax0nEdzU9PvhQO8vxYvhetjfCBTtZp-FFOnTpJknFdpfmC_0Vy2]--></g></svg>