<?xml version="1.0" encoding="us-ascii" standalone="no"?><svg xmlns="http://www.w3.org/2000/svg" xmlns:xlink="http://www.w3.org/1999/xlink" contentStyleType="text/css" height="683px" preserveAspectRatio="none" style="width:1924px;height:683px;background:#FFFFFF;" version="1.1" viewBox="0 0 1924 683" width="1924px" zoomAndPan="magnify"><defs/><g><rect fill="#FFFFFF" height="533.4922" style="stroke:#181818;stroke-width:1.0;" width="10" x="581" y="81.8047"/><rect fill="#FFFFFF" height="28.5234" style="stroke:#181818;stroke-width:1.0;" width="10" x="727" y="110.3281"/><rect fill="#FFFFFF" height="28.5234" style="stroke:#181818;stroke-width:1.0;" width="10" x="834" y="167.375"/><rect fill="#FFFFFF" height="362.3516" style="stroke:#181818;stroke-width:1.0;" width="10" x="1179" y="224.4219"/><rect fill="#FFFFFF" height="122.5703" style="stroke:#181818;stroke-width:1.0;" width="10" x="1184" y="371.6328"/><rect fill="#FFFFFF" height="39.5234" style="stroke:#181818;stroke-width:1.0;" width="10" x="1189" y="413.1563"/><rect fill="#FFFFFF" height="30.6406" style="stroke:#181818;stroke-width:1.0;" width="10" x="1691.5" y="304.4688"/><rect fill="#FFFFFF" height="28.5234" style="stroke:#181818;stroke-width:1.0;" width="10" x="1834.5" y="529.7266"/><line style="stroke:#181818;stroke-width:0.5;stroke-dasharray:5.0,5.0;" x1="585.5" x2="585.5" y1="51.2813" y2="633.2969"/><line style="stroke:#181818;stroke-width:0.5;stroke-dasharray:5.0,5.0;" x1="731.5" x2="731.5" y1="51.2813" y2="633.2969"/><line style="stroke:#181818;stroke-width:0.5;stroke-dasharray:5.0,5.0;" x1="838.5" x2="838.5" y1="51.2813" y2="633.2969"/><line style="stroke:#181818;stroke-width:0.5;stroke-dasharray:5.0,5.0;" x1="1184" x2="1184" y1="51.2813" y2="633.2969"/><line style="stroke:#181818;stroke-width:0.5;stroke-dasharray:5.0,5.0;" x1="1696" x2="1696" y1="304.2656" y2="633.2969"/><line style="stroke:#181818;stroke-width:0.5;stroke-dasharray:5.0,5.0;" x1="1839" x2="1839" y1="51.2813" y2="633.2969"/><rect fill="#E3E3E3" height="29.6406" rx="2.5" ry="2.5" style="stroke:#181818;stroke-width:0.5;" width="175" x="498.5" y="20.6406"/><text fill="#000000" font-family="sans-serif" font-size="14" lengthAdjust="spacing" textLength="161" x="505.5" y="40.3145">:AnnouncementController</text><rect fill="#E3E3E3" height="29.6406" rx="2.5" ry="2.5" style="stroke:#181818;stroke-width:0.5;" width="175" x="498.5" y="632.2969"/><text fill="#000000" font-family="sans-serif" font-size="14" lengthAdjust="spacing" textLength="161" x="505.5" y="651.9707">:AnnouncementController</text><rect fill="#E3E3E3" height="29.6406" rx="2.5" ry="2.5" style="stroke:#181818;stroke-width:0.5;" width="97" x="683.5" y="20.6406"/><text fill="#000000" font-family="sans-serif" font-size="14" lengthAdjust="spacing" textLength="83" x="690.5" y="40.3145">:Repositories</text><rect fill="#E3E3E3" height="29.6406" rx="2.5" ry="2.5" style="stroke:#181818;stroke-width:0.5;" width="97" x="683.5" y="632.2969"/><text fill="#000000" font-family="sans-serif" font-size="14" lengthAdjust="spacing" textLength="83" x="690.5" y="651.9707">:Repositories</text><rect fill="#E3E3E3" height="45.2813" rx="2.5" ry="2.5" style="stroke:#181818;stroke-width:0.5;" width="97" x="790.5" y="5"/><text fill="#000000" font-family="sans-serif" font-size="14" lengthAdjust="spacing" textLength="74" x="802" y="24.6738">repositories</text><text fill="#000000" font-family="sans-serif" font-size="14" lengthAdjust="spacing" textLength="83" x="797.5" y="40.3145">:Repositories</text><rect fill="#E3E3E3" height="45.2813" rx="2.5" ry="2.5" style="stroke:#181818;stroke-width:0.5;" width="97" x="790.5" y="632.2969"/><text fill="#000000" font-family="sans-serif" font-size="14" lengthAdjust="spacing" textLength="74" x="802" y="651.9707">repositories</text><text fill="#000000" font-family="sans-serif" font-size="14" lengthAdjust="spacing" textLength="83" x="797.5" y="667.6113">:Repositories</text><rect fill="#E3E3E3" height="45.2813" rx="2.5" ry="2.5" style="stroke:#181818;stroke-width:0.5;" width="180" x="1094" y="5"/><text fill="#000000" font-family="sans-serif" font-size="14" lengthAdjust="spacing" textLength="166" x="1101" y="24.6738">announcementRepository:</text><text fill="#000000" font-family="sans-serif" font-size="14" lengthAdjust="spacing" textLength="163" x="1102.5" y="40.3145">AnnouncementRepository</text><rect fill="#E3E3E3" height="45.2813" rx="2.5" ry="2.5" style="stroke:#181818;stroke-width:0.5;" width="180" x="1094" y="632.2969"/><text fill="#000000" font-family="sans-serif" font-size="14" lengthAdjust="spacing" textLength="166" x="1101" y="651.9707">announcementRepository:</text><text fill="#000000" font-family="sans-serif" font-size="14" lengthAdjust="spacing" textLength="163" x="1102.5" y="667.6113">AnnouncementRepository</text><rect fill="#E3E3E3" height="29.6406" rx="2.5" ry="2.5" style="stroke:#181818;stroke-width:0.5;" width="109" x="1642" y="632.2969"/><text fill="#000000" font-family="sans-serif" font-size="14" lengthAdjust="spacing" textLength="95" x="1649" y="651.9707">Announcement</text><rect fill="#E3E3E3" height="29.6406" rx="2.5" ry="2.5" style="stroke:#181818;stroke-width:0.5;" width="157" x="1761" y="20.6406"/><text fill="#000000" font-family="sans-serif" font-size="14" lengthAdjust="spacing" textLength="143" x="1768" y="40.3145">AnnouncementMapper</text><rect fill="#E3E3E3" height="29.6406" rx="2.5" ry="2.5" style="stroke:#181818;stroke-width:0.5;" width="157" x="1761" y="632.2969"/><text fill="#000000" font-family="sans-serif" font-size="14" lengthAdjust="spacing" textLength="143" x="1768" y="651.9707">AnnouncementMapper</text><rect fill="#FFFFFF" height="533.4922" style="stroke:#181818;stroke-width:1.0;" width="10" x="581" y="81.8047"/><rect fill="#FFFFFF" height="28.5234" style="stroke:#181818;stroke-width:1.0;" width="10" x="727" y="110.3281"/><rect fill="#FFFFFF" height="28.5234" style="stroke:#181818;stroke-width:1.0;" width="10" x="834" y="167.375"/><rect fill="#FFFFFF" height="362.3516" style="stroke:#181818;stroke-width:1.0;" width="10" x="1179" y="224.4219"/><rect fill="#FFFFFF" height="122.5703" style="stroke:#181818;stroke-width:1.0;" width="10" x="1184" y="371.6328"/><rect fill="#FFFFFF" height="39.5234" style="stroke:#181818;stroke-width:1.0;" width="10" x="1189" y="413.1563"/><rect fill="#FFFFFF" height="30.6406" style="stroke:#181818;stroke-width:1.0;" width="10" x="1691.5" y="304.4688"/><rect fill="#FFFFFF" height="28.5234" style="stroke:#181818;stroke-width:1.0;" width="10" x="1834.5" y="529.7266"/><polygon fill="#181818" points="569,77.8047,579,81.8047,569,85.8047,573,81.8047" style="stroke:#181818;stroke-width:1.0;"/><line style="stroke:#181818;stroke-width:1.0;" x1="0" x2="575" y1="81.8047" y2="81.8047"/><text fill="#000000" font-family="sans-serif" font-size="13" font-weight="bold" lengthAdjust="spacing" textLength="14" x="7" y="77.0498">59</text><text fill="#000000" font-family="sans-serif" font-size="13" lengthAdjust="spacing" textLength="544" x="25" y="77.0498">createAnnouncement(date,commission,businessTypeDescription,property,rentDuration, agent)</text><polygon fill="#181818" points="715,106.3281,725,110.3281,715,114.3281,719,110.3281" style="stroke:#181818;stroke-width:1.0;"/><line style="stroke:#181818;stroke-width:1.0;" x1="591" x2="721" y1="110.3281" y2="110.3281"/><text fill="#000000" font-family="sans-serif" font-size="13" font-weight="bold" lengthAdjust="spacing" textLength="25" x="598" y="105.5732">60.1</text><text fill="#000000" font-family="sans-serif" font-size="13" lengthAdjust="spacing" textLength="75" x="627" y="105.5732">getInstance()</text><polygon fill="#181818" points="602,134.8516,592,138.8516,602,142.8516,598,138.8516" style="stroke:#181818;stroke-width:1.0;"/><line style="stroke:#181818;stroke-width:1.0;stroke-dasharray:2.0,2.0;" x1="596" x2="731" y1="138.8516" y2="138.8516"/><text fill="#000000" font-family="sans-serif" font-size="13" font-weight="bold" lengthAdjust="spacing" textLength="25" x="608" y="134.0967">60.2</text><text fill="#000000" font-family="sans-serif" font-size="13" lengthAdjust="spacing" textLength="67" x="637" y="134.0967">repositories</text><polygon fill="#181818" points="822,163.375,832,167.375,822,171.375,826,167.375" style="stroke:#181818;stroke-width:1.0;"/><line style="stroke:#181818;stroke-width:1.0;" x1="591" x2="828" y1="167.375" y2="167.375"/><text fill="#000000" font-family="sans-serif" font-size="13" font-weight="bold" lengthAdjust="spacing" textLength="25" x="598" y="162.6201">60.3</text><text fill="#000000" font-family="sans-serif" font-size="13" lengthAdjust="spacing" textLength="175" x="627" y="162.6201">getAnnouncementRepository()</text><polygon fill="#181818" points="602,191.8984,592,195.8984,602,199.8984,598,195.8984" style="stroke:#181818;stroke-width:1.0;"/><line style="stroke:#181818;stroke-width:1.0;" x1="596" x2="838" y1="195.8984" y2="195.8984"/><text fill="#000000" font-family="sans-serif" font-size="13" font-weight="bold" lengthAdjust="spacing" textLength="25" x="608" y="191.1436">60.4</text><text fill="#000000" font-family="sans-serif" font-size="13" lengthAdjust="spacing" textLength="147" x="637" y="191.1436">announcementRepository</text><polygon fill="#181818" points="1167,220.4219,1177,224.4219,1167,228.4219,1171,224.4219" style="stroke:#181818;stroke-width:1.0;"/><line style="stroke:#181818;stroke-width:1.0;" x1="591" x2="1173" y1="224.4219" y2="224.4219"/><text fill="#000000" font-family="sans-serif" font-size="13" font-weight="bold" lengthAdjust="spacing" textLength="25" x="598" y="219.667">60.5</text><text fill="#000000" font-family="sans-serif" font-size="13" lengthAdjust="spacing" textLength="540" x="627" y="219.667">createAnnouncement(date,commission,businessTypeDescription,property,rentDuration,agent)</text><line style="stroke:#181818;stroke-width:1.0;stroke-dasharray:2.0,2.0;" x1="1189" x2="1231" y1="252.9453" y2="252.9453"/><line style="stroke:#181818;stroke-width:1.0;stroke-dasharray:2.0,2.0;" x1="1231" x2="1231" y1="252.9453" y2="265.9453"/><line style="stroke:#181818;stroke-width:1.0;stroke-dasharray:2.0,2.0;" x1="1190" x2="1231" y1="265.9453" y2="265.9453"/><polygon fill="#181818" points="1200,261.9453,1190,265.9453,1200,269.9453,1196,265.9453" style="stroke:#181818;stroke-width:1.0;"/><text fill="#000000" font-family="sans-serif" font-size="13" font-weight="bold" lengthAdjust="spacing" textLength="25" x="1196" y="248.1904">51.1</text><text fill="#000000" font-family="sans-serif" font-size="13" lengthAdjust="spacing" textLength="334" x="1225" y="248.1904">getBusinessTypeByDescription(businessTypeDescription)</text><polygon fill="#181818" points="1630,290.4688,1640,294.4688,1630,298.4688,1634,294.4688" style="stroke:#181818;stroke-width:1.0;"/><line style="stroke:#181818;stroke-width:1.0;" x1="1189" x2="1636" y1="294.4688" y2="294.4688"/><text fill="#000000" font-family="sans-serif" font-size="13" font-weight="bold" lengthAdjust="spacing" textLength="25" x="1196" y="289.7139">51.2</text><text fill="#000000" font-family="sans-serif" font-size="13" lengthAdjust="spacing" textLength="400" x="1225" y="289.7139">create(date, commission,businessType,property, rentDuration, agent)</text><rect fill="#E3E3E3" height="29.6406" rx="2.5" ry="2.5" style="stroke:#181818;stroke-width:0.5;" width="109" x="1642" y="273.9453"/><text fill="#000000" font-family="sans-serif" font-size="14" lengthAdjust="spacing" textLength="95" x="1649" y="293.6191">Announcement</text><polygon fill="#181818" points="1200,331.1094,1190,335.1094,1200,339.1094,1196,335.1094" style="stroke:#181818;stroke-width:1.0;"/><line style="stroke:#181818;stroke-width:1.0;stroke-dasharray:2.0,2.0;" x1="1194" x2="1695.5" y1="335.1094" y2="335.1094"/><text fill="#000000" font-family="sans-serif" font-size="13" font-weight="bold" lengthAdjust="spacing" textLength="25" x="1206" y="330.3545">51.3</text><text fill="#000000" font-family="sans-serif" font-size="13" lengthAdjust="spacing" textLength="85" x="1235" y="330.3545">announcement</text><line style="stroke:#181818;stroke-width:1.0;" x1="1189" x2="1236" y1="358.6328" y2="358.6328"/><line style="stroke:#181818;stroke-width:1.0;" x1="1236" x2="1236" y1="358.6328" y2="371.6328"/><line style="stroke:#181818;stroke-width:1.0;" x1="1195" x2="1236" y1="371.6328" y2="371.6328"/><polygon fill="#181818" points="1205,367.6328,1195,371.6328,1205,375.6328,1201,371.6328" style="stroke:#181818;stroke-width:1.0;"/><text fill="#000000" font-family="sans-serif" font-size="13" font-weight="bold" lengthAdjust="spacing" textLength="25" x="1201" y="353.8779">51.4</text><text fill="#000000" font-family="sans-serif" font-size="13" lengthAdjust="spacing" textLength="223" x="1230" y="353.8779">validateAnnouncement(announcement)</text><line style="stroke:#181818;stroke-width:1.0;" x1="1194" x2="1241" y1="400.1563" y2="400.1563"/><line style="stroke:#181818;stroke-width:1.0;" x1="1241" x2="1241" y1="400.1563" y2="413.1563"/><line style="stroke:#181818;stroke-width:1.0;" x1="1200" x2="1241" y1="413.1563" y2="413.1563"/><polygon fill="#181818" points="1210,409.1563,1200,413.1563,1210,417.1563,1206,413.1563" style="stroke:#181818;stroke-width:1.0;"/><text fill="#000000" font-family="sans-serif" font-size="13" font-weight="bold" lengthAdjust="spacing" textLength="25" x="1206" y="395.4014">51.5</text><text fill="#000000" font-family="sans-serif" font-size="13" lengthAdjust="spacing" textLength="201" x="1235" y="395.4014">addAnnouncement(announcement)</text><line style="stroke:#181818;stroke-width:1.0;stroke-dasharray:2.0,2.0;" x1="1199" x2="1241" y1="451.6797" y2="451.6797"/><line style="stroke:#181818;stroke-width:1.0;stroke-dasharray:2.0,2.0;" x1="1241" x2="1241" y1="451.6797" y2="464.6797"/><line style="stroke:#181818;stroke-width:1.0;stroke-dasharray:2.0,2.0;" x1="1194" x2="1241" y1="464.6797" y2="464.6797"/><polygon fill="#181818" points="1204,460.6797,1194,464.6797,1204,468.6797,1200,464.6797" style="stroke:#181818;stroke-width:1.0;"/><text fill="#000000" font-family="sans-serif" font-size="13" font-weight="bold" lengthAdjust="spacing" textLength="25" x="1206" y="446.9248">51.6</text><text fill="#000000" font-family="sans-serif" font-size="13" lengthAdjust="spacing" textLength="4" x="1235" y="446.9248">&#160;</text><line style="stroke:#181818;stroke-width:1.0;stroke-dasharray:2.0,2.0;" x1="1194" x2="1236" y1="493.2031" y2="493.2031"/><line style="stroke:#181818;stroke-width:1.0;stroke-dasharray:2.0,2.0;" x1="1236" x2="1236" y1="493.2031" y2="506.2031"/><line style="stroke:#181818;stroke-width:1.0;stroke-dasharray:2.0,2.0;" x1="1189" x2="1236" y1="506.2031" y2="506.2031"/><polygon fill="#181818" points="1199,502.2031,1189,506.2031,1199,510.2031,1195,506.2031" style="stroke:#181818;stroke-width:1.0;"/><text fill="#000000" font-family="sans-serif" font-size="13" font-weight="bold" lengthAdjust="spacing" textLength="25" x="1201" y="488.4482">51.7</text><text fill="#000000" font-family="sans-serif" font-size="13" lengthAdjust="spacing" textLength="4" x="1230" y="488.4482">&#160;</text><polygon fill="#181818" points="1822.5,525.7266,1832.5,529.7266,1822.5,533.7266,1826.5,529.7266" style="stroke:#181818;stroke-width:1.0;"/><line style="stroke:#181818;stroke-width:1.0;" x1="1189" x2="1828.5" y1="529.7266" y2="529.7266"/><text fill="#000000" font-family="sans-serif" font-size="13" font-weight="bold" lengthAdjust="spacing" textLength="25" x="1196" y="524.9717">51.8</text><text fill="#000000" font-family="sans-serif" font-size="13" lengthAdjust="spacing" textLength="130" x="1225" y="524.9717">toDTO(announcement)</text><polygon fill="#181818" points="1200,554.25,1190,558.25,1200,562.25,1196,558.25" style="stroke:#181818;stroke-width:1.0;"/><line style="stroke:#181818;stroke-width:1.0;stroke-dasharray:2.0,2.0;" x1="1194" x2="1838.5" y1="558.25" y2="558.25"/><text fill="#000000" font-family="sans-serif" font-size="13" font-weight="bold" lengthAdjust="spacing" textLength="25" x="1206" y="553.4951">51.9</text><text fill="#000000" font-family="sans-serif" font-size="13" lengthAdjust="spacing" textLength="111" x="1235" y="553.4951">announcementDTO</text><polygon fill="#181818" points="602,582.7734,592,586.7734,602,590.7734,598,586.7734" style="stroke:#181818;stroke-width:1.0;"/><line style="stroke:#181818;stroke-width:1.0;stroke-dasharray:2.0,2.0;" x1="596" x2="1183" y1="586.7734" y2="586.7734"/><text fill="#000000" font-family="sans-serif" font-size="13" font-weight="bold" lengthAdjust="spacing" textLength="32" x="608" y="582.0186">51.10</text><text fill="#000000" font-family="sans-serif" font-size="13" lengthAdjust="spacing" textLength="111" x="644" y="582.0186">announcementDTO</text><polygon fill="#181818" points="11,611.2969,1,615.2969,11,619.2969,7,615.2969" style="stroke:#181818;stroke-width:1.0;"/><line style="stroke:#181818;stroke-width:1.0;stroke-dasharray:2.0,2.0;" x1="5" x2="585" y1="615.2969" y2="615.2969"/><text fill="#000000" font-family="sans-serif" font-size="13" font-weight="bold" lengthAdjust="spacing" textLength="32" x="17" y="610.542">51.11</text><text fill="#000000" font-family="sans-serif" font-size="13" lengthAdjust="spacing" textLength="111" x="53" y="610.542">announcementDTO</text><!--SRC=[jLLHRzem47xthx3wCgXW6fCsgT5KAIqlanesfJpsnJXNi9hObkrqox-V4mVY13C2Kls2EDzztzrtNnBznhWaYXIu45pGdH85OADAGFfm8mbz8rjuDbKEM04rX6zpFq7lI2R-CBx5hoJNW10fZU1biG65ltz5wDEEPO1VXJ0RyHVP6iCeauGRV1F5d8kIKoY0cqV1ZH9v3ke64uqVr-aJ6gId88LcHYW6kaaw1AfdLhTbYVibogjuuSS0lv_YTR-2U2rryD4BZuCN3KgSzZ7yL9UmEfsG42dRcUC48Omz_RxTsV_spEyRFI9C5H03Vlaaiu4P5KN1j6Q2ppQbPXoqNbSIbg2fOjBKSQc4vJ7LJDcgPQb84yLsjznCaUCXrB1tYzUgtmJzTNxvl729zQbpwiu2Iy0HteBvoRLr2uN9j2lgA4Axy_92gFE33lvUlQ8CHi3l-wvtxneDhxRNzb7xZNC22GwsRTJ2X_qKAXmURvWWsNwEEFq0NxIsE3s_zRn_wvjsuRiaVEAqMQRzYQp-3rvh3vNNtEH4qzCn-1P-TNkxryRfWKy8qgc0Wu_76RfEbHKwszgg7Rtl3JJU3JK96gc0PNadESk6xl2fBnWl7MFSZffasVMiLp3th7NXCpP-DeUEHiEY4M8b4JPYkVvrxMAIyuP8zazSptUMynBh9KVEQnLnx-KXClglBaFY7_DvwBLvtAA7qtwf0X-hXGl_0m00]--></g></svg>