<?xml version="1.0" encoding="us-ascii" standalone="no"?><svg xmlns="http://www.w3.org/2000/svg" xmlns:xlink="http://www.w3.org/1999/xlink" contentStyleType="text/css" height="667px" preserveAspectRatio="none" style="width:1644px;height:667px;background:#FFFFFF;" version="1.1" viewBox="0 0 1644 667" width="1644px" zoomAndPan="magnify"><defs/><g><rect fill="#FFFFFF" height="502.4043" style="stroke:#181818;stroke-width:1.0;" width="10" x="281" y="90.5332"/><rect fill="#FFFFFF" height="31.291" style="stroke:#181818;stroke-width:1.0;" width="10" x="427" y="121.8242"/><rect fill="#FFFFFF" height="31.291" style="stroke:#181818;stroke-width:1.0;" width="10" x="534" y="184.4063"/><rect fill="#FFFFFF" height="354.9492" style="stroke:#181818;stroke-width:1.0;" width="10" x="682.5" y="246.9883"/><rect fill="#FFFFFF" height="130.873" style="stroke:#181818;stroke-width:1.0;" width="10" x="687.5" y="392.4824"/><rect fill="#FFFFFF" height="42.291" style="stroke:#181818;stroke-width:1.0;" width="10" x="692.5" y="436.7734"/><rect fill="#FFFFFF" height="74.9121" style="stroke:#181818;stroke-width:1.0;" width="10" x="958.5" y="278.2793"/><line style="stroke:#181818;stroke-width:0.5;stroke-dasharray:5.0,5.0;" x1="285.5" x2="285.5" y1="57.2422" y2="610.9375"/><line style="stroke:#181818;stroke-width:0.5;stroke-dasharray:5.0,5.0;" x1="431.5" x2="431.5" y1="57.2422" y2="610.9375"/><line style="stroke:#181818;stroke-width:0.5;stroke-dasharray:5.0,5.0;" x1="538.5" x2="538.5" y1="57.2422" y2="610.9375"/><line style="stroke:#181818;stroke-width:0.5;stroke-dasharray:5.0,5.0;" x1="687.5" x2="687.5" y1="57.2422" y2="610.9375"/><line style="stroke:#181818;stroke-width:0.5;stroke-dasharray:5.0,5.0;" x1="963" x2="963" y1="57.2422" y2="610.9375"/><line style="stroke:#181818;stroke-width:0.5;stroke-dasharray:5.0,5.0;" x1="1583.5" x2="1583.5" y1="318.0898" y2="610.9375"/><rect fill="#E3E3E3" height="32.6211" rx="2.5" ry="2.5" style="stroke:#181818;stroke-width:0.5;" width="175" x="198.5" y="23.6211"/><text fill="#000000" font-family="sans-serif" font-size="14" lengthAdjust="spacing" textLength="161" x="205.5" y="45.7285">:AnnouncementController</text><rect fill="#E3E3E3" height="32.6211" rx="2.5" ry="2.5" style="stroke:#181818;stroke-width:0.5;" width="175" x="198.5" y="609.9375"/><text fill="#000000" font-family="sans-serif" font-size="14" lengthAdjust="spacing" textLength="161" x="205.5" y="632.0449">:AnnouncementController</text><rect fill="#E3E3E3" height="32.6211" rx="2.5" ry="2.5" style="stroke:#181818;stroke-width:0.5;" width="97" x="383.5" y="23.6211"/><text fill="#000000" font-family="sans-serif" font-size="14" lengthAdjust="spacing" textLength="83" x="390.5" y="45.7285">:Repositories</text><rect fill="#E3E3E3" height="32.6211" rx="2.5" ry="2.5" style="stroke:#181818;stroke-width:0.5;" width="97" x="383.5" y="609.9375"/><text fill="#000000" font-family="sans-serif" font-size="14" lengthAdjust="spacing" textLength="83" x="390.5" y="632.0449">:Repositories</text><rect fill="#E3E3E3" height="51.2422" rx="2.5" ry="2.5" style="stroke:#181818;stroke-width:0.5;" width="97" x="490.5" y="5"/><text fill="#000000" font-family="sans-serif" font-size="14" lengthAdjust="spacing" textLength="74" x="502" y="27.1074">repositories</text><text fill="#000000" font-family="sans-serif" font-size="14" lengthAdjust="spacing" textLength="83" x="497.5" y="45.7285">:Repositories</text><rect fill="#E3E3E3" height="51.2422" rx="2.5" ry="2.5" style="stroke:#181818;stroke-width:0.5;" width="97" x="490.5" y="609.9375"/><text fill="#000000" font-family="sans-serif" font-size="14" lengthAdjust="spacing" textLength="74" x="502" y="632.0449">repositories</text><text fill="#000000" font-family="sans-serif" font-size="14" lengthAdjust="spacing" textLength="83" x="497.5" y="650.666">:Repositories</text><rect fill="#E3E3E3" height="51.2422" rx="2.5" ry="2.5" style="stroke:#181818;stroke-width:0.5;" width="180" x="597.5" y="5"/><text fill="#000000" font-family="sans-serif" font-size="14" lengthAdjust="spacing" textLength="166" x="604.5" y="27.1074">announcementRepository:</text><text fill="#000000" font-family="sans-serif" font-size="14" lengthAdjust="spacing" textLength="163" x="606" y="45.7285">AnnouncementRepository</text><rect fill="#E3E3E3" height="51.2422" rx="2.5" ry="2.5" style="stroke:#181818;stroke-width:0.5;" width="180" x="597.5" y="609.9375"/><text fill="#000000" font-family="sans-serif" font-size="14" lengthAdjust="spacing" textLength="166" x="604.5" y="632.0449">announcementRepository:</text><text fill="#000000" font-family="sans-serif" font-size="14" lengthAdjust="spacing" textLength="163" x="606" y="650.666">AnnouncementRepository</text><rect fill="#E3E3E3" height="32.6211" rx="2.5" ry="2.5" style="stroke:#181818;stroke-width:0.5;" width="157" x="885" y="23.6211"/><text fill="#000000" font-family="sans-serif" font-size="14" lengthAdjust="spacing" textLength="143" x="892" y="45.7285">AnnouncementMapper</text><rect fill="#E3E3E3" height="32.6211" rx="2.5" ry="2.5" style="stroke:#181818;stroke-width:0.5;" width="157" x="885" y="609.9375"/><text fill="#000000" font-family="sans-serif" font-size="14" lengthAdjust="spacing" textLength="143" x="892" y="632.0449">AnnouncementMapper</text><rect fill="#E3E3E3" height="32.6211" rx="2.5" ry="2.5" style="stroke:#181818;stroke-width:0.5;" width="109" x="1529.5" y="609.9375"/><text fill="#000000" font-family="sans-serif" font-size="14" lengthAdjust="spacing" textLength="95" x="1536.5" y="632.0449">Announcement</text><rect fill="#FFFFFF" height="502.4043" style="stroke:#181818;stroke-width:1.0;" width="10" x="281" y="90.5332"/><rect fill="#FFFFFF" height="31.291" style="stroke:#181818;stroke-width:1.0;" width="10" x="427" y="121.8242"/><rect fill="#FFFFFF" height="31.291" style="stroke:#181818;stroke-width:1.0;" width="10" x="534" y="184.4063"/><rect fill="#FFFFFF" height="354.9492" style="stroke:#181818;stroke-width:1.0;" width="10" x="682.5" y="246.9883"/><rect fill="#FFFFFF" height="130.873" style="stroke:#181818;stroke-width:1.0;" width="10" x="687.5" y="392.4824"/><rect fill="#FFFFFF" height="42.291" style="stroke:#181818;stroke-width:1.0;" width="10" x="692.5" y="436.7734"/><rect fill="#FFFFFF" height="74.9121" style="stroke:#181818;stroke-width:1.0;" width="10" x="958.5" y="278.2793"/><polygon fill="#181818" points="269,86.5332,279,90.5332,269,94.5332,273,90.5332" style="stroke:#181818;stroke-width:1.0;"/><line style="stroke:#181818;stroke-width:1.0;" x1="0" x2="275" y1="90.5332" y2="90.5332"/><text fill="#000000" font-family="sans-serif" font-size="13" font-weight="bold" lengthAdjust="spacing" textLength="14" x="7" y="85.2705">59</text><text fill="#000000" font-family="sans-serif" font-size="13" lengthAdjust="spacing" textLength="244" x="25" y="85.2705">createAnnouncement(AnnouncementDTO)</text><polygon fill="#181818" points="415,117.8242,425,121.8242,415,125.8242,419,121.8242" style="stroke:#181818;stroke-width:1.0;"/><line style="stroke:#181818;stroke-width:1.0;" x1="291" x2="421" y1="121.8242" y2="121.8242"/><text fill="#000000" font-family="sans-serif" font-size="13" font-weight="bold" lengthAdjust="spacing" textLength="25" x="298" y="116.5615">60.1</text><text fill="#000000" font-family="sans-serif" font-size="13" lengthAdjust="spacing" textLength="75" x="327" y="116.5615">getInstance()</text><polygon fill="#181818" points="302,149.1152,292,153.1152,302,157.1152,298,153.1152" style="stroke:#181818;stroke-width:1.0;"/><line style="stroke:#181818;stroke-width:1.0;stroke-dasharray:2.0,2.0;" x1="296" x2="431" y1="153.1152" y2="153.1152"/><text fill="#000000" font-family="sans-serif" font-size="13" font-weight="bold" lengthAdjust="spacing" textLength="25" x="308" y="147.8525">60.2</text><text fill="#000000" font-family="sans-serif" font-size="13" lengthAdjust="spacing" textLength="67" x="337" y="147.8525">repositories</text><polygon fill="#181818" points="522,180.4063,532,184.4063,522,188.4063,526,184.4063" style="stroke:#181818;stroke-width:1.0;"/><line style="stroke:#181818;stroke-width:1.0;" x1="291" x2="528" y1="184.4063" y2="184.4063"/><text fill="#000000" font-family="sans-serif" font-size="13" font-weight="bold" lengthAdjust="spacing" textLength="25" x="298" y="179.1436">60.3</text><text fill="#000000" font-family="sans-serif" font-size="13" lengthAdjust="spacing" textLength="175" x="327" y="179.1436">getAnnouncementRepository()</text><polygon fill="#181818" points="302,211.6973,292,215.6973,302,219.6973,298,215.6973" style="stroke:#181818;stroke-width:1.0;"/><line style="stroke:#181818;stroke-width:1.0;" x1="296" x2="538" y1="215.6973" y2="215.6973"/><text fill="#000000" font-family="sans-serif" font-size="13" font-weight="bold" lengthAdjust="spacing" textLength="25" x="308" y="210.4346">60.4</text><text fill="#000000" font-family="sans-serif" font-size="13" lengthAdjust="spacing" textLength="147" x="337" y="210.4346">announcementRepository</text><polygon fill="#181818" points="670.5,242.9883,680.5,246.9883,670.5,250.9883,674.5,246.9883" style="stroke:#181818;stroke-width:1.0;"/><line style="stroke:#181818;stroke-width:1.0;" x1="291" x2="676.5" y1="246.9883" y2="246.9883"/><text fill="#000000" font-family="sans-serif" font-size="13" font-weight="bold" lengthAdjust="spacing" textLength="25" x="298" y="241.7256">60.5</text><text fill="#000000" font-family="sans-serif" font-size="13" lengthAdjust="spacing" textLength="244" x="327" y="241.7256">createAnnouncement(AnnouncementDTO)</text><polygon fill="#181818" points="946.5,274.2793,956.5,278.2793,946.5,282.2793,950.5,278.2793" style="stroke:#181818;stroke-width:1.0;"/><line style="stroke:#181818;stroke-width:1.0;" x1="692.5" x2="952.5" y1="278.2793" y2="278.2793"/><text fill="#000000" font-family="sans-serif" font-size="13" font-weight="bold" lengthAdjust="spacing" textLength="25" x="699.5" y="273.0166">51.1</text><text fill="#000000" font-family="sans-serif" font-size="13" lengthAdjust="spacing" textLength="166" x="728.5" y="273.0166">toEntity(AnnouncementDTO)</text><polygon fill="#181818" points="1517.5,305.5703,1527.5,309.5703,1517.5,313.5703,1521.5,309.5703" style="stroke:#181818;stroke-width:1.0;"/><line style="stroke:#181818;stroke-width:1.0;" x1="968.5" x2="1523.5" y1="309.5703" y2="309.5703"/><text fill="#000000" font-family="sans-serif" font-size="13" font-weight="bold" lengthAdjust="spacing" textLength="25" x="975.5" y="304.3076">51.2</text><text fill="#000000" font-family="sans-serif" font-size="13" lengthAdjust="spacing" textLength="508" x="1004.5" y="304.3076">create(agent, dateTime, Commission,businessType,property, RentDuration, ListedPrice)</text><rect fill="#E3E3E3" height="32.6211" rx="2.5" ry="2.5" style="stroke:#181818;stroke-width:0.5;" width="109" x="1529.5" y="286.2793"/><text fill="#000000" font-family="sans-serif" font-size="14" lengthAdjust="spacing" textLength="95" x="1536.5" y="308.3867">Announcement</text><polygon fill="#181818" points="703.5,349.1914,693.5,353.1914,703.5,357.1914,699.5,353.1914" style="stroke:#181818;stroke-width:1.0;"/><line style="stroke:#181818;stroke-width:1.0;stroke-dasharray:2.0,2.0;" x1="697.5" x2="962.5" y1="353.1914" y2="353.1914"/><text fill="#000000" font-family="sans-serif" font-size="13" font-weight="bold" lengthAdjust="spacing" textLength="25" x="709.5" y="347.9287">51.3</text><text fill="#000000" font-family="sans-serif" font-size="13" lengthAdjust="spacing" textLength="85" x="738.5" y="347.9287">announcement</text><line style="stroke:#181818;stroke-width:1.0;" x1="692.5" x2="739.5" y1="379.4824" y2="379.4824"/><line style="stroke:#181818;stroke-width:1.0;" x1="739.5" x2="739.5" y1="379.4824" y2="392.4824"/><line style="stroke:#181818;stroke-width:1.0;" x1="698.5" x2="739.5" y1="392.4824" y2="392.4824"/><polygon fill="#181818" points="708.5,388.4824,698.5,392.4824,708.5,396.4824,704.5,392.4824" style="stroke:#181818;stroke-width:1.0;"/><text fill="#000000" font-family="sans-serif" font-size="13" font-weight="bold" lengthAdjust="spacing" textLength="25" x="704.5" y="374.2197">51.4</text><text fill="#000000" font-family="sans-serif" font-size="13" lengthAdjust="spacing" textLength="223" x="733.5" y="374.2197">validateAnnouncement(announcement)</text><line style="stroke:#181818;stroke-width:1.0;" x1="697.5" x2="744.5" y1="423.7734" y2="423.7734"/><line style="stroke:#181818;stroke-width:1.0;" x1="744.5" x2="744.5" y1="423.7734" y2="436.7734"/><line style="stroke:#181818;stroke-width:1.0;" x1="703.5" x2="744.5" y1="436.7734" y2="436.7734"/><polygon fill="#181818" points="713.5,432.7734,703.5,436.7734,713.5,440.7734,709.5,436.7734" style="stroke:#181818;stroke-width:1.0;"/><text fill="#000000" font-family="sans-serif" font-size="13" font-weight="bold" lengthAdjust="spacing" textLength="25" x="709.5" y="418.5107">51.5</text><text fill="#000000" font-family="sans-serif" font-size="13" lengthAdjust="spacing" textLength="201" x="738.5" y="418.5107">addAnnouncement(announcement)</text><line style="stroke:#181818;stroke-width:1.0;stroke-dasharray:2.0,2.0;" x1="702.5" x2="744.5" y1="478.0645" y2="478.0645"/><line style="stroke:#181818;stroke-width:1.0;stroke-dasharray:2.0,2.0;" x1="744.5" x2="744.5" y1="478.0645" y2="491.0645"/><line style="stroke:#181818;stroke-width:1.0;stroke-dasharray:2.0,2.0;" x1="697.5" x2="744.5" y1="491.0645" y2="491.0645"/><polygon fill="#181818" points="707.5,487.0645,697.5,491.0645,707.5,495.0645,703.5,491.0645" style="stroke:#181818;stroke-width:1.0;"/><text fill="#000000" font-family="sans-serif" font-size="13" font-weight="bold" lengthAdjust="spacing" textLength="25" x="709.5" y="472.8018">51.6</text><text fill="#000000" font-family="sans-serif" font-size="13" lengthAdjust="spacing" textLength="4" x="738.5" y="472.8018">&#160;</text><line style="stroke:#181818;stroke-width:1.0;stroke-dasharray:2.0,2.0;" x1="697.5" x2="739.5" y1="522.3555" y2="522.3555"/><line style="stroke:#181818;stroke-width:1.0;stroke-dasharray:2.0,2.0;" x1="739.5" x2="739.5" y1="522.3555" y2="535.3555"/><line style="stroke:#181818;stroke-width:1.0;stroke-dasharray:2.0,2.0;" x1="692.5" x2="739.5" y1="535.3555" y2="535.3555"/><polygon fill="#181818" points="702.5,531.3555,692.5,535.3555,702.5,539.3555,698.5,535.3555" style="stroke:#181818;stroke-width:1.0;"/><text fill="#000000" font-family="sans-serif" font-size="13" font-weight="bold" lengthAdjust="spacing" textLength="25" x="704.5" y="517.0928">51.7</text><text fill="#000000" font-family="sans-serif" font-size="13" lengthAdjust="spacing" textLength="4" x="733.5" y="517.0928">&#160;</text><polygon fill="#181818" points="302,557.6465,292,561.6465,302,565.6465,298,561.6465" style="stroke:#181818;stroke-width:1.0;"/><line style="stroke:#181818;stroke-width:1.0;stroke-dasharray:2.0,2.0;" x1="296" x2="681.5" y1="561.6465" y2="561.6465"/><text fill="#000000" font-family="sans-serif" font-size="13" font-weight="bold" lengthAdjust="spacing" textLength="25" x="308" y="556.3838">51.8</text><text fill="#000000" font-family="sans-serif" font-size="13" lengthAdjust="spacing" textLength="85" x="337" y="556.3838">announcement</text><polygon fill="#181818" points="11,588.9375,1,592.9375,11,596.9375,7,592.9375" style="stroke:#181818;stroke-width:1.0;"/><line style="stroke:#181818;stroke-width:1.0;stroke-dasharray:2.0,2.0;" x1="5" x2="285" y1="592.9375" y2="592.9375"/><text fill="#000000" font-family="sans-serif" font-size="13" font-weight="bold" lengthAdjust="spacing" textLength="25" x="17" y="587.6748">51.9</text><text fill="#000000" font-family="sans-serif" font-size="13" lengthAdjust="spacing" textLength="85" x="46" y="587.6748">announcement</text><!--SRC=[dLHTRvim57tthx3wqgGYqp9faugcIYZRmwJGLPJ7lZZcDh4ADh8ltVZtCuOa9d4qKZ-1VUuvvtxOvat8ccbMqKf9nNTQLK1HDq3CuQHc_8rjuHdR4gW6ZankInzWTgnGVuJSqbTM6Y24DQXaKsr0qszV2BdTYGBegrAuKN-9ZK71HSqaqfiuaL8raaC54bTAebPb2Vg6CaDNUROc9_0CQcK4AYt0ED1XetqMdIqhF0xHNiIBF2TuMYVvE89vbexqyOjCWWUE9Sd673uqPNKzf9Iabs4zu94GIhtwVRst_tOj7bmzOierC0G_SER__CX_p_i8nb6yM-XGHxVfD-RpfsKFx5Q7wJG2vQGntGB-aiRsdSDiVWmwIeIwuE52h8j3Hdw7lA029j3lVNTTx8s6cpIoVMRVpK00qDCEHYrzU392WQVBIoOejiyZoQxeS30NEud-gJzAIx_ZuPLapaKQKrG_9Gfi9sXVSf8IGlvRd2HrYeztT_lCP_QnaHZHmdxdeeA8hbHL2ME4aj6cCKA2CNbRGrHhPMyMjf6T46kkqGmx35qBWr0yQS5XFid0K7c_l-IAbhfCfrNMghopKXId7VQbhoXnDcNuZjAiA3wk-W7blRgJl_AUJC-jPoUJQK-X0qV_6ercu8pq-s8HUWp8HRdXyGsylyj- -ny0]--></g></svg>