<?xml version="1.0" encoding="us-ascii" standalone="no"?><svg xmlns="http://www.w3.org/2000/svg" xmlns:xlink="http://www.w3.org/1999/xlink" contentStyleType="text/css" height="683px" preserveAspectRatio="none" style="width:1897px;height:683px;background:#FFFFFF;" version="1.1" viewBox="0 0 1897 683" width="1897px" zoomAndPan="magnify"><defs/><g><rect fill="#FFFFFF" height="533.4922" style="stroke:#181818;stroke-width:1.0;" width="10" x="572" y="81.8047"/><rect fill="#FFFFFF" height="28.5234" style="stroke:#181818;stroke-width:1.0;" width="10" x="718" y="110.3281"/><rect fill="#FFFFFF" height="28.5234" style="stroke:#181818;stroke-width:1.0;" width="10" x="825" y="167.375"/><rect fill="#FFFFFF" height="362.3516" style="stroke:#181818;stroke-width:1.0;" width="10" x="1161" y="224.4219"/><rect fill="#FFFFFF" height="122.5703" style="stroke:#181818;stroke-width:1.0;" width="10" x="1166" y="371.6328"/><rect fill="#FFFFFF" height="39.5234" style="stroke:#181818;stroke-width:1.0;" width="10" x="1171" y="413.1563"/><rect fill="#FFFFFF" height="30.6406" style="stroke:#181818;stroke-width:1.0;" width="10" x="1664.5" y="304.4688"/><rect fill="#FFFFFF" height="28.5234" style="stroke:#181818;stroke-width:1.0;" width="10" x="1807.5" y="529.7266"/><line style="stroke:#181818;stroke-width:0.5;stroke-dasharray:5.0,5.0;" x1="576.5" x2="576.5" y1="51.2813" y2="633.2969"/><line style="stroke:#181818;stroke-width:0.5;stroke-dasharray:5.0,5.0;" x1="722.5" x2="722.5" y1="51.2813" y2="633.2969"/><line style="stroke:#181818;stroke-width:0.5;stroke-dasharray:5.0,5.0;" x1="829.5" x2="829.5" y1="51.2813" y2="633.2969"/><line style="stroke:#181818;stroke-width:0.5;stroke-dasharray:5.0,5.0;" x1="1166" x2="1166" y1="51.2813" y2="633.2969"/><line style="stroke:#181818;stroke-width:0.5;stroke-dasharray:5.0,5.0;" x1="1669" x2="1669" y1="304.2656" y2="633.2969"/><line style="stroke:#181818;stroke-width:0.5;stroke-dasharray:5.0,5.0;" x1="1812" x2="1812" y1="51.2813" y2="633.2969"/><rect fill="#E3E3E3" height="29.6406" rx="2.5" ry="2.5" style="stroke:#181818;stroke-width:0.5;" width="175" x="489.5" y="20.6406"/><text fill="#000000" font-family="sans-serif" font-size="14" lengthAdjust="spacing" textLength="161" x="496.5" y="40.3145">:AnnouncementController</text><rect fill="#E3E3E3" height="29.6406" rx="2.5" ry="2.5" style="stroke:#181818;stroke-width:0.5;" width="175" x="489.5" y="632.2969"/><text fill="#000000" font-family="sans-serif" font-size="14" lengthAdjust="spacing" textLength="161" x="496.5" y="651.9707">:AnnouncementController</text><rect fill="#E3E3E3" height="29.6406" rx="2.5" ry="2.5" style="stroke:#181818;stroke-width:0.5;" width="97" x="674.5" y="20.6406"/><text fill="#000000" font-family="sans-serif" font-size="14" lengthAdjust="spacing" textLength="83" x="681.5" y="40.3145">:Repositories</text><rect fill="#E3E3E3" height="29.6406" rx="2.5" ry="2.5" style="stroke:#181818;stroke-width:0.5;" width="97" x="674.5" y="632.2969"/><text fill="#000000" font-family="sans-serif" font-size="14" lengthAdjust="spacing" textLength="83" x="681.5" y="651.9707">:Repositories</text><rect fill="#E3E3E3" height="45.2813" rx="2.5" ry="2.5" style="stroke:#181818;stroke-width:0.5;" width="97" x="781.5" y="5"/><text fill="#000000" font-family="sans-serif" font-size="14" lengthAdjust="spacing" textLength="74" x="793" y="24.6738">repositories</text><text fill="#000000" font-family="sans-serif" font-size="14" lengthAdjust="spacing" textLength="83" x="788.5" y="40.3145">:Repositories</text><rect fill="#E3E3E3" height="45.2813" rx="2.5" ry="2.5" style="stroke:#181818;stroke-width:0.5;" width="97" x="781.5" y="632.2969"/><text fill="#000000" font-family="sans-serif" font-size="14" lengthAdjust="spacing" textLength="74" x="793" y="651.9707">repositories</text><text fill="#000000" font-family="sans-serif" font-size="14" lengthAdjust="spacing" textLength="83" x="788.5" y="667.6113">:Repositories</text><rect fill="#E3E3E3" height="45.2813" rx="2.5" ry="2.5" style="stroke:#181818;stroke-width:0.5;" width="180" x="1076" y="5"/><text fill="#000000" font-family="sans-serif" font-size="14" lengthAdjust="spacing" textLength="166" x="1083" y="24.6738">announcementRepository:</text><text fill="#000000" font-family="sans-serif" font-size="14" lengthAdjust="spacing" textLength="163" x="1084.5" y="40.3145">AnnouncementRepository</text><rect fill="#E3E3E3" height="45.2813" rx="2.5" ry="2.5" style="stroke:#181818;stroke-width:0.5;" width="180" x="1076" y="632.2969"/><text fill="#000000" font-family="sans-serif" font-size="14" lengthAdjust="spacing" textLength="166" x="1083" y="651.9707">announcementRepository:</text><text fill="#000000" font-family="sans-serif" font-size="14" lengthAdjust="spacing" textLength="163" x="1084.5" y="667.6113">AnnouncementRepository</text><rect fill="#E3E3E3" height="29.6406" rx="2.5" ry="2.5" style="stroke:#181818;stroke-width:0.5;" width="109" x="1615" y="632.2969"/><text fill="#000000" font-family="sans-serif" font-size="14" lengthAdjust="spacing" textLength="95" x="1622" y="651.9707">Announcement</text><rect fill="#E3E3E3" height="29.6406" rx="2.5" ry="2.5" style="stroke:#181818;stroke-width:0.5;" width="157" x="1734" y="20.6406"/><text fill="#000000" font-family="sans-serif" font-size="14" lengthAdjust="spacing" textLength="143" x="1741" y="40.3145">AnnouncementMapper</text><rect fill="#E3E3E3" height="29.6406" rx="2.5" ry="2.5" style="stroke:#181818;stroke-width:0.5;" width="157" x="1734" y="632.2969"/><text fill="#000000" font-family="sans-serif" font-size="14" lengthAdjust="spacing" textLength="143" x="1741" y="651.9707">AnnouncementMapper</text><rect fill="#FFFFFF" height="533.4922" style="stroke:#181818;stroke-width:1.0;" width="10" x="572" y="81.8047"/><rect fill="#FFFFFF" height="28.5234" style="stroke:#181818;stroke-width:1.0;" width="10" x="718" y="110.3281"/><rect fill="#FFFFFF" height="28.5234" style="stroke:#181818;stroke-width:1.0;" width="10" x="825" y="167.375"/><rect fill="#FFFFFF" height="362.3516" style="stroke:#181818;stroke-width:1.0;" width="10" x="1161" y="224.4219"/><rect fill="#FFFFFF" height="122.5703" style="stroke:#181818;stroke-width:1.0;" width="10" x="1166" y="371.6328"/><rect fill="#FFFFFF" height="39.5234" style="stroke:#181818;stroke-width:1.0;" width="10" x="1171" y="413.1563"/><rect fill="#FFFFFF" height="30.6406" style="stroke:#181818;stroke-width:1.0;" width="10" x="1664.5" y="304.4688"/><rect fill="#FFFFFF" height="28.5234" style="stroke:#181818;stroke-width:1.0;" width="10" x="1807.5" y="529.7266"/><polygon fill="#181818" points="560,77.8047,570,81.8047,560,85.8047,564,81.8047" style="stroke:#181818;stroke-width:1.0;"/><line style="stroke:#181818;stroke-width:1.0;" x1="0" x2="566" y1="81.8047" y2="81.8047"/><text fill="#000000" font-family="sans-serif" font-size="13" font-weight="bold" lengthAdjust="spacing" textLength="14" x="7" y="77.0498">59</text><text fill="#000000" font-family="sans-serif" font-size="13" lengthAdjust="spacing" textLength="535" x="25" y="77.0498">createAnnouncement(date,commission,businessTypeDescription,property,listedPrice, agent)</text><polygon fill="#181818" points="706,106.3281,716,110.3281,706,114.3281,710,110.3281" style="stroke:#181818;stroke-width:1.0;"/><line style="stroke:#181818;stroke-width:1.0;" x1="582" x2="712" y1="110.3281" y2="110.3281"/><text fill="#000000" font-family="sans-serif" font-size="13" font-weight="bold" lengthAdjust="spacing" textLength="25" x="589" y="105.5732">60.1</text><text fill="#000000" font-family="sans-serif" font-size="13" lengthAdjust="spacing" textLength="75" x="618" y="105.5732">getInstance()</text><polygon fill="#181818" points="593,134.8516,583,138.8516,593,142.8516,589,138.8516" style="stroke:#181818;stroke-width:1.0;"/><line style="stroke:#181818;stroke-width:1.0;stroke-dasharray:2.0,2.0;" x1="587" x2="722" y1="138.8516" y2="138.8516"/><text fill="#000000" font-family="sans-serif" font-size="13" font-weight="bold" lengthAdjust="spacing" textLength="25" x="599" y="134.0967">60.2</text><text fill="#000000" font-family="sans-serif" font-size="13" lengthAdjust="spacing" textLength="67" x="628" y="134.0967">repositories</text><polygon fill="#181818" points="813,163.375,823,167.375,813,171.375,817,167.375" style="stroke:#181818;stroke-width:1.0;"/><line style="stroke:#181818;stroke-width:1.0;" x1="582" x2="819" y1="167.375" y2="167.375"/><text fill="#000000" font-family="sans-serif" font-size="13" font-weight="bold" lengthAdjust="spacing" textLength="25" x="589" y="162.6201">60.3</text><text fill="#000000" font-family="sans-serif" font-size="13" lengthAdjust="spacing" textLength="175" x="618" y="162.6201">getAnnouncementRepository()</text><polygon fill="#181818" points="593,191.8984,583,195.8984,593,199.8984,589,195.8984" style="stroke:#181818;stroke-width:1.0;"/><line style="stroke:#181818;stroke-width:1.0;" x1="587" x2="829" y1="195.8984" y2="195.8984"/><text fill="#000000" font-family="sans-serif" font-size="13" font-weight="bold" lengthAdjust="spacing" textLength="25" x="599" y="191.1436">60.4</text><text fill="#000000" font-family="sans-serif" font-size="13" lengthAdjust="spacing" textLength="147" x="628" y="191.1436">announcementRepository</text><polygon fill="#181818" points="1149,220.4219,1159,224.4219,1149,228.4219,1153,224.4219" style="stroke:#181818;stroke-width:1.0;"/><line style="stroke:#181818;stroke-width:1.0;" x1="582" x2="1155" y1="224.4219" y2="224.4219"/><text fill="#000000" font-family="sans-serif" font-size="13" font-weight="bold" lengthAdjust="spacing" textLength="25" x="589" y="219.667">60.5</text><text fill="#000000" font-family="sans-serif" font-size="13" lengthAdjust="spacing" textLength="531" x="618" y="219.667">createAnnouncement(date,commission,businessTypeDescription,property,listedPrice,agent)</text><line style="stroke:#181818;stroke-width:1.0;stroke-dasharray:2.0,2.0;" x1="1171" x2="1213" y1="252.9453" y2="252.9453"/><line style="stroke:#181818;stroke-width:1.0;stroke-dasharray:2.0,2.0;" x1="1213" x2="1213" y1="252.9453" y2="265.9453"/><line style="stroke:#181818;stroke-width:1.0;stroke-dasharray:2.0,2.0;" x1="1172" x2="1213" y1="265.9453" y2="265.9453"/><polygon fill="#181818" points="1182,261.9453,1172,265.9453,1182,269.9453,1178,265.9453" style="stroke:#181818;stroke-width:1.0;"/><text fill="#000000" font-family="sans-serif" font-size="13" font-weight="bold" lengthAdjust="spacing" textLength="25" x="1178" y="248.1904">51.1</text><text fill="#000000" font-family="sans-serif" font-size="13" lengthAdjust="spacing" textLength="334" x="1207" y="248.1904">getBusinessTypeByDescription(businessTypeDescription)</text><polygon fill="#181818" points="1603,290.4688,1613,294.4688,1603,298.4688,1607,294.4688" style="stroke:#181818;stroke-width:1.0;"/><line style="stroke:#181818;stroke-width:1.0;" x1="1171" x2="1609" y1="294.4688" y2="294.4688"/><text fill="#000000" font-family="sans-serif" font-size="13" font-weight="bold" lengthAdjust="spacing" textLength="25" x="1178" y="289.7139">51.2</text><text fill="#000000" font-family="sans-serif" font-size="13" lengthAdjust="spacing" textLength="391" x="1207" y="289.7139">create(date, commission,businessType,property, listedPrice, agent)</text><rect fill="#E3E3E3" height="29.6406" rx="2.5" ry="2.5" style="stroke:#181818;stroke-width:0.5;" width="109" x="1615" y="273.9453"/><text fill="#000000" font-family="sans-serif" font-size="14" lengthAdjust="spacing" textLength="95" x="1622" y="293.6191">Announcement</text><polygon fill="#181818" points="1182,331.1094,1172,335.1094,1182,339.1094,1178,335.1094" style="stroke:#181818;stroke-width:1.0;"/><line style="stroke:#181818;stroke-width:1.0;stroke-dasharray:2.0,2.0;" x1="1176" x2="1668.5" y1="335.1094" y2="335.1094"/><text fill="#000000" font-family="sans-serif" font-size="13" font-weight="bold" lengthAdjust="spacing" textLength="25" x="1188" y="330.3545">51.3</text><text fill="#000000" font-family="sans-serif" font-size="13" lengthAdjust="spacing" textLength="85" x="1217" y="330.3545">announcement</text><line style="stroke:#181818;stroke-width:1.0;" x1="1171" x2="1218" y1="358.6328" y2="358.6328"/><line style="stroke:#181818;stroke-width:1.0;" x1="1218" x2="1218" y1="358.6328" y2="371.6328"/><line style="stroke:#181818;stroke-width:1.0;" x1="1177" x2="1218" y1="371.6328" y2="371.6328"/><polygon fill="#181818" points="1187,367.6328,1177,371.6328,1187,375.6328,1183,371.6328" style="stroke:#181818;stroke-width:1.0;"/><text fill="#000000" font-family="sans-serif" font-size="13" font-weight="bold" lengthAdjust="spacing" textLength="25" x="1183" y="353.8779">51.4</text><text fill="#000000" font-family="sans-serif" font-size="13" lengthAdjust="spacing" textLength="223" x="1212" y="353.8779">validateAnnouncement(announcement)</text><line style="stroke:#181818;stroke-width:1.0;" x1="1176" x2="1223" y1="400.1563" y2="400.1563"/><line style="stroke:#181818;stroke-width:1.0;" x1="1223" x2="1223" y1="400.1563" y2="413.1563"/><line style="stroke:#181818;stroke-width:1.0;" x1="1182" x2="1223" y1="413.1563" y2="413.1563"/><polygon fill="#181818" points="1192,409.1563,1182,413.1563,1192,417.1563,1188,413.1563" style="stroke:#181818;stroke-width:1.0;"/><text fill="#000000" font-family="sans-serif" font-size="13" font-weight="bold" lengthAdjust="spacing" textLength="25" x="1188" y="395.4014">51.5</text><text fill="#000000" font-family="sans-serif" font-size="13" lengthAdjust="spacing" textLength="201" x="1217" y="395.4014">addAnnouncement(announcement)</text><line style="stroke:#181818;stroke-width:1.0;stroke-dasharray:2.0,2.0;" x1="1181" x2="1223" y1="451.6797" y2="451.6797"/><line style="stroke:#181818;stroke-width:1.0;stroke-dasharray:2.0,2.0;" x1="1223" x2="1223" y1="451.6797" y2="464.6797"/><line style="stroke:#181818;stroke-width:1.0;stroke-dasharray:2.0,2.0;" x1="1176" x2="1223" y1="464.6797" y2="464.6797"/><polygon fill="#181818" points="1186,460.6797,1176,464.6797,1186,468.6797,1182,464.6797" style="stroke:#181818;stroke-width:1.0;"/><text fill="#000000" font-family="sans-serif" font-size="13" font-weight="bold" lengthAdjust="spacing" textLength="25" x="1188" y="446.9248">51.6</text><text fill="#000000" font-family="sans-serif" font-size="13" lengthAdjust="spacing" textLength="4" x="1217" y="446.9248">&#160;</text><line style="stroke:#181818;stroke-width:1.0;stroke-dasharray:2.0,2.0;" x1="1176" x2="1218" y1="493.2031" y2="493.2031"/><line style="stroke:#181818;stroke-width:1.0;stroke-dasharray:2.0,2.0;" x1="1218" x2="1218" y1="493.2031" y2="506.2031"/><line style="stroke:#181818;stroke-width:1.0;stroke-dasharray:2.0,2.0;" x1="1171" x2="1218" y1="506.2031" y2="506.2031"/><polygon fill="#181818" points="1181,502.2031,1171,506.2031,1181,510.2031,1177,506.2031" style="stroke:#181818;stroke-width:1.0;"/><text fill="#000000" font-family="sans-serif" font-size="13" font-weight="bold" lengthAdjust="spacing" textLength="25" x="1183" y="488.4482">51.7</text><text fill="#000000" font-family="sans-serif" font-size="13" lengthAdjust="spacing" textLength="4" x="1212" y="488.4482">&#160;</text><polygon fill="#181818" points="1795.5,525.7266,1805.5,529.7266,1795.5,533.7266,1799.5,529.7266" style="stroke:#181818;stroke-width:1.0;"/><line style="stroke:#181818;stroke-width:1.0;" x1="1171" x2="1801.5" y1="529.7266" y2="529.7266"/><text fill="#000000" font-family="sans-serif" font-size="13" font-weight="bold" lengthAdjust="spacing" textLength="25" x="1178" y="524.9717">51.8</text><text fill="#000000" font-family="sans-serif" font-size="13" lengthAdjust="spacing" textLength="130" x="1207" y="524.9717">toDTO(announcement)</text><polygon fill="#181818" points="1182,554.25,1172,558.25,1182,562.25,1178,558.25" style="stroke:#181818;stroke-width:1.0;"/><line style="stroke:#181818;stroke-width:1.0;stroke-dasharray:2.0,2.0;" x1="1176" x2="1811.5" y1="558.25" y2="558.25"/><text fill="#000000" font-family="sans-serif" font-size="13" font-weight="bold" lengthAdjust="spacing" textLength="25" x="1188" y="553.4951">51.9</text><text fill="#000000" font-family="sans-serif" font-size="13" lengthAdjust="spacing" textLength="111" x="1217" y="553.4951">announcementDTO</text><polygon fill="#181818" points="593,582.7734,583,586.7734,593,590.7734,589,586.7734" style="stroke:#181818;stroke-width:1.0;"/><line style="stroke:#181818;stroke-width:1.0;stroke-dasharray:2.0,2.0;" x1="587" x2="1165" y1="586.7734" y2="586.7734"/><text fill="#000000" font-family="sans-serif" font-size="13" font-weight="bold" lengthAdjust="spacing" textLength="32" x="599" y="582.0186">51.10</text><text fill="#000000" font-family="sans-serif" font-size="13" lengthAdjust="spacing" textLength="111" x="635" y="582.0186">announcementDTO</text><polygon fill="#181818" points="11,611.2969,1,615.2969,11,619.2969,7,615.2969" style="stroke:#181818;stroke-width:1.0;"/><line style="stroke:#181818;stroke-width:1.0;stroke-dasharray:2.0,2.0;" x1="5" x2="576" y1="615.2969" y2="615.2969"/><text fill="#000000" font-family="sans-serif" font-size="13" font-weight="bold" lengthAdjust="spacing" textLength="32" x="17" y="610.542">51.11</text><text fill="#000000" font-family="sans-serif" font-size="13" lengthAdjust="spacing" textLength="111" x="53" y="610.542">announcementDTO</text><!--SRC=[hLNHRjiW57tdAr1VbbJ9j5JQf5dJ9BTzcLIdbPl7lX1ycw3QW01tzTyN6oV63bcSQBn4WNlFEPnxREitnYLHfC25u89kbIW06rK2qliJIUWRsS2pgNB02gWXV9Fx1NfBCl6NyGr-9Ra6X4Xf12-BDIZyumQXBrkM0NuLmgp51x8zXb4c2JVuAeev5oMdK00tTu8R9V8Sr1Kc6j-jqWSqA4z12isCK0nqKxJVg9vPBSiIzrkKr_723m6U7k9LluDuaZhuw8N7mOC69Kxx67wfArWUBqY8bEsTumGXZ3t_ll-q_-sQ_sxyY31LG0puxPFCRioeA0gcDHDyjYuruw3rgf9m3veg9aszBvMmFAQQvKmRo9uKep33ThJSJ96Z8TImTmlNcjzi-jFyzdNX2kjLrzJ20ZF04Tw0-SEr3Gk5oRHhwYX2e_FgGgZplGt-MBsc34R0xtJNetT2mvFjoJwGtmGdKE1WMw4MFXodKEDmUPS9aktk4QV_FnPjAevVtoRUF_KZk_134bvnsipI_aJM_bjFsMtbQPiSqJmTWs_XbzVNEskS7VY87vq9EFHmd63hJ5cYaygMxStxoK3Zir2Je946M9PtahDic0sV-ephfMDYsr6JBBkSzGBcNhBEVCB6tysXez6mQ8HPIOIDk5yzNZgOv7GWajq3rykTvJmdUib1ybf7t5jvY8p-wSkG-DTy7dff7ahqSDhlLE1JjN3Rdm00]--></g></svg>