<?xml version="1.0" encoding="us-ascii" standalone="no"?><svg xmlns="http://www.w3.org/2000/svg" xmlns:xlink="http://www.w3.org/1999/xlink" contentStyleType="text/css" height="1998px" preserveAspectRatio="none" style="width:1581px;height:1998px;background:#FFFFFF;" version="1.1" viewBox="0 0 1581 1998" width="1581px" zoomAndPan="magnify"><defs/><g><rect fill="#FFFFFF" height="1818.4219" style="stroke:#181818;stroke-width:1.0;" width="10" x="36.5" y="90.6406"/><rect fill="#FFFFFF" height="169.1406" style="stroke:#181818;stroke-width:1.0;" width="10" x="544.5" y="111.1641"/><rect fill="#FFFFFF" height="93.5703" style="stroke:#181818;stroke-width:1.0;" width="10" x="544.5" y="308.8281"/><rect fill="#FFFFFF" height="28.5234" style="stroke:#181818;stroke-width:1.0;" width="10" x="544.5" y="430.9219"/><rect fill="#FFFFFF" height="101.8594" style="stroke:#181818;stroke-width:1.0;" width="10" x="544.5" y="487.9688"/><rect fill="#FFFFFF" height="57.5703" style="stroke:#181818;stroke-width:1.0;" width="10" x="544.5" y="618.3516"/><rect fill="#FFFFFF" height="28.5234" style="stroke:#181818;stroke-width:1.0;" width="10" x="544.5" y="704.4453"/><rect fill="#FFFFFF" height="71.8594" style="stroke:#181818;stroke-width:1.0;" width="10" x="544.5" y="761.4922"/><rect fill="#FFFFFF" height="28.5234" style="stroke:#181818;stroke-width:1.0;" width="10" x="544.5" y="861.875"/><rect fill="#FFFFFF" height="365.4531" style="stroke:#181818;stroke-width:1.0;" width="10" x="544.5" y="918.9219"/><rect fill="#FFFFFF" height="152.0234" style="stroke:#181818;stroke-width:1.0;" width="10" x="544.5" y="1312.8984"/><rect fill="#FFFFFF" height="35.5234" style="stroke:#181818;stroke-width:1.0;" width="10" x="544.5" y="1493.4453"/><rect fill="#FFFFFF" height="28.5234" style="stroke:#181818;stroke-width:1.0;" width="10" x="544.5" y="1557.4922"/><rect fill="#FFFFFF" height="28.5234" style="stroke:#181818;stroke-width:1.0;" width="10" x="544.5" y="1614.5391"/><rect fill="#FFFFFF" height="237.4766" style="stroke:#181818;stroke-width:1.0;" width="10" x="544.5" y="1671.5859"/><rect fill="#FFFFFF" height="71.4531" style="stroke:#181818;stroke-width:1.0;" width="10" x="1479.5" y="180.3281"/><rect fill="#FFFFFF" height="71.4531" style="stroke:#181818;stroke-width:1.0;" width="10" x="1479.5" y="984.4453"/><rect fill="#FFFFFF" height="71.4531" style="stroke:#181818;stroke-width:1.0;" width="10" x="1479.5" y="1084.4219"/><rect fill="#FFFFFF" height="71.4531" style="stroke:#181818;stroke-width:1.0;" width="10" x="1479.5" y="1184.3984"/><rect fill="#FFFFFF" height="71.4531" style="stroke:#181818;stroke-width:1.0;" width="10" x="1479.5" y="1341.4219"/><rect fill="#FFFFFF" height="71.4531" style="stroke:#181818;stroke-width:1.0;" width="10" x="1479.5" y="1700.1094"/><rect fill="#FFFFFF" height="99.9766" style="stroke:#181818;stroke-width:1.0;" width="10" x="1479.5" y="1800.0859"/><rect fill="none" height="591.5703" style="stroke:#000000;stroke-width:1.5;" width="647.5" x="10" y="365.3516"/><rect fill="none" height="73.5703" style="stroke:#000000;stroke-width:1.5;" width="647.5" x="10" y="1427.875"/><line style="stroke:#181818;stroke-width:0.5;stroke-dasharray:5.0,5.0;" x1="41" x2="41" y1="80.6406" y2="1918.0625"/><line style="stroke:#181818;stroke-width:0.5;stroke-dasharray:5.0,5.0;" x1="549.5" x2="549.5" y1="80.6406" y2="1918.0625"/><line style="stroke:#181818;stroke-width:0.5;stroke-dasharray:5.0,5.0;" x1="1484" x2="1484" y1="149.4844" y2="1918.0625"/><text fill="#000000" font-family="sans-serif" font-size="14" lengthAdjust="spacing" textLength="37" x="20" y="77.6738">Agent</text><ellipse cx="41.5" cy="13.5" fill="#E3E3E3" rx="8" ry="8" style="stroke:#181818;stroke-width:0.5;"/><path d="M41.5,21.5 L41.5,48.5 M28.5,29.5 L54.5,29.5 M41.5,48.5 L28.5,63.5 M41.5,48.5 L54.5,63.5 " fill="none" style="stroke:#181818;stroke-width:0.5;"/><text fill="#000000" font-family="sans-serif" font-size="14" lengthAdjust="spacing" textLength="37" x="20" y="1929.7363">Agent</text><ellipse cx="41.5" cy="1941.2031" fill="#E3E3E3" rx="8" ry="8" style="stroke:#181818;stroke-width:0.5;"/><path d="M41.5,1949.2031 L41.5,1976.2031 M28.5,1957.2031 L54.5,1957.2031 M41.5,1976.2031 L28.5,1991.2031 M41.5,1976.2031 L54.5,1991.2031 " fill="none" style="stroke:#181818;stroke-width:0.5;"/><rect fill="#E3E3E3" height="29.6406" rx="2.5" ry="2.5" style="stroke:#181818;stroke-width:0.5;" width="196" x="451.5" y="50"/><text fill="#000000" font-family="sans-serif" font-size="14" lengthAdjust="spacing" textLength="182" x="458.5" y="69.6738">:CreateSaleAnnouncementUI</text><rect fill="#E3E3E3" height="29.6406" rx="2.5" ry="2.5" style="stroke:#181818;stroke-width:0.5;" width="196" x="451.5" y="1917.0625"/><text fill="#000000" font-family="sans-serif" font-size="14" lengthAdjust="spacing" textLength="182" x="458.5" y="1936.7363">:CreateSaleAnnouncementUI</text><rect fill="#E3E3E3" height="29.6406" rx="2.5" ry="2.5" style="stroke:#181818;stroke-width:0.5;" width="175" x="1397" y="1917.0625"/><text fill="#000000" font-family="sans-serif" font-size="14" lengthAdjust="spacing" textLength="161" x="1404" y="1936.7363">:AnnouncementController</text><rect fill="#FFFFFF" height="1818.4219" style="stroke:#181818;stroke-width:1.0;" width="10" x="36.5" y="90.6406"/><rect fill="#FFFFFF" height="169.1406" style="stroke:#181818;stroke-width:1.0;" width="10" x="544.5" y="111.1641"/><rect fill="#FFFFFF" height="93.5703" style="stroke:#181818;stroke-width:1.0;" width="10" x="544.5" y="308.8281"/><rect fill="#FFFFFF" height="28.5234" style="stroke:#181818;stroke-width:1.0;" width="10" x="544.5" y="430.9219"/><rect fill="#FFFFFF" height="101.8594" style="stroke:#181818;stroke-width:1.0;" width="10" x="544.5" y="487.9688"/><rect fill="#FFFFFF" height="57.5703" style="stroke:#181818;stroke-width:1.0;" width="10" x="544.5" y="618.3516"/><rect fill="#FFFFFF" height="28.5234" style="stroke:#181818;stroke-width:1.0;" width="10" x="544.5" y="704.4453"/><rect fill="#FFFFFF" height="71.8594" style="stroke:#181818;stroke-width:1.0;" width="10" x="544.5" y="761.4922"/><rect fill="#FFFFFF" height="28.5234" style="stroke:#181818;stroke-width:1.0;" width="10" x="544.5" y="861.875"/><rect fill="#FFFFFF" height="365.4531" style="stroke:#181818;stroke-width:1.0;" width="10" x="544.5" y="918.9219"/><rect fill="#FFFFFF" height="152.0234" style="stroke:#181818;stroke-width:1.0;" width="10" x="544.5" y="1312.8984"/><rect fill="#FFFFFF" height="35.5234" style="stroke:#181818;stroke-width:1.0;" width="10" x="544.5" y="1493.4453"/><rect fill="#FFFFFF" height="28.5234" style="stroke:#181818;stroke-width:1.0;" width="10" x="544.5" y="1557.4922"/><rect fill="#FFFFFF" height="28.5234" style="stroke:#181818;stroke-width:1.0;" width="10" x="544.5" y="1614.5391"/><rect fill="#FFFFFF" height="237.4766" style="stroke:#181818;stroke-width:1.0;" width="10" x="544.5" y="1671.5859"/><rect fill="#FFFFFF" height="71.4531" style="stroke:#181818;stroke-width:1.0;" width="10" x="1479.5" y="180.3281"/><rect fill="#FFFFFF" height="71.4531" style="stroke:#181818;stroke-width:1.0;" width="10" x="1479.5" y="984.4453"/><rect fill="#FFFFFF" height="71.4531" style="stroke:#181818;stroke-width:1.0;" width="10" x="1479.5" y="1084.4219"/><rect fill="#FFFFFF" height="71.4531" style="stroke:#181818;stroke-width:1.0;" width="10" x="1479.5" y="1184.3984"/><rect fill="#FFFFFF" height="71.4531" style="stroke:#181818;stroke-width:1.0;" width="10" x="1479.5" y="1341.4219"/><rect fill="#FFFFFF" height="71.4531" style="stroke:#181818;stroke-width:1.0;" width="10" x="1479.5" y="1700.1094"/><rect fill="#FFFFFF" height="99.9766" style="stroke:#181818;stroke-width:1.0;" width="10" x="1479.5" y="1800.0859"/><polygon fill="#181818" points="532.5,107.1641,542.5,111.1641,532.5,115.1641,536.5,111.1641" style="stroke:#181818;stroke-width:1.0;"/><line style="stroke:#181818;stroke-width:1.0;" x1="46.5" x2="538.5" y1="111.1641" y2="111.1641"/><text fill="#000000" font-family="sans-serif" font-size="13" font-weight="bold" lengthAdjust="spacing" textLength="7" x="53.5" y="106.4092">1</text><text fill="#000000" font-family="sans-serif" font-size="13" lengthAdjust="spacing" textLength="195" x="64.5" y="106.4092">asks to publish an announcement</text><polygon fill="#181818" points="1385,135.6875,1395,139.6875,1385,143.6875,1389,139.6875" style="stroke:#181818;stroke-width:1.0;"/><line style="stroke:#181818;stroke-width:1.0;" x1="554.5" x2="1391" y1="139.6875" y2="139.6875"/><text fill="#000000" font-family="sans-serif" font-size="13" font-weight="bold" lengthAdjust="spacing" textLength="7" x="561.5" y="134.9326">2</text><text fill="#000000" font-family="sans-serif" font-size="13" lengthAdjust="spacing" textLength="36" x="572.5" y="134.9326">create</text><rect fill="#E3E3E3" height="29.6406" rx="2.5" ry="2.5" style="stroke:#181818;stroke-width:0.5;" width="175" x="1397" y="119.1641"/><text fill="#000000" font-family="sans-serif" font-size="14" lengthAdjust="spacing" textLength="161" x="1404" y="138.8379">:AnnouncementController</text><polygon fill="#181818" points="1467.5,176.3281,1477.5,180.3281,1467.5,184.3281,1471.5,180.3281" style="stroke:#181818;stroke-width:1.0;"/><line style="stroke:#181818;stroke-width:1.0;" x1="554.5" x2="1473.5" y1="180.3281" y2="180.3281"/><text fill="#000000" font-family="sans-serif" font-size="13" font-weight="bold" lengthAdjust="spacing" textLength="7" x="561.5" y="175.5732">3</text><text fill="#000000" font-family="sans-serif" font-size="13" lengthAdjust="spacing" textLength="110" x="572.5" y="175.5732">getPropertyTypes()</text><rect fill="none" height="37.9297" style="stroke:#000000;stroke-width:1.5;" width="181" x="1394" y="188.3281"/><path d="M1394,188.3281 L1456,188.3281 L1456,194.3281 L1446,204.3281 L1394,204.3281 L1394,188.3281 " fill="#EEEEEE" style="stroke:#000000;stroke-width:2.0;"/><text fill="#000000" font-family="sans-serif" font-size="13" font-weight="bold" lengthAdjust="spacing" textLength="17" x="1407" y="202.0967">ref</text><text fill="#000000" font-family="sans-serif" font-size="12" lengthAdjust="spacing" textLength="109" x="1430" y="219.1914">get Propety Type list</text><polygon fill="#181818" points="565.5,247.7813,555.5,251.7813,565.5,255.7813,561.5,251.7813" style="stroke:#181818;stroke-width:1.0;"/><line style="stroke:#181818;stroke-width:1.0;stroke-dasharray:2.0,2.0;" x1="559.5" x2="1483.5" y1="251.7813" y2="251.7813"/><text fill="#000000" font-family="sans-serif" font-size="13" font-weight="bold" lengthAdjust="spacing" textLength="7" x="571.5" y="247.0264">4</text><text fill="#000000" font-family="sans-serif" font-size="13" lengthAdjust="spacing" textLength="122" x="582.5" y="247.0264">propertyTypeListDTO</text><polygon fill="#181818" points="57.5,276.3047,47.5,280.3047,57.5,284.3047,53.5,280.3047" style="stroke:#181818;stroke-width:1.0;"/><line style="stroke:#181818;stroke-width:1.0;" x1="51.5" x2="548.5" y1="280.3047" y2="280.3047"/><text fill="#000000" font-family="sans-serif" font-size="13" font-weight="bold" lengthAdjust="spacing" textLength="7" x="63.5" y="275.5498">4</text><text fill="#000000" font-family="sans-serif" font-size="13" lengthAdjust="spacing" textLength="173" x="74.5" y="275.5498">provides property type options</text><polygon fill="#181818" points="532.5,304.8281,542.5,308.8281,532.5,312.8281,536.5,308.8281" style="stroke:#181818;stroke-width:1.0;"/><line style="stroke:#181818;stroke-width:1.0;" x1="46.5" x2="538.5" y1="308.8281" y2="308.8281"/><text fill="#000000" font-family="sans-serif" font-size="13" font-weight="bold" lengthAdjust="spacing" textLength="7" x="53.5" y="304.0732">5</text><text fill="#000000" font-family="sans-serif" font-size="13" lengthAdjust="spacing" textLength="122" x="64.5" y="304.0732">selects property type</text><line style="stroke:#181818;stroke-width:1.0;" x1="554.5" x2="596.5" y1="337.3516" y2="337.3516"/><line style="stroke:#181818;stroke-width:1.0;" x1="596.5" x2="596.5" y1="337.3516" y2="350.3516"/><line style="stroke:#181818;stroke-width:1.0;" x1="555.5" x2="596.5" y1="350.3516" y2="350.3516"/><polygon fill="#181818" points="565.5,346.3516,555.5,350.3516,565.5,354.3516,561.5,350.3516" style="stroke:#181818;stroke-width:1.0;"/><text fill="#000000" font-family="sans-serif" font-size="13" font-weight="bold" lengthAdjust="spacing" textLength="7" x="561.5" y="332.5967">6</text><text fill="#000000" font-family="sans-serif" font-size="13" lengthAdjust="spacing" textLength="205" x="572.5" y="332.5967">KeepData(propertyTypeDescription)</text><path d="M10,365.3516 L71,365.3516 L71,371.875 L61,381.875 L10,381.875 L10,365.3516 " fill="#EEEEEE" style="stroke:#000000;stroke-width:1.5;"/><rect fill="none" height="591.5703" style="stroke:#000000;stroke-width:1.5;" width="647.5" x="10" y="365.3516"/><text fill="#000000" font-family="sans-serif" font-size="13" font-weight="bold" lengthAdjust="spacing" textLength="16" x="25" y="378.1201">alt</text><text fill="#000000" font-family="sans-serif" font-size="11" font-weight="bold" lengthAdjust="spacing" textLength="128" x="86" y="377.3096">[if property type = land]</text><polygon fill="#181818" points="57.5,398.3984,47.5,402.3984,57.5,406.3984,53.5,402.3984" style="stroke:#181818;stroke-width:1.0;"/><line style="stroke:#181818;stroke-width:1.0;stroke-dasharray:2.0,2.0;" x1="51.5" x2="548.5" y1="402.3984" y2="402.3984"/><text fill="#000000" font-family="sans-serif" font-size="13" font-weight="bold" lengthAdjust="spacing" textLength="7" x="63.5" y="397.6436">7</text><text fill="#000000" font-family="sans-serif" font-size="13" lengthAdjust="spacing" textLength="422" x="74.5" y="397.6436">requests land data (price, area, address, distanceToCentre, photographs)</text><polygon fill="#181818" points="532.5,426.9219,542.5,430.9219,532.5,434.9219,536.5,430.9219" style="stroke:#181818;stroke-width:1.0;"/><line style="stroke:#181818;stroke-width:1.0;" x1="46.5" x2="538.5" y1="430.9219" y2="430.9219"/><text fill="#000000" font-family="sans-serif" font-size="13" font-weight="bold" lengthAdjust="spacing" textLength="7" x="53.5" y="426.167">8</text><text fill="#000000" font-family="sans-serif" font-size="13" lengthAdjust="spacing" textLength="122" x="64.5" y="426.167">types requested data</text><polygon fill="#181818" points="57.5,455.4453,47.5,459.4453,57.5,463.4453,53.5,459.4453" style="stroke:#181818;stroke-width:1.0;"/><line style="stroke:#181818;stroke-width:1.0;stroke-dasharray:2.0,2.0;" x1="51.5" x2="548.5" y1="459.4453" y2="459.4453"/><text fill="#000000" font-family="sans-serif" font-size="13" font-weight="bold" lengthAdjust="spacing" textLength="7" x="63.5" y="454.6904">9</text><text fill="#000000" font-family="sans-serif" font-size="13" lengthAdjust="spacing" textLength="146" x="74.5" y="454.6904">request data confirmation</text><polygon fill="#181818" points="532.5,483.9688,542.5,487.9688,532.5,491.9688,536.5,487.9688" style="stroke:#181818;stroke-width:1.0;"/><line style="stroke:#181818;stroke-width:1.0;" x1="46.5" x2="538.5" y1="487.9688" y2="487.9688"/><text fill="#000000" font-family="sans-serif" font-size="13" font-weight="bold" lengthAdjust="spacing" textLength="14" x="53.5" y="483.2139">10</text><text fill="#000000" font-family="sans-serif" font-size="13" lengthAdjust="spacing" textLength="78" x="71.5" y="483.2139">confirms data</text><line style="stroke:#000000;stroke-width:1.0;stroke-dasharray:2.0,2.0;" x1="10" x2="657.5" y1="526.9688" y2="526.9688"/><text fill="#000000" font-family="sans-serif" font-size="11" font-weight="bold" lengthAdjust="spacing" textLength="162" x="15" y="536.9268">[if property type = apartment]</text><polygon fill="#181818" points="57.5,585.8281,47.5,589.8281,57.5,593.8281,53.5,589.8281" style="stroke:#181818;stroke-width:1.0;"/><line style="stroke:#181818;stroke-width:1.0;stroke-dasharray:2.0,2.0;" x1="51.5" x2="548.5" y1="589.8281" y2="589.8281"/><text fill="#000000" font-family="sans-serif" font-size="13" font-weight="bold" lengthAdjust="spacing" textLength="14" x="63.5" y="570.5498">11</text><text fill="#000000" font-family="sans-serif" font-size="13" lengthAdjust="spacing" textLength="456" x="81.5" y="556.0264">requests apartment data (price, area, address, distanceToCentre, photographs,</text><text fill="#000000" font-family="sans-serif" font-size="13" lengthAdjust="spacing" textLength="334" x="81.5" y="570.5498">bedroomNumber,bathroomNumber, parkingSpaceNumber,</text><text fill="#000000" font-family="sans-serif" font-size="13" lengthAdjust="spacing" textLength="85" x="81.5" y="585.0732">equipmentList)</text><polygon fill="#181818" points="532.5,614.3516,542.5,618.3516,532.5,622.3516,536.5,618.3516" style="stroke:#181818;stroke-width:1.0;"/><line style="stroke:#181818;stroke-width:1.0;" x1="46.5" x2="538.5" y1="618.3516" y2="618.3516"/><text fill="#000000" font-family="sans-serif" font-size="13" font-weight="bold" lengthAdjust="spacing" textLength="14" x="53.5" y="613.5967">12</text><text fill="#000000" font-family="sans-serif" font-size="13" lengthAdjust="spacing" textLength="122" x="71.5" y="613.5967">types requested data</text><polygon fill="#181818" points="57.5,671.9219,47.5,675.9219,57.5,679.9219,53.5,675.9219" style="stroke:#181818;stroke-width:1.0;"/><line style="stroke:#181818;stroke-width:1.0;stroke-dasharray:2.0,2.0;" x1="51.5" x2="548.5" y1="675.9219" y2="675.9219"/><text fill="#000000" font-family="sans-serif" font-size="13" font-weight="bold" lengthAdjust="spacing" textLength="14" x="63.5" y="656.6436">13</text><text fill="#000000" font-family="sans-serif" font-size="13" lengthAdjust="spacing" textLength="456" x="81.5" y="642.1201">requests apartment data (price, area, address, distanceToCentre, photographs,</text><text fill="#000000" font-family="sans-serif" font-size="13" lengthAdjust="spacing" textLength="334" x="81.5" y="656.6436">bedroomNumber,bathroomNumber, parkingSpaceNumber,</text><text fill="#000000" font-family="sans-serif" font-size="13" lengthAdjust="spacing" textLength="81" x="81.5" y="671.167">equipmentList</text><polygon fill="#181818" points="532.5,700.4453,542.5,704.4453,532.5,708.4453,536.5,704.4453" style="stroke:#181818;stroke-width:1.0;"/><line style="stroke:#181818;stroke-width:1.0;" x1="46.5" x2="538.5" y1="704.4453" y2="704.4453"/><text fill="#000000" font-family="sans-serif" font-size="13" font-weight="bold" lengthAdjust="spacing" textLength="14" x="53.5" y="699.6904">14</text><text fill="#000000" font-family="sans-serif" font-size="13" lengthAdjust="spacing" textLength="122" x="71.5" y="699.6904">types requested data</text><polygon fill="#181818" points="57.5,728.9688,47.5,732.9688,57.5,736.9688,53.5,732.9688" style="stroke:#181818;stroke-width:1.0;"/><line style="stroke:#181818;stroke-width:1.0;stroke-dasharray:2.0,2.0;" x1="51.5" x2="548.5" y1="732.9688" y2="732.9688"/><text fill="#000000" font-family="sans-serif" font-size="13" font-weight="bold" lengthAdjust="spacing" textLength="14" x="63.5" y="728.2139">15</text><text fill="#000000" font-family="sans-serif" font-size="13" lengthAdjust="spacing" textLength="146" x="81.5" y="728.2139">request data confirmation</text><polygon fill="#181818" points="532.5,757.4922,542.5,761.4922,532.5,765.4922,536.5,761.4922" style="stroke:#181818;stroke-width:1.0;"/><line style="stroke:#181818;stroke-width:1.0;" x1="46.5" x2="538.5" y1="761.4922" y2="761.4922"/><text fill="#000000" font-family="sans-serif" font-size="13" font-weight="bold" lengthAdjust="spacing" textLength="14" x="53.5" y="756.7373">16</text><text fill="#000000" font-family="sans-serif" font-size="13" lengthAdjust="spacing" textLength="78" x="71.5" y="756.7373">confirms data</text><line style="stroke:#000000;stroke-width:1.0;stroke-dasharray:2.0,2.0;" x1="10" x2="657.5" y1="770.4922" y2="770.4922"/><text fill="#000000" font-family="sans-serif" font-size="11" font-weight="bold" lengthAdjust="spacing" textLength="140" x="15" y="780.4502">[if property type = house]</text><polygon fill="#181818" points="57.5,829.3516,47.5,833.3516,57.5,837.3516,53.5,833.3516" style="stroke:#181818;stroke-width:1.0;"/><line style="stroke:#181818;stroke-width:1.0;stroke-dasharray:2.0,2.0;" x1="51.5" x2="548.5" y1="833.3516" y2="833.3516"/><text fill="#000000" font-family="sans-serif" font-size="13" font-weight="bold" lengthAdjust="spacing" textLength="14" x="63.5" y="814.0732">17</text><text fill="#000000" font-family="sans-serif" font-size="13" lengthAdjust="spacing" textLength="433" x="81.5" y="799.5498">requests house data (price, area, address, distanceToCentre, photographs,</text><text fill="#000000" font-family="sans-serif" font-size="13" lengthAdjust="spacing" textLength="338" x="81.5" y="814.0732">bedroomNumber, bathroomNumber, parkingSpaceNumber,</text><text fill="#000000" font-family="sans-serif" font-size="13" lengthAdjust="spacing" textLength="307" x="81.5" y="828.5967">equipmentList, hasBasement, hasLoft, sunExposure)</text><polygon fill="#181818" points="532.5,857.875,542.5,861.875,532.5,865.875,536.5,861.875" style="stroke:#181818;stroke-width:1.0;"/><line style="stroke:#181818;stroke-width:1.0;" x1="46.5" x2="538.5" y1="861.875" y2="861.875"/><text fill="#000000" font-family="sans-serif" font-size="13" font-weight="bold" lengthAdjust="spacing" textLength="14" x="53.5" y="857.1201">18</text><text fill="#000000" font-family="sans-serif" font-size="13" lengthAdjust="spacing" textLength="122" x="71.5" y="857.1201">types requested data</text><polygon fill="#181818" points="57.5,886.3984,47.5,890.3984,57.5,894.3984,53.5,890.3984" style="stroke:#181818;stroke-width:1.0;"/><line style="stroke:#181818;stroke-width:1.0;stroke-dasharray:2.0,2.0;" x1="51.5" x2="548.5" y1="890.3984" y2="890.3984"/><text fill="#000000" font-family="sans-serif" font-size="13" font-weight="bold" lengthAdjust="spacing" textLength="14" x="63.5" y="885.6436">19</text><text fill="#000000" font-family="sans-serif" font-size="13" lengthAdjust="spacing" textLength="146" x="81.5" y="885.6436">request data confirmation</text><polygon fill="#181818" points="532.5,914.9219,542.5,918.9219,532.5,922.9219,536.5,918.9219" style="stroke:#181818;stroke-width:1.0;"/><line style="stroke:#181818;stroke-width:1.0;" x1="46.5" x2="538.5" y1="918.9219" y2="918.9219"/><text fill="#000000" font-family="sans-serif" font-size="13" font-weight="bold" lengthAdjust="spacing" textLength="14" x="53.5" y="914.167">20</text><text fill="#000000" font-family="sans-serif" font-size="13" lengthAdjust="spacing" textLength="78" x="71.5" y="914.167">confirms data</text><polygon fill="#181818" points="1467.5,980.4453,1477.5,984.4453,1467.5,988.4453,1471.5,984.4453" style="stroke:#181818;stroke-width:1.0;"/><line style="stroke:#181818;stroke-width:1.0;" x1="554.5" x2="1473.5" y1="984.4453" y2="984.4453"/><text fill="#000000" font-family="sans-serif" font-size="13" font-weight="bold" lengthAdjust="spacing" textLength="14" x="561.5" y="979.6904">21</text><text fill="#000000" font-family="sans-serif" font-size="13" lengthAdjust="spacing" textLength="113" x="579.5" y="979.6904">createProperty(info)</text><rect fill="none" height="37.9297" style="stroke:#000000;stroke-width:1.5;" width="181" x="1394" y="992.4453"/><path d="M1394,992.4453 L1456,992.4453 L1456,998.4453 L1446,1008.4453 L1394,1008.4453 L1394,992.4453 " fill="#EEEEEE" style="stroke:#000000;stroke-width:2.0;"/><text fill="#000000" font-family="sans-serif" font-size="13" font-weight="bold" lengthAdjust="spacing" textLength="17" x="1407" y="1006.2139">ref</text><text fill="#000000" font-family="sans-serif" font-size="12" lengthAdjust="spacing" textLength="81" x="1444" y="1023.3086">create property</text><polygon fill="#181818" points="565.5,1051.8984,555.5,1055.8984,565.5,1059.8984,561.5,1055.8984" style="stroke:#181818;stroke-width:1.0;"/><line style="stroke:#181818;stroke-width:1.0;stroke-dasharray:2.0,2.0;" x1="559.5" x2="1483.5" y1="1055.8984" y2="1055.8984"/><text fill="#000000" font-family="sans-serif" font-size="13" font-weight="bold" lengthAdjust="spacing" textLength="14" x="571.5" y="1051.1436">22</text><text fill="#000000" font-family="sans-serif" font-size="13" lengthAdjust="spacing" textLength="47" x="589.5" y="1051.1436">property</text><polygon fill="#181818" points="1467.5,1080.4219,1477.5,1084.4219,1467.5,1088.4219,1471.5,1084.4219" style="stroke:#181818;stroke-width:1.0;"/><line style="stroke:#181818;stroke-width:1.0;" x1="554.5" x2="1473.5" y1="1084.4219" y2="1084.4219"/><text fill="#000000" font-family="sans-serif" font-size="13" font-weight="bold" lengthAdjust="spacing" textLength="14" x="561.5" y="1079.667">23</text><text fill="#000000" font-family="sans-serif" font-size="13" lengthAdjust="spacing" textLength="137" x="579.5" y="1079.667">getAgentFromSession()</text><rect fill="none" height="37.9297" style="stroke:#000000;stroke-width:1.5;" width="181" x="1394" y="1092.4219"/><path d="M1394,1092.4219 L1456,1092.4219 L1456,1098.4219 L1446,1108.4219 L1394,1108.4219 L1394,1092.4219 " fill="#EEEEEE" style="stroke:#000000;stroke-width:2.0;"/><text fill="#000000" font-family="sans-serif" font-size="13" font-weight="bold" lengthAdjust="spacing" textLength="17" x="1407" y="1106.1904">ref</text><text fill="#000000" font-family="sans-serif" font-size="12" lengthAdjust="spacing" textLength="131" x="1419" y="1123.2852">get Agent From session</text><polygon fill="#181818" points="565.5,1151.875,555.5,1155.875,565.5,1159.875,561.5,1155.875" style="stroke:#181818;stroke-width:1.0;"/><line style="stroke:#181818;stroke-width:1.0;stroke-dasharray:2.0,2.0;" x1="559.5" x2="1483.5" y1="1155.875" y2="1155.875"/><text fill="#000000" font-family="sans-serif" font-size="13" font-weight="bold" lengthAdjust="spacing" textLength="14" x="571.5" y="1151.1201">24</text><text fill="#000000" font-family="sans-serif" font-size="13" lengthAdjust="spacing" textLength="32" x="589.5" y="1151.1201">agent</text><polygon fill="#181818" points="1467.5,1180.3984,1477.5,1184.3984,1467.5,1188.3984,1471.5,1184.3984" style="stroke:#181818;stroke-width:1.0;"/><line style="stroke:#181818;stroke-width:1.0;" x1="554.5" x2="1473.5" y1="1184.3984" y2="1184.3984"/><text fill="#000000" font-family="sans-serif" font-size="13" font-weight="bold" lengthAdjust="spacing" textLength="14" x="561.5" y="1179.6436">25</text><text fill="#000000" font-family="sans-serif" font-size="13" lengthAdjust="spacing" textLength="115" x="579.5" y="1179.6436">getBusinessTypes()</text><rect fill="none" height="37.9297" style="stroke:#000000;stroke-width:1.5;" width="181" x="1394" y="1192.3984"/><path d="M1394,1192.3984 L1456,1192.3984 L1456,1198.3984 L1446,1208.3984 L1394,1208.3984 L1394,1192.3984 " fill="#EEEEEE" style="stroke:#000000;stroke-width:2.0;"/><text fill="#000000" font-family="sans-serif" font-size="13" font-weight="bold" lengthAdjust="spacing" textLength="17" x="1407" y="1206.167">ref</text><text fill="#000000" font-family="sans-serif" font-size="12" lengthAdjust="spacing" textLength="116" x="1426.5" y="1223.2617">get business type list</text><polygon fill="#181818" points="565.5,1251.8516,555.5,1255.8516,565.5,1259.8516,561.5,1255.8516" style="stroke:#181818;stroke-width:1.0;"/><line style="stroke:#181818;stroke-width:1.0;stroke-dasharray:2.0,2.0;" x1="559.5" x2="1483.5" y1="1255.8516" y2="1255.8516"/><text fill="#000000" font-family="sans-serif" font-size="13" font-weight="bold" lengthAdjust="spacing" textLength="14" x="571.5" y="1251.0967">26</text><text fill="#000000" font-family="sans-serif" font-size="13" lengthAdjust="spacing" textLength="127" x="589.5" y="1251.0967">businessTypeListDTO</text><polygon fill="#181818" points="57.5,1280.375,47.5,1284.375,57.5,1288.375,53.5,1284.375" style="stroke:#181818;stroke-width:1.0;"/><line style="stroke:#181818;stroke-width:1.0;stroke-dasharray:2.0,2.0;" x1="51.5" x2="548.5" y1="1284.375" y2="1284.375"/><text fill="#000000" font-family="sans-serif" font-size="13" font-weight="bold" lengthAdjust="spacing" textLength="14" x="63.5" y="1279.6201">27</text><text fill="#000000" font-family="sans-serif" font-size="13" lengthAdjust="spacing" textLength="178" x="81.5" y="1279.6201">provides business type options</text><polygon fill="#181818" points="532.5,1308.8984,542.5,1312.8984,532.5,1316.8984,536.5,1312.8984" style="stroke:#181818;stroke-width:1.0;"/><line style="stroke:#181818;stroke-width:1.0;" x1="46.5" x2="538.5" y1="1312.8984" y2="1312.8984"/><text fill="#000000" font-family="sans-serif" font-size="13" font-weight="bold" lengthAdjust="spacing" textLength="14" x="53.5" y="1308.1436">28</text><text fill="#000000" font-family="sans-serif" font-size="13" lengthAdjust="spacing" textLength="127" x="71.5" y="1308.1436">selects business type</text><polygon fill="#181818" points="1467.5,1337.4219,1477.5,1341.4219,1467.5,1345.4219,1471.5,1341.4219" style="stroke:#181818;stroke-width:1.0;"/><line style="stroke:#181818;stroke-width:1.0;" x1="554.5" x2="1473.5" y1="1341.4219" y2="1341.4219"/><text fill="#000000" font-family="sans-serif" font-size="13" font-weight="bold" lengthAdjust="spacing" textLength="14" x="561.5" y="1336.667">29</text><text fill="#000000" font-family="sans-serif" font-size="13" lengthAdjust="spacing" textLength="334" x="579.5" y="1336.667">getBusinessTypeByDescription(businessTypeDescription)</text><rect fill="none" height="37.9297" style="stroke:#000000;stroke-width:1.5;" width="181" x="1394" y="1349.4219"/><path d="M1394,1349.4219 L1456,1349.4219 L1456,1355.4219 L1446,1365.4219 L1394,1365.4219 L1394,1349.4219 " fill="#EEEEEE" style="stroke:#000000;stroke-width:2.0;"/><text fill="#000000" font-family="sans-serif" font-size="13" font-weight="bold" lengthAdjust="spacing" textLength="17" x="1407" y="1363.1904">ref</text><text fill="#000000" font-family="sans-serif" font-size="12" lengthAdjust="spacing" textLength="97" x="1436" y="1380.2852">get business type</text><polygon fill="#181818" points="565.5,1408.875,555.5,1412.875,565.5,1416.875,561.5,1412.875" style="stroke:#181818;stroke-width:1.0;"/><line style="stroke:#181818;stroke-width:1.0;stroke-dasharray:2.0,2.0;" x1="559.5" x2="1483.5" y1="1412.875" y2="1412.875"/><text fill="#000000" font-family="sans-serif" font-size="13" font-weight="bold" lengthAdjust="spacing" textLength="14" x="571.5" y="1408.1201">30</text><text fill="#000000" font-family="sans-serif" font-size="13" lengthAdjust="spacing" textLength="80" x="589.5" y="1408.1201">businessType</text><path d="M10,1427.875 L71,1427.875 L71,1434.3984 L61,1444.3984 L10,1444.3984 L10,1427.875 " fill="#EEEEEE" style="stroke:#000000;stroke-width:1.5;"/><rect fill="none" height="73.5703" style="stroke:#000000;stroke-width:1.5;" width="647.5" x="10" y="1427.875"/><text fill="#000000" font-family="sans-serif" font-size="13" font-weight="bold" lengthAdjust="spacing" textLength="16" x="25" y="1440.6436">alt</text><text fill="#000000" font-family="sans-serif" font-size="11" font-weight="bold" lengthAdjust="spacing" textLength="105" x="86" y="1439.833">[if business = rent]</text><polygon fill="#181818" points="57.5,1460.9219,47.5,1464.9219,57.5,1468.9219,53.5,1464.9219" style="stroke:#181818;stroke-width:1.0;"/><line style="stroke:#181818;stroke-width:1.0;stroke-dasharray:2.0,2.0;" x1="51.5" x2="548.5" y1="1464.9219" y2="1464.9219"/><text fill="#000000" font-family="sans-serif" font-size="13" font-weight="bold" lengthAdjust="spacing" textLength="14" x="63.5" y="1460.167">31</text><text fill="#000000" font-family="sans-serif" font-size="13" lengthAdjust="spacing" textLength="161" x="81.5" y="1460.167">requests data (rentDuration)</text><polygon fill="#181818" points="532.5,1489.4453,542.5,1493.4453,532.5,1497.4453,536.5,1493.4453" style="stroke:#181818;stroke-width:1.0;"/><line style="stroke:#181818;stroke-width:1.0;" x1="46.5" x2="538.5" y1="1493.4453" y2="1493.4453"/><text fill="#000000" font-family="sans-serif" font-size="13" font-weight="bold" lengthAdjust="spacing" textLength="14" x="53.5" y="1488.6904">32</text><text fill="#000000" font-family="sans-serif" font-size="13" lengthAdjust="spacing" textLength="122" x="71.5" y="1488.6904">types requested data</text><polygon fill="#181818" points="57.5,1524.9688,47.5,1528.9688,57.5,1532.9688,53.5,1528.9688" style="stroke:#181818;stroke-width:1.0;"/><line style="stroke:#181818;stroke-width:1.0;stroke-dasharray:2.0,2.0;" x1="51.5" x2="548.5" y1="1528.9688" y2="1528.9688"/><text fill="#000000" font-family="sans-serif" font-size="13" font-weight="bold" lengthAdjust="spacing" textLength="14" x="63.5" y="1524.2139">33</text><text fill="#000000" font-family="sans-serif" font-size="13" lengthAdjust="spacing" textLength="254" x="81.5" y="1524.2139">asks if commission is in percentage or fixed</text><polygon fill="#181818" points="532.5,1553.4922,542.5,1557.4922,532.5,1561.4922,536.5,1557.4922" style="stroke:#181818;stroke-width:1.0;"/><line style="stroke:#181818;stroke-width:1.0;" x1="46.5" x2="538.5" y1="1557.4922" y2="1557.4922"/><text fill="#000000" font-family="sans-serif" font-size="13" font-weight="bold" lengthAdjust="spacing" textLength="14" x="53.5" y="1552.7373">34</text><text fill="#000000" font-family="sans-serif" font-size="13" lengthAdjust="spacing" textLength="143" x="71.5" y="1552.7373">inputs the pretend option</text><polygon fill="#181818" points="57.5,1582.0156,47.5,1586.0156,57.5,1590.0156,53.5,1586.0156" style="stroke:#181818;stroke-width:1.0;"/><line style="stroke:#181818;stroke-width:1.0;stroke-dasharray:2.0,2.0;" x1="51.5" x2="548.5" y1="1586.0156" y2="1586.0156"/><text fill="#000000" font-family="sans-serif" font-size="13" font-weight="bold" lengthAdjust="spacing" textLength="14" x="63.5" y="1581.2607">35</text><text fill="#000000" font-family="sans-serif" font-size="13" lengthAdjust="spacing" textLength="250" x="81.5" y="1581.2607">asks for announcement data ( commission)</text><polygon fill="#181818" points="532.5,1610.5391,542.5,1614.5391,532.5,1618.5391,536.5,1614.5391" style="stroke:#181818;stroke-width:1.0;"/><line style="stroke:#181818;stroke-width:1.0;" x1="46.5" x2="538.5" y1="1614.5391" y2="1614.5391"/><text fill="#000000" font-family="sans-serif" font-size="13" font-weight="bold" lengthAdjust="spacing" textLength="14" x="53.5" y="1609.7842">36</text><text fill="#000000" font-family="sans-serif" font-size="13" lengthAdjust="spacing" textLength="187" x="71.5" y="1609.7842">provides the announcement data</text><polygon fill="#181818" points="57.5,1639.0625,47.5,1643.0625,57.5,1647.0625,53.5,1643.0625" style="stroke:#181818;stroke-width:1.0;"/><line style="stroke:#181818;stroke-width:1.0;stroke-dasharray:2.0,2.0;" x1="51.5" x2="548.5" y1="1643.0625" y2="1643.0625"/><text fill="#000000" font-family="sans-serif" font-size="13" font-weight="bold" lengthAdjust="spacing" textLength="14" x="63.5" y="1638.3076">37</text><text fill="#000000" font-family="sans-serif" font-size="13" lengthAdjust="spacing" textLength="146" x="81.5" y="1638.3076">request data confirmation</text><polygon fill="#181818" points="532.5,1667.5859,542.5,1671.5859,532.5,1675.5859,536.5,1671.5859" style="stroke:#181818;stroke-width:1.0;"/><line style="stroke:#181818;stroke-width:1.0;" x1="46.5" x2="538.5" y1="1671.5859" y2="1671.5859"/><text fill="#000000" font-family="sans-serif" font-size="13" font-weight="bold" lengthAdjust="spacing" textLength="14" x="53.5" y="1666.8311">38</text><text fill="#000000" font-family="sans-serif" font-size="13" lengthAdjust="spacing" textLength="78" x="71.5" y="1666.8311">confirms data</text><polygon fill="#181818" points="1467.5,1696.1094,1477.5,1700.1094,1467.5,1704.1094,1471.5,1700.1094" style="stroke:#181818;stroke-width:1.0;"/><line style="stroke:#181818;stroke-width:1.0;stroke-dasharray:2.0,2.0;" x1="554.5" x2="1473.5" y1="1700.1094" y2="1700.1094"/><text fill="#000000" font-family="sans-serif" font-size="13" font-weight="bold" lengthAdjust="spacing" textLength="14" x="561.5" y="1695.3545">39</text><text fill="#000000" font-family="sans-serif" font-size="13" lengthAdjust="spacing" textLength="888" x="579.5" y="1695.3545">createAnnouncement(agent,date,commission,getController().getBusinessTypeByDescription(BusinessTypeDescription),property1,rentDuration,listedPrice)</text><rect fill="none" height="37.9297" style="stroke:#000000;stroke-width:1.5;" width="181" x="1394" y="1708.1094"/><path d="M1394,1708.1094 L1456,1708.1094 L1456,1714.1094 L1446,1724.1094 L1394,1724.1094 L1394,1708.1094 " fill="#EEEEEE" style="stroke:#000000;stroke-width:2.0;"/><text fill="#000000" font-family="sans-serif" font-size="13" font-weight="bold" lengthAdjust="spacing" textLength="17" x="1407" y="1721.8779">ref</text><text fill="#000000" font-family="sans-serif" font-size="12" lengthAdjust="spacing" textLength="120" x="1423" y="1738.9727">create announcement</text><polygon fill="#181818" points="565.5,1767.5625,555.5,1771.5625,565.5,1775.5625,561.5,1771.5625" style="stroke:#181818;stroke-width:1.0;"/><line style="stroke:#181818;stroke-width:1.0;stroke-dasharray:2.0,2.0;" x1="559.5" x2="1483.5" y1="1771.5625" y2="1771.5625"/><text fill="#000000" font-family="sans-serif" font-size="13" font-weight="bold" lengthAdjust="spacing" textLength="14" x="571.5" y="1766.8076">40</text><text fill="#000000" font-family="sans-serif" font-size="13" lengthAdjust="spacing" textLength="85" x="589.5" y="1766.8076">announcement</text><polygon fill="#181818" points="1467.5,1796.0859,1477.5,1800.0859,1467.5,1804.0859,1471.5,1800.0859" style="stroke:#181818;stroke-width:1.0;"/><line style="stroke:#181818;stroke-width:1.0;" x1="554.5" x2="1473.5" y1="1800.0859" y2="1800.0859"/><text fill="#000000" font-family="sans-serif" font-size="13" font-weight="bold" lengthAdjust="spacing" textLength="14" x="561.5" y="1795.3311">41</text><text fill="#000000" font-family="sans-serif" font-size="13" lengthAdjust="spacing" textLength="458" x="579.5" y="1795.3311">createSMS (senderNumber, recipientNumber,dateAvailable, address, message)</text><rect fill="none" height="37.9297" style="stroke:#000000;stroke-width:1.5;" width="181" x="1394" y="1808.0859"/><path d="M1394,1808.0859 L1456,1808.0859 L1456,1814.0859 L1446,1824.0859 L1394,1824.0859 L1394,1808.0859 " fill="#EEEEEE" style="stroke:#000000;stroke-width:2.0;"/><text fill="#000000" font-family="sans-serif" font-size="13" font-weight="bold" lengthAdjust="spacing" textLength="17" x="1407" y="1821.8545">ref</text><text fill="#000000" font-family="sans-serif" font-size="12" lengthAdjust="spacing" textLength="62" x="1453.5" y="1838.9492">create sms</text><polygon fill="#181818" points="565.5,1867.5391,555.5,1871.5391,565.5,1875.5391,561.5,1871.5391" style="stroke:#181818;stroke-width:1.0;"/><line style="stroke:#181818;stroke-width:1.0;stroke-dasharray:2.0,2.0;" x1="559.5" x2="1478.5" y1="1871.5391" y2="1871.5391"/><text fill="#000000" font-family="sans-serif" font-size="13" font-weight="bold" lengthAdjust="spacing" textLength="14" x="571.5" y="1866.7842">42</text><text fill="#000000" font-family="sans-serif" font-size="13" lengthAdjust="spacing" textLength="99" x="589.5" y="1866.7842">sucess message</text><polygon fill="#181818" points="57.5,1896.0625,47.5,1900.0625,57.5,1904.0625,53.5,1900.0625" style="stroke:#181818;stroke-width:1.0;"/><line style="stroke:#181818;stroke-width:1.0;stroke-dasharray:2.0,2.0;" x1="51.5" x2="543.5" y1="1900.0625" y2="1900.0625"/><text fill="#000000" font-family="sans-serif" font-size="13" font-weight="bold" lengthAdjust="spacing" textLength="14" x="63.5" y="1895.3076">43</text><text fill="#000000" font-family="sans-serif" font-size="13" lengthAdjust="spacing" textLength="158" x="81.5" y="1895.3076">displays operation success</text><!--SRC=[pLTBR-Cs4BxpLmnoYRtG5YZGau5T88zs4MpQBkhabWijZIqY4gabgJJ-znrIBygcP6UH0aiOXYsHCz-yFvfd8IkkUGcbaYhDjIeHhAwHcVvDnTDdliErtHS86bFBvQu8DvYSP-fV8NUmvOL1ndXjbQpB3Mh6BdEH8MoLiXlrodXgbOQBgnrAUm7SmDKNHaAiI4N5fOMBrOr6Rd7D2xoIKjKonPBsFjxvtOzt1xl3FJTAMgsA0hNVU_FmppqROo7jueMaEwqCsdNr1Jv-9icmebFF1go2gjuKmkJ09Nq61VsHNWxXOPSGB1BpaQIHp1MvwdkDnXh8kEMmqBX5ZIGgWGnDgaLbXP89W91RfKjUm9CSlx6OvbAaz6RqEAirRtwbojWb2_LVfjvzZV67m3xxnny-4BPc6-jMVESATcY_QLMXjlk7VOLcCTRM-w7rTIY8p0NrWleO2YsI2rwmtOCJ3EHkUxW9PUQaa50dmllryMvL1NZkwTJjmz-C_7C4PIHgI0BuROopiTR7YoI_KAuQw5I0TT2KTxiPZWJANFmZUMIme38v41JFdZ4EiW- -8bQtb36BqDBR8G6MRSXuOK5i3y1-WeBBZ4scedlRvcEbXSj5Jfb0trccqHXABd8ffoHzK3UKyPesLBcoQgTvbPic-cFx3qntA4od3njTB6vr1603BLLoAwWYdBKixlM8qzjJPb1vfBPPaMJn3aNgNJ6FSjTo-lgFkhNVykE-JPxa1ZEjLFcNJzHamsqU_AKshAdZxjRKZh5zzYG9WAYSObSAxngUdzXEDfKFvnWwKNzlJSUvf3mpDISJj6bGK-cOgzeWcnquViixXWZU7gC4ScwkkV63q_-vLrlwOMhv-skbJArnUNvjpqJplDJztnlBSLC9nfWFw31NIMOxWBlXkd0SOCccvcfabhPplaiEDfgOCB62EThCk-1iP9sQgiUC0JnbyEpk3wAIQyerSlK1QvYc3n4x7LFmyi09fCdg9OxDdO0LiWRWkv30dJBpE624uxesGfB-61EAc1FHDCk9HkHeq-fgYZx6ZeveqjXmiji7UHE0xkdIIUF32kffqHXJHuiEs51NDmC96XrZ4yrtrjdN-u3-B4ABHhHeFhdU58YZ4B1fln-87jTO23RO6VKwT9Ikr_o95FHPEtkraFQslHKiEotlEY2TiOGk64yzdFRQHBXJLPR2roS8UY21sajAqAZsW6vzM_6AsKaQ3KC6qVso9XjjxleSMeUXoJesDJuZGz63emlMw2RN-Yr0tAVFALXXHJXaHs8Pp1Bz7-GQCqpZJA9nEB76K9hxNZDLmalrmZVEXEHXCdWheG8PhjkBvI-p5NizKR59Du5-JS8CJboxm-oR8owJC_6CIcv7v2X0RAvrZWT6vE8_EUJ3EtEZTltd6XQ65A3kI9F6L5I2nBKFd4-lNhWe-AR0W9kLz4rUFs7wfE6jsQOqB7gPZjXgwjIrcrRnKHMj75si2hutuEBbW-JEk4E33oR6Q6pz1m00]--></g></svg>