<?xml version="1.0" encoding="us-ascii" standalone="no"?><svg xmlns="http://www.w3.org/2000/svg" xmlns:xlink="http://www.w3.org/1999/xlink" contentStyleType="text/css" height="642px" preserveAspectRatio="none" style="width:2724px;height:642px;background:#FFFFFF;" version="1.1" viewBox="0 0 2724 642" width="2724px" zoomAndPan="magnify"><defs/><g><rect fill="#FFFFFF" height="491.9688" style="stroke:#181818;stroke-width:1.0;" width="10" x="925" y="81.8047"/><rect fill="#FFFFFF" height="28.5234" style="stroke:#181818;stroke-width:1.0;" width="10" x="1071" y="110.3281"/><rect fill="#FFFFFF" height="28.5234" style="stroke:#181818;stroke-width:1.0;" width="10" x="1178" y="167.375"/><rect fill="#FFFFFF" height="320.8281" style="stroke:#181818;stroke-width:1.0;" width="10" x="1871" y="224.4219"/><rect fill="#FFFFFF" height="122.5703" style="stroke:#181818;stroke-width:1.0;" width="10" x="1876" y="330.1094"/><rect fill="#FFFFFF" height="39.5234" style="stroke:#181818;stroke-width:1.0;" width="10" x="1881" y="371.6328"/><rect fill="#FFFFFF" height="30.6406" style="stroke:#181818;stroke-width:1.0;" width="10" x="2491.5" y="262.9453"/><rect fill="#FFFFFF" height="28.5234" style="stroke:#181818;stroke-width:1.0;" width="10" x="2634.5" y="488.2031"/><line style="stroke:#181818;stroke-width:0.5;stroke-dasharray:5.0,5.0;" x1="929.5" x2="929.5" y1="51.2813" y2="591.7734"/><line style="stroke:#181818;stroke-width:0.5;stroke-dasharray:5.0,5.0;" x1="1075.5" x2="1075.5" y1="51.2813" y2="591.7734"/><line style="stroke:#181818;stroke-width:0.5;stroke-dasharray:5.0,5.0;" x1="1182.5" x2="1182.5" y1="51.2813" y2="591.7734"/><line style="stroke:#181818;stroke-width:0.5;stroke-dasharray:5.0,5.0;" x1="1876" x2="1876" y1="51.2813" y2="591.7734"/><line style="stroke:#181818;stroke-width:0.5;stroke-dasharray:5.0,5.0;" x1="2496" x2="2496" y1="262.7422" y2="591.7734"/><line style="stroke:#181818;stroke-width:0.5;stroke-dasharray:5.0,5.0;" x1="2639" x2="2639" y1="51.2813" y2="591.7734"/><rect fill="#E3E3E3" height="29.6406" rx="2.5" ry="2.5" style="stroke:#181818;stroke-width:0.5;" width="175" x="842.5" y="20.6406"/><text fill="#000000" font-family="sans-serif" font-size="14" lengthAdjust="spacing" textLength="161" x="849.5" y="40.3145">:AnnouncementController</text><rect fill="#E3E3E3" height="29.6406" rx="2.5" ry="2.5" style="stroke:#181818;stroke-width:0.5;" width="175" x="842.5" y="590.7734"/><text fill="#000000" font-family="sans-serif" font-size="14" lengthAdjust="spacing" textLength="161" x="849.5" y="610.4473">:AnnouncementController</text><rect fill="#E3E3E3" height="29.6406" rx="2.5" ry="2.5" style="stroke:#181818;stroke-width:0.5;" width="97" x="1027.5" y="20.6406"/><text fill="#000000" font-family="sans-serif" font-size="14" lengthAdjust="spacing" textLength="83" x="1034.5" y="40.3145">:Repositories</text><rect fill="#E3E3E3" height="29.6406" rx="2.5" ry="2.5" style="stroke:#181818;stroke-width:0.5;" width="97" x="1027.5" y="590.7734"/><text fill="#000000" font-family="sans-serif" font-size="14" lengthAdjust="spacing" textLength="83" x="1034.5" y="610.4473">:Repositories</text><rect fill="#E3E3E3" height="45.2813" rx="2.5" ry="2.5" style="stroke:#181818;stroke-width:0.5;" width="97" x="1134.5" y="5"/><text fill="#000000" font-family="sans-serif" font-size="14" lengthAdjust="spacing" textLength="74" x="1146" y="24.6738">repositories</text><text fill="#000000" font-family="sans-serif" font-size="14" lengthAdjust="spacing" textLength="83" x="1141.5" y="40.3145">:Repositories</text><rect fill="#E3E3E3" height="45.2813" rx="2.5" ry="2.5" style="stroke:#181818;stroke-width:0.5;" width="97" x="1134.5" y="590.7734"/><text fill="#000000" font-family="sans-serif" font-size="14" lengthAdjust="spacing" textLength="74" x="1146" y="610.4473">repositories</text><text fill="#000000" font-family="sans-serif" font-size="14" lengthAdjust="spacing" textLength="83" x="1141.5" y="626.0879">:Repositories</text><rect fill="#E3E3E3" height="45.2813" rx="2.5" ry="2.5" style="stroke:#181818;stroke-width:0.5;" width="180" x="1786" y="5"/><text fill="#000000" font-family="sans-serif" font-size="14" lengthAdjust="spacing" textLength="166" x="1793" y="24.6738">announcementRepository:</text><text fill="#000000" font-family="sans-serif" font-size="14" lengthAdjust="spacing" textLength="163" x="1794.5" y="40.3145">AnnouncementRepository</text><rect fill="#E3E3E3" height="45.2813" rx="2.5" ry="2.5" style="stroke:#181818;stroke-width:0.5;" width="180" x="1786" y="590.7734"/><text fill="#000000" font-family="sans-serif" font-size="14" lengthAdjust="spacing" textLength="166" x="1793" y="610.4473">announcementRepository:</text><text fill="#000000" font-family="sans-serif" font-size="14" lengthAdjust="spacing" textLength="163" x="1794.5" y="626.0879">AnnouncementRepository</text><rect fill="#E3E3E3" height="29.6406" rx="2.5" ry="2.5" style="stroke:#181818;stroke-width:0.5;" width="109" x="2442" y="590.7734"/><text fill="#000000" font-family="sans-serif" font-size="14" lengthAdjust="spacing" textLength="95" x="2449" y="610.4473">Announcement</text><rect fill="#E3E3E3" height="29.6406" rx="2.5" ry="2.5" style="stroke:#181818;stroke-width:0.5;" width="157" x="2561" y="20.6406"/><text fill="#000000" font-family="sans-serif" font-size="14" lengthAdjust="spacing" textLength="143" x="2568" y="40.3145">AnnouncementMapper</text><rect fill="#E3E3E3" height="29.6406" rx="2.5" ry="2.5" style="stroke:#181818;stroke-width:0.5;" width="157" x="2561" y="590.7734"/><text fill="#000000" font-family="sans-serif" font-size="14" lengthAdjust="spacing" textLength="143" x="2568" y="610.4473">AnnouncementMapper</text><rect fill="#FFFFFF" height="491.9688" style="stroke:#181818;stroke-width:1.0;" width="10" x="925" y="81.8047"/><rect fill="#FFFFFF" height="28.5234" style="stroke:#181818;stroke-width:1.0;" width="10" x="1071" y="110.3281"/><rect fill="#FFFFFF" height="28.5234" style="stroke:#181818;stroke-width:1.0;" width="10" x="1178" y="167.375"/><rect fill="#FFFFFF" height="320.8281" style="stroke:#181818;stroke-width:1.0;" width="10" x="1871" y="224.4219"/><rect fill="#FFFFFF" height="122.5703" style="stroke:#181818;stroke-width:1.0;" width="10" x="1876" y="330.1094"/><rect fill="#FFFFFF" height="39.5234" style="stroke:#181818;stroke-width:1.0;" width="10" x="1881" y="371.6328"/><rect fill="#FFFFFF" height="30.6406" style="stroke:#181818;stroke-width:1.0;" width="10" x="2491.5" y="262.9453"/><rect fill="#FFFFFF" height="28.5234" style="stroke:#181818;stroke-width:1.0;" width="10" x="2634.5" y="488.2031"/><polygon fill="#181818" points="913,77.8047,923,81.8047,913,85.8047,917,81.8047" style="stroke:#181818;stroke-width:1.0;"/><line style="stroke:#181818;stroke-width:1.0;" x1="0" x2="919" y1="81.8047" y2="81.8047"/><text fill="#000000" font-family="sans-serif" font-size="13" font-weight="bold" lengthAdjust="spacing" textLength="14" x="7" y="77.0498">59</text><text fill="#000000" font-family="sans-serif" font-size="13" lengthAdjust="spacing" textLength="888" x="25" y="77.0498">createAnnouncement(agent,date,commission,getController().getBusinessTypeByDescription(BusinessTypeDescription),property1,rentDuration,listedPrice)</text><polygon fill="#181818" points="1059,106.3281,1069,110.3281,1059,114.3281,1063,110.3281" style="stroke:#181818;stroke-width:1.0;"/><line style="stroke:#181818;stroke-width:1.0;" x1="935" x2="1065" y1="110.3281" y2="110.3281"/><text fill="#000000" font-family="sans-serif" font-size="13" font-weight="bold" lengthAdjust="spacing" textLength="25" x="942" y="105.5732">60.1</text><text fill="#000000" font-family="sans-serif" font-size="13" lengthAdjust="spacing" textLength="75" x="971" y="105.5732">getInstance()</text><polygon fill="#181818" points="946,134.8516,936,138.8516,946,142.8516,942,138.8516" style="stroke:#181818;stroke-width:1.0;"/><line style="stroke:#181818;stroke-width:1.0;stroke-dasharray:2.0,2.0;" x1="940" x2="1075" y1="138.8516" y2="138.8516"/><text fill="#000000" font-family="sans-serif" font-size="13" font-weight="bold" lengthAdjust="spacing" textLength="25" x="952" y="134.0967">60.2</text><text fill="#000000" font-family="sans-serif" font-size="13" lengthAdjust="spacing" textLength="67" x="981" y="134.0967">repositories</text><polygon fill="#181818" points="1166,163.375,1176,167.375,1166,171.375,1170,167.375" style="stroke:#181818;stroke-width:1.0;"/><line style="stroke:#181818;stroke-width:1.0;" x1="935" x2="1172" y1="167.375" y2="167.375"/><text fill="#000000" font-family="sans-serif" font-size="13" font-weight="bold" lengthAdjust="spacing" textLength="25" x="942" y="162.6201">60.3</text><text fill="#000000" font-family="sans-serif" font-size="13" lengthAdjust="spacing" textLength="175" x="971" y="162.6201">getAnnouncementRepository()</text><polygon fill="#181818" points="946,191.8984,936,195.8984,946,199.8984,942,195.8984" style="stroke:#181818;stroke-width:1.0;"/><line style="stroke:#181818;stroke-width:1.0;" x1="940" x2="1182" y1="195.8984" y2="195.8984"/><text fill="#000000" font-family="sans-serif" font-size="13" font-weight="bold" lengthAdjust="spacing" textLength="25" x="952" y="191.1436">60.4</text><text fill="#000000" font-family="sans-serif" font-size="13" lengthAdjust="spacing" textLength="147" x="981" y="191.1436">announcementRepository</text><polygon fill="#181818" points="1859,220.4219,1869,224.4219,1859,228.4219,1863,224.4219" style="stroke:#181818;stroke-width:1.0;"/><line style="stroke:#181818;stroke-width:1.0;" x1="935" x2="1865" y1="224.4219" y2="224.4219"/><text fill="#000000" font-family="sans-serif" font-size="13" font-weight="bold" lengthAdjust="spacing" textLength="25" x="942" y="219.667">60.5</text><text fill="#000000" font-family="sans-serif" font-size="13" lengthAdjust="spacing" textLength="888" x="971" y="219.667">createAnnouncement(agent,date,commission,getController().getBusinessTypeByDescription(BusinessTypeDescription),property1,rentDuration,listedPrice)</text><polygon fill="#181818" points="2430,248.9453,2440,252.9453,2430,256.9453,2434,252.9453" style="stroke:#181818;stroke-width:1.0;"/><line style="stroke:#181818;stroke-width:1.0;" x1="1881" x2="2436" y1="252.9453" y2="252.9453"/><text fill="#000000" font-family="sans-serif" font-size="13" font-weight="bold" lengthAdjust="spacing" textLength="25" x="1888" y="248.1904">51.1</text><text fill="#000000" font-family="sans-serif" font-size="13" lengthAdjust="spacing" textLength="508" x="1917" y="248.1904">create(agent, dateTime, Commission,businessType,property, RentDuration, ListedPrice)</text><rect fill="#E3E3E3" height="29.6406" rx="2.5" ry="2.5" style="stroke:#181818;stroke-width:0.5;" width="109" x="2442" y="232.4219"/><text fill="#000000" font-family="sans-serif" font-size="14" lengthAdjust="spacing" textLength="95" x="2449" y="252.0957">Announcement</text><polygon fill="#181818" points="1892,289.5859,1882,293.5859,1892,297.5859,1888,293.5859" style="stroke:#181818;stroke-width:1.0;"/><line style="stroke:#181818;stroke-width:1.0;stroke-dasharray:2.0,2.0;" x1="1886" x2="2495.5" y1="293.5859" y2="293.5859"/><text fill="#000000" font-family="sans-serif" font-size="13" font-weight="bold" lengthAdjust="spacing" textLength="25" x="1898" y="288.8311">51.2</text><text fill="#000000" font-family="sans-serif" font-size="13" lengthAdjust="spacing" textLength="85" x="1927" y="288.8311">announcement</text><line style="stroke:#181818;stroke-width:1.0;" x1="1881" x2="1928" y1="317.1094" y2="317.1094"/><line style="stroke:#181818;stroke-width:1.0;" x1="1928" x2="1928" y1="317.1094" y2="330.1094"/><line style="stroke:#181818;stroke-width:1.0;" x1="1887" x2="1928" y1="330.1094" y2="330.1094"/><polygon fill="#181818" points="1897,326.1094,1887,330.1094,1897,334.1094,1893,330.1094" style="stroke:#181818;stroke-width:1.0;"/><text fill="#000000" font-family="sans-serif" font-size="13" font-weight="bold" lengthAdjust="spacing" textLength="25" x="1893" y="312.3545">51.3</text><text fill="#000000" font-family="sans-serif" font-size="13" lengthAdjust="spacing" textLength="223" x="1922" y="312.3545">validateAnnouncement(announcement)</text><line style="stroke:#181818;stroke-width:1.0;" x1="1886" x2="1933" y1="358.6328" y2="358.6328"/><line style="stroke:#181818;stroke-width:1.0;" x1="1933" x2="1933" y1="358.6328" y2="371.6328"/><line style="stroke:#181818;stroke-width:1.0;" x1="1892" x2="1933" y1="371.6328" y2="371.6328"/><polygon fill="#181818" points="1902,367.6328,1892,371.6328,1902,375.6328,1898,371.6328" style="stroke:#181818;stroke-width:1.0;"/><text fill="#000000" font-family="sans-serif" font-size="13" font-weight="bold" lengthAdjust="spacing" textLength="25" x="1898" y="353.8779">51.4</text><text fill="#000000" font-family="sans-serif" font-size="13" lengthAdjust="spacing" textLength="201" x="1927" y="353.8779">addAnnouncement(announcement)</text><line style="stroke:#181818;stroke-width:1.0;stroke-dasharray:2.0,2.0;" x1="1891" x2="1933" y1="410.1563" y2="410.1563"/><line style="stroke:#181818;stroke-width:1.0;stroke-dasharray:2.0,2.0;" x1="1933" x2="1933" y1="410.1563" y2="423.1563"/><line style="stroke:#181818;stroke-width:1.0;stroke-dasharray:2.0,2.0;" x1="1886" x2="1933" y1="423.1563" y2="423.1563"/><polygon fill="#181818" points="1896,419.1563,1886,423.1563,1896,427.1563,1892,423.1563" style="stroke:#181818;stroke-width:1.0;"/><text fill="#000000" font-family="sans-serif" font-size="13" font-weight="bold" lengthAdjust="spacing" textLength="25" x="1898" y="405.4014">51.5</text><text fill="#000000" font-family="sans-serif" font-size="13" lengthAdjust="spacing" textLength="4" x="1927" y="405.4014">&#160;</text><line style="stroke:#181818;stroke-width:1.0;stroke-dasharray:2.0,2.0;" x1="1886" x2="1928" y1="451.6797" y2="451.6797"/><line style="stroke:#181818;stroke-width:1.0;stroke-dasharray:2.0,2.0;" x1="1928" x2="1928" y1="451.6797" y2="464.6797"/><line style="stroke:#181818;stroke-width:1.0;stroke-dasharray:2.0,2.0;" x1="1881" x2="1928" y1="464.6797" y2="464.6797"/><polygon fill="#181818" points="1891,460.6797,1881,464.6797,1891,468.6797,1887,464.6797" style="stroke:#181818;stroke-width:1.0;"/><text fill="#000000" font-family="sans-serif" font-size="13" font-weight="bold" lengthAdjust="spacing" textLength="25" x="1893" y="446.9248">51.6</text><text fill="#000000" font-family="sans-serif" font-size="13" lengthAdjust="spacing" textLength="4" x="1922" y="446.9248">&#160;</text><polygon fill="#181818" points="2622.5,484.2031,2632.5,488.2031,2622.5,492.2031,2626.5,488.2031" style="stroke:#181818;stroke-width:1.0;"/><line style="stroke:#181818;stroke-width:1.0;" x1="1881" x2="2628.5" y1="488.2031" y2="488.2031"/><text fill="#000000" font-family="sans-serif" font-size="13" font-weight="bold" lengthAdjust="spacing" textLength="25" x="1888" y="483.4482">51.7</text><text fill="#000000" font-family="sans-serif" font-size="13" lengthAdjust="spacing" textLength="130" x="1917" y="483.4482">toDTO(announcement)</text><polygon fill="#181818" points="1892,512.7266,1882,516.7266,1892,520.7266,1888,516.7266" style="stroke:#181818;stroke-width:1.0;"/><line style="stroke:#181818;stroke-width:1.0;stroke-dasharray:2.0,2.0;" x1="1886" x2="2638.5" y1="516.7266" y2="516.7266"/><text fill="#000000" font-family="sans-serif" font-size="13" font-weight="bold" lengthAdjust="spacing" textLength="25" x="1898" y="511.9717">51.8</text><text fill="#000000" font-family="sans-serif" font-size="13" lengthAdjust="spacing" textLength="111" x="1927" y="511.9717">announcementDTO</text><polygon fill="#181818" points="946,541.25,936,545.25,946,549.25,942,545.25" style="stroke:#181818;stroke-width:1.0;"/><line style="stroke:#181818;stroke-width:1.0;stroke-dasharray:2.0,2.0;" x1="940" x2="1875" y1="545.25" y2="545.25"/><text fill="#000000" font-family="sans-serif" font-size="13" font-weight="bold" lengthAdjust="spacing" textLength="25" x="952" y="540.4951">51.9</text><text fill="#000000" font-family="sans-serif" font-size="13" lengthAdjust="spacing" textLength="111" x="981" y="540.4951">announcementDTO</text><polygon fill="#181818" points="11,569.7734,1,573.7734,11,577.7734,7,573.7734" style="stroke:#181818;stroke-width:1.0;"/><line style="stroke:#181818;stroke-width:1.0;stroke-dasharray:2.0,2.0;" x1="5" x2="929" y1="573.7734" y2="573.7734"/><text fill="#000000" font-family="sans-serif" font-size="13" font-weight="bold" lengthAdjust="spacing" textLength="32" x="17" y="569.0186">51.10</text><text fill="#000000" font-family="sans-serif" font-size="13" lengthAdjust="spacing" textLength="111" x="53" y="569.0186">announcementDTO</text><!--SRC=[pLNBRjim4BppAuXSQWToK1TeWGX50SM-5B3SGF4n5vhQs4GaKY2fjFhxKW_RQujnPAE7yaPoTsTcToYPLo4BfbbESoKLtsgL0xMw16BsDmNZhsm3JxRAW6hWbibDXWFCbgNgjv0R-i8o0uImqYfPvclGzDiNGZvjHGhqHIcxLd-8ox62Yu99Is_2I4fLIWuvI3jJqcgLPQ1lA3DqjaeMv2GyWK8POPKMO9gW_K7r96fQ3lWuHQECPzalyBY8LiSP354wb0-VPUIzQAf4oN4D7De6BDyFY5bHT9gZc11AKV- -thkzMvCVJJz2oZKm2pXzv8OZRP2wuu2hF1V622M33Q26ZiPtRlzG6Y71c5LLm4Cr1yErAAmB7k4RT3uE2gqSDrjD0-r0vgLczNcG2MCXVTI2mxWboBWLRuv2DxRc4FlWyzsq3QnN7LDByaoFXjGn_IcDinc7qVYGT83m3Ht5-QfEzWt4Xa19AGmel-DTcwObwlV44UqU_SPode2sR4VKbVSRqPTukf0OBzXEHvJyluRojiwzCtoB7yeK6yo_egGHlRoztSdkfD9Qwqha4D3PGV0QQTZp3fmz46-wE4lyFHbByY7NPUFPUaBO1sJuv6iGCh0b3kMDPIBjEG5jBf2N337f0PgbwVMeLo3lq1lu2z_JS6rjTV8lof81VOn3QjLyzUlQcSNaGwGQB6vrdNoU7EubpenxnkmQrdwYprScvvhOw_VtoSJtFUsNHNMwNvZdBpPjZ_y2]--></g></svg>