<?xml version="1.0" encoding="us-ascii" standalone="no"?><svg xmlns="http://www.w3.org/2000/svg" xmlns:xlink="http://www.w3.org/1999/xlink" contentStyleType="text/css" height="755px" preserveAspectRatio="none" style="width:1115px;height:755px;background:#FFFFFF;" version="1.1" viewBox="0 0 1115 755" width="1115px" zoomAndPan="magnify"><defs/><g><rect fill="#FFFFFF" height="590.9863" style="stroke:#181818;stroke-width:1.0;" width="10" x="184" y="90.5332"/><rect fill="#FFFFFF" height="31.291" style="stroke:#181818;stroke-width:1.0;" width="10" x="330" y="121.8242"/><rect fill="#FFFFFF" height="31.291" style="stroke:#181818;stroke-width:1.0;" width="10" x="437" y="184.4063"/><rect fill="#FFFFFF" height="403.2402" style="stroke:#181818;stroke-width:1.0;" width="10" x="732" y="246.9883"/><rect fill="#FFFFFF" height="130.873" style="stroke:#181818;stroke-width:1.0;" width="10" x="737" y="481.0645"/><rect fill="#FFFFFF" height="42.291" style="stroke:#181818;stroke-width:1.0;" width="10" x="742" y="525.3555"/><rect fill="#FFFFFF" height="163.4941" style="stroke:#181818;stroke-width:1.0;" width="10" x="924" y="278.2793"/><rect fill="#FFFFFF" height="42.291" style="stroke:#181818;stroke-width:1.0;" width="10" x="929" y="317.5703"/><line style="stroke:#181818;stroke-width:0.5;stroke-dasharray:5.0,5.0;" x1="188.5" x2="188.5" y1="57.2422" y2="699.5195"/><line style="stroke:#181818;stroke-width:0.5;stroke-dasharray:5.0,5.0;" x1="334.5" x2="334.5" y1="57.2422" y2="699.5195"/><line style="stroke:#181818;stroke-width:0.5;stroke-dasharray:5.0,5.0;" x1="441.5" x2="441.5" y1="57.2422" y2="699.5195"/><line style="stroke:#181818;stroke-width:0.5;stroke-dasharray:5.0,5.0;" x1="578.5" x2="578.5" y1="57.2422" y2="699.5195"/><line style="stroke:#181818;stroke-width:0.5;stroke-dasharray:5.0,5.0;" x1="736.5" x2="736.5" y1="57.2422" y2="699.5195"/><line style="stroke:#181818;stroke-width:0.5;stroke-dasharray:5.0,5.0;" x1="929" x2="929" y1="57.2422" y2="699.5195"/><line style="stroke:#181818;stroke-width:0.5;stroke-dasharray:5.0,5.0;" x1="1082" x2="1082" y1="406.6719" y2="699.5195"/><rect fill="#E3E3E3" height="32.6211" rx="2.5" ry="2.5" style="stroke:#181818;stroke-width:0.5;" width="175" x="101.5" y="23.6211"/><text fill="#000000" font-family="sans-serif" font-size="14" lengthAdjust="spacing" textLength="161" x="108.5" y="45.7285">:AnnouncementController</text><rect fill="#E3E3E3" height="32.6211" rx="2.5" ry="2.5" style="stroke:#181818;stroke-width:0.5;" width="175" x="101.5" y="698.5195"/><text fill="#000000" font-family="sans-serif" font-size="14" lengthAdjust="spacing" textLength="161" x="108.5" y="720.627">:AnnouncementController</text><rect fill="#E3E3E3" height="32.6211" rx="2.5" ry="2.5" style="stroke:#181818;stroke-width:0.5;" width="97" x="286.5" y="23.6211"/><text fill="#000000" font-family="sans-serif" font-size="14" lengthAdjust="spacing" textLength="83" x="293.5" y="45.7285">:Repositories</text><rect fill="#E3E3E3" height="32.6211" rx="2.5" ry="2.5" style="stroke:#181818;stroke-width:0.5;" width="97" x="286.5" y="698.5195"/><text fill="#000000" font-family="sans-serif" font-size="14" lengthAdjust="spacing" textLength="83" x="293.5" y="720.627">:Repositories</text><rect fill="#E3E3E3" height="51.2422" rx="2.5" ry="2.5" style="stroke:#181818;stroke-width:0.5;" width="97" x="393.5" y="5"/><text fill="#000000" font-family="sans-serif" font-size="14" lengthAdjust="spacing" textLength="74" x="405" y="27.1074">repositories</text><text fill="#000000" font-family="sans-serif" font-size="14" lengthAdjust="spacing" textLength="83" x="400.5" y="45.7285">:Repositories</text><rect fill="#E3E3E3" height="51.2422" rx="2.5" ry="2.5" style="stroke:#181818;stroke-width:0.5;" width="97" x="393.5" y="698.5195"/><text fill="#000000" font-family="sans-serif" font-size="14" lengthAdjust="spacing" textLength="74" x="405" y="720.627">repositories</text><text fill="#000000" font-family="sans-serif" font-size="14" lengthAdjust="spacing" textLength="83" x="400.5" y="739.248">:Repositories</text><rect fill="#E3E3E3" height="32.6211" rx="2.5" ry="2.5" style="stroke:#181818;stroke-width:0.5;" width="157" x="500.5" y="23.6211"/><text fill="#000000" font-family="sans-serif" font-size="14" lengthAdjust="spacing" textLength="143" x="507.5" y="45.7285">AnnouncementMapper</text><rect fill="#E3E3E3" height="32.6211" rx="2.5" ry="2.5" style="stroke:#181818;stroke-width:0.5;" width="157" x="500.5" y="698.5195"/><text fill="#000000" font-family="sans-serif" font-size="14" lengthAdjust="spacing" textLength="143" x="507.5" y="720.627">AnnouncementMapper</text><rect fill="#E3E3E3" height="51.2422" rx="2.5" ry="2.5" style="stroke:#181818;stroke-width:0.5;" width="139" x="667.5" y="5"/><text fill="#000000" font-family="sans-serif" font-size="14" lengthAdjust="spacing" textLength="125" x="674.5" y="27.1074">propertyRepository:</text><text fill="#000000" font-family="sans-serif" font-size="14" lengthAdjust="spacing" textLength="122" x="676" y="45.7285">PropertyRepository</text><rect fill="#E3E3E3" height="51.2422" rx="2.5" ry="2.5" style="stroke:#181818;stroke-width:0.5;" width="139" x="667.5" y="698.5195"/><text fill="#000000" font-family="sans-serif" font-size="14" lengthAdjust="spacing" textLength="125" x="674.5" y="720.627">propertyRepository:</text><text fill="#000000" font-family="sans-serif" font-size="14" lengthAdjust="spacing" textLength="122" x="676" y="739.248">PropertyRepository</text><rect fill="#E3E3E3" height="32.6211" rx="2.5" ry="2.5" style="stroke:#181818;stroke-width:0.5;" width="116" x="871" y="23.6211"/><text fill="#000000" font-family="sans-serif" font-size="14" lengthAdjust="spacing" textLength="102" x="878" y="45.7285">PropertyMapper</text><rect fill="#E3E3E3" height="32.6211" rx="2.5" ry="2.5" style="stroke:#181818;stroke-width:0.5;" width="116" x="871" y="698.5195"/><text fill="#000000" font-family="sans-serif" font-size="14" lengthAdjust="spacing" textLength="102" x="878" y="720.627">PropertyMapper</text><rect fill="#E3E3E3" height="32.6211" rx="2.5" ry="2.5" style="stroke:#181818;stroke-width:0.5;" width="54" x="1055" y="698.5195"/><text fill="#000000" font-family="sans-serif" font-size="14" lengthAdjust="spacing" textLength="40" x="1062" y="720.627">House</text><rect fill="#FFFFFF" height="590.9863" style="stroke:#181818;stroke-width:1.0;" width="10" x="184" y="90.5332"/><rect fill="#FFFFFF" height="31.291" style="stroke:#181818;stroke-width:1.0;" width="10" x="330" y="121.8242"/><rect fill="#FFFFFF" height="31.291" style="stroke:#181818;stroke-width:1.0;" width="10" x="437" y="184.4063"/><rect fill="#FFFFFF" height="403.2402" style="stroke:#181818;stroke-width:1.0;" width="10" x="732" y="246.9883"/><rect fill="#FFFFFF" height="130.873" style="stroke:#181818;stroke-width:1.0;" width="10" x="737" y="481.0645"/><rect fill="#FFFFFF" height="42.291" style="stroke:#181818;stroke-width:1.0;" width="10" x="742" y="525.3555"/><rect fill="#FFFFFF" height="163.4941" style="stroke:#181818;stroke-width:1.0;" width="10" x="924" y="278.2793"/><rect fill="#FFFFFF" height="42.291" style="stroke:#181818;stroke-width:1.0;" width="10" x="929" y="317.5703"/><polygon fill="#181818" points="172,86.5332,182,90.5332,172,94.5332,176,90.5332" style="stroke:#181818;stroke-width:1.0;"/><line style="stroke:#181818;stroke-width:1.0;" x1="0" x2="178" y1="90.5332" y2="90.5332"/><text fill="#000000" font-family="sans-serif" font-size="13" font-weight="bold" lengthAdjust="spacing" textLength="7" x="7" y="85.2705">1</text><text fill="#000000" font-family="sans-serif" font-size="13" lengthAdjust="spacing" textLength="154" x="18" y="85.2705">createProperty(houseDTO)</text><polygon fill="#181818" points="318,117.8242,328,121.8242,318,125.8242,322,121.8242" style="stroke:#181818;stroke-width:1.0;"/><line style="stroke:#181818;stroke-width:1.0;" x1="194" x2="324" y1="121.8242" y2="121.8242"/><text fill="#000000" font-family="sans-serif" font-size="13" font-weight="bold" lengthAdjust="spacing" textLength="7" x="201" y="116.5615">2</text><text fill="#000000" font-family="sans-serif" font-size="13" lengthAdjust="spacing" textLength="75" x="212" y="116.5615">getInstance()</text><polygon fill="#181818" points="205,149.1152,195,153.1152,205,157.1152,201,153.1152" style="stroke:#181818;stroke-width:1.0;"/><line style="stroke:#181818;stroke-width:1.0;stroke-dasharray:2.0,2.0;" x1="199" x2="334" y1="153.1152" y2="153.1152"/><text fill="#000000" font-family="sans-serif" font-size="13" font-weight="bold" lengthAdjust="spacing" textLength="7" x="211" y="147.8525">3</text><text fill="#000000" font-family="sans-serif" font-size="13" lengthAdjust="spacing" textLength="67" x="222" y="147.8525">repositories</text><polygon fill="#181818" points="425,180.4063,435,184.4063,425,188.4063,429,184.4063" style="stroke:#181818;stroke-width:1.0;"/><line style="stroke:#181818;stroke-width:1.0;" x1="194" x2="431" y1="184.4063" y2="184.4063"/><text fill="#000000" font-family="sans-serif" font-size="13" font-weight="bold" lengthAdjust="spacing" textLength="7" x="201" y="179.1436">4</text><text fill="#000000" font-family="sans-serif" font-size="13" lengthAdjust="spacing" textLength="137" x="212" y="179.1436">getPropertyRepository()</text><polygon fill="#181818" points="205,211.6973,195,215.6973,205,219.6973,201,215.6973" style="stroke:#181818;stroke-width:1.0;"/><line style="stroke:#181818;stroke-width:1.0;" x1="199" x2="441" y1="215.6973" y2="215.6973"/><text fill="#000000" font-family="sans-serif" font-size="13" font-weight="bold" lengthAdjust="spacing" textLength="7" x="211" y="210.4346">5</text><text fill="#000000" font-family="sans-serif" font-size="13" lengthAdjust="spacing" textLength="109" x="222" y="210.4346">propertyRepository</text><polygon fill="#181818" points="720,242.9883,730,246.9883,720,250.9883,724,246.9883" style="stroke:#181818;stroke-width:1.0;"/><line style="stroke:#181818;stroke-width:1.0;" x1="194" x2="726" y1="246.9883" y2="246.9883"/><text fill="#000000" font-family="sans-serif" font-size="13" font-weight="bold" lengthAdjust="spacing" textLength="7" x="201" y="241.7256">6</text><text fill="#000000" font-family="sans-serif" font-size="13" lengthAdjust="spacing" textLength="154" x="212" y="241.7256">createProperty(houseDTO)</text><polygon fill="#181818" points="912,274.2793,922,278.2793,912,282.2793,916,278.2793" style="stroke:#181818;stroke-width:1.0;"/><line style="stroke:#181818;stroke-width:1.0;" x1="742" x2="918" y1="278.2793" y2="278.2793"/><text fill="#000000" font-family="sans-serif" font-size="13" font-weight="bold" lengthAdjust="spacing" textLength="7" x="749" y="273.0166">7</text><text fill="#000000" font-family="sans-serif" font-size="13" lengthAdjust="spacing" textLength="152" x="760" y="273.0166">houseToEntity(houseDTO)</text><line style="stroke:#181818;stroke-width:1.0;" x1="934" x2="981" y1="304.5703" y2="304.5703"/><line style="stroke:#181818;stroke-width:1.0;" x1="981" x2="981" y1="304.5703" y2="317.5703"/><line style="stroke:#181818;stroke-width:1.0;" x1="940" x2="981" y1="317.5703" y2="317.5703"/><polygon fill="#181818" points="950,313.5703,940,317.5703,950,321.5703,946,317.5703" style="stroke:#181818;stroke-width:1.0;"/><text fill="#000000" font-family="sans-serif" font-size="13" font-weight="bold" lengthAdjust="spacing" textLength="7" x="946" y="299.3076">8</text><text fill="#000000" font-family="sans-serif" font-size="13" lengthAdjust="spacing" textLength="114" x="957" y="299.3076">toEntity(houseDTO)</text><line style="stroke:#181818;stroke-width:1.0;stroke-dasharray:2.0,2.0;" x1="939" x2="981" y1="358.8613" y2="358.8613"/><line style="stroke:#181818;stroke-width:1.0;stroke-dasharray:2.0,2.0;" x1="981" x2="981" y1="358.8613" y2="371.8613"/><line style="stroke:#181818;stroke-width:1.0;stroke-dasharray:2.0,2.0;" x1="934" x2="981" y1="371.8613" y2="371.8613"/><polygon fill="#181818" points="944,367.8613,934,371.8613,944,375.8613,940,371.8613" style="stroke:#181818;stroke-width:1.0;"/><text fill="#000000" font-family="sans-serif" font-size="13" font-weight="bold" lengthAdjust="spacing" textLength="7" x="946" y="353.5986">9</text><text fill="#000000" font-family="sans-serif" font-size="13" lengthAdjust="spacing" textLength="4" x="957" y="353.5986">&#160;</text><polygon fill="#181818" points="1043,394.1523,1053,398.1523,1043,402.1523,1047,398.1523" style="stroke:#181818;stroke-width:1.0;"/><line style="stroke:#181818;stroke-width:1.0;" x1="934" x2="1049" y1="398.1523" y2="398.1523"/><text fill="#000000" font-family="sans-serif" font-size="13" font-weight="bold" lengthAdjust="spacing" textLength="14" x="941" y="392.8896">10</text><text fill="#000000" font-family="sans-serif" font-size="13" lengthAdjust="spacing" textLength="79" x="959" y="392.8896">create(house)</text><rect fill="#E3E3E3" height="32.6211" rx="2.5" ry="2.5" style="stroke:#181818;stroke-width:0.5;" width="54" x="1055" y="374.8613"/><text fill="#000000" font-family="sans-serif" font-size="14" lengthAdjust="spacing" textLength="40" x="1062" y="396.9688">House</text><polygon fill="#181818" points="753,437.7734,743,441.7734,753,445.7734,749,441.7734" style="stroke:#181818;stroke-width:1.0;"/><line style="stroke:#181818;stroke-width:1.0;stroke-dasharray:2.0,2.0;" x1="747" x2="928" y1="441.7734" y2="441.7734"/><text fill="#000000" font-family="sans-serif" font-size="13" font-weight="bold" lengthAdjust="spacing" textLength="14" x="759" y="436.5107">11</text><text fill="#000000" font-family="sans-serif" font-size="13" lengthAdjust="spacing" textLength="35" x="777" y="436.5107">house</text><line style="stroke:#181818;stroke-width:1.0;" x1="742" x2="789" y1="468.0645" y2="468.0645"/><line style="stroke:#181818;stroke-width:1.0;" x1="789" x2="789" y1="468.0645" y2="481.0645"/><line style="stroke:#181818;stroke-width:1.0;" x1="748" x2="789" y1="481.0645" y2="481.0645"/><polygon fill="#181818" points="758,477.0645,748,481.0645,758,485.0645,754,481.0645" style="stroke:#181818;stroke-width:1.0;"/><text fill="#000000" font-family="sans-serif" font-size="13" font-weight="bold" lengthAdjust="spacing" textLength="14" x="754" y="462.8018">12</text><text fill="#000000" font-family="sans-serif" font-size="13" lengthAdjust="spacing" textLength="123" x="772" y="462.8018">validateHouse(house)</text><line style="stroke:#181818;stroke-width:1.0;" x1="747" x2="794" y1="512.3555" y2="512.3555"/><line style="stroke:#181818;stroke-width:1.0;" x1="794" x2="794" y1="512.3555" y2="525.3555"/><line style="stroke:#181818;stroke-width:1.0;" x1="753" x2="794" y1="525.3555" y2="525.3555"/><polygon fill="#181818" points="763,521.3555,753,525.3555,763,529.3555,759,525.3555" style="stroke:#181818;stroke-width:1.0;"/><text fill="#000000" font-family="sans-serif" font-size="13" font-weight="bold" lengthAdjust="spacing" textLength="14" x="759" y="507.0928">13</text><text fill="#000000" font-family="sans-serif" font-size="13" lengthAdjust="spacing" textLength="101" x="777" y="507.0928">addHouse(house)</text><line style="stroke:#181818;stroke-width:1.0;stroke-dasharray:2.0,2.0;" x1="752" x2="794" y1="566.6465" y2="566.6465"/><line style="stroke:#181818;stroke-width:1.0;stroke-dasharray:2.0,2.0;" x1="794" x2="794" y1="566.6465" y2="579.6465"/><line style="stroke:#181818;stroke-width:1.0;stroke-dasharray:2.0,2.0;" x1="747" x2="794" y1="579.6465" y2="579.6465"/><polygon fill="#181818" points="757,575.6465,747,579.6465,757,583.6465,753,579.6465" style="stroke:#181818;stroke-width:1.0;"/><text fill="#000000" font-family="sans-serif" font-size="13" font-weight="bold" lengthAdjust="spacing" textLength="14" x="759" y="561.3838">14</text><text fill="#000000" font-family="sans-serif" font-size="13" lengthAdjust="spacing" textLength="4" x="777" y="561.3838">&#160;</text><line style="stroke:#181818;stroke-width:1.0;stroke-dasharray:2.0,2.0;" x1="747" x2="789" y1="610.9375" y2="610.9375"/><line style="stroke:#181818;stroke-width:1.0;stroke-dasharray:2.0,2.0;" x1="789" x2="789" y1="610.9375" y2="623.9375"/><line style="stroke:#181818;stroke-width:1.0;stroke-dasharray:2.0,2.0;" x1="742" x2="789" y1="623.9375" y2="623.9375"/><polygon fill="#181818" points="752,619.9375,742,623.9375,752,627.9375,748,623.9375" style="stroke:#181818;stroke-width:1.0;"/><text fill="#000000" font-family="sans-serif" font-size="13" font-weight="bold" lengthAdjust="spacing" textLength="14" x="754" y="605.6748">15</text><text fill="#000000" font-family="sans-serif" font-size="13" lengthAdjust="spacing" textLength="4" x="772" y="605.6748">&#160;</text><polygon fill="#181818" points="205,646.2285,195,650.2285,205,654.2285,201,650.2285" style="stroke:#181818;stroke-width:1.0;"/><line style="stroke:#181818;stroke-width:1.0;" x1="199" x2="736" y1="650.2285" y2="650.2285"/><text fill="#000000" font-family="sans-serif" font-size="13" font-weight="bold" lengthAdjust="spacing" textLength="14" x="211" y="644.9658">16</text><text fill="#000000" font-family="sans-serif" font-size="13" lengthAdjust="spacing" textLength="35" x="229" y="644.9658">house</text><polygon fill="#181818" points="11,677.5195,1,681.5195,11,685.5195,7,681.5195" style="stroke:#181818;stroke-width:1.0;"/><line style="stroke:#181818;stroke-width:1.0;stroke-dasharray:2.0,2.0;" x1="5" x2="188" y1="681.5195" y2="681.5195"/><text fill="#000000" font-family="sans-serif" font-size="13" font-weight="bold" lengthAdjust="spacing" textLength="14" x="17" y="676.2568">17</text><text fill="#000000" font-family="sans-serif" font-size="13" lengthAdjust="spacing" textLength="35" x="35" y="676.2568">house</text><!--SRC=[fPHDJuGm48Rl_HKJBtuaU_96ZCb6JJIHIEeUlLIOtMs4bhH5tNzlAHyMA2jgRwNpFlFEJAb-uw9aYXLGI27JlP85Wb4L4jsVb2nzOpjyDeSSGM5gcDZbVe3Uiqn-SB63BSir4i8g8qLLlAA2oqj2JlSyGzXAQLxb9o74gWnFUSc4WPDeBOIiH8e52dCZXL4opr6T0DDmiw6FesYAfTJSICLHkvZ-m-6Prxvivg54UOeNCGKaZ-lDKE4xYbbPjcxMySXwgQGzCuTl2z6BI2OVcooKz6i0wUAzH4ay3BcNbKPtSf_GfuJu3RQRrRLhL0IfGcQm0vxjQzdjvkcSGBTOQlYxZMawIxuFwZrOKA2R4C4EpOFGTkufddaqV_Naq3p2ab2kLL-CFxQmFiC_9EqAhQVUL3OTs8yrkYiJZcd0RHKsmVIEpEYyQXhyU8NBeB1axaFtT89pnga3nX4um4RU2SFdSKDa74HQQDn1pGBUY1Z6EHuvti0vEpEhSUb-hekBhf-DqVFVS7f_j6tYRxGB_RTZiXdUMSup6-wUXyuj_71pwP5w7BecionR01rnZpU6jeqXY-h_7sr82jzBwlsZCwCA6xfQhTeNQYZpejtZ-WK0]--></g></svg>