<?xml version="1.0" encoding="us-ascii" standalone="no"?><svg xmlns="http://www.w3.org/2000/svg" xmlns:xlink="http://www.w3.org/1999/xlink" contentStyleType="text/css" height="755px" preserveAspectRatio="none" style="width:896px;height:755px;background:#FFFFFF;" version="1.1" viewBox="0 0 896 755" width="896px" zoomAndPan="magnify"><defs/><g><rect fill="#FFFFFF" height="590.9863" style="stroke:#181818;stroke-width:1.0;" width="10" x="173" y="90.5332"/><rect fill="#FFFFFF" height="31.291" style="stroke:#181818;stroke-width:1.0;" width="10" x="319" y="121.8242"/><rect fill="#FFFFFF" height="31.291" style="stroke:#181818;stroke-width:1.0;" width="10" x="426" y="184.4063"/><rect fill="#FFFFFF" height="403.2402" style="stroke:#181818;stroke-width:1.0;" width="10" x="554" y="246.9883"/><rect fill="#FFFFFF" height="130.873" style="stroke:#181818;stroke-width:1.0;" width="10" x="559" y="481.0645"/><rect fill="#FFFFFF" height="42.291" style="stroke:#181818;stroke-width:1.0;" width="10" x="564" y="525.3555"/><rect fill="#FFFFFF" height="163.4941" style="stroke:#181818;stroke-width:1.0;" width="10" x="724" y="278.2793"/><rect fill="#FFFFFF" height="42.291" style="stroke:#181818;stroke-width:1.0;" width="10" x="729" y="317.5703"/><line style="stroke:#181818;stroke-width:0.5;stroke-dasharray:5.0,5.0;" x1="177.5" x2="177.5" y1="57.2422" y2="699.5195"/><line style="stroke:#181818;stroke-width:0.5;stroke-dasharray:5.0,5.0;" x1="323.5" x2="323.5" y1="57.2422" y2="699.5195"/><line style="stroke:#181818;stroke-width:0.5;stroke-dasharray:5.0,5.0;" x1="430.5" x2="430.5" y1="57.2422" y2="699.5195"/><line style="stroke:#181818;stroke-width:0.5;stroke-dasharray:5.0,5.0;" x1="558.5" x2="558.5" y1="57.2422" y2="699.5195"/><line style="stroke:#181818;stroke-width:0.5;stroke-dasharray:5.0,5.0;" x1="729" x2="729" y1="57.2422" y2="699.5195"/><line style="stroke:#181818;stroke-width:0.5;stroke-dasharray:5.0,5.0;" x1="867" x2="867" y1="406.6719" y2="699.5195"/><rect fill="#E3E3E3" height="32.6211" rx="2.5" ry="2.5" style="stroke:#181818;stroke-width:0.5;" width="175" x="90.5" y="23.6211"/><text fill="#000000" font-family="sans-serif" font-size="14" lengthAdjust="spacing" textLength="161" x="97.5" y="45.7285">:AnnouncementController</text><rect fill="#E3E3E3" height="32.6211" rx="2.5" ry="2.5" style="stroke:#181818;stroke-width:0.5;" width="175" x="90.5" y="698.5195"/><text fill="#000000" font-family="sans-serif" font-size="14" lengthAdjust="spacing" textLength="161" x="97.5" y="720.627">:AnnouncementController</text><rect fill="#E3E3E3" height="32.6211" rx="2.5" ry="2.5" style="stroke:#181818;stroke-width:0.5;" width="97" x="275.5" y="23.6211"/><text fill="#000000" font-family="sans-serif" font-size="14" lengthAdjust="spacing" textLength="83" x="282.5" y="45.7285">:Repositories</text><rect fill="#E3E3E3" height="32.6211" rx="2.5" ry="2.5" style="stroke:#181818;stroke-width:0.5;" width="97" x="275.5" y="698.5195"/><text fill="#000000" font-family="sans-serif" font-size="14" lengthAdjust="spacing" textLength="83" x="282.5" y="720.627">:Repositories</text><rect fill="#E3E3E3" height="51.2422" rx="2.5" ry="2.5" style="stroke:#181818;stroke-width:0.5;" width="97" x="382.5" y="5"/><text fill="#000000" font-family="sans-serif" font-size="14" lengthAdjust="spacing" textLength="74" x="394" y="27.1074">repositories</text><text fill="#000000" font-family="sans-serif" font-size="14" lengthAdjust="spacing" textLength="83" x="389.5" y="45.7285">:Repositories</text><rect fill="#E3E3E3" height="51.2422" rx="2.5" ry="2.5" style="stroke:#181818;stroke-width:0.5;" width="97" x="382.5" y="698.5195"/><text fill="#000000" font-family="sans-serif" font-size="14" lengthAdjust="spacing" textLength="74" x="394" y="720.627">repositories</text><text fill="#000000" font-family="sans-serif" font-size="14" lengthAdjust="spacing" textLength="83" x="389.5" y="739.248">:Repositories</text><rect fill="#E3E3E3" height="51.2422" rx="2.5" ry="2.5" style="stroke:#181818;stroke-width:0.5;" width="139" x="489.5" y="5"/><text fill="#000000" font-family="sans-serif" font-size="14" lengthAdjust="spacing" textLength="125" x="496.5" y="27.1074">propertyRepository:</text><text fill="#000000" font-family="sans-serif" font-size="14" lengthAdjust="spacing" textLength="122" x="498" y="45.7285">PropertyRepository</text><rect fill="#E3E3E3" height="51.2422" rx="2.5" ry="2.5" style="stroke:#181818;stroke-width:0.5;" width="139" x="489.5" y="698.5195"/><text fill="#000000" font-family="sans-serif" font-size="14" lengthAdjust="spacing" textLength="125" x="496.5" y="720.627">propertyRepository:</text><text fill="#000000" font-family="sans-serif" font-size="14" lengthAdjust="spacing" textLength="122" x="498" y="739.248">PropertyRepository</text><rect fill="#E3E3E3" height="32.6211" rx="2.5" ry="2.5" style="stroke:#181818;stroke-width:0.5;" width="116" x="671" y="23.6211"/><text fill="#000000" font-family="sans-serif" font-size="14" lengthAdjust="spacing" textLength="102" x="678" y="45.7285">PropertyMapper</text><rect fill="#E3E3E3" height="32.6211" rx="2.5" ry="2.5" style="stroke:#181818;stroke-width:0.5;" width="116" x="671" y="698.5195"/><text fill="#000000" font-family="sans-serif" font-size="14" lengthAdjust="spacing" textLength="102" x="678" y="720.627">PropertyMapper</text><rect fill="#E3E3E3" height="32.6211" rx="2.5" ry="2.5" style="stroke:#181818;stroke-width:0.5;" width="46" x="844" y="698.5195"/><text fill="#000000" font-family="sans-serif" font-size="14" lengthAdjust="spacing" textLength="32" x="851" y="720.627">Land</text><rect fill="#FFFFFF" height="590.9863" style="stroke:#181818;stroke-width:1.0;" width="10" x="173" y="90.5332"/><rect fill="#FFFFFF" height="31.291" style="stroke:#181818;stroke-width:1.0;" width="10" x="319" y="121.8242"/><rect fill="#FFFFFF" height="31.291" style="stroke:#181818;stroke-width:1.0;" width="10" x="426" y="184.4063"/><rect fill="#FFFFFF" height="403.2402" style="stroke:#181818;stroke-width:1.0;" width="10" x="554" y="246.9883"/><rect fill="#FFFFFF" height="130.873" style="stroke:#181818;stroke-width:1.0;" width="10" x="559" y="481.0645"/><rect fill="#FFFFFF" height="42.291" style="stroke:#181818;stroke-width:1.0;" width="10" x="564" y="525.3555"/><rect fill="#FFFFFF" height="163.4941" style="stroke:#181818;stroke-width:1.0;" width="10" x="724" y="278.2793"/><rect fill="#FFFFFF" height="42.291" style="stroke:#181818;stroke-width:1.0;" width="10" x="729" y="317.5703"/><polygon fill="#181818" points="161,86.5332,171,90.5332,161,94.5332,165,90.5332" style="stroke:#181818;stroke-width:1.0;"/><line style="stroke:#181818;stroke-width:1.0;" x1="0" x2="167" y1="90.5332" y2="90.5332"/><text fill="#000000" font-family="sans-serif" font-size="13" font-weight="bold" lengthAdjust="spacing" textLength="7" x="7" y="85.2705">1</text><text fill="#000000" font-family="sans-serif" font-size="13" lengthAdjust="spacing" textLength="143" x="18" y="85.2705">createProperty(landDTO)</text><polygon fill="#181818" points="307,117.8242,317,121.8242,307,125.8242,311,121.8242" style="stroke:#181818;stroke-width:1.0;"/><line style="stroke:#181818;stroke-width:1.0;" x1="183" x2="313" y1="121.8242" y2="121.8242"/><text fill="#000000" font-family="sans-serif" font-size="13" font-weight="bold" lengthAdjust="spacing" textLength="7" x="190" y="116.5615">2</text><text fill="#000000" font-family="sans-serif" font-size="13" lengthAdjust="spacing" textLength="75" x="201" y="116.5615">getInstance()</text><polygon fill="#181818" points="194,149.1152,184,153.1152,194,157.1152,190,153.1152" style="stroke:#181818;stroke-width:1.0;"/><line style="stroke:#181818;stroke-width:1.0;stroke-dasharray:2.0,2.0;" x1="188" x2="323" y1="153.1152" y2="153.1152"/><text fill="#000000" font-family="sans-serif" font-size="13" font-weight="bold" lengthAdjust="spacing" textLength="7" x="200" y="147.8525">3</text><text fill="#000000" font-family="sans-serif" font-size="13" lengthAdjust="spacing" textLength="67" x="211" y="147.8525">repositories</text><polygon fill="#181818" points="414,180.4063,424,184.4063,414,188.4063,418,184.4063" style="stroke:#181818;stroke-width:1.0;"/><line style="stroke:#181818;stroke-width:1.0;" x1="183" x2="420" y1="184.4063" y2="184.4063"/><text fill="#000000" font-family="sans-serif" font-size="13" font-weight="bold" lengthAdjust="spacing" textLength="7" x="190" y="179.1436">4</text><text fill="#000000" font-family="sans-serif" font-size="13" lengthAdjust="spacing" textLength="137" x="201" y="179.1436">getPropertyRepository()</text><polygon fill="#181818" points="194,211.6973,184,215.6973,194,219.6973,190,215.6973" style="stroke:#181818;stroke-width:1.0;"/><line style="stroke:#181818;stroke-width:1.0;" x1="188" x2="430" y1="215.6973" y2="215.6973"/><text fill="#000000" font-family="sans-serif" font-size="13" font-weight="bold" lengthAdjust="spacing" textLength="7" x="200" y="210.4346">5</text><text fill="#000000" font-family="sans-serif" font-size="13" lengthAdjust="spacing" textLength="109" x="211" y="210.4346">propertyRepository</text><polygon fill="#181818" points="542,242.9883,552,246.9883,542,250.9883,546,246.9883" style="stroke:#181818;stroke-width:1.0;"/><line style="stroke:#181818;stroke-width:1.0;" x1="183" x2="548" y1="246.9883" y2="246.9883"/><text fill="#000000" font-family="sans-serif" font-size="13" font-weight="bold" lengthAdjust="spacing" textLength="7" x="190" y="241.7256">6</text><text fill="#000000" font-family="sans-serif" font-size="13" lengthAdjust="spacing" textLength="168" x="201" y="241.7256">createProperty(PropertyDTO)</text><polygon fill="#181818" points="712,274.2793,722,278.2793,712,282.2793,716,278.2793" style="stroke:#181818;stroke-width:1.0;"/><line style="stroke:#181818;stroke-width:1.0;" x1="564" x2="718" y1="278.2793" y2="278.2793"/><text fill="#000000" font-family="sans-serif" font-size="13" font-weight="bold" lengthAdjust="spacing" textLength="7" x="571" y="273.0166">7</text><text fill="#000000" font-family="sans-serif" font-size="13" lengthAdjust="spacing" textLength="130" x="582" y="273.0166">landToEntity(landDTO)</text><line style="stroke:#181818;stroke-width:1.0;" x1="734" x2="781" y1="304.5703" y2="304.5703"/><line style="stroke:#181818;stroke-width:1.0;" x1="781" x2="781" y1="304.5703" y2="317.5703"/><line style="stroke:#181818;stroke-width:1.0;" x1="740" x2="781" y1="317.5703" y2="317.5703"/><polygon fill="#181818" points="750,313.5703,740,317.5703,750,321.5703,746,317.5703" style="stroke:#181818;stroke-width:1.0;"/><text fill="#000000" font-family="sans-serif" font-size="13" font-weight="bold" lengthAdjust="spacing" textLength="7" x="746" y="299.3076">8</text><text fill="#000000" font-family="sans-serif" font-size="13" lengthAdjust="spacing" textLength="103" x="757" y="299.3076">toEntity(landDTO)</text><line style="stroke:#181818;stroke-width:1.0;stroke-dasharray:2.0,2.0;" x1="739" x2="781" y1="358.8613" y2="358.8613"/><line style="stroke:#181818;stroke-width:1.0;stroke-dasharray:2.0,2.0;" x1="781" x2="781" y1="358.8613" y2="371.8613"/><line style="stroke:#181818;stroke-width:1.0;stroke-dasharray:2.0,2.0;" x1="734" x2="781" y1="371.8613" y2="371.8613"/><polygon fill="#181818" points="744,367.8613,734,371.8613,744,375.8613,740,371.8613" style="stroke:#181818;stroke-width:1.0;"/><text fill="#000000" font-family="sans-serif" font-size="13" font-weight="bold" lengthAdjust="spacing" textLength="7" x="746" y="353.5986">9</text><text fill="#000000" font-family="sans-serif" font-size="13" lengthAdjust="spacing" textLength="4" x="757" y="353.5986">&#160;</text><polygon fill="#181818" points="832,394.1523,842,398.1523,832,402.1523,836,398.1523" style="stroke:#181818;stroke-width:1.0;"/><line style="stroke:#181818;stroke-width:1.0;" x1="734" x2="838" y1="398.1523" y2="398.1523"/><text fill="#000000" font-family="sans-serif" font-size="13" font-weight="bold" lengthAdjust="spacing" textLength="14" x="741" y="392.8896">10</text><text fill="#000000" font-family="sans-serif" font-size="13" lengthAdjust="spacing" textLength="68" x="759" y="392.8896">create(land)</text><rect fill="#E3E3E3" height="32.6211" rx="2.5" ry="2.5" style="stroke:#181818;stroke-width:0.5;" width="46" x="844" y="374.8613"/><text fill="#000000" font-family="sans-serif" font-size="14" lengthAdjust="spacing" textLength="32" x="851" y="396.9688">Land</text><polygon fill="#181818" points="575,437.7734,565,441.7734,575,445.7734,571,441.7734" style="stroke:#181818;stroke-width:1.0;"/><line style="stroke:#181818;stroke-width:1.0;stroke-dasharray:2.0,2.0;" x1="569" x2="728" y1="441.7734" y2="441.7734"/><text fill="#000000" font-family="sans-serif" font-size="13" font-weight="bold" lengthAdjust="spacing" textLength="14" x="581" y="436.5107">11</text><text fill="#000000" font-family="sans-serif" font-size="13" lengthAdjust="spacing" textLength="24" x="599" y="436.5107">land</text><line style="stroke:#181818;stroke-width:1.0;" x1="564" x2="611" y1="468.0645" y2="468.0645"/><line style="stroke:#181818;stroke-width:1.0;" x1="611" x2="611" y1="468.0645" y2="481.0645"/><line style="stroke:#181818;stroke-width:1.0;" x1="570" x2="611" y1="481.0645" y2="481.0645"/><polygon fill="#181818" points="580,477.0645,570,481.0645,580,485.0645,576,481.0645" style="stroke:#181818;stroke-width:1.0;"/><text fill="#000000" font-family="sans-serif" font-size="13" font-weight="bold" lengthAdjust="spacing" textLength="14" x="576" y="462.8018">12</text><text fill="#000000" font-family="sans-serif" font-size="13" lengthAdjust="spacing" textLength="114" x="594" y="462.8018">validateLand(house)</text><line style="stroke:#181818;stroke-width:1.0;" x1="569" x2="616" y1="512.3555" y2="512.3555"/><line style="stroke:#181818;stroke-width:1.0;" x1="616" x2="616" y1="512.3555" y2="525.3555"/><line style="stroke:#181818;stroke-width:1.0;" x1="575" x2="616" y1="525.3555" y2="525.3555"/><polygon fill="#181818" points="585,521.3555,575,525.3555,585,529.3555,581,525.3555" style="stroke:#181818;stroke-width:1.0;"/><text fill="#000000" font-family="sans-serif" font-size="13" font-weight="bold" lengthAdjust="spacing" textLength="14" x="581" y="507.0928">13</text><text fill="#000000" font-family="sans-serif" font-size="13" lengthAdjust="spacing" textLength="81" x="599" y="507.0928">addLand(land)</text><line style="stroke:#181818;stroke-width:1.0;stroke-dasharray:2.0,2.0;" x1="574" x2="616" y1="566.6465" y2="566.6465"/><line style="stroke:#181818;stroke-width:1.0;stroke-dasharray:2.0,2.0;" x1="616" x2="616" y1="566.6465" y2="579.6465"/><line style="stroke:#181818;stroke-width:1.0;stroke-dasharray:2.0,2.0;" x1="569" x2="616" y1="579.6465" y2="579.6465"/><polygon fill="#181818" points="579,575.6465,569,579.6465,579,583.6465,575,579.6465" style="stroke:#181818;stroke-width:1.0;"/><text fill="#000000" font-family="sans-serif" font-size="13" font-weight="bold" lengthAdjust="spacing" textLength="14" x="581" y="561.3838">14</text><text fill="#000000" font-family="sans-serif" font-size="13" lengthAdjust="spacing" textLength="4" x="599" y="561.3838">&#160;</text><line style="stroke:#181818;stroke-width:1.0;stroke-dasharray:2.0,2.0;" x1="569" x2="611" y1="610.9375" y2="610.9375"/><line style="stroke:#181818;stroke-width:1.0;stroke-dasharray:2.0,2.0;" x1="611" x2="611" y1="610.9375" y2="623.9375"/><line style="stroke:#181818;stroke-width:1.0;stroke-dasharray:2.0,2.0;" x1="564" x2="611" y1="623.9375" y2="623.9375"/><polygon fill="#181818" points="574,619.9375,564,623.9375,574,627.9375,570,623.9375" style="stroke:#181818;stroke-width:1.0;"/><text fill="#000000" font-family="sans-serif" font-size="13" font-weight="bold" lengthAdjust="spacing" textLength="14" x="576" y="605.6748">15</text><text fill="#000000" font-family="sans-serif" font-size="13" lengthAdjust="spacing" textLength="4" x="594" y="605.6748">&#160;</text><polygon fill="#181818" points="194,646.2285,184,650.2285,194,654.2285,190,650.2285" style="stroke:#181818;stroke-width:1.0;"/><line style="stroke:#181818;stroke-width:1.0;stroke-dasharray:2.0,2.0;" x1="188" x2="558" y1="650.2285" y2="650.2285"/><text fill="#000000" font-family="sans-serif" font-size="13" font-weight="bold" lengthAdjust="spacing" textLength="14" x="200" y="644.9658">16</text><text fill="#000000" font-family="sans-serif" font-size="13" lengthAdjust="spacing" textLength="24" x="218" y="644.9658">land</text><polygon fill="#181818" points="11,677.5195,1,681.5195,11,685.5195,7,681.5195" style="stroke:#181818;stroke-width:1.0;"/><line style="stroke:#181818;stroke-width:1.0;stroke-dasharray:2.0,2.0;" x1="5" x2="177" y1="681.5195" y2="681.5195"/><text fill="#000000" font-family="sans-serif" font-size="13" font-weight="bold" lengthAdjust="spacing" textLength="14" x="17" y="676.2568">17</text><text fill="#000000" font-family="sans-serif" font-size="13" lengthAdjust="spacing" textLength="24" x="35" y="676.2568">land</text><!--SRC=[fLFBRi8m4BpxAomk1IGkxIsgAY7QGwKWef0Z5vCiO97OaUtGylVr8m-RG5MfUqBPcV7ix2BFbDL4a0fNdF7y97W5M8a6aEmxDSdFv0XRTIq12yWLOSVI1yWJAVWNPKTy8AK4X4YZE6kgFGZy_8BGquaMW0-Sgpt_HheqJT6SreGfF8cMZF66vL01KolEbE1b2MA2YSIhB8rlq2dKN5B51GLfCVs7wvOQO_hfa28ynewD1P9ucOMCMl0QXBeEqj6E9QEFZftUpDFXrgIksp6IzUtGCM65RSL9kacGhI4rX1TlTdOSuLm0KT29JajDVCysCuH9hkX5jrn8oC8rxKuSMkK8wfD9lRaSffhhLIzpByS0UKzvqHgDi9zoG2lWxqzqGvYLEDVZr1_vjsiCMavcY7AyrX3kENLYfdfBwNWPtG-xa9vhJyAKfXZYMXFDsZB-mHJrTpWyfmz4uomwmkfte4LQAF8TznBsfERppgrLcGsirBdnkAWjavYph34NKj92DysbJa-yaM1p7zvBm_22t7iLKXHMm7buIFYJQgTifH_3_4p-fnOgcO1QGdjFDp4QqEjYuRfTEvHnVrLJFm00]--></g></svg>