<?xml version="1.0" encoding="us-ascii" standalone="no"?><svg xmlns="http://www.w3.org/2000/svg" xmlns:xlink="http://www.w3.org/1999/xlink" contentStyleType="text/css" height="432px" preserveAspectRatio="none" style="width:1501px;height:432px;background:#FFFFFF;" version="1.1" viewBox="0 0 1501 432" width="1501px" zoomAndPan="magnify"><defs/><g><rect fill="#FFFFFF" height="282.7109" style="stroke:#181818;stroke-width:1.0;" width="10" x="477" y="81.8047"/><rect fill="#FFFFFF" height="28.5234" style="stroke:#181818;stroke-width:1.0;" width="10" x="623" y="110.3281"/><rect fill="#FFFFFF" height="28.5234" style="stroke:#181818;stroke-width:1.0;" width="10" x="730" y="167.375"/><rect fill="#FFFFFF" height="111.5703" style="stroke:#181818;stroke-width:1.0;" width="10" x="989" y="224.4219"/><rect fill="#FFFFFF" height="39.5234" style="stroke:#181818;stroke-width:1.0;" width="10" x="994" y="260.9453"/><line style="stroke:#181818;stroke-width:0.5;stroke-dasharray:5.0,5.0;" x1="481.5" x2="481.5" y1="51.2813" y2="382.5156"/><line style="stroke:#181818;stroke-width:0.5;stroke-dasharray:5.0,5.0;" x1="627.5" x2="627.5" y1="51.2813" y2="382.5156"/><line style="stroke:#181818;stroke-width:0.5;stroke-dasharray:5.0,5.0;" x1="734.5" x2="734.5" y1="51.2813" y2="382.5156"/><line style="stroke:#181818;stroke-width:0.5;stroke-dasharray:5.0,5.0;" x1="994" x2="994" y1="51.2813" y2="382.5156"/><rect fill="#E3E3E3" height="29.6406" rx="2.5" ry="2.5" style="stroke:#181818;stroke-width:0.5;" width="175" x="394.5" y="20.6406"/><text fill="#000000" font-family="sans-serif" font-size="14" lengthAdjust="spacing" textLength="161" x="401.5" y="40.3145">:AnnouncementController</text><rect fill="#E3E3E3" height="29.6406" rx="2.5" ry="2.5" style="stroke:#181818;stroke-width:0.5;" width="175" x="394.5" y="381.5156"/><text fill="#000000" font-family="sans-serif" font-size="14" lengthAdjust="spacing" textLength="161" x="401.5" y="401.1895">:AnnouncementController</text><rect fill="#E3E3E3" height="29.6406" rx="2.5" ry="2.5" style="stroke:#181818;stroke-width:0.5;" width="97" x="579.5" y="20.6406"/><text fill="#000000" font-family="sans-serif" font-size="14" lengthAdjust="spacing" textLength="83" x="586.5" y="40.3145">:Repositories</text><rect fill="#E3E3E3" height="29.6406" rx="2.5" ry="2.5" style="stroke:#181818;stroke-width:0.5;" width="97" x="579.5" y="381.5156"/><text fill="#000000" font-family="sans-serif" font-size="14" lengthAdjust="spacing" textLength="83" x="586.5" y="401.1895">:Repositories</text><rect fill="#E3E3E3" height="45.2813" rx="2.5" ry="2.5" style="stroke:#181818;stroke-width:0.5;" width="97" x="686.5" y="5"/><text fill="#000000" font-family="sans-serif" font-size="14" lengthAdjust="spacing" textLength="74" x="698" y="24.6738">repositories</text><text fill="#000000" font-family="sans-serif" font-size="14" lengthAdjust="spacing" textLength="83" x="693.5" y="40.3145">:Repositories</text><rect fill="#E3E3E3" height="45.2813" rx="2.5" ry="2.5" style="stroke:#181818;stroke-width:0.5;" width="97" x="686.5" y="381.5156"/><text fill="#000000" font-family="sans-serif" font-size="14" lengthAdjust="spacing" textLength="74" x="698" y="401.1895">repositories</text><text fill="#000000" font-family="sans-serif" font-size="14" lengthAdjust="spacing" textLength="83" x="693.5" y="416.8301">:Repositories</text><rect fill="#E3E3E3" height="45.2813" rx="2.5" ry="2.5" style="stroke:#181818;stroke-width:0.5;" width="180" x="904" y="5"/><text fill="#000000" font-family="sans-serif" font-size="14" lengthAdjust="spacing" textLength="166" x="911" y="24.6738">announcementRepository:</text><text fill="#000000" font-family="sans-serif" font-size="14" lengthAdjust="spacing" textLength="163" x="912.5" y="40.3145">AnnouncementRepository</text><rect fill="#E3E3E3" height="45.2813" rx="2.5" ry="2.5" style="stroke:#181818;stroke-width:0.5;" width="180" x="904" y="381.5156"/><text fill="#000000" font-family="sans-serif" font-size="14" lengthAdjust="spacing" textLength="166" x="911" y="401.1895">announcementRepository:</text><text fill="#000000" font-family="sans-serif" font-size="14" lengthAdjust="spacing" textLength="163" x="912.5" y="416.8301">AnnouncementRepository</text><rect fill="#FFFFFF" height="282.7109" style="stroke:#181818;stroke-width:1.0;" width="10" x="477" y="81.8047"/><rect fill="#FFFFFF" height="28.5234" style="stroke:#181818;stroke-width:1.0;" width="10" x="623" y="110.3281"/><rect fill="#FFFFFF" height="28.5234" style="stroke:#181818;stroke-width:1.0;" width="10" x="730" y="167.375"/><rect fill="#FFFFFF" height="111.5703" style="stroke:#181818;stroke-width:1.0;" width="10" x="989" y="224.4219"/><rect fill="#FFFFFF" height="39.5234" style="stroke:#181818;stroke-width:1.0;" width="10" x="994" y="260.9453"/><polygon fill="#181818" points="465,77.8047,475,81.8047,465,85.8047,469,81.8047" style="stroke:#181818;stroke-width:1.0;"/><line style="stroke:#181818;stroke-width:1.0;" x1="0" x2="471" y1="81.8047" y2="81.8047"/><text fill="#000000" font-family="sans-serif" font-size="13" lengthAdjust="spacing" textLength="458" x="7" y="77.0498">createSMS (senderNumber, recipientNumber,dateAvailable, address, message)</text><polygon fill="#181818" points="611,106.3281,621,110.3281,611,114.3281,615,110.3281" style="stroke:#181818;stroke-width:1.0;"/><line style="stroke:#181818;stroke-width:1.0;" x1="487" x2="617" y1="110.3281" y2="110.3281"/><text fill="#000000" font-family="sans-serif" font-size="13" font-weight="bold" lengthAdjust="spacing" textLength="25" x="494" y="105.5732">18.1</text><text fill="#000000" font-family="sans-serif" font-size="13" lengthAdjust="spacing" textLength="75" x="523" y="105.5732">getInstance()</text><polygon fill="#181818" points="498,134.8516,488,138.8516,498,142.8516,494,138.8516" style="stroke:#181818;stroke-width:1.0;"/><line style="stroke:#181818;stroke-width:1.0;stroke-dasharray:2.0,2.0;" x1="492" x2="627" y1="138.8516" y2="138.8516"/><text fill="#000000" font-family="sans-serif" font-size="13" font-weight="bold" lengthAdjust="spacing" textLength="25" x="504" y="134.0967">18.2</text><text fill="#000000" font-family="sans-serif" font-size="13" lengthAdjust="spacing" textLength="67" x="533" y="134.0967">repositories</text><polygon fill="#181818" points="718,163.375,728,167.375,718,171.375,722,167.375" style="stroke:#181818;stroke-width:1.0;"/><line style="stroke:#181818;stroke-width:1.0;" x1="487" x2="724" y1="167.375" y2="167.375"/><text fill="#000000" font-family="sans-serif" font-size="13" font-weight="bold" lengthAdjust="spacing" textLength="25" x="494" y="162.6201">18.3</text><text fill="#000000" font-family="sans-serif" font-size="13" lengthAdjust="spacing" textLength="175" x="523" y="162.6201">getAnnouncementRepository()</text><polygon fill="#181818" points="498,191.8984,488,195.8984,498,199.8984,494,195.8984" style="stroke:#181818;stroke-width:1.0;"/><line style="stroke:#181818;stroke-width:1.0;" x1="492" x2="734" y1="195.8984" y2="195.8984"/><text fill="#000000" font-family="sans-serif" font-size="13" font-weight="bold" lengthAdjust="spacing" textLength="25" x="504" y="191.1436">18.4</text><text fill="#000000" font-family="sans-serif" font-size="13" lengthAdjust="spacing" textLength="147" x="533" y="191.1436">announcementRepository</text><polygon fill="#181818" points="977,220.4219,987,224.4219,977,228.4219,981,224.4219" style="stroke:#181818;stroke-width:1.0;"/><line style="stroke:#181818;stroke-width:1.0;" x1="487" x2="983" y1="224.4219" y2="224.4219"/><text fill="#000000" font-family="sans-serif" font-size="13" font-weight="bold" lengthAdjust="spacing" textLength="25" x="494" y="219.667">18.5</text><text fill="#000000" font-family="sans-serif" font-size="13" lengthAdjust="spacing" textLength="454" x="523" y="219.667">createSMS(senderNumber, recipientNumber,dateAvailable, address, message)</text><line style="stroke:#181818;stroke-width:1.0;" x1="999" x2="1046" y1="247.9453" y2="247.9453"/><line style="stroke:#181818;stroke-width:1.0;" x1="1046" x2="1046" y1="247.9453" y2="260.9453"/><line style="stroke:#181818;stroke-width:1.0;" x1="1005" x2="1046" y1="260.9453" y2="260.9453"/><polygon fill="#181818" points="1015,256.9453,1005,260.9453,1015,264.9453,1011,260.9453" style="stroke:#181818;stroke-width:1.0;"/><text fill="#000000" font-family="sans-serif" font-size="13" font-weight="bold" lengthAdjust="spacing" textLength="25" x="1011" y="243.1904">18.6</text><text fill="#000000" font-family="sans-serif" font-size="13" lengthAdjust="spacing" textLength="454" x="1040" y="243.1904">createSMS(senderNumber, recipientNumber,dateAvailable, address, message)</text><line style="stroke:#181818;stroke-width:1.0;stroke-dasharray:2.0,2.0;" x1="1004" x2="1046" y1="299.4688" y2="299.4688"/><line style="stroke:#181818;stroke-width:1.0;stroke-dasharray:2.0,2.0;" x1="1046" x2="1046" y1="299.4688" y2="312.4688"/><line style="stroke:#181818;stroke-width:1.0;stroke-dasharray:2.0,2.0;" x1="999" x2="1046" y1="312.4688" y2="312.4688"/><polygon fill="#181818" points="1009,308.4688,999,312.4688,1009,316.4688,1005,312.4688" style="stroke:#181818;stroke-width:1.0;"/><text fill="#000000" font-family="sans-serif" font-size="13" font-weight="bold" lengthAdjust="spacing" textLength="25" x="1011" y="294.7139">18.7</text><text fill="#000000" font-family="sans-serif" font-size="13" lengthAdjust="spacing" textLength="4" x="1040" y="294.7139">&#160;</text><polygon fill="#181818" points="498,331.9922,488,335.9922,498,339.9922,494,335.9922" style="stroke:#181818;stroke-width:1.0;"/><line style="stroke:#181818;stroke-width:1.0;stroke-dasharray:2.0,2.0;" x1="492" x2="993" y1="335.9922" y2="335.9922"/><text fill="#000000" font-family="sans-serif" font-size="13" font-weight="bold" lengthAdjust="spacing" textLength="25" x="504" y="331.2373">18.8</text><text fill="#000000" font-family="sans-serif" font-size="13" lengthAdjust="spacing" textLength="20" x="533" y="331.2373">flag</text><polygon fill="#181818" points="11,360.5156,1,364.5156,11,368.5156,7,364.5156" style="stroke:#181818;stroke-width:1.0;"/><line style="stroke:#181818;stroke-width:1.0;stroke-dasharray:2.0,2.0;" x1="5" x2="481" y1="364.5156" y2="364.5156"/><text fill="#000000" font-family="sans-serif" font-size="13" font-weight="bold" lengthAdjust="spacing" textLength="25" x="17" y="359.7607">18.9</text><text fill="#000000" font-family="sans-serif" font-size="13" lengthAdjust="spacing" textLength="20" x="46" y="359.7607">flag</text><!--SRC=[hLInRi8m4DtvYXDBGIALsAgegXGnLQ9LbJ2o6ES85euTsGujVr_RX93GLC8jDsImtxttykuIlMUY8egKK4eXwKx94i6e6aUwlQa8tPC2CtFa20gf8QBWNO3UaLn-Cb70bd2D8riFEvOZRAKq6_ariZ33AAk8C32E4o5aBIYMACn22gCavwZ6G3GiLkdo2frY9JKpKZ7K7jCU73FcZ1Wf-Ysgqx4MFma-bicgtq4wZYxqyLeaWnUU9KdTUuAhwCKRZu4g90Qpjmmc6aMEwhqkDwXcBZLMCKlI7EGMbXm8usJ3SGOapnLgFOFIFctKqnCneOOTBF8KYp-fxTjw2fW_FSuR_QOSodaP20XYAD2y2crdHt4oxVNzLgtyKE8tCRWQSXErYNLdTHDbZl-tTGxABS8fcU4vX-Ra5-lcOBnw4uHrCRo3ePa4M3YdaAITnRtBtWP4vhuY2AaalRld4FcUyJ3hphct7jZNcQxj3GmhkYpObfCYKFfAEwptEOgYllPVfVtlxrpV]--></g></svg>