<?xml version="1.0" encoding="us-ascii" standalone="no"?><svg xmlns="http://www.w3.org/2000/svg" xmlns:xlink="http://www.w3.org/1999/xlink" contentStyleType="text/css" height="733px" preserveAspectRatio="none" style="width:1754px;height:733px;background:#FFFFFF;" version="1.1" viewBox="0 0 1754 733" width="1754px" zoomAndPan="magnify"><defs/><g><rect fill="#FFFFFF" height="569.0254" style="stroke:#181818;stroke-width:1.0;" width="10" x="164" y="90.5332"/><rect fill="#FFFFFF" height="31.291" style="stroke:#181818;stroke-width:1.0;" width="10" x="310" y="121.8242"/><rect fill="#FFFFFF" height="31.291" style="stroke:#181818;stroke-width:1.0;" width="10" x="417" y="184.4063"/><rect fill="#FFFFFF" height="31.291" style="stroke:#181818;stroke-width:1.0;" width="10" x="563" y="246.9883"/><rect fill="#FFFFFF" height="318.6973" style="stroke:#181818;stroke-width:1.0;" width="10" x="736" y="309.5703"/><rect fill="#FFFFFF" height="36.291" style="stroke:#181818;stroke-width:1.0;" width="10" x="741" y="480.0645"/><rect fill="#FFFFFF" height="30" style="stroke:#181818;stroke-width:1.0;" width="10" x="1023" y="559.9766"/><rect fill="#FFFFFF" height="30" style="stroke:#181818;stroke-width:1.0;" width="10" x="1601" y="410.7734"/><rect fill="none" height="229.7852" style="stroke:#000000;stroke-width:1.5;" width="1092.5" x="655.5" y="368.1914"/><line style="stroke:#181818;stroke-width:0.5;stroke-dasharray:5.0,5.0;" x1="168.5" x2="168.5" y1="57.2422" y2="677.5586"/><line style="stroke:#181818;stroke-width:0.5;stroke-dasharray:5.0,5.0;" x1="314.5" x2="314.5" y1="57.2422" y2="677.5586"/><line style="stroke:#181818;stroke-width:0.5;stroke-dasharray:5.0,5.0;" x1="421.5" x2="421.5" y1="57.2422" y2="677.5586"/><line style="stroke:#181818;stroke-width:0.5;stroke-dasharray:5.0,5.0;" x1="567.5" x2="567.5" y1="57.2422" y2="677.5586"/><line style="stroke:#181818;stroke-width:0.5;stroke-dasharray:5.0,5.0;" x1="740.5" x2="740.5" y1="57.2422" y2="677.5586"/><line style="stroke:#181818;stroke-width:0.5;stroke-dasharray:5.0,5.0;" x1="1028" x2="1028" y1="349.3809" y2="677.5586"/><line style="stroke:#181818;stroke-width:0.5;stroke-dasharray:5.0,5.0;" x1="1332" x2="1332" y1="524.875" y2="677.5586"/><line style="stroke:#181818;stroke-width:0.5;stroke-dasharray:5.0,5.0;" x1="1606" x2="1606" y1="57.2422" y2="677.5586"/><rect fill="#E3E3E3" height="32.6211" rx="2.5" ry="2.5" style="stroke:#181818;stroke-width:0.5;" width="175" x="81.5" y="23.6211"/><text fill="#000000" font-family="sans-serif" font-size="14" lengthAdjust="spacing" textLength="161" x="88.5" y="45.7285">:AnnouncementController</text><rect fill="#E3E3E3" height="32.6211" rx="2.5" ry="2.5" style="stroke:#181818;stroke-width:0.5;" width="175" x="81.5" y="676.5586"/><text fill="#000000" font-family="sans-serif" font-size="14" lengthAdjust="spacing" textLength="161" x="88.5" y="698.666">:AnnouncementController</text><rect fill="#E3E3E3" height="32.6211" rx="2.5" ry="2.5" style="stroke:#181818;stroke-width:0.5;" width="97" x="266.5" y="23.6211"/><text fill="#000000" font-family="sans-serif" font-size="14" lengthAdjust="spacing" textLength="83" x="273.5" y="45.7285">:Repositories</text><rect fill="#E3E3E3" height="32.6211" rx="2.5" ry="2.5" style="stroke:#181818;stroke-width:0.5;" width="97" x="266.5" y="676.5586"/><text fill="#000000" font-family="sans-serif" font-size="14" lengthAdjust="spacing" textLength="83" x="273.5" y="698.666">:Repositories</text><rect fill="#E3E3E3" height="51.2422" rx="2.5" ry="2.5" style="stroke:#181818;stroke-width:0.5;" width="97" x="373.5" y="5"/><text fill="#000000" font-family="sans-serif" font-size="14" lengthAdjust="spacing" textLength="74" x="385" y="27.1074">repositories</text><text fill="#000000" font-family="sans-serif" font-size="14" lengthAdjust="spacing" textLength="83" x="380.5" y="45.7285">:Repositories</text><rect fill="#E3E3E3" height="51.2422" rx="2.5" ry="2.5" style="stroke:#181818;stroke-width:0.5;" width="97" x="373.5" y="676.5586"/><text fill="#000000" font-family="sans-serif" font-size="14" lengthAdjust="spacing" textLength="74" x="385" y="698.666">repositories</text><text fill="#000000" font-family="sans-serif" font-size="14" lengthAdjust="spacing" textLength="83" x="380.5" y="717.2871">:Repositories</text><rect fill="#E3E3E3" height="51.2422" rx="2.5" ry="2.5" style="stroke:#181818;stroke-width:0.5;" width="175" x="480.5" y="5"/><text fill="#000000" font-family="sans-serif" font-size="14" lengthAdjust="spacing" textLength="161" x="487.5" y="27.1074">BusinessTypeRepository:</text><text fill="#000000" font-family="sans-serif" font-size="14" lengthAdjust="spacing" textLength="157" x="489.5" y="45.7285">BusinessTypeRepository</text><rect fill="#E3E3E3" height="51.2422" rx="2.5" ry="2.5" style="stroke:#181818;stroke-width:0.5;" width="175" x="480.5" y="676.5586"/><text fill="#000000" font-family="sans-serif" font-size="14" lengthAdjust="spacing" textLength="161" x="487.5" y="698.666">BusinessTypeRepository:</text><text fill="#000000" font-family="sans-serif" font-size="14" lengthAdjust="spacing" textLength="157" x="489.5" y="717.2871">BusinessTypeRepository</text><rect fill="#E3E3E3" height="32.6211" rx="2.5" ry="2.5" style="stroke:#181818;stroke-width:0.5;" width="151" x="665.5" y="23.6211"/><text fill="#000000" font-family="sans-serif" font-size="14" lengthAdjust="spacing" textLength="137" x="672.5" y="45.7285">BusinessTypeMapper</text><rect fill="#E3E3E3" height="32.6211" rx="2.5" ry="2.5" style="stroke:#181818;stroke-width:0.5;" width="151" x="665.5" y="676.5586"/><text fill="#000000" font-family="sans-serif" font-size="14" lengthAdjust="spacing" textLength="137" x="672.5" y="698.666">BusinessTypeMapper</text><rect fill="#E3E3E3" height="32.6211" rx="2.5" ry="2.5" style="stroke:#181818;stroke-width:0.5;" width="324" x="866" y="676.5586"/><text fill="#000000" font-family="sans-serif" font-size="14" lengthAdjust="spacing" textLength="310" x="873" y="698.666">BusinessTypeDTOList : List&lt;BusinessTypeDTO&gt;</text><rect fill="#E3E3E3" height="32.6211" rx="2.5" ry="2.5" style="stroke:#181818;stroke-width:0.5;" width="264" x="1200" y="676.5586"/><text fill="#000000" font-family="sans-serif" font-size="14" lengthAdjust="spacing" textLength="250" x="1207" y="698.666">BusinessTypeDTO : BusinessTypeDTO</text><rect fill="#E3E3E3" height="32.6211" rx="2.5" ry="2.5" style="stroke:#181818;stroke-width:0.5;" width="264" x="1474" y="23.6211"/><text fill="#000000" font-family="sans-serif" font-size="14" lengthAdjust="spacing" textLength="250" x="1481" y="45.7285">BusinessTypeList : List&lt;BusinessType&gt;</text><rect fill="#E3E3E3" height="32.6211" rx="2.5" ry="2.5" style="stroke:#181818;stroke-width:0.5;" width="264" x="1474" y="676.5586"/><text fill="#000000" font-family="sans-serif" font-size="14" lengthAdjust="spacing" textLength="250" x="1481" y="698.666">BusinessTypeList : List&lt;BusinessType&gt;</text><rect fill="#FFFFFF" height="569.0254" style="stroke:#181818;stroke-width:1.0;" width="10" x="164" y="90.5332"/><rect fill="#FFFFFF" height="31.291" style="stroke:#181818;stroke-width:1.0;" width="10" x="310" y="121.8242"/><rect fill="#FFFFFF" height="31.291" style="stroke:#181818;stroke-width:1.0;" width="10" x="417" y="184.4063"/><rect fill="#FFFFFF" height="31.291" style="stroke:#181818;stroke-width:1.0;" width="10" x="563" y="246.9883"/><rect fill="#FFFFFF" height="318.6973" style="stroke:#181818;stroke-width:1.0;" width="10" x="736" y="309.5703"/><rect fill="#FFFFFF" height="36.291" style="stroke:#181818;stroke-width:1.0;" width="10" x="741" y="480.0645"/><rect fill="#FFFFFF" height="30" style="stroke:#181818;stroke-width:1.0;" width="10" x="1023" y="559.9766"/><rect fill="#FFFFFF" height="30" style="stroke:#181818;stroke-width:1.0;" width="10" x="1601" y="410.7734"/><polygon fill="#181818" points="152,86.5332,162,90.5332,152,94.5332,156,90.5332" style="stroke:#181818;stroke-width:1.0;"/><line style="stroke:#181818;stroke-width:1.0;" x1="0" x2="158" y1="90.5332" y2="90.5332"/><text fill="#000000" font-family="sans-serif" font-size="13" font-weight="bold" lengthAdjust="spacing" textLength="7" x="7" y="85.2705">1</text><text fill="#000000" font-family="sans-serif" font-size="13" lengthAdjust="spacing" textLength="115" x="18" y="85.2705">getBusinessTypes()</text><polygon fill="#181818" points="298,117.8242,308,121.8242,298,125.8242,302,121.8242" style="stroke:#181818;stroke-width:1.0;"/><line style="stroke:#181818;stroke-width:1.0;" x1="174" x2="304" y1="121.8242" y2="121.8242"/><text fill="#000000" font-family="sans-serif" font-size="13" font-weight="bold" lengthAdjust="spacing" textLength="7" x="181" y="116.5615">2</text><text fill="#000000" font-family="sans-serif" font-size="13" lengthAdjust="spacing" textLength="75" x="192" y="116.5615">getInstance()</text><polygon fill="#181818" points="185,149.1152,175,153.1152,185,157.1152,181,153.1152" style="stroke:#181818;stroke-width:1.0;"/><line style="stroke:#181818;stroke-width:1.0;stroke-dasharray:2.0,2.0;" x1="179" x2="314" y1="153.1152" y2="153.1152"/><text fill="#000000" font-family="sans-serif" font-size="13" font-weight="bold" lengthAdjust="spacing" textLength="7" x="191" y="147.8525">3</text><text fill="#000000" font-family="sans-serif" font-size="13" lengthAdjust="spacing" textLength="67" x="202" y="147.8525">repositories</text><polygon fill="#181818" points="405,180.4063,415,184.4063,405,188.4063,409,184.4063" style="stroke:#181818;stroke-width:1.0;"/><line style="stroke:#181818;stroke-width:1.0;" x1="174" x2="411" y1="184.4063" y2="184.4063"/><text fill="#000000" font-family="sans-serif" font-size="13" font-weight="bold" lengthAdjust="spacing" textLength="7" x="181" y="179.1436">4</text><text fill="#000000" font-family="sans-serif" font-size="13" lengthAdjust="spacing" textLength="170" x="192" y="179.1436">getBusinessTypeRepository()</text><polygon fill="#181818" points="185,211.6973,175,215.6973,185,219.6973,181,215.6973" style="stroke:#181818;stroke-width:1.0;"/><line style="stroke:#181818;stroke-width:1.0;" x1="179" x2="421" y1="215.6973" y2="215.6973"/><text fill="#000000" font-family="sans-serif" font-size="13" font-weight="bold" lengthAdjust="spacing" textLength="7" x="191" y="210.4346">5</text><text fill="#000000" font-family="sans-serif" font-size="13" lengthAdjust="spacing" textLength="142" x="202" y="210.4346">businessTypeRepository</text><polygon fill="#181818" points="551,242.9883,561,246.9883,551,250.9883,555,246.9883" style="stroke:#181818;stroke-width:1.0;"/><line style="stroke:#181818;stroke-width:1.0;" x1="174" x2="557" y1="246.9883" y2="246.9883"/><text fill="#000000" font-family="sans-serif" font-size="13" font-weight="bold" lengthAdjust="spacing" textLength="7" x="181" y="241.7256">6</text><text fill="#000000" font-family="sans-serif" font-size="13" lengthAdjust="spacing" textLength="115" x="192" y="241.7256">getBusinessTypes()</text><polygon fill="#181818" points="185,274.2793,175,278.2793,185,282.2793,181,278.2793" style="stroke:#181818;stroke-width:1.0;"/><line style="stroke:#181818;stroke-width:1.0;stroke-dasharray:2.0,2.0;" x1="179" x2="567" y1="278.2793" y2="278.2793"/><text fill="#000000" font-family="sans-serif" font-size="13" font-weight="bold" lengthAdjust="spacing" textLength="7" x="191" y="273.0166">7</text><text fill="#000000" font-family="sans-serif" font-size="13" lengthAdjust="spacing" textLength="101" x="202" y="273.0166">businessTypeList</text><polygon fill="#181818" points="724,305.5703,734,309.5703,724,313.5703,728,309.5703" style="stroke:#181818;stroke-width:1.0;"/><line style="stroke:#181818;stroke-width:1.0;" x1="174" x2="730" y1="309.5703" y2="309.5703"/><text fill="#000000" font-family="sans-serif" font-size="13" font-weight="bold" lengthAdjust="spacing" textLength="7" x="181" y="304.3076">8</text><text fill="#000000" font-family="sans-serif" font-size="13" lengthAdjust="spacing" textLength="139" x="192" y="304.3076">toDTO(usinessTypeList)</text><polygon fill="#181818" points="854,336.8613,864,340.8613,854,344.8613,858,340.8613" style="stroke:#181818;stroke-width:1.0;"/><line style="stroke:#181818;stroke-width:1.0;" x1="746" x2="860" y1="340.8613" y2="340.8613"/><text fill="#000000" font-family="sans-serif" font-size="13" font-weight="bold" lengthAdjust="spacing" textLength="7" x="753" y="335.5986">9</text><text fill="#000000" font-family="sans-serif" font-size="13" lengthAdjust="spacing" textLength="44" x="764" y="335.5986">create()</text><rect fill="#E3E3E3" height="32.6211" rx="2.5" ry="2.5" style="stroke:#181818;stroke-width:0.5;" width="324" x="866" y="317.5703"/><text fill="#000000" font-family="sans-serif" font-size="14" lengthAdjust="spacing" textLength="310" x="873" y="339.6777">BusinessTypeDTOList : List&lt;BusinessTypeDTO&gt;</text><path d="M655.5,368.1914 L728.5,368.1914 L728.5,377.4824 L718.5,387.4824 L655.5,387.4824 L655.5,368.1914 " fill="#EEEEEE" style="stroke:#000000;stroke-width:1.5;"/><rect fill="none" height="229.7852" style="stroke:#000000;stroke-width:1.5;" width="1092.5" x="655.5" y="368.1914"/><text fill="#000000" font-family="sans-serif" font-size="13" font-weight="bold" lengthAdjust="spacing" textLength="28" x="670.5" y="383.2197">loop</text><text fill="#000000" font-family="sans-serif" font-size="11" font-weight="bold" lengthAdjust="spacing" textLength="206" x="743.5" y="382.0615">[for each object in BusinessTypeList]</text><polygon fill="#181818" points="1589,406.7734,1599,410.7734,1589,414.7734,1593,410.7734" style="stroke:#181818;stroke-width:1.0;"/><line style="stroke:#181818;stroke-width:1.0;" x1="746" x2="1595" y1="410.7734" y2="410.7734"/><text fill="#000000" font-family="sans-serif" font-size="13" font-weight="bold" lengthAdjust="spacing" textLength="14" x="753" y="405.5107">10</text><text fill="#000000" font-family="sans-serif" font-size="13" lengthAdjust="spacing" textLength="268" x="771" y="405.5107">descriptionProperty = getDescriptionProperty()</text><line style="stroke:#181818;stroke-width:1.0;" x1="746" x2="793" y1="467.0645" y2="467.0645"/><line style="stroke:#181818;stroke-width:1.0;" x1="793" x2="793" y1="467.0645" y2="480.0645"/><line style="stroke:#181818;stroke-width:1.0;" x1="752" x2="793" y1="480.0645" y2="480.0645"/><polygon fill="#181818" points="762,476.0645,752,480.0645,762,484.0645,758,480.0645" style="stroke:#181818;stroke-width:1.0;"/><text fill="#000000" font-family="sans-serif" font-size="13" font-weight="bold" lengthAdjust="spacing" textLength="14" x="758" y="461.8018">11</text><text fill="#000000" font-family="sans-serif" font-size="13" lengthAdjust="spacing" textLength="245" x="776" y="461.8018">BusinessTypeDTO= toDTO(businessType)</text><polygon fill="#181818" points="1188,512.3555,1198,516.3555,1188,520.3555,1192,516.3555" style="stroke:#181818;stroke-width:1.0;"/><line style="stroke:#181818;stroke-width:1.0;stroke-dasharray:2.0,2.0;" x1="746" x2="1194" y1="516.3555" y2="516.3555"/><text fill="#000000" font-family="sans-serif" font-size="13" font-weight="bold" lengthAdjust="spacing" textLength="14" x="753" y="511.0928">12</text><text fill="#000000" font-family="sans-serif" font-size="13" lengthAdjust="spacing" textLength="44" x="771" y="511.0928">create()</text><rect fill="#E3E3E3" height="32.6211" rx="2.5" ry="2.5" style="stroke:#181818;stroke-width:0.5;" width="264" x="1200" y="493.0645"/><text fill="#000000" font-family="sans-serif" font-size="14" lengthAdjust="spacing" textLength="250" x="1207" y="515.1719">BusinessTypeDTO : BusinessTypeDTO</text><polygon fill="#181818" points="1011,555.9766,1021,559.9766,1011,563.9766,1015,559.9766" style="stroke:#181818;stroke-width:1.0;"/><line style="stroke:#181818;stroke-width:1.0;" x1="746" x2="1017" y1="559.9766" y2="559.9766"/><text fill="#000000" font-family="sans-serif" font-size="13" font-weight="bold" lengthAdjust="spacing" textLength="14" x="753" y="554.7139">13</text><text fill="#000000" font-family="sans-serif" font-size="13" lengthAdjust="spacing" textLength="137" x="771" y="554.7139">add(BusinessTypeDTO)</text><polygon fill="#181818" points="185,624.2676,175,628.2676,185,632.2676,181,628.2676" style="stroke:#181818;stroke-width:1.0;"/><line style="stroke:#181818;stroke-width:1.0;stroke-dasharray:2.0,2.0;" x1="179" x2="740" y1="628.2676" y2="628.2676"/><text fill="#000000" font-family="sans-serif" font-size="13" font-weight="bold" lengthAdjust="spacing" textLength="14" x="191" y="623.0049">14</text><text fill="#000000" font-family="sans-serif" font-size="13" lengthAdjust="spacing" textLength="127" x="209" y="623.0049">businessTypeListDTO</text><polygon fill="#181818" points="11,655.5586,1,659.5586,11,663.5586,7,659.5586" style="stroke:#181818;stroke-width:1.0;"/><line style="stroke:#181818;stroke-width:1.0;stroke-dasharray:2.0,2.0;" x1="5" x2="168" y1="659.5586" y2="659.5586"/><text fill="#000000" font-family="sans-serif" font-size="13" font-weight="bold" lengthAdjust="spacing" textLength="14" x="17" y="654.2959">15</text><text fill="#000000" font-family="sans-serif" font-size="13" lengthAdjust="spacing" textLength="127" x="35" y="654.2959">businessTypeListDTO</text><!--SRC=[fLLDRwCm5BpxLppricabJdj3RQNINbO2RTLoxCM1L-8js9Pjsis_Nvj0-GmVMLyIiEVDpFDWwm_69LMqW49maHoKA12CAf7exnb9am-QuQivvWWA4qDvbdSNw0DDnHVZ6RpJN2CXj3I2byKU5VmavCU1fGZlGfYz-4iinB24ISeDNFaFd8kI9rWWDu-26oNo7DKLK0sFyKiuMFs2KcXcX6AegpNVBuwlp8coj7s8wY3U-BZ0S_WGzn51gHb7hUEZnBQy_yQd9wegmKoDY4fPEmhYwFowf_XtoBG17zpFxM3glYvW_ywMiF31cneuZpp7tD26X010kwtkoGxlljebYypGT75wTrqlwG-Q6FP93PusbqokQKPLsJ9CxF69y1VNDee9dk4QSKw5PHRfnXIxL_lseHklsL8fNYwZQOJBwhZLRRcrVQWolsYyOcitU3z9kTRpCcLZCeZNfsdaB5ZXon9uqxPS-jSQSappLAsXo0SZxEUt6t1TBsgTjHgH2_0MTX9bzTpS-90ejDLiVxVKoeMGzZnNOFjn0B7_O-y4O1o69yf6WLPR9Sr-LodgH35fcE3FIjZpqnpXpiNYQJonszp7JXF3hTXU1fQEi9wjQ7GqtzMvw8PmbPb-2iYMlQ-aZ7R_Gl-R8jYDdWyqJNU3TcoHqH7XBhOBzJjeDJO407aAcHAbd4SrpJxT4yDZPadpiCiB4cyzx_-9wYkv7ly0]--></g></svg>