<?xml version="1.0" encoding="us-ascii" standalone="no"?><svg xmlns="http://www.w3.org/2000/svg" xmlns:xlink="http://www.w3.org/1999/xlink" contentStyleType="text/css" height="667px" preserveAspectRatio="none" style="width:1635px;height:667px;background:#FFFFFF;" version="1.1" viewBox="0 0 1635 667" width="1635px" zoomAndPan="magnify"><defs/><g><rect fill="#FFFFFF" height="502.4043" style="stroke:#181818;stroke-width:1.0;" width="10" x="301" y="90.5332"/><rect fill="#FFFFFF" height="31.291" style="stroke:#181818;stroke-width:1.0;" width="10" x="447" y="121.8242"/><rect fill="#FFFFFF" height="31.291" style="stroke:#181818;stroke-width:1.0;" width="10" x="554" y="184.4063"/><rect fill="#FFFFFF" height="314.6582" style="stroke:#181818;stroke-width:1.0;" width="10" x="702.5" y="246.9883"/><rect fill="#FFFFFF" height="130.873" style="stroke:#181818;stroke-width:1.0;" width="10" x="707.5" y="392.4824"/><rect fill="#FFFFFF" height="42.291" style="stroke:#181818;stroke-width:1.0;" width="10" x="712.5" y="436.7734"/><rect fill="#FFFFFF" height="74.9121" style="stroke:#181818;stroke-width:1.0;" width="10" x="967.5" y="278.2793"/><line style="stroke:#181818;stroke-width:0.5;stroke-dasharray:5.0,5.0;" x1="305.5" x2="305.5" y1="57.2422" y2="610.9375"/><line style="stroke:#181818;stroke-width:0.5;stroke-dasharray:5.0,5.0;" x1="451.5" x2="451.5" y1="57.2422" y2="610.9375"/><line style="stroke:#181818;stroke-width:0.5;stroke-dasharray:5.0,5.0;" x1="558.5" x2="558.5" y1="57.2422" y2="610.9375"/><line style="stroke:#181818;stroke-width:0.5;stroke-dasharray:5.0,5.0;" x1="707.5" x2="707.5" y1="57.2422" y2="610.9375"/><line style="stroke:#181818;stroke-width:0.5;stroke-dasharray:5.0,5.0;" x1="972" x2="972" y1="57.2422" y2="610.9375"/><line style="stroke:#181818;stroke-width:0.5;stroke-dasharray:5.0,5.0;" x1="1574.5" x2="1574.5" y1="318.0898" y2="610.9375"/><rect fill="#E3E3E3" height="32.6211" rx="2.5" ry="2.5" style="stroke:#181818;stroke-width:0.5;" width="175" x="218.5" y="23.6211"/><text fill="#000000" font-family="sans-serif" font-size="14" lengthAdjust="spacing" textLength="161" x="225.5" y="45.7285">:AnnouncementController</text><rect fill="#E3E3E3" height="32.6211" rx="2.5" ry="2.5" style="stroke:#181818;stroke-width:0.5;" width="175" x="218.5" y="609.9375"/><text fill="#000000" font-family="sans-serif" font-size="14" lengthAdjust="spacing" textLength="161" x="225.5" y="632.0449">:AnnouncementController</text><rect fill="#E3E3E3" height="32.6211" rx="2.5" ry="2.5" style="stroke:#181818;stroke-width:0.5;" width="97" x="403.5" y="23.6211"/><text fill="#000000" font-family="sans-serif" font-size="14" lengthAdjust="spacing" textLength="83" x="410.5" y="45.7285">:Repositories</text><rect fill="#E3E3E3" height="32.6211" rx="2.5" ry="2.5" style="stroke:#181818;stroke-width:0.5;" width="97" x="403.5" y="609.9375"/><text fill="#000000" font-family="sans-serif" font-size="14" lengthAdjust="spacing" textLength="83" x="410.5" y="632.0449">:Repositories</text><rect fill="#E3E3E3" height="51.2422" rx="2.5" ry="2.5" style="stroke:#181818;stroke-width:0.5;" width="97" x="510.5" y="5"/><text fill="#000000" font-family="sans-serif" font-size="14" lengthAdjust="spacing" textLength="74" x="522" y="27.1074">repositories</text><text fill="#000000" font-family="sans-serif" font-size="14" lengthAdjust="spacing" textLength="83" x="517.5" y="45.7285">:Repositories</text><rect fill="#E3E3E3" height="51.2422" rx="2.5" ry="2.5" style="stroke:#181818;stroke-width:0.5;" width="97" x="510.5" y="609.9375"/><text fill="#000000" font-family="sans-serif" font-size="14" lengthAdjust="spacing" textLength="74" x="522" y="632.0449">repositories</text><text fill="#000000" font-family="sans-serif" font-size="14" lengthAdjust="spacing" textLength="83" x="517.5" y="650.666">:Repositories</text><rect fill="#E3E3E3" height="51.2422" rx="2.5" ry="2.5" style="stroke:#181818;stroke-width:0.5;" width="180" x="617.5" y="5"/><text fill="#000000" font-family="sans-serif" font-size="14" lengthAdjust="spacing" textLength="166" x="624.5" y="27.1074">announcementRepository:</text><text fill="#000000" font-family="sans-serif" font-size="14" lengthAdjust="spacing" textLength="163" x="626" y="45.7285">AnnouncementRepository</text><rect fill="#E3E3E3" height="51.2422" rx="2.5" ry="2.5" style="stroke:#181818;stroke-width:0.5;" width="180" x="617.5" y="609.9375"/><text fill="#000000" font-family="sans-serif" font-size="14" lengthAdjust="spacing" textLength="166" x="624.5" y="632.0449">announcementRepository:</text><text fill="#000000" font-family="sans-serif" font-size="14" lengthAdjust="spacing" textLength="163" x="626" y="650.666">AnnouncementRepository</text><rect fill="#E3E3E3" height="32.6211" rx="2.5" ry="2.5" style="stroke:#181818;stroke-width:0.5;" width="157" x="894" y="23.6211"/><text fill="#000000" font-family="sans-serif" font-size="14" lengthAdjust="spacing" textLength="143" x="901" y="45.7285">AnnouncementMapper</text><rect fill="#E3E3E3" height="32.6211" rx="2.5" ry="2.5" style="stroke:#181818;stroke-width:0.5;" width="157" x="894" y="609.9375"/><text fill="#000000" font-family="sans-serif" font-size="14" lengthAdjust="spacing" textLength="143" x="901" y="632.0449">AnnouncementMapper</text><rect fill="#E3E3E3" height="32.6211" rx="2.5" ry="2.5" style="stroke:#181818;stroke-width:0.5;" width="109" x="1520.5" y="609.9375"/><text fill="#000000" font-family="sans-serif" font-size="14" lengthAdjust="spacing" textLength="95" x="1527.5" y="632.0449">Announcement</text><rect fill="#FFFFFF" height="502.4043" style="stroke:#181818;stroke-width:1.0;" width="10" x="301" y="90.5332"/><rect fill="#FFFFFF" height="31.291" style="stroke:#181818;stroke-width:1.0;" width="10" x="447" y="121.8242"/><rect fill="#FFFFFF" height="31.291" style="stroke:#181818;stroke-width:1.0;" width="10" x="554" y="184.4063"/><rect fill="#FFFFFF" height="314.6582" style="stroke:#181818;stroke-width:1.0;" width="10" x="702.5" y="246.9883"/><rect fill="#FFFFFF" height="130.873" style="stroke:#181818;stroke-width:1.0;" width="10" x="707.5" y="392.4824"/><rect fill="#FFFFFF" height="42.291" style="stroke:#181818;stroke-width:1.0;" width="10" x="712.5" y="436.7734"/><rect fill="#FFFFFF" height="74.9121" style="stroke:#181818;stroke-width:1.0;" width="10" x="967.5" y="278.2793"/><polygon fill="#181818" points="289,86.5332,299,90.5332,289,94.5332,293,90.5332" style="stroke:#181818;stroke-width:1.0;"/><line style="stroke:#181818;stroke-width:1.0;" x1="0" x2="295" y1="90.5332" y2="90.5332"/><text fill="#000000" font-family="sans-serif" font-size="13" font-weight="bold" lengthAdjust="spacing" textLength="7" x="7" y="85.2705">1</text><text fill="#000000" font-family="sans-serif" font-size="13" lengthAdjust="spacing" textLength="271" x="18" y="85.2705">createRentAnnouncement(AnnouncementDTO)</text><polygon fill="#181818" points="435,117.8242,445,121.8242,435,125.8242,439,121.8242" style="stroke:#181818;stroke-width:1.0;"/><line style="stroke:#181818;stroke-width:1.0;" x1="311" x2="441" y1="121.8242" y2="121.8242"/><text fill="#000000" font-family="sans-serif" font-size="13" font-weight="bold" lengthAdjust="spacing" textLength="7" x="318" y="116.5615">2</text><text fill="#000000" font-family="sans-serif" font-size="13" lengthAdjust="spacing" textLength="75" x="329" y="116.5615">getInstance()</text><polygon fill="#181818" points="322,149.1152,312,153.1152,322,157.1152,318,153.1152" style="stroke:#181818;stroke-width:1.0;"/><line style="stroke:#181818;stroke-width:1.0;stroke-dasharray:2.0,2.0;" x1="316" x2="451" y1="153.1152" y2="153.1152"/><text fill="#000000" font-family="sans-serif" font-size="13" font-weight="bold" lengthAdjust="spacing" textLength="7" x="328" y="147.8525">3</text><text fill="#000000" font-family="sans-serif" font-size="13" lengthAdjust="spacing" textLength="67" x="339" y="147.8525">repositories</text><polygon fill="#181818" points="542,180.4063,552,184.4063,542,188.4063,546,184.4063" style="stroke:#181818;stroke-width:1.0;"/><line style="stroke:#181818;stroke-width:1.0;" x1="311" x2="548" y1="184.4063" y2="184.4063"/><text fill="#000000" font-family="sans-serif" font-size="13" font-weight="bold" lengthAdjust="spacing" textLength="7" x="318" y="179.1436">4</text><text fill="#000000" font-family="sans-serif" font-size="13" lengthAdjust="spacing" textLength="175" x="329" y="179.1436">getAnnouncementRepository()</text><polygon fill="#181818" points="322,211.6973,312,215.6973,322,219.6973,318,215.6973" style="stroke:#181818;stroke-width:1.0;"/><line style="stroke:#181818;stroke-width:1.0;" x1="316" x2="558" y1="215.6973" y2="215.6973"/><text fill="#000000" font-family="sans-serif" font-size="13" font-weight="bold" lengthAdjust="spacing" textLength="7" x="328" y="210.4346">5</text><text fill="#000000" font-family="sans-serif" font-size="13" lengthAdjust="spacing" textLength="147" x="339" y="210.4346">announcementRepository</text><polygon fill="#181818" points="690.5,242.9883,700.5,246.9883,690.5,250.9883,694.5,246.9883" style="stroke:#181818;stroke-width:1.0;"/><line style="stroke:#181818;stroke-width:1.0;" x1="311" x2="696.5" y1="246.9883" y2="246.9883"/><text fill="#000000" font-family="sans-serif" font-size="13" font-weight="bold" lengthAdjust="spacing" textLength="7" x="318" y="241.7256">6</text><text fill="#000000" font-family="sans-serif" font-size="13" lengthAdjust="spacing" textLength="244" x="329" y="241.7256">createAnnouncement(AnnouncementDTO)</text><polygon fill="#181818" points="955.5,274.2793,965.5,278.2793,955.5,282.2793,959.5,278.2793" style="stroke:#181818;stroke-width:1.0;"/><line style="stroke:#181818;stroke-width:1.0;" x1="712.5" x2="961.5" y1="278.2793" y2="278.2793"/><text fill="#000000" font-family="sans-serif" font-size="13" font-weight="bold" lengthAdjust="spacing" textLength="7" x="719.5" y="273.0166">7</text><text fill="#000000" font-family="sans-serif" font-size="13" lengthAdjust="spacing" textLength="169" x="730.5" y="273.0166">ToEntity(AnnouncementDTO)</text><polygon fill="#181818" points="1508.5,305.5703,1518.5,309.5703,1508.5,313.5703,1512.5,309.5703" style="stroke:#181818;stroke-width:1.0;"/><line style="stroke:#181818;stroke-width:1.0;" x1="977.5" x2="1514.5" y1="309.5703" y2="309.5703"/><text fill="#000000" font-family="sans-serif" font-size="13" font-weight="bold" lengthAdjust="spacing" textLength="7" x="984.5" y="304.3076">8</text><text fill="#000000" font-family="sans-serif" font-size="13" lengthAdjust="spacing" textLength="508" x="995.5" y="304.3076">create(agent, dateTime, Commission,businessType,property, RentDuration, ListedPrice)</text><rect fill="#E3E3E3" height="32.6211" rx="2.5" ry="2.5" style="stroke:#181818;stroke-width:0.5;" width="109" x="1520.5" y="286.2793"/><text fill="#000000" font-family="sans-serif" font-size="14" lengthAdjust="spacing" textLength="95" x="1527.5" y="308.3867">Announcement</text><polygon fill="#181818" points="723.5,349.1914,713.5,353.1914,723.5,357.1914,719.5,353.1914" style="stroke:#181818;stroke-width:1.0;"/><line style="stroke:#181818;stroke-width:1.0;stroke-dasharray:2.0,2.0;" x1="717.5" x2="971.5" y1="353.1914" y2="353.1914"/><text fill="#000000" font-family="sans-serif" font-size="13" font-weight="bold" lengthAdjust="spacing" textLength="7" x="729.5" y="347.9287">9</text><text fill="#000000" font-family="sans-serif" font-size="13" lengthAdjust="spacing" textLength="85" x="740.5" y="347.9287">announcement</text><line style="stroke:#181818;stroke-width:1.0;" x1="712.5" x2="759.5" y1="379.4824" y2="379.4824"/><line style="stroke:#181818;stroke-width:1.0;" x1="759.5" x2="759.5" y1="379.4824" y2="392.4824"/><line style="stroke:#181818;stroke-width:1.0;" x1="718.5" x2="759.5" y1="392.4824" y2="392.4824"/><polygon fill="#181818" points="728.5,388.4824,718.5,392.4824,728.5,396.4824,724.5,392.4824" style="stroke:#181818;stroke-width:1.0;"/><text fill="#000000" font-family="sans-serif" font-size="13" font-weight="bold" lengthAdjust="spacing" textLength="14" x="724.5" y="374.2197">10</text><text fill="#000000" font-family="sans-serif" font-size="13" lengthAdjust="spacing" textLength="223" x="742.5" y="374.2197">validateAnnouncement(announcement)</text><line style="stroke:#181818;stroke-width:1.0;" x1="717.5" x2="764.5" y1="423.7734" y2="423.7734"/><line style="stroke:#181818;stroke-width:1.0;" x1="764.5" x2="764.5" y1="423.7734" y2="436.7734"/><line style="stroke:#181818;stroke-width:1.0;" x1="723.5" x2="764.5" y1="436.7734" y2="436.7734"/><polygon fill="#181818" points="733.5,432.7734,723.5,436.7734,733.5,440.7734,729.5,436.7734" style="stroke:#181818;stroke-width:1.0;"/><text fill="#000000" font-family="sans-serif" font-size="13" font-weight="bold" lengthAdjust="spacing" textLength="14" x="729.5" y="418.5107">11</text><text fill="#000000" font-family="sans-serif" font-size="13" lengthAdjust="spacing" textLength="201" x="747.5" y="418.5107">addAnnouncement(announcement)</text><line style="stroke:#181818;stroke-width:1.0;stroke-dasharray:2.0,2.0;" x1="722.5" x2="764.5" y1="478.0645" y2="478.0645"/><line style="stroke:#181818;stroke-width:1.0;stroke-dasharray:2.0,2.0;" x1="764.5" x2="764.5" y1="478.0645" y2="491.0645"/><line style="stroke:#181818;stroke-width:1.0;stroke-dasharray:2.0,2.0;" x1="717.5" x2="764.5" y1="491.0645" y2="491.0645"/><polygon fill="#181818" points="727.5,487.0645,717.5,491.0645,727.5,495.0645,723.5,491.0645" style="stroke:#181818;stroke-width:1.0;"/><text fill="#000000" font-family="sans-serif" font-size="13" font-weight="bold" lengthAdjust="spacing" textLength="14" x="729.5" y="472.8018">12</text><text fill="#000000" font-family="sans-serif" font-size="13" lengthAdjust="spacing" textLength="4" x="747.5" y="472.8018">&#160;</text><line style="stroke:#181818;stroke-width:1.0;stroke-dasharray:2.0,2.0;" x1="717.5" x2="759.5" y1="522.3555" y2="522.3555"/><line style="stroke:#181818;stroke-width:1.0;stroke-dasharray:2.0,2.0;" x1="759.5" x2="759.5" y1="522.3555" y2="535.3555"/><line style="stroke:#181818;stroke-width:1.0;stroke-dasharray:2.0,2.0;" x1="712.5" x2="759.5" y1="535.3555" y2="535.3555"/><polygon fill="#181818" points="722.5,531.3555,712.5,535.3555,722.5,539.3555,718.5,535.3555" style="stroke:#181818;stroke-width:1.0;"/><text fill="#000000" font-family="sans-serif" font-size="13" font-weight="bold" lengthAdjust="spacing" textLength="14" x="724.5" y="517.0928">13</text><text fill="#000000" font-family="sans-serif" font-size="13" lengthAdjust="spacing" textLength="4" x="742.5" y="517.0928">&#160;</text><polygon fill="#181818" points="322,557.6465,312,561.6465,322,565.6465,318,561.6465" style="stroke:#181818;stroke-width:1.0;"/><line style="stroke:#181818;stroke-width:1.0;stroke-dasharray:2.0,2.0;" x1="316" x2="706.5" y1="561.6465" y2="561.6465"/><text fill="#000000" font-family="sans-serif" font-size="13" font-weight="bold" lengthAdjust="spacing" textLength="14" x="328" y="556.3838">14</text><text fill="#000000" font-family="sans-serif" font-size="13" lengthAdjust="spacing" textLength="85" x="346" y="556.3838">announcement</text><polygon fill="#181818" points="11,588.9375,1,592.9375,11,596.9375,7,592.9375" style="stroke:#181818;stroke-width:1.0;"/><line style="stroke:#181818;stroke-width:1.0;stroke-dasharray:2.0,2.0;" x1="5" x2="305" y1="592.9375" y2="592.9375"/><text fill="#000000" font-family="sans-serif" font-size="13" font-weight="bold" lengthAdjust="spacing" textLength="14" x="17" y="587.6748">15</text><text fill="#000000" font-family="sans-serif" font-size="13" lengthAdjust="spacing" textLength="85" x="35" y="587.6748">announcement</text><!--SRC=[bLJBRjim4BppAuXSwWJo3mX50S79eO2T1egEkT3KnYOYaGAvIgk_BqazGhcKhVAan-pCxinAvaF8XcbMqrf9nSzQrK1Hjq3CzAPX_8ETu1Mx2gW6ZaoUgX1WpgnKluKyqNTM6I24jQXaMnz14_BjB4gWxqhXKVqXjW055msJIE_IJ4hLIWurIDmfYLfL5UWxoWpT5Vd-0fr3eun0fGKOZvaUTA_2jMH5voKwg7YJ_nAyxBDYNi62ZhxeqpUPHLzubYoVSuJG0skQOQBiG9PnFUAP44BTsVxm1gIKQs08kKM4w4ruyrZykk-h64VnQU6zUOxBNJYoY5CqfIV0dzBOE3bi1ehucOXZZa-5CP7jD4cOnKohX7NqaJEEvtBivud7j78wlmxNaBtGC98LZ6_BLOPWsbxEHpuEakLZv2lYdZTljv0iD9_bdlkGqa8zIHJONMECEUDsTs6ixE39dnyUnjOtzcSXCQ6blIv43GdTgReMnWWbasDhX0HZYgw1fD7AVXtO9THj-6Eh6JeCtGk3KBvemU7-YknWM9W2kUdwyYY3JPRnarMYl0mXbBdfLxwy15yoh2p_Ls6rogZafSYQTRpLSyz4Rb0C2zrlzFVjrfLUV2c3_nTrxf73-q8QIJN0z_-tlm00]--></g></svg>