<?xml version="1.0" encoding="us-ascii" standalone="no"?><svg xmlns="http://www.w3.org/2000/svg" xmlns:xlink="http://www.w3.org/1999/xlink" contentStyleType="text/css" height="409px" preserveAspectRatio="none" style="width:1501px;height:409px;background:#FFFFFF;" version="1.1" viewBox="0 0 1501 409" width="1501px" zoomAndPan="magnify"><defs/><g><rect fill="#FFFFFF" height="156.4551" style="stroke:#181818;stroke-width:1.0;" width="10" x="477" y="90.5332"/><rect fill="#FFFFFF" height="31.291" style="stroke:#181818;stroke-width:1.0;" width="10" x="623" y="121.8242"/><rect fill="#FFFFFF" height="31.291" style="stroke:#181818;stroke-width:1.0;" width="10" x="730" y="184.4063"/><rect fill="#FFFFFF" height="97.582" style="stroke:#181818;stroke-width:1.0;" width="10" x="989" y="246.9883"/><rect fill="#FFFFFF" height="42.291" style="stroke:#181818;stroke-width:1.0;" width="10" x="994" y="286.2793"/><line style="stroke:#181818;stroke-width:0.5;stroke-dasharray:5.0,5.0;" x1="481.5" x2="481.5" y1="57.2422" y2="353.5703"/><line style="stroke:#181818;stroke-width:0.5;stroke-dasharray:5.0,5.0;" x1="627.5" x2="627.5" y1="57.2422" y2="353.5703"/><line style="stroke:#181818;stroke-width:0.5;stroke-dasharray:5.0,5.0;" x1="734.5" x2="734.5" y1="57.2422" y2="353.5703"/><line style="stroke:#181818;stroke-width:0.5;stroke-dasharray:5.0,5.0;" x1="994" x2="994" y1="57.2422" y2="353.5703"/><rect fill="#E3E3E3" height="32.6211" rx="2.5" ry="2.5" style="stroke:#181818;stroke-width:0.5;" width="175" x="394.5" y="23.6211"/><text fill="#000000" font-family="sans-serif" font-size="14" lengthAdjust="spacing" textLength="161" x="401.5" y="45.7285">:AnnouncementController</text><rect fill="#E3E3E3" height="32.6211" rx="2.5" ry="2.5" style="stroke:#181818;stroke-width:0.5;" width="175" x="394.5" y="352.5703"/><text fill="#000000" font-family="sans-serif" font-size="14" lengthAdjust="spacing" textLength="161" x="401.5" y="374.6777">:AnnouncementController</text><rect fill="#E3E3E3" height="32.6211" rx="2.5" ry="2.5" style="stroke:#181818;stroke-width:0.5;" width="97" x="579.5" y="23.6211"/><text fill="#000000" font-family="sans-serif" font-size="14" lengthAdjust="spacing" textLength="83" x="586.5" y="45.7285">:Repositories</text><rect fill="#E3E3E3" height="32.6211" rx="2.5" ry="2.5" style="stroke:#181818;stroke-width:0.5;" width="97" x="579.5" y="352.5703"/><text fill="#000000" font-family="sans-serif" font-size="14" lengthAdjust="spacing" textLength="83" x="586.5" y="374.6777">:Repositories</text><rect fill="#E3E3E3" height="51.2422" rx="2.5" ry="2.5" style="stroke:#181818;stroke-width:0.5;" width="97" x="686.5" y="5"/><text fill="#000000" font-family="sans-serif" font-size="14" lengthAdjust="spacing" textLength="74" x="698" y="27.1074">repositories</text><text fill="#000000" font-family="sans-serif" font-size="14" lengthAdjust="spacing" textLength="83" x="693.5" y="45.7285">:Repositories</text><rect fill="#E3E3E3" height="51.2422" rx="2.5" ry="2.5" style="stroke:#181818;stroke-width:0.5;" width="97" x="686.5" y="352.5703"/><text fill="#000000" font-family="sans-serif" font-size="14" lengthAdjust="spacing" textLength="74" x="698" y="374.6777">repositories</text><text fill="#000000" font-family="sans-serif" font-size="14" lengthAdjust="spacing" textLength="83" x="693.5" y="393.2988">:Repositories</text><rect fill="#E3E3E3" height="51.2422" rx="2.5" ry="2.5" style="stroke:#181818;stroke-width:0.5;" width="180" x="904" y="5"/><text fill="#000000" font-family="sans-serif" font-size="14" lengthAdjust="spacing" textLength="166" x="911" y="27.1074">announcementRepository:</text><text fill="#000000" font-family="sans-serif" font-size="14" lengthAdjust="spacing" textLength="163" x="912.5" y="45.7285">AnnouncementRepository</text><rect fill="#E3E3E3" height="51.2422" rx="2.5" ry="2.5" style="stroke:#181818;stroke-width:0.5;" width="180" x="904" y="352.5703"/><text fill="#000000" font-family="sans-serif" font-size="14" lengthAdjust="spacing" textLength="166" x="911" y="374.6777">announcementRepository:</text><text fill="#000000" font-family="sans-serif" font-size="14" lengthAdjust="spacing" textLength="163" x="912.5" y="393.2988">AnnouncementRepository</text><rect fill="#FFFFFF" height="156.4551" style="stroke:#181818;stroke-width:1.0;" width="10" x="477" y="90.5332"/><rect fill="#FFFFFF" height="31.291" style="stroke:#181818;stroke-width:1.0;" width="10" x="623" y="121.8242"/><rect fill="#FFFFFF" height="31.291" style="stroke:#181818;stroke-width:1.0;" width="10" x="730" y="184.4063"/><rect fill="#FFFFFF" height="97.582" style="stroke:#181818;stroke-width:1.0;" width="10" x="989" y="246.9883"/><rect fill="#FFFFFF" height="42.291" style="stroke:#181818;stroke-width:1.0;" width="10" x="994" y="286.2793"/><polygon fill="#181818" points="465,86.5332,475,90.5332,465,94.5332,469,90.5332" style="stroke:#181818;stroke-width:1.0;"/><line style="stroke:#181818;stroke-width:1.0;" x1="0" x2="471" y1="90.5332" y2="90.5332"/><text fill="#000000" font-family="sans-serif" font-size="13" lengthAdjust="spacing" textLength="458" x="7" y="85.2705">createSMS (senderNumber, recipientNumber,dateAvailable, address, message)</text><polygon fill="#181818" points="611,117.8242,621,121.8242,611,125.8242,615,121.8242" style="stroke:#181818;stroke-width:1.0;"/><line style="stroke:#181818;stroke-width:1.0;" x1="487" x2="617" y1="121.8242" y2="121.8242"/><text fill="#000000" font-family="sans-serif" font-size="13" font-weight="bold" lengthAdjust="spacing" textLength="25" x="494" y="116.5615">18.1</text><text fill="#000000" font-family="sans-serif" font-size="13" lengthAdjust="spacing" textLength="75" x="523" y="116.5615">getInstance()</text><polygon fill="#181818" points="498,149.1152,488,153.1152,498,157.1152,494,153.1152" style="stroke:#181818;stroke-width:1.0;"/><line style="stroke:#181818;stroke-width:1.0;stroke-dasharray:2.0,2.0;" x1="492" x2="627" y1="153.1152" y2="153.1152"/><text fill="#000000" font-family="sans-serif" font-size="13" font-weight="bold" lengthAdjust="spacing" textLength="25" x="504" y="147.8525">18.2</text><text fill="#000000" font-family="sans-serif" font-size="13" lengthAdjust="spacing" textLength="67" x="533" y="147.8525">repositories</text><polygon fill="#181818" points="718,180.4063,728,184.4063,718,188.4063,722,184.4063" style="stroke:#181818;stroke-width:1.0;"/><line style="stroke:#181818;stroke-width:1.0;" x1="487" x2="724" y1="184.4063" y2="184.4063"/><text fill="#000000" font-family="sans-serif" font-size="13" font-weight="bold" lengthAdjust="spacing" textLength="25" x="494" y="179.1436">18.3</text><text fill="#000000" font-family="sans-serif" font-size="13" lengthAdjust="spacing" textLength="175" x="523" y="179.1436">getAnnouncementRepository()</text><polygon fill="#181818" points="498,211.6973,488,215.6973,498,219.6973,494,215.6973" style="stroke:#181818;stroke-width:1.0;"/><line style="stroke:#181818;stroke-width:1.0;" x1="492" x2="734" y1="215.6973" y2="215.6973"/><text fill="#000000" font-family="sans-serif" font-size="13" font-weight="bold" lengthAdjust="spacing" textLength="25" x="504" y="210.4346">18.4</text><text fill="#000000" font-family="sans-serif" font-size="13" lengthAdjust="spacing" textLength="147" x="533" y="210.4346">announcementRepository</text><polygon fill="#181818" points="977,242.9883,987,246.9883,977,250.9883,981,246.9883" style="stroke:#181818;stroke-width:1.0;"/><line style="stroke:#181818;stroke-width:1.0;" x1="482" x2="983" y1="246.9883" y2="246.9883"/><text fill="#000000" font-family="sans-serif" font-size="13" font-weight="bold" lengthAdjust="spacing" textLength="25" x="489" y="241.7256">18.5</text><text fill="#000000" font-family="sans-serif" font-size="13" lengthAdjust="spacing" textLength="454" x="518" y="241.7256">createSMS(senderNumber, recipientNumber,dateAvailable, address, message)</text><line style="stroke:#181818;stroke-width:1.0;" x1="999" x2="1046" y1="273.2793" y2="273.2793"/><line style="stroke:#181818;stroke-width:1.0;" x1="1046" x2="1046" y1="273.2793" y2="286.2793"/><line style="stroke:#181818;stroke-width:1.0;" x1="1005" x2="1046" y1="286.2793" y2="286.2793"/><polygon fill="#181818" points="1015,282.2793,1005,286.2793,1015,290.2793,1011,286.2793" style="stroke:#181818;stroke-width:1.0;"/><text fill="#000000" font-family="sans-serif" font-size="13" font-weight="bold" lengthAdjust="spacing" textLength="25" x="1011" y="268.0166">18.6</text><text fill="#000000" font-family="sans-serif" font-size="13" lengthAdjust="spacing" textLength="454" x="1040" y="268.0166">createSMS(senderNumber, recipientNumber,dateAvailable, address, message)</text><line style="stroke:#181818;stroke-width:1.0;stroke-dasharray:2.0,2.0;" x1="1004" x2="1046" y1="327.5703" y2="327.5703"/><line style="stroke:#181818;stroke-width:1.0;stroke-dasharray:2.0,2.0;" x1="1046" x2="1046" y1="327.5703" y2="340.5703"/><line style="stroke:#181818;stroke-width:1.0;stroke-dasharray:2.0,2.0;" x1="999" x2="1046" y1="340.5703" y2="340.5703"/><polygon fill="#181818" points="1009,336.5703,999,340.5703,1009,344.5703,1005,340.5703" style="stroke:#181818;stroke-width:1.0;"/><text fill="#000000" font-family="sans-serif" font-size="13" font-weight="bold" lengthAdjust="spacing" textLength="25" x="1011" y="322.3076">18.7</text><text fill="#000000" font-family="sans-serif" font-size="13" lengthAdjust="spacing" textLength="4" x="1040" y="322.3076">&#160;</text><!--SRC=[nPF1ReCm38RlF8NLorgfdTJRn64IwcbIDqtGOozkS6bKI50IklNjbmJAwCOaK2lD1mw9_UVtPwEFN9Iei8122iaEIXO4HbKKwFQcH7R4Z19ppWaKCOCYoxi9-e2f_E0YWptccW8R3mUU4kobD3lv6TWqmnalKHYOX94GiXAC2X9c9OLHCiz9JG0rh3Rn-aTsJANKt4Z5IVkSzk2SS6V4I75TeZeLM_5Ru7qTRQuhiEFeMpxSYgZtmgj4iUiJN2oUlV4Gc28qbBmcCDKaKb9lLR4ZDNVKUCcjI7EGshJeX3p7NKvpm3HLfFKS2lkrg6UrC3B3JpQpnk9FAjkjbu3bq-EoURy9b-Myz022438oBqBRsJ6Qpgxg_ehs-JxYWnHSzBbPjCIwineacTBjjYwWt2BKPFhdF9QJNwp1OFph3GZhedy7np8POU528OexYtlhti98l-rcZy3i_ZmO4r7yFtsERIgucwphsBTyDyNEp6ghGV05]--></g></svg>