<?xml version="1.0" encoding="us-ascii" standalone="no"?><svg xmlns="http://www.w3.org/2000/svg" xmlns:xlink="http://www.w3.org/1999/xlink" contentStyleType="text/css" height="733px" preserveAspectRatio="none" style="width:1740px;height:733px;background:#FFFFFF;" version="1.1" viewBox="0 0 1740 733" width="1740px" zoomAndPan="magnify"><defs/><g><rect fill="#FFFFFF" height="569.0254" style="stroke:#181818;stroke-width:1.0;" width="10" x="170" y="90.5332"/><rect fill="#FFFFFF" height="31.291" style="stroke:#181818;stroke-width:1.0;" width="10" x="316" y="121.8242"/><rect fill="#FFFFFF" height="31.291" style="stroke:#181818;stroke-width:1.0;" width="10" x="423" y="184.4063"/><rect fill="#FFFFFF" height="31.291" style="stroke:#181818;stroke-width:1.0;" width="10" x="567" y="246.9883"/><rect fill="#FFFFFF" height="318.6973" style="stroke:#181818;stroke-width:1.0;" width="10" x="736.5" y="309.5703"/><rect fill="#FFFFFF" height="36.291" style="stroke:#181818;stroke-width:1.0;" width="10" x="741.5" y="480.0645"/><rect fill="#FFFFFF" height="30" style="stroke:#181818;stroke-width:1.0;" width="10" x="1024.5" y="559.9766"/><rect fill="#FFFFFF" height="30" style="stroke:#181818;stroke-width:1.0;" width="10" x="1590.5" y="410.7734"/><rect fill="none" height="229.7852" style="stroke:#000000;stroke-width:1.5;" width="1077" x="657.5" y="368.1914"/><line style="stroke:#181818;stroke-width:0.5;stroke-dasharray:5.0,5.0;" x1="174.5" x2="174.5" y1="57.2422" y2="677.5586"/><line style="stroke:#181818;stroke-width:0.5;stroke-dasharray:5.0,5.0;" x1="320.5" x2="320.5" y1="57.2422" y2="677.5586"/><line style="stroke:#181818;stroke-width:0.5;stroke-dasharray:5.0,5.0;" x1="427.5" x2="427.5" y1="57.2422" y2="677.5586"/><line style="stroke:#181818;stroke-width:0.5;stroke-dasharray:5.0,5.0;" x1="571.5" x2="571.5" y1="57.2422" y2="677.5586"/><line style="stroke:#181818;stroke-width:0.5;stroke-dasharray:5.0,5.0;" x1="741.5" x2="741.5" y1="57.2422" y2="677.5586"/><line style="stroke:#181818;stroke-width:0.5;stroke-dasharray:5.0,5.0;" x1="1029.5" x2="1029.5" y1="349.3809" y2="677.5586"/><line style="stroke:#181818;stroke-width:0.5;stroke-dasharray:5.0,5.0;" x1="1327.5" x2="1327.5" y1="524.875" y2="677.5586"/><line style="stroke:#181818;stroke-width:0.5;stroke-dasharray:5.0,5.0;" x1="1595.5" x2="1595.5" y1="57.2422" y2="677.5586"/><rect fill="#E3E3E3" height="32.6211" rx="2.5" ry="2.5" style="stroke:#181818;stroke-width:0.5;" width="175" x="87.5" y="23.6211"/><text fill="#000000" font-family="sans-serif" font-size="14" lengthAdjust="spacing" textLength="161" x="94.5" y="45.7285">:AnnouncementController</text><rect fill="#E3E3E3" height="32.6211" rx="2.5" ry="2.5" style="stroke:#181818;stroke-width:0.5;" width="175" x="87.5" y="676.5586"/><text fill="#000000" font-family="sans-serif" font-size="14" lengthAdjust="spacing" textLength="161" x="94.5" y="698.666">:AnnouncementController</text><rect fill="#E3E3E3" height="32.6211" rx="2.5" ry="2.5" style="stroke:#181818;stroke-width:0.5;" width="97" x="272.5" y="23.6211"/><text fill="#000000" font-family="sans-serif" font-size="14" lengthAdjust="spacing" textLength="83" x="279.5" y="45.7285">:Repositories</text><rect fill="#E3E3E3" height="32.6211" rx="2.5" ry="2.5" style="stroke:#181818;stroke-width:0.5;" width="97" x="272.5" y="676.5586"/><text fill="#000000" font-family="sans-serif" font-size="14" lengthAdjust="spacing" textLength="83" x="279.5" y="698.666">:Repositories</text><rect fill="#E3E3E3" height="51.2422" rx="2.5" ry="2.5" style="stroke:#181818;stroke-width:0.5;" width="97" x="379.5" y="5"/><text fill="#000000" font-family="sans-serif" font-size="14" lengthAdjust="spacing" textLength="74" x="391" y="27.1074">repositories</text><text fill="#000000" font-family="sans-serif" font-size="14" lengthAdjust="spacing" textLength="83" x="386.5" y="45.7285">:Repositories</text><rect fill="#E3E3E3" height="51.2422" rx="2.5" ry="2.5" style="stroke:#181818;stroke-width:0.5;" width="97" x="379.5" y="676.5586"/><text fill="#000000" font-family="sans-serif" font-size="14" lengthAdjust="spacing" textLength="74" x="391" y="698.666">repositories</text><text fill="#000000" font-family="sans-serif" font-size="14" lengthAdjust="spacing" textLength="83" x="386.5" y="717.2871">:Repositories</text><rect fill="#E3E3E3" height="51.2422" rx="2.5" ry="2.5" style="stroke:#181818;stroke-width:0.5;" width="171" x="486.5" y="5"/><text fill="#000000" font-family="sans-serif" font-size="14" lengthAdjust="spacing" textLength="157" x="493.5" y="27.1074">propertyTypeRepository:</text><text fill="#000000" font-family="sans-serif" font-size="14" lengthAdjust="spacing" textLength="154" x="495" y="45.7285">PropertyTypeRepository</text><rect fill="#E3E3E3" height="51.2422" rx="2.5" ry="2.5" style="stroke:#181818;stroke-width:0.5;" width="171" x="486.5" y="676.5586"/><text fill="#000000" font-family="sans-serif" font-size="14" lengthAdjust="spacing" textLength="157" x="493.5" y="698.666">propertyTypeRepository:</text><text fill="#000000" font-family="sans-serif" font-size="14" lengthAdjust="spacing" textLength="154" x="495" y="717.2871">PropertyTypeRepository</text><rect fill="#E3E3E3" height="32.6211" rx="2.5" ry="2.5" style="stroke:#181818;stroke-width:0.5;" width="148" x="667.5" y="23.6211"/><text fill="#000000" font-family="sans-serif" font-size="14" lengthAdjust="spacing" textLength="134" x="674.5" y="45.7285">PropertyTypeMapper</text><rect fill="#E3E3E3" height="32.6211" rx="2.5" ry="2.5" style="stroke:#181818;stroke-width:0.5;" width="148" x="667.5" y="676.5586"/><text fill="#000000" font-family="sans-serif" font-size="14" lengthAdjust="spacing" textLength="134" x="674.5" y="698.666">PropertyTypeMapper</text><rect fill="#E3E3E3" height="32.6211" rx="2.5" ry="2.5" style="stroke:#181818;stroke-width:0.5;" width="318" x="870.5" y="676.5586"/><text fill="#000000" font-family="sans-serif" font-size="14" lengthAdjust="spacing" textLength="304" x="877.5" y="698.666">PropertyTypeDTOList : List&lt;PropertyTypeDTO&gt;</text><rect fill="#E3E3E3" height="32.6211" rx="2.5" ry="2.5" style="stroke:#181818;stroke-width:0.5;" width="258" x="1198.5" y="676.5586"/><text fill="#000000" font-family="sans-serif" font-size="14" lengthAdjust="spacing" textLength="244" x="1205.5" y="698.666">PropertyTypeDTO : PropertyTypeDTO</text><rect fill="#E3E3E3" height="32.6211" rx="2.5" ry="2.5" style="stroke:#181818;stroke-width:0.5;" width="258" x="1466.5" y="23.6211"/><text fill="#000000" font-family="sans-serif" font-size="14" lengthAdjust="spacing" textLength="244" x="1473.5" y="45.7285">PropertyTypeList : List&lt;PropertyType&gt;</text><rect fill="#E3E3E3" height="32.6211" rx="2.5" ry="2.5" style="stroke:#181818;stroke-width:0.5;" width="258" x="1466.5" y="676.5586"/><text fill="#000000" font-family="sans-serif" font-size="14" lengthAdjust="spacing" textLength="244" x="1473.5" y="698.666">PropertyTypeList : List&lt;PropertyType&gt;</text><rect fill="#FFFFFF" height="569.0254" style="stroke:#181818;stroke-width:1.0;" width="10" x="170" y="90.5332"/><rect fill="#FFFFFF" height="31.291" style="stroke:#181818;stroke-width:1.0;" width="10" x="316" y="121.8242"/><rect fill="#FFFFFF" height="31.291" style="stroke:#181818;stroke-width:1.0;" width="10" x="423" y="184.4063"/><rect fill="#FFFFFF" height="31.291" style="stroke:#181818;stroke-width:1.0;" width="10" x="567" y="246.9883"/><rect fill="#FFFFFF" height="318.6973" style="stroke:#181818;stroke-width:1.0;" width="10" x="736.5" y="309.5703"/><rect fill="#FFFFFF" height="36.291" style="stroke:#181818;stroke-width:1.0;" width="10" x="741.5" y="480.0645"/><rect fill="#FFFFFF" height="30" style="stroke:#181818;stroke-width:1.0;" width="10" x="1024.5" y="559.9766"/><rect fill="#FFFFFF" height="30" style="stroke:#181818;stroke-width:1.0;" width="10" x="1590.5" y="410.7734"/><polygon fill="#181818" points="158,86.5332,168,90.5332,158,94.5332,162,90.5332" style="stroke:#181818;stroke-width:1.0;"/><line style="stroke:#181818;stroke-width:1.0;" x1="0" x2="164" y1="90.5332" y2="90.5332"/><text fill="#000000" font-family="sans-serif" font-size="13" font-weight="bold" lengthAdjust="spacing" textLength="7" x="7" y="85.2705">2</text><text fill="#000000" font-family="sans-serif" font-size="13" lengthAdjust="spacing" textLength="110" x="18" y="85.2705">getPropertyTypes()</text><polygon fill="#181818" points="304,117.8242,314,121.8242,304,125.8242,308,121.8242" style="stroke:#181818;stroke-width:1.0;"/><line style="stroke:#181818;stroke-width:1.0;" x1="180" x2="310" y1="121.8242" y2="121.8242"/><text fill="#000000" font-family="sans-serif" font-size="13" font-weight="bold" lengthAdjust="spacing" textLength="18" x="187" y="116.5615">3.1</text><text fill="#000000" font-family="sans-serif" font-size="13" lengthAdjust="spacing" textLength="75" x="209" y="116.5615">getInstance()</text><polygon fill="#181818" points="191,149.1152,181,153.1152,191,157.1152,187,153.1152" style="stroke:#181818;stroke-width:1.0;"/><line style="stroke:#181818;stroke-width:1.0;stroke-dasharray:2.0,2.0;" x1="185" x2="320" y1="153.1152" y2="153.1152"/><text fill="#000000" font-family="sans-serif" font-size="13" font-weight="bold" lengthAdjust="spacing" textLength="18" x="197" y="147.8525">3.2</text><text fill="#000000" font-family="sans-serif" font-size="13" lengthAdjust="spacing" textLength="67" x="219" y="147.8525">repositories</text><polygon fill="#181818" points="411,180.4063,421,184.4063,411,188.4063,415,184.4063" style="stroke:#181818;stroke-width:1.0;"/><line style="stroke:#181818;stroke-width:1.0;" x1="180" x2="417" y1="184.4063" y2="184.4063"/><text fill="#000000" font-family="sans-serif" font-size="13" font-weight="bold" lengthAdjust="spacing" textLength="18" x="187" y="179.1436">3.3</text><text fill="#000000" font-family="sans-serif" font-size="13" lengthAdjust="spacing" textLength="165" x="209" y="179.1436">getPropertyTypeRepository()</text><polygon fill="#181818" points="191,211.6973,181,215.6973,191,219.6973,187,215.6973" style="stroke:#181818;stroke-width:1.0;"/><line style="stroke:#181818;stroke-width:1.0;" x1="185" x2="427" y1="215.6973" y2="215.6973"/><text fill="#000000" font-family="sans-serif" font-size="13" font-weight="bold" lengthAdjust="spacing" textLength="18" x="197" y="210.4346">3.4</text><text fill="#000000" font-family="sans-serif" font-size="13" lengthAdjust="spacing" textLength="137" x="219" y="210.4346">propertyTypeRepository</text><polygon fill="#181818" points="555,242.9883,565,246.9883,555,250.9883,559,246.9883" style="stroke:#181818;stroke-width:1.0;"/><line style="stroke:#181818;stroke-width:1.0;" x1="180" x2="561" y1="246.9883" y2="246.9883"/><text fill="#000000" font-family="sans-serif" font-size="13" font-weight="bold" lengthAdjust="spacing" textLength="18" x="187" y="241.7256">3.5</text><text fill="#000000" font-family="sans-serif" font-size="13" lengthAdjust="spacing" textLength="110" x="209" y="241.7256">getPropertyTypes()</text><polygon fill="#181818" points="191,274.2793,181,278.2793,191,282.2793,187,278.2793" style="stroke:#181818;stroke-width:1.0;"/><line style="stroke:#181818;stroke-width:1.0;stroke-dasharray:2.0,2.0;" x1="185" x2="571" y1="278.2793" y2="278.2793"/><text fill="#000000" font-family="sans-serif" font-size="13" font-weight="bold" lengthAdjust="spacing" textLength="18" x="197" y="273.0166">3.6</text><text fill="#000000" font-family="sans-serif" font-size="13" lengthAdjust="spacing" textLength="96" x="219" y="273.0166">propertyTypeList</text><polygon fill="#181818" points="724.5,305.5703,734.5,309.5703,724.5,313.5703,728.5,309.5703" style="stroke:#181818;stroke-width:1.0;"/><line style="stroke:#181818;stroke-width:1.0;" x1="180" x2="730.5" y1="309.5703" y2="309.5703"/><text fill="#000000" font-family="sans-serif" font-size="13" font-weight="bold" lengthAdjust="spacing" textLength="18" x="187" y="304.3076">3.7</text><text fill="#000000" font-family="sans-serif" font-size="13" lengthAdjust="spacing" textLength="141" x="209" y="304.3076">toDTO(propertyTypeList)</text><polygon fill="#181818" points="858.5,336.8613,868.5,340.8613,858.5,344.8613,862.5,340.8613" style="stroke:#181818;stroke-width:1.0;"/><line style="stroke:#181818;stroke-width:1.0;" x1="746.5" x2="864.5" y1="340.8613" y2="340.8613"/><text fill="#000000" font-family="sans-serif" font-size="13" font-weight="bold" lengthAdjust="spacing" textLength="18" x="753.5" y="335.5986">3.8</text><text fill="#000000" font-family="sans-serif" font-size="13" lengthAdjust="spacing" textLength="44" x="775.5" y="335.5986">create()</text><rect fill="#E3E3E3" height="32.6211" rx="2.5" ry="2.5" style="stroke:#181818;stroke-width:0.5;" width="318" x="870.5" y="317.5703"/><text fill="#000000" font-family="sans-serif" font-size="14" lengthAdjust="spacing" textLength="304" x="877.5" y="339.6777">PropertyTypeDTOList : List&lt;PropertyTypeDTO&gt;</text><path d="M657.5,368.1914 L730.5,368.1914 L730.5,377.4824 L720.5,387.4824 L657.5,387.4824 L657.5,368.1914 " fill="#EEEEEE" style="stroke:#000000;stroke-width:1.5;"/><rect fill="none" height="229.7852" style="stroke:#000000;stroke-width:1.5;" width="1077" x="657.5" y="368.1914"/><text fill="#000000" font-family="sans-serif" font-size="13" font-weight="bold" lengthAdjust="spacing" textLength="28" x="672.5" y="383.2197">loop</text><text fill="#000000" font-family="sans-serif" font-size="11" font-weight="bold" lengthAdjust="spacing" textLength="202" x="745.5" y="382.0615">[for each object in PropertyTypeList]</text><polygon fill="#181818" points="1578.5,406.7734,1588.5,410.7734,1578.5,414.7734,1582.5,410.7734" style="stroke:#181818;stroke-width:1.0;"/><line style="stroke:#181818;stroke-width:1.0;" x1="746.5" x2="1584.5" y1="410.7734" y2="410.7734"/><text fill="#000000" font-family="sans-serif" font-size="13" font-weight="bold" lengthAdjust="spacing" textLength="18" x="753.5" y="405.5107">3.9</text><text fill="#000000" font-family="sans-serif" font-size="13" lengthAdjust="spacing" textLength="172" x="775.5" y="405.5107">Description = getDescription()</text><line style="stroke:#181818;stroke-width:1.0;" x1="746.5" x2="793.5" y1="467.0645" y2="467.0645"/><line style="stroke:#181818;stroke-width:1.0;" x1="793.5" x2="793.5" y1="467.0645" y2="480.0645"/><line style="stroke:#181818;stroke-width:1.0;" x1="752.5" x2="793.5" y1="480.0645" y2="480.0645"/><polygon fill="#181818" points="762.5,476.0645,752.5,480.0645,762.5,484.0645,758.5,480.0645" style="stroke:#181818;stroke-width:1.0;"/><text fill="#000000" font-family="sans-serif" font-size="13" font-weight="bold" lengthAdjust="spacing" textLength="25" x="758.5" y="461.8018">3.10</text><text fill="#000000" font-family="sans-serif" font-size="13" lengthAdjust="spacing" textLength="235" x="787.5" y="461.8018">PropertyTypeDTO= toDTO(propertyType)</text><polygon fill="#181818" points="1186.5,512.3555,1196.5,516.3555,1186.5,520.3555,1190.5,516.3555" style="stroke:#181818;stroke-width:1.0;"/><line style="stroke:#181818;stroke-width:1.0;stroke-dasharray:2.0,2.0;" x1="746.5" x2="1192.5" y1="516.3555" y2="516.3555"/><text fill="#000000" font-family="sans-serif" font-size="13" font-weight="bold" lengthAdjust="spacing" textLength="25" x="753.5" y="511.0928">3.11</text><text fill="#000000" font-family="sans-serif" font-size="13" lengthAdjust="spacing" textLength="44" x="782.5" y="511.0928">create()</text><rect fill="#E3E3E3" height="32.6211" rx="2.5" ry="2.5" style="stroke:#181818;stroke-width:0.5;" width="258" x="1198.5" y="493.0645"/><text fill="#000000" font-family="sans-serif" font-size="14" lengthAdjust="spacing" textLength="244" x="1205.5" y="515.1719">PropertyTypeDTO : PropertyTypeDTO</text><polygon fill="#181818" points="1012.5,555.9766,1022.5,559.9766,1012.5,563.9766,1016.5,559.9766" style="stroke:#181818;stroke-width:1.0;"/><line style="stroke:#181818;stroke-width:1.0;" x1="746.5" x2="1018.5" y1="559.9766" y2="559.9766"/><text fill="#000000" font-family="sans-serif" font-size="13" font-weight="bold" lengthAdjust="spacing" textLength="25" x="753.5" y="554.7139">3.12</text><text fill="#000000" font-family="sans-serif" font-size="13" lengthAdjust="spacing" textLength="132" x="782.5" y="554.7139">add(PropertyTypeDTO)</text><polygon fill="#181818" points="191,624.2676,181,628.2676,191,632.2676,187,628.2676" style="stroke:#181818;stroke-width:1.0;"/><line style="stroke:#181818;stroke-width:1.0;stroke-dasharray:2.0,2.0;" x1="185" x2="740.5" y1="628.2676" y2="628.2676"/><text fill="#000000" font-family="sans-serif" font-size="13" font-weight="bold" lengthAdjust="spacing" textLength="25" x="197" y="623.0049">3.13</text><text fill="#000000" font-family="sans-serif" font-size="13" lengthAdjust="spacing" textLength="122" x="226" y="623.0049">propertyTypeListDTO</text><polygon fill="#181818" points="11,655.5586,1,659.5586,11,663.5586,7,659.5586" style="stroke:#181818;stroke-width:1.0;"/><line style="stroke:#181818;stroke-width:1.0;stroke-dasharray:2.0,2.0;" x1="5" x2="174" y1="659.5586" y2="659.5586"/><text fill="#000000" font-family="sans-serif" font-size="13" font-weight="bold" lengthAdjust="spacing" textLength="25" x="17" y="654.2959">3.14</text><text fill="#000000" font-family="sans-serif" font-size="13" lengthAdjust="spacing" textLength="122" x="46" y="654.2959">propertyTypeListDTO</text><!--SRC=[bLJ1RgCm4BtxAqQzR5A9bRfxGssbghsi16gKSkp5WMdYBTYMRNOtVxys40B6aCQNHFQRDszc7gC_6PTKqGegmKL-KA92CAf6eliNIVDFkiStSomH5EQ6ydqv1EW3BSHVnlVmGKkDXD3Q25vNErJmWv1l1rOWV0XXTk8ViI66vKnIRk0cVk9Sr3p72hbv5jmeKPQeRe1gUCwsYOVUeXIQ6Q4OwWRJNnpVc1Dbquv3r23YdKy9DibJDewGIaXKvfWT9PxfutU-2JwqBDbsJ3B4fbJAhgHDbixZNhBNX6a3CRYVU-_fiIEmVnSfRBXtqmKkHyvbFgLD205teiTcBZ7iqGnnUhLk4JGtx0yrs8wllJgxuUVtkvQdEmxaE0DpX2R7BwwjtNAqzCEuFal802EaEo7sgAzaQ95HQ85VJtCgnFa99jqvXy_LqVXm8hnXwuHQrh0rvpHFANkHsHQ24mnBi-QUAhCKKLYPyz2i9iVbaPrLfJ4OOMswykdMa_mXcIaXSpZxsAQmxBUtCUGARSp9iu5J2Y7job9WjHz0x7xRjGUCW__Da7bbNTuchRNP2-fSCMcODT-3Q_xWOhLUfXaKcImZHxrEBgZhvQMJfV4GcCG5aTueBcPk_DFkfT58uEi5BamyCFWOQ56il4AlACejq2l4EVYyFkG5x9MefOSuDQRTJVw7SAM4hZ_tKRJCDmXgrxOx_m40]--></g></svg>