<?xml version="1.0" encoding="us-ascii" standalone="no"?><svg xmlns="http://www.w3.org/2000/svg" xmlns:xlink="http://www.w3.org/1999/xlink" contentStyleType="text/css" height="1067px" preserveAspectRatio="none" style="width:1794px;height:1067px;background:#FFFFFF;" version="1.1" viewBox="0 0 1794 1067" width="1794px" zoomAndPan="magnify"><defs/><g><rect fill="#FFFFFF" height="917.3906" style="stroke:#181818;stroke-width:1.0;" width="10" x="176" y="81.8047"/><rect fill="#FFFFFF" height="28.5234" style="stroke:#181818;stroke-width:1.0;" width="10" x="326.5" y="110.3281"/><rect fill="#FFFFFF" height="28.5234" style="stroke:#181818;stroke-width:1.0;" width="10" x="433.5" y="167.375"/><rect fill="#FFFFFF" height="69.1641" style="stroke:#181818;stroke-width:1.0;" width="10" x="582.5" y="224.4219"/><rect fill="#FFFFFF" height="648.5625" style="stroke:#181818;stroke-width:1.0;" width="10" x="761.5" y="322.1094"/><rect fill="#FFFFFF" height="33.5234" style="stroke:#181818;stroke-width:1.0;" width="10" x="766.5" y="832.4609"/><rect fill="#FFFFFF" height="28.5234" style="stroke:#181818;stroke-width:1.0;" width="10" x="1054.5" y="906.625"/><rect fill="#FFFFFF" height="30" style="stroke:#181818;stroke-width:1.0;" width="10" x="1362.5" y="414.7969"/><rect fill="#FFFFFF" height="30" style="stroke:#181818;stroke-width:1.0;" width="10" x="1362.5" y="473.3203"/><rect fill="#FFFFFF" height="30" style="stroke:#181818;stroke-width:1.0;" width="10" x="1362.5" y="531.8438"/><rect fill="#FFFFFF" height="30" style="stroke:#181818;stroke-width:1.0;" width="10" x="1362.5" y="590.3672"/><rect fill="#FFFFFF" height="30" style="stroke:#181818;stroke-width:1.0;" width="10" x="1362.5" y="648.8906"/><rect fill="#FFFFFF" height="30" style="stroke:#181818;stroke-width:1.0;" width="10" x="1362.5" y="707.4141"/><rect fill="#FFFFFF" height="30" style="stroke:#181818;stroke-width:1.0;" width="10" x="1362.5" y="765.9375"/><rect fill="none" height="606.0391" style="stroke:#000000;stroke-width:1.5;" width="1110.5" x="678" y="337.1094"/><line style="stroke:#181818;stroke-width:0.5;stroke-dasharray:5.0,5.0;" x1="181" x2="181" y1="51.2813" y2="1017.1953"/><line style="stroke:#181818;stroke-width:0.5;stroke-dasharray:5.0,5.0;" x1="331" x2="331" y1="51.2813" y2="1017.1953"/><line style="stroke:#181818;stroke-width:0.5;stroke-dasharray:5.0,5.0;" x1="438" x2="438" y1="51.2813" y2="1017.1953"/><line style="stroke:#181818;stroke-width:0.5;stroke-dasharray:5.0,5.0;" x1="587" x2="587" y1="51.2813" y2="1017.1953"/><line style="stroke:#181818;stroke-width:0.5;stroke-dasharray:5.0,5.0;" x1="766" x2="766" y1="51.2813" y2="1017.1953"/><line style="stroke:#181818;stroke-width:0.5;stroke-dasharray:5.0,5.0;" x1="1059.5" x2="1059.5" y1="383.9531" y2="1017.1953"/><line style="stroke:#181818;stroke-width:0.5;stroke-dasharray:5.0,5.0;" x1="1367.5" x2="1367.5" y1="262.7422" y2="1017.1953"/><line style="stroke:#181818;stroke-width:0.5;stroke-dasharray:5.0,5.0;" x1="1644.5" x2="1644.5" y1="875.7813" y2="1017.1953"/><rect fill="#E3E3E3" height="29.6406" rx="2.5" ry="2.5" style="stroke:#181818;stroke-width:0.5;" width="184" x="89" y="20.6406"/><text fill="#000000" font-family="sans-serif" font-size="14" lengthAdjust="spacing" textLength="170" x="96" y="40.3145">:PurchaseOrdersController</text><rect fill="#E3E3E3" height="29.6406" rx="2.5" ry="2.5" style="stroke:#181818;stroke-width:0.5;" width="184" x="89" y="1016.1953"/><text fill="#000000" font-family="sans-serif" font-size="14" lengthAdjust="spacing" textLength="170" x="96" y="1035.8691">:PurchaseOrdersController</text><rect fill="#E3E3E3" height="29.6406" rx="2.5" ry="2.5" style="stroke:#181818;stroke-width:0.5;" width="97" x="283" y="20.6406"/><text fill="#000000" font-family="sans-serif" font-size="14" lengthAdjust="spacing" textLength="83" x="290" y="40.3145">:Repositories</text><rect fill="#E3E3E3" height="29.6406" rx="2.5" ry="2.5" style="stroke:#181818;stroke-width:0.5;" width="97" x="283" y="1016.1953"/><text fill="#000000" font-family="sans-serif" font-size="14" lengthAdjust="spacing" textLength="83" x="290" y="1035.8691">:Repositories</text><rect fill="#E3E3E3" height="45.2813" rx="2.5" ry="2.5" style="stroke:#181818;stroke-width:0.5;" width="97" x="390" y="5"/><text fill="#000000" font-family="sans-serif" font-size="14" lengthAdjust="spacing" textLength="74" x="401.5" y="24.6738">repositories</text><text fill="#000000" font-family="sans-serif" font-size="14" lengthAdjust="spacing" textLength="83" x="397" y="40.3145">:Repositories</text><rect fill="#E3E3E3" height="45.2813" rx="2.5" ry="2.5" style="stroke:#181818;stroke-width:0.5;" width="97" x="390" y="1016.1953"/><text fill="#000000" font-family="sans-serif" font-size="14" lengthAdjust="spacing" textLength="74" x="401.5" y="1035.8691">repositories</text><text fill="#000000" font-family="sans-serif" font-size="14" lengthAdjust="spacing" textLength="83" x="397" y="1051.5098">:Repositories</text><rect fill="#E3E3E3" height="45.2813" rx="2.5" ry="2.5" style="stroke:#181818;stroke-width:0.5;" width="181" x="497" y="5"/><text fill="#000000" font-family="sans-serif" font-size="14" lengthAdjust="spacing" textLength="162" x="506.5" y="24.6738">announcementRepository</text><text fill="#000000" font-family="sans-serif" font-size="14" lengthAdjust="spacing" textLength="167" x="504" y="40.3145">:AnnouncementRepository</text><rect fill="#E3E3E3" height="45.2813" rx="2.5" ry="2.5" style="stroke:#181818;stroke-width:0.5;" width="181" x="497" y="1016.1953"/><text fill="#000000" font-family="sans-serif" font-size="14" lengthAdjust="spacing" textLength="162" x="506.5" y="1035.8691">announcementRepository</text><text fill="#000000" font-family="sans-serif" font-size="14" lengthAdjust="spacing" textLength="167" x="504" y="1051.5098">:AnnouncementRepository</text><rect fill="#E3E3E3" height="29.6406" rx="2.5" ry="2.5" style="stroke:#181818;stroke-width:0.5;" width="157" x="688" y="20.6406"/><text fill="#000000" font-family="sans-serif" font-size="14" lengthAdjust="spacing" textLength="143" x="695" y="40.3145">AnnouncementMapper</text><rect fill="#E3E3E3" height="29.6406" rx="2.5" ry="2.5" style="stroke:#181818;stroke-width:0.5;" width="157" x="688" y="1016.1953"/><text fill="#000000" font-family="sans-serif" font-size="14" lengthAdjust="spacing" textLength="143" x="695" y="1035.8691">AnnouncementMapper</text><rect fill="#E3E3E3" height="29.6406" rx="2.5" ry="2.5" style="stroke:#181818;stroke-width:0.5;" width="328" x="895.5" y="1016.1953"/><text fill="#000000" font-family="sans-serif" font-size="14" lengthAdjust="spacing" textLength="314" x="902.5" y="1035.8691">ListAnnouncementDTO:List&lt;AnnouncementDTO&gt;</text><rect fill="#E3E3E3" height="29.6406" rx="2.5" ry="2.5" style="stroke:#181818;stroke-width:0.5;" width="268" x="1233.5" y="1016.1953"/><text fill="#000000" font-family="sans-serif" font-size="14" lengthAdjust="spacing" textLength="254" x="1240.5" y="1035.8691">ListAnnouncement:List&lt;Announcement&gt;</text><rect fill="#E3E3E3" height="29.6406" rx="2.5" ry="2.5" style="stroke:#181818;stroke-width:0.5;" width="267" x="1511.5" y="1016.1953"/><text fill="#000000" font-family="sans-serif" font-size="14" lengthAdjust="spacing" textLength="253" x="1518.5" y="1035.8691">AnnouncementDTO:announcementDTO</text><rect fill="#FFFFFF" height="917.3906" style="stroke:#181818;stroke-width:1.0;" width="10" x="176" y="81.8047"/><rect fill="#FFFFFF" height="28.5234" style="stroke:#181818;stroke-width:1.0;" width="10" x="326.5" y="110.3281"/><rect fill="#FFFFFF" height="28.5234" style="stroke:#181818;stroke-width:1.0;" width="10" x="433.5" y="167.375"/><rect fill="#FFFFFF" height="69.1641" style="stroke:#181818;stroke-width:1.0;" width="10" x="582.5" y="224.4219"/><rect fill="#FFFFFF" height="648.5625" style="stroke:#181818;stroke-width:1.0;" width="10" x="761.5" y="322.1094"/><rect fill="#FFFFFF" height="33.5234" style="stroke:#181818;stroke-width:1.0;" width="10" x="766.5" y="832.4609"/><rect fill="#FFFFFF" height="28.5234" style="stroke:#181818;stroke-width:1.0;" width="10" x="1054.5" y="906.625"/><rect fill="#FFFFFF" height="30" style="stroke:#181818;stroke-width:1.0;" width="10" x="1362.5" y="414.7969"/><rect fill="#FFFFFF" height="30" style="stroke:#181818;stroke-width:1.0;" width="10" x="1362.5" y="473.3203"/><rect fill="#FFFFFF" height="30" style="stroke:#181818;stroke-width:1.0;" width="10" x="1362.5" y="531.8438"/><rect fill="#FFFFFF" height="30" style="stroke:#181818;stroke-width:1.0;" width="10" x="1362.5" y="590.3672"/><rect fill="#FFFFFF" height="30" style="stroke:#181818;stroke-width:1.0;" width="10" x="1362.5" y="648.8906"/><rect fill="#FFFFFF" height="30" style="stroke:#181818;stroke-width:1.0;" width="10" x="1362.5" y="707.4141"/><rect fill="#FFFFFF" height="30" style="stroke:#181818;stroke-width:1.0;" width="10" x="1362.5" y="765.9375"/><polygon fill="#181818" points="164,77.8047,174,81.8047,164,85.8047,168,81.8047" style="stroke:#181818;stroke-width:1.0;"/><line style="stroke:#181818;stroke-width:1.0;" x1="0" x2="170" y1="81.8047" y2="81.8047"/><text fill="#000000" font-family="sans-serif" font-size="13" font-weight="bold" lengthAdjust="spacing" textLength="7" x="7" y="77.0498">1</text><text fill="#000000" font-family="sans-serif" font-size="13" lengthAdjust="spacing" textLength="146" x="18" y="77.0498">getSaleAnnouncements()</text><polygon fill="#181818" points="314.5,106.3281,324.5,110.3281,314.5,114.3281,318.5,110.3281" style="stroke:#181818;stroke-width:1.0;"/><line style="stroke:#181818;stroke-width:1.0;" x1="186" x2="320.5" y1="110.3281" y2="110.3281"/><text fill="#000000" font-family="sans-serif" font-size="13" font-weight="bold" lengthAdjust="spacing" textLength="7" x="193" y="105.5732">2</text><text fill="#000000" font-family="sans-serif" font-size="13" lengthAdjust="spacing" textLength="75" x="204" y="105.5732">getInstance()</text><polygon fill="#181818" points="197,134.8516,187,138.8516,197,142.8516,193,138.8516" style="stroke:#181818;stroke-width:1.0;"/><line style="stroke:#181818;stroke-width:1.0;stroke-dasharray:2.0,2.0;" x1="191" x2="330.5" y1="138.8516" y2="138.8516"/><text fill="#000000" font-family="sans-serif" font-size="13" font-weight="bold" lengthAdjust="spacing" textLength="7" x="203" y="134.0967">3</text><text fill="#000000" font-family="sans-serif" font-size="13" lengthAdjust="spacing" textLength="72" x="214" y="134.0967">Repositories</text><polygon fill="#181818" points="421.5,163.375,431.5,167.375,421.5,171.375,425.5,167.375" style="stroke:#181818;stroke-width:1.0;"/><line style="stroke:#181818;stroke-width:1.0;" x1="186" x2="427.5" y1="167.375" y2="167.375"/><text fill="#000000" font-family="sans-serif" font-size="13" font-weight="bold" lengthAdjust="spacing" textLength="7" x="193" y="162.6201">4</text><text fill="#000000" font-family="sans-serif" font-size="13" lengthAdjust="spacing" textLength="167" x="204" y="162.6201">getAnnouncementRepository</text><polygon fill="#181818" points="197,191.8984,187,195.8984,197,199.8984,193,195.8984" style="stroke:#181818;stroke-width:1.0;"/><line style="stroke:#181818;stroke-width:1.0;stroke-dasharray:2.0,2.0;" x1="191" x2="437.5" y1="195.8984" y2="195.8984"/><text fill="#000000" font-family="sans-serif" font-size="13" font-weight="bold" lengthAdjust="spacing" textLength="7" x="203" y="191.1436">5</text><text fill="#000000" font-family="sans-serif" font-size="13" lengthAdjust="spacing" textLength="147" x="214" y="191.1436">announcementRepository</text><polygon fill="#181818" points="570.5,220.4219,580.5,224.4219,570.5,228.4219,574.5,224.4219" style="stroke:#181818;stroke-width:1.0;"/><line style="stroke:#181818;stroke-width:1.0;" x1="186" x2="576.5" y1="224.4219" y2="224.4219"/><text fill="#000000" font-family="sans-serif" font-size="13" font-weight="bold" lengthAdjust="spacing" textLength="7" x="193" y="219.667">6</text><text fill="#000000" font-family="sans-serif" font-size="13" lengthAdjust="spacing" textLength="120" x="204" y="219.667">getAnnouncements()</text><polygon fill="#181818" points="1221.5,248.9453,1231.5,252.9453,1221.5,256.9453,1225.5,252.9453" style="stroke:#181818;stroke-width:1.0;"/><line style="stroke:#181818;stroke-width:1.0;" x1="592.5" x2="1227.5" y1="252.9453" y2="252.9453"/><text fill="#000000" font-family="sans-serif" font-size="13" font-weight="bold" lengthAdjust="spacing" textLength="7" x="599.5" y="248.1904">7</text><text fill="#000000" font-family="sans-serif" font-size="13" lengthAdjust="spacing" textLength="4" x="610.5" y="248.1904">&#160;</text><rect fill="#E3E3E3" height="29.6406" rx="2.5" ry="2.5" style="stroke:#181818;stroke-width:0.5;" width="268" x="1233.5" y="232.4219"/><text fill="#000000" font-family="sans-serif" font-size="14" lengthAdjust="spacing" textLength="254" x="1240.5" y="252.0957">ListAnnouncement:List&lt;Announcement&gt;</text><polygon fill="#181818" points="197,289.5859,187,293.5859,197,297.5859,193,293.5859" style="stroke:#181818;stroke-width:1.0;"/><line style="stroke:#181818;stroke-width:1.0;stroke-dasharray:2.0,2.0;" x1="191" x2="586.5" y1="293.5859" y2="293.5859"/><text fill="#000000" font-family="sans-serif" font-size="13" font-weight="bold" lengthAdjust="spacing" textLength="7" x="203" y="288.8311">8</text><text fill="#000000" font-family="sans-serif" font-size="13" lengthAdjust="spacing" textLength="106" x="214" y="288.8311">announcementList</text><polygon fill="#181818" points="749.5,318.1094,759.5,322.1094,749.5,326.1094,753.5,322.1094" style="stroke:#181818;stroke-width:1.0;"/><line style="stroke:#181818;stroke-width:1.0;" x1="186" x2="755.5" y1="322.1094" y2="322.1094"/><text fill="#000000" font-family="sans-serif" font-size="13" font-weight="bold" lengthAdjust="spacing" textLength="7" x="193" y="317.3545">9</text><text fill="#000000" font-family="sans-serif" font-size="13" lengthAdjust="spacing" textLength="252" x="204" y="317.3545">getAnnouncementsDTO(announcementList)</text><path d="M678,337.1094 L751,337.1094 L751,343.6328 L741,353.6328 L678,353.6328 L678,337.1094 " fill="#EEEEEE" style="stroke:#000000;stroke-width:1.5;"/><rect fill="none" height="606.0391" style="stroke:#000000;stroke-width:1.5;" width="1110.5" x="678" y="337.1094"/><text fill="#000000" font-family="sans-serif" font-size="13" font-weight="bold" lengthAdjust="spacing" textLength="28" x="693" y="349.8779">loop</text><text fill="#000000" font-family="sans-serif" font-size="11" font-weight="bold" lengthAdjust="spacing" textLength="212" x="766" y="349.0674">[for each object in ListAnnouncement]</text><polygon fill="#181818" points="883.5,370.1563,893.5,374.1563,883.5,378.1563,887.5,374.1563" style="stroke:#181818;stroke-width:1.0;"/><line style="stroke:#181818;stroke-width:1.0;" x1="771.5" x2="889.5" y1="374.1563" y2="374.1563"/><text fill="#000000" font-family="sans-serif" font-size="13" font-weight="bold" lengthAdjust="spacing" textLength="14" x="778.5" y="369.4014">10</text><text fill="#000000" font-family="sans-serif" font-size="13" lengthAdjust="spacing" textLength="44" x="796.5" y="369.4014">create()</text><rect fill="#E3E3E3" height="29.6406" rx="2.5" ry="2.5" style="stroke:#181818;stroke-width:0.5;" width="328" x="895.5" y="353.6328"/><text fill="#000000" font-family="sans-serif" font-size="14" lengthAdjust="spacing" textLength="314" x="902.5" y="373.3066">ListAnnouncementDTO:List&lt;AnnouncementDTO&gt;</text><polygon fill="#181818" points="1350.5,410.7969,1360.5,414.7969,1350.5,418.7969,1354.5,414.7969" style="stroke:#181818;stroke-width:1.0;"/><line style="stroke:#181818;stroke-width:1.0;" x1="771.5" x2="1356.5" y1="414.7969" y2="414.7969"/><text fill="#000000" font-family="sans-serif" font-size="13" font-weight="bold" lengthAdjust="spacing" textLength="14" x="778.5" y="410.042">11</text><text fill="#000000" font-family="sans-serif" font-size="13" lengthAdjust="spacing" textLength="168" x="796.5" y="410.042">listedPrice = getListedPrice()</text><polygon fill="#181818" points="1350.5,469.3203,1360.5,473.3203,1350.5,477.3203,1354.5,473.3203" style="stroke:#181818;stroke-width:1.0;"/><line style="stroke:#181818;stroke-width:1.0;" x1="771.5" x2="1356.5" y1="473.3203" y2="473.3203"/><text fill="#000000" font-family="sans-serif" font-size="13" font-weight="bold" lengthAdjust="spacing" textLength="14" x="778.5" y="468.5654">12</text><text fill="#000000" font-family="sans-serif" font-size="13" lengthAdjust="spacing" textLength="187" x="796.5" y="468.5654">rentDuration = getRentDuration()</text><polygon fill="#181818" points="1350.5,527.8438,1360.5,531.8438,1350.5,535.8438,1354.5,531.8438" style="stroke:#181818;stroke-width:1.0;"/><line style="stroke:#181818;stroke-width:1.0;" x1="771.5" x2="1356.5" y1="531.8438" y2="531.8438"/><text fill="#000000" font-family="sans-serif" font-size="13" font-weight="bold" lengthAdjust="spacing" textLength="14" x="778.5" y="527.0889">13</text><text fill="#000000" font-family="sans-serif" font-size="13" lengthAdjust="spacing" textLength="108" x="796.5" y="527.0889">agent = getAgent()</text><polygon fill="#181818" points="1350.5,586.3672,1360.5,590.3672,1350.5,594.3672,1354.5,590.3672" style="stroke:#181818;stroke-width:1.0;"/><line style="stroke:#181818;stroke-width:1.0;" x1="771.5" x2="1356.5" y1="590.3672" y2="590.3672"/><text fill="#000000" font-family="sans-serif" font-size="13" font-weight="bold" lengthAdjust="spacing" textLength="14" x="778.5" y="585.6123">14</text><text fill="#000000" font-family="sans-serif" font-size="13" lengthAdjust="spacing" textLength="94" x="796.5" y="585.6123">date = getDate()</text><polygon fill="#181818" points="1350.5,644.8906,1360.5,648.8906,1350.5,652.8906,1354.5,648.8906" style="stroke:#181818;stroke-width:1.0;"/><line style="stroke:#181818;stroke-width:1.0;" x1="771.5" x2="1356.5" y1="648.8906" y2="648.8906"/><text fill="#000000" font-family="sans-serif" font-size="13" font-weight="bold" lengthAdjust="spacing" textLength="14" x="778.5" y="644.1357">15</text><text fill="#000000" font-family="sans-serif" font-size="13" lengthAdjust="spacing" textLength="162" x="796.5" y="644.1357">comission = getComission()</text><polygon fill="#181818" points="1350.5,703.4141,1360.5,707.4141,1350.5,711.4141,1354.5,707.4141" style="stroke:#181818;stroke-width:1.0;"/><line style="stroke:#181818;stroke-width:1.0;" x1="771.5" x2="1356.5" y1="707.4141" y2="707.4141"/><text fill="#000000" font-family="sans-serif" font-size="13" font-weight="bold" lengthAdjust="spacing" textLength="14" x="778.5" y="702.6592">16</text><text fill="#000000" font-family="sans-serif" font-size="13" lengthAdjust="spacing" textLength="204" x="796.5" y="702.6592">businessType = getBusinessType()</text><polygon fill="#181818" points="1350.5,761.9375,1360.5,765.9375,1350.5,769.9375,1354.5,765.9375" style="stroke:#181818;stroke-width:1.0;"/><line style="stroke:#181818;stroke-width:1.0;" x1="771.5" x2="1356.5" y1="765.9375" y2="765.9375"/><text fill="#000000" font-family="sans-serif" font-size="13" font-weight="bold" lengthAdjust="spacing" textLength="14" x="778.5" y="761.1826">17</text><text fill="#000000" font-family="sans-serif" font-size="13" lengthAdjust="spacing" textLength="138" x="796.5" y="761.1826">property = getProperty()</text><line style="stroke:#181818;stroke-width:1.0;" x1="771.5" x2="818.5" y1="819.4609" y2="819.4609"/><line style="stroke:#181818;stroke-width:1.0;" x1="818.5" x2="818.5" y1="819.4609" y2="832.4609"/><line style="stroke:#181818;stroke-width:1.0;" x1="777.5" x2="818.5" y1="832.4609" y2="832.4609"/><polygon fill="#181818" points="787.5,828.4609,777.5,832.4609,787.5,836.4609,783.5,832.4609" style="stroke:#181818;stroke-width:1.0;"/><text fill="#000000" font-family="sans-serif" font-size="13" font-weight="bold" lengthAdjust="spacing" textLength="14" x="783.5" y="814.7061">18</text><text fill="#000000" font-family="sans-serif" font-size="13" lengthAdjust="spacing" textLength="251" x="801.5" y="814.7061">AnnouncementDTO=toDTO(announcement)</text><polygon fill="#181818" points="1499.5,861.9844,1509.5,865.9844,1499.5,869.9844,1503.5,865.9844" style="stroke:#181818;stroke-width:1.0;"/><line style="stroke:#181818;stroke-width:1.0;" x1="771.5" x2="1505.5" y1="865.9844" y2="865.9844"/><text fill="#000000" font-family="sans-serif" font-size="13" font-weight="bold" lengthAdjust="spacing" textLength="14" x="778.5" y="861.2295">19</text><text fill="#000000" font-family="sans-serif" font-size="13" lengthAdjust="spacing" textLength="44" x="796.5" y="861.2295">create()</text><rect fill="#E3E3E3" height="29.6406" rx="2.5" ry="2.5" style="stroke:#181818;stroke-width:0.5;" width="267" x="1511.5" y="845.4609"/><text fill="#000000" font-family="sans-serif" font-size="14" lengthAdjust="spacing" textLength="253" x="1518.5" y="865.1348">AnnouncementDTO:announcementDTO</text><polygon fill="#181818" points="1042.5,902.625,1052.5,906.625,1042.5,910.625,1046.5,906.625" style="stroke:#181818;stroke-width:1.0;"/><line style="stroke:#181818;stroke-width:1.0;" x1="771.5" x2="1048.5" y1="906.625" y2="906.625"/><text fill="#000000" font-family="sans-serif" font-size="13" font-weight="bold" lengthAdjust="spacing" textLength="14" x="778.5" y="901.8701">20</text><text fill="#000000" font-family="sans-serif" font-size="13" lengthAdjust="spacing" textLength="142" x="796.5" y="901.8701">add(AnnouncementDTO)</text><polygon fill="#181818" points="782.5,931.1484,772.5,935.1484,782.5,939.1484,778.5,935.1484" style="stroke:#181818;stroke-width:1.0;"/><line style="stroke:#181818;stroke-width:1.0;" x1="776.5" x2="1058.5" y1="935.1484" y2="935.1484"/><text fill="#000000" font-family="sans-serif" font-size="13" font-weight="bold" lengthAdjust="spacing" textLength="14" x="788.5" y="930.3936">21</text><text fill="#000000" font-family="sans-serif" font-size="13" lengthAdjust="spacing" textLength="4" x="806.5" y="930.3936">&#160;</text><polygon fill="#181818" points="197,966.6719,187,970.6719,197,974.6719,193,970.6719" style="stroke:#181818;stroke-width:1.0;"/><line style="stroke:#181818;stroke-width:1.0;stroke-dasharray:2.0,2.0;" x1="191" x2="765.5" y1="970.6719" y2="970.6719"/><text fill="#000000" font-family="sans-serif" font-size="13" font-weight="bold" lengthAdjust="spacing" textLength="14" x="203" y="965.917">22</text><text fill="#000000" font-family="sans-serif" font-size="13" lengthAdjust="spacing" textLength="132" x="221" y="965.917">announcementListDTO</text><polygon fill="#181818" points="11,995.1953,1,999.1953,11,1003.1953,7,999.1953" style="stroke:#181818;stroke-width:1.0;"/><line style="stroke:#181818;stroke-width:1.0;stroke-dasharray:2.0,2.0;" x1="5" x2="180" y1="999.1953" y2="999.1953"/><text fill="#000000" font-family="sans-serif" font-size="13" font-weight="bold" lengthAdjust="spacing" textLength="14" x="17" y="994.4404">23</text><text fill="#000000" font-family="sans-serif" font-size="13" lengthAdjust="spacing" textLength="132" x="35" y="994.4404">announcementListDTO</text><!--SRC=[nLPDZzem4BtpAwmzKIGEgzxGBX9bBvMeGC2n5-FCWhk97TbEA_vzPvm4d3ZXunIVOllDp7kUySJsIwgS6vwnJ2ijJaPdm9mfO6GlEpaNN_m8EtTEWHaGZgjZ6WBiYIVwdrH7zibJ2oC_UE6qAh836FPzD4AWaqBcN3dsCjiKHfouXRL9mDYbLixeD0NpmhXbo_rsrS9l8TTMEcqaM8-vB9ntaiXWgAQ92In-gzZ1PhNODosuKhfG0Z9GxkeURHUT6zxBQhriEWcnltYULv8iJfh0bRGk17_irpDQUsijphrzYZixcjvs4di8pVkPKd3Ud5UqAUI81QbynMazfdDA5Pkn8xWTJo5qQSVV0YGDBfpyonsK-GrtcZWQtkzqtfLc7-sdibY40Z18P7k9qrKZCRm3nQOOcYZCM5WtiMq2JmQhTL7rUI7TjNL3bA_RU9-M0zhyGRU1W1x7DMEiT1Onjbtdtw1B5wGRGeESek-oF2UJUyXA7clgevhlDWpKzVEe1T8LxL285s3SZdPFjB_jtPXKwvnzQiEGsedfmn_ifamgrhx9Dux24xsS6lARJ92tC82XeqlNRuWsz079naW1x9sKhwuBVPbj2AtwIYymI405VOATeKPK6EuataXFRnki3CyF_uZOHpsn1NqEpoWXCq_eewo5WVa8dKbhB-bRrjFXcHqAAnLOkp_drOdz25Q6vvSRZKy7TowvRQhPOBpAtjXwCRmxtMwEZ_2xqHpZi55tUqJMdGXH_wIxd2JZbhp7pvhUIBVaN0DLH_b4SihtLzy0bTpJsV_FxANTVvHD_Djq-eZhm9r_-Vq7]--></g></svg>