<?xml version="1.0" encoding="us-ascii" standalone="no"?><svg xmlns="http://www.w3.org/2000/svg" xmlns:xlink="http://www.w3.org/1999/xlink" contentStyleType="text/css" height="950px" preserveAspectRatio="none" style="width:1794px;height:950px;background:#FFFFFF;" version="1.1" viewBox="0 0 1794 950" width="1794px" zoomAndPan="magnify"><defs/><g><rect fill="#FFFFFF" height="800.3438" style="stroke:#181818;stroke-width:1.0;" width="10" x="144" y="81.8047"/><rect fill="#FFFFFF" height="28.5234" style="stroke:#181818;stroke-width:1.0;" width="10" x="294.5" y="110.3281"/><rect fill="#FFFFFF" height="28.5234" style="stroke:#181818;stroke-width:1.0;" width="10" x="401.5" y="167.375"/><rect fill="#FFFFFF" height="69.1641" style="stroke:#181818;stroke-width:1.0;" width="10" x="555" y="224.4219"/><rect fill="#FFFFFF" height="531.5156" style="stroke:#181818;stroke-width:1.0;" width="10" x="743" y="322.1094"/><rect fill="#FFFFFF" height="33.5234" style="stroke:#181818;stroke-width:1.0;" width="10" x="748" y="715.4141"/><rect fill="#FFFFFF" height="28.5234" style="stroke:#181818;stroke-width:1.0;" width="10" x="1009" y="789.5781"/><rect fill="#FFFFFF" height="30" style="stroke:#181818;stroke-width:1.0;" width="10" x="1335" y="414.7969"/><rect fill="#FFFFFF" height="30" style="stroke:#181818;stroke-width:1.0;" width="10" x="1335" y="473.3203"/><rect fill="#FFFFFF" height="30" style="stroke:#181818;stroke-width:1.0;" width="10" x="1335" y="531.8438"/><rect fill="#FFFFFF" height="30" style="stroke:#181818;stroke-width:1.0;" width="10" x="1335" y="590.3672"/><rect fill="#FFFFFF" height="30" style="stroke:#181818;stroke-width:1.0;" width="10" x="1335" y="648.8906"/><rect fill="none" height="488.9922" style="stroke:#000000;stroke-width:1.5;" width="1133" x="655" y="337.1094"/><line style="stroke:#181818;stroke-width:0.5;stroke-dasharray:5.0,5.0;" x1="149" x2="149" y1="51.2813" y2="900.1484"/><line style="stroke:#181818;stroke-width:0.5;stroke-dasharray:5.0,5.0;" x1="299" x2="299" y1="51.2813" y2="900.1484"/><line style="stroke:#181818;stroke-width:0.5;stroke-dasharray:5.0,5.0;" x1="406" x2="406" y1="51.2813" y2="900.1484"/><line style="stroke:#181818;stroke-width:0.5;stroke-dasharray:5.0,5.0;" x1="560" x2="560" y1="51.2813" y2="900.1484"/><line style="stroke:#181818;stroke-width:0.5;stroke-dasharray:5.0,5.0;" x1="748" x2="748" y1="51.2813" y2="900.1484"/><line style="stroke:#181818;stroke-width:0.5;stroke-dasharray:5.0,5.0;" x1="1014" x2="1014" y1="383.9531" y2="900.1484"/><line style="stroke:#181818;stroke-width:0.5;stroke-dasharray:5.0,5.0;" x1="1340" x2="1340" y1="262.7422" y2="900.1484"/><line style="stroke:#181818;stroke-width:0.5;stroke-dasharray:5.0,5.0;" x1="1635" x2="1635" y1="758.7344" y2="900.1484"/><rect fill="#E3E3E3" height="29.6406" rx="2.5" ry="2.5" style="stroke:#181818;stroke-width:0.5;" width="184" x="57" y="20.6406"/><text fill="#000000" font-family="sans-serif" font-size="14" lengthAdjust="spacing" textLength="170" x="64" y="40.3145">:PurchaseOrdersController</text><rect fill="#E3E3E3" height="29.6406" rx="2.5" ry="2.5" style="stroke:#181818;stroke-width:0.5;" width="184" x="57" y="899.1484"/><text fill="#000000" font-family="sans-serif" font-size="14" lengthAdjust="spacing" textLength="170" x="64" y="918.8223">:PurchaseOrdersController</text><rect fill="#E3E3E3" height="29.6406" rx="2.5" ry="2.5" style="stroke:#181818;stroke-width:0.5;" width="97" x="251" y="20.6406"/><text fill="#000000" font-family="sans-serif" font-size="14" lengthAdjust="spacing" textLength="83" x="258" y="40.3145">:Repositories</text><rect fill="#E3E3E3" height="29.6406" rx="2.5" ry="2.5" style="stroke:#181818;stroke-width:0.5;" width="97" x="251" y="899.1484"/><text fill="#000000" font-family="sans-serif" font-size="14" lengthAdjust="spacing" textLength="83" x="258" y="918.8223">:Repositories</text><rect fill="#E3E3E3" height="45.2813" rx="2.5" ry="2.5" style="stroke:#181818;stroke-width:0.5;" width="97" x="358" y="5"/><text fill="#000000" font-family="sans-serif" font-size="14" lengthAdjust="spacing" textLength="74" x="369.5" y="24.6738">repositories</text><text fill="#000000" font-family="sans-serif" font-size="14" lengthAdjust="spacing" textLength="83" x="365" y="40.3145">:Repositories</text><rect fill="#E3E3E3" height="45.2813" rx="2.5" ry="2.5" style="stroke:#181818;stroke-width:0.5;" width="97" x="358" y="899.1484"/><text fill="#000000" font-family="sans-serif" font-size="14" lengthAdjust="spacing" textLength="74" x="369.5" y="918.8223">repositories</text><text fill="#000000" font-family="sans-serif" font-size="14" lengthAdjust="spacing" textLength="83" x="365" y="934.4629">:Repositories</text><rect fill="#E3E3E3" height="45.2813" rx="2.5" ry="2.5" style="stroke:#181818;stroke-width:0.5;" width="190" x="465" y="5"/><text fill="#000000" font-family="sans-serif" font-size="14" lengthAdjust="spacing" textLength="171" x="474.5" y="24.6738">purchaseOrdersRepository</text><text fill="#000000" font-family="sans-serif" font-size="14" lengthAdjust="spacing" textLength="176" x="472" y="40.3145">:PurchaseOrdersRepository</text><rect fill="#E3E3E3" height="45.2813" rx="2.5" ry="2.5" style="stroke:#181818;stroke-width:0.5;" width="190" x="465" y="899.1484"/><text fill="#000000" font-family="sans-serif" font-size="14" lengthAdjust="spacing" textLength="171" x="474.5" y="918.8223">purchaseOrdersRepository</text><text fill="#000000" font-family="sans-serif" font-size="14" lengthAdjust="spacing" textLength="176" x="472" y="934.4629">:PurchaseOrdersRepository</text><rect fill="#E3E3E3" height="29.6406" rx="2.5" ry="2.5" style="stroke:#181818;stroke-width:0.5;" width="166" x="665" y="20.6406"/><text fill="#000000" font-family="sans-serif" font-size="14" lengthAdjust="spacing" textLength="152" x="672" y="40.3145">PurchaseOrdersMapper</text><rect fill="#E3E3E3" height="29.6406" rx="2.5" ry="2.5" style="stroke:#181818;stroke-width:0.5;" width="166" x="665" y="899.1484"/><text fill="#000000" font-family="sans-serif" font-size="14" lengthAdjust="spacing" textLength="152" x="672" y="918.8223">PurchaseOrdersMapper</text><rect fill="#E3E3E3" height="29.6406" rx="2.5" ry="2.5" style="stroke:#181818;stroke-width:0.5;" width="346" x="841" y="899.1484"/><text fill="#000000" font-family="sans-serif" font-size="14" lengthAdjust="spacing" textLength="332" x="848" y="918.8223">ListPurchaseOrdersDTO:List&lt;PurchaseOrdersDTO&gt;</text><rect fill="#E3E3E3" height="29.6406" rx="2.5" ry="2.5" style="stroke:#181818;stroke-width:0.5;" width="286" x="1197" y="899.1484"/><text fill="#000000" font-family="sans-serif" font-size="14" lengthAdjust="spacing" textLength="272" x="1204" y="918.8223">ListPurchaseOrders:List&lt;PurchaseOrders&gt;</text><rect fill="#E3E3E3" height="29.6406" rx="2.5" ry="2.5" style="stroke:#181818;stroke-width:0.5;" width="285" x="1493" y="899.1484"/><text fill="#000000" font-family="sans-serif" font-size="14" lengthAdjust="spacing" textLength="271" x="1500" y="918.8223">PurchaseOrdersDTO:purchaseOrdersDTO</text><rect fill="#FFFFFF" height="800.3438" style="stroke:#181818;stroke-width:1.0;" width="10" x="144" y="81.8047"/><rect fill="#FFFFFF" height="28.5234" style="stroke:#181818;stroke-width:1.0;" width="10" x="294.5" y="110.3281"/><rect fill="#FFFFFF" height="28.5234" style="stroke:#181818;stroke-width:1.0;" width="10" x="401.5" y="167.375"/><rect fill="#FFFFFF" height="69.1641" style="stroke:#181818;stroke-width:1.0;" width="10" x="555" y="224.4219"/><rect fill="#FFFFFF" height="531.5156" style="stroke:#181818;stroke-width:1.0;" width="10" x="743" y="322.1094"/><rect fill="#FFFFFF" height="33.5234" style="stroke:#181818;stroke-width:1.0;" width="10" x="748" y="715.4141"/><rect fill="#FFFFFF" height="28.5234" style="stroke:#181818;stroke-width:1.0;" width="10" x="1009" y="789.5781"/><rect fill="#FFFFFF" height="30" style="stroke:#181818;stroke-width:1.0;" width="10" x="1335" y="414.7969"/><rect fill="#FFFFFF" height="30" style="stroke:#181818;stroke-width:1.0;" width="10" x="1335" y="473.3203"/><rect fill="#FFFFFF" height="30" style="stroke:#181818;stroke-width:1.0;" width="10" x="1335" y="531.8438"/><rect fill="#FFFFFF" height="30" style="stroke:#181818;stroke-width:1.0;" width="10" x="1335" y="590.3672"/><rect fill="#FFFFFF" height="30" style="stroke:#181818;stroke-width:1.0;" width="10" x="1335" y="648.8906"/><polygon fill="#181818" points="132,77.8047,142,81.8047,132,85.8047,136,81.8047" style="stroke:#181818;stroke-width:1.0;"/><line style="stroke:#181818;stroke-width:1.0;" x1="0" x2="138" y1="81.8047" y2="81.8047"/><text fill="#000000" font-family="sans-serif" font-size="13" font-weight="bold" lengthAdjust="spacing" textLength="7" x="7" y="77.0498">1</text><text fill="#000000" font-family="sans-serif" font-size="13" lengthAdjust="spacing" textLength="88" x="18" y="77.0498">getBuyOrders()</text><polygon fill="#181818" points="282.5,106.3281,292.5,110.3281,282.5,114.3281,286.5,110.3281" style="stroke:#181818;stroke-width:1.0;"/><line style="stroke:#181818;stroke-width:1.0;" x1="154" x2="288.5" y1="110.3281" y2="110.3281"/><text fill="#000000" font-family="sans-serif" font-size="13" font-weight="bold" lengthAdjust="spacing" textLength="7" x="161" y="105.5732">2</text><text fill="#000000" font-family="sans-serif" font-size="13" lengthAdjust="spacing" textLength="75" x="172" y="105.5732">getInstance()</text><polygon fill="#181818" points="165,134.8516,155,138.8516,165,142.8516,161,138.8516" style="stroke:#181818;stroke-width:1.0;"/><line style="stroke:#181818;stroke-width:1.0;stroke-dasharray:2.0,2.0;" x1="159" x2="298.5" y1="138.8516" y2="138.8516"/><text fill="#000000" font-family="sans-serif" font-size="13" font-weight="bold" lengthAdjust="spacing" textLength="7" x="171" y="134.0967">3</text><text fill="#000000" font-family="sans-serif" font-size="13" lengthAdjust="spacing" textLength="72" x="182" y="134.0967">Repositories</text><polygon fill="#181818" points="389.5,163.375,399.5,167.375,389.5,171.375,393.5,167.375" style="stroke:#181818;stroke-width:1.0;"/><line style="stroke:#181818;stroke-width:1.0;" x1="154" x2="395.5" y1="167.375" y2="167.375"/><text fill="#000000" font-family="sans-serif" font-size="13" font-weight="bold" lengthAdjust="spacing" textLength="7" x="161" y="162.6201">4</text><text fill="#000000" font-family="sans-serif" font-size="13" lengthAdjust="spacing" textLength="142" x="172" y="162.6201">getBuyOrdersRepository</text><polygon fill="#181818" points="165,191.8984,155,195.8984,165,199.8984,161,195.8984" style="stroke:#181818;stroke-width:1.0;"/><line style="stroke:#181818;stroke-width:1.0;stroke-dasharray:2.0,2.0;" x1="159" x2="405.5" y1="195.8984" y2="195.8984"/><text fill="#000000" font-family="sans-serif" font-size="13" font-weight="bold" lengthAdjust="spacing" textLength="7" x="171" y="191.1436">5</text><text fill="#000000" font-family="sans-serif" font-size="13" lengthAdjust="spacing" textLength="117" x="182" y="191.1436">BuyOrderRepository</text><polygon fill="#181818" points="543,220.4219,553,224.4219,543,228.4219,547,224.4219" style="stroke:#181818;stroke-width:1.0;"/><line style="stroke:#181818;stroke-width:1.0;" x1="154" x2="549" y1="224.4219" y2="224.4219"/><text fill="#000000" font-family="sans-serif" font-size="13" font-weight="bold" lengthAdjust="spacing" textLength="7" x="161" y="219.667">6</text><text fill="#000000" font-family="sans-serif" font-size="13" lengthAdjust="spacing" textLength="199" x="172" y="219.667">getBuyOrders(saleAnnouncement)</text><polygon fill="#181818" points="1185,248.9453,1195,252.9453,1185,256.9453,1189,252.9453" style="stroke:#181818;stroke-width:1.0;"/><line style="stroke:#181818;stroke-width:1.0;" x1="565" x2="1191" y1="252.9453" y2="252.9453"/><text fill="#000000" font-family="sans-serif" font-size="13" font-weight="bold" lengthAdjust="spacing" textLength="7" x="572" y="248.1904">7</text><text fill="#000000" font-family="sans-serif" font-size="13" lengthAdjust="spacing" textLength="4" x="583" y="248.1904">&#160;</text><rect fill="#E3E3E3" height="29.6406" rx="2.5" ry="2.5" style="stroke:#181818;stroke-width:0.5;" width="286" x="1197" y="232.4219"/><text fill="#000000" font-family="sans-serif" font-size="14" lengthAdjust="spacing" textLength="272" x="1204" y="252.0957">ListPurchaseOrders:List&lt;PurchaseOrders&gt;</text><polygon fill="#181818" points="165,289.5859,155,293.5859,165,297.5859,161,293.5859" style="stroke:#181818;stroke-width:1.0;"/><line style="stroke:#181818;stroke-width:1.0;stroke-dasharray:2.0,2.0;" x1="159" x2="559" y1="293.5859" y2="293.5859"/><text fill="#000000" font-family="sans-serif" font-size="13" font-weight="bold" lengthAdjust="spacing" textLength="7" x="171" y="288.8311">8</text><text fill="#000000" font-family="sans-serif" font-size="13" lengthAdjust="spacing" textLength="74" x="182" y="288.8311">buyOrderList</text><polygon fill="#181818" points="731,318.1094,741,322.1094,731,326.1094,735,322.1094" style="stroke:#181818;stroke-width:1.0;"/><line style="stroke:#181818;stroke-width:1.0;" x1="154" x2="737" y1="322.1094" y2="322.1094"/><text fill="#000000" font-family="sans-serif" font-size="13" font-weight="bold" lengthAdjust="spacing" textLength="7" x="161" y="317.3545">9</text><text fill="#000000" font-family="sans-serif" font-size="13" lengthAdjust="spacing" textLength="188" x="172" y="317.3545">getBuyOrdersDTO(buyOrderList)</text><path d="M655,337.1094 L728,337.1094 L728,343.6328 L718,353.6328 L655,353.6328 L655,337.1094 " fill="#EEEEEE" style="stroke:#000000;stroke-width:1.5;"/><rect fill="none" height="488.9922" style="stroke:#000000;stroke-width:1.5;" width="1133" x="655" y="337.1094"/><text fill="#000000" font-family="sans-serif" font-size="13" font-weight="bold" lengthAdjust="spacing" textLength="28" x="670" y="349.8779">loop</text><text fill="#000000" font-family="sans-serif" font-size="11" font-weight="bold" lengthAdjust="spacing" textLength="179" x="743" y="349.0674">[for each object in ListBuyOrder]</text><polygon fill="#181818" points="829,370.1563,839,374.1563,829,378.1563,833,374.1563" style="stroke:#181818;stroke-width:1.0;"/><line style="stroke:#181818;stroke-width:1.0;" x1="753" x2="835" y1="374.1563" y2="374.1563"/><text fill="#000000" font-family="sans-serif" font-size="13" font-weight="bold" lengthAdjust="spacing" textLength="14" x="760" y="369.4014">10</text><text fill="#000000" font-family="sans-serif" font-size="13" lengthAdjust="spacing" textLength="44" x="778" y="369.4014">create()</text><rect fill="#E3E3E3" height="29.6406" rx="2.5" ry="2.5" style="stroke:#181818;stroke-width:0.5;" width="346" x="841" y="353.6328"/><text fill="#000000" font-family="sans-serif" font-size="14" lengthAdjust="spacing" textLength="332" x="848" y="373.3066">ListPurchaseOrdersDTO:List&lt;PurchaseOrdersDTO&gt;</text><polygon fill="#181818" points="1323,410.7969,1333,414.7969,1323,418.7969,1327,414.7969" style="stroke:#181818;stroke-width:1.0;"/><line style="stroke:#181818;stroke-width:1.0;" x1="753" x2="1329" y1="414.7969" y2="414.7969"/><text fill="#000000" font-family="sans-serif" font-size="13" font-weight="bold" lengthAdjust="spacing" textLength="14" x="760" y="410.042">11</text><text fill="#000000" font-family="sans-serif" font-size="13" lengthAdjust="spacing" textLength="193" x="778" y="410.042">orderAmount = getOrderAmount()</text><polygon fill="#181818" points="1323,469.3203,1333,473.3203,1323,477.3203,1327,473.3203" style="stroke:#181818;stroke-width:1.0;"/><line style="stroke:#181818;stroke-width:1.0;" x1="753" x2="1329" y1="473.3203" y2="473.3203"/><text fill="#000000" font-family="sans-serif" font-size="13" font-weight="bold" lengthAdjust="spacing" textLength="14" x="760" y="468.5654">12</text><text fill="#000000" font-family="sans-serif" font-size="13" lengthAdjust="spacing" textLength="214" x="778" y="468.5654">announcement = getAnnouncement()</text><polygon fill="#181818" points="1323,527.8438,1333,531.8438,1323,535.8438,1327,531.8438" style="stroke:#181818;stroke-width:1.0;"/><line style="stroke:#181818;stroke-width:1.0;" x1="753" x2="1329" y1="531.8438" y2="531.8438"/><text fill="#000000" font-family="sans-serif" font-size="13" font-weight="bold" lengthAdjust="spacing" textLength="14" x="760" y="527.0889">13</text><text fill="#000000" font-family="sans-serif" font-size="13" lengthAdjust="spacing" textLength="106" x="778" y="527.0889">client = getClient()</text><polygon fill="#181818" points="1323,586.3672,1333,590.3672,1323,594.3672,1327,590.3672" style="stroke:#181818;stroke-width:1.0;"/><line style="stroke:#181818;stroke-width:1.0;" x1="753" x2="1329" y1="590.3672" y2="590.3672"/><text fill="#000000" font-family="sans-serif" font-size="13" font-weight="bold" lengthAdjust="spacing" textLength="14" x="760" y="585.6123">14</text><text fill="#000000" font-family="sans-serif" font-size="13" lengthAdjust="spacing" textLength="202" x="778" y="585.6123">wasAccepted = getWasAccepted()</text><polygon fill="#181818" points="1323,644.8906,1333,648.8906,1323,652.8906,1327,648.8906" style="stroke:#181818;stroke-width:1.0;"/><line style="stroke:#181818;stroke-width:1.0;" x1="753" x2="1329" y1="648.8906" y2="648.8906"/><text fill="#000000" font-family="sans-serif" font-size="13" font-weight="bold" lengthAdjust="spacing" textLength="14" x="760" y="644.1357">15</text><text fill="#000000" font-family="sans-serif" font-size="13" lengthAdjust="spacing" textLength="190" x="778" y="644.1357">creationDate = getCreationDate()</text><line style="stroke:#181818;stroke-width:1.0;" x1="753" x2="800" y1="702.4141" y2="702.4141"/><line style="stroke:#181818;stroke-width:1.0;" x1="800" x2="800" y1="702.4141" y2="715.4141"/><line style="stroke:#181818;stroke-width:1.0;" x1="759" x2="800" y1="715.4141" y2="715.4141"/><polygon fill="#181818" points="769,711.4141,759,715.4141,769,719.4141,765,715.4141" style="stroke:#181818;stroke-width:1.0;"/><text fill="#000000" font-family="sans-serif" font-size="13" font-weight="bold" lengthAdjust="spacing" textLength="14" x="765" y="697.6592">16</text><text fill="#000000" font-family="sans-serif" font-size="13" lengthAdjust="spacing" textLength="187" x="783" y="697.6592">BuyOrderDTO=toDTO(buyOrder)</text><polygon fill="#181818" points="1481,744.9375,1491,748.9375,1481,752.9375,1485,748.9375" style="stroke:#181818;stroke-width:1.0;"/><line style="stroke:#181818;stroke-width:1.0;" x1="753" x2="1487" y1="748.9375" y2="748.9375"/><text fill="#000000" font-family="sans-serif" font-size="13" font-weight="bold" lengthAdjust="spacing" textLength="14" x="760" y="744.1826">17</text><text fill="#000000" font-family="sans-serif" font-size="13" lengthAdjust="spacing" textLength="44" x="778" y="744.1826">create()</text><rect fill="#E3E3E3" height="29.6406" rx="2.5" ry="2.5" style="stroke:#181818;stroke-width:0.5;" width="285" x="1493" y="728.4141"/><text fill="#000000" font-family="sans-serif" font-size="14" lengthAdjust="spacing" textLength="271" x="1500" y="748.0879">PurchaseOrdersDTO:purchaseOrdersDTO</text><polygon fill="#181818" points="997,785.5781,1007,789.5781,997,793.5781,1001,789.5781" style="stroke:#181818;stroke-width:1.0;"/><line style="stroke:#181818;stroke-width:1.0;" x1="753" x2="1003" y1="789.5781" y2="789.5781"/><text fill="#000000" font-family="sans-serif" font-size="13" font-weight="bold" lengthAdjust="spacing" textLength="14" x="760" y="784.8232">18</text><text fill="#000000" font-family="sans-serif" font-size="13" lengthAdjust="spacing" textLength="110" x="778" y="784.8232">add(BuyOrderDTO)</text><polygon fill="#181818" points="764,814.1016,754,818.1016,764,822.1016,760,818.1016" style="stroke:#181818;stroke-width:1.0;"/><line style="stroke:#181818;stroke-width:1.0;" x1="758" x2="1013" y1="818.1016" y2="818.1016"/><text fill="#000000" font-family="sans-serif" font-size="13" font-weight="bold" lengthAdjust="spacing" textLength="14" x="770" y="813.3467">19</text><text fill="#000000" font-family="sans-serif" font-size="13" lengthAdjust="spacing" textLength="4" x="788" y="813.3467">&#160;</text><polygon fill="#181818" points="165,849.625,155,853.625,165,857.625,161,853.625" style="stroke:#181818;stroke-width:1.0;"/><line style="stroke:#181818;stroke-width:1.0;stroke-dasharray:2.0,2.0;" x1="159" x2="747" y1="853.625" y2="853.625"/><text fill="#000000" font-family="sans-serif" font-size="13" font-weight="bold" lengthAdjust="spacing" textLength="14" x="171" y="848.8701">20</text><text fill="#000000" font-family="sans-serif" font-size="13" lengthAdjust="spacing" textLength="100" x="189" y="848.8701">buyOrderListDTO</text><polygon fill="#181818" points="11,878.1484,1,882.1484,11,886.1484,7,882.1484" style="stroke:#181818;stroke-width:1.0;"/><line style="stroke:#181818;stroke-width:1.0;stroke-dasharray:2.0,2.0;" x1="5" x2="148" y1="882.1484" y2="882.1484"/><text fill="#000000" font-family="sans-serif" font-size="13" font-weight="bold" lengthAdjust="spacing" textLength="14" x="17" y="877.3936">21</text><text fill="#000000" font-family="sans-serif" font-size="13" lengthAdjust="spacing" textLength="107" x="35" y="877.3936">buyOrdersListDTO</text><!--SRC=[rLPDZzem4BtdLrXxAOkKGzKRsaMYR0-LM85saNhfnJYpu6vYHxRJBV- -OuS49mJYq4ln2PoPUM_UV2JwdOkSAfgHJ0h9TafcG8mg8DBravooTxg5LxDFWIXWXefjwXle7Kta1nTRyaPJ3P4xj31I5Da65FaIHMXeEECv5ORSJLQ5OZkgOQaIK7ekXL4oJK7T4Qh9VFsoQDc_G2urDr9nqCwcljY_Sai6ePekolFuAKu3h1QpTTCZRt0w0g3twioZaigtLJDGq_gPvlaXiVoPDYqNN9kczTDwER6t3oVNKnSYjHxuhozELn0lmYN2baBUlYdvM-3equudGDwaD1lvnw_ovuXqd7XgwpaXMp1VYtqPS7GVTThQGvdXlwc1iWtEcjbZBU9fHoiujEz2OwCoG31o-TIGNLtLvzpXG-9uIigi_RxhYvJ0Fn6nWAYsw-octCTemKguyUYpjaPUhXLUE9oNSH1WbIAE76brbAOfp8IG1LOy0s5wYzuiFCvmY8ChE88Z1pT7u_4mjuDMI7vpO6xdD2I4tno1P2krSEsqrC8v7la4XebbrrY8GofbZdj24QI-8tBp2zySX0jY4IigmVBP92hLaVvuZ2an1SZdqZAv40JzfMKmox1d37cq0YsF5wFxqA2rBkLc3VJowbdwNPa3zNg-JCAVWbl9WgMyvZztls-5-GVLCyOWDv2Kz7ySBsv6VJj7N8ed6wciWNVplsVXrbkrJt0rF1hfxxVXx4FtMvl7oLeQBi0GwDP6jBiWIKQU45VMpNtaXMTVuvUbkBRgGr1198D4wdxhMiJXrJbdrldW8OvRmFeIiWVbFdx_0W00]--></g></svg>