<?xml version="1.0" encoding="us-ascii" standalone="no"?><svg xmlns="http://www.w3.org/2000/svg" xmlns:xlink="http://www.w3.org/1999/xlink" contentStyleType="text/css" height="1036px" preserveAspectRatio="none" style="width:1295px;height:1036px;background:#FFFFFF;" version="1.1" viewBox="0 0 1295 1036" width="1295px" zoomAndPan="magnify"><defs/><g><text fill="#000000" font-family="sans-serif" font-size="14" font-weight="bold" lengthAdjust="spacing" textLength="744" x="277.75" y="27.6738">As an Agent, I want to list real estate purchase orders to accept or decline a purchase order for a property</text><rect fill="#FFFFFF" height="811.0859" style="stroke:#181818;stroke-width:1.0;" width="10" x="36.5" y="127.2813"/><rect fill="#FFFFFF" height="349.3516" style="stroke:#181818;stroke-width:1.0;" width="10" x="388.5" y="147.8047"/><rect fill="#FFFFFF" height="111.5703" style="stroke:#181818;stroke-width:1.0;" width="10" x="388.5" y="549.2031"/><rect fill="#FFFFFF" height="39.5234" style="stroke:#181818;stroke-width:1.0;" width="10" x="393.5" y="585.7266"/><rect fill="#FFFFFF" height="218.5469" style="stroke:#181818;stroke-width:1.0;" width="10" x="388.5" y="719.8203"/><rect fill="#FFFFFF" height="39.5234" style="stroke:#181818;stroke-width:1.0;" width="10" x="393.5" y="756.3438"/><rect fill="#FFFFFF" height="111.5703" style="stroke:#181818;stroke-width:1.0;" width="10" x="854.5" y="216.9688"/><rect fill="#FFFFFF" height="111.5703" style="stroke:#181818;stroke-width:1.0;" width="10" x="854.5" y="357.0625"/><rect fill="#FFFFFF" height="71.4531" style="stroke:#181818;stroke-width:1.0;" width="10" x="854.5" y="838.3906"/><rect fill="none" height="156.6172" style="stroke:#000000;stroke-width:1.5;" width="521.5" x="10" y="512.1563"/><rect fill="none" height="128.0938" style="stroke:#000000;stroke-width:1.5;" width="528.5" x="10" y="682.7734"/><line style="stroke:#181818;stroke-width:0.5;stroke-dasharray:5.0,5.0;" x1="41" x2="41" y1="117.2813" y2="956.3672"/><line style="stroke:#181818;stroke-width:0.5;stroke-dasharray:5.0,5.0;" x1="393.5" x2="393.5" y1="117.2813" y2="956.3672"/><line style="stroke:#181818;stroke-width:0.5;stroke-dasharray:5.0,5.0;" x1="859.5" x2="859.5" y1="186.125" y2="956.3672"/><text fill="#000000" font-family="sans-serif" font-size="14" lengthAdjust="spacing" textLength="37" x="20" y="114.3145">Agent</text><ellipse cx="41.5" cy="50.1406" fill="#E3E3E3" rx="8" ry="8" style="stroke:#181818;stroke-width:0.5;"/><path d="M41.5,58.1406 L41.5,85.1406 M28.5,66.1406 L54.5,66.1406 M41.5,85.1406 L28.5,100.1406 M41.5,85.1406 L54.5,100.1406 " fill="none" style="stroke:#181818;stroke-width:0.5;"/><text fill="#000000" font-family="sans-serif" font-size="14" lengthAdjust="spacing" textLength="37" x="20" y="968.041">Agent</text><ellipse cx="41.5" cy="979.5078" fill="#E3E3E3" rx="8" ry="8" style="stroke:#181818;stroke-width:0.5;"/><path d="M41.5,987.5078 L41.5,1014.5078 M28.5,995.5078 L54.5,995.5078 M41.5,1014.5078 L28.5,1029.5078 M41.5,1014.5078 L54.5,1029.5078 " fill="none" style="stroke:#181818;stroke-width:0.5;"/><rect fill="#E3E3E3" height="29.6406" rx="2.5" ry="2.5" style="stroke:#181818;stroke-width:0.5;" width="134" x="326.5" y="86.6406"/><text fill="#000000" font-family="sans-serif" font-size="14" lengthAdjust="spacing" textLength="120" x="333.5" y="106.3145">:PurchaseOrdersUI</text><rect fill="#E3E3E3" height="29.6406" rx="2.5" ry="2.5" style="stroke:#181818;stroke-width:0.5;" width="134" x="326.5" y="955.3672"/><text fill="#000000" font-family="sans-serif" font-size="14" lengthAdjust="spacing" textLength="120" x="333.5" y="975.041">:PurchaseOrdersUI</text><rect fill="#E3E3E3" height="29.6406" rx="2.5" ry="2.5" style="stroke:#181818;stroke-width:0.5;" width="184" x="767.5" y="955.3672"/><text fill="#000000" font-family="sans-serif" font-size="14" lengthAdjust="spacing" textLength="170" x="774.5" y="975.041">:PurchaseOrdersController</text><rect fill="#FFFFFF" height="811.0859" style="stroke:#181818;stroke-width:1.0;" width="10" x="36.5" y="127.2813"/><rect fill="#FFFFFF" height="349.3516" style="stroke:#181818;stroke-width:1.0;" width="10" x="388.5" y="147.8047"/><rect fill="#FFFFFF" height="111.5703" style="stroke:#181818;stroke-width:1.0;" width="10" x="388.5" y="549.2031"/><rect fill="#FFFFFF" height="39.5234" style="stroke:#181818;stroke-width:1.0;" width="10" x="393.5" y="585.7266"/><rect fill="#FFFFFF" height="218.5469" style="stroke:#181818;stroke-width:1.0;" width="10" x="388.5" y="719.8203"/><rect fill="#FFFFFF" height="39.5234" style="stroke:#181818;stroke-width:1.0;" width="10" x="393.5" y="756.3438"/><rect fill="#FFFFFF" height="111.5703" style="stroke:#181818;stroke-width:1.0;" width="10" x="854.5" y="216.9688"/><rect fill="#FFFFFF" height="111.5703" style="stroke:#181818;stroke-width:1.0;" width="10" x="854.5" y="357.0625"/><rect fill="#FFFFFF" height="71.4531" style="stroke:#181818;stroke-width:1.0;" width="10" x="854.5" y="838.3906"/><polygon fill="#181818" points="376.5,143.8047,386.5,147.8047,376.5,151.8047,380.5,147.8047" style="stroke:#181818;stroke-width:1.0;"/><line style="stroke:#181818;stroke-width:1.0;" x1="46.5" x2="382.5" y1="147.8047" y2="147.8047"/><text fill="#000000" font-family="sans-serif" font-size="13" font-weight="bold" lengthAdjust="spacing" textLength="7" x="53.5" y="143.0498">1</text><text fill="#000000" font-family="sans-serif" font-size="13" lengthAdjust="spacing" textLength="161" x="64.5" y="143.0498">asks to list purchase orders</text><polygon fill="#181818" points="755.5,172.3281,765.5,176.3281,755.5,180.3281,759.5,176.3281" style="stroke:#181818;stroke-width:1.0;"/><line style="stroke:#181818;stroke-width:1.0;" x1="398.5" x2="761.5" y1="176.3281" y2="176.3281"/><text fill="#000000" font-family="sans-serif" font-size="13" font-weight="bold" lengthAdjust="spacing" textLength="7" x="405.5" y="171.5732">2</text><text fill="#000000" font-family="sans-serif" font-size="13" lengthAdjust="spacing" textLength="36" x="416.5" y="171.5732">create</text><rect fill="#E3E3E3" height="29.6406" rx="2.5" ry="2.5" style="stroke:#181818;stroke-width:0.5;" width="184" x="767.5" y="155.8047"/><text fill="#000000" font-family="sans-serif" font-size="14" lengthAdjust="spacing" textLength="170" x="774.5" y="175.4785">:PurchaseOrdersController</text><polygon fill="#181818" points="842.5,212.9688,852.5,216.9688,842.5,220.9688,846.5,216.9688" style="stroke:#181818;stroke-width:1.0;"/><line style="stroke:#181818;stroke-width:1.0;" x1="398.5" x2="848.5" y1="216.9688" y2="216.9688"/><text fill="#000000" font-family="sans-serif" font-size="13" font-weight="bold" lengthAdjust="spacing" textLength="7" x="405.5" y="212.2139">3</text><text fill="#000000" font-family="sans-serif" font-size="13" lengthAdjust="spacing" textLength="426" x="416.5" y="212.2139">getPropertiesAndOffers(AnnouncementComparator, BuyOrderComparator)</text><line style="stroke:#181818;stroke-width:1.0;stroke-dasharray:2.0,2.0;" x1="864.5" x2="906.5" y1="245.4922" y2="245.4922"/><line style="stroke:#181818;stroke-width:1.0;stroke-dasharray:2.0,2.0;" x1="906.5" x2="906.5" y1="245.4922" y2="258.4922"/><line style="stroke:#181818;stroke-width:1.0;stroke-dasharray:2.0,2.0;" x1="865.5" x2="906.5" y1="258.4922" y2="258.4922"/><polygon fill="#181818" points="875.5,254.4922,865.5,258.4922,875.5,262.4922,871.5,258.4922" style="stroke:#181818;stroke-width:1.0;"/><text fill="#000000" font-family="sans-serif" font-size="13" font-weight="bold" lengthAdjust="spacing" textLength="7" x="871.5" y="240.7373">4</text><text fill="#000000" font-family="sans-serif" font-size="13" lengthAdjust="spacing" textLength="146" x="882.5" y="240.7373">getSaleAnnouncements()</text><line style="stroke:#181818;stroke-width:1.0;stroke-dasharray:2.0,2.0;" x1="864.5" x2="906.5" y1="287.0156" y2="287.0156"/><line style="stroke:#181818;stroke-width:1.0;stroke-dasharray:2.0,2.0;" x1="906.5" x2="906.5" y1="287.0156" y2="300.0156"/><line style="stroke:#181818;stroke-width:1.0;stroke-dasharray:2.0,2.0;" x1="865.5" x2="906.5" y1="300.0156" y2="300.0156"/><polygon fill="#181818" points="875.5,296.0156,865.5,300.0156,875.5,304.0156,871.5,300.0156" style="stroke:#181818;stroke-width:1.0;"/><text fill="#000000" font-family="sans-serif" font-size="13" font-weight="bold" lengthAdjust="spacing" textLength="7" x="871.5" y="282.2607">5</text><text fill="#000000" font-family="sans-serif" font-size="13" lengthAdjust="spacing" textLength="406" x="882.5" y="282.2607">getListOldestToNewest(announcementList,AnnouncementComparator)</text><polygon fill="#181818" points="409.5,324.5391,399.5,328.5391,409.5,332.5391,405.5,328.5391" style="stroke:#181818;stroke-width:1.0;"/><line style="stroke:#181818;stroke-width:1.0;stroke-dasharray:2.0,2.0;" x1="403.5" x2="858.5" y1="328.5391" y2="328.5391"/><text fill="#000000" font-family="sans-serif" font-size="13" font-weight="bold" lengthAdjust="spacing" textLength="7" x="415.5" y="323.7842">6</text><text fill="#000000" font-family="sans-serif" font-size="13" lengthAdjust="spacing" textLength="106" x="426.5" y="323.7842">announcementList</text><polygon fill="#181818" points="842.5,353.0625,852.5,357.0625,842.5,361.0625,846.5,357.0625" style="stroke:#181818;stroke-width:1.0;"/><line style="stroke:#181818;stroke-width:1.0;" x1="398.5" x2="848.5" y1="357.0625" y2="357.0625"/><text fill="#000000" font-family="sans-serif" font-size="13" font-weight="bold" lengthAdjust="spacing" textLength="7" x="405.5" y="352.3076">7</text><text fill="#000000" font-family="sans-serif" font-size="13" lengthAdjust="spacing" textLength="306" x="416.5" y="352.3076">getOrders(saleAnnouncement, BuyOrderComparator)</text><line style="stroke:#181818;stroke-width:1.0;stroke-dasharray:2.0,2.0;" x1="864.5" x2="906.5" y1="385.5859" y2="385.5859"/><line style="stroke:#181818;stroke-width:1.0;stroke-dasharray:2.0,2.0;" x1="906.5" x2="906.5" y1="385.5859" y2="398.5859"/><line style="stroke:#181818;stroke-width:1.0;stroke-dasharray:2.0,2.0;" x1="865.5" x2="906.5" y1="398.5859" y2="398.5859"/><polygon fill="#181818" points="875.5,394.5859,865.5,398.5859,875.5,402.5859,871.5,398.5859" style="stroke:#181818;stroke-width:1.0;"/><text fill="#000000" font-family="sans-serif" font-size="13" font-weight="bold" lengthAdjust="spacing" textLength="7" x="871.5" y="380.8311">8</text><text fill="#000000" font-family="sans-serif" font-size="13" lengthAdjust="spacing" textLength="199" x="882.5" y="380.8311">getBuyOrders(saleAnnouncement)</text><line style="stroke:#181818;stroke-width:1.0;stroke-dasharray:2.0,2.0;" x1="864.5" x2="906.5" y1="427.1094" y2="427.1094"/><line style="stroke:#181818;stroke-width:1.0;stroke-dasharray:2.0,2.0;" x1="906.5" x2="906.5" y1="427.1094" y2="440.1094"/><line style="stroke:#181818;stroke-width:1.0;stroke-dasharray:2.0,2.0;" x1="865.5" x2="906.5" y1="440.1094" y2="440.1094"/><polygon fill="#181818" points="875.5,436.1094,865.5,440.1094,875.5,444.1094,871.5,440.1094" style="stroke:#181818;stroke-width:1.0;"/><text fill="#000000" font-family="sans-serif" font-size="13" font-weight="bold" lengthAdjust="spacing" textLength="7" x="871.5" y="422.3545">9</text><text fill="#000000" font-family="sans-serif" font-size="13" lengthAdjust="spacing" textLength="354" x="882.5" y="422.3545">getListDescendingOrder(buyOrdersList,BuyOrderComparator)</text><polygon fill="#181818" points="409.5,464.6328,399.5,468.6328,409.5,472.6328,405.5,468.6328" style="stroke:#181818;stroke-width:1.0;"/><line style="stroke:#181818;stroke-width:1.0;stroke-dasharray:2.0,2.0;" x1="403.5" x2="858.5" y1="468.6328" y2="468.6328"/><text fill="#000000" font-family="sans-serif" font-size="13" font-weight="bold" lengthAdjust="spacing" textLength="7" x="415.5" y="463.8779">4</text><text fill="#000000" font-family="sans-serif" font-size="13" lengthAdjust="spacing" textLength="84" x="426.5" y="463.8779">itemListSorted</text><polygon fill="#181818" points="57.5,493.1563,47.5,497.1563,57.5,501.1563,53.5,497.1563" style="stroke:#181818;stroke-width:1.0;"/><line style="stroke:#181818;stroke-width:1.0;stroke-dasharray:2.0,2.0;" x1="51.5" x2="392.5" y1="497.1563" y2="497.1563"/><text fill="#000000" font-family="sans-serif" font-size="13" font-weight="bold" lengthAdjust="spacing" textLength="7" x="63.5" y="492.4014">5</text><text fill="#000000" font-family="sans-serif" font-size="13" lengthAdjust="spacing" textLength="244" x="74.5" y="492.4014">provide properties list and respective offers</text><path d="M10,512.1563 L83,512.1563 L83,518.6797 L73,528.6797 L10,528.6797 L10,512.1563 " fill="#EEEEEE" style="stroke:#000000;stroke-width:1.5;"/><rect fill="none" height="156.6172" style="stroke:#000000;stroke-width:1.5;" width="521.5" x="10" y="512.1563"/><text fill="#000000" font-family="sans-serif" font-size="13" font-weight="bold" lengthAdjust="spacing" textLength="28" x="25" y="524.9248">loop</text><polygon fill="#181818" points="376.5,545.2031,386.5,549.2031,376.5,553.2031,380.5,549.2031" style="stroke:#181818;stroke-width:1.0;"/><line style="stroke:#181818;stroke-width:1.0;" x1="46.5" x2="382.5" y1="549.2031" y2="549.2031"/><text fill="#000000" font-family="sans-serif" font-size="13" font-weight="bold" lengthAdjust="spacing" textLength="7" x="53.5" y="544.4482">6</text><text fill="#000000" font-family="sans-serif" font-size="13" lengthAdjust="spacing" textLength="153" x="64.5" y="544.4482">selectes property and offer</text><line style="stroke:#181818;stroke-width:1.0;" x1="398.5" x2="445.5" y1="572.7266" y2="572.7266"/><line style="stroke:#181818;stroke-width:1.0;" x1="445.5" x2="445.5" y1="572.7266" y2="585.7266"/><line style="stroke:#181818;stroke-width:1.0;" x1="404.5" x2="445.5" y1="585.7266" y2="585.7266"/><polygon fill="#181818" points="414.5,581.7266,404.5,585.7266,414.5,589.7266,410.5,585.7266" style="stroke:#181818;stroke-width:1.0;"/><text fill="#000000" font-family="sans-serif" font-size="13" font-weight="bold" lengthAdjust="spacing" textLength="7" x="410.5" y="567.9717">7</text><text fill="#000000" font-family="sans-serif" font-size="13" lengthAdjust="spacing" textLength="98" x="421.5" y="567.9717">selectBuyOrder()</text><line style="stroke:#181818;stroke-width:1.0;" x1="403.5" x2="445.5" y1="624.25" y2="624.25"/><line style="stroke:#181818;stroke-width:1.0;" x1="445.5" x2="445.5" y1="624.25" y2="637.25"/><line style="stroke:#181818;stroke-width:1.0;" x1="398.5" x2="445.5" y1="637.25" y2="637.25"/><polygon fill="#181818" points="408.5,633.25,398.5,637.25,408.5,641.25,404.5,637.25" style="stroke:#181818;stroke-width:1.0;"/><text fill="#000000" font-family="sans-serif" font-size="13" font-weight="bold" lengthAdjust="spacing" textLength="7" x="410.5" y="619.4951">8</text><text fill="#000000" font-family="sans-serif" font-size="13" lengthAdjust="spacing" textLength="83" x="421.5" y="619.4951">ValidateInput()</text><polygon fill="#181818" points="57.5,656.7734,47.5,660.7734,57.5,664.7734,53.5,660.7734" style="stroke:#181818;stroke-width:1.0;"/><line style="stroke:#181818;stroke-width:1.0;stroke-dasharray:2.0,2.0;" x1="51.5" x2="392.5" y1="660.7734" y2="660.7734"/><text fill="#000000" font-family="sans-serif" font-size="13" font-weight="bold" lengthAdjust="spacing" textLength="7" x="63.5" y="656.0186">9</text><text fill="#000000" font-family="sans-serif" font-size="13" lengthAdjust="spacing" textLength="198" x="74.5" y="656.0186">asks if is to accept or decline offer</text><path d="M10,682.7734 L83,682.7734 L83,689.2969 L73,699.2969 L10,699.2969 L10,682.7734 " fill="#EEEEEE" style="stroke:#000000;stroke-width:1.5;"/><rect fill="none" height="128.0938" style="stroke:#000000;stroke-width:1.5;" width="528.5" x="10" y="682.7734"/><text fill="#000000" font-family="sans-serif" font-size="13" font-weight="bold" lengthAdjust="spacing" textLength="28" x="25" y="695.542">loop</text><polygon fill="#181818" points="376.5,715.8203,386.5,719.8203,376.5,723.8203,380.5,719.8203" style="stroke:#181818;stroke-width:1.0;"/><line style="stroke:#181818;stroke-width:1.0;" x1="46.5" x2="382.5" y1="719.8203" y2="719.8203"/><text fill="#000000" font-family="sans-serif" font-size="13" font-weight="bold" lengthAdjust="spacing" textLength="14" x="53.5" y="715.0654">10</text><text fill="#000000" font-family="sans-serif" font-size="13" lengthAdjust="spacing" textLength="84" x="71.5" y="715.0654">submit answer</text><line style="stroke:#181818;stroke-width:1.0;" x1="398.5" x2="445.5" y1="743.3438" y2="743.3438"/><line style="stroke:#181818;stroke-width:1.0;" x1="445.5" x2="445.5" y1="743.3438" y2="756.3438"/><line style="stroke:#181818;stroke-width:1.0;" x1="404.5" x2="445.5" y1="756.3438" y2="756.3438"/><polygon fill="#181818" points="414.5,752.3438,404.5,756.3438,414.5,760.3438,410.5,756.3438" style="stroke:#181818;stroke-width:1.0;"/><text fill="#000000" font-family="sans-serif" font-size="13" font-weight="bold" lengthAdjust="spacing" textLength="14" x="410.5" y="738.5889">11</text><text fill="#000000" font-family="sans-serif" font-size="13" lengthAdjust="spacing" textLength="90" x="428.5" y="738.5889">submitAnswer()</text><line style="stroke:#181818;stroke-width:1.0;" x1="403.5" x2="445.5" y1="794.8672" y2="794.8672"/><line style="stroke:#181818;stroke-width:1.0;" x1="445.5" x2="445.5" y1="794.8672" y2="807.8672"/><line style="stroke:#181818;stroke-width:1.0;" x1="398.5" x2="445.5" y1="807.8672" y2="807.8672"/><polygon fill="#181818" points="408.5,803.8672,398.5,807.8672,408.5,811.8672,404.5,807.8672" style="stroke:#181818;stroke-width:1.0;"/><text fill="#000000" font-family="sans-serif" font-size="13" font-weight="bold" lengthAdjust="spacing" textLength="14" x="410.5" y="790.1123">12</text><text fill="#000000" font-family="sans-serif" font-size="13" lengthAdjust="spacing" textLength="98" x="428.5" y="790.1123">ValidateAnswer()</text><polygon fill="#181818" points="842.5,834.3906,852.5,838.3906,842.5,842.3906,846.5,838.3906" style="stroke:#181818;stroke-width:1.0;"/><line style="stroke:#181818;stroke-width:1.0;stroke-dasharray:2.0,2.0;" x1="398.5" x2="848.5" y1="838.3906" y2="838.3906"/><text fill="#000000" font-family="sans-serif" font-size="13" font-weight="bold" lengthAdjust="spacing" textLength="14" x="405.5" y="833.6357">13</text><text fill="#000000" font-family="sans-serif" font-size="13" lengthAdjust="spacing" textLength="77" x="423.5" y="833.6357">createEmail()</text><rect fill="none" height="37.9297" style="stroke:#000000;stroke-width:1.5;" width="190" x="764.5" y="846.3906"/><path d="M764.5,846.3906 L826.5,846.3906 L826.5,852.3906 L816.5,862.3906 L764.5,862.3906 L764.5,846.3906 " fill="#EEEEEE" style="stroke:#000000;stroke-width:2.0;"/><text fill="#000000" font-family="sans-serif" font-size="13" font-weight="bold" lengthAdjust="spacing" textLength="17" x="777.5" y="860.1592">ref</text><text fill="#000000" font-family="sans-serif" font-size="12" lengthAdjust="spacing" textLength="68" x="825.5" y="877.2539">create email</text><polygon fill="#181818" points="409.5,905.8438,399.5,909.8438,409.5,913.8438,405.5,909.8438" style="stroke:#181818;stroke-width:1.0;"/><line style="stroke:#181818;stroke-width:1.0;stroke-dasharray:2.0,2.0;" x1="403.5" x2="858.5" y1="909.8438" y2="909.8438"/><text fill="#000000" font-family="sans-serif" font-size="13" font-weight="bold" lengthAdjust="spacing" textLength="14" x="415.5" y="905.0889">14</text><text fill="#000000" font-family="sans-serif" font-size="13" lengthAdjust="spacing" textLength="53" x="433.5" y="905.0889">message</text><polygon fill="#181818" points="52.5,934.3672,42.5,938.3672,52.5,942.3672,48.5,938.3672" style="stroke:#181818;stroke-width:1.0;"/><line style="stroke:#181818;stroke-width:1.0;stroke-dasharray:2.0,2.0;" x1="46.5" x2="392.5" y1="938.3672" y2="938.3672"/><text fill="#000000" font-family="sans-serif" font-size="13" font-weight="bold" lengthAdjust="spacing" textLength="14" x="58.5" y="933.6123">15</text><text fill="#000000" font-family="sans-serif" font-size="13" lengthAdjust="spacing" textLength="300" x="76.5" y="933.6123">displays operation success and send email to client</text><!--SRC=[bLLDRzim3BthLn2zB2sQsquv5CZIOGXGhCNQxgxOZ2j4bWnHRf1_Fr9E77_ae_F5YKY-HpwHD6sCgtJG9PJU-UmZ-18XXXeLjPPAPnjTu6lSMOI0MTIki5q7-j2vtnfNm5fRGgMYYUmw9z0EvWMwU0zBs6eN8NgmXYB3Q0j8KKU4gWxPXoO47t8C93uwox2AV00vPjOu13rmWpKR-J3u2aFSAQNhw5rThZ3mxooozIPHtu0ccFzwKvnhD9cf98sRsSiUxJbnlY-Js_loejV2knYyjHYIz-BjpvDIYSryIY72ee0V_W7J1uQ36Jjkg2rxK6hZBK-BmIcqX_8m1YC9rTqTesKiNCIXo_H17DXSO7nf5358SvS_hzTCCvaxvskNOSbwB7mfjyO2tSEFUfSgEvxTgZvsBxTKyD2QJc6wJn9cdCAhjjYbfCdjrJ19_OabUhOvjyMR_urRVazq1qRCzwTBkHrdtU8tjp306VldsAzpv20oTv9jMc92WrhFY7fPq_Fgo3lH7L37Z79bNvRt4Ib3b_Ei9hJ9wW2RnFrQwksWmVUJgZDhqjn4B0NsrOU8-NN1bVesxdskGAPf9fF-QN8yJ3ptTpDIskMyJQX20UF1IXslJf0S9gi8lgx0Ub-DPfNGCWmZ7zPAGa-GwkoKDXFQYJ-esEdwCu5xeVvgQtAsBbrLnqxK87cr3sebIQl5hC6SsPd7nFj8Si9DS5sEUbKQKPYsNnKWHSnJm7-NFmexSNczr3izik_oPZt-BBMnf-ZxmnPm3VwJsxYtrne8GC7eKehxCRQpNMPG8X5_8DN5LN9ivXdaXYghTmJIPJeQxrWvlZwYr70aT2a1kLU-IvvoTQeXEl_bs_CF]--></g></svg>