<?xml version="1.0" encoding="us-ascii" standalone="no"?><svg xmlns="http://www.w3.org/2000/svg" xmlns:xlink="http://www.w3.org/1999/xlink" contentStyleType="text/css" height="1070px" preserveAspectRatio="none" style="width:940px;height:1070px;background:#FFFFFF;" version="1.1" viewBox="0 0 940 1070" width="940px" zoomAndPan="magnify"><defs/><g><text fill="#000000" font-family="sans-serif" font-size="14" font-weight="bold" lengthAdjust="spacing" textLength="744" x="95.75" y="27.6738">As an Agent, I want to list real estate purchase orders to accept or decline a purchase order for a property</text><rect fill="#FFFFFF" height="844.9453" style="stroke:#181818;stroke-width:1.0;" width="10" x="36.5" y="127.2813"/><rect fill="#FFFFFF" height="383.2109" style="stroke:#181818;stroke-width:1.0;" width="10" x="388.5" y="147.8047"/><rect fill="#FFFFFF" height="111.5703" style="stroke:#181818;stroke-width:1.0;" width="10" x="388.5" y="583.0625"/><rect fill="#FFFFFF" height="39.5234" style="stroke:#181818;stroke-width:1.0;" width="10" x="393.5" y="619.5859"/><rect fill="#FFFFFF" height="218.5469" style="stroke:#181818;stroke-width:1.0;" width="10" x="388.5" y="753.6797"/><rect fill="#FFFFFF" height="39.5234" style="stroke:#181818;stroke-width:1.0;" width="10" x="393.5" y="790.2031"/><rect fill="#FFFFFF" height="71.4531" style="stroke:#181818;stroke-width:1.0;" width="10" x="834.5" y="216.9688"/><rect fill="#FFFFFF" height="28.5234" style="stroke:#181818;stroke-width:1.0;" width="10" x="834.5" y="316.9453"/><rect fill="#FFFFFF" height="71.4531" style="stroke:#181818;stroke-width:1.0;" width="10" x="834.5" y="373.9922"/><rect fill="#FFFFFF" height="28.5234" style="stroke:#181818;stroke-width:1.0;" width="10" x="834.5" y="473.9688"/><rect fill="#FFFFFF" height="71.4531" style="stroke:#181818;stroke-width:1.0;" width="10" x="834.5" y="872.25"/><rect fill="none" height="156.6172" style="stroke:#000000;stroke-width:1.5;" width="528.5" x="10" y="546.0156"/><rect fill="none" height="128.0938" style="stroke:#000000;stroke-width:1.5;" width="528.5" x="10" y="716.6328"/><line style="stroke:#181818;stroke-width:0.5;stroke-dasharray:5.0,5.0;" x1="41" x2="41" y1="117.2813" y2="990.2266"/><line style="stroke:#181818;stroke-width:0.5;stroke-dasharray:5.0,5.0;" x1="393.5" x2="393.5" y1="117.2813" y2="990.2266"/><line style="stroke:#181818;stroke-width:0.5;stroke-dasharray:5.0,5.0;" x1="839.5" x2="839.5" y1="186.125" y2="990.2266"/><text fill="#000000" font-family="sans-serif" font-size="14" lengthAdjust="spacing" textLength="37" x="20" y="114.3145">Agent</text><ellipse cx="41.5" cy="50.1406" fill="#E3E3E3" rx="8" ry="8" style="stroke:#181818;stroke-width:0.5;"/><path d="M41.5,58.1406 L41.5,85.1406 M28.5,66.1406 L54.5,66.1406 M41.5,85.1406 L28.5,100.1406 M41.5,85.1406 L54.5,100.1406 " fill="none" style="stroke:#181818;stroke-width:0.5;"/><text fill="#000000" font-family="sans-serif" font-size="14" lengthAdjust="spacing" textLength="37" x="20" y="1001.9004">Agent</text><ellipse cx="41.5" cy="1013.3672" fill="#E3E3E3" rx="8" ry="8" style="stroke:#181818;stroke-width:0.5;"/><path d="M41.5,1021.3672 L41.5,1048.3672 M28.5,1029.3672 L54.5,1029.3672 M41.5,1048.3672 L28.5,1063.3672 M41.5,1048.3672 L54.5,1063.3672 " fill="none" style="stroke:#181818;stroke-width:0.5;"/><rect fill="#E3E3E3" height="29.6406" rx="2.5" ry="2.5" style="stroke:#181818;stroke-width:0.5;" width="134" x="326.5" y="86.6406"/><text fill="#000000" font-family="sans-serif" font-size="14" lengthAdjust="spacing" textLength="120" x="333.5" y="106.3145">:PurchaseOrdersUI</text><rect fill="#E3E3E3" height="29.6406" rx="2.5" ry="2.5" style="stroke:#181818;stroke-width:0.5;" width="134" x="326.5" y="989.2266"/><text fill="#000000" font-family="sans-serif" font-size="14" lengthAdjust="spacing" textLength="120" x="333.5" y="1008.9004">:PurchaseOrdersUI</text><rect fill="#E3E3E3" height="29.6406" rx="2.5" ry="2.5" style="stroke:#181818;stroke-width:0.5;" width="184" x="747.5" y="989.2266"/><text fill="#000000" font-family="sans-serif" font-size="14" lengthAdjust="spacing" textLength="170" x="754.5" y="1008.9004">:PurchaseOrdersController</text><rect fill="#FFFFFF" height="844.9453" style="stroke:#181818;stroke-width:1.0;" width="10" x="36.5" y="127.2813"/><rect fill="#FFFFFF" height="383.2109" style="stroke:#181818;stroke-width:1.0;" width="10" x="388.5" y="147.8047"/><rect fill="#FFFFFF" height="111.5703" style="stroke:#181818;stroke-width:1.0;" width="10" x="388.5" y="583.0625"/><rect fill="#FFFFFF" height="39.5234" style="stroke:#181818;stroke-width:1.0;" width="10" x="393.5" y="619.5859"/><rect fill="#FFFFFF" height="218.5469" style="stroke:#181818;stroke-width:1.0;" width="10" x="388.5" y="753.6797"/><rect fill="#FFFFFF" height="39.5234" style="stroke:#181818;stroke-width:1.0;" width="10" x="393.5" y="790.2031"/><rect fill="#FFFFFF" height="71.4531" style="stroke:#181818;stroke-width:1.0;" width="10" x="834.5" y="216.9688"/><rect fill="#FFFFFF" height="28.5234" style="stroke:#181818;stroke-width:1.0;" width="10" x="834.5" y="316.9453"/><rect fill="#FFFFFF" height="71.4531" style="stroke:#181818;stroke-width:1.0;" width="10" x="834.5" y="373.9922"/><rect fill="#FFFFFF" height="28.5234" style="stroke:#181818;stroke-width:1.0;" width="10" x="834.5" y="473.9688"/><rect fill="#FFFFFF" height="71.4531" style="stroke:#181818;stroke-width:1.0;" width="10" x="834.5" y="872.25"/><polygon fill="#181818" points="376.5,143.8047,386.5,147.8047,376.5,151.8047,380.5,147.8047" style="stroke:#181818;stroke-width:1.0;"/><line style="stroke:#181818;stroke-width:1.0;" x1="46.5" x2="382.5" y1="147.8047" y2="147.8047"/><text fill="#000000" font-family="sans-serif" font-size="13" font-weight="bold" lengthAdjust="spacing" textLength="7" x="53.5" y="143.0498">1</text><text fill="#000000" font-family="sans-serif" font-size="13" lengthAdjust="spacing" textLength="161" x="64.5" y="143.0498">asks to list purchase orders</text><polygon fill="#181818" points="735.5,172.3281,745.5,176.3281,735.5,180.3281,739.5,176.3281" style="stroke:#181818;stroke-width:1.0;"/><line style="stroke:#181818;stroke-width:1.0;" x1="398.5" x2="741.5" y1="176.3281" y2="176.3281"/><text fill="#000000" font-family="sans-serif" font-size="13" font-weight="bold" lengthAdjust="spacing" textLength="7" x="405.5" y="171.5732">2</text><text fill="#000000" font-family="sans-serif" font-size="13" lengthAdjust="spacing" textLength="36" x="416.5" y="171.5732">create</text><rect fill="#E3E3E3" height="29.6406" rx="2.5" ry="2.5" style="stroke:#181818;stroke-width:0.5;" width="184" x="747.5" y="155.8047"/><text fill="#000000" font-family="sans-serif" font-size="14" lengthAdjust="spacing" textLength="170" x="754.5" y="175.4785">:PurchaseOrdersController</text><polygon fill="#181818" points="822.5,212.9688,832.5,216.9688,822.5,220.9688,826.5,216.9688" style="stroke:#181818;stroke-width:1.0;"/><line style="stroke:#181818;stroke-width:1.0;" x1="398.5" x2="828.5" y1="216.9688" y2="216.9688"/><text fill="#000000" font-family="sans-serif" font-size="13" font-weight="bold" lengthAdjust="spacing" textLength="7" x="405.5" y="212.2139">3</text><text fill="#000000" font-family="sans-serif" font-size="13" lengthAdjust="spacing" textLength="146" x="416.5" y="212.2139">getSaleAnnouncements()</text><rect fill="none" height="37.9297" style="stroke:#000000;stroke-width:1.5;" width="190" x="744.5" y="224.9688"/><path d="M744.5,224.9688 L806.5,224.9688 L806.5,230.9688 L796.5,240.9688 L744.5,240.9688 L744.5,224.9688 " fill="#EEEEEE" style="stroke:#000000;stroke-width:2.0;"/><text fill="#000000" font-family="sans-serif" font-size="13" font-weight="bold" lengthAdjust="spacing" textLength="17" x="757.5" y="238.7373">ref</text><text fill="#000000" font-family="sans-serif" font-size="12" lengthAdjust="spacing" textLength="161" x="759" y="255.832">get Sale Announcements List</text><polygon fill="#181818" points="409.5,284.4219,399.5,288.4219,409.5,292.4219,405.5,288.4219" style="stroke:#181818;stroke-width:1.0;"/><line style="stroke:#181818;stroke-width:1.0;stroke-dasharray:2.0,2.0;" x1="403.5" x2="838.5" y1="288.4219" y2="288.4219"/><text fill="#000000" font-family="sans-serif" font-size="13" font-weight="bold" lengthAdjust="spacing" textLength="7" x="415.5" y="283.667">4</text><text fill="#000000" font-family="sans-serif" font-size="13" lengthAdjust="spacing" textLength="106" x="426.5" y="283.667">announcementList</text><polygon fill="#181818" points="822.5,312.9453,832.5,316.9453,822.5,320.9453,826.5,316.9453" style="stroke:#181818;stroke-width:1.0;"/><line style="stroke:#181818;stroke-width:1.0;" x1="398.5" x2="828.5" y1="316.9453" y2="316.9453"/><text fill="#000000" font-family="sans-serif" font-size="13" font-weight="bold" lengthAdjust="spacing" textLength="7" x="405.5" y="312.1904">5</text><text fill="#000000" font-family="sans-serif" font-size="13" lengthAdjust="spacing" textLength="406" x="416.5" y="312.1904">getListOldestToNewest(announcementList,AnnouncementComparator)</text><polygon fill="#181818" points="409.5,341.4688,399.5,345.4688,409.5,349.4688,405.5,345.4688" style="stroke:#181818;stroke-width:1.0;"/><line style="stroke:#181818;stroke-width:1.0;stroke-dasharray:2.0,2.0;" x1="403.5" x2="838.5" y1="345.4688" y2="345.4688"/><text fill="#000000" font-family="sans-serif" font-size="13" font-weight="bold" lengthAdjust="spacing" textLength="7" x="415.5" y="340.7139">6</text><text fill="#000000" font-family="sans-serif" font-size="13" lengthAdjust="spacing" textLength="84" x="426.5" y="340.7139">itemListSorted</text><polygon fill="#181818" points="822.5,369.9922,832.5,373.9922,822.5,377.9922,826.5,373.9922" style="stroke:#181818;stroke-width:1.0;"/><line style="stroke:#181818;stroke-width:1.0;" x1="398.5" x2="828.5" y1="373.9922" y2="373.9922"/><text fill="#000000" font-family="sans-serif" font-size="13" font-weight="bold" lengthAdjust="spacing" textLength="7" x="405.5" y="369.2373">7</text><text fill="#000000" font-family="sans-serif" font-size="13" lengthAdjust="spacing" textLength="199" x="416.5" y="369.2373">getBuyOrders(saleAnnouncement)</text><rect fill="none" height="37.9297" style="stroke:#000000;stroke-width:1.5;" width="190" x="744.5" y="381.9922"/><path d="M744.5,381.9922 L806.5,381.9922 L806.5,387.9922 L796.5,397.9922 L744.5,397.9922 L744.5,381.9922 " fill="#EEEEEE" style="stroke:#000000;stroke-width:2.0;"/><text fill="#000000" font-family="sans-serif" font-size="13" font-weight="bold" lengthAdjust="spacing" textLength="17" x="757.5" y="395.7607">ref</text><text fill="#000000" font-family="sans-serif" font-size="12" lengthAdjust="spacing" textLength="104" x="787.5" y="412.8555">get Buy Orders List</text><polygon fill="#181818" points="409.5,441.4453,399.5,445.4453,409.5,449.4453,405.5,445.4453" style="stroke:#181818;stroke-width:1.0;"/><line style="stroke:#181818;stroke-width:1.0;stroke-dasharray:2.0,2.0;" x1="403.5" x2="838.5" y1="445.4453" y2="445.4453"/><text fill="#000000" font-family="sans-serif" font-size="13" font-weight="bold" lengthAdjust="spacing" textLength="7" x="415.5" y="440.6904">8</text><text fill="#000000" font-family="sans-serif" font-size="13" lengthAdjust="spacing" textLength="81" x="426.5" y="440.6904">buyOrdersList</text><polygon fill="#181818" points="822.5,469.9688,832.5,473.9688,822.5,477.9688,826.5,473.9688" style="stroke:#181818;stroke-width:1.0;"/><line style="stroke:#181818;stroke-width:1.0;" x1="398.5" x2="828.5" y1="473.9688" y2="473.9688"/><text fill="#000000" font-family="sans-serif" font-size="13" font-weight="bold" lengthAdjust="spacing" textLength="7" x="405.5" y="469.2139">9</text><text fill="#000000" font-family="sans-serif" font-size="13" lengthAdjust="spacing" textLength="354" x="416.5" y="469.2139">getListDescendingOrder(buyOrdersList,BuyOrderComparator)</text><polygon fill="#181818" points="409.5,498.4922,399.5,502.4922,409.5,506.4922,405.5,502.4922" style="stroke:#181818;stroke-width:1.0;"/><line style="stroke:#181818;stroke-width:1.0;stroke-dasharray:2.0,2.0;" x1="403.5" x2="838.5" y1="502.4922" y2="502.4922"/><text fill="#000000" font-family="sans-serif" font-size="13" font-weight="bold" lengthAdjust="spacing" textLength="14" x="415.5" y="497.7373">10</text><text fill="#000000" font-family="sans-serif" font-size="13" lengthAdjust="spacing" textLength="84" x="433.5" y="497.7373">itemListSorted</text><polygon fill="#181818" points="57.5,527.0156,47.5,531.0156,57.5,535.0156,53.5,531.0156" style="stroke:#181818;stroke-width:1.0;"/><line style="stroke:#181818;stroke-width:1.0;stroke-dasharray:2.0,2.0;" x1="51.5" x2="392.5" y1="531.0156" y2="531.0156"/><text fill="#000000" font-family="sans-serif" font-size="13" font-weight="bold" lengthAdjust="spacing" textLength="14" x="63.5" y="526.2607">11</text><text fill="#000000" font-family="sans-serif" font-size="13" lengthAdjust="spacing" textLength="244" x="81.5" y="526.2607">provide properties list and respective offers</text><path d="M10,546.0156 L83,546.0156 L83,552.5391 L73,562.5391 L10,562.5391 L10,546.0156 " fill="#EEEEEE" style="stroke:#000000;stroke-width:1.5;"/><rect fill="none" height="156.6172" style="stroke:#000000;stroke-width:1.5;" width="528.5" x="10" y="546.0156"/><text fill="#000000" font-family="sans-serif" font-size="13" font-weight="bold" lengthAdjust="spacing" textLength="28" x="25" y="558.7842">loop</text><polygon fill="#181818" points="376.5,579.0625,386.5,583.0625,376.5,587.0625,380.5,583.0625" style="stroke:#181818;stroke-width:1.0;"/><line style="stroke:#181818;stroke-width:1.0;" x1="46.5" x2="382.5" y1="583.0625" y2="583.0625"/><text fill="#000000" font-family="sans-serif" font-size="13" font-weight="bold" lengthAdjust="spacing" textLength="14" x="53.5" y="578.3076">12</text><text fill="#000000" font-family="sans-serif" font-size="13" lengthAdjust="spacing" textLength="153" x="71.5" y="578.3076">selectes property and offer</text><line style="stroke:#181818;stroke-width:1.0;" x1="398.5" x2="445.5" y1="606.5859" y2="606.5859"/><line style="stroke:#181818;stroke-width:1.0;" x1="445.5" x2="445.5" y1="606.5859" y2="619.5859"/><line style="stroke:#181818;stroke-width:1.0;" x1="404.5" x2="445.5" y1="619.5859" y2="619.5859"/><polygon fill="#181818" points="414.5,615.5859,404.5,619.5859,414.5,623.5859,410.5,619.5859" style="stroke:#181818;stroke-width:1.0;"/><text fill="#000000" font-family="sans-serif" font-size="13" font-weight="bold" lengthAdjust="spacing" textLength="14" x="410.5" y="601.8311">13</text><text fill="#000000" font-family="sans-serif" font-size="13" lengthAdjust="spacing" textLength="98" x="428.5" y="601.8311">selectBuyOrder()</text><line style="stroke:#181818;stroke-width:1.0;" x1="403.5" x2="445.5" y1="658.1094" y2="658.1094"/><line style="stroke:#181818;stroke-width:1.0;" x1="445.5" x2="445.5" y1="658.1094" y2="671.1094"/><line style="stroke:#181818;stroke-width:1.0;" x1="398.5" x2="445.5" y1="671.1094" y2="671.1094"/><polygon fill="#181818" points="408.5,667.1094,398.5,671.1094,408.5,675.1094,404.5,671.1094" style="stroke:#181818;stroke-width:1.0;"/><text fill="#000000" font-family="sans-serif" font-size="13" font-weight="bold" lengthAdjust="spacing" textLength="14" x="410.5" y="653.3545">14</text><text fill="#000000" font-family="sans-serif" font-size="13" lengthAdjust="spacing" textLength="83" x="428.5" y="653.3545">ValidateInput()</text><polygon fill="#181818" points="57.5,690.6328,47.5,694.6328,57.5,698.6328,53.5,694.6328" style="stroke:#181818;stroke-width:1.0;"/><line style="stroke:#181818;stroke-width:1.0;stroke-dasharray:2.0,2.0;" x1="51.5" x2="392.5" y1="694.6328" y2="694.6328"/><text fill="#000000" font-family="sans-serif" font-size="13" font-weight="bold" lengthAdjust="spacing" textLength="14" x="63.5" y="689.8779">15</text><text fill="#000000" font-family="sans-serif" font-size="13" lengthAdjust="spacing" textLength="198" x="81.5" y="689.8779">asks if is to accept or decline offer</text><path d="M10,716.6328 L83,716.6328 L83,723.1563 L73,733.1563 L10,733.1563 L10,716.6328 " fill="#EEEEEE" style="stroke:#000000;stroke-width:1.5;"/><rect fill="none" height="128.0938" style="stroke:#000000;stroke-width:1.5;" width="528.5" x="10" y="716.6328"/><text fill="#000000" font-family="sans-serif" font-size="13" font-weight="bold" lengthAdjust="spacing" textLength="28" x="25" y="729.4014">loop</text><polygon fill="#181818" points="376.5,749.6797,386.5,753.6797,376.5,757.6797,380.5,753.6797" style="stroke:#181818;stroke-width:1.0;"/><line style="stroke:#181818;stroke-width:1.0;" x1="46.5" x2="382.5" y1="753.6797" y2="753.6797"/><text fill="#000000" font-family="sans-serif" font-size="13" font-weight="bold" lengthAdjust="spacing" textLength="14" x="53.5" y="748.9248">16</text><text fill="#000000" font-family="sans-serif" font-size="13" lengthAdjust="spacing" textLength="84" x="71.5" y="748.9248">submit answer</text><line style="stroke:#181818;stroke-width:1.0;" x1="398.5" x2="445.5" y1="777.2031" y2="777.2031"/><line style="stroke:#181818;stroke-width:1.0;" x1="445.5" x2="445.5" y1="777.2031" y2="790.2031"/><line style="stroke:#181818;stroke-width:1.0;" x1="404.5" x2="445.5" y1="790.2031" y2="790.2031"/><polygon fill="#181818" points="414.5,786.2031,404.5,790.2031,414.5,794.2031,410.5,790.2031" style="stroke:#181818;stroke-width:1.0;"/><text fill="#000000" font-family="sans-serif" font-size="13" font-weight="bold" lengthAdjust="spacing" textLength="14" x="410.5" y="772.4482">17</text><text fill="#000000" font-family="sans-serif" font-size="13" lengthAdjust="spacing" textLength="90" x="428.5" y="772.4482">submitAnswer()</text><line style="stroke:#181818;stroke-width:1.0;" x1="403.5" x2="445.5" y1="828.7266" y2="828.7266"/><line style="stroke:#181818;stroke-width:1.0;" x1="445.5" x2="445.5" y1="828.7266" y2="841.7266"/><line style="stroke:#181818;stroke-width:1.0;" x1="398.5" x2="445.5" y1="841.7266" y2="841.7266"/><polygon fill="#181818" points="408.5,837.7266,398.5,841.7266,408.5,845.7266,404.5,841.7266" style="stroke:#181818;stroke-width:1.0;"/><text fill="#000000" font-family="sans-serif" font-size="13" font-weight="bold" lengthAdjust="spacing" textLength="14" x="410.5" y="823.9717">18</text><text fill="#000000" font-family="sans-serif" font-size="13" lengthAdjust="spacing" textLength="98" x="428.5" y="823.9717">ValidateAnswer()</text><polygon fill="#181818" points="822.5,868.25,832.5,872.25,822.5,876.25,826.5,872.25" style="stroke:#181818;stroke-width:1.0;"/><line style="stroke:#181818;stroke-width:1.0;stroke-dasharray:2.0,2.0;" x1="398.5" x2="828.5" y1="872.25" y2="872.25"/><text fill="#000000" font-family="sans-serif" font-size="13" font-weight="bold" lengthAdjust="spacing" textLength="14" x="405.5" y="867.4951">19</text><text fill="#000000" font-family="sans-serif" font-size="13" lengthAdjust="spacing" textLength="77" x="423.5" y="867.4951">createEmail()</text><rect fill="none" height="37.9297" style="stroke:#000000;stroke-width:1.5;" width="190" x="744.5" y="880.25"/><path d="M744.5,880.25 L806.5,880.25 L806.5,886.25 L796.5,896.25 L744.5,896.25 L744.5,880.25 " fill="#EEEEEE" style="stroke:#000000;stroke-width:2.0;"/><text fill="#000000" font-family="sans-serif" font-size="13" font-weight="bold" lengthAdjust="spacing" textLength="17" x="757.5" y="894.0186">ref</text><text fill="#000000" font-family="sans-serif" font-size="12" lengthAdjust="spacing" textLength="68" x="805.5" y="911.1133">create email</text><polygon fill="#181818" points="409.5,939.7031,399.5,943.7031,409.5,947.7031,405.5,943.7031" style="stroke:#181818;stroke-width:1.0;"/><line style="stroke:#181818;stroke-width:1.0;stroke-dasharray:2.0,2.0;" x1="403.5" x2="838.5" y1="943.7031" y2="943.7031"/><text fill="#000000" font-family="sans-serif" font-size="13" font-weight="bold" lengthAdjust="spacing" textLength="14" x="415.5" y="938.9482">20</text><text fill="#000000" font-family="sans-serif" font-size="13" lengthAdjust="spacing" textLength="53" x="433.5" y="938.9482">message</text><polygon fill="#181818" points="52.5,968.2266,42.5,972.2266,52.5,976.2266,48.5,972.2266" style="stroke:#181818;stroke-width:1.0;"/><line style="stroke:#181818;stroke-width:1.0;stroke-dasharray:2.0,2.0;" x1="46.5" x2="392.5" y1="972.2266" y2="972.2266"/><text fill="#000000" font-family="sans-serif" font-size="13" font-weight="bold" lengthAdjust="spacing" textLength="14" x="58.5" y="967.4717">21</text><text fill="#000000" font-family="sans-serif" font-size="13" lengthAdjust="spacing" textLength="300" x="76.5" y="967.4717">displays operation success and send email to client</text><!--SRC=[jLRHQjim57tNLrpwqhGqiC4O8m-5D1jReAnZRVUks3UEY2mPIMx8t-zUENPjnqvNHlpILBewvzwZa-FuhJA5T3A7t1gRR9pD4O8hKVXcfv39LcRu6FOQmM4IfCbqky1lP6ftocImbjgZ4445Afrxa0Rc6Pfm0qlOIHCWMD3A1uAH6j076H2AqYKRwH6iIz5vhf59WaMW1KWnqSeWo5uPh6cJ5fqjq8Mz4B8CrfJv2XrzJWBjNaJg2v0Uvj-V1FKQLA8ARkDYzkk0zX0vdvUnx7bvicfXJN1MQtInUl7q-rw8oAPUU11c4K0FVO3fBS71Z0gtlXcxDsfLpK-3GIqqY_mG1Y4nrVKreIKaNC1-oVIM2sWxm_0eDSwDiQL9CAVv_UIgMzwXYpF0mEDm3VQ5T1wj82vWCkYmmJtDELYF9cNKWMQQcuDFHvjCFvtULbAsY0PfKkmEDg9a9HGZFEYKJFXaV-AE_axw13VjqHOsPxkJiwxUq5DSdbRpSaZAOnNXqRg0ATpjeUgJRLHrUWmng6vBsS-YhofCQukgW3aJLdpYVOhoSjJphjnNNvE9xrdmZ0OaKgXO_yzuNyIOwLRrM4VuxtRRL_G9DKD16H4d7UYRMhyp-wnHhE-n7ohRq2f7bTrHYevQR4J2Zn_EP372u42TSTY_g1Jhq5VegrILiJ5V8EDGjgxNdAq3-7MuPiwM1OrfYwEuzgW9Xf3hDqj4Zv1YDAYhoswTh-zoSdKwuJcwux4_KgkKTfUcA4FhLAzvSJZKI1BVBceDQkIr-Tfu5-bmds_BKQvonGhxtRyA44_Cuu5tZtzqRE3oEgstF7BuhbLlo6-vL7g8lcknuP2f800PGuocIClWCyZHU_gD94wQ-jNCCqYLBxJSUs2NoQ2i8UNe-hoFXlDC5nlWUwMxf1WLGuPe_Sy_F_u2]--></g></svg>