<?xml version="1.0" encoding="us-ascii" standalone="no"?><svg xmlns="http://www.w3.org/2000/svg" xmlns:xlink="http://www.w3.org/1999/xlink" contentStyleType="text/css" height="1455px" preserveAspectRatio="none" style="width:1799px;height:1455px;background:#FFFFFF;" version="1.1" viewBox="0 0 1799 1455" width="1799px" zoomAndPan="magnify"><defs><filter height="300%" id="f13ih4vks3g1vc" width="300%" x="-1" y="-1"><feGaussianBlur result="blurOut" stdDeviation="2.0"/><feColorMatrix in="blurOut" result="blurOut2" type="matrix" values="0 0 0 0 0 0 0 0 0 0 0 0 0 0 0 0 0 0 .4 0"/><feOffset dx="4.0" dy="4.0" in="blurOut2" result="blurOut3"/><feBlend in="SourceGraphic" in2="blurOut3" mode="normal"/></filter></defs><g><!--class ApplicationSession--><g id="elem_ApplicationSession"><rect codeLine="12" fill="#F1F1F1" filter="url(#f13ih4vks3g1vc)" height="79.2813" id="ApplicationSession" rx="2.5" ry="2.5" style="stroke:#181818;stroke-width:0.5;" width="151" x="1545.5" y="62"/><ellipse cx="1560.5" cy="78" fill="#ADD1B2" rx="11" ry="11" style="stroke:#181818;stroke-width:1.0;"/><path d="M1563.2656,73.875 Q1563.4219,73.6563 1563.6094,73.5469 Q1563.7969,73.4375 1564.0156,73.4375 Q1564.3906,73.4375 1564.625,73.7031 Q1564.8594,73.9531 1564.8594,74.5625 L1564.8594,76.0156 Q1564.8594,76.625 1564.625,76.8906 Q1564.3906,77.1563 1564.0156,77.1563 Q1563.6719,77.1563 1563.4688,76.9531 Q1563.2656,76.7656 1563.1563,76.25 Q1563.1094,75.8906 1562.9219,75.7031 Q1562.5938,75.3281 1561.9844,75.1094 Q1561.375,74.8906 1560.75,74.8906 Q1559.9844,74.8906 1559.3438,75.2188 Q1558.7188,75.5469 1558.2188,76.2969 Q1557.7344,77.0469 1557.7344,78.0781 L1557.7344,79.1719 Q1557.7344,80.4063 1558.625,81.2344 Q1559.5156,82.0469 1561.1094,82.0469 Q1562.0469,82.0469 1562.7031,81.7969 Q1563.0938,81.6406 1563.5156,81.2031 Q1563.7813,80.9375 1563.9219,80.8594 Q1564.0781,80.7813 1564.2813,80.7813 Q1564.6094,80.7813 1564.8594,81.0469 Q1565.125,81.2969 1565.125,81.6406 Q1565.125,81.9844 1564.7813,82.3906 Q1564.2813,82.9688 1563.4844,83.2969 Q1562.4063,83.75 1561.1094,83.75 Q1559.5938,83.75 1558.3906,83.125 Q1557.4063,82.625 1556.7188,81.5625 Q1556.0313,80.4844 1556.0313,79.2031 L1556.0313,78.0469 Q1556.0313,76.7188 1556.6406,75.5781 Q1557.2656,74.4219 1558.3594,73.8125 Q1559.4531,73.1875 1560.6875,73.1875 Q1561.4219,73.1875 1562.0625,73.3594 Q1562.7188,73.5156 1563.2656,73.875 Z " fill="#000000"/><text fill="#000000" font-family="sans-serif" font-size="14" lengthAdjust="spacing" textLength="119" x="1574.5" y="82.8535">ApplicationSession</text><line style="stroke:#181818;stroke-width:0.5;" x1="1546.5" x2="1695.5" y1="94" y2="94"/><line style="stroke:#181818;stroke-width:0.5;" x1="1546.5" x2="1695.5" y1="102" y2="102"/><text fill="#000000" font-family="sans-serif" font-size="14" lengthAdjust="spacing" textLength="128" x="1551.5" y="118.6738">+static getInstance()</text><text fill="#000000" font-family="sans-serif" font-size="14" lengthAdjust="spacing" textLength="136" x="1551.5" y="134.3145">+getCurrentSession()</text></g><!--class UserSession--><g id="elem_UserSession"><rect codeLine="18" fill="#F1F1F1" filter="url(#f13ih4vks3g1vc)" height="63.6406" id="UserSession" rx="2.5" ry="2.5" style="stroke:#181818;stroke-width:0.5;" width="113" x="1602.5" y="303"/><ellipse cx="1618.4" cy="319" fill="#ADD1B2" rx="11" ry="11" style="stroke:#181818;stroke-width:1.0;"/><path d="M1621.1656,314.875 Q1621.3219,314.6563 1621.5094,314.5469 Q1621.6969,314.4375 1621.9156,314.4375 Q1622.2906,314.4375 1622.525,314.7031 Q1622.7594,314.9531 1622.7594,315.5625 L1622.7594,317.0156 Q1622.7594,317.625 1622.525,317.8906 Q1622.2906,318.1563 1621.9156,318.1563 Q1621.5719,318.1563 1621.3688,317.9531 Q1621.1656,317.7656 1621.0563,317.25 Q1621.0094,316.8906 1620.8219,316.7031 Q1620.4938,316.3281 1619.8844,316.1094 Q1619.275,315.8906 1618.65,315.8906 Q1617.8844,315.8906 1617.2438,316.2188 Q1616.6188,316.5469 1616.1188,317.2969 Q1615.6344,318.0469 1615.6344,319.0781 L1615.6344,320.1719 Q1615.6344,321.4063 1616.525,322.2344 Q1617.4156,323.0469 1619.0094,323.0469 Q1619.9469,323.0469 1620.6031,322.7969 Q1620.9938,322.6406 1621.4156,322.2031 Q1621.6813,321.9375 1621.8219,321.8594 Q1621.9781,321.7813 1622.1813,321.7813 Q1622.5094,321.7813 1622.7594,322.0469 Q1623.025,322.2969 1623.025,322.6406 Q1623.025,322.9844 1622.6813,323.3906 Q1622.1813,323.9688 1621.3844,324.2969 Q1620.3063,324.75 1619.0094,324.75 Q1617.4938,324.75 1616.2906,324.125 Q1615.3063,323.625 1614.6188,322.5625 Q1613.9313,321.4844 1613.9313,320.2031 L1613.9313,319.0469 Q1613.9313,317.7188 1614.5406,316.5781 Q1615.1656,315.4219 1616.2594,314.8125 Q1617.3531,314.1875 1618.5875,314.1875 Q1619.3219,314.1875 1619.9625,314.3594 Q1620.6188,314.5156 1621.1656,314.875 Z " fill="#000000"/><text fill="#000000" font-family="sans-serif" font-size="14" lengthAdjust="spacing" textLength="79" x="1632.6" y="323.8535">UserSession</text><line style="stroke:#181818;stroke-width:0.5;" x1="1603.5" x2="1714.5" y1="335" y2="335"/><line style="stroke:#181818;stroke-width:0.5;" x1="1603.5" x2="1714.5" y1="343" y2="343"/><text fill="#000000" font-family="sans-serif" font-size="14" lengthAdjust="spacing" textLength="101" x="1608.5" y="359.6738">+getUserEmail()</text></g><!--class Address--><g id="elem_Address"><rect codeLine="24" fill="#F1F1F1" filter="url(#f13ih4vks3g1vc)" height="94.9219" id="Address" rx="2.5" ry="2.5" style="stroke:#181818;stroke-width:0.5;" width="146" x="772" y="1084"/><ellipse cx="814.9" cy="1100" fill="#ADD1B2" rx="11" ry="11" style="stroke:#181818;stroke-width:1.0;"/><path d="M817.6656,1095.875 Q817.8219,1095.6563 818.0094,1095.5469 Q818.1969,1095.4375 818.4156,1095.4375 Q818.7906,1095.4375 819.025,1095.7031 Q819.2594,1095.9531 819.2594,1096.5625 L819.2594,1098.0156 Q819.2594,1098.625 819.025,1098.8906 Q818.7906,1099.1563 818.4156,1099.1563 Q818.0719,1099.1563 817.8688,1098.9531 Q817.6656,1098.7656 817.5563,1098.25 Q817.5094,1097.8906 817.3219,1097.7031 Q816.9938,1097.3281 816.3844,1097.1094 Q815.775,1096.8906 815.15,1096.8906 Q814.3844,1096.8906 813.7438,1097.2188 Q813.1188,1097.5469 812.6188,1098.2969 Q812.1344,1099.0469 812.1344,1100.0781 L812.1344,1101.1719 Q812.1344,1102.4063 813.025,1103.2344 Q813.9156,1104.0469 815.5094,1104.0469 Q816.4469,1104.0469 817.1031,1103.7969 Q817.4938,1103.6406 817.9156,1103.2031 Q818.1813,1102.9375 818.3219,1102.8594 Q818.4781,1102.7813 818.6813,1102.7813 Q819.0094,1102.7813 819.2594,1103.0469 Q819.525,1103.2969 819.525,1103.6406 Q819.525,1103.9844 819.1813,1104.3906 Q818.6813,1104.9688 817.8844,1105.2969 Q816.8063,1105.75 815.5094,1105.75 Q813.9938,1105.75 812.7906,1105.125 Q811.8063,1104.625 811.1188,1103.5625 Q810.4313,1102.4844 810.4313,1101.2031 L810.4313,1100.0469 Q810.4313,1098.7188 811.0406,1097.5781 Q811.6656,1096.4219 812.7594,1095.8125 Q813.8531,1095.1875 815.0875,1095.1875 Q815.8219,1095.1875 816.4625,1095.3594 Q817.1188,1095.5156 817.6656,1095.875 Z " fill="#000000"/><text fill="#000000" font-family="sans-serif" font-size="14" lengthAdjust="spacing" textLength="52" x="835.1" y="1104.8535">Address</text><line style="stroke:#181818;stroke-width:0.5;" x1="773" x2="917" y1="1116" y2="1116"/><text fill="#000000" font-family="sans-serif" font-size="14" lengthAdjust="spacing" textLength="134" x="778" y="1132.6738">-String streetAddress</text><text fill="#000000" font-family="sans-serif" font-size="14" lengthAdjust="spacing" textLength="77" x="778" y="1148.3145">-String state</text><text fill="#000000" font-family="sans-serif" font-size="14" lengthAdjust="spacing" textLength="104" x="778" y="1163.9551">-Integer zipCode</text><line style="stroke:#181818;stroke-width:0.5;" x1="773" x2="917" y1="1170.9219" y2="1170.9219"/></g><!--class Person--><g id="elem_Person"><rect codeLine="31" fill="#F1F1F1" filter="url(#f13ih4vks3g1vc)" height="79.2813" id="Person" rx="2.5" ry="2.5" style="stroke:#181818;stroke-width:0.5;" width="93" x="798.5" y="1255"/><ellipse cx="820.7" cy="1271" fill="#ADD1B2" rx="11" ry="11" style="stroke:#181818;stroke-width:1.0;"/><path d="M823.4656,1266.875 Q823.6219,1266.6563 823.8094,1266.5469 Q823.9969,1266.4375 824.2156,1266.4375 Q824.5906,1266.4375 824.825,1266.7031 Q825.0594,1266.9531 825.0594,1267.5625 L825.0594,1269.0156 Q825.0594,1269.625 824.825,1269.8906 Q824.5906,1270.1563 824.2156,1270.1563 Q823.8719,1270.1563 823.6688,1269.9531 Q823.4656,1269.7656 823.3563,1269.25 Q823.3094,1268.8906 823.1219,1268.7031 Q822.7938,1268.3281 822.1844,1268.1094 Q821.575,1267.8906 820.95,1267.8906 Q820.1844,1267.8906 819.5438,1268.2188 Q818.9188,1268.5469 818.4188,1269.2969 Q817.9344,1270.0469 817.9344,1271.0781 L817.9344,1272.1719 Q817.9344,1273.4063 818.825,1274.2344 Q819.7156,1275.0469 821.3094,1275.0469 Q822.2469,1275.0469 822.9031,1274.7969 Q823.2938,1274.6406 823.7156,1274.2031 Q823.9813,1273.9375 824.1219,1273.8594 Q824.2781,1273.7813 824.4813,1273.7813 Q824.8094,1273.7813 825.0594,1274.0469 Q825.325,1274.2969 825.325,1274.6406 Q825.325,1274.9844 824.9813,1275.3906 Q824.4813,1275.9688 823.6844,1276.2969 Q822.6063,1276.75 821.3094,1276.75 Q819.7938,1276.75 818.5906,1276.125 Q817.6063,1275.625 816.9188,1274.5625 Q816.2313,1273.4844 816.2313,1272.2031 L816.2313,1271.0469 Q816.2313,1269.7188 816.8406,1268.5781 Q817.4656,1267.4219 818.5594,1266.8125 Q819.6531,1266.1875 820.8875,1266.1875 Q821.6219,1266.1875 822.2625,1266.3594 Q822.9188,1266.5156 823.4656,1266.875 Z " fill="#000000"/><text fill="#000000" font-family="sans-serif" font-size="14" lengthAdjust="spacing" textLength="45" x="836.3" y="1275.8535">Person</text><line style="stroke:#181818;stroke-width:0.5;" x1="799.5" x2="890.5" y1="1287" y2="1287"/><text fill="#000000" font-family="sans-serif" font-size="14" lengthAdjust="spacing" textLength="81" x="804.5" y="1303.6738">-String name</text><text fill="#000000" font-family="sans-serif" font-size="14" lengthAdjust="spacing" textLength="79" x="804.5" y="1319.3145">-String email</text><line style="stroke:#181818;stroke-width:0.5;" x1="799.5" x2="890.5" y1="1326.2813" y2="1326.2813"/></g><!--class Employee--><g id="elem_Employee"><rect codeLine="39" fill="#F1F1F1" filter="url(#f13ih4vks3g1vc)" height="48" id="Employee" rx="2.5" ry="2.5" style="stroke:#181818;stroke-width:0.5;" width="94" x="970" y="1270.5"/><ellipse cx="985" cy="1286.5" fill="#ADD1B2" rx="11" ry="11" style="stroke:#181818;stroke-width:1.0;"/><path d="M987.7656,1282.375 Q987.9219,1282.1563 988.1094,1282.0469 Q988.2969,1281.9375 988.5156,1281.9375 Q988.8906,1281.9375 989.125,1282.2031 Q989.3594,1282.4531 989.3594,1283.0625 L989.3594,1284.5156 Q989.3594,1285.125 989.125,1285.3906 Q988.8906,1285.6563 988.5156,1285.6563 Q988.1719,1285.6563 987.9688,1285.4531 Q987.7656,1285.2656 987.6563,1284.75 Q987.6094,1284.3906 987.4219,1284.2031 Q987.0938,1283.8281 986.4844,1283.6094 Q985.875,1283.3906 985.25,1283.3906 Q984.4844,1283.3906 983.8438,1283.7188 Q983.2188,1284.0469 982.7188,1284.7969 Q982.2344,1285.5469 982.2344,1286.5781 L982.2344,1287.6719 Q982.2344,1288.9063 983.125,1289.7344 Q984.0156,1290.5469 985.6094,1290.5469 Q986.5469,1290.5469 987.2031,1290.2969 Q987.5938,1290.1406 988.0156,1289.7031 Q988.2813,1289.4375 988.4219,1289.3594 Q988.5781,1289.2813 988.7813,1289.2813 Q989.1094,1289.2813 989.3594,1289.5469 Q989.625,1289.7969 989.625,1290.1406 Q989.625,1290.4844 989.2813,1290.8906 Q988.7813,1291.4688 987.9844,1291.7969 Q986.9063,1292.25 985.6094,1292.25 Q984.0938,1292.25 982.8906,1291.625 Q981.9063,1291.125 981.2188,1290.0625 Q980.5313,1288.9844 980.5313,1287.7031 L980.5313,1286.5469 Q980.5313,1285.2188 981.1406,1284.0781 Q981.7656,1282.9219 982.8594,1282.3125 Q983.9531,1281.6875 985.1875,1281.6875 Q985.9219,1281.6875 986.5625,1281.8594 Q987.2188,1282.0156 987.7656,1282.375 Z " fill="#000000"/><text fill="#000000" font-family="sans-serif" font-size="14" lengthAdjust="spacing" textLength="62" x="999" y="1291.3535">Employee</text><line style="stroke:#181818;stroke-width:0.5;" x1="971" x2="1063" y1="1302.5" y2="1302.5"/><line style="stroke:#181818;stroke-width:0.5;" x1="971" x2="1063" y1="1310.5" y2="1310.5"/></g><!--class Announcement--><g id="elem_Announcement"><rect codeLine="43" fill="#F1F1F1" filter="url(#f13ih4vks3g1vc)" height="94.9219" id="Announcement" rx="2.5" ry="2.5" style="stroke:#181818;stroke-width:0.5;" width="198" x="554" y="913"/><ellipse cx="601.25" cy="929" fill="#ADD1B2" rx="11" ry="11" style="stroke:#181818;stroke-width:1.0;"/><path d="M604.0156,924.875 Q604.1719,924.6563 604.3594,924.5469 Q604.5469,924.4375 604.7656,924.4375 Q605.1406,924.4375 605.375,924.7031 Q605.6094,924.9531 605.6094,925.5625 L605.6094,927.0156 Q605.6094,927.625 605.375,927.8906 Q605.1406,928.1563 604.7656,928.1563 Q604.4219,928.1563 604.2188,927.9531 Q604.0156,927.7656 603.9063,927.25 Q603.8594,926.8906 603.6719,926.7031 Q603.3438,926.3281 602.7344,926.1094 Q602.125,925.8906 601.5,925.8906 Q600.7344,925.8906 600.0938,926.2188 Q599.4688,926.5469 598.9688,927.2969 Q598.4844,928.0469 598.4844,929.0781 L598.4844,930.1719 Q598.4844,931.4063 599.375,932.2344 Q600.2656,933.0469 601.8594,933.0469 Q602.7969,933.0469 603.4531,932.7969 Q603.8438,932.6406 604.2656,932.2031 Q604.5313,931.9375 604.6719,931.8594 Q604.8281,931.7813 605.0313,931.7813 Q605.3594,931.7813 605.6094,932.0469 Q605.875,932.2969 605.875,932.6406 Q605.875,932.9844 605.5313,933.3906 Q605.0313,933.9688 604.2344,934.2969 Q603.1563,934.75 601.8594,934.75 Q600.3438,934.75 599.1406,934.125 Q598.1563,933.625 597.4688,932.5625 Q596.7813,931.4844 596.7813,930.2031 L596.7813,929.0469 Q596.7813,927.7188 597.3906,926.5781 Q598.0156,925.4219 599.1094,924.8125 Q600.2031,924.1875 601.4375,924.1875 Q602.1719,924.1875 602.8125,924.3594 Q603.4688,924.5156 604.0156,924.875 Z " fill="#000000"/><text fill="#000000" font-family="sans-serif" font-size="14" lengthAdjust="spacing" textLength="95" x="621.75" y="933.8535">Announcement</text><line style="stroke:#181818;stroke-width:0.5;" x1="555" x2="751" y1="945" y2="945"/><text fill="#000000" font-family="sans-serif" font-size="14" lengthAdjust="spacing" textLength="98" x="560" y="961.6738">-DateTime data</text><text fill="#000000" font-family="sans-serif" font-size="14" lengthAdjust="spacing" textLength="119" x="560" y="977.3145">-Double listedPrice</text><text fill="#000000" font-family="sans-serif" font-size="14" lengthAdjust="spacing" textLength="186" x="560" y="992.9551">-BusinessType businessType</text><line style="stroke:#181818;stroke-width:0.5;" x1="555" x2="751" y1="999.9219" y2="999.9219"/></g><!--class Repositories--><g id="elem_Repositories"><rect codeLine="52" fill="#F1F1F1" filter="url(#f13ih4vks3g1vc)" height="126.2031" id="Repositories" rx="2.5" ry="2.5" style="stroke:#181818;stroke-width:0.5;" width="214" x="799" y="272"/><ellipse cx="862.25" cy="288" fill="#ADD1B2" rx="11" ry="11" style="stroke:#181818;stroke-width:1.0;"/><path d="M865.0156,283.875 Q865.1719,283.6563 865.3594,283.5469 Q865.5469,283.4375 865.7656,283.4375 Q866.1406,283.4375 866.375,283.7031 Q866.6094,283.9531 866.6094,284.5625 L866.6094,286.0156 Q866.6094,286.625 866.375,286.8906 Q866.1406,287.1563 865.7656,287.1563 Q865.4219,287.1563 865.2188,286.9531 Q865.0156,286.7656 864.9063,286.25 Q864.8594,285.8906 864.6719,285.7031 Q864.3438,285.3281 863.7344,285.1094 Q863.125,284.8906 862.5,284.8906 Q861.7344,284.8906 861.0938,285.2188 Q860.4688,285.5469 859.9688,286.2969 Q859.4844,287.0469 859.4844,288.0781 L859.4844,289.1719 Q859.4844,290.4063 860.375,291.2344 Q861.2656,292.0469 862.8594,292.0469 Q863.7969,292.0469 864.4531,291.7969 Q864.8438,291.6406 865.2656,291.2031 Q865.5313,290.9375 865.6719,290.8594 Q865.8281,290.7813 866.0313,290.7813 Q866.3594,290.7813 866.6094,291.0469 Q866.875,291.2969 866.875,291.6406 Q866.875,291.9844 866.5313,292.3906 Q866.0313,292.9688 865.2344,293.2969 Q864.1563,293.75 862.8594,293.75 Q861.3438,293.75 860.1406,293.125 Q859.1563,292.625 858.4688,291.5625 Q857.7813,290.4844 857.7813,289.2031 L857.7813,288.0469 Q857.7813,286.7188 858.3906,285.5781 Q859.0156,284.4219 860.1094,283.8125 Q861.2031,283.1875 862.4375,283.1875 Q863.1719,283.1875 863.8125,283.3594 Q864.4688,283.5156 865.0156,283.875 Z " fill="#000000"/><text fill="#000000" font-family="sans-serif" font-size="14" lengthAdjust="spacing" textLength="79" x="882.75" y="292.8535">Repositories</text><line style="stroke:#181818;stroke-width:0.5;" x1="800" x2="1012" y1="304" y2="304"/><line style="stroke:#181818;stroke-width:0.5;" x1="800" x2="1012" y1="312" y2="312"/><text fill="#000000" font-family="sans-serif" font-size="14" lengthAdjust="spacing" textLength="94" x="805" y="328.6738">-Repositories()</text><text fill="#000000" font-family="sans-serif" font-size="14" lengthAdjust="spacing" textLength="182" x="805" y="344.3145">+getInstance() : Repositories</text><text fill="#000000" font-family="sans-serif" font-size="14" lengthAdjust="spacing" textLength="196" x="805" y="359.9551">+getAuthenticationRepository()</text><text fill="#000000" font-family="sans-serif" font-size="14" lengthAdjust="spacing" textLength="202" x="805" y="375.5957">+getpurchaseOrderRepository()</text><text fill="#000000" font-family="sans-serif" font-size="14" lengthAdjust="spacing" textLength="201" x="805" y="391.2363">+getAnnouncementRepository()</text></g><!--class purchaseOrderRepository--><g id="elem_purchaseOrderRepository"><rect codeLine="60" fill="#F1F1F1" filter="url(#f13ih4vks3g1vc)" height="63.6406" id="purchaseOrderRepository" rx="2.5" ry="2.5" style="stroke:#181818;stroke-width:0.5;" width="196" x="244" y="584.5"/><ellipse cx="259" cy="600.5" fill="#ADD1B2" rx="11" ry="11" style="stroke:#181818;stroke-width:1.0;"/><path d="M261.7656,596.375 Q261.9219,596.1563 262.1094,596.0469 Q262.2969,595.9375 262.5156,595.9375 Q262.8906,595.9375 263.125,596.2031 Q263.3594,596.4531 263.3594,597.0625 L263.3594,598.5156 Q263.3594,599.125 263.125,599.3906 Q262.8906,599.6563 262.5156,599.6563 Q262.1719,599.6563 261.9688,599.4531 Q261.7656,599.2656 261.6563,598.75 Q261.6094,598.3906 261.4219,598.2031 Q261.0938,597.8281 260.4844,597.6094 Q259.875,597.3906 259.25,597.3906 Q258.4844,597.3906 257.8438,597.7188 Q257.2188,598.0469 256.7188,598.7969 Q256.2344,599.5469 256.2344,600.5781 L256.2344,601.6719 Q256.2344,602.9063 257.125,603.7344 Q258.0156,604.5469 259.6094,604.5469 Q260.5469,604.5469 261.2031,604.2969 Q261.5938,604.1406 262.0156,603.7031 Q262.2813,603.4375 262.4219,603.3594 Q262.5781,603.2813 262.7813,603.2813 Q263.1094,603.2813 263.3594,603.5469 Q263.625,603.7969 263.625,604.1406 Q263.625,604.4844 263.2813,604.8906 Q262.7813,605.4688 261.9844,605.7969 Q260.9063,606.25 259.6094,606.25 Q258.0938,606.25 256.8906,605.625 Q255.9063,605.125 255.2188,604.0625 Q254.5313,602.9844 254.5313,601.7031 L254.5313,600.5469 Q254.5313,599.2188 255.1406,598.0781 Q255.7656,596.9219 256.8594,596.3125 Q257.9531,595.6875 259.1875,595.6875 Q259.9219,595.6875 260.5625,595.8594 Q261.2188,596.0156 261.7656,596.375 Z " fill="#000000"/><text fill="#000000" font-family="sans-serif" font-size="14" lengthAdjust="spacing" textLength="164" x="273" y="605.3535">purchaseOrderRepository</text><line style="stroke:#181818;stroke-width:0.5;" x1="245" x2="439" y1="616.5" y2="616.5"/><line style="stroke:#181818;stroke-width:0.5;" x1="245" x2="439" y1="624.5" y2="624.5"/><text fill="#000000" font-family="sans-serif" font-size="14" lengthAdjust="spacing" textLength="106" x="250" y="641.1738">+getBuyOrders()</text></g><!--class announcementRepository--><g id="elem_announcementRepository"><rect codeLine="67" fill="#F1F1F1" filter="url(#f13ih4vks3g1vc)" height="63.6406" id="announcementRepository" rx="2.5" ry="2.5" style="stroke:#181818;stroke-width:0.5;" width="194" x="551" y="584.5"/><ellipse cx="566" cy="600.5" fill="#ADD1B2" rx="11" ry="11" style="stroke:#181818;stroke-width:1.0;"/><path d="M568.7656,596.375 Q568.9219,596.1563 569.1094,596.0469 Q569.2969,595.9375 569.5156,595.9375 Q569.8906,595.9375 570.125,596.2031 Q570.3594,596.4531 570.3594,597.0625 L570.3594,598.5156 Q570.3594,599.125 570.125,599.3906 Q569.8906,599.6563 569.5156,599.6563 Q569.1719,599.6563 568.9688,599.4531 Q568.7656,599.2656 568.6563,598.75 Q568.6094,598.3906 568.4219,598.2031 Q568.0938,597.8281 567.4844,597.6094 Q566.875,597.3906 566.25,597.3906 Q565.4844,597.3906 564.8438,597.7188 Q564.2188,598.0469 563.7188,598.7969 Q563.2344,599.5469 563.2344,600.5781 L563.2344,601.6719 Q563.2344,602.9063 564.125,603.7344 Q565.0156,604.5469 566.6094,604.5469 Q567.5469,604.5469 568.2031,604.2969 Q568.5938,604.1406 569.0156,603.7031 Q569.2813,603.4375 569.4219,603.3594 Q569.5781,603.2813 569.7813,603.2813 Q570.1094,603.2813 570.3594,603.5469 Q570.625,603.7969 570.625,604.1406 Q570.625,604.4844 570.2813,604.8906 Q569.7813,605.4688 568.9844,605.7969 Q567.9063,606.25 566.6094,606.25 Q565.0938,606.25 563.8906,605.625 Q562.9063,605.125 562.2188,604.0625 Q561.5313,602.9844 561.5313,601.7031 L561.5313,600.5469 Q561.5313,599.2188 562.1406,598.0781 Q562.7656,596.9219 563.8594,596.3125 Q564.9531,595.6875 566.1875,595.6875 Q566.9219,595.6875 567.5625,595.8594 Q568.2188,596.0156 568.7656,596.375 Z " fill="#000000"/><text fill="#000000" font-family="sans-serif" font-size="14" lengthAdjust="spacing" textLength="162" x="580" y="605.3535">announcementRepository</text><line style="stroke:#181818;stroke-width:0.5;" x1="552" x2="744" y1="616.5" y2="616.5"/><line style="stroke:#181818;stroke-width:0.5;" x1="552" x2="744" y1="624.5" y2="624.5"/><text fill="#000000" font-family="sans-serif" font-size="14" lengthAdjust="spacing" textLength="140" x="557" y="641.1738">+getAnnouncements()</text></g><!--class PurchaseOrder--><g id="elem_PurchaseOrder"><rect codeLine="71" fill="#F1F1F1" filter="url(#f13ih4vks3g1vc)" height="94.9219" id="PurchaseOrder" rx="2.5" ry="2.5" style="stroke:#181818;stroke-width:0.5;" width="163" x="411.5" y="1084"/><ellipse cx="441.8" cy="1100" fill="#ADD1B2" rx="11" ry="11" style="stroke:#181818;stroke-width:1.0;"/><path d="M444.5656,1095.875 Q444.7219,1095.6563 444.9094,1095.5469 Q445.0969,1095.4375 445.3156,1095.4375 Q445.6906,1095.4375 445.925,1095.7031 Q446.1594,1095.9531 446.1594,1096.5625 L446.1594,1098.0156 Q446.1594,1098.625 445.925,1098.8906 Q445.6906,1099.1563 445.3156,1099.1563 Q444.9719,1099.1563 444.7688,1098.9531 Q444.5656,1098.7656 444.4563,1098.25 Q444.4094,1097.8906 444.2219,1097.7031 Q443.8938,1097.3281 443.2844,1097.1094 Q442.675,1096.8906 442.05,1096.8906 Q441.2844,1096.8906 440.6438,1097.2188 Q440.0188,1097.5469 439.5188,1098.2969 Q439.0344,1099.0469 439.0344,1100.0781 L439.0344,1101.1719 Q439.0344,1102.4063 439.925,1103.2344 Q440.8156,1104.0469 442.4094,1104.0469 Q443.3469,1104.0469 444.0031,1103.7969 Q444.3938,1103.6406 444.8156,1103.2031 Q445.0813,1102.9375 445.2219,1102.8594 Q445.3781,1102.7813 445.5813,1102.7813 Q445.9094,1102.7813 446.1594,1103.0469 Q446.425,1103.2969 446.425,1103.6406 Q446.425,1103.9844 446.0813,1104.3906 Q445.5813,1104.9688 444.7844,1105.2969 Q443.7063,1105.75 442.4094,1105.75 Q440.8938,1105.75 439.6906,1105.125 Q438.7063,1104.625 438.0188,1103.5625 Q437.3313,1102.4844 437.3313,1101.2031 L437.3313,1100.0469 Q437.3313,1098.7188 437.9406,1097.5781 Q438.5656,1096.4219 439.6594,1095.8125 Q440.7531,1095.1875 441.9875,1095.1875 Q442.7219,1095.1875 443.3625,1095.3594 Q444.0188,1095.5156 444.5656,1095.875 Z " fill="#000000"/><text fill="#000000" font-family="sans-serif" font-size="14" lengthAdjust="spacing" textLength="97" x="459.2" y="1104.8535">PurchaseOrder</text><line style="stroke:#181818;stroke-width:0.5;" x1="412.5" x2="573.5" y1="1116" y2="1116"/><text fill="#000000" font-family="sans-serif" font-size="14" lengthAdjust="spacing" textLength="136" x="417.5" y="1132.6738">-Double orderAmount</text><text fill="#000000" font-family="sans-serif" font-size="14" lengthAdjust="spacing" textLength="107" x="417.5" y="1148.3145">-int wasAccepted</text><text fill="#000000" font-family="sans-serif" font-size="14" lengthAdjust="spacing" textLength="151" x="417.5" y="1163.9551">-DateTime creationDate</text><line style="stroke:#181818;stroke-width:0.5;" x1="412.5" x2="573.5" y1="1170.9219" y2="1170.9219"/></g><!--class Property--><g id="elem_Property"><rect codeLine="77" fill="#F1F1F1" filter="url(#f13ih4vks3g1vc)" height="48" id="Property" rx="2.5" ry="2.5" style="stroke:#181818;stroke-width:0.5;" width="86" x="610" y="1107.5"/><ellipse cx="625" cy="1123.5" fill="#ADD1B2" rx="11" ry="11" style="stroke:#181818;stroke-width:1.0;"/><path d="M627.7656,1119.375 Q627.9219,1119.1563 628.1094,1119.0469 Q628.2969,1118.9375 628.5156,1118.9375 Q628.8906,1118.9375 629.125,1119.2031 Q629.3594,1119.4531 629.3594,1120.0625 L629.3594,1121.5156 Q629.3594,1122.125 629.125,1122.3906 Q628.8906,1122.6563 628.5156,1122.6563 Q628.1719,1122.6563 627.9688,1122.4531 Q627.7656,1122.2656 627.6563,1121.75 Q627.6094,1121.3906 627.4219,1121.2031 Q627.0938,1120.8281 626.4844,1120.6094 Q625.875,1120.3906 625.25,1120.3906 Q624.4844,1120.3906 623.8438,1120.7188 Q623.2188,1121.0469 622.7188,1121.7969 Q622.2344,1122.5469 622.2344,1123.5781 L622.2344,1124.6719 Q622.2344,1125.9063 623.125,1126.7344 Q624.0156,1127.5469 625.6094,1127.5469 Q626.5469,1127.5469 627.2031,1127.2969 Q627.5938,1127.1406 628.0156,1126.7031 Q628.2813,1126.4375 628.4219,1126.3594 Q628.5781,1126.2813 628.7813,1126.2813 Q629.1094,1126.2813 629.3594,1126.5469 Q629.625,1126.7969 629.625,1127.1406 Q629.625,1127.4844 629.2813,1127.8906 Q628.7813,1128.4688 627.9844,1128.7969 Q626.9063,1129.25 625.6094,1129.25 Q624.0938,1129.25 622.8906,1128.625 Q621.9063,1128.125 621.2188,1127.0625 Q620.5313,1125.9844 620.5313,1124.7031 L620.5313,1123.5469 Q620.5313,1122.2188 621.1406,1121.0781 Q621.7656,1119.9219 622.8594,1119.3125 Q623.9531,1118.6875 625.1875,1118.6875 Q625.9219,1118.6875 626.5625,1118.8594 Q627.2188,1119.0156 627.7656,1119.375 Z " fill="#000000"/><text fill="#000000" font-family="sans-serif" font-size="14" lengthAdjust="spacing" textLength="54" x="639" y="1128.3535">Property</text><line style="stroke:#181818;stroke-width:0.5;" x1="611" x2="695" y1="1139.5" y2="1139.5"/><line style="stroke:#181818;stroke-width:0.5;" x1="611" x2="695" y1="1147.5" y2="1147.5"/></g><!--class Client--><g id="elem_Client"><rect codeLine="86" fill="#F1F1F1" filter="url(#f13ih4vks3g1vc)" height="48" id="Client" rx="2.5" ry="2.5" style="stroke:#181818;stroke-width:0.5;" width="68" x="501" y="1395"/><ellipse cx="516" cy="1411" fill="#ADD1B2" rx="11" ry="11" style="stroke:#181818;stroke-width:1.0;"/><path d="M518.7656,1406.875 Q518.9219,1406.6563 519.1094,1406.5469 Q519.2969,1406.4375 519.5156,1406.4375 Q519.8906,1406.4375 520.125,1406.7031 Q520.3594,1406.9531 520.3594,1407.5625 L520.3594,1409.0156 Q520.3594,1409.625 520.125,1409.8906 Q519.8906,1410.1563 519.5156,1410.1563 Q519.1719,1410.1563 518.9688,1409.9531 Q518.7656,1409.7656 518.6563,1409.25 Q518.6094,1408.8906 518.4219,1408.7031 Q518.0938,1408.3281 517.4844,1408.1094 Q516.875,1407.8906 516.25,1407.8906 Q515.4844,1407.8906 514.8438,1408.2188 Q514.2188,1408.5469 513.7188,1409.2969 Q513.2344,1410.0469 513.2344,1411.0781 L513.2344,1412.1719 Q513.2344,1413.4063 514.125,1414.2344 Q515.0156,1415.0469 516.6094,1415.0469 Q517.5469,1415.0469 518.2031,1414.7969 Q518.5938,1414.6406 519.0156,1414.2031 Q519.2813,1413.9375 519.4219,1413.8594 Q519.5781,1413.7813 519.7813,1413.7813 Q520.1094,1413.7813 520.3594,1414.0469 Q520.625,1414.2969 520.625,1414.6406 Q520.625,1414.9844 520.2813,1415.3906 Q519.7813,1415.9688 518.9844,1416.2969 Q517.9063,1416.75 516.6094,1416.75 Q515.0938,1416.75 513.8906,1416.125 Q512.9063,1415.625 512.2188,1414.5625 Q511.5313,1413.4844 511.5313,1412.2031 L511.5313,1411.0469 Q511.5313,1409.7188 512.1406,1408.5781 Q512.7656,1407.4219 513.8594,1406.8125 Q514.9531,1406.1875 516.1875,1406.1875 Q516.9219,1406.1875 517.5625,1406.3594 Q518.2188,1406.5156 518.7656,1406.875 Z " fill="#000000"/><text fill="#000000" font-family="sans-serif" font-size="14" lengthAdjust="spacing" textLength="36" x="530" y="1415.8535">Client</text><line style="stroke:#181818;stroke-width:0.5;" x1="502" x2="568" y1="1427" y2="1427"/><line style="stroke:#181818;stroke-width:0.5;" x1="502" x2="568" y1="1435" y2="1435"/></g><!--class Agent--><g id="elem_Agent"><rect codeLine="90" fill="#F1F1F1" filter="url(#f13ih4vks3g1vc)" height="48" id="Agent" rx="2.5" ry="2.5" style="stroke:#181818;stroke-width:0.5;" width="69" x="1116.5" y="936.5"/><ellipse cx="1131.5" cy="952.5" fill="#ADD1B2" rx="11" ry="11" style="stroke:#181818;stroke-width:1.0;"/><path d="M1134.2656,948.375 Q1134.4219,948.1563 1134.6094,948.0469 Q1134.7969,947.9375 1135.0156,947.9375 Q1135.3906,947.9375 1135.625,948.2031 Q1135.8594,948.4531 1135.8594,949.0625 L1135.8594,950.5156 Q1135.8594,951.125 1135.625,951.3906 Q1135.3906,951.6563 1135.0156,951.6563 Q1134.6719,951.6563 1134.4688,951.4531 Q1134.2656,951.2656 1134.1563,950.75 Q1134.1094,950.3906 1133.9219,950.2031 Q1133.5938,949.8281 1132.9844,949.6094 Q1132.375,949.3906 1131.75,949.3906 Q1130.9844,949.3906 1130.3438,949.7188 Q1129.7188,950.0469 1129.2188,950.7969 Q1128.7344,951.5469 1128.7344,952.5781 L1128.7344,953.6719 Q1128.7344,954.9063 1129.625,955.7344 Q1130.5156,956.5469 1132.1094,956.5469 Q1133.0469,956.5469 1133.7031,956.2969 Q1134.0938,956.1406 1134.5156,955.7031 Q1134.7813,955.4375 1134.9219,955.3594 Q1135.0781,955.2813 1135.2813,955.2813 Q1135.6094,955.2813 1135.8594,955.5469 Q1136.125,955.7969 1136.125,956.1406 Q1136.125,956.4844 1135.7813,956.8906 Q1135.2813,957.4688 1134.4844,957.7969 Q1133.4063,958.25 1132.1094,958.25 Q1130.5938,958.25 1129.3906,957.625 Q1128.4063,957.125 1127.7188,956.0625 Q1127.0313,954.9844 1127.0313,953.7031 L1127.0313,952.5469 Q1127.0313,951.2188 1127.6406,950.0781 Q1128.2656,948.9219 1129.3594,948.3125 Q1130.4531,947.6875 1131.6875,947.6875 Q1132.4219,947.6875 1133.0625,947.8594 Q1133.7188,948.0156 1134.2656,948.375 Z " fill="#000000"/><text fill="#000000" font-family="sans-serif" font-size="14" lengthAdjust="spacing" textLength="37" x="1145.5" y="957.3535">Agent</text><line style="stroke:#181818;stroke-width:0.5;" x1="1117.5" x2="1184.5" y1="968.5" y2="968.5"/><line style="stroke:#181818;stroke-width:0.5;" x1="1117.5" x2="1184.5" y1="976.5" y2="976.5"/></g><!--class AnnouncementMapper--><g id="elem_AnnouncementMapper"><rect codeLine="94" fill="#F1F1F1" filter="url(#f13ih4vks3g1vc)" height="94.9219" id="AnnouncementMapper" rx="2.5" ry="2.5" style="stroke:#181818;stroke-width:0.5;" width="584" x="912" y="569"/><ellipse cx="1128.25" cy="585" fill="#ADD1B2" rx="11" ry="11" style="stroke:#181818;stroke-width:1.0;"/><path d="M1131.0156,580.875 Q1131.1719,580.6563 1131.3594,580.5469 Q1131.5469,580.4375 1131.7656,580.4375 Q1132.1406,580.4375 1132.375,580.7031 Q1132.6094,580.9531 1132.6094,581.5625 L1132.6094,583.0156 Q1132.6094,583.625 1132.375,583.8906 Q1132.1406,584.1563 1131.7656,584.1563 Q1131.4219,584.1563 1131.2188,583.9531 Q1131.0156,583.7656 1130.9063,583.25 Q1130.8594,582.8906 1130.6719,582.7031 Q1130.3438,582.3281 1129.7344,582.1094 Q1129.125,581.8906 1128.5,581.8906 Q1127.7344,581.8906 1127.0938,582.2188 Q1126.4688,582.5469 1125.9688,583.2969 Q1125.4844,584.0469 1125.4844,585.0781 L1125.4844,586.1719 Q1125.4844,587.4063 1126.375,588.2344 Q1127.2656,589.0469 1128.8594,589.0469 Q1129.7969,589.0469 1130.4531,588.7969 Q1130.8438,588.6406 1131.2656,588.2031 Q1131.5313,587.9375 1131.6719,587.8594 Q1131.8281,587.7813 1132.0313,587.7813 Q1132.3594,587.7813 1132.6094,588.0469 Q1132.875,588.2969 1132.875,588.6406 Q1132.875,588.9844 1132.5313,589.3906 Q1132.0313,589.9688 1131.2344,590.2969 Q1130.1563,590.75 1128.8594,590.75 Q1127.3438,590.75 1126.1406,590.125 Q1125.1563,589.625 1124.4688,588.5625 Q1123.7813,587.4844 1123.7813,586.2031 L1123.7813,585.0469 Q1123.7813,583.7188 1124.3906,582.5781 Q1125.0156,581.4219 1126.1094,580.8125 Q1127.2031,580.1875 1128.4375,580.1875 Q1129.1719,580.1875 1129.8125,580.3594 Q1130.4688,580.5156 1131.0156,580.875 Z " fill="#000000"/><text fill="#000000" font-family="sans-serif" font-size="14" lengthAdjust="spacing" textLength="143" x="1148.75" y="589.8535">AnnouncementMapper</text><line style="stroke:#181818;stroke-width:0.5;" x1="913" x2="1495" y1="601" y2="601"/><line style="stroke:#181818;stroke-width:0.5;" x1="913" x2="1495" y1="609" y2="609"/><text fill="#000000" font-family="sans-serif" font-size="14" lengthAdjust="spacing" textLength="382" x="918" y="625.6738">+AnnouncementDTO toDTO(Announcement announcement)</text><text fill="#000000" font-family="sans-serif" font-size="14" lengthAdjust="spacing" textLength="572" x="918" y="641.3145">+List&lt;AnnouncementDTO&gt; getAnnouncementsDTO(List&lt;Announcement&gt; announcement )</text><text fill="#000000" font-family="sans-serif" font-size="14" lengthAdjust="spacing" textLength="503" x="918" y="656.9551">+List&lt;AnnouncementDTO&gt; getAnnouncementsToDto(String announcementList)</text></g><!--class AnnouncementDTO--><g id="elem_AnnouncementDTO"><rect codeLine="101" fill="#F1F1F1" filter="url(#f13ih4vks3g1vc)" height="188.7656" id="AnnouncementDTO" rx="2.5" ry="2.5" style="stroke:#181818;stroke-width:0.5;" width="636" x="779" y="694"/><ellipse cx="1030.25" cy="710" fill="#ADD1B2" rx="11" ry="11" style="stroke:#181818;stroke-width:1.0;"/><path d="M1033.0156,705.875 Q1033.1719,705.6563 1033.3594,705.5469 Q1033.5469,705.4375 1033.7656,705.4375 Q1034.1406,705.4375 1034.375,705.7031 Q1034.6094,705.9531 1034.6094,706.5625 L1034.6094,708.0156 Q1034.6094,708.625 1034.375,708.8906 Q1034.1406,709.1563 1033.7656,709.1563 Q1033.4219,709.1563 1033.2188,708.9531 Q1033.0156,708.7656 1032.9063,708.25 Q1032.8594,707.8906 1032.6719,707.7031 Q1032.3438,707.3281 1031.7344,707.1094 Q1031.125,706.8906 1030.5,706.8906 Q1029.7344,706.8906 1029.0938,707.2188 Q1028.4688,707.5469 1027.9688,708.2969 Q1027.4844,709.0469 1027.4844,710.0781 L1027.4844,711.1719 Q1027.4844,712.4063 1028.375,713.2344 Q1029.2656,714.0469 1030.8594,714.0469 Q1031.7969,714.0469 1032.4531,713.7969 Q1032.8438,713.6406 1033.2656,713.2031 Q1033.5313,712.9375 1033.6719,712.8594 Q1033.8281,712.7813 1034.0313,712.7813 Q1034.3594,712.7813 1034.6094,713.0469 Q1034.875,713.2969 1034.875,713.6406 Q1034.875,713.9844 1034.5313,714.3906 Q1034.0313,714.9688 1033.2344,715.2969 Q1032.1563,715.75 1030.8594,715.75 Q1029.3438,715.75 1028.1406,715.125 Q1027.1563,714.625 1026.4688,713.5625 Q1025.7813,712.4844 1025.7813,711.2031 L1025.7813,710.0469 Q1025.7813,708.7188 1026.3906,707.5781 Q1027.0156,706.4219 1028.1094,705.8125 Q1029.2031,705.1875 1030.4375,705.1875 Q1031.1719,705.1875 1031.8125,705.3594 Q1032.4688,705.5156 1033.0156,705.875 Z " fill="#000000"/><text fill="#000000" font-family="sans-serif" font-size="14" lengthAdjust="spacing" textLength="125" x="1050.75" y="714.8535">AnnouncementDTO</text><line style="stroke:#181818;stroke-width:0.5;" x1="780" x2="1414" y1="726" y2="726"/><text fill="#000000" font-family="sans-serif" font-size="14" lengthAdjust="spacing" textLength="112" x="785" y="742.6738">-AgentDTO agent</text><text fill="#000000" font-family="sans-serif" font-size="14" lengthAdjust="spacing" textLength="128" x="785" y="758.3145">-DateTimeDTO date</text><text fill="#000000" font-family="sans-serif" font-size="14" lengthAdjust="spacing" textLength="127" x="785" y="773.9551">-Double commission</text><text fill="#000000" font-family="sans-serif" font-size="14" lengthAdjust="spacing" textLength="119" x="785" y="789.5957">-Double listedPrice</text><text fill="#000000" font-family="sans-serif" font-size="14" lengthAdjust="spacing" textLength="216" x="785" y="805.2363">-BusinessTypeDTO businessType</text><text fill="#000000" font-family="sans-serif" font-size="14" lengthAdjust="spacing" textLength="146" x="785" y="820.877">-PropertyDTO property</text><text fill="#000000" font-family="sans-serif" font-size="14" lengthAdjust="spacing" textLength="132" x="785" y="836.5176">-Integer rentDuration</text><line style="stroke:#181818;stroke-width:0.5;" x1="780" x2="1414" y1="843.4844" y2="843.4844"/><text fill="#000000" font-family="sans-serif" font-size="14" lengthAdjust="spacing" textLength="508" x="785" y="860.1582">+AnnouncementDTO(AgentDTO agent, DateTimeDTO date, double commission,</text><text fill="#000000" font-family="sans-serif" font-size="14" lengthAdjust="spacing" textLength="620" x="789" y="875.7988">BusinessTypeDTO businessType, PropertyDTO property, Integer rentDuration, double listedPrice)</text></g><!--class PurchaseOrderMapper--><g id="elem_PurchaseOrderMapper"><rect codeLine="112" fill="#F1F1F1" filter="url(#f13ih4vks3g1vc)" height="94.9219" id="PurchaseOrderMapper" rx="2.5" ry="2.5" style="stroke:#181818;stroke-width:0.5;" width="592" x="172" y="287.5"/><ellipse cx="391.25" cy="303.5" fill="#ADD1B2" rx="11" ry="11" style="stroke:#181818;stroke-width:1.0;"/><path d="M394.0156,299.375 Q394.1719,299.1563 394.3594,299.0469 Q394.5469,298.9375 394.7656,298.9375 Q395.1406,298.9375 395.375,299.2031 Q395.6094,299.4531 395.6094,300.0625 L395.6094,301.5156 Q395.6094,302.125 395.375,302.3906 Q395.1406,302.6563 394.7656,302.6563 Q394.4219,302.6563 394.2188,302.4531 Q394.0156,302.2656 393.9063,301.75 Q393.8594,301.3906 393.6719,301.2031 Q393.3438,300.8281 392.7344,300.6094 Q392.125,300.3906 391.5,300.3906 Q390.7344,300.3906 390.0938,300.7188 Q389.4688,301.0469 388.9688,301.7969 Q388.4844,302.5469 388.4844,303.5781 L388.4844,304.6719 Q388.4844,305.9063 389.375,306.7344 Q390.2656,307.5469 391.8594,307.5469 Q392.7969,307.5469 393.4531,307.2969 Q393.8438,307.1406 394.2656,306.7031 Q394.5313,306.4375 394.6719,306.3594 Q394.8281,306.2813 395.0313,306.2813 Q395.3594,306.2813 395.6094,306.5469 Q395.875,306.7969 395.875,307.1406 Q395.875,307.4844 395.5313,307.8906 Q395.0313,308.4688 394.2344,308.7969 Q393.1563,309.25 391.8594,309.25 Q390.3438,309.25 389.1406,308.625 Q388.1563,308.125 387.4688,307.0625 Q386.7813,305.9844 386.7813,304.7031 L386.7813,303.5469 Q386.7813,302.2188 387.3906,301.0781 Q388.0156,299.9219 389.1094,299.3125 Q390.2031,298.6875 391.4375,298.6875 Q392.1719,298.6875 392.8125,298.8594 Q393.4688,299.0156 394.0156,299.375 Z " fill="#000000"/><text fill="#000000" font-family="sans-serif" font-size="14" lengthAdjust="spacing" textLength="145" x="411.75" y="308.3535">PurchaseOrderMapper</text><line style="stroke:#181818;stroke-width:0.5;" x1="173" x2="763" y1="319.5" y2="319.5"/><line style="stroke:#181818;stroke-width:0.5;" x1="173" x2="763" y1="327.5" y2="327.5"/><text fill="#000000" font-family="sans-serif" font-size="14" lengthAdjust="spacing" textLength="388" x="178" y="344.1738">+PurchaseOrderDTO toDTO(PurchaseOrder purchaseOrder)</text><text fill="#000000" font-family="sans-serif" font-size="14" lengthAdjust="spacing" textLength="580" x="178" y="359.8145">+List&lt;PurchaseOrderDTO&gt; getPurchaseOrdersDTO(List&lt;PurchaseOrder&gt; purchaseOrder )</text><text fill="#000000" font-family="sans-serif" font-size="14" lengthAdjust="spacing" textLength="509" x="178" y="375.4551">+List&lt;PurchaseOrderDTO&gt; getPurchaseOrdersToDto(String purchaseOrderList)</text></g><!--class PurchaseOrderDTO--><g id="elem_PurchaseOrderDTO"><rect codeLine="118" fill="#F1F1F1" filter="url(#f13ih4vks3g1vc)" height="110.5625" id="PurchaseOrderDTO" rx="2.5" ry="2.5" style="stroke:#181818;stroke-width:0.5;" width="183" x="388.5" y="428"/><ellipse cx="414.3" cy="444" fill="#ADD1B2" rx="11" ry="11" style="stroke:#181818;stroke-width:1.0;"/><path d="M417.0656,439.875 Q417.2219,439.6563 417.4094,439.5469 Q417.5969,439.4375 417.8156,439.4375 Q418.1906,439.4375 418.425,439.7031 Q418.6594,439.9531 418.6594,440.5625 L418.6594,442.0156 Q418.6594,442.625 418.425,442.8906 Q418.1906,443.1563 417.8156,443.1563 Q417.4719,443.1563 417.2688,442.9531 Q417.0656,442.7656 416.9563,442.25 Q416.9094,441.8906 416.7219,441.7031 Q416.3938,441.3281 415.7844,441.1094 Q415.175,440.8906 414.55,440.8906 Q413.7844,440.8906 413.1438,441.2188 Q412.5188,441.5469 412.0188,442.2969 Q411.5344,443.0469 411.5344,444.0781 L411.5344,445.1719 Q411.5344,446.4063 412.425,447.2344 Q413.3156,448.0469 414.9094,448.0469 Q415.8469,448.0469 416.5031,447.7969 Q416.8938,447.6406 417.3156,447.2031 Q417.5813,446.9375 417.7219,446.8594 Q417.8781,446.7813 418.0813,446.7813 Q418.4094,446.7813 418.6594,447.0469 Q418.925,447.2969 418.925,447.6406 Q418.925,447.9844 418.5813,448.3906 Q418.0813,448.9688 417.2844,449.2969 Q416.2063,449.75 414.9094,449.75 Q413.3938,449.75 412.1906,449.125 Q411.2063,448.625 410.5188,447.5625 Q409.8313,446.4844 409.8313,445.2031 L409.8313,444.0469 Q409.8313,442.7188 410.4406,441.5781 Q411.0656,440.4219 412.1594,439.8125 Q413.2531,439.1875 414.4875,439.1875 Q415.2219,439.1875 415.8625,439.3594 Q416.5188,439.5156 417.0656,439.875 Z " fill="#000000"/><text fill="#000000" font-family="sans-serif" font-size="14" lengthAdjust="spacing" textLength="127" x="430.7" y="448.8535">PurchaseOrderDTO</text><line style="stroke:#181818;stroke-width:0.5;" x1="389.5" x2="570.5" y1="460" y2="460"/><text fill="#000000" font-family="sans-serif" font-size="14" lengthAdjust="spacing" textLength="136" x="394.5" y="476.6738">-Double orderAmount</text><text fill="#000000" font-family="sans-serif" font-size="14" lengthAdjust="spacing" textLength="171" x="394.5" y="492.3145">-DateTimedto creationDate</text><text fill="#000000" font-family="sans-serif" font-size="14" lengthAdjust="spacing" textLength="107" x="394.5" y="507.9551">-int wasAccepted</text><text fill="#000000" font-family="sans-serif" font-size="14" lengthAdjust="spacing" textLength="108" x="394.5" y="523.5957">-ClientDTO client</text><line style="stroke:#181818;stroke-width:0.5;" x1="389.5" x2="570.5" y1="530.5625" y2="530.5625"/></g><!--class Role--><g id="elem_Role"><rect codeLine="126" fill="#F1F1F1" filter="url(#f13ih4vks3g1vc)" height="79.2813" id="Role" rx="2.5" ry="2.5" style="stroke:#181818;stroke-width:0.5;" width="127" x="953.5" y="1092"/><ellipse cx="998.25" cy="1108" fill="#ADD1B2" rx="11" ry="11" style="stroke:#181818;stroke-width:1.0;"/><path d="M1001.0156,1103.875 Q1001.1719,1103.6563 1001.3594,1103.5469 Q1001.5469,1103.4375 1001.7656,1103.4375 Q1002.1406,1103.4375 1002.375,1103.7031 Q1002.6094,1103.9531 1002.6094,1104.5625 L1002.6094,1106.0156 Q1002.6094,1106.625 1002.375,1106.8906 Q1002.1406,1107.1563 1001.7656,1107.1563 Q1001.4219,1107.1563 1001.2188,1106.9531 Q1001.0156,1106.7656 1000.9063,1106.25 Q1000.8594,1105.8906 1000.6719,1105.7031 Q1000.3438,1105.3281 999.7344,1105.1094 Q999.125,1104.8906 998.5,1104.8906 Q997.7344,1104.8906 997.0938,1105.2188 Q996.4688,1105.5469 995.9688,1106.2969 Q995.4844,1107.0469 995.4844,1108.0781 L995.4844,1109.1719 Q995.4844,1110.4063 996.375,1111.2344 Q997.2656,1112.0469 998.8594,1112.0469 Q999.7969,1112.0469 1000.4531,1111.7969 Q1000.8438,1111.6406 1001.2656,1111.2031 Q1001.5313,1110.9375 1001.6719,1110.8594 Q1001.8281,1110.7813 1002.0313,1110.7813 Q1002.3594,1110.7813 1002.6094,1111.0469 Q1002.875,1111.2969 1002.875,1111.6406 Q1002.875,1111.9844 1002.5313,1112.3906 Q1002.0313,1112.9688 1001.2344,1113.2969 Q1000.1563,1113.75 998.8594,1113.75 Q997.3438,1113.75 996.1406,1113.125 Q995.1563,1112.625 994.4688,1111.5625 Q993.7813,1110.4844 993.7813,1109.2031 L993.7813,1108.0469 Q993.7813,1106.7188 994.3906,1105.5781 Q995.0156,1104.4219 996.1094,1103.8125 Q997.2031,1103.1875 998.4375,1103.1875 Q999.1719,1103.1875 999.8125,1103.3594 Q1000.4688,1103.5156 1001.0156,1103.875 Z " fill="#000000"/><text fill="#000000" font-family="sans-serif" font-size="14" lengthAdjust="spacing" textLength="29" x="1018.75" y="1112.8535">Role</text><line style="stroke:#181818;stroke-width:0.5;" x1="954.5" x2="1079.5" y1="1124" y2="1124"/><text fill="#000000" font-family="sans-serif" font-size="14" lengthAdjust="spacing" textLength="64" x="959.5" y="1140.6738">-Integer id</text><text fill="#000000" font-family="sans-serif" font-size="14" lengthAdjust="spacing" textLength="115" x="959.5" y="1156.3145">-String description</text><line style="stroke:#181818;stroke-width:0.5;" x1="954.5" x2="1079.5" y1="1163.2813" y2="1163.2813"/></g><!--class PropertyType--><g id="elem_PropertyType"><rect codeLine="131" fill="#F1F1F1" filter="url(#f13ih4vks3g1vc)" height="63.6406" id="PropertyType" rx="2.5" ry="2.5" style="stroke:#181818;stroke-width:0.5;" width="127" x="589.5" y="1262.5"/><ellipse cx="608.55" cy="1278.5" fill="#ADD1B2" rx="11" ry="11" style="stroke:#181818;stroke-width:1.0;"/><path d="M611.3156,1274.375 Q611.4719,1274.1563 611.6594,1274.0469 Q611.8469,1273.9375 612.0656,1273.9375 Q612.4406,1273.9375 612.675,1274.2031 Q612.9094,1274.4531 612.9094,1275.0625 L612.9094,1276.5156 Q612.9094,1277.125 612.675,1277.3906 Q612.4406,1277.6563 612.0656,1277.6563 Q611.7219,1277.6563 611.5188,1277.4531 Q611.3156,1277.2656 611.2063,1276.75 Q611.1594,1276.3906 610.9719,1276.2031 Q610.6438,1275.8281 610.0344,1275.6094 Q609.425,1275.3906 608.8,1275.3906 Q608.0344,1275.3906 607.3938,1275.7188 Q606.7688,1276.0469 606.2688,1276.7969 Q605.7844,1277.5469 605.7844,1278.5781 L605.7844,1279.6719 Q605.7844,1280.9063 606.675,1281.7344 Q607.5656,1282.5469 609.1594,1282.5469 Q610.0969,1282.5469 610.7531,1282.2969 Q611.1438,1282.1406 611.5656,1281.7031 Q611.8313,1281.4375 611.9719,1281.3594 Q612.1281,1281.2813 612.3313,1281.2813 Q612.6594,1281.2813 612.9094,1281.5469 Q613.175,1281.7969 613.175,1282.1406 Q613.175,1282.4844 612.8313,1282.8906 Q612.3313,1283.4688 611.5344,1283.7969 Q610.4563,1284.25 609.1594,1284.25 Q607.6438,1284.25 606.4406,1283.625 Q605.4563,1283.125 604.7688,1282.0625 Q604.0813,1280.9844 604.0813,1279.7031 L604.0813,1278.5469 Q604.0813,1277.2188 604.6906,1276.0781 Q605.3156,1274.9219 606.4094,1274.3125 Q607.5031,1273.6875 608.7375,1273.6875 Q609.4719,1273.6875 610.1125,1273.8594 Q610.7688,1274.0156 611.3156,1274.375 Z " fill="#000000"/><text fill="#000000" font-family="sans-serif" font-size="14" lengthAdjust="spacing" textLength="86" x="623.45" y="1283.3535">PropertyType</text><line style="stroke:#181818;stroke-width:0.5;" x1="590.5" x2="715.5" y1="1294.5" y2="1294.5"/><text fill="#000000" font-family="sans-serif" font-size="14" lengthAdjust="spacing" textLength="115" x="595.5" y="1311.1738">-String description</text><line style="stroke:#181818;stroke-width:0.5;" x1="590.5" x2="715.5" y1="1318.1406" y2="1318.1406"/></g><!--class PurchaseOrdersController--><g id="elem_PurchaseOrdersController"><rect codeLine="135" fill="#F1F1F1" filter="url(#f13ih4vks3g1vc)" height="188.7656" id="PurchaseOrdersController" rx="2.5" ry="2.5" style="stroke:#181818;stroke-width:0.5;" width="486" x="954" y="7"/><ellipse cx="1109.75" cy="23" fill="#ADD1B2" rx="11" ry="11" style="stroke:#181818;stroke-width:1.0;"/><path d="M1112.5156,18.875 Q1112.6719,18.6563 1112.8594,18.5469 Q1113.0469,18.4375 1113.2656,18.4375 Q1113.6406,18.4375 1113.875,18.7031 Q1114.1094,18.9531 1114.1094,19.5625 L1114.1094,21.0156 Q1114.1094,21.625 1113.875,21.8906 Q1113.6406,22.1563 1113.2656,22.1563 Q1112.9219,22.1563 1112.7188,21.9531 Q1112.5156,21.7656 1112.4063,21.25 Q1112.3594,20.8906 1112.1719,20.7031 Q1111.8438,20.3281 1111.2344,20.1094 Q1110.625,19.8906 1110,19.8906 Q1109.2344,19.8906 1108.5938,20.2188 Q1107.9688,20.5469 1107.4688,21.2969 Q1106.9844,22.0469 1106.9844,23.0781 L1106.9844,24.1719 Q1106.9844,25.4063 1107.875,26.2344 Q1108.7656,27.0469 1110.3594,27.0469 Q1111.2969,27.0469 1111.9531,26.7969 Q1112.3438,26.6406 1112.7656,26.2031 Q1113.0313,25.9375 1113.1719,25.8594 Q1113.3281,25.7813 1113.5313,25.7813 Q1113.8594,25.7813 1114.1094,26.0469 Q1114.375,26.2969 1114.375,26.6406 Q1114.375,26.9844 1114.0313,27.3906 Q1113.5313,27.9688 1112.7344,28.2969 Q1111.6563,28.75 1110.3594,28.75 Q1108.8438,28.75 1107.6406,28.125 Q1106.6563,27.625 1105.9688,26.5625 Q1105.2813,25.4844 1105.2813,24.2031 L1105.2813,23.0469 Q1105.2813,21.7188 1105.8906,20.5781 Q1106.5156,19.4219 1107.6094,18.8125 Q1108.7031,18.1875 1109.9375,18.1875 Q1110.6719,18.1875 1111.3125,18.3594 Q1111.9688,18.5156 1112.5156,18.875 Z " fill="#000000"/><text fill="#000000" font-family="sans-serif" font-size="14" lengthAdjust="spacing" textLength="166" x="1130.25" y="27.8535">PurchaseOrdersController</text><line style="stroke:#181818;stroke-width:0.5;" x1="955" x2="1439" y1="39" y2="39"/><line style="stroke:#181818;stroke-width:0.5;" x1="955" x2="1439" y1="47" y2="47"/><text fill="#000000" font-family="sans-serif" font-size="14" lengthAdjust="spacing" textLength="409" x="960" y="63.6738">+PurchaseOrdersController(propertyRepository, userRepository)</text><text fill="#000000" font-family="sans-serif" font-size="14" lengthAdjust="spacing" textLength="180" x="960" y="79.3145">-getEmployeeFromSession()</text><text fill="#000000" font-family="sans-serif" font-size="14" lengthAdjust="spacing" textLength="137" x="960" y="94.9551">-getAnnouncements()</text><text fill="#000000" font-family="sans-serif" font-size="14" lengthAdjust="spacing" textLength="198" x="960" y="110.5957">-getBuyOrders(Announcement)</text><text fill="#000000" font-family="sans-serif" font-size="14" lengthAdjust="spacing" textLength="474" x="960" y="126.2363">-createEmail(String sender, String receiver, String subject, String message)</text><text fill="#000000" font-family="sans-serif" font-size="14" lengthAdjust="spacing" textLength="286" x="960" y="141.877">-setAcceptedPurchaseOrder(purchaseOrder)</text><text fill="#000000" font-family="sans-serif" font-size="14" lengthAdjust="spacing" textLength="431" x="960" y="157.5176">-getListOldestToNewest(announcement, announcementComparator)</text><text fill="#000000" font-family="sans-serif" font-size="14" lengthAdjust="spacing" textLength="333" x="960" y="173.1582">-getPropertiesAndOffers(announcementComparator)</text><text fill="#000000" font-family="sans-serif" font-size="14" lengthAdjust="spacing" textLength="379" x="960" y="188.7988">-getOrders(saleAnnouncement, purchaseOrderComparator)</text></g><!--class PurchaseOrdersUI--><g id="elem_PurchaseOrdersUI"><rect codeLine="148" fill="#F1F1F1" filter="url(#f13ih4vks3g1vc)" height="48" id="PurchaseOrdersUI" rx="2.5" ry="2.5" style="stroke:#181818;stroke-width:0.5;" width="148" x="771" y="77.5"/><ellipse cx="786" cy="93.5" fill="#ADD1B2" rx="11" ry="11" style="stroke:#181818;stroke-width:1.0;"/><path d="M788.7656,89.375 Q788.9219,89.1563 789.1094,89.0469 Q789.2969,88.9375 789.5156,88.9375 Q789.8906,88.9375 790.125,89.2031 Q790.3594,89.4531 790.3594,90.0625 L790.3594,91.5156 Q790.3594,92.125 790.125,92.3906 Q789.8906,92.6563 789.5156,92.6563 Q789.1719,92.6563 788.9688,92.4531 Q788.7656,92.2656 788.6563,91.75 Q788.6094,91.3906 788.4219,91.2031 Q788.0938,90.8281 787.4844,90.6094 Q786.875,90.3906 786.25,90.3906 Q785.4844,90.3906 784.8438,90.7188 Q784.2188,91.0469 783.7188,91.7969 Q783.2344,92.5469 783.2344,93.5781 L783.2344,94.6719 Q783.2344,95.9063 784.125,96.7344 Q785.0156,97.5469 786.6094,97.5469 Q787.5469,97.5469 788.2031,97.2969 Q788.5938,97.1406 789.0156,96.7031 Q789.2813,96.4375 789.4219,96.3594 Q789.5781,96.2813 789.7813,96.2813 Q790.1094,96.2813 790.3594,96.5469 Q790.625,96.7969 790.625,97.1406 Q790.625,97.4844 790.2813,97.8906 Q789.7813,98.4688 788.9844,98.7969 Q787.9063,99.25 786.6094,99.25 Q785.0938,99.25 783.8906,98.625 Q782.9063,98.125 782.2188,97.0625 Q781.5313,95.9844 781.5313,94.7031 L781.5313,93.5469 Q781.5313,92.2188 782.1406,91.0781 Q782.7656,89.9219 783.8594,89.3125 Q784.9531,88.6875 786.1875,88.6875 Q786.9219,88.6875 787.5625,88.8594 Q788.2188,89.0156 788.7656,89.375 Z " fill="#000000"/><text fill="#000000" font-family="sans-serif" font-size="14" lengthAdjust="spacing" textLength="116" x="800" y="98.3535">PurchaseOrdersUI</text><line style="stroke:#181818;stroke-width:0.5;" x1="772" x2="918" y1="109.5" y2="109.5"/><line style="stroke:#181818;stroke-width:0.5;" x1="772" x2="918" y1="117.5" y2="117.5"/></g><!--link ApplicationSession to ApplicationSession--><g id="link_ApplicationSession_ApplicationSession"><path codeLine="151" d="M1696.66,76.99 C1716.5,78.44 1731.5,86.61 1731.5,101.5 C1731.5,116.39 1722.484,124.1227 1702.644,125.5727 " fill="none" id="ApplicationSession-to-ApplicationSession" style="stroke:#181818;stroke-width:1.0;"/><polygon fill="#181818" points="1696.66,126.01,1705.9276,129.3433,1701.6467,125.6455,1705.3445,121.3646,1696.66,126.01" style="stroke:#181818;stroke-width:1.0;"/><text fill="#000000" font-family="sans-serif" font-size="13" lengthAdjust="spacing" textLength="49" x="1737.5" y="106.2686">instance</text></g><!--link PurchaseOrdersUI to PurchaseOrdersController--><g id="link_PurchaseOrdersUI_PurchaseOrdersController"><path codeLine="152" d="M919.31,101.5 C933.32,101.5 940.04,101.5 947.96,101.5 " fill="none" id="PurchaseOrdersUI-to-PurchaseOrdersController" style="stroke:#181818;stroke-width:1.0;stroke-dasharray:7.0,7.0;"/><polygon fill="#181818" points="953.96,101.5,944.96,97.5,948.96,101.5,944.96,105.5,953.96,101.5" style="stroke:#181818;stroke-width:1.0;"/></g><!--link ApplicationSession to UserSession--><g id="link_ApplicationSession_UserSession"><path codeLine="153" d="M1627.36,141.25 C1634.82,186.68 1646.0576,255.1693 1652.9276,296.9993 " fill="none" id="ApplicationSession-to-UserSession" style="stroke:#181818;stroke-width:1.0;"/><polygon fill="#181818" points="1653.9,302.92,1656.3885,293.3907,1653.0897,297.9861,1648.4943,294.6872,1653.9,302.92" style="stroke:#181818;stroke-width:1.0;"/><text fill="#000000" font-family="sans-serif" font-size="13" lengthAdjust="spacing" textLength="72" x="1644" y="238.7686">userSession</text><text fill="#000000" font-family="sans-serif" font-size="13" lengthAdjust="spacing" textLength="7" x="1645.0188" y="292.2364">1</text></g><!--link PurchaseOrdersController to ApplicationSession--><g id="link_PurchaseOrdersController_ApplicationSession"><path codeLine="154" d="M1440.3,101.5 C1462.58,101.5 1479.67,101.5 1479.67,101.5 C1479.67,101.5 1505.77,101.5 1539.37,101.5 " fill="none" id="PurchaseOrdersController-to-ApplicationSession" style="stroke:#181818;stroke-width:1.0;stroke-dasharray:7.0,7.0;"/><polygon fill="#181818" points="1545.37,101.5,1536.37,97.5,1540.37,101.5,1536.37,105.5,1545.37,101.5" style="stroke:#181818;stroke-width:1.0;"/></g><!--link PurchaseOrdersController to UserSession--><g id="link_PurchaseOrdersController_UserSession"><path codeLine="155" d="M1440.17,182.37 C1512.58,206.15 1573,226 1573,226 C1573,226 1604.9919,266.1768 1630.3919,298.0668 " fill="none" id="PurchaseOrdersController-to-UserSession" style="stroke:#181818;stroke-width:1.0;stroke-dasharray:7.0,7.0;"/><polygon fill="#181818" points="1634.13,302.76,1631.6517,293.2281,1631.0149,298.849,1625.394,298.2122,1634.13,302.76" style="stroke:#181818;stroke-width:1.0;"/></g><!--link PurchaseOrdersController to Repositories--><g id="link_PurchaseOrdersController_Repositories"><path codeLine="156" d="M1079.06,196.33 C1047.08,221.77 1017.9457,244.945 988.7657,268.155 " fill="none" id="PurchaseOrdersController-to-Repositories" style="stroke:#181818;stroke-width:1.0;stroke-dasharray:7.0,7.0;"/><polygon fill="#181818" points="984.07,271.89,993.6036,269.418,987.9831,268.7775,988.6236,263.157,984.07,271.89" style="stroke:#181818;stroke-width:1.0;"/><text fill="#000000" font-family="sans-serif" font-size="13" lengthAdjust="spacing" textLength="67" x="1035" y="238.7686">repositories</text></g><!--link Repositories to Repositories--><g id="link_Repositories_Repositories"><path codeLine="157" d="M1013.13,317.15 C1033.56,319.28 1048,325.23 1048,335 C1048,344.77 1039.5277,350.0978 1019.0977,352.2278 " fill="none" id="Repositories-to-Repositories" style="stroke:#181818;stroke-width:1.0;"/><polygon fill="#181818" points="1013.13,352.85,1022.4963,355.8952,1018.103,352.3315,1021.6667,347.9383,1013.13,352.85" style="stroke:#181818;stroke-width:1.0;"/><text fill="#000000" font-family="sans-serif" font-size="13" lengthAdjust="spacing" textLength="49" x="1054" y="339.7686">instance</text></g><!--link PurchaseOrdersController to Agent--><g id="link_PurchaseOrdersController_Agent"><path codeLine="158" d="M1332.4,196.17 C1389.06,235.37 1442,272 1442,272 C1442,272 1514,569 1514,569 C1514,569 1514,664 1514,664 C1514,664 1433,883 1433,883 C1433,883 1266.6707,928.1189 1191.3707,948.5489 " fill="none" id="PurchaseOrdersController-to-Agent" style="stroke:#181818;stroke-width:1.0;"/><polygon fill="#181818" points="1185.58,950.12,1195.3134,951.6238,1190.4055,948.8108,1193.2186,943.9029,1185.58,950.12" style="stroke:#181818;stroke-width:1.0;"/><text fill="#000000" font-family="sans-serif" font-size="13" lengthAdjust="spacing" textLength="34" x="1507" y="488.2686">Agent</text></g><!--link Agent to Employee--><g id="link_Agent_Employee"><path codeLine="159" d="M1145.33,984.78 C1131.66,1040.89 1098,1179 1098,1179 C1098,1179 1060.5251,1231.9717 1036.8551,1265.4317 " fill="none" id="Agent-to-Employee" style="stroke:#181818;stroke-width:1.0;"/><polygon fill="#181818" points="1033.39,1270.33,1041.8532,1265.2927,1036.2776,1266.2481,1035.3221,1260.6725,1033.39,1270.33" style="stroke:#181818;stroke-width:1.0;"/><text fill="#000000" font-family="sans-serif" font-size="13" lengthAdjust="spacing" textLength="67" x="1121" y="1136.2686">implements</text></g><!--reverse link Address to Person--><g id="link_Address_Person"><path codeLine="160" d="M845,1185.07 C845,1209.12 845,1232.12 845,1254.91 " fill="none" id="Address-backto-Person" style="stroke:#181818;stroke-width:1.0;"/><polygon fill="#181818" points="845,1179.07,841,1188.07,845,1184.07,849,1188.07,845,1179.07" style="stroke:#181818;stroke-width:1.0;"/><text fill="#000000" font-family="sans-serif" font-size="13" lengthAdjust="spacing" textLength="39" x="846" y="1221.7686">has an</text><text fill="#000000" font-family="sans-serif" font-size="13" lengthAdjust="spacing" textLength="7" x="837.5078" y="1198.5548">1</text><text fill="#000000" font-family="sans-serif" font-size="13" lengthAdjust="spacing" textLength="7" x="837.3547" y="1244.1109">1</text></g><!--reverse link Person to Employee--><g id="link_Person_Employee"><path codeLine="161" d="M909.55,1294.5 C909.55,1294.5 959.67,1294.5 959.67,1294.5 C959.67,1294.5 963.83,1294.5 969.92,1294.5 " fill="none" id="Person-backto-Employee" style="stroke:#181818;stroke-width:1.0;"/><polygon fill="none" points="891.55,1294.5,909.55,1300.5,909.55,1288.5,891.55,1294.5" style="stroke:#181818;stroke-width:1.0;"/></g><!--reverse link Property to Address--><g id="link_Property_Address"><path codeLine="162" d="M702.09,1131.5 C724.42,1131.5 746.31,1131.5 771.9,1131.5 " fill="none" id="Property-backto-Address" style="stroke:#181818;stroke-width:1.0;"/><polygon fill="#181818" points="696.09,1131.5,705.09,1135.5,701.09,1131.5,705.09,1127.5,696.09,1131.5" style="stroke:#181818;stroke-width:1.0;"/><text fill="#000000" font-family="sans-serif" font-size="13" lengthAdjust="spacing" textLength="39" x="714.5" y="1125.2686">has an</text><text fill="#000000" font-family="sans-serif" font-size="13" lengthAdjust="spacing" textLength="7" x="704.0977" y="1128.1104">1</text><text fill="#000000" font-family="sans-serif" font-size="13" lengthAdjust="spacing" textLength="7" x="757.0006" y="1128.5777">1</text></g><!--link PurchaseOrdersController to purchaseOrderRepository--><g id="link_PurchaseOrdersController_purchaseOrderRepository"><path codeLine="163" d="M953.66,190.01 C943.19,193.77 937,196 937,196 C937,196 6,272 6,272 C6,272 6,398 6,398 C6,398 195.9131,520.9397 288.8231,581.0797 " fill="none" id="PurchaseOrdersController-to-purchaseOrderRepository" style="stroke:#181818;stroke-width:1.0;stroke-dasharray:7.0,7.0;"/><polygon fill="#181818" points="293.86,584.34,288.4782,576.0916,289.6626,581.6231,284.1311,582.8074,293.86,584.34" style="stroke:#181818;stroke-width:1.0;"/><text fill="#000000" font-family="sans-serif" font-size="13" lengthAdjust="spacing" textLength="147" x="7" y="339.7686">purchaseOrderRepository</text></g><!--link Repositories to purchaseOrderRepository--><g id="link_Repositories_purchaseOrderRepository"><path codeLine="164" d="M798.98,389.51 C788.7,394.65 782,398 782,398 C782,398 716,428 716,428 C716,428 589,539 589,539 C589,539 514.9412,561.9344 446.0612,583.2744 " fill="none" id="Repositories-to-purchaseOrderRepository" style="stroke:#181818;stroke-width:1.0;"/><polygon fill="#181818" points="440.33,585.05,450.1106,586.2074,445.106,583.5703,447.7431,578.5657,440.33,585.05" style="stroke:#181818;stroke-width:1.0;"/><text fill="#000000" font-family="sans-serif" font-size="13" lengthAdjust="spacing" textLength="7" x="448.1264" y="579.9085">1</text></g><!--link Repositories to announcementRepository--><g id="link_Repositories_announcementRepository"><path codeLine="165" d="M848.74,398.03 C795.45,455.77 722.2697,535.0412 680.8597,579.9012 " fill="none" id="Repositories-to-announcementRepository" style="stroke:#181818;stroke-width:1.0;"/><polygon fill="#181818" points="676.79,584.31,685.8338,580.41,680.1814,580.636,679.9554,574.9837,676.79,584.31" style="stroke:#181818;stroke-width:1.0;"/><text fill="#000000" font-family="sans-serif" font-size="13" lengthAdjust="spacing" textLength="7" x="675.3222" y="573.6023">1</text></g><!--link announcementRepository to Announcement--><g id="link_announcementRepository_Announcement"><path codeLine="166" d="M648.46,648.76 C649.34,709.11 651.1919,835.9706 652.2319,906.8306 " fill="none" id="announcementRepository-to-Announcement" style="stroke:#181818;stroke-width:1.0;"/><polygon fill="#181818" points="652.32,912.83,656.1875,903.7723,652.2466,907.8305,648.1884,903.8897,652.32,912.83" style="stroke:#181818;stroke-width:1.0;"/><text fill="#000000" font-family="sans-serif" font-size="13" lengthAdjust="spacing" textLength="5" x="646.8331" y="902.2733">*</text></g><!--link Announcement to Property--><g id="link_Announcement_Property"><path codeLine="167" d="M653,1008.13 C653,1040.37 653,1075.89 653,1101.33 " fill="none" id="Announcement-to-Property" style="stroke:#181818;stroke-width:1.0;"/><polygon fill="#181818" points="653,1107.33,657,1098.33,653,1102.33,649,1098.33,653,1107.33" style="stroke:#181818;stroke-width:1.0;"/><text fill="#000000" font-family="sans-serif" font-size="13" lengthAdjust="spacing" textLength="47" x="654" y="1050.7686">refers to</text><text fill="#000000" font-family="sans-serif" font-size="13" lengthAdjust="spacing" textLength="7" x="645.5078" y="1027.6232">1</text><text fill="#000000" font-family="sans-serif" font-size="13" lengthAdjust="spacing" textLength="7" x="645.0594" y="1096.792">1</text></g><!--reverse link Announcement to PurchaseOrder--><g id="link_Announcement_PurchaseOrder"><path codeLine="168" d="M604.7336,1012.4858 C582.4336,1036.0258 559.59,1060.17 537.28,1083.73 " fill="none" id="Announcement-backto-PurchaseOrder" style="stroke:#181818;stroke-width:1.0;"/><polygon fill="#181818" points="608.86,1008.13,599.7666,1011.9128,605.4214,1011.7598,605.5743,1017.4146,608.86,1008.13" style="stroke:#181818;stroke-width:1.0;"/><text fill="#000000" font-family="sans-serif" font-size="13" lengthAdjust="spacing" textLength="47" x="578" y="1050.7686">refers to</text><text fill="#000000" font-family="sans-serif" font-size="13" lengthAdjust="spacing" textLength="7" x="595.1606" y="1027.6232">1</text><text fill="#000000" font-family="sans-serif" font-size="13" lengthAdjust="spacing" textLength="7" x="536.5244" y="1073.158">1</text></g><!--link purchaseOrderRepository to PurchaseOrder--><g id="link_purchaseOrderRepository_PurchaseOrder"><path codeLine="169" d="M350.89,648.54 C379.45,748.26 467,1054 467,1054 C467,1054 469.7774,1062.1898 475.1974,1078.1198 " fill="none" id="purchaseOrderRepository-to-PurchaseOrder" style="stroke:#181818;stroke-width:1.0;"/><polygon fill="#181818" points="477.13,1083.8,478.0179,1073.9912,475.5195,1079.0665,470.4442,1076.5681,477.13,1083.8" style="stroke:#181818;stroke-width:1.0;"/><text fill="#000000" font-family="sans-serif" font-size="13" lengthAdjust="spacing" textLength="5" x="469.3171" y="1073.2387">*</text></g><!--link PurchaseOrdersController to announcementRepository--><g id="link_PurchaseOrdersController_announcementRepository"><path codeLine="170" d="M1169.35,196.4 C1143.88,282.93 1110,398 1110,398 C1110,398 847.3685,521.6444 719.6185,581.7844 " fill="none" id="PurchaseOrdersController-to-announcementRepository" style="stroke:#181818;stroke-width:1.0;stroke-dasharray:7.0,7.0;"/><polygon fill="#181818" points="714.19,584.34,724.0365,584.1257,718.7138,582.2104,720.6291,576.8876,714.19,584.34" style="stroke:#181818;stroke-width:1.0;"/><text fill="#000000" font-family="sans-serif" font-size="13" lengthAdjust="spacing" textLength="130" x="1147" y="339.7686">AnnouncementMapper</text></g><!--link announcementRepository to AnnouncementMapper--><g id="link_announcementRepository_AnnouncementMapper"><path codeLine="171" d="M745.17,616.5 C792.25,616.5 845.55,616.5 905.75,616.5 " fill="none" id="announcementRepository-to-AnnouncementMapper" style="stroke:#181818;stroke-width:1.0;"/><polygon fill="#181818" points="911.75,616.5,902.75,612.5,906.75,616.5,902.75,620.5,911.75,616.5" style="stroke:#181818;stroke-width:1.0;"/><text fill="#000000" font-family="sans-serif" font-size="13" lengthAdjust="spacing" textLength="130" x="763.5" y="610.2686">AnnouncementMapper</text></g><!--link PurchaseOrdersController to AnnouncementMapper--><g id="link_PurchaseOrdersController_AnnouncementMapper"><path codeLine="172" d="M1255.03,196.17 C1279.31,235.37 1302,272 1302,272 C1302,272 1302,398 1302,398 C1302,398 1256.2851,499.4598 1227.4851,563.3698 " fill="none" id="PurchaseOrdersController-to-AnnouncementMapper" style="stroke:#181818;stroke-width:1.0;stroke-dasharray:7.0,7.0;"/><polygon fill="#181818" points="1225.02,568.84,1232.3644,562.278,1227.0742,564.2815,1225.0708,558.9913,1225.02,568.84" style="stroke:#181818;stroke-width:1.0;"/><text fill="#000000" font-family="sans-serif" font-size="13" lengthAdjust="spacing" textLength="130" x="1303" y="339.7686">AnnouncementMapper</text></g><!--link AnnouncementMapper to AnnouncementDTO--><g id="link_AnnouncementMapper_AnnouncementDTO"><path codeLine="173" d="M1174.48,664.4 C1168.66,673.64 1165.5644,678.561 1159.1744,688.721 " fill="none" id="AnnouncementMapper-to-AnnouncementDTO" style="stroke:#181818;stroke-width:1.0;stroke-dasharray:7.0,7.0;"/><polygon fill="#181818" points="1155.98,693.8,1164.1575,688.3111,1158.642,689.5675,1157.3856,684.052,1155.98,693.8" style="stroke:#181818;stroke-width:1.0;"/></g><!--link AnnouncementDTO to Announcement--><g id="link_AnnouncementDTO_Announcement"><path codeLine="174" d="M852.6,883.08 C817.07,896.68 787.9238,907.8458 757.6338,919.4358 " fill="none" id="AnnouncementDTO-to-Announcement" style="stroke:#181818;stroke-width:1.0;"/><polygon fill="#181818" points="752.03,921.58,761.8651,922.0996,756.6998,919.7932,759.0062,914.6278,752.03,921.58" style="stroke:#181818;stroke-width:1.0;"/></g><!--link Announcement to Agent--><g id="link_Announcement_Agent"><path codeLine="175" d="M752.44,960.5 C787.79,960.5 819,960.5 819,960.5 C819,960.5 985,960.5 985,960.5 C985,960.5 1061.52,960.5 1110.2,960.5 " fill="none" id="Announcement-to-Agent" style="stroke:#181818;stroke-width:1.0;"/><polygon fill="#181818" points="1116.2,960.5,1107.2,956.5,1111.2,960.5,1107.2,964.5,1116.2,960.5" style="stroke:#181818;stroke-width:1.0;"/></g><!--link PurchaseOrdersController to PurchaseOrderMapper--><g id="link_PurchaseOrdersController_PurchaseOrderMapper"><path codeLine="176" d="M953.66,190.01 C943.19,193.77 937,196 937,196 C937,196 768.036,245.7164 631.886,285.7764 " fill="none" id="PurchaseOrdersController-to-PurchaseOrderMapper" style="stroke:#181818;stroke-width:1.0;stroke-dasharray:7.0,7.0;"/><polygon fill="#181818" points="626.13,287.47,635.8931,288.7669,630.9267,286.0587,633.6349,281.0922,626.13,287.47" style="stroke:#181818;stroke-width:1.0;"/><text fill="#000000" font-family="sans-serif" font-size="13" lengthAdjust="spacing" textLength="130" x="824" y="238.7686">PurchaseOrderMapper</text></g><!--reverse link Person to Client--><g id="link_Person_Client"><path codeLine="177" d="M781.5102,1320.5866 C718.5902,1345.4566 624.87,1382.49 569.17,1404.5 " fill="none" id="Person-backto-Client" style="stroke:#181818;stroke-width:1.0;"/><polygon fill="none" points="798.25,1313.97,779.3047,1315.0067,783.7158,1326.1666,798.25,1313.97" style="stroke:#181818;stroke-width:1.0;"/></g><!--link PurchaseOrder to Client--><g id="link_PurchaseOrder_Client"><path codeLine="178" d="M499.84,1179.01 C508.95,1240.94 523.847,1342.1939 530.737,1389.0439 " fill="none" id="PurchaseOrder-to-Client" style="stroke:#181818;stroke-width:1.0;"/><polygon fill="#181818" points="531.61,1394.98,534.2579,1385.4938,530.8825,1390.0332,526.3431,1386.6578,531.61,1394.98" style="stroke:#181818;stroke-width:1.0;"/><text fill="#000000" font-family="sans-serif" font-size="13" lengthAdjust="spacing" textLength="20" x="479.3759" y="1198.8289">0..*</text><text fill="#000000" font-family="sans-serif" font-size="13" lengthAdjust="spacing" textLength="7" x="522.6722" y="1384.0978">1</text></g><!--link PurchaseOrderMapper to PurchaseOrderDTO--><g id="link_PurchaseOrderMapper_PurchaseOrderDTO"><path codeLine="179" d="M471.83,382.76 C473,397.08 473.8071,406.9803 475.0271,421.7803 " fill="none" id="PurchaseOrderMapper-to-PurchaseOrderDTO" style="stroke:#181818;stroke-width:1.0;stroke-dasharray:7.0,7.0;"/><polygon fill="#181818" points="475.52,427.76,478.7671,418.4618,475.1092,422.7769,470.7941,419.119,475.52,427.76" style="stroke:#181818;stroke-width:1.0;"/></g><!--link PurchaseOrderDTO to PurchaseOrder--><g id="link_PurchaseOrderDTO_PurchaseOrder"><path codeLine="180" d="M481.1,539.02 C483.6,663.58 489.5891,961.2612 491.9391,1077.8512 " fill="none" id="PurchaseOrderDTO-to-PurchaseOrder" style="stroke:#181818;stroke-width:1.0;"/><polygon fill="#181818" points="492.06,1083.85,495.8778,1074.7712,491.9592,1078.851,487.8794,1074.9324,492.06,1083.85" style="stroke:#181818;stroke-width:1.0;"/></g><!--link Property to PropertyType--><g id="link_Property_PropertyType"><path codeLine="181" d="M653,1155.57 C653,1183.65 653,1225.2 653,1256.47 " fill="none" id="Property-to-PropertyType" style="stroke:#181818;stroke-width:1.0;"/><polygon fill="#181818" points="653,1262.47,657,1253.47,653,1257.47,649,1253.47,653,1262.47" style="stroke:#181818;stroke-width:1.0;"/><text fill="#000000" font-family="sans-serif" font-size="13" lengthAdjust="spacing" textLength="5" x="647.3594" y="1175.3673">*</text><text fill="#000000" font-family="sans-serif" font-size="13" lengthAdjust="spacing" textLength="7" x="645.2344" y="1251.7973">1</text></g><!--reverse link Role to Employee--><g id="link_Role_Employee"><path codeLine="182" d="M1017,1177.06 C1017,1207.95 1017,1244.26 1017,1270.19 " fill="none" id="Role-backto-Employee" style="stroke:#181818;stroke-width:1.0;"/><polygon fill="#181818" points="1017,1171.06,1013,1180.06,1017,1176.06,1021,1180.06,1017,1171.06" style="stroke:#181818;stroke-width:1.0;"/><text fill="#000000" font-family="sans-serif" font-size="13" lengthAdjust="spacing" textLength="32" x="1018" y="1221.7686">has a</text><text fill="#000000" font-family="sans-serif" font-size="13" lengthAdjust="spacing" textLength="7" x="1009.3766" y="1191.1436">1</text><text fill="#000000" font-family="sans-serif" font-size="13" lengthAdjust="spacing" textLength="5" x="1011.3281" y="1259.6143">*</text></g><!--SRC=[fLPBRziu4BxpLn2vn4xie7ir0WEktG81katGEBUzqDB4PYk914arwthtl-zG92LIbf8KwuCbpUFZl3cN-WUl95EifAMeH7PGeWHgL0sauqYM_M1xU3J70gY2pB1gNyG2-i1oySAhVL-pu1MOemGgHN6q7-HoW2cK4OH4Qbd1j5uPe_YkDd2NYUgH_mBwWP3B0fuDDO8glZyOcdDh3XSL8OqENKbPy8nPqYDeRJadGl5tJRL1SaRtOEugVAyoc4mz2sdhMYceZ5T2phy1yac3wcEXWYL_AXald6muFyyLoZevEgUFw0E6HHi5O3ppZCSC1DfTPM0FYlxYSYroY90VG6bHEU1Mjs8bXZHLbIWjCQHVwt87Ad2zWc5_Utf21kj84FqYa28FeW8lseRYKoaBSGGuaOwsgYfHOp1BZ5wmReCURJaMKiuC2x0RKU-mVZ9Hbjn5Cw4NN1l87nJFm3C-rXehHEkjhP5TzE4HWyCsRvjQDKcF0lODfD3S2CL1qs1PJ8pJtvK4NIH2dSYgDWSyoLTNAtECOMIjiWFJSAzoKCCYSRmIYJQY8o0qAhwFzR7XMXyk7LKMB7Cg4s7_LoKUOsPKAY51cUC6TAQujBPFGqfOdjy_FmUDbloJ5Hmp1mclDOyDEd0Qzb37ZZt4ZhKfyVcFZFOCNXdwmlGgoq1YQVHhArFGPC8IeZEykmZllCaTl6mAAo4n14WfENTLi1Lhj5q5-Iz8fhSF1s74NZ5vMDhkyE_QoOHZcrgLqOTZnmqH6RikE9w3faO3PEyemmts9vEo2TrrJDrixt4aulyafYQ9cf9hwyLjJsrvbY-BSYQvJB3eky6sOcF4nC-O6CAgJqTyHAHG6aqmh7VCllGAmDBpC3h_vtYnMCc4SI8XgvOTaah6Pq_J0JrN9gaFipFpPpJlMpxxgthLkjcWOJCwP5GB7mLWh2Mxwah8NNcb3PpCgL0JVSscA19YLs89UPdYqTy0JCeiGN5rDkojTUlD6HIobUFAaGoSLqQKwseBdpLlKPr_4tZAYRJbmtCoztRdtNm-dsOswwStH9EGh0NEBr4KxPoz7XMOX0BgXlcCrZg-UgRUNOnyM04-uwBOBKijkp_xMqPtOwsIiUG4cj22MwV2MWGLYi_2Xe9x7l2V4K7Nk- -u-xNV9Hg3BHOGDThYiv8uFkbLRMkWBPNx0aDhjk8hlE1p4a-iMJA_rgAqcoh69aBmoSAbOLMvUrLFtbJoGT6iW5LoN69dh1gjX4b6d-xSHNA-0jFvSc0nnaM7-ws7d27TB4VhPV00FE7YZujuLqRuEjgSHylpPiYsLyHH_kcTkCa6kC0IYjQwX3S_ans9J8HlNNQNzS8zYVj2SkWHYuElhXc8t_wREDtEvytJR_KeY6TWXH7_VVlFl4KXxKhZD9rYGEiqnoDsinpTAHTZd5w0V7v_ItXuKIJ3PATrTP6i0YJPPoncm6vZOjDgEmrlg4GwYd9wQyKAOr7nfYIARmHunAl5mFes6e7bqAutYF1gUxmNP42kfurt6EalcZqhqnI5ddZTmA6bOp54ZTfXxfVb5FdYmytDLLiLGnATO_tBdvnj0_DbF-LjvtM7n5SoiVTvMsbN5r7ZDrs9a_e_]--></g></svg>