<?xml version="1.0" encoding="us-ascii" standalone="no"?><svg xmlns="http://www.w3.org/2000/svg" xmlns:xlink="http://www.w3.org/1999/xlink" contentStyleType="text/css" height="1252px" preserveAspectRatio="none" style="width:1189px;height:1252px;background:#FFFFFF;" version="1.1" viewBox="0 0 1189 1252" width="1189px" zoomAndPan="magnify"><defs/><g><!--class Agent--><g id="elem_Agent"><rect codeLine="14" fill="#F1F1F1" height="36.6211" id="Agent" rx="2.5" ry="2.5" style="stroke:#181818;stroke-width:0.5;" width="43" x="768" y="1209"/><text fill="#000000" font-family="sans-serif" font-size="14" lengthAdjust="spacing" textLength="37" x="771" y="1229.1074">Agent</text><line style="stroke:#181818;stroke-width:0.5;" x1="769" x2="810" y1="1237.6211" y2="1237.6211"/></g><!--class AnnouncementRequest--><g id="elem_AnnouncementRequest"><rect codeLine="19" fill="#F1F1F1" height="73.8633" id="AnnouncementRequest" rx="2.5" ry="2.5" style="stroke:#181818;stroke-width:0.5;" width="154" x="752.5" y="314"/><text fill="#000000" font-family="sans-serif" font-size="14" lengthAdjust="spacing" textLength="148" x="755.5" y="334.1074">AnnouncementRequest</text><line style="stroke:#181818;stroke-width:0.5;" x1="753.5" x2="905.5" y1="342.6211" y2="342.6211"/><text fill="#000000" font-family="sans-serif" font-size="14" lengthAdjust="spacing" textLength="79" x="758.5" y="361.7285">rentDuration</text><text fill="#000000" font-family="sans-serif" font-size="14" lengthAdjust="spacing" textLength="28" x="758.5" y="380.3496">date</text></g><!--class Store--><g id="elem_Store"><rect codeLine="26" fill="#F1F1F1" height="129.7266" id="Store" rx="2.5" ry="2.5" style="stroke:#181818;stroke-width:0.5;" width="101" x="621" y="847"/><text fill="#000000" font-family="sans-serif" font-size="14" lengthAdjust="spacing" textLength="34" x="654.5" y="867.1074">Store</text><line style="stroke:#181818;stroke-width:0.5;" x1="622" x2="721" y1="875.6211" y2="875.6211"/><text fill="#000000" font-family="sans-serif" font-size="14" lengthAdjust="spacing" textLength="11" x="627" y="894.7285">id</text><text fill="#000000" font-family="sans-serif" font-size="14" lengthAdjust="spacing" textLength="73" x="627" y="913.3496">designation</text><text fill="#000000" font-family="sans-serif" font-size="14" lengthAdjust="spacing" textLength="51" x="627" y="931.9707">address</text><text fill="#000000" font-family="sans-serif" font-size="14" lengthAdjust="spacing" textLength="33" x="627" y="950.5918">email</text><text fill="#000000" font-family="sans-serif" font-size="14" lengthAdjust="spacing" textLength="89" x="627" y="969.2129">phoneNumber</text></g><!--class Announcement--><g id="elem_Announcement"><rect codeLine="39" fill="#F1F1F1" height="92.4844" id="Announcement" rx="2.5" ry="2.5" style="stroke:#181818;stroke-width:0.5;" width="101" x="847" y="476.5"/><text fill="#000000" font-family="sans-serif" font-size="14" lengthAdjust="spacing" textLength="95" x="850" y="496.6074">Announcement</text><line style="stroke:#181818;stroke-width:0.5;" x1="848" x2="947" y1="505.1211" y2="505.1211"/><text fill="#000000" font-family="sans-serif" font-size="14" lengthAdjust="spacing" textLength="65" x="853" y="524.2285">listedPrice</text><text fill="#000000" font-family="sans-serif" font-size="14" lengthAdjust="spacing" textLength="79" x="853" y="542.8496">rentDuration</text><text fill="#000000" font-family="sans-serif" font-size="14" lengthAdjust="spacing" textLength="28" x="853" y="561.4707">date</text></g><!--class Inhabitable--><g id="elem_Inhabitable"><rect codeLine="45" fill="#F1F1F1" height="111.1055" id="Inhabitable" rx="2.5" ry="2.5" style="stroke:#181818;stroke-width:0.5;" width="121" x="195" y="657"/><text fill="#000000" font-family="sans-serif" font-size="14" lengthAdjust="spacing" textLength="69" x="221" y="677.1074">Inhabitable</text><line style="stroke:#181818;stroke-width:0.5;" x1="196" x2="315" y1="685.6211" y2="685.6211"/><text fill="#000000" font-family="sans-serif" font-size="14" lengthAdjust="spacing" textLength="105" x="201" y="704.7285">bedroomNumber</text><text fill="#000000" font-family="sans-serif" font-size="14" lengthAdjust="spacing" textLength="109" x="201" y="723.3496">bathroomNumber</text><text fill="#000000" font-family="sans-serif" font-size="14" lengthAdjust="spacing" textLength="94" x="201" y="741.9707">parkingSpaces</text><text fill="#000000" font-family="sans-serif" font-size="14" lengthAdjust="spacing" textLength="90" x="201" y="760.5918">hasEquipment</text></g><!--class House--><g id="elem_House"><rect codeLine="52" fill="#F1F1F1" height="92.4844" id="House" rx="2.5" ry="2.5" style="stroke:#181818;stroke-width:0.5;" width="98" x="206.5" y="866"/><text fill="#000000" font-family="sans-serif" font-size="14" lengthAdjust="spacing" textLength="40" x="235.5" y="886.1074">House</text><line style="stroke:#181818;stroke-width:0.5;" x1="207.5" x2="303.5" y1="894.6211" y2="894.6211"/><text fill="#000000" font-family="sans-serif" font-size="14" lengthAdjust="spacing" textLength="86" x="212.5" y="913.7285">hasBasement</text><text fill="#000000" font-family="sans-serif" font-size="14" lengthAdjust="spacing" textLength="47" x="212.5" y="932.3496">hasLoft</text><text fill="#000000" font-family="sans-serif" font-size="14" lengthAdjust="spacing" textLength="82" x="212.5" y="950.9707">sunExposure</text></g><!--class Address--><g id="elem_Address"><rect codeLine="59" fill="#F1F1F1" height="92.4844" id="Address" rx="2.5" ry="2.5" style="stroke:#181818;stroke-width:0.5;" width="100" x="736.5" y="1056"/><text fill="#000000" font-family="sans-serif" font-size="14" lengthAdjust="spacing" textLength="52" x="760.5" y="1076.1074">Address</text><line style="stroke:#181818;stroke-width:0.5;" x1="737.5" x2="835.5" y1="1084.6211" y2="1084.6211"/><text fill="#000000" font-family="sans-serif" font-size="14" lengthAdjust="spacing" textLength="88" x="742.5" y="1103.7285">streetAddress</text><text fill="#000000" font-family="sans-serif" font-size="14" lengthAdjust="spacing" textLength="31" x="742.5" y="1122.3496">state</text><text fill="#000000" font-family="sans-serif" font-size="14" lengthAdjust="spacing" textLength="51" x="742.5" y="1140.9707">zipCode</text></g><!--class BusinessType--><g id="elem_BusinessType"><rect codeLine="68" fill="#F1F1F1" height="55.2422" id="BusinessType" rx="2.5" ry="2.5" style="stroke:#181818;stroke-width:0.5;" width="95" x="717" y="495"/><text fill="#000000" font-family="sans-serif" font-size="14" lengthAdjust="spacing" textLength="89" x="720" y="515.1074">BusinessType</text><line style="stroke:#181818;stroke-width:0.5;" x1="718" x2="811" y1="523.6211" y2="523.6211"/><text fill="#000000" font-family="sans-serif" font-size="14" lengthAdjust="spacing" textLength="69" x="723" y="542.7285">description</text></g><!--class PropertyType--><g id="elem_PropertyType"><rect codeLine="72" fill="#F1F1F1" height="55.2422" id="PropertyType" rx="2.5" ry="2.5" style="stroke:#181818;stroke-width:0.5;" width="92" x="340.5" y="884.5"/><text fill="#000000" font-family="sans-serif" font-size="14" lengthAdjust="spacing" textLength="86" x="343.5" y="904.6074">PropertyType</text><line style="stroke:#181818;stroke-width:0.5;" x1="341.5" x2="431.5" y1="913.1211" y2="913.1211"/><text fill="#000000" font-family="sans-serif" font-size="14" lengthAdjust="spacing" textLength="69" x="346.5" y="932.2285">description</text></g><!--class Property--><g id="elem_Property"><rect codeLine="75" fill="#F1F1F1" height="111.1055" id="Property" rx="2.5" ry="2.5" style="stroke:#181818;stroke-width:0.5;" width="125" x="512" y="467"/><text fill="#000000" font-family="sans-serif" font-size="14" lengthAdjust="spacing" textLength="54" x="547.5" y="487.1074">Property</text><line style="stroke:#181818;stroke-width:0.5;" x1="513" x2="636" y1="495.6211" y2="495.6211"/><text fill="#000000" font-family="sans-serif" font-size="14" lengthAdjust="spacing" textLength="31" x="518" y="514.7285">price</text><text fill="#000000" font-family="sans-serif" font-size="14" lengthAdjust="spacing" textLength="29" x="518" y="533.3496">area</text><text fill="#000000" font-family="sans-serif" font-size="14" lengthAdjust="spacing" textLength="51" x="518" y="551.9707">address</text><text fill="#000000" font-family="sans-serif" font-size="14" lengthAdjust="spacing" textLength="113" x="518" y="570.5918">distanceToCentre</text></g><!--class Employee--><g id="elem_Employee"><rect codeLine="82" fill="#F1F1F1" height="36.6211" id="Employee" rx="2.5" ry="2.5" style="stroke:#181818;stroke-width:0.5;" width="68" x="266.5" y="1083.5"/><text fill="#000000" font-family="sans-serif" font-size="14" lengthAdjust="spacing" textLength="62" x="269.5" y="1103.6074">Employee</text><line style="stroke:#181818;stroke-width:0.5;" x1="267.5" x2="333.5" y1="1112.1211" y2="1112.1211"/></g><!--class Client--><g id="elem_Client"><rect codeLine="86" fill="#F1F1F1" height="36.6211" id="Client" rx="2.5" ry="2.5" style="stroke:#181818;stroke-width:0.5;" width="42" x="808.5" y="198"/><text fill="#000000" font-family="sans-serif" font-size="14" lengthAdjust="spacing" textLength="36" x="811.5" y="218.1074">Client</text><line style="stroke:#181818;stroke-width:0.5;" x1="809.5" x2="849.5" y1="226.6211" y2="226.6211"/></g><!--class Photograph--><g id="elem_Photograph"><rect codeLine="90" fill="#F1F1F1" height="55.2422" id="Photograph" rx="2.5" ry="2.5" style="stroke:#181818;stroke-width:0.5;" width="80" x="505.5" y="884.5"/><text fill="#000000" font-family="sans-serif" font-size="14" lengthAdjust="spacing" textLength="74" x="508.5" y="904.6074">Photograph</text><line style="stroke:#181818;stroke-width:0.5;" x1="506.5" x2="584.5" y1="913.1211" y2="913.1211"/><text fill="#000000" font-family="sans-serif" font-size="14" lengthAdjust="spacing" textLength="22" x="511.5" y="932.2285">URI</text></g><!--class Person--><g id="elem_Person"><rect codeLine="94" fill="#F1F1F1" height="129.7266" id="Person" rx="2.5" ry="2.5" style="stroke:#181818;stroke-width:0.5;" width="116" x="771.5" y="7"/><text fill="#000000" font-family="sans-serif" font-size="14" lengthAdjust="spacing" textLength="45" x="807" y="27.1074">Person</text><line style="stroke:#181818;stroke-width:0.5;" x1="772.5" x2="886.5" y1="35.6211" y2="35.6211"/><text fill="#000000" font-family="sans-serif" font-size="14" lengthAdjust="spacing" textLength="33" x="777.5" y="54.7285">email</text><text fill="#000000" font-family="sans-serif" font-size="14" lengthAdjust="spacing" textLength="35" x="777.5" y="73.3496">name</text><text fill="#000000" font-family="sans-serif" font-size="14" lengthAdjust="spacing" textLength="104" x="777.5" y="91.9707">passportNumber</text><text fill="#000000" font-family="sans-serif" font-size="14" lengthAdjust="spacing" textLength="67" x="777.5" y="110.5918">taxNumber</text><text fill="#000000" font-family="sans-serif" font-size="14" lengthAdjust="spacing" textLength="89" x="777.5" y="129.2129">phoneNumber</text></g><!--class Role--><g id="elem_Role"><rect codeLine="102" fill="#F1F1F1" height="73.8633" id="Role" rx="2.5" ry="2.5" style="stroke:#181818;stroke-width:0.5;" width="81" x="7" y="875"/><text fill="#000000" font-family="sans-serif" font-size="14" lengthAdjust="spacing" textLength="29" x="33" y="895.1074">Role</text><line style="stroke:#181818;stroke-width:0.5;" x1="8" x2="87" y1="903.6211" y2="903.6211"/><text fill="#000000" font-family="sans-serif" font-size="14" lengthAdjust="spacing" textLength="11" x="13" y="922.7285">id</text><text fill="#000000" font-family="sans-serif" font-size="14" lengthAdjust="spacing" textLength="69" x="13" y="941.3496">description</text></g><!--class Commission--><g id="elem_Commission"><rect codeLine="107" fill="#F1F1F1" height="73.8633" id="Commission" rx="2.5" ry="2.5" style="stroke:#181818;stroke-width:0.5;" width="115" x="840" y="675.5"/><text fill="#000000" font-family="sans-serif" font-size="14" lengthAdjust="spacing" textLength="76" x="859.5" y="695.6074">Commission</text><line style="stroke:#181818;stroke-width:0.5;" x1="841" x2="954" y1="704.1211" y2="704.1211"/><text fill="#000000" font-family="sans-serif" font-size="14" lengthAdjust="spacing" textLength="34" x="846" y="723.2285">value</text><text fill="#000000" font-family="sans-serif" font-size="14" lengthAdjust="spacing" textLength="103" x="846" y="741.8496">typeCommission</text></g><!--link AnnouncementRequest to Agent--><g id="link_AnnouncementRequest_Agent"><path codeLine="119" d="M906.59,382.27 C924.46,391.8 942.37,403.67 956.5,418 C992.65,454.65 1008.5,470.02 1008.5,521.5 C1008.5,521.5 1008.5,521.5 1008.5,1103 C1008.5,1192.92 866.69,1218.09 811.3,1224.5 " fill="none" id="AnnouncementRequest-Agent" style="stroke:#181818;stroke-width:1.0;"/><polygon fill="#000000" points="1014.0621,802.6772,1010.1249,811.3345,1015.9655,811.9954,1014.0621,802.6772" style="stroke:#000000;stroke-width:1.0;"/><text fill="#000000" font-family="sans-serif" font-size="13" lengthAdjust="spacing" textLength="82" x="1022.5" y="813.0283">intends to see</text><text fill="#000000" font-family="sans-serif" font-size="13" lengthAdjust="spacing" textLength="5" x="914.4246" y="381.5608">*</text><text fill="#000000" font-family="sans-serif" font-size="13" lengthAdjust="spacing" textLength="7" x="819.0481" y="1218.109">1</text></g><!--link AnnouncementRequest to Announcement--><g id="link_AnnouncementRequest_Announcement"><path codeLine="120" d="M844.43,388.28 C848.37,397.93 852.62,408.35 856.5,418 C864.19,437.09 872.57,458.21 879.75,476.37 " fill="none" id="AnnouncementRequest-Announcement" style="stroke:#181818;stroke-width:1.0;"/><polygon fill="#000000" points="869.3608,432.2864,868.7224,422.7972,863.2668,424.9847,869.3608,432.2864" style="stroke:#000000;stroke-width:1.0;"/><text fill="#000000" font-family="sans-serif" font-size="13" lengthAdjust="spacing" textLength="71" x="876.5" y="433.0283">can become</text><text fill="#000000" font-family="sans-serif" font-size="13" lengthAdjust="spacing" textLength="7" x="839.3231" y="409.9261">1</text><text fill="#000000" font-family="sans-serif" font-size="13" lengthAdjust="spacing" textLength="7" x="869.6289" y="465.3603">1</text></g><!--link AnnouncementRequest to BusinessType--><g id="link_AnnouncementRequest_BusinessType"><path codeLine="124" d="M783.48,388.21 C775.34,397.01 768.03,407.07 763.5,418 C754.08,440.75 755.03,468.79 757.95,489.95 " fill="none" id="AnnouncementRequest-to-BusinessType" style="stroke:#181818;stroke-width:1.0;"/><polygon fill="#181818" points="758.68,494.9,761.3248,485.4129,757.9509,489.9534,753.4103,486.5795,758.68,494.9" style="stroke:#181818;stroke-width:1.0;"/><polygon fill="#000000" points="767.2831,432.4952,772.3351,424.4374,766.634,423.0068,767.2831,432.4952" style="stroke:#000000;stroke-width:1.0;"/><text fill="#000000" font-family="sans-serif" font-size="13" lengthAdjust="spacing" textLength="74" x="777.5" y="433.0283">cataloged as</text><text fill="#000000" font-family="sans-serif" font-size="13" lengthAdjust="spacing" textLength="5" x="770.4439" y="409.8445">*</text><text fill="#000000" font-family="sans-serif" font-size="13" lengthAdjust="spacing" textLength="7" x="749.5247" y="483.5858">1</text></g><!--link Announcement to Commission--><g id="link_Announcement_Commission"><path codeLine="126" d="M897.5,568.53 C897.5,601.23 897.5,644.89 897.5,675.33 " fill="none" id="Announcement-Commission" style="stroke:#181818;stroke-width:1.0;"/><polygon fill="#000000" points="902.5,622.6455,905.4389,613.6004,899.5611,613.6004,902.5,622.6455" style="stroke:#000000;stroke-width:1.0;"/><text fill="#000000" font-family="sans-serif" font-size="13" lengthAdjust="spacing" textLength="32" x="911.5" y="623.0283">has a</text><text fill="#000000" font-family="sans-serif" font-size="13" lengthAdjust="spacing" textLength="7" x="889.9641" y="590.8934">1</text><text fill="#000000" font-family="sans-serif" font-size="13" lengthAdjust="spacing" textLength="7" x="889.8766" y="664.2614">1</text></g><!--link Store to Address--><g id="link_Store_Address"><path codeLine="130" d="M710.75,977.17 C725.58,1001.41 742.21,1028.59 756.1,1051.3 " fill="none" id="Store-to-Address" style="stroke:#181818;stroke-width:1.0;"/><polygon fill="#181818" points="758.84,1055.78,757.5389,1046.0175,756.2235,1051.5193,750.7217,1050.2039,758.84,1055.78" style="stroke:#181818;stroke-width:1.0;"/><text fill="#000000" font-family="sans-serif" font-size="13" lengthAdjust="spacing" textLength="7" x="707.4367" y="998.8246">1</text><text fill="#000000" font-family="sans-serif" font-size="13" lengthAdjust="spacing" textLength="7" x="747.2634" y="1044.7571">1</text></g><!--link AnnouncementRequest to Property--><g id="link_AnnouncementRequest_Property"><path codeLine="131" d="M752.38,382.64 C730.66,392.64 707.51,404.65 687.5,418 C666.48,432.03 645.49,449.89 627.42,466.82 " fill="none" id="AnnouncementRequest-Property" style="stroke:#181818;stroke-width:1.0;"/><polygon fill="#000000" points="688.3532,430.439,697.4969,427.8229,694.2129,422.948,688.3532,430.439" style="stroke:#000000;stroke-width:1.0;"/><text fill="#000000" font-family="sans-serif" font-size="13" lengthAdjust="spacing" textLength="47" x="701.5" y="433.0283">refers to</text><text fill="#000000" font-family="sans-serif" font-size="13" lengthAdjust="spacing" textLength="7" x="737.444" y="381.9672">1</text><text fill="#000000" font-family="sans-serif" font-size="13" lengthAdjust="spacing" textLength="7" x="626.7519" y="455.6371">1</text></g><!--reverse link Inhabitable to House--><g id="link_Inhabitable_House"><path codeLine="133" d="M255.5,788.49 C255.5,814.53 255.5,842.92 255.5,865.81 " fill="none" id="Inhabitable-backto-House" style="stroke:#181818;stroke-width:1.0;"/><polygon fill="none" points="248.5,788.25,255.5,768.25,262.5,788.25,248.5,788.25" style="stroke:#181818;stroke-width:1.0;"/></g><!--link Store to Employee--><g id="link_Store_Employee"><path codeLine="135" d="M620.79,964.36 C615.17,968.92 609.36,973.23 603.5,977 C513.88,1034.67 393,1074.38 334.72,1091.5 " fill="none" id="Store-Employee" style="stroke:#181818;stroke-width:1.0;"/><polygon fill="#000000" points="558.0691,1014.6148,548.61,1015.6027,550.9971,1020.974,558.0691,1014.6148" style="stroke:#000000;stroke-width:1.0;"/><text fill="#000000" font-family="sans-serif" font-size="13" lengthAdjust="spacing" textLength="63" x="562.5" y="1022.0283">works on a</text><text fill="#000000" font-family="sans-serif" font-size="13" lengthAdjust="spacing" textLength="7" x="606.1667" y="967.5958">1</text><text fill="#000000" font-family="sans-serif" font-size="13" lengthAdjust="spacing" textLength="5" x="342.2935" y="1084.6787">*</text></g><!--reverse link Property to Inhabitable--><g id="link_Property_Inhabitable"><path codeLine="137" d="M492.82,547.11 C451.27,561.21 401.1,581.57 360.5,608 C339.69,621.55 319.58,639.69 302.62,657 " fill="none" id="Property-backto-Inhabitable" style="stroke:#181818;stroke-width:1.0;"/><polygon fill="none" points="490.66,540.45,511.84,540.88,495.02,553.76,490.66,540.45" style="stroke:#181818;stroke-width:1.0;"/></g><!--reverse link Employee to Agent--><g id="link_Employee_Agent"><path codeLine="139" d="M354.47,1116.63 C461.32,1143.62 695.7,1202.81 767.9,1221.04 " fill="none" id="Employee-backto-Agent" style="stroke:#181818;stroke-width:1.0;"/><polygon fill="none" points="352.56,1123.37,334.89,1111.68,355.99,1109.79,352.56,1123.37" style="stroke:#181818;stroke-width:1.0;"/></g><!--reverse link Person to Client--><g id="link_Person_Client"><path codeLine="141" d="M829.5,157.18 C829.5,172.51 829.5,187.02 829.5,197.73 " fill="none" id="Person-backto-Client" style="stroke:#181818;stroke-width:1.0;"/><polygon fill="none" points="822.5,157.16,829.5,137.16,836.5,157.16,822.5,157.16" style="stroke:#181818;stroke-width:1.0;"/></g><!--reverse link Person to Employee--><g id="link_Person_Employee"><path codeLine="143" d="M751.23,72.89 C570.89,74.76 141.5,92.15 141.5,215.5 C141.5,215.5 141.5,215.5 141.5,913 C141.5,991.65 223.64,1054.36 269.84,1083.42 " fill="none" id="Person-backto-Employee" style="stroke:#181818;stroke-width:1.0;"/><polygon fill="none" points="751.38,65.89,771.43,72.74,751.49,79.89,751.38,65.89" style="stroke:#181818;stroke-width:1.0;"/></g><!--link Role to Employee--><g id="link_Role_Employee"><path codeLine="149" d="M49.18,949.09 C52.17,973.68 59.91,1005.38 79.5,1026 C129.45,1078.58 217.6,1094.3 266.1,1099 " fill="none" id="Role-Employee" style="stroke:#181818;stroke-width:1.0;"/><polygon fill="#000000" points="80.3867,1013.8029,86.1569,1021.363,89.4986,1016.5275,80.3867,1013.8029" style="stroke:#000000;stroke-width:1.0;"/><text fill="#000000" font-family="sans-serif" font-size="13" lengthAdjust="spacing" textLength="21" x="93.5" y="1022.0283">has</text><text fill="#000000" font-family="sans-serif" font-size="13" lengthAdjust="spacing" textLength="20" x="27.75" y="970.9909">1..*</text><text fill="#000000" font-family="sans-serif" font-size="13" lengthAdjust="spacing" textLength="7" x="251.2831" y="1093.7255">1</text></g><!--link Client to AnnouncementRequest--><g id="link_Client_AnnouncementRequest"><path codeLine="151" d="M829.5,235.09 C829.5,255.09 829.5,288.25 829.5,313.83 " fill="none" id="Client-AnnouncementRequest" style="stroke:#181818;stroke-width:1.0;"/><polygon fill="#000000" points="834.5,279.6455,837.4389,270.6004,831.5611,270.6004,834.5,279.6455" style="stroke:#000000;stroke-width:1.0;"/><text fill="#000000" font-family="sans-serif" font-size="13" lengthAdjust="spacing" textLength="43" x="843.5" y="280.0283">creates</text><text fill="#000000" font-family="sans-serif" font-size="13" lengthAdjust="spacing" textLength="7" x="821.5594" y="256.4888">1</text><text fill="#000000" font-family="sans-serif" font-size="13" lengthAdjust="spacing" textLength="5" x="824.0547" y="302.7614">*</text></g><!--link Property to Store--><g id="link_Property_Store"><path codeLine="155" d="M588.19,578.2 C605.9,648.92 636.68,771.89 655.46,846.91 " fill="none" id="Property-Store" style="stroke:#181818;stroke-width:1.0;"/><polygon fill="#000000" points="639.7142,717.4958,640.3686,708.0078,634.6667,709.4352,639.7142,717.4958" style="stroke:#000000;stroke-width:1.0;"/><text fill="#000000" font-family="sans-serif" font-size="13" lengthAdjust="spacing" textLength="67" x="647.5" y="718.0283">listed under</text><text fill="#000000" font-family="sans-serif" font-size="13" lengthAdjust="spacing" textLength="5" x="584.5538" y="600.064">*</text><text fill="#000000" font-family="sans-serif" font-size="13" lengthAdjust="spacing" textLength="7" x="646.3228" y="835.9203">1</text></g><!--link Property to Photograph--><g id="link_Property_Photograph"><path codeLine="157" d="M570.41,578.2 C564.1,662.48 552.24,820.96 547.52,884.07 " fill="none" id="Property-Photograph" style="stroke:#181818;stroke-width:1.0;"/><polygon fill="#000000" points="568.1269,717.6316,571.7326,708.831,565.8711,708.3924,568.1269,717.6316" style="stroke:#000000;stroke-width:1.0;"/><text fill="#000000" font-family="sans-serif" font-size="13" lengthAdjust="spacing" textLength="21" x="577.5" y="718.0283">has</text><text fill="#000000" font-family="sans-serif" font-size="13" lengthAdjust="spacing" textLength="7" x="562.485" y="600.064">1</text><text fill="#000000" font-family="sans-serif" font-size="13" lengthAdjust="spacing" textLength="29" x="515.79" y="873.1346">1..30</text></g><!--link Person to Address--><g id="link_Person_Address"><path codeLine="161" d="M887.5,75.4 C974.46,82.44 1128.5,109.84 1128.5,215.5 C1128.5,215.5 1128.5,215.5 1128.5,913 C1128.5,1044.61 931.59,1084.74 836.6,1096.43 " fill="none" id="Person-Address" style="stroke:#181818;stroke-width:1.0;"/><polygon fill="#000000" points="1133.2511,527.6393,1136.6367,518.7518,1130.7661,518.4591,1133.2511,527.6393" style="stroke:#000000;stroke-width:1.0;"/><text fill="#000000" font-family="sans-serif" font-size="13" lengthAdjust="spacing" textLength="39" x="1142.5" y="528.0283">has an</text><text fill="#000000" font-family="sans-serif" font-size="13" lengthAdjust="spacing" textLength="7" x="895.3797" y="71.811">1</text><text fill="#000000" font-family="sans-serif" font-size="13" lengthAdjust="spacing" textLength="7" x="844.4725" y="1091.3776">1</text></g><!--link Property to Address--><g id="link_Property_Address"><path codeLine="162" d="M637.07,563.65 C668.19,587.03 703.37,619.32 723.5,657 C792.37,785.94 794.11,964.58 790.14,1050.66 " fill="none" id="Property-to-Address" style="stroke:#181818;stroke-width:1.0;"/><polygon fill="#181818" points="789.89,1055.69,794.3231,1046.8953,790.1333,1050.6959,786.3326,1046.506,789.89,1055.69" style="stroke:#181818;stroke-width:1.0;"/><text fill="#000000" font-family="sans-serif" font-size="13" lengthAdjust="spacing" textLength="7" x="645.1223" y="564.6688">1</text><text fill="#000000" font-family="sans-serif" font-size="13" lengthAdjust="spacing" textLength="7" x="782.8738" y="1044.6539">1</text></g><!--link Property to PropertyType--><g id="link_Property_PropertyType"><path codeLine="164" d="M517.9,578.23 C497.07,600.94 474.84,628.61 459.5,657 C418.05,733.69 397.92,836.46 390.29,884.35 " fill="none" id="Property-PropertyType" style="stroke:#181818;stroke-width:1.0;"/><polygon fill="#000000" points="462.5762,717.2606,468.7691,710.0427,463.3438,707.781,462.5762,717.2606" style="stroke:#000000;stroke-width:1.0;"/><text fill="#000000" font-family="sans-serif" font-size="13" lengthAdjust="spacing" textLength="74" x="473.5" y="718.0283">cataloged as</text><text fill="#000000" font-family="sans-serif" font-size="13" lengthAdjust="spacing" textLength="5" x="505.6972" y="600.0977">*</text><text fill="#000000" font-family="sans-serif" font-size="13" lengthAdjust="spacing" textLength="7" x="383.3571" y="873.0243">1</text></g><!--SRC=[TLJ1Rjim3BtpAuHS1Wneq6Ate0ZGPWLMO1YAfli0nM9ieRReYlBQrDk_Zx8SMq7Jd2A9xptoaJG_MzTghnlLaAEYyjIW2hv3uEcbrSMpBd4R3ZKgZqNGhgpp0AwqeLVhIhNNDIF0bnhtGGLItfPLKCP6b2K76QYeDVDD2Dxkke3t1RcjVKTr2G2LDQWAwmjH6Vut62eo3320r4s9BgWUu1zCLyvHvmfivEKHNphaq8ENm_VEwq7Qw22PHKX2R0DvxC4QCCYsT2bA6-EH6R3HjeQs8eU_kcQ7FecTrUkXjXpGF7XRu1dHIVBULNfdWzxL8hn3uucQaNsdGvKTnI8ngjoAzSXGQRvxwMmRnMQs7zInyCZZhUOXaVZ_9-q3SEVktbhYpcDMyKsghGSE7Z6CHpd59Dzjko63Ova9SDknTHBoT6X5I6mgl6s7kYRE1qyj-d0u5t8QqKCx-ACzwibc8yPfiV69DfA_pxowQzgQ3YYaC55jQZitVcIlA53fTLlryFlnFdj0p-JwiP5EDoYcChVam-Xnq6z7jxCsJmIFL4_ZyR7k3JMDPRPHue-kPL-2E33VJkC2S6OqrUBhGbrSgCNLOXpcbR8ke3CSjuOHrVLvtDMCovvNgj1ExR28sxl-H3HfhYCuRsp41brJYKPfZkWScolErQsKJ9hIIMfOf1IsJfcDpVsaW97jE1Sh-QJifLcnSE7BTaIfwxyId0RzH6VmxpWXA_LA_faLESde6k18V8HdZ017qFWuc2-GOLZ6kpHbqwNSJLAfeN4of8JbScxYd4iqHf9895csPynOgRKgP1k2h3ZCUQS-3Rn3oIkLFY-gSmPzz6YAl3f6BfVVBXVPCgGyXlQCPGonUNl67Zg9cXmxryNiTKxiPEy_Jj3q-my0]--></g></svg>