<?xml version="1.0" encoding="us-ascii" standalone="no"?><svg xmlns="http://www.w3.org/2000/svg" xmlns:xlink="http://www.w3.org/1999/xlink" contentStyleType="text/css" height="897px" preserveAspectRatio="none" style="width:523px;height:897px;background:#FFFFFF;" version="1.1" viewBox="0 0 523 897" width="523px" zoomAndPan="magnify"><defs/><g><rect fill="#FFFFFF" height="718.0859" style="stroke:#181818;stroke-width:1.0;" width="10" x="36" y="90.6406"/><rect fill="#FFFFFF" height="28.5234" style="stroke:#181818;stroke-width:1.0;" width="10" x="470" y="111.1641"/><rect fill="#FFFFFF" height="28.5234" style="stroke:#181818;stroke-width:1.0;" width="10" x="470" y="168.2109"/><rect fill="#FFFFFF" height="28.5234" style="stroke:#181818;stroke-width:1.0;" width="10" x="470" y="225.2578"/><rect fill="#FFFFFF" height="28.5234" style="stroke:#181818;stroke-width:1.0;" width="10" x="470" y="282.3047"/><rect fill="#FFFFFF" height="28.5234" style="stroke:#181818;stroke-width:1.0;" width="10" x="470" y="339.3516"/><rect fill="#FFFFFF" height="28.5234" style="stroke:#181818;stroke-width:1.0;" width="10" x="470" y="419.9219"/><rect fill="#FFFFFF" height="28.5234" style="stroke:#181818;stroke-width:1.0;" width="10" x="470" y="476.9688"/><rect fill="#FFFFFF" height="87.5703" style="stroke:#181818;stroke-width:1.0;" width="10" x="470" y="534.0156"/><rect fill="#FFFFFF" height="28.5234" style="stroke:#181818;stroke-width:1.0;" width="10" x="470" y="650.1094"/><rect fill="#FFFFFF" height="28.5234" style="stroke:#181818;stroke-width:1.0;" width="10" x="470" y="707.1563"/><rect fill="#FFFFFF" height="43.5234" style="stroke:#181818;stroke-width:1.0;" width="10" x="470" y="764.2031"/><rect fill="none" height="187.6641" style="stroke:#000000;stroke-width:1.5;" width="507" x="10" y="382.875"/><rect fill="none" height="216.1875" style="stroke:#000000;stroke-width:1.5;" width="507" x="10" y="584.5391"/><line style="stroke:#181818;stroke-width:0.5;stroke-dasharray:5.0,5.0;" x1="41" x2="41" y1="80.6406" y2="817.7266"/><line style="stroke:#181818;stroke-width:0.5;stroke-dasharray:5.0,5.0;" x1="475" x2="475" y1="80.6406" y2="817.7266"/><text fill="#000000" font-family="sans-serif" font-size="14" lengthAdjust="spacing" textLength="36" x="20" y="77.6738">Client</text><ellipse cx="41" cy="13.5" fill="#E3E3E3" rx="8" ry="8" style="stroke:#181818;stroke-width:0.5;"/><path d="M41,21.5 L41,48.5 M28,29.5 L54,29.5 M41,48.5 L28,63.5 M41,48.5 L54,63.5 " fill="none" style="stroke:#181818;stroke-width:0.5;"/><text fill="#000000" font-family="sans-serif" font-size="14" lengthAdjust="spacing" textLength="36" x="20" y="829.4004">Client</text><ellipse cx="41" cy="840.8672" fill="#E3E3E3" rx="8" ry="8" style="stroke:#181818;stroke-width:0.5;"/><path d="M41,848.8672 L41,875.8672 M28,856.8672 L54,856.8672 M41,875.8672 L28,890.8672 M41,875.8672 L54,890.8672 " fill="none" style="stroke:#181818;stroke-width:0.5;"/><rect fill="#E3E3E3" height="29.6406" rx="2.5" ry="2.5" style="stroke:#181818;stroke-width:0.5;" width="64" x="443" y="50"/><text fill="#000000" font-family="sans-serif" font-size="14" lengthAdjust="spacing" textLength="50" x="450" y="69.6738">:System</text><rect fill="#E3E3E3" height="29.6406" rx="2.5" ry="2.5" style="stroke:#181818;stroke-width:0.5;" width="64" x="443" y="816.7266"/><text fill="#000000" font-family="sans-serif" font-size="14" lengthAdjust="spacing" textLength="50" x="450" y="836.4004">:System</text><rect fill="#FFFFFF" height="718.0859" style="stroke:#181818;stroke-width:1.0;" width="10" x="36" y="90.6406"/><rect fill="#FFFFFF" height="28.5234" style="stroke:#181818;stroke-width:1.0;" width="10" x="470" y="111.1641"/><rect fill="#FFFFFF" height="28.5234" style="stroke:#181818;stroke-width:1.0;" width="10" x="470" y="168.2109"/><rect fill="#FFFFFF" height="28.5234" style="stroke:#181818;stroke-width:1.0;" width="10" x="470" y="225.2578"/><rect fill="#FFFFFF" height="28.5234" style="stroke:#181818;stroke-width:1.0;" width="10" x="470" y="282.3047"/><rect fill="#FFFFFF" height="28.5234" style="stroke:#181818;stroke-width:1.0;" width="10" x="470" y="339.3516"/><rect fill="#FFFFFF" height="28.5234" style="stroke:#181818;stroke-width:1.0;" width="10" x="470" y="419.9219"/><rect fill="#FFFFFF" height="28.5234" style="stroke:#181818;stroke-width:1.0;" width="10" x="470" y="476.9688"/><rect fill="#FFFFFF" height="87.5703" style="stroke:#181818;stroke-width:1.0;" width="10" x="470" y="534.0156"/><rect fill="#FFFFFF" height="28.5234" style="stroke:#181818;stroke-width:1.0;" width="10" x="470" y="650.1094"/><rect fill="#FFFFFF" height="28.5234" style="stroke:#181818;stroke-width:1.0;" width="10" x="470" y="707.1563"/><rect fill="#FFFFFF" height="43.5234" style="stroke:#181818;stroke-width:1.0;" width="10" x="470" y="764.2031"/><polygon fill="#181818" points="458,107.1641,468,111.1641,458,115.1641,462,111.1641" style="stroke:#181818;stroke-width:1.0;"/><line style="stroke:#181818;stroke-width:1.0;" x1="46" x2="464" y1="111.1641" y2="111.1641"/><text fill="#000000" font-family="sans-serif" font-size="13" font-weight="bold" lengthAdjust="spacing" textLength="7" x="53" y="106.4092">1</text><text fill="#000000" font-family="sans-serif" font-size="13" lengthAdjust="spacing" textLength="156" x="64" y="106.4092">asks to post a visit request</text><polygon fill="#181818" points="57,135.6875,47,139.6875,57,143.6875,53,139.6875" style="stroke:#181818;stroke-width:1.0;"/><line style="stroke:#181818;stroke-width:1.0;stroke-dasharray:2.0,2.0;" x1="51" x2="474" y1="139.6875" y2="139.6875"/><text fill="#000000" font-family="sans-serif" font-size="13" font-weight="bold" lengthAdjust="spacing" textLength="7" x="63" y="134.9326">2</text><text fill="#000000" font-family="sans-serif" font-size="13" lengthAdjust="spacing" textLength="279" x="74" y="134.9326">show list of all properties and asks to select one</text><polygon fill="#181818" points="458,164.2109,468,168.2109,458,172.2109,462,168.2109" style="stroke:#181818;stroke-width:1.0;"/><line style="stroke:#181818;stroke-width:1.0;" x1="46" x2="464" y1="168.2109" y2="168.2109"/><text fill="#000000" font-family="sans-serif" font-size="13" font-weight="bold" lengthAdjust="spacing" textLength="7" x="53" y="163.4561">3</text><text fill="#000000" font-family="sans-serif" font-size="13" lengthAdjust="spacing" textLength="97" x="64" y="163.4561">select a property</text><polygon fill="#181818" points="57,192.7344,47,196.7344,57,200.7344,53,196.7344" style="stroke:#181818;stroke-width:1.0;"/><line style="stroke:#181818;stroke-width:1.0;stroke-dasharray:2.0,2.0;" x1="51" x2="474" y1="196.7344" y2="196.7344"/><text fill="#000000" font-family="sans-serif" font-size="13" font-weight="bold" lengthAdjust="spacing" textLength="7" x="63" y="191.9795">4</text><text fill="#000000" font-family="sans-serif" font-size="13" lengthAdjust="spacing" textLength="126" x="74" y="191.9795">request preferred date</text><polygon fill="#181818" points="458,221.2578,468,225.2578,458,229.2578,462,225.2578" style="stroke:#181818;stroke-width:1.0;"/><line style="stroke:#181818;stroke-width:1.0;" x1="46" x2="464" y1="225.2578" y2="225.2578"/><text fill="#000000" font-family="sans-serif" font-size="13" font-weight="bold" lengthAdjust="spacing" textLength="7" x="53" y="220.5029">5</text><text fill="#000000" font-family="sans-serif" font-size="13" lengthAdjust="spacing" textLength="115" x="64" y="220.5029">insert preferred date</text><polygon fill="#181818" points="57,249.7813,47,253.7813,57,257.7813,53,253.7813" style="stroke:#181818;stroke-width:1.0;"/><line style="stroke:#181818;stroke-width:1.0;stroke-dasharray:2.0,2.0;" x1="51" x2="474" y1="253.7813" y2="253.7813"/><text fill="#000000" font-family="sans-serif" font-size="13" font-weight="bold" lengthAdjust="spacing" textLength="7" x="63" y="249.0264">6</text><text fill="#000000" font-family="sans-serif" font-size="13" lengthAdjust="spacing" textLength="97" x="74" y="249.0264">request time slot</text><polygon fill="#181818" points="458,278.3047,468,282.3047,458,286.3047,462,282.3047" style="stroke:#181818;stroke-width:1.0;"/><line style="stroke:#181818;stroke-width:1.0;" x1="46" x2="464" y1="282.3047" y2="282.3047"/><text fill="#000000" font-family="sans-serif" font-size="13" font-weight="bold" lengthAdjust="spacing" textLength="7" x="53" y="277.5498">7</text><text fill="#000000" font-family="sans-serif" font-size="13" lengthAdjust="spacing" textLength="86" x="64" y="277.5498">insert time slot</text><polygon fill="#181818" points="57,306.8281,47,310.8281,57,314.8281,53,310.8281" style="stroke:#181818;stroke-width:1.0;"/><line style="stroke:#181818;stroke-width:1.0;stroke-dasharray:2.0,2.0;" x1="51" x2="474" y1="310.8281" y2="310.8281"/><text fill="#000000" font-family="sans-serif" font-size="13" font-weight="bold" lengthAdjust="spacing" textLength="7" x="63" y="306.0732">8</text><text fill="#000000" font-family="sans-serif" font-size="13" lengthAdjust="spacing" textLength="204" x="74" y="306.0732">asks to confirmation to submit data</text><polygon fill="#181818" points="458,335.3516,468,339.3516,458,343.3516,462,339.3516" style="stroke:#181818;stroke-width:1.0;"/><line style="stroke:#181818;stroke-width:1.0;" x1="46" x2="464" y1="339.3516" y2="339.3516"/><text fill="#000000" font-family="sans-serif" font-size="13" font-weight="bold" lengthAdjust="spacing" textLength="7" x="53" y="334.5967">9</text><text fill="#000000" font-family="sans-serif" font-size="13" lengthAdjust="spacing" textLength="157" x="64" y="334.5967">confirmation to submit data</text><polygon fill="#181818" points="57,363.875,47,367.875,57,371.875,53,367.875" style="stroke:#181818;stroke-width:1.0;"/><line style="stroke:#181818;stroke-width:1.0;stroke-dasharray:2.0,2.0;" x1="51" x2="474" y1="367.875" y2="367.875"/><text fill="#000000" font-family="sans-serif" font-size="13" font-weight="bold" lengthAdjust="spacing" textLength="14" x="63" y="363.1201">10</text><text fill="#000000" font-family="sans-serif" font-size="13" lengthAdjust="spacing" textLength="338" x="81" y="363.1201">show success message and asks to add another time slot</text><path d="M10,382.875 L87,382.875 L87,389.3984 L77,399.3984 L10,399.3984 L10,382.875 " fill="#EEEEEE" style="stroke:#000000;stroke-width:1.5;"/><rect fill="none" height="187.6641" style="stroke:#000000;stroke-width:1.5;" width="507" x="10" y="382.875"/><text fill="#000000" font-family="sans-serif" font-size="13" font-weight="bold" lengthAdjust="spacing" textLength="28" x="25" y="395.6436">loop</text><text fill="#000000" font-family="sans-serif" font-size="11" font-weight="bold" lengthAdjust="spacing" textLength="173" x="102" y="394.833">[while confirm to add time slot]</text><polygon fill="#181818" points="458,415.9219,468,419.9219,458,423.9219,462,419.9219" style="stroke:#181818;stroke-width:1.0;"/><line style="stroke:#181818;stroke-width:1.0;" x1="46" x2="464" y1="419.9219" y2="419.9219"/><text fill="#000000" font-family="sans-serif" font-size="13" font-weight="bold" lengthAdjust="spacing" textLength="14" x="53" y="415.167">11</text><text fill="#000000" font-family="sans-serif" font-size="13" lengthAdjust="spacing" textLength="229" x="71" y="415.167">confirmation to submit another time slot</text><polygon fill="#181818" points="57,444.4453,47,448.4453,57,452.4453,53,448.4453" style="stroke:#181818;stroke-width:1.0;"/><line style="stroke:#181818;stroke-width:1.0;stroke-dasharray:2.0,2.0;" x1="51" x2="474" y1="448.4453" y2="448.4453"/><text fill="#000000" font-family="sans-serif" font-size="13" font-weight="bold" lengthAdjust="spacing" textLength="14" x="63" y="443.6904">12</text><text fill="#000000" font-family="sans-serif" font-size="13" lengthAdjust="spacing" textLength="97" x="81" y="443.6904">request time slot</text><polygon fill="#181818" points="458,472.9688,468,476.9688,458,480.9688,462,476.9688" style="stroke:#181818;stroke-width:1.0;"/><line style="stroke:#181818;stroke-width:1.0;" x1="46" x2="464" y1="476.9688" y2="476.9688"/><text fill="#000000" font-family="sans-serif" font-size="13" font-weight="bold" lengthAdjust="spacing" textLength="14" x="53" y="472.2139">13</text><text fill="#000000" font-family="sans-serif" font-size="13" lengthAdjust="spacing" textLength="86" x="71" y="472.2139">insert time slot</text><polygon fill="#181818" points="57,501.4922,47,505.4922,57,509.4922,53,505.4922" style="stroke:#181818;stroke-width:1.0;"/><line style="stroke:#181818;stroke-width:1.0;stroke-dasharray:2.0,2.0;" x1="51" x2="474" y1="505.4922" y2="505.4922"/><text fill="#000000" font-family="sans-serif" font-size="13" font-weight="bold" lengthAdjust="spacing" textLength="14" x="63" y="500.7373">14</text><text fill="#000000" font-family="sans-serif" font-size="13" lengthAdjust="spacing" textLength="204" x="81" y="500.7373">asks to confirmation to submit data</text><polygon fill="#181818" points="458,530.0156,468,534.0156,458,538.0156,462,534.0156" style="stroke:#181818;stroke-width:1.0;"/><line style="stroke:#181818;stroke-width:1.0;" x1="46" x2="464" y1="534.0156" y2="534.0156"/><text fill="#000000" font-family="sans-serif" font-size="13" font-weight="bold" lengthAdjust="spacing" textLength="14" x="53" y="529.2607">15</text><text fill="#000000" font-family="sans-serif" font-size="13" lengthAdjust="spacing" textLength="157" x="71" y="529.2607">confirmation to submit data</text><polygon fill="#181818" points="57,558.5391,47,562.5391,57,566.5391,53,562.5391" style="stroke:#181818;stroke-width:1.0;"/><line style="stroke:#181818;stroke-width:1.0;stroke-dasharray:2.0,2.0;" x1="51" x2="469" y1="562.5391" y2="562.5391"/><text fill="#000000" font-family="sans-serif" font-size="13" font-weight="bold" lengthAdjust="spacing" textLength="14" x="63" y="557.7842">16</text><text fill="#000000" font-family="sans-serif" font-size="13" lengthAdjust="spacing" textLength="338" x="81" y="557.7842">show success message and asks to add another time slot</text><path d="M10,584.5391 L87,584.5391 L87,591.0625 L77,601.0625 L10,601.0625 L10,584.5391 " fill="#EEEEEE" style="stroke:#000000;stroke-width:1.5;"/><rect fill="none" height="216.1875" style="stroke:#000000;stroke-width:1.5;" width="507" x="10" y="584.5391"/><text fill="#000000" font-family="sans-serif" font-size="13" font-weight="bold" lengthAdjust="spacing" textLength="28" x="25" y="597.3076">loop</text><text fill="#000000" font-family="sans-serif" font-size="11" font-weight="bold" lengthAdjust="spacing" textLength="148" x="102" y="596.4971">[while confirm to add date]</text><polygon fill="#181818" points="57,617.5859,47,621.5859,57,625.5859,53,621.5859" style="stroke:#181818;stroke-width:1.0;"/><line style="stroke:#181818;stroke-width:1.0;stroke-dasharray:2.0,2.0;" x1="51" x2="474" y1="621.5859" y2="621.5859"/><text fill="#000000" font-family="sans-serif" font-size="13" font-weight="bold" lengthAdjust="spacing" textLength="14" x="63" y="616.8311">17</text><text fill="#000000" font-family="sans-serif" font-size="13" lengthAdjust="spacing" textLength="144" x="81" y="616.8311">asks to add another date</text><polygon fill="#181818" points="458,646.1094,468,650.1094,458,654.1094,462,650.1094" style="stroke:#181818;stroke-width:1.0;"/><line style="stroke:#181818;stroke-width:1.0;" x1="46" x2="464" y1="650.1094" y2="650.1094"/><text fill="#000000" font-family="sans-serif" font-size="13" font-weight="bold" lengthAdjust="spacing" textLength="14" x="53" y="645.3545">18</text><text fill="#000000" font-family="sans-serif" font-size="13" lengthAdjust="spacing" textLength="204" x="71" y="645.3545">confirmation to submit another date</text><polygon fill="#181818" points="57,674.6328,47,678.6328,57,682.6328,53,678.6328" style="stroke:#181818;stroke-width:1.0;"/><line style="stroke:#181818;stroke-width:1.0;stroke-dasharray:2.0,2.0;" x1="51" x2="474" y1="678.6328" y2="678.6328"/><text fill="#000000" font-family="sans-serif" font-size="13" font-weight="bold" lengthAdjust="spacing" textLength="14" x="63" y="673.8779">19</text><text fill="#000000" font-family="sans-serif" font-size="13" lengthAdjust="spacing" textLength="72" x="81" y="673.8779">request date</text><polygon fill="#181818" points="458,703.1563,468,707.1563,458,711.1563,462,707.1563" style="stroke:#181818;stroke-width:1.0;"/><line style="stroke:#181818;stroke-width:1.0;" x1="46" x2="464" y1="707.1563" y2="707.1563"/><text fill="#000000" font-family="sans-serif" font-size="13" font-weight="bold" lengthAdjust="spacing" textLength="14" x="53" y="702.4014">20</text><text fill="#000000" font-family="sans-serif" font-size="13" lengthAdjust="spacing" textLength="61" x="71" y="702.4014">insert date</text><polygon fill="#181818" points="57,731.6797,47,735.6797,57,739.6797,53,735.6797" style="stroke:#181818;stroke-width:1.0;"/><line style="stroke:#181818;stroke-width:1.0;stroke-dasharray:2.0,2.0;" x1="51" x2="474" y1="735.6797" y2="735.6797"/><text fill="#000000" font-family="sans-serif" font-size="13" font-weight="bold" lengthAdjust="spacing" textLength="14" x="63" y="730.9248">21</text><text fill="#000000" font-family="sans-serif" font-size="13" lengthAdjust="spacing" textLength="204" x="81" y="730.9248">asks to confirmation to submit data</text><polygon fill="#181818" points="458,760.2031,468,764.2031,458,768.2031,462,764.2031" style="stroke:#181818;stroke-width:1.0;"/><line style="stroke:#181818;stroke-width:1.0;" x1="46" x2="464" y1="764.2031" y2="764.2031"/><text fill="#000000" font-family="sans-serif" font-size="13" font-weight="bold" lengthAdjust="spacing" textLength="14" x="53" y="759.4482">22</text><text fill="#000000" font-family="sans-serif" font-size="13" lengthAdjust="spacing" textLength="157" x="71" y="759.4482">confirmation to submit data</text><polygon fill="#181818" points="57,788.7266,47,792.7266,57,796.7266,53,792.7266" style="stroke:#181818;stroke-width:1.0;"/><line style="stroke:#181818;stroke-width:1.0;stroke-dasharray:2.0,2.0;" x1="51" x2="469" y1="792.7266" y2="792.7266"/><text fill="#000000" font-family="sans-serif" font-size="13" font-weight="bold" lengthAdjust="spacing" textLength="14" x="63" y="787.9717">23</text><text fill="#000000" font-family="sans-serif" font-size="13" lengthAdjust="spacing" textLength="382" x="81" y="787.9717">show success message and asks to add another date or time slot</text><!--SRC=[hPJ1Se9038RlF4N6ko_WePS-WjDJfuS8KNTSDdGJT7px1WH6go1hou7PMP9l_oJ_8WSNAenOGic1yttaaa1ZJPaCNohC3xYZjPuzGQHSCUpyTO3iiU2J2plOeXVAxC5QETJbXgAjS-K8YtVlAEW2KE13RDzorUMkmg2mMAtFebIsNo_BDiyTKUaIde4zpGgMRrq8h2py8A0C5Oi2mj69KzFuNPFe9MMWzDXciyjV6gf5hgm6Fe5tHk4jeFTGHQx85980Xc8uICXR1u03jQ22xlYFXNPvs7FFIUgwYYoPjXGZ5L1OKZOcuQ425spdCI9HXJepYNZMbmJyofvvTj__dCFMnHBLSMZdKMzA6xdLWcbgde8U3tR4ELBdEOb0QI-xApUMmSBMWNLluKzRr-pk8jSLUEOAFazxPxUk4zlJ1ihN1PDIu8YIqL4aMM5Y00cMIDGosngfwcO14uI-wfGMIQ78vhcZkTUzCSQxTNrM-oVuXyjpmniQCTcbQNlTWoRcD-MmFojACjahGcU34uKdcQvf4_2r-NhmOB_xkdu0]--></g></svg>