<?xml version="1.0" encoding="us-ascii" standalone="no"?><svg xmlns="http://www.w3.org/2000/svg" xmlns:xlink="http://www.w3.org/1999/xlink" contentStyleType="text/css" height="1940px" preserveAspectRatio="none" style="width:810px;height:1940px;background:#FFFFFF;" version="1.1" viewBox="0 0 810 1940" width="810px" zoomAndPan="magnify"><defs/><g><!--entity UR--><g id="elem_UR"><ellipse cx="72.5" cy="1836" fill="#F1F1F1" rx="8" ry="8" style="stroke:#181818;stroke-width:0.5;"/><path d="M72.5,1844 L72.5,1871 M59.5,1852 L85.5,1852 M72.5,1871 L59.5,1886 M72.5,1871 L85.5,1886 " fill="none" style="stroke:#181818;stroke-width:0.5;"/><text fill="#000000" font-family="sans-serif" font-size="14" lengthAdjust="spacing" textLength="114" x="15.5" y="1902.6074">Unregistered User</text></g><!--entity Agent--><g id="elem_Agent"><ellipse cx="72.5" cy="1433" fill="#F1F1F1" rx="8" ry="8" style="stroke:#181818;stroke-width:0.5;"/><path d="M72.5,1441 L72.5,1468 M59.5,1449 L85.5,1449 M72.5,1468 L59.5,1483 M72.5,1468 L85.5,1483 " fill="none" style="stroke:#181818;stroke-width:0.5;"/><text fill="#000000" font-family="sans-serif" font-size="14" lengthAdjust="spacing" textLength="37" x="54" y="1499.6074">Agent</text></g><!--entity Owner--><g id="elem_Owner"><ellipse cx="72.5" cy="878" fill="#F1F1F1" rx="8" ry="8" style="stroke:#181818;stroke-width:0.5;"/><path d="M72.5,886 L72.5,913 M59.5,894 L85.5,894 M72.5,913 L59.5,928 M72.5,913 L85.5,928 " fill="none" style="stroke:#181818;stroke-width:0.5;"/><text fill="#000000" font-family="sans-serif" font-size="14" lengthAdjust="spacing" textLength="41" x="52" y="944.6074">Owner</text></g><!--entity SysAdmin--><g id="elem_SysAdmin"><ellipse cx="72.5" cy="484" fill="#F1F1F1" rx="8" ry="8" style="stroke:#181818;stroke-width:0.5;"/><path d="M72.5,492 L72.5,519 M59.5,500 L85.5,500 M72.5,519 L59.5,534 M72.5,519 L85.5,534 " fill="none" style="stroke:#181818;stroke-width:0.5;"/><text fill="#000000" font-family="sans-serif" font-size="14" lengthAdjust="spacing" textLength="133" x="6" y="550.6074">System Administrator</text></g><!--entity NM--><g id="elem_NM"><ellipse cx="72.5" cy="220" fill="#F1F1F1" rx="8" ry="8" style="stroke:#181818;stroke-width:0.5;"/><path d="M72.5,228 L72.5,255 M59.5,236 L85.5,236 M72.5,255 L59.5,270 M72.5,255 L85.5,270 " fill="none" style="stroke:#181818;stroke-width:0.5;"/><text fill="#000000" font-family="sans-serif" font-size="14" lengthAdjust="spacing" textLength="110" x="17.5" y="286.6074">Network Manager</text></g><!--entity SM--><g id="elem_SM"><ellipse cx="72.5" cy="14" fill="#F1F1F1" rx="8" ry="8" style="stroke:#181818;stroke-width:0.5;"/><path d="M72.5,22 L72.5,49 M59.5,30 L85.5,30 M72.5,49 L59.5,64 M72.5,49 L85.5,64 " fill="none" style="stroke:#181818;stroke-width:0.5;"/><text fill="#000000" font-family="sans-serif" font-size="14" lengthAdjust="spacing" textLength="94" x="25.5" y="80.6074">Store Manager</text></g><g id="elem_UC1"><ellipse cx="501.73" cy="1824.246" fill="#F1F1F1" rx="119.23" ry="26.246" style="stroke:#181818;stroke-width:0.5;"/><text fill="#000000" font-family="sans-serif" font-size="14" lengthAdjust="spacing" textLength="197" x="401.23" y="1828.0429">UC1 - Display Listed Properties</text></g><g id="elem_UC2"><ellipse cx="501.3509" cy="1221.8702" fill="#F1F1F1" rx="129.8509" ry="28.3702" style="stroke:#181818;stroke-width:0.5;"/><text fill="#000000" font-family="sans-serif" font-size="14" lengthAdjust="spacing" textLength="224" x="389.3509" y="1225.6671">UC2 - Publish Sale Announcements</text></g><g id="elem_UC3"><ellipse cx="501.6469" cy="429.9294" fill="#F1F1F1" rx="120.1469" ry="26.4294" style="stroke:#181818;stroke-width:0.5;"/><text fill="#000000" font-family="sans-serif" font-size="14" lengthAdjust="spacing" textLength="199" x="400.1469" y="433.7263">UC3 - Register a new employee</text></g><g id="elem_UC4"><ellipse cx="501.3306" cy="717.8661" fill="#F1F1F1" rx="177.3306" ry="37.8661" style="stroke:#181818;stroke-width:0.5;"/><text fill="#000000" font-family="sans-serif" font-size="14" lengthAdjust="spacing" textLength="324" x="339.3306" y="721.663">UC4 - Submit request for listing a property sale/rent</text></g><g id="elem_UC5"><ellipse cx="501.7162" cy="514.9432" fill="#F1F1F1" rx="105.2162" ry="23.4432" style="stroke:#181818;stroke-width:0.5;"/><text fill="#000000" font-family="sans-serif" font-size="14" lengthAdjust="spacing" textLength="170" x="416.7162" y="518.7401">UC5 - Register a new store</text></g><g id="elem_UC7"><ellipse cx="501.6919" cy="1909.8384" fill="#F1F1F1" rx="109.6919" ry="24.3384" style="stroke:#181818;stroke-width:0.5;"/><text fill="#000000" font-family="sans-serif" font-size="14" lengthAdjust="spacing" textLength="180" x="411.6919" y="1913.6353">UC7 - Register in the system</text></g><g id="elem_UC8"><ellipse cx="501.4224" cy="1326.1845" fill="#F1F1F1" rx="188.9224" ry="40.1845" style="stroke:#181818;stroke-width:0.5;"/><text fill="#000000" font-family="sans-serif" font-size="14" lengthAdjust="spacing" textLength="348" x="327.4224" y="1329.9814">UC8 - Select and Post Announcement Request from list</text></g><g id="elem_UC9"><ellipse cx="501.3073" cy="840.0615" fill="#F1F1F1" rx="230.8073" ry="48.5615" style="stroke:#181818;stroke-width:0.5;"/><text fill="#000000" font-family="sans-serif" font-size="14" lengthAdjust="spacing" textLength="434" x="284.3073" y="843.8583">UC9 - Leave a message to the agent to schedule a visit to a property</text></g><g id="elem_UC10"><ellipse cx="501.3487" cy="976.7697" fill="#F1F1F1" rx="254.3487" ry="53.2697" style="stroke:#181818;stroke-width:0.5;"/><text fill="#000000" font-family="sans-serif" font-size="14" lengthAdjust="spacing" textLength="482" x="260.3487" y="980.5666">UC10 - Place an order to purchase the property submitting the order amount</text></g><g id="elem_UC11"><ellipse cx="501.6384" cy="1463.9277" fill="#F1F1F1" rx="302.6384" ry="62.9277" style="stroke:#181818;stroke-width:0.5;"/><text fill="#000000" font-family="sans-serif" font-size="14" lengthAdjust="spacing" textLength="580" x="211.6384" y="1467.7246">UC11 - List real estate purchase orders to accept or decline a purchase order for a property</text></g><g id="elem_UC12"><ellipse cx="501.3399" cy="608.868" fill="#F1F1F1" rx="164.8399" ry="35.368" style="stroke:#181818;stroke-width:0.5;"/><text fill="#000000" font-family="sans-serif" font-size="14" lengthAdjust="spacing" textLength="298" x="352.3399" y="612.6649">UC12 - Import information from a legacy system</text></g><g id="elem_UC13"><ellipse cx="501.2568" cy="147.7514" fill="#F1F1F1" rx="211.7568" ry="44.7514" style="stroke:#181818;stroke-width:0.5;"/><text fill="#000000" font-family="sans-serif" font-size="14" lengthAdjust="spacing" textLength="395" x="303.7568" y="151.5482">UC13 - List all employees working in every store of the network</text></g><g id="elem_UC15"><ellipse cx="501.2568" cy="1606.7514" fill="#F1F1F1" rx="211.7568" ry="44.7514" style="stroke:#181818;stroke-width:0.5;"/><text fill="#000000" font-family="sans-serif" font-size="14" lengthAdjust="spacing" textLength="395" x="303.7568" y="1610.5482">UC15 - List all booking requests for properties managed by me</text></g><g id="elem_UC16"><ellipse cx="501.2945" cy="1725.0589" fill="#F1F1F1" rx="178.2945" ry="38.0589" style="stroke:#181818;stroke-width:0.5;"/><text fill="#000000" font-family="sans-serif" font-size="14" lengthAdjust="spacing" textLength="326" x="338.2945" y="1728.8558">UC16 - Respond to the user that scheduled the visit</text></g><g id="elem_UC17"><ellipse cx="501.4985" cy="250.9997" fill="#F1F1F1" rx="102.9985" ry="22.9997" style="stroke:#181818;stroke-width:0.5;"/><text fill="#000000" font-family="sans-serif" font-size="14" lengthAdjust="spacing" textLength="165" x="418.7441" y="254.8933">UC17 - List all deals made</text></g><g id="elem_UC18"><ellipse cx="501.3085" cy="45.0617" fill="#F1F1F1" rx="100.8085" ry="22.5617" style="stroke:#181818;stroke-width:0.5;"/><text fill="#000000" font-family="sans-serif" font-size="14" lengthAdjust="spacing" textLength="160" x="420.4387" y="49.1799">UC18 - Analyse the deals</text></g><g id="elem_UC19"><ellipse cx="501.4188" cy="339.0838" fill="#F1F1F1" rx="135.9188" ry="29.5838" style="stroke:#181818;stroke-width:0.5;"/><text fill="#000000" font-family="sans-serif" font-size="14" lengthAdjust="spacing" textLength="237" x="382.9188" y="342.8806">UC19 - Divide Stores into two subsets</text></g><g id="elem_UC20"><ellipse cx="501.5394" cy="1112.0079" fill="#F1F1F1" rx="220.5394" ry="46.5079" style="stroke:#181818;stroke-width:0.5;"/><text fill="#000000" font-family="sans-serif" font-size="14" lengthAdjust="spacing" textLength="413" x="295.0394" y="1115.8048">UC20 - Accept or reject the response for the appointment request</text></g><!--link UR to UC1--><g id="link_UR_UC1"><path d="M129.76,1861.33 C195.13,1854.75 304.64,1843.72 387.73,1835.36 " fill="none" id="UR-to-UC1" style="stroke:#181818;stroke-width:1.0;"/><polygon fill="#181818" points="393.16,1834.81,383.8049,1831.7307,388.1851,1835.3103,384.6055,1839.6906,393.16,1834.81" style="stroke:#181818;stroke-width:1.0;"/></g><!--link Agent to UC2--><g id="link_Agent_UC2"><path d="M87.53,1424.2 C105.76,1378.77 142.14,1305.99 199,1269 C248.25,1236.96 311.41,1223.86 367.19,1219.3 " fill="none" id="Agent-to-UC2" style="stroke:#181818;stroke-width:1.0;"/><polygon fill="#181818" points="372.22,1218.91,362.9383,1215.6161,367.2349,1219.2957,363.5553,1223.5923,372.22,1218.91" style="stroke:#181818;stroke-width:1.0;"/></g><!--link Agent to UC11--><g id="link_Agent_UC11"><path d="M91.03,1464 C111.89,1464 149.5,1464 193.76,1464 " fill="none" id="Agent-to-UC11" style="stroke:#181818;stroke-width:1.0;"/><polygon fill="#181818" points="198.91,1464,189.91,1460,193.91,1464,189.91,1468,198.91,1464" style="stroke:#181818;stroke-width:1.0;"/></g><!--link Agent to UC15--><g id="link_Agent_UC15"><path d="M91.02,1478.35 C114.26,1496.64 157.23,1527.93 199,1545 C236.79,1560.44 278.88,1572.19 319.33,1581.07 " fill="none" id="Agent-to-UC15" style="stroke:#181818;stroke-width:1.0;"/><polygon fill="#181818" points="324.25,1582.14,316.3157,1576.305,319.3661,1581.069,314.6021,1584.1193,324.25,1582.14" style="stroke:#181818;stroke-width:1.0;"/></g><!--link Agent to UC16--><g id="link_Agent_UC16"><path d="M86.3,1503.64 C103.81,1551.16 139.98,1629.45 199,1670 C234.68,1694.52 278.14,1709.01 320.82,1717.36 " fill="none" id="Agent-to-UC16" style="stroke:#181818;stroke-width:1.0;"/><polygon fill="#181818" points="325.75,1718.3,317.6649,1712.6758,320.8396,1717.3579,316.1575,1720.5325,325.75,1718.3" style="stroke:#181818;stroke-width:1.0;"/></g><!--link SysAdmin to UC3--><g id="link_SysAdmin_UC3"><path d="M139.01,491.26 C158.16,484.96 179.25,478.63 199,474 C260.62,459.55 330.49,449 387.45,441.85 " fill="none" id="SysAdmin-to-UC3" style="stroke:#181818;stroke-width:1.0;"/><polygon fill="#181818" points="392.57,441.22,383.1464,438.3572,387.608,441.8349,384.1302,446.2964,392.57,441.22" style="stroke:#181818;stroke-width:1.0;"/></g><!--link SysAdmin to UC12--><g id="link_SysAdmin_UC12"><path d="M139.1,538.37 C158.25,544.66 179.32,551.08 199,556 C250.72,568.92 308.19,579.86 358.98,588.38 " fill="none" id="SysAdmin-to-UC12" style="stroke:#181818;stroke-width:1.0;"/><polygon fill="#181818" points="364.19,589.24,355.9624,583.8264,359.2569,588.425,354.6583,591.7194,364.19,589.24" style="stroke:#181818;stroke-width:1.0;"/></g><!--link Owner to UC4--><g id="link_Owner_UC4"><path d="M93.06,878.45 C114.91,846.99 153.29,799.13 199,774 C237.97,752.57 283.61,739.17 327.41,730.83 " fill="none" id="Owner-to-UC4" style="stroke:#181818;stroke-width:1.0;"/><polygon fill="#181818" points="332.47,729.89,322.8902,727.6037,327.5543,730.8045,324.3535,735.4687,332.47,729.89" style="stroke:#181818;stroke-width:1.0;"/></g><!--link Owner to UC9--><g id="link_Owner_UC9"><path d="M93.24,905.81 C132.84,899.41 225.66,884.41 312.69,870.35 " fill="none" id="Owner-to-UC9" style="stroke:#181818;stroke-width:1.0;"/><polygon fill="#181818" points="317.89,869.51,308.3654,867.0037,312.9546,870.3111,309.6472,874.9003,317.89,869.51" style="stroke:#181818;stroke-width:1.0;"/></g><!--link Owner to UC10--><g id="link_Owner_UC10"><path d="M93.24,912.14 C129.83,917.97 211.86,931.03 292.78,943.92 " fill="none" id="Owner-to-UC10" style="stroke:#181818;stroke-width:1.0;"/><polygon fill="#181818" points="298.11,944.77,289.852,939.403,293.1724,943.9828,288.5925,947.3032,298.11,944.77" style="stroke:#181818;stroke-width:1.0;"/></g><!--link Owner to UC20--><g id="link_Owner_UC20"><path d="M93.18,940.53 C114.99,972.72 153.22,1021.62 199,1048 C230.37,1066.08 266.23,1079.07 302,1088.41 " fill="none" id="Owner-to-UC20" style="stroke:#181818;stroke-width:1.0;"/><polygon fill="#181818" points="307.28,1089.76,299.5568,1083.6483,302.4369,1088.5171,297.5682,1091.3972,307.28,1089.76" style="stroke:#181818;stroke-width:1.0;"/></g><!--link SysAdmin to UC5--><g id="link_SysAdmin_UC5"><path d="M139.28,515 C206.35,515 311.58,515 391.19,515 " fill="none" id="SysAdmin-to-UC5" style="stroke:#181818;stroke-width:1.0;"/><polygon fill="#181818" points="396.4,515,387.4,511,391.4,515,387.4,519,396.4,515" style="stroke:#181818;stroke-width:1.0;"/></g><!--link UR to UC7--><g id="link_UR_UC7"><path d="M129.76,1872.67 C197.37,1879.47 312.19,1891.04 396.18,1899.49 " fill="none" id="UR-to-UC7" style="stroke:#181818;stroke-width:1.0;"/><polygon fill="#181818" points="401.16,1900,392.6041,1895.1219,396.185,1899.5011,391.8058,1903.082,401.16,1900" style="stroke:#181818;stroke-width:1.0;"/></g><!--link Agent to UC8--><g id="link_Agent_UC8"><path d="M91.02,1449.75 C114.26,1431.61 157.23,1400.63 199,1384 C240.85,1367.35 287.91,1355.37 332.2,1346.79 " fill="none" id="Agent-to-UC8" style="stroke:#181818;stroke-width:1.0;"/><polygon fill="#181818" points="337.3,1345.81,327.7075,1343.5775,332.3896,1346.7521,329.2149,1351.4342,337.3,1345.81" style="stroke:#181818;stroke-width:1.0;"/></g><!--link NM to UC13--><g id="link_NM_UC13"><path d="M127.5,232.45 C149.53,225.24 175.34,217.23 199,211 C243.66,199.25 292.49,188.26 337.61,178.85 " fill="none" id="NM-to-UC13" style="stroke:#181818;stroke-width:1.0;"/><polygon fill="#181818" points="342.52,177.83,332.896,175.7373,337.6238,178.8435,334.5176,183.5713,342.52,177.83" style="stroke:#181818;stroke-width:1.0;"/></g><!--link NM to UC17--><g id="link_NM_UC17"><path d="M127.58,251 C194.14,251 308.72,251 393.36,251 " fill="none" id="NM-to-UC17" style="stroke:#181818;stroke-width:1.0;"/><polygon fill="#181818" points="398.38,251,389.38,247,393.38,251,389.38,255,398.38,251" style="stroke:#181818;stroke-width:1.0;"/></g><!--link NM to UC19--><g id="link_NM_UC19"><path d="M127.62,270.8 C149.55,278.26 175.26,286.31 199,292 C256.64,305.81 321.49,316.53 376.24,324.22 " fill="none" id="NM-to-UC19" style="stroke:#181818;stroke-width:1.0;"/><polygon fill="#181818" points="381.51,324.95,373.1577,319.7309,376.5591,324.2509,372.0391,327.6523,381.51,324.95" style="stroke:#181818;stroke-width:1.0;"/></g><!--link SM to UC18--><g id="link_SM_UC18"><path d="M119.6,45 C185.04,45 306.71,45 394.97,45 " fill="none" id="SM-to-UC18" style="stroke:#181818;stroke-width:1.0;"/><polygon fill="#181818" points="400.2,45,391.2,41,395.2,45,391.2,49,400.2,45" style="stroke:#181818;stroke-width:1.0;"/></g><!--SRC=[PLHDRzim3BthLn2zz5IiJfgckGm8kXq6D5tH83-0iHbRgorvafpC_twaOYTMUp4iwl7nwr6t_aER5Xqsq5XZyyhPXY2uZjJrfiNy0qlQXhucS9G7D6LDwlQAy1KMzgHD2GUiFIcbReCEZDvvWcVapm-DfI1__iEcPMTLqo50iE1qMGKejF1gQvJ2F5W7DplZgDG-aAD2QDmDe8VT-tY_Bic4Q8j_e_dtoGpG-3UQjpqpDR0k6csOr25R8ueled44lb8uMVS16pHSyXdpkhdGy9UIk-s6Y-qyvLBapUuvWpkkrRSrzl0YwHVmvcnBBcZoSAxXEPjwpDZZhTlNsbUmHUxPsXZRcPmQBiiF7hEfnvmzteVc08AX4n0trVP4OuJv5F_0-6stRtJWwVtjo0SuS3KSCSZ84DfpXZruZl_DZOrbpodDucjOB_qOi8ifTZd5QWEX8l1n1WDwEKK_IO9Kim803JVCSeRJBZ3La3RBC-Ozi3nDMLRCya9u94wk8UzvHY8m2OqY4JdulAAYgmLor5v7sxN-WNML3FHUvbDZpZu6h2ku87PgEvTN0X7wQ_zYbsDNnNv6OyE5Z1bdzmcvo4LameF16hX437JbZlu-vfZdr0OsG45vhOqKaCBYIB-KaYLIoqHhlvhMki13OOS6PUVERKMegSIyJ-UK9ShBvcE-MDSNqNcGbP6YUT9q9DUVXG7s4DjWpZirCYRQp1PJnhsraMUGgOz5jTVzQUBc5R3lUS8ZNoAyx34gpxUMXJHCdwzvPXM6o_YBQ8yA65aU4vRbDAk2PoEnYql8HBsPo7TjiEu7EKJy24qacgtYyt3K1K5yIpotJB8yMT6Efyl2Pua8PoB2zKK3Zlx8haWi5qjbb7GgIhrjBNF6jHdQEBuXzqhjtk7kxdjyWkApEPncoIbBBxd1oV5HZO_cO9b_Dh1eukix71-IqoevyJvCZvpZ9wx5DUTbaiUJUjsC9FF9_tBolrBRo_-JKly1]--></g></svg>