<?xml version="1.0" encoding="us-ascii" standalone="no"?><svg xmlns="http://www.w3.org/2000/svg" xmlns:xlink="http://www.w3.org/1999/xlink" contentStyleType="text/css" height="1522px" preserveAspectRatio="none" style="width:1704px;height:1522px;background:#FFFFFF;" version="1.1" viewBox="0 0 1704 1522" width="1704px" zoomAndPan="magnify"><defs/><g><rect fill="#FFFFFF" height="1333.4922" style="stroke:#181818;stroke-width:1.0;" width="10" x="65" y="90.6406"/><rect fill="#FFFFFF" height="110.6875" style="stroke:#181818;stroke-width:1.0;" width="10" x="515" y="111.1641"/><rect fill="#FFFFFF" height="298.2344" style="stroke:#181818;stroke-width:1.0;" width="10" x="515" y="250.375"/><rect fill="#FFFFFF" height="801.6094" style="stroke:#181818;stroke-width:1.0;" width="10" x="515" y="622.5234"/><rect fill="#FFFFFF" height="199.6641" style="stroke:#181818;stroke-width:1.0;" width="10" x="879" y="320.4219"/><rect fill="#FFFFFF" height="199.6641" style="stroke:#181818;stroke-width:1.0;" width="10" x="879" y="782.6172"/><rect fill="#FFFFFF" height="328.7578" style="stroke:#181818;stroke-width:1.0;" width="10" x="879" y="1010.8047"/><rect fill="#FFFFFF" height="28.5234" style="stroke:#181818;stroke-width:1.0;" width="10" x="1020.5" y="348.9453"/><rect fill="#FFFFFF" height="28.5234" style="stroke:#181818;stroke-width:1.0;" width="10" x="1020.5" y="811.1406"/><rect fill="#FFFFFF" height="28.5234" style="stroke:#181818;stroke-width:1.0;" width="10" x="1020.5" y="1039.3281"/><rect fill="#FFFFFF" height="28.5234" style="stroke:#181818;stroke-width:1.0;" width="10" x="1127.5" y="405.9922"/><rect fill="#FFFFFF" height="28.5234" style="stroke:#181818;stroke-width:1.0;" width="10" x="1127.5" y="868.1875"/><rect fill="#FFFFFF" height="28.5234" style="stroke:#181818;stroke-width:1.0;" width="10" x="1127.5" y="1096.375"/><rect fill="#FFFFFF" height="28.5234" style="stroke:#181818;stroke-width:1.0;" width="10" x="1255.5" y="463.0391"/><rect fill="#FFFFFF" height="28.5234" style="stroke:#181818;stroke-width:1.0;" width="10" x="1426" y="925.2344"/><rect fill="#FFFFFF" height="157.6172" style="stroke:#181818;stroke-width:1.0;" width="10" x="1426" y="1153.4219"/><rect fill="#FFFFFF" height="28.5234" style="stroke:#181818;stroke-width:1.0;" width="10" x="1628" y="1205.4688"/><rect fill="none" height="149.9609" style="stroke:#000000;stroke-width:1.5;" width="733" x="10" y="563.6094"/><rect fill="none" height="115.0938" style="stroke:#000000;stroke-width:1.5;" width="368.5" x="1330" y="1168.4219"/><line style="stroke:#181818;stroke-width:0.5;stroke-dasharray:5.0,5.0;" x1="70" x2="70" y1="80.6406" y2="1442.1328"/><line style="stroke:#181818;stroke-width:0.5;stroke-dasharray:5.0,5.0;" x1="520" x2="520" y1="80.6406" y2="1442.1328"/><line style="stroke:#181818;stroke-width:0.5;stroke-dasharray:5.0,5.0;" x1="884" x2="884" y1="149.4844" y2="1442.1328"/><line style="stroke:#181818;stroke-width:0.5;stroke-dasharray:5.0,5.0;" x1="1025" x2="1025" y1="80.6406" y2="1442.1328"/><line style="stroke:#181818;stroke-width:0.5;stroke-dasharray:5.0,5.0;" x1="1132" x2="1132" y1="80.6406" y2="1442.1328"/><line style="stroke:#181818;stroke-width:0.5;stroke-dasharray:5.0,5.0;" x1="1260" x2="1260" y1="80.6406" y2="1442.1328"/><line style="stroke:#181818;stroke-width:0.5;stroke-dasharray:5.0,5.0;" x1="1431" x2="1431" y1="80.6406" y2="1442.1328"/><line style="stroke:#181818;stroke-width:0.5;stroke-dasharray:5.0,5.0;" x1="1632.5" x2="1632.5" y1="80.6406" y2="1442.1328"/><text fill="#000000" font-family="sans-serif" font-size="14" lengthAdjust="spacing" textLength="94" x="20" y="77.6738">Store Manager</text><ellipse cx="70" cy="13.5" fill="#E3E3E3" rx="8" ry="8" style="stroke:#181818;stroke-width:0.5;"/><path d="M70,21.5 L70,48.5 M57,29.5 L83,29.5 M70,48.5 L57,63.5 M70,48.5 L83,63.5 " fill="none" style="stroke:#181818;stroke-width:0.5;"/><text fill="#000000" font-family="sans-serif" font-size="14" lengthAdjust="spacing" textLength="94" x="20" y="1453.8066">Store Manager</text><ellipse cx="70" cy="1465.2734" fill="#E3E3E3" rx="8" ry="8" style="stroke:#181818;stroke-width:0.5;"/><path d="M70,1473.2734 L70,1500.2734 M57,1481.2734 L83,1481.2734 M70,1500.2734 L57,1515.2734 M70,1500.2734 L83,1515.2734 " fill="none" style="stroke:#181818;stroke-width:0.5;"/><rect fill="#E3E3E3" height="29.6406" rx="2.5" ry="2.5" style="stroke:#181818;stroke-width:0.5;" width="116" x="462" y="50"/><text fill="#000000" font-family="sans-serif" font-size="14" lengthAdjust="spacing" textLength="102" x="469" y="69.6738">:AnalyseDealsUI</text><rect fill="#E3E3E3" height="29.6406" rx="2.5" ry="2.5" style="stroke:#181818;stroke-width:0.5;" width="116" x="462" y="1441.1328"/><text fill="#000000" font-family="sans-serif" font-size="14" lengthAdjust="spacing" textLength="102" x="469" y="1460.8066">:AnalyseDealsUI</text><rect fill="#E3E3E3" height="29.6406" rx="2.5" ry="2.5" style="stroke:#181818;stroke-width:0.5;" width="166" x="801" y="1441.1328"/><text fill="#000000" font-family="sans-serif" font-size="14" lengthAdjust="spacing" textLength="152" x="808" y="1460.8066">:AnalyseDealsController</text><rect fill="#E3E3E3" height="29.6406" rx="2.5" ry="2.5" style="stroke:#181818;stroke-width:0.5;" width="97" x="977" y="50"/><text fill="#000000" font-family="sans-serif" font-size="14" lengthAdjust="spacing" textLength="83" x="984" y="69.6738">:Repositories</text><rect fill="#E3E3E3" height="29.6406" rx="2.5" ry="2.5" style="stroke:#181818;stroke-width:0.5;" width="97" x="977" y="1441.1328"/><text fill="#000000" font-family="sans-serif" font-size="14" lengthAdjust="spacing" textLength="83" x="984" y="1460.8066">:Repositories</text><rect fill="#E3E3E3" height="45.2813" rx="2.5" ry="2.5" style="stroke:#181818;stroke-width:0.5;" width="97" x="1084" y="34.3594"/><text fill="#000000" font-family="sans-serif" font-size="14" lengthAdjust="spacing" textLength="74" x="1095.5" y="54.0332">repositories</text><text fill="#000000" font-family="sans-serif" font-size="14" lengthAdjust="spacing" textLength="83" x="1091" y="69.6738">:Repositories</text><rect fill="#E3E3E3" height="45.2813" rx="2.5" ry="2.5" style="stroke:#181818;stroke-width:0.5;" width="97" x="1084" y="1441.1328"/><text fill="#000000" font-family="sans-serif" font-size="14" lengthAdjust="spacing" textLength="74" x="1095.5" y="1460.8066">repositories</text><text fill="#000000" font-family="sans-serif" font-size="14" lengthAdjust="spacing" textLength="83" x="1091" y="1476.4473">:Repositories</text><rect fill="#E3E3E3" height="45.2813" rx="2.5" ry="2.5" style="stroke:#181818;stroke-width:0.5;" width="139" x="1191" y="34.3594"/><text fill="#000000" font-family="sans-serif" font-size="14" lengthAdjust="spacing" textLength="125" x="1198" y="54.0332">propertyRepository:</text><text fill="#000000" font-family="sans-serif" font-size="14" lengthAdjust="spacing" textLength="122" x="1199.5" y="69.6738">PropertyRepository</text><rect fill="#E3E3E3" height="45.2813" rx="2.5" ry="2.5" style="stroke:#181818;stroke-width:0.5;" width="139" x="1191" y="1441.1328"/><text fill="#000000" font-family="sans-serif" font-size="14" lengthAdjust="spacing" textLength="125" x="1198" y="1460.8066">propertyRepository:</text><text fill="#000000" font-family="sans-serif" font-size="14" lengthAdjust="spacing" textLength="122" x="1199.5" y="1476.4473">PropertyRepository</text><rect fill="#E3E3E3" height="45.2813" rx="2.5" ry="2.5" style="stroke:#181818;stroke-width:0.5;" width="182" x="1340" y="34.3594"/><text fill="#000000" font-family="sans-serif" font-size="14" lengthAdjust="spacing" textLength="168" x="1347" y="54.0332">purchaseOrderRepository:</text><text fill="#000000" font-family="sans-serif" font-size="14" lengthAdjust="spacing" textLength="165" x="1348.5" y="69.6738">PurchaseOrderRepository</text><rect fill="#E3E3E3" height="45.2813" rx="2.5" ry="2.5" style="stroke:#181818;stroke-width:0.5;" width="182" x="1340" y="1441.1328"/><text fill="#000000" font-family="sans-serif" font-size="14" lengthAdjust="spacing" textLength="168" x="1347" y="1460.8066">purchaseOrderRepository:</text><text fill="#000000" font-family="sans-serif" font-size="14" lengthAdjust="spacing" textLength="165" x="1348.5" y="1476.4473">PurchaseOrderRepository</text><rect fill="#E3E3E3" height="29.6406" rx="2.5" ry="2.5" style="stroke:#181818;stroke-width:0.5;" width="111" x="1577.5" y="50"/><text fill="#000000" font-family="sans-serif" font-size="14" lengthAdjust="spacing" textLength="97" x="1584.5" y="69.6738">PurchaseOrder</text><rect fill="#E3E3E3" height="29.6406" rx="2.5" ry="2.5" style="stroke:#181818;stroke-width:0.5;" width="111" x="1577.5" y="1441.1328"/><text fill="#000000" font-family="sans-serif" font-size="14" lengthAdjust="spacing" textLength="97" x="1584.5" y="1460.8066">PurchaseOrder</text><rect fill="#FFFFFF" height="1333.4922" style="stroke:#181818;stroke-width:1.0;" width="10" x="65" y="90.6406"/><rect fill="#FFFFFF" height="110.6875" style="stroke:#181818;stroke-width:1.0;" width="10" x="515" y="111.1641"/><rect fill="#FFFFFF" height="298.2344" style="stroke:#181818;stroke-width:1.0;" width="10" x="515" y="250.375"/><rect fill="#FFFFFF" height="801.6094" style="stroke:#181818;stroke-width:1.0;" width="10" x="515" y="622.5234"/><rect fill="#FFFFFF" height="199.6641" style="stroke:#181818;stroke-width:1.0;" width="10" x="879" y="320.4219"/><rect fill="#FFFFFF" height="199.6641" style="stroke:#181818;stroke-width:1.0;" width="10" x="879" y="782.6172"/><rect fill="#FFFFFF" height="328.7578" style="stroke:#181818;stroke-width:1.0;" width="10" x="879" y="1010.8047"/><rect fill="#FFFFFF" height="28.5234" style="stroke:#181818;stroke-width:1.0;" width="10" x="1020.5" y="348.9453"/><rect fill="#FFFFFF" height="28.5234" style="stroke:#181818;stroke-width:1.0;" width="10" x="1020.5" y="811.1406"/><rect fill="#FFFFFF" height="28.5234" style="stroke:#181818;stroke-width:1.0;" width="10" x="1020.5" y="1039.3281"/><rect fill="#FFFFFF" height="28.5234" style="stroke:#181818;stroke-width:1.0;" width="10" x="1127.5" y="405.9922"/><rect fill="#FFFFFF" height="28.5234" style="stroke:#181818;stroke-width:1.0;" width="10" x="1127.5" y="868.1875"/><rect fill="#FFFFFF" height="28.5234" style="stroke:#181818;stroke-width:1.0;" width="10" x="1127.5" y="1096.375"/><rect fill="#FFFFFF" height="28.5234" style="stroke:#181818;stroke-width:1.0;" width="10" x="1255.5" y="463.0391"/><rect fill="#FFFFFF" height="28.5234" style="stroke:#181818;stroke-width:1.0;" width="10" x="1426" y="925.2344"/><rect fill="#FFFFFF" height="157.6172" style="stroke:#181818;stroke-width:1.0;" width="10" x="1426" y="1153.4219"/><rect fill="#FFFFFF" height="28.5234" style="stroke:#181818;stroke-width:1.0;" width="10" x="1628" y="1205.4688"/><polygon fill="#181818" points="503,107.1641,513,111.1641,503,115.1641,507,111.1641" style="stroke:#181818;stroke-width:1.0;"/><line style="stroke:#181818;stroke-width:1.0;" x1="75" x2="509" y1="111.1641" y2="111.1641"/><text fill="#000000" font-family="sans-serif" font-size="13" font-weight="bold" lengthAdjust="spacing" textLength="7" x="82" y="106.4092">1</text><text fill="#000000" font-family="sans-serif" font-size="13" lengthAdjust="spacing" textLength="142" x="93" y="106.4092">request to analyse deals</text><polygon fill="#181818" points="789,135.6875,799,139.6875,789,143.6875,793,139.6875" style="stroke:#181818;stroke-width:1.0;"/><line style="stroke:#181818;stroke-width:1.0;" x1="525" x2="795" y1="139.6875" y2="139.6875"/><text fill="#000000" font-family="sans-serif" font-size="13" font-weight="bold" lengthAdjust="spacing" textLength="7" x="532" y="134.9326">2</text><text fill="#000000" font-family="sans-serif" font-size="13" lengthAdjust="spacing" textLength="179" x="543" y="134.9326">createAnalyseDealsController()</text><rect fill="#E3E3E3" height="29.6406" rx="2.5" ry="2.5" style="stroke:#181818;stroke-width:0.5;" width="166" x="801" y="119.1641"/><text fill="#000000" font-family="sans-serif" font-size="14" lengthAdjust="spacing" textLength="152" x="808" y="138.8379">:AnalyseDealsController</text><line style="stroke:#181818;stroke-width:1.0;stroke-dasharray:2.0,2.0;" x1="525" x2="567" y1="185.3281" y2="185.3281"/><line style="stroke:#181818;stroke-width:1.0;stroke-dasharray:2.0,2.0;" x1="567" x2="567" y1="185.3281" y2="198.3281"/><line style="stroke:#181818;stroke-width:1.0;stroke-dasharray:2.0,2.0;" x1="520" x2="567" y1="198.3281" y2="198.3281"/><polygon fill="#181818" points="530,194.3281,520,198.3281,530,202.3281,526,198.3281" style="stroke:#181818;stroke-width:1.0;"/><text fill="#000000" font-family="sans-serif" font-size="13" font-weight="bold" lengthAdjust="spacing" textLength="7" x="532" y="180.5732">3</text><text fill="#000000" font-family="sans-serif" font-size="13" lengthAdjust="spacing" textLength="141" x="543" y="180.5732">displayRegressionModel</text><polygon fill="#181818" points="86,217.8516,76,221.8516,86,225.8516,82,221.8516" style="stroke:#181818;stroke-width:1.0;"/><line style="stroke:#181818;stroke-width:1.0;stroke-dasharray:2.0,2.0;" x1="80" x2="519" y1="221.8516" y2="221.8516"/><text fill="#000000" font-family="sans-serif" font-size="13" font-weight="bold" lengthAdjust="spacing" textLength="7" x="92" y="217.0967">4</text><text fill="#000000" font-family="sans-serif" font-size="13" lengthAdjust="spacing" textLength="313" x="103" y="217.0967">request regression model (simple linear or multi-linear)</text><polygon fill="#181818" points="503,246.375,513,250.375,503,254.375,507,250.375" style="stroke:#181818;stroke-width:1.0;"/><line style="stroke:#181818;stroke-width:1.0;" x1="75" x2="509" y1="250.375" y2="250.375"/><text fill="#000000" font-family="sans-serif" font-size="13" font-weight="bold" lengthAdjust="spacing" textLength="7" x="82" y="245.6201">5</text><text fill="#000000" font-family="sans-serif" font-size="13" lengthAdjust="spacing" textLength="138" x="93" y="245.6201">select regression model</text><line style="stroke:#181818;stroke-width:1.0;stroke-dasharray:2.0,2.0;" x1="525" x2="567" y1="278.8984" y2="278.8984"/><line style="stroke:#181818;stroke-width:1.0;stroke-dasharray:2.0,2.0;" x1="567" x2="567" y1="278.8984" y2="291.8984"/><line style="stroke:#181818;stroke-width:1.0;stroke-dasharray:2.0,2.0;" x1="526" x2="567" y1="291.8984" y2="291.8984"/><polygon fill="#181818" points="536,287.8984,526,291.8984,536,295.8984,532,291.8984" style="stroke:#181818;stroke-width:1.0;"/><text fill="#000000" font-family="sans-serif" font-size="13" font-weight="bold" lengthAdjust="spacing" textLength="7" x="532" y="274.1436">6</text><text fill="#000000" font-family="sans-serif" font-size="13" lengthAdjust="spacing" textLength="135" x="543" y="274.1436">keep (regressionModel)</text><polygon fill="#181818" points="867,316.4219,877,320.4219,867,324.4219,871,320.4219" style="stroke:#181818;stroke-width:1.0;"/><line style="stroke:#181818;stroke-width:1.0;stroke-dasharray:2.0,2.0;" x1="525" x2="873" y1="320.4219" y2="320.4219"/><text fill="#000000" font-family="sans-serif" font-size="13" font-weight="bold" lengthAdjust="spacing" textLength="7" x="532" y="315.667">7</text><text fill="#000000" font-family="sans-serif" font-size="13" lengthAdjust="spacing" textLength="177" x="543" y="315.667">displayIndependentVariables ()</text><polygon fill="#181818" points="1008.5,344.9453,1018.5,348.9453,1008.5,352.9453,1012.5,348.9453" style="stroke:#181818;stroke-width:1.0;"/><line style="stroke:#181818;stroke-width:1.0;" x1="889" x2="1014.5" y1="348.9453" y2="348.9453"/><text fill="#000000" font-family="sans-serif" font-size="13" font-weight="bold" lengthAdjust="spacing" textLength="7" x="896" y="344.1904">8</text><text fill="#000000" font-family="sans-serif" font-size="13" lengthAdjust="spacing" textLength="75" x="907" y="344.1904">getInstance()</text><polygon fill="#181818" points="900,373.4688,890,377.4688,900,381.4688,896,377.4688" style="stroke:#181818;stroke-width:1.0;"/><line style="stroke:#181818;stroke-width:1.0;stroke-dasharray:2.0,2.0;" x1="894" x2="1024.5" y1="377.4688" y2="377.4688"/><text fill="#000000" font-family="sans-serif" font-size="13" font-weight="bold" lengthAdjust="spacing" textLength="18" x="906" y="372.7139">7.1</text><text fill="#000000" font-family="sans-serif" font-size="13" lengthAdjust="spacing" textLength="67" x="928" y="372.7139">repositories</text><polygon fill="#181818" points="1115.5,401.9922,1125.5,405.9922,1115.5,409.9922,1119.5,405.9922" style="stroke:#181818;stroke-width:1.0;"/><line style="stroke:#181818;stroke-width:1.0;" x1="889" x2="1121.5" y1="405.9922" y2="405.9922"/><text fill="#000000" font-family="sans-serif" font-size="13" font-weight="bold" lengthAdjust="spacing" textLength="18" x="896" y="401.2373">7.2</text><text fill="#000000" font-family="sans-serif" font-size="13" lengthAdjust="spacing" textLength="137" x="918" y="401.2373">getPropertyRepository()</text><polygon fill="#181818" points="900,430.5156,890,434.5156,900,438.5156,896,434.5156" style="stroke:#181818;stroke-width:1.0;"/><line style="stroke:#181818;stroke-width:1.0;" x1="894" x2="1131.5" y1="434.5156" y2="434.5156"/><text fill="#000000" font-family="sans-serif" font-size="13" font-weight="bold" lengthAdjust="spacing" textLength="18" x="906" y="429.7607">7.3</text><text fill="#000000" font-family="sans-serif" font-size="13" lengthAdjust="spacing" textLength="109" x="928" y="429.7607">propertyRepository</text><polygon fill="#181818" points="1243.5,459.0391,1253.5,463.0391,1243.5,467.0391,1247.5,463.0391" style="stroke:#181818;stroke-width:1.0;"/><line style="stroke:#181818;stroke-width:1.0;" x1="889" x2="1249.5" y1="463.0391" y2="463.0391"/><text fill="#000000" font-family="sans-serif" font-size="13" font-weight="bold" lengthAdjust="spacing" textLength="18" x="896" y="458.2842">7.4</text><text fill="#000000" font-family="sans-serif" font-size="13" lengthAdjust="spacing" textLength="150" x="918" y="458.2842">getIndependentVariables()</text><polygon fill="#181818" points="900,487.5625,890,491.5625,900,495.5625,896,491.5625" style="stroke:#181818;stroke-width:1.0;"/><line style="stroke:#181818;stroke-width:1.0;stroke-dasharray:2.0,2.0;" x1="894" x2="1259.5" y1="491.5625" y2="491.5625"/><text fill="#000000" font-family="sans-serif" font-size="13" font-weight="bold" lengthAdjust="spacing" textLength="18" x="906" y="486.8076">7.5</text><text fill="#000000" font-family="sans-serif" font-size="13" lengthAdjust="spacing" textLength="145" x="928" y="486.8076">independentVariablesList</text><polygon fill="#181818" points="536,516.0859,526,520.0859,536,524.0859,532,520.0859" style="stroke:#181818;stroke-width:1.0;"/><line style="stroke:#181818;stroke-width:1.0;stroke-dasharray:2.0,2.0;" x1="530" x2="883" y1="520.0859" y2="520.0859"/><text fill="#000000" font-family="sans-serif" font-size="13" font-weight="bold" lengthAdjust="spacing" textLength="7" x="542" y="515.3311">8</text><text fill="#000000" font-family="sans-serif" font-size="13" lengthAdjust="spacing" textLength="145" x="553" y="515.3311">IndependentVariablesList</text><polygon fill="#181818" points="86,544.6094,76,548.6094,86,552.6094,82,548.6094" style="stroke:#181818;stroke-width:1.0;"/><line style="stroke:#181818;stroke-width:1.0;stroke-dasharray:2.0,2.0;" x1="80" x2="519" y1="548.6094" y2="548.6094"/><text fill="#000000" font-family="sans-serif" font-size="13" font-weight="bold" lengthAdjust="spacing" textLength="7" x="92" y="543.8545">9</text><text fill="#000000" font-family="sans-serif" font-size="13" lengthAdjust="spacing" textLength="405" x="103" y="543.8545">request the independent variable(s) from the list of property information</text><path d="M10,563.6094 L83,563.6094 L83,570.1328 L73,580.1328 L10,580.1328 L10,563.6094 " fill="#EEEEEE" style="stroke:#000000;stroke-width:1.5;"/><rect fill="none" height="149.9609" style="stroke:#000000;stroke-width:1.5;" width="733" x="10" y="563.6094"/><text fill="#000000" font-family="sans-serif" font-size="13" font-weight="bold" lengthAdjust="spacing" textLength="28" x="25" y="576.3779">loop</text><text fill="#000000" font-family="sans-serif" font-size="11" font-weight="bold" lengthAdjust="spacing" textLength="124" x="98" y="575.5674">[(once) if simple linear</text><text fill="#000000" font-family="sans-serif" font-size="11" font-weight="bold" lengthAdjust="spacing" textLength="372" x="98" y="587.8564">(while number of selected variables &lt; number of total variables and</text><text fill="#000000" font-family="sans-serif" font-size="11" font-weight="bold" lengthAdjust="spacing" textLength="199" x="101" y="600.1455">selected variable != 0) if multi-linear]</text><polygon fill="#181818" points="503,618.5234,513,622.5234,503,626.5234,507,622.5234" style="stroke:#181818;stroke-width:1.0;"/><line style="stroke:#181818;stroke-width:1.0;" x1="75" x2="509" y1="622.5234" y2="622.5234"/><text fill="#000000" font-family="sans-serif" font-size="13" font-weight="bold" lengthAdjust="spacing" textLength="14" x="82" y="617.7686">10</text><text fill="#000000" font-family="sans-serif" font-size="13" lengthAdjust="spacing" textLength="178" x="100" y="617.7686">select the independent variable</text><line style="stroke:#181818;stroke-width:1.0;stroke-dasharray:2.0,2.0;" x1="525" x2="567" y1="651.0469" y2="651.0469"/><line style="stroke:#181818;stroke-width:1.0;stroke-dasharray:2.0,2.0;" x1="567" x2="567" y1="651.0469" y2="664.0469"/><line style="stroke:#181818;stroke-width:1.0;stroke-dasharray:2.0,2.0;" x1="526" x2="567" y1="664.0469" y2="664.0469"/><polygon fill="#181818" points="536,660.0469,526,664.0469,536,668.0469,532,664.0469" style="stroke:#181818;stroke-width:1.0;"/><text fill="#000000" font-family="sans-serif" font-size="13" font-weight="bold" lengthAdjust="spacing" textLength="14" x="532" y="646.292">11</text><text fill="#000000" font-family="sans-serif" font-size="13" lengthAdjust="spacing" textLength="157" x="550" y="646.292">keep (IndependentVariable)</text><line style="stroke:#181818;stroke-width:1.0;stroke-dasharray:2.0,2.0;" x1="525" x2="567" y1="692.5703" y2="692.5703"/><line style="stroke:#181818;stroke-width:1.0;stroke-dasharray:2.0,2.0;" x1="567" x2="567" y1="692.5703" y2="705.5703"/><line style="stroke:#181818;stroke-width:1.0;stroke-dasharray:2.0,2.0;" x1="526" x2="567" y1="705.5703" y2="705.5703"/><polygon fill="#181818" points="536,701.5703,526,705.5703,536,709.5703,532,705.5703" style="stroke:#181818;stroke-width:1.0;"/><text fill="#000000" font-family="sans-serif" font-size="13" font-weight="bold" lengthAdjust="spacing" textLength="14" x="532" y="687.8154">12</text><text fill="#000000" font-family="sans-serif" font-size="13" lengthAdjust="spacing" textLength="181" x="550" y="687.8154">addToList(IndependentVariable)</text><line style="stroke:#181818;stroke-width:1.0;stroke-dasharray:2.0,2.0;" x1="525" x2="567" y1="741.0938" y2="741.0938"/><line style="stroke:#181818;stroke-width:1.0;stroke-dasharray:2.0,2.0;" x1="567" x2="567" y1="741.0938" y2="754.0938"/><line style="stroke:#181818;stroke-width:1.0;stroke-dasharray:2.0,2.0;" x1="526" x2="567" y1="754.0938" y2="754.0938"/><polygon fill="#181818" points="536,750.0938,526,754.0938,536,758.0938,532,754.0938" style="stroke:#181818;stroke-width:1.0;"/><text fill="#000000" font-family="sans-serif" font-size="13" font-weight="bold" lengthAdjust="spacing" textLength="14" x="532" y="736.3389">13</text><text fill="#000000" font-family="sans-serif" font-size="13" lengthAdjust="spacing" textLength="90" x="550" y="736.3389">getStore (store)</text><polygon fill="#181818" points="867,778.6172,877,782.6172,867,786.6172,871,782.6172" style="stroke:#181818;stroke-width:1.0;"/><line style="stroke:#181818;stroke-width:1.0;" x1="525" x2="873" y1="782.6172" y2="782.6172"/><text fill="#000000" font-family="sans-serif" font-size="13" font-weight="bold" lengthAdjust="spacing" textLength="14" x="532" y="777.8623">14</text><text fill="#000000" font-family="sans-serif" font-size="13" lengthAdjust="spacing" textLength="149" x="550" y="777.8623">getDealsFromStore(store)</text><polygon fill="#181818" points="1008.5,807.1406,1018.5,811.1406,1008.5,815.1406,1012.5,811.1406" style="stroke:#181818;stroke-width:1.0;"/><line style="stroke:#181818;stroke-width:1.0;" x1="889" x2="1014.5" y1="811.1406" y2="811.1406"/><text fill="#000000" font-family="sans-serif" font-size="13" font-weight="bold" lengthAdjust="spacing" textLength="25" x="896" y="806.3857">14.1</text><text fill="#000000" font-family="sans-serif" font-size="13" lengthAdjust="spacing" textLength="75" x="925" y="806.3857">getInstance()</text><polygon fill="#181818" points="900,835.6641,890,839.6641,900,843.6641,896,839.6641" style="stroke:#181818;stroke-width:1.0;"/><line style="stroke:#181818;stroke-width:1.0;stroke-dasharray:2.0,2.0;" x1="894" x2="1024.5" y1="839.6641" y2="839.6641"/><text fill="#000000" font-family="sans-serif" font-size="13" font-weight="bold" lengthAdjust="spacing" textLength="25" x="906" y="834.9092">14.2</text><text fill="#000000" font-family="sans-serif" font-size="13" lengthAdjust="spacing" textLength="67" x="935" y="834.9092">repositories</text><polygon fill="#181818" points="1115.5,864.1875,1125.5,868.1875,1115.5,872.1875,1119.5,868.1875" style="stroke:#181818;stroke-width:1.0;"/><line style="stroke:#181818;stroke-width:1.0;" x1="889" x2="1121.5" y1="868.1875" y2="868.1875"/><text fill="#000000" font-family="sans-serif" font-size="13" font-weight="bold" lengthAdjust="spacing" textLength="25" x="896" y="863.4326">14.3</text><text fill="#000000" font-family="sans-serif" font-size="13" lengthAdjust="spacing" textLength="175" x="925" y="863.4326">getPurchaseOrderRepository()</text><polygon fill="#181818" points="900,892.7109,890,896.7109,900,900.7109,896,896.7109" style="stroke:#181818;stroke-width:1.0;"/><line style="stroke:#181818;stroke-width:1.0;" x1="894" x2="1131.5" y1="896.7109" y2="896.7109"/><text fill="#000000" font-family="sans-serif" font-size="13" font-weight="bold" lengthAdjust="spacing" textLength="25" x="906" y="891.9561">14.4</text><text fill="#000000" font-family="sans-serif" font-size="13" lengthAdjust="spacing" textLength="149" x="935" y="891.9561">PurchaseOrderRepository</text><polygon fill="#181818" points="1414,921.2344,1424,925.2344,1414,929.2344,1418,925.2344" style="stroke:#181818;stroke-width:1.0;"/><line style="stroke:#181818;stroke-width:1.0;" x1="889" x2="1420" y1="925.2344" y2="925.2344"/><text fill="#000000" font-family="sans-serif" font-size="13" font-weight="bold" lengthAdjust="spacing" textLength="25" x="896" y="920.4795">14.5</text><text fill="#000000" font-family="sans-serif" font-size="13" lengthAdjust="spacing" textLength="135" x="925" y="920.4795">getDealsByStore(store)</text><polygon fill="#181818" points="900,949.7578,890,953.7578,900,957.7578,896,953.7578" style="stroke:#181818;stroke-width:1.0;"/><line style="stroke:#181818;stroke-width:1.0;stroke-dasharray:2.0,2.0;" x1="894" x2="1430" y1="953.7578" y2="953.7578"/><text fill="#000000" font-family="sans-serif" font-size="13" font-weight="bold" lengthAdjust="spacing" textLength="25" x="906" y="949.0029">14.6</text><text fill="#000000" font-family="sans-serif" font-size="13" lengthAdjust="spacing" textLength="52" x="935" y="949.0029">dealsList</text><polygon fill="#181818" points="536,978.2813,526,982.2813,536,986.2813,532,982.2813" style="stroke:#181818;stroke-width:1.0;"/><line style="stroke:#181818;stroke-width:1.0;stroke-dasharray:2.0,2.0;" x1="530" x2="883" y1="982.2813" y2="982.2813"/><text fill="#000000" font-family="sans-serif" font-size="13" font-weight="bold" lengthAdjust="spacing" textLength="14" x="542" y="977.5264">15</text><text fill="#000000" font-family="sans-serif" font-size="13" lengthAdjust="spacing" textLength="52" x="560" y="977.5264">dealsList</text><polygon fill="#181818" points="867,1006.8047,877,1010.8047,867,1014.8047,871,1010.8047" style="stroke:#181818;stroke-width:1.0;"/><line style="stroke:#181818;stroke-width:1.0;" x1="525" x2="873" y1="1010.8047" y2="1010.8047"/><text fill="#000000" font-family="sans-serif" font-size="13" font-weight="bold" lengthAdjust="spacing" textLength="14" x="532" y="1006.0498">16</text><text fill="#000000" font-family="sans-serif" font-size="13" lengthAdjust="spacing" textLength="174" x="550" y="1006.0498">getValueFromDeals(dealsList)</text><polygon fill="#181818" points="1008.5,1035.3281,1018.5,1039.3281,1008.5,1043.3281,1012.5,1039.3281" style="stroke:#181818;stroke-width:1.0;"/><line style="stroke:#181818;stroke-width:1.0;" x1="889" x2="1014.5" y1="1039.3281" y2="1039.3281"/><text fill="#000000" font-family="sans-serif" font-size="13" font-weight="bold" lengthAdjust="spacing" textLength="25" x="896" y="1034.5732">16.1</text><text fill="#000000" font-family="sans-serif" font-size="13" lengthAdjust="spacing" textLength="75" x="925" y="1034.5732">getInstance()</text><polygon fill="#181818" points="900,1063.8516,890,1067.8516,900,1071.8516,896,1067.8516" style="stroke:#181818;stroke-width:1.0;"/><line style="stroke:#181818;stroke-width:1.0;stroke-dasharray:2.0,2.0;" x1="894" x2="1024.5" y1="1067.8516" y2="1067.8516"/><text fill="#000000" font-family="sans-serif" font-size="13" font-weight="bold" lengthAdjust="spacing" textLength="25" x="906" y="1063.0967">16.2</text><text fill="#000000" font-family="sans-serif" font-size="13" lengthAdjust="spacing" textLength="67" x="935" y="1063.0967">repositories</text><polygon fill="#181818" points="1115.5,1092.375,1125.5,1096.375,1115.5,1100.375,1119.5,1096.375" style="stroke:#181818;stroke-width:1.0;"/><line style="stroke:#181818;stroke-width:1.0;" x1="889" x2="1121.5" y1="1096.375" y2="1096.375"/><text fill="#000000" font-family="sans-serif" font-size="13" font-weight="bold" lengthAdjust="spacing" textLength="25" x="896" y="1091.6201">16.3</text><text fill="#000000" font-family="sans-serif" font-size="13" lengthAdjust="spacing" textLength="175" x="925" y="1091.6201">getPurchaseOrderRepository()</text><polygon fill="#181818" points="900,1120.8984,890,1124.8984,900,1128.8984,896,1124.8984" style="stroke:#181818;stroke-width:1.0;"/><line style="stroke:#181818;stroke-width:1.0;" x1="894" x2="1131.5" y1="1124.8984" y2="1124.8984"/><text fill="#000000" font-family="sans-serif" font-size="13" font-weight="bold" lengthAdjust="spacing" textLength="25" x="906" y="1120.1436">16.4</text><text fill="#000000" font-family="sans-serif" font-size="13" lengthAdjust="spacing" textLength="149" x="935" y="1120.1436">PurchaseOrderRepository</text><polygon fill="#181818" points="1414,1149.4219,1424,1153.4219,1414,1157.4219,1418,1153.4219" style="stroke:#181818;stroke-width:1.0;"/><line style="stroke:#181818;stroke-width:1.0;" x1="889" x2="1420" y1="1153.4219" y2="1153.4219"/><text fill="#000000" font-family="sans-serif" font-size="13" font-weight="bold" lengthAdjust="spacing" textLength="25" x="896" y="1148.667">16.5</text><text fill="#000000" font-family="sans-serif" font-size="13" lengthAdjust="spacing" textLength="144" x="925" y="1148.667">getDealsValue(dealsList)</text><path d="M1330,1168.4219 L1403,1168.4219 L1403,1174.9453 L1393,1184.9453 L1330,1184.9453 L1330,1168.4219 " fill="#EEEEEE" style="stroke:#000000;stroke-width:1.5;"/><rect fill="none" height="115.0938" style="stroke:#000000;stroke-width:1.5;" width="368.5" x="1330" y="1168.4219"/><text fill="#000000" font-family="sans-serif" font-size="13" font-weight="bold" lengthAdjust="spacing" textLength="28" x="1345" y="1181.1904">loop</text><text fill="#000000" font-family="sans-serif" font-size="11" font-weight="bold" lengthAdjust="spacing" textLength="139" x="1418" y="1180.3799">[for each deal in dealList]</text><polygon fill="#181818" points="1616,1201.4688,1626,1205.4688,1616,1209.4688,1620,1205.4688" style="stroke:#181818;stroke-width:1.0;"/><line style="stroke:#181818;stroke-width:1.0;stroke-dasharray:2.0,2.0;" x1="1436" x2="1622" y1="1205.4688" y2="1205.4688"/><text fill="#000000" font-family="sans-serif" font-size="13" font-weight="bold" lengthAdjust="spacing" textLength="36" x="1443" y="1200.7139">16.5.1</text><text fill="#000000" font-family="sans-serif" font-size="13" lengthAdjust="spacing" textLength="103" x="1483" y="1200.7139">getOrderAmount()</text><polygon fill="#181818" points="1447,1229.9922,1437,1233.9922,1447,1237.9922,1443,1233.9922" style="stroke:#181818;stroke-width:1.0;"/><line style="stroke:#181818;stroke-width:1.0;stroke-dasharray:2.0,2.0;" x1="1441" x2="1632" y1="1233.9922" y2="1233.9922"/><text fill="#000000" font-family="sans-serif" font-size="13" font-weight="bold" lengthAdjust="spacing" textLength="36" x="1453" y="1229.2373">16.5.2</text><text fill="#000000" font-family="sans-serif" font-size="13" lengthAdjust="spacing" textLength="74" x="1493" y="1229.2373">orderAmount</text><line style="stroke:#181818;stroke-width:1.0;stroke-dasharray:2.0,2.0;" x1="1436" x2="1478" y1="1262.5156" y2="1262.5156"/><line style="stroke:#181818;stroke-width:1.0;stroke-dasharray:2.0,2.0;" x1="1478" x2="1478" y1="1262.5156" y2="1275.5156"/><line style="stroke:#181818;stroke-width:1.0;stroke-dasharray:2.0,2.0;" x1="1437" x2="1478" y1="1275.5156" y2="1275.5156"/><polygon fill="#181818" points="1447,1271.5156,1437,1275.5156,1447,1279.5156,1443,1275.5156" style="stroke:#181818;stroke-width:1.0;"/><text fill="#000000" font-family="sans-serif" font-size="13" font-weight="bold" lengthAdjust="spacing" textLength="36" x="1443" y="1257.7607">16.5.3</text><text fill="#000000" font-family="sans-serif" font-size="13" lengthAdjust="spacing" textLength="138" x="1483" y="1257.7607">addToList(orderAmount)</text><polygon fill="#181818" points="900,1307.0391,890,1311.0391,900,1315.0391,896,1311.0391" style="stroke:#181818;stroke-width:1.0;"/><line style="stroke:#181818;stroke-width:1.0;stroke-dasharray:2.0,2.0;" x1="894" x2="1430" y1="1311.0391" y2="1311.0391"/><text fill="#000000" font-family="sans-serif" font-size="13" font-weight="bold" lengthAdjust="spacing" textLength="18" x="906" y="1306.2842">1.6</text><text fill="#000000" font-family="sans-serif" font-size="13" lengthAdjust="spacing" textLength="61" x="928" y="1306.2842">ValuesList</text><polygon fill="#181818" points="536,1335.5625,526,1339.5625,536,1343.5625,532,1339.5625" style="stroke:#181818;stroke-width:1.0;"/><line style="stroke:#181818;stroke-width:1.0;stroke-dasharray:2.0,2.0;" x1="530" x2="883" y1="1339.5625" y2="1339.5625"/><text fill="#000000" font-family="sans-serif" font-size="13" font-weight="bold" lengthAdjust="spacing" textLength="14" x="542" y="1334.8076">17</text><text fill="#000000" font-family="sans-serif" font-size="13" lengthAdjust="spacing" textLength="61" x="560" y="1334.8076">ValuesList</text><line style="stroke:#181818;stroke-width:1.0;stroke-dasharray:2.0,2.0;" x1="525" x2="567" y1="1368.0859" y2="1368.0859"/><line style="stroke:#181818;stroke-width:1.0;stroke-dasharray:2.0,2.0;" x1="567" x2="567" y1="1368.0859" y2="1381.0859"/><line style="stroke:#181818;stroke-width:1.0;stroke-dasharray:2.0,2.0;" x1="526" x2="567" y1="1381.0859" y2="1381.0859"/><polygon fill="#181818" points="536,1377.0859,526,1381.0859,536,1385.0859,532,1381.0859" style="stroke:#181818;stroke-width:1.0;"/><text fill="#000000" font-family="sans-serif" font-size="13" font-weight="bold" lengthAdjust="spacing" textLength="14" x="532" y="1363.3311">18</text><text fill="#000000" font-family="sans-serif" font-size="13" lengthAdjust="spacing" textLength="322" x="550" y="1363.3311">RegressionAnalysis (SelectedVariablesList, ValuesList)</text><polygon fill="#181818" points="81,1420.1328,71,1424.1328,81,1428.1328,77,1424.1328" style="stroke:#181818;stroke-width:1.0;"/><line style="stroke:#181818;stroke-width:1.0;stroke-dasharray:2.0,2.0;" x1="75" x2="519" y1="1424.1328" y2="1424.1328"/><text fill="#000000" font-family="sans-serif" font-size="13" font-weight="bold" lengthAdjust="spacing" textLength="14" x="87" y="1412.1162">19</text><text fill="#000000" font-family="sans-serif" font-size="13" lengthAdjust="spacing" textLength="202" x="105" y="1404.8545">shows a prediction of the value of a</text><text fill="#000000" font-family="sans-serif" font-size="13" lengthAdjust="spacing" textLength="331" x="109" y="1419.3779">property based on the value of the independent variable(s)</text><!--SRC=[dLVTJzim47_FN-7nr4vZ6jA-XBP9R1DI9L1Ho_R4YqckhKLgPxOBwd-_inqdTkmKIXzQ4j_zV9-_EzG3umsLT4ksWejo8yKMY9OxA5Htqj3oWQvXgVSr40cbfdnTXm9gGolnnFYQh6YjeC0FtMd1TzjxaFXtgOKa9qly1d9DEMB94q8LMLuN2A1PoHhADJavl-2qtYlu3GZpPsPb_imEoFmIN4jHrotUhzl5rK1w0OrG36zceAnCzsA_PCODD3DMaO767Ky1RgukRcEDHee6fDxtqETt_2PvwRGNyvl5G7qdomrLC9SLo1WZVsA1vWEKIDP9N5uMDlZiaMemmIu8VfRNvFG7XfMSOox_xK1feWMXBggaCc5rWfqcfi0yemegcXY_VOlAfGGyp6TZCYsAJiVVLZ7Lr1G3ifQW51FyMbHGEpcyrjzcanWgey6zgRBJne95TJ9HRDjWNTQC0vK42ssxgpKxTS_UZW0VlKa2eQ36iax0n-FW5Hy06ZAHiKlJo7pZJ-_zZ5VG07vn_PTAHkzhK0J35TxJHm0_LXrXCdMBg6lGCwwm8Kjm8DRWhlV8b_Td_gq_zBVa6c4WQpwvUxrR9YrzTmoKWv2_u2hlfkakvrVQGBs7GrziJsQCjsXz3j967RSv1zaPQPhOHp_Dvm4xRVVd3BM8GRcm3EuLK_g0mGwxY0lWgxlDMUwhTdO8F6d5qLxK6mZj98yjraHDoGe7YHMe4PU8LHTxr5W9kQKQkoNJckPDBGGsbS2QdXAs8b63t_79quRXO-iV8hlcXQgxNv5lmR4McjR16UNL7K-Lo9llv8EzB-IFKQeOypsbZ0mJEjR8P66QojAgkXKcENbv8uxlsfeA5R4utSITAFCJGFlcHGdBsvUOAolg9GSaSlOnO96uE9BME8AcZg2YLv3GI-adGppvgPipF2M90UECO1NF4eutQzxoZ4tKptsIfiWSt0dyktd49dQgH_GHN3nlMMCuEyu-vRWZXXgTsq6D_QNr3aoDMHyc7K1QPv-VhRFNbDdnK- -LC- -OYVUQidl1o3ko_9wTUTaoj0aTvl5GCQPv_eIPZeujv-DW86ZDnXOPqglzJQPUMzgutZgRh7CNMx7ZUZXvUsDm5uumKFdK-oLwWB78k5qwPyKYukW0AZR5SFHOEDv_pY6tARJ1JaV_e7_7eByC6SMtSGRsq0vkTVhDtMtz33VNPJj7eptYNG1lDl1aXL0RyOIJ69S2g5XfLW4xgN6cFXf5yq1nI7SxmptMS4LGAX8vi7_aj_xWsVmtLFm7]--></g></svg>