<?xml version="1.0" encoding="us-ascii" standalone="no"?><svg xmlns="http://www.w3.org/2000/svg" xmlns:xlink="http://www.w3.org/1999/xlink" contentStyleType="text/css" height="486px" preserveAspectRatio="none" style="width:794px;height:486px;background:#FFFFFF;" version="1.1" viewBox="0 0 794 486" width="794px" zoomAndPan="magnify"><defs><filter height="300%" id="fnomrcgehk17q" width="300%" x="-1" y="-1"><feGaussianBlur result="blurOut" stdDeviation="2.0"/><feColorMatrix in="blurOut" result="blurOut2" type="matrix" values="0 0 0 0 0 0 0 0 0 0 0 0 0 0 0 0 0 0 .4 0"/><feOffset dx="4.0" dy="4.0" in="blurOut2" result="blurOut3"/><feBlend in="SourceGraphic" in2="blurOut3" mode="normal"/></filter></defs><g><!--class AnalyseDealsUI--><g id="elem_AnalyseDealsUI"><rect codeLine="12" fill="#F1F1F1" filter="url(#fnomrcgehk17q)" height="48" id="AnalyseDealsUI" rx="2.5" ry="2.5" style="stroke:#181818;stroke-width:0.5;" width="130" x="176.5" y="30.5"/><ellipse cx="191.5" cy="46.5" fill="#ADD1B2" rx="11" ry="11" style="stroke:#181818;stroke-width:1.0;"/><path d="M194.2656,42.375 Q194.4219,42.1563 194.6094,42.0469 Q194.7969,41.9375 195.0156,41.9375 Q195.3906,41.9375 195.625,42.2031 Q195.8594,42.4531 195.8594,43.0625 L195.8594,44.5156 Q195.8594,45.125 195.625,45.3906 Q195.3906,45.6563 195.0156,45.6563 Q194.6719,45.6563 194.4688,45.4531 Q194.2656,45.2656 194.1563,44.75 Q194.1094,44.3906 193.9219,44.2031 Q193.5938,43.8281 192.9844,43.6094 Q192.375,43.3906 191.75,43.3906 Q190.9844,43.3906 190.3438,43.7188 Q189.7188,44.0469 189.2188,44.7969 Q188.7344,45.5469 188.7344,46.5781 L188.7344,47.6719 Q188.7344,48.9063 189.625,49.7344 Q190.5156,50.5469 192.1094,50.5469 Q193.0469,50.5469 193.7031,50.2969 Q194.0938,50.1406 194.5156,49.7031 Q194.7813,49.4375 194.9219,49.3594 Q195.0781,49.2813 195.2813,49.2813 Q195.6094,49.2813 195.8594,49.5469 Q196.125,49.7969 196.125,50.1406 Q196.125,50.4844 195.7813,50.8906 Q195.2813,51.4688 194.4844,51.7969 Q193.4063,52.25 192.1094,52.25 Q190.5938,52.25 189.3906,51.625 Q188.4063,51.125 187.7188,50.0625 Q187.0313,48.9844 187.0313,47.7031 L187.0313,46.5469 Q187.0313,45.2188 187.6406,44.0781 Q188.2656,42.9219 189.3594,42.3125 Q190.4531,41.6875 191.6875,41.6875 Q192.4219,41.6875 193.0625,41.8594 Q193.7188,42.0156 194.2656,42.375 Z " fill="#000000"/><text fill="#000000" font-family="sans-serif" font-size="14" lengthAdjust="spacing" textLength="98" x="205.5" y="51.3535">AnalyseDealsUI</text><line style="stroke:#181818;stroke-width:0.5;" x1="177.5" x2="305.5" y1="62.5" y2="62.5"/><line style="stroke:#181818;stroke-width:0.5;" x1="177.5" x2="305.5" y1="70.5" y2="70.5"/></g><!--class AnalyseDealsController--><g id="elem_AnalyseDealsController"><rect codeLine="15" fill="#F1F1F1" filter="url(#fnomrcgehk17q)" height="94.9219" id="AnalyseDealsController" rx="2.5" ry="2.5" style="stroke:#181818;stroke-width:0.5;" width="212" x="341.5" y="7"/><ellipse cx="370.9" cy="23" fill="#ADD1B2" rx="11" ry="11" style="stroke:#181818;stroke-width:1.0;"/><path d="M373.6656,18.875 Q373.8219,18.6563 374.0094,18.5469 Q374.1969,18.4375 374.4156,18.4375 Q374.7906,18.4375 375.025,18.7031 Q375.2594,18.9531 375.2594,19.5625 L375.2594,21.0156 Q375.2594,21.625 375.025,21.8906 Q374.7906,22.1563 374.4156,22.1563 Q374.0719,22.1563 373.8688,21.9531 Q373.6656,21.7656 373.5563,21.25 Q373.5094,20.8906 373.3219,20.7031 Q372.9938,20.3281 372.3844,20.1094 Q371.775,19.8906 371.15,19.8906 Q370.3844,19.8906 369.7438,20.2188 Q369.1188,20.5469 368.6188,21.2969 Q368.1344,22.0469 368.1344,23.0781 L368.1344,24.1719 Q368.1344,25.4063 369.025,26.2344 Q369.9156,27.0469 371.5094,27.0469 Q372.4469,27.0469 373.1031,26.7969 Q373.4938,26.6406 373.9156,26.2031 Q374.1813,25.9375 374.3219,25.8594 Q374.4781,25.7813 374.6813,25.7813 Q375.0094,25.7813 375.2594,26.0469 Q375.525,26.2969 375.525,26.6406 Q375.525,26.9844 375.1813,27.3906 Q374.6813,27.9688 373.8844,28.2969 Q372.8063,28.75 371.5094,28.75 Q369.9938,28.75 368.7906,28.125 Q367.8063,27.625 367.1188,26.5625 Q366.4313,25.4844 366.4313,24.2031 L366.4313,23.0469 Q366.4313,21.7188 367.0406,20.5781 Q367.6656,19.4219 368.7594,18.8125 Q369.8531,18.1875 371.0875,18.1875 Q371.8219,18.1875 372.4625,18.3594 Q373.1188,18.5156 373.6656,18.875 Z " fill="#000000"/><text fill="#000000" font-family="sans-serif" font-size="14" lengthAdjust="spacing" textLength="148" x="388.1" y="27.8535">AnalyseDealsController</text><line style="stroke:#181818;stroke-width:0.5;" x1="342.5" x2="552.5" y1="39" y2="39"/><line style="stroke:#181818;stroke-width:0.5;" x1="342.5" x2="552.5" y1="47" y2="47"/><text fill="#000000" font-family="sans-serif" font-size="14" lengthAdjust="spacing" textLength="200" x="347.5" y="63.6738">+displayIndependentVariables()</text><text fill="#000000" font-family="sans-serif" font-size="14" lengthAdjust="spacing" textLength="173" x="347.5" y="79.3145">+getDealsFromStore(store)</text><text fill="#000000" font-family="sans-serif" font-size="14" lengthAdjust="spacing" textLength="199" x="347.5" y="94.9551">+getValueFromDeals(dealsList)</text></g><!--class Repositories--><g id="elem_Repositories"><rect codeLine="23" fill="#F1F1F1" filter="url(#fnomrcgehk17q)" height="110.5625" id="Repositories" rx="2.5" ry="2.5" style="stroke:#181818;stroke-width:0.5;" width="215" x="85" y="162"/><ellipse cx="148.75" cy="178" fill="#ADD1B2" rx="11" ry="11" style="stroke:#181818;stroke-width:1.0;"/><path d="M151.5156,173.875 Q151.6719,173.6563 151.8594,173.5469 Q152.0469,173.4375 152.2656,173.4375 Q152.6406,173.4375 152.875,173.7031 Q153.1094,173.9531 153.1094,174.5625 L153.1094,176.0156 Q153.1094,176.625 152.875,176.8906 Q152.6406,177.1563 152.2656,177.1563 Q151.9219,177.1563 151.7188,176.9531 Q151.5156,176.7656 151.4063,176.25 Q151.3594,175.8906 151.1719,175.7031 Q150.8438,175.3281 150.2344,175.1094 Q149.625,174.8906 149,174.8906 Q148.2344,174.8906 147.5938,175.2188 Q146.9688,175.5469 146.4688,176.2969 Q145.9844,177.0469 145.9844,178.0781 L145.9844,179.1719 Q145.9844,180.4063 146.875,181.2344 Q147.7656,182.0469 149.3594,182.0469 Q150.2969,182.0469 150.9531,181.7969 Q151.3438,181.6406 151.7656,181.2031 Q152.0313,180.9375 152.1719,180.8594 Q152.3281,180.7813 152.5313,180.7813 Q152.8594,180.7813 153.1094,181.0469 Q153.375,181.2969 153.375,181.6406 Q153.375,181.9844 153.0313,182.3906 Q152.5313,182.9688 151.7344,183.2969 Q150.6563,183.75 149.3594,183.75 Q147.8438,183.75 146.6406,183.125 Q145.6563,182.625 144.9688,181.5625 Q144.2813,180.4844 144.2813,179.2031 L144.2813,178.0469 Q144.2813,176.7188 144.8906,175.5781 Q145.5156,174.4219 146.6094,173.8125 Q147.7031,173.1875 148.9375,173.1875 Q149.6719,173.1875 150.3125,173.3594 Q150.9688,173.5156 151.5156,173.875 Z " fill="#000000"/><text fill="#000000" font-family="sans-serif" font-size="14" lengthAdjust="spacing" textLength="79" x="169.25" y="182.8535">Repositories</text><line style="stroke:#181818;stroke-width:0.5;" x1="86" x2="299" y1="194" y2="194"/><line style="stroke:#181818;stroke-width:0.5;" x1="86" x2="299" y1="202" y2="202"/><text fill="#000000" font-family="sans-serif" font-size="14" lengthAdjust="spacing" textLength="94" x="91" y="218.6738">-Repositories()</text><text fill="#000000" font-family="sans-serif" font-size="14" lengthAdjust="spacing" textLength="182" x="91" y="234.3145">+getInstance() : Repositories</text><text fill="#000000" font-family="sans-serif" font-size="14" lengthAdjust="spacing" textLength="203" x="91" y="249.9551">+getPurchaseOrderRepository()</text><text fill="#000000" font-family="sans-serif" font-size="14" lengthAdjust="spacing" textLength="160" x="91" y="265.5957">+getPropertyRepository()</text></g><!--class PropertyRepository--><g id="elem_PropertyRepository"><rect codeLine="30" fill="#F1F1F1" filter="url(#fnomrcgehk17q)" height="63.6406" id="PropertyRepository" rx="2.5" ry="2.5" style="stroke:#181818;stroke-width:0.5;" width="188" x="353.5" y="185.5"/><ellipse cx="383.8" cy="201.5" fill="#ADD1B2" rx="11" ry="11" style="stroke:#181818;stroke-width:1.0;"/><path d="M386.5656,197.375 Q386.7219,197.1563 386.9094,197.0469 Q387.0969,196.9375 387.3156,196.9375 Q387.6906,196.9375 387.925,197.2031 Q388.1594,197.4531 388.1594,198.0625 L388.1594,199.5156 Q388.1594,200.125 387.925,200.3906 Q387.6906,200.6563 387.3156,200.6563 Q386.9719,200.6563 386.7688,200.4531 Q386.5656,200.2656 386.4563,199.75 Q386.4094,199.3906 386.2219,199.2031 Q385.8938,198.8281 385.2844,198.6094 Q384.675,198.3906 384.05,198.3906 Q383.2844,198.3906 382.6438,198.7188 Q382.0188,199.0469 381.5188,199.7969 Q381.0344,200.5469 381.0344,201.5781 L381.0344,202.6719 Q381.0344,203.9063 381.925,204.7344 Q382.8156,205.5469 384.4094,205.5469 Q385.3469,205.5469 386.0031,205.2969 Q386.3938,205.1406 386.8156,204.7031 Q387.0813,204.4375 387.2219,204.3594 Q387.3781,204.2813 387.5813,204.2813 Q387.9094,204.2813 388.1594,204.5469 Q388.425,204.7969 388.425,205.1406 Q388.425,205.4844 388.0813,205.8906 Q387.5813,206.4688 386.7844,206.7969 Q385.7063,207.25 384.4094,207.25 Q382.8938,207.25 381.6906,206.625 Q380.7063,206.125 380.0188,205.0625 Q379.3313,203.9844 379.3313,202.7031 L379.3313,201.5469 Q379.3313,200.2188 379.9406,199.0781 Q380.5656,197.9219 381.6594,197.3125 Q382.7531,196.6875 383.9875,196.6875 Q384.7219,196.6875 385.3625,196.8594 Q386.0188,197.0156 386.5656,197.375 Z " fill="#000000"/><text fill="#000000" font-family="sans-serif" font-size="14" lengthAdjust="spacing" textLength="122" x="401.2" y="206.3535">PropertyRepository</text><line style="stroke:#181818;stroke-width:0.5;" x1="354.5" x2="540.5" y1="217.5" y2="217.5"/><line style="stroke:#181818;stroke-width:0.5;" x1="354.5" x2="540.5" y1="225.5" y2="225.5"/><text fill="#000000" font-family="sans-serif" font-size="14" lengthAdjust="spacing" textLength="176" x="359.5" y="242.1738">+getIndependentVariables()</text></g><!--class PurchaseOrderRepository--><g id="elem_PurchaseOrderRepository"><rect codeLine="34" fill="#F1F1F1" filter="url(#fnomrcgehk17q)" height="94.9219" id="PurchaseOrderRepository" rx="2.5" ry="2.5" style="stroke:#181818;stroke-width:0.5;" width="197" x="577" y="170"/><ellipse cx="592" cy="186" fill="#ADD1B2" rx="11" ry="11" style="stroke:#181818;stroke-width:1.0;"/><path d="M594.7656,181.875 Q594.9219,181.6563 595.1094,181.5469 Q595.2969,181.4375 595.5156,181.4375 Q595.8906,181.4375 596.125,181.7031 Q596.3594,181.9531 596.3594,182.5625 L596.3594,184.0156 Q596.3594,184.625 596.125,184.8906 Q595.8906,185.1563 595.5156,185.1563 Q595.1719,185.1563 594.9688,184.9531 Q594.7656,184.7656 594.6563,184.25 Q594.6094,183.8906 594.4219,183.7031 Q594.0938,183.3281 593.4844,183.1094 Q592.875,182.8906 592.25,182.8906 Q591.4844,182.8906 590.8438,183.2188 Q590.2188,183.5469 589.7188,184.2969 Q589.2344,185.0469 589.2344,186.0781 L589.2344,187.1719 Q589.2344,188.4063 590.125,189.2344 Q591.0156,190.0469 592.6094,190.0469 Q593.5469,190.0469 594.2031,189.7969 Q594.5938,189.6406 595.0156,189.2031 Q595.2813,188.9375 595.4219,188.8594 Q595.5781,188.7813 595.7813,188.7813 Q596.1094,188.7813 596.3594,189.0469 Q596.625,189.2969 596.625,189.6406 Q596.625,189.9844 596.2813,190.3906 Q595.7813,190.9688 594.9844,191.2969 Q593.9063,191.75 592.6094,191.75 Q591.0938,191.75 589.8906,191.125 Q588.9063,190.625 588.2188,189.5625 Q587.5313,188.4844 587.5313,187.2031 L587.5313,186.0469 Q587.5313,184.7188 588.1406,183.5781 Q588.7656,182.4219 589.8594,181.8125 Q590.9531,181.1875 592.1875,181.1875 Q592.9219,181.1875 593.5625,181.3594 Q594.2188,181.5156 594.7656,181.875 Z " fill="#000000"/><text fill="#000000" font-family="sans-serif" font-size="14" lengthAdjust="spacing" textLength="165" x="606" y="190.8535">PurchaseOrderRepository</text><line style="stroke:#181818;stroke-width:0.5;" x1="578" x2="773" y1="202" y2="202"/><line style="stroke:#181818;stroke-width:0.5;" x1="578" x2="773" y1="210" y2="210"/><text fill="#000000" font-family="sans-serif" font-size="14" lengthAdjust="spacing" textLength="166" x="583" y="226.6738">+getDealsValue(dealsList)</text><text fill="#000000" font-family="sans-serif" font-size="14" lengthAdjust="spacing" textLength="156" x="583" y="242.3145">+getDealsByStore(store)</text><text fill="#000000" font-family="sans-serif" font-size="14" lengthAdjust="spacing" textLength="163" x="583" y="257.9551">+addToList(orderAmount)</text></g><!--class PurchaseOrder--><g id="elem_PurchaseOrder"><rect codeLine="40" fill="#F1F1F1" filter="url(#fnomrcgehk17q)" height="141.8438" id="PurchaseOrder" rx="2.5" ry="2.5" style="stroke:#181818;stroke-width:0.5;" width="214" x="568.5" y="333"/><ellipse cx="622.75" cy="349" fill="#ADD1B2" rx="11" ry="11" style="stroke:#181818;stroke-width:1.0;"/><path d="M625.5156,344.875 Q625.6719,344.6563 625.8594,344.5469 Q626.0469,344.4375 626.2656,344.4375 Q626.6406,344.4375 626.875,344.7031 Q627.1094,344.9531 627.1094,345.5625 L627.1094,347.0156 Q627.1094,347.625 626.875,347.8906 Q626.6406,348.1563 626.2656,348.1563 Q625.9219,348.1563 625.7188,347.9531 Q625.5156,347.7656 625.4063,347.25 Q625.3594,346.8906 625.1719,346.7031 Q624.8438,346.3281 624.2344,346.1094 Q623.625,345.8906 623,345.8906 Q622.2344,345.8906 621.5938,346.2188 Q620.9688,346.5469 620.4688,347.2969 Q619.9844,348.0469 619.9844,349.0781 L619.9844,350.1719 Q619.9844,351.4063 620.875,352.2344 Q621.7656,353.0469 623.3594,353.0469 Q624.2969,353.0469 624.9531,352.7969 Q625.3438,352.6406 625.7656,352.2031 Q626.0313,351.9375 626.1719,351.8594 Q626.3281,351.7813 626.5313,351.7813 Q626.8594,351.7813 627.1094,352.0469 Q627.375,352.2969 627.375,352.6406 Q627.375,352.9844 627.0313,353.3906 Q626.5313,353.9688 625.7344,354.2969 Q624.6563,354.75 623.3594,354.75 Q621.8438,354.75 620.6406,354.125 Q619.6563,353.625 618.9688,352.5625 Q618.2813,351.4844 618.2813,350.2031 L618.2813,349.0469 Q618.2813,347.7188 618.8906,346.5781 Q619.5156,345.4219 620.6094,344.8125 Q621.7031,344.1875 622.9375,344.1875 Q623.6719,344.1875 624.3125,344.3594 Q624.9688,344.5156 625.5156,344.875 Z " fill="#000000"/><text fill="#000000" font-family="sans-serif" font-size="14" lengthAdjust="spacing" textLength="97" x="643.25" y="353.8535">PurchaseOrder</text><line style="stroke:#181818;stroke-width:0.5;" x1="569.5" x2="781.5" y1="365" y2="365"/><text fill="#000000" font-family="sans-serif" font-size="14" lengthAdjust="spacing" textLength="140" x="574.5" y="381.6738">-Double orderAmount;</text><text fill="#000000" font-family="sans-serif" font-size="14" lengthAdjust="spacing" textLength="202" x="574.5" y="397.3145">-Announcement announcement;</text><text fill="#000000" font-family="sans-serif" font-size="14" lengthAdjust="spacing" textLength="82" x="574.5" y="412.9551">-Client client;</text><text fill="#000000" font-family="sans-serif" font-size="14" lengthAdjust="spacing" textLength="140" x="574.5" y="428.5957">-Integer wasAccepted;</text><text fill="#000000" font-family="sans-serif" font-size="14" lengthAdjust="spacing" textLength="185" x="574.5" y="444.2363">-DateTime creationDate</text><line style="stroke:#181818;stroke-width:0.5;" x1="569.5" x2="781.5" y1="451.2031" y2="451.2031"/><text fill="#000000" font-family="sans-serif" font-size="14" lengthAdjust="spacing" textLength="123" x="574.5" y="467.877">+getOrderAmount()</text></g><!--link Repositories to Repositories--><g id="link_Repositories_Repositories"><path codeLine="57" d="M130.75,161.9 C130.75,145.57 130.75,132 130.75,132 C130.75,132 67,132 67,132 C67,132 67,303 67,303 C67,303 192.5,303 192.5,303 C192.5,303 192.5,278.1 192.5,278.1 " fill="none" id="Repositories-to-Repositories" style="stroke:#181818;stroke-width:1.0;"/><polygon fill="#181818" points="192.5,273.1,188.5,282.1,192.5,278.1,196.5,282.1,192.5,273.1" style="stroke:#181818;stroke-width:1.0;"/><text fill="#000000" font-family="sans-serif" font-size="13" lengthAdjust="spacing" textLength="49" x="12" y="237.6486">instance</text></g><!--link AnalyseDealsUI to AnalyseDealsController--><g id="link_AnalyseDealsUI_AnalyseDealsController"><path codeLine="59" d="M306.68,55 C306.68,55 336.33,55 336.33,55 " fill="none" id="AnalyseDealsUI-to-AnalyseDealsController" style="stroke:#181818;stroke-width:1.0;stroke-dasharray:7.0,7.0;"/><polygon fill="#181818" points="341.33,55,332.33,51,336.33,55,332.33,59,341.33,55" style="stroke:#181818;stroke-width:1.0;"/></g><!--link AnalyseDealsController to Repositories--><g id="link_AnalyseDealsController_Repositories"><path codeLine="61" d="M347.5,102.11 C347.5,132.41 347.5,166 347.5,166 C347.5,166 305.15,166 305.15,166 " fill="none" id="AnalyseDealsController-to-Repositories" style="stroke:#181818;stroke-width:1.0;stroke-dasharray:7.0,7.0;"/><polygon fill="#181818" points="300.15,166,309.15,170,305.15,166,309.15,162,300.15,166" style="stroke:#181818;stroke-width:1.0;"/><text fill="#000000" font-family="sans-serif" font-size="13" lengthAdjust="spacing" textLength="67" x="279.5" y="151.9986">repositories</text></g><!--link AnalyseDealsController to PurchaseOrderRepository--><g id="link_AnalyseDealsController_PurchaseOrderRepository"><path codeLine="63" d="M547.5,102.25 C547.5,137 547.5,178 547.5,178 C547.5,178 571.87,178 571.87,178 " fill="none" id="AnalyseDealsController-to-PurchaseOrderRepository" style="stroke:#181818;stroke-width:1.0;"/><polygon fill="#181818" points="576.87,178,567.87,174,571.87,178,567.87,182,576.87,178" style="stroke:#181818;stroke-width:1.0;"/></g><!--link AnalyseDealsController to PropertyRepository--><g id="link_AnalyseDealsController_PropertyRepository"><path codeLine="65" d="M447.5,102.08 C447.5,102.08 447.5,180.35 447.5,180.35 " fill="none" id="AnalyseDealsController-to-PropertyRepository" style="stroke:#181818;stroke-width:1.0;"/><polygon fill="#181818" points="447.5,185.35,451.5,176.35,447.5,180.35,443.5,176.35,447.5,185.35" style="stroke:#181818;stroke-width:1.0;"/></g><!--link PurchaseOrderRepository to PurchaseOrder--><g id="link_PurchaseOrderRepository_PurchaseOrder"><path codeLine="67" d="M675.5,265.04 C675.5,265.04 675.5,327.94 675.5,327.94 " fill="none" id="PurchaseOrderRepository-to-PurchaseOrder" style="stroke:#181818;stroke-width:1.0;"/><polygon fill="#181818" points="675.5,332.94,679.5,323.94,675.5,327.94,671.5,323.94,675.5,332.94" style="stroke:#181818;stroke-width:1.0;"/></g><!--SRC=[VLB1Qjmm4BthAtHRBsL3poa4t2m1Go6Xs-O-aIUsYAmnqfZWBlttIlOwbkDrVP3HlFTcnizlvz-qRS518nkof6f73Kfs7OePQK6zGOKdxWrAXuh1LYOb-1fAUjUs-gmqsYBtBKfoN9FONKT8Y4IZ37YVCplzqZ4MYkn9_q7vLOYTmLUMJDBfgcPPwhYB9Yl4e94ojs1wZqS4utyNyYp-Jb2At9DbHyQW2mmfvPVGoRS6-iAMs68uB3-3q_1Yq6VxaL8X3-A7OD29oM7cupcZps0wZEX0oyfu_j2Uzt69QOsVs9BNGQZHZyFbOL4SnuqT2-k3qmgplRnTa6RAK-TK3HuVNOdkWzAdNPuSjUYuNw0VlgpHSxh0LJzcyVNfvwLZWp6f7mlqUxzs4yho5qLkHh5ptb1dUMlkvEAHkh2VJ1JVBaXkRRWgRC9tI4Wk4-7Uw0YfuJKL2yjOXOYyWy-LmfQndA0ZC3wGQu13KIg745COgxDtZ_CUsIK2uxE8mE5mjyp4hTINlox4fpJVt6saUCbCqdspxkxI66tfubOR__R_cbMOXDZeivuHlVa7]--></g></svg>