<?xml version="1.0" encoding="us-ascii" standalone="no"?><svg xmlns="http://www.w3.org/2000/svg" xmlns:xlink="http://www.w3.org/1999/xlink" contentStyleType="text/css" height="806.4px" preserveAspectRatio="none" style="width:796px;height:806px;background:#FFFFFF;" version="1.1" viewBox="0 0 796 806" width="796px" zoomAndPan="magnify"><defs/><g><rect fill="#FFFFFF" height="655.8125" style="stroke:#181818;stroke-width:0.8000000000000002;" width="8" x="52" y="72.5125"/><rect fill="#FFFFFF" height="88.55" style="stroke:#181818;stroke-width:0.8000000000000002;" width="8" x="412" y="88.9313"/><rect fill="#FFFFFF" height="136.0188" style="stroke:#181818;stroke-width:0.8000000000000002;" width="8" x="412" y="200.3"/><rect fill="#FFFFFF" height="332.875" style="stroke:#181818;stroke-width:0.8000000000000002;" width="8" x="412" y="395.45"/><rect fill="#FFFFFF" height="57.1625" style="stroke:#181818;stroke-width:0.8000000000000002;" width="8" x="718.4" y="256.3375"/><rect fill="#FFFFFF" height="57.1625" style="stroke:#181818;stroke-width:0.8000000000000002;" width="8" x="718.4" y="523.525"/><rect fill="#FFFFFF" height="57.1625" style="stroke:#181818;stroke-width:0.8000000000000002;" width="8" x="718.4" y="603.5063"/><rect fill="none" height="119.9688" style="stroke:#000000;stroke-width:1.2000000000000002;" width="580.8" x="8" y="348.3188"/><line style="stroke:#181818;stroke-width:0.4000000000000001;stroke-dasharray:5.0,5.0;" x1="56" x2="56" y1="64.5125" y2="742.725"/><line style="stroke:#181818;stroke-width:0.4000000000000001;stroke-dasharray:5.0,5.0;" x1="416" x2="416" y1="64.5125" y2="742.725"/><line style="stroke:#181818;stroke-width:0.4000000000000001;stroke-dasharray:5.0,5.0;" x1="722.4" x2="722.4" y1="119.5875" y2="742.725"/><text fill="#000000" font-family="sans-serif" font-size="11.2" lengthAdjust="spacing" textLength="75.2" x="16" y="62.1391">Store Manager</text><ellipse cx="56" cy="10.8" fill="#E3E3E3" rx="6.4" ry="6.4" style="stroke:#181818;stroke-width:0.4000000000000001;"/><path d="M56,17.2 L56,38.8 M45.6,23.6 L66.4,23.6 M56,38.8 L45.6,50.8 M56,38.8 L66.4,50.8 " fill="none" style="stroke:#181818;stroke-width:0.4000000000000001;"/><text fill="#000000" font-family="sans-serif" font-size="11.2" lengthAdjust="spacing" textLength="75.2" x="16" y="752.0641">Store Manager</text><ellipse cx="56" cy="761.2375" fill="#E3E3E3" rx="6.4" ry="6.4" style="stroke:#181818;stroke-width:0.4000000000000001;"/><path d="M56,767.6375 L56,789.2375 M45.6,774.0375 L66.4,774.0375 M56,789.2375 L45.6,801.2375 M56,789.2375 L66.4,801.2375 " fill="none" style="stroke:#181818;stroke-width:0.4000000000000001;"/><rect fill="#E3E3E3" height="23.7125" rx="2" ry="2" style="stroke:#181818;stroke-width:0.4000000000000001;" width="92.8" x="369.6" y="40"/><text fill="#000000" font-family="sans-serif" font-size="11.2" lengthAdjust="spacing" textLength="81.6" x="375.2" y="55.7391">:AnalyseDealsUI</text><rect fill="#E3E3E3" height="23.7125" rx="2" ry="2" style="stroke:#181818;stroke-width:0.4000000000000001;" width="92.8" x="369.6" y="741.925"/><text fill="#000000" font-family="sans-serif" font-size="11.2" lengthAdjust="spacing" textLength="81.6" x="375.2" y="757.6641">:AnalyseDealsUI</text><rect fill="#E3E3E3" height="23.7125" rx="2" ry="2" style="stroke:#181818;stroke-width:0.4000000000000001;" width="132.8" x="656" y="741.925"/><text fill="#000000" font-family="sans-serif" font-size="11.2" lengthAdjust="spacing" textLength="121.6" x="661.6" y="757.6641">:AnalyseDealsController</text><rect fill="#FFFFFF" height="655.8125" style="stroke:#181818;stroke-width:0.8000000000000002;" width="8" x="52" y="72.5125"/><rect fill="#FFFFFF" height="88.55" style="stroke:#181818;stroke-width:0.8000000000000002;" width="8" x="412" y="88.9313"/><rect fill="#FFFFFF" height="136.0188" style="stroke:#181818;stroke-width:0.8000000000000002;" width="8" x="412" y="200.3"/><rect fill="#FFFFFF" height="332.875" style="stroke:#181818;stroke-width:0.8000000000000002;" width="8" x="412" y="395.45"/><rect fill="#FFFFFF" height="57.1625" style="stroke:#181818;stroke-width:0.8000000000000002;" width="8" x="718.4" y="256.3375"/><rect fill="#FFFFFF" height="57.1625" style="stroke:#181818;stroke-width:0.8000000000000002;" width="8" x="718.4" y="523.525"/><rect fill="#FFFFFF" height="57.1625" style="stroke:#181818;stroke-width:0.8000000000000002;" width="8" x="718.4" y="603.5063"/><polygon fill="#181818" points="402.4,85.7313,410.4,88.9313,402.4,92.1313,405.6,88.9313" style="stroke:#181818;stroke-width:0.8000000000000002;"/><line style="stroke:#181818;stroke-width:0.8000000000000002;" x1="60" x2="407.2" y1="88.9313" y2="88.9313"/><text fill="#000000" font-family="sans-serif" font-size="10.4" font-weight="bold" lengthAdjust="spacing" textLength="5.6" x="65.6" y="85.1273">1</text><text fill="#000000" font-family="sans-serif" font-size="10.4" lengthAdjust="spacing" textLength="113.6" x="74.4" y="85.1273">request to analyse deals</text><polygon fill="#181818" points="646.4,108.55,654.4,111.75,646.4,114.95,649.6,111.75" style="stroke:#181818;stroke-width:0.8000000000000002;"/><line style="stroke:#181818;stroke-width:0.8000000000000002;" x1="420" x2="651.2" y1="111.75" y2="111.75"/><text fill="#000000" font-family="sans-serif" font-size="10.4" font-weight="bold" lengthAdjust="spacing" textLength="5.6" x="425.6" y="107.9461">2</text><text fill="#000000" font-family="sans-serif" font-size="10.4" lengthAdjust="spacing" textLength="143.2" x="434.4" y="107.9461">createAnalyseDealsController()</text><rect fill="#E3E3E3" height="23.7125" rx="2" ry="2" style="stroke:#181818;stroke-width:0.4000000000000001;" width="132.8" x="656" y="95.3313"/><text fill="#000000" font-family="sans-serif" font-size="11.2" lengthAdjust="spacing" textLength="121.6" x="661.6" y="111.0703">:AnalyseDealsController</text><line style="stroke:#181818;stroke-width:0.8000000000000002;stroke-dasharray:2.0,2.0;" x1="420" x2="453.6" y1="148.2625" y2="148.2625"/><line style="stroke:#181818;stroke-width:0.8000000000000002;stroke-dasharray:2.0,2.0;" x1="453.6" x2="453.6" y1="148.2625" y2="158.6625"/><line style="stroke:#181818;stroke-width:0.8000000000000002;stroke-dasharray:2.0,2.0;" x1="416" x2="453.6" y1="158.6625" y2="158.6625"/><polygon fill="#181818" points="424,155.4625,416,158.6625,424,161.8625,420.8,158.6625" style="stroke:#181818;stroke-width:0.8000000000000002;"/><text fill="#000000" font-family="sans-serif" font-size="10.4" font-weight="bold" lengthAdjust="spacing" textLength="5.6" x="425.6" y="144.4586">3</text><text fill="#000000" font-family="sans-serif" font-size="10.4" lengthAdjust="spacing" textLength="112.8" x="434.4" y="144.4586">displayRegressionModel</text><polygon fill="#181818" points="68.8,174.2813,60.8,177.4813,68.8,180.6813,65.6,177.4813" style="stroke:#181818;stroke-width:0.8000000000000002;"/><line style="stroke:#181818;stroke-width:0.8000000000000002;stroke-dasharray:2.0,2.0;" x1="64" x2="415.2" y1="177.4813" y2="177.4813"/><text fill="#000000" font-family="sans-serif" font-size="10.4" font-weight="bold" lengthAdjust="spacing" textLength="5.6" x="73.6" y="173.6773">4</text><text fill="#000000" font-family="sans-serif" font-size="10.4" lengthAdjust="spacing" textLength="250.4" x="82.4" y="173.6773">request regression model (simple linear or multi-linear)</text><polygon fill="#181818" points="402.4,197.1,410.4,200.3,402.4,203.5,405.6,200.3" style="stroke:#181818;stroke-width:0.8000000000000002;"/><line style="stroke:#181818;stroke-width:0.8000000000000002;" x1="60" x2="407.2" y1="200.3" y2="200.3"/><text fill="#000000" font-family="sans-serif" font-size="10.4" font-weight="bold" lengthAdjust="spacing" textLength="5.6" x="65.6" y="196.4961">5</text><text fill="#000000" font-family="sans-serif" font-size="10.4" lengthAdjust="spacing" textLength="110.4" x="74.4" y="196.4961">select regression model</text><line style="stroke:#181818;stroke-width:0.8000000000000002;stroke-dasharray:2.0,2.0;" x1="420" x2="453.6" y1="223.1188" y2="223.1188"/><line style="stroke:#181818;stroke-width:0.8000000000000002;stroke-dasharray:2.0,2.0;" x1="453.6" x2="453.6" y1="223.1188" y2="233.5188"/><line style="stroke:#181818;stroke-width:0.8000000000000002;stroke-dasharray:2.0,2.0;" x1="420.8" x2="453.6" y1="233.5188" y2="233.5188"/><polygon fill="#181818" points="428.8,230.3188,420.8,233.5188,428.8,236.7188,425.6,233.5188" style="stroke:#181818;stroke-width:0.8000000000000002;"/><text fill="#000000" font-family="sans-serif" font-size="10.4" font-weight="bold" lengthAdjust="spacing" textLength="5.6" x="425.6" y="219.3148">6</text><text fill="#000000" font-family="sans-serif" font-size="10.4" lengthAdjust="spacing" textLength="108" x="434.4" y="219.3148">keep (regressionModel)</text><polygon fill="#181818" points="708.8,253.1375,716.8,256.3375,708.8,259.5375,712,256.3375" style="stroke:#181818;stroke-width:0.8000000000000002;"/><line style="stroke:#181818;stroke-width:0.8000000000000002;stroke-dasharray:2.0,2.0;" x1="420" x2="713.6" y1="256.3375" y2="256.3375"/><text fill="#000000" font-family="sans-serif" font-size="10.4" font-weight="bold" lengthAdjust="spacing" textLength="5.6" x="425.6" y="252.5336">7</text><text fill="#000000" font-family="sans-serif" font-size="10.4" lengthAdjust="spacing" textLength="141.6" x="434.4" y="252.5336">displayIndependentVariables ()</text><rect fill="none" height="30.3438" style="stroke:#000000;stroke-width:1.2000000000000002;" width="137.6" x="653.6" y="262.7375"/><path d="M653.6,262.7375 L703.2,262.7375 L703.2,267.5375 L695.2,275.5375 L653.6,275.5375 L653.6,262.7375 " fill="#EEEEEE" style="stroke:#000000;stroke-width:1.6000000000000003;"/><text fill="#000000" font-family="sans-serif" font-size="10.4" font-weight="bold" lengthAdjust="spacing" textLength="13.6" x="664" y="273.7523">ref</text><text fill="#000000" font-family="sans-serif" font-size="9.6" lengthAdjust="spacing" textLength="113.6" x="665.6" y="287.4281">get independent variables</text><polygon fill="#181818" points="428.8,310.3,420.8,313.5,428.8,316.7,425.6,313.5" style="stroke:#181818;stroke-width:0.8000000000000002;"/><line style="stroke:#181818;stroke-width:0.8000000000000002;stroke-dasharray:2.0,2.0;" x1="424" x2="721.6" y1="313.5" y2="313.5"/><text fill="#000000" font-family="sans-serif" font-size="10.4" font-weight="bold" lengthAdjust="spacing" textLength="5.6" x="433.6" y="309.6961">8</text><text fill="#000000" font-family="sans-serif" font-size="10.4" lengthAdjust="spacing" textLength="116" x="442.4" y="309.6961">IndependentVariablesList</text><polygon fill="#181818" points="68.8,333.1188,60.8,336.3188,68.8,339.5188,65.6,336.3188" style="stroke:#181818;stroke-width:0.8000000000000002;"/><line style="stroke:#181818;stroke-width:0.8000000000000002;stroke-dasharray:2.0,2.0;" x1="64" x2="415.2" y1="336.3188" y2="336.3188"/><text fill="#000000" font-family="sans-serif" font-size="10.4" font-weight="bold" lengthAdjust="spacing" textLength="5.6" x="73.6" y="332.5148">9</text><text fill="#000000" font-family="sans-serif" font-size="10.4" lengthAdjust="spacing" textLength="324" x="82.4" y="332.5148">request the independent variable(s) from the list of property information</text><path d="M8,348.3188 L66.4,348.3188 L66.4,353.5375 L58.4,361.5375 L8,361.5375 L8,348.3188 " fill="#EEEEEE" style="stroke:#000000;stroke-width:1.2000000000000002;"/><rect fill="none" height="119.9688" style="stroke:#000000;stroke-width:1.2000000000000002;" width="580.8" x="8" y="348.3188"/><text fill="#000000" font-family="sans-serif" font-size="10.4" font-weight="bold" lengthAdjust="spacing" textLength="22.4" x="20" y="358.5336">loop</text><text fill="#000000" font-family="sans-serif" font-size="8.8" font-weight="bold" lengthAdjust="spacing" textLength="99.2" x="78.4" y="357.8852">[(once) if simple linear</text><text fill="#000000" font-family="sans-serif" font-size="8.8" font-weight="bold" lengthAdjust="spacing" textLength="297.6" x="78.4" y="367.7164">(while number of selected variables &lt; number of total variables and</text><text fill="#000000" font-family="sans-serif" font-size="8.8" font-weight="bold" lengthAdjust="spacing" textLength="159.2" x="80.8" y="377.5477">selected variable != 0) if multi-linear]</text><polygon fill="#181818" points="402.4,392.25,410.4,395.45,402.4,398.65,405.6,395.45" style="stroke:#181818;stroke-width:0.8000000000000002;"/><line style="stroke:#181818;stroke-width:0.8000000000000002;" x1="60" x2="407.2" y1="395.45" y2="395.45"/><text fill="#000000" font-family="sans-serif" font-size="10.4" font-weight="bold" lengthAdjust="spacing" textLength="11.2" x="65.6" y="391.6461">10</text><text fill="#000000" font-family="sans-serif" font-size="10.4" lengthAdjust="spacing" textLength="142.4" x="80" y="391.6461">select the independent variable</text><line style="stroke:#181818;stroke-width:0.8000000000000002;stroke-dasharray:2.0,2.0;" x1="420" x2="453.6" y1="418.2688" y2="418.2688"/><line style="stroke:#181818;stroke-width:0.8000000000000002;stroke-dasharray:2.0,2.0;" x1="453.6" x2="453.6" y1="418.2688" y2="428.6688"/><line style="stroke:#181818;stroke-width:0.8000000000000002;stroke-dasharray:2.0,2.0;" x1="420.8" x2="453.6" y1="428.6688" y2="428.6688"/><polygon fill="#181818" points="428.8,425.4688,420.8,428.6688,428.8,431.8688,425.6,428.6688" style="stroke:#181818;stroke-width:0.8000000000000002;"/><text fill="#000000" font-family="sans-serif" font-size="10.4" font-weight="bold" lengthAdjust="spacing" textLength="11.2" x="425.6" y="414.4648">11</text><text fill="#000000" font-family="sans-serif" font-size="10.4" lengthAdjust="spacing" textLength="125.6" x="440" y="414.4648">keep (IndependentVariable)</text><line style="stroke:#181818;stroke-width:0.8000000000000002;stroke-dasharray:2.0,2.0;" x1="420" x2="453.6" y1="451.4875" y2="451.4875"/><line style="stroke:#181818;stroke-width:0.8000000000000002;stroke-dasharray:2.0,2.0;" x1="453.6" x2="453.6" y1="451.4875" y2="461.8875"/><line style="stroke:#181818;stroke-width:0.8000000000000002;stroke-dasharray:2.0,2.0;" x1="420.8" x2="453.6" y1="461.8875" y2="461.8875"/><polygon fill="#181818" points="428.8,458.6875,420.8,461.8875,428.8,465.0875,425.6,461.8875" style="stroke:#181818;stroke-width:0.8000000000000002;"/><text fill="#000000" font-family="sans-serif" font-size="10.4" font-weight="bold" lengthAdjust="spacing" textLength="11.2" x="425.6" y="447.6836">12</text><text fill="#000000" font-family="sans-serif" font-size="10.4" lengthAdjust="spacing" textLength="139.2" x="440" y="447.6836">add(IndependentVariablesList)</text><line style="stroke:#181818;stroke-width:0.8000000000000002;stroke-dasharray:2.0,2.0;" x1="420" x2="453.6" y1="490.3063" y2="490.3063"/><line style="stroke:#181818;stroke-width:0.8000000000000002;stroke-dasharray:2.0,2.0;" x1="453.6" x2="453.6" y1="490.3063" y2="500.7063"/><line style="stroke:#181818;stroke-width:0.8000000000000002;stroke-dasharray:2.0,2.0;" x1="420.8" x2="453.6" y1="500.7063" y2="500.7063"/><polygon fill="#181818" points="428.8,497.5063,420.8,500.7063,428.8,503.9063,425.6,500.7063" style="stroke:#181818;stroke-width:0.8000000000000002;"/><text fill="#000000" font-family="sans-serif" font-size="10.4" font-weight="bold" lengthAdjust="spacing" textLength="11.2" x="425.6" y="486.5023">13</text><text fill="#000000" font-family="sans-serif" font-size="10.4" lengthAdjust="spacing" textLength="72" x="440" y="486.5023">getStore (store)</text><polygon fill="#181818" points="708.8,520.325,716.8,523.525,708.8,526.725,712,523.525" style="stroke:#181818;stroke-width:0.8000000000000002;"/><line style="stroke:#181818;stroke-width:0.8000000000000002;" x1="420" x2="713.6" y1="523.525" y2="523.525"/><text fill="#000000" font-family="sans-serif" font-size="10.4" font-weight="bold" lengthAdjust="spacing" textLength="11.2" x="425.6" y="519.7211">14</text><text fill="#000000" font-family="sans-serif" font-size="10.4" lengthAdjust="spacing" textLength="119.2" x="440" y="519.7211">getDealsFromStore(store)</text><rect fill="none" height="30.3438" style="stroke:#000000;stroke-width:1.2000000000000002;" width="137.6" x="653.6" y="529.925"/><path d="M653.6,529.925 L703.2,529.925 L703.2,534.725 L695.2,542.725 L653.6,542.725 L653.6,529.925 " fill="#EEEEEE" style="stroke:#000000;stroke-width:1.6000000000000003;"/><text fill="#000000" font-family="sans-serif" font-size="10.4" font-weight="bold" lengthAdjust="spacing" textLength="13.6" x="664" y="540.9398">ref</text><text fill="#000000" font-family="sans-serif" font-size="9.6" lengthAdjust="spacing" textLength="113.6" x="665.6" y="554.6156">get independent variables</text><polygon fill="#181818" points="428.8,577.4875,420.8,580.6875,428.8,583.8875,425.6,580.6875" style="stroke:#181818;stroke-width:0.8000000000000002;"/><line style="stroke:#181818;stroke-width:0.8000000000000002;stroke-dasharray:2.0,2.0;" x1="424" x2="721.6" y1="580.6875" y2="580.6875"/><text fill="#000000" font-family="sans-serif" font-size="10.4" font-weight="bold" lengthAdjust="spacing" textLength="11.2" x="433.6" y="576.8836">15</text><text fill="#000000" font-family="sans-serif" font-size="10.4" lengthAdjust="spacing" textLength="41.6" x="448" y="576.8836">dealsList</text><polygon fill="#181818" points="708.8,600.3063,716.8,603.5063,708.8,606.7063,712,603.5063" style="stroke:#181818;stroke-width:0.8000000000000002;"/><line style="stroke:#181818;stroke-width:0.8000000000000002;" x1="420" x2="713.6" y1="603.5063" y2="603.5063"/><text fill="#000000" font-family="sans-serif" font-size="10.4" font-weight="bold" lengthAdjust="spacing" textLength="11.2" x="425.6" y="599.7023">16</text><text fill="#000000" font-family="sans-serif" font-size="10.4" lengthAdjust="spacing" textLength="139.2" x="440" y="599.7023">getValueFromDeals(dealsList)</text><rect fill="none" height="30.3438" style="stroke:#000000;stroke-width:1.2000000000000002;" width="137.6" x="653.6" y="609.9063"/><path d="M653.6,609.9063 L703.2,609.9063 L703.2,614.7063 L695.2,622.7063 L653.6,622.7063 L653.6,609.9063 " fill="#EEEEEE" style="stroke:#000000;stroke-width:1.6000000000000003;"/><text fill="#000000" font-family="sans-serif" font-size="10.4" font-weight="bold" lengthAdjust="spacing" textLength="13.6" x="664" y="620.9211">ref</text><text fill="#000000" font-family="sans-serif" font-size="9.6" lengthAdjust="spacing" textLength="72" x="686.4" y="634.5969">get deals values</text><polygon fill="#181818" points="428.8,657.4688,420.8,660.6688,428.8,663.8688,425.6,660.6688" style="stroke:#181818;stroke-width:0.8000000000000002;"/><line style="stroke:#181818;stroke-width:0.8000000000000002;stroke-dasharray:2.0,2.0;" x1="424" x2="721.6" y1="660.6688" y2="660.6688"/><text fill="#000000" font-family="sans-serif" font-size="10.4" font-weight="bold" lengthAdjust="spacing" textLength="11.2" x="433.6" y="656.8648">17</text><text fill="#000000" font-family="sans-serif" font-size="10.4" lengthAdjust="spacing" textLength="48.8" x="448" y="656.8648">ValuesList</text><line style="stroke:#181818;stroke-width:0.8000000000000002;stroke-dasharray:2.0,2.0;" x1="420" x2="453.6" y1="683.4875" y2="683.4875"/><line style="stroke:#181818;stroke-width:0.8000000000000002;stroke-dasharray:2.0,2.0;" x1="453.6" x2="453.6" y1="683.4875" y2="693.8875"/><line style="stroke:#181818;stroke-width:0.8000000000000002;stroke-dasharray:2.0,2.0;" x1="420.8" x2="453.6" y1="693.8875" y2="693.8875"/><polygon fill="#181818" points="428.8,690.6875,420.8,693.8875,428.8,697.0875,425.6,693.8875" style="stroke:#181818;stroke-width:0.8000000000000002;"/><text fill="#000000" font-family="sans-serif" font-size="10.4" font-weight="bold" lengthAdjust="spacing" textLength="11.2" x="425.6" y="679.6836">18</text><text fill="#000000" font-family="sans-serif" font-size="10.4" lengthAdjust="spacing" textLength="272.8" x="440" y="679.6836">RegressionAnalysis (IndependentVariablesList, ValuesList)</text><polygon fill="#181818" points="64.8,725.125,56.8,728.325,64.8,731.525,61.6,728.325" style="stroke:#181818;stroke-width:0.8000000000000002;"/><line style="stroke:#181818;stroke-width:0.8000000000000002;stroke-dasharray:2.0,2.0;" x1="60" x2="415.2" y1="728.325" y2="728.325"/><text fill="#000000" font-family="sans-serif" font-size="10.4" font-weight="bold" lengthAdjust="spacing" textLength="11.2" x="69.6" y="718.7117">19</text><text fill="#000000" font-family="sans-serif" font-size="10.4" lengthAdjust="spacing" textLength="161.6" x="84" y="712.9023">shows a prediction of the value of a</text><text fill="#000000" font-family="sans-serif" font-size="10.4" lengthAdjust="spacing" textLength="264.8" x="87.2" y="724.5211">property based on the value of the independent variable(s)</text><!--SRC=[XLLDRzim3BtxLt0vsSKAx5ni0uOM0m8qbsRjgHV6fXCXikH9SeBy-r7I_0NBRGvEPF4zFf6FYZqBrQB11XgjT7aokY5mfgFC3ZijbcSyqjxT986Xqg4wocc0FM6bhq8TeKPfASiox9nMNNCWas7fj87Ddfy4ErJCP3Q05lQxZE5EbA95vM3py4kXl5bw8YPvtOQOr-q7COzQEQEb_C_t-EVbEVEvIoSkwCWdo80_-ntS_sGgU63rVpko3fm6Z4nGUQeOE20vhLypX86Uz-wEmQKXtamho8ii6p1zjahOLkBjXOw6h1LQxNH5CiPnsZvR53u1i-1HgXdGt2A6Gsv5qt8df5241hYuJIUTk8_hNiU4dq-pA8GboOrSaA_NeGUUYLh8pVn8nKo-Fyzu-gsgg2L-AFU6Hk11aWKkronHA85_OwW6VI4plZcI0p5omAKd2RlyqcF2xv1t49hA-ooiIrT_jVpkHCdqkIsWvca90P9vGTVG6jsISJT6rDeqwBX0YMxuDr9hhgDM9HKWQfZrz5tbrvFWPHmXpnpxHTLuVFW-sNRQePpieQhUrH84Ntx0jv1lQfbLTwoTVUcIXFcZKH9TA9QnM5NvMh-AliyHDiEnD-Azabl_DM6EBWmHOL9_Swj2Q1-Pjb_2VvzxS31XmeNXTbctNKBk6ygElDoWEny8Ya5DGlQwz5v-u67XJ6x7pPdofVgWPPJ_sRqLCEDj5szAOM6rjryd6Vp5jHX3Uz9NTZCF5bMYzECKtCw-32Vn2sIZ3tDtGCjsvwXPo0SpdBui9sl-4_a7]--></g></svg>