<?xml version="1.0" encoding="us-ascii" standalone="no"?><svg xmlns="http://www.w3.org/2000/svg" xmlns:xlink="http://www.w3.org/1999/xlink" contentStyleType="text/css" height="349px" preserveAspectRatio="none" style="width:686px;height:349px;background:#FFFFFF;" version="1.1" viewBox="0 0 686 349" width="686px" zoomAndPan="magnify"><defs/><g><rect fill="#FFFFFF" height="199.6641" style="stroke:#181818;stroke-width:1.0;" width="10" x="186" y="81.8047"/><rect fill="#FFFFFF" height="28.5234" style="stroke:#181818;stroke-width:1.0;" width="10" x="327.5" y="110.3281"/><rect fill="#FFFFFF" height="28.5234" style="stroke:#181818;stroke-width:1.0;" width="10" x="434.5" y="167.375"/><rect fill="#FFFFFF" height="28.5234" style="stroke:#181818;stroke-width:1.0;" width="10" x="584" y="224.4219"/><line style="stroke:#181818;stroke-width:0.5;stroke-dasharray:5.0,5.0;" x1="191" x2="191" y1="51.2813" y2="299.4688"/><line style="stroke:#181818;stroke-width:0.5;stroke-dasharray:5.0,5.0;" x1="332" x2="332" y1="51.2813" y2="299.4688"/><line style="stroke:#181818;stroke-width:0.5;stroke-dasharray:5.0,5.0;" x1="439" x2="439" y1="51.2813" y2="299.4688"/><line style="stroke:#181818;stroke-width:0.5;stroke-dasharray:5.0,5.0;" x1="589" x2="589" y1="51.2813" y2="299.4688"/><rect fill="#E3E3E3" height="29.6406" rx="2.5" ry="2.5" style="stroke:#181818;stroke-width:0.5;" width="166" x="108" y="20.6406"/><text fill="#000000" font-family="sans-serif" font-size="14" lengthAdjust="spacing" textLength="152" x="115" y="40.3145">:AnalyseDealsController</text><rect fill="#E3E3E3" height="29.6406" rx="2.5" ry="2.5" style="stroke:#181818;stroke-width:0.5;" width="166" x="108" y="298.4688"/><text fill="#000000" font-family="sans-serif" font-size="14" lengthAdjust="spacing" textLength="152" x="115" y="318.1426">:AnalyseDealsController</text><rect fill="#E3E3E3" height="29.6406" rx="2.5" ry="2.5" style="stroke:#181818;stroke-width:0.5;" width="97" x="284" y="20.6406"/><text fill="#000000" font-family="sans-serif" font-size="14" lengthAdjust="spacing" textLength="83" x="291" y="40.3145">:Repositories</text><rect fill="#E3E3E3" height="29.6406" rx="2.5" ry="2.5" style="stroke:#181818;stroke-width:0.5;" width="97" x="284" y="298.4688"/><text fill="#000000" font-family="sans-serif" font-size="14" lengthAdjust="spacing" textLength="83" x="291" y="318.1426">:Repositories</text><rect fill="#E3E3E3" height="45.2813" rx="2.5" ry="2.5" style="stroke:#181818;stroke-width:0.5;" width="97" x="391" y="5"/><text fill="#000000" font-family="sans-serif" font-size="14" lengthAdjust="spacing" textLength="79" x="400" y="24.6738">Repositories</text><text fill="#000000" font-family="sans-serif" font-size="14" lengthAdjust="spacing" textLength="83" x="398" y="40.3145">:Repositories</text><rect fill="#E3E3E3" height="45.2813" rx="2.5" ry="2.5" style="stroke:#181818;stroke-width:0.5;" width="97" x="391" y="298.4688"/><text fill="#000000" font-family="sans-serif" font-size="14" lengthAdjust="spacing" textLength="79" x="400" y="318.1426">Repositories</text><text fill="#000000" font-family="sans-serif" font-size="14" lengthAdjust="spacing" textLength="83" x="398" y="333.7832">:Repositories</text><rect fill="#E3E3E3" height="45.2813" rx="2.5" ry="2.5" style="stroke:#181818;stroke-width:0.5;" width="182" x="498" y="5"/><text fill="#000000" font-family="sans-serif" font-size="14" lengthAdjust="spacing" textLength="168" x="505" y="24.6738">purchaseOrderRepository:</text><text fill="#000000" font-family="sans-serif" font-size="14" lengthAdjust="spacing" textLength="165" x="506.5" y="40.3145">PurchaseOrderRepository</text><rect fill="#E3E3E3" height="45.2813" rx="2.5" ry="2.5" style="stroke:#181818;stroke-width:0.5;" width="182" x="498" y="298.4688"/><text fill="#000000" font-family="sans-serif" font-size="14" lengthAdjust="spacing" textLength="168" x="505" y="318.1426">purchaseOrderRepository:</text><text fill="#000000" font-family="sans-serif" font-size="14" lengthAdjust="spacing" textLength="165" x="506.5" y="333.7832">PurchaseOrderRepository</text><rect fill="#FFFFFF" height="199.6641" style="stroke:#181818;stroke-width:1.0;" width="10" x="186" y="81.8047"/><rect fill="#FFFFFF" height="28.5234" style="stroke:#181818;stroke-width:1.0;" width="10" x="327.5" y="110.3281"/><rect fill="#FFFFFF" height="28.5234" style="stroke:#181818;stroke-width:1.0;" width="10" x="434.5" y="167.375"/><rect fill="#FFFFFF" height="28.5234" style="stroke:#181818;stroke-width:1.0;" width="10" x="584" y="224.4219"/><polygon fill="#181818" points="174,77.8047,184,81.8047,174,85.8047,178,81.8047" style="stroke:#181818;stroke-width:1.0;"/><line style="stroke:#181818;stroke-width:1.0;" x1="0" x2="180" y1="81.8047" y2="81.8047"/><text fill="#000000" font-family="sans-serif" font-size="13" font-weight="bold" lengthAdjust="spacing" textLength="14" x="7" y="77.0498">14</text><text fill="#000000" font-family="sans-serif" font-size="13" lengthAdjust="spacing" textLength="149" x="25" y="77.0498">getDealsFromStore(store)</text><polygon fill="#181818" points="315.5,106.3281,325.5,110.3281,315.5,114.3281,319.5,110.3281" style="stroke:#181818;stroke-width:1.0;"/><line style="stroke:#181818;stroke-width:1.0;" x1="196" x2="321.5" y1="110.3281" y2="110.3281"/><text fill="#000000" font-family="sans-serif" font-size="13" font-weight="bold" lengthAdjust="spacing" textLength="25" x="203" y="105.5732">14.1</text><text fill="#000000" font-family="sans-serif" font-size="13" lengthAdjust="spacing" textLength="75" x="232" y="105.5732">getInstance()</text><polygon fill="#181818" points="207,134.8516,197,138.8516,207,142.8516,203,138.8516" style="stroke:#181818;stroke-width:1.0;"/><line style="stroke:#181818;stroke-width:1.0;stroke-dasharray:2.0,2.0;" x1="201" x2="331.5" y1="138.8516" y2="138.8516"/><text fill="#000000" font-family="sans-serif" font-size="13" font-weight="bold" lengthAdjust="spacing" textLength="25" x="213" y="134.0967">14.2</text><text fill="#000000" font-family="sans-serif" font-size="13" lengthAdjust="spacing" textLength="67" x="242" y="134.0967">repositories</text><polygon fill="#181818" points="422.5,163.375,432.5,167.375,422.5,171.375,426.5,167.375" style="stroke:#181818;stroke-width:1.0;"/><line style="stroke:#181818;stroke-width:1.0;" x1="196" x2="428.5" y1="167.375" y2="167.375"/><text fill="#000000" font-family="sans-serif" font-size="13" font-weight="bold" lengthAdjust="spacing" textLength="25" x="203" y="162.6201">14.3</text><text fill="#000000" font-family="sans-serif" font-size="13" lengthAdjust="spacing" textLength="175" x="232" y="162.6201">getPurchaseOrderRepository()</text><polygon fill="#181818" points="207,191.8984,197,195.8984,207,199.8984,203,195.8984" style="stroke:#181818;stroke-width:1.0;"/><line style="stroke:#181818;stroke-width:1.0;" x1="201" x2="438.5" y1="195.8984" y2="195.8984"/><text fill="#000000" font-family="sans-serif" font-size="13" font-weight="bold" lengthAdjust="spacing" textLength="25" x="213" y="191.1436">14.4</text><text fill="#000000" font-family="sans-serif" font-size="13" lengthAdjust="spacing" textLength="149" x="242" y="191.1436">PurchaseOrderRepository</text><polygon fill="#181818" points="572,220.4219,582,224.4219,572,228.4219,576,224.4219" style="stroke:#181818;stroke-width:1.0;"/><line style="stroke:#181818;stroke-width:1.0;" x1="196" x2="578" y1="224.4219" y2="224.4219"/><text fill="#000000" font-family="sans-serif" font-size="13" font-weight="bold" lengthAdjust="spacing" textLength="25" x="203" y="219.667">14.5</text><text fill="#000000" font-family="sans-serif" font-size="13" lengthAdjust="spacing" textLength="135" x="232" y="219.667">getDealsByStore(store)</text><polygon fill="#181818" points="207,248.9453,197,252.9453,207,256.9453,203,252.9453" style="stroke:#181818;stroke-width:1.0;"/><line style="stroke:#181818;stroke-width:1.0;stroke-dasharray:2.0,2.0;" x1="201" x2="588" y1="252.9453" y2="252.9453"/><text fill="#000000" font-family="sans-serif" font-size="13" font-weight="bold" lengthAdjust="spacing" textLength="25" x="213" y="248.1904">14.6</text><text fill="#000000" font-family="sans-serif" font-size="13" lengthAdjust="spacing" textLength="52" x="242" y="248.1904">dealsList</text><polygon fill="#181818" points="11,277.4688,1,281.4688,11,285.4688,7,281.4688" style="stroke:#181818;stroke-width:1.0;"/><line style="stroke:#181818;stroke-width:1.0;stroke-dasharray:2.0,2.0;" x1="5" x2="190" y1="281.4688" y2="281.4688"/><text fill="#000000" font-family="sans-serif" font-size="13" font-weight="bold" lengthAdjust="spacing" textLength="14" x="17" y="276.7139">15</text><text fill="#000000" font-family="sans-serif" font-size="13" lengthAdjust="spacing" textLength="52" x="35" y="276.7139">dealsList</text><!--SRC=[XL7BQiCm4BpxAqGkJGwE2RGNKmffIg4GI71op6KhRsqHMN8bkSL_txNSn8ywL0UXnypixEnTxbnfuoWg9IXN5NB9TH5P_AnGSGnJ0Pc18h1deKgW4okqqZmtka3cJ8MzdnBu6J8yk5eYCyWTg4ps0JQ7L7yBbR4Fa1Q3883AQLKLxsZOwfxkX7E2YvAii5cyLY1hYoz8w8rMpcWfqSmOMBOv9jiHEi5IM-6q4MWzvlfG7qJZX4eDANt6IVqLs6_Nno6Zh0pFmUBEf6Ww_VYazjC_NcUNK6j1-EHTnon3vrjwfH0F1CAvRVR5C8tbAc2qW3ln1GxRZfiNVsAaDj4Vy-flobBs7EUBeSHK8AqahIcryEhPzBBnb1J_bxqORN9idTr8QMpK1tzrvkc_JaZcXiROLQTniR5BM1V-Sps8Vb2UvjNS2HzsPTE6jHNMZGlvwNf-RtmF_kKn35lwWD_Z-g7-0000]--></g></svg>