<?xml version="1.0" encoding="us-ascii" standalone="no"?><svg xmlns="http://www.w3.org/2000/svg" xmlns:xlink="http://www.w3.org/1999/xlink" contentStyleType="text/css" height="478px" preserveAspectRatio="none" style="width:887px;height:478px;background:#FFFFFF;" version="1.1" viewBox="0 0 887 478" width="887px" zoomAndPan="magnify"><defs/><g><rect fill="#FFFFFF" height="328.7578" style="stroke:#181818;stroke-width:1.0;" width="10" x="211" y="81.8047"/><rect fill="#FFFFFF" height="28.5234" style="stroke:#181818;stroke-width:1.0;" width="10" x="352.5" y="110.3281"/><rect fill="#FFFFFF" height="28.5234" style="stroke:#181818;stroke-width:1.0;" width="10" x="459.5" y="167.375"/><rect fill="#FFFFFF" height="157.6172" style="stroke:#181818;stroke-width:1.0;" width="10" x="609" y="224.4219"/><rect fill="#FFFFFF" height="28.5234" style="stroke:#181818;stroke-width:1.0;" width="10" x="811" y="276.4688"/><rect fill="none" height="115.0938" style="stroke:#000000;stroke-width:1.5;" width="368.5" x="513" y="239.4219"/><line style="stroke:#181818;stroke-width:0.5;stroke-dasharray:5.0,5.0;" x1="216" x2="216" y1="51.2813" y2="428.5625"/><line style="stroke:#181818;stroke-width:0.5;stroke-dasharray:5.0,5.0;" x1="357" x2="357" y1="51.2813" y2="428.5625"/><line style="stroke:#181818;stroke-width:0.5;stroke-dasharray:5.0,5.0;" x1="464" x2="464" y1="51.2813" y2="428.5625"/><line style="stroke:#181818;stroke-width:0.5;stroke-dasharray:5.0,5.0;" x1="614" x2="614" y1="51.2813" y2="428.5625"/><line style="stroke:#181818;stroke-width:0.5;stroke-dasharray:5.0,5.0;" x1="815.5" x2="815.5" y1="51.2813" y2="428.5625"/><rect fill="#E3E3E3" height="29.6406" rx="2.5" ry="2.5" style="stroke:#181818;stroke-width:0.5;" width="166" x="133" y="20.6406"/><text fill="#000000" font-family="sans-serif" font-size="14" lengthAdjust="spacing" textLength="152" x="140" y="40.3145">:AnalyseDealsController</text><rect fill="#E3E3E3" height="29.6406" rx="2.5" ry="2.5" style="stroke:#181818;stroke-width:0.5;" width="166" x="133" y="427.5625"/><text fill="#000000" font-family="sans-serif" font-size="14" lengthAdjust="spacing" textLength="152" x="140" y="447.2363">:AnalyseDealsController</text><rect fill="#E3E3E3" height="29.6406" rx="2.5" ry="2.5" style="stroke:#181818;stroke-width:0.5;" width="97" x="309" y="20.6406"/><text fill="#000000" font-family="sans-serif" font-size="14" lengthAdjust="spacing" textLength="83" x="316" y="40.3145">:Repositories</text><rect fill="#E3E3E3" height="29.6406" rx="2.5" ry="2.5" style="stroke:#181818;stroke-width:0.5;" width="97" x="309" y="427.5625"/><text fill="#000000" font-family="sans-serif" font-size="14" lengthAdjust="spacing" textLength="83" x="316" y="447.2363">:Repositories</text><rect fill="#E3E3E3" height="45.2813" rx="2.5" ry="2.5" style="stroke:#181818;stroke-width:0.5;" width="97" x="416" y="5"/><text fill="#000000" font-family="sans-serif" font-size="14" lengthAdjust="spacing" textLength="79" x="425" y="24.6738">Repositories</text><text fill="#000000" font-family="sans-serif" font-size="14" lengthAdjust="spacing" textLength="83" x="423" y="40.3145">:Repositories</text><rect fill="#E3E3E3" height="45.2813" rx="2.5" ry="2.5" style="stroke:#181818;stroke-width:0.5;" width="97" x="416" y="427.5625"/><text fill="#000000" font-family="sans-serif" font-size="14" lengthAdjust="spacing" textLength="79" x="425" y="447.2363">Repositories</text><text fill="#000000" font-family="sans-serif" font-size="14" lengthAdjust="spacing" textLength="83" x="423" y="462.877">:Repositories</text><rect fill="#E3E3E3" height="45.2813" rx="2.5" ry="2.5" style="stroke:#181818;stroke-width:0.5;" width="182" x="523" y="5"/><text fill="#000000" font-family="sans-serif" font-size="14" lengthAdjust="spacing" textLength="168" x="530" y="24.6738">purchaseOrderRepository:</text><text fill="#000000" font-family="sans-serif" font-size="14" lengthAdjust="spacing" textLength="165" x="531.5" y="40.3145">PurchaseOrderRepository</text><rect fill="#E3E3E3" height="45.2813" rx="2.5" ry="2.5" style="stroke:#181818;stroke-width:0.5;" width="182" x="523" y="427.5625"/><text fill="#000000" font-family="sans-serif" font-size="14" lengthAdjust="spacing" textLength="168" x="530" y="447.2363">purchaseOrderRepository:</text><text fill="#000000" font-family="sans-serif" font-size="14" lengthAdjust="spacing" textLength="165" x="531.5" y="462.877">PurchaseOrderRepository</text><rect fill="#E3E3E3" height="29.6406" rx="2.5" ry="2.5" style="stroke:#181818;stroke-width:0.5;" width="111" x="760.5" y="20.6406"/><text fill="#000000" font-family="sans-serif" font-size="14" lengthAdjust="spacing" textLength="97" x="767.5" y="40.3145">PurchaseOrder</text><rect fill="#E3E3E3" height="29.6406" rx="2.5" ry="2.5" style="stroke:#181818;stroke-width:0.5;" width="111" x="760.5" y="427.5625"/><text fill="#000000" font-family="sans-serif" font-size="14" lengthAdjust="spacing" textLength="97" x="767.5" y="447.2363">PurchaseOrder</text><rect fill="#FFFFFF" height="328.7578" style="stroke:#181818;stroke-width:1.0;" width="10" x="211" y="81.8047"/><rect fill="#FFFFFF" height="28.5234" style="stroke:#181818;stroke-width:1.0;" width="10" x="352.5" y="110.3281"/><rect fill="#FFFFFF" height="28.5234" style="stroke:#181818;stroke-width:1.0;" width="10" x="459.5" y="167.375"/><rect fill="#FFFFFF" height="157.6172" style="stroke:#181818;stroke-width:1.0;" width="10" x="609" y="224.4219"/><rect fill="#FFFFFF" height="28.5234" style="stroke:#181818;stroke-width:1.0;" width="10" x="811" y="276.4688"/><polygon fill="#181818" points="199,77.8047,209,81.8047,199,85.8047,203,81.8047" style="stroke:#181818;stroke-width:1.0;"/><line style="stroke:#181818;stroke-width:1.0;" x1="0" x2="205" y1="81.8047" y2="81.8047"/><text fill="#000000" font-family="sans-serif" font-size="13" font-weight="bold" lengthAdjust="spacing" textLength="14" x="7" y="77.0498">16</text><text fill="#000000" font-family="sans-serif" font-size="13" lengthAdjust="spacing" textLength="174" x="25" y="77.0498">getValueFromDeals(dealsList)</text><polygon fill="#181818" points="340.5,106.3281,350.5,110.3281,340.5,114.3281,344.5,110.3281" style="stroke:#181818;stroke-width:1.0;"/><line style="stroke:#181818;stroke-width:1.0;" x1="221" x2="346.5" y1="110.3281" y2="110.3281"/><text fill="#000000" font-family="sans-serif" font-size="13" font-weight="bold" lengthAdjust="spacing" textLength="25" x="228" y="105.5732">16.1</text><text fill="#000000" font-family="sans-serif" font-size="13" lengthAdjust="spacing" textLength="75" x="257" y="105.5732">getInstance()</text><polygon fill="#181818" points="232,134.8516,222,138.8516,232,142.8516,228,138.8516" style="stroke:#181818;stroke-width:1.0;"/><line style="stroke:#181818;stroke-width:1.0;stroke-dasharray:2.0,2.0;" x1="226" x2="356.5" y1="138.8516" y2="138.8516"/><text fill="#000000" font-family="sans-serif" font-size="13" font-weight="bold" lengthAdjust="spacing" textLength="25" x="238" y="134.0967">16.2</text><text fill="#000000" font-family="sans-serif" font-size="13" lengthAdjust="spacing" textLength="67" x="267" y="134.0967">repositories</text><polygon fill="#181818" points="447.5,163.375,457.5,167.375,447.5,171.375,451.5,167.375" style="stroke:#181818;stroke-width:1.0;"/><line style="stroke:#181818;stroke-width:1.0;" x1="221" x2="453.5" y1="167.375" y2="167.375"/><text fill="#000000" font-family="sans-serif" font-size="13" font-weight="bold" lengthAdjust="spacing" textLength="25" x="228" y="162.6201">16.3</text><text fill="#000000" font-family="sans-serif" font-size="13" lengthAdjust="spacing" textLength="175" x="257" y="162.6201">getPurchaseOrderRepository()</text><polygon fill="#181818" points="232,191.8984,222,195.8984,232,199.8984,228,195.8984" style="stroke:#181818;stroke-width:1.0;"/><line style="stroke:#181818;stroke-width:1.0;" x1="226" x2="463.5" y1="195.8984" y2="195.8984"/><text fill="#000000" font-family="sans-serif" font-size="13" font-weight="bold" lengthAdjust="spacing" textLength="25" x="238" y="191.1436">16.4</text><text fill="#000000" font-family="sans-serif" font-size="13" lengthAdjust="spacing" textLength="149" x="267" y="191.1436">PurchaseOrderRepository</text><polygon fill="#181818" points="597,220.4219,607,224.4219,597,228.4219,601,224.4219" style="stroke:#181818;stroke-width:1.0;"/><line style="stroke:#181818;stroke-width:1.0;" x1="221" x2="603" y1="224.4219" y2="224.4219"/><text fill="#000000" font-family="sans-serif" font-size="13" font-weight="bold" lengthAdjust="spacing" textLength="25" x="228" y="219.667">16.5</text><text fill="#000000" font-family="sans-serif" font-size="13" lengthAdjust="spacing" textLength="144" x="257" y="219.667">getDealsValue(dealsList)</text><path d="M513,239.4219 L586,239.4219 L586,245.9453 L576,255.9453 L513,255.9453 L513,239.4219 " fill="#EEEEEE" style="stroke:#000000;stroke-width:1.5;"/><rect fill="none" height="115.0938" style="stroke:#000000;stroke-width:1.5;" width="368.5" x="513" y="239.4219"/><text fill="#000000" font-family="sans-serif" font-size="13" font-weight="bold" lengthAdjust="spacing" textLength="28" x="528" y="252.1904">loop</text><text fill="#000000" font-family="sans-serif" font-size="11" font-weight="bold" lengthAdjust="spacing" textLength="139" x="601" y="251.3799">[for each deal in dealList]</text><polygon fill="#181818" points="799,272.4688,809,276.4688,799,280.4688,803,276.4688" style="stroke:#181818;stroke-width:1.0;"/><line style="stroke:#181818;stroke-width:1.0;stroke-dasharray:2.0,2.0;" x1="619" x2="805" y1="276.4688" y2="276.4688"/><text fill="#000000" font-family="sans-serif" font-size="13" font-weight="bold" lengthAdjust="spacing" textLength="36" x="626" y="271.7139">16.5.1</text><text fill="#000000" font-family="sans-serif" font-size="13" lengthAdjust="spacing" textLength="103" x="666" y="271.7139">getOrderAmount()</text><polygon fill="#181818" points="630,300.9922,620,304.9922,630,308.9922,626,304.9922" style="stroke:#181818;stroke-width:1.0;"/><line style="stroke:#181818;stroke-width:1.0;stroke-dasharray:2.0,2.0;" x1="624" x2="815" y1="304.9922" y2="304.9922"/><text fill="#000000" font-family="sans-serif" font-size="13" font-weight="bold" lengthAdjust="spacing" textLength="36" x="636" y="300.2373">16.5.2</text><text fill="#000000" font-family="sans-serif" font-size="13" lengthAdjust="spacing" textLength="74" x="676" y="300.2373">orderAmount</text><line style="stroke:#181818;stroke-width:1.0;stroke-dasharray:2.0,2.0;" x1="619" x2="661" y1="333.5156" y2="333.5156"/><line style="stroke:#181818;stroke-width:1.0;stroke-dasharray:2.0,2.0;" x1="661" x2="661" y1="333.5156" y2="346.5156"/><line style="stroke:#181818;stroke-width:1.0;stroke-dasharray:2.0,2.0;" x1="620" x2="661" y1="346.5156" y2="346.5156"/><polygon fill="#181818" points="630,342.5156,620,346.5156,630,350.5156,626,346.5156" style="stroke:#181818;stroke-width:1.0;"/><text fill="#000000" font-family="sans-serif" font-size="13" font-weight="bold" lengthAdjust="spacing" textLength="36" x="626" y="328.7607">16.5.3</text><text fill="#000000" font-family="sans-serif" font-size="13" lengthAdjust="spacing" textLength="138" x="666" y="328.7607">addToList(orderAmount)</text><polygon fill="#181818" points="232,378.0391,222,382.0391,232,386.0391,228,382.0391" style="stroke:#181818;stroke-width:1.0;"/><line style="stroke:#181818;stroke-width:1.0;stroke-dasharray:2.0,2.0;" x1="226" x2="613" y1="382.0391" y2="382.0391"/><text fill="#000000" font-family="sans-serif" font-size="13" font-weight="bold" lengthAdjust="spacing" textLength="18" x="238" y="377.2842">1.6</text><text fill="#000000" font-family="sans-serif" font-size="13" lengthAdjust="spacing" textLength="61" x="260" y="377.2842">ValuesList</text><polygon fill="#181818" points="11,406.5625,1,410.5625,11,414.5625,7,410.5625" style="stroke:#181818;stroke-width:1.0;"/><line style="stroke:#181818;stroke-width:1.0;stroke-dasharray:2.0,2.0;" x1="5" x2="215" y1="410.5625" y2="410.5625"/><text fill="#000000" font-family="sans-serif" font-size="13" font-weight="bold" lengthAdjust="spacing" textLength="14" x="17" y="405.8076">17</text><text fill="#000000" font-family="sans-serif" font-size="13" lengthAdjust="spacing" textLength="61" x="35" y="405.8076">ValuesList</text><!--SRC=[XL9DYzim4BthLuYzD7jmmXwwXL0AOKkW4CZY3JtjPIhFsc9boPNablpxZiQn8oTPweDiI_C-veq-DJ5sORrQTGPix5kpLAvT1VpTerLOL1fg3wqGuLtR3kXJjiuwrNZNeeo-n-oa0_KEDRx4eq7fKKMmjSaBGWEL-wjjBT_011I2jgDMkYDfURVUM337WD-H3f-SZTuPW_vEGf1FXt9tKLrYvuAEpciCN3Dj75zq4exEpY4vujLU4pplDeSvekkzQY3WtbVep_phL_jy-uHvzkMSPLOxL6otGa1F3lls5thvy2X4yOsxNCiQuqymFMufOyvYKQLrfqEy5w2Y_WCHXqHc5Ci78TEJJYIntSX3CliF6sWq2XVt39WeRmKuKD9pYwsOFFiiIuQGvV_IZaPJxeEp3rAzDCg3cfmn_EI4Q3xWk7HrvXXjxCl116VE4yY3dncW2VF_BFxFD03UDivryirvIMfDqZHIMtudAYuXhHGUtOD1ayrkMjVRU6es4wFBmXWgBaQVxWoux6oiFo-ZMW92LHrSyh78A0P9jDLLMyl7dE4KCOSJfcPoxL9SKNpXdQz5CS3d-0pBDrhy0m00]--></g></svg>