<?xml version="1.0" encoding="us-ascii" standalone="no"?><svg xmlns="http://www.w3.org/2000/svg" xmlns:xlink="http://www.w3.org/1999/xlink" contentStyleType="text/css" height="1342.8px" preserveAspectRatio="none" style="width:1400px;height:1342px;background:#FFFFFF;" version="1.1" viewBox="0 0 1400 1342" width="1400.4px" zoomAndPan="magnify"><defs/><g><!--class Property--><g id="elem_Property"><rect codeLine="11" fill="#F1F1F1" height="133.5129" id="Property" rx="2.25" ry="2.25" style="stroke:#181818;stroke-width:0.45;" width="112.5" x="1109.25" y="894.6"/><text fill="#000000" font-family="sans-serif" font-size="12.6" lengthAdjust="spacing" textLength="48.6" x="1141.2" y="912.6967">Property</text><line style="stroke:#181818;stroke-width:0.45;" x1="1110.15" x2="1220.85" y1="920.359" y2="920.359"/><text fill="#000000" font-family="sans-serif" font-size="12.6" lengthAdjust="spacing" textLength="27.9" x="1114.65" y="937.5557">price</text><text fill="#000000" font-family="sans-serif" font-size="12.6" lengthAdjust="spacing" textLength="26.1" x="1114.65" y="954.3146">area</text><text fill="#000000" font-family="sans-serif" font-size="12.6" lengthAdjust="spacing" textLength="101.7" x="1114.65" y="971.0736">distanceToCentre</text><text fill="#000000" font-family="sans-serif" font-size="12.6" lengthAdjust="spacing" textLength="72" x="1114.65" y="987.8326">photographs</text><text fill="#000000" font-family="sans-serif" font-size="12.6" lengthAdjust="spacing" textLength="25.2" x="1114.65" y="1004.5916">date</text><text fill="#000000" font-family="sans-serif" font-size="12.6" lengthAdjust="spacing" textLength="29.7" x="1114.65" y="1021.3506">client</text></g><!--class PropertyType--><g id="elem_PropertyType"><rect codeLine="22" fill="#F1F1F1" height="49.718" id="PropertyType" rx="2.25" ry="2.25" style="stroke:#181818;stroke-width:0.45;" width="82.8" x="1135.8" y="774"/><text fill="#000000" font-family="sans-serif" font-size="12.6" lengthAdjust="spacing" textLength="77.4" x="1138.5" y="792.0967">PropertyType</text><line style="stroke:#181818;stroke-width:0.45;" x1="1136.7" x2="1217.7" y1="799.759" y2="799.759"/><text fill="#000000" font-family="sans-serif" font-size="12.6" lengthAdjust="spacing" textLength="62.1" x="1141.2" y="816.9557">description</text></g><!--class Employee--><g id="elem_Employee"><rect codeLine="106" fill="#F1F1F1" height="32.959" id="Employee" rx="2.25" ry="2.25" style="stroke:#181818;stroke-width:0.45;" width="61.2" x="366.3" y="349.2"/><text fill="#000000" font-family="sans-serif" font-size="12.6" lengthAdjust="spacing" textLength="55.8" x="369" y="367.2967">Employee</text><line style="stroke:#181818;stroke-width:0.45;" x1="367.2" x2="426.6" y1="374.959" y2="374.959"/></g><!--class Store--><g id="elem_Store"><rect codeLine="29" fill="#F1F1F1" height="99.9949" id="Store" rx="2.25" ry="2.25" style="stroke:#181818;stroke-width:0.45;" width="90.9" x="310.05" y="1098.9"/><text fill="#000000" font-family="sans-serif" font-size="12.6" lengthAdjust="spacing" textLength="30.6" x="340.2" y="1116.9967">Store</text><line style="stroke:#181818;stroke-width:0.45;" x1="310.95" x2="400.05" y1="1124.659" y2="1124.659"/><text fill="#000000" font-family="sans-serif" font-size="12.6" lengthAdjust="spacing" textLength="9.9" x="315.45" y="1141.8557">id</text><text fill="#000000" font-family="sans-serif" font-size="12.6" lengthAdjust="spacing" textLength="65.7" x="315.45" y="1158.6146">designation</text><text fill="#000000" font-family="sans-serif" font-size="12.6" lengthAdjust="spacing" textLength="29.7" x="315.45" y="1175.3736">email</text><text fill="#000000" font-family="sans-serif" font-size="12.6" lengthAdjust="spacing" textLength="80.1" x="315.45" y="1192.1326">phoneNumber</text></g><!--class Client--><g id="elem_Client"><rect codeLine="110" fill="#F1F1F1" height="32.959" id="Client" rx="2.25" ry="2.25" style="stroke:#181818;stroke-width:0.45;" width="37.8" x="969.3" y="349.2"/><text fill="#000000" font-family="sans-serif" font-size="12.6" lengthAdjust="spacing" textLength="32.4" x="972" y="367.2967">Client</text><line style="stroke:#181818;stroke-width:0.45;" x1="970.2" x2="1006.2" y1="374.959" y2="374.959"/></g><!--class Inhabitable--><g id="elem_Inhabitable"><rect codeLine="40" fill="#F1F1F1" height="99.9949" id="Inhabitable" rx="2.25" ry="2.25" style="stroke:#181818;stroke-width:0.45;" width="108.9" x="1200.15" y="1098.9"/><text fill="#000000" font-family="sans-serif" font-size="12.6" lengthAdjust="spacing" textLength="62.1" x="1223.55" y="1116.9967">Inhabitable</text><line style="stroke:#181818;stroke-width:0.45;" x1="1201.05" x2="1308.15" y1="1124.659" y2="1124.659"/><text fill="#000000" font-family="sans-serif" font-size="12.6" lengthAdjust="spacing" textLength="94.5" x="1205.55" y="1141.8557">bedroomNumber</text><text fill="#000000" font-family="sans-serif" font-size="12.6" lengthAdjust="spacing" textLength="98.1" x="1205.55" y="1158.6146">bathroomNumber</text><text fill="#000000" font-family="sans-serif" font-size="12.6" lengthAdjust="spacing" textLength="84.6" x="1205.55" y="1175.3736">parkingSpaces</text><text fill="#000000" font-family="sans-serif" font-size="12.6" lengthAdjust="spacing" textLength="79.2" x="1205.55" y="1192.1326">equipmentList</text></g><!--class Role--><g id="elem_Role"><rect codeLine="50" fill="#F1F1F1" height="66.477" id="Role" rx="2.25" ry="2.25" style="stroke:#181818;stroke-width:0.45;" width="72.9" x="402.75" y="612"/><text fill="#000000" font-family="sans-serif" font-size="12.6" lengthAdjust="spacing" textLength="26.1" x="426.15" y="630.0967">Role</text><line style="stroke:#181818;stroke-width:0.45;" x1="403.65" x2="474.75" y1="637.759" y2="637.759"/><text fill="#000000" font-family="sans-serif" font-size="12.6" lengthAdjust="spacing" textLength="9.9" x="408.15" y="654.9557">id</text><text fill="#000000" font-family="sans-serif" font-size="12.6" lengthAdjust="spacing" textLength="62.1" x="408.15" y="671.7146">description</text></g><!--class Address--><g id="elem_Address"><rect codeLine="55" fill="#F1F1F1" height="99.9949" id="Address" rx="2.25" ry="2.25" style="stroke:#181818;stroke-width:0.45;" width="90" x="570.6" y="194.4"/><text fill="#000000" font-family="sans-serif" font-size="12.6" lengthAdjust="spacing" textLength="46.8" x="592.2" y="212.4967">Address</text><line style="stroke:#181818;stroke-width:0.45;" x1="571.5" x2="659.7" y1="220.159" y2="220.159"/><text fill="#000000" font-family="sans-serif" font-size="12.6" lengthAdjust="spacing" textLength="79.2" x="576" y="237.3557">streetAddress</text><text fill="#000000" font-family="sans-serif" font-size="12.6" lengthAdjust="spacing" textLength="18.9" x="576" y="254.1146">city</text><text fill="#000000" font-family="sans-serif" font-size="12.6" lengthAdjust="spacing" textLength="27.9" x="576" y="270.8736">state</text><text fill="#000000" font-family="sans-serif" font-size="12.6" lengthAdjust="spacing" textLength="45.9" x="576" y="287.6326">zipCode</text></g><!--class House--><g id="elem_House"><rect codeLine="63" fill="#F1F1F1" height="83.2359" id="House" rx="2.25" ry="2.25" style="stroke:#181818;stroke-width:0.45;" width="88.2" x="1210.5" y="1253.7"/><text fill="#000000" font-family="sans-serif" font-size="12.6" lengthAdjust="spacing" textLength="36" x="1236.6" y="1271.7967">House</text><line style="stroke:#181818;stroke-width:0.45;" x1="1211.4" x2="1297.8" y1="1279.459" y2="1279.459"/><text fill="#000000" font-family="sans-serif" font-size="12.6" lengthAdjust="spacing" textLength="77.4" x="1215.9" y="1296.6557">hasBasement</text><text fill="#000000" font-family="sans-serif" font-size="12.6" lengthAdjust="spacing" textLength="42.3" x="1215.9" y="1313.4146">hasLoft</text><text fill="#000000" font-family="sans-serif" font-size="12.6" lengthAdjust="spacing" textLength="73.8" x="1215.9" y="1330.1736">sunExposure</text></g><!--class Administrator--><g id="elem_Administrator"><rect codeLine="70" fill="#F1F1F1" height="32.959" id="Administrator" rx="2.25" ry="2.25" style="stroke:#181818;stroke-width:0.45;" width="80.1" x="170.55" y="782.1"/><text fill="#000000" font-family="sans-serif" font-size="12.6" lengthAdjust="spacing" textLength="74.7" x="173.25" y="800.1967">Administrator</text><line style="stroke:#181818;stroke-width:0.45;" x1="171.45" x2="249.75" y1="807.859" y2="807.859"/></g><!--class Network--><g id="elem_Network"><rect codeLine="76" fill="#F1F1F1" height="32.959" id="Network" rx="2.25" ry="2.25" style="stroke:#181818;stroke-width:0.45;" width="50.4" x="115.2" y="1132.2"/><text fill="#000000" font-family="sans-serif" font-size="12.6" lengthAdjust="spacing" textLength="45" x="117.9" y="1150.2967">Network</text><line style="stroke:#181818;stroke-width:0.45;" x1="116.1" x2="164.7" y1="1157.959" y2="1157.959"/></g><!--class StoreManager--><g id="elem_StoreManager"><rect codeLine="79" fill="#F1F1F1" height="32.959" id="StoreManager" rx="2.25" ry="2.25" style="stroke:#181818;stroke-width:0.45;" width="86.4" x="493.2" y="1132.2"/><text fill="#000000" font-family="sans-serif" font-size="12.6" lengthAdjust="spacing" textLength="81" x="495.9" y="1150.2967">StoreManager</text><line style="stroke:#181818;stroke-width:0.45;" x1="494.1" x2="578.7" y1="1157.959" y2="1157.959"/></g><!--class Agent--><g id="elem_Agent"><rect codeLine="85" fill="#F1F1F1" height="32.959" id="Agent" rx="2.25" ry="2.25" style="stroke:#181818;stroke-width:0.45;" width="38.7" x="617.85" y="782.1"/><text fill="#000000" font-family="sans-serif" font-size="12.6" lengthAdjust="spacing" textLength="33.3" x="620.55" y="800.1967">Agent</text><line style="stroke:#181818;stroke-width:0.45;" x1="618.75" x2="655.65" y1="807.859" y2="807.859"/></g><!--class AnnouncementRequest--><g id="elem_AnnouncementRequest"><rect codeLine="90" fill="#F1F1F1" height="83.2359" id="AnnouncementRequest" rx="2.25" ry="2.25" style="stroke:#181818;stroke-width:0.45;" width="138.6" x="738.9" y="603.9"/><text fill="#000000" font-family="sans-serif" font-size="12.6" lengthAdjust="spacing" textLength="133.2" x="741.6" y="621.9967">AnnouncementRequest</text><line style="stroke:#181818;stroke-width:0.45;" x1="739.8" x2="876.6" y1="629.659" y2="629.659"/><text fill="#000000" font-family="sans-serif" font-size="12.6" lengthAdjust="spacing" textLength="71.1" x="744.3" y="646.8557">rentDuration</text><text fill="#000000" font-family="sans-serif" font-size="12.6" lengthAdjust="spacing" textLength="25.2" x="744.3" y="663.6146">date</text><text fill="#000000" font-family="sans-serif" font-size="12.6" lengthAdjust="spacing" textLength="74.7" x="744.3" y="680.3736">wasAccepted</text></g><!--class BusinessType--><g id="elem_BusinessType"><rect codeLine="101" fill="#F1F1F1" height="49.718" id="BusinessType" rx="2.25" ry="2.25" style="stroke:#181818;stroke-width:0.45;" width="85.5" x="698.85" y="774"/><text fill="#000000" font-family="sans-serif" font-size="12.6" lengthAdjust="spacing" textLength="80.1" x="701.55" y="792.0967">BusinessType</text><line style="stroke:#181818;stroke-width:0.45;" x1="699.75" x2="783.45" y1="799.759" y2="799.759"/><text fill="#000000" font-family="sans-serif" font-size="12.6" lengthAdjust="spacing" textLength="62.1" x="704.25" y="816.9557">description</text></g><!--class Photograph--><g id="elem_Photograph"><rect codeLine="114" fill="#F1F1F1" height="49.718" id="Photograph" rx="2.25" ry="2.25" style="stroke:#181818;stroke-width:0.45;" width="72" x="1099.8" y="1270.35"/><text fill="#000000" font-family="sans-serif" font-size="12.6" lengthAdjust="spacing" textLength="66.6" x="1102.5" y="1288.4467">Photograph</text><line style="stroke:#181818;stroke-width:0.45;" x1="1100.7" x2="1170.9" y1="1296.109" y2="1296.109"/><text fill="#000000" font-family="sans-serif" font-size="12.6" lengthAdjust="spacing" textLength="19.8" x="1105.2" y="1313.3057">URI</text></g><!--class Person--><g id="elem_Person"><rect codeLine="118" fill="#F1F1F1" height="116.7539" id="Person" rx="2.25" ry="2.25" style="stroke:#181818;stroke-width:0.45;" width="104.4" x="470.7" y="6.3"/><text fill="#000000" font-family="sans-serif" font-size="12.6" lengthAdjust="spacing" textLength="40.5" x="502.65" y="24.3967">Person</text><line style="stroke:#181818;stroke-width:0.45;" x1="471.6" x2="574.2" y1="32.059" y2="32.059"/><text fill="#000000" font-family="sans-serif" font-size="12.6" lengthAdjust="spacing" textLength="29.7" x="476.1" y="49.2557">email</text><text fill="#000000" font-family="sans-serif" font-size="12.6" lengthAdjust="spacing" textLength="31.5" x="476.1" y="66.0146">name</text><text fill="#000000" font-family="sans-serif" font-size="12.6" lengthAdjust="spacing" textLength="93.6" x="476.1" y="82.7736">passportNumber</text><text fill="#000000" font-family="sans-serif" font-size="12.6" lengthAdjust="spacing" textLength="60.3" x="476.1" y="99.5326">taxNumber</text><text fill="#000000" font-family="sans-serif" font-size="12.6" lengthAdjust="spacing" textLength="80.1" x="476.1" y="116.2916">phoneNumber</text></g><!--class Commission--><g id="elem_Commission"><rect codeLine="126" fill="#F1F1F1" height="66.477" id="Commission" rx="2.25" ry="2.25" style="stroke:#181818;stroke-width:0.45;" width="103.5" x="671.85" y="1115.55"/><text fill="#000000" font-family="sans-serif" font-size="12.6" lengthAdjust="spacing" textLength="68.4" x="689.4" y="1133.6467">Commission</text><line style="stroke:#181818;stroke-width:0.45;" x1="672.75" x2="774.45" y1="1141.309" y2="1141.309"/><text fill="#000000" font-family="sans-serif" font-size="12.6" lengthAdjust="spacing" textLength="30.6" x="677.25" y="1158.5057">value</text><text fill="#000000" font-family="sans-serif" font-size="12.6" lengthAdjust="spacing" textLength="92.7" x="677.25" y="1175.2646">typeCommission</text></g><!--class VisitRequest--><g id="elem_VisitRequest"><rect codeLine="132" fill="#F1F1F1" height="167.0309" id="VisitRequest" rx="2.25" ry="2.25" style="stroke:#181818;stroke-width:0.45;" width="121.5" x="1156.05" y="409.5"/><text fill="#000000" font-family="sans-serif" font-size="12.6" lengthAdjust="spacing" textLength="71.1" x="1181.25" y="427.5967">VisitRequest</text><line style="stroke:#181818;stroke-width:0.45;" x1="1156.95" x2="1276.65" y1="435.259" y2="435.259"/><text fill="#000000" font-family="sans-serif" font-size="12.6" lengthAdjust="spacing" textLength="47.7" x="1161.45" y="452.4557">property</text><text fill="#000000" font-family="sans-serif" font-size="12.6" lengthAdjust="spacing" textLength="80.1" x="1161.45" y="469.2146">preferredDate</text><text fill="#000000" font-family="sans-serif" font-size="12.6" lengthAdjust="spacing" textLength="45" x="1161.45" y="485.9736">timeSlot</text><text fill="#000000" font-family="sans-serif" font-size="12.6" lengthAdjust="spacing" textLength="62.1" x="1161.45" y="502.7326">clientName</text><text fill="#000000" font-family="sans-serif" font-size="12.6" lengthAdjust="spacing" textLength="110.7" x="1161.45" y="519.4916">clientPhoneNumber</text><text fill="#000000" font-family="sans-serif" font-size="12.6" lengthAdjust="spacing" textLength="62.1" x="1161.45" y="536.2506">clientReply</text><text fill="#000000" font-family="sans-serif" font-size="12.6" lengthAdjust="spacing" textLength="32.4" x="1161.45" y="553.0096">agent</text><text fill="#000000" font-family="sans-serif" font-size="12.6" lengthAdjust="spacing" textLength="74.7" x="1161.45" y="569.7686">wasAccepted</text></g><!--class PurchaseOrder--><g id="elem_PurchaseOrder"><rect codeLine="143" fill="#F1F1F1" height="83.2359" id="PurchaseOrder" rx="2.25" ry="2.25" style="stroke:#181818;stroke-width:0.45;" width="92.7" x="904.05" y="1107.45"/><text fill="#000000" font-family="sans-serif" font-size="12.6" lengthAdjust="spacing" textLength="87.3" x="906.75" y="1125.5467">PurchaseOrder</text><line style="stroke:#181818;stroke-width:0.45;" x1="904.95" x2="995.85" y1="1133.209" y2="1133.209"/><text fill="#000000" font-family="sans-serif" font-size="12.6" lengthAdjust="spacing" textLength="42.3" x="909.45" y="1150.4057">amount</text><text fill="#000000" font-family="sans-serif" font-size="12.6" lengthAdjust="spacing" textLength="74.7" x="909.45" y="1167.1646">wasAccepted</text><text fill="#000000" font-family="sans-serif" font-size="12.6" lengthAdjust="spacing" textLength="72.9" x="909.45" y="1183.9236">creationDate</text></g><!--class Announcement--><g id="elem_Announcement"><rect codeLine="149" fill="#F1F1F1" height="99.9949" id="Announcement" rx="2.25" ry="2.25" style="stroke:#181818;stroke-width:0.45;" width="90.9" x="701.55" y="911.25"/><text fill="#000000" font-family="sans-serif" font-size="12.6" lengthAdjust="spacing" textLength="85.5" x="704.25" y="929.3467">Announcement</text><line style="stroke:#181818;stroke-width:0.45;" x1="702.45" x2="791.55" y1="937.009" y2="937.009"/><text fill="#000000" font-family="sans-serif" font-size="12.6" lengthAdjust="spacing" textLength="58.5" x="706.95" y="954.2057">listedPrice</text><text fill="#000000" font-family="sans-serif" font-size="12.6" lengthAdjust="spacing" textLength="71.1" x="706.95" y="970.9646">rentDuration</text><text fill="#000000" font-family="sans-serif" font-size="12.6" lengthAdjust="spacing" textLength="32.4" x="706.95" y="987.7236">agent</text><text fill="#000000" font-family="sans-serif" font-size="12.6" lengthAdjust="spacing" textLength="25.2" x="706.95" y="1004.4826">date</text></g><!--class StoreNetworkManager--><g id="elem_StoreNetworkManager"><rect fill="#F1F1F1" height="32.959" id="StoreNetworkManager" rx="2.25" ry="2.25" style="stroke:#181818;stroke-width:0.45;" width="131.4" x="6.3" y="713.7"/><text fill="#000000" font-family="sans-serif" font-size="12.6" lengthAdjust="spacing" textLength="126" x="9" y="731.7967">StoreNetworkManager</text><line style="stroke:#181818;stroke-width:0.45;" x1="7.2" x2="136.8" y1="739.459" y2="739.459"/></g><!--reverse link Property to Inhabitable--><g id="link_Property_Inhabitable"><path codeLine="158" d="M1204.911,1044.306 C1213.794,1062.837 1222.956,1081.944 1230.957,1098.63 " fill="none" id="Property-backto-Inhabitable" style="stroke:#181818;stroke-width:0.9;"/><polygon fill="none" points="1199.142,1046.844,1197.036,1027.881,1210.5,1041.39,1199.142,1046.844" style="stroke:#181818;stroke-width:0.9;"/><text fill="#000000" font-family="sans-serif" font-size="11.7" lengthAdjust="spacing" textLength="28.8" x="1218.6" y="1068.3255">has a</text><text fill="#000000" font-family="sans-serif" font-size="11.7" lengthAdjust="spacing" textLength="6.3" x="1193.6633" y="1048.1692">1</text><text fill="#000000" font-family="sans-serif" font-size="11.7" lengthAdjust="spacing" textLength="6.3" x="1221.3916" y="1088.9128">1</text></g><!--link PropertyType to Property--><g id="link_PropertyType_Property"><path codeLine="159" d="M1168.929,823.671 C1166.436,832.05 1164.033,841.59 1162.8,850.5 C1160.829,864.666 1160.253,879.957 1160.406,894.492 " fill="none" id="PropertyType-Property" style="stroke:#181818;stroke-width:0.9;"/><polygon fill="#000000" points="1167.8377,854.7132,1164.2389,862.4794,1169.4911,863.1115,1167.8377,854.7132" style="stroke:#000000;stroke-width:0.9;"/><text fill="#000000" font-family="sans-serif" font-size="11.7" lengthAdjust="spacing" textLength="66.6" x="1175.4" y="864.0255">cataloged as</text><text fill="#000000" font-family="sans-serif" font-size="11.7" lengthAdjust="spacing" textLength="6.3" x="1160.1307" y="843.4262">1</text><text fill="#000000" font-family="sans-serif" font-size="11.7" lengthAdjust="spacing" textLength="6.3" x="1153.2945" y="884.4954">1</text></g><!--link BusinessType to Announcement--><g id="link_BusinessType_Announcement"><path codeLine="160" d="M742.41,823.698 C743.184,846.72 744.372,882.135 745.344,911.133 " fill="none" id="BusinessType-Announcement" style="stroke:#181818;stroke-width:0.9;"/><polygon fill="#000000" points="748.6491,854.6835,746.2786,862.9082,751.5656,862.7308,748.6491,854.6835" style="stroke:#000000;stroke-width:0.9;"/><text fill="#000000" font-family="sans-serif" font-size="11.7" lengthAdjust="spacing" textLength="66.6" x="756.9" y="864.0255">cataloged as</text><text fill="#000000" font-family="sans-serif" font-size="11.7" lengthAdjust="spacing" textLength="6.3" x="735.5981" y="843.4591">1</text><text fill="#000000" font-family="sans-serif" font-size="11.7" lengthAdjust="spacing" textLength="4.5" x="740.3435" y="901.0742">*</text></g><!--link Announcement to Property--><g id="link_Announcement_Property"><path codeLine="161" d="M792.585,961.2 C869.589,961.2 1025.217,961.2 1109.016,961.2 " fill="none" id="Announcement-Property" style="stroke:#181818;stroke-width:0.9;"/><polygon fill="#000000" points="913.95,950.081,922.0906,952.726,922.0906,947.4359,913.95,950.081" style="stroke:#000000;stroke-width:0.9;"/><text fill="#000000" font-family="sans-serif" font-size="11.7" lengthAdjust="spacing" textLength="60.3" x="926.55" y="954.9255">listed under</text><text fill="#000000" font-family="sans-serif" font-size="11.7" lengthAdjust="spacing" textLength="6.3" x="799.743" y="957.4142">1</text><text fill="#000000" font-family="sans-serif" font-size="11.7" lengthAdjust="spacing" textLength="6.3" x="1095.8208" y="957.638">1</text></g><!--link Announcement to PurchaseOrder--><g id="link_Announcement_PurchaseOrder"><path codeLine="162" d="M792.567,990.135 C818.559,1007.208 850.959,1030.383 876.6,1054.8 C893.187,1070.595 909.261,1090.197 922.158,1107.351 " fill="none" id="Announcement-PurchaseOrder" style="stroke:#181818;stroke-width:0.9;"/><polygon fill="#000000" points="893.9627,1060.4623,898.2256,1067.8847,901.7743,1063.9615,893.9627,1060.4623" style="stroke:#000000;stroke-width:0.9;"/><text fill="#000000" font-family="sans-serif" font-size="11.7" lengthAdjust="spacing" textLength="42.3" x="905.4" y="1068.3255">refers to</text><text fill="#000000" font-family="sans-serif" font-size="11.7" lengthAdjust="spacing" textLength="6.3" x="799.7223" y="990.599">1</text><text fill="#000000" font-family="sans-serif" font-size="11.7" lengthAdjust="spacing" textLength="4.5" x="913.1795" y="1097.4449">*</text></g><!--link Announcement to Commission--><g id="link_Announcement_Commission"><path codeLine="163" d="M730.431,1011.357 C726.498,1025.244 722.88,1040.472 720.9,1054.8 C719.856,1062.333 720.765,1064.304 720.9,1071.9 C721.152,1086.165 721.674,1101.933 722.187,1115.388 " fill="none" id="Announcement-Commission" style="stroke:#181818;stroke-width:0.9;"/><polygon fill="#000000" points="725.0445,1067.9669,728.3244,1060.0607,723.0508,1059.6428,725.0445,1067.9669" style="stroke:#000000;stroke-width:0.9;"/><text fill="#000000" font-family="sans-serif" font-size="11.7" lengthAdjust="spacing" textLength="28.8" x="733.5" y="1068.3255">has a</text><text fill="#000000" font-family="sans-serif" font-size="11.7" lengthAdjust="spacing" textLength="6.3" x="721.7277" y="1031.0379">1</text><text fill="#000000" font-family="sans-serif" font-size="11.7" lengthAdjust="spacing" textLength="6.3" x="715.0742" y="1105.4247">1</text></g><!--link Employee to Role--><g id="link_Employee_Role"><path codeLine="164" d="M399.357,382.878 C406.125,427.32 425.151,552.204 434.241,611.874 " fill="none" id="Employee-Role" style="stroke:#181818;stroke-width:0.9;"/><polygon fill="#000000" points="433.5777,497.7796,434.9666,489.3336,429.7369,490.1302,433.5777,497.7796" style="stroke:#000000;stroke-width:0.9;"/><text fill="#000000" font-family="sans-serif" font-size="11.7" lengthAdjust="spacing" textLength="18.9" x="441" y="498.1755">has</text><text fill="#000000" font-family="sans-serif" font-size="11.7" lengthAdjust="spacing" textLength="6.3" x="400.7938" y="401.9045">1</text><text fill="#000000" font-family="sans-serif" font-size="11.7" lengthAdjust="spacing" textLength="18" x="413.7546" y="601.9171">1..*</text></g><!--link Property to Store--><g id="link_Property_Store"><path codeLine="165" d="M1109.061,970.983 C1035.099,983.79 902.268,1010.871 795.6,1054.8 C781.839,1060.47 780.957,1067.301 766.8,1071.9 C643.779,1111.896 602.703,1068.363 477,1098.9 C451.134,1105.182 423.54,1115.964 401.184,1125.828 " fill="none" id="Property-Store" style="stroke:#181818;stroke-width:0.9;"/><polygon fill="#000000" points="795.7039,1064.4426,804.2217,1065.2869,803.0913,1060.1191,795.7039,1064.4426" style="stroke:#000000;stroke-width:0.9;"/><text fill="#000000" font-family="sans-serif" font-size="11.7" lengthAdjust="spacing" textLength="60.3" x="808.2" y="1068.3255">listed under</text><text fill="#000000" font-family="sans-serif" font-size="11.7" lengthAdjust="spacing" textLength="4.5" x="1097.4083" y="985.73">*</text><text fill="#000000" font-family="sans-serif" font-size="11.7" lengthAdjust="spacing" textLength="6.3" x="408.0513" y="1118.852">1</text></g><!--reverse link Person to Employee--><g id="link_Person_Employee"><path codeLine="166" d="M491.571,140.103 C462.024,210.285 419.904,310.32 403.65,348.912 " fill="none" id="Person-backto-Employee" style="stroke:#181818;stroke-width:0.9;"/><polygon fill="none" points="485.811,137.547,498.609,123.399,497.43,142.434,485.811,137.547" style="stroke:#181818;stroke-width:0.9;"/></g><!--reverse link Employee to Administrator--><g id="link_Employee_Administrator"><path codeLine="167" d="M348.345,372.627 C303.768,379.089 242.361,391.086 226.8,409.5 C132.075,521.613 186.615,723.546 205.164,781.749 " fill="none" id="Employee-backto-Administrator" style="stroke:#181818;stroke-width:0.9;"/><polygon fill="none" points="347.553,366.372,366.237,370.188,349.245,378.855,347.553,366.372" style="stroke:#181818;stroke-width:0.9;"/></g><!--link Employee to Administrator--><g id="link_Employee_Administrator"><path codeLine="179" d="M365.976,380.952 C353.628,387.99 340.227,397.557 331.2,409.5 C238.788,531.684 216.387,725.769 211.707,782.064 " fill="none" id="Employee-Administrator" style="stroke:#181818;stroke-width:0.9;"/><text fill="#000000" font-family="sans-serif" font-size="11.7" lengthAdjust="spacing" textLength="54.9" x="243" y="650.2755">created by</text><text fill="#000000" font-family="sans-serif" font-size="11.7" lengthAdjust="spacing" textLength="6.3" x="352.6482" y="379.8766">1</text><text fill="#000000" font-family="sans-serif" font-size="11.7" lengthAdjust="spacing" textLength="6.3" x="204.7813" y="772.0289">1</text></g><!--link AnnouncementRequest to Agent--><g id="link_AnnouncementRequest_Agent"><path codeLine="168" d="M738.612,673.767 C718.425,684.117 697.482,697.419 681.3,713.7 C661.77,733.356 648.882,763.452 642.33,781.821 " fill="none" id="AnnouncementRequest-Agent" style="stroke:#181818;stroke-width:0.9;"/><polygon fill="#000000" points="682.8063,733.8407,690.1968,729.5225,686.2472,726.0032,682.8063,733.8407" style="stroke:#000000;stroke-width:0.9;"/><text fill="#000000" font-family="sans-serif" font-size="11.7" lengthAdjust="spacing" textLength="36" x="693.9" y="735.3255">sent to</text><text fill="#000000" font-family="sans-serif" font-size="11.7" lengthAdjust="spacing" textLength="6.3" x="725.3792" y="673.0683">1</text><text fill="#000000" font-family="sans-serif" font-size="11.7" lengthAdjust="spacing" textLength="6.3" x="636.6116" y="772.015">1</text></g><!--link Agent to Store--><g id="link_Agent_Store"><path codeLine="169" d="M632.646,815.454 C618.93,860.661 574.083,992.322 495.9,1071.9 C469.287,1098.99 430.947,1118.862 401.058,1131.489 " fill="none" id="Agent-Store" style="stroke:#181818;stroke-width:0.9;"/><polygon fill="#000000" points="606.6401,964.9607,613.5854,959.9578,609.3184,956.831,606.6401,964.9607" style="stroke:#000000;stroke-width:0.9;"/><text fill="#000000" font-family="sans-serif" font-size="11.7" lengthAdjust="spacing" textLength="32.4" x="617.4" y="966.1755">part of</text><text fill="#000000" font-family="sans-serif" font-size="11.7" lengthAdjust="spacing" textLength="4.5" x="626.2324" y="835.0138">*</text><text fill="#000000" font-family="sans-serif" font-size="11.7" lengthAdjust="spacing" textLength="19.8" x="408.1636" y="1125.6207">0..1</text></g><!--link Client to Property--><g id="link_Client_Property"><path codeLine="170" d="M998.055,382.536 C1002.654,390.411 1007.919,400.221 1011.6,409.5 C1081.782,586.233 1065.321,641.25 1119.6,823.5 C1126.539,846.792 1134.801,872.073 1142.406,894.492 " fill="none" id="Client-Property" style="stroke:#181818;stroke-width:0.9;"/><polygon fill="#000000" points="1104.6212,734.8121,1104.9578,726.2592,1099.8663,727.6948,1104.6212,734.8121" style="stroke:#000000;stroke-width:0.9;"/><text fill="#000000" font-family="sans-serif" font-size="11.7" lengthAdjust="spacing" textLength="38.7" x="1111.5" y="735.3255">creates</text><text fill="#000000" font-family="sans-serif" font-size="11.7" lengthAdjust="spacing" textLength="6.3" x="993.6408" y="402.0908">1</text><text fill="#000000" font-family="sans-serif" font-size="11.7" lengthAdjust="spacing" textLength="4.5" x="1135.4112" y="884.4954">*</text></g><!--reverse link Inhabitable to House--><g id="link_Inhabitable_House"><path codeLine="171" d="M1254.6,1217.439 C1254.6,1229.769 1254.6,1242.27 1254.6,1253.502 " fill="none" id="Inhabitable-backto-House" style="stroke:#181818;stroke-width:0.9;"/><polygon fill="none" points="1248.3,1217.061,1254.6,1199.061,1260.9,1217.061,1248.3,1217.061" style="stroke:#181818;stroke-width:0.9;"/><text fill="#000000" font-family="sans-serif" font-size="11.7" lengthAdjust="spacing" textLength="6.3" x="1247.9161" y="1218.7485">1</text><text fill="#000000" font-family="sans-serif" font-size="11.7" lengthAdjust="spacing" textLength="6.3" x="1247.8373" y="1243.5814">1</text></g><!--link Address to Property--><g id="link_Address_Property"><path codeLine="172" d="M660.708,247.851 C819.846,257.634 1345.5,295.209 1345.5,364.95 C1345.5,364.95 1345.5,364.95 1345.5,799.65 C1345.5,866.88 1274.751,912.951 1221.957,937.98 " fill="none" id="Address-Property" style="stroke:#181818;stroke-width:0.9;"/><polygon fill="#000000" points="1347.1608,641.9397,1350.2449,649.9243,1354.3491,646.5866,1347.1608,641.9397" style="stroke:#000000;stroke-width:0.9;"/><text fill="#000000" font-family="sans-serif" font-size="11.7" lengthAdjust="spacing" textLength="35.1" x="1358.1" y="650.2755">has an</text><text fill="#000000" font-family="sans-serif" font-size="11.7" lengthAdjust="spacing" textLength="6.3" x="667.7959" y="244.5794">1</text><text fill="#000000" font-family="sans-serif" font-size="11.7" lengthAdjust="spacing" textLength="6.3" x="1228.8491" y="931.7332">1</text></g><!--link Address to Store--><g id="link_Address_Store"><path codeLine="173" d="M603.243,294.327 C570.546,422.919 477.819,779.886 383.4,1071.9 C380.592,1080.594 377.406,1089.783 374.22,1098.648 " fill="none" id="Address-Store" style="stroke:#181818;stroke-width:0.9;"/><polygon fill="#000000" points="496.2323,726.153,491.4591,733.258,496.5469,734.7067,496.2323,726.153" style="stroke:#000000;stroke-width:0.9;"/><text fill="#000000" font-family="sans-serif" font-size="11.7" lengthAdjust="spacing" textLength="35.1" x="503.1" y="735.3255">has an</text><text fill="#000000" font-family="sans-serif" font-size="11.7" lengthAdjust="spacing" textLength="6.3" x="594.9562" y="314.3466">1</text><text fill="#000000" font-family="sans-serif" font-size="11.7" lengthAdjust="spacing" textLength="6.3" x="369.8176" y="1088.933">1</text></g><!--link Administrator to Network--><g id="link_Administrator_Network"><path codeLine="174" d="M200.799,815.418 C189.963,833.724 172.944,865.152 164.7,894.6 C140.283,981.828 139.392,1091.817 140.004,1132.173 " fill="none" id="Administrator-Network" style="stroke:#181818;stroke-width:0.9;"/><polygon fill="#000000" points="168.3518,965.7503,172.4838,958.2542,167.2886,957.2571,168.3518,965.7503" style="stroke:#000000;stroke-width:0.9;"/><text fill="#000000" font-family="sans-serif" font-size="11.7" lengthAdjust="spacing" textLength="38.7" x="177.3" y="966.1755">register</text><text fill="#000000" font-family="sans-serif" font-size="11.7" lengthAdjust="spacing" textLength="6.3" x="190.8565" y="834.9677">1</text><text fill="#000000" font-family="sans-serif" font-size="11.7" lengthAdjust="spacing" textLength="18" x="142.639" y="1122.1407">1..*</text></g><!--link Administrator to Store--><g id="link_Administrator_Store"><path codeLine="175" d="M213.912,815.67 C222.102,853.659 245.178,951.732 279.9,1027.8 C291.06,1052.235 306.414,1077.642 320.382,1098.774 " fill="none" id="Administrator-Store" style="stroke:#181818;stroke-width:0.9;"/><polygon fill="#000000" points="285.984,965.5429,285.5942,956.9923,280.6427,958.8545,285.984,965.5429" style="stroke:#000000;stroke-width:0.9;"/><text fill="#000000" font-family="sans-serif" font-size="11.7" lengthAdjust="spacing" textLength="38.7" x="292.5" y="966.1755">creates</text><text fill="#000000" font-family="sans-serif" font-size="11.7" lengthAdjust="spacing" textLength="6.3" x="207.6555" y="834.9797">1</text><text fill="#000000" font-family="sans-serif" font-size="11.7" lengthAdjust="spacing" textLength="4.5" x="311.0942" y="1088.714">*</text></g><!--link StoreNetworkManager to Network--><g id="link_StoreNetworkManager_Network"><path codeLine="176" d="M74.601,747.072 C85.437,813.087 126.963,1066.068 137.799,1132.11 " fill="none" id="StoreNetworkManager-Network" style="stroke:#181818;stroke-width:0.9;"/><polygon fill="#000000" points="99.7289,863.6215,101.0205,855.16,95.8002,856.0169,99.7289,863.6215" style="stroke:#000000;stroke-width:0.9;"/><text fill="#000000" font-family="sans-serif" font-size="11.7" lengthAdjust="spacing" textLength="47.7" x="107.1" y="864.0255">manages</text><text fill="#000000" font-family="sans-serif" font-size="11.7" lengthAdjust="spacing" textLength="6.3" x="68.1466" y="766.6369">1</text><text fill="#000000" font-family="sans-serif" font-size="11.7" lengthAdjust="spacing" textLength="6.3" x="129.7378" y="1122.0584">1</text></g><!--link Network to Store--><g id="link_Network_Store"><path codeLine="177" d="M165.915,1148.85 C201.312,1148.85 265.869,1148.85 309.717,1148.85 " fill="none" id="Network-Store" style="stroke:#181818;stroke-width:0.9;"/><polygon fill="#000000" points="230.625,1137.731,222.4844,1135.0859,222.4844,1140.376,230.625,1137.731" style="stroke:#000000;stroke-width:0.9;"/><text fill="#000000" font-family="sans-serif" font-size="11.7" lengthAdjust="spacing" textLength="18.9" x="234.225" y="1142.5755">has</text><text fill="#000000" font-family="sans-serif" font-size="11.7" lengthAdjust="spacing" textLength="6.3" x="172.9021" y="1144.3843">1</text><text fill="#000000" font-family="sans-serif" font-size="11.7" lengthAdjust="spacing" textLength="18" x="284.6979" y="1145.206">1..*</text></g><!--link Store to StoreManager--><g id="link_Store_StoreManager"><path codeLine="178" d="M401.148,1148.85 C429.3,1148.85 465.21,1148.85 492.948,1148.85 " fill="none" id="Store-StoreManager" style="stroke:#181818;stroke-width:0.9;"/><polygon fill="#000000" points="416.475,1137.731,424.6156,1140.376,424.6156,1135.0859,416.475,1137.731" style="stroke:#000000;stroke-width:0.9;"/><text fill="#000000" font-family="sans-serif" font-size="11.7" lengthAdjust="spacing" textLength="47.7" x="429.075" y="1142.5755">manages</text><text fill="#000000" font-family="sans-serif" font-size="11.7" lengthAdjust="spacing" textLength="6.3" x="408.0102" y="1145.1114">1</text><text fill="#000000" font-family="sans-serif" font-size="11.7" lengthAdjust="spacing" textLength="6.3" x="479.8033" y="1145.0962">1</text></g><!--link AnnouncementRequest to Announcement--><g id="link_AnnouncementRequest_Announcement"><path codeLine="180" d="M822.168,686.817 C835.506,732.339 850.509,807.624 828,867.6 C820.566,887.409 806.769,905.76 792.639,920.817 " fill="none" id="AnnouncementRequest-Announcement" style="stroke:#181818;stroke-width:0.9;"/><polygon fill="#000000" points="843.6366,803.3455,847.28,795.6002,842.0316,794.9379,843.6366,803.3455" style="stroke:#000000;stroke-width:0.9;"/><text fill="#000000" font-family="sans-serif" font-size="11.7" lengthAdjust="spacing" textLength="63.9" x="852.3" y="803.7255">can become</text><text fill="#000000" font-family="sans-serif" font-size="11.7" lengthAdjust="spacing" textLength="6.3" x="817.5245" y="706.9579">1</text><text fill="#000000" font-family="sans-serif" font-size="11.7" lengthAdjust="spacing" textLength="6.3" x="799.5" y="911.3996">1</text></g><!--link Employee to Store--><g id="link_Employee_Store"><path codeLine="181" d="M396.054,382.707 C391.149,475.29 366.273,944.631 358.101,1098.801 " fill="none" id="Employee-Store" style="stroke:#181818;stroke-width:0.9;"/><polygon fill="#000000" points="380.0382,794.3873,376.966,802.3764,382.2486,802.6564,380.0382,794.3873" style="stroke:#000000;stroke-width:0.9;"/><text fill="#000000" font-family="sans-serif" font-size="11.7" lengthAdjust="spacing" textLength="56.7" x="387.9" y="803.7255">works on a</text><text fill="#000000" font-family="sans-serif" font-size="11.7" lengthAdjust="spacing" textLength="4.5" x="390.722" y="401.9998">*</text><text fill="#000000" font-family="sans-serif" font-size="11.7" lengthAdjust="spacing" textLength="6.3" x="351.7307" y="1088.7445">1</text></g><!--link Person to Address--><g id="link_Person_Address"><path codeLine="182" d="M552.996,123.408 C564.948,146.322 578.547,172.395 590.004,194.373 " fill="none" id="Person-Address" style="stroke:#181818;stroke-width:0.9;"/><polygon fill="#000000" points="581.6808,162.971,580.2619,154.5299,575.5713,156.976,581.6808,162.971" style="stroke:#000000;stroke-width:0.9;"/><text fill="#000000" font-family="sans-serif" font-size="11.7" lengthAdjust="spacing" textLength="35.1" x="587.7" y="163.8255">has an</text><text fill="#000000" font-family="sans-serif" font-size="11.7" lengthAdjust="spacing" textLength="6.3" x="549.4748" y="142.8925">1</text><text fill="#000000" font-family="sans-serif" font-size="11.7" lengthAdjust="spacing" textLength="6.3" x="580.0209" y="184.3257">1</text></g><!--link AnnouncementRequest to BusinessType--><g id="link_AnnouncementRequest_BusinessType"><path codeLine="183" d="M760.995,687.069 C754.254,695.187 748.278,704.169 744.3,713.7 C736.371,732.726 736.353,756.315 737.946,773.676 " fill="none" id="AnnouncementRequest-BusinessType" style="stroke:#181818;stroke-width:0.9;"/><polygon fill="#000000" points="747.6427,734.8296,752.2924,727.6431,747.1802,726.2826,747.6427,734.8296" style="stroke:#000000;stroke-width:0.9;"/><text fill="#000000" font-family="sans-serif" font-size="11.7" lengthAdjust="spacing" textLength="66.6" x="756.9" y="735.3255">cataloged as</text><text fill="#000000" font-family="sans-serif" font-size="11.7" lengthAdjust="spacing" textLength="6.3" x="747.2991" y="706.9401">1</text><text fill="#000000" font-family="sans-serif" font-size="11.7" lengthAdjust="spacing" textLength="6.3" x="730.1576" y="763.8479">1</text></g><!--reverse link Employee to Agent--><g id="link_Employee_Agent"><path codeLine="184" d="M443.169,388.845 C452.205,394.65 461.025,401.553 468,409.5 C573.255,529.461 621.639,725.085 633.942,781.911 " fill="none" id="Employee-backto-Agent" style="stroke:#181818;stroke-width:0.9;"/><polygon fill="none" points="440.01,394.29,427.545,379.854,446.292,383.364,440.01,394.29" style="stroke:#181818;stroke-width:0.9;"/></g><!--reverse link Employee to StoreNetworkManager--><g id="link_Employee_StoreNetworkManager"><path codeLine="185" d="M348.282,368.856 C284.103,372.654 175.905,382.905 147.6,409.5 C58.383,493.335 65.601,661.302 70.281,713.565 " fill="none" id="Employee-backto-StoreNetworkManager" style="stroke:#181818;stroke-width:0.9;"/><polygon fill="none" points="347.958,362.565,366.264,367.893,348.633,375.147,347.958,362.565" style="stroke:#181818;stroke-width:0.9;"/></g><!--reverse link Employee to StoreManager--><g id="link_Employee_StoreManager"><path codeLine="186" d="M445.662,374.733 C483.03,381.96 530.109,393.867 541.8,409.5 C586.422,469.188 545.535,1029.555 537.66,1131.93 " fill="none" id="Employee-backto-StoreManager" style="stroke:#181818;stroke-width:0.9;"/><polygon fill="none" points="444.348,380.898,427.77,371.475,446.607,368.496,444.348,380.898" style="stroke:#181818;stroke-width:0.9;"/></g><!--link VisitRequest to Property--><g id="link_VisitRequest_Property"><path codeLine="187" d="M1231.587,577.188 C1246.797,670.716 1265.76,816.291 1246.5,867.6 C1240.983,882.306 1231.956,896.211 1221.885,908.559 " fill="none" id="VisitRequest-Property" style="stroke:#181818;stroke-width:0.9;"/><polygon fill="#000000" points="1256.2683,734.979,1259.1504,726.9193,1253.8626,726.7645,1256.2683,734.979" style="stroke:#000000;stroke-width:0.9;"/><text fill="#000000" font-family="sans-serif" font-size="11.7" lengthAdjust="spacing" textLength="42.3" x="1264.5" y="735.3255">refers to</text><text fill="#000000" font-family="sans-serif" font-size="11.7" lengthAdjust="spacing" textLength="6.3" x="1226.1052" y="596.279">1</text><text fill="#000000" font-family="sans-serif" font-size="11.7" lengthAdjust="spacing" textLength="6.3" x="1228.7687" y="898.9104">1</text></g><!--link Client to AnnouncementRequest--><g id="link_Client_AnnouncementRequest"><path codeLine="188" d="M969.192,373.518 C952.398,380.331 928.206,392.31 912.6,409.5 C861.003,466.326 831.609,552.834 817.875,603.477 " fill="none" id="Client-AnnouncementRequest" style="stroke:#181818;stroke-width:0.9;"/><polygon fill="#000000" points="914.6264,497.0901,921.3108,491.7437,916.8916,488.8358,914.6264,497.0901" style="stroke:#000000;stroke-width:0.9;"/><text fill="#000000" font-family="sans-serif" font-size="11.7" lengthAdjust="spacing" textLength="38.7" x="925.2" y="498.1755">creates</text><text fill="#000000" font-family="sans-serif" font-size="11.7" lengthAdjust="spacing" textLength="6.3" x="955.8291" y="370.9453">1</text><text fill="#000000" font-family="sans-serif" font-size="11.7" lengthAdjust="spacing" textLength="4.5" x="814.4191" y="593.8331">*</text></g><!--link Property to Photograph--><g id="link_Property_Photograph"><path codeLine="189" d="M1158.804,1027.836 C1156.563,1050.363 1154.106,1075.725 1152,1098.9 C1146.402,1160.568 1140.57,1233.261 1137.672,1270.134 " fill="none" id="Property-Photograph" style="stroke:#181818;stroke-width:0.9;"/><polygon fill="#000000" points="1156.109,1153.4639,1159.4513,1145.584,1154.1813,1145.1243,1156.109,1153.4639" style="stroke:#000000;stroke-width:0.9;"/><text fill="#000000" font-family="sans-serif" font-size="11.7" lengthAdjust="spacing" textLength="18.9" x="1164.6" y="1153.8255">has</text><text fill="#000000" font-family="sans-serif" font-size="11.7" lengthAdjust="spacing" textLength="6.3" x="1151.4886" y="1048.1196">1</text><text fill="#000000" font-family="sans-serif" font-size="11.7" lengthAdjust="spacing" textLength="26.1" x="1109.1268" y="1260.3295">1..30</text></g><!--link Client to VisitRequest--><g id="link_Client_VisitRequest"><path codeLine="190" d="M1007.397,371.277 C1032.372,377.64 1076.904,390.6 1111.5,409.5 C1126.701,417.807 1141.974,428.292 1155.987,438.984 " fill="none" id="Client-VisitRequest" style="stroke:#181818;stroke-width:0.9;"/><polygon fill="#000000" points="1041.4259,390.2659,1035.1149,384.4835,1032.9214,389.2973,1041.4259,390.2659" style="stroke:#000000;stroke-width:0.9;"/><text fill="#000000" font-family="sans-serif" font-size="11.7" lengthAdjust="spacing" textLength="38.7" x="1045.431" y="393.2445">creates</text><text fill="#000000" font-family="sans-serif" font-size="11.7" lengthAdjust="spacing" textLength="6.3" x="1014.2408" y="368.014">1</text><text fill="#000000" font-family="sans-serif" font-size="11.7" lengthAdjust="spacing" textLength="4.5" x="1144.1953" y="429.1927">*</text></g><!--reverse link Person to Client--><g id="link_Person_Client"><path codeLine="191" d="M512.199,141.444 C509.652,191.421 515.799,254.736 554.4,294.3 C613.215,354.582 893.16,363.429 969.138,364.725 " fill="none" id="Person-backto-Client" style="stroke:#181818;stroke-width:0.9;"/><polygon fill="none" points="505.926,140.859,513.513,123.363,518.49,141.777,505.926,140.859" style="stroke:#181818;stroke-width:0.9;"/></g><!--link Client to PurchaseOrder--><g id="link_Client_PurchaseOrder"><path codeLine="192" d="M988.2,382.716 C988.2,425.25 988.2,544.86 988.2,644.4 C988.2,644.4 988.2,644.4 988.2,962.1 C988.2,1012.806 974.52,1069.758 963.621,1107.099 " fill="none" id="Client-PurchaseOrder" style="stroke:#181818;stroke-width:0.9;"/><polygon fill="#000000" points="992.5474,803.3784,995.467,795.3322,990.1799,795.1528,992.5474,803.3784" style="stroke:#000000;stroke-width:0.9;"/><text fill="#000000" font-family="sans-serif" font-size="11.7" lengthAdjust="spacing" textLength="38.7" x="1000.8" y="803.7255">creates</text><text fill="#000000" font-family="sans-serif" font-size="11.7" lengthAdjust="spacing" textLength="6.3" x="981.0534" y="402.0112">1</text><text fill="#000000" font-family="sans-serif" font-size="11.7" lengthAdjust="spacing" textLength="4.5" x="960.6638" y="1097.4652">*</text></g><!--link Agent to Announcement--><g id="link_Agent_Announcement"><path codeLine="193" d="M648.126,815.643 C663.21,837.702 691.065,878.454 713.367,911.097 " fill="none" id="Agent-Announcement" style="stroke:#181818;stroke-width:0.9;"/><polygon fill="#000000" points="690.1392,862.8961,687.7294,854.6828,683.362,857.6679,690.1392,862.8961" style="stroke:#000000;stroke-width:0.9;"/><text fill="#000000" font-family="sans-serif" font-size="11.7" lengthAdjust="spacing" textLength="38.7" x="695.7" y="864.0255">creates</text><text fill="#000000" font-family="sans-serif" font-size="11.7" lengthAdjust="spacing" textLength="6.3" x="643.9158" y="834.9454">1</text><text fill="#000000" font-family="sans-serif" font-size="11.7" lengthAdjust="spacing" textLength="4.5" x="704.2695" y="901.0336">*</text></g><!--SRC=[XLR1Rjim3BthAuHS1XHeqM6te2ZGjGCsOEkAjjjTiHbRg2rvahmko_hleoZ9bX9twoKAHLAFZuzCxPDKWp2YvxrMkcgDxe4xCmApqyqWgYVHm8FRTS0DL4wefiiTR2jg_InLmxUYiy3OcmwsZZlDZMnQnslfewHMZBMo1bv9Ks42ElVWMbrRnbZL2MlvdT436BVZUyRnRp2o0Ze90u8EjRI8e897VGtAcN0xjDhfneYXjS59k71HTHAzs0ixUk5nDq1yfGPR6JaGn9Vezg4VEhq3s3CV76mFJfiK8-iKAXibADH_Xrx8Ba5IS3ls6p1pXck2m_EadrGhDjA9JPTIRw0sMlSnbYp2jGScf1uRq3nWTo3K33z6EVIO_ZCo52fcFBnnhxjZt5F9_6LolAfh0zO6LswHNd3H5aoLTBjqcJZcl-LmhMkWH2dJHprQUhCLzhsmu87HbyzwYmSxgW-_1cr74yFI-xrK2Dy8f3gmbAvkmJrhyyIAPdmH2gLfUEbwrSma9vDIUaJLU1Zto1HOjsS6lzoC9dIF9FCix5LLmU2WZXbJWlUZbGffyBBPir8nx5WpauuMEdutYNNFljr_oYx0MAtsB8X8YHxOWFP16nSxxyIlU5gMb-vxQQtqINwA3iVO8TpPce7uBgsScV2J5iQ2Zh05Ow2-2HrsieU7JcFNuZZTUcJforq69DdkOUXy9j5GrtbEwrpjQ2hK0tmrDNMGfhp7BZawvZ6aF5m0dcy2zRBKrvYZG_r0VJTjZgBBz4X45TS4DN3QEwktAtxnv_IK3lbihhrukM35_l1EqJVPrxmIJdIwWPfZm0NBbJC5dAmAw4T1HLqKL3o2Q4APV5IUlQM0y4h9yffJRwrVpg_4uCSic5WqlsH9sxFVsHcczvibEA5FGkVVZQbeIW_0eYC9FV2S4iylUFDfkGhOmlpcYCF4hxdr7rZR9GkMXEJyx6m6WwlJSRr5fpYSaT-JWb_I6rZqobLGo8Ds78lxCS8vFPB3HU1G7Jhc_6G-MTMP9v4TLo1riV6CUYuN8gYKy6ELrq6Mc2CjpbbQS_AUxdn4iYKlGf4IUyGnQPQcMCjphei50QtA7g_ZZADEDhl_DlnWU1J-QbR-dvTSgIT7FFjgB4Vf2KGKLLZWeGv5rIlFxZzXvADzCC8PZY0O4kIXSQ4bYoxfBj_QIykd6F2axrTsJaoJAsGQu4ntxyvNsIzMQllHv1J8YfpPh8Ue8dXXI-NHSOnVtPh9yIy0]--></g></svg>