<?xml version="1.0" encoding="us-ascii" standalone="no"?><svg xmlns="http://www.w3.org/2000/svg" xmlns:xlink="http://www.w3.org/1999/xlink" contentStyleType="text/css" height="867px" preserveAspectRatio="none" style="width:1342px;height:867px;background:#FFFFFF;" version="1.1" viewBox="0 0 1342 867" width="1342px" zoomAndPan="magnify"><defs/><g><!--class Employee--><g id="elem_Employee"><rect codeLine="18" fill="#F1F1F1" height="129.7266" id="Employee" rx="2.5" ry="2.5" style="stroke:#181818;stroke-width:0.5;" width="116" x="901" y="387"/><text fill="#000000" font-family="sans-serif" font-size="14" lengthAdjust="spacing" textLength="62" x="928" y="407.1074">Employee</text><line style="stroke:#181818;stroke-width:0.5;" x1="902" x2="1016" y1="415.6211" y2="415.6211"/><text fill="#000000" font-family="sans-serif" font-size="14" lengthAdjust="spacing" textLength="33" x="907" y="434.7285">email</text><text fill="#000000" font-family="sans-serif" font-size="14" lengthAdjust="spacing" textLength="35" x="907" y="453.3496">name</text><text fill="#000000" font-family="sans-serif" font-size="14" lengthAdjust="spacing" textLength="104" x="907" y="471.9707">passportNumber</text><text fill="#000000" font-family="sans-serif" font-size="14" lengthAdjust="spacing" textLength="67" x="907" y="490.5918">taxNumber</text><text fill="#000000" font-family="sans-serif" font-size="14" lengthAdjust="spacing" textLength="89" x="907" y="509.2129">phoneNumber</text></g><!--class Property--><g id="elem_Property"><rect codeLine="26" fill="#F1F1F1" height="129.7266" id="Property" rx="2.5" ry="2.5" style="stroke:#181818;stroke-width:0.5;" width="125" x="268.5" y="387"/><text fill="#000000" font-family="sans-serif" font-size="14" lengthAdjust="spacing" textLength="54" x="304" y="407.1074">Property</text><line style="stroke:#181818;stroke-width:0.5;" x1="269.5" x2="392.5" y1="415.6211" y2="415.6211"/><text fill="#000000" font-family="sans-serif" font-size="14" lengthAdjust="spacing" textLength="31" x="274.5" y="434.7285">price</text><text fill="#000000" font-family="sans-serif" font-size="14" lengthAdjust="spacing" textLength="29" x="274.5" y="453.3496">area</text><text fill="#000000" font-family="sans-serif" font-size="14" lengthAdjust="spacing" textLength="113" x="274.5" y="471.9707">distanceToCentre</text><text fill="#000000" font-family="sans-serif" font-size="14" lengthAdjust="spacing" textLength="80" x="274.5" y="490.5918">photographs</text><text fill="#000000" font-family="sans-serif" font-size="14" lengthAdjust="spacing" textLength="28" x="274.5" y="509.2129">date</text></g><!--class PurchaseOrder--><g id="elem_PurchaseOrder"><rect codeLine="34" fill="#F1F1F1" height="92.4844" id="PurchaseOrder" rx="2.5" ry="2.5" style="stroke:#181818;stroke-width:0.5;" width="103" x="592.5" y="7"/><text fill="#000000" font-family="sans-serif" font-size="14" lengthAdjust="spacing" textLength="97" x="595.5" y="27.1074">PurchaseOrder</text><line style="stroke:#181818;stroke-width:0.5;" x1="593.5" x2="694.5" y1="35.6211" y2="35.6211"/><text fill="#000000" font-family="sans-serif" font-size="14" lengthAdjust="spacing" textLength="82" x="598.5" y="54.7285">orderAmount</text><text fill="#000000" font-family="sans-serif" font-size="14" lengthAdjust="spacing" textLength="83" x="598.5" y="73.3496">wasAccepted</text><text fill="#000000" font-family="sans-serif" font-size="14" lengthAdjust="spacing" textLength="81" x="598.5" y="91.9707">creationDate</text></g><!--class Role--><g id="elem_Role"><rect codeLine="41" fill="#F1F1F1" height="73.8633" id="Role" rx="2.5" ry="2.5" style="stroke:#181818;stroke-width:0.5;" width="81" x="1069.5" y="614.5"/><text fill="#000000" font-family="sans-serif" font-size="14" lengthAdjust="spacing" textLength="29" x="1095.5" y="634.6074">Role</text><line style="stroke:#181818;stroke-width:0.5;" x1="1070.5" x2="1149.5" y1="643.1211" y2="643.1211"/><text fill="#000000" font-family="sans-serif" font-size="14" lengthAdjust="spacing" textLength="11" x="1075.5" y="662.2285">id</text><text fill="#000000" font-family="sans-serif" font-size="14" lengthAdjust="spacing" textLength="69" x="1075.5" y="680.8496">description</text></g><!--class Address--><g id="elem_Address"><rect codeLine="46" fill="#F1F1F1" height="111.1055" id="Address" rx="2.5" ry="2.5" style="stroke:#181818;stroke-width:0.5;" width="100" x="597" y="396.5"/><text fill="#000000" font-family="sans-serif" font-size="14" lengthAdjust="spacing" textLength="52" x="621" y="416.6074">Address</text><line style="stroke:#181818;stroke-width:0.5;" x1="598" x2="696" y1="425.1211" y2="425.1211"/><text fill="#000000" font-family="sans-serif" font-size="14" lengthAdjust="spacing" textLength="88" x="603" y="444.2285">streetAddress</text><text fill="#000000" font-family="sans-serif" font-size="14" lengthAdjust="spacing" textLength="21" x="603" y="462.8496">city</text><text fill="#000000" font-family="sans-serif" font-size="14" lengthAdjust="spacing" textLength="31" x="603" y="481.4707">state</text><text fill="#000000" font-family="sans-serif" font-size="14" lengthAdjust="spacing" textLength="51" x="603" y="500.0918">zipCode</text></g><!--class Store--><g id="elem_Store"><rect codeLine="53" fill="#F1F1F1" height="111.1055" id="Store" rx="2.5" ry="2.5" style="stroke:#181818;stroke-width:0.5;" width="101" x="648.5" y="596"/><text fill="#000000" font-family="sans-serif" font-size="14" lengthAdjust="spacing" textLength="34" x="682" y="616.1074">Store</text><line style="stroke:#181818;stroke-width:0.5;" x1="649.5" x2="748.5" y1="624.6211" y2="624.6211"/><text fill="#000000" font-family="sans-serif" font-size="14" lengthAdjust="spacing" textLength="11" x="654.5" y="643.7285">id</text><text fill="#000000" font-family="sans-serif" font-size="14" lengthAdjust="spacing" textLength="73" x="654.5" y="662.3496">designation</text><text fill="#000000" font-family="sans-serif" font-size="14" lengthAdjust="spacing" textLength="33" x="654.5" y="680.9707">email</text><text fill="#000000" font-family="sans-serif" font-size="14" lengthAdjust="spacing" textLength="89" x="654.5" y="699.5918">phoneNumber</text></g><!--class Client--><g id="elem_Client"><rect codeLine="63" fill="#F1F1F1" height="129.7266" id="Client" rx="2.5" ry="2.5" style="stroke:#181818;stroke-width:0.5;" width="116" x="280" y="178"/><text fill="#000000" font-family="sans-serif" font-size="14" lengthAdjust="spacing" textLength="36" x="320" y="198.1074">Client</text><line style="stroke:#181818;stroke-width:0.5;" x1="281" x2="395" y1="206.6211" y2="206.6211"/><text fill="#000000" font-family="sans-serif" font-size="14" lengthAdjust="spacing" textLength="33" x="286" y="225.7285">email</text><text fill="#000000" font-family="sans-serif" font-size="14" lengthAdjust="spacing" textLength="35" x="286" y="244.3496">name</text><text fill="#000000" font-family="sans-serif" font-size="14" lengthAdjust="spacing" textLength="104" x="286" y="262.9707">passportNumber</text><text fill="#000000" font-family="sans-serif" font-size="14" lengthAdjust="spacing" textLength="67" x="286" y="281.5918">taxNumber</text><text fill="#000000" font-family="sans-serif" font-size="14" lengthAdjust="spacing" textLength="89" x="286" y="300.2129">phoneNumber</text></g><!--class Announcement--><g id="elem_Announcement"><rect codeLine="71" fill="#F1F1F1" height="111.1055" id="Announcement" rx="2.5" ry="2.5" style="stroke:#181818;stroke-width:0.5;" width="101" x="900.5" y="187.5"/><text fill="#000000" font-family="sans-serif" font-size="14" lengthAdjust="spacing" textLength="95" x="903.5" y="207.6074">Announcement</text><line style="stroke:#181818;stroke-width:0.5;" x1="901.5" x2="1000.5" y1="216.1211" y2="216.1211"/><text fill="#000000" font-family="sans-serif" font-size="14" lengthAdjust="spacing" textLength="73" x="906.5" y="235.2285">commission</text><text fill="#000000" font-family="sans-serif" font-size="14" lengthAdjust="spacing" textLength="28" x="906.5" y="253.8496">date</text><text fill="#000000" font-family="sans-serif" font-size="14" lengthAdjust="spacing" textLength="79" x="906.5" y="272.4707">rentDuration</text><text fill="#000000" font-family="sans-serif" font-size="14" lengthAdjust="spacing" textLength="65" x="906.5" y="291.0918">listedPrice</text></g><!--class BusinessType--><g id="elem_BusinessType"><rect codeLine="80" fill="#F1F1F1" height="55.2422" id="BusinessType" rx="2.5" ry="2.5" style="stroke:#181818;stroke-width:0.5;" width="95" x="1240.5" y="215.5"/><text fill="#000000" font-family="sans-serif" font-size="14" lengthAdjust="spacing" textLength="89" x="1243.5" y="235.6074">BusinessType</text><line style="stroke:#181818;stroke-width:0.5;" x1="1241.5" x2="1334.5" y1="244.1211" y2="244.1211"/><text fill="#000000" font-family="sans-serif" font-size="14" lengthAdjust="spacing" textLength="69" x="1246.5" y="263.2285">description</text></g><!--class PropertyType--><g id="elem_PropertyType"><rect codeLine="84" fill="#F1F1F1" height="55.2422" id="PropertyType" rx="2.5" ry="2.5" style="stroke:#181818;stroke-width:0.5;" width="92" x="7" y="624"/><text fill="#000000" font-family="sans-serif" font-size="14" lengthAdjust="spacing" textLength="86" x="10" y="644.1074">PropertyType</text><line style="stroke:#181818;stroke-width:0.5;" x1="8" x2="98" y1="652.6211" y2="652.6211"/><text fill="#000000" font-family="sans-serif" font-size="14" lengthAdjust="spacing" textLength="69" x="13" y="671.7285">description</text></g><!--class Inhabitable--><g id="elem_Inhabitable"><rect codeLine="88" fill="#F1F1F1" height="111.1055" id="Inhabitable" rx="2.5" ry="2.5" style="stroke:#181818;stroke-width:0.5;" width="121" x="249.5" y="596"/><text fill="#000000" font-family="sans-serif" font-size="14" lengthAdjust="spacing" textLength="69" x="275.5" y="616.1074">Inhabitable</text><line style="stroke:#181818;stroke-width:0.5;" x1="250.5" x2="369.5" y1="624.6211" y2="624.6211"/><text fill="#000000" font-family="sans-serif" font-size="14" lengthAdjust="spacing" textLength="105" x="255.5" y="643.7285">bedroomNumber</text><text fill="#000000" font-family="sans-serif" font-size="14" lengthAdjust="spacing" textLength="109" x="255.5" y="662.3496">bathroomNumber</text><text fill="#000000" font-family="sans-serif" font-size="14" lengthAdjust="spacing" textLength="94" x="255.5" y="680.9707">parkingSpaces</text><text fill="#000000" font-family="sans-serif" font-size="14" lengthAdjust="spacing" textLength="88" x="255.5" y="699.5918">equipmentList</text></g><!--class House--><g id="elem_House"><rect codeLine="95" fill="#F1F1F1" height="92.4844" id="House" rx="2.5" ry="2.5" style="stroke:#181818;stroke-width:0.5;" width="98" x="261" y="768"/><text fill="#000000" font-family="sans-serif" font-size="14" lengthAdjust="spacing" textLength="40" x="290" y="788.1074">House</text><line style="stroke:#181818;stroke-width:0.5;" x1="262" x2="358" y1="796.6211" y2="796.6211"/><text fill="#000000" font-family="sans-serif" font-size="14" lengthAdjust="spacing" textLength="86" x="267" y="815.7285">hasBasement</text><text fill="#000000" font-family="sans-serif" font-size="14" lengthAdjust="spacing" textLength="47" x="267" y="834.3496">hasLoft</text><text fill="#000000" font-family="sans-serif" font-size="14" lengthAdjust="spacing" textLength="82" x="267" y="852.9707">sunExposure</text></g><!--class Commission--><g id="elem_Commission"><rect codeLine="102" fill="#F1F1F1" height="73.8633" id="Commission" rx="2.5" ry="2.5" style="stroke:#181818;stroke-width:0.5;" width="115" x="546.5" y="206"/><text fill="#000000" font-family="sans-serif" font-size="14" lengthAdjust="spacing" textLength="76" x="566" y="226.1074">Commission</text><line style="stroke:#181818;stroke-width:0.5;" x1="547.5" x2="660.5" y1="234.6211" y2="234.6211"/><text fill="#000000" font-family="sans-serif" font-size="14" lengthAdjust="spacing" textLength="34" x="552.5" y="253.7285">value</text><text fill="#000000" font-family="sans-serif" font-size="14" lengthAdjust="spacing" textLength="103" x="552.5" y="272.3496">typeCommission</text></g><!--link Client to Address--><g id="link_Client_Address"><path codeLine="110" d="M396.14,285.02 C427.1,306.68 465.93,333.56 501,357 C532.58,378.1 568.44,401.21 596.72,419.23 " fill="none" id="Client-Address" style="stroke:#181818;stroke-width:1.0;"/><polygon fill="#000000" points="510.1556,350.426,504.2724,342.9534,501.0037,347.8386,510.1556,350.426" style="stroke:#000000;stroke-width:1.0;"/><text fill="#000000" font-family="sans-serif" font-size="13" lengthAdjust="spacing" textLength="39" x="515" y="353.0283">has an</text><text fill="#000000" font-family="sans-serif" font-size="13" lengthAdjust="spacing" textLength="7" x="404.0376" y="286.3792">1</text><text fill="#000000" font-family="sans-serif" font-size="13" lengthAdjust="spacing" textLength="7" x="582.1572" y="410.4678">1</text></g><!--link Client to Property--><g id="link_Client_Property"><path codeLine="111" d="M307.51,308.19 C303.99,317.98 300.97,328.12 299,338 C295.81,354 297.74,371.03 301.9,386.89 " fill="none" id="Client-Property" style="stroke:#181818;stroke-width:1.0;"/><polygon fill="#000000" points="304.3555,342.6582,300.7809,351.4714,306.6439,351.8893,304.3555,342.6582" style="stroke:#000000;stroke-width:1.0;"/><text fill="#000000" font-family="sans-serif" font-size="13" lengthAdjust="spacing" textLength="32" x="313" y="353.0283">has a</text><text fill="#000000" font-family="sans-serif" font-size="13" lengthAdjust="spacing" textLength="7" x="297.0048" y="329.8467">1</text><text fill="#000000" font-family="sans-serif" font-size="13" lengthAdjust="spacing" textLength="7" x="291.3344" y="375.8981">1</text></g><!--link Address to Employee--><g id="link_Address_Employee"><path codeLine="113" d="M697.13,452 C752.68,452 842.15,452 900.77,452 " fill="none" id="Address-Employee" style="stroke:#181818;stroke-width:1.0;"/><polygon fill="#000000" points="772,439.6455,781.0451,442.5844,781.0451,436.7066,772,439.6455" style="stroke:#000000;stroke-width:1.0;"/><text fill="#000000" font-family="sans-serif" font-size="13" lengthAdjust="spacing" textLength="39" x="786" y="445.0283">has an</text><text fill="#000000" font-family="sans-serif" font-size="13" lengthAdjust="spacing" textLength="7" x="705.0069" y="447.7935">1</text><text fill="#000000" font-family="sans-serif" font-size="13" lengthAdjust="spacing" textLength="7" x="885.8608" y="447.9754">1</text></g><!--link Property to Address--><g id="link_Property_Address"><path codeLine="114" d="M393.81,452 C453.39,452 541.75,452 596.78,452 " fill="none" id="Property-Address" style="stroke:#181818;stroke-width:1.0;"/><polygon fill="#000000" points="478.25,439.6455,469.2049,436.7066,469.2049,442.5844,478.25,439.6455" style="stroke:#000000;stroke-width:1.0;"/><text fill="#000000" font-family="sans-serif" font-size="13" lengthAdjust="spacing" textLength="39" x="482.25" y="445.0283">has an</text><text fill="#000000" font-family="sans-serif" font-size="13" lengthAdjust="spacing" textLength="7" x="401.4771" y="448.0781">1</text><text fill="#000000" font-family="sans-serif" font-size="13" lengthAdjust="spacing" textLength="7" x="581.8899" y="447.7935">1</text></g><!--link Address to Store--><g id="link_Address_Store"><path codeLine="115" d="M654.58,507.77 C657.72,526.42 661.85,547.27 667,566 C669.71,575.83 673.1,586.12 676.66,595.99 " fill="none" id="Address-Store" style="stroke:#181818;stroke-width:1.0;"/><polygon fill="#000000" points="670.786,551.7951,670.1311,561.2831,675.8331,559.856,670.786,551.7951" style="stroke:#000000;stroke-width:1.0;"/><text fill="#000000" font-family="sans-serif" font-size="13" lengthAdjust="spacing" textLength="39" x="681" y="562.0283">has an</text><text fill="#000000" font-family="sans-serif" font-size="13" lengthAdjust="spacing" textLength="7" x="648.0773" y="529.6425">1</text><text fill="#000000" font-family="sans-serif" font-size="13" lengthAdjust="spacing" textLength="7" x="666.3493" y="584.8289">1</text></g><!--link Employee to Store--><g id="link_Employee_Store"><path codeLine="116" d="M900.97,497.08 C855.63,531.52 793.22,578.93 749.82,611.9 " fill="none" id="Employee-Store" style="stroke:#181818;stroke-width:1.0;"/><polygon fill="#000000" points="830.0185,559.67,838.9989,556.5389,835.4433,551.8584,830.0185,559.67" style="stroke:#000000;stroke-width:1.0;"/><text fill="#000000" font-family="sans-serif" font-size="13" lengthAdjust="spacing" textLength="32" x="843" y="562.0283">has a</text><text fill="#000000" font-family="sans-serif" font-size="13" lengthAdjust="spacing" textLength="7" x="886.0865" y="498.8313">1</text><text fill="#000000" font-family="sans-serif" font-size="13" lengthAdjust="spacing" textLength="7" x="757.4588" y="602.1773">1</text></g><!--link Employee to Role--><g id="link_Employee_Role"><path codeLine="117" d="M1008.03,517.12 C1032.65,549.34 1061.59,587.18 1082.33,614.31 " fill="none" id="Employee-Role" style="stroke:#181818;stroke-width:1.0;"/><polygon fill="#000000" points="1051.0367,560.6177,1047.8781,551.647,1043.2085,555.2168,1051.0367,560.6177" style="stroke:#000000;stroke-width:1.0;"/><text fill="#000000" font-family="sans-serif" font-size="13" lengthAdjust="spacing" textLength="21" x="1057" y="562.0283">has</text><text fill="#000000" font-family="sans-serif" font-size="13" lengthAdjust="spacing" textLength="7" x="1005.7253" y="538.7695">1</text><text fill="#000000" font-family="sans-serif" font-size="13" lengthAdjust="spacing" textLength="20" x="1055.62" y="603.2379">1..*</text></g><!--link Property to Store--><g id="link_Property_Store"><path codeLine="118" d="M393.84,486.73 C465.69,525.29 581.91,587.66 648.26,623.27 " fill="none" id="Property-Store" style="stroke:#181818;stroke-width:1.0;"/><polygon fill="#000000" points="546.4056,559.0099,539.8255,552.1431,537.046,557.3223,546.4056,559.0099" style="stroke:#000000;stroke-width:1.0;"/><text fill="#000000" font-family="sans-serif" font-size="13" lengthAdjust="spacing" textLength="32" x="551" y="562.0283">has a</text><text fill="#000000" font-family="sans-serif" font-size="13" lengthAdjust="spacing" textLength="7" x="401.5106" y="486.8238">1</text><text fill="#000000" font-family="sans-serif" font-size="13" lengthAdjust="spacing" textLength="7" x="633.6325" y="615.1462">1</text></g><!--link Announcement to BusinessType--><g id="link_Announcement_BusinessType"><path codeLine="120" d="M1001.82,243 C1066.45,243 1177.22,243 1240.32,243 " fill="none" id="Announcement-BusinessType" style="stroke:#181818;stroke-width:1.0;"/><polygon fill="#000000" points="1086.5,230.6455,1077.4549,227.7066,1077.4549,233.5844,1086.5,230.6455" style="stroke:#000000;stroke-width:1.0;"/><text fill="#000000" font-family="sans-serif" font-size="13" lengthAdjust="spacing" textLength="74" x="1090.5" y="236.0283">cataloged as</text><text fill="#000000" font-family="sans-serif" font-size="13" lengthAdjust="spacing" textLength="5" x="1009.6514" y="238.7935">*</text><text fill="#000000" font-family="sans-serif" font-size="13" lengthAdjust="spacing" textLength="7" x="1225.4831" y="238.7305">1</text></g><!--link Commission to Announcement--><g id="link_Commission_Announcement"><path codeLine="121" d="M661.69,243 C728.27,243 836.74,243 900.24,243 " fill="none" id="Commission-Announcement" style="stroke:#181818;stroke-width:1.0;"/><polygon fill="#000000" points="746.5,230.6455,737.4549,227.7066,737.4549,233.5844,746.5,230.6455" style="stroke:#000000;stroke-width:1.0;"/><text fill="#000000" font-family="sans-serif" font-size="13" lengthAdjust="spacing" textLength="74" x="750.5" y="236.0283">cataloged as</text><text fill="#000000" font-family="sans-serif" font-size="13" lengthAdjust="spacing" textLength="7" x="669.53" y="238.9667">1</text><text fill="#000000" font-family="sans-serif" font-size="13" lengthAdjust="spacing" textLength="7" x="885.6097" y="238.8461">1</text></g><!--link Announcement to Property--><g id="link_Announcement_Property"><path codeLine="122" d="M900.47,260.81 C820.25,287.52 658.82,341.27 522,387 C479.21,401.3 431.05,417.44 393.79,429.93 " fill="none" id="Announcement-Property" style="stroke:#181818;stroke-width:1.0;"/><polygon fill="#000000" points="663.2572,349.2286,672.7675,349.1525,670.9065,343.5771,663.2572,349.2286" style="stroke:#000000;stroke-width:1.0;"/><text fill="#000000" font-family="sans-serif" font-size="13" lengthAdjust="spacing" textLength="47" x="677" y="353.0283">refers to</text><text fill="#000000" font-family="sans-serif" font-size="13" lengthAdjust="spacing" textLength="7" x="885.5343" y="259.2194">1</text><text fill="#000000" font-family="sans-serif" font-size="13" lengthAdjust="spacing" textLength="7" x="401.4548" y="423.4563">1</text></g><!--link Announcement to Employee--><g id="link_Announcement_Employee"><path codeLine="123" d="M953.11,298.66 C954.16,325.73 955.43,358.58 956.52,386.84 " fill="none" id="Announcement-Employee" style="stroke:#181818;stroke-width:1.0;"/><polygon fill="#000000" points="960.1932,352.6418,962.7804,343.4899,956.907,343.717,960.1932,352.6418" style="stroke:#000000;stroke-width:1.0;"/><text fill="#000000" font-family="sans-serif" font-size="13" lengthAdjust="spacing" textLength="32" x="969" y="353.0283">has a</text><text fill="#000000" font-family="sans-serif" font-size="13" lengthAdjust="spacing" textLength="7" x="945.9406" y="320.5191">1</text><text fill="#000000" font-family="sans-serif" font-size="13" lengthAdjust="spacing" textLength="7" x="948.8659" y="375.8426">1</text></g><!--link Property to PropertyType--><g id="link_Property_PropertyType"><path codeLine="126" d="M268.48,494.84 C244.71,510.94 217.47,529.63 193,547 C156.89,572.63 116.26,602.82 88.11,623.96 " fill="none" id="Property-PropertyType" style="stroke:#181818;stroke-width:1.0;"/><polygon fill="#000000" points="193.9344,559.5559,202.9999,556.6806,199.5785,551.9012,193.9344,559.5559" style="stroke:#000000;stroke-width:1.0;"/><text fill="#000000" font-family="sans-serif" font-size="13" lengthAdjust="spacing" textLength="74" x="207" y="562.0283">cataloged as</text><text fill="#000000" font-family="sans-serif" font-size="13" lengthAdjust="spacing" textLength="5" x="255.5557" y="496.0879">*</text><text fill="#000000" font-family="sans-serif" font-size="13" lengthAdjust="spacing" textLength="7" x="88.4198" y="612.6597">1</text></g><!--reverse link Property to Inhabitable--><g id="link_Property_Inhabitable"><path codeLine="128" d="M322.06,537.06 C319.94,557 317.74,577.75 315.8,595.97 " fill="none" id="Property-backto-Inhabitable" style="stroke:#181818;stroke-width:1.0;"/><polygon fill="none" points="315.11,536.27,324.18,517.12,329.03,537.75,315.11,536.27" style="stroke:#181818;stroke-width:1.0;"/></g><!--reverse link Inhabitable to House--><g id="link_Inhabitable_House"><path codeLine="129" d="M310,727.71 C310,741.41 310,755.3 310,767.78 " fill="none" id="Inhabitable-backto-House" style="stroke:#181818;stroke-width:1.0;"/><polygon fill="none" points="303,727.29,310,707.29,317,727.29,303,727.29" style="stroke:#181818;stroke-width:1.0;"/></g><!--link PurchaseOrder to Client--><g id="link_PurchaseOrder_Client"><path codeLine="131" d="M592.44,85.68 C538.1,119.06 452.7,171.53 396.04,206.34 " fill="none" id="PurchaseOrder-Client" style="stroke:#181818;stroke-width:1.0;"/><polygon fill="#000000" points="527.2602,136.0282,518.015,138.2589,521.0918,143.2671,527.2602,136.0282" style="stroke:#000000;stroke-width:1.0;"/><text fill="#000000" font-family="sans-serif" font-size="13" lengthAdjust="spacing" textLength="32" x="532" y="144.0283">has a</text><text fill="#000000" font-family="sans-serif" font-size="13" lengthAdjust="spacing" textLength="7" x="577.3531" y="86.2456">1</text><text fill="#000000" font-family="sans-serif" font-size="13" lengthAdjust="spacing" textLength="7" x="403.9248" y="197.6184">1</text></g><!--link PurchaseOrder to Announcement--><g id="link_PurchaseOrder_Announcement"><path codeLine="132" d="M695.73,85.68 C752.72,120.58 843.77,176.34 900.33,210.97 " fill="none" id="PurchaseOrder-Announcement" style="stroke:#181818;stroke-width:1.0;"/><polygon fill="#000000" points="797.736,136.0344,803.9149,143.2643,806.9845,138.2516,797.736,136.0344" style="stroke:#000000;stroke-width:1.0;"/><text fill="#000000" font-family="sans-serif" font-size="13" lengthAdjust="spacing" textLength="32" x="811" y="144.0283">has a</text><text fill="#000000" font-family="sans-serif" font-size="13" lengthAdjust="spacing" textLength="7" x="703.4967" y="86.095">1</text><text fill="#000000" font-family="sans-serif" font-size="13" lengthAdjust="spacing" textLength="7" x="885.3738" y="202.0591">1</text></g><!--SRC=[VLJRRXCn47ttLrXvGQhKga7Y9QgGqhGII0KgKZx0yKvshNeznlRIXiA_CxRtucrIyf2CxJDdRcVY7vMnmecMjsXGDWvRuC5rmFpuOeLy53Limq43To23CBKk0RuH5JufK_EzqBvyCLY11ykN7ouPO-yqx0CFo9sgcy0h5SaK6iOQLG6NoadYJNOBeS7AaqzGWSBUO2kKuL-8Jw_uZ-tbyZsBZ0O3PBeLVm0V69DQUCzlMwln0C1V6ASFaBTEbX4j9CCIpA8BNxjs1ovT1V5Sd6o31eRptu7utg455mwPrpebCvrm899HAKyDal206p31mS0Li7R2DZw3H00sSNPEDiB3DrU1oyGOpNMBdGdf_2JyMagm0QfqbXGkjkwc9s8yKtr7FTIiCf8689sogS-nZ1wuhYe7tcSezvGeXFukNqaL3iDZ39BCtyfkQ0GbqJQW6q8ECMDGLHkHWyu7CEihtSJa-pvijAAM7Osi6Dh9iRqUt3p4sEMrCTHE2MsEmIIshV8-ffZ6uUZ-fdCvQKrJXEe-ZNUYkEwyCjIXXuE55rPszaWV_u5yDetOgI1scX0xg1nYsoUx4w4fZhH4j4hrbZOGF8EVdR8n-pjARgBxX9qd8XBGDMaelaVx3lU1-SxSFblqdIkhs8o5Knj-2KtB7YZRwJe9Yh5-78lbWf-VfvzU82l-aLC8BimCaxw7-bVyAcCOwxruWUBJWev0mmRV6NBmBeAU94mwBCZ606K10wgdca0ZvkBYR96sg0TDIHN1Nh6mcRGMPoEkr4igG8eWDDPGSM8kvZ1npwYENEQ1Yhh6BAEBWpquJt-qR-E7meiYYahFHc0fvwDi9e-hFuGlXSqAExyccP9B-LzNfjGhQTBD2UIf3eqo-mS0]--></g></svg>