<?xml version="1.0" encoding="us-ascii" standalone="no"?><svg xmlns="http://www.w3.org/2000/svg" xmlns:xlink="http://www.w3.org/1999/xlink" contentStyleType="text/css" height="1124.1px" preserveAspectRatio="none" style="width:741px;height:1124px;background:#FFFFFF;" version="1.1" viewBox="0 0 741 1124" width="741.6px" zoomAndPan="magnify"><defs/><g><text fill="#000000" font-family="sans-serif" font-size="12.6" font-weight="bold" lengthAdjust="spacing" textLength="435.6" x="146.7" y="22.5967">Domain Model: US004 - Submit request for listing a property sale/rent</text><!--class Property--><g id="elem_Property"><rect codeLine="13" fill="#F1F1F1" height="99.9949" id="Property" rx="2.25" ry="2.25" style="stroke:#181818;stroke-width:0.45;" width="112.5" x="117.45" y="692.659"/><text fill="#000000" font-family="sans-serif" font-size="12.6" lengthAdjust="spacing" textLength="48.6" x="149.4" y="710.7557">Property</text><line style="stroke:#181818;stroke-width:0.45;" x1="118.35" x2="229.05" y1="718.418" y2="718.418"/><text fill="#000000" font-family="sans-serif" font-size="12.6" lengthAdjust="spacing" textLength="27.9" x="122.85" y="735.6146">price</text><text fill="#000000" font-family="sans-serif" font-size="12.6" lengthAdjust="spacing" textLength="26.1" x="122.85" y="752.3736">area</text><text fill="#000000" font-family="sans-serif" font-size="12.6" lengthAdjust="spacing" textLength="101.7" x="122.85" y="769.1326">distanceToCentre</text><text fill="#000000" font-family="sans-serif" font-size="12.6" lengthAdjust="spacing" textLength="72" x="122.85" y="785.8916">photographs</text></g><!--class House--><g id="elem_House"><rect codeLine="19" fill="#F1F1F1" height="83.2359" id="House" rx="2.25" ry="2.25" style="stroke:#181818;stroke-width:0.45;" width="88.2" x="199.8" y="1034.659"/><text fill="#000000" font-family="sans-serif" font-size="12.6" lengthAdjust="spacing" textLength="36" x="225.9" y="1052.7557">House</text><line style="stroke:#181818;stroke-width:0.45;" x1="200.7" x2="287.1" y1="1060.418" y2="1060.418"/><text fill="#000000" font-family="sans-serif" font-size="12.6" lengthAdjust="spacing" textLength="77.4" x="205.2" y="1077.6146">hasBasement</text><text fill="#000000" font-family="sans-serif" font-size="12.6" lengthAdjust="spacing" textLength="42.3" x="205.2" y="1094.3736">hasLoft</text><text fill="#000000" font-family="sans-serif" font-size="12.6" lengthAdjust="spacing" textLength="73.8" x="205.2" y="1111.1326">sunExposure</text></g><!--class Agent--><g id="elem_Agent"><rect codeLine="24" fill="#F1F1F1" height="32.959" id="Agent" rx="2.25" ry="2.25" style="stroke:#181818;stroke-width:0.45;" width="38.7" x="442.35" y="580.159"/><text fill="#000000" font-family="sans-serif" font-size="12.6" lengthAdjust="spacing" textLength="33.3" x="445.05" y="598.2557">Agent</text><line style="stroke:#181818;stroke-width:0.45;" x1="443.25" x2="480.15" y1="605.918" y2="605.918"/></g><!--class AnnouncementRequest--><g id="elem_AnnouncementRequest"><rect codeLine="27" fill="#F1F1F1" height="49.718" id="AnnouncementRequest" rx="2.25" ry="2.25" style="stroke:#181818;stroke-width:0.45;" width="138.6" x="214.2" y="417.709"/><text fill="#000000" font-family="sans-serif" font-size="12.6" lengthAdjust="spacing" textLength="133.2" x="216.9" y="435.8057">AnnouncementRequest</text><line style="stroke:#181818;stroke-width:0.45;" x1="215.1" x2="351.9" y1="443.468" y2="443.468"/><text fill="#000000" font-family="sans-serif" font-size="12.6" lengthAdjust="spacing" textLength="71.1" x="219.6" y="460.6646">rentDuration</text></g><!--class BusinessType--><g id="elem_BusinessType"><rect codeLine="30" fill="#F1F1F1" height="49.718" id="BusinessType" rx="2.25" ry="2.25" style="stroke:#181818;stroke-width:0.45;" width="85.5" x="301.05" y="572.059"/><text fill="#000000" font-family="sans-serif" font-size="12.6" lengthAdjust="spacing" textLength="80.1" x="303.75" y="590.1557">BusinessType</text><line style="stroke:#181818;stroke-width:0.45;" x1="301.95" x2="385.65" y1="597.818" y2="597.818"/><text fill="#000000" font-family="sans-serif" font-size="12.6" lengthAdjust="spacing" textLength="62.1" x="306.45" y="615.0146">description</text></g><!--class PropertyType--><g id="elem_PropertyType"><rect codeLine="33" fill="#F1F1F1" height="49.718" id="PropertyType" rx="2.25" ry="2.25" style="stroke:#181818;stroke-width:0.45;" width="82.8" x="74.7" y="888.859"/><text fill="#000000" font-family="sans-serif" font-size="12.6" lengthAdjust="spacing" textLength="77.4" x="77.4" y="906.9557">PropertyType</text><line style="stroke:#181818;stroke-width:0.45;" x1="75.6" x2="156.6" y1="914.618" y2="914.618"/><text fill="#000000" font-family="sans-serif" font-size="12.6" lengthAdjust="spacing" textLength="62.1" x="80.1" y="931.8146">description</text></g><!--class Employee--><g id="elem_Employee"><rect codeLine="36" fill="#F1F1F1" height="116.7539" id="Employee" rx="2.25" ry="2.25" style="stroke:#181818;stroke-width:0.45;" width="104.4" x="384.3" y="383.959"/><text fill="#000000" font-family="sans-serif" font-size="12.6" lengthAdjust="spacing" textLength="55.8" x="408.6" y="402.0557">Employee</text><line style="stroke:#181818;stroke-width:0.45;" x1="385.2" x2="487.8" y1="409.718" y2="409.718"/><text fill="#000000" font-family="sans-serif" font-size="12.6" lengthAdjust="spacing" textLength="29.7" x="389.7" y="426.9146">email</text><text fill="#000000" font-family="sans-serif" font-size="12.6" lengthAdjust="spacing" textLength="31.5" x="389.7" y="443.6736">name</text><text fill="#000000" font-family="sans-serif" font-size="12.6" lengthAdjust="spacing" textLength="93.6" x="389.7" y="460.4326">passportNumber</text><text fill="#000000" font-family="sans-serif" font-size="12.6" lengthAdjust="spacing" textLength="60.3" x="389.7" y="477.1916">taxNumber</text><text fill="#000000" font-family="sans-serif" font-size="12.6" lengthAdjust="spacing" textLength="80.1" x="389.7" y="493.9506">phoneNumber</text></g><!--class Store--><g id="elem_Store"><rect codeLine="44" fill="#F1F1F1" height="99.9949" id="Store" rx="2.25" ry="2.25" style="stroke:#181818;stroke-width:0.45;" width="90.9" x="416.25" y="692.659"/><text fill="#000000" font-family="sans-serif" font-size="12.6" lengthAdjust="spacing" textLength="30.6" x="446.4" y="710.7557">Store</text><line style="stroke:#181818;stroke-width:0.45;" x1="417.15" x2="506.25" y1="718.418" y2="718.418"/><text fill="#000000" font-family="sans-serif" font-size="12.6" lengthAdjust="spacing" textLength="9.9" x="421.65" y="735.6146">id</text><text fill="#000000" font-family="sans-serif" font-size="12.6" lengthAdjust="spacing" textLength="65.7" x="421.65" y="752.3736">designation</text><text fill="#000000" font-family="sans-serif" font-size="12.6" lengthAdjust="spacing" textLength="29.7" x="421.65" y="769.1326">email</text><text fill="#000000" font-family="sans-serif" font-size="12.6" lengthAdjust="spacing" textLength="80.1" x="421.65" y="785.8916">phoneNumber</text></g><!--class Client--><g id="elem_Client"><rect codeLine="51" fill="#F1F1F1" height="116.7539" id="Client" rx="2.25" ry="2.25" style="stroke:#181818;stroke-width:0.45;" width="104.4" x="6.3" y="239.959"/><text fill="#000000" font-family="sans-serif" font-size="12.6" lengthAdjust="spacing" textLength="32.4" x="42.3" y="258.0557">Client</text><line style="stroke:#181818;stroke-width:0.45;" x1="7.2" x2="109.8" y1="265.718" y2="265.718"/><text fill="#000000" font-family="sans-serif" font-size="12.6" lengthAdjust="spacing" textLength="29.7" x="11.7" y="282.9146">email</text><text fill="#000000" font-family="sans-serif" font-size="12.6" lengthAdjust="spacing" textLength="31.5" x="11.7" y="299.6736">name</text><text fill="#000000" font-family="sans-serif" font-size="12.6" lengthAdjust="spacing" textLength="93.6" x="11.7" y="316.4326">passportNumber</text><text fill="#000000" font-family="sans-serif" font-size="12.6" lengthAdjust="spacing" textLength="60.3" x="11.7" y="333.1916">taxNumber</text><text fill="#000000" font-family="sans-serif" font-size="12.6" lengthAdjust="spacing" textLength="80.1" x="11.7" y="349.9506">phoneNumber</text></g><!--class Inhabitable--><g id="elem_Inhabitable"><rect codeLine="59" fill="#F1F1F1" height="99.9949" id="Inhabitable" rx="2.25" ry="2.25" style="stroke:#181818;stroke-width:0.45;" width="108.9" x="189.45" y="863.659"/><text fill="#000000" font-family="sans-serif" font-size="12.6" lengthAdjust="spacing" textLength="62.1" x="212.85" y="881.7557">Inhabitable</text><line style="stroke:#181818;stroke-width:0.45;" x1="190.35" x2="297.45" y1="889.418" y2="889.418"/><text fill="#000000" font-family="sans-serif" font-size="12.6" lengthAdjust="spacing" textLength="94.5" x="194.85" y="906.6146">bedroomNumber</text><text fill="#000000" font-family="sans-serif" font-size="12.6" lengthAdjust="spacing" textLength="98.1" x="194.85" y="923.3736">bathroomNumber</text><text fill="#000000" font-family="sans-serif" font-size="12.6" lengthAdjust="spacing" textLength="84.6" x="194.85" y="940.1326">parkingSpaces</text><text fill="#000000" font-family="sans-serif" font-size="12.6" lengthAdjust="spacing" textLength="81" x="194.85" y="956.8916">hasEquipment</text></g><!--class Role--><g id="elem_Role"><rect codeLine="67" fill="#F1F1F1" height="66.477" id="Role" rx="2.25" ry="2.25" style="stroke:#181818;stroke-width:0.45;" width="72.9" x="550.35" y="409.159"/><text fill="#000000" font-family="sans-serif" font-size="12.6" lengthAdjust="spacing" textLength="26.1" x="573.75" y="427.2557">Role</text><line style="stroke:#181818;stroke-width:0.45;" x1="551.25" x2="622.35" y1="434.918" y2="434.918"/><text fill="#000000" font-family="sans-serif" font-size="12.6" lengthAdjust="spacing" textLength="9.9" x="555.75" y="452.1146">id</text><text fill="#000000" font-family="sans-serif" font-size="12.6" lengthAdjust="spacing" textLength="62.1" x="555.75" y="468.8736">description</text></g><!--class Address--><g id="elem_Address"><rect codeLine="71" fill="#F1F1F1" height="83.2359" id="Address" rx="2.25" ry="2.25" style="stroke:#181818;stroke-width:0.45;" width="90" x="240.3" y="41.959"/><text fill="#000000" font-family="sans-serif" font-size="12.6" lengthAdjust="spacing" textLength="46.8" x="261.9" y="60.0557">Address</text><line style="stroke:#181818;stroke-width:0.45;" x1="241.2" x2="329.4" y1="67.718" y2="67.718"/><text fill="#000000" font-family="sans-serif" font-size="12.6" lengthAdjust="spacing" textLength="79.2" x="245.7" y="84.9146">streetAddress</text><text fill="#000000" font-family="sans-serif" font-size="12.6" lengthAdjust="spacing" textLength="27.9" x="245.7" y="101.6736">state</text><text fill="#000000" font-family="sans-serif" font-size="12.6" lengthAdjust="spacing" textLength="45.9" x="245.7" y="118.4326">zipCode</text></g><!--link AnnouncementRequest to Agent--><g id="link_AnnouncementRequest_Agent"><path codeLine="76" d="M308.376,467.506 C330.408,488.584 363.717,519.679 394.2,545.059 C409.869,558.109 428.427,571.978 442.107,581.932 " fill="none" id="AnnouncementRequest-Agent" style="stroke:#181818;stroke-width:0.9;"/><polygon fill="#000000" points="402.1192,539.5655,397.6534,532.2633,394.2142,536.2828,402.1192,539.5655" style="stroke:#000000;stroke-width:0.9;"/><text fill="#000000" font-family="sans-serif" font-size="11.7" lengthAdjust="spacing" textLength="36" x="406.8" y="541.4845">sent to</text><text fill="#000000" font-family="sans-serif" font-size="11.7" lengthAdjust="spacing" textLength="6.3" x="306.8286" y="487.2887">1</text><text fill="#000000" font-family="sans-serif" font-size="11.7" lengthAdjust="spacing" textLength="6.3" x="428.842" y="572.4509">1</text></g><!--link AnnouncementRequest to Property--><g id="link_AnnouncementRequest_Property"><path codeLine="77" d="M272.772,467.326 C261.432,493.003 243.324,535.06 229.5,572.059 C214.524,612.145 199.485,658.306 188.793,692.353 " fill="none" id="AnnouncementRequest-Property" style="stroke:#181818;stroke-width:0.9;"/><polygon fill="#000000" points="232.4266,601.1559,237.751,594.454,232.7948,592.6043,232.4266,601.1559" style="stroke:#000000;stroke-width:0.9;"/><text fill="#000000" font-family="sans-serif" font-size="11.7" lengthAdjust="spacing" textLength="42.3" x="242.1" y="601.7845">refers to</text><text fill="#000000" font-family="sans-serif" font-size="11.7" lengthAdjust="spacing" textLength="6.3" x="263.4362" y="487.0694">1</text><text fill="#000000" font-family="sans-serif" font-size="11.7" lengthAdjust="spacing" textLength="6.3" x="183.9486" y="682.6314">1</text></g><!--link AnnouncementRequest to BusinessType--><g id="link_AnnouncementRequest_BusinessType"><path codeLine="78" d="M276.966,467.245 C272.43,488.701 269.073,520.516 280.8,545.059 C285.831,555.589 294.219,564.634 303.264,572.05 " fill="none" id="AnnouncementRequest-BusinessType" style="stroke:#181818;stroke-width:0.9;"/><polygon fill="#000000" points="286.3952,541.0046,286.9795,532.4651,281.8485,533.7526,286.3952,541.0046" style="stroke:#000000;stroke-width:0.9;"/><text fill="#000000" font-family="sans-serif" font-size="11.7" lengthAdjust="spacing" textLength="66.6" x="293.4" y="541.4845">cataloged as</text><text fill="#000000" font-family="sans-serif" font-size="11.7" lengthAdjust="spacing" textLength="6.3" x="276.1835" y="487.3764">1</text><text fill="#000000" font-family="sans-serif" font-size="11.7" lengthAdjust="spacing" textLength="6.3" x="287.4077" y="562.2908">1</text></g><!--link Agent to Store--><g id="link_Agent_Store"><path codeLine="79" d="M461.7,613.666 C461.7,632.566 461.7,664.93 461.7,692.389 " fill="none" id="Agent-Store" style="stroke:#181818;stroke-width:0.9;"/><polygon fill="#000000" points="466.2,661.7399,468.845,653.5994,463.555,653.5994,466.2,661.7399" style="stroke:#000000;stroke-width:0.9;"/><text fill="#000000" font-family="sans-serif" font-size="11.7" lengthAdjust="spacing" textLength="32.4" x="474.3" y="662.0845">part of</text><text fill="#000000" font-family="sans-serif" font-size="11.7" lengthAdjust="spacing" textLength="4.5" x="456.5953" y="632.9587">*</text><text fill="#000000" font-family="sans-serif" font-size="11.7" lengthAdjust="spacing" textLength="19.8" x="440.6934" y="682.6717">0..1</text></g><!--link Client to Property--><g id="link_Client_Property"><path codeLine="80" d="M51.948,357.121 C47.799,407.35 45.396,481.78 58.5,545.059 C70.344,602.254 80.163,615.871 110.7,665.659 C116.262,674.722 122.814,683.857 129.573,692.488 " fill="none" id="Client-Property" style="stroke:#181818;stroke-width:0.9;"/><polygon fill="#000000" points="64.0148,541.024,64.756,532.4967,59.6021,533.6896,64.0148,541.024" style="stroke:#000000;stroke-width:0.9;"/><text fill="#000000" font-family="sans-serif" font-size="11.7" lengthAdjust="spacing" textLength="38.7" x="71.1" y="541.4845">creates</text><text fill="#000000" font-family="sans-serif" font-size="11.7" lengthAdjust="spacing" textLength="6.3" x="44.6475" y="376.6111">1</text><text fill="#000000" font-family="sans-serif" font-size="11.7" lengthAdjust="spacing" textLength="4.5" x="119.1309" y="682.4223">*</text></g><!--link Property to PropertyType--><g id="link_Property_PropertyType"><path codeLine="82" d="M131.958,792.712 C126.621,801.217 121.941,810.307 118.8,819.559 C111.159,842.077 111.402,869.455 112.995,888.679 " fill="none" id="Property-PropertyType" style="stroke:#181818;stroke-width:0.9;"/><polygon fill="#000000" points="122.4277,832.6546,126.6006,825.1812,121.4109,824.1557,122.4277,832.6546" style="stroke:#000000;stroke-width:0.9;"/><text fill="#000000" font-family="sans-serif" font-size="11.7" lengthAdjust="spacing" textLength="66.6" x="131.4" y="833.0845">cataloged as</text><text fill="#000000" font-family="sans-serif" font-size="11.7" lengthAdjust="spacing" textLength="4.5" x="122.0965" y="812.3863">*</text><text fill="#000000" font-family="sans-serif" font-size="11.7" lengthAdjust="spacing" textLength="6.3" x="105.3267" y="878.8824">1</text></g><!--link Property to Store--><g id="link_Property_Store"><path codeLine="83" d="M230.256,742.609 C284.643,742.609 365.814,742.609 416.16,742.609 " fill="none" id="Property-Store" style="stroke:#181818;stroke-width:0.9;"/><polygon fill="#000000" points="295.2,731.4899,287.0594,728.8449,287.0594,734.135,295.2,731.4899" style="stroke:#000000;stroke-width:0.9;"/><text fill="#000000" font-family="sans-serif" font-size="11.7" lengthAdjust="spacing" textLength="60.3" x="298.8" y="736.3345">listed under</text><text fill="#000000" font-family="sans-serif" font-size="11.7" lengthAdjust="spacing" textLength="4.5" x="237.0554" y="739.0596">*</text><text fill="#000000" font-family="sans-serif" font-size="11.7" lengthAdjust="spacing" textLength="6.3" x="402.7087" y="738.8231">1</text></g><!--link Inhabitable to House--><g id="link_Inhabitable_House"><path codeLine="84" d="M243.9,963.586 C243.9,986.284 243.9,1012.924 243.9,1034.488 " fill="none" id="Inhabitable-House" style="stroke:#181818;stroke-width:0.9;"/><polygon fill="#000000" points="248.4,994.7399,245.755,1002.8805,251.045,1002.8805,248.4,994.7399" style="stroke:#000000;stroke-width:0.9;"/><text fill="#000000" font-family="sans-serif" font-size="11.7" lengthAdjust="spacing" textLength="18.9" x="256.5" y="1004.0845">is a</text><text fill="#000000" font-family="sans-serif" font-size="11.7" lengthAdjust="spacing" textLength="6.3" x="237.1964" y="983.6056">1</text><text fill="#000000" font-family="sans-serif" font-size="11.7" lengthAdjust="spacing" textLength="6.3" x="237.1373" y="1024.5714">1</text></g><!--link Property to Inhabitable--><g id="link_Property_Inhabitable"><path codeLine="86" d="M194.103,792.676 C203.328,814.924 214.218,841.159 223.452,863.416 " fill="none" id="Property-Inhabitable" style="stroke:#181818;stroke-width:0.9;"/><polygon fill="#000000" points="214.2755,824.0835,214.952,832.6162,219.8382,830.589,214.2755,824.0835" style="stroke:#000000;stroke-width:0.9;"/><text fill="#000000" font-family="sans-serif" font-size="11.7" lengthAdjust="spacing" textLength="18.9" x="224.1" y="833.0845">is a</text><text fill="#000000" font-family="sans-serif" font-size="11.7" lengthAdjust="spacing" textLength="6.3" x="189.9057" y="812.3459">1</text><text fill="#000000" font-family="sans-serif" font-size="11.7" lengthAdjust="spacing" textLength="6.3" x="214.276" y="853.702">1</text></g><!--link Employee to Role--><g id="link_Employee_Role"><path codeLine="87" d="M489.069,442.459 C509.301,442.459 531.936,442.459 550.332,442.459 " fill="none" id="Employee-Role" style="stroke:#181818;stroke-width:0.9;"/><text fill="#000000" font-family="sans-serif" font-size="11.7" lengthAdjust="spacing" textLength="28.8" x="505.125" y="436.1845">has a</text><text fill="#000000" font-family="sans-serif" font-size="11.7" lengthAdjust="spacing" textLength="6.3" x="495.8598" y="438.8831">1</text><text fill="#000000" font-family="sans-serif" font-size="11.7" lengthAdjust="spacing" textLength="18" x="525.0855" y="456.3344">1..*</text></g><!--link Employee to Agent--><g id="link_Employee_Agent"><path codeLine="88" d="M446.031,501.031 C450.711,529.381 455.994,561.385 459.081,580.033 " fill="none" id="Employee-Agent" style="stroke:#181818;stroke-width:0.9;"/><polygon fill="#000000" points="458.8334,541.0798,460.1163,532.617,454.897,533.4791,458.8334,541.0798" style="stroke:#000000;stroke-width:0.9;"/><text fill="#000000" font-family="sans-serif" font-size="11.7" lengthAdjust="spacing" textLength="44.1" x="466.2" y="541.4845">plays as</text><text fill="#000000" font-family="sans-serif" font-size="11.7" lengthAdjust="spacing" textLength="6.3" x="440.389" y="520.5118">1</text><text fill="#000000" font-family="sans-serif" font-size="11.7" lengthAdjust="spacing" textLength="6.3" x="451.0142" y="569.9703">1</text></g><!--link Address to Property--><g id="link_Address_Property"><path codeLine="92" d="M239.931,98.461 C195.399,115.57 134.1,149.014 134.1,203.509 C134.1,203.509 134.1,203.509 134.1,597.709 C134.1,630.118 143.541,665.209 153.207,692.641 " fill="none" id="Address-Property" style="stroke:#181818;stroke-width:0.9;"/><polygon fill="#000000" points="139.2499,438.1371,135.4569,445.8103,140.6915,446.5744,139.2499,438.1371" style="stroke:#000000;stroke-width:0.9;"/><text fill="#000000" font-family="sans-serif" font-size="11.7" lengthAdjust="spacing" textLength="35.1" x="146.7" y="447.4345">has an</text><text fill="#000000" font-family="sans-serif" font-size="11.7" lengthAdjust="spacing" textLength="6.3" x="226.808" y="114.2737">1</text><text fill="#000000" font-family="sans-serif" font-size="11.7" lengthAdjust="spacing" textLength="6.3" x="143.8777" y="682.5949">1</text></g><!--link Address to Employee--><g id="link_Address_Employee"><path codeLine="93" d="M302.499,124.894 C329.355,188.362 381.357,311.257 412.083,383.869 " fill="none" id="Address-Employee" style="stroke:#181818;stroke-width:0.9;"/><polygon fill="#000000" points="342.0464,200.3957,342.7828,208.9235,347.6546,206.862,342.0464,200.3957" style="stroke:#000000;stroke-width:0.9;"/><text fill="#000000" font-family="sans-serif" font-size="11.7" lengthAdjust="spacing" textLength="35.1" x="351.9" y="209.3845">has an</text><text fill="#000000" font-family="sans-serif" font-size="11.7" lengthAdjust="spacing" textLength="6.3" x="298.3503" y="145.0376">1</text><text fill="#000000" font-family="sans-serif" font-size="11.7" lengthAdjust="spacing" textLength="6.3" x="402.7679" y="373.9773">1</text></g><!--link Address to Client--><g id="link_Address_Client"><path codeLine="94" d="M240.111,91.567 C181.368,102.079 83.718,123.382 62.1,151.759 C43.38,176.338 41.688,210.601 45.045,239.734 " fill="none" id="Address-Client" style="stroke:#181818;stroke-width:0.9;"/><polygon fill="#000000" points="70.1835,157.718,62.101,160.5357,65.3008,164.7483,70.1835,157.718" style="stroke:#000000;stroke-width:0.9;"/><text fill="#000000" font-family="sans-serif" font-size="11.7" lengthAdjust="spacing" textLength="35.1" x="74.7" y="165.2845">has an</text><text fill="#000000" font-family="sans-serif" font-size="11.7" lengthAdjust="spacing" textLength="6.3" x="226.7112" y="88.9616">1</text><text fill="#000000" font-family="sans-serif" font-size="11.7" lengthAdjust="spacing" textLength="6.3" x="36.9288" y="229.8275">1</text></g><!--link Address to Store--><g id="link_Address_Store"><path codeLine="95" d="M330.561,88.066 C435.546,98.128 686.7,129.898 686.7,203.509 C686.7,203.509 686.7,203.509 686.7,597.709 C686.7,682.12 572.976,719.29 507.231,733.726 " fill="none" id="Address-Store" style="stroke:#181818;stroke-width:0.9;"/><polygon fill="#000000" points="690.0123,438.2495,689.6096,446.7995,694.7121,445.4033,690.0123,438.2495" style="stroke:#000000;stroke-width:0.9;"/><text fill="#000000" font-family="sans-serif" font-size="11.7" lengthAdjust="spacing" textLength="35.1" x="699.3" y="447.4345">has an</text><text fill="#000000" font-family="sans-serif" font-size="11.7" lengthAdjust="spacing" textLength="6.3" x="337.3688" y="84.9654">1</text><text fill="#000000" font-family="sans-serif" font-size="11.7" lengthAdjust="spacing" textLength="6.3" x="514.381" y="728.6355">1</text></g><!--SRC=[hLJRQjmm47ttLmnv2HHscq2VJ0da1YsqfMJJ3vYrPsqHMQD8CissvDyxagoDTvCqVQXVT3ldp4L7FlPtobXqEC30XflUyK0Gt4ZLqud5vWuxMeMj9d3K13ITdWDyZot_LAQ33MfFrV7JaLQ6mjOIMDRRkAZa2og8qXKFg0nyvPPq3JzM9oSVO06hSJse867kH_81Dkn4muSeZc0TMt9X2nurlNTaGbNrgYLeb6iafJGVAFJS-gfgD7eFtmldTmNoMQSQIZDqX6dIYZwQXcxvKXHTFhKz1-uSsjvNZvFK9nuzJJez-WlqDCGSflKNtkIv7ytrWsK_YbRXddU25EvZoUlS61ubQbIuoTLcvLZMrUWmA3Ox-iNefNdUtyPUPbnBld7Axi5AiM_0hWUhUKkK4IJteDFCu31LBoZBBdmRXpMvj1NmORQIzXYQrhkILe5T2QlQ4brr9jUo7-j5XKkjSfl-QrwVJOzh5N2jItPhQXtpC2EkCVG7M-9WyN6t4l-JBvTyVJygcsvTv2Vz6zPqMFMpdf-thPCBp3WlDgCmRKqx67ADlvIzb3SXn1Si0aUdHx1Of25RgWOVXy1mzXPXznHgCTc6dFydrfxrQcWmeEQEMa0VoIc9etSPVh9S2YFve8xz2y0R0KtNcaGJTfP98yymK9IgThj5RfPpZFui-3uXuQVOyPyXgD6qv0GuTy2ijFIWQ_W8oWFEupz1PimTi3oVKj3fSYdnemka7l78CyZilceu0wjnAo0V_uMJ1oRSug3g6389cWDW6agGlwDoyr_5xBMjOFu0]--></g></svg>