<?xml version="1.0" encoding="us-ascii" standalone="no"?><svg xmlns="http://www.w3.org/2000/svg" xmlns:xlink="http://www.w3.org/1999/xlink" contentStyleType="text/css" height="945px" preserveAspectRatio="none" style="width:830px;height:945px;background:#FFFFFF;" version="1.1" viewBox="0 0 830 945" width="830.7px" zoomAndPan="magnify"><defs/><g><rect fill="#FFFFFF" height="778.2398" style="stroke:#181818;stroke-width:0.9;" width="9" x="18.9" y="84.259"/><rect fill="#FFFFFF" height="181.5363" style="stroke:#181818;stroke-width:0.9;" width="9" x="468.9" y="105.2209"/><rect fill="#FFFFFF" height="142.2773" style="stroke:#181818;stroke-width:0.9;" width="9" x="468.9" y="314.9191"/><rect fill="#FFFFFF" height="142.2773" style="stroke:#181818;stroke-width:0.9;" width="9" x="468.9" y="485.3584"/><rect fill="#FFFFFF" height="28.1619" style="stroke:#181818;stroke-width:0.9;" width="9" x="468.9" y="655.7977"/><rect fill="#FFFFFF" height="142.2773" style="stroke:#181818;stroke-width:0.9;" width="9" x="468.9" y="712.1215"/><rect fill="#FFFFFF" height="85.9535" style="stroke:#181818;stroke-width:0.9;" width="9" x="749.7" y="172.6418"/><rect fill="#FFFFFF" height="85.9535" style="stroke:#181818;stroke-width:0.9;" width="9" x="749.7" y="343.0811"/><rect fill="#FFFFFF" height="85.9535" style="stroke:#181818;stroke-width:0.9;" width="9" x="749.7" y="513.5203"/><rect fill="#FFFFFF" height="85.9535" style="stroke:#181818;stroke-width:0.9;" width="9" x="749.7" y="740.2834"/><line style="stroke:#181818;stroke-width:0.45;stroke-dasharray:5.0,5.0;" x1="23.4" x2="23.4" y1="75.259" y2="870.5988"/><line style="stroke:#181818;stroke-width:0.45;stroke-dasharray:5.0,5.0;" x1="473.4" x2="473.4" y1="75.259" y2="870.5988"/><line style="stroke:#181818;stroke-width:0.45;stroke-dasharray:5.0,5.0;" x1="754.2" x2="754.2" y1="141.0504" y2="870.5988"/><text fill="#000000" font-family="sans-serif" font-size="12.6" lengthAdjust="spacing" textLength="32.4" x="4.5" y="72.0967">Client</text><ellipse cx="23.4" cy="12.15" fill="#E3E3E3" rx="7.2" ry="7.2" style="stroke:#181818;stroke-width:0.45;"/><path d="M23.4,19.35 L23.4,43.65 M11.7,26.55 L35.1,26.55 M23.4,43.65 L11.7,57.15 M23.4,43.65 L35.1,57.15 " fill="none" style="stroke:#181818;stroke-width:0.45;"/><text fill="#000000" font-family="sans-serif" font-size="12.6" lengthAdjust="spacing" textLength="32.4" x="4.5" y="883.2955">Client</text><ellipse cx="23.4" cy="894.1078" fill="#E3E3E3" rx="7.2" ry="7.2" style="stroke:#181818;stroke-width:0.45;"/><path d="M23.4,901.3078 L23.4,925.6078 M11.7,908.5078 L35.1,908.5078 M23.4,925.6078 L11.7,939.1078 M23.4,925.6078 L35.1,939.1078 " fill="none" style="stroke:#181818;stroke-width:0.45;"/><rect fill="#E3E3E3" height="29.359" rx="2.25" ry="2.25" style="stroke:#181818;stroke-width:0.45;" width="91.8" x="427.5" y="45"/><text fill="#000000" font-family="sans-serif" font-size="12.6" lengthAdjust="spacing" textLength="79.2" x="433.8" y="64.8967">:PlaceOrderUI</text><rect fill="#E3E3E3" height="29.359" rx="2.25" ry="2.25" style="stroke:#181818;stroke-width:0.45;" width="91.8" x="427.5" y="869.6988"/><text fill="#000000" font-family="sans-serif" font-size="12.6" lengthAdjust="spacing" textLength="79.2" x="433.8" y="889.5955">:PlaceOrderUI</text><rect fill="#E3E3E3" height="29.359" rx="2.25" ry="2.25" style="stroke:#181818;stroke-width:0.45;" width="136.8" x="685.8" y="869.6988"/><text fill="#000000" font-family="sans-serif" font-size="12.6" lengthAdjust="spacing" textLength="124.2" x="692.1" y="889.5955">:PlaceOrderController</text><rect fill="#FFFFFF" height="778.2398" style="stroke:#181818;stroke-width:0.9;" width="9" x="18.9" y="84.259"/><rect fill="#FFFFFF" height="181.5363" style="stroke:#181818;stroke-width:0.9;" width="9" x="468.9" y="105.2209"/><rect fill="#FFFFFF" height="142.2773" style="stroke:#181818;stroke-width:0.9;" width="9" x="468.9" y="314.9191"/><rect fill="#FFFFFF" height="142.2773" style="stroke:#181818;stroke-width:0.9;" width="9" x="468.9" y="485.3584"/><rect fill="#FFFFFF" height="28.1619" style="stroke:#181818;stroke-width:0.9;" width="9" x="468.9" y="655.7977"/><rect fill="#FFFFFF" height="142.2773" style="stroke:#181818;stroke-width:0.9;" width="9" x="468.9" y="712.1215"/><rect fill="#FFFFFF" height="85.9535" style="stroke:#181818;stroke-width:0.9;" width="9" x="749.7" y="172.6418"/><rect fill="#FFFFFF" height="85.9535" style="stroke:#181818;stroke-width:0.9;" width="9" x="749.7" y="343.0811"/><rect fill="#FFFFFF" height="85.9535" style="stroke:#181818;stroke-width:0.9;" width="9" x="749.7" y="513.5203"/><rect fill="#FFFFFF" height="85.9535" style="stroke:#181818;stroke-width:0.9;" width="9" x="749.7" y="740.2834"/><polygon fill="#181818" points="458.1,101.6209,467.1,105.2209,458.1,108.8209,461.7,105.2209" style="stroke:#181818;stroke-width:0.9;"/><line style="stroke:#181818;stroke-width:0.9;" x1="27.9" x2="463.5" y1="105.2209" y2="105.2209"/><text fill="#000000" font-family="sans-serif" font-size="11.7" font-weight="bold" lengthAdjust="spacing" textLength="6.3" x="34.2" y="100.4845">1</text><text fill="#000000" font-family="sans-serif" font-size="11.7" lengthAdjust="spacing" textLength="236.7" x="44.1" y="100.4845">asks to place an order to purchase a property</text><polygon fill="#181818" points="675,129.7828,684,133.3828,675,136.9828,678.6,133.3828" style="stroke:#181818;stroke-width:0.9;"/><line style="stroke:#181818;stroke-width:0.9;" x1="477.9" x2="680.4" y1="133.3828" y2="133.3828"/><text fill="#000000" font-family="sans-serif" font-size="11.7" font-weight="bold" lengthAdjust="spacing" textLength="6.3" x="484.2" y="128.6464">2</text><text fill="#000000" font-family="sans-serif" font-size="11.7" lengthAdjust="spacing" textLength="32.4" x="494.1" y="128.6464">create</text><rect fill="#E3E3E3" height="29.359" rx="2.25" ry="2.25" style="stroke:#181818;stroke-width:0.45;" width="136.8" x="685.8" y="112.4209"/><text fill="#000000" font-family="sans-serif" font-size="12.6" lengthAdjust="spacing" textLength="124.2" x="692.1" y="132.3176">:PlaceOrderController</text><polygon fill="#181818" points="738.9,169.0418,747.9,172.6418,738.9,176.2418,742.5,172.6418" style="stroke:#181818;stroke-width:0.9;"/><line style="stroke:#181818;stroke-width:0.9;" x1="477.9" x2="744.3" y1="172.6418" y2="172.6418"/><text fill="#000000" font-family="sans-serif" font-size="11.7" font-weight="bold" lengthAdjust="spacing" textLength="6.3" x="484.2" y="167.9054">3</text><text fill="#000000" font-family="sans-serif" font-size="11.7" lengthAdjust="spacing" textLength="118.8" x="494.1" y="167.9054">getStoresWithAgents()</text><rect fill="none" height="53.2916" style="stroke:#000000;stroke-width:1.35;" width="142.2" x="683.1" y="179.8418"/><path d="M683.1,179.8418 L738.9,179.8418 L738.9,187.9418 L729.9,196.9418 L683.1,196.9418 L683.1,179.8418 " fill="#EEEEEE" style="stroke:#000000;stroke-width:1.8;"/><text fill="#000000" font-family="sans-serif" font-size="11.7" font-weight="bold" lengthAdjust="spacing" textLength="15.3" x="694.8" y="194.2673">ref</text><text fill="#000000" font-family="sans-serif" font-size="10.8" lengthAdjust="spacing" textLength="66.6" x="720.9" y="212.1961">Get Store List</text><text fill="#000000" font-family="sans-serif" font-size="10.8" lengthAdjust="spacing" textLength="2.7" x="752.85" y="226.5609">&#160;</text><polygon fill="#181818" points="487.8,254.9953,478.8,258.5953,487.8,262.1953,484.2,258.5953" style="stroke:#181818;stroke-width:0.9;"/><line style="stroke:#181818;stroke-width:0.9;stroke-dasharray:2.0,2.0;" x1="482.4" x2="753.3" y1="258.5953" y2="258.5953"/><text fill="#000000" font-family="sans-serif" font-size="11.7" font-weight="bold" lengthAdjust="spacing" textLength="12.6" x="493.2" y="253.8589">20</text><text fill="#000000" font-family="sans-serif" font-size="11.7" lengthAdjust="spacing" textLength="68.4" x="509.4" y="253.8589">storeDTOList</text><polygon fill="#181818" points="37.8,283.1572,28.8,286.7572,37.8,290.3572,34.2,286.7572" style="stroke:#181818;stroke-width:0.9;"/><line style="stroke:#181818;stroke-width:0.9;stroke-dasharray:2.0,2.0;" x1="32.4" x2="472.5" y1="286.7572" y2="286.7572"/><text fill="#000000" font-family="sans-serif" font-size="11.7" font-weight="bold" lengthAdjust="spacing" textLength="12.6" x="43.2" y="282.0208">21</text><text fill="#000000" font-family="sans-serif" font-size="11.7" lengthAdjust="spacing" textLength="306.9" x="59.4" y="282.0208">provides list of stores and asks to select either one or none</text><polygon fill="#181818" points="458.1,311.3191,467.1,314.9191,458.1,318.5191,461.7,314.9191" style="stroke:#181818;stroke-width:0.9;"/><line style="stroke:#181818;stroke-width:0.9;" x1="27.9" x2="463.5" y1="314.9191" y2="314.9191"/><text fill="#000000" font-family="sans-serif" font-size="11.7" font-weight="bold" lengthAdjust="spacing" textLength="12.6" x="34.2" y="310.1827">22</text><text fill="#000000" font-family="sans-serif" font-size="11.7" lengthAdjust="spacing" textLength="278.1" x="50.4" y="310.1827">selects store from list (or leaves empty for no filtering)</text><polygon fill="#181818" points="738.9,339.4811,747.9,343.0811,738.9,346.6811,742.5,343.0811" style="stroke:#181818;stroke-width:0.9;"/><line style="stroke:#181818;stroke-width:0.9;" x1="477.9" x2="744.3" y1="343.0811" y2="343.0811"/><text fill="#000000" font-family="sans-serif" font-size="11.7" font-weight="bold" lengthAdjust="spacing" textLength="12.6" x="484.2" y="338.3446">23</text><text fill="#000000" font-family="sans-serif" font-size="11.7" lengthAdjust="spacing" textLength="90" x="500.4" y="338.3446">getPriceRanges()</text><rect fill="none" height="53.2916" style="stroke:#000000;stroke-width:1.35;" width="142.2" x="683.1" y="350.2811"/><path d="M683.1,350.2811 L738.9,350.2811 L738.9,358.3811 L729.9,367.3811 L683.1,367.3811 L683.1,350.2811 " fill="#EEEEEE" style="stroke:#000000;stroke-width:1.8;"/><text fill="#000000" font-family="sans-serif" font-size="11.7" font-weight="bold" lengthAdjust="spacing" textLength="15.3" x="694.8" y="364.7065">ref</text><text fill="#000000" font-family="sans-serif" font-size="10.8" lengthAdjust="spacing" textLength="108" x="700.2" y="382.6354">Get Price Ranges List</text><text fill="#000000" font-family="sans-serif" font-size="10.8" lengthAdjust="spacing" textLength="2.7" x="752.85" y="397.0002">&#160;</text><polygon fill="#181818" points="487.8,425.4346,478.8,429.0346,487.8,432.6346,484.2,429.0346" style="stroke:#181818;stroke-width:0.9;"/><line style="stroke:#181818;stroke-width:0.9;stroke-dasharray:2.0,2.0;" x1="482.4" x2="753.3" y1="429.0346" y2="429.0346"/><text fill="#000000" font-family="sans-serif" font-size="11.7" font-weight="bold" lengthAdjust="spacing" textLength="12.6" x="493.2" y="424.2981">37</text><text fill="#000000" font-family="sans-serif" font-size="11.7" lengthAdjust="spacing" textLength="77.4" x="509.4" y="424.2981">priceRangeList</text><polygon fill="#181818" points="37.8,453.5965,28.8,457.1965,37.8,460.7965,34.2,457.1965" style="stroke:#181818;stroke-width:0.9;"/><line style="stroke:#181818;stroke-width:0.9;stroke-dasharray:2.0,2.0;" x1="32.4" x2="472.5" y1="457.1965" y2="457.1965"/><text fill="#000000" font-family="sans-serif" font-size="11.7" font-weight="bold" lengthAdjust="spacing" textLength="12.6" x="43.2" y="452.4601">38</text><text fill="#000000" font-family="sans-serif" font-size="11.7" lengthAdjust="spacing" textLength="338.4" x="59.4" y="452.4601">provides list of price ranges and asks to select either one or none</text><polygon fill="#181818" points="458.1,481.7584,467.1,485.3584,458.1,488.9584,461.7,485.3584" style="stroke:#181818;stroke-width:0.9;"/><line style="stroke:#181818;stroke-width:0.9;" x1="27.9" x2="463.5" y1="485.3584" y2="485.3584"/><text fill="#000000" font-family="sans-serif" font-size="11.7" font-weight="bold" lengthAdjust="spacing" textLength="12.6" x="34.2" y="480.622">39</text><text fill="#000000" font-family="sans-serif" font-size="11.7" lengthAdjust="spacing" textLength="309.6" x="50.4" y="480.622">selects price range from list (or leaves empty for no filtering)</text><polygon fill="#181818" points="738.9,509.9203,747.9,513.5203,738.9,517.1203,742.5,513.5203" style="stroke:#181818;stroke-width:0.9;"/><line style="stroke:#181818;stroke-width:0.9;" x1="477.9" x2="744.3" y1="513.5203" y2="513.5203"/><text fill="#000000" font-family="sans-serif" font-size="11.7" font-weight="bold" lengthAdjust="spacing" textLength="12.6" x="484.2" y="508.7839">40</text><text fill="#000000" font-family="sans-serif" font-size="11.7" lengthAdjust="spacing" textLength="214.2" x="500.4" y="508.7839">getAvailableProperties(store, priceRange)</text><rect fill="none" height="53.2916" style="stroke:#000000;stroke-width:1.35;" width="142.2" x="683.1" y="520.7203"/><path d="M683.1,520.7203 L738.9,520.7203 L738.9,528.8203 L729.9,537.8203 L683.1,537.8203 L683.1,520.7203 " fill="#EEEEEE" style="stroke:#000000;stroke-width:1.8;"/><text fill="#000000" font-family="sans-serif" font-size="11.7" font-weight="bold" lengthAdjust="spacing" textLength="15.3" x="694.8" y="535.1458">ref</text><text fill="#000000" font-family="sans-serif" font-size="10.8" lengthAdjust="spacing" textLength="127.8" x="690.3" y="553.0746">Get Available Property List</text><text fill="#000000" font-family="sans-serif" font-size="10.8" lengthAdjust="spacing" textLength="2.7" x="752.85" y="567.4395">&#160;</text><polygon fill="#181818" points="487.8,595.8738,478.8,599.4738,487.8,603.0738,484.2,599.4738" style="stroke:#181818;stroke-width:0.9;"/><line style="stroke:#181818;stroke-width:0.9;stroke-dasharray:2.0,2.0;" x1="482.4" x2="753.3" y1="599.4738" y2="599.4738"/><text fill="#000000" font-family="sans-serif" font-size="11.7" font-weight="bold" lengthAdjust="spacing" textLength="12.6" x="493.2" y="594.7374">68</text><text fill="#000000" font-family="sans-serif" font-size="11.7" lengthAdjust="spacing" textLength="61.2" x="509.4" y="594.7374">propertyList</text><polygon fill="#181818" points="37.8,624.0357,28.8,627.6357,37.8,631.2357,34.2,627.6357" style="stroke:#181818;stroke-width:0.9;"/><line style="stroke:#181818;stroke-width:0.9;stroke-dasharray:2.0,2.0;" x1="32.4" x2="472.5" y1="627.6357" y2="627.6357"/><text fill="#000000" font-family="sans-serif" font-size="11.7" font-weight="bold" lengthAdjust="spacing" textLength="12.6" x="43.2" y="622.8993">69</text><text fill="#000000" font-family="sans-serif" font-size="11.7" lengthAdjust="spacing" textLength="403.2" x="59.4" y="622.8993">provides list of properties depending on selected filters and asks to select one</text><polygon fill="#181818" points="458.1,652.1977,467.1,655.7977,458.1,659.3977,461.7,655.7977" style="stroke:#181818;stroke-width:0.9;"/><line style="stroke:#181818;stroke-width:0.9;" x1="27.9" x2="463.5" y1="655.7977" y2="655.7977"/><text fill="#000000" font-family="sans-serif" font-size="11.7" font-weight="bold" lengthAdjust="spacing" textLength="12.6" x="34.2" y="651.0612">70</text><text fill="#000000" font-family="sans-serif" font-size="11.7" lengthAdjust="spacing" textLength="128.7" x="50.4" y="651.0612">selects property from list</text><polygon fill="#181818" points="37.8,680.3596,28.8,683.9596,37.8,687.5596,34.2,683.9596" style="stroke:#181818;stroke-width:0.9;"/><line style="stroke:#181818;stroke-width:0.9;stroke-dasharray:2.0,2.0;" x1="32.4" x2="472.5" y1="683.9596" y2="683.9596"/><text fill="#000000" font-family="sans-serif" font-size="11.7" font-weight="bold" lengthAdjust="spacing" textLength="12.6" x="43.2" y="679.2231">71</text><text fill="#000000" font-family="sans-serif" font-size="11.7" lengthAdjust="spacing" textLength="71.1" x="59.4" y="679.2231">requests data</text><polygon fill="#181818" points="458.1,708.5215,467.1,712.1215,458.1,715.7215,461.7,712.1215" style="stroke:#181818;stroke-width:0.9;"/><line style="stroke:#181818;stroke-width:0.9;" x1="27.9" x2="463.5" y1="712.1215" y2="712.1215"/><text fill="#000000" font-family="sans-serif" font-size="11.7" font-weight="bold" lengthAdjust="spacing" textLength="12.6" x="34.2" y="707.3851">72</text><text fill="#000000" font-family="sans-serif" font-size="11.7" lengthAdjust="spacing" textLength="189" x="50.4" y="707.3851">types requested data (order amount)</text><polygon fill="#181818" points="738.9,736.6834,747.9,740.2834,738.9,743.8834,742.5,740.2834" style="stroke:#181818;stroke-width:0.9;"/><line style="stroke:#181818;stroke-width:0.9;" x1="477.9" x2="744.3" y1="740.2834" y2="740.2834"/><text fill="#000000" font-family="sans-serif" font-size="11.7" font-weight="bold" lengthAdjust="spacing" textLength="12.6" x="484.2" y="735.547">73</text><text fill="#000000" font-family="sans-serif" font-size="11.7" lengthAdjust="spacing" textLength="238.5" x="500.4" y="735.547">placeOrder(orderAmount, propertyDescription)</text><rect fill="none" height="53.2916" style="stroke:#000000;stroke-width:1.35;" width="142.2" x="683.1" y="747.4834"/><path d="M683.1,747.4834 L738.9,747.4834 L738.9,755.5834 L729.9,764.5834 L683.1,764.5834 L683.1,747.4834 " fill="#EEEEEE" style="stroke:#000000;stroke-width:1.8;"/><text fill="#000000" font-family="sans-serif" font-size="11.7" font-weight="bold" lengthAdjust="spacing" textLength="15.3" x="694.8" y="761.9089">ref</text><text fill="#000000" font-family="sans-serif" font-size="10.8" lengthAdjust="spacing" textLength="114.3" x="697.05" y="779.8377">Create Purchase Order</text><text fill="#000000" font-family="sans-serif" font-size="10.8" lengthAdjust="spacing" textLength="2.7" x="752.85" y="794.2025">&#160;</text><polygon fill="#181818" points="487.8,822.6369,478.8,826.2369,487.8,829.8369,484.2,826.2369" style="stroke:#181818;stroke-width:0.9;"/><line style="stroke:#181818;stroke-width:0.9;stroke-dasharray:2.0,2.0;" x1="482.4" x2="753.3" y1="826.2369" y2="826.2369"/><text fill="#000000" font-family="sans-serif" font-size="11.7" font-weight="bold" lengthAdjust="spacing" textLength="18.9" x="493.2" y="821.5005">109</text><text fill="#000000" font-family="sans-serif" font-size="11.7" lengthAdjust="spacing" textLength="26.1" x="515.7" y="821.5005">order</text><polygon fill="#181818" points="37.8,850.7988,28.8,854.3988,37.8,857.9988,34.2,854.3988" style="stroke:#181818;stroke-width:0.9;"/><line style="stroke:#181818;stroke-width:0.9;stroke-dasharray:2.0,2.0;" x1="32.4" x2="472.5" y1="854.3988" y2="854.3988"/><text fill="#000000" font-family="sans-serif" font-size="11.7" font-weight="bold" lengthAdjust="spacing" textLength="18.9" x="43.2" y="849.6624">110</text><text fill="#000000" font-family="sans-serif" font-size="11.7" lengthAdjust="spacing" textLength="142.2" x="65.7" y="849.6624">displays operation success</text><!--SRC=[jLLDRniX4BtlhnZv54U9bBPIFto8P3bI5IbIh7oePyBEsiWiK61TxR_l0BlOSTVkHasv60Fpvhrv0-isGXbcMGsrLfglhQuHl6smS7d7CBvXAtpqhKImo3rJAxb_mArPgNy9jOAAIOT5mHglLLE_eAKvzzh2P245AZy1vY1D2uhrWWl3b8V9R2aPntjReds-ZQUURu-UM6ZbhPOIRS9xUhWhYfX9R9d7Fa41DD8SBgy946PqVEF0Qp0139W27G3ZIcFvcZbQ16ErGUlR291HYL1S81n22qdFpmcHMwJTkFDwb_PMw1z9FReVmg_dAoBYpgRvw8vl4D2lMgn0RudJgrKQtz53H8CxuJfrD52L8QR_koizVBpAuP7FPLy45r1kdkuZJd-an64-GL1GbEeu2yNPYX8TI8e6NIKqHxKiStKTIceJG59DFBH2AZCe-YqEClKrFN0fnRi43HKrPSfsHZ0IsPRIOMry2rN4XKf8ZvOQSFg7PSTyMLh1yO4w6V_HaWW42MciCv- -7776P5Rluqt40vl8_G-7zXAypQT1emvDcc-PaEn5uZBTI45cnPwusAlKWUVZdSleqC6tO_tx_7KVA_j8NdGk9hZiuP1_8xphDLEy8JBXWTMgApsMNJK7VJrXv4apkp9a9uTVm27w5dysw0YaP9wDR2BV6XBNHPAW41fw9xp8hDQDyjFJ17AlcFnjIE7p67sH5TsWurOOBxGwTjd_tZEB-DB3ilzGn7mZkkN3rRVYi5LsLpxoVVDDBuKZpQs3e8y5NU0Qpj6vWTh_1W00]--></g></svg>