<?xml version="1.0" encoding="us-ascii" standalone="no"?><svg xmlns="http://www.w3.org/2000/svg" xmlns:xlink="http://www.w3.org/1999/xlink" contentStyleType="text/css" height="916.2px" preserveAspectRatio="none" style="width:1170px;height:916px;background:#FFFFFF;" version="1.1" viewBox="0 0 1170 916" width="1170px" zoomAndPan="magnify"><defs/><g><rect fill="#FFFFFF" height="738.1354" style="stroke:#181818;stroke-width:0.9;" width="9" x="152.1" y="105.1418"/><rect fill="#FFFFFF" height="28.1619" style="stroke:#181818;stroke-width:0.9;" width="9" x="273.15" y="133.3037"/><rect fill="#FFFFFF" height="28.1619" style="stroke:#181818;stroke-width:0.9;" width="9" x="369.45" y="189.6275"/><rect fill="#FFFFFF" height="569.1639" style="stroke:#181818;stroke-width:0.9;" width="9" x="475.2" y="245.9514"/><rect fill="#FFFFFF" height="413.0543" style="stroke:#181818;stroke-width:0.9;" width="9" x="699.3" y="373.899"/><rect fill="#FFFFFF" height="27" style="stroke:#181818;stroke-width:0.9;" width="9" x="1120.5" y="425.7229"/><rect fill="#FFFFFF" height="27" style="stroke:#181818;stroke-width:0.9;" width="9" x="1120.5" y="480.8848"/><rect fill="#FFFFFF" height="27" style="stroke:#181818;stroke-width:0.9;" width="9" x="1120.5" y="536.0467"/><rect fill="#FFFFFF" height="27" style="stroke:#181818;stroke-width:0.9;" width="9" x="1120.5" y="591.2086"/><rect fill="#FFFFFF" height="27" style="stroke:#181818;stroke-width:0.9;" width="9" x="1120.5" y="646.3705"/><rect fill="none" height="783.6592" style="stroke:#000000;stroke-width:1.35;" width="1161.9" x="2.7" y="66.818"/><rect fill="none" height="87.1857" style="stroke:#000000;stroke-width:1.35;" width="261" x="408.6" y="259.4514"/><rect fill="none" height="57.2238" style="stroke:#000000;stroke-width:1.35;" width="243" x="417.6" y="283.1133"/><rect fill="none" height="372.2924" style="stroke:#000000;stroke-width:1.35;" width="504.9" x="650.7" y="387.399"/><line style="stroke:#181818;stroke-width:0.45;stroke-dasharray:5.0,5.0;" x1="156.6" x2="156.6" y1="51.518" y2="865.7771"/><line style="stroke:#181818;stroke-width:0.45;stroke-dasharray:5.0,5.0;" x1="277.2" x2="277.2" y1="51.518" y2="865.7771"/><line style="stroke:#181818;stroke-width:0.45;stroke-dasharray:5.0,5.0;" x1="373.5" x2="373.5" y1="51.518" y2="865.7771"/><line style="stroke:#181818;stroke-width:0.45;stroke-dasharray:5.0,5.0;" x1="479.7" x2="479.7" y1="51.518" y2="865.7771"/><line style="stroke:#181818;stroke-width:0.45;stroke-dasharray:5.0,5.0;" x1="703.8" x2="703.8" y1="51.518" y2="865.7771"/><line style="stroke:#181818;stroke-width:0.45;stroke-dasharray:5.0,5.0;" x1="1059.3" x2="1059.3" y1="709.2" y2="865.7771"/><line style="stroke:#181818;stroke-width:0.45;stroke-dasharray:5.0,5.0;" x1="1125" x2="1125" y1="51.518" y2="865.7771"/><rect fill="#E3E3E3" height="29.359" rx="2.25" ry="2.25" style="stroke:#181818;stroke-width:0.45;" width="136.8" x="88.2" y="21.259"/><text fill="#000000" font-family="sans-serif" font-size="12.6" lengthAdjust="spacing" textLength="124.2" x="94.5" y="41.1557">:PlaceOrderController</text><rect fill="#E3E3E3" height="29.359" rx="2.25" ry="2.25" style="stroke:#181818;stroke-width:0.45;" width="136.8" x="88.2" y="864.8771"/><text fill="#000000" font-family="sans-serif" font-size="12.6" lengthAdjust="spacing" textLength="124.2" x="94.5" y="884.7738">:PlaceOrderController</text><rect fill="#E3E3E3" height="29.359" rx="2.25" ry="2.25" style="stroke:#181818;stroke-width:0.45;" width="87.3" x="234" y="21.259"/><text fill="#000000" font-family="sans-serif" font-size="12.6" lengthAdjust="spacing" textLength="74.7" x="240.3" y="41.1557">:Repositories</text><rect fill="#E3E3E3" height="29.359" rx="2.25" ry="2.25" style="stroke:#181818;stroke-width:0.45;" width="87.3" x="234" y="864.8771"/><text fill="#000000" font-family="sans-serif" font-size="12.6" lengthAdjust="spacing" textLength="74.7" x="240.3" y="884.7738">:Repositories</text><rect fill="#E3E3E3" height="46.118" rx="2.25" ry="2.25" style="stroke:#181818;stroke-width:0.45;" width="87.3" x="330.3" y="4.5"/><text fill="#000000" font-family="sans-serif" font-size="12.6" lengthAdjust="spacing" textLength="66.6" x="340.65" y="24.3967">repositories</text><text fill="#000000" font-family="sans-serif" font-size="12.6" lengthAdjust="spacing" textLength="74.7" x="336.6" y="41.1557">:Repositories</text><rect fill="#E3E3E3" height="46.118" rx="2.25" ry="2.25" style="stroke:#181818;stroke-width:0.45;" width="87.3" x="330.3" y="864.8771"/><text fill="#000000" font-family="sans-serif" font-size="12.6" lengthAdjust="spacing" textLength="66.6" x="340.65" y="884.7738">repositories</text><text fill="#000000" font-family="sans-serif" font-size="12.6" lengthAdjust="spacing" textLength="74.7" x="336.6" y="901.5328">:Repositories</text><rect fill="#E3E3E3" height="46.118" rx="2.25" ry="2.25" style="stroke:#181818;stroke-width:0.45;" width="106.2" x="426.6" y="4.5"/><text fill="#000000" font-family="sans-serif" font-size="12.6" lengthAdjust="spacing" textLength="93.6" x="432.9" y="24.3967">storeRepository:</text><text fill="#000000" font-family="sans-serif" font-size="12.6" lengthAdjust="spacing" textLength="91.8" x="433.8" y="41.1557">StoreRepository</text><rect fill="#E3E3E3" height="46.118" rx="2.25" ry="2.25" style="stroke:#181818;stroke-width:0.45;" width="106.2" x="426.6" y="864.8771"/><text fill="#000000" font-family="sans-serif" font-size="12.6" lengthAdjust="spacing" textLength="93.6" x="432.9" y="884.7738">storeRepository:</text><text fill="#000000" font-family="sans-serif" font-size="12.6" lengthAdjust="spacing" textLength="91.8" x="433.8" y="901.5328">StoreRepository</text><rect fill="#E3E3E3" height="46.118" rx="2.25" ry="2.25" style="stroke:#181818;stroke-width:0.45;" width="88.2" x="659.7" y="4.5"/><text fill="#000000" font-family="sans-serif" font-size="12.6" lengthAdjust="spacing" textLength="75.6" x="666" y="24.3967">storeMapper:</text><text fill="#000000" font-family="sans-serif" font-size="12.6" lengthAdjust="spacing" textLength="73.8" x="666.9" y="41.1557">StoreMapper</text><rect fill="#E3E3E3" height="46.118" rx="2.25" ry="2.25" style="stroke:#181818;stroke-width:0.45;" width="88.2" x="659.7" y="864.8771"/><text fill="#000000" font-family="sans-serif" font-size="12.6" lengthAdjust="spacing" textLength="75.6" x="666" y="884.7738">storeMapper:</text><text fill="#000000" font-family="sans-serif" font-size="12.6" lengthAdjust="spacing" textLength="73.8" x="666.9" y="901.5328">StoreMapper</text><rect fill="#E3E3E3" height="29.359" rx="2.25" ry="2.25" style="stroke:#181818;stroke-width:0.45;" width="70.2" x="1024.2" y="864.8771"/><text fill="#000000" font-family="sans-serif" font-size="12.6" lengthAdjust="spacing" textLength="57.6" x="1030.5" y="884.7738">StoreDTO</text><rect fill="#E3E3E3" height="29.359" rx="2.25" ry="2.25" style="stroke:#181818;stroke-width:0.45;" width="43.2" x="1103.4" y="21.259"/><text fill="#000000" font-family="sans-serif" font-size="12.6" lengthAdjust="spacing" textLength="30.6" x="1109.7" y="41.1557">Store</text><rect fill="#E3E3E3" height="29.359" rx="2.25" ry="2.25" style="stroke:#181818;stroke-width:0.45;" width="43.2" x="1103.4" y="864.8771"/><text fill="#000000" font-family="sans-serif" font-size="12.6" lengthAdjust="spacing" textLength="30.6" x="1109.7" y="884.7738">Store</text><rect fill="#FFFFFF" height="738.1354" style="stroke:#181818;stroke-width:0.9;" width="9" x="152.1" y="105.1418"/><rect fill="#FFFFFF" height="28.1619" style="stroke:#181818;stroke-width:0.9;" width="9" x="273.15" y="133.3037"/><rect fill="#FFFFFF" height="28.1619" style="stroke:#181818;stroke-width:0.9;" width="9" x="369.45" y="189.6275"/><rect fill="#FFFFFF" height="569.1639" style="stroke:#181818;stroke-width:0.9;" width="9" x="475.2" y="245.9514"/><rect fill="#FFFFFF" height="413.0543" style="stroke:#181818;stroke-width:0.9;" width="9" x="699.3" y="373.899"/><rect fill="#FFFFFF" height="27" style="stroke:#181818;stroke-width:0.9;" width="9" x="1120.5" y="425.7229"/><rect fill="#FFFFFF" height="27" style="stroke:#181818;stroke-width:0.9;" width="9" x="1120.5" y="480.8848"/><rect fill="#FFFFFF" height="27" style="stroke:#181818;stroke-width:0.9;" width="9" x="1120.5" y="536.0467"/><rect fill="#FFFFFF" height="27" style="stroke:#181818;stroke-width:0.9;" width="9" x="1120.5" y="591.2086"/><rect fill="#FFFFFF" height="27" style="stroke:#181818;stroke-width:0.9;" width="9" x="1120.5" y="646.3705"/><path d="M2.7,66.818 L120.6,66.818 L120.6,75.1799 L111.6,84.1799 L2.7,84.1799 L2.7,66.818 " fill="#EEEEEE" style="stroke:#000000;stroke-width:1.35;"/><rect fill="none" height="783.6592" style="stroke:#000000;stroke-width:1.35;" width="1161.9" x="2.7" y="66.818"/><text fill="#000000" font-family="sans-serif" font-size="11.7" font-weight="bold" lengthAdjust="spacing" textLength="77.4" x="16.2" y="80.3435">Get Store List</text><polygon fill="#181818" points="141.3,101.5418,150.3,105.1418,141.3,108.7418,144.9,105.1418" style="stroke:#181818;stroke-width:0.9;"/><line style="stroke:#181818;stroke-width:0.9;" x1="0" x2="146.7" y1="105.1418" y2="105.1418"/><text fill="#000000" font-family="sans-serif" font-size="11.7" font-weight="bold" lengthAdjust="spacing" textLength="6.3" x="6.3" y="100.4054">3</text><text fill="#000000" font-family="sans-serif" font-size="11.7" lengthAdjust="spacing" textLength="118.8" x="16.2" y="100.4054">getStoresWithAgents()</text><polygon fill="#181818" points="262.35,129.7037,271.35,133.3037,262.35,136.9037,265.95,133.3037" style="stroke:#181818;stroke-width:0.9;"/><line style="stroke:#181818;stroke-width:0.9;" x1="161.1" x2="267.75" y1="133.3037" y2="133.3037"/><text fill="#000000" font-family="sans-serif" font-size="11.7" font-weight="bold" lengthAdjust="spacing" textLength="6.3" x="167.4" y="128.5673">4</text><text fill="#000000" font-family="sans-serif" font-size="11.7" lengthAdjust="spacing" textLength="67.5" x="177.3" y="128.5673">getInstance()</text><polygon fill="#181818" points="171,157.8656,162,161.4656,171,165.0656,167.4,161.4656" style="stroke:#181818;stroke-width:0.9;"/><line style="stroke:#181818;stroke-width:0.9;stroke-dasharray:2.0,2.0;" x1="165.6" x2="276.75" y1="161.4656" y2="161.4656"/><text fill="#000000" font-family="sans-serif" font-size="11.7" font-weight="bold" lengthAdjust="spacing" textLength="6.3" x="176.4" y="156.7292">5</text><text fill="#000000" font-family="sans-serif" font-size="11.7" lengthAdjust="spacing" textLength="60.3" x="186.3" y="156.7292">repositories</text><polygon fill="#181818" points="358.65,186.0275,367.65,189.6275,358.65,193.2275,362.25,189.6275" style="stroke:#181818;stroke-width:0.9;"/><line style="stroke:#181818;stroke-width:0.9;" x1="161.1" x2="364.05" y1="189.6275" y2="189.6275"/><text fill="#000000" font-family="sans-serif" font-size="11.7" font-weight="bold" lengthAdjust="spacing" textLength="6.3" x="167.4" y="184.8911">6</text><text fill="#000000" font-family="sans-serif" font-size="11.7" lengthAdjust="spacing" textLength="107.1" x="177.3" y="184.8911">getStoreRepository()</text><polygon fill="#181818" points="171,214.1895,162,217.7895,171,221.3895,167.4,217.7895" style="stroke:#181818;stroke-width:0.9;"/><line style="stroke:#181818;stroke-width:0.9;stroke-dasharray:2.0,2.0;" x1="165.6" x2="373.05" y1="217.7895" y2="217.7895"/><text fill="#000000" font-family="sans-serif" font-size="11.7" font-weight="bold" lengthAdjust="spacing" textLength="6.3" x="176.4" y="213.053">7</text><text fill="#000000" font-family="sans-serif" font-size="11.7" lengthAdjust="spacing" textLength="81.9" x="186.3" y="213.053">storeRepository</text><polygon fill="#181818" points="464.4,242.3514,473.4,245.9514,464.4,249.5514,468,245.9514" style="stroke:#181818;stroke-width:0.9;"/><line style="stroke:#181818;stroke-width:0.9;" x1="161.1" x2="469.8" y1="245.9514" y2="245.9514"/><text fill="#000000" font-family="sans-serif" font-size="11.7" font-weight="bold" lengthAdjust="spacing" textLength="6.3" x="167.4" y="241.2149">8</text><text fill="#000000" font-family="sans-serif" font-size="11.7" lengthAdjust="spacing" textLength="142.2" x="177.3" y="241.2149">getStoresWithAgentsDTO()</text><path d="M408.6,259.4514 L474.3,259.4514 L474.3,267.8133 L465.3,276.8133 L408.6,276.8133 L408.6,259.4514 " fill="#EEEEEE" style="stroke:#000000;stroke-width:1.35;"/><rect fill="none" height="87.1857" style="stroke:#000000;stroke-width:1.35;" width="261" x="408.6" y="259.4514"/><text fill="#000000" font-family="sans-serif" font-size="11.7" font-weight="bold" lengthAdjust="spacing" textLength="25.2" x="422.1" y="272.9769">loop</text><text fill="#000000" font-family="sans-serif" font-size="9.9" font-weight="bold" lengthAdjust="spacing" textLength="125.1" x="487.8" y="271.9345">[for each store in stores]</text><path d="M417.6,283.1133 L476.1,283.1133 L476.1,291.4752 L467.1,300.4752 L417.6,300.4752 L417.6,283.1133 " fill="#EEEEEE" style="stroke:#000000;stroke-width:1.35;"/><rect fill="none" height="57.2238" style="stroke:#000000;stroke-width:1.35;" width="243" x="417.6" y="283.1133"/><text fill="#000000" font-family="sans-serif" font-size="11.7" font-weight="bold" lengthAdjust="spacing" textLength="18" x="431.1" y="296.6388">opt</text><text fill="#000000" font-family="sans-serif" font-size="9.9" font-weight="bold" lengthAdjust="spacing" textLength="107.1" x="489.6" y="295.5964">[if store.hasAgents()]</text><line style="stroke:#181818;stroke-width:0.9;" x1="484.2" x2="522" y1="321.4371" y2="321.4371"/><line style="stroke:#181818;stroke-width:0.9;" x1="522" x2="522" y1="321.4371" y2="333.1371"/><line style="stroke:#181818;stroke-width:0.9;" x1="485.1" x2="522" y1="333.1371" y2="333.1371"/><polygon fill="#181818" points="494.1,329.5371,485.1,333.1371,494.1,336.7371,490.5,333.1371" style="stroke:#181818;stroke-width:0.9;"/><text fill="#000000" font-family="sans-serif" font-size="11.7" font-weight="bold" lengthAdjust="spacing" textLength="6.3" x="490.5" y="316.7007">9</text><text fill="#000000" font-family="sans-serif" font-size="11.7" lengthAdjust="spacing" textLength="149.4" x="500.4" y="316.7007">storesWithAgents.add(store)</text><polygon fill="#181818" points="688.5,370.299,697.5,373.899,688.5,377.499,692.1,373.899" style="stroke:#181818;stroke-width:0.9;"/><line style="stroke:#181818;stroke-width:0.9;" x1="484.2" x2="693.9" y1="373.899" y2="373.899"/><text fill="#000000" font-family="sans-serif" font-size="11.7" font-weight="bold" lengthAdjust="spacing" textLength="12.6" x="490.5" y="369.1626">10</text><text fill="#000000" font-family="sans-serif" font-size="11.7" lengthAdjust="spacing" textLength="181.8" x="506.7" y="369.1626">storeListToDTO(storesWithAgents)</text><path d="M650.7,387.399 L716.4,387.399 L716.4,395.7609 L707.4,404.7609 L650.7,404.7609 L650.7,387.399 " fill="#EEEEEE" style="stroke:#000000;stroke-width:1.35;"/><rect fill="none" height="372.2924" style="stroke:#000000;stroke-width:1.35;" width="504.9" x="650.7" y="387.399"/><text fill="#000000" font-family="sans-serif" font-size="11.7" font-weight="bold" lengthAdjust="spacing" textLength="25.2" x="664.2" y="400.9245">loop</text><text fill="#000000" font-family="sans-serif" font-size="9.9" font-weight="bold" lengthAdjust="spacing" textLength="182.7" x="729.9" y="399.8821">[for each store in storesWithAgents]</text><polygon fill="#181818" points="1109.7,422.1229,1118.7,425.7229,1109.7,429.3229,1113.3,425.7229" style="stroke:#181818;stroke-width:0.9;"/><line style="stroke:#181818;stroke-width:0.9;stroke-dasharray:2.0,2.0;" x1="708.3" x2="1115.1" y1="425.7229" y2="425.7229"/><text fill="#000000" font-family="sans-serif" font-size="11.7" font-weight="bold" lengthAdjust="spacing" textLength="12.6" x="714.6" y="420.9864">11</text><text fill="#000000" font-family="sans-serif" font-size="11.7" lengthAdjust="spacing" textLength="55.8" x="730.8" y="420.9864">id = getId()</text><polygon fill="#181818" points="1109.7,477.2848,1118.7,480.8848,1109.7,484.4848,1113.3,480.8848" style="stroke:#181818;stroke-width:0.9;"/><line style="stroke:#181818;stroke-width:0.9;stroke-dasharray:2.0,2.0;" x1="708.3" x2="1115.1" y1="480.8848" y2="480.8848"/><text fill="#000000" font-family="sans-serif" font-size="11.7" font-weight="bold" lengthAdjust="spacing" textLength="12.6" x="714.6" y="476.1483">12</text><text fill="#000000" font-family="sans-serif" font-size="11.7" lengthAdjust="spacing" textLength="158.4" x="730.8" y="476.1483">designation = getDesignation()</text><polygon fill="#181818" points="1109.7,532.4467,1118.7,536.0467,1109.7,539.6467,1113.3,536.0467" style="stroke:#181818;stroke-width:0.9;"/><line style="stroke:#181818;stroke-width:0.9;stroke-dasharray:2.0,2.0;" x1="708.3" x2="1115.1" y1="536.0467" y2="536.0467"/><text fill="#000000" font-family="sans-serif" font-size="11.7" font-weight="bold" lengthAdjust="spacing" textLength="12.6" x="714.6" y="531.3103">13</text><text fill="#000000" font-family="sans-serif" font-size="11.7" lengthAdjust="spacing" textLength="122.4" x="730.8" y="531.3103">address = getAddress()</text><polygon fill="#181818" points="1109.7,587.6086,1118.7,591.2086,1109.7,594.8086,1113.3,591.2086" style="stroke:#181818;stroke-width:0.9;"/><line style="stroke:#181818;stroke-width:0.9;stroke-dasharray:2.0,2.0;" x1="708.3" x2="1115.1" y1="591.2086" y2="591.2086"/><text fill="#000000" font-family="sans-serif" font-size="11.7" font-weight="bold" lengthAdjust="spacing" textLength="12.6" x="714.6" y="586.4722">14</text><text fill="#000000" font-family="sans-serif" font-size="11.7" lengthAdjust="spacing" textLength="95.4" x="730.8" y="586.4722">email = getEmail()</text><polygon fill="#181818" points="1109.7,642.7705,1118.7,646.3705,1109.7,649.9705,1113.3,646.3705" style="stroke:#181818;stroke-width:0.9;"/><line style="stroke:#181818;stroke-width:0.9;stroke-dasharray:2.0,2.0;" x1="708.3" x2="1115.1" y1="646.3705" y2="646.3705"/><text fill="#000000" font-family="sans-serif" font-size="11.7" font-weight="bold" lengthAdjust="spacing" textLength="12.6" x="714.6" y="641.6341">15</text><text fill="#000000" font-family="sans-serif" font-size="11.7" lengthAdjust="spacing" textLength="183.6" x="730.8" y="641.6341">phoneNumber = getPhoneNumber()</text><polygon fill="#181818" points="1013.4,697.9324,1022.4,701.5324,1013.4,705.1324,1017,701.5324" style="stroke:#181818;stroke-width:0.9;"/><line style="stroke:#181818;stroke-width:0.9;stroke-dasharray:2.0,2.0;" x1="708.3" x2="1018.8" y1="701.5324" y2="701.5324"/><text fill="#000000" font-family="sans-serif" font-size="11.7" font-weight="bold" lengthAdjust="spacing" textLength="12.6" x="714.6" y="696.796">16</text><text fill="#000000" font-family="sans-serif" font-size="11.7" lengthAdjust="spacing" textLength="278.1" x="730.8" y="696.796">create(id, designation, address, email, phoneNumber)</text><rect fill="#E3E3E3" height="29.359" rx="2.25" ry="2.25" style="stroke:#181818;stroke-width:0.45;" width="70.2" x="1024.2" y="680.5705"/><text fill="#000000" font-family="sans-serif" font-size="12.6" lengthAdjust="spacing" textLength="57.6" x="1030.5" y="700.4672">StoreDTO</text><line style="stroke:#181818;stroke-width:0.9;" x1="708.3" x2="746.1" y1="740.7914" y2="740.7914"/><line style="stroke:#181818;stroke-width:0.9;" x1="746.1" x2="746.1" y1="740.7914" y2="752.4914"/><line style="stroke:#181818;stroke-width:0.9;" x1="709.2" x2="746.1" y1="752.4914" y2="752.4914"/><polygon fill="#181818" points="718.2,748.8914,709.2,752.4914,718.2,756.0914,714.6,752.4914" style="stroke:#181818;stroke-width:0.9;"/><text fill="#000000" font-family="sans-serif" font-size="11.7" font-weight="bold" lengthAdjust="spacing" textLength="12.6" x="714.6" y="736.055">17</text><text fill="#000000" font-family="sans-serif" font-size="11.7" lengthAdjust="spacing" textLength="149.4" x="730.8" y="736.055">storeDTOList.add(StoreDTO)</text><polygon fill="#181818" points="494.1,783.3533,485.1,786.9533,494.1,790.5533,490.5,786.9533" style="stroke:#181818;stroke-width:0.9;"/><line style="stroke:#181818;stroke-width:0.9;stroke-dasharray:2.0,2.0;" x1="488.7" x2="702.9" y1="786.9533" y2="786.9533"/><text fill="#000000" font-family="sans-serif" font-size="11.7" font-weight="bold" lengthAdjust="spacing" textLength="12.6" x="499.5" y="782.2169">18</text><text fill="#000000" font-family="sans-serif" font-size="11.7" lengthAdjust="spacing" textLength="68.4" x="515.7" y="782.2169">storeDTOList</text><polygon fill="#181818" points="171,811.5152,162,815.1152,171,818.7152,167.4,815.1152" style="stroke:#181818;stroke-width:0.9;"/><line style="stroke:#181818;stroke-width:0.9;stroke-dasharray:2.0,2.0;" x1="165.6" x2="478.8" y1="815.1152" y2="815.1152"/><text fill="#000000" font-family="sans-serif" font-size="11.7" font-weight="bold" lengthAdjust="spacing" textLength="12.6" x="176.4" y="810.3788">19</text><text fill="#000000" font-family="sans-serif" font-size="11.7" lengthAdjust="spacing" textLength="68.4" x="192.6" y="810.3788">storeDTOList</text><polygon fill="#181818" points="9.9,839.6771,0.9,843.2771,9.9,846.8771,6.3,843.2771" style="stroke:#181818;stroke-width:0.9;"/><line style="stroke:#181818;stroke-width:0.9;stroke-dasharray:2.0,2.0;" x1="4.5" x2="155.7" y1="843.2771" y2="843.2771"/><text fill="#000000" font-family="sans-serif" font-size="11.7" font-weight="bold" lengthAdjust="spacing" textLength="12.6" x="15.3" y="838.5407">20</text><text fill="#000000" font-family="sans-serif" font-size="11.7" lengthAdjust="spacing" textLength="68.4" x="31.5" y="838.5407">storeDTOList</text><!--SRC=[lLN9Rjim4BthAmOvsO6LIsz66y18YY20KncoW5voOQMnH4GY1P9kaRyl5osKn1ZfeUQ9uioyzpYBADyeQuaW3JISyRmIl45GueoH72mjoTz8YKVrNYC8p1LXPUqxo8eK_0zb9Pn8BJ6A8d9Md9sRNoZWInHfBqLpsXAcu6Pxg4cEYIXGF72c1Azh53T093nawNxccsBB9LLSK9JMPpXuFrAZGjDCGuGNySgM08VzBfj6I6t54NVxoexJ4njtpD8q4FT2sXP57-E-Ul-NtM4QONqUiwHpI5Az3tWCvYWg1J-ty8GAh0NsLAe8kXNVsvJ15afKrYv_KbNjIcHAhjQ37yaL_KqKkWGFnpPMOmHIwY2VcTIbpZ445Qh3u6LM23Nk56_1hz8GLk15-BbkKqdlxcE8ftUYsPP-OZBBmiHZBcVjCF7t52x1UbscKy8rqUN-I9jjhxcqclCMJbo0fgsSCA3CRUJ2cxSAwCbPxoeY5ttGByCrwfGpaNUaA5RsS1c9h8Y2Xs4ADmCzX-dTZ9iSp2cNH7vUp1ZzKsP6u90keoYsrq_CzMa1tsop5wkBCf9bURnk2DgNP0LAMZAYg1u6o_eu7bo1NbTMfqSwwftxk08jDeJMZlIxsLw1igqumn_k0RB4X_7WVzFh3h-zrHfoWJfaHOkDN_TDNuMDoyl6rxh-4Fk-stMpf3dCEDbPxL-LzMSdSnGx_W0wmCjt3uwYHPd_Fpy7jqpbrpY-YEF5syTCtn3i6_aN]--></g></svg>