<?xml version="1.0" encoding="us-ascii" standalone="no"?><svg xmlns="http://www.w3.org/2000/svg" xmlns:xlink="http://www.w3.org/1999/xlink" contentStyleType="text/css" height="1370.7px" preserveAspectRatio="none" style="width:1645px;height:1370px;background:#FFFFFF;" version="1.1" viewBox="0 0 1645 1370" width="1645.2px" zoomAndPan="magnify"><defs/><g><rect fill="#FFFFFF" height="1192.4754" style="stroke:#181818;stroke-width:0.9;" width="9" x="253.8" y="105.1418"/><rect fill="#FFFFFF" height="28.1619" style="stroke:#181818;stroke-width:0.9;" width="9" x="471.15" y="133.3037"/><rect fill="#FFFFFF" height="28.1619" style="stroke:#181818;stroke-width:0.9;" width="9" x="471.15" y="481.7848"/><rect fill="#FFFFFF" height="28.1619" style="stroke:#181818;stroke-width:0.9;" width="9" x="627.3" y="189.6275"/><rect fill="#FFFFFF" height="207.6715" style="stroke:#181818;stroke-width:0.9;" width="9" x="627.3" y="245.9514"/><rect fill="#FFFFFF" height="38.0619" style="stroke:#181818;stroke-width:0.9;" width="9" x="631.8" y="304.9752"/><rect fill="#FFFFFF" height="731.3467" style="stroke:#181818;stroke-width:0.9;" width="9" x="947.7" y="538.1086"/><rect fill="#FFFFFF" height="38.0619" style="stroke:#181818;stroke-width:0.9;" width="9" x="952.2" y="597.1324"/><rect fill="#FFFFFF" height="525.4752" style="stroke:#181818;stroke-width:0.9;" width="9" x="1222.2" y="669.6563"/><rect fill="#FFFFFF" height="27" style="stroke:#181818;stroke-width:0.9;" width="9" x="1485.9" y="697.8182"/><rect fill="#FFFFFF" height="27" style="stroke:#181818;stroke-width:0.9;" width="9" x="1485.9" y="752.9801"/><rect fill="#FFFFFF" height="27" style="stroke:#181818;stroke-width:0.9;" width="9" x="1485.9" y="808.142"/><rect fill="#FFFFFF" height="27" style="stroke:#181818;stroke-width:0.9;" width="9" x="1485.9" y="863.3039"/><rect fill="#FFFFFF" height="27" style="stroke:#181818;stroke-width:0.9;" width="9" x="1485.9" y="918.4658"/><rect fill="#FFFFFF" height="27" style="stroke:#181818;stroke-width:0.9;" width="9" x="1485.9" y="973.6277"/><rect fill="#FFFFFF" height="27" style="stroke:#181818;stroke-width:0.9;" width="9" x="1485.9" y="1028.7896"/><rect fill="#FFFFFF" height="27" style="stroke:#181818;stroke-width:0.9;" width="9" x="1485.9" y="1083.9516"/><rect fill="none" height="1237.9992" style="stroke:#000000;stroke-width:1.35;" width="1637.55" x="2.7" y="66.818"/><rect fill="none" height="166.9096" style="stroke:#000000;stroke-width:1.35;" width="423.9" x="532.8" y="259.4514"/><rect fill="none" height="57.2238" style="stroke:#000000;stroke-width:1.35;" width="340.2" x="541.8" y="362.8371"/><rect fill="none" height="690.5848" style="stroke:#000000;stroke-width:1.35;" width="750.6" x="880.65" y="551.6086"/><line style="stroke:#181818;stroke-width:0.45;stroke-dasharray:5.0,5.0;" x1="258.3" x2="258.3" y1="51.518" y2="1320.1172"/><line style="stroke:#181818;stroke-width:0.45;stroke-dasharray:5.0,5.0;" x1="378.9" x2="378.9" y1="51.518" y2="1320.1172"/><line style="stroke:#181818;stroke-width:0.45;stroke-dasharray:5.0,5.0;" x1="475.2" x2="475.2" y1="51.518" y2="1320.1172"/><line style="stroke:#181818;stroke-width:0.45;stroke-dasharray:5.0,5.0;" x1="631.8" x2="631.8" y1="51.518" y2="1320.1172"/><line style="stroke:#181818;stroke-width:0.45;stroke-dasharray:5.0,5.0;" x1="951.75" x2="951.75" y1="51.518" y2="1320.1172"/><line style="stroke:#181818;stroke-width:0.45;stroke-dasharray:5.0,5.0;" x1="1226.25" x2="1226.25" y1="51.518" y2="1320.1172"/><line style="stroke:#181818;stroke-width:0.45;stroke-dasharray:5.0,5.0;" x1="1489.95" x2="1489.95" y1="51.518" y2="1320.1172"/><line style="stroke:#181818;stroke-width:0.45;stroke-dasharray:5.0,5.0;" x1="1576.35" x2="1576.35" y1="1155.1605" y2="1320.1172"/><rect fill="#E3E3E3" height="29.359" rx="2.25" ry="2.25" style="stroke:#181818;stroke-width:0.45;" width="136.8" x="189.9" y="21.259"/><text fill="#000000" font-family="sans-serif" font-size="12.6" lengthAdjust="spacing" textLength="124.2" x="196.2" y="41.1557">:PlaceOrderController</text><rect fill="#E3E3E3" height="29.359" rx="2.25" ry="2.25" style="stroke:#181818;stroke-width:0.45;" width="136.8" x="189.9" y="1319.2172"/><text fill="#000000" font-family="sans-serif" font-size="12.6" lengthAdjust="spacing" textLength="124.2" x="196.2" y="1339.1139">:PlaceOrderController</text><rect fill="#E3E3E3" height="29.359" rx="2.25" ry="2.25" style="stroke:#181818;stroke-width:0.45;" width="87.3" x="335.7" y="21.259"/><text fill="#000000" font-family="sans-serif" font-size="12.6" lengthAdjust="spacing" textLength="74.7" x="342" y="41.1557">:Repositories</text><rect fill="#E3E3E3" height="29.359" rx="2.25" ry="2.25" style="stroke:#181818;stroke-width:0.45;" width="87.3" x="335.7" y="1319.2172"/><text fill="#000000" font-family="sans-serif" font-size="12.6" lengthAdjust="spacing" textLength="74.7" x="342" y="1339.1139">:Repositories</text><rect fill="#E3E3E3" height="46.118" rx="2.25" ry="2.25" style="stroke:#181818;stroke-width:0.45;" width="87.3" x="432" y="4.5"/><text fill="#000000" font-family="sans-serif" font-size="12.6" lengthAdjust="spacing" textLength="66.6" x="442.35" y="24.3967">repositories</text><text fill="#000000" font-family="sans-serif" font-size="12.6" lengthAdjust="spacing" textLength="74.7" x="438.3" y="41.1557">:Repositories</text><rect fill="#E3E3E3" height="46.118" rx="2.25" ry="2.25" style="stroke:#181818;stroke-width:0.45;" width="87.3" x="432" y="1319.2172"/><text fill="#000000" font-family="sans-serif" font-size="12.6" lengthAdjust="spacing" textLength="66.6" x="442.35" y="1339.1139">repositories</text><text fill="#000000" font-family="sans-serif" font-size="12.6" lengthAdjust="spacing" textLength="74.7" x="438.3" y="1355.8729">:Repositories</text><rect fill="#E3E3E3" height="46.118" rx="2.25" ry="2.25" style="stroke:#181818;stroke-width:0.45;" width="162" x="550.8" y="4.5"/><text fill="#000000" font-family="sans-serif" font-size="12.6" lengthAdjust="spacing" textLength="149.4" x="557.1" y="24.3967">announcementRepository:</text><text fill="#000000" font-family="sans-serif" font-size="12.6" lengthAdjust="spacing" textLength="146.7" x="558.45" y="41.1557">AnnouncementRepository</text><rect fill="#E3E3E3" height="46.118" rx="2.25" ry="2.25" style="stroke:#181818;stroke-width:0.45;" width="162" x="550.8" y="1319.2172"/><text fill="#000000" font-family="sans-serif" font-size="12.6" lengthAdjust="spacing" textLength="149.4" x="557.1" y="1339.1139">announcementRepository:</text><text fill="#000000" font-family="sans-serif" font-size="12.6" lengthAdjust="spacing" textLength="146.7" x="558.45" y="1355.8729">AnnouncementRepository</text><rect fill="#E3E3E3" height="46.118" rx="2.25" ry="2.25" style="stroke:#181818;stroke-width:0.45;" width="125.1" x="889.65" y="4.5"/><text fill="#000000" font-family="sans-serif" font-size="12.6" lengthAdjust="spacing" textLength="112.5" x="895.95" y="24.3967">propertyRepository:</text><text fill="#000000" font-family="sans-serif" font-size="12.6" lengthAdjust="spacing" textLength="109.8" x="897.3" y="41.1557">PropertyRepository</text><rect fill="#E3E3E3" height="46.118" rx="2.25" ry="2.25" style="stroke:#181818;stroke-width:0.45;" width="125.1" x="889.65" y="1319.2172"/><text fill="#000000" font-family="sans-serif" font-size="12.6" lengthAdjust="spacing" textLength="112.5" x="895.95" y="1339.1139">propertyRepository:</text><text fill="#000000" font-family="sans-serif" font-size="12.6" lengthAdjust="spacing" textLength="109.8" x="897.3" y="1355.8729">PropertyRepository</text><rect fill="#E3E3E3" height="46.118" rx="2.25" ry="2.25" style="stroke:#181818;stroke-width:0.45;" width="107.1" x="1173.15" y="4.5"/><text fill="#000000" font-family="sans-serif" font-size="12.6" lengthAdjust="spacing" textLength="94.5" x="1179.45" y="24.3967">propertyMapper:</text><text fill="#000000" font-family="sans-serif" font-size="12.6" lengthAdjust="spacing" textLength="91.8" x="1180.8" y="41.1557">PropertyMapper</text><rect fill="#E3E3E3" height="46.118" rx="2.25" ry="2.25" style="stroke:#181818;stroke-width:0.45;" width="107.1" x="1173.15" y="1319.2172"/><text fill="#000000" font-family="sans-serif" font-size="12.6" lengthAdjust="spacing" textLength="94.5" x="1179.45" y="1339.1139">propertyMapper:</text><text fill="#000000" font-family="sans-serif" font-size="12.6" lengthAdjust="spacing" textLength="91.8" x="1180.8" y="1355.8729">PropertyMapper</text><rect fill="#E3E3E3" height="46.118" rx="2.25" ry="2.25" style="stroke:#181818;stroke-width:0.45;" width="63.9" x="1458.45" y="4.5"/><text fill="#000000" font-family="sans-serif" font-size="12.6" lengthAdjust="spacing" textLength="51.3" x="1464.75" y="24.3967">property:</text><text fill="#000000" font-family="sans-serif" font-size="12.6" lengthAdjust="spacing" textLength="48.6" x="1466.1" y="41.1557">Property</text><rect fill="#E3E3E3" height="46.118" rx="2.25" ry="2.25" style="stroke:#181818;stroke-width:0.45;" width="63.9" x="1458.45" y="1319.2172"/><text fill="#000000" font-family="sans-serif" font-size="12.6" lengthAdjust="spacing" textLength="51.3" x="1464.75" y="1339.1139">property:</text><text fill="#000000" font-family="sans-serif" font-size="12.6" lengthAdjust="spacing" textLength="48.6" x="1466.1" y="1355.8729">Property</text><rect fill="#E3E3E3" height="46.118" rx="2.25" ry="2.25" style="stroke:#181818;stroke-width:0.45;" width="90.9" x="1531.35" y="1319.2172"/><text fill="#000000" font-family="sans-serif" font-size="12.6" lengthAdjust="spacing" textLength="78.3" x="1537.65" y="1339.1139">propertyDTO:</text><text fill="#000000" font-family="sans-serif" font-size="12.6" lengthAdjust="spacing" textLength="75.6" x="1539" y="1355.8729">PropertyDTO</text><rect fill="#FFFFFF" height="1192.4754" style="stroke:#181818;stroke-width:0.9;" width="9" x="253.8" y="105.1418"/><rect fill="#FFFFFF" height="28.1619" style="stroke:#181818;stroke-width:0.9;" width="9" x="471.15" y="133.3037"/><rect fill="#FFFFFF" height="28.1619" style="stroke:#181818;stroke-width:0.9;" width="9" x="471.15" y="481.7848"/><rect fill="#FFFFFF" height="28.1619" style="stroke:#181818;stroke-width:0.9;" width="9" x="627.3" y="189.6275"/><rect fill="#FFFFFF" height="207.6715" style="stroke:#181818;stroke-width:0.9;" width="9" x="627.3" y="245.9514"/><rect fill="#FFFFFF" height="38.0619" style="stroke:#181818;stroke-width:0.9;" width="9" x="631.8" y="304.9752"/><rect fill="#FFFFFF" height="731.3467" style="stroke:#181818;stroke-width:0.9;" width="9" x="947.7" y="538.1086"/><rect fill="#FFFFFF" height="38.0619" style="stroke:#181818;stroke-width:0.9;" width="9" x="952.2" y="597.1324"/><rect fill="#FFFFFF" height="525.4752" style="stroke:#181818;stroke-width:0.9;" width="9" x="1222.2" y="669.6563"/><rect fill="#FFFFFF" height="27" style="stroke:#181818;stroke-width:0.9;" width="9" x="1485.9" y="697.8182"/><rect fill="#FFFFFF" height="27" style="stroke:#181818;stroke-width:0.9;" width="9" x="1485.9" y="752.9801"/><rect fill="#FFFFFF" height="27" style="stroke:#181818;stroke-width:0.9;" width="9" x="1485.9" y="808.142"/><rect fill="#FFFFFF" height="27" style="stroke:#181818;stroke-width:0.9;" width="9" x="1485.9" y="863.3039"/><rect fill="#FFFFFF" height="27" style="stroke:#181818;stroke-width:0.9;" width="9" x="1485.9" y="918.4658"/><rect fill="#FFFFFF" height="27" style="stroke:#181818;stroke-width:0.9;" width="9" x="1485.9" y="973.6277"/><rect fill="#FFFFFF" height="27" style="stroke:#181818;stroke-width:0.9;" width="9" x="1485.9" y="1028.7896"/><rect fill="#FFFFFF" height="27" style="stroke:#181818;stroke-width:0.9;" width="9" x="1485.9" y="1083.9516"/><path d="M2.7,66.818 L196.2,66.818 L196.2,75.1799 L187.2,84.1799 L2.7,84.1799 L2.7,66.818 " fill="#EEEEEE" style="stroke:#000000;stroke-width:1.35;"/><rect fill="none" height="1237.9992" style="stroke:#000000;stroke-width:1.35;" width="1637.55" x="2.7" y="66.818"/><text fill="#000000" font-family="sans-serif" font-size="11.7" font-weight="bold" lengthAdjust="spacing" textLength="153" x="16.2" y="80.3435">Get Available Property List</text><polygon fill="#181818" points="243,101.5418,252,105.1418,243,108.7418,246.6,105.1418" style="stroke:#181818;stroke-width:0.9;"/><line style="stroke:#181818;stroke-width:0.9;stroke-dasharray:2.0,2.0;" x1="0" x2="248.4" y1="105.1418" y2="105.1418"/><text fill="#000000" font-family="sans-serif" font-size="11.7" font-weight="bold" lengthAdjust="spacing" textLength="12.6" x="6.3" y="100.4054">40</text><text fill="#000000" font-family="sans-serif" font-size="11.7" lengthAdjust="spacing" textLength="214.2" x="22.5" y="100.4054">getAvailableProperties(store, priceRange)</text><polygon fill="#181818" points="460.35,129.7037,469.35,133.3037,460.35,136.9037,463.95,133.3037" style="stroke:#181818;stroke-width:0.9;"/><line style="stroke:#181818;stroke-width:0.9;" x1="262.8" x2="465.75" y1="133.3037" y2="133.3037"/><text fill="#000000" font-family="sans-serif" font-size="11.7" font-weight="bold" lengthAdjust="spacing" textLength="12.6" x="269.1" y="128.5673">41</text><text fill="#000000" font-family="sans-serif" font-size="11.7" lengthAdjust="spacing" textLength="157.5" x="285.3" y="128.5673">getAnnouncementRepository()</text><polygon fill="#181818" points="272.7,157.8656,263.7,161.4656,272.7,165.0656,269.1,161.4656" style="stroke:#181818;stroke-width:0.9;"/><line style="stroke:#181818;stroke-width:0.9;stroke-dasharray:2.0,2.0;" x1="267.3" x2="474.75" y1="161.4656" y2="161.4656"/><text fill="#000000" font-family="sans-serif" font-size="11.7" font-weight="bold" lengthAdjust="spacing" textLength="12.6" x="278.1" y="156.7292">42</text><text fill="#000000" font-family="sans-serif" font-size="11.7" lengthAdjust="spacing" textLength="132.3" x="294.3" y="156.7292">announcementRepository</text><polygon fill="#181818" points="616.5,186.0275,625.5,189.6275,616.5,193.2275,620.1,189.6275" style="stroke:#181818;stroke-width:0.9;"/><line style="stroke:#181818;stroke-width:0.9;" x1="262.8" x2="621.9" y1="189.6275" y2="189.6275"/><text fill="#000000" font-family="sans-serif" font-size="11.7" font-weight="bold" lengthAdjust="spacing" textLength="12.6" x="269.1" y="184.8911">43</text><text fill="#000000" font-family="sans-serif" font-size="11.7" lengthAdjust="spacing" textLength="131.4" x="285.3" y="184.8911">getSaleAnnouncements()</text><polygon fill="#181818" points="272.7,214.1895,263.7,217.7895,272.7,221.3895,269.1,217.7895" style="stroke:#181818;stroke-width:0.9;"/><line style="stroke:#181818;stroke-width:0.9;stroke-dasharray:2.0,2.0;" x1="267.3" x2="630.9" y1="217.7895" y2="217.7895"/><text fill="#000000" font-family="sans-serif" font-size="11.7" font-weight="bold" lengthAdjust="spacing" textLength="12.6" x="278.1" y="213.053">44</text><text fill="#000000" font-family="sans-serif" font-size="11.7" lengthAdjust="spacing" textLength="95.4" x="294.3" y="213.053">announcementList</text><polygon fill="#181818" points="616.5,242.3514,625.5,245.9514,616.5,249.5514,620.1,245.9514" style="stroke:#181818;stroke-width:0.9;"/><line style="stroke:#181818;stroke-width:0.9;" x1="262.8" x2="621.9" y1="245.9514" y2="245.9514"/><text fill="#000000" font-family="sans-serif" font-size="11.7" font-weight="bold" lengthAdjust="spacing" textLength="12.6" x="269.1" y="241.2149">45</text><text fill="#000000" font-family="sans-serif" font-size="11.7" lengthAdjust="spacing" textLength="331.2" x="285.3" y="241.2149">filterSaleAnnouncements(announcementList, store, priceRange)</text><path d="M532.8,259.4514 L598.5,259.4514 L598.5,267.8133 L589.5,276.8133 L532.8,276.8133 L532.8,259.4514 " fill="#EEEEEE" style="stroke:#000000;stroke-width:1.35;"/><rect fill="none" height="166.9096" style="stroke:#000000;stroke-width:1.35;" width="423.9" x="532.8" y="259.4514"/><text fill="#000000" font-family="sans-serif" font-size="11.7" font-weight="bold" lengthAdjust="spacing" textLength="25.2" x="546.3" y="272.9769">loop</text><text fill="#000000" font-family="sans-serif" font-size="9.9" font-weight="bold" lengthAdjust="spacing" textLength="233.1" x="612" y="271.9345">[for each announcement in announcementList]</text><line style="stroke:#181818;stroke-width:0.9;" x1="636.3" x2="678.6" y1="293.2752" y2="293.2752"/><line style="stroke:#181818;stroke-width:0.9;" x1="678.6" x2="678.6" y1="293.2752" y2="304.9752"/><line style="stroke:#181818;stroke-width:0.9;" x1="641.7" x2="678.6" y1="304.9752" y2="304.9752"/><polygon fill="#181818" points="650.7,301.3752,641.7,304.9752,650.7,308.5752,647.1,304.9752" style="stroke:#181818;stroke-width:0.9;"/><text fill="#000000" font-family="sans-serif" font-size="11.7" font-weight="bold" lengthAdjust="spacing" textLength="12.6" x="647.1" y="288.5388">46</text><text fill="#000000" font-family="sans-serif" font-size="11.7" lengthAdjust="spacing" textLength="282.6" x="663.3" y="288.5388">checkStoreAndPrice(announcement,store,priceRange)</text><line style="stroke:#181818;stroke-width:0.9;stroke-dasharray:2.0,2.0;" x1="640.8" x2="678.6" y1="342.1371" y2="342.1371"/><line style="stroke:#181818;stroke-width:0.9;stroke-dasharray:2.0,2.0;" x1="678.6" x2="678.6" y1="342.1371" y2="353.8371"/><line style="stroke:#181818;stroke-width:0.9;stroke-dasharray:2.0,2.0;" x1="636.3" x2="678.6" y1="353.8371" y2="353.8371"/><polygon fill="#181818" points="645.3,350.2371,636.3,353.8371,645.3,357.4371,641.7,353.8371" style="stroke:#181818;stroke-width:0.9;"/><text fill="#000000" font-family="sans-serif" font-size="11.7" font-weight="bold" lengthAdjust="spacing" textLength="12.6" x="647.1" y="337.4007">47</text><text fill="#000000" font-family="sans-serif" font-size="11.7" lengthAdjust="spacing" textLength="22.5" x="663.3" y="337.4007">valid</text><path d="M541.8,362.8371 L596.7,362.8371 L596.7,371.199 L587.7,380.199 L541.8,380.199 L541.8,362.8371 " fill="#EEEEEE" style="stroke:#000000;stroke-width:1.35;"/><rect fill="none" height="57.2238" style="stroke:#000000;stroke-width:1.35;" width="340.2" x="541.8" y="362.8371"/><text fill="#000000" font-family="sans-serif" font-size="11.7" font-weight="bold" lengthAdjust="spacing" textLength="14.4" x="555.3" y="376.3626">alt</text><text fill="#000000" font-family="sans-serif" font-size="9.9" font-weight="bold" lengthAdjust="spacing" textLength="29.7" x="610.2" y="375.3202">[valid]</text><line style="stroke:#181818;stroke-width:0.9;stroke-dasharray:2.0,2.0;" x1="636.3" x2="674.1" y1="401.1609" y2="401.1609"/><line style="stroke:#181818;stroke-width:0.9;stroke-dasharray:2.0,2.0;" x1="674.1" x2="674.1" y1="401.1609" y2="412.8609"/><line style="stroke:#181818;stroke-width:0.9;stroke-dasharray:2.0,2.0;" x1="637.2" x2="674.1" y1="412.8609" y2="412.8609"/><polygon fill="#181818" points="646.2,409.2609,637.2,412.8609,646.2,416.4609,642.6,412.8609" style="stroke:#181818;stroke-width:0.9;"/><text fill="#000000" font-family="sans-serif" font-size="11.7" font-weight="bold" lengthAdjust="spacing" textLength="12.6" x="642.6" y="396.4245">48</text><text fill="#000000" font-family="sans-serif" font-size="11.7" lengthAdjust="spacing" textLength="212.4" x="658.8" y="396.4245">addToAnnouncementList(announcement)</text><polygon fill="#181818" points="272.7,450.0229,263.7,453.6229,272.7,457.2229,269.1,453.6229" style="stroke:#181818;stroke-width:0.9;"/><line style="stroke:#181818;stroke-width:0.9;stroke-dasharray:2.0,2.0;" x1="267.3" x2="630.9" y1="453.6229" y2="453.6229"/><text fill="#000000" font-family="sans-serif" font-size="11.7" font-weight="bold" lengthAdjust="spacing" textLength="12.6" x="278.1" y="448.8864">49</text><text fill="#000000" font-family="sans-serif" font-size="11.7" lengthAdjust="spacing" textLength="95.4" x="294.3" y="448.8864">announcementList</text><polygon fill="#181818" points="460.35,478.1848,469.35,481.7848,460.35,485.3848,463.95,481.7848" style="stroke:#181818;stroke-width:0.9;"/><line style="stroke:#181818;stroke-width:0.9;" x1="262.8" x2="465.75" y1="481.7848" y2="481.7848"/><text fill="#000000" font-family="sans-serif" font-size="11.7" font-weight="bold" lengthAdjust="spacing" textLength="12.6" x="269.1" y="477.0483">50</text><text fill="#000000" font-family="sans-serif" font-size="11.7" lengthAdjust="spacing" textLength="123.3" x="285.3" y="477.0483">getPropertyRepository()</text><polygon fill="#181818" points="272.7,506.3467,263.7,509.9467,272.7,513.5467,269.1,509.9467" style="stroke:#181818;stroke-width:0.9;"/><line style="stroke:#181818;stroke-width:0.9;stroke-dasharray:2.0,2.0;" x1="267.3" x2="474.75" y1="509.9467" y2="509.9467"/><text fill="#000000" font-family="sans-serif" font-size="11.7" font-weight="bold" lengthAdjust="spacing" textLength="12.6" x="278.1" y="505.2103">51</text><text fill="#000000" font-family="sans-serif" font-size="11.7" lengthAdjust="spacing" textLength="98.1" x="294.3" y="505.2103">propertyRepository</text><polygon fill="#181818" points="936.9,534.5086,945.9,538.1086,936.9,541.7086,940.5,538.1086" style="stroke:#181818;stroke-width:0.9;"/><line style="stroke:#181818;stroke-width:0.9;" x1="262.8" x2="942.3" y1="538.1086" y2="538.1086"/><text fill="#000000" font-family="sans-serif" font-size="11.7" font-weight="bold" lengthAdjust="spacing" textLength="12.6" x="269.1" y="533.3722">52</text><text fill="#000000" font-family="sans-serif" font-size="11.7" lengthAdjust="spacing" textLength="270.9" x="285.3" y="533.3722">getPropertiesByAnnouncements(announcementList)</text><path d="M880.65,551.6086 L946.35,551.6086 L946.35,559.9705 L937.35,568.9705 L880.65,568.9705 L880.65,551.6086 " fill="#EEEEEE" style="stroke:#000000;stroke-width:1.35;"/><rect fill="none" height="690.5848" style="stroke:#000000;stroke-width:1.35;" width="750.6" x="880.65" y="551.6086"/><text fill="#000000" font-family="sans-serif" font-size="11.7" font-weight="bold" lengthAdjust="spacing" textLength="25.2" x="894.15" y="565.1341">loop</text><text fill="#000000" font-family="sans-serif" font-size="9.9" font-weight="bold" lengthAdjust="spacing" textLength="233.1" x="959.85" y="564.0917">[for each announcement in announcementList]</text><line style="stroke:#181818;stroke-width:0.9;" x1="956.7" x2="999" y1="585.4324" y2="585.4324"/><line style="stroke:#181818;stroke-width:0.9;" x1="999" x2="999" y1="585.4324" y2="597.1324"/><line style="stroke:#181818;stroke-width:0.9;" x1="962.1" x2="999" y1="597.1324" y2="597.1324"/><polygon fill="#181818" points="971.1,593.5324,962.1,597.1324,971.1,600.7324,967.5,597.1324" style="stroke:#181818;stroke-width:0.9;"/><text fill="#000000" font-family="sans-serif" font-size="11.7" font-weight="bold" lengthAdjust="spacing" textLength="12.6" x="967.5" y="580.696">53</text><text fill="#000000" font-family="sans-serif" font-size="11.7" lengthAdjust="spacing" textLength="236.7" x="983.7" y="580.696">getPropertyByAnnouncement(announcement)</text><line style="stroke:#181818;stroke-width:0.9;stroke-dasharray:2.0,2.0;" x1="961.2" x2="999" y1="634.2943" y2="634.2943"/><line style="stroke:#181818;stroke-width:0.9;stroke-dasharray:2.0,2.0;" x1="999" x2="999" y1="634.2943" y2="645.9943"/><line style="stroke:#181818;stroke-width:0.9;stroke-dasharray:2.0,2.0;" x1="956.7" x2="999" y1="645.9943" y2="645.9943"/><polygon fill="#181818" points="965.7,642.3943,956.7,645.9943,965.7,649.5943,962.1,645.9943" style="stroke:#181818;stroke-width:0.9;"/><text fill="#000000" font-family="sans-serif" font-size="11.7" font-weight="bold" lengthAdjust="spacing" textLength="12.6" x="967.5" y="629.5579">54</text><text fill="#000000" font-family="sans-serif" font-size="11.7" lengthAdjust="spacing" textLength="42.3" x="983.7" y="629.5579">property</text><polygon fill="#181818" points="1211.4,666.0563,1220.4,669.6563,1211.4,673.2563,1215,669.6563" style="stroke:#181818;stroke-width:0.9;"/><line style="stroke:#181818;stroke-width:0.9;" x1="956.7" x2="1216.8" y1="669.6563" y2="669.6563"/><text fill="#000000" font-family="sans-serif" font-size="11.7" font-weight="bold" lengthAdjust="spacing" textLength="12.6" x="963" y="664.9198">55</text><text fill="#000000" font-family="sans-serif" font-size="11.7" lengthAdjust="spacing" textLength="127.8" x="979.2" y="664.9198">propertyToDTO(property)</text><polygon fill="#181818" points="1475.1,694.2182,1484.1,697.8182,1475.1,701.4182,1478.7,697.8182" style="stroke:#181818;stroke-width:0.9;"/><line style="stroke:#181818;stroke-width:0.9;stroke-dasharray:2.0,2.0;" x1="1231.2" x2="1480.5" y1="697.8182" y2="697.8182"/><text fill="#000000" font-family="sans-serif" font-size="11.7" font-weight="bold" lengthAdjust="spacing" textLength="12.6" x="1237.5" y="693.0817">56</text><text fill="#000000" font-family="sans-serif" font-size="11.7" lengthAdjust="spacing" textLength="90" x="1253.7" y="693.0817">price = getPrice()</text><polygon fill="#181818" points="1475.1,749.3801,1484.1,752.9801,1475.1,756.5801,1478.7,752.9801" style="stroke:#181818;stroke-width:0.9;"/><line style="stroke:#181818;stroke-width:0.9;stroke-dasharray:2.0,2.0;" x1="1231.2" x2="1480.5" y1="752.9801" y2="752.9801"/><text fill="#000000" font-family="sans-serif" font-size="11.7" font-weight="bold" lengthAdjust="spacing" textLength="12.6" x="1237.5" y="748.2437">57</text><text fill="#000000" font-family="sans-serif" font-size="11.7" lengthAdjust="spacing" textLength="84.6" x="1253.7" y="748.2437">area = getArea()</text><polygon fill="#181818" points="1475.1,804.542,1484.1,808.142,1475.1,811.742,1478.7,808.142" style="stroke:#181818;stroke-width:0.9;"/><line style="stroke:#181818;stroke-width:0.9;stroke-dasharray:2.0,2.0;" x1="1231.2" x2="1480.5" y1="808.142" y2="808.142"/><text fill="#000000" font-family="sans-serif" font-size="11.7" font-weight="bold" lengthAdjust="spacing" textLength="12.6" x="1237.5" y="803.4056">58</text><text fill="#000000" font-family="sans-serif" font-size="11.7" lengthAdjust="spacing" textLength="122.4" x="1253.7" y="803.4056">address = getAddress()</text><polygon fill="#181818" points="1475.1,859.7039,1484.1,863.3039,1475.1,866.9039,1478.7,863.3039" style="stroke:#181818;stroke-width:0.9;"/><line style="stroke:#181818;stroke-width:0.9;stroke-dasharray:2.0,2.0;" x1="1231.2" x2="1480.5" y1="863.3039" y2="863.3039"/><text fill="#000000" font-family="sans-serif" font-size="11.7" font-weight="bold" lengthAdjust="spacing" textLength="12.6" x="1237.5" y="858.5675">59</text><text fill="#000000" font-family="sans-serif" font-size="11.7" lengthAdjust="spacing" textLength="221.4" x="1253.7" y="858.5675">distanceToCentre = getDistanceToCentre()</text><polygon fill="#181818" points="1475.1,914.8658,1484.1,918.4658,1475.1,922.0658,1478.7,918.4658" style="stroke:#181818;stroke-width:0.9;"/><line style="stroke:#181818;stroke-width:0.9;stroke-dasharray:2.0,2.0;" x1="1231.2" x2="1480.5" y1="918.4658" y2="918.4658"/><text fill="#000000" font-family="sans-serif" font-size="11.7" font-weight="bold" lengthAdjust="spacing" textLength="12.6" x="1237.5" y="913.7294">60</text><text fill="#000000" font-family="sans-serif" font-size="11.7" lengthAdjust="spacing" textLength="167.4" x="1253.7" y="913.7294">photographs = getPhotographs()</text><polygon fill="#181818" points="1475.1,970.0277,1484.1,973.6277,1475.1,977.2277,1478.7,973.6277" style="stroke:#181818;stroke-width:0.9;"/><line style="stroke:#181818;stroke-width:0.9;stroke-dasharray:2.0,2.0;" x1="1231.2" x2="1480.5" y1="973.6277" y2="973.6277"/><text fill="#000000" font-family="sans-serif" font-size="11.7" font-weight="bold" lengthAdjust="spacing" textLength="12.6" x="1237.5" y="968.8913">61</text><text fill="#000000" font-family="sans-serif" font-size="11.7" lengthAdjust="spacing" textLength="174.6" x="1253.7" y="968.8913">propertyType = getPropertyType()</text><polygon fill="#181818" points="1475.1,1025.1896,1484.1,1028.7896,1475.1,1032.3896,1478.7,1028.7896" style="stroke:#181818;stroke-width:0.9;"/><line style="stroke:#181818;stroke-width:0.9;stroke-dasharray:2.0,2.0;" x1="1231.2" x2="1480.5" y1="1028.7896" y2="1028.7896"/><text fill="#000000" font-family="sans-serif" font-size="11.7" font-weight="bold" lengthAdjust="spacing" textLength="12.6" x="1237.5" y="1024.0532">62</text><text fill="#000000" font-family="sans-serif" font-size="11.7" lengthAdjust="spacing" textLength="91.8" x="1253.7" y="1024.0532">store = getStore()</text><polygon fill="#181818" points="1475.1,1080.3516,1484.1,1083.9516,1475.1,1087.5516,1478.7,1083.9516" style="stroke:#181818;stroke-width:0.9;"/><line style="stroke:#181818;stroke-width:0.9;stroke-dasharray:2.0,2.0;" x1="1231.2" x2="1480.5" y1="1083.9516" y2="1083.9516"/><text fill="#000000" font-family="sans-serif" font-size="11.7" font-weight="bold" lengthAdjust="spacing" textLength="12.6" x="1237.5" y="1079.2151">63</text><text fill="#000000" font-family="sans-serif" font-size="11.7" lengthAdjust="spacing" textLength="111.6" x="1253.7" y="1079.2151">creator = getCreator()</text><polygon fill="#181818" points="1520.55,1135.5135,1529.55,1139.1135,1520.55,1142.7135,1524.15,1139.1135" style="stroke:#181818;stroke-width:0.9;"/><line style="stroke:#181818;stroke-width:0.9;stroke-dasharray:2.0,2.0;" x1="1231.2" x2="1525.95" y1="1139.1135" y2="1139.1135"/><text fill="#000000" font-family="sans-serif" font-size="11.7" font-weight="bold" lengthAdjust="spacing" textLength="12.6" x="1237.5" y="1134.3771">64</text><text fill="#000000" font-family="sans-serif" font-size="11.7" lengthAdjust="spacing" textLength="39.6" x="1253.7" y="1134.3771">create()</text><rect fill="#E3E3E3" height="46.118" rx="2.25" ry="2.25" style="stroke:#181818;stroke-width:0.45;" width="90.9" x="1531.35" y="1118.1516"/><text fill="#000000" font-family="sans-serif" font-size="12.6" lengthAdjust="spacing" textLength="78.3" x="1537.65" y="1138.0482">propertyDTO:</text><text fill="#000000" font-family="sans-serif" font-size="12.6" lengthAdjust="spacing" textLength="75.6" x="1539" y="1154.8072">PropertyDTO</text><polygon fill="#181818" points="966.6,1191.5314,957.6,1195.1314,966.6,1198.7314,963,1195.1314" style="stroke:#181818;stroke-width:0.9;"/><line style="stroke:#181818;stroke-width:0.9;stroke-dasharray:2.0,2.0;" x1="961.2" x2="1225.8" y1="1195.1314" y2="1195.1314"/><text fill="#000000" font-family="sans-serif" font-size="11.7" font-weight="bold" lengthAdjust="spacing" textLength="12.6" x="972" y="1190.395">65</text><text fill="#000000" font-family="sans-serif" font-size="11.7" lengthAdjust="spacing" textLength="65.7" x="988.2" y="1190.395">propertyDTO</text><line style="stroke:#181818;stroke-width:0.9;stroke-dasharray:2.0,2.0;" x1="956.7" x2="994.5" y1="1223.2934" y2="1223.2934"/><line style="stroke:#181818;stroke-width:0.9;stroke-dasharray:2.0,2.0;" x1="994.5" x2="994.5" y1="1223.2934" y2="1234.9934"/><line style="stroke:#181818;stroke-width:0.9;stroke-dasharray:2.0,2.0;" x1="957.6" x2="994.5" y1="1234.9934" y2="1234.9934"/><polygon fill="#181818" points="966.6,1231.3934,957.6,1234.9934,966.6,1238.5934,963,1234.9934" style="stroke:#181818;stroke-width:0.9;"/><text fill="#000000" font-family="sans-serif" font-size="11.7" font-weight="bold" lengthAdjust="spacing" textLength="12.6" x="963" y="1218.5569">66</text><text fill="#000000" font-family="sans-serif" font-size="11.7" lengthAdjust="spacing" textLength="167.4" x="979.2" y="1218.5569">addToPropertyList(propertyDTO)</text><polygon fill="#181818" points="272.7,1265.8553,263.7,1269.4553,272.7,1273.0553,269.1,1269.4553" style="stroke:#181818;stroke-width:0.9;"/><line style="stroke:#181818;stroke-width:0.9;stroke-dasharray:2.0,2.0;" x1="267.3" x2="951.3" y1="1269.4553" y2="1269.4553"/><text fill="#000000" font-family="sans-serif" font-size="11.7" font-weight="bold" lengthAdjust="spacing" textLength="12.6" x="278.1" y="1264.7188">67</text><text fill="#000000" font-family="sans-serif" font-size="11.7" lengthAdjust="spacing" textLength="61.2" x="294.3" y="1264.7188">propertyList</text><polygon fill="#181818" points="9.9,1294.0172,0.9,1297.6172,9.9,1301.2172,6.3,1297.6172" style="stroke:#181818;stroke-width:0.9;"/><line style="stroke:#181818;stroke-width:0.9;stroke-dasharray:2.0,2.0;" x1="4.5" x2="257.4" y1="1297.6172" y2="1297.6172"/><text fill="#000000" font-family="sans-serif" font-size="11.7" font-weight="bold" lengthAdjust="spacing" textLength="12.6" x="15.3" y="1292.8808">68</text><text fill="#000000" font-family="sans-serif" font-size="11.7" lengthAdjust="spacing" textLength="61.2" x="31.5" y="1292.8808">propertyList</text><!--SRC=[nLTDZvim4BtpAwmzPLSRgOUUedObDYlraYY8SDoB5oPWXTYMSLBnxsji83Q1GDMe-99WvkEzcV6CAOw4SYpm2PqOPN4cs0cG56VmYlODn_4Hfx2NPGv8G2mnJNDReCXmmduJcg83pWlmF0-V9QFdqnS8zFsRvoanIMB2CPNeQHNaE8QTI42i6PM2vJc89uGBj8x2JKSs1CuA8faWK6YPTgFSamg6ykEg24lZazuQ23P-v6fWIjcPnd02Ag_cLv_KxtsXhVZhRUXQuO9n4B9qB0GtcmR3WEuMS_LhwPcDMcSNRFsWNz5IQONx9J-YdIMidbfvzTzB1Jjpz0iayY-OvFXBPRoHHHjII0_LQxbyq_b2AvI2RALhOHNiHQ7emYlYWiGGgfA1vrPPBnnBSi4IJDhTTytI7fIdAccrfzwSB9xxzLiVEklzCjNIzYrA_INHhv_052yDawfm39Czpi5cKuoIq4KtJ4AR7Y3Xv6u8_Xtx7VW7aaiGjmowBb_HM1NqaqHZAsUCemCJIA7F7AQ8q8dCRsFNyeipY8_x2hfFaw32xb1xDQn6IVq3GIUXDQeBpadYZUfEowWDBPUrxR-6X9CaOdudt4wi9eG6w0HM8rAFAVw9JUYshJ-w0TrEaqSqdo1qyAik_LxUFy2Zj0PYzeZp6OGzc4iNyPHIiy7UoO0f7-skYVvupCCXwCktUc1RvYAcPkoYUHf7QmQ-D-J2c3UWTyQFwaVefubMrREck9Z0SKYe1m8MW0q2N_sR0q2I22YA6eDvc056egeQgxACs5eLfgYpyj7PdG4OpvXagS0ygsCKN3VcWDCSZPAtbNlTcG6Gdkm6YPx_Cq28rSbHhWs8jNdutp1KetfvQR0C1i7Lij9PVKjC0LFrjqaTMTypcjBGTmpBrG2wwi8mPhmpRYVT5AenqWhzM2xl6h7qz7UE0eNqLzOV]--></g></svg>