<?xml version="1.0" encoding="us-ascii" standalone="no"?><svg xmlns="http://www.w3.org/2000/svg" xmlns:xlink="http://www.w3.org/1999/xlink" contentStyleType="text/css" height="1548.9px" preserveAspectRatio="none" style="width:1803px;height:1548px;background:#FFFFFF;" version="1.1" viewBox="0 0 1803 1548" width="1803.6px" zoomAndPan="magnify"><defs><filter height="300%" id="fpl3ibu6oswlj" width="300%" x="-1" y="-1"><feGaussianBlur result="blurOut" stdDeviation="1.8"/><feColorMatrix in="blurOut" result="blurOut2" type="matrix" values="0 0 0 0 0 0 0 0 0 0 0 0 0 0 0 0 0 0 .4 0"/><feOffset dx="3.6" dy="3.6" in="blurOut2" result="blurOut3"/><feBlend in="SourceGraphic" in2="blurOut3" mode="normal"/></filter></defs><g><!--class ApplicationSession--><g id="elem_ApplicationSession"><rect codeLine="11" fill="#F1F1F1" filter="url(#fpl3ibu6oswlj)" height="76.718" id="ApplicationSession" rx="2.25" ry="2.25" style="stroke:#181818;stroke-width:0.45;" width="135.9" x="145.8" y="237.6"/><ellipse cx="159.3" cy="252" fill="#ADD1B2" rx="9.9" ry="9.9" style="stroke:#181818;stroke-width:0.9;"/><path d="M161.7891,248.2875 Q161.9297,248.0906 162.0984,247.9922 Q162.2672,247.8938 162.4641,247.8938 Q162.8016,247.8938 163.0125,248.1328 Q163.2234,248.3578 163.2234,248.9063 L163.2234,250.2141 Q163.2234,250.7625 163.0125,251.0016 Q162.8016,251.2406 162.4641,251.2406 Q162.1547,251.2406 161.9719,251.0578 Q161.7891,250.8891 161.6906,250.425 Q161.6484,250.1016 161.4797,249.9328 Q161.1844,249.5953 160.6359,249.3984 Q160.0875,249.2016 159.525,249.2016 Q158.8359,249.2016 158.2594,249.4969 Q157.6969,249.7922 157.2469,250.4672 Q156.8109,251.1422 156.8109,252.0703 L156.8109,253.0547 Q156.8109,254.1656 157.6125,254.9109 Q158.4141,255.6422 159.8484,255.6422 Q160.6922,255.6422 161.2828,255.4172 Q161.6344,255.2766 162.0141,254.8828 Q162.2531,254.6438 162.3797,254.5734 Q162.5203,254.5031 162.7031,254.5031 Q162.9984,254.5031 163.2234,254.7422 Q163.4625,254.9672 163.4625,255.2766 Q163.4625,255.5859 163.1531,255.9516 Q162.7031,256.4719 161.9859,256.7672 Q161.0156,257.175 159.8484,257.175 Q158.4844,257.175 157.4016,256.6125 Q156.5156,256.1625 155.8969,255.2063 Q155.2781,254.2359 155.2781,253.0828 L155.2781,252.0422 Q155.2781,250.8469 155.8266,249.8203 Q156.3891,248.7797 157.3734,248.2313 Q158.3578,247.6688 159.4688,247.6688 Q160.1297,247.6688 160.7063,247.8234 Q161.2969,247.9641 161.7891,248.2875 Z " fill="#000000"/><text fill="#000000" font-family="sans-serif" font-size="12.6" lengthAdjust="spacing" textLength="107.1" x="171.9" y="257.2172">ApplicationSession</text><line style="stroke:#181818;stroke-width:0.45;" x1="146.7" x2="280.8" y1="266.4" y2="266.4"/><line style="stroke:#181818;stroke-width:0.45;" x1="146.7" x2="280.8" y1="273.6" y2="273.6"/><text fill="#000000" font-family="sans-serif" font-size="12.6" lengthAdjust="spacing" textLength="115.2" x="151.2" y="290.7967">+static getInstance()</text><text fill="#000000" font-family="sans-serif" font-size="12.6" lengthAdjust="spacing" textLength="122.4" x="151.2" y="307.5557">+getCurrentSession()</text></g><!--class UserSession--><g id="elem_UserSession"><rect codeLine="17" fill="#F1F1F1" filter="url(#fpl3ibu6oswlj)" height="59.959" id="UserSession" rx="2.25" ry="2.25" style="stroke:#181818;stroke-width:0.45;" width="101.7" x="22.5" y="435.15"/><ellipse cx="36.81" cy="449.55" fill="#ADD1B2" rx="9.9" ry="9.9" style="stroke:#181818;stroke-width:0.9;"/><path d="M39.2991,445.8375 Q39.4397,445.6406 39.6084,445.5422 Q39.7772,445.4438 39.9741,445.4438 Q40.3116,445.4438 40.5225,445.6828 Q40.7334,445.9078 40.7334,446.4563 L40.7334,447.7641 Q40.7334,448.3125 40.5225,448.5516 Q40.3116,448.7906 39.9741,448.7906 Q39.6647,448.7906 39.4819,448.6078 Q39.2991,448.4391 39.2006,447.975 Q39.1584,447.6516 38.9897,447.4828 Q38.6944,447.1453 38.1459,446.9484 Q37.5975,446.7516 37.035,446.7516 Q36.3459,446.7516 35.7694,447.0469 Q35.2069,447.3422 34.7569,448.0172 Q34.3209,448.6922 34.3209,449.6203 L34.3209,450.6047 Q34.3209,451.7156 35.1225,452.4609 Q35.9241,453.1922 37.3584,453.1922 Q38.2022,453.1922 38.7928,452.9672 Q39.1444,452.8266 39.5241,452.4328 Q39.7631,452.1938 39.8897,452.1234 Q40.0303,452.0531 40.2131,452.0531 Q40.5084,452.0531 40.7334,452.2922 Q40.9725,452.5172 40.9725,452.8266 Q40.9725,453.1359 40.6631,453.5016 Q40.2131,454.0219 39.4959,454.3172 Q38.5256,454.725 37.3584,454.725 Q35.9944,454.725 34.9116,454.1625 Q34.0256,453.7125 33.4069,452.7563 Q32.7881,451.7859 32.7881,450.6328 L32.7881,449.5922 Q32.7881,448.3969 33.3366,447.3703 Q33.8991,446.3297 34.8834,445.7813 Q35.8678,445.2188 36.9788,445.2188 Q37.6397,445.2188 38.2163,445.3734 Q38.8069,445.5141 39.2991,445.8375 Z " fill="#000000"/><text fill="#000000" font-family="sans-serif" font-size="12.6" lengthAdjust="spacing" textLength="71.1" x="49.59" y="454.7672">UserSession</text><line style="stroke:#181818;stroke-width:0.45;" x1="23.4" x2="123.3" y1="463.95" y2="463.95"/><line style="stroke:#181818;stroke-width:0.45;" x1="23.4" x2="123.3" y1="471.15" y2="471.15"/><text fill="#000000" font-family="sans-serif" font-size="12.6" lengthAdjust="spacing" textLength="90.9" x="27.9" y="488.3467">+getUserEmail()</text></g><!--class PropertyRepository--><g id="elem_PropertyRepository"><rect codeLine="24" fill="#F1F1F1" filter="url(#fpl3ibu6oswlj)" height="93.477" id="PropertyRepository" rx="2.25" ry="2.25" style="stroke:#181818;stroke-width:0.45;" width="314.1" x="1054.8" y="229.05"/><ellipse cx="1153.125" cy="243.45" fill="#ADD1B2" rx="9.9" ry="9.9" style="stroke:#181818;stroke-width:0.9;"/><path d="M1155.6141,239.7375 Q1155.7547,239.5406 1155.9234,239.4422 Q1156.0922,239.3438 1156.2891,239.3438 Q1156.6266,239.3438 1156.8375,239.5828 Q1157.0484,239.8078 1157.0484,240.3563 L1157.0484,241.6641 Q1157.0484,242.2125 1156.8375,242.4516 Q1156.6266,242.6906 1156.2891,242.6906 Q1155.9797,242.6906 1155.7969,242.5078 Q1155.6141,242.3391 1155.5156,241.875 Q1155.4734,241.5516 1155.3047,241.3828 Q1155.0094,241.0453 1154.4609,240.8484 Q1153.9125,240.6516 1153.35,240.6516 Q1152.6609,240.6516 1152.0844,240.9469 Q1151.5219,241.2422 1151.0719,241.9172 Q1150.6359,242.5922 1150.6359,243.5203 L1150.6359,244.5047 Q1150.6359,245.6156 1151.4375,246.3609 Q1152.2391,247.0922 1153.6734,247.0922 Q1154.5172,247.0922 1155.1078,246.8672 Q1155.4594,246.7266 1155.8391,246.3328 Q1156.0781,246.0938 1156.2047,246.0234 Q1156.3453,245.9531 1156.5281,245.9531 Q1156.8234,245.9531 1157.0484,246.1922 Q1157.2875,246.4172 1157.2875,246.7266 Q1157.2875,247.0359 1156.9781,247.4016 Q1156.5281,247.9219 1155.8109,248.2172 Q1154.8406,248.625 1153.6734,248.625 Q1152.3094,248.625 1151.2266,248.0625 Q1150.3406,247.6125 1149.7219,246.6563 Q1149.1031,245.6859 1149.1031,244.5328 L1149.1031,243.4922 Q1149.1031,242.2969 1149.6516,241.2703 Q1150.2141,240.2297 1151.1984,239.6813 Q1152.1828,239.1188 1153.2938,239.1188 Q1153.9547,239.1188 1154.5313,239.2734 Q1155.1219,239.4141 1155.6141,239.7375 Z " fill="#000000"/><text fill="#000000" font-family="sans-serif" font-size="12.6" lengthAdjust="spacing" textLength="109.8" x="1171.575" y="248.6672">PropertyRepository</text><line style="stroke:#181818;stroke-width:0.45;" x1="1055.7" x2="1368" y1="257.85" y2="257.85"/><line style="stroke:#181818;stroke-width:0.45;" x1="1055.7" x2="1368" y1="265.05" y2="265.05"/><text fill="#000000" font-family="sans-serif" font-size="12.6" lengthAdjust="spacing" textLength="303.3" x="1060.2" y="282.2467">+getPropertiesByAnnouncements(announcementList)</text><text fill="#000000" font-family="sans-serif" font-size="12.6" lengthAdjust="spacing" textLength="267.3" x="1060.2" y="299.0057">+getPropertyByAnnouncement(announcement)</text><text fill="#000000" font-family="sans-serif" font-size="12.6" lengthAdjust="spacing" textLength="196.2" x="1060.2" y="315.7646">+addToPropertyList(propertyDTO)</text></g><!--class PropertyFilterRepository--><g id="elem_PropertyFilterRepository"><rect codeLine="30" fill="#F1F1F1" filter="url(#fpl3ibu6oswlj)" height="59.959" id="PropertyFilterRepository" rx="2.25" ry="2.25" style="stroke:#181818;stroke-width:0.45;" width="167.4" x="22.95" y="691.65"/><ellipse cx="36.45" cy="706.05" fill="#ADD1B2" rx="9.9" ry="9.9" style="stroke:#181818;stroke-width:0.9;"/><path d="M38.9391,702.3375 Q39.0797,702.1406 39.2484,702.0422 Q39.4172,701.9438 39.6141,701.9438 Q39.9516,701.9438 40.1625,702.1828 Q40.3734,702.4078 40.3734,702.9563 L40.3734,704.2641 Q40.3734,704.8125 40.1625,705.0516 Q39.9516,705.2906 39.6141,705.2906 Q39.3047,705.2906 39.1219,705.1078 Q38.9391,704.9391 38.8406,704.475 Q38.7984,704.1516 38.6297,703.9828 Q38.3344,703.6453 37.7859,703.4484 Q37.2375,703.2516 36.675,703.2516 Q35.9859,703.2516 35.4094,703.5469 Q34.8469,703.8422 34.3969,704.5172 Q33.9609,705.1922 33.9609,706.1203 L33.9609,707.1047 Q33.9609,708.2156 34.7625,708.9609 Q35.5641,709.6922 36.9984,709.6922 Q37.8422,709.6922 38.4328,709.4672 Q38.7844,709.3266 39.1641,708.9328 Q39.4031,708.6938 39.5297,708.6234 Q39.6703,708.5531 39.8531,708.5531 Q40.1484,708.5531 40.3734,708.7922 Q40.6125,709.0172 40.6125,709.3266 Q40.6125,709.6359 40.3031,710.0016 Q39.8531,710.5219 39.1359,710.8172 Q38.1656,711.225 36.9984,711.225 Q35.6344,711.225 34.5516,710.6625 Q33.6656,710.2125 33.0469,709.2563 Q32.4281,708.2859 32.4281,707.1328 L32.4281,706.0922 Q32.4281,704.8969 32.9766,703.8703 Q33.5391,702.8297 34.5234,702.2813 Q35.5078,701.7188 36.6188,701.7188 Q37.2797,701.7188 37.8563,701.8734 Q38.4469,702.0141 38.9391,702.3375 Z " fill="#000000"/><text fill="#000000" font-family="sans-serif" font-size="12.6" lengthAdjust="spacing" textLength="138.6" x="49.05" y="711.2672">PropertyFilterRepository</text><line style="stroke:#181818;stroke-width:0.45;" x1="23.85" x2="189.45" y1="720.45" y2="720.45"/><line style="stroke:#181818;stroke-width:0.45;" x1="23.85" x2="189.45" y1="727.65" y2="727.65"/><text fill="#000000" font-family="sans-serif" font-size="12.6" lengthAdjust="spacing" textLength="107.1" x="28.35" y="744.8467">+getPriceRanges()</text></g><!--class ClientRepository--><g id="elem_ClientRepository"><rect codeLine="35" fill="#F1F1F1" filter="url(#fpl3ibu6oswlj)" height="59.959" id="ClientRepository" rx="2.25" ry="2.25" style="stroke:#181818;stroke-width:0.45;" width="152.1" x="155.7" y="435.15"/><ellipse cx="182.565" cy="449.55" fill="#ADD1B2" rx="9.9" ry="9.9" style="stroke:#181818;stroke-width:0.9;"/><path d="M185.0541,445.8375 Q185.1947,445.6406 185.3634,445.5422 Q185.5322,445.4438 185.7291,445.4438 Q186.0666,445.4438 186.2775,445.6828 Q186.4884,445.9078 186.4884,446.4563 L186.4884,447.7641 Q186.4884,448.3125 186.2775,448.5516 Q186.0666,448.7906 185.7291,448.7906 Q185.4197,448.7906 185.2369,448.6078 Q185.0541,448.4391 184.9556,447.975 Q184.9134,447.6516 184.7447,447.4828 Q184.4494,447.1453 183.9009,446.9484 Q183.3525,446.7516 182.79,446.7516 Q182.1009,446.7516 181.5244,447.0469 Q180.9619,447.3422 180.5119,448.0172 Q180.0759,448.6922 180.0759,449.6203 L180.0759,450.6047 Q180.0759,451.7156 180.8775,452.4609 Q181.6791,453.1922 183.1134,453.1922 Q183.9572,453.1922 184.5478,452.9672 Q184.8994,452.8266 185.2791,452.4328 Q185.5181,452.1938 185.6447,452.1234 Q185.7853,452.0531 185.9681,452.0531 Q186.2634,452.0531 186.4884,452.2922 Q186.7275,452.5172 186.7275,452.8266 Q186.7275,453.1359 186.4181,453.5016 Q185.9681,454.0219 185.2509,454.3172 Q184.2806,454.725 183.1134,454.725 Q181.7494,454.725 180.6666,454.1625 Q179.7806,453.7125 179.1619,452.7563 Q178.5431,451.7859 178.5431,450.6328 L178.5431,449.5922 Q178.5431,448.3969 179.0916,447.3703 Q179.6541,446.3297 180.6384,445.7813 Q181.6228,445.2188 182.7338,445.2188 Q183.3947,445.2188 183.9713,445.3734 Q184.5619,445.5141 185.0541,445.8375 Z " fill="#000000"/><text fill="#000000" font-family="sans-serif" font-size="12.6" lengthAdjust="spacing" textLength="93.6" x="198.135" y="454.7672">ClientRepository</text><line style="stroke:#181818;stroke-width:0.45;" x1="156.6" x2="306.9" y1="463.95" y2="463.95"/><line style="stroke:#181818;stroke-width:0.45;" x1="156.6" x2="306.9" y1="471.15" y2="471.15"/><text fill="#000000" font-family="sans-serif" font-size="12.6" lengthAdjust="spacing" textLength="141.3" x="161.1" y="488.3467">+getClientByEmail(email)</text></g><!--class AnnouncementRepository--><g id="elem_AnnouncementRepository"><rect codeLine="39" fill="#F1F1F1" filter="url(#fpl3ibu6oswlj)" height="59.959" id="AnnouncementRepository" rx="2.25" ry="2.25" style="stroke:#181818;stroke-width:0.45;" width="175.5" x="783" y="435.15"/><ellipse cx="796.5" cy="449.55" fill="#ADD1B2" rx="9.9" ry="9.9" style="stroke:#181818;stroke-width:0.9;"/><path d="M798.9891,445.8375 Q799.1297,445.6406 799.2984,445.5422 Q799.4672,445.4438 799.6641,445.4438 Q800.0016,445.4438 800.2125,445.6828 Q800.4234,445.9078 800.4234,446.4563 L800.4234,447.7641 Q800.4234,448.3125 800.2125,448.5516 Q800.0016,448.7906 799.6641,448.7906 Q799.3547,448.7906 799.1719,448.6078 Q798.9891,448.4391 798.8906,447.975 Q798.8484,447.6516 798.6797,447.4828 Q798.3844,447.1453 797.8359,446.9484 Q797.2875,446.7516 796.725,446.7516 Q796.0359,446.7516 795.4594,447.0469 Q794.8969,447.3422 794.4469,448.0172 Q794.0109,448.6922 794.0109,449.6203 L794.0109,450.6047 Q794.0109,451.7156 794.8125,452.4609 Q795.6141,453.1922 797.0484,453.1922 Q797.8922,453.1922 798.4828,452.9672 Q798.8344,452.8266 799.2141,452.4328 Q799.4531,452.1938 799.5797,452.1234 Q799.7203,452.0531 799.9031,452.0531 Q800.1984,452.0531 800.4234,452.2922 Q800.6625,452.5172 800.6625,452.8266 Q800.6625,453.1359 800.3531,453.5016 Q799.9031,454.0219 799.1859,454.3172 Q798.2156,454.725 797.0484,454.725 Q795.6844,454.725 794.6016,454.1625 Q793.7156,453.7125 793.0969,452.7563 Q792.4781,451.7859 792.4781,450.6328 L792.4781,449.5922 Q792.4781,448.3969 793.0266,447.3703 Q793.5891,446.3297 794.5734,445.7813 Q795.5578,445.2188 796.6688,445.2188 Q797.3297,445.2188 797.9063,445.3734 Q798.4969,445.5141 798.9891,445.8375 Z " fill="#000000"/><text fill="#000000" font-family="sans-serif" font-size="12.6" lengthAdjust="spacing" textLength="146.7" x="809.1" y="454.7672">AnnouncementRepository</text><line style="stroke:#181818;stroke-width:0.45;" x1="783.9" x2="957.6" y1="463.95" y2="463.95"/><line style="stroke:#181818;stroke-width:0.45;" x1="783.9" x2="957.6" y1="471.15" y2="471.15"/><text fill="#000000" font-family="sans-serif" font-size="12.6" lengthAdjust="spacing" textLength="151.2" x="788.4" y="488.3467">+getSaleAnnouncements()</text></g><!--class PurchaseOrderRepository--><g id="elem_PurchaseOrderRepository"><rect codeLine="42" fill="#F1F1F1" filter="url(#fpl3ibu6oswlj)" height="93.477" id="PurchaseOrderRepository" rx="2.25" ry="2.25" style="stroke:#181818;stroke-width:0.45;" width="283.5" x="339.3" y="418.5"/><ellipse cx="402.975" cy="432.9" fill="#ADD1B2" rx="9.9" ry="9.9" style="stroke:#181818;stroke-width:0.9;"/><path d="M405.4641,429.1875 Q405.6047,428.9906 405.7734,428.8922 Q405.9422,428.7938 406.1391,428.7938 Q406.4766,428.7938 406.6875,429.0328 Q406.8984,429.2578 406.8984,429.8063 L406.8984,431.1141 Q406.8984,431.6625 406.6875,431.9016 Q406.4766,432.1406 406.1391,432.1406 Q405.8297,432.1406 405.6469,431.9578 Q405.4641,431.7891 405.3656,431.325 Q405.3234,431.0016 405.1547,430.8328 Q404.8594,430.4953 404.3109,430.2984 Q403.7625,430.1016 403.2,430.1016 Q402.5109,430.1016 401.9344,430.3969 Q401.3719,430.6922 400.9219,431.3672 Q400.4859,432.0422 400.4859,432.9703 L400.4859,433.9547 Q400.4859,435.0656 401.2875,435.8109 Q402.0891,436.5422 403.5234,436.5422 Q404.3672,436.5422 404.9578,436.3172 Q405.3094,436.1766 405.6891,435.7828 Q405.9281,435.5438 406.0547,435.4734 Q406.1953,435.4031 406.3781,435.4031 Q406.6734,435.4031 406.8984,435.6422 Q407.1375,435.8672 407.1375,436.1766 Q407.1375,436.4859 406.8281,436.8516 Q406.3781,437.3719 405.6609,437.6672 Q404.6906,438.075 403.5234,438.075 Q402.1594,438.075 401.0766,437.5125 Q400.1906,437.0625 399.5719,436.1063 Q398.9531,435.1359 398.9531,433.9828 L398.9531,432.9422 Q398.9531,431.7469 399.5016,430.7203 Q400.0641,429.6797 401.0484,429.1313 Q402.0328,428.5688 403.1438,428.5688 Q403.8047,428.5688 404.3813,428.7234 Q404.9719,428.8641 405.4641,429.1875 Z " fill="#000000"/><text fill="#000000" font-family="sans-serif" font-size="12.6" lengthAdjust="spacing" textLength="148.5" x="421.425" y="438.1172">PurchaseOrderRepository</text><line style="stroke:#181818;stroke-width:0.45;" x1="340.2" x2="621.9" y1="447.3" y2="447.3"/><line style="stroke:#181818;stroke-width:0.45;" x1="340.2" x2="621.9" y1="454.5" y2="454.5"/><text fill="#000000" font-family="sans-serif" font-size="12.6" lengthAdjust="spacing" textLength="272.7" x="344.7" y="471.6967">+placeOrder(orderAmount, propertyDescription)</text><text fill="#000000" font-family="sans-serif" font-size="12.6" lengthAdjust="spacing" textLength="94.5" x="344.7" y="488.4557">-addOffer(order)</text><text fill="#000000" font-family="sans-serif" font-size="12.6" lengthAdjust="spacing" textLength="117" x="344.7" y="505.2146">-validateOffer(order)</text></g><!--class Client--><g id="elem_Client"><rect codeLine="47" fill="#F1F1F1" filter="url(#fpl3ibu6oswlj)" height="126.9949" id="Client" rx="2.25" ry="2.25" style="stroke:#181818;stroke-width:0.45;" width="152.1" x="445.5" y="1411.2"/><ellipse cx="501.525" cy="1425.6" fill="#ADD1B2" rx="9.9" ry="9.9" style="stroke:#181818;stroke-width:0.9;"/><path d="M504.0141,1421.8875 Q504.1547,1421.6906 504.3234,1421.5922 Q504.4922,1421.4938 504.6891,1421.4938 Q505.0266,1421.4938 505.2375,1421.7328 Q505.4484,1421.9578 505.4484,1422.5063 L505.4484,1423.8141 Q505.4484,1424.3625 505.2375,1424.6016 Q505.0266,1424.8406 504.6891,1424.8406 Q504.3797,1424.8406 504.1969,1424.6578 Q504.0141,1424.4891 503.9156,1424.025 Q503.8734,1423.7016 503.7047,1423.5328 Q503.4094,1423.1953 502.8609,1422.9984 Q502.3125,1422.8016 501.75,1422.8016 Q501.0609,1422.8016 500.4844,1423.0969 Q499.9219,1423.3922 499.4719,1424.0672 Q499.0359,1424.7422 499.0359,1425.6703 L499.0359,1426.6547 Q499.0359,1427.7656 499.8375,1428.5109 Q500.6391,1429.2422 502.0734,1429.2422 Q502.9172,1429.2422 503.5078,1429.0172 Q503.8594,1428.8766 504.2391,1428.4828 Q504.4781,1428.2438 504.6047,1428.1734 Q504.7453,1428.1031 504.9281,1428.1031 Q505.2234,1428.1031 505.4484,1428.3422 Q505.6875,1428.5672 505.6875,1428.8766 Q505.6875,1429.1859 505.3781,1429.5516 Q504.9281,1430.0719 504.2109,1430.3672 Q503.2406,1430.775 502.0734,1430.775 Q500.7094,1430.775 499.6266,1430.2125 Q498.7406,1429.7625 498.1219,1428.8063 Q497.5031,1427.8359 497.5031,1426.6828 L497.5031,1425.6422 Q497.5031,1424.4469 498.0516,1423.4203 Q498.6141,1422.3797 499.5984,1421.8313 Q500.5828,1421.2688 501.6938,1421.2688 Q502.3547,1421.2688 502.9313,1421.4234 Q503.5219,1421.5641 504.0141,1421.8875 Z " fill="#000000"/><text fill="#000000" font-family="sans-serif" font-size="12.6" lengthAdjust="spacing" textLength="32.4" x="519.975" y="1430.8172">Client</text><line style="stroke:#181818;stroke-width:0.45;" x1="446.4" x2="596.7" y1="1440" y2="1440"/><text fill="#000000" font-family="sans-serif" font-size="12.6" lengthAdjust="spacing" textLength="72.9" x="450.9" y="1457.1967">-String name</text><text fill="#000000" font-family="sans-serif" font-size="12.6" lengthAdjust="spacing" textLength="141.3" x="450.9" y="1473.9557">-Integer passportNumber</text><text fill="#000000" font-family="sans-serif" font-size="12.6" lengthAdjust="spacing" textLength="101.7" x="450.9" y="1490.7146">-String taxNumber</text><text fill="#000000" font-family="sans-serif" font-size="12.6" lengthAdjust="spacing" textLength="71.1" x="450.9" y="1507.4736">-String email</text><text fill="#000000" font-family="sans-serif" font-size="12.6" lengthAdjust="spacing" textLength="127.8" x="450.9" y="1524.2326">-Integer phoneNumber</text><line style="stroke:#181818;stroke-width:0.45;" x1="446.4" x2="596.7" y1="1530.9949" y2="1530.9949"/></g><!--class Pair--><g id="elem_Pair"><rect codeLine="54" fill="#F1F1F1" filter="url(#fpl3ibu6oswlj)" height="76.718" id="Pair" rx="2.25" ry="2.25" style="stroke:#181818;stroke-width:0.45;" width="74.7" x="37.8" y="1221.75"/><ellipse cx="61.83" cy="1236.15" fill="#ADD1B2" rx="9.9" ry="9.9" style="stroke:#181818;stroke-width:0.9;"/><path d="M64.3191,1232.4375 Q64.4597,1232.2406 64.6284,1232.1422 Q64.7972,1232.0438 64.9941,1232.0438 Q65.3316,1232.0438 65.5425,1232.2828 Q65.7534,1232.5078 65.7534,1233.0563 L65.7534,1234.3641 Q65.7534,1234.9125 65.5425,1235.1516 Q65.3316,1235.3906 64.9941,1235.3906 Q64.6847,1235.3906 64.5019,1235.2078 Q64.3191,1235.0391 64.2206,1234.575 Q64.1784,1234.2516 64.0097,1234.0828 Q63.7144,1233.7453 63.1659,1233.5484 Q62.6175,1233.3516 62.055,1233.3516 Q61.3659,1233.3516 60.7894,1233.6469 Q60.2269,1233.9422 59.7769,1234.6172 Q59.3409,1235.2922 59.3409,1236.2203 L59.3409,1237.2047 Q59.3409,1238.3156 60.1425,1239.0609 Q60.9441,1239.7922 62.3784,1239.7922 Q63.2222,1239.7922 63.8128,1239.5672 Q64.1644,1239.4266 64.5441,1239.0328 Q64.7831,1238.7938 64.9097,1238.7234 Q65.0503,1238.6531 65.2331,1238.6531 Q65.5284,1238.6531 65.7534,1238.8922 Q65.9925,1239.1172 65.9925,1239.4266 Q65.9925,1239.7359 65.6831,1240.1016 Q65.2331,1240.6219 64.5159,1240.9172 Q63.5456,1241.325 62.3784,1241.325 Q61.0144,1241.325 59.9316,1240.7625 Q59.0456,1240.3125 58.4269,1239.3563 Q57.8081,1238.3859 57.8081,1237.2328 L57.8081,1236.1922 Q57.8081,1234.9969 58.3566,1233.9703 Q58.9191,1232.9297 59.9034,1232.3813 Q60.8878,1231.8188 61.9988,1231.8188 Q62.6597,1231.8188 63.2363,1231.9734 Q63.8269,1232.1141 64.3191,1232.4375 Z " fill="#000000"/><text fill="#000000" font-family="sans-serif" font-size="12.6" lengthAdjust="spacing" textLength="22.5" x="76.77" y="1241.3672">Pair</text><line style="stroke:#181818;stroke-width:0.45;" x1="38.7" x2="111.6" y1="1250.55" y2="1250.55"/><line style="stroke:#181818;stroke-width:0.45;" x1="38.7" x2="111.6" y1="1257.75" y2="1257.75"/><text fill="#000000" font-family="sans-serif" font-size="12.6" lengthAdjust="spacing" textLength="55.8" x="43.2" y="1274.9467">+getLeft()</text><text fill="#000000" font-family="sans-serif" font-size="12.6" lengthAdjust="spacing" textLength="63.9" x="43.2" y="1291.7057">+getRight()</text></g><!--class Repositories--><g id="elem_Repositories"><rect codeLine="58" fill="#F1F1F1" filter="url(#fpl3ibu6oswlj)" height="177.2719" id="Repositories" rx="2.25" ry="2.25" style="stroke:#181818;stroke-width:0.45;" width="193.5" x="574.2" y="187.2"/><ellipse cx="631.575" cy="201.6" fill="#ADD1B2" rx="9.9" ry="9.9" style="stroke:#181818;stroke-width:0.9;"/><path d="M634.0641,197.8875 Q634.2047,197.6906 634.3734,197.5922 Q634.5422,197.4938 634.7391,197.4938 Q635.0766,197.4938 635.2875,197.7328 Q635.4984,197.9578 635.4984,198.5063 L635.4984,199.8141 Q635.4984,200.3625 635.2875,200.6016 Q635.0766,200.8406 634.7391,200.8406 Q634.4297,200.8406 634.2469,200.6578 Q634.0641,200.4891 633.9656,200.025 Q633.9234,199.7016 633.7547,199.5328 Q633.4594,199.1953 632.9109,198.9984 Q632.3625,198.8016 631.8,198.8016 Q631.1109,198.8016 630.5344,199.0969 Q629.9719,199.3922 629.5219,200.0672 Q629.0859,200.7422 629.0859,201.6703 L629.0859,202.6547 Q629.0859,203.7656 629.8875,204.5109 Q630.6891,205.2422 632.1234,205.2422 Q632.9672,205.2422 633.5578,205.0172 Q633.9094,204.8766 634.2891,204.4828 Q634.5281,204.2438 634.6547,204.1734 Q634.7953,204.1031 634.9781,204.1031 Q635.2734,204.1031 635.4984,204.3422 Q635.7375,204.5672 635.7375,204.8766 Q635.7375,205.1859 635.4281,205.5516 Q634.9781,206.0719 634.2609,206.3672 Q633.2906,206.775 632.1234,206.775 Q630.7594,206.775 629.6766,206.2125 Q628.7906,205.7625 628.1719,204.8063 Q627.5531,203.8359 627.5531,202.6828 L627.5531,201.6422 Q627.5531,200.4469 628.1016,199.4203 Q628.6641,198.3797 629.6484,197.8313 Q630.6328,197.2688 631.7438,197.2688 Q632.4047,197.2688 632.9813,197.4234 Q633.5719,197.5641 634.0641,197.8875 Z " fill="#000000"/><text fill="#000000" font-family="sans-serif" font-size="12.6" lengthAdjust="spacing" textLength="71.1" x="650.025" y="206.8172">Repositories</text><line style="stroke:#181818;stroke-width:0.45;" x1="575.1" x2="766.8" y1="216" y2="216"/><line style="stroke:#181818;stroke-width:0.45;" x1="575.1" x2="766.8" y1="223.2" y2="223.2"/><text fill="#000000" font-family="sans-serif" font-size="12.6" lengthAdjust="spacing" textLength="84.6" x="579.6" y="240.3967">-Repositories()</text><text fill="#000000" font-family="sans-serif" font-size="12.6" lengthAdjust="spacing" textLength="163.8" x="579.6" y="257.1557">+getInstance() : Repositories</text><text fill="#000000" font-family="sans-serif" font-size="12.6" lengthAdjust="spacing" textLength="180.9" x="579.6" y="273.9146">+getAnnouncementRepository()</text><text fill="#000000" font-family="sans-serif" font-size="12.6" lengthAdjust="spacing" textLength="144" x="579.6" y="290.6736">+getPropertyRepository()</text><text fill="#000000" font-family="sans-serif" font-size="12.6" lengthAdjust="spacing" textLength="126" x="579.6" y="307.4326">+getStoreRepository()</text><text fill="#000000" font-family="sans-serif" font-size="12.6" lengthAdjust="spacing" textLength="172.8" x="579.6" y="324.1916">+getPropertyFilterRepository()</text><text fill="#000000" font-family="sans-serif" font-size="12.6" lengthAdjust="spacing" textLength="182.7" x="579.6" y="340.9506">+getPurchaseOrderRepository()</text><text fill="#000000" font-family="sans-serif" font-size="12.6" lengthAdjust="spacing" textLength="127.8" x="579.6" y="357.7096">+getClientRepository()</text></g><!--class StoreRepository--><g id="elem_StoreRepository"><rect codeLine="68" fill="#F1F1F1" filter="url(#fpl3ibu6oswlj)" height="76.718" id="StoreRepository" rx="2.25" ry="2.25" style="stroke:#181818;stroke-width:0.45;" width="246.6" x="775.35" y="683.55"/><ellipse cx="848.925" cy="697.95" fill="#ADD1B2" rx="9.9" ry="9.9" style="stroke:#181818;stroke-width:0.9;"/><path d="M851.4141,694.2375 Q851.5547,694.0406 851.7234,693.9422 Q851.8922,693.8438 852.0891,693.8438 Q852.4266,693.8438 852.6375,694.0828 Q852.8484,694.3078 852.8484,694.8563 L852.8484,696.1641 Q852.8484,696.7125 852.6375,696.9516 Q852.4266,697.1906 852.0891,697.1906 Q851.7797,697.1906 851.5969,697.0078 Q851.4141,696.8391 851.3156,696.375 Q851.2734,696.0516 851.1047,695.8828 Q850.8094,695.5453 850.2609,695.3484 Q849.7125,695.1516 849.15,695.1516 Q848.4609,695.1516 847.8844,695.4469 Q847.3219,695.7422 846.8719,696.4172 Q846.4359,697.0922 846.4359,698.0203 L846.4359,699.0047 Q846.4359,700.1156 847.2375,700.8609 Q848.0391,701.5922 849.4734,701.5922 Q850.3172,701.5922 850.9078,701.3672 Q851.2594,701.2266 851.6391,700.8328 Q851.8781,700.5938 852.0047,700.5234 Q852.1453,700.4531 852.3281,700.4531 Q852.6234,700.4531 852.8484,700.6922 Q853.0875,700.9172 853.0875,701.2266 Q853.0875,701.5359 852.7781,701.9016 Q852.3281,702.4219 851.6109,702.7172 Q850.6406,703.125 849.4734,703.125 Q848.1094,703.125 847.0266,702.5625 Q846.1406,702.1125 845.5219,701.1563 Q844.9031,700.1859 844.9031,699.0328 L844.9031,697.9922 Q844.9031,696.7969 845.4516,695.7703 Q846.0141,694.7297 846.9984,694.1813 Q847.9828,693.6188 849.0938,693.6188 Q849.7547,693.6188 850.3313,693.7734 Q850.9219,693.9141 851.4141,694.2375 Z " fill="#000000"/><text fill="#000000" font-family="sans-serif" font-size="12.6" lengthAdjust="spacing" textLength="91.8" x="867.375" y="703.1672">StoreRepository</text><line style="stroke:#181818;stroke-width:0.45;" x1="776.25" x2="1021.05" y1="712.35" y2="712.35"/><line style="stroke:#181818;stroke-width:0.45;" x1="776.25" x2="1021.05" y1="719.55" y2="719.55"/><text fill="#000000" font-family="sans-serif" font-size="12.6" lengthAdjust="spacing" textLength="235.8" x="780.75" y="736.7467">+getStoreByDescription(storeDescription)</text><text fill="#000000" font-family="sans-serif" font-size="12.6" lengthAdjust="spacing" textLength="135.9" x="780.75" y="753.5057">+getStoresWithAgents()</text></g><!--class PlaceOrderController--><g id="elem_PlaceOrderController"><rect codeLine="72" fill="#F1F1F1" filter="url(#fpl3ibu6oswlj)" height="126.9949" id="PlaceOrderController" rx="2.25" ry="2.25" style="stroke:#181818;stroke-width:0.45;" width="507.6" x="227.25" y="6.3"/><ellipse cx="416.925" cy="20.7" fill="#ADD1B2" rx="9.9" ry="9.9" style="stroke:#181818;stroke-width:0.9;"/><path d="M419.4141,16.9875 Q419.5547,16.7906 419.7234,16.6922 Q419.8922,16.5938 420.0891,16.5938 Q420.4266,16.5938 420.6375,16.8328 Q420.8484,17.0578 420.8484,17.6063 L420.8484,18.9141 Q420.8484,19.4625 420.6375,19.7016 Q420.4266,19.9406 420.0891,19.9406 Q419.7797,19.9406 419.5969,19.7578 Q419.4141,19.5891 419.3156,19.125 Q419.2734,18.8016 419.1047,18.6328 Q418.8094,18.2953 418.2609,18.0984 Q417.7125,17.9016 417.15,17.9016 Q416.4609,17.9016 415.8844,18.1969 Q415.3219,18.4922 414.8719,19.1672 Q414.4359,19.8422 414.4359,20.7703 L414.4359,21.7547 Q414.4359,22.8656 415.2375,23.6109 Q416.0391,24.3422 417.4734,24.3422 Q418.3172,24.3422 418.9078,24.1172 Q419.2594,23.9766 419.6391,23.5828 Q419.8781,23.3438 420.0047,23.2734 Q420.1453,23.2031 420.3281,23.2031 Q420.6234,23.2031 420.8484,23.4422 Q421.0875,23.6672 421.0875,23.9766 Q421.0875,24.2859 420.7781,24.6516 Q420.3281,25.1719 419.6109,25.4672 Q418.6406,25.875 417.4734,25.875 Q416.1094,25.875 415.0266,25.3125 Q414.1406,24.8625 413.5219,23.9063 Q412.9031,22.9359 412.9031,21.7828 L412.9031,20.7422 Q412.9031,19.5469 413.4516,18.5203 Q414.0141,17.4797 414.9984,16.9313 Q415.9828,16.3688 417.0938,16.3688 Q417.7547,16.3688 418.3313,16.5234 Q418.9219,16.6641 419.4141,16.9875 Z " fill="#000000"/><text fill="#000000" font-family="sans-serif" font-size="12.6" lengthAdjust="spacing" textLength="120.6" x="435.375" y="25.9172">PlaceOrderController</text><line style="stroke:#181818;stroke-width:0.45;" x1="228.15" x2="733.95" y1="35.1" y2="35.1"/><line style="stroke:#181818;stroke-width:0.45;" x1="228.15" x2="733.95" y1="42.3" y2="42.3"/><text fill="#000000" font-family="sans-serif" font-size="12.6" lengthAdjust="spacing" textLength="496.8" x="232.65" y="59.4967">+PlaceOrderController(announcementRepository, propertyRepository, clientRepository)</text><text fill="#000000" font-family="sans-serif" font-size="12.6" lengthAdjust="spacing" textLength="107.1" x="232.65" y="76.2557">+getPriceRanges()</text><text fill="#000000" font-family="sans-serif" font-size="12.6" lengthAdjust="spacing" textLength="71.1" x="232.65" y="93.0146">+getStores()</text><text fill="#000000" font-family="sans-serif" font-size="12.6" lengthAdjust="spacing" textLength="245.7" x="232.65" y="109.7736">+getAvailableProperties(store, priceRange)</text><text fill="#000000" font-family="sans-serif" font-size="12.6" lengthAdjust="spacing" textLength="270" x="232.65" y="126.5326">-placeOrder(orderAmount, propertyDescription)</text></g><!--class Property--><g id="elem_Property"><rect codeLine="79" fill="#F1F1F1" filter="url(#fpl3ibu6oswlj)" height="311.3438" id="Property" rx="2.25" ry="2.25" style="stroke:#181818;stroke-width:0.45;" width="361.8" x="1053.45" y="566.1"/><ellipse cx="1206.225" cy="580.5" fill="#ADD1B2" rx="9.9" ry="9.9" style="stroke:#181818;stroke-width:0.9;"/><path d="M1208.7141,576.7875 Q1208.8547,576.5906 1209.0234,576.4922 Q1209.1922,576.3938 1209.3891,576.3938 Q1209.7266,576.3938 1209.9375,576.6328 Q1210.1484,576.8578 1210.1484,577.4063 L1210.1484,578.7141 Q1210.1484,579.2625 1209.9375,579.5016 Q1209.7266,579.7406 1209.3891,579.7406 Q1209.0797,579.7406 1208.8969,579.5578 Q1208.7141,579.3891 1208.6156,578.925 Q1208.5734,578.6016 1208.4047,578.4328 Q1208.1094,578.0953 1207.5609,577.8984 Q1207.0125,577.7016 1206.45,577.7016 Q1205.7609,577.7016 1205.1844,577.9969 Q1204.6219,578.2922 1204.1719,578.9672 Q1203.7359,579.6422 1203.7359,580.5703 L1203.7359,581.5547 Q1203.7359,582.6656 1204.5375,583.4109 Q1205.3391,584.1422 1206.7734,584.1422 Q1207.6172,584.1422 1208.2078,583.9172 Q1208.5594,583.7766 1208.9391,583.3828 Q1209.1781,583.1438 1209.3047,583.0734 Q1209.4453,583.0031 1209.6281,583.0031 Q1209.9234,583.0031 1210.1484,583.2422 Q1210.3875,583.4672 1210.3875,583.7766 Q1210.3875,584.0859 1210.0781,584.4516 Q1209.6281,584.9719 1208.9109,585.2672 Q1207.9406,585.675 1206.7734,585.675 Q1205.4094,585.675 1204.3266,585.1125 Q1203.4406,584.6625 1202.8219,583.7063 Q1202.2031,582.7359 1202.2031,581.5828 L1202.2031,580.5422 Q1202.2031,579.3469 1202.7516,578.3203 Q1203.3141,577.2797 1204.2984,576.7313 Q1205.2828,576.1688 1206.3938,576.1688 Q1207.0547,576.1688 1207.6313,576.3234 Q1208.2219,576.4641 1208.7141,576.7875 Z " fill="#000000"/><text fill="#000000" font-family="sans-serif" font-size="12.6" lengthAdjust="spacing" textLength="48.6" x="1224.675" y="585.7172">Property</text><line style="stroke:#181818;stroke-width:0.45;" x1="1054.35" x2="1414.35" y1="594.9" y2="594.9"/><text fill="#000000" font-family="sans-serif" font-size="12.6" lengthAdjust="spacing" textLength="74.7" x="1058.85" y="612.0967">-double price</text><text fill="#000000" font-family="sans-serif" font-size="12.6" lengthAdjust="spacing" textLength="72.9" x="1058.85" y="628.8557">-double area</text><text fill="#000000" font-family="sans-serif" font-size="12.6" lengthAdjust="spacing" textLength="100.8" x="1058.85" y="645.6146">-Address address</text><text fill="#000000" font-family="sans-serif" font-size="12.6" lengthAdjust="spacing" textLength="148.5" x="1058.85" y="662.3736">-double distanceToCentre</text><text fill="#000000" font-family="sans-serif" font-size="12.6" lengthAdjust="spacing" textLength="180.9" x="1058.85" y="679.1326">-List&lt;Photograph&gt; photographs</text><text fill="#000000" font-family="sans-serif" font-size="12.6" lengthAdjust="spacing" textLength="162" x="1058.85" y="695.8916">-PropertyType propertyType</text><text fill="#000000" font-family="sans-serif" font-size="12.6" lengthAdjust="spacing" textLength="88.2" x="1058.85" y="712.6506">-DateTime date</text><line style="stroke:#181818;stroke-width:0.45;" x1="1054.35" x2="1414.35" y1="719.4129" y2="719.4129"/><text fill="#000000" font-family="sans-serif" font-size="12.6" lengthAdjust="spacing" textLength="351" x="1058.85" y="736.6096">+sendAnnouncementRequest(businessType, property, agent)</text><text fill="#000000" font-family="sans-serif" font-size="12.6" lengthAdjust="spacing" textLength="63" x="1058.85" y="753.3686">+getPrice()</text><text fill="#000000" font-family="sans-serif" font-size="12.6" lengthAdjust="spacing" textLength="61.2" x="1058.85" y="770.1275">+getArea()</text><text fill="#000000" font-family="sans-serif" font-size="12.6" lengthAdjust="spacing" textLength="81" x="1058.85" y="786.8865">+getAddress()</text><text fill="#000000" font-family="sans-serif" font-size="12.6" lengthAdjust="spacing" textLength="137.7" x="1058.85" y="803.6455">+getDistanceToCentre()</text><text fill="#000000" font-family="sans-serif" font-size="12.6" lengthAdjust="spacing" textLength="107.1" x="1058.85" y="820.4045">+getPhotographs()</text><text fill="#000000" font-family="sans-serif" font-size="12.6" lengthAdjust="spacing" textLength="111.6" x="1058.85" y="837.1635">+getPropertyType()</text><text fill="#000000" font-family="sans-serif" font-size="12.6" lengthAdjust="spacing" textLength="64.8" x="1058.85" y="853.9225">+getStore()</text><text fill="#000000" font-family="sans-serif" font-size="12.6" lengthAdjust="spacing" textLength="66.6" x="1058.85" y="870.6814">+getClient()</text></g><!--class Inhabitable--><g id="elem_Inhabitable"><rect codeLine="97" fill="#F1F1F1" filter="url(#fpl3ibu6oswlj)" height="110.2359" id="Inhabitable" rx="2.25" ry="2.25" style="stroke:#181818;stroke-width:0.45;" width="180.9" x="1143.9" y="965.25"/><ellipse cx="1199.475" cy="979.65" fill="#ADD1B2" rx="9.9" ry="9.9" style="stroke:#181818;stroke-width:0.9;"/><path d="M1201.9641,975.9375 Q1202.1047,975.7406 1202.2734,975.6422 Q1202.4422,975.5438 1202.6391,975.5438 Q1202.9766,975.5438 1203.1875,975.7828 Q1203.3984,976.0078 1203.3984,976.5563 L1203.3984,977.8641 Q1203.3984,978.4125 1203.1875,978.6516 Q1202.9766,978.8906 1202.6391,978.8906 Q1202.3297,978.8906 1202.1469,978.7078 Q1201.9641,978.5391 1201.8656,978.075 Q1201.8234,977.7516 1201.6547,977.5828 Q1201.3594,977.2453 1200.8109,977.0484 Q1200.2625,976.8516 1199.7,976.8516 Q1199.0109,976.8516 1198.4344,977.1469 Q1197.8719,977.4422 1197.4219,978.1172 Q1196.9859,978.7922 1196.9859,979.7203 L1196.9859,980.7047 Q1196.9859,981.8156 1197.7875,982.5609 Q1198.5891,983.2922 1200.0234,983.2922 Q1200.8672,983.2922 1201.4578,983.0672 Q1201.8094,982.9266 1202.1891,982.5328 Q1202.4281,982.2938 1202.5547,982.2234 Q1202.6953,982.1531 1202.8781,982.1531 Q1203.1734,982.1531 1203.3984,982.3922 Q1203.6375,982.6172 1203.6375,982.9266 Q1203.6375,983.2359 1203.3281,983.6016 Q1202.8781,984.1219 1202.1609,984.4172 Q1201.1906,984.825 1200.0234,984.825 Q1198.6594,984.825 1197.5766,984.2625 Q1196.6906,983.8125 1196.0719,982.8563 Q1195.4531,981.8859 1195.4531,980.7328 L1195.4531,979.6922 Q1195.4531,978.4969 1196.0016,977.4703 Q1196.5641,976.4297 1197.5484,975.8813 Q1198.5328,975.3188 1199.6438,975.3188 Q1200.3047,975.3188 1200.8813,975.4734 Q1201.4719,975.6141 1201.9641,975.9375 Z " fill="#000000"/><text fill="#000000" font-family="sans-serif" font-size="12.6" lengthAdjust="spacing" textLength="62.1" x="1217.925" y="984.8672">Inhabitable</text><line style="stroke:#181818;stroke-width:0.45;" x1="1144.8" x2="1323.9" y1="994.05" y2="994.05"/><text fill="#000000" font-family="sans-serif" font-size="12.6" lengthAdjust="spacing" textLength="142.2" x="1149.3" y="1011.2467">-Integer bedroomNumber</text><text fill="#000000" font-family="sans-serif" font-size="12.6" lengthAdjust="spacing" textLength="145.8" x="1149.3" y="1028.0057">-Integer bathroomNumber</text><text fill="#000000" font-family="sans-serif" font-size="12.6" lengthAdjust="spacing" textLength="170.1" x="1149.3" y="1044.7646">-Integer parkingSpaceNumber</text><text fill="#000000" font-family="sans-serif" font-size="12.6" lengthAdjust="spacing" textLength="154.8" x="1149.3" y="1061.5236">-List&lt;String&gt; equipmentList</text><line style="stroke:#181818;stroke-width:0.45;" x1="1144.8" x2="1323.9" y1="1068.2859" y2="1068.2859"/></g><!--class Photograph--><g id="elem_Photograph"><rect codeLine="103" fill="#F1F1F1" filter="url(#fpl3ibu6oswlj)" height="59.959" id="Photograph" rx="2.25" ry="2.25" style="stroke:#181818;stroke-width:0.45;" width="95.4" x="1446.75" y="691.65"/><ellipse cx="1460.25" cy="706.05" fill="#ADD1B2" rx="9.9" ry="9.9" style="stroke:#181818;stroke-width:0.9;"/><path d="M1462.7391,702.3375 Q1462.8797,702.1406 1463.0484,702.0422 Q1463.2172,701.9438 1463.4141,701.9438 Q1463.7516,701.9438 1463.9625,702.1828 Q1464.1734,702.4078 1464.1734,702.9563 L1464.1734,704.2641 Q1464.1734,704.8125 1463.9625,705.0516 Q1463.7516,705.2906 1463.4141,705.2906 Q1463.1047,705.2906 1462.9219,705.1078 Q1462.7391,704.9391 1462.6406,704.475 Q1462.5984,704.1516 1462.4297,703.9828 Q1462.1344,703.6453 1461.5859,703.4484 Q1461.0375,703.2516 1460.475,703.2516 Q1459.7859,703.2516 1459.2094,703.5469 Q1458.6469,703.8422 1458.1969,704.5172 Q1457.7609,705.1922 1457.7609,706.1203 L1457.7609,707.1047 Q1457.7609,708.2156 1458.5625,708.9609 Q1459.3641,709.6922 1460.7984,709.6922 Q1461.6422,709.6922 1462.2328,709.4672 Q1462.5844,709.3266 1462.9641,708.9328 Q1463.2031,708.6938 1463.3297,708.6234 Q1463.4703,708.5531 1463.6531,708.5531 Q1463.9484,708.5531 1464.1734,708.7922 Q1464.4125,709.0172 1464.4125,709.3266 Q1464.4125,709.6359 1464.1031,710.0016 Q1463.6531,710.5219 1462.9359,710.8172 Q1461.9656,711.225 1460.7984,711.225 Q1459.4344,711.225 1458.3516,710.6625 Q1457.4656,710.2125 1456.8469,709.2563 Q1456.2281,708.2859 1456.2281,707.1328 L1456.2281,706.0922 Q1456.2281,704.8969 1456.7766,703.8703 Q1457.3391,702.8297 1458.3234,702.2813 Q1459.3078,701.7188 1460.4188,701.7188 Q1461.0797,701.7188 1461.6563,701.8734 Q1462.2469,702.0141 1462.7391,702.3375 Z " fill="#000000"/><text fill="#000000" font-family="sans-serif" font-size="12.6" lengthAdjust="spacing" textLength="66.6" x="1472.85" y="711.2672">Photograph</text><line style="stroke:#181818;stroke-width:0.45;" x1="1447.65" x2="1541.25" y1="720.45" y2="720.45"/><text fill="#000000" font-family="sans-serif" font-size="12.6" lengthAdjust="spacing" textLength="55.8" x="1452.15" y="737.6467">-String uri</text><line style="stroke:#181818;stroke-width:0.45;" x1="1447.65" x2="1541.25" y1="744.409" y2="744.409"/></g><!--class House--><g id="elem_House"><rect codeLine="106" fill="#F1F1F1" filter="url(#fpl3ibu6oswlj)" height="93.477" id="House" rx="2.25" ry="2.25" style="stroke:#181818;stroke-width:0.45;" width="143.1" x="1162.8" y="1213.2"/><ellipse cx="1212.525" cy="1227.6" fill="#ADD1B2" rx="9.9" ry="9.9" style="stroke:#181818;stroke-width:0.9;"/><path d="M1215.0141,1223.8875 Q1215.1547,1223.6906 1215.3234,1223.5922 Q1215.4922,1223.4938 1215.6891,1223.4938 Q1216.0266,1223.4938 1216.2375,1223.7328 Q1216.4484,1223.9578 1216.4484,1224.5063 L1216.4484,1225.8141 Q1216.4484,1226.3625 1216.2375,1226.6016 Q1216.0266,1226.8406 1215.6891,1226.8406 Q1215.3797,1226.8406 1215.1969,1226.6578 Q1215.0141,1226.4891 1214.9156,1226.025 Q1214.8734,1225.7016 1214.7047,1225.5328 Q1214.4094,1225.1953 1213.8609,1224.9984 Q1213.3125,1224.8016 1212.75,1224.8016 Q1212.0609,1224.8016 1211.4844,1225.0969 Q1210.9219,1225.3922 1210.4719,1226.0672 Q1210.0359,1226.7422 1210.0359,1227.6703 L1210.0359,1228.6547 Q1210.0359,1229.7656 1210.8375,1230.5109 Q1211.6391,1231.2422 1213.0734,1231.2422 Q1213.9172,1231.2422 1214.5078,1231.0172 Q1214.8594,1230.8766 1215.2391,1230.4828 Q1215.4781,1230.2438 1215.6047,1230.1734 Q1215.7453,1230.1031 1215.9281,1230.1031 Q1216.2234,1230.1031 1216.4484,1230.3422 Q1216.6875,1230.5672 1216.6875,1230.8766 Q1216.6875,1231.1859 1216.3781,1231.5516 Q1215.9281,1232.0719 1215.2109,1232.3672 Q1214.2406,1232.775 1213.0734,1232.775 Q1211.7094,1232.775 1210.6266,1232.2125 Q1209.7406,1231.7625 1209.1219,1230.8063 Q1208.5031,1229.8359 1208.5031,1228.6828 L1208.5031,1227.6422 Q1208.5031,1226.4469 1209.0516,1225.4203 Q1209.6141,1224.3797 1210.5984,1223.8313 Q1211.5828,1223.2688 1212.6938,1223.2688 Q1213.3547,1223.2688 1213.9313,1223.4234 Q1214.5219,1223.5641 1215.0141,1223.8875 Z " fill="#000000"/><text fill="#000000" font-family="sans-serif" font-size="12.6" lengthAdjust="spacing" textLength="36" x="1230.975" y="1232.8172">House</text><line style="stroke:#181818;stroke-width:0.45;" x1="1163.7" x2="1305" y1="1242" y2="1242"/><text fill="#000000" font-family="sans-serif" font-size="12.6" lengthAdjust="spacing" textLength="132.3" x="1168.2" y="1259.1967">-Boolean hasBasement</text><text fill="#000000" font-family="sans-serif" font-size="12.6" lengthAdjust="spacing" textLength="97.2" x="1168.2" y="1275.9557">-Boolean hasLoft</text><text fill="#000000" font-family="sans-serif" font-size="12.6" lengthAdjust="spacing" textLength="115.2" x="1168.2" y="1292.7146">-String sunExposure</text><line style="stroke:#181818;stroke-width:0.45;" x1="1163.7" x2="1305" y1="1299.477" y2="1299.477"/></g><!--class Announcement--><g id="elem_Announcement"><rect codeLine="112" fill="#F1F1F1" filter="url(#fpl3ibu6oswlj)" height="177.2719" id="Announcement" rx="2.25" ry="2.25" style="stroke:#181818;stroke-width:0.45;" width="284.4" x="506.25" y="931.5"/><ellipse cx="601.875" cy="945.9" fill="#ADD1B2" rx="9.9" ry="9.9" style="stroke:#181818;stroke-width:0.9;"/><path d="M604.3641,942.1875 Q604.5047,941.9906 604.6734,941.8922 Q604.8422,941.7938 605.0391,941.7938 Q605.3766,941.7938 605.5875,942.0328 Q605.7984,942.2578 605.7984,942.8063 L605.7984,944.1141 Q605.7984,944.6625 605.5875,944.9016 Q605.3766,945.1406 605.0391,945.1406 Q604.7297,945.1406 604.5469,944.9578 Q604.3641,944.7891 604.2656,944.325 Q604.2234,944.0016 604.0547,943.8328 Q603.7594,943.4953 603.2109,943.2984 Q602.6625,943.1016 602.1,943.1016 Q601.4109,943.1016 600.8344,943.3969 Q600.2719,943.6922 599.8219,944.3672 Q599.3859,945.0422 599.3859,945.9703 L599.3859,946.9547 Q599.3859,948.0656 600.1875,948.8109 Q600.9891,949.5422 602.4234,949.5422 Q603.2672,949.5422 603.8578,949.3172 Q604.2094,949.1766 604.5891,948.7828 Q604.8281,948.5438 604.9547,948.4734 Q605.0953,948.4031 605.2781,948.4031 Q605.5734,948.4031 605.7984,948.6422 Q606.0375,948.8672 606.0375,949.1766 Q606.0375,949.4859 605.7281,949.8516 Q605.2781,950.3719 604.5609,950.6672 Q603.5906,951.075 602.4234,951.075 Q601.0594,951.075 599.9766,950.5125 Q599.0906,950.0625 598.4719,949.1063 Q597.8531,948.1359 597.8531,946.9828 L597.8531,945.9422 Q597.8531,944.7469 598.4016,943.7203 Q598.9641,942.6797 599.9484,942.1313 Q600.9328,941.5688 602.0438,941.5688 Q602.7047,941.5688 603.2813,941.7234 Q603.8719,941.8641 604.3641,942.1875 Z " fill="#000000"/><text fill="#000000" font-family="sans-serif" font-size="12.6" lengthAdjust="spacing" textLength="85.5" x="620.325" y="951.1172">Announcement</text><line style="stroke:#181818;stroke-width:0.45;" x1="507.15" x2="789.75" y1="960.3" y2="960.3"/><text fill="#000000" font-family="sans-serif" font-size="12.6" lengthAdjust="spacing" textLength="273.6" x="511.65" y="977.4967">-AnnouncementRequest announcementRequest</text><text fill="#000000" font-family="sans-serif" font-size="12.6" lengthAdjust="spacing" textLength="107.1" x="511.65" y="994.2557">-Double listedPrice</text><text fill="#000000" font-family="sans-serif" font-size="12.6" lengthAdjust="spacing" textLength="118.8" x="511.65" y="1011.0146">-Integer rentDuration</text><text fill="#000000" font-family="sans-serif" font-size="12.6" lengthAdjust="spacing" textLength="73.8" x="511.65" y="1027.7736">-Agent agent</text><text fill="#000000" font-family="sans-serif" font-size="12.6" lengthAdjust="spacing" textLength="88.2" x="511.65" y="1044.5326">-DateTime data</text><text fill="#000000" font-family="sans-serif" font-size="12.6" lengthAdjust="spacing" textLength="114.3" x="511.65" y="1061.2916">-Double commission</text><text fill="#000000" font-family="sans-serif" font-size="12.6" lengthAdjust="spacing" textLength="167.4" x="511.65" y="1078.0506">-BusinessType businessType</text><text fill="#000000" font-family="sans-serif" font-size="12.6" lengthAdjust="spacing" textLength="104.4" x="511.65" y="1094.8096">-Property property</text><line style="stroke:#181818;stroke-width:0.45;" x1="507.15" x2="789.75" y1="1101.5719" y2="1101.5719"/></g><!--class PlaceOrderUI--><g id="elem_PlaceOrderUI"><rect codeLine="123" fill="#F1F1F1" filter="url(#fpl3ibu6oswlj)" height="43.2" id="PlaceOrderUI" rx="2.25" ry="2.25" style="stroke:#181818;stroke-width:0.45;" width="104.4" x="91.35" y="48.15"/><ellipse cx="104.85" cy="62.55" fill="#ADD1B2" rx="9.9" ry="9.9" style="stroke:#181818;stroke-width:0.9;"/><path d="M107.3391,58.8375 Q107.4797,58.6406 107.6484,58.5422 Q107.8172,58.4438 108.0141,58.4438 Q108.3516,58.4438 108.5625,58.6828 Q108.7734,58.9078 108.7734,59.4563 L108.7734,60.7641 Q108.7734,61.3125 108.5625,61.5516 Q108.3516,61.7906 108.0141,61.7906 Q107.7047,61.7906 107.5219,61.6078 Q107.3391,61.4391 107.2406,60.975 Q107.1984,60.6516 107.0297,60.4828 Q106.7344,60.1453 106.1859,59.9484 Q105.6375,59.7516 105.075,59.7516 Q104.3859,59.7516 103.8094,60.0469 Q103.2469,60.3422 102.7969,61.0172 Q102.3609,61.6922 102.3609,62.6203 L102.3609,63.6047 Q102.3609,64.7156 103.1625,65.4609 Q103.9641,66.1922 105.3984,66.1922 Q106.2422,66.1922 106.8328,65.9672 Q107.1844,65.8266 107.5641,65.4328 Q107.8031,65.1938 107.9297,65.1234 Q108.0703,65.0531 108.2531,65.0531 Q108.5484,65.0531 108.7734,65.2922 Q109.0125,65.5172 109.0125,65.8266 Q109.0125,66.1359 108.7031,66.5016 Q108.2531,67.0219 107.5359,67.3172 Q106.5656,67.725 105.3984,67.725 Q104.0344,67.725 102.9516,67.1625 Q102.0656,66.7125 101.4469,65.7563 Q100.8281,64.7859 100.8281,63.6328 L100.8281,62.5922 Q100.8281,61.3969 101.3766,60.3703 Q101.9391,59.3297 102.9234,58.7813 Q103.9078,58.2188 105.0188,58.2188 Q105.6797,58.2188 106.2563,58.3734 Q106.8469,58.5141 107.3391,58.8375 Z " fill="#000000"/><text fill="#000000" font-family="sans-serif" font-size="12.6" lengthAdjust="spacing" textLength="75.6" x="117.45" y="67.7672">PlaceOrderUI</text><line style="stroke:#181818;stroke-width:0.45;" x1="92.25" x2="194.85" y1="76.95" y2="76.95"/><line style="stroke:#181818;stroke-width:0.45;" x1="92.25" x2="194.85" y1="84.15" y2="84.15"/></g><!--class PurchaseOrder--><g id="elem_PurchaseOrder"><rect codeLine="126" fill="#F1F1F1" filter="url(#fpl3ibu6oswlj)" height="110.2359" id="PurchaseOrder" rx="2.25" ry="2.25" style="stroke:#181818;stroke-width:0.45;" width="258.3" x="392.4" y="1205.1"/><ellipse cx="474.075" cy="1219.5" fill="#ADD1B2" rx="9.9" ry="9.9" style="stroke:#181818;stroke-width:0.9;"/><path d="M476.5641,1215.7875 Q476.7047,1215.5906 476.8734,1215.4922 Q477.0422,1215.3938 477.2391,1215.3938 Q477.5766,1215.3938 477.7875,1215.6328 Q477.9984,1215.8578 477.9984,1216.4063 L477.9984,1217.7141 Q477.9984,1218.2625 477.7875,1218.5016 Q477.5766,1218.7406 477.2391,1218.7406 Q476.9297,1218.7406 476.7469,1218.5578 Q476.5641,1218.3891 476.4656,1217.925 Q476.4234,1217.6016 476.2547,1217.4328 Q475.9594,1217.0953 475.4109,1216.8984 Q474.8625,1216.7016 474.3,1216.7016 Q473.6109,1216.7016 473.0344,1216.9969 Q472.4719,1217.2922 472.0219,1217.9672 Q471.5859,1218.6422 471.5859,1219.5703 L471.5859,1220.5547 Q471.5859,1221.6656 472.3875,1222.4109 Q473.1891,1223.1422 474.6234,1223.1422 Q475.4672,1223.1422 476.0578,1222.9172 Q476.4094,1222.7766 476.7891,1222.3828 Q477.0281,1222.1438 477.1547,1222.0734 Q477.2953,1222.0031 477.4781,1222.0031 Q477.7734,1222.0031 477.9984,1222.2422 Q478.2375,1222.4672 478.2375,1222.7766 Q478.2375,1223.0859 477.9281,1223.4516 Q477.4781,1223.9719 476.7609,1224.2672 Q475.7906,1224.675 474.6234,1224.675 Q473.2594,1224.675 472.1766,1224.1125 Q471.2906,1223.6625 470.6719,1222.7063 Q470.0531,1221.7359 470.0531,1220.5828 L470.0531,1219.5422 Q470.0531,1218.3469 470.6016,1217.3203 Q471.1641,1216.2797 472.1484,1215.7313 Q473.1328,1215.1688 474.2438,1215.1688 Q474.9047,1215.1688 475.4813,1215.3234 Q476.0719,1215.4641 476.5641,1215.7875 Z " fill="#000000"/><text fill="#000000" font-family="sans-serif" font-size="12.6" lengthAdjust="spacing" textLength="87.3" x="492.525" y="1224.7172">PurchaseOrder</text><line style="stroke:#181818;stroke-width:0.45;" x1="393.3" x2="649.8" y1="1233.9" y2="1233.9"/><text fill="#000000" font-family="sans-serif" font-size="12.6" lengthAdjust="spacing" textLength="122.4" x="397.8" y="1251.0967">-Double orderAmount</text><text fill="#000000" font-family="sans-serif" font-size="12.6" lengthAdjust="spacing" textLength="129.6" x="397.8" y="1267.8557">-Boolean wasAccepted</text><text fill="#000000" font-family="sans-serif" font-size="12.6" lengthAdjust="spacing" textLength="135.9" x="397.8" y="1284.6146">-DateTime creationDate</text><line style="stroke:#181818;stroke-width:0.45;" x1="393.3" x2="649.8" y1="1291.377" y2="1291.377"/><text fill="#000000" font-family="sans-serif" font-size="12.6" lengthAdjust="spacing" textLength="247.5" x="397.8" y="1308.5736">+Offer(orderAmount, announcement, client)</text></g><!--class Store--><g id="elem_Store"><rect codeLine="133" fill="#F1F1F1" filter="url(#fpl3ibu6oswlj)" height="194.0309" id="Store" rx="2.25" ry="2.25" style="stroke:#181818;stroke-width:0.45;" width="138.6" x="977.85" y="1162.8"/><ellipse cx="1028.025" cy="1177.2" fill="#ADD1B2" rx="9.9" ry="9.9" style="stroke:#181818;stroke-width:0.9;"/><path d="M1030.5141,1173.4875 Q1030.6547,1173.2906 1030.8234,1173.1922 Q1030.9922,1173.0938 1031.1891,1173.0938 Q1031.5266,1173.0938 1031.7375,1173.3328 Q1031.9484,1173.5578 1031.9484,1174.1063 L1031.9484,1175.4141 Q1031.9484,1175.9625 1031.7375,1176.2016 Q1031.5266,1176.4406 1031.1891,1176.4406 Q1030.8797,1176.4406 1030.6969,1176.2578 Q1030.5141,1176.0891 1030.4156,1175.625 Q1030.3734,1175.3016 1030.2047,1175.1328 Q1029.9094,1174.7953 1029.3609,1174.5984 Q1028.8125,1174.4016 1028.25,1174.4016 Q1027.5609,1174.4016 1026.9844,1174.6969 Q1026.4219,1174.9922 1025.9719,1175.6672 Q1025.5359,1176.3422 1025.5359,1177.2703 L1025.5359,1178.2547 Q1025.5359,1179.3656 1026.3375,1180.1109 Q1027.1391,1180.8422 1028.5734,1180.8422 Q1029.4172,1180.8422 1030.0078,1180.6172 Q1030.3594,1180.4766 1030.7391,1180.0828 Q1030.9781,1179.8438 1031.1047,1179.7734 Q1031.2453,1179.7031 1031.4281,1179.7031 Q1031.7234,1179.7031 1031.9484,1179.9422 Q1032.1875,1180.1672 1032.1875,1180.4766 Q1032.1875,1180.7859 1031.8781,1181.1516 Q1031.4281,1181.6719 1030.7109,1181.9672 Q1029.7406,1182.375 1028.5734,1182.375 Q1027.2094,1182.375 1026.1266,1181.8125 Q1025.2406,1181.3625 1024.6219,1180.4063 Q1024.0031,1179.4359 1024.0031,1178.2828 L1024.0031,1177.2422 Q1024.0031,1176.0469 1024.5516,1175.0203 Q1025.1141,1173.9797 1026.0984,1173.4313 Q1027.0828,1172.8688 1028.1938,1172.8688 Q1028.8547,1172.8688 1029.4313,1173.0234 Q1030.0219,1173.1641 1030.5141,1173.4875 Z " fill="#000000"/><text fill="#000000" font-family="sans-serif" font-size="12.6" lengthAdjust="spacing" textLength="30.6" x="1046.475" y="1182.4172">Store</text><line style="stroke:#181818;stroke-width:0.45;" x1="978.75" x2="1115.55" y1="1191.6" y2="1191.6"/><text fill="#000000" font-family="sans-serif" font-size="12.6" lengthAdjust="spacing" textLength="57.6" x="983.25" y="1208.7967">-Integer id</text><text fill="#000000" font-family="sans-serif" font-size="12.6" lengthAdjust="spacing" textLength="107.1" x="983.25" y="1225.5557">-String designation</text><text fill="#000000" font-family="sans-serif" font-size="12.6" lengthAdjust="spacing" textLength="71.1" x="983.25" y="1242.3146">-String email</text><text fill="#000000" font-family="sans-serif" font-size="12.6" lengthAdjust="spacing" textLength="127.8" x="983.25" y="1259.0736">-Integer phoneNumber</text><line style="stroke:#181818;stroke-width:0.45;" x1="978.75" x2="1115.55" y1="1265.8359" y2="1265.8359"/><text fill="#000000" font-family="sans-serif" font-size="12.6" lengthAdjust="spacing" textLength="44.1" x="983.25" y="1283.0326">+getId()</text><text fill="#000000" font-family="sans-serif" font-size="12.6" lengthAdjust="spacing" textLength="101.7" x="983.25" y="1299.7916">+getDesignation()</text><text fill="#000000" font-family="sans-serif" font-size="12.6" lengthAdjust="spacing" textLength="81" x="983.25" y="1316.5506">+getAddress()</text><text fill="#000000" font-family="sans-serif" font-size="12.6" lengthAdjust="spacing" textLength="64.8" x="983.25" y="1333.3096">+getEmail()</text><text fill="#000000" font-family="sans-serif" font-size="12.6" lengthAdjust="spacing" textLength="115.2" x="983.25" y="1350.0686">+getPhoneNumber()</text></g><!--class StoreDTO--><g id="elem_StoreDTO"><rect codeLine="144" fill="#F1F1F1" filter="url(#fpl3ibu6oswlj)" height="126.9949" id="StoreDTO" rx="2.25" ry="2.25" style="stroke:#181818;stroke-width:0.45;" width="138.6" x="807.75" y="1196.55"/><ellipse cx="844.74" cy="1210.95" fill="#ADD1B2" rx="9.9" ry="9.9" style="stroke:#181818;stroke-width:0.9;"/><path d="M847.2291,1207.2375 Q847.3697,1207.0406 847.5384,1206.9422 Q847.7072,1206.8438 847.9041,1206.8438 Q848.2416,1206.8438 848.4525,1207.0828 Q848.6634,1207.3078 848.6634,1207.8563 L848.6634,1209.1641 Q848.6634,1209.7125 848.4525,1209.9516 Q848.2416,1210.1906 847.9041,1210.1906 Q847.5947,1210.1906 847.4119,1210.0078 Q847.2291,1209.8391 847.1306,1209.375 Q847.0884,1209.0516 846.9197,1208.8828 Q846.6244,1208.5453 846.0759,1208.3484 Q845.5275,1208.1516 844.965,1208.1516 Q844.2759,1208.1516 843.6994,1208.4469 Q843.1369,1208.7422 842.6869,1209.4172 Q842.2509,1210.0922 842.2509,1211.0203 L842.2509,1212.0047 Q842.2509,1213.1156 843.0525,1213.8609 Q843.8541,1214.5922 845.2884,1214.5922 Q846.1322,1214.5922 846.7228,1214.3672 Q847.0744,1214.2266 847.4541,1213.8328 Q847.6931,1213.5938 847.8197,1213.5234 Q847.9603,1213.4531 848.1431,1213.4531 Q848.4384,1213.4531 848.6634,1213.6922 Q848.9025,1213.9172 848.9025,1214.2266 Q848.9025,1214.5359 848.5931,1214.9016 Q848.1431,1215.4219 847.4259,1215.7172 Q846.4556,1216.125 845.2884,1216.125 Q843.9244,1216.125 842.8416,1215.5625 Q841.9556,1215.1125 841.3369,1214.1563 Q840.7181,1213.1859 840.7181,1212.0328 L840.7181,1210.9922 Q840.7181,1209.7969 841.2666,1208.7703 Q841.8291,1207.7297 842.8134,1207.1813 Q843.7978,1206.6188 844.9088,1206.6188 Q845.5697,1206.6188 846.1463,1206.7734 Q846.7369,1206.9141 847.2291,1207.2375 Z " fill="#000000"/><text fill="#000000" font-family="sans-serif" font-size="12.6" lengthAdjust="spacing" textLength="57.6" x="862.56" y="1216.1672">StoreDTO</text><line style="stroke:#181818;stroke-width:0.45;" x1="808.65" x2="945.45" y1="1225.35" y2="1225.35"/><text fill="#000000" font-family="sans-serif" font-size="12.6" lengthAdjust="spacing" textLength="57.6" x="813.15" y="1242.5467">-Integer id</text><text fill="#000000" font-family="sans-serif" font-size="12.6" lengthAdjust="spacing" textLength="107.1" x="813.15" y="1259.3057">-String designation</text><text fill="#000000" font-family="sans-serif" font-size="12.6" lengthAdjust="spacing" textLength="127.8" x="813.15" y="1276.0646">-AddressDTO address</text><text fill="#000000" font-family="sans-serif" font-size="12.6" lengthAdjust="spacing" textLength="71.1" x="813.15" y="1292.8236">-String email</text><text fill="#000000" font-family="sans-serif" font-size="12.6" lengthAdjust="spacing" textLength="112.5" x="813.15" y="1309.5826">-long phoneNumber</text><line style="stroke:#181818;stroke-width:0.45;" x1="808.65" x2="945.45" y1="1316.3449" y2="1316.3449"/></g><!--class PropertyDTO--><g id="elem_PropertyDTO"><rect codeLine="152" fill="#F1F1F1" filter="url(#fpl3ibu6oswlj)" height="143.7539" id="PropertyDTO" rx="2.25" ry="2.25" style="stroke:#181818;stroke-width:0.45;" width="218.7" x="1574.1" y="649.8"/><ellipse cx="1641.825" cy="664.2" fill="#ADD1B2" rx="9.9" ry="9.9" style="stroke:#181818;stroke-width:0.9;"/><path d="M1644.3141,660.4875 Q1644.4547,660.2906 1644.6234,660.1922 Q1644.7922,660.0938 1644.9891,660.0938 Q1645.3266,660.0938 1645.5375,660.3328 Q1645.7484,660.5578 1645.7484,661.1063 L1645.7484,662.4141 Q1645.7484,662.9625 1645.5375,663.2016 Q1645.3266,663.4406 1644.9891,663.4406 Q1644.6797,663.4406 1644.4969,663.2578 Q1644.3141,663.0891 1644.2156,662.625 Q1644.1734,662.3016 1644.0047,662.1328 Q1643.7094,661.7953 1643.1609,661.5984 Q1642.6125,661.4016 1642.05,661.4016 Q1641.3609,661.4016 1640.7844,661.6969 Q1640.2219,661.9922 1639.7719,662.6672 Q1639.3359,663.3422 1639.3359,664.2703 L1639.3359,665.2547 Q1639.3359,666.3656 1640.1375,667.1109 Q1640.9391,667.8422 1642.3734,667.8422 Q1643.2172,667.8422 1643.8078,667.6172 Q1644.1594,667.4766 1644.5391,667.0828 Q1644.7781,666.8438 1644.9047,666.7734 Q1645.0453,666.7031 1645.2281,666.7031 Q1645.5234,666.7031 1645.7484,666.9422 Q1645.9875,667.1672 1645.9875,667.4766 Q1645.9875,667.7859 1645.6781,668.1516 Q1645.2281,668.6719 1644.5109,668.9672 Q1643.5406,669.375 1642.3734,669.375 Q1641.0094,669.375 1639.9266,668.8125 Q1639.0406,668.3625 1638.4219,667.4063 Q1637.8031,666.4359 1637.8031,665.2828 L1637.8031,664.2422 Q1637.8031,663.0469 1638.3516,662.0203 Q1638.9141,660.9797 1639.8984,660.4313 Q1640.8828,659.8688 1641.9938,659.8688 Q1642.6547,659.8688 1643.2313,660.0234 Q1643.8219,660.1641 1644.3141,660.4875 Z " fill="#000000"/><text fill="#000000" font-family="sans-serif" font-size="12.6" lengthAdjust="spacing" textLength="75.6" x="1660.275" y="669.4172">PropertyDTO</text><line style="stroke:#181818;stroke-width:0.45;" x1="1575" x2="1791.9" y1="678.6" y2="678.6"/><text fill="#000000" font-family="sans-serif" font-size="12.6" lengthAdjust="spacing" textLength="74.7" x="1579.5" y="695.7967">-double price</text><text fill="#000000" font-family="sans-serif" font-size="12.6" lengthAdjust="spacing" textLength="72.9" x="1579.5" y="712.5557">-double area</text><text fill="#000000" font-family="sans-serif" font-size="12.6" lengthAdjust="spacing" textLength="148.5" x="1579.5" y="729.3146">-double distanceToCentre</text><text fill="#000000" font-family="sans-serif" font-size="12.6" lengthAdjust="spacing" textLength="207.9" x="1579.5" y="746.0736">-List&lt;PhotographDTO&gt; photographs</text><text fill="#000000" font-family="sans-serif" font-size="12.6" lengthAdjust="spacing" textLength="189" x="1579.5" y="762.8326">-PropertyTypeDTO propertyType</text><text fill="#000000" font-family="sans-serif" font-size="12.6" lengthAdjust="spacing" textLength="166.5" x="1579.5" y="779.5916">-PhotographDTO photgraphs</text><line style="stroke:#181818;stroke-width:0.45;" x1="1575" x2="1791.9" y1="786.3539" y2="786.3539"/></g><!--class StoreMapper--><g id="elem_StoreMapper"><rect codeLine="161" fill="#F1F1F1" filter="url(#fpl3ibu6oswlj)" height="59.959" id="StoreMapper" rx="2.25" ry="2.25" style="stroke:#181818;stroke-width:0.45;" width="162" x="822.15" y="990"/><ellipse cx="862.425" cy="1004.4" fill="#ADD1B2" rx="9.9" ry="9.9" style="stroke:#181818;stroke-width:0.9;"/><path d="M864.9141,1000.6875 Q865.0547,1000.4906 865.2234,1000.3922 Q865.3922,1000.2938 865.5891,1000.2938 Q865.9266,1000.2938 866.1375,1000.5328 Q866.3484,1000.7578 866.3484,1001.3063 L866.3484,1002.6141 Q866.3484,1003.1625 866.1375,1003.4016 Q865.9266,1003.6406 865.5891,1003.6406 Q865.2797,1003.6406 865.0969,1003.4578 Q864.9141,1003.2891 864.8156,1002.825 Q864.7734,1002.5016 864.6047,1002.3328 Q864.3094,1001.9953 863.7609,1001.7984 Q863.2125,1001.6016 862.65,1001.6016 Q861.9609,1001.6016 861.3844,1001.8969 Q860.8219,1002.1922 860.3719,1002.8672 Q859.9359,1003.5422 859.9359,1004.4703 L859.9359,1005.4547 Q859.9359,1006.5656 860.7375,1007.3109 Q861.5391,1008.0422 862.9734,1008.0422 Q863.8172,1008.0422 864.4078,1007.8172 Q864.7594,1007.6766 865.1391,1007.2828 Q865.3781,1007.0438 865.5047,1006.9734 Q865.6453,1006.9031 865.8281,1006.9031 Q866.1234,1006.9031 866.3484,1007.1422 Q866.5875,1007.3672 866.5875,1007.6766 Q866.5875,1007.9859 866.2781,1008.3516 Q865.8281,1008.8719 865.1109,1009.1672 Q864.1406,1009.575 862.9734,1009.575 Q861.6094,1009.575 860.5266,1009.0125 Q859.6406,1008.5625 859.0219,1007.6063 Q858.4031,1006.6359 858.4031,1005.4828 L858.4031,1004.4422 Q858.4031,1003.2469 858.9516,1002.2203 Q859.5141,1001.1797 860.4984,1000.6313 Q861.4828,1000.0688 862.5938,1000.0688 Q863.2547,1000.0688 863.8313,1000.2234 Q864.4219,1000.3641 864.9141,1000.6875 Z " fill="#000000"/><text fill="#000000" font-family="sans-serif" font-size="12.6" lengthAdjust="spacing" textLength="73.8" x="880.875" y="1009.6172">StoreMapper</text><line style="stroke:#181818;stroke-width:0.45;" x1="823.05" x2="983.25" y1="1018.8" y2="1018.8"/><line style="stroke:#181818;stroke-width:0.45;" x1="823.05" x2="983.25" y1="1026" y2="1026"/><text fill="#000000" font-family="sans-serif" font-size="12.6" lengthAdjust="spacing" textLength="151.2" x="827.55" y="1043.1967">-toDTO(storesWithAgents)</text></g><!--class PropertyMapper--><g id="elem_PropertyMapper"><rect codeLine="164" fill="#F1F1F1" filter="url(#fpl3ibu6oswlj)" height="59.959" id="PropertyMapper" rx="2.25" ry="2.25" style="stroke:#181818;stroke-width:0.45;" width="120.6" x="1259.55" y="435.15"/><ellipse cx="1273.05" cy="449.55" fill="#ADD1B2" rx="9.9" ry="9.9" style="stroke:#181818;stroke-width:0.9;"/><path d="M1275.5391,445.8375 Q1275.6797,445.6406 1275.8484,445.5422 Q1276.0172,445.4438 1276.2141,445.4438 Q1276.5516,445.4438 1276.7625,445.6828 Q1276.9734,445.9078 1276.9734,446.4563 L1276.9734,447.7641 Q1276.9734,448.3125 1276.7625,448.5516 Q1276.5516,448.7906 1276.2141,448.7906 Q1275.9047,448.7906 1275.7219,448.6078 Q1275.5391,448.4391 1275.4406,447.975 Q1275.3984,447.6516 1275.2297,447.4828 Q1274.9344,447.1453 1274.3859,446.9484 Q1273.8375,446.7516 1273.275,446.7516 Q1272.5859,446.7516 1272.0094,447.0469 Q1271.4469,447.3422 1270.9969,448.0172 Q1270.5609,448.6922 1270.5609,449.6203 L1270.5609,450.6047 Q1270.5609,451.7156 1271.3625,452.4609 Q1272.1641,453.1922 1273.5984,453.1922 Q1274.4422,453.1922 1275.0328,452.9672 Q1275.3844,452.8266 1275.7641,452.4328 Q1276.0031,452.1938 1276.1297,452.1234 Q1276.2703,452.0531 1276.4531,452.0531 Q1276.7484,452.0531 1276.9734,452.2922 Q1277.2125,452.5172 1277.2125,452.8266 Q1277.2125,453.1359 1276.9031,453.5016 Q1276.4531,454.0219 1275.7359,454.3172 Q1274.7656,454.725 1273.5984,454.725 Q1272.2344,454.725 1271.1516,454.1625 Q1270.2656,453.7125 1269.6469,452.7563 Q1269.0281,451.7859 1269.0281,450.6328 L1269.0281,449.5922 Q1269.0281,448.3969 1269.5766,447.3703 Q1270.1391,446.3297 1271.1234,445.7813 Q1272.1078,445.2188 1273.2188,445.2188 Q1273.8797,445.2188 1274.4563,445.3734 Q1275.0469,445.5141 1275.5391,445.8375 Z " fill="#000000"/><text fill="#000000" font-family="sans-serif" font-size="12.6" lengthAdjust="spacing" textLength="91.8" x="1285.65" y="454.7672">PropertyMapper</text><line style="stroke:#181818;stroke-width:0.45;" x1="1260.45" x2="1379.25" y1="463.95" y2="463.95"/><line style="stroke:#181818;stroke-width:0.45;" x1="1260.45" x2="1379.25" y1="471.15" y2="471.15"/><text fill="#000000" font-family="sans-serif" font-size="12.6" lengthAdjust="spacing" textLength="99" x="1264.95" y="488.3467">-toDTO(property)</text></g><!--class PairMapper--><g id="elem_PairMapper"><rect codeLine="167" fill="#F1F1F1" filter="url(#fpl3ibu6oswlj)" height="59.959" id="PairMapper" rx="2.25" ry="2.25" style="stroke:#181818;stroke-width:0.45;" width="94.5" x="59.4" y="990"/><ellipse cx="72.9" cy="1004.4" fill="#ADD1B2" rx="9.9" ry="9.9" style="stroke:#181818;stroke-width:0.9;"/><path d="M75.3891,1000.6875 Q75.5297,1000.4906 75.6984,1000.3922 Q75.8672,1000.2938 76.0641,1000.2938 Q76.4016,1000.2938 76.6125,1000.5328 Q76.8234,1000.7578 76.8234,1001.3063 L76.8234,1002.6141 Q76.8234,1003.1625 76.6125,1003.4016 Q76.4016,1003.6406 76.0641,1003.6406 Q75.7547,1003.6406 75.5719,1003.4578 Q75.3891,1003.2891 75.2906,1002.825 Q75.2484,1002.5016 75.0797,1002.3328 Q74.7844,1001.9953 74.2359,1001.7984 Q73.6875,1001.6016 73.125,1001.6016 Q72.4359,1001.6016 71.8594,1001.8969 Q71.2969,1002.1922 70.8469,1002.8672 Q70.4109,1003.5422 70.4109,1004.4703 L70.4109,1005.4547 Q70.4109,1006.5656 71.2125,1007.3109 Q72.0141,1008.0422 73.4484,1008.0422 Q74.2922,1008.0422 74.8828,1007.8172 Q75.2344,1007.6766 75.6141,1007.2828 Q75.8531,1007.0438 75.9797,1006.9734 Q76.1203,1006.9031 76.3031,1006.9031 Q76.5984,1006.9031 76.8234,1007.1422 Q77.0625,1007.3672 77.0625,1007.6766 Q77.0625,1007.9859 76.7531,1008.3516 Q76.3031,1008.8719 75.5859,1009.1672 Q74.6156,1009.575 73.4484,1009.575 Q72.0844,1009.575 71.0016,1009.0125 Q70.1156,1008.5625 69.4969,1007.6063 Q68.8781,1006.6359 68.8781,1005.4828 L68.8781,1004.4422 Q68.8781,1003.2469 69.4266,1002.2203 Q69.9891,1001.1797 70.9734,1000.6313 Q71.9578,1000.0688 73.0688,1000.0688 Q73.7297,1000.0688 74.3063,1000.2234 Q74.8969,1000.3641 75.3891,1000.6875 Z " fill="#000000"/><text fill="#000000" font-family="sans-serif" font-size="12.6" lengthAdjust="spacing" textLength="65.7" x="85.5" y="1009.6172">PairMapper</text><line style="stroke:#181818;stroke-width:0.45;" x1="60.3" x2="153" y1="1018.8" y2="1018.8"/><line style="stroke:#181818;stroke-width:0.45;" x1="60.3" x2="153" y1="1026" y2="1026"/><text fill="#000000" font-family="sans-serif" font-size="12.6" lengthAdjust="spacing" textLength="72.9" x="64.8" y="1043.1967">-toDTO(pair)</text></g><!--class PairDTO--><g id="elem_PairDTO"><rect fill="#F1F1F1" filter="url(#fpl3ibu6oswlj)" height="43.2" id="PairDTO" rx="2.25" ry="2.25" style="stroke:#181818;stroke-width:0.45;" width="78.3" x="144" y="1238.4"/><ellipse cx="157.5" cy="1252.8" fill="#ADD1B2" rx="9.9" ry="9.9" style="stroke:#181818;stroke-width:0.9;"/><path d="M159.9891,1249.0875 Q160.1297,1248.8906 160.2984,1248.7922 Q160.4672,1248.6938 160.6641,1248.6938 Q161.0016,1248.6938 161.2125,1248.9328 Q161.4234,1249.1578 161.4234,1249.7063 L161.4234,1251.0141 Q161.4234,1251.5625 161.2125,1251.8016 Q161.0016,1252.0406 160.6641,1252.0406 Q160.3547,1252.0406 160.1719,1251.8578 Q159.9891,1251.6891 159.8906,1251.225 Q159.8484,1250.9016 159.6797,1250.7328 Q159.3844,1250.3953 158.8359,1250.1984 Q158.2875,1250.0016 157.725,1250.0016 Q157.0359,1250.0016 156.4594,1250.2969 Q155.8969,1250.5922 155.4469,1251.2672 Q155.0109,1251.9422 155.0109,1252.8703 L155.0109,1253.8547 Q155.0109,1254.9656 155.8125,1255.7109 Q156.6141,1256.4422 158.0484,1256.4422 Q158.8922,1256.4422 159.4828,1256.2172 Q159.8344,1256.0766 160.2141,1255.6828 Q160.4531,1255.4438 160.5797,1255.3734 Q160.7203,1255.3031 160.9031,1255.3031 Q161.1984,1255.3031 161.4234,1255.5422 Q161.6625,1255.7672 161.6625,1256.0766 Q161.6625,1256.3859 161.3531,1256.7516 Q160.9031,1257.2719 160.1859,1257.5672 Q159.2156,1257.975 158.0484,1257.975 Q156.6844,1257.975 155.6016,1257.4125 Q154.7156,1256.9625 154.0969,1256.0063 Q153.4781,1255.0359 153.4781,1253.8828 L153.4781,1252.8422 Q153.4781,1251.6469 154.0266,1250.6203 Q154.5891,1249.5797 155.5734,1249.0313 Q156.5578,1248.4688 157.6688,1248.4688 Q158.3297,1248.4688 158.9063,1248.6234 Q159.4969,1248.7641 159.9891,1249.0875 Z " fill="#000000"/><text fill="#000000" font-family="sans-serif" font-size="12.6" lengthAdjust="spacing" textLength="49.5" x="170.1" y="1258.0172">PairDTO</text><line style="stroke:#181818;stroke-width:0.45;" x1="144.9" x2="221.4" y1="1267.2" y2="1267.2"/><line style="stroke:#181818;stroke-width:0.45;" x1="144.9" x2="221.4" y1="1274.4" y2="1274.4"/></g><!--link Repositories to Repositories--><g id="link_Repositories_Repositories"><path codeLine="170" d="M751.275,187.02 C751.275,171.495 751.275,160.2 751.275,160.2 C751.275,160.2 772.803,160.2 772.803,160.2 C772.803,160.2 772.803,391.5 772.803,391.5 C772.803,391.5 719.397,391.5 719.397,391.5 C719.397,391.5 719.397,369.18 719.397,369.18 " fill="none" id="Repositories-to-Repositories" style="stroke:#181818;stroke-width:0.9;"/><polygon fill="#181818" points="719.397,364.68,715.797,372.78,719.397,369.18,722.997,372.78,719.397,364.68" style="stroke:#181818;stroke-width:0.9;"/><text fill="#000000" font-family="sans-serif" font-size="11.7" lengthAdjust="spacing" textLength="44.1" x="778.203" y="281.4645">instance</text></g><!--link ApplicationSession to ApplicationSession--><g id="link_ApplicationSession_ApplicationSession"><path codeLine="171" d="M170.775,237.474 C170.775,224.118 170.775,212.4 170.775,212.4 C170.775,212.4 138.6,212.4 138.6,212.4 C138.6,212.4 138.6,326.7 138.6,326.7 C138.6,326.7 153.225,326.7 153.225,326.7 C153.225,326.7 153.225,318.627 153.225,318.627 " fill="none" id="ApplicationSession-to-ApplicationSession" style="stroke:#181818;stroke-width:0.9;"/><polygon fill="#181818" points="153.225,314.127,149.625,322.227,153.225,318.627,156.825,322.227,153.225,314.127" style="stroke:#181818;stroke-width:0.9;"/><text fill="#000000" font-family="sans-serif" font-size="11.7" lengthAdjust="spacing" textLength="44.1" x="89.1" y="244.1955">instance</text></g><!--link PlaceOrderUI to PlaceOrderController--><g id="link_PlaceOrderUI_PlaceOrderController"><path codeLine="173" d="M195.912,70.2 C195.912,70.2 222.633,70.2 222.633,70.2 " fill="none" id="PlaceOrderUI-to-PlaceOrderController" style="stroke:#181818;stroke-width:0.9;stroke-dasharray:7.0,7.0;"/><polygon fill="#181818" points="227.133,70.2,219.033,66.6,222.633,70.2,219.033,73.8,227.133,70.2" style="stroke:#181818;stroke-width:0.9;"/></g><!--link PlaceOrderController to Repositories--><g id="link_PlaceOrderController_Repositories"><path codeLine="175" d="M654.525,133.272 C654.525,133.272 654.525,182.655 654.525,182.655 " fill="none" id="PlaceOrderController-to-Repositories" style="stroke:#181818;stroke-width:0.9;stroke-dasharray:7.0,7.0;"/><polygon fill="#181818" points="654.525,187.155,658.125,179.055,654.525,182.655,650.925,179.055,654.525,187.155" style="stroke:#181818;stroke-width:0.9;"/><text fill="#000000" font-family="sans-serif" font-size="11.7" lengthAdjust="spacing" textLength="60.3" x="593.325" y="154.3845">repositories</text></g><!--link Repositories to PropertyRepository--><g id="link_Repositories_PropertyRepository"><path codeLine="177" d="M767.961,276.3 C767.961,276.3 1050.183,276.3 1050.183,276.3 " fill="none" id="Repositories-to-PropertyRepository" style="stroke:#181818;stroke-width:0.9;"/><polygon fill="#181818" points="1054.683,276.3,1046.583,272.7,1050.183,276.3,1046.583,279.9,1054.683,276.3" style="stroke:#181818;stroke-width:0.9;"/><text fill="#000000" font-family="sans-serif" font-size="11.7" lengthAdjust="spacing" textLength="6.3" x="1041.1186" y="273.308">1</text></g><!--reverse link Property to Announcement--><g id="link_Property_Announcement"><path codeLine="179" d="M1074.447,882.27 C1074.447,882.27 1074.447,948.6 1074.447,948.6 C1074.447,948.6 914.733,948.6 790.893,948.6 " fill="none" id="Property-backto-Announcement" style="stroke:#181818;stroke-width:0.9;"/><polygon fill="#181818" points="1074.447,877.77,1070.847,885.87,1074.447,882.27,1078.047,885.87,1074.447,877.77" style="stroke:#181818;stroke-width:0.9;"/><text fill="#000000" font-family="sans-serif" font-size="11.7" lengthAdjust="spacing" textLength="6.3" x="1061.2682" y="897.3049">1</text><text fill="#000000" font-family="sans-serif" font-size="11.7" lengthAdjust="spacing" textLength="6.3" x="797.9452" y="942.0963">1</text></g><!--reverse link Announcement to PurchaseOrder--><g id="link_Announcement_PurchaseOrder"><path codeLine="180" d="M578.475,1113.624 C578.475,1113.624 578.475,1204.938 578.475,1204.938 " fill="none" id="Announcement-backto-PurchaseOrder" style="stroke:#181818;stroke-width:0.9;"/><polygon fill="#181818" points="578.475,1109.124,574.875,1117.224,578.475,1113.624,582.075,1117.224,578.475,1109.124" style="stroke:#181818;stroke-width:0.9;"/><text fill="#000000" font-family="sans-serif" font-size="11.7" lengthAdjust="spacing" textLength="6.3" x="567.0334" y="1128.5536">1</text><text fill="#000000" font-family="sans-serif" font-size="11.7" lengthAdjust="spacing" textLength="6.3" x="578.3927" y="1195.0024">1</text></g><!--link PurchaseOrder to Client--><g id="link_PurchaseOrder_Client"><path codeLine="181" d="M521.55,1314.999 C521.55,1314.999 521.55,1406.547 521.55,1406.547 " fill="none" id="PurchaseOrder-to-Client" style="stroke:#181818;stroke-width:0.9;"/><polygon fill="#181818" points="521.55,1411.047,525.15,1402.947,521.55,1406.547,517.95,1402.947,521.55,1411.047" style="stroke:#181818;stroke-width:0.9;"/><text fill="#000000" font-family="sans-serif" font-size="11.7" lengthAdjust="spacing" textLength="50.4" x="470.25" y="1357.1985">placed by</text><text fill="#000000" font-family="sans-serif" font-size="11.7" lengthAdjust="spacing" textLength="6.3" x="514.8661" y="1335.2492">1</text><text fill="#000000" font-family="sans-serif" font-size="11.7" lengthAdjust="spacing" textLength="6.3" x="514.9252" y="1401.0331">1</text></g><!--link PlaceOrderController to PropertyRepository--><g id="link_PlaceOrderController_PropertyRepository"><path codeLine="182" d="M734.85,38.7 C945.882,38.7 1211.85,38.7 1211.85,38.7 C1211.85,38.7 1211.85,224.496 1211.85,224.496 " fill="none" id="PlaceOrderController-to-PropertyRepository" style="stroke:#181818;stroke-width:0.9;stroke-dasharray:7.0,7.0;"/><polygon fill="#181818" points="1211.85,228.996,1215.45,220.896,1211.85,224.496,1208.25,220.896,1211.85,228.996" style="stroke:#181818;stroke-width:0.9;"/><text fill="#000000" font-family="sans-serif" font-size="11.7" lengthAdjust="spacing" textLength="98.1" x="967.248" y="35.1255">propertyRepository</text></g><!--link PlaceOrderController to AnnouncementRepository--><g id="link_PlaceOrderController_AnnouncementRepository"><path codeLine="183" d="M735.003,70.2 C809.19,70.2 870.75,70.2 870.75,70.2 C870.75,70.2 870.75,430.452 870.75,430.452 " fill="none" id="PlaceOrderController-to-AnnouncementRepository" style="stroke:#181818;stroke-width:0.9;stroke-dasharray:7.0,7.0;"/><polygon fill="#181818" points="870.75,434.952,874.35,426.852,870.75,430.452,867.15,426.852,870.75,434.952" style="stroke:#181818;stroke-width:0.9;"/><text fill="#000000" font-family="sans-serif" font-size="11.7" lengthAdjust="spacing" textLength="132.3" x="737.55" y="178.8735">announcementRepository</text></g><!--link PlaceOrderController to PurchaseOrderRepository--><g id="link_PlaceOrderController_PurchaseOrderRepository"><path codeLine="184" d="M456.75,133.299 C456.75,133.299 456.75,413.838 456.75,413.838 " fill="none" id="PlaceOrderController-to-PurchaseOrderRepository" style="stroke:#181818;stroke-width:0.9;stroke-dasharray:7.0,7.0;"/><polygon fill="#181818" points="456.75,418.338,460.35,410.238,456.75,413.838,453.15,410.238,456.75,418.338" style="stroke:#181818;stroke-width:0.9;"/><text fill="#000000" font-family="sans-serif" font-size="11.7" lengthAdjust="spacing" textLength="132.3" x="424.125" y="287.0895">purchaseOrderRepository</text></g><!--link PlaceOrderController to ClientRepository--><g id="link_PlaceOrderController_ClientRepository"><path codeLine="185" d="M290.403,133.299 C290.403,133.299 290.403,430.47 290.403,430.47 " fill="none" id="PlaceOrderController-to-ClientRepository" style="stroke:#181818;stroke-width:0.9;stroke-dasharray:7.0,7.0;"/><polygon fill="#181818" points="290.403,434.97,294.003,426.87,290.403,430.47,286.803,426.87,290.403,434.97" style="stroke:#181818;stroke-width:0.9;"/><text fill="#000000" font-family="sans-serif" font-size="11.7" lengthAdjust="spacing" textLength="83.7" x="291.303" y="278.3145">clientRepository</text></g><!--link PlaceOrderController to PropertyFilterRepository--><g id="link_PlaceOrderController_PropertyFilterRepository"><path codeLine="186" d="M227.178,119.7 C172.836,119.7 131.4,119.7 131.4,119.7 C131.4,119.7 131.4,687.033 131.4,687.033 " fill="none" id="PlaceOrderController-to-PropertyFilterRepository" style="stroke:#181818;stroke-width:0.9;stroke-dasharray:7.0,7.0;"/><polygon fill="#181818" points="131.4,691.533,135,683.433,131.4,687.033,127.8,683.433,131.4,691.533" style="stroke:#181818;stroke-width:0.9;"/><text fill="#000000" font-family="sans-serif" font-size="11.7" lengthAdjust="spacing" textLength="124.2" x="6.3" y="351.8985">propertyFilterRepository</text></g><!--link PlaceOrderController to StoreRepository--><g id="link_PlaceOrderController_StoreRepository"><path codeLine="187" d="M734.976,101.7 C762.318,101.7 780.453,101.7 780.453,101.7 C780.453,101.7 780.453,678.978 780.453,678.978 " fill="none" id="PlaceOrderController-to-StoreRepository" style="stroke:#181818;stroke-width:0.9;stroke-dasharray:7.0,7.0;"/><polygon fill="#181818" points="780.453,683.478,784.053,675.378,780.453,678.978,776.853,675.378,780.453,683.478" style="stroke:#181818;stroke-width:0.9;"/><text fill="#000000" font-family="sans-serif" font-size="11.7" lengthAdjust="spacing" textLength="81.9" x="697.653" y="381.1305">storeRepository</text></g><!--link StoreRepository to StoreMapper--><g id="link_StoreRepository_StoreMapper"><path codeLine="188" d="M903.15,760.194 C903.15,760.194 903.15,985.077 903.15,985.077 " fill="none" id="StoreRepository-to-StoreMapper" style="stroke:#181818;stroke-width:0.9;"/><polygon fill="#181818" points="903.15,989.577,906.75,981.477,903.15,985.077,899.55,981.477,903.15,989.577" style="stroke:#181818;stroke-width:0.9;"/></g><!--link StoreMapper to StoreDTO--><g id="link_StoreMapper_StoreDTO"><path codeLine="189" d="M884.25,1050.525 C884.25,1050.525 884.25,1191.879 884.25,1191.879 " fill="none" id="StoreMapper-to-StoreDTO" style="stroke:#181818;stroke-width:0.9;"/><polygon fill="#181818" points="884.25,1196.379,887.85,1188.279,884.25,1191.879,880.65,1188.279,884.25,1196.379" style="stroke:#181818;stroke-width:0.9;"/></g><!--link StoreMapper to Store--><g id="link_StoreMapper_Store"><path codeLine="190" d="M981,1050.525 C981,1050.525 981,1158.3 981,1158.3 " fill="none" id="StoreMapper-to-Store" style="stroke:#181818;stroke-width:0.9;"/><polygon fill="#181818" points="981,1162.8,984.6,1154.7,981,1158.3,977.4,1154.7,981,1162.8" style="stroke:#181818;stroke-width:0.9;"/></g><!--link PropertyFilterRepository to PairMapper--><g id="link_PropertyFilterRepository_PairMapper"><path codeLine="191" d="M106.65,752.049 C106.65,752.049 106.65,985.32 106.65,985.32 " fill="none" id="PropertyFilterRepository-to-PairMapper" style="stroke:#181818;stroke-width:0.9;"/><polygon fill="#181818" points="106.65,989.82,110.25,981.72,106.65,985.32,103.05,981.72,106.65,989.82" style="stroke:#181818;stroke-width:0.9;"/></g><!--link PairMapper to PairDTO--><g id="link_PairMapper_PairDTO"><path codeLine="192" d="M148.95,1050.525 C148.95,1050.525 148.95,1233.864 148.95,1233.864 " fill="none" id="PairMapper-to-PairDTO" style="stroke:#181818;stroke-width:0.9;"/><polygon fill="#181818" points="148.95,1238.364,152.55,1230.264,148.95,1233.864,145.35,1230.264,148.95,1238.364" style="stroke:#181818;stroke-width:0.9;"/></g><!--link PairMapper to Pair--><g id="link_PairMapper_Pair"><path codeLine="193" d="M85.95,1050.525 C85.95,1050.525 85.95,1217.061 85.95,1217.061 " fill="none" id="PairMapper-to-Pair" style="stroke:#181818;stroke-width:0.9;"/><polygon fill="#181818" points="85.95,1221.561,89.55,1213.461,85.95,1217.061,82.35,1213.461,85.95,1221.561" style="stroke:#181818;stroke-width:0.9;"/></g><!--link PropertyRepository to PropertyMapper--><g id="link_PropertyRepository_PropertyMapper"><path codeLine="194" d="M1314.225,322.677 C1314.225,322.677 1314.225,430.47 1314.225,430.47 " fill="none" id="PropertyRepository-to-PropertyMapper" style="stroke:#181818;stroke-width:0.9;"/><polygon fill="#181818" points="1314.225,434.97,1317.825,426.87,1314.225,430.47,1310.625,426.87,1314.225,434.97" style="stroke:#181818;stroke-width:0.9;"/></g><!--link PropertyMapper to PropertyDTO--><g id="link_PropertyMapper_PropertyDTO"><path codeLine="195" d="M1380.303,465.3 C1483.686,465.3 1683.45,465.3 1683.45,465.3 C1683.45,465.3 1683.45,645.165 1683.45,645.165 " fill="none" id="PropertyMapper-to-PropertyDTO" style="stroke:#181818;stroke-width:0.9;"/><polygon fill="#181818" points="1683.45,649.665,1687.05,641.565,1683.45,645.165,1679.85,641.565,1683.45,649.665" style="stroke:#181818;stroke-width:0.9;"/></g><!--link PropertyMapper to Property--><g id="link_PropertyMapper_Property"><path codeLine="196" d="M1319.85,495.477 C1319.85,495.477 1319.85,561.564 1319.85,561.564 " fill="none" id="PropertyMapper-to-Property" style="stroke:#181818;stroke-width:0.9;"/><polygon fill="#181818" points="1319.85,566.064,1323.45,557.964,1319.85,561.564,1316.25,557.964,1319.85,566.064" style="stroke:#181818;stroke-width:0.9;"/></g><!--link Property to Client--><g id="link_Property_Client"><path codeLine="197" d="M1130.175,877.653 C1130.175,1098.27 1130.175,1475.1 1130.175,1475.1 C1130.175,1475.1 602.208,1475.1 602.208,1475.1 " fill="none" id="Property-to-Client" style="stroke:#181818;stroke-width:0.9;"/><polygon fill="#181818" points="597.708,1475.1,605.808,1478.7,602.208,1475.1,605.808,1471.5,597.708,1475.1" style="stroke:#181818;stroke-width:0.9;"/><text fill="#000000" font-family="sans-serif" font-size="11.7" lengthAdjust="spacing" textLength="4.5" x="1121.1852" y="897.183">*</text><text fill="#000000" font-family="sans-serif" font-size="11.7" lengthAdjust="spacing" textLength="6.3" x="604.7714" y="1471.7917">1</text></g><!--link Repositories to AnnouncementRepository--><g id="link_Repositories_AnnouncementRepository"><path codeLine="199" d="M671.103,364.572 C671.103,409.806 671.103,455.4 671.103,455.4 C671.103,455.4 778.392,455.4 778.392,455.4 " fill="none" id="Repositories-to-AnnouncementRepository" style="stroke:#181818;stroke-width:0.9;"/><polygon fill="#181818" points="782.892,455.4,774.792,451.8,778.392,455.4,774.792,459,782.892,455.4" style="stroke:#181818;stroke-width:0.9;"/><text fill="#000000" font-family="sans-serif" font-size="11.7" lengthAdjust="spacing" textLength="6.3" x="769.6242" y="451.4049">1</text></g><!--link Repositories to PurchaseOrderRepository--><g id="link_Repositories_PurchaseOrderRepository"><path codeLine="200" d="M598.5,364.752 C598.5,364.752 598.5,413.946 598.5,413.946 " fill="none" id="Repositories-to-PurchaseOrderRepository" style="stroke:#181818;stroke-width:0.9;"/><polygon fill="#181818" points="598.5,418.446,602.1,410.346,598.5,413.946,594.9,410.346,598.5,418.446" style="stroke:#181818;stroke-width:0.9;"/><text fill="#000000" font-family="sans-serif" font-size="11.7" lengthAdjust="spacing" textLength="6.3" x="607.5591" y="408.4734">1</text></g><!--link Repositories to ClientRepository--><g id="link_Repositories_ClientRepository"><path codeLine="201" d="M573.975,351.9 C463.806,351.9 299.097,351.9 299.097,351.9 C299.097,351.9 299.097,430.407 299.097,430.407 " fill="none" id="Repositories-to-ClientRepository" style="stroke:#181818;stroke-width:0.9;"/><polygon fill="#181818" points="299.097,434.907,302.697,426.807,299.097,430.407,295.497,426.807,299.097,434.907" style="stroke:#181818;stroke-width:0.9;"/><text fill="#000000" font-family="sans-serif" font-size="11.7" lengthAdjust="spacing" textLength="6.3" x="305.0346" y="425.038">1</text></g><!--link Repositories to StoreRepository--><g id="link_Repositories_StoreRepository"><path codeLine="202" d="M768.033,343.8 C774.144,343.8 777.897,343.8 777.897,343.8 C777.897,343.8 777.897,678.978 777.897,678.978 " fill="none" id="Repositories-to-StoreRepository" style="stroke:#181818;stroke-width:0.9;"/><polygon fill="#181818" points="777.897,683.478,781.497,675.378,777.897,678.978,774.297,675.378,777.897,683.478" style="stroke:#181818;stroke-width:0.9;"/><text fill="#000000" font-family="sans-serif" font-size="11.7" lengthAdjust="spacing" textLength="6.3" x="761.7235" y="677.1418">1</text></g><!--link Repositories to PropertyFilterRepository--><g id="link_Repositories_PropertyFilterRepository"><path codeLine="203" d="M574.02,339.3 C423.522,339.3 150.75,339.3 150.75,339.3 C150.75,339.3 150.75,686.97 150.75,686.97 " fill="none" id="Repositories-to-PropertyFilterRepository" style="stroke:#181818;stroke-width:0.9;"/><polygon fill="#181818" points="150.75,691.47,154.35,683.37,150.75,686.97,147.15,683.37,150.75,691.47" style="stroke:#181818;stroke-width:0.9;"/><text fill="#000000" font-family="sans-serif" font-size="11.7" lengthAdjust="spacing" textLength="6.3" x="152.2561" y="681.613">1</text></g><!--link AnnouncementRepository to Announcement--><g id="link_AnnouncementRepository_Announcement"><path codeLine="205" d="M782.982,476.1 C775.233,476.1 770.247,476.1 770.247,476.1 C770.247,476.1 770.247,926.721 770.247,926.721 " fill="none" id="AnnouncementRepository-to-Announcement" style="stroke:#181818;stroke-width:0.9;"/><polygon fill="#181818" points="770.247,931.221,773.847,923.121,770.247,926.721,766.647,923.121,770.247,931.221" style="stroke:#181818;stroke-width:0.9;"/><text fill="#000000" font-family="sans-serif" font-size="11.7" lengthAdjust="spacing" textLength="4.5" x="774.5262" y="921.4646">*</text></g><!--link PurchaseOrderRepository to PurchaseOrder--><g id="link_PurchaseOrderRepository_PurchaseOrder"><path codeLine="206" d="M449.325,512.334 C449.325,512.334 449.325,1200.6 449.325,1200.6 " fill="none" id="PurchaseOrderRepository-to-PurchaseOrder" style="stroke:#181818;stroke-width:0.9;"/><polygon fill="#181818" points="449.325,1205.1,452.925,1197,449.325,1200.6,445.725,1197,449.325,1205.1" style="stroke:#181818;stroke-width:0.9;"/><text fill="#000000" font-family="sans-serif" font-size="11.7" lengthAdjust="spacing" textLength="4.5" x="435.7484" y="1194.7916">*</text></g><!--link PropertyRepository to Property--><g id="link_PropertyRepository_Property"><path codeLine="207" d="M1157.175,322.731 C1157.175,322.731 1157.175,561.456 1157.175,561.456 " fill="none" id="PropertyRepository-to-Property" style="stroke:#181818;stroke-width:0.9;"/><polygon fill="#181818" points="1157.175,565.956,1160.775,557.856,1157.175,561.456,1153.575,557.856,1157.175,565.956" style="stroke:#181818;stroke-width:0.9;"/><text fill="#000000" font-family="sans-serif" font-size="11.7" lengthAdjust="spacing" textLength="4.5" x="1149.0761" y="555.8804">*</text></g><!--link ClientRepository to Client--><g id="link_ClientRepository_Client"><path codeLine="208" d="M265.05,495.522 C265.05,663.543 265.05,1475.1 265.05,1475.1 C265.05,1475.1 440.784,1475.1 440.784,1475.1 " fill="none" id="ClientRepository-to-Client" style="stroke:#181818;stroke-width:0.9;"/><polygon fill="#181818" points="445.284,1475.1,437.184,1471.5,440.784,1475.1,437.184,1478.7,445.284,1475.1" style="stroke:#181818;stroke-width:0.9;"/><text fill="#000000" font-family="sans-serif" font-size="11.7" lengthAdjust="spacing" textLength="4.5" x="433.7912" y="1471.7917">*</text></g><!--link ApplicationSession to UserSession--><g id="link_ApplicationSession_UserSession"><path codeLine="209" d="M148.275,314.19 C148.275,369.549 148.275,465.3 148.275,465.3 C148.275,465.3 129.069,465.3 129.069,465.3 " fill="none" id="ApplicationSession-to-UserSession" style="stroke:#181818;stroke-width:0.9;"/><polygon fill="#181818" points="124.569,465.3,132.669,468.9,129.069,465.3,132.669,461.7,124.569,465.3" style="stroke:#181818;stroke-width:0.9;"/><text fill="#000000" font-family="sans-serif" font-size="11.7" lengthAdjust="spacing" textLength="64.8" x="82.575" y="395.7735">userSession</text><text fill="#000000" font-family="sans-serif" font-size="11.7" lengthAdjust="spacing" textLength="6.3" x="131.535" y="461.684">1</text></g><!--link StoreRepository to Store--><g id="link_StoreRepository_Store"><path codeLine="210" d="M1003.05,760.077 C1003.05,760.077 1003.05,1158.129 1003.05,1158.129 " fill="none" id="StoreRepository-to-Store" style="stroke:#181818;stroke-width:0.9;"/><polygon fill="#181818" points="1003.05,1162.629,1006.65,1154.529,1003.05,1158.129,999.45,1154.529,1003.05,1162.629" style="stroke:#181818;stroke-width:0.9;"/><text fill="#000000" font-family="sans-serif" font-size="11.7" lengthAdjust="spacing" textLength="26.1" x="976.05" y="955.5285">store</text><text fill="#000000" font-family="sans-serif" font-size="11.7" lengthAdjust="spacing" textLength="6.3" x="1012.8867" y="780.0256">1</text><text fill="#000000" font-family="sans-serif" font-size="11.7" lengthAdjust="spacing" textLength="4.5" x="995.291" y="1152.5924">*</text></g><!--link Property to Store--><g id="link_Property_Store"><path codeLine="211" d="M1095.453,877.833 C1095.453,877.833 1095.453,1158.3 1095.453,1158.3 " fill="none" id="Property-to-Store" style="stroke:#181818;stroke-width:0.9;"/><polygon fill="#181818" points="1095.453,1162.8,1099.053,1154.7,1095.453,1158.3,1091.853,1154.7,1095.453,1162.8" style="stroke:#181818;stroke-width:0.9;"/><text fill="#000000" font-family="sans-serif" font-size="11.7" lengthAdjust="spacing" textLength="4.5" x="1084.9984" y="897.3706">*</text><text fill="#000000" font-family="sans-serif" font-size="11.7" lengthAdjust="spacing" textLength="6.3" x="1092.3278" y="1152.7754">1</text></g><!--link Property to Photograph--><g id="link_Property_Photograph"><path codeLine="212" d="M1415.349,721.8 C1415.349,721.8 1441.863,721.8 1441.863,721.8 " fill="none" id="Property-to-Photograph" style="stroke:#181818;stroke-width:0.9;"/><polygon fill="#181818" points="1446.363,721.8,1438.263,718.2,1441.863,721.8,1438.263,725.4,1446.363,721.8" style="stroke:#181818;stroke-width:0.9;"/><text fill="#000000" font-family="sans-serif" font-size="11.7" lengthAdjust="spacing" textLength="6.3" x="1422.5423" y="718.8329">1</text><text fill="#000000" font-family="sans-serif" font-size="11.7" lengthAdjust="spacing" textLength="26.1" x="1413.4108" y="735.7415">1..30</text></g><!--link PlaceOrderController to ApplicationSession--><g id="link_PlaceOrderController_ApplicationSession"><path codeLine="213" d="M254.475,133.272 C254.475,133.272 254.475,232.92 254.475,232.92 " fill="none" id="PlaceOrderController-to-ApplicationSession" style="stroke:#181818;stroke-width:0.9;stroke-dasharray:7.0,7.0;"/><polygon fill="#181818" points="254.475,237.42,258.075,229.32,254.475,232.92,250.875,229.32,254.475,237.42" style="stroke:#181818;stroke-width:0.9;"/></g><!--link PlaceOrderController to UserSession--><g id="link_PlaceOrderController_UserSession"><path codeLine="214" d="M227.169,105.3 C160.956,105.3 107.775,105.3 107.775,105.3 C107.775,105.3 107.775,430.416 107.775,430.416 " fill="none" id="PlaceOrderController-to-UserSession" style="stroke:#181818;stroke-width:0.9;stroke-dasharray:7.0,7.0;"/><polygon fill="#181818" points="107.775,434.916,111.375,426.816,107.775,430.416,104.175,426.816,107.775,434.916" style="stroke:#181818;stroke-width:0.9;"/></g><!--reverse link Property to Inhabitable--><g id="link_Property_Inhabitable"><path codeLine="216" d="M1234.35,895.527 C1234.35,895.527 1234.35,965.241 1234.35,965.241 " fill="none" id="Property-backto-Inhabitable" style="stroke:#181818;stroke-width:0.9;stroke-dasharray:7.0,7.0;"/><polygon fill="none" points="1228.05,895.527,1234.35,877.527,1240.65,895.527,1228.05,895.527" style="stroke:#181818;stroke-width:0.9;"/><text fill="#000000" font-family="sans-serif" font-size="11.7" lengthAdjust="spacing" textLength="18.9" x="1214.55" y="926.8095">is a</text></g><!--reverse link Inhabitable to House--><g id="link_Inhabitable_House"><path codeLine="218" d="M1234.35,1093.176 C1234.35,1093.176 1234.35,1212.912 1234.35,1212.912 " fill="none" id="Inhabitable-backto-House" style="stroke:#181818;stroke-width:0.9;stroke-dasharray:7.0,7.0;"/><polygon fill="none" points="1228.05,1093.176,1234.35,1075.176,1240.65,1093.176,1228.05,1093.176" style="stroke:#181818;stroke-width:0.9;"/><text fill="#000000" font-family="sans-serif" font-size="11.7" lengthAdjust="spacing" textLength="18.9" x="1214.55" y="1149.4695">is a</text></g><!--SRC=[bLXVRzis47_dfo3oOgUjWWvxCu80Jj9X0R8bY5FicPOOcwWaQYJLrklotNiKIUb8KS6M1yUyVxmx_kvuz4f_4Mt756je8rjP7fLiE3MgvsJYTApymWvyPqurfugNXhM76Wle8wlaDz4UKirQjDoSEawbCaT9LdcE94Ybh9dMMsEKsFU6tvMotOb_EFr8oAhcBuOQIPKu70sjX7L5o9QGGOTkkwuM9REa7TVQSduG2d_lgJP0Bkc1cxiMlhSbNvzx5j1kUgLuQxmIS5w3oS-QgzGMA5ZofuQ9sia6wKSbEwxCwObtKWiZrOaY9SyLN5-VjcqhU_2YWMtrcg7LlT3cVAPqYbKYZI3DgkfP1dbhPjtvnUtp0uefYFmcQiFLag-Yv4zmp5px49tkJIrWnxoEursVN6Au_KIxOlTd-lGzwEzOpUEyM7NlSw_A8zFyGLLPbxkQbOwvblPpsu0Pyu6E6U2wLAApq73fAcow7bvUWaAWVcMrg9ZX4UirYjvlMj0TO1GWtxA6UyfTQ_Y1AoWOhJi0zfzzi-Sg5ZViUuuyv2irSvGjzy9Z9fXGFch8sJrKH40oB9ziOQ2qZPa2q8rkOoAkWgaow2OIcaJoXxZEu3NFtG61lwsOeZAIoQCWAkK4e2WPoUO_4hUkCKZMsf9cg9cazL_27BU75AOZ36zaQvIiQpZ5i56E6HNovDi4N4mhazZEb-erSHLJjby1PcnVywaRkLZjbi56A8R_LLMlINiPyLR97lPpvcCIKvnvohQgm5DjgzB-Z-KguP3vB6yW0IfOiJtkyl4eZJmerXslRBtuxy50SERPtZGTMdZ-BPJwiu0RpzPyk2juMyL0_xldq4ttlOOxIskhFkNW0sK7r8J3MKGvXp2ZjOiHrUrj4Y1YJV5X1HmN8W_dZTQk6X10xzeZsmjZ0J2UJ-WsUrufAPkeEOqyPewBJBYtuVO-x61Cu970S42klrrHoABemWqteMKCB_ZZ-s6ln2Zqk-prvE-rb3LdBOLES0tDm9gSS-xbYuaRhExRJz-XT7h0J_PM2lOpPq_Pd1OGv21QGr2yUaGO3zcnayLjhuQn9EnW4UDmay4XYosNicc4cq1yb0Y758ComVm8KPBfJv_l89_JI80RwvXexm0g_IJFtvZUbYNl8F8qZX8mRoE-dUeANQcXaU2qXlw6PeO1pZESYYe-s8fhSMXnVl_ZbJhTV1MknSaSeivhDin_g523vVJIWVaBWYXm04NE-SBl0l9J8opYQ8fQmWA7CUkyVhkuxnQuvnPBZRL8UYgOYjjgWJkFzJDggaMaEIXwlJWXVx2kcu1c90YxMmXTg_CRnMb5Ic7tysW-oWa2sGf54r5n5Kz86ohy34JcRmahdQ4Y7HALryLLziR7KcX8kBYO-QBm23Pp_EoNiynx0wnxckLV5eMLmmsDu0MIYJe0YLPMgd0x-W5uuoQ3YkvFoz5a7aERp5YpR63XnR2X-Pdf3KyM7W_WJfwpR6hs_jdCfh8bPPoJsTDhoapAUijSCj625HrJI2fXpn5L8C7LEFAWNl8CikY_5PagZqnVHuurcY6J34m6NbJp95v64eFXPVR8esVlHXpxSqohoZFpmClBBc0hBvoY9vNoOicXBKWjdGKX2uKpABwBmoDBjH64axwGFwn1CEHxLY91mkSyrrbzIEZN5i1oZtvxIN7iUf8txCO43_xql75E4S_gMyx5nQyVpz0K-aOxcl-wj2YBVpPQZPjU_WjLI-zPMzbR0zuw9695mxaNM67Q8BI5QTiqhWiF8ZC9Dorxxay0]--></g></svg>