<?xml version="1.0" encoding="us-ascii" standalone="no"?><svg xmlns="http://www.w3.org/2000/svg" xmlns:xlink="http://www.w3.org/1999/xlink" contentStyleType="text/css" height="1024.2px" preserveAspectRatio="none" style="width:1752px;height:1024px;background:#FFFFFF;" version="1.1" viewBox="0 0 1752 1024" width="1752.3px" zoomAndPan="magnify"><defs/><g><rect fill="#FFFFFF" height="846.4307" style="stroke:#181818;stroke-width:0.9;" width="9" x="278.1" y="105.1418"/><rect fill="#FFFFFF" height="28.1619" style="stroke:#181818;stroke-width:0.9;" width="9" x="399.15" y="133.3037"/><rect fill="#FFFFFF" height="28.1619" style="stroke:#181818;stroke-width:0.9;" width="9" x="495.45" y="189.6275"/><rect fill="#FFFFFF" height="28.1619" style="stroke:#181818;stroke-width:0.9;" width="9" x="495.45" y="527.5705"/><rect fill="#FFFFFF" height="28.1619" style="stroke:#181818;stroke-width:0.9;" width="9" x="495.45" y="640.2182"/><rect fill="#FFFFFF" height="28.1619" style="stroke:#181818;stroke-width:0.9;" width="9" x="610.65" y="245.9514"/><rect fill="#FFFFFF" height="28.1619" style="stroke:#181818;stroke-width:0.9;" width="9" x="610.65" y="302.2752"/><rect fill="#FFFFFF" height="28.1619" style="stroke:#181818;stroke-width:0.9;" width="9" x="743.85" y="358.599"/><rect fill="#FFFFFF" height="28.1619" style="stroke:#181818;stroke-width:0.9;" width="9" x="876.15" y="414.9229"/><rect fill="#FFFFFF" height="28.1619" style="stroke:#181818;stroke-width:0.9;" width="9" x="995.85" y="471.2467"/><rect fill="#FFFFFF" height="28.1619" style="stroke:#181818;stroke-width:0.9;" width="9" x="1107.45" y="583.8943"/><rect fill="#FFFFFF" height="226.8686" style="stroke:#181818;stroke-width:0.9;" width="9" x="1251.9" y="696.542"/><rect fill="#FFFFFF" height="117.7857" style="stroke:#181818;stroke-width:0.9;" width="9" x="1256.4" y="771.1629"/><rect fill="#FFFFFF" height="38.0619" style="stroke:#181818;stroke-width:0.9;" width="9" x="1260.9" y="811.0248"/><rect fill="none" height="891.9545" style="stroke:#000000;stroke-width:1.35;" width="1744.2" x="2.7" y="66.818"/><line style="stroke:#181818;stroke-width:0.45;stroke-dasharray:5.0,5.0;" x1="282.6" x2="282.6" y1="51.518" y2="974.0725"/><line style="stroke:#181818;stroke-width:0.45;stroke-dasharray:5.0,5.0;" x1="403.2" x2="403.2" y1="51.518" y2="974.0725"/><line style="stroke:#181818;stroke-width:0.45;stroke-dasharray:5.0,5.0;" x1="499.5" x2="499.5" y1="51.518" y2="974.0725"/><line style="stroke:#181818;stroke-width:0.45;stroke-dasharray:5.0,5.0;" x1="614.7" x2="614.7" y1="51.518" y2="974.0725"/><line style="stroke:#181818;stroke-width:0.45;stroke-dasharray:5.0,5.0;" x1="747.9" x2="747.9" y1="51.518" y2="974.0725"/><line style="stroke:#181818;stroke-width:0.45;stroke-dasharray:5.0,5.0;" x1="880.2" x2="880.2" y1="51.518" y2="974.0725"/><line style="stroke:#181818;stroke-width:0.45;stroke-dasharray:5.0,5.0;" x1="999.9" x2="999.9" y1="51.518" y2="974.0725"/><line style="stroke:#181818;stroke-width:0.45;stroke-dasharray:5.0,5.0;" x1="1111.5" x2="1111.5" y1="51.518" y2="974.0725"/><line style="stroke:#181818;stroke-width:0.45;stroke-dasharray:5.0,5.0;" x1="1256.4" x2="1256.4" y1="51.518" y2="974.0725"/><line style="stroke:#181818;stroke-width:0.45;stroke-dasharray:5.0,5.0;" x1="1420.2" x2="1420.2" y1="51.518" y2="974.0725"/><line style="stroke:#181818;stroke-width:0.45;stroke-dasharray:5.0,5.0;" x1="1565.1" x2="1565.1" y1="51.518" y2="974.0725"/><line style="stroke:#181818;stroke-width:0.45;stroke-dasharray:5.0,5.0;" x1="1687.5" x2="1687.5" y1="732.3715" y2="974.0725"/><rect fill="#E3E3E3" height="29.359" rx="2.25" ry="2.25" style="stroke:#181818;stroke-width:0.45;" width="136.8" x="214.2" y="21.259"/><text fill="#000000" font-family="sans-serif" font-size="12.6" lengthAdjust="spacing" textLength="124.2" x="220.5" y="41.1557">:PlaceOrderController</text><rect fill="#E3E3E3" height="29.359" rx="2.25" ry="2.25" style="stroke:#181818;stroke-width:0.45;" width="136.8" x="214.2" y="973.1725"/><text fill="#000000" font-family="sans-serif" font-size="12.6" lengthAdjust="spacing" textLength="124.2" x="220.5" y="993.0691">:PlaceOrderController</text><rect fill="#E3E3E3" height="29.359" rx="2.25" ry="2.25" style="stroke:#181818;stroke-width:0.45;" width="87.3" x="360" y="21.259"/><text fill="#000000" font-family="sans-serif" font-size="12.6" lengthAdjust="spacing" textLength="74.7" x="366.3" y="41.1557">:Repositories</text><rect fill="#E3E3E3" height="29.359" rx="2.25" ry="2.25" style="stroke:#181818;stroke-width:0.45;" width="87.3" x="360" y="973.1725"/><text fill="#000000" font-family="sans-serif" font-size="12.6" lengthAdjust="spacing" textLength="74.7" x="366.3" y="993.0691">:Repositories</text><rect fill="#E3E3E3" height="46.118" rx="2.25" ry="2.25" style="stroke:#181818;stroke-width:0.45;" width="87.3" x="456.3" y="4.5"/><text fill="#000000" font-family="sans-serif" font-size="12.6" lengthAdjust="spacing" textLength="66.6" x="466.65" y="24.3967">repositories</text><text fill="#000000" font-family="sans-serif" font-size="12.6" lengthAdjust="spacing" textLength="74.7" x="462.6" y="41.1557">:Repositories</text><rect fill="#E3E3E3" height="46.118" rx="2.25" ry="2.25" style="stroke:#181818;stroke-width:0.45;" width="87.3" x="456.3" y="973.1725"/><text fill="#000000" font-family="sans-serif" font-size="12.6" lengthAdjust="spacing" textLength="66.6" x="466.65" y="993.0691">repositories</text><text fill="#000000" font-family="sans-serif" font-size="12.6" lengthAdjust="spacing" textLength="74.7" x="462.6" y="1009.8281">:Repositories</text><rect fill="#E3E3E3" height="46.118" rx="2.25" ry="2.25" style="stroke:#181818;stroke-width:0.45;" width="125.1" x="552.6" y="4.5"/><text fill="#000000" font-family="sans-serif" font-size="12.6" lengthAdjust="spacing" textLength="112.5" x="558.9" y="24.3967">propertyRepository:</text><text fill="#000000" font-family="sans-serif" font-size="12.6" lengthAdjust="spacing" textLength="109.8" x="560.25" y="41.1557">PropertyRepository</text><rect fill="#E3E3E3" height="46.118" rx="2.25" ry="2.25" style="stroke:#181818;stroke-width:0.45;" width="125.1" x="552.6" y="973.1725"/><text fill="#000000" font-family="sans-serif" font-size="12.6" lengthAdjust="spacing" textLength="112.5" x="558.9" y="993.0691">propertyRepository:</text><text fill="#000000" font-family="sans-serif" font-size="12.6" lengthAdjust="spacing" textLength="109.8" x="560.25" y="1009.8281">PropertyRepository</text><rect fill="#E3E3E3" height="29.359" rx="2.25" ry="2.25" style="stroke:#181818;stroke-width:0.45;" width="123.3" x="686.7" y="21.259"/><text fill="#000000" font-family="sans-serif" font-size="12.6" lengthAdjust="spacing" textLength="110.7" x="693" y="41.1557">:ApplicationSession</text><rect fill="#E3E3E3" height="29.359" rx="2.25" ry="2.25" style="stroke:#181818;stroke-width:0.45;" width="123.3" x="686.7" y="973.1725"/><text fill="#000000" font-family="sans-serif" font-size="12.6" lengthAdjust="spacing" textLength="110.7" x="693" y="993.0691">:ApplicationSession</text><rect fill="#E3E3E3" height="46.118" rx="2.25" ry="2.25" style="stroke:#181818;stroke-width:0.45;" width="123.3" x="819" y="4.5"/><text fill="#000000" font-family="sans-serif" font-size="12.6" lengthAdjust="spacing" textLength="66.6" x="847.35" y="24.3967">appSession</text><text fill="#000000" font-family="sans-serif" font-size="12.6" lengthAdjust="spacing" textLength="110.7" x="825.3" y="41.1557">:ApplicationSession</text><rect fill="#E3E3E3" height="46.118" rx="2.25" ry="2.25" style="stroke:#181818;stroke-width:0.45;" width="123.3" x="819" y="973.1725"/><text fill="#000000" font-family="sans-serif" font-size="12.6" lengthAdjust="spacing" textLength="66.6" x="847.35" y="993.0691">appSession</text><text fill="#000000" font-family="sans-serif" font-size="12.6" lengthAdjust="spacing" textLength="110.7" x="825.3" y="1009.8281">:ApplicationSession</text><rect fill="#E3E3E3" height="46.118" rx="2.25" ry="2.25" style="stroke:#181818;stroke-width:0.45;" width="98.1" x="951.3" y="4.5"/><text fill="#000000" font-family="sans-serif" font-size="12.6" lengthAdjust="spacing" textLength="85.5" x="957.6" y="24.3967">currentSession</text><text fill="#000000" font-family="sans-serif" font-size="12.6" lengthAdjust="spacing" textLength="74.7" x="963" y="41.1557">:UserSession</text><rect fill="#E3E3E3" height="46.118" rx="2.25" ry="2.25" style="stroke:#181818;stroke-width:0.45;" width="98.1" x="951.3" y="973.1725"/><text fill="#000000" font-family="sans-serif" font-size="12.6" lengthAdjust="spacing" textLength="85.5" x="957.6" y="993.0691">currentSession</text><text fill="#000000" font-family="sans-serif" font-size="12.6" lengthAdjust="spacing" textLength="74.7" x="963" y="1009.8281">:UserSession</text><rect fill="#E3E3E3" height="46.118" rx="2.25" ry="2.25" style="stroke:#181818;stroke-width:0.45;" width="107.1" x="1058.4" y="4.5"/><text fill="#000000" font-family="sans-serif" font-size="12.6" lengthAdjust="spacing" textLength="94.5" x="1064.7" y="24.3967">clientRepository:</text><text fill="#000000" font-family="sans-serif" font-size="12.6" lengthAdjust="spacing" textLength="93.6" x="1065.15" y="41.1557">ClientRepository</text><rect fill="#E3E3E3" height="46.118" rx="2.25" ry="2.25" style="stroke:#181818;stroke-width:0.45;" width="107.1" x="1058.4" y="973.1725"/><text fill="#000000" font-family="sans-serif" font-size="12.6" lengthAdjust="spacing" textLength="94.5" x="1064.7" y="993.0691">clientRepository:</text><text fill="#000000" font-family="sans-serif" font-size="12.6" lengthAdjust="spacing" textLength="93.6" x="1065.15" y="1009.8281">ClientRepository</text><rect fill="#E3E3E3" height="46.118" rx="2.25" ry="2.25" style="stroke:#181818;stroke-width:0.45;" width="163.8" x="1174.5" y="4.5"/><text fill="#000000" font-family="sans-serif" font-size="12.6" lengthAdjust="spacing" textLength="151.2" x="1180.8" y="24.3967">purchaseOrderRepository:</text><text fill="#000000" font-family="sans-serif" font-size="12.6" lengthAdjust="spacing" textLength="148.5" x="1182.15" y="41.1557">PurchaseOrderRepository</text><rect fill="#E3E3E3" height="46.118" rx="2.25" ry="2.25" style="stroke:#181818;stroke-width:0.45;" width="163.8" x="1174.5" y="973.1725"/><text fill="#000000" font-family="sans-serif" font-size="12.6" lengthAdjust="spacing" textLength="151.2" x="1180.8" y="993.0691">purchaseOrderRepository:</text><text fill="#000000" font-family="sans-serif" font-size="12.6" lengthAdjust="spacing" textLength="148.5" x="1182.15" y="1009.8281">PurchaseOrderRepository</text><rect fill="#E3E3E3" height="46.118" rx="2.25" ry="2.25" style="stroke:#181818;stroke-width:0.45;" width="145.8" x="1347.3" y="4.5"/><text fill="#000000" font-family="sans-serif" font-size="12.6" lengthAdjust="spacing" textLength="133.2" x="1353.6" y="24.3967">purchaseOrderMapper:</text><text fill="#000000" font-family="sans-serif" font-size="12.6" lengthAdjust="spacing" textLength="130.5" x="1354.95" y="41.1557">PurchaseOrderMapper</text><rect fill="#E3E3E3" height="46.118" rx="2.25" ry="2.25" style="stroke:#181818;stroke-width:0.45;" width="145.8" x="1347.3" y="973.1725"/><text fill="#000000" font-family="sans-serif" font-size="12.6" lengthAdjust="spacing" textLength="133.2" x="1353.6" y="993.0691">purchaseOrderMapper:</text><text fill="#000000" font-family="sans-serif" font-size="12.6" lengthAdjust="spacing" textLength="130.5" x="1354.95" y="1009.8281">PurchaseOrderMapper</text><rect fill="#E3E3E3" height="29.359" rx="2.25" ry="2.25" style="stroke:#181818;stroke-width:0.45;" width="126.9" x="1502.1" y="21.259"/><text fill="#000000" font-family="sans-serif" font-size="12.6" lengthAdjust="spacing" textLength="114.3" x="1508.4" y="41.1557">PurchaseOrderDTO</text><rect fill="#E3E3E3" height="29.359" rx="2.25" ry="2.25" style="stroke:#181818;stroke-width:0.45;" width="126.9" x="1502.1" y="973.1725"/><text fill="#000000" font-family="sans-serif" font-size="12.6" lengthAdjust="spacing" textLength="114.3" x="1508.4" y="993.0691">PurchaseOrderDTO</text><rect fill="#E3E3E3" height="29.359" rx="2.25" ry="2.25" style="stroke:#181818;stroke-width:0.45;" width="99.9" x="1638" y="973.1725"/><text fill="#000000" font-family="sans-serif" font-size="12.6" lengthAdjust="spacing" textLength="87.3" x="1644.3" y="993.0691">PurchaseOrder</text><rect fill="#FFFFFF" height="846.4307" style="stroke:#181818;stroke-width:0.9;" width="9" x="278.1" y="105.1418"/><rect fill="#FFFFFF" height="28.1619" style="stroke:#181818;stroke-width:0.9;" width="9" x="399.15" y="133.3037"/><rect fill="#FFFFFF" height="28.1619" style="stroke:#181818;stroke-width:0.9;" width="9" x="495.45" y="189.6275"/><rect fill="#FFFFFF" height="28.1619" style="stroke:#181818;stroke-width:0.9;" width="9" x="495.45" y="527.5705"/><rect fill="#FFFFFF" height="28.1619" style="stroke:#181818;stroke-width:0.9;" width="9" x="495.45" y="640.2182"/><rect fill="#FFFFFF" height="28.1619" style="stroke:#181818;stroke-width:0.9;" width="9" x="610.65" y="245.9514"/><rect fill="#FFFFFF" height="28.1619" style="stroke:#181818;stroke-width:0.9;" width="9" x="610.65" y="302.2752"/><rect fill="#FFFFFF" height="28.1619" style="stroke:#181818;stroke-width:0.9;" width="9" x="743.85" y="358.599"/><rect fill="#FFFFFF" height="28.1619" style="stroke:#181818;stroke-width:0.9;" width="9" x="876.15" y="414.9229"/><rect fill="#FFFFFF" height="28.1619" style="stroke:#181818;stroke-width:0.9;" width="9" x="995.85" y="471.2467"/><rect fill="#FFFFFF" height="28.1619" style="stroke:#181818;stroke-width:0.9;" width="9" x="1107.45" y="583.8943"/><rect fill="#FFFFFF" height="226.8686" style="stroke:#181818;stroke-width:0.9;" width="9" x="1251.9" y="696.542"/><rect fill="#FFFFFF" height="117.7857" style="stroke:#181818;stroke-width:0.9;" width="9" x="1256.4" y="771.1629"/><rect fill="#FFFFFF" height="38.0619" style="stroke:#181818;stroke-width:0.9;" width="9" x="1260.9" y="811.0248"/><path d="M2.7,66.818 L173.7,66.818 L173.7,75.1799 L164.7,84.1799 L2.7,84.1799 L2.7,66.818 " fill="#EEEEEE" style="stroke:#000000;stroke-width:1.35;"/><rect fill="none" height="891.9545" style="stroke:#000000;stroke-width:1.35;" width="1744.2" x="2.7" y="66.818"/><text fill="#000000" font-family="sans-serif" font-size="11.7" font-weight="bold" lengthAdjust="spacing" textLength="130.5" x="16.2" y="80.3435">Create Purchase Order</text><polygon fill="#181818" points="267.3,101.5418,276.3,105.1418,267.3,108.7418,270.9,105.1418" style="stroke:#181818;stroke-width:0.9;"/><line style="stroke:#181818;stroke-width:0.9;stroke-dasharray:2.0,2.0;" x1="0" x2="272.7" y1="105.1418" y2="105.1418"/><text fill="#000000" font-family="sans-serif" font-size="11.7" font-weight="bold" lengthAdjust="spacing" textLength="12.6" x="6.3" y="100.4054">73</text><text fill="#000000" font-family="sans-serif" font-size="11.7" lengthAdjust="spacing" textLength="238.5" x="22.5" y="100.4054">placeOrder(orderAmount, propertyDescription)</text><polygon fill="#181818" points="388.35,129.7037,397.35,133.3037,388.35,136.9037,391.95,133.3037" style="stroke:#181818;stroke-width:0.9;"/><line style="stroke:#181818;stroke-width:0.9;" x1="287.1" x2="393.75" y1="133.3037" y2="133.3037"/><text fill="#000000" font-family="sans-serif" font-size="11.7" font-weight="bold" lengthAdjust="spacing" textLength="12.6" x="293.4" y="128.5673">74</text><text fill="#000000" font-family="sans-serif" font-size="11.7" lengthAdjust="spacing" textLength="67.5" x="309.6" y="128.5673">getInstance()</text><polygon fill="#181818" points="297,157.8656,288,161.4656,297,165.0656,293.4,161.4656" style="stroke:#181818;stroke-width:0.9;"/><line style="stroke:#181818;stroke-width:0.9;stroke-dasharray:2.0,2.0;" x1="291.6" x2="402.75" y1="161.4656" y2="161.4656"/><text fill="#000000" font-family="sans-serif" font-size="11.7" font-weight="bold" lengthAdjust="spacing" textLength="12.6" x="302.4" y="156.7292">75</text><text fill="#000000" font-family="sans-serif" font-size="11.7" lengthAdjust="spacing" textLength="60.3" x="318.6" y="156.7292">repositories</text><polygon fill="#181818" points="484.65,186.0275,493.65,189.6275,484.65,193.2275,488.25,189.6275" style="stroke:#181818;stroke-width:0.9;"/><line style="stroke:#181818;stroke-width:0.9;" x1="287.1" x2="490.05" y1="189.6275" y2="189.6275"/><text fill="#000000" font-family="sans-serif" font-size="11.7" font-weight="bold" lengthAdjust="spacing" textLength="12.6" x="293.4" y="184.8911">76</text><text fill="#000000" font-family="sans-serif" font-size="11.7" lengthAdjust="spacing" textLength="123.3" x="309.6" y="184.8911">getPropertyRepository()</text><polygon fill="#181818" points="297,214.1895,288,217.7895,297,221.3895,293.4,217.7895" style="stroke:#181818;stroke-width:0.9;"/><line style="stroke:#181818;stroke-width:0.9;stroke-dasharray:2.0,2.0;" x1="291.6" x2="499.05" y1="217.7895" y2="217.7895"/><text fill="#000000" font-family="sans-serif" font-size="11.7" font-weight="bold" lengthAdjust="spacing" textLength="12.6" x="302.4" y="213.053">77</text><text fill="#000000" font-family="sans-serif" font-size="11.7" lengthAdjust="spacing" textLength="98.1" x="318.6" y="213.053">propertyRepository</text><polygon fill="#181818" points="599.85,242.3514,608.85,245.9514,599.85,249.5514,603.45,245.9514" style="stroke:#181818;stroke-width:0.9;"/><line style="stroke:#181818;stroke-width:0.9;" x1="287.1" x2="605.25" y1="245.9514" y2="245.9514"/><text fill="#000000" font-family="sans-serif" font-size="11.7" font-weight="bold" lengthAdjust="spacing" textLength="12.6" x="293.4" y="241.2149">78</text><text fill="#000000" font-family="sans-serif" font-size="11.7" lengthAdjust="spacing" textLength="241.2" x="309.6" y="241.2149">getPropertyByDescription(propertyDescription)</text><polygon fill="#181818" points="297,270.5133,288,274.1133,297,277.7133,293.4,274.1133" style="stroke:#181818;stroke-width:0.9;"/><line style="stroke:#181818;stroke-width:0.9;stroke-dasharray:2.0,2.0;" x1="291.6" x2="614.25" y1="274.1133" y2="274.1133"/><text fill="#000000" font-family="sans-serif" font-size="11.7" font-weight="bold" lengthAdjust="spacing" textLength="12.6" x="302.4" y="269.3769">79</text><text fill="#000000" font-family="sans-serif" font-size="11.7" lengthAdjust="spacing" textLength="42.3" x="318.6" y="269.3769">property</text><polygon fill="#181818" points="599.85,298.6752,608.85,302.2752,599.85,305.8752,603.45,302.2752" style="stroke:#181818;stroke-width:0.9;"/><line style="stroke:#181818;stroke-width:0.9;" x1="287.1" x2="605.25" y1="302.2752" y2="302.2752"/><text fill="#000000" font-family="sans-serif" font-size="11.7" font-weight="bold" lengthAdjust="spacing" textLength="12.6" x="293.4" y="297.5388">80</text><text fill="#000000" font-family="sans-serif" font-size="11.7" lengthAdjust="spacing" textLength="225.9" x="309.6" y="297.5388">getSaleAnnouncementByProperty(property)</text><polygon fill="#181818" points="297,326.8371,288,330.4371,297,334.0371,293.4,330.4371" style="stroke:#181818;stroke-width:0.9;"/><line style="stroke:#181818;stroke-width:0.9;stroke-dasharray:2.0,2.0;" x1="291.6" x2="614.25" y1="330.4371" y2="330.4371"/><text fill="#000000" font-family="sans-serif" font-size="11.7" font-weight="bold" lengthAdjust="spacing" textLength="12.6" x="302.4" y="325.7007">81</text><text fill="#000000" font-family="sans-serif" font-size="11.7" lengthAdjust="spacing" textLength="76.5" x="318.6" y="325.7007">announcement</text><polygon fill="#181818" points="733.05,354.999,742.05,358.599,733.05,362.199,736.65,358.599" style="stroke:#181818;stroke-width:0.9;"/><line style="stroke:#181818;stroke-width:0.9;" x1="287.1" x2="738.45" y1="358.599" y2="358.599"/><text fill="#000000" font-family="sans-serif" font-size="11.7" font-weight="bold" lengthAdjust="spacing" textLength="12.6" x="293.4" y="353.8626">82</text><text fill="#000000" font-family="sans-serif" font-size="11.7" lengthAdjust="spacing" textLength="67.5" x="309.6" y="353.8626">getInstance()</text><polygon fill="#181818" points="297,383.1609,288,386.7609,297,390.3609,293.4,386.7609" style="stroke:#181818;stroke-width:0.9;"/><line style="stroke:#181818;stroke-width:0.9;stroke-dasharray:2.0,2.0;" x1="291.6" x2="747.45" y1="386.7609" y2="386.7609"/><text fill="#000000" font-family="sans-serif" font-size="11.7" font-weight="bold" lengthAdjust="spacing" textLength="12.6" x="302.4" y="382.0245">83</text><text fill="#000000" font-family="sans-serif" font-size="11.7" lengthAdjust="spacing" textLength="61.2" x="318.6" y="382.0245">appSession</text><polygon fill="#181818" points="865.35,411.3229,874.35,414.9229,865.35,418.5229,868.95,414.9229" style="stroke:#181818;stroke-width:0.9;"/><line style="stroke:#181818;stroke-width:0.9;" x1="287.1" x2="870.75" y1="414.9229" y2="414.9229"/><text fill="#000000" font-family="sans-serif" font-size="11.7" font-weight="bold" lengthAdjust="spacing" textLength="12.6" x="293.4" y="410.1864">84</text><text fill="#000000" font-family="sans-serif" font-size="11.7" lengthAdjust="spacing" textLength="103.5" x="309.6" y="410.1864">getCurrentSession()</text><polygon fill="#181818" points="297,439.4848,288,443.0848,297,446.6848,293.4,443.0848" style="stroke:#181818;stroke-width:0.9;"/><line style="stroke:#181818;stroke-width:0.9;stroke-dasharray:2.0,2.0;" x1="291.6" x2="879.75" y1="443.0848" y2="443.0848"/><text fill="#000000" font-family="sans-serif" font-size="11.7" font-weight="bold" lengthAdjust="spacing" textLength="12.6" x="302.4" y="438.3483">85</text><text fill="#000000" font-family="sans-serif" font-size="11.7" lengthAdjust="spacing" textLength="78.3" x="318.6" y="438.3483">currentSession</text><polygon fill="#181818" points="985.05,467.6467,994.05,471.2467,985.05,474.8467,988.65,471.2467" style="stroke:#181818;stroke-width:0.9;"/><line style="stroke:#181818;stroke-width:0.9;" x1="287.1" x2="990.45" y1="471.2467" y2="471.2467"/><text fill="#000000" font-family="sans-serif" font-size="11.7" font-weight="bold" lengthAdjust="spacing" textLength="12.6" x="293.4" y="466.5103">86</text><text fill="#000000" font-family="sans-serif" font-size="11.7" lengthAdjust="spacing" textLength="119.7" x="309.6" y="466.5103">email = getUserEmail()</text><polygon fill="#181818" points="297,495.8086,288,499.4086,297,503.0086,293.4,499.4086" style="stroke:#181818;stroke-width:0.9;"/><line style="stroke:#181818;stroke-width:0.9;stroke-dasharray:2.0,2.0;" x1="291.6" x2="999.45" y1="499.4086" y2="499.4086"/><text fill="#000000" font-family="sans-serif" font-size="11.7" font-weight="bold" lengthAdjust="spacing" textLength="12.6" x="302.4" y="494.6722">87</text><text fill="#000000" font-family="sans-serif" font-size="11.7" lengthAdjust="spacing" textLength="27.9" x="318.6" y="494.6722">email</text><polygon fill="#181818" points="484.65,523.9705,493.65,527.5705,484.65,531.1705,488.25,527.5705" style="stroke:#181818;stroke-width:0.9;"/><line style="stroke:#181818;stroke-width:0.9;" x1="287.1" x2="490.05" y1="527.5705" y2="527.5705"/><text fill="#000000" font-family="sans-serif" font-size="11.7" font-weight="bold" lengthAdjust="spacing" textLength="12.6" x="293.4" y="522.8341">88</text><text fill="#000000" font-family="sans-serif" font-size="11.7" lengthAdjust="spacing" textLength="108.9" x="309.6" y="522.8341">getClientRepository()</text><polygon fill="#181818" points="297,552.1324,288,555.7324,297,559.3324,293.4,555.7324" style="stroke:#181818;stroke-width:0.9;"/><line style="stroke:#181818;stroke-width:0.9;stroke-dasharray:2.0,2.0;" x1="291.6" x2="499.05" y1="555.7324" y2="555.7324"/><text fill="#000000" font-family="sans-serif" font-size="11.7" font-weight="bold" lengthAdjust="spacing" textLength="12.6" x="302.4" y="550.996">89</text><text fill="#000000" font-family="sans-serif" font-size="11.7" lengthAdjust="spacing" textLength="83.7" x="318.6" y="550.996">clientRepository</text><polygon fill="#181818" points="1096.65,580.2943,1105.65,583.8943,1096.65,587.4943,1100.25,583.8943" style="stroke:#181818;stroke-width:0.9;"/><line style="stroke:#181818;stroke-width:0.9;" x1="287.1" x2="1102.05" y1="583.8943" y2="583.8943"/><text fill="#000000" font-family="sans-serif" font-size="11.7" font-weight="bold" lengthAdjust="spacing" textLength="12.6" x="293.4" y="579.1579">90</text><text fill="#000000" font-family="sans-serif" font-size="11.7" lengthAdjust="spacing" textLength="167.4" x="309.6" y="579.1579">client = getClientByEmail(email)</text><polygon fill="#181818" points="297,608.4563,288,612.0563,297,615.6563,293.4,612.0563" style="stroke:#181818;stroke-width:0.9;"/><line style="stroke:#181818;stroke-width:0.9;stroke-dasharray:2.0,2.0;" x1="291.6" x2="1111.05" y1="612.0563" y2="612.0563"/><text fill="#000000" font-family="sans-serif" font-size="11.7" font-weight="bold" lengthAdjust="spacing" textLength="12.6" x="302.4" y="607.3198">91</text><text fill="#000000" font-family="sans-serif" font-size="11.7" lengthAdjust="spacing" textLength="27.9" x="318.6" y="607.3198">client</text><polygon fill="#181818" points="484.65,636.6182,493.65,640.2182,484.65,643.8182,488.25,640.2182" style="stroke:#181818;stroke-width:0.9;"/><line style="stroke:#181818;stroke-width:0.9;" x1="287.1" x2="490.05" y1="640.2182" y2="640.2182"/><text fill="#000000" font-family="sans-serif" font-size="11.7" font-weight="bold" lengthAdjust="spacing" textLength="12.6" x="293.4" y="635.4817">92</text><text fill="#000000" font-family="sans-serif" font-size="11.7" lengthAdjust="spacing" textLength="157.5" x="309.6" y="635.4817">getPurchaseOrderRepository()</text><polygon fill="#181818" points="297,664.7801,288,668.3801,297,671.9801,293.4,668.3801" style="stroke:#181818;stroke-width:0.9;"/><line style="stroke:#181818;stroke-width:0.9;stroke-dasharray:2.0,2.0;" x1="291.6" x2="499.05" y1="668.3801" y2="668.3801"/><text fill="#000000" font-family="sans-serif" font-size="11.7" font-weight="bold" lengthAdjust="spacing" textLength="12.6" x="302.4" y="663.6437">93</text><text fill="#000000" font-family="sans-serif" font-size="11.7" lengthAdjust="spacing" textLength="132.3" x="318.6" y="663.6437">purchaseOrderRepository</text><polygon fill="#181818" points="1241.1,692.942,1250.1,696.542,1241.1,700.142,1244.7,696.542" style="stroke:#181818;stroke-width:0.9;"/><line style="stroke:#181818;stroke-width:0.9;" x1="287.1" x2="1246.5" y1="696.542" y2="696.542"/><text fill="#000000" font-family="sans-serif" font-size="11.7" font-weight="bold" lengthAdjust="spacing" textLength="12.6" x="293.4" y="691.8056">94</text><text fill="#000000" font-family="sans-serif" font-size="11.7" lengthAdjust="spacing" textLength="273.6" x="309.6" y="691.8056">placeOrder(orderAmount, propertyDescription, client)</text><polygon fill="#181818" points="1627.2,721.1039,1636.2,724.7039,1627.2,728.3039,1630.8,724.7039" style="stroke:#181818;stroke-width:0.9;"/><line style="stroke:#181818;stroke-width:0.9;" x1="1260.9" x2="1632.6" y1="724.7039" y2="724.7039"/><text fill="#000000" font-family="sans-serif" font-size="11.7" font-weight="bold" lengthAdjust="spacing" textLength="12.6" x="1267.2" y="719.9675">95</text><text fill="#000000" font-family="sans-serif" font-size="11.7" lengthAdjust="spacing" textLength="225" x="1283.4" y="719.9675">create(orderAmount, announcement, client)</text><rect fill="#E3E3E3" height="29.359" rx="2.25" ry="2.25" style="stroke:#181818;stroke-width:0.45;" width="99.9" x="1638" y="703.742"/><text fill="#000000" font-family="sans-serif" font-size="12.6" lengthAdjust="spacing" textLength="87.3" x="1644.3" y="723.6387">PurchaseOrder</text><line style="stroke:#181818;stroke-width:0.9;" x1="1260.9" x2="1303.2" y1="759.4629" y2="759.4629"/><line style="stroke:#181818;stroke-width:0.9;" x1="1303.2" x2="1303.2" y1="759.4629" y2="771.1629"/><line style="stroke:#181818;stroke-width:0.9;" x1="1266.3" x2="1303.2" y1="771.1629" y2="771.1629"/><polygon fill="#181818" points="1275.3,767.5629,1266.3,771.1629,1275.3,774.7629,1271.7,771.1629" style="stroke:#181818;stroke-width:0.9;"/><text fill="#000000" font-family="sans-serif" font-size="11.7" font-weight="bold" lengthAdjust="spacing" textLength="12.6" x="1271.7" y="754.7265">96</text><text fill="#000000" font-family="sans-serif" font-size="11.7" lengthAdjust="spacing" textLength="76.5" x="1287.9" y="754.7265">addOffer(order)</text><line style="stroke:#181818;stroke-width:0.9;" x1="1265.4" x2="1307.7" y1="799.3248" y2="799.3248"/><line style="stroke:#181818;stroke-width:0.9;" x1="1307.7" x2="1307.7" y1="799.3248" y2="811.0248"/><line style="stroke:#181818;stroke-width:0.9;" x1="1270.8" x2="1307.7" y1="811.0248" y2="811.0248"/><polygon fill="#181818" points="1279.8,807.4248,1270.8,811.0248,1279.8,814.6248,1276.2,811.0248" style="stroke:#181818;stroke-width:0.9;"/><text fill="#000000" font-family="sans-serif" font-size="11.7" font-weight="bold" lengthAdjust="spacing" textLength="12.6" x="1276.2" y="794.5884">97</text><text fill="#000000" font-family="sans-serif" font-size="11.7" lengthAdjust="spacing" textLength="96.3" x="1292.4" y="794.5884">validateOffer(order)</text><line style="stroke:#181818;stroke-width:0.9;stroke-dasharray:2.0,2.0;" x1="1269.9" x2="1307.7" y1="848.1867" y2="848.1867"/><line style="stroke:#181818;stroke-width:0.9;stroke-dasharray:2.0,2.0;" x1="1307.7" x2="1307.7" y1="848.1867" y2="859.8867"/><line style="stroke:#181818;stroke-width:0.9;stroke-dasharray:2.0,2.0;" x1="1265.4" x2="1307.7" y1="859.8867" y2="859.8867"/><polygon fill="#181818" points="1274.4,856.2867,1265.4,859.8867,1274.4,863.4867,1270.8,859.8867" style="stroke:#181818;stroke-width:0.9;"/><text fill="#000000" font-family="sans-serif" font-size="11.7" font-weight="bold" lengthAdjust="spacing" textLength="12.6" x="1276.2" y="843.4503">98</text><text fill="#000000" font-family="sans-serif" font-size="11.7" lengthAdjust="spacing" textLength="3.6" x="1292.4" y="843.4503">&#160;</text><line style="stroke:#181818;stroke-width:0.9;stroke-dasharray:2.0,2.0;" x1="1265.4" x2="1303.2" y1="888.0486" y2="888.0486"/><line style="stroke:#181818;stroke-width:0.9;stroke-dasharray:2.0,2.0;" x1="1303.2" x2="1303.2" y1="888.0486" y2="899.7486"/><line style="stroke:#181818;stroke-width:0.9;stroke-dasharray:2.0,2.0;" x1="1260.9" x2="1303.2" y1="899.7486" y2="899.7486"/><polygon fill="#181818" points="1269.9,896.1486,1260.9,899.7486,1269.9,903.3486,1266.3,899.7486" style="stroke:#181818;stroke-width:0.9;"/><text fill="#000000" font-family="sans-serif" font-size="11.7" font-weight="bold" lengthAdjust="spacing" textLength="12.6" x="1271.7" y="883.3122">99</text><text fill="#000000" font-family="sans-serif" font-size="11.7" lengthAdjust="spacing" textLength="3.6" x="1287.9" y="883.3122">&#160;</text><polygon fill="#181818" points="297,919.8105,288,923.4105,297,927.0105,293.4,923.4105" style="stroke:#181818;stroke-width:0.9;"/><line style="stroke:#181818;stroke-width:0.9;stroke-dasharray:2.0,2.0;" x1="291.6" x2="1255.5" y1="923.4105" y2="923.4105"/><text fill="#000000" font-family="sans-serif" font-size="11.7" font-weight="bold" lengthAdjust="spacing" textLength="18.9" x="302.4" y="918.6741">100</text><text fill="#000000" font-family="sans-serif" font-size="11.7" lengthAdjust="spacing" textLength="26.1" x="324.9" y="918.6741">order</text><polygon fill="#181818" points="9.9,947.9725,0.9,951.5725,9.9,955.1725,6.3,951.5725" style="stroke:#181818;stroke-width:0.9;"/><line style="stroke:#181818;stroke-width:0.9;stroke-dasharray:2.0,2.0;" x1="4.5" x2="281.7" y1="951.5725" y2="951.5725"/><text fill="#000000" font-family="sans-serif" font-size="11.7" font-weight="bold" lengthAdjust="spacing" textLength="18.9" x="15.3" y="946.836">101</text><text fill="#000000" font-family="sans-serif" font-size="11.7" lengthAdjust="spacing" textLength="26.1" x="37.8" y="946.836">order</text><!--SRC=[hLPBRzmW4BxxLw2SaYXxwg7IggsqsMIbI4czijDRf8hQamsA3GZZLFll2zXumI-SD3ximyny3nW6gbT2EHQuH2MZB7iHh0GaHGrHrOrmdBtY0wJoM00Ia4bC3uKRKBtWdFqbz82USL5154MubepMvHyGwEkNA59XacI4OohHsNfVu0nYaOFOCYe5AmeGPmXNQFkOtFTY4-2i8f890fM9wLuSKw9bA1u_HJWPJtG8iB_VFFePN30EGXvFqEidkX-yRBAJdi0DvmN9i2ICfb1Lwil4_TxiztuavhmDKAeciWP9MIq4K7bA_5M1S3FIspIzYt_siWgYaZmxszwhPhxlxtepKOli1LVDulZJCJvYOE9a1kL1-GRHHsZUDZCQFsnwhhtGcyUuZLE_Pk8QARjT51q4gpdQ2i0Ia8r19YX2xRDQ_J3bXjQ8T-LuplJdfcGrbLV8biKDL9aWNA_LHPVVFJYJv4qJcU8TZkl742d2aTfL_0UGTxHIcog3yujnW8vahFh7K_GpncUDhv6xKSOnSlW0iJMhzrdZRhYLWZxD9fqsPh3T9Hmm10tDC7GE4b__jLiAvylAmtULp7bAnXo5VIGBNQIuW0sbghOpA5Klk3vQNvsLJzIF7QR_zw2xwQADSj9g6l2aM3Fix8LJSvx8STGQvAc9i8gjuAtNmCEo3VQqR5-rVpg4bS-0MztjUR96K69IeE_QWpvpRlNVi7nx7CrOQ4CS6uOghBx33bWuDPx-eHVM7-WxWyRJFsd3BWp3l05rB5laPW4Q7zV7PX7CT0MTwBDzneWQ7le8gzUeIxl- -8tXqrl_E4tqyNMmLkBaVPU3gtOMGmRLTMdIdUBKpBlTvQLU5NE5yOdTnXfWT00JrUBoF7v-jZwcKnRfz93VS45obR48_ZqKbiRmp4Ow2xj0TeCNBKIBGbXj9JBlWlbEUTzMgm2EkmlrLHDeZinDzny0]--></g></svg>