<?xml version="1.0" encoding="us-ascii" standalone="no"?><svg xmlns="http://www.w3.org/2000/svg" xmlns:xlink="http://www.w3.org/1999/xlink" contentStyleType="text/css" height="673.2px" preserveAspectRatio="none" style="width:917px;height:673px;background:#FFFFFF;" version="1.1" viewBox="0 0 917 673" width="917.1px" zoomAndPan="magnify"><defs/><g><rect fill="#FFFFFF" height="495.6609" style="stroke:#181818;stroke-width:0.9;" width="9" x="129.6" y="105.1418"/><rect fill="#FFFFFF" height="28.1619" style="stroke:#181818;stroke-width:0.9;" width="9" x="346.95" y="133.3037"/><rect fill="#FFFFFF" height="383.0133" style="stroke:#181818;stroke-width:0.9;" width="9" x="479.7" y="189.6275"/><rect fill="#FFFFFF" height="177.7447" style="stroke:#181818;stroke-width:0.9;" width="9" x="650.7" y="241.4514"/><rect fill="#FFFFFF" height="27" style="stroke:#181818;stroke-width:0.9;" width="9" x="871.65" y="269.6133"/><rect fill="#FFFFFF" height="27" style="stroke:#181818;stroke-width:0.9;" width="9" x="871.65" y="324.7752"/><rect fill="none" height="541.1848" style="stroke:#000000;stroke-width:1.35;" width="909" x="2.7" y="66.818"/><rect fill="none" height="263.1305" style="stroke:#000000;stroke-width:1.35;" width="507.6" x="395.1" y="203.1275"/><line style="stroke:#181818;stroke-width:0.45;stroke-dasharray:5.0,5.0;" x1="134.1" x2="134.1" y1="51.518" y2="623.3027"/><line style="stroke:#181818;stroke-width:0.45;stroke-dasharray:5.0,5.0;" x1="254.7" x2="254.7" y1="51.518" y2="623.3027"/><line style="stroke:#181818;stroke-width:0.45;stroke-dasharray:5.0,5.0;" x1="351" x2="351" y1="51.518" y2="623.3027"/><line style="stroke:#181818;stroke-width:0.45;stroke-dasharray:5.0,5.0;" x1="484.2" x2="484.2" y1="51.518" y2="623.3027"/><line style="stroke:#181818;stroke-width:0.45;stroke-dasharray:5.0,5.0;" x1="655.2" x2="655.2" y1="51.518" y2="623.3027"/><line style="stroke:#181818;stroke-width:0.45;stroke-dasharray:5.0,5.0;" x1="818.1" x2="818.1" y1="501.1875" y2="623.3027"/><line style="stroke:#181818;stroke-width:0.45;stroke-dasharray:5.0,5.0;" x1="875.7" x2="875.7" y1="51.518" y2="623.3027"/><rect fill="#E3E3E3" height="29.359" rx="2.25" ry="2.25" style="stroke:#181818;stroke-width:0.45;" width="136.8" x="65.7" y="21.259"/><text fill="#000000" font-family="sans-serif" font-size="12.6" lengthAdjust="spacing" textLength="124.2" x="72" y="41.1557">:PlaceOrderController</text><rect fill="#E3E3E3" height="29.359" rx="2.25" ry="2.25" style="stroke:#181818;stroke-width:0.45;" width="136.8" x="65.7" y="622.4027"/><text fill="#000000" font-family="sans-serif" font-size="12.6" lengthAdjust="spacing" textLength="124.2" x="72" y="642.2994">:PlaceOrderController</text><rect fill="#E3E3E3" height="29.359" rx="2.25" ry="2.25" style="stroke:#181818;stroke-width:0.45;" width="87.3" x="211.5" y="21.259"/><text fill="#000000" font-family="sans-serif" font-size="12.6" lengthAdjust="spacing" textLength="74.7" x="217.8" y="41.1557">:Repositories</text><rect fill="#E3E3E3" height="29.359" rx="2.25" ry="2.25" style="stroke:#181818;stroke-width:0.45;" width="87.3" x="211.5" y="622.4027"/><text fill="#000000" font-family="sans-serif" font-size="12.6" lengthAdjust="spacing" textLength="74.7" x="217.8" y="642.2994">:Repositories</text><rect fill="#E3E3E3" height="46.118" rx="2.25" ry="2.25" style="stroke:#181818;stroke-width:0.45;" width="87.3" x="307.8" y="4.5"/><text fill="#000000" font-family="sans-serif" font-size="12.6" lengthAdjust="spacing" textLength="66.6" x="318.15" y="24.3967">repositories</text><text fill="#000000" font-family="sans-serif" font-size="12.6" lengthAdjust="spacing" textLength="74.7" x="314.1" y="41.1557">:Repositories</text><rect fill="#E3E3E3" height="46.118" rx="2.25" ry="2.25" style="stroke:#181818;stroke-width:0.45;" width="87.3" x="307.8" y="622.4027"/><text fill="#000000" font-family="sans-serif" font-size="12.6" lengthAdjust="spacing" textLength="66.6" x="318.15" y="642.2994">repositories</text><text fill="#000000" font-family="sans-serif" font-size="12.6" lengthAdjust="spacing" textLength="74.7" x="314.1" y="659.0584">:Repositories</text><rect fill="#E3E3E3" height="46.118" rx="2.25" ry="2.25" style="stroke:#181818;stroke-width:0.45;" width="160.2" x="404.1" y="4.5"/><text fill="#000000" font-family="sans-serif" font-size="12.6" lengthAdjust="spacing" textLength="147.6" x="410.4" y="24.3967">propertyFiltersRepository:</text><text fill="#000000" font-family="sans-serif" font-size="12.6" lengthAdjust="spacing" textLength="144.9" x="411.75" y="41.1557">PropertyFiltersRepository</text><rect fill="#E3E3E3" height="46.118" rx="2.25" ry="2.25" style="stroke:#181818;stroke-width:0.45;" width="160.2" x="404.1" y="622.4027"/><text fill="#000000" font-family="sans-serif" font-size="12.6" lengthAdjust="spacing" textLength="147.6" x="410.4" y="642.2994">propertyFiltersRepository:</text><text fill="#000000" font-family="sans-serif" font-size="12.6" lengthAdjust="spacing" textLength="144.9" x="411.75" y="659.0584">PropertyFiltersRepository</text><rect fill="#E3E3E3" height="46.118" rx="2.25" ry="2.25" style="stroke:#181818;stroke-width:0.45;" width="81" x="614.7" y="4.5"/><text fill="#000000" font-family="sans-serif" font-size="12.6" lengthAdjust="spacing" textLength="68.4" x="621" y="24.3967">pairMapper:</text><text fill="#000000" font-family="sans-serif" font-size="12.6" lengthAdjust="spacing" textLength="65.7" x="622.35" y="41.1557">PairMapper</text><rect fill="#E3E3E3" height="46.118" rx="2.25" ry="2.25" style="stroke:#181818;stroke-width:0.45;" width="81" x="614.7" y="622.4027"/><text fill="#000000" font-family="sans-serif" font-size="12.6" lengthAdjust="spacing" textLength="68.4" x="621" y="642.2994">pairMapper:</text><text fill="#000000" font-family="sans-serif" font-size="12.6" lengthAdjust="spacing" textLength="65.7" x="622.35" y="659.0584">PairMapper</text><rect fill="#E3E3E3" height="29.359" rx="2.25" ry="2.25" style="stroke:#181818;stroke-width:0.45;" width="62.1" x="787.5" y="622.4027"/><text fill="#000000" font-family="sans-serif" font-size="12.6" lengthAdjust="spacing" textLength="49.5" x="793.8" y="642.2994">PairDTO</text><rect fill="#E3E3E3" height="29.359" rx="2.25" ry="2.25" style="stroke:#181818;stroke-width:0.45;" width="35.1" x="858.6" y="21.259"/><text fill="#000000" font-family="sans-serif" font-size="12.6" lengthAdjust="spacing" textLength="22.5" x="864.9" y="41.1557">Pair</text><rect fill="#E3E3E3" height="29.359" rx="2.25" ry="2.25" style="stroke:#181818;stroke-width:0.45;" width="35.1" x="858.6" y="622.4027"/><text fill="#000000" font-family="sans-serif" font-size="12.6" lengthAdjust="spacing" textLength="22.5" x="864.9" y="642.2994">Pair</text><rect fill="#FFFFFF" height="495.6609" style="stroke:#181818;stroke-width:0.9;" width="9" x="129.6" y="105.1418"/><rect fill="#FFFFFF" height="28.1619" style="stroke:#181818;stroke-width:0.9;" width="9" x="346.95" y="133.3037"/><rect fill="#FFFFFF" height="383.0133" style="stroke:#181818;stroke-width:0.9;" width="9" x="479.7" y="189.6275"/><rect fill="#FFFFFF" height="177.7447" style="stroke:#181818;stroke-width:0.9;" width="9" x="650.7" y="241.4514"/><rect fill="#FFFFFF" height="27" style="stroke:#181818;stroke-width:0.9;" width="9" x="871.65" y="269.6133"/><rect fill="#FFFFFF" height="27" style="stroke:#181818;stroke-width:0.9;" width="9" x="871.65" y="324.7752"/><path d="M2.7,66.818 L160.2,66.818 L160.2,75.1799 L151.2,84.1799 L2.7,84.1799 L2.7,66.818 " fill="#EEEEEE" style="stroke:#000000;stroke-width:1.35;"/><rect fill="none" height="541.1848" style="stroke:#000000;stroke-width:1.35;" width="909" x="2.7" y="66.818"/><text fill="#000000" font-family="sans-serif" font-size="11.7" font-weight="bold" lengthAdjust="spacing" textLength="117" x="16.2" y="80.3435">Get Price Range List</text><polygon fill="#181818" points="118.8,101.5418,127.8,105.1418,118.8,108.7418,122.4,105.1418" style="stroke:#181818;stroke-width:0.9;"/><line style="stroke:#181818;stroke-width:0.9;stroke-dasharray:2.0,2.0;" x1="0" x2="124.2" y1="105.1418" y2="105.1418"/><text fill="#000000" font-family="sans-serif" font-size="11.7" font-weight="bold" lengthAdjust="spacing" textLength="12.6" x="6.3" y="100.4054">23</text><text fill="#000000" font-family="sans-serif" font-size="11.7" lengthAdjust="spacing" textLength="90" x="22.5" y="100.4054">getPriceRanges()</text><polygon fill="#181818" points="336.15,129.7037,345.15,133.3037,336.15,136.9037,339.75,133.3037" style="stroke:#181818;stroke-width:0.9;"/><line style="stroke:#181818;stroke-width:0.9;" x1="138.6" x2="341.55" y1="133.3037" y2="133.3037"/><text fill="#000000" font-family="sans-serif" font-size="11.7" font-weight="bold" lengthAdjust="spacing" textLength="12.6" x="144.9" y="128.5673">24</text><text fill="#000000" font-family="sans-serif" font-size="11.7" lengthAdjust="spacing" textLength="155.7" x="161.1" y="128.5673">getPropertyFiltersRepository()</text><polygon fill="#181818" points="148.5,157.8656,139.5,161.4656,148.5,165.0656,144.9,161.4656" style="stroke:#181818;stroke-width:0.9;"/><line style="stroke:#181818;stroke-width:0.9;stroke-dasharray:2.0,2.0;" x1="143.1" x2="350.55" y1="161.4656" y2="161.4656"/><text fill="#000000" font-family="sans-serif" font-size="11.7" font-weight="bold" lengthAdjust="spacing" textLength="12.6" x="153.9" y="156.7292">25</text><text fill="#000000" font-family="sans-serif" font-size="11.7" lengthAdjust="spacing" textLength="130.5" x="170.1" y="156.7292">propertyFiltersRepository</text><polygon fill="#181818" points="468.9,186.0275,477.9,189.6275,468.9,193.2275,472.5,189.6275" style="stroke:#181818;stroke-width:0.9;"/><line style="stroke:#181818;stroke-width:0.9;" x1="138.6" x2="474.3" y1="189.6275" y2="189.6275"/><text fill="#000000" font-family="sans-serif" font-size="11.7" font-weight="bold" lengthAdjust="spacing" textLength="12.6" x="144.9" y="184.8911">26</text><text fill="#000000" font-family="sans-serif" font-size="11.7" lengthAdjust="spacing" textLength="90" x="161.1" y="184.8911">getPriceRanges()</text><path d="M395.1,203.1275 L460.8,203.1275 L460.8,211.4895 L451.8,220.4895 L395.1,220.4895 L395.1,203.1275 " fill="#EEEEEE" style="stroke:#000000;stroke-width:1.35;"/><rect fill="none" height="263.1305" style="stroke:#000000;stroke-width:1.35;" width="507.6" x="395.1" y="203.1275"/><text fill="#000000" font-family="sans-serif" font-size="11.7" font-weight="bold" lengthAdjust="spacing" textLength="25.2" x="408.6" y="216.653">loop</text><text fill="#000000" font-family="sans-serif" font-size="9.9" font-weight="bold" lengthAdjust="spacing" textLength="145.8" x="474.3" y="215.6106">[for each pair in priceRanges]</text><polygon fill="#181818" points="639.9,237.8514,648.9,241.4514,639.9,245.0514,643.5,241.4514" style="stroke:#181818;stroke-width:0.9;"/><line style="stroke:#181818;stroke-width:0.9;" x1="488.7" x2="645.3" y1="241.4514" y2="241.4514"/><text fill="#000000" font-family="sans-serif" font-size="11.7" font-weight="bold" lengthAdjust="spacing" textLength="12.6" x="495" y="236.7149">27</text><text fill="#000000" font-family="sans-serif" font-size="11.7" lengthAdjust="spacing" textLength="120.6" x="511.2" y="236.7149">priceRangeToDTO(pair)</text><polygon fill="#181818" points="860.85,266.0133,869.85,269.6133,860.85,273.2133,864.45,269.6133" style="stroke:#181818;stroke-width:0.9;"/><line style="stroke:#181818;stroke-width:0.9;stroke-dasharray:2.0,2.0;" x1="659.7" x2="866.25" y1="269.6133" y2="269.6133"/><text fill="#000000" font-family="sans-serif" font-size="11.7" font-weight="bold" lengthAdjust="spacing" textLength="12.6" x="666" y="264.8769">28</text><text fill="#000000" font-family="sans-serif" font-size="11.7" lengthAdjust="spacing" textLength="72" x="682.2" y="264.8769">left = getLeft()</text><polygon fill="#181818" points="860.85,321.1752,869.85,324.7752,860.85,328.3752,864.45,324.7752" style="stroke:#181818;stroke-width:0.9;"/><line style="stroke:#181818;stroke-width:0.9;stroke-dasharray:2.0,2.0;" x1="659.7" x2="866.25" y1="324.7752" y2="324.7752"/><text fill="#000000" font-family="sans-serif" font-size="11.7" font-weight="bold" lengthAdjust="spacing" textLength="12.6" x="666" y="320.0388">29</text><text fill="#000000" font-family="sans-serif" font-size="11.7" lengthAdjust="spacing" textLength="87.3" x="682.2" y="320.0388">right = getRight()</text><polygon fill="#181818" points="776.7,376.3371,785.7,379.9371,776.7,383.5371,780.3,379.9371" style="stroke:#181818;stroke-width:0.9;"/><line style="stroke:#181818;stroke-width:0.9;stroke-dasharray:2.0,2.0;" x1="659.7" x2="782.1" y1="379.9371" y2="379.9371"/><text fill="#000000" font-family="sans-serif" font-size="11.7" font-weight="bold" lengthAdjust="spacing" textLength="12.6" x="666" y="375.2007">30</text><text fill="#000000" font-family="sans-serif" font-size="11.7" lengthAdjust="spacing" textLength="81" x="682.2" y="375.2007">create(left,right)</text><rect fill="#E3E3E3" height="29.359" rx="2.25" ry="2.25" style="stroke:#181818;stroke-width:0.45;" width="62.1" x="787.5" y="358.9752"/><text fill="#000000" font-family="sans-serif" font-size="12.6" lengthAdjust="spacing" textLength="49.5" x="793.8" y="378.8719">PairDTO</text><polygon fill="#181818" points="498.6,415.5961,489.6,419.1961,498.6,422.7961,495,419.1961" style="stroke:#181818;stroke-width:0.9;"/><line style="stroke:#181818;stroke-width:0.9;stroke-dasharray:2.0,2.0;" x1="493.2" x2="654.3" y1="419.1961" y2="419.1961"/><text fill="#000000" font-family="sans-serif" font-size="11.7" font-weight="bold" lengthAdjust="spacing" textLength="12.6" x="504" y="414.4597">31</text><text fill="#000000" font-family="sans-serif" font-size="11.7" lengthAdjust="spacing" textLength="42.3" x="520.2" y="414.4597">pairDTO</text><line style="stroke:#181818;stroke-width:0.9;" x1="488.7" x2="526.5" y1="447.358" y2="447.358"/><line style="stroke:#181818;stroke-width:0.9;" x1="526.5" x2="526.5" y1="447.358" y2="459.058"/><line style="stroke:#181818;stroke-width:0.9;" x1="489.6" x2="526.5" y1="459.058" y2="459.058"/><polygon fill="#181818" points="498.6,455.458,489.6,459.058,498.6,462.658,495,459.058" style="stroke:#181818;stroke-width:0.9;"/><text fill="#000000" font-family="sans-serif" font-size="11.7" font-weight="bold" lengthAdjust="spacing" textLength="12.6" x="495" y="442.6216">32</text><text fill="#000000" font-family="sans-serif" font-size="11.7" lengthAdjust="spacing" textLength="133.2" x="511.2" y="442.6216">pairDTOList.add(pairDTO)</text><polygon fill="#181818" points="776.7,489.9199,785.7,493.5199,776.7,497.1199,780.3,493.5199" style="stroke:#181818;stroke-width:0.9;"/><line style="stroke:#181818;stroke-width:0.9;stroke-dasharray:2.0,2.0;" x1="488.7" x2="782.1" y1="493.5199" y2="493.5199"/><text fill="#000000" font-family="sans-serif" font-size="11.7" font-weight="bold" lengthAdjust="spacing" textLength="12.6" x="495" y="488.7835">33</text><text fill="#000000" font-family="sans-serif" font-size="11.7" lengthAdjust="spacing" textLength="261" x="511.2" y="488.7835">create(getPriceRangeMax(), Integer.MAX_VALUE)</text><rect fill="#E3E3E3" height="29.359" rx="2.25" ry="2.25" style="stroke:#181818;stroke-width:0.45;" width="62.1" x="787.5" y="472.558"/><text fill="#000000" font-family="sans-serif" font-size="12.6" lengthAdjust="spacing" textLength="49.5" x="793.8" y="492.4547">PairDTO</text><line style="stroke:#181818;stroke-width:0.9;" x1="488.7" x2="526.5" y1="532.7789" y2="532.7789"/><line style="stroke:#181818;stroke-width:0.9;" x1="526.5" x2="526.5" y1="532.7789" y2="544.4789"/><line style="stroke:#181818;stroke-width:0.9;" x1="489.6" x2="526.5" y1="544.4789" y2="544.4789"/><polygon fill="#181818" points="498.6,540.8789,489.6,544.4789,498.6,548.0789,495,544.4789" style="stroke:#181818;stroke-width:0.9;"/><text fill="#000000" font-family="sans-serif" font-size="11.7" font-weight="bold" lengthAdjust="spacing" textLength="12.6" x="495" y="528.0425">34</text><text fill="#000000" font-family="sans-serif" font-size="11.7" lengthAdjust="spacing" textLength="133.2" x="511.2" y="528.0425">pairDTOList.add(pairDTO)</text><polygon fill="#181818" points="148.5,569.0408,139.5,572.6408,148.5,576.2408,144.9,572.6408" style="stroke:#181818;stroke-width:0.9;"/><line style="stroke:#181818;stroke-width:0.9;stroke-dasharray:2.0,2.0;" x1="143.1" x2="483.3" y1="572.6408" y2="572.6408"/><text fill="#000000" font-family="sans-serif" font-size="11.7" font-weight="bold" lengthAdjust="spacing" textLength="12.6" x="153.9" y="567.9044">35</text><text fill="#000000" font-family="sans-serif" font-size="11.7" lengthAdjust="spacing" textLength="61.2" x="170.1" y="567.9044">pairDTOList</text><polygon fill="#181818" points="9.9,597.2027,0.9,600.8027,9.9,604.4027,6.3,600.8027" style="stroke:#181818;stroke-width:0.9;"/><line style="stroke:#181818;stroke-width:0.9;stroke-dasharray:2.0,2.0;" x1="4.5" x2="133.2" y1="600.8027" y2="600.8027"/><text fill="#000000" font-family="sans-serif" font-size="11.7" font-weight="bold" lengthAdjust="spacing" textLength="12.6" x="15.3" y="596.0663">36</text><text fill="#000000" font-family="sans-serif" font-size="11.7" lengthAdjust="spacing" textLength="77.4" x="31.5" y="596.0663">priceRangeList</text><!--SRC=[lLJ1Rjim3BtxAuYUdABkORi5Mm6ZNOO23cgusT13WK6p6KUe8mcKiYr_Fqcn7Jjsd1w6wIIRxpsIZvBq6nUA4Tl2LWgPRqXk4GpjCD1jHB7yZPNuRFOL0c5kc2YhBa1lM25_Sr72cbKQWo1WEoF5RliJ2Jvy308BCppdYWa3L_EqOZa-KO5qBuKXMLL8Ly0qtA-ov0IRePAQ6qaSjSUqF_RFt9LXy_Gfr66yYg50ciIhFaEHL4Xcl-2LGTB73FDNaPwB7RGMsOaKuxHaob8Sj_quWEF7R1cdVOB3FAoUMe3T3m5jD2X9xXHyHGCfyHmXiwD0IBWs0TGhYkwyaJ274es7UPGEPoscNImt_1SpUB1-6FT2Lj2PrWYUCMHItfi-ZBlbfJj5dvt6a5xWfGHj_OliNNvKKYfOImAhl04tJU32bjIIfdgqXs7OtIABxkh9- -OQfPMqemvTXadVwZCprAqbdN5kRxKhN1lux9fCx2wy93jjvoXW92dnSbDdpTpsVwIrnbrVszmveIM5hkyRNyVi0jSV0dMuSHVh6BVTIfmgkTjtoueYhBz7ga1HdD4QRwbtK9ViJpYxWKTXi4IwNSOlFxx7oRSlitzMNbD9SmEFn63Qfiw9_nH5nnlSbDvxc3f4_zfOKy2_Pty1]--></g></svg>