<?xml version="1.0" encoding="us-ascii" standalone="no"?><svg xmlns="http://www.w3.org/2000/svg" xmlns:xlink="http://www.w3.org/1999/xlink" contentStyleType="text/css" height="2284px" preserveAspectRatio="none" style="width:2100px;height:2284px;background:#FFFFFF;" version="1.1" viewBox="0 0 2100 2284" width="2100px" zoomAndPan="magnify"><defs><filter height="300%" id="fazucncz4j4lq" width="300%" x="-1" y="-1"><feGaussianBlur result="blurOut" stdDeviation="2.0"/><feColorMatrix in="blurOut" result="blurOut2" type="matrix" values="0 0 0 0 0 0 0 0 0 0 0 0 0 0 0 0 0 0 .4 0"/><feOffset dx="4.0" dy="4.0" in="blurOut2" result="blurOut3"/><feBlend in="SourceGraphic" in2="blurOut3" mode="normal"/></filter></defs><g><!--class ApplicationSession--><g id="elem_ApplicationSession"><rect codeLine="10" fill="#F1F1F1" filter="url(#fazucncz4j4lq)" height="85.2422" id="ApplicationSession" rx="2.5" ry="2.5" style="stroke:#181818;stroke-width:0.5;" width="151" x="1762" y="487"/><ellipse cx="1777" cy="503" fill="#ADD1B2" rx="11" ry="11" style="stroke:#181818;stroke-width:1.0;"/><path d="M1779.7656,498.875 Q1779.9219,498.6563 1780.1094,498.5469 Q1780.2969,498.4375 1780.5156,498.4375 Q1780.8906,498.4375 1781.125,498.7031 Q1781.3594,498.9531 1781.3594,499.5625 L1781.3594,501.0156 Q1781.3594,501.625 1781.125,501.8906 Q1780.8906,502.1563 1780.5156,502.1563 Q1780.1719,502.1563 1779.9688,501.9531 Q1779.7656,501.7656 1779.6563,501.25 Q1779.6094,500.8906 1779.4219,500.7031 Q1779.0938,500.3281 1778.4844,500.1094 Q1777.875,499.8906 1777.25,499.8906 Q1776.4844,499.8906 1775.8438,500.2188 Q1775.2188,500.5469 1774.7188,501.2969 Q1774.2344,502.0469 1774.2344,503.0781 L1774.2344,504.1719 Q1774.2344,505.4063 1775.125,506.2344 Q1776.0156,507.0469 1777.6094,507.0469 Q1778.5469,507.0469 1779.2031,506.7969 Q1779.5938,506.6406 1780.0156,506.2031 Q1780.2813,505.9375 1780.4219,505.8594 Q1780.5781,505.7813 1780.7813,505.7813 Q1781.1094,505.7813 1781.3594,506.0469 Q1781.625,506.2969 1781.625,506.6406 Q1781.625,506.9844 1781.2813,507.3906 Q1780.7813,507.9688 1779.9844,508.2969 Q1778.9063,508.75 1777.6094,508.75 Q1776.0938,508.75 1774.8906,508.125 Q1773.9063,507.625 1773.2188,506.5625 Q1772.5313,505.4844 1772.5313,504.2031 L1772.5313,503.0469 Q1772.5313,501.7188 1773.1406,500.5781 Q1773.7656,499.4219 1774.8594,498.8125 Q1775.9531,498.1875 1777.1875,498.1875 Q1777.9219,498.1875 1778.5625,498.3594 Q1779.2188,498.5156 1779.7656,498.875 Z " fill="#000000"/><text fill="#000000" font-family="sans-serif" font-size="14" lengthAdjust="spacing" textLength="119" x="1791" y="508.7969">ApplicationSession</text><line style="stroke:#181818;stroke-width:0.5;" x1="1763" x2="1912" y1="519" y2="519"/><line style="stroke:#181818;stroke-width:0.5;" x1="1763" x2="1912" y1="527" y2="527"/><text fill="#000000" font-family="sans-serif" font-size="14" lengthAdjust="spacing" textLength="128" x="1768" y="546.1074">+static getInstance()</text><text fill="#000000" font-family="sans-serif" font-size="14" lengthAdjust="spacing" textLength="136" x="1768" y="564.7285">+getCurrentSession()</text></g><!--class Employee--><g id="elem_Employee"><rect codeLine="15" fill="#F1F1F1" filter="url(#fazucncz4j4lq)" height="48" id="Employee" rx="2.5" ry="2.5" style="stroke:#181818;stroke-width:0.5;" width="94" x="514.5" y="1034"/><ellipse cx="529.5" cy="1050" fill="#ADD1B2" rx="11" ry="11" style="stroke:#181818;stroke-width:1.0;"/><path d="M532.2656,1045.875 Q532.4219,1045.6563 532.6094,1045.5469 Q532.7969,1045.4375 533.0156,1045.4375 Q533.3906,1045.4375 533.625,1045.7031 Q533.8594,1045.9531 533.8594,1046.5625 L533.8594,1048.0156 Q533.8594,1048.625 533.625,1048.8906 Q533.3906,1049.1563 533.0156,1049.1563 Q532.6719,1049.1563 532.4688,1048.9531 Q532.2656,1048.7656 532.1563,1048.25 Q532.1094,1047.8906 531.9219,1047.7031 Q531.5938,1047.3281 530.9844,1047.1094 Q530.375,1046.8906 529.75,1046.8906 Q528.9844,1046.8906 528.3438,1047.2188 Q527.7188,1047.5469 527.2188,1048.2969 Q526.7344,1049.0469 526.7344,1050.0781 L526.7344,1051.1719 Q526.7344,1052.4063 527.625,1053.2344 Q528.5156,1054.0469 530.1094,1054.0469 Q531.0469,1054.0469 531.7031,1053.7969 Q532.0938,1053.6406 532.5156,1053.2031 Q532.7813,1052.9375 532.9219,1052.8594 Q533.0781,1052.7813 533.2813,1052.7813 Q533.6094,1052.7813 533.8594,1053.0469 Q534.125,1053.2969 534.125,1053.6406 Q534.125,1053.9844 533.7813,1054.3906 Q533.2813,1054.9688 532.4844,1055.2969 Q531.4063,1055.75 530.1094,1055.75 Q528.5938,1055.75 527.3906,1055.125 Q526.4063,1054.625 525.7188,1053.5625 Q525.0313,1052.4844 525.0313,1051.2031 L525.0313,1050.0469 Q525.0313,1048.7188 525.6406,1047.5781 Q526.2656,1046.4219 527.3594,1045.8125 Q528.4531,1045.1875 529.6875,1045.1875 Q530.4219,1045.1875 531.0625,1045.3594 Q531.7188,1045.5156 532.2656,1045.875 Z " fill="#000000"/><text fill="#000000" font-family="sans-serif" font-size="14" lengthAdjust="spacing" textLength="62" x="543.5" y="1055.7969">Employee</text><line style="stroke:#181818;stroke-width:0.5;" x1="515.5" x2="607.5" y1="1066" y2="1066"/><line style="stroke:#181818;stroke-width:0.5;" x1="515.5" x2="607.5" y1="1074" y2="1074"/></g><!--class UserSession--><g id="elem_UserSession"><rect codeLine="16" fill="#F1F1F1" filter="url(#fazucncz4j4lq)" height="66.6211" id="UserSession" rx="2.5" ry="2.5" style="stroke:#181818;stroke-width:0.5;" width="113" x="1975" y="669"/><ellipse cx="1990.9" cy="685" fill="#ADD1B2" rx="11" ry="11" style="stroke:#181818;stroke-width:1.0;"/><path d="M1993.6656,680.875 Q1993.8219,680.6563 1994.0094,680.5469 Q1994.1969,680.4375 1994.4156,680.4375 Q1994.7906,680.4375 1995.025,680.7031 Q1995.2594,680.9531 1995.2594,681.5625 L1995.2594,683.0156 Q1995.2594,683.625 1995.025,683.8906 Q1994.7906,684.1563 1994.4156,684.1563 Q1994.0719,684.1563 1993.8688,683.9531 Q1993.6656,683.7656 1993.5563,683.25 Q1993.5094,682.8906 1993.3219,682.7031 Q1992.9938,682.3281 1992.3844,682.1094 Q1991.775,681.8906 1991.15,681.8906 Q1990.3844,681.8906 1989.7438,682.2188 Q1989.1188,682.5469 1988.6188,683.2969 Q1988.1344,684.0469 1988.1344,685.0781 L1988.1344,686.1719 Q1988.1344,687.4063 1989.025,688.2344 Q1989.9156,689.0469 1991.5094,689.0469 Q1992.4469,689.0469 1993.1031,688.7969 Q1993.4938,688.6406 1993.9156,688.2031 Q1994.1813,687.9375 1994.3219,687.8594 Q1994.4781,687.7813 1994.6813,687.7813 Q1995.0094,687.7813 1995.2594,688.0469 Q1995.525,688.2969 1995.525,688.6406 Q1995.525,688.9844 1995.1813,689.3906 Q1994.6813,689.9688 1993.8844,690.2969 Q1992.8063,690.75 1991.5094,690.75 Q1989.9938,690.75 1988.7906,690.125 Q1987.8063,689.625 1987.1188,688.5625 Q1986.4313,687.4844 1986.4313,686.2031 L1986.4313,685.0469 Q1986.4313,683.7188 1987.0406,682.5781 Q1987.6656,681.4219 1988.7594,680.8125 Q1989.8531,680.1875 1991.0875,680.1875 Q1991.8219,680.1875 1992.4625,680.3594 Q1993.1188,680.5156 1993.6656,680.875 Z " fill="#000000"/><text fill="#000000" font-family="sans-serif" font-size="14" lengthAdjust="spacing" textLength="79" x="2005.1" y="690.7969">UserSession</text><line style="stroke:#181818;stroke-width:0.5;" x1="1976" x2="2087" y1="701" y2="701"/><line style="stroke:#181818;stroke-width:0.5;" x1="1976" x2="2087" y1="709" y2="709"/><text fill="#000000" font-family="sans-serif" font-size="14" lengthAdjust="spacing" textLength="101" x="1981" y="728.1074">+getUserEmail()</text></g><!--class Person--><g id="elem_Person"><rect codeLine="21" fill="#F1F1F1" filter="url(#fazucncz4j4lq)" height="141.1055" id="Person" rx="2.5" ry="2.5" style="stroke:#181818;stroke-width:0.5;" width="169" x="787" y="833"/><ellipse cx="844.75" cy="849" fill="#ADD1B2" rx="11" ry="11" style="stroke:#181818;stroke-width:1.0;"/><path d="M847.5156,844.875 Q847.6719,844.6563 847.8594,844.5469 Q848.0469,844.4375 848.2656,844.4375 Q848.6406,844.4375 848.875,844.7031 Q849.1094,844.9531 849.1094,845.5625 L849.1094,847.0156 Q849.1094,847.625 848.875,847.8906 Q848.6406,848.1563 848.2656,848.1563 Q847.9219,848.1563 847.7188,847.9531 Q847.5156,847.7656 847.4063,847.25 Q847.3594,846.8906 847.1719,846.7031 Q846.8438,846.3281 846.2344,846.1094 Q845.625,845.8906 845,845.8906 Q844.2344,845.8906 843.5938,846.2188 Q842.9688,846.5469 842.4688,847.2969 Q841.9844,848.0469 841.9844,849.0781 L841.9844,850.1719 Q841.9844,851.4063 842.875,852.2344 Q843.7656,853.0469 845.3594,853.0469 Q846.2969,853.0469 846.9531,852.7969 Q847.3438,852.6406 847.7656,852.2031 Q848.0313,851.9375 848.1719,851.8594 Q848.3281,851.7813 848.5313,851.7813 Q848.8594,851.7813 849.1094,852.0469 Q849.375,852.2969 849.375,852.6406 Q849.375,852.9844 849.0313,853.3906 Q848.5313,853.9688 847.7344,854.2969 Q846.6563,854.75 845.3594,854.75 Q843.8438,854.75 842.6406,854.125 Q841.6563,853.625 840.9688,852.5625 Q840.2813,851.4844 840.2813,850.2031 L840.2813,849.0469 Q840.2813,847.7188 840.8906,846.5781 Q841.5156,845.4219 842.6094,844.8125 Q843.7031,844.1875 844.9375,844.1875 Q845.6719,844.1875 846.3125,844.3594 Q846.9688,844.5156 847.5156,844.875 Z " fill="#000000"/><text fill="#000000" font-family="sans-serif" font-size="14" lengthAdjust="spacing" textLength="45" x="865.25" y="854.7969">Person</text><line style="stroke:#181818;stroke-width:0.5;" x1="788" x2="955" y1="865" y2="865"/><text fill="#000000" font-family="sans-serif" font-size="14" lengthAdjust="spacing" textLength="81" x="793" y="884.1074">-String name</text><text fill="#000000" font-family="sans-serif" font-size="14" lengthAdjust="spacing" textLength="157" x="793" y="902.7285">-Integer passportNumber</text><text fill="#000000" font-family="sans-serif" font-size="14" lengthAdjust="spacing" textLength="113" x="793" y="921.3496">-String taxNumber</text><text fill="#000000" font-family="sans-serif" font-size="14" lengthAdjust="spacing" textLength="79" x="793" y="939.9707">-String email</text><text fill="#000000" font-family="sans-serif" font-size="14" lengthAdjust="spacing" textLength="142" x="793" y="958.5918">-Integer phoneNumber</text><line style="stroke:#181818;stroke-width:0.5;" x1="788" x2="955" y1="966.1055" y2="966.1055"/></g><!--class Address--><g id="elem_Address"><rect codeLine="28" fill="#F1F1F1" filter="url(#fazucncz4j4lq)" height="141.1055" id="Address" rx="2.5" ry="2.5" style="stroke:#181818;stroke-width:0.5;" width="268" x="737.5" y="632"/><ellipse cx="841.25" cy="648" fill="#ADD1B2" rx="11" ry="11" style="stroke:#181818;stroke-width:1.0;"/><path d="M844.0156,643.875 Q844.1719,643.6563 844.3594,643.5469 Q844.5469,643.4375 844.7656,643.4375 Q845.1406,643.4375 845.375,643.7031 Q845.6094,643.9531 845.6094,644.5625 L845.6094,646.0156 Q845.6094,646.625 845.375,646.8906 Q845.1406,647.1563 844.7656,647.1563 Q844.4219,647.1563 844.2188,646.9531 Q844.0156,646.7656 843.9063,646.25 Q843.8594,645.8906 843.6719,645.7031 Q843.3438,645.3281 842.7344,645.1094 Q842.125,644.8906 841.5,644.8906 Q840.7344,644.8906 840.0938,645.2188 Q839.4688,645.5469 838.9688,646.2969 Q838.4844,647.0469 838.4844,648.0781 L838.4844,649.1719 Q838.4844,650.4063 839.375,651.2344 Q840.2656,652.0469 841.8594,652.0469 Q842.7969,652.0469 843.4531,651.7969 Q843.8438,651.6406 844.2656,651.2031 Q844.5313,650.9375 844.6719,650.8594 Q844.8281,650.7813 845.0313,650.7813 Q845.3594,650.7813 845.6094,651.0469 Q845.875,651.2969 845.875,651.6406 Q845.875,651.9844 845.5313,652.3906 Q845.0313,652.9688 844.2344,653.2969 Q843.1563,653.75 841.8594,653.75 Q840.3438,653.75 839.1406,653.125 Q838.1563,652.625 837.4688,651.5625 Q836.7813,650.4844 836.7813,649.2031 L836.7813,648.0469 Q836.7813,646.7188 837.3906,645.5781 Q838.0156,644.4219 839.1094,643.8125 Q840.2031,643.1875 841.4375,643.1875 Q842.1719,643.1875 842.8125,643.3594 Q843.4688,643.5156 844.0156,643.875 Z " fill="#000000"/><text fill="#000000" font-family="sans-serif" font-size="14" lengthAdjust="spacing" textLength="52" x="861.75" y="653.7969">Address</text><line style="stroke:#181818;stroke-width:0.5;" x1="738.5" x2="1004.5" y1="664" y2="664"/><text fill="#000000" font-family="sans-serif" font-size="14" lengthAdjust="spacing" textLength="134" x="743.5" y="683.1074">-String streetAddress</text><text fill="#000000" font-family="sans-serif" font-size="14" lengthAdjust="spacing" textLength="77" x="743.5" y="701.7285">-String state</text><text fill="#000000" font-family="sans-serif" font-size="14" lengthAdjust="spacing" textLength="104" x="743.5" y="720.3496">-Integer zipCode</text><text fill="#000000" font-family="sans-serif" font-size="14" lengthAdjust="spacing" textLength="67" x="743.5" y="738.9707">-String city</text><line style="stroke:#181818;stroke-width:0.5;" x1="738.5" x2="1004.5" y1="746.4844" y2="746.4844"/><text fill="#000000" font-family="sans-serif" font-size="14" lengthAdjust="spacing" textLength="256" x="743.5" y="765.5918">+Address(streetAddress, state. zipCode)</text></g><!--class Property--><g id="elem_Property"><rect codeLine="35" fill="#F1F1F1" filter="url(#fazucncz4j4lq)" height="141.1055" id="Property" rx="2.5" ry="2.5" style="stroke:#181818;stroke-width:0.5;" width="402" x="506.5" y="1306"/><ellipse cx="676.25" cy="1322" fill="#ADD1B2" rx="11" ry="11" style="stroke:#181818;stroke-width:1.0;"/><path d="M679.0156,1317.875 Q679.1719,1317.6563 679.3594,1317.5469 Q679.5469,1317.4375 679.7656,1317.4375 Q680.1406,1317.4375 680.375,1317.7031 Q680.6094,1317.9531 680.6094,1318.5625 L680.6094,1320.0156 Q680.6094,1320.625 680.375,1320.8906 Q680.1406,1321.1563 679.7656,1321.1563 Q679.4219,1321.1563 679.2188,1320.9531 Q679.0156,1320.7656 678.9063,1320.25 Q678.8594,1319.8906 678.6719,1319.7031 Q678.3438,1319.3281 677.7344,1319.1094 Q677.125,1318.8906 676.5,1318.8906 Q675.7344,1318.8906 675.0938,1319.2188 Q674.4688,1319.5469 673.9688,1320.2969 Q673.4844,1321.0469 673.4844,1322.0781 L673.4844,1323.1719 Q673.4844,1324.4063 674.375,1325.2344 Q675.2656,1326.0469 676.8594,1326.0469 Q677.7969,1326.0469 678.4531,1325.7969 Q678.8438,1325.6406 679.2656,1325.2031 Q679.5313,1324.9375 679.6719,1324.8594 Q679.8281,1324.7813 680.0313,1324.7813 Q680.3594,1324.7813 680.6094,1325.0469 Q680.875,1325.2969 680.875,1325.6406 Q680.875,1325.9844 680.5313,1326.3906 Q680.0313,1326.9688 679.2344,1327.2969 Q678.1563,1327.75 676.8594,1327.75 Q675.3438,1327.75 674.1406,1327.125 Q673.1563,1326.625 672.4688,1325.5625 Q671.7813,1324.4844 671.7813,1323.2031 L671.7813,1322.0469 Q671.7813,1320.7188 672.3906,1319.5781 Q673.0156,1318.4219 674.1094,1317.8125 Q675.2031,1317.1875 676.4375,1317.1875 Q677.1719,1317.1875 677.8125,1317.3594 Q678.4688,1317.5156 679.0156,1317.875 Z " fill="#000000"/><text fill="#000000" font-family="sans-serif" font-size="14" lengthAdjust="spacing" textLength="54" x="696.75" y="1327.7969">Property</text><line style="stroke:#181818;stroke-width:0.5;" x1="507.5" x2="907.5" y1="1338" y2="1338"/><text fill="#000000" font-family="sans-serif" font-size="14" lengthAdjust="spacing" textLength="72" x="512.5" y="1357.1074">-Float price</text><text fill="#000000" font-family="sans-serif" font-size="14" lengthAdjust="spacing" textLength="70" x="512.5" y="1375.7285">-Float area</text><text fill="#000000" font-family="sans-serif" font-size="14" lengthAdjust="spacing" textLength="154" x="512.5" y="1394.3496">-Float distanceToCentre</text><text fill="#000000" font-family="sans-serif" font-size="14" lengthAdjust="spacing" textLength="164" x="512.5" y="1412.9707">-List&lt;String&gt; photographs</text><line style="stroke:#181818;stroke-width:0.5;" x1="507.5" x2="907.5" y1="1420.4844" y2="1420.4844"/><text fill="#000000" font-family="sans-serif" font-size="14" lengthAdjust="spacing" textLength="390" x="512.5" y="1439.5918">+sendAnnouncementRequest(businessType, property, agent)</text></g><!--class Inhabitable--><g id="elem_Inhabitable"><rect codeLine="42" fill="#F1F1F1" filter="url(#fazucncz4j4lq)" height="122.4844" id="Inhabitable" rx="2.5" ry="2.5" style="stroke:#181818;stroke-width:0.5;" width="201" x="792" y="1894"/><ellipse cx="853.75" cy="1910" fill="#ADD1B2" rx="11" ry="11" style="stroke:#181818;stroke-width:1.0;"/><path d="M856.5156,1905.875 Q856.6719,1905.6563 856.8594,1905.5469 Q857.0469,1905.4375 857.2656,1905.4375 Q857.6406,1905.4375 857.875,1905.7031 Q858.1094,1905.9531 858.1094,1906.5625 L858.1094,1908.0156 Q858.1094,1908.625 857.875,1908.8906 Q857.6406,1909.1563 857.2656,1909.1563 Q856.9219,1909.1563 856.7188,1908.9531 Q856.5156,1908.7656 856.4063,1908.25 Q856.3594,1907.8906 856.1719,1907.7031 Q855.8438,1907.3281 855.2344,1907.1094 Q854.625,1906.8906 854,1906.8906 Q853.2344,1906.8906 852.5938,1907.2188 Q851.9688,1907.5469 851.4688,1908.2969 Q850.9844,1909.0469 850.9844,1910.0781 L850.9844,1911.1719 Q850.9844,1912.4063 851.875,1913.2344 Q852.7656,1914.0469 854.3594,1914.0469 Q855.2969,1914.0469 855.9531,1913.7969 Q856.3438,1913.6406 856.7656,1913.2031 Q857.0313,1912.9375 857.1719,1912.8594 Q857.3281,1912.7813 857.5313,1912.7813 Q857.8594,1912.7813 858.1094,1913.0469 Q858.375,1913.2969 858.375,1913.6406 Q858.375,1913.9844 858.0313,1914.3906 Q857.5313,1914.9688 856.7344,1915.2969 Q855.6563,1915.75 854.3594,1915.75 Q852.8438,1915.75 851.6406,1915.125 Q850.6563,1914.625 849.9688,1913.5625 Q849.2813,1912.4844 849.2813,1911.2031 L849.2813,1910.0469 Q849.2813,1908.7188 849.8906,1907.5781 Q850.5156,1906.4219 851.6094,1905.8125 Q852.7031,1905.1875 853.9375,1905.1875 Q854.6719,1905.1875 855.3125,1905.3594 Q855.9688,1905.5156 856.5156,1905.875 Z " fill="#000000"/><text fill="#000000" font-family="sans-serif" font-size="14" lengthAdjust="spacing" textLength="69" x="874.25" y="1915.7969">Inhabitable</text><line style="stroke:#181818;stroke-width:0.5;" x1="793" x2="992" y1="1926" y2="1926"/><text fill="#000000" font-family="sans-serif" font-size="14" lengthAdjust="spacing" textLength="158" x="798" y="1945.1074">-Integer bedroomNumber</text><text fill="#000000" font-family="sans-serif" font-size="14" lengthAdjust="spacing" textLength="162" x="798" y="1963.7285">-Integer bathroomNumber</text><text fill="#000000" font-family="sans-serif" font-size="14" lengthAdjust="spacing" textLength="189" x="798" y="1982.3496">-Integer parkingSpaceNumber</text><text fill="#000000" font-family="sans-serif" font-size="14" lengthAdjust="spacing" textLength="172" x="798" y="2000.9707">-List&lt;String&gt; equipmentList</text><line style="stroke:#181818;stroke-width:0.5;" x1="793" x2="992" y1="2008.4844" y2="2008.4844"/></g><!--class Land--><g id="elem_Land"><rect codeLine="48" fill="#F1F1F1" filter="url(#fazucncz4j4lq)" height="85.2422" id="Land" rx="2.5" ry="2.5" style="stroke:#181818;stroke-width:0.5;" width="295" x="462" y="1912.5"/><ellipse cx="589.25" cy="1928.5" fill="#ADD1B2" rx="11" ry="11" style="stroke:#181818;stroke-width:1.0;"/><path d="M592.0156,1924.375 Q592.1719,1924.1563 592.3594,1924.0469 Q592.5469,1923.9375 592.7656,1923.9375 Q593.1406,1923.9375 593.375,1924.2031 Q593.6094,1924.4531 593.6094,1925.0625 L593.6094,1926.5156 Q593.6094,1927.125 593.375,1927.3906 Q593.1406,1927.6563 592.7656,1927.6563 Q592.4219,1927.6563 592.2188,1927.4531 Q592.0156,1927.2656 591.9063,1926.75 Q591.8594,1926.3906 591.6719,1926.2031 Q591.3438,1925.8281 590.7344,1925.6094 Q590.125,1925.3906 589.5,1925.3906 Q588.7344,1925.3906 588.0938,1925.7188 Q587.4688,1926.0469 586.9688,1926.7969 Q586.4844,1927.5469 586.4844,1928.5781 L586.4844,1929.6719 Q586.4844,1930.9063 587.375,1931.7344 Q588.2656,1932.5469 589.8594,1932.5469 Q590.7969,1932.5469 591.4531,1932.2969 Q591.8438,1932.1406 592.2656,1931.7031 Q592.5313,1931.4375 592.6719,1931.3594 Q592.8281,1931.2813 593.0313,1931.2813 Q593.3594,1931.2813 593.6094,1931.5469 Q593.875,1931.7969 593.875,1932.1406 Q593.875,1932.4844 593.5313,1932.8906 Q593.0313,1933.4688 592.2344,1933.7969 Q591.1563,1934.25 589.8594,1934.25 Q588.3438,1934.25 587.1406,1933.625 Q586.1563,1933.125 585.4688,1932.0625 Q584.7813,1930.9844 584.7813,1929.7031 L584.7813,1928.5469 Q584.7813,1927.2188 585.3906,1926.0781 Q586.0156,1924.9219 587.1094,1924.3125 Q588.2031,1923.6875 589.4375,1923.6875 Q590.1719,1923.6875 590.8125,1923.8594 Q591.4688,1924.0156 592.0156,1924.375 Z " fill="#000000"/><text fill="#000000" font-family="sans-serif" font-size="14" lengthAdjust="spacing" textLength="32" x="609.75" y="1934.2969">Land</text><line style="stroke:#181818;stroke-width:0.5;" x1="463" x2="756" y1="1944.5" y2="1944.5"/><line style="stroke:#181818;stroke-width:0.5;" x1="463" x2="756" y1="1952.5" y2="1952.5"/><text fill="#000000" font-family="sans-serif" font-size="14" lengthAdjust="spacing" textLength="176" x="468" y="1971.6074">+Land(price, area, address,</text><text fill="#000000" font-family="sans-serif" font-size="14" lengthAdjust="spacing" textLength="283" x="468" y="1990.2285">distanceToCentre, photographs, client,store)</text></g><!--class Apartment--><g id="elem_Apartment"><rect codeLine="51" fill="#F1F1F1" filter="url(#fazucncz4j4lq)" height="122.4844" id="Apartment" rx="2.5" ry="2.5" style="stroke:#181818;stroke-width:0.5;" width="330" x="545.5" y="2113.5"/><ellipse cx="673.75" cy="2129.5" fill="#ADD1B2" rx="11" ry="11" style="stroke:#181818;stroke-width:1.0;"/><path d="M676.5156,2125.375 Q676.6719,2125.1563 676.8594,2125.0469 Q677.0469,2124.9375 677.2656,2124.9375 Q677.6406,2124.9375 677.875,2125.2031 Q678.1094,2125.4531 678.1094,2126.0625 L678.1094,2127.5156 Q678.1094,2128.125 677.875,2128.3906 Q677.6406,2128.6563 677.2656,2128.6563 Q676.9219,2128.6563 676.7188,2128.4531 Q676.5156,2128.2656 676.4063,2127.75 Q676.3594,2127.3906 676.1719,2127.2031 Q675.8438,2126.8281 675.2344,2126.6094 Q674.625,2126.3906 674,2126.3906 Q673.2344,2126.3906 672.5938,2126.7188 Q671.9688,2127.0469 671.4688,2127.7969 Q670.9844,2128.5469 670.9844,2129.5781 L670.9844,2130.6719 Q670.9844,2131.9063 671.875,2132.7344 Q672.7656,2133.5469 674.3594,2133.5469 Q675.2969,2133.5469 675.9531,2133.2969 Q676.3438,2133.1406 676.7656,2132.7031 Q677.0313,2132.4375 677.1719,2132.3594 Q677.3281,2132.2813 677.5313,2132.2813 Q677.8594,2132.2813 678.1094,2132.5469 Q678.375,2132.7969 678.375,2133.1406 Q678.375,2133.4844 678.0313,2133.8906 Q677.5313,2134.4688 676.7344,2134.7969 Q675.6563,2135.25 674.3594,2135.25 Q672.8438,2135.25 671.6406,2134.625 Q670.6563,2134.125 669.9688,2133.0625 Q669.2813,2131.9844 669.2813,2130.7031 L669.2813,2129.5469 Q669.2813,2128.2188 669.8906,2127.0781 Q670.5156,2125.9219 671.6094,2125.3125 Q672.7031,2124.6875 673.9375,2124.6875 Q674.6719,2124.6875 675.3125,2124.8594 Q675.9688,2125.0156 676.5156,2125.375 Z " fill="#000000"/><text fill="#000000" font-family="sans-serif" font-size="14" lengthAdjust="spacing" textLength="65" x="694.25" y="2135.2969">Apartment</text><line style="stroke:#181818;stroke-width:0.5;" x1="546.5" x2="874.5" y1="2145.5" y2="2145.5"/><line style="stroke:#181818;stroke-width:0.5;" x1="546.5" x2="874.5" y1="2153.5" y2="2153.5"/><text fill="#000000" font-family="sans-serif" font-size="14" lengthAdjust="spacing" textLength="209" x="551.5" y="2172.6074">+Apartment(price, area, address,</text><text fill="#000000" font-family="sans-serif" font-size="14" lengthAdjust="spacing" textLength="318" x="551.5" y="2191.2285">distanceToCentre, photographs, bedroomNumber,</text><text fill="#000000" font-family="sans-serif" font-size="14" lengthAdjust="spacing" textLength="215" x="551.5" y="2209.8496">bathroomNumber, parkingSpaces,</text><text fill="#000000" font-family="sans-serif" font-size="14" lengthAdjust="spacing" textLength="174" x="551.5" y="2228.4707">equipmentList, client, store)</text></g><!--class House--><g id="elem_House"><rect codeLine="54" fill="#F1F1F1" filter="url(#fazucncz4j4lq)" height="196.9688" id="House" rx="2.5" ry="2.5" style="stroke:#181818;stroke-width:0.5;" width="330" x="910.5" y="2076"/><ellipse cx="1051.25" cy="2092" fill="#ADD1B2" rx="11" ry="11" style="stroke:#181818;stroke-width:1.0;"/><path d="M1054.0156,2087.875 Q1054.1719,2087.6563 1054.3594,2087.5469 Q1054.5469,2087.4375 1054.7656,2087.4375 Q1055.1406,2087.4375 1055.375,2087.7031 Q1055.6094,2087.9531 1055.6094,2088.5625 L1055.6094,2090.0156 Q1055.6094,2090.625 1055.375,2090.8906 Q1055.1406,2091.1563 1054.7656,2091.1563 Q1054.4219,2091.1563 1054.2188,2090.9531 Q1054.0156,2090.7656 1053.9063,2090.25 Q1053.8594,2089.8906 1053.6719,2089.7031 Q1053.3438,2089.3281 1052.7344,2089.1094 Q1052.125,2088.8906 1051.5,2088.8906 Q1050.7344,2088.8906 1050.0938,2089.2188 Q1049.4688,2089.5469 1048.9688,2090.2969 Q1048.4844,2091.0469 1048.4844,2092.0781 L1048.4844,2093.1719 Q1048.4844,2094.4063 1049.375,2095.2344 Q1050.2656,2096.0469 1051.8594,2096.0469 Q1052.7969,2096.0469 1053.4531,2095.7969 Q1053.8438,2095.6406 1054.2656,2095.2031 Q1054.5313,2094.9375 1054.6719,2094.8594 Q1054.8281,2094.7813 1055.0313,2094.7813 Q1055.3594,2094.7813 1055.6094,2095.0469 Q1055.875,2095.2969 1055.875,2095.6406 Q1055.875,2095.9844 1055.5313,2096.3906 Q1055.0313,2096.9688 1054.2344,2097.2969 Q1053.1563,2097.75 1051.8594,2097.75 Q1050.3438,2097.75 1049.1406,2097.125 Q1048.1563,2096.625 1047.4688,2095.5625 Q1046.7813,2094.4844 1046.7813,2093.2031 L1046.7813,2092.0469 Q1046.7813,2090.7188 1047.3906,2089.5781 Q1048.0156,2088.4219 1049.1094,2087.8125 Q1050.2031,2087.1875 1051.4375,2087.1875 Q1052.1719,2087.1875 1052.8125,2087.3594 Q1053.4688,2087.5156 1054.0156,2087.875 Z " fill="#000000"/><text fill="#000000" font-family="sans-serif" font-size="14" lengthAdjust="spacing" textLength="40" x="1071.75" y="2097.7969">House</text><line style="stroke:#181818;stroke-width:0.5;" x1="911.5" x2="1239.5" y1="2108" y2="2108"/><text fill="#000000" font-family="sans-serif" font-size="14" lengthAdjust="spacing" textLength="147" x="916.5" y="2127.1074">-Boolean hasBasement</text><text fill="#000000" font-family="sans-serif" font-size="14" lengthAdjust="spacing" textLength="108" x="916.5" y="2145.7285">-Boolean hasLoft</text><text fill="#000000" font-family="sans-serif" font-size="14" lengthAdjust="spacing" textLength="128" x="916.5" y="2164.3496">-String sunExposure</text><line style="stroke:#181818;stroke-width:0.5;" x1="911.5" x2="1239.5" y1="2171.8633" y2="2171.8633"/><text fill="#000000" font-family="sans-serif" font-size="14" lengthAdjust="spacing" textLength="184" x="916.5" y="2190.9707">+House(price, area, address,</text><text fill="#000000" font-family="sans-serif" font-size="14" lengthAdjust="spacing" textLength="318" x="916.5" y="2209.5918">distanceToCentre, photographs, bedroomNumber,</text><text fill="#000000" font-family="sans-serif" font-size="14" lengthAdjust="spacing" textLength="215" x="916.5" y="2228.2129">bathroomNumber, parkingSpaces,</text><text fill="#000000" font-family="sans-serif" font-size="14" lengthAdjust="spacing" textLength="173" x="916.5" y="2246.834">equipmentList, client, store,</text><text fill="#000000" font-family="sans-serif" font-size="14" lengthAdjust="spacing" textLength="236" x="916.5" y="2265.4551">hasBasement, hasLoft, sunExposure)</text></g><!--class BusinessType--><g id="elem_BusinessType"><rect codeLine="62" fill="#F1F1F1" filter="url(#fazucncz4j4lq)" height="66.6211" id="BusinessType" rx="2.5" ry="2.5" style="stroke:#181818;stroke-width:0.5;" width="127" x="1186" y="1343"/><ellipse cx="1203.7" cy="1359" fill="#ADD1B2" rx="11" ry="11" style="stroke:#181818;stroke-width:1.0;"/><path d="M1206.4656,1354.875 Q1206.6219,1354.6563 1206.8094,1354.5469 Q1206.9969,1354.4375 1207.2156,1354.4375 Q1207.5906,1354.4375 1207.825,1354.7031 Q1208.0594,1354.9531 1208.0594,1355.5625 L1208.0594,1357.0156 Q1208.0594,1357.625 1207.825,1357.8906 Q1207.5906,1358.1563 1207.2156,1358.1563 Q1206.8719,1358.1563 1206.6688,1357.9531 Q1206.4656,1357.7656 1206.3563,1357.25 Q1206.3094,1356.8906 1206.1219,1356.7031 Q1205.7938,1356.3281 1205.1844,1356.1094 Q1204.575,1355.8906 1203.95,1355.8906 Q1203.1844,1355.8906 1202.5438,1356.2188 Q1201.9188,1356.5469 1201.4188,1357.2969 Q1200.9344,1358.0469 1200.9344,1359.0781 L1200.9344,1360.1719 Q1200.9344,1361.4063 1201.825,1362.2344 Q1202.7156,1363.0469 1204.3094,1363.0469 Q1205.2469,1363.0469 1205.9031,1362.7969 Q1206.2938,1362.6406 1206.7156,1362.2031 Q1206.9813,1361.9375 1207.1219,1361.8594 Q1207.2781,1361.7813 1207.4813,1361.7813 Q1207.8094,1361.7813 1208.0594,1362.0469 Q1208.325,1362.2969 1208.325,1362.6406 Q1208.325,1362.9844 1207.9813,1363.3906 Q1207.4813,1363.9688 1206.6844,1364.2969 Q1205.6063,1364.75 1204.3094,1364.75 Q1202.7938,1364.75 1201.5906,1364.125 Q1200.6063,1363.625 1199.9188,1362.5625 Q1199.2313,1361.4844 1199.2313,1360.2031 L1199.2313,1359.0469 Q1199.2313,1357.7188 1199.8406,1356.5781 Q1200.4656,1355.4219 1201.5594,1354.8125 Q1202.6531,1354.1875 1203.8875,1354.1875 Q1204.6219,1354.1875 1205.2625,1354.3594 Q1205.9188,1354.5156 1206.4656,1354.875 Z " fill="#000000"/><text fill="#000000" font-family="sans-serif" font-size="14" lengthAdjust="spacing" textLength="89" x="1218.3" y="1364.7969">BusinessType</text><line style="stroke:#181818;stroke-width:0.5;" x1="1187" x2="1312" y1="1375" y2="1375"/><text fill="#000000" font-family="sans-serif" font-size="14" lengthAdjust="spacing" textLength="115" x="1192" y="1394.1074">-String description</text><line style="stroke:#181818;stroke-width:0.5;" x1="1187" x2="1312" y1="1401.6211" y2="1401.6211"/></g><!--class PropertyType--><g id="elem_PropertyType"><rect codeLine="65" fill="#F1F1F1" filter="url(#fazucncz4j4lq)" height="66.6211" id="PropertyType" rx="2.5" ry="2.5" style="stroke:#181818;stroke-width:0.5;" width="127" x="384" y="1637"/><ellipse cx="403.05" cy="1653" fill="#ADD1B2" rx="11" ry="11" style="stroke:#181818;stroke-width:1.0;"/><path d="M405.8156,1648.875 Q405.9719,1648.6563 406.1594,1648.5469 Q406.3469,1648.4375 406.5656,1648.4375 Q406.9406,1648.4375 407.175,1648.7031 Q407.4094,1648.9531 407.4094,1649.5625 L407.4094,1651.0156 Q407.4094,1651.625 407.175,1651.8906 Q406.9406,1652.1563 406.5656,1652.1563 Q406.2219,1652.1563 406.0188,1651.9531 Q405.8156,1651.7656 405.7063,1651.25 Q405.6594,1650.8906 405.4719,1650.7031 Q405.1438,1650.3281 404.5344,1650.1094 Q403.925,1649.8906 403.3,1649.8906 Q402.5344,1649.8906 401.8938,1650.2188 Q401.2688,1650.5469 400.7688,1651.2969 Q400.2844,1652.0469 400.2844,1653.0781 L400.2844,1654.1719 Q400.2844,1655.4063 401.175,1656.2344 Q402.0656,1657.0469 403.6594,1657.0469 Q404.5969,1657.0469 405.2531,1656.7969 Q405.6438,1656.6406 406.0656,1656.2031 Q406.3313,1655.9375 406.4719,1655.8594 Q406.6281,1655.7813 406.8313,1655.7813 Q407.1594,1655.7813 407.4094,1656.0469 Q407.675,1656.2969 407.675,1656.6406 Q407.675,1656.9844 407.3313,1657.3906 Q406.8313,1657.9688 406.0344,1658.2969 Q404.9563,1658.75 403.6594,1658.75 Q402.1438,1658.75 400.9406,1658.125 Q399.9563,1657.625 399.2688,1656.5625 Q398.5813,1655.4844 398.5813,1654.2031 L398.5813,1653.0469 Q398.5813,1651.7188 399.1906,1650.5781 Q399.8156,1649.4219 400.9094,1648.8125 Q402.0031,1648.1875 403.2375,1648.1875 Q403.9719,1648.1875 404.6125,1648.3594 Q405.2688,1648.5156 405.8156,1648.875 Z " fill="#000000"/><text fill="#000000" font-family="sans-serif" font-size="14" lengthAdjust="spacing" textLength="86" x="417.95" y="1658.7969">PropertyType</text><line style="stroke:#181818;stroke-width:0.5;" x1="385" x2="510" y1="1669" y2="1669"/><text fill="#000000" font-family="sans-serif" font-size="14" lengthAdjust="spacing" textLength="115" x="390" y="1688.1074">-String description</text><line style="stroke:#181818;stroke-width:0.5;" x1="385" x2="510" y1="1695.6211" y2="1695.6211"/></g><!--class BusinessTypeRepository--><g id="elem_BusinessTypeRepository"><rect codeLine="69" fill="#F1F1F1" filter="url(#fazucncz4j4lq)" height="85.2422" id="BusinessTypeRepository" rx="2.5" ry="2.5" style="stroke:#181818;stroke-width:0.5;" width="385" x="1245" y="660"/><ellipse cx="1354.75" cy="676" fill="#ADD1B2" rx="11" ry="11" style="stroke:#181818;stroke-width:1.0;"/><path d="M1357.5156,671.875 Q1357.6719,671.6563 1357.8594,671.5469 Q1358.0469,671.4375 1358.2656,671.4375 Q1358.6406,671.4375 1358.875,671.7031 Q1359.1094,671.9531 1359.1094,672.5625 L1359.1094,674.0156 Q1359.1094,674.625 1358.875,674.8906 Q1358.6406,675.1563 1358.2656,675.1563 Q1357.9219,675.1563 1357.7188,674.9531 Q1357.5156,674.7656 1357.4063,674.25 Q1357.3594,673.8906 1357.1719,673.7031 Q1356.8438,673.3281 1356.2344,673.1094 Q1355.625,672.8906 1355,672.8906 Q1354.2344,672.8906 1353.5938,673.2188 Q1352.9688,673.5469 1352.4688,674.2969 Q1351.9844,675.0469 1351.9844,676.0781 L1351.9844,677.1719 Q1351.9844,678.4063 1352.875,679.2344 Q1353.7656,680.0469 1355.3594,680.0469 Q1356.2969,680.0469 1356.9531,679.7969 Q1357.3438,679.6406 1357.7656,679.2031 Q1358.0313,678.9375 1358.1719,678.8594 Q1358.3281,678.7813 1358.5313,678.7813 Q1358.8594,678.7813 1359.1094,679.0469 Q1359.375,679.2969 1359.375,679.6406 Q1359.375,679.9844 1359.0313,680.3906 Q1358.5313,680.9688 1357.7344,681.2969 Q1356.6563,681.75 1355.3594,681.75 Q1353.8438,681.75 1352.6406,681.125 Q1351.6563,680.625 1350.9688,679.5625 Q1350.2813,678.4844 1350.2813,677.2031 L1350.2813,676.0469 Q1350.2813,674.7188 1350.8906,673.5781 Q1351.5156,672.4219 1352.6094,671.8125 Q1353.7031,671.1875 1354.9375,671.1875 Q1355.6719,671.1875 1356.3125,671.3594 Q1356.9688,671.5156 1357.5156,671.875 Z " fill="#000000"/><text fill="#000000" font-family="sans-serif" font-size="14" lengthAdjust="spacing" textLength="157" x="1375.25" y="681.7969">BusinessTypeRepository</text><line style="stroke:#181818;stroke-width:0.5;" x1="1246" x2="1629" y1="692" y2="692"/><line style="stroke:#181818;stroke-width:0.5;" x1="1246" x2="1629" y1="700" y2="700"/><text fill="#000000" font-family="sans-serif" font-size="14" lengthAdjust="spacing" textLength="373" x="1251" y="719.1074">+getBusinessTypeByDescription(businessTypeDescription)</text><text fill="#000000" font-family="sans-serif" font-size="14" lengthAdjust="spacing" textLength="134" x="1251" y="737.7285">+getBusinessTypes()</text></g><!--class PropertyTypeRepository--><g id="elem_PropertyTypeRepository"><rect codeLine="73" fill="#F1F1F1" filter="url(#fazucncz4j4lq)" height="85.2422" id="PropertyTypeRepository" rx="2.5" ry="2.5" style="stroke:#181818;stroke-width:0.5;" width="379" x="7" y="660"/><ellipse cx="115.25" cy="676" fill="#ADD1B2" rx="11" ry="11" style="stroke:#181818;stroke-width:1.0;"/><path d="M118.0156,671.875 Q118.1719,671.6563 118.3594,671.5469 Q118.5469,671.4375 118.7656,671.4375 Q119.1406,671.4375 119.375,671.7031 Q119.6094,671.9531 119.6094,672.5625 L119.6094,674.0156 Q119.6094,674.625 119.375,674.8906 Q119.1406,675.1563 118.7656,675.1563 Q118.4219,675.1563 118.2188,674.9531 Q118.0156,674.7656 117.9063,674.25 Q117.8594,673.8906 117.6719,673.7031 Q117.3438,673.3281 116.7344,673.1094 Q116.125,672.8906 115.5,672.8906 Q114.7344,672.8906 114.0938,673.2188 Q113.4688,673.5469 112.9688,674.2969 Q112.4844,675.0469 112.4844,676.0781 L112.4844,677.1719 Q112.4844,678.4063 113.375,679.2344 Q114.2656,680.0469 115.8594,680.0469 Q116.7969,680.0469 117.4531,679.7969 Q117.8438,679.6406 118.2656,679.2031 Q118.5313,678.9375 118.6719,678.8594 Q118.8281,678.7813 119.0313,678.7813 Q119.3594,678.7813 119.6094,679.0469 Q119.875,679.2969 119.875,679.6406 Q119.875,679.9844 119.5313,680.3906 Q119.0313,680.9688 118.2344,681.2969 Q117.1563,681.75 115.8594,681.75 Q114.3438,681.75 113.1406,681.125 Q112.1563,680.625 111.4688,679.5625 Q110.7813,678.4844 110.7813,677.2031 L110.7813,676.0469 Q110.7813,674.7188 111.3906,673.5781 Q112.0156,672.4219 113.1094,671.8125 Q114.2031,671.1875 115.4375,671.1875 Q116.1719,671.1875 116.8125,671.3594 Q117.4688,671.5156 118.0156,671.875 Z " fill="#000000"/><text fill="#000000" font-family="sans-serif" font-size="14" lengthAdjust="spacing" textLength="154" x="135.75" y="681.7969">PropertyTypeRepository</text><line style="stroke:#181818;stroke-width:0.5;" x1="8" x2="385" y1="692" y2="692"/><line style="stroke:#181818;stroke-width:0.5;" x1="8" x2="385" y1="700" y2="700"/><text fill="#000000" font-family="sans-serif" font-size="14" lengthAdjust="spacing" textLength="367" x="13" y="719.1074">+getPropertyTypeByDescription(propertyTypeDescription)</text><text fill="#000000" font-family="sans-serif" font-size="14" lengthAdjust="spacing" textLength="131" x="13" y="737.7285">+getPropertyTypes()</text></g><!--class StoreRepository--><g id="elem_StoreRepository"><rect codeLine="77" fill="#F1F1F1" filter="url(#fazucncz4j4lq)" height="85.2422" id="StoreRepository" rx="2.5" ry="2.5" style="stroke:#181818;stroke-width:0.5;" width="274" x="1665.5" y="660"/><ellipse cx="1747.25" cy="676" fill="#ADD1B2" rx="11" ry="11" style="stroke:#181818;stroke-width:1.0;"/><path d="M1750.0156,671.875 Q1750.1719,671.6563 1750.3594,671.5469 Q1750.5469,671.4375 1750.7656,671.4375 Q1751.1406,671.4375 1751.375,671.7031 Q1751.6094,671.9531 1751.6094,672.5625 L1751.6094,674.0156 Q1751.6094,674.625 1751.375,674.8906 Q1751.1406,675.1563 1750.7656,675.1563 Q1750.4219,675.1563 1750.2188,674.9531 Q1750.0156,674.7656 1749.9063,674.25 Q1749.8594,673.8906 1749.6719,673.7031 Q1749.3438,673.3281 1748.7344,673.1094 Q1748.125,672.8906 1747.5,672.8906 Q1746.7344,672.8906 1746.0938,673.2188 Q1745.4688,673.5469 1744.9688,674.2969 Q1744.4844,675.0469 1744.4844,676.0781 L1744.4844,677.1719 Q1744.4844,678.4063 1745.375,679.2344 Q1746.2656,680.0469 1747.8594,680.0469 Q1748.7969,680.0469 1749.4531,679.7969 Q1749.8438,679.6406 1750.2656,679.2031 Q1750.5313,678.9375 1750.6719,678.8594 Q1750.8281,678.7813 1751.0313,678.7813 Q1751.3594,678.7813 1751.6094,679.0469 Q1751.875,679.2969 1751.875,679.6406 Q1751.875,679.9844 1751.5313,680.3906 Q1751.0313,680.9688 1750.2344,681.2969 Q1749.1563,681.75 1747.8594,681.75 Q1746.3438,681.75 1745.1406,681.125 Q1744.1563,680.625 1743.4688,679.5625 Q1742.7813,678.4844 1742.7813,677.2031 L1742.7813,676.0469 Q1742.7813,674.7188 1743.3906,673.5781 Q1744.0156,672.4219 1745.1094,671.8125 Q1746.2031,671.1875 1747.4375,671.1875 Q1748.1719,671.1875 1748.8125,671.3594 Q1749.4688,671.5156 1750.0156,671.875 Z " fill="#000000"/><text fill="#000000" font-family="sans-serif" font-size="14" lengthAdjust="spacing" textLength="102" x="1767.75" y="681.7969">StoreRepository</text><line style="stroke:#181818;stroke-width:0.5;" x1="1666.5" x2="1938.5" y1="692" y2="692"/><line style="stroke:#181818;stroke-width:0.5;" x1="1666.5" x2="1938.5" y1="700" y2="700"/><text fill="#000000" font-family="sans-serif" font-size="14" lengthAdjust="spacing" textLength="262" x="1671.5" y="719.1074">+getStoreByDescription(storeDescription)</text><text fill="#000000" font-family="sans-serif" font-size="14" lengthAdjust="spacing" textLength="79" x="1671.5" y="737.7285">+getStores()</text></g><!--class EmployeeRepository--><g id="elem_EmployeeRepository"><rect codeLine="82" fill="#F1F1F1" filter="url(#fazucncz4j4lq)" height="85.2422" id="EmployeeRepository" rx="2.5" ry="2.5" style="stroke:#181818;stroke-width:0.5;" width="281" x="421" y="660"/><ellipse cx="492.25" cy="676" fill="#ADD1B2" rx="11" ry="11" style="stroke:#181818;stroke-width:1.0;"/><path d="M495.0156,671.875 Q495.1719,671.6563 495.3594,671.5469 Q495.5469,671.4375 495.7656,671.4375 Q496.1406,671.4375 496.375,671.7031 Q496.6094,671.9531 496.6094,672.5625 L496.6094,674.0156 Q496.6094,674.625 496.375,674.8906 Q496.1406,675.1563 495.7656,675.1563 Q495.4219,675.1563 495.2188,674.9531 Q495.0156,674.7656 494.9063,674.25 Q494.8594,673.8906 494.6719,673.7031 Q494.3438,673.3281 493.7344,673.1094 Q493.125,672.8906 492.5,672.8906 Q491.7344,672.8906 491.0938,673.2188 Q490.4688,673.5469 489.9688,674.2969 Q489.4844,675.0469 489.4844,676.0781 L489.4844,677.1719 Q489.4844,678.4063 490.375,679.2344 Q491.2656,680.0469 492.8594,680.0469 Q493.7969,680.0469 494.4531,679.7969 Q494.8438,679.6406 495.2656,679.2031 Q495.5313,678.9375 495.6719,678.8594 Q495.8281,678.7813 496.0313,678.7813 Q496.3594,678.7813 496.6094,679.0469 Q496.875,679.2969 496.875,679.6406 Q496.875,679.9844 496.5313,680.3906 Q496.0313,680.9688 495.2344,681.2969 Q494.1563,681.75 492.8594,681.75 Q491.3438,681.75 490.1406,681.125 Q489.1563,680.625 488.4688,679.5625 Q487.7813,678.4844 487.7813,677.2031 L487.7813,676.0469 Q487.7813,674.7188 488.3906,673.5781 Q489.0156,672.4219 490.1094,671.8125 Q491.2031,671.1875 492.4375,671.1875 Q493.1719,671.1875 493.8125,671.3594 Q494.4688,671.5156 495.0156,671.875 Z " fill="#000000"/><text fill="#000000" font-family="sans-serif" font-size="14" lengthAdjust="spacing" textLength="130" x="512.75" y="681.7969">EmployeeRepository</text><line style="stroke:#181818;stroke-width:0.5;" x1="422" x2="701" y1="692" y2="692"/><line style="stroke:#181818;stroke-width:0.5;" x1="422" x2="701" y1="700" y2="700"/><text fill="#000000" font-family="sans-serif" font-size="14" lengthAdjust="spacing" textLength="181" x="427" y="719.1074">+getAgentsFromStore(store)</text><text fill="#000000" font-family="sans-serif" font-size="14" lengthAdjust="spacing" textLength="269" x="427" y="737.7285">+getAgentByDescription(agentDescription)</text></g><!--class ClientRepository--><g id="elem_ClientRepository"><rect codeLine="87" fill="#F1F1F1" filter="url(#fazucncz4j4lq)" height="66.6211" id="ClientRepository" rx="2.5" ry="2.5" style="stroke:#181818;stroke-width:0.5;" width="169" x="1041" y="669"/><ellipse cx="1070.85" cy="685" fill="#ADD1B2" rx="11" ry="11" style="stroke:#181818;stroke-width:1.0;"/><path d="M1073.6156,680.875 Q1073.7719,680.6563 1073.9594,680.5469 Q1074.1469,680.4375 1074.3656,680.4375 Q1074.7406,680.4375 1074.975,680.7031 Q1075.2094,680.9531 1075.2094,681.5625 L1075.2094,683.0156 Q1075.2094,683.625 1074.975,683.8906 Q1074.7406,684.1563 1074.3656,684.1563 Q1074.0219,684.1563 1073.8188,683.9531 Q1073.6156,683.7656 1073.5063,683.25 Q1073.4594,682.8906 1073.2719,682.7031 Q1072.9438,682.3281 1072.3344,682.1094 Q1071.725,681.8906 1071.1,681.8906 Q1070.3344,681.8906 1069.6938,682.2188 Q1069.0688,682.5469 1068.5688,683.2969 Q1068.0844,684.0469 1068.0844,685.0781 L1068.0844,686.1719 Q1068.0844,687.4063 1068.975,688.2344 Q1069.8656,689.0469 1071.4594,689.0469 Q1072.3969,689.0469 1073.0531,688.7969 Q1073.4438,688.6406 1073.8656,688.2031 Q1074.1313,687.9375 1074.2719,687.8594 Q1074.4281,687.7813 1074.6313,687.7813 Q1074.9594,687.7813 1075.2094,688.0469 Q1075.475,688.2969 1075.475,688.6406 Q1075.475,688.9844 1075.1313,689.3906 Q1074.6313,689.9688 1073.8344,690.2969 Q1072.7563,690.75 1071.4594,690.75 Q1069.9438,690.75 1068.7406,690.125 Q1067.7563,689.625 1067.0688,688.5625 Q1066.3813,687.4844 1066.3813,686.2031 L1066.3813,685.0469 Q1066.3813,683.7188 1066.9906,682.5781 Q1067.6156,681.4219 1068.7094,680.8125 Q1069.8031,680.1875 1071.0375,680.1875 Q1071.7719,680.1875 1072.4125,680.3594 Q1073.0688,680.5156 1073.6156,680.875 Z " fill="#000000"/><text fill="#000000" font-family="sans-serif" font-size="14" lengthAdjust="spacing" textLength="104" x="1088.15" y="690.7969">ClientRepository</text><line style="stroke:#181818;stroke-width:0.5;" x1="1042" x2="1209" y1="701" y2="701"/><line style="stroke:#181818;stroke-width:0.5;" x1="1042" x2="1209" y1="709" y2="709"/><text fill="#000000" font-family="sans-serif" font-size="14" lengthAdjust="spacing" textLength="157" x="1047" y="728.1074">+getClientByEmail(email)</text></g><!--class Repositories--><g id="elem_Repositories"><rect codeLine="91" fill="#F1F1F1" filter="url(#fazucncz4j4lq)" height="178.3477" id="Repositories" rx="2.5" ry="2.5" style="stroke:#181818;stroke-width:0.5;" width="207" x="751" y="128"/><ellipse cx="810.75" cy="144" fill="#ADD1B2" rx="11" ry="11" style="stroke:#181818;stroke-width:1.0;"/><path d="M813.5156,139.875 Q813.6719,139.6563 813.8594,139.5469 Q814.0469,139.4375 814.2656,139.4375 Q814.6406,139.4375 814.875,139.7031 Q815.1094,139.9531 815.1094,140.5625 L815.1094,142.0156 Q815.1094,142.625 814.875,142.8906 Q814.6406,143.1563 814.2656,143.1563 Q813.9219,143.1563 813.7188,142.9531 Q813.5156,142.7656 813.4063,142.25 Q813.3594,141.8906 813.1719,141.7031 Q812.8438,141.3281 812.2344,141.1094 Q811.625,140.8906 811,140.8906 Q810.2344,140.8906 809.5938,141.2188 Q808.9688,141.5469 808.4688,142.2969 Q807.9844,143.0469 807.9844,144.0781 L807.9844,145.1719 Q807.9844,146.4063 808.875,147.2344 Q809.7656,148.0469 811.3594,148.0469 Q812.2969,148.0469 812.9531,147.7969 Q813.3438,147.6406 813.7656,147.2031 Q814.0313,146.9375 814.1719,146.8594 Q814.3281,146.7813 814.5313,146.7813 Q814.8594,146.7813 815.1094,147.0469 Q815.375,147.2969 815.375,147.6406 Q815.375,147.9844 815.0313,148.3906 Q814.5313,148.9688 813.7344,149.2969 Q812.6563,149.75 811.3594,149.75 Q809.8438,149.75 808.6406,149.125 Q807.6563,148.625 806.9688,147.5625 Q806.2813,146.4844 806.2813,145.2031 L806.2813,144.0469 Q806.2813,142.7188 806.8906,141.5781 Q807.5156,140.4219 808.6094,139.8125 Q809.7031,139.1875 810.9375,139.1875 Q811.6719,139.1875 812.3125,139.3594 Q812.9688,139.5156 813.5156,139.875 Z " fill="#000000"/><text fill="#000000" font-family="sans-serif" font-size="14" lengthAdjust="spacing" textLength="79" x="831.25" y="149.7969">Repositories</text><line style="stroke:#181818;stroke-width:0.5;" x1="752" x2="957" y1="160" y2="160"/><line style="stroke:#181818;stroke-width:0.5;" x1="752" x2="957" y1="168" y2="168"/><text fill="#000000" font-family="sans-serif" font-size="14" lengthAdjust="spacing" textLength="94" x="757" y="187.1074">-Repositories()</text><text fill="#000000" font-family="sans-serif" font-size="14" lengthAdjust="spacing" textLength="182" x="757" y="205.7285">+getInstance() : Repositories</text><text fill="#000000" font-family="sans-serif" font-size="14" lengthAdjust="spacing" textLength="195" x="757" y="224.3496">+getBusinessTypeRepository()</text><text fill="#000000" font-family="sans-serif" font-size="14" lengthAdjust="spacing" textLength="192" x="757" y="242.9707">+getPropertyTypeRepository()</text><text fill="#000000" font-family="sans-serif" font-size="14" lengthAdjust="spacing" textLength="142" x="757" y="261.5918">+getClientRepository()</text><text fill="#000000" font-family="sans-serif" font-size="14" lengthAdjust="spacing" textLength="140" x="757" y="280.2129">+getStoreRepository()</text><text fill="#000000" font-family="sans-serif" font-size="14" lengthAdjust="spacing" textLength="168" x="757" y="298.834">+getEmployeeRepository()</text></g><!--class CreatePropertyController--><g id="elem_CreatePropertyController"><rect codeLine="101" fill="#F1F1F1" filter="url(#fazucncz4j4lq)" height="420.4219" id="CreatePropertyController" rx="2.5" ry="2.5" style="stroke:#181818;stroke-width:0.5;" width="600" x="1187.5" y="7"/><ellipse cx="1403.75" cy="23" fill="#ADD1B2" rx="11" ry="11" style="stroke:#181818;stroke-width:1.0;"/><path d="M1406.5156,18.875 Q1406.6719,18.6563 1406.8594,18.5469 Q1407.0469,18.4375 1407.2656,18.4375 Q1407.6406,18.4375 1407.875,18.7031 Q1408.1094,18.9531 1408.1094,19.5625 L1408.1094,21.0156 Q1408.1094,21.625 1407.875,21.8906 Q1407.6406,22.1563 1407.2656,22.1563 Q1406.9219,22.1563 1406.7188,21.9531 Q1406.5156,21.7656 1406.4063,21.25 Q1406.3594,20.8906 1406.1719,20.7031 Q1405.8438,20.3281 1405.2344,20.1094 Q1404.625,19.8906 1404,19.8906 Q1403.2344,19.8906 1402.5938,20.2188 Q1401.9688,20.5469 1401.4688,21.2969 Q1400.9844,22.0469 1400.9844,23.0781 L1400.9844,24.1719 Q1400.9844,25.4063 1401.875,26.2344 Q1402.7656,27.0469 1404.3594,27.0469 Q1405.2969,27.0469 1405.9531,26.7969 Q1406.3438,26.6406 1406.7656,26.2031 Q1407.0313,25.9375 1407.1719,25.8594 Q1407.3281,25.7813 1407.5313,25.7813 Q1407.8594,25.7813 1408.1094,26.0469 Q1408.375,26.2969 1408.375,26.6406 Q1408.375,26.9844 1408.0313,27.3906 Q1407.5313,27.9688 1406.7344,28.2969 Q1405.6563,28.75 1404.3594,28.75 Q1402.8438,28.75 1401.6406,28.125 Q1400.6563,27.625 1399.9688,26.5625 Q1399.2813,25.4844 1399.2813,24.2031 L1399.2813,23.0469 Q1399.2813,21.7188 1399.8906,20.5781 Q1400.5156,19.4219 1401.6094,18.8125 Q1402.7031,18.1875 1403.9375,18.1875 Q1404.6719,18.1875 1405.3125,18.3594 Q1405.9688,18.5156 1406.5156,18.875 Z " fill="#000000"/><text fill="#000000" font-family="sans-serif" font-size="14" lengthAdjust="spacing" textLength="159" x="1424.25" y="28.7969">CreatePropertyController</text><line style="stroke:#181818;stroke-width:0.5;" x1="1188.5" x2="1786.5" y1="39" y2="39"/><line style="stroke:#181818;stroke-width:0.5;" x1="1188.5" x2="1786.5" y1="47" y2="47"/><text fill="#000000" font-family="sans-serif" font-size="14" lengthAdjust="spacing" textLength="177" x="1193.5" y="66.1074">+CreatePropertyController()</text><text fill="#000000" font-family="sans-serif" font-size="14" lengthAdjust="spacing" textLength="134" x="1193.5" y="84.7285">+getBusinessTypes()</text><text fill="#000000" font-family="sans-serif" font-size="14" lengthAdjust="spacing" textLength="131" x="1193.5" y="103.3496">+getPropertyTypes()</text><text fill="#000000" font-family="sans-serif" font-size="14" lengthAdjust="spacing" textLength="79" x="1193.5" y="121.9707">+getStores()</text><text fill="#000000" font-family="sans-serif" font-size="14" lengthAdjust="spacing" textLength="252" x="1193.5" y="140.5918">+getAgentsFromStore(storeDescription)</text><text fill="#000000" font-family="sans-serif" font-size="14" lengthAdjust="spacing" textLength="262" x="1193.5" y="159.2129">+getStoreByDescription(storeDescription)</text><text fill="#000000" font-family="sans-serif" font-size="14" lengthAdjust="spacing" textLength="373" x="1193.5" y="177.834">+getBusinessTypeByDescription(businessTypeDescription)</text><text fill="#000000" font-family="sans-serif" font-size="14" lengthAdjust="spacing" textLength="367" x="1193.5" y="196.4551">+getPropertyTypeByDescription(propertyTypeDescription)</text><text fill="#000000" font-family="sans-serif" font-size="14" lengthAdjust="spacing" textLength="269" x="1193.5" y="215.0762">+getAgentByDescription(agentDescription)</text><text fill="#000000" font-family="sans-serif" font-size="14" lengthAdjust="spacing" textLength="154" x="1193.5" y="233.6973">-getClientFromSession()</text><text fill="#000000" font-family="sans-serif" font-size="14" lengthAdjust="spacing" textLength="447" x="1193.5" y="252.3184">+createProperty(price, area, address, distanceToCentre, photographs,</text><text fill="#000000" font-family="sans-serif" font-size="14" lengthAdjust="spacing" textLength="215" x="1193.5" y="270.9395">propertyType, store, agent, client)</text><text fill="#000000" font-family="sans-serif" font-size="14" lengthAdjust="spacing" textLength="447" x="1193.5" y="289.5605">+createProperty(price, area, address, distanceToCentre, photographs,</text><text fill="#000000" font-family="sans-serif" font-size="14" lengthAdjust="spacing" textLength="466" x="1193.5" y="308.1816">bedroomNumber, bathroomNumber, parkingSpaceNumber, equipmentList,</text><text fill="#000000" font-family="sans-serif" font-size="14" lengthAdjust="spacing" textLength="215" x="1193.5" y="326.8027">propertyType, store, agent, client)</text><text fill="#000000" font-family="sans-serif" font-size="14" lengthAdjust="spacing" textLength="560" x="1193.5" y="345.4238">+createProperty(price, area, address, distanceToCentre, photographs, bedroomNumber,</text><text fill="#000000" font-family="sans-serif" font-size="14" lengthAdjust="spacing" textLength="588" x="1193.5" y="364.0449">bathroomNumber, parkingSpaceNumber,equipmentList, hasBasement, hasLoft, sunExposure,</text><text fill="#000000" font-family="sans-serif" font-size="14" lengthAdjust="spacing" textLength="313" x="1193.5" y="382.666">propertyTypeDescription, storeDescription, client)</text><text fill="#000000" font-family="sans-serif" font-size="14" lengthAdjust="spacing" textLength="527" x="1193.5" y="401.2871">+createAnnouncementRequest(rentDuration, businessType, property, agent, client)</text><text fill="#000000" font-family="sans-serif" font-size="14" lengthAdjust="spacing" textLength="440" x="1193.5" y="419.9082">+createAnnouncementRequest(businessType, property, agent, client)</text></g><!--class AnnouncementRequest--><g id="elem_AnnouncementRequest"><rect codeLine="118" fill="#F1F1F1" filter="url(#fazucncz4j4lq)" height="103.8633" id="AnnouncementRequest" rx="2.5" ry="2.5" style="stroke:#181818;stroke-width:0.5;" width="491" x="615" y="1142"/><ellipse cx="782.25" cy="1158" fill="#ADD1B2" rx="11" ry="11" style="stroke:#181818;stroke-width:1.0;"/><path d="M785.0156,1153.875 Q785.1719,1153.6563 785.3594,1153.5469 Q785.5469,1153.4375 785.7656,1153.4375 Q786.1406,1153.4375 786.375,1153.7031 Q786.6094,1153.9531 786.6094,1154.5625 L786.6094,1156.0156 Q786.6094,1156.625 786.375,1156.8906 Q786.1406,1157.1563 785.7656,1157.1563 Q785.4219,1157.1563 785.2188,1156.9531 Q785.0156,1156.7656 784.9063,1156.25 Q784.8594,1155.8906 784.6719,1155.7031 Q784.3438,1155.3281 783.7344,1155.1094 Q783.125,1154.8906 782.5,1154.8906 Q781.7344,1154.8906 781.0938,1155.2188 Q780.4688,1155.5469 779.9688,1156.2969 Q779.4844,1157.0469 779.4844,1158.0781 L779.4844,1159.1719 Q779.4844,1160.4063 780.375,1161.2344 Q781.2656,1162.0469 782.8594,1162.0469 Q783.7969,1162.0469 784.4531,1161.7969 Q784.8438,1161.6406 785.2656,1161.2031 Q785.5313,1160.9375 785.6719,1160.8594 Q785.8281,1160.7813 786.0313,1160.7813 Q786.3594,1160.7813 786.6094,1161.0469 Q786.875,1161.2969 786.875,1161.6406 Q786.875,1161.9844 786.5313,1162.3906 Q786.0313,1162.9688 785.2344,1163.2969 Q784.1563,1163.75 782.8594,1163.75 Q781.3438,1163.75 780.1406,1163.125 Q779.1563,1162.625 778.4688,1161.5625 Q777.7813,1160.4844 777.7813,1159.2031 L777.7813,1158.0469 Q777.7813,1156.7188 778.3906,1155.5781 Q779.0156,1154.4219 780.1094,1153.8125 Q781.2031,1153.1875 782.4375,1153.1875 Q783.1719,1153.1875 783.8125,1153.3594 Q784.4688,1153.5156 785.0156,1153.875 Z " fill="#000000"/><text fill="#000000" font-family="sans-serif" font-size="14" lengthAdjust="spacing" textLength="148" x="802.75" y="1163.7969">AnnouncementRequest</text><line style="stroke:#181818;stroke-width:0.5;" x1="616" x2="1105" y1="1174" y2="1174"/><text fill="#000000" font-family="sans-serif" font-size="14" lengthAdjust="spacing" textLength="132" x="621" y="1193.1074">-Integer rentDuration</text><line style="stroke:#181818;stroke-width:0.5;" x1="616" x2="1105" y1="1200.6211" y2="1200.6211"/><text fill="#000000" font-family="sans-serif" font-size="14" lengthAdjust="spacing" textLength="396" x="621" y="1219.7285">+AnnouncementRequest(businessType, property, agent,client)</text><text fill="#000000" font-family="sans-serif" font-size="14" lengthAdjust="spacing" textLength="479" x="621" y="1238.3496">+AnnouncementRequest(rentDuration,businessType, property, agent,client)</text></g><!--class Store--><g id="elem_Store"><rect codeLine="123" fill="#F1F1F1" filter="url(#fazucncz4j4lq)" height="327.3164" id="Store" rx="2.5" ry="2.5" style="stroke:#181818;stroke-width:0.5;" width="600" x="984.5" y="1507"/><ellipse cx="1263.25" cy="1523" fill="#ADD1B2" rx="11" ry="11" style="stroke:#181818;stroke-width:1.0;"/><path d="M1266.0156,1518.875 Q1266.1719,1518.6563 1266.3594,1518.5469 Q1266.5469,1518.4375 1266.7656,1518.4375 Q1267.1406,1518.4375 1267.375,1518.7031 Q1267.6094,1518.9531 1267.6094,1519.5625 L1267.6094,1521.0156 Q1267.6094,1521.625 1267.375,1521.8906 Q1267.1406,1522.1563 1266.7656,1522.1563 Q1266.4219,1522.1563 1266.2188,1521.9531 Q1266.0156,1521.7656 1265.9063,1521.25 Q1265.8594,1520.8906 1265.6719,1520.7031 Q1265.3438,1520.3281 1264.7344,1520.1094 Q1264.125,1519.8906 1263.5,1519.8906 Q1262.7344,1519.8906 1262.0938,1520.2188 Q1261.4688,1520.5469 1260.9688,1521.2969 Q1260.4844,1522.0469 1260.4844,1523.0781 L1260.4844,1524.1719 Q1260.4844,1525.4063 1261.375,1526.2344 Q1262.2656,1527.0469 1263.8594,1527.0469 Q1264.7969,1527.0469 1265.4531,1526.7969 Q1265.8438,1526.6406 1266.2656,1526.2031 Q1266.5313,1525.9375 1266.6719,1525.8594 Q1266.8281,1525.7813 1267.0313,1525.7813 Q1267.3594,1525.7813 1267.6094,1526.0469 Q1267.875,1526.2969 1267.875,1526.6406 Q1267.875,1526.9844 1267.5313,1527.3906 Q1267.0313,1527.9688 1266.2344,1528.2969 Q1265.1563,1528.75 1263.8594,1528.75 Q1262.3438,1528.75 1261.1406,1528.125 Q1260.1563,1527.625 1259.4688,1526.5625 Q1258.7813,1525.4844 1258.7813,1524.2031 L1258.7813,1523.0469 Q1258.7813,1521.7188 1259.3906,1520.5781 Q1260.0156,1519.4219 1261.1094,1518.8125 Q1262.2031,1518.1875 1263.4375,1518.1875 Q1264.1719,1518.1875 1264.8125,1518.3594 Q1265.4688,1518.5156 1266.0156,1518.875 Z " fill="#000000"/><text fill="#000000" font-family="sans-serif" font-size="14" lengthAdjust="spacing" textLength="34" x="1283.75" y="1528.7969">Store</text><line style="stroke:#181818;stroke-width:0.5;" x1="985.5" x2="1583.5" y1="1539" y2="1539"/><text fill="#000000" font-family="sans-serif" font-size="14" lengthAdjust="spacing" textLength="119" x="990.5" y="1558.1074">-String designation</text><text fill="#000000" font-family="sans-serif" font-size="14" lengthAdjust="spacing" textLength="79" x="990.5" y="1576.7285">-String email</text><text fill="#000000" font-family="sans-serif" font-size="14" lengthAdjust="spacing" textLength="142" x="990.5" y="1595.3496">-Integer phoneNumber</text><line style="stroke:#181818;stroke-width:0.5;" x1="985.5" x2="1583.5" y1="1602.8633" y2="1602.8633"/><text fill="#000000" font-family="sans-serif" font-size="14" lengthAdjust="spacing" textLength="447" x="990.5" y="1621.9707">+createProperty(price, area, address, distanceToCentre, photographs,</text><text fill="#000000" font-family="sans-serif" font-size="14" lengthAdjust="spacing" textLength="215" x="990.5" y="1640.5918">propertyType, store, agent, client)</text><text fill="#000000" font-family="sans-serif" font-size="14" lengthAdjust="spacing" textLength="447" x="990.5" y="1659.2129">+createProperty(price, area, address, distanceToCentre, photographs,</text><text fill="#000000" font-family="sans-serif" font-size="14" lengthAdjust="spacing" textLength="466" x="990.5" y="1677.834">bedroomNumber, bathroomNumber, parkingSpaceNumber, equipmentList,</text><text fill="#000000" font-family="sans-serif" font-size="14" lengthAdjust="spacing" textLength="215" x="990.5" y="1696.4551">propertyType, store, agent, client)</text><text fill="#000000" font-family="sans-serif" font-size="14" lengthAdjust="spacing" textLength="560" x="990.5" y="1715.0762">+createProperty(price, area, address, distanceToCentre, photographs, bedroomNumber,</text><text fill="#000000" font-family="sans-serif" font-size="14" lengthAdjust="spacing" textLength="588" x="990.5" y="1733.6973">bathroomNumber, parkingSpaceNumber,equipmentList, hasBasement, hasLoft, sunExposure,</text><text fill="#000000" font-family="sans-serif" font-size="14" lengthAdjust="spacing" textLength="313" x="990.5" y="1752.3184">propertyTypeDescription, storeDescription, client)</text><text fill="#000000" font-family="sans-serif" font-size="14" lengthAdjust="spacing" textLength="527" x="990.5" y="1770.9395">+createAnnouncementRequest(rentDuration, businessType, property, agent, client)</text><text fill="#000000" font-family="sans-serif" font-size="14" lengthAdjust="spacing" textLength="440" x="990.5" y="1789.5605">+createAnnouncementRequest(businessType, property, agent, client)</text><text fill="#000000" font-family="sans-serif" font-size="14" lengthAdjust="spacing" textLength="146" x="990.5" y="1808.1816">-addProperty(property)</text><text fill="#000000" font-family="sans-serif" font-size="14" lengthAdjust="spacing" textLength="171" x="990.5" y="1826.8027">-validateProperty(property)</text></g><!--class CreatePropertyUI--><g id="elem_CreatePropertyUI"><rect codeLine="136" fill="#F1F1F1" filter="url(#fazucncz4j4lq)" height="48" id="CreatePropertyUI" rx="2.5" ry="2.5" style="stroke:#181818;stroke-width:0.5;" width="141" x="1011" y="193"/><ellipse cx="1026" cy="209" fill="#ADD1B2" rx="11" ry="11" style="stroke:#181818;stroke-width:1.0;"/><path d="M1028.7656,204.875 Q1028.9219,204.6563 1029.1094,204.5469 Q1029.2969,204.4375 1029.5156,204.4375 Q1029.8906,204.4375 1030.125,204.7031 Q1030.3594,204.9531 1030.3594,205.5625 L1030.3594,207.0156 Q1030.3594,207.625 1030.125,207.8906 Q1029.8906,208.1563 1029.5156,208.1563 Q1029.1719,208.1563 1028.9688,207.9531 Q1028.7656,207.7656 1028.6563,207.25 Q1028.6094,206.8906 1028.4219,206.7031 Q1028.0938,206.3281 1027.4844,206.1094 Q1026.875,205.8906 1026.25,205.8906 Q1025.4844,205.8906 1024.8438,206.2188 Q1024.2188,206.5469 1023.7188,207.2969 Q1023.2344,208.0469 1023.2344,209.0781 L1023.2344,210.1719 Q1023.2344,211.4063 1024.125,212.2344 Q1025.0156,213.0469 1026.6094,213.0469 Q1027.5469,213.0469 1028.2031,212.7969 Q1028.5938,212.6406 1029.0156,212.2031 Q1029.2813,211.9375 1029.4219,211.8594 Q1029.5781,211.7813 1029.7813,211.7813 Q1030.1094,211.7813 1030.3594,212.0469 Q1030.625,212.2969 1030.625,212.6406 Q1030.625,212.9844 1030.2813,213.3906 Q1029.7813,213.9688 1028.9844,214.2969 Q1027.9063,214.75 1026.6094,214.75 Q1025.0938,214.75 1023.8906,214.125 Q1022.9063,213.625 1022.2188,212.5625 Q1021.5313,211.4844 1021.5313,210.2031 L1021.5313,209.0469 Q1021.5313,207.7188 1022.1406,206.5781 Q1022.7656,205.4219 1023.8594,204.8125 Q1024.9531,204.1875 1026.1875,204.1875 Q1026.9219,204.1875 1027.5625,204.3594 Q1028.2188,204.5156 1028.7656,204.875 Z " fill="#000000"/><text fill="#000000" font-family="sans-serif" font-size="14" lengthAdjust="spacing" textLength="109" x="1040" y="214.7969">CreatePropertyUI</text><line style="stroke:#181818;stroke-width:0.5;" x1="1012" x2="1151" y1="225" y2="225"/><line style="stroke:#181818;stroke-width:0.5;" x1="1012" x2="1151" y1="233" y2="233"/></g><!--class Role--><g id="elem_Role"><rect codeLine="138" fill="#F1F1F1" filter="url(#fazucncz4j4lq)" height="85.2422" id="Role" rx="2.5" ry="2.5" style="stroke:#181818;stroke-width:0.5;" width="127" x="381" y="1151.5"/><ellipse cx="425.75" cy="1167.5" fill="#ADD1B2" rx="11" ry="11" style="stroke:#181818;stroke-width:1.0;"/><path d="M428.5156,1163.375 Q428.6719,1163.1563 428.8594,1163.0469 Q429.0469,1162.9375 429.2656,1162.9375 Q429.6406,1162.9375 429.875,1163.2031 Q430.1094,1163.4531 430.1094,1164.0625 L430.1094,1165.5156 Q430.1094,1166.125 429.875,1166.3906 Q429.6406,1166.6563 429.2656,1166.6563 Q428.9219,1166.6563 428.7188,1166.4531 Q428.5156,1166.2656 428.4063,1165.75 Q428.3594,1165.3906 428.1719,1165.2031 Q427.8438,1164.8281 427.2344,1164.6094 Q426.625,1164.3906 426,1164.3906 Q425.2344,1164.3906 424.5938,1164.7188 Q423.9688,1165.0469 423.4688,1165.7969 Q422.9844,1166.5469 422.9844,1167.5781 L422.9844,1168.6719 Q422.9844,1169.9063 423.875,1170.7344 Q424.7656,1171.5469 426.3594,1171.5469 Q427.2969,1171.5469 427.9531,1171.2969 Q428.3438,1171.1406 428.7656,1170.7031 Q429.0313,1170.4375 429.1719,1170.3594 Q429.3281,1170.2813 429.5313,1170.2813 Q429.8594,1170.2813 430.1094,1170.5469 Q430.375,1170.7969 430.375,1171.1406 Q430.375,1171.4844 430.0313,1171.8906 Q429.5313,1172.4688 428.7344,1172.7969 Q427.6563,1173.25 426.3594,1173.25 Q424.8438,1173.25 423.6406,1172.625 Q422.6563,1172.125 421.9688,1171.0625 Q421.2813,1169.9844 421.2813,1168.7031 L421.2813,1167.5469 Q421.2813,1166.2188 421.8906,1165.0781 Q422.5156,1163.9219 423.6094,1163.3125 Q424.7031,1162.6875 425.9375,1162.6875 Q426.6719,1162.6875 427.3125,1162.8594 Q427.9688,1163.0156 428.5156,1163.375 Z " fill="#000000"/><text fill="#000000" font-family="sans-serif" font-size="14" lengthAdjust="spacing" textLength="29" x="446.25" y="1173.2969">Role</text><line style="stroke:#181818;stroke-width:0.5;" x1="382" x2="507" y1="1183.5" y2="1183.5"/><text fill="#000000" font-family="sans-serif" font-size="14" lengthAdjust="spacing" textLength="64" x="387" y="1202.6074">-Integer id</text><text fill="#000000" font-family="sans-serif" font-size="14" lengthAdjust="spacing" textLength="115" x="387" y="1221.2285">-String description</text><line style="stroke:#181818;stroke-width:0.5;" x1="382" x2="507" y1="1228.7422" y2="1228.7422"/></g><!--class Agent--><g id="elem_Agent"><rect fill="#F1F1F1" filter="url(#fazucncz4j4lq)" height="48" id="Agent" rx="2.5" ry="2.5" style="stroke:#181818;stroke-width:0.5;" width="69" x="944" y="1352.5"/><ellipse cx="959" cy="1368.5" fill="#ADD1B2" rx="11" ry="11" style="stroke:#181818;stroke-width:1.0;"/><path d="M961.7656,1364.375 Q961.9219,1364.1563 962.1094,1364.0469 Q962.2969,1363.9375 962.5156,1363.9375 Q962.8906,1363.9375 963.125,1364.2031 Q963.3594,1364.4531 963.3594,1365.0625 L963.3594,1366.5156 Q963.3594,1367.125 963.125,1367.3906 Q962.8906,1367.6563 962.5156,1367.6563 Q962.1719,1367.6563 961.9688,1367.4531 Q961.7656,1367.2656 961.6563,1366.75 Q961.6094,1366.3906 961.4219,1366.2031 Q961.0938,1365.8281 960.4844,1365.6094 Q959.875,1365.3906 959.25,1365.3906 Q958.4844,1365.3906 957.8438,1365.7188 Q957.2188,1366.0469 956.7188,1366.7969 Q956.2344,1367.5469 956.2344,1368.5781 L956.2344,1369.6719 Q956.2344,1370.9063 957.125,1371.7344 Q958.0156,1372.5469 959.6094,1372.5469 Q960.5469,1372.5469 961.2031,1372.2969 Q961.5938,1372.1406 962.0156,1371.7031 Q962.2813,1371.4375 962.4219,1371.3594 Q962.5781,1371.2813 962.7813,1371.2813 Q963.1094,1371.2813 963.3594,1371.5469 Q963.625,1371.7969 963.625,1372.1406 Q963.625,1372.4844 963.2813,1372.8906 Q962.7813,1373.4688 961.9844,1373.7969 Q960.9063,1374.25 959.6094,1374.25 Q958.0938,1374.25 956.8906,1373.625 Q955.9063,1373.125 955.2188,1372.0625 Q954.5313,1370.9844 954.5313,1369.7031 L954.5313,1368.5469 Q954.5313,1367.2188 955.1406,1366.0781 Q955.7656,1364.9219 956.8594,1364.3125 Q957.9531,1363.6875 959.1875,1363.6875 Q959.9219,1363.6875 960.5625,1363.8594 Q961.2188,1364.0156 961.7656,1364.375 Z " fill="#000000"/><text fill="#000000" font-family="sans-serif" font-size="14" lengthAdjust="spacing" textLength="37" x="973" y="1374.2969">Agent</text><line style="stroke:#181818;stroke-width:0.5;" x1="945" x2="1012" y1="1384.5" y2="1384.5"/><line style="stroke:#181818;stroke-width:0.5;" x1="945" x2="1012" y1="1392.5" y2="1392.5"/></g><!--class Client--><g id="elem_Client"><rect fill="#F1F1F1" filter="url(#fazucncz4j4lq)" height="48" id="Client" rx="2.5" ry="2.5" style="stroke:#181818;stroke-width:0.5;" width="68" x="1071.5" y="1352.5"/><ellipse cx="1086.5" cy="1368.5" fill="#ADD1B2" rx="11" ry="11" style="stroke:#181818;stroke-width:1.0;"/><path d="M1089.2656,1364.375 Q1089.4219,1364.1563 1089.6094,1364.0469 Q1089.7969,1363.9375 1090.0156,1363.9375 Q1090.3906,1363.9375 1090.625,1364.2031 Q1090.8594,1364.4531 1090.8594,1365.0625 L1090.8594,1366.5156 Q1090.8594,1367.125 1090.625,1367.3906 Q1090.3906,1367.6563 1090.0156,1367.6563 Q1089.6719,1367.6563 1089.4688,1367.4531 Q1089.2656,1367.2656 1089.1563,1366.75 Q1089.1094,1366.3906 1088.9219,1366.2031 Q1088.5938,1365.8281 1087.9844,1365.6094 Q1087.375,1365.3906 1086.75,1365.3906 Q1085.9844,1365.3906 1085.3438,1365.7188 Q1084.7188,1366.0469 1084.2188,1366.7969 Q1083.7344,1367.5469 1083.7344,1368.5781 L1083.7344,1369.6719 Q1083.7344,1370.9063 1084.625,1371.7344 Q1085.5156,1372.5469 1087.1094,1372.5469 Q1088.0469,1372.5469 1088.7031,1372.2969 Q1089.0938,1372.1406 1089.5156,1371.7031 Q1089.7813,1371.4375 1089.9219,1371.3594 Q1090.0781,1371.2813 1090.2813,1371.2813 Q1090.6094,1371.2813 1090.8594,1371.5469 Q1091.125,1371.7969 1091.125,1372.1406 Q1091.125,1372.4844 1090.7813,1372.8906 Q1090.2813,1373.4688 1089.4844,1373.7969 Q1088.4063,1374.25 1087.1094,1374.25 Q1085.5938,1374.25 1084.3906,1373.625 Q1083.4063,1373.125 1082.7188,1372.0625 Q1082.0313,1370.9844 1082.0313,1369.7031 L1082.0313,1368.5469 Q1082.0313,1367.2188 1082.6406,1366.0781 Q1083.2656,1364.9219 1084.3594,1364.3125 Q1085.4531,1363.6875 1086.6875,1363.6875 Q1087.4219,1363.6875 1088.0625,1363.8594 Q1088.7188,1364.0156 1089.2656,1364.375 Z " fill="#000000"/><text fill="#000000" font-family="sans-serif" font-size="14" lengthAdjust="spacing" textLength="36" x="1100.5" y="1374.2969">Client</text><line style="stroke:#181818;stroke-width:0.5;" x1="1072.5" x2="1138.5" y1="1384.5" y2="1384.5"/><line style="stroke:#181818;stroke-width:0.5;" x1="1072.5" x2="1138.5" y1="1392.5" y2="1392.5"/></g><!--link Repositories to Repositories--><g id="link_Repositories_Repositories"><path codeLine="143" d="M854.5,127.75 C854.5,96.01 854.5,68 854.5,68 C854.5,68 744.25,68 744.25,68 C744.25,68 744.25,337 744.25,337 C744.25,337 889,337 889,337 C889,337 889,311.1 889,311.1 " fill="none" id="Repositories-to-Repositories" style="stroke:#181818;stroke-width:1.0;"/><polygon fill="#181818" points="889,306.1,885,315.1,889,311.1,893,315.1,889,306.1" style="stroke:#181818;stroke-width:1.0;"/><text fill="#000000" font-family="sans-serif" font-size="13" lengthAdjust="spacing" textLength="49" x="689.25" y="193.8583">instance</text></g><!--link ApplicationSession to ApplicationSession--><g id="link_ApplicationSession_ApplicationSession"><path codeLine="144" d="M1850.25,486.78 C1850.25,475.79 1850.25,467 1850.25,467 C1850.25,467 1926.25,467 1926.25,467 C1926.25,467 1926.25,602 1926.25,602 C1926.25,602 1837.5,602 1837.5,602 C1837.5,602 1837.5,577.09 1837.5,577.09 " fill="none" id="ApplicationSession-to-ApplicationSession" style="stroke:#181818;stroke-width:1.0;"/><polygon fill="#181818" points="1837.5,572.09,1833.5,581.09,1837.5,577.09,1841.5,581.09,1837.5,572.09" style="stroke:#181818;stroke-width:1.0;"/><text fill="#000000" font-family="sans-serif" font-size="13" lengthAdjust="spacing" textLength="49" x="1932.25" y="534.4683">instance</text></g><!--link CreatePropertyUI to CreatePropertyController--><g id="link_CreatePropertyUI_CreatePropertyController"><path codeLine="146" d="M1152.22,217 C1152.22,217 1167.38,217 1167.38,217 " fill="none" id="CreatePropertyUI-to-CreatePropertyController" style="stroke:#181818;stroke-width:1.0;stroke-dasharray:7.0,7.0;"/><polygon fill="none" points="1167.38,210,1187.38,217,1167.38,224,1167.38,210" style="stroke:#181818;stroke-width:1.0;"/></g><!--reverse link Repositories to CreatePropertyController--><g id="link_Repositories_CreatePropertyController"><path codeLine="148" d="M963.32,258 C963.32,258 1187.49,258 1187.49,258 " fill="none" id="Repositories-backto-CreatePropertyController" style="stroke:#181818;stroke-width:1.0;stroke-dasharray:7.0,7.0;"/><polygon fill="#181818" points="958.32,258,967.32,262,963.32,258,967.32,254,958.32,258" style="stroke:#181818;stroke-width:1.0;"/><text fill="#000000" font-family="sans-serif" font-size="13" lengthAdjust="spacing" textLength="67" x="1007.41" y="273.0283">repositories</text></g><!--link Repositories to BusinessTypeRepository--><g id="link_Repositories_BusinessTypeRepository"><path codeLine="150" d="M958.22,290 C994.34,290 1026,290 1026,290 C1026,290 1026,665 1026,665 C1026,665 1239.7,665 1239.7,665 " fill="none" id="Repositories-to-BusinessTypeRepository" style="stroke:#181818;stroke-width:1.0;"/><polygon fill="#181818" points="1244.7,665,1235.7,661,1239.7,665,1235.7,669,1244.7,665" style="stroke:#181818;stroke-width:1.0;"/><text fill="#000000" font-family="sans-serif" font-size="13" lengthAdjust="spacing" textLength="7" x="1230.032" y="660.2324">1</text></g><!--link Repositories to PropertyTypeRepository--><g id="link_Repositories_PropertyTypeRepository"><path codeLine="151" d="M750.79,188 C551.23,188 133.33,188 133.33,188 C133.33,188 133.33,654.96 133.33,654.96 " fill="none" id="Repositories-to-PropertyTypeRepository" style="stroke:#181818;stroke-width:1.0;"/><polygon fill="#181818" points="133.33,659.96,137.33,650.96,133.33,654.96,129.33,650.96,133.33,659.96" style="stroke:#181818;stroke-width:1.0;"/><text fill="#000000" font-family="sans-serif" font-size="13" lengthAdjust="spacing" textLength="7" x="115.7045" y="648.8577">1</text></g><!--link Repositories to StoreRepository--><g id="link_Repositories_StoreRepository"><path codeLine="152" d="M820,306.25 C820,370.9 820,447 820,447 C820,447 1697.67,447 1697.67,447 C1697.67,447 1697.67,654.74 1697.67,654.74 " fill="none" id="Repositories-to-StoreRepository" style="stroke:#181818;stroke-width:1.0;"/><polygon fill="#181818" points="1697.67,659.74,1701.67,650.74,1697.67,654.74,1693.67,650.74,1697.67,659.74" style="stroke:#181818;stroke-width:1.0;"/><text fill="#000000" font-family="sans-serif" font-size="13" lengthAdjust="spacing" textLength="7" x="1673.4049" y="648.6026">1</text></g><!--link Repositories to EmployeeRepository--><g id="link_Repositories_EmployeeRepository"><path codeLine="153" d="M750.69,247 C650.75,247 514.67,247 514.67,247 C514.67,247 514.67,654.65 514.67,654.65 " fill="none" id="Repositories-to-EmployeeRepository" style="stroke:#181818;stroke-width:1.0;"/><polygon fill="#181818" points="514.67,659.65,518.67,650.65,514.67,654.65,510.67,650.65,514.67,659.65" style="stroke:#181818;stroke-width:1.0;"/><text fill="#000000" font-family="sans-serif" font-size="13" lengthAdjust="spacing" textLength="7" x="499.9632" y="648.8191">1</text></g><!--link Repositories to ClientRepository--><g id="link_Repositories_ClientRepository"><path codeLine="154" d="M958.18,274 C1023.87,274 1096.5,274 1096.5,274 C1096.5,274 1096.5,663.88 1096.5,663.88 " fill="none" id="Repositories-to-ClientRepository" style="stroke:#181818;stroke-width:1.0;"/><polygon fill="#181818" points="1096.5,668.88,1100.5,659.88,1096.5,663.88,1092.5,659.88,1096.5,668.88" style="stroke:#181818;stroke-width:1.0;"/><text fill="#000000" font-family="sans-serif" font-size="13" lengthAdjust="spacing" textLength="7" x="1083.1016" y="657.6819">1</text></g><!--link BusinessTypeRepository to BusinessType--><g id="link_BusinessTypeRepository_BusinessType"><path codeLine="155" d="M1279,745.17 C1279,745.17 1279,1337.68 1279,1337.68 " fill="none" id="BusinessTypeRepository-to-BusinessType" style="stroke:#181818;stroke-width:1.0;"/><polygon fill="#181818" points="1279,1342.68,1283,1333.68,1279,1337.68,1275,1333.68,1279,1342.68" style="stroke:#181818;stroke-width:1.0;"/><text fill="#000000" font-family="sans-serif" font-size="13" lengthAdjust="spacing" textLength="80" x="1198" y="1037.4583">businessType</text><text fill="#000000" font-family="sans-serif" font-size="13" lengthAdjust="spacing" textLength="7" x="1246.1813" y="767.3574">1</text><text fill="#000000" font-family="sans-serif" font-size="13" lengthAdjust="spacing" textLength="5" x="1279.1469" y="1331.7049">*</text></g><!--link AnnouncementRequest to BusinessType--><g id="link_AnnouncementRequest_BusinessType"><path codeLine="156" d="M1097.38,1246.23 C1097.38,1290.55 1097.38,1347 1097.38,1347 C1097.38,1347 1172.87,1347 1172.87,1347 " fill="none" id="AnnouncementRequest-to-BusinessType" style="stroke:#181818;stroke-width:1.0;"/><polygon fill="none" points="1185.87,1347,1179.87,1343,1173.87,1347,1179.87,1351,1185.87,1347" style="stroke:#181818;stroke-width:1.0;"/><text fill="#000000" font-family="sans-serif" font-size="13" lengthAdjust="spacing" textLength="80" x="1016.38" y="1330.3883">businessType</text><text fill="#000000" font-family="sans-serif" font-size="13" lengthAdjust="spacing" textLength="5" x="1113.9869" y="1265.8766">*</text><text fill="#000000" font-family="sans-serif" font-size="13" lengthAdjust="spacing" textLength="7" x="1171.1081" y="1339.6733">1</text></g><!--link AnnouncementRequest to Agent--><g id="link_AnnouncementRequest_Agent"><path codeLine="157" d="M990,1246.3 C990,1246.3 990,1339.02 990,1339.02 " fill="none" id="AnnouncementRequest-to-Agent" style="stroke:#181818;stroke-width:1.0;"/><polygon fill="none" points="990,1352.02,994,1346.02,990,1340.02,986,1346.02,990,1352.02" style="stroke:#181818;stroke-width:1.0;"/><text fill="#000000" font-family="sans-serif" font-size="13" lengthAdjust="spacing" textLength="32" x="957" y="1288.6883">agent</text><text fill="#000000" font-family="sans-serif" font-size="13" lengthAdjust="spacing" textLength="5" x="1000.4781" y="1267.7644">*</text><text fill="#000000" font-family="sans-serif" font-size="13" lengthAdjust="spacing" textLength="7" x="993.6563" y="1341.0449">1</text></g><!--link AnnouncementRequest to Client--><g id="link_AnnouncementRequest_Client"><path codeLine="158" d="M1088.75,1246.3 C1088.75,1246.3 1088.75,1339.02 1088.75,1339.02 " fill="none" id="AnnouncementRequest-to-Client" style="stroke:#181818;stroke-width:1.0;"/><polygon fill="none" points="1088.75,1352.02,1092.75,1346.02,1088.75,1340.02,1084.75,1346.02,1088.75,1352.02" style="stroke:#181818;stroke-width:1.0;"/><text fill="#000000" font-family="sans-serif" font-size="13" lengthAdjust="spacing" textLength="31" x="1056.75" y="1288.6883">client</text><text fill="#000000" font-family="sans-serif" font-size="13" lengthAdjust="spacing" textLength="5" x="1111.2633" y="1267.7644">*</text><text fill="#000000" font-family="sans-serif" font-size="13" lengthAdjust="spacing" textLength="7" x="1076.8141" y="1341.0449">1</text></g><!--link AnnouncementRequest to Property--><g id="link_AnnouncementRequest_Property"><path codeLine="159" d="M761.75,1246.3 C761.75,1246.3 761.75,1292.83 761.75,1292.83 " fill="none" id="AnnouncementRequest-to-Property" style="stroke:#181818;stroke-width:1.0;"/><polygon fill="none" points="761.75,1305.83,765.75,1299.83,761.75,1293.83,757.75,1299.83,761.75,1305.83" style="stroke:#181818;stroke-width:1.0;"/><text fill="#000000" font-family="sans-serif" font-size="13" lengthAdjust="spacing" textLength="47" x="713.75" y="1284.5883">property</text><text fill="#000000" font-family="sans-serif" font-size="13" lengthAdjust="spacing" textLength="5" x="744.4102" y="1267.7644">*</text><text fill="#000000" font-family="sans-serif" font-size="13" lengthAdjust="spacing" textLength="7" x="759.9836" y="1294.7035">1</text></g><!--link Property to PropertyType--><g id="link_Property_PropertyType"><path codeLine="160" d="M506.4,1377 C471.02,1377 445.25,1377 445.25,1377 C445.25,1377 445.25,1623.83 445.25,1623.83 " fill="none" id="Property-to-PropertyType" style="stroke:#181818;stroke-width:1.0;"/><polygon fill="none" points="445.25,1636.83,449.25,1630.83,445.25,1624.83,441.25,1630.83,445.25,1636.83" style="stroke:#181818;stroke-width:1.0;"/><text fill="#000000" font-family="sans-serif" font-size="13" lengthAdjust="spacing" textLength="75" x="369.25" y="1465.8683">propertyType</text><text fill="#000000" font-family="sans-serif" font-size="13" lengthAdjust="spacing" textLength="5" x="493.4469" y="1373.7194">*</text><text fill="#000000" font-family="sans-serif" font-size="13" lengthAdjust="spacing" textLength="7" x="437.118" y="1625.622">1</text></g><!--link PropertyTypeRepository to PropertyType--><g id="link_PropertyTypeRepository_PropertyType"><path codeLine="161" d="M194,745.05 C194,931.97 194,1671 194,1671 C194,1671 378.86,1671 378.86,1671 " fill="none" id="PropertyTypeRepository-to-PropertyType" style="stroke:#181818;stroke-width:1.0;"/><polygon fill="#181818" points="383.86,1671,374.86,1667,378.86,1671,374.86,1675,383.86,1671" style="stroke:#181818;stroke-width:1.0;"/><text fill="#000000" font-family="sans-serif" font-size="13" lengthAdjust="spacing" textLength="75" x="118" y="1296.4783">propertyType</text><text fill="#000000" font-family="sans-serif" font-size="13" lengthAdjust="spacing" textLength="7" x="186.0438" y="767.2183">1</text><text fill="#000000" font-family="sans-serif" font-size="13" lengthAdjust="spacing" textLength="5" x="370.7992" y="1667.0941">*</text></g><!--link StoreRepository to Store--><g id="link_StoreRepository_Store"><path codeLine="162" d="M1802.5,745.05 C1802.5,931.97 1802.5,1671 1802.5,1671 C1802.5,1671 1589.7,1671 1589.7,1671 " fill="none" id="StoreRepository-to-Store" style="stroke:#181818;stroke-width:1.0;"/><polygon fill="#181818" points="1584.7,1671,1593.7,1675,1589.7,1671,1593.7,1667,1584.7,1671" style="stroke:#181818;stroke-width:1.0;"/><text fill="#000000" font-family="sans-serif" font-size="13" lengthAdjust="spacing" textLength="29" x="1772.5" y="1310.4583">store</text><text fill="#000000" font-family="sans-serif" font-size="13" lengthAdjust="spacing" textLength="7" x="1794.9422" y="767.2183">1</text><text fill="#000000" font-family="sans-serif" font-size="13" lengthAdjust="spacing" textLength="5" x="1592.7405" y="1667.8155">*</text></g><!--link Agent to Store--><g id="link_Agent_Store"><path codeLine="163" d="M1003.5,1400.56 C1003.5,1400.56 1003.5,1493.92 1003.5,1493.92 " fill="none" id="Agent-to-Store" style="stroke:#181818;stroke-width:1.0;"/><polygon fill="none" points="1003.5,1506.92,1007.5,1500.92,1003.5,1494.92,999.5,1500.92,1003.5,1506.92" style="stroke:#181818;stroke-width:1.0;"/><text fill="#000000" font-family="sans-serif" font-size="13" lengthAdjust="spacing" textLength="29" x="973.5" y="1462.2683">store</text><text fill="#000000" font-family="sans-serif" font-size="13" lengthAdjust="spacing" textLength="5" x="1003.9844" y="1422.5603">*</text><text fill="#000000" font-family="sans-serif" font-size="13" lengthAdjust="spacing" textLength="7" x="982.7195" y="1495.6126">1</text></g><!--link Property to Store--><g id="link_Property_Store"><path codeLine="164" d="M908.82,1429 C956.6,1429 994,1429 994,1429 C994,1429 994,1493.74 994,1493.74 " fill="none" id="Property-to-Store" style="stroke:#181818;stroke-width:1.0;"/><polygon fill="none" points="994,1506.74,998,1500.74,994,1494.74,990,1500.74,994,1506.74" style="stroke:#181818;stroke-width:1.0;"/><text fill="#000000" font-family="sans-serif" font-size="13" lengthAdjust="spacing" textLength="29" x="953.78" y="1425.0283">store</text><text fill="#000000" font-family="sans-serif" font-size="13" lengthAdjust="spacing" textLength="5" x="916.7817" y="1427.7507">*</text><text fill="#000000" font-family="sans-serif" font-size="13" lengthAdjust="spacing" textLength="7" x="973.6781" y="1495.9622">1</text></g><!--link EmployeeRepository to Employee--><g id="link_EmployeeRepository_Employee"><path codeLine="165" d="M561.5,745.03 C561.5,745.03 561.5,1028.81 561.5,1028.81 " fill="none" id="EmployeeRepository-to-Employee" style="stroke:#181818;stroke-width:1.0;"/><polygon fill="#181818" points="561.5,1033.81,565.5,1024.81,561.5,1028.81,557.5,1024.81,561.5,1033.81" style="stroke:#181818;stroke-width:1.0;"/><text fill="#000000" font-family="sans-serif" font-size="13" lengthAdjust="spacing" textLength="56" x="504.5" y="882.9483">employee</text><text fill="#000000" font-family="sans-serif" font-size="13" lengthAdjust="spacing" textLength="7" x="553.9422" y="767.1951">1</text><text fill="#000000" font-family="sans-serif" font-size="13" lengthAdjust="spacing" textLength="5" x="555.8906" y="1022.9056">*</text></g><!--link ClientRepository to Client--><g id="link_ClientRepository_Client"><path codeLine="166" d="M1128.33,736.39 C1128.33,736.39 1128.33,1347.24 1128.33,1347.24 " fill="none" id="ClientRepository-to-Client" style="stroke:#181818;stroke-width:1.0;"/><polygon fill="#181818" points="1128.33,1352.24,1132.33,1343.24,1128.33,1347.24,1124.33,1343.24,1128.33,1352.24" style="stroke:#181818;stroke-width:1.0;"/><text fill="#000000" font-family="sans-serif" font-size="13" lengthAdjust="spacing" textLength="31" x="1096.33" y="1037.8383">client</text><text fill="#000000" font-family="sans-serif" font-size="13" lengthAdjust="spacing" textLength="7" x="1121.2148" y="757.7617">1</text><text fill="#000000" font-family="sans-serif" font-size="13" lengthAdjust="spacing" textLength="5" x="1128.2854" y="1341.3185">*</text></g><!--link CreatePropertyController to BusinessTypeRepository--><g id="link_CreatePropertyController_BusinessTypeRepository"><path codeLine="168" d="M1437.5,427.12 C1437.5,427.12 1437.5,654.65 1437.5,654.65 " fill="none" id="CreatePropertyController-to-BusinessTypeRepository" style="stroke:#181818;stroke-width:1.0;stroke-dasharray:7.0,7.0;"/><polygon fill="#181818" points="1437.5,659.65,1441.5,650.65,1437.5,654.65,1433.5,650.65,1437.5,659.65" style="stroke:#181818;stroke-width:1.0;"/><text fill="#000000" font-family="sans-serif" font-size="13" lengthAdjust="spacing" textLength="144" x="1292.5" y="536.9183">BusinessTypeRepository</text></g><!--link CreatePropertyController to PropertyTypeRepository--><g id="link_CreatePropertyController_PropertyTypeRepository"><path codeLine="169" d="M1187.14,367 C823.64,367 259.67,367 259.67,367 C259.67,367 259.67,654.67 259.67,654.67 " fill="none" id="CreatePropertyController-to-PropertyTypeRepository" style="stroke:#181818;stroke-width:1.0;stroke-dasharray:7.0,7.0;"/><polygon fill="#181818" points="259.67,659.67,263.67,650.67,259.67,654.67,255.67,650.67,259.67,659.67" style="stroke:#181818;stroke-width:1.0;"/><text fill="#000000" font-family="sans-serif" font-size="13" lengthAdjust="spacing" textLength="139" x="439.57" y="363.0283">PropertyTypeRepository</text></g><!--link CreatePropertyController to StoreRepository--><g id="link_CreatePropertyController_StoreRepository"><path codeLine="170" d="M1729.83,427.12 C1729.83,427.12 1729.83,654.65 1729.83,654.65 " fill="none" id="CreatePropertyController-to-StoreRepository" style="stroke:#181818;stroke-width:1.0;stroke-dasharray:7.0,7.0;"/><polygon fill="#181818" points="1729.83,659.65,1733.83,650.65,1729.83,654.65,1725.83,650.65,1729.83,659.65" style="stroke:#181818;stroke-width:1.0;"/><text fill="#000000" font-family="sans-serif" font-size="13" lengthAdjust="spacing" textLength="93" x="1635.83" y="536.9183">StoreRepository</text></g><!--link CreatePropertyController to EmployeeRepository--><g id="link_CreatePropertyController_EmployeeRepository"><path codeLine="171" d="M1187.4,397 C932.71,397 608.33,397 608.33,397 C608.33,397 608.33,654.7 608.33,654.7 " fill="none" id="CreatePropertyController-to-EmployeeRepository" style="stroke:#181818;stroke-width:1.0;stroke-dasharray:7.0,7.0;"/><polygon fill="#181818" points="608.33,659.7,612.33,650.7,608.33,654.7,604.33,650.7,608.33,659.7" style="stroke:#181818;stroke-width:1.0;"/><text fill="#000000" font-family="sans-serif" font-size="13" lengthAdjust="spacing" textLength="120" x="648.02" y="393.0283">EmployeeRepository</text></g><!--link CreatePropertyController to ClientRepository--><g id="link_CreatePropertyController_ClientRepository"><path codeLine="172" d="M1198.75,427.12 C1198.75,427.12 1198.75,663.91 1198.75,663.91 " fill="none" id="CreatePropertyController-to-ClientRepository" style="stroke:#181818;stroke-width:1.0;stroke-dasharray:7.0,7.0;"/><polygon fill="#181818" points="1198.75,668.91,1202.75,659.91,1198.75,663.91,1194.75,659.91,1198.75,668.91" style="stroke:#181818;stroke-width:1.0;"/><text fill="#000000" font-family="sans-serif" font-size="13" lengthAdjust="spacing" textLength="95" x="1102.75" y="541.5483">ClientRepository</text></g><!--link ApplicationSession to UserSession--><g id="link_ApplicationSession_UserSession"><path codeLine="175" d="M1913.06,530 C1960.47,530 2012.67,530 2012.67,530 C2012.67,530 2012.67,663.83 2012.67,663.83 " fill="none" id="ApplicationSession-to-UserSession" style="stroke:#181818;stroke-width:1.0;"/><polygon fill="#181818" points="2012.67,668.83,2016.67,659.83,2012.67,663.83,2008.67,659.83,2012.67,668.83" style="stroke:#181818;stroke-width:1.0;"/><text fill="#000000" font-family="sans-serif" font-size="13" lengthAdjust="spacing" textLength="72" x="1939.67" y="562.1383">userSession</text><text fill="#000000" font-family="sans-serif" font-size="13" lengthAdjust="spacing" textLength="7" x="2001.2738" y="657.622">1</text></g><!--link CreatePropertyController to ApplicationSession--><g id="link_CreatePropertyController_ApplicationSession"><path codeLine="177" d="M1774.75,427.18 C1774.75,427.18 1774.75,481.92 1774.75,481.92 " fill="none" id="CreatePropertyController-to-ApplicationSession" style="stroke:#181818;stroke-width:1.0;stroke-dasharray:7.0,7.0;"/><polygon fill="#181818" points="1774.75,486.92,1778.75,477.92,1774.75,481.92,1770.75,477.92,1774.75,486.92" style="stroke:#181818;stroke-width:1.0;"/></g><!--link CreatePropertyController to UserSession--><g id="link_CreatePropertyController_UserSession"><path codeLine="178" d="M1787.87,217 C1921.98,217 2050.33,217 2050.33,217 C2050.33,217 2050.33,663.75 2050.33,663.75 " fill="none" id="CreatePropertyController-to-UserSession" style="stroke:#181818;stroke-width:1.0;stroke-dasharray:7.0,7.0;"/><polygon fill="#181818" points="2050.33,668.75,2054.33,659.75,2050.33,663.75,2046.33,659.75,2050.33,668.75" style="stroke:#181818;stroke-width:1.0;"/></g><!--link Property to Client--><g id="link_Property_Client"><path codeLine="179" d="M908.54,1350 C996.53,1350 1080.12,1350 1080.12,1350 C1080.12,1350 1080.12,1350.24 1080.12,1350.24 " fill="none" id="Property-to-Client" style="stroke:#181818;stroke-width:1.0;"/><polygon fill="#181818" points="1080.12,1352.45,1084.12,1343.45,1080.12,1347.45,1076.12,1343.45,1080.12,1352.45" style="stroke:#181818;stroke-width:1.0;"/><text fill="#000000" font-family="sans-serif" font-size="13" lengthAdjust="spacing" textLength="59" x="934.45" y="1346.0283">createdBy</text></g><!--reverse link Property to Land--><g id="link_Property_Land"><path codeLine="180" d="M634,1467.15 C634,1467.15 634,1912.26 634,1912.26 " fill="none" id="Property-backto-Land" style="stroke:#181818;stroke-width:1.0;stroke-dasharray:7.0,7.0;"/><polygon fill="none" points="627,1467.15,634,1447.15,641,1467.15,627,1467.15" style="stroke:#181818;stroke-width:1.0;"/></g><!--reverse link Property to Inhabitable--><g id="link_Property_Inhabitable"><path codeLine="181" d="M850.25,1467.15 C850.25,1467.15 850.25,1893.98 850.25,1893.98 " fill="none" id="Property-backto-Inhabitable" style="stroke:#181818;stroke-width:1.0;stroke-dasharray:7.0,7.0;"/><polygon fill="none" points="843.25,1467.15,850.25,1447.15,857.25,1467.15,843.25,1467.15" style="stroke:#181818;stroke-width:1.0;"/></g><!--reverse link Person to Employee--><g id="link_Person_Employee"><path codeLine="182" d="M871.5,994.42 C871.5,994.42 871.5,1058 871.5,1058 C871.5,1058 695.3,1058 608.58,1058 " fill="none" id="Person-backto-Employee" style="stroke:#181818;stroke-width:1.0;stroke-dasharray:7.0,7.0;"/><polygon fill="none" points="864.5,994.42,871.5,974.42,878.5,994.42,864.5,994.42" style="stroke:#181818;stroke-width:1.0;"/></g><!--reverse link Employee to Agent--><g id="link_Employee_Agent"><path codeLine="183" d="M577.17,1102.16 C577.17,1102.16 577.17,1276 577.17,1276 C577.17,1276 967,1276 967,1276 C967,1276 967,1322.7 967,1352.43 " fill="none" id="Employee-backto-Agent" style="stroke:#181818;stroke-width:1.0;stroke-dasharray:7.0,7.0;"/><polygon fill="none" points="570.17,1102.16,577.17,1082.16,584.17,1102.16,570.17,1102.16" style="stroke:#181818;stroke-width:1.0;"/></g><!--reverse link Employee to Role--><g id="link_Employee_Role"><path codeLine="184" d="M509.42,1058 C509.42,1058 464.5,1058 464.5,1058 C464.5,1058 464.5,1111.46 464.5,1151.34 " fill="none" id="Employee-backto-Role" style="stroke:#181818;stroke-width:1.0;"/><polygon fill="#181818" points="514.42,1058,505.42,1054,509.42,1058,505.42,1062,514.42,1058" style="stroke:#181818;stroke-width:1.0;"/><text fill="#000000" font-family="sans-serif" font-size="13" lengthAdjust="spacing" textLength="21" x="442.5" y="1078.2383">role</text><text fill="#000000" font-family="sans-serif" font-size="13" lengthAdjust="spacing" textLength="7" x="499.3588" y="1053.6968">1</text><text fill="#000000" font-family="sans-serif" font-size="13" lengthAdjust="spacing" textLength="7" x="460.1297" y="1140.2186">1</text></g><!--reverse link Person to Client--><g id="link_Person_Client"><path codeLine="185" d="M976.04,904 C976.04,904 1117.17,904 1117.17,904 C1117.17,904 1117.17,1256.13 1117.17,1352.42 " fill="none" id="Person-backto-Client" style="stroke:#181818;stroke-width:1.0;stroke-dasharray:7.0,7.0;"/><polygon fill="none" points="976.04,911,956.04,904,976.04,897,976.04,911" style="stroke:#181818;stroke-width:1.0;"/></g><!--reverse link Inhabitable to Apartment--><g id="link_Inhabitable_Apartment"><path codeLine="186" d="M833.75,2036.14 C833.75,2036.14 833.75,2113.3 833.75,2113.3 " fill="none" id="Inhabitable-backto-Apartment" style="stroke:#181818;stroke-width:1.0;stroke-dasharray:7.0,7.0;"/><polygon fill="none" points="826.75,2036.14,833.75,2016.14,840.75,2036.14,826.75,2036.14" style="stroke:#181818;stroke-width:1.0;"/></g><!--reverse link Inhabitable to House--><g id="link_Inhabitable_House"><path codeLine="187" d="M951.75,2036.14 C951.75,2036.14 951.75,2075.82 951.75,2075.82 " fill="none" id="Inhabitable-backto-House" style="stroke:#181818;stroke-width:1.0;stroke-dasharray:7.0,7.0;"/><polygon fill="none" points="944.75,2036.14,951.75,2016.14,958.75,2036.14,944.75,2036.14" style="stroke:#181818;stroke-width:1.0;"/></g><!--reverse link Address to Property--><g id="link_Address_Property"><path codeLine="189" d="M762.25,778.36 C762.25,778.36 762.25,1112 762.25,1112 C762.25,1112 545.83,1112 545.83,1112 C545.83,1112 545.83,1227.61 545.83,1305.97 " fill="none" id="Address-backto-Property" style="stroke:#181818;stroke-width:1.0;"/><polygon fill="#181818" points="762.25,773.36,758.25,782.36,762.25,778.36,766.25,782.36,762.25,773.36" style="stroke:#181818;stroke-width:1.0;"/><text fill="#000000" font-family="sans-serif" font-size="13" lengthAdjust="spacing" textLength="46" x="676.88" y="1108.0283">address</text></g><!--reverse link Address to Person--><g id="link_Address_Person"><path codeLine="190" d="M871.5,778.08 C871.5,778.08 871.5,832.75 871.5,832.75 " fill="none" id="Address-backto-Person" style="stroke:#181818;stroke-width:1.0;"/><polygon fill="#181818" points="871.5,773.08,867.5,782.08,871.5,778.08,875.5,782.08,871.5,773.08" style="stroke:#181818;stroke-width:1.0;"/><text fill="#000000" font-family="sans-serif" font-size="13" lengthAdjust="spacing" textLength="46" x="824.5" y="801.4483">address</text></g><!--reverse link Address to Store--><g id="link_Address_Store"><path codeLine="191" d="M1010.62,759 C1010.62,759 1162.75,759 1162.75,759 C1162.75,759 1162.75,1244.39 1162.75,1506.75 " fill="none" id="Address-backto-Store" style="stroke:#181818;stroke-width:1.0;"/><polygon fill="#181818" points="1005.62,759,1014.62,763,1010.62,759,1014.62,755,1005.62,759" style="stroke:#181818;stroke-width:1.0;"/><text fill="#000000" font-family="sans-serif" font-size="13" lengthAdjust="spacing" textLength="46" x="1115.75" y="1071.8383">address</text></g><!--SRC=[vLX9Zzis5BxhLn2vnDFOHdir1WPiPu8EC2Y2SNBBXPOOcuXCgYJLnfdql_TnaqcAqdYoD2sQG-AydH_V9ZwN7oXhiC17TEICbmV1ZmGfqPBYp6bm-G7loLQTQe84AHLc-peKa0TSyJyfswUQDML4dHg2k507NWISiiPIhfGITDSgSbjojgMV2FgvA9xNvBr2YYD1zmU5AgezKiwAmkYWLTFKjCIQj2LIQiv3WU3F2oGLa4kq9-gMmMzMaicLOm5jqmf1c79AmFdBMRmvDZK_4VBW2Myb4QbjCA39DqTCQwFhP5yJ8Jb3Lco6jd0Ym87X8t6KMwR8dWX0KSe6SFYjFUw8YCKL_fWZ4-qiDNFWZ3XX7- -ggWI4cyGWbI14ELxAmYgDxnDjDhmYiM19rSa1u0nD8hDJQshkjS-WlXQy8KATEcHUrHmhr0XQaeY21S4HeQBsxjxm3LoNyD9tGBwsOIqr2ehl1MuEqjyzOTMACTw2vX7qxidlBP5gicib9A6KRo0Df-3UHZL5aD1CdSEzPGUyemhl8CKV4cHsf1AS7wCRwdXO7GQPaEgGyFij51291AApGA2qqI5hQXVG7MOLyicd_pCnq4qDNl2tm_yTI-6QXk1CeT0eaATISH7SpWf2KzfdvwAZVA6V22GGZu6PHbXeSz6fkp1H4kUll9Nd2rbpNXFCq07BDPRcclkSE_vU9TdUifkF3PUjowKNrko_uA303iuozU5Fmv1Dht5mh8DaJggz8h8Kj36TCgt1HyKpvky9kASGv0a5BJ2KM9zUder4THRGh_AwSdALZJBlDPI8lJO19-yrr0szRZN-PtU1DyE9tPZBojitqZAS27wSP8slTDkHhs3C6iM9o_UO7pitdIfothdQc6JAEhAizSaEB3D90iLEXHBPbLT830VdUPYYHIIKlzjpE9E1UyXBf8UPf2ZdMNsumylOG74hufrlE1GqhslepHwg8O79IEOE9bS_AyOlVYIbBax0hod9hociYpBL9bPtkURutVvbJPNH1UIRCXhloUzO6AxlhNR4-uxxJTt5Cm2DZG1FYyV0FnpnauQMeoLpwz4vbPmfI0Dtl8YIEs9kVTCR-yjMOAirkinTRlH2Czsor3VHsn73EFr6zMJFSVoFmd6PiMZWeVuQGFVi7FN5dnu_e7R_c_NxFwdXxrR7twYMPnhc07_xmm-eFt1Dg_Y2lC309l7s5ah9bzOzV7oa3O5Memjtj83Dbl52ja3KhLn5_xL3IsUeWKxH2tN-UJcuw2InNC-7TwO5jBbW-qiE0N4z- -NPm4T4NZQ_5EPbanKmBzHV1lDowQvP37pwQ5cZyrDyC80YJBmYDoAqpcp6Uw0yLTSiMg1aClfHQNio4BUP_wXyzqwpw8gdw6WvGNU4i4yK0vzm5Zq7tvX-ShUneXrS2zk02ej665ZCpyOUY_IJ97Re-Q10tCyYJPXO8mMz62oX-No-7FhENWpLphYr0V0NGzKrRYszYaMlyCRrC-0kScKvRgK7zw9ViaMsERe23vvmGRSD7dJ7FESwwxXy-5JSfTvi6MI4qQxMGLLTVuOpcZUzb1QyGXRkOLapElowr7NofXZEH7tmwzdC_AjdacxOF3O5IZQq8dpnD4ww5y0-oxoN0TvsKz4-m4lGETmA4mhuX_4iKwlxclJilm40]--></g></svg>