<?xml version="1.0" encoding="us-ascii" standalone="no"?><svg xmlns="http://www.w3.org/2000/svg" xmlns:xlink="http://www.w3.org/1999/xlink" contentStyleType="text/css" height="374.4px" preserveAspectRatio="none" style="width:1163px;height:374px;background:#FFFFFF;" version="1.1" viewBox="0 0 1163 374" width="1163.7px" zoomAndPan="magnify"><defs/><g><rect fill="#FFFFFF" height="226.8686" style="stroke:#181818;stroke-width:0.9;" width="9" x="568.8" y="81.4799"/><rect fill="#FFFFFF" height="117.7857" style="stroke:#181818;stroke-width:0.9;" width="9" x="573.3" y="156.1008"/><rect fill="#FFFFFF" height="38.0619" style="stroke:#181818;stroke-width:0.9;" width="9" x="577.8" y="195.9627"/><line style="stroke:#181818;stroke-width:0.45;stroke-dasharray:5.0,5.0;" x1="573.3" x2="573.3" y1="51.518" y2="324.5484"/><line style="stroke:#181818;stroke-width:0.45;stroke-dasharray:5.0,5.0;" x1="1137.6" x2="1137.6" y1="117.3094" y2="324.5484"/><rect fill="#E3E3E3" height="46.118" rx="2.25" ry="2.25" style="stroke:#181818;stroke-width:0.45;" width="45" x="550.8" y="4.5"/><text fill="#000000" font-family="sans-serif" font-size="12.6" lengthAdjust="spacing" textLength="32.4" x="557.1" y="24.3967">store:</text><text fill="#000000" font-family="sans-serif" font-size="12.6" lengthAdjust="spacing" textLength="30.6" x="558" y="41.1557">Store</text><rect fill="#E3E3E3" height="46.118" rx="2.25" ry="2.25" style="stroke:#181818;stroke-width:0.45;" width="45" x="550.8" y="323.6484"/><text fill="#000000" font-family="sans-serif" font-size="12.6" lengthAdjust="spacing" textLength="32.4" x="557.1" y="343.5451">store:</text><text fill="#000000" font-family="sans-serif" font-size="12.6" lengthAdjust="spacing" textLength="30.6" x="558" y="360.3041">Store</text><rect fill="#E3E3E3" height="29.359" rx="2.25" ry="2.25" style="stroke:#181818;stroke-width:0.45;" width="41.4" x="1116.9" y="323.6484"/><text fill="#000000" font-family="sans-serif" font-size="12.6" lengthAdjust="spacing" textLength="28.8" x="1123.2" y="343.5451">Land</text><rect fill="#FFFFFF" height="226.8686" style="stroke:#181818;stroke-width:0.9;" width="9" x="568.8" y="81.4799"/><rect fill="#FFFFFF" height="117.7857" style="stroke:#181818;stroke-width:0.9;" width="9" x="573.3" y="156.1008"/><rect fill="#FFFFFF" height="38.0619" style="stroke:#181818;stroke-width:0.9;" width="9" x="577.8" y="195.9627"/><polygon fill="#181818" points="558,77.8799,567,81.4799,558,85.0799,561.6,81.4799" style="stroke:#181818;stroke-width:0.9;"/><line style="stroke:#181818;stroke-width:0.9;" x1="0" x2="563.4" y1="81.4799" y2="81.4799"/><text fill="#000000" font-family="sans-serif" font-size="11.7" font-weight="bold" lengthAdjust="spacing" textLength="12.6" x="6.3" y="76.7435">36</text><text fill="#000000" font-family="sans-serif" font-size="11.7" lengthAdjust="spacing" textLength="535.5" x="22.5" y="76.7435">createProperty(price, area, address, distanceToCentre, photographs, propertyType, store, agent, client)</text><polygon fill="#181818" points="1106.1,106.0418,1115.1,109.6418,1106.1,113.2418,1109.7,109.6418" style="stroke:#181818;stroke-width:0.9;"/><line style="stroke:#181818;stroke-width:0.9;" x1="577.8" x2="1111.5" y1="109.6418" y2="109.6418"/><text fill="#000000" font-family="sans-serif" font-size="11.7" font-weight="bold" lengthAdjust="spacing" textLength="22.5" x="584.1" y="104.9054">36.1</text><text fill="#000000" font-family="sans-serif" font-size="11.7" lengthAdjust="spacing" textLength="491.4" x="610.2" y="104.9054">create(price, area, address, distanceToCentre, photographs, propertyType, store, agent, client)</text><rect fill="#E3E3E3" height="29.359" rx="2.25" ry="2.25" style="stroke:#181818;stroke-width:0.45;" width="41.4" x="1116.9" y="88.6799"/><text fill="#000000" font-family="sans-serif" font-size="12.6" lengthAdjust="spacing" textLength="28.8" x="1123.2" y="108.5766">Land</text><line style="stroke:#181818;stroke-width:0.9;" x1="577.8" x2="620.1" y1="144.4008" y2="144.4008"/><line style="stroke:#181818;stroke-width:0.9;" x1="620.1" x2="620.1" y1="144.4008" y2="156.1008"/><line style="stroke:#181818;stroke-width:0.9;" x1="583.2" x2="620.1" y1="156.1008" y2="156.1008"/><polygon fill="#181818" points="592.2,152.5008,583.2,156.1008,592.2,159.7008,588.6,156.1008" style="stroke:#181818;stroke-width:0.9;"/><text fill="#000000" font-family="sans-serif" font-size="11.7" font-weight="bold" lengthAdjust="spacing" textLength="22.5" x="588.6" y="139.6644">36.2</text><text fill="#000000" font-family="sans-serif" font-size="11.7" lengthAdjust="spacing" textLength="112.5" x="614.7" y="139.6644">addProperty(property)</text><line style="stroke:#181818;stroke-width:0.9;" x1="582.3" x2="624.6" y1="184.2627" y2="184.2627"/><line style="stroke:#181818;stroke-width:0.9;" x1="624.6" x2="624.6" y1="184.2627" y2="195.9627"/><line style="stroke:#181818;stroke-width:0.9;" x1="587.7" x2="624.6" y1="195.9627" y2="195.9627"/><polygon fill="#181818" points="596.7,192.3627,587.7,195.9627,596.7,199.5627,593.1,195.9627" style="stroke:#181818;stroke-width:0.9;"/><text fill="#000000" font-family="sans-serif" font-size="11.7" font-weight="bold" lengthAdjust="spacing" textLength="22.5" x="593.1" y="179.5263">36.3</text><text fill="#000000" font-family="sans-serif" font-size="11.7" lengthAdjust="spacing" textLength="132.3" x="619.2" y="179.5263">validateProperty(property)</text><line style="stroke:#181818;stroke-width:0.9;stroke-dasharray:2.0,2.0;" x1="586.8" x2="624.6" y1="233.1246" y2="233.1246"/><line style="stroke:#181818;stroke-width:0.9;stroke-dasharray:2.0,2.0;" x1="624.6" x2="624.6" y1="233.1246" y2="244.8246"/><line style="stroke:#181818;stroke-width:0.9;stroke-dasharray:2.0,2.0;" x1="582.3" x2="624.6" y1="244.8246" y2="244.8246"/><polygon fill="#181818" points="591.3,241.2246,582.3,244.8246,591.3,248.4246,587.7,244.8246" style="stroke:#181818;stroke-width:0.9;"/><text fill="#000000" font-family="sans-serif" font-size="11.7" font-weight="bold" lengthAdjust="spacing" textLength="22.5" x="593.1" y="228.3882">36.4</text><text fill="#000000" font-family="sans-serif" font-size="11.7" lengthAdjust="spacing" textLength="3.6" x="619.2" y="228.3882">&#160;</text><line style="stroke:#181818;stroke-width:0.9;stroke-dasharray:2.0,2.0;" x1="582.3" x2="620.1" y1="272.9865" y2="272.9865"/><line style="stroke:#181818;stroke-width:0.9;stroke-dasharray:2.0,2.0;" x1="620.1" x2="620.1" y1="272.9865" y2="284.6865"/><line style="stroke:#181818;stroke-width:0.9;stroke-dasharray:2.0,2.0;" x1="577.8" x2="620.1" y1="284.6865" y2="284.6865"/><polygon fill="#181818" points="586.8,281.0865,577.8,284.6865,586.8,288.2865,583.2,284.6865" style="stroke:#181818;stroke-width:0.9;"/><text fill="#000000" font-family="sans-serif" font-size="11.7" font-weight="bold" lengthAdjust="spacing" textLength="22.5" x="588.6" y="268.2501">36.5</text><text fill="#000000" font-family="sans-serif" font-size="11.7" lengthAdjust="spacing" textLength="3.6" x="614.7" y="268.2501">&#160;</text><polygon fill="#181818" points="9.9,304.7484,0.9,308.3484,9.9,311.9484,6.3,308.3484" style="stroke:#181818;stroke-width:0.9;"/><line style="stroke:#181818;stroke-width:0.9;stroke-dasharray:2.0,2.0;" x1="4.5" x2="572.4" y1="308.3484" y2="308.3484"/><text fill="#000000" font-family="sans-serif" font-size="11.7" font-weight="bold" lengthAdjust="spacing" textLength="12.6" x="15.3" y="303.612">37</text><text fill="#000000" font-family="sans-serif" font-size="11.7" lengthAdjust="spacing" textLength="42.3" x="31.5" y="303.612">property</text><!--SRC=[nLB1IWCn4BtdAuPUrB8LH50euiLhmTBsw6MQJ7T3TpDXabRxzsQpMdQhO174EMn2tdlptYGRjjPv56oWOSUw4cu8ekn8XIFYKM-nf6Kyr0H2Eg8hwpuXL6ZurReIDbW7KWftaTskMPF0xPrI5vKr11lckEOtbJJHQklHHHY5o4BJ5xTirn5WWELgCQJCq9cCpEQBvxbI2jgQFBRCAMWXZ3GNzYJnSEd5QYe0qsdw6YCKGW76XXHQqugVo4L915znv5BGLmds7-hLmISeHqhYCb4BqBLDwrLd-dsXZdQVGkJecJYO__fc84waDdmUPZp-7E1VWlVpvCjClhsRx3O_TnZC3sTKttAFjJN35ppNzrVUH_ykm5aQGtzkSsAXllv7zztHmsII6yFq-FeTSDhX7G00]--></g></svg>