<?xml version="1.0" encoding="us-ascii" standalone="no"?><svg xmlns="http://www.w3.org/2000/svg" xmlns:xlink="http://www.w3.org/1999/xlink" contentStyleType="text/css" height="541.8px" preserveAspectRatio="none" style="width:801px;height:541px;background:#FFFFFF;" version="1.1" viewBox="0 0 801 541" width="801px" zoomAndPan="magnify"><defs/><g><rect fill="#FFFFFF" height="394.2668" style="stroke:#181818;stroke-width:0.9;" width="9" x="155.7" y="81.4799"/><rect fill="#FFFFFF" height="28.1619" style="stroke:#181818;stroke-width:0.9;" width="9" x="296.1" y="306.7752"/><rect fill="#FFFFFF" height="28.1619" style="stroke:#181818;stroke-width:0.9;" width="9" x="392.4" y="363.099"/><rect fill="#FFFFFF" height="28.1619" style="stroke:#181818;stroke-width:0.9;" width="9" x="608.4" y="137.8037"/><rect fill="#FFFFFF" height="28.1619" style="stroke:#181818;stroke-width:0.9;" width="9" x="657.9" y="194.1275"/><rect fill="#FFFFFF" height="28.1619" style="stroke:#181818;stroke-width:0.9;" width="9" x="718.2" y="250.4514"/><rect fill="#FFFFFF" height="28.1619" style="stroke:#181818;stroke-width:0.9;" width="9" x="775.8" y="419.4229"/><line style="stroke:#181818;stroke-width:0.45;stroke-dasharray:5.0,5.0;" x1="159.75" x2="159.75" y1="51.518" y2="491.9467"/><line style="stroke:#181818;stroke-width:0.45;stroke-dasharray:5.0,5.0;" x1="300.15" x2="300.15" y1="51.518" y2="491.9467"/><line style="stroke:#181818;stroke-width:0.45;stroke-dasharray:5.0,5.0;" x1="396.45" x2="396.45" y1="51.518" y2="491.9467"/><line style="stroke:#181818;stroke-width:0.45;stroke-dasharray:5.0,5.0;" x1="515.25" x2="515.25" y1="51.518" y2="491.9467"/><line style="stroke:#181818;stroke-width:0.45;stroke-dasharray:5.0,5.0;" x1="612.45" x2="612.45" y1="51.518" y2="491.9467"/><line style="stroke:#181818;stroke-width:0.45;stroke-dasharray:5.0,5.0;" x1="661.95" x2="661.95" y1="51.518" y2="491.9467"/><line style="stroke:#181818;stroke-width:0.45;stroke-dasharray:5.0,5.0;" x1="722.25" x2="722.25" y1="51.518" y2="491.9467"/><line style="stroke:#181818;stroke-width:0.45;stroke-dasharray:5.0,5.0;" x1="779.85" x2="779.85" y1="51.518" y2="491.9467"/><rect fill="#E3E3E3" height="29.359" rx="2.25" ry="2.25" style="stroke:#181818;stroke-width:0.45;" width="175.5" x="72.45" y="21.259"/><text fill="#000000" font-family="sans-serif" font-size="12.6" lengthAdjust="spacing" textLength="162.9" x="78.75" y="41.1557">:RegisterEmployeeController</text><rect fill="#E3E3E3" height="29.359" rx="2.25" ry="2.25" style="stroke:#181818;stroke-width:0.45;" width="175.5" x="72.45" y="491.0467"/><text fill="#000000" font-family="sans-serif" font-size="12.6" lengthAdjust="spacing" textLength="162.9" x="78.75" y="510.9434">:RegisterEmployeeController</text><rect fill="#E3E3E3" height="29.359" rx="2.25" ry="2.25" style="stroke:#181818;stroke-width:0.45;" width="87.3" x="256.95" y="21.259"/><text fill="#000000" font-family="sans-serif" font-size="12.6" lengthAdjust="spacing" textLength="74.7" x="263.25" y="41.1557">:Repositories</text><rect fill="#E3E3E3" height="29.359" rx="2.25" ry="2.25" style="stroke:#181818;stroke-width:0.45;" width="87.3" x="256.95" y="491.0467"/><text fill="#000000" font-family="sans-serif" font-size="12.6" lengthAdjust="spacing" textLength="74.7" x="263.25" y="510.9434">:Repositories</text><rect fill="#E3E3E3" height="46.118" rx="2.25" ry="2.25" style="stroke:#181818;stroke-width:0.45;" width="87.3" x="353.25" y="4.5"/><text fill="#000000" font-family="sans-serif" font-size="12.6" lengthAdjust="spacing" textLength="66.6" x="363.6" y="24.3967">repositories</text><text fill="#000000" font-family="sans-serif" font-size="12.6" lengthAdjust="spacing" textLength="74.7" x="359.55" y="41.1557">:Repositories</text><rect fill="#E3E3E3" height="46.118" rx="2.25" ry="2.25" style="stroke:#181818;stroke-width:0.45;" width="87.3" x="353.25" y="491.0467"/><text fill="#000000" font-family="sans-serif" font-size="12.6" lengthAdjust="spacing" textLength="66.6" x="363.6" y="510.9434">repositories</text><text fill="#000000" font-family="sans-serif" font-size="12.6" lengthAdjust="spacing" textLength="74.7" x="359.55" y="527.7023">:Repositories</text><rect fill="#E3E3E3" height="46.118" rx="2.25" ry="2.25" style="stroke:#181818;stroke-width:0.45;" width="132.3" x="449.55" y="4.5"/><text fill="#000000" font-family="sans-serif" font-size="12.6" lengthAdjust="spacing" textLength="119.7" x="455.85" y="24.3967">employeeRepository:</text><text fill="#000000" font-family="sans-serif" font-size="12.6" lengthAdjust="spacing" textLength="117" x="457.2" y="41.1557">EmployeeRepository</text><rect fill="#E3E3E3" height="46.118" rx="2.25" ry="2.25" style="stroke:#181818;stroke-width:0.45;" width="132.3" x="449.55" y="491.0467"/><text fill="#000000" font-family="sans-serif" font-size="12.6" lengthAdjust="spacing" textLength="119.7" x="455.85" y="510.9434">employeeRepository:</text><text fill="#000000" font-family="sans-serif" font-size="12.6" lengthAdjust="spacing" textLength="117" x="457.2" y="527.7023">EmployeeRepository</text><rect fill="#E3E3E3" height="29.359" rx="2.25" ry="2.25" style="stroke:#181818;stroke-width:0.45;" width="44.1" x="590.85" y="21.259"/><text fill="#000000" font-family="sans-serif" font-size="12.6" lengthAdjust="spacing" textLength="31.5" x="597.15" y="41.1557">_APP</text><rect fill="#E3E3E3" height="29.359" rx="2.25" ry="2.25" style="stroke:#181818;stroke-width:0.45;" width="44.1" x="590.85" y="491.0467"/><text fill="#000000" font-family="sans-serif" font-size="12.6" lengthAdjust="spacing" textLength="31.5" x="597.15" y="510.9434">_APP</text><rect fill="#E3E3E3" height="29.359" rx="2.25" ry="2.25" style="stroke:#181818;stroke-width:0.45;" width="36.9" x="643.95" y="21.259"/><text fill="#000000" font-family="sans-serif" font-size="12.6" lengthAdjust="spacing" textLength="24.3" x="650.25" y="41.1557">APP</text><rect fill="#E3E3E3" height="29.359" rx="2.25" ry="2.25" style="stroke:#181818;stroke-width:0.45;" width="36.9" x="643.95" y="491.0467"/><text fill="#000000" font-family="sans-serif" font-size="12.6" lengthAdjust="spacing" textLength="24.3" x="650.25" y="510.9434">APP</text><rect fill="#E3E3E3" height="29.359" rx="2.25" ry="2.25" style="stroke:#181818;stroke-width:0.45;" width="65.7" x="689.85" y="21.259"/><text fill="#000000" font-family="sans-serif" font-size="12.6" lengthAdjust="spacing" textLength="53.1" x="696.15" y="41.1557">SESSION</text><rect fill="#E3E3E3" height="29.359" rx="2.25" ry="2.25" style="stroke:#181818;stroke-width:0.45;" width="65.7" x="689.85" y="491.0467"/><text fill="#000000" font-family="sans-serif" font-size="12.6" lengthAdjust="spacing" textLength="53.1" x="696.15" y="510.9434">SESSION</text><rect fill="#E3E3E3" height="29.359" rx="2.25" ry="2.25" style="stroke:#181818;stroke-width:0.45;" width="31.5" x="764.55" y="21.259"/><text fill="#000000" font-family="sans-serif" font-size="12.6" lengthAdjust="spacing" textLength="18.9" x="770.85" y="41.1557">CLI</text><rect fill="#E3E3E3" height="29.359" rx="2.25" ry="2.25" style="stroke:#181818;stroke-width:0.45;" width="31.5" x="764.55" y="491.0467"/><text fill="#000000" font-family="sans-serif" font-size="12.6" lengthAdjust="spacing" textLength="18.9" x="770.85" y="510.9434">CLI</text><rect fill="#FFFFFF" height="394.2668" style="stroke:#181818;stroke-width:0.9;" width="9" x="155.7" y="81.4799"/><rect fill="#FFFFFF" height="28.1619" style="stroke:#181818;stroke-width:0.9;" width="9" x="296.1" y="306.7752"/><rect fill="#FFFFFF" height="28.1619" style="stroke:#181818;stroke-width:0.9;" width="9" x="392.4" y="363.099"/><rect fill="#FFFFFF" height="28.1619" style="stroke:#181818;stroke-width:0.9;" width="9" x="608.4" y="137.8037"/><rect fill="#FFFFFF" height="28.1619" style="stroke:#181818;stroke-width:0.9;" width="9" x="657.9" y="194.1275"/><rect fill="#FFFFFF" height="28.1619" style="stroke:#181818;stroke-width:0.9;" width="9" x="718.2" y="250.4514"/><rect fill="#FFFFFF" height="28.1619" style="stroke:#181818;stroke-width:0.9;" width="9" x="775.8" y="419.4229"/><polygon fill="#181818" points="144.9,77.8799,153.9,81.4799,144.9,85.0799,148.5,81.4799" style="stroke:#181818;stroke-width:0.9;"/><line style="stroke:#181818;stroke-width:0.9;" x1="0" x2="150.3" y1="81.4799" y2="81.4799"/><text fill="#000000" font-family="sans-serif" font-size="11.7" font-weight="bold" lengthAdjust="spacing" textLength="12.6" x="6.3" y="76.7435">33</text><text fill="#000000" font-family="sans-serif" font-size="11.7" lengthAdjust="spacing" textLength="122.4" x="22.5" y="76.7435">getClientFromSession()</text><polygon fill="#181818" points="289.8,106.0418,298.8,109.6418,289.8,113.2418,293.4,109.6418" style="stroke:#181818;stroke-width:0.9;"/><line style="stroke:#181818;stroke-width:0.9;" x1="164.7" x2="295.2" y1="109.6418" y2="109.6418"/><text fill="#000000" font-family="sans-serif" font-size="11.7" font-weight="bold" lengthAdjust="spacing" textLength="22.5" x="171" y="104.9054">33.1</text><text fill="#000000" font-family="sans-serif" font-size="11.7" lengthAdjust="spacing" textLength="67.5" x="197.1" y="104.9054">getInstance()</text><polygon fill="#181818" points="597.6,134.2037,606.6,137.8037,597.6,141.4037,601.2,137.8037" style="stroke:#181818;stroke-width:0.9;"/><line style="stroke:#181818;stroke-width:0.9;" x1="164.7" x2="603" y1="137.8037" y2="137.8037"/><text fill="#000000" font-family="sans-serif" font-size="11.7" font-weight="bold" lengthAdjust="spacing" textLength="22.5" x="171" y="133.0673">33.2</text><text fill="#000000" font-family="sans-serif" font-size="11.7" lengthAdjust="spacing" textLength="67.5" x="197.1" y="133.0673">getInstance()</text><polygon fill="#181818" points="174.6,162.3656,165.6,165.9656,174.6,169.5656,171,165.9656" style="stroke:#181818;stroke-width:0.9;"/><line style="stroke:#181818;stroke-width:0.9;" x1="169.2" x2="612" y1="165.9656" y2="165.9656"/><text fill="#000000" font-family="sans-serif" font-size="11.7" font-weight="bold" lengthAdjust="spacing" textLength="22.5" x="180" y="161.2292">33.3</text><text fill="#000000" font-family="sans-serif" font-size="11.7" lengthAdjust="spacing" textLength="61.2" x="206.1" y="161.2292">appSession</text><polygon fill="#181818" points="647.1,190.5275,656.1,194.1275,647.1,197.7275,650.7,194.1275" style="stroke:#181818;stroke-width:0.9;"/><line style="stroke:#181818;stroke-width:0.9;" x1="164.7" x2="652.5" y1="194.1275" y2="194.1275"/><text fill="#000000" font-family="sans-serif" font-size="11.7" font-weight="bold" lengthAdjust="spacing" textLength="22.5" x="171" y="189.3911">33.4</text><text fill="#000000" font-family="sans-serif" font-size="11.7" lengthAdjust="spacing" textLength="103.5" x="197.1" y="189.3911">getCurrentSession()</text><polygon fill="#181818" points="174.6,218.6895,165.6,222.2895,174.6,225.8895,171,222.2895" style="stroke:#181818;stroke-width:0.9;"/><line style="stroke:#181818;stroke-width:0.9;stroke-dasharray:2.0,2.0;" x1="169.2" x2="661.5" y1="222.2895" y2="222.2895"/><text fill="#000000" font-family="sans-serif" font-size="11.7" font-weight="bold" lengthAdjust="spacing" textLength="22.5" x="180" y="217.553">33.5</text><text fill="#000000" font-family="sans-serif" font-size="11.7" lengthAdjust="spacing" textLength="78.3" x="206.1" y="217.553">currentSession</text><polygon fill="#181818" points="707.4,246.8514,716.4,250.4514,707.4,254.0514,711,250.4514" style="stroke:#181818;stroke-width:0.9;"/><line style="stroke:#181818;stroke-width:0.9;" x1="164.7" x2="712.8" y1="250.4514" y2="250.4514"/><text fill="#000000" font-family="sans-serif" font-size="11.7" font-weight="bold" lengthAdjust="spacing" textLength="22.5" x="171" y="245.7149">33.6</text><text fill="#000000" font-family="sans-serif" font-size="11.7" lengthAdjust="spacing" textLength="119.7" x="197.1" y="245.7149">email = getUserEmail()</text><polygon fill="#181818" points="174.6,275.0133,165.6,278.6133,174.6,282.2133,171,278.6133" style="stroke:#181818;stroke-width:0.9;"/><line style="stroke:#181818;stroke-width:0.9;stroke-dasharray:2.0,2.0;" x1="169.2" x2="721.8" y1="278.6133" y2="278.6133"/><text fill="#000000" font-family="sans-serif" font-size="11.7" font-weight="bold" lengthAdjust="spacing" textLength="22.5" x="180" y="273.8769">33.7</text><text fill="#000000" font-family="sans-serif" font-size="11.7" lengthAdjust="spacing" textLength="27.9" x="206.1" y="273.8769">email</text><polygon fill="#181818" points="285.3,303.1752,294.3,306.7752,285.3,310.3752,288.9,306.7752" style="stroke:#181818;stroke-width:0.9;"/><line style="stroke:#181818;stroke-width:0.9;" x1="164.7" x2="290.7" y1="306.7752" y2="306.7752"/><text fill="#000000" font-family="sans-serif" font-size="11.7" font-weight="bold" lengthAdjust="spacing" textLength="22.5" x="171" y="302.0388">33.8</text><text fill="#000000" font-family="sans-serif" font-size="11.7" lengthAdjust="spacing" textLength="67.5" x="197.1" y="302.0388">getInstance()</text><polygon fill="#181818" points="174.6,331.3371,165.6,334.9371,174.6,338.5371,171,334.9371" style="stroke:#181818;stroke-width:0.9;"/><line style="stroke:#181818;stroke-width:0.9;stroke-dasharray:2.0,2.0;" x1="169.2" x2="299.7" y1="334.9371" y2="334.9371"/><text fill="#000000" font-family="sans-serif" font-size="11.7" font-weight="bold" lengthAdjust="spacing" textLength="22.5" x="180" y="330.2007">33.9</text><text fill="#000000" font-family="sans-serif" font-size="11.7" lengthAdjust="spacing" textLength="60.3" x="206.1" y="330.2007">repositories</text><polygon fill="#181818" points="381.6,359.499,390.6,363.099,381.6,366.699,385.2,363.099" style="stroke:#181818;stroke-width:0.9;"/><line style="stroke:#181818;stroke-width:0.9;" x1="164.7" x2="387" y1="363.099" y2="363.099"/><text fill="#000000" font-family="sans-serif" font-size="11.7" font-weight="bold" lengthAdjust="spacing" textLength="28.8" x="171" y="358.3626">33.10</text><text fill="#000000" font-family="sans-serif" font-size="11.7" lengthAdjust="spacing" textLength="108.9" x="203.4" y="358.3626">getClientRepository()</text><polygon fill="#181818" points="174.6,387.6609,165.6,391.2609,174.6,394.8609,171,391.2609" style="stroke:#181818;stroke-width:0.9;"/><line style="stroke:#181818;stroke-width:0.9;" x1="169.2" x2="396" y1="391.2609" y2="391.2609"/><text fill="#000000" font-family="sans-serif" font-size="11.7" font-weight="bold" lengthAdjust="spacing" textLength="28.8" x="180" y="386.5245">33.11</text><text fill="#000000" font-family="sans-serif" font-size="11.7" lengthAdjust="spacing" textLength="83.7" x="212.4" y="386.5245">clientRepository</text><polygon fill="#181818" points="765,415.8229,774,419.4229,765,423.0229,768.6,419.4229" style="stroke:#181818;stroke-width:0.9;"/><line style="stroke:#181818;stroke-width:0.9;" x1="164.7" x2="770.4" y1="419.4229" y2="419.4229"/><text fill="#000000" font-family="sans-serif" font-size="11.7" font-weight="bold" lengthAdjust="spacing" textLength="28.8" x="171" y="414.6864">33.12</text><text fill="#000000" font-family="sans-serif" font-size="11.7" lengthAdjust="spacing" textLength="167.4" x="203.4" y="414.6864">client = getClientByEmail(email)</text><polygon fill="#181818" points="174.6,443.9848,165.6,447.5848,174.6,451.1848,171,447.5848" style="stroke:#181818;stroke-width:0.9;"/><line style="stroke:#181818;stroke-width:0.9;stroke-dasharray:2.0,2.0;" x1="169.2" x2="779.4" y1="447.5848" y2="447.5848"/><text fill="#000000" font-family="sans-serif" font-size="11.7" font-weight="bold" lengthAdjust="spacing" textLength="28.8" x="180" y="442.8483">33.13</text><text fill="#000000" font-family="sans-serif" font-size="11.7" lengthAdjust="spacing" textLength="27.9" x="212.4" y="442.8483">client</text><polygon fill="#181818" points="9.9,472.1467,0.9,475.7467,9.9,479.3467,6.3,475.7467" style="stroke:#181818;stroke-width:0.9;"/><line style="stroke:#181818;stroke-width:0.9;stroke-dasharray:2.0,2.0;" x1="4.5" x2="159.3" y1="475.7467" y2="475.7467"/><text fill="#000000" font-family="sans-serif" font-size="11.7" font-weight="bold" lengthAdjust="spacing" textLength="12.6" x="15.3" y="471.0103">34</text><text fill="#000000" font-family="sans-serif" font-size="11.7" lengthAdjust="spacing" textLength="27.9" x="31.5" y="471.0103">client</text><!--SRC=[dLLDJy8m6BxtLpHSr0Cc1a-Bck22XeGeONWZCMMyZ8QjNTfEvT_RZtq2ajNUwDxdaxMJUyfo8aY6Cyvul1Cy0wn40KZMJt8Ixqa2aJgaW0N4Yh0aRG_87TdmRyeIl2Mf18H8eJWhiZK8F1eXTBMZ6y1RpjMQ_o2DKJIcEM4A3u8595Gg49CiJ_a18EHC2Pwc80QOI1mk5xCJHCubLLnGa7QctZX4r3ZJsbs8Q25Mx9HWFXilkmWetJJKmOfDJZOjUlowN224i5d39-ium0ceCAN0r8jkD08fAMVNDswAn8f-4GKkdDjg5tPxvyZAPQOCyPcOs0fDcTH_IGoQ_nZpEPxF_vgvk6gFXg4Vn2mptPH0yhoCtezX0rrPr0zMXQsoXeKGklccTR_4LhbtOXkuJXntfBrJzvUkCaUJA9g-lmKOCa9J_6ZoVqXpdFHFx-WbcqVy4j6gm1hnJbufUuNtEH7z2ZXtbVGluvoVffZsBUJTp_-DLMMPImwtBgQ6qRibUr_shyKgbpLe1_6Hl7SNLjuhUpYRLhhkYBWAdW_kcDXNrhS4pUdHWPwkNuMw0-_aHlEokzPtvDxPUnWEdMeZYuvfxNVe5m00]--></g></svg>