<?xml version="1.0" encoding="us-ascii" standalone="no"?><svg xmlns="http://www.w3.org/2000/svg" xmlns:xlink="http://www.w3.org/1999/xlink" contentStyleType="text/css" height="374.4px" preserveAspectRatio="none" style="width:967px;height:374px;background:#FFFFFF;" version="1.1" viewBox="0 0 967 374" width="967.5px" zoomAndPan="magnify"><defs/><g><rect fill="#FFFFFF" height="234.9686" style="stroke:#181818;stroke-width:0.9;" width="9" x="457.2" y="81.4799"/><rect fill="#FFFFFF" height="152.2477" style="stroke:#181818;stroke-width:0.9;" width="9" x="461.7" y="156.1008"/><rect fill="#FFFFFF" height="38.0619" style="stroke:#181818;stroke-width:0.9;" width="9" x="466.2" y="195.9627"/><line style="stroke:#181818;stroke-width:0.45;stroke-dasharray:5.0,5.0;" x1="461.7" x2="461.7" y1="51.518" y2="324.5484"/><line style="stroke:#181818;stroke-width:0.45;stroke-dasharray:5.0,5.0;" x1="889.2" x2="889.2" y1="117.3094" y2="324.5484"/><rect fill="#E3E3E3" height="46.118" rx="2.25" ry="2.25" style="stroke:#181818;stroke-width:0.45;" width="45" x="439.2" y="4.5"/><text fill="#000000" font-family="sans-serif" font-size="12.6" lengthAdjust="spacing" textLength="32.4" x="445.5" y="24.3967">store:</text><text fill="#000000" font-family="sans-serif" font-size="12.6" lengthAdjust="spacing" textLength="30.6" x="446.4" y="41.1557">Store</text><rect fill="#E3E3E3" height="46.118" rx="2.25" ry="2.25" style="stroke:#181818;stroke-width:0.45;" width="45" x="439.2" y="323.6484"/><text fill="#000000" font-family="sans-serif" font-size="12.6" lengthAdjust="spacing" textLength="32.4" x="445.5" y="343.5451">store:</text><text fill="#000000" font-family="sans-serif" font-size="12.6" lengthAdjust="spacing" textLength="30.6" x="446.4" y="360.3041">Store</text><rect fill="#E3E3E3" height="29.359" rx="2.25" ry="2.25" style="stroke:#181818;stroke-width:0.45;" width="145.8" x="816.3" y="323.6484"/><text fill="#000000" font-family="sans-serif" font-size="12.6" lengthAdjust="spacing" textLength="133.2" x="822.6" y="343.5451">AnnouncementRequest</text><rect fill="#FFFFFF" height="234.9686" style="stroke:#181818;stroke-width:0.9;" width="9" x="457.2" y="81.4799"/><rect fill="#FFFFFF" height="152.2477" style="stroke:#181818;stroke-width:0.9;" width="9" x="461.7" y="156.1008"/><rect fill="#FFFFFF" height="38.0619" style="stroke:#181818;stroke-width:0.9;" width="9" x="466.2" y="195.9627"/><polygon fill="#181818" points="446.4,77.8799,455.4,81.4799,446.4,85.0799,450,81.4799" style="stroke:#181818;stroke-width:0.9;"/><line style="stroke:#181818;stroke-width:0.9;" x1="0" x2="451.8" y1="81.4799" y2="81.4799"/><text fill="#000000" font-family="sans-serif" font-size="11.7" font-weight="bold" lengthAdjust="spacing" textLength="12.6" x="6.3" y="76.7435">58</text><text fill="#000000" font-family="sans-serif" font-size="11.7" lengthAdjust="spacing" textLength="423.9" x="22.5" y="76.7435">createAnnouncementRequest(rentDuration, businessType, property, agent, client)</text><polygon fill="#181818" points="805.5,106.0418,814.5,109.6418,805.5,113.2418,809.1,109.6418" style="stroke:#181818;stroke-width:0.9;"/><line style="stroke:#181818;stroke-width:0.9;" x1="466.2" x2="810.9" y1="109.6418" y2="109.6418"/><text fill="#000000" font-family="sans-serif" font-size="11.7" font-weight="bold" lengthAdjust="spacing" textLength="22.5" x="472.5" y="104.9054">58.1</text><text fill="#000000" font-family="sans-serif" font-size="11.7" lengthAdjust="spacing" textLength="302.4" x="498.6" y="104.9054">create(rentDuration, businessType, property, agent, client)</text><rect fill="#E3E3E3" height="29.359" rx="2.25" ry="2.25" style="stroke:#181818;stroke-width:0.45;" width="145.8" x="816.3" y="88.6799"/><text fill="#000000" font-family="sans-serif" font-size="12.6" lengthAdjust="spacing" textLength="133.2" x="822.6" y="108.5766">AnnouncementRequest</text><line style="stroke:#181818;stroke-width:0.9;" x1="466.2" x2="508.5" y1="144.4008" y2="144.4008"/><line style="stroke:#181818;stroke-width:0.9;" x1="508.5" x2="508.5" y1="144.4008" y2="156.1008"/><line style="stroke:#181818;stroke-width:0.9;" x1="471.6" x2="508.5" y1="156.1008" y2="156.1008"/><polygon fill="#181818" points="480.6,152.5008,471.6,156.1008,480.6,159.7008,477,156.1008" style="stroke:#181818;stroke-width:0.9;"/><text fill="#000000" font-family="sans-serif" font-size="11.7" font-weight="bold" lengthAdjust="spacing" textLength="22.5" x="477" y="139.6644">58.2</text><text fill="#000000" font-family="sans-serif" font-size="11.7" lengthAdjust="spacing" textLength="224.1" x="503.1" y="139.6644">addAnnouncement(announcementRequest)</text><line style="stroke:#181818;stroke-width:0.9;" x1="470.7" x2="513" y1="184.2627" y2="184.2627"/><line style="stroke:#181818;stroke-width:0.9;" x1="513" x2="513" y1="184.2627" y2="195.9627"/><line style="stroke:#181818;stroke-width:0.9;" x1="476.1" x2="513" y1="195.9627" y2="195.9627"/><polygon fill="#181818" points="485.1,192.3627,476.1,195.9627,485.1,199.5627,481.5,195.9627" style="stroke:#181818;stroke-width:0.9;"/><text fill="#000000" font-family="sans-serif" font-size="11.7" font-weight="bold" lengthAdjust="spacing" textLength="22.5" x="481.5" y="179.5263">58.3</text><text fill="#000000" font-family="sans-serif" font-size="11.7" lengthAdjust="spacing" textLength="243.9" x="507.6" y="179.5263">validateAnnouncement(announcementRequest)</text><line style="stroke:#181818;stroke-width:0.9;stroke-dasharray:2.0,2.0;" x1="475.2" x2="513" y1="233.1246" y2="233.1246"/><line style="stroke:#181818;stroke-width:0.9;stroke-dasharray:2.0,2.0;" x1="513" x2="513" y1="233.1246" y2="244.8246"/><line style="stroke:#181818;stroke-width:0.9;stroke-dasharray:2.0,2.0;" x1="470.7" x2="513" y1="244.8246" y2="244.8246"/><polygon fill="#181818" points="479.7,241.2246,470.7,244.8246,479.7,248.4246,476.1,244.8246" style="stroke:#181818;stroke-width:0.9;"/><text fill="#000000" font-family="sans-serif" font-size="11.7" font-weight="bold" lengthAdjust="spacing" textLength="22.5" x="481.5" y="228.3882">58.4</text><text fill="#000000" font-family="sans-serif" font-size="11.7" lengthAdjust="spacing" textLength="3.6" x="507.6" y="228.3882">&#160;</text><line style="stroke:#181818;stroke-width:0.9;stroke-dasharray:2.0,2.0;" x1="470.7" x2="508.5" y1="268.4865" y2="268.4865"/><line style="stroke:#181818;stroke-width:0.9;stroke-dasharray:2.0,2.0;" x1="508.5" x2="508.5" y1="268.4865" y2="280.1865"/><line style="stroke:#181818;stroke-width:0.9;stroke-dasharray:2.0,2.0;" x1="471.6" x2="508.5" y1="280.1865" y2="280.1865"/><polygon fill="#181818" points="480.6,276.5865,471.6,280.1865,480.6,283.7865,477,280.1865" style="stroke:#181818;stroke-width:0.9;"/><text fill="#000000" font-family="sans-serif" font-size="11.7" font-weight="bold" lengthAdjust="spacing" textLength="22.5" x="477" y="263.7501">58.5</text><text fill="#000000" font-family="sans-serif" font-size="11.7" lengthAdjust="spacing" textLength="3.6" x="503.1" y="263.7501">&#160;</text><polygon fill="#181818" points="9.9,304.7484,0.9,308.3484,9.9,311.9484,6.3,308.3484" style="stroke:#181818;stroke-width:0.9;"/><line style="stroke:#181818;stroke-width:0.9;stroke-dasharray:2.0,2.0;" x1="4.5" x2="456.3" y1="308.3484" y2="308.3484"/><text fill="#000000" font-family="sans-serif" font-size="11.7" font-weight="bold" lengthAdjust="spacing" textLength="12.6" x="15.3" y="303.612">59</text><text fill="#000000" font-family="sans-serif" font-size="11.7" lengthAdjust="spacing" textLength="119.7" x="31.5" y="303.612">announcementRequest</text><!--SRC=[fL5DJyCm3BtdLrYxCAOEYGCIJ0Xf4cSEsuvSlDJhehLEIPn1_prfEwPsGviAkJXAdlq-x7U6ItHOG67Pwgsp1O6uGCeVVqhKEyneALLEu4WBSfPt0NwBgVqqdC46SqzAOH3BeLYJWuT7fMws9YNOM2jh-wLYZnXjIcI1aHVhQFREoxgE03qiLui-PCvi0sigY6L17u6yDC3vsq8f1VMPljHjCz2EKEYNXh6BzzVWK8pb1DR16oRlLrL92PJEbkIaIY2wP4b0voRMstRs_mzgCVkegx7M3EtbStVV8ugWsazqDvdyEFgR_4lw3onDQfYctSZ6U9xVnInw_gvaqUNTOsxIatqD9Xygu2YYLN4Ddj9WTuV1wdpLJ-tJytJQ8256V-wsnPpmgcy0]--></g></svg>