<?xml version="1.0" encoding="us-ascii" standalone="no"?><svg xmlns="http://www.w3.org/2000/svg" xmlns:xlink="http://www.w3.org/1999/xlink" contentStyleType="text/css" height="2055.6px" preserveAspectRatio="none" style="width:1890px;height:2055px;background:#FFFFFF;" version="1.1" viewBox="0 0 1890 2055" width="1890px" zoomAndPan="magnify"><defs><filter height="300%" id="fazucncz4j4lq" width="300%" x="-1" y="-1"><feGaussianBlur result="blurOut" stdDeviation="1.8"/><feColorMatrix in="blurOut" result="blurOut2" type="matrix" values="0 0 0 0 0 0 0 0 0 0 0 0 0 0 0 0 0 0 .4 0"/><feOffset dx="3.6" dy="3.6" in="blurOut2" result="blurOut3"/><feBlend in="SourceGraphic" in2="blurOut3" mode="normal"/></filter></defs><g><!--class ApplicationSession--><g id="elem_ApplicationSession"><rect codeLine="10" fill="#F1F1F1" filter="url(#fazucncz4j4lq)" height="76.718" id="ApplicationSession" rx="2.25" ry="2.25" style="stroke:#181818;stroke-width:0.45;" width="135.9" x="1585.8" y="438.3"/><ellipse cx="1599.3" cy="452.7" fill="#ADD1B2" rx="9.9" ry="9.9" style="stroke:#181818;stroke-width:0.9;"/><path d="M1601.7891,448.9875 Q1601.9297,448.7906 1602.0984,448.6922 Q1602.2672,448.5938 1602.4641,448.5938 Q1602.8016,448.5938 1603.0125,448.8328 Q1603.2234,449.0578 1603.2234,449.6063 L1603.2234,450.9141 Q1603.2234,451.4625 1603.0125,451.7016 Q1602.8016,451.9406 1602.4641,451.9406 Q1602.1547,451.9406 1601.9719,451.7578 Q1601.7891,451.5891 1601.6906,451.125 Q1601.6484,450.8016 1601.4797,450.6328 Q1601.1844,450.2953 1600.6359,450.0984 Q1600.0875,449.9016 1599.525,449.9016 Q1598.8359,449.9016 1598.2594,450.1969 Q1597.6969,450.4922 1597.2469,451.1672 Q1596.8109,451.8422 1596.8109,452.7703 L1596.8109,453.7547 Q1596.8109,454.8656 1597.6125,455.6109 Q1598.4141,456.3422 1599.8484,456.3422 Q1600.6922,456.3422 1601.2828,456.1172 Q1601.6344,455.9766 1602.0141,455.5828 Q1602.2531,455.3438 1602.3797,455.2734 Q1602.5203,455.2031 1602.7031,455.2031 Q1602.9984,455.2031 1603.2234,455.4422 Q1603.4625,455.6672 1603.4625,455.9766 Q1603.4625,456.2859 1603.1531,456.6516 Q1602.7031,457.1719 1601.9859,457.4672 Q1601.0156,457.875 1599.8484,457.875 Q1598.4844,457.875 1597.4016,457.3125 Q1596.5156,456.8625 1595.8969,455.9063 Q1595.2781,454.9359 1595.2781,453.7828 L1595.2781,452.7422 Q1595.2781,451.5469 1595.8266,450.5203 Q1596.3891,449.4797 1597.3734,448.9313 Q1598.3578,448.3688 1599.4688,448.3688 Q1600.1297,448.3688 1600.7063,448.5234 Q1601.2969,448.6641 1601.7891,448.9875 Z " fill="#000000"/><text fill="#000000" font-family="sans-serif" font-size="12.6" lengthAdjust="spacing" textLength="107.1" x="1611.9" y="457.9172">ApplicationSession</text><line style="stroke:#181818;stroke-width:0.45;" x1="1586.7" x2="1720.8" y1="467.1" y2="467.1"/><line style="stroke:#181818;stroke-width:0.45;" x1="1586.7" x2="1720.8" y1="474.3" y2="474.3"/><text fill="#000000" font-family="sans-serif" font-size="12.6" lengthAdjust="spacing" textLength="115.2" x="1591.2" y="491.4967">+static getInstance()</text><text fill="#000000" font-family="sans-serif" font-size="12.6" lengthAdjust="spacing" textLength="122.4" x="1591.2" y="508.2557">+getCurrentSession()</text></g><!--class Employee--><g id="elem_Employee"><rect codeLine="15" fill="#F1F1F1" filter="url(#fazucncz4j4lq)" height="43.2" id="Employee" rx="2.25" ry="2.25" style="stroke:#181818;stroke-width:0.45;" width="84.6" x="463.05" y="930.6"/><ellipse cx="476.55" cy="945" fill="#ADD1B2" rx="9.9" ry="9.9" style="stroke:#181818;stroke-width:0.9;"/><path d="M479.0391,941.2875 Q479.1797,941.0906 479.3484,940.9922 Q479.5172,940.8938 479.7141,940.8938 Q480.0516,940.8938 480.2625,941.1328 Q480.4734,941.3578 480.4734,941.9063 L480.4734,943.2141 Q480.4734,943.7625 480.2625,944.0016 Q480.0516,944.2406 479.7141,944.2406 Q479.4047,944.2406 479.2219,944.0578 Q479.0391,943.8891 478.9406,943.425 Q478.8984,943.1016 478.7297,942.9328 Q478.4344,942.5953 477.8859,942.3984 Q477.3375,942.2016 476.775,942.2016 Q476.0859,942.2016 475.5094,942.4969 Q474.9469,942.7922 474.4969,943.4672 Q474.0609,944.1422 474.0609,945.0703 L474.0609,946.0547 Q474.0609,947.1656 474.8625,947.9109 Q475.6641,948.6422 477.0984,948.6422 Q477.9422,948.6422 478.5328,948.4172 Q478.8844,948.2766 479.2641,947.8828 Q479.5031,947.6438 479.6297,947.5734 Q479.7703,947.5031 479.9531,947.5031 Q480.2484,947.5031 480.4734,947.7422 Q480.7125,947.9672 480.7125,948.2766 Q480.7125,948.5859 480.4031,948.9516 Q479.9531,949.4719 479.2359,949.7672 Q478.2656,950.175 477.0984,950.175 Q475.7344,950.175 474.6516,949.6125 Q473.7656,949.1625 473.1469,948.2063 Q472.5281,947.2359 472.5281,946.0828 L472.5281,945.0422 Q472.5281,943.8469 473.0766,942.8203 Q473.6391,941.7797 474.6234,941.2313 Q475.6078,940.6688 476.7188,940.6688 Q477.3797,940.6688 477.9563,940.8234 Q478.5469,940.9641 479.0391,941.2875 Z " fill="#000000"/><text fill="#000000" font-family="sans-serif" font-size="12.6" lengthAdjust="spacing" textLength="55.8" x="489.15" y="950.2172">Employee</text><line style="stroke:#181818;stroke-width:0.45;" x1="463.95" x2="546.75" y1="959.4" y2="959.4"/><line style="stroke:#181818;stroke-width:0.45;" x1="463.95" x2="546.75" y1="966.6" y2="966.6"/></g><!--class UserSession--><g id="elem_UserSession"><rect codeLine="16" fill="#F1F1F1" filter="url(#fazucncz4j4lq)" height="59.959" id="UserSession" rx="2.25" ry="2.25" style="stroke:#181818;stroke-width:0.45;" width="101.7" x="1777.5" y="602.1"/><ellipse cx="1791.81" cy="616.5" fill="#ADD1B2" rx="9.9" ry="9.9" style="stroke:#181818;stroke-width:0.9;"/><path d="M1794.2991,612.7875 Q1794.4397,612.5906 1794.6084,612.4922 Q1794.7772,612.3938 1794.9741,612.3938 Q1795.3116,612.3938 1795.5225,612.6328 Q1795.7334,612.8578 1795.7334,613.4063 L1795.7334,614.7141 Q1795.7334,615.2625 1795.5225,615.5016 Q1795.3116,615.7406 1794.9741,615.7406 Q1794.6647,615.7406 1794.4819,615.5578 Q1794.2991,615.3891 1794.2006,614.925 Q1794.1584,614.6016 1793.9897,614.4328 Q1793.6944,614.0953 1793.1459,613.8984 Q1792.5975,613.7016 1792.035,613.7016 Q1791.3459,613.7016 1790.7694,613.9969 Q1790.2069,614.2922 1789.7569,614.9672 Q1789.3209,615.6422 1789.3209,616.5703 L1789.3209,617.5547 Q1789.3209,618.6656 1790.1225,619.4109 Q1790.9241,620.1422 1792.3584,620.1422 Q1793.2022,620.1422 1793.7928,619.9172 Q1794.1444,619.7766 1794.5241,619.3828 Q1794.7631,619.1438 1794.8897,619.0734 Q1795.0303,619.0031 1795.2131,619.0031 Q1795.5084,619.0031 1795.7334,619.2422 Q1795.9725,619.4672 1795.9725,619.7766 Q1795.9725,620.0859 1795.6631,620.4516 Q1795.2131,620.9719 1794.4959,621.2672 Q1793.5256,621.675 1792.3584,621.675 Q1790.9944,621.675 1789.9116,621.1125 Q1789.0256,620.6625 1788.4069,619.7063 Q1787.7881,618.7359 1787.7881,617.5828 L1787.7881,616.5422 Q1787.7881,615.3469 1788.3366,614.3203 Q1788.8991,613.2797 1789.8834,612.7313 Q1790.8678,612.1688 1791.9788,612.1688 Q1792.6397,612.1688 1793.2163,612.3234 Q1793.8069,612.4641 1794.2991,612.7875 Z " fill="#000000"/><text fill="#000000" font-family="sans-serif" font-size="12.6" lengthAdjust="spacing" textLength="71.1" x="1804.59" y="621.7172">UserSession</text><line style="stroke:#181818;stroke-width:0.45;" x1="1778.4" x2="1878.3" y1="630.9" y2="630.9"/><line style="stroke:#181818;stroke-width:0.45;" x1="1778.4" x2="1878.3" y1="638.1" y2="638.1"/><text fill="#000000" font-family="sans-serif" font-size="12.6" lengthAdjust="spacing" textLength="90.9" x="1782.9" y="655.2967">+getUserEmail()</text></g><!--class Person--><g id="elem_Person"><rect codeLine="21" fill="#F1F1F1" filter="url(#fazucncz4j4lq)" height="126.9949" id="Person" rx="2.25" ry="2.25" style="stroke:#181818;stroke-width:0.45;" width="152.1" x="708.3" y="749.7"/><ellipse cx="760.275" cy="764.1" fill="#ADD1B2" rx="9.9" ry="9.9" style="stroke:#181818;stroke-width:0.9;"/><path d="M762.7641,760.3875 Q762.9047,760.1906 763.0734,760.0922 Q763.2422,759.9938 763.4391,759.9938 Q763.7766,759.9938 763.9875,760.2328 Q764.1984,760.4578 764.1984,761.0063 L764.1984,762.3141 Q764.1984,762.8625 763.9875,763.1016 Q763.7766,763.3406 763.4391,763.3406 Q763.1297,763.3406 762.9469,763.1578 Q762.7641,762.9891 762.6656,762.525 Q762.6234,762.2016 762.4547,762.0328 Q762.1594,761.6953 761.6109,761.4984 Q761.0625,761.3016 760.5,761.3016 Q759.8109,761.3016 759.2344,761.5969 Q758.6719,761.8922 758.2219,762.5672 Q757.7859,763.2422 757.7859,764.1703 L757.7859,765.1547 Q757.7859,766.2656 758.5875,767.0109 Q759.3891,767.7422 760.8234,767.7422 Q761.6672,767.7422 762.2578,767.5172 Q762.6094,767.3766 762.9891,766.9828 Q763.2281,766.7438 763.3547,766.6734 Q763.4953,766.6031 763.6781,766.6031 Q763.9734,766.6031 764.1984,766.8422 Q764.4375,767.0672 764.4375,767.3766 Q764.4375,767.6859 764.1281,768.0516 Q763.6781,768.5719 762.9609,768.8672 Q761.9906,769.275 760.8234,769.275 Q759.4594,769.275 758.3766,768.7125 Q757.4906,768.2625 756.8719,767.3063 Q756.2531,766.3359 756.2531,765.1828 L756.2531,764.1422 Q756.2531,762.9469 756.8016,761.9203 Q757.3641,760.8797 758.3484,760.3313 Q759.3328,759.7688 760.4438,759.7688 Q761.1047,759.7688 761.6813,759.9234 Q762.2719,760.0641 762.7641,760.3875 Z " fill="#000000"/><text fill="#000000" font-family="sans-serif" font-size="12.6" lengthAdjust="spacing" textLength="40.5" x="778.725" y="769.3172">Person</text><line style="stroke:#181818;stroke-width:0.45;" x1="709.2" x2="859.5" y1="778.5" y2="778.5"/><text fill="#000000" font-family="sans-serif" font-size="12.6" lengthAdjust="spacing" textLength="72.9" x="713.7" y="795.6967">-String name</text><text fill="#000000" font-family="sans-serif" font-size="12.6" lengthAdjust="spacing" textLength="141.3" x="713.7" y="812.4557">-Integer passportNumber</text><text fill="#000000" font-family="sans-serif" font-size="12.6" lengthAdjust="spacing" textLength="101.7" x="713.7" y="829.2146">-String taxNumber</text><text fill="#000000" font-family="sans-serif" font-size="12.6" lengthAdjust="spacing" textLength="71.1" x="713.7" y="845.9736">-String email</text><text fill="#000000" font-family="sans-serif" font-size="12.6" lengthAdjust="spacing" textLength="127.8" x="713.7" y="862.7326">-Integer phoneNumber</text><line style="stroke:#181818;stroke-width:0.45;" x1="709.2" x2="859.5" y1="869.4949" y2="869.4949"/></g><!--class Address--><g id="elem_Address"><rect codeLine="28" fill="#F1F1F1" filter="url(#fazucncz4j4lq)" height="126.9949" id="Address" rx="2.25" ry="2.25" style="stroke:#181818;stroke-width:0.45;" width="241.2" x="663.75" y="568.8"/><ellipse cx="757.125" cy="583.2" fill="#ADD1B2" rx="9.9" ry="9.9" style="stroke:#181818;stroke-width:0.9;"/><path d="M759.6141,579.4875 Q759.7547,579.2906 759.9234,579.1922 Q760.0922,579.0938 760.2891,579.0938 Q760.6266,579.0938 760.8375,579.3328 Q761.0484,579.5578 761.0484,580.1063 L761.0484,581.4141 Q761.0484,581.9625 760.8375,582.2016 Q760.6266,582.4406 760.2891,582.4406 Q759.9797,582.4406 759.7969,582.2578 Q759.6141,582.0891 759.5156,581.625 Q759.4734,581.3016 759.3047,581.1328 Q759.0094,580.7953 758.4609,580.5984 Q757.9125,580.4016 757.35,580.4016 Q756.6609,580.4016 756.0844,580.6969 Q755.5219,580.9922 755.0719,581.6672 Q754.6359,582.3422 754.6359,583.2703 L754.6359,584.2547 Q754.6359,585.3656 755.4375,586.1109 Q756.2391,586.8422 757.6734,586.8422 Q758.5172,586.8422 759.1078,586.6172 Q759.4594,586.4766 759.8391,586.0828 Q760.0781,585.8438 760.2047,585.7734 Q760.3453,585.7031 760.5281,585.7031 Q760.8234,585.7031 761.0484,585.9422 Q761.2875,586.1672 761.2875,586.4766 Q761.2875,586.7859 760.9781,587.1516 Q760.5281,587.6719 759.8109,587.9672 Q758.8406,588.375 757.6734,588.375 Q756.3094,588.375 755.2266,587.8125 Q754.3406,587.3625 753.7219,586.4063 Q753.1031,585.4359 753.1031,584.2828 L753.1031,583.2422 Q753.1031,582.0469 753.6516,581.0203 Q754.2141,579.9797 755.1984,579.4313 Q756.1828,578.8688 757.2938,578.8688 Q757.9547,578.8688 758.5313,579.0234 Q759.1219,579.1641 759.6141,579.4875 Z " fill="#000000"/><text fill="#000000" font-family="sans-serif" font-size="12.6" lengthAdjust="spacing" textLength="46.8" x="775.575" y="588.4172">Address</text><line style="stroke:#181818;stroke-width:0.45;" x1="664.65" x2="904.05" y1="597.6" y2="597.6"/><text fill="#000000" font-family="sans-serif" font-size="12.6" lengthAdjust="spacing" textLength="120.6" x="669.15" y="614.7967">-String streetAddress</text><text fill="#000000" font-family="sans-serif" font-size="12.6" lengthAdjust="spacing" textLength="69.3" x="669.15" y="631.5557">-String state</text><text fill="#000000" font-family="sans-serif" font-size="12.6" lengthAdjust="spacing" textLength="93.6" x="669.15" y="648.3146">-Integer zipCode</text><text fill="#000000" font-family="sans-serif" font-size="12.6" lengthAdjust="spacing" textLength="60.3" x="669.15" y="665.0736">-String city</text><line style="stroke:#181818;stroke-width:0.45;" x1="664.65" x2="904.05" y1="671.8359" y2="671.8359"/><text fill="#000000" font-family="sans-serif" font-size="12.6" lengthAdjust="spacing" textLength="230.4" x="669.15" y="689.0326">+Address(streetAddress, state. zipCode)</text></g><!--class Property--><g id="elem_Property"><rect codeLine="35" fill="#F1F1F1" filter="url(#fazucncz4j4lq)" height="126.9949" id="Property" rx="2.25" ry="2.25" style="stroke:#181818;stroke-width:0.45;" width="361.8" x="455.85" y="1175.4"/><ellipse cx="608.625" cy="1189.8" fill="#ADD1B2" rx="9.9" ry="9.9" style="stroke:#181818;stroke-width:0.9;"/><path d="M611.1141,1186.0875 Q611.2547,1185.8906 611.4234,1185.7922 Q611.5922,1185.6938 611.7891,1185.6938 Q612.1266,1185.6938 612.3375,1185.9328 Q612.5484,1186.1578 612.5484,1186.7063 L612.5484,1188.0141 Q612.5484,1188.5625 612.3375,1188.8016 Q612.1266,1189.0406 611.7891,1189.0406 Q611.4797,1189.0406 611.2969,1188.8578 Q611.1141,1188.6891 611.0156,1188.225 Q610.9734,1187.9016 610.8047,1187.7328 Q610.5094,1187.3953 609.9609,1187.1984 Q609.4125,1187.0016 608.85,1187.0016 Q608.1609,1187.0016 607.5844,1187.2969 Q607.0219,1187.5922 606.5719,1188.2672 Q606.1359,1188.9422 606.1359,1189.8703 L606.1359,1190.8547 Q606.1359,1191.9656 606.9375,1192.7109 Q607.7391,1193.4422 609.1734,1193.4422 Q610.0172,1193.4422 610.6078,1193.2172 Q610.9594,1193.0766 611.3391,1192.6828 Q611.5781,1192.4438 611.7047,1192.3734 Q611.8453,1192.3031 612.0281,1192.3031 Q612.3234,1192.3031 612.5484,1192.5422 Q612.7875,1192.7672 612.7875,1193.0766 Q612.7875,1193.3859 612.4781,1193.7516 Q612.0281,1194.2719 611.3109,1194.5672 Q610.3406,1194.975 609.1734,1194.975 Q607.8094,1194.975 606.7266,1194.4125 Q605.8406,1193.9625 605.2219,1193.0063 Q604.6031,1192.0359 604.6031,1190.8828 L604.6031,1189.8422 Q604.6031,1188.6469 605.1516,1187.6203 Q605.7141,1186.5797 606.6984,1186.0313 Q607.6828,1185.4688 608.7938,1185.4688 Q609.4547,1185.4688 610.0313,1185.6234 Q610.6219,1185.7641 611.1141,1186.0875 Z " fill="#000000"/><text fill="#000000" font-family="sans-serif" font-size="12.6" lengthAdjust="spacing" textLength="48.6" x="627.075" y="1195.0172">Property</text><line style="stroke:#181818;stroke-width:0.45;" x1="456.75" x2="816.75" y1="1204.2" y2="1204.2"/><text fill="#000000" font-family="sans-serif" font-size="12.6" lengthAdjust="spacing" textLength="64.8" x="461.25" y="1221.3967">-Float price</text><text fill="#000000" font-family="sans-serif" font-size="12.6" lengthAdjust="spacing" textLength="63" x="461.25" y="1238.1557">-Float area</text><text fill="#000000" font-family="sans-serif" font-size="12.6" lengthAdjust="spacing" textLength="138.6" x="461.25" y="1254.9146">-Float distanceToCentre</text><text fill="#000000" font-family="sans-serif" font-size="12.6" lengthAdjust="spacing" textLength="147.6" x="461.25" y="1271.6736">-List&lt;String&gt; photographs</text><line style="stroke:#181818;stroke-width:0.45;" x1="456.75" x2="816.75" y1="1278.4359" y2="1278.4359"/><text fill="#000000" font-family="sans-serif" font-size="12.6" lengthAdjust="spacing" textLength="351" x="461.25" y="1295.6326">+sendAnnouncementRequest(businessType, property, agent)</text></g><!--class Inhabitable--><g id="elem_Inhabitable"><rect codeLine="42" fill="#F1F1F1" filter="url(#fazucncz4j4lq)" height="110.2359" id="Inhabitable" rx="2.25" ry="2.25" style="stroke:#181818;stroke-width:0.45;" width="180.9" x="712.8" y="1704.6"/><ellipse cx="768.375" cy="1719" fill="#ADD1B2" rx="9.9" ry="9.9" style="stroke:#181818;stroke-width:0.9;"/><path d="M770.8641,1715.2875 Q771.0047,1715.0906 771.1734,1714.9922 Q771.3422,1714.8938 771.5391,1714.8938 Q771.8766,1714.8938 772.0875,1715.1328 Q772.2984,1715.3578 772.2984,1715.9063 L772.2984,1717.2141 Q772.2984,1717.7625 772.0875,1718.0016 Q771.8766,1718.2406 771.5391,1718.2406 Q771.2297,1718.2406 771.0469,1718.0578 Q770.8641,1717.8891 770.7656,1717.425 Q770.7234,1717.1016 770.5547,1716.9328 Q770.2594,1716.5953 769.7109,1716.3984 Q769.1625,1716.2016 768.6,1716.2016 Q767.9109,1716.2016 767.3344,1716.4969 Q766.7719,1716.7922 766.3219,1717.4672 Q765.8859,1718.1422 765.8859,1719.0703 L765.8859,1720.0547 Q765.8859,1721.1656 766.6875,1721.9109 Q767.4891,1722.6422 768.9234,1722.6422 Q769.7672,1722.6422 770.3578,1722.4172 Q770.7094,1722.2766 771.0891,1721.8828 Q771.3281,1721.6438 771.4547,1721.5734 Q771.5953,1721.5031 771.7781,1721.5031 Q772.0734,1721.5031 772.2984,1721.7422 Q772.5375,1721.9672 772.5375,1722.2766 Q772.5375,1722.5859 772.2281,1722.9516 Q771.7781,1723.4719 771.0609,1723.7672 Q770.0906,1724.175 768.9234,1724.175 Q767.5594,1724.175 766.4766,1723.6125 Q765.5906,1723.1625 764.9719,1722.2063 Q764.3531,1721.2359 764.3531,1720.0828 L764.3531,1719.0422 Q764.3531,1717.8469 764.9016,1716.8203 Q765.4641,1715.7797 766.4484,1715.2313 Q767.4328,1714.6688 768.5438,1714.6688 Q769.2047,1714.6688 769.7813,1714.8234 Q770.3719,1714.9641 770.8641,1715.2875 Z " fill="#000000"/><text fill="#000000" font-family="sans-serif" font-size="12.6" lengthAdjust="spacing" textLength="62.1" x="786.825" y="1724.2172">Inhabitable</text><line style="stroke:#181818;stroke-width:0.45;" x1="713.7" x2="892.8" y1="1733.4" y2="1733.4"/><text fill="#000000" font-family="sans-serif" font-size="12.6" lengthAdjust="spacing" textLength="142.2" x="718.2" y="1750.5967">-Integer bedroomNumber</text><text fill="#000000" font-family="sans-serif" font-size="12.6" lengthAdjust="spacing" textLength="145.8" x="718.2" y="1767.3557">-Integer bathroomNumber</text><text fill="#000000" font-family="sans-serif" font-size="12.6" lengthAdjust="spacing" textLength="170.1" x="718.2" y="1784.1146">-Integer parkingSpaceNumber</text><text fill="#000000" font-family="sans-serif" font-size="12.6" lengthAdjust="spacing" textLength="154.8" x="718.2" y="1800.8736">-List&lt;String&gt; equipmentList</text><line style="stroke:#181818;stroke-width:0.45;" x1="713.7" x2="892.8" y1="1807.6359" y2="1807.6359"/></g><!--class Land--><g id="elem_Land"><rect codeLine="48" fill="#F1F1F1" filter="url(#fazucncz4j4lq)" height="76.718" id="Land" rx="2.25" ry="2.25" style="stroke:#181818;stroke-width:0.45;" width="265.5" x="415.8" y="1721.25"/><ellipse cx="530.325" cy="1735.65" fill="#ADD1B2" rx="9.9" ry="9.9" style="stroke:#181818;stroke-width:0.9;"/><path d="M532.8141,1731.9375 Q532.9547,1731.7406 533.1234,1731.6422 Q533.2922,1731.5438 533.4891,1731.5438 Q533.8266,1731.5438 534.0375,1731.7828 Q534.2484,1732.0078 534.2484,1732.5563 L534.2484,1733.8641 Q534.2484,1734.4125 534.0375,1734.6516 Q533.8266,1734.8906 533.4891,1734.8906 Q533.1797,1734.8906 532.9969,1734.7078 Q532.8141,1734.5391 532.7156,1734.075 Q532.6734,1733.7516 532.5047,1733.5828 Q532.2094,1733.2453 531.6609,1733.0484 Q531.1125,1732.8516 530.55,1732.8516 Q529.8609,1732.8516 529.2844,1733.1469 Q528.7219,1733.4422 528.2719,1734.1172 Q527.8359,1734.7922 527.8359,1735.7203 L527.8359,1736.7047 Q527.8359,1737.8156 528.6375,1738.5609 Q529.4391,1739.2922 530.8734,1739.2922 Q531.7172,1739.2922 532.3078,1739.0672 Q532.6594,1738.9266 533.0391,1738.5328 Q533.2781,1738.2938 533.4047,1738.2234 Q533.5453,1738.1531 533.7281,1738.1531 Q534.0234,1738.1531 534.2484,1738.3922 Q534.4875,1738.6172 534.4875,1738.9266 Q534.4875,1739.2359 534.1781,1739.6016 Q533.7281,1740.1219 533.0109,1740.4172 Q532.0406,1740.825 530.8734,1740.825 Q529.5094,1740.825 528.4266,1740.2625 Q527.5406,1739.8125 526.9219,1738.8563 Q526.3031,1737.8859 526.3031,1736.7328 L526.3031,1735.6922 Q526.3031,1734.4969 526.8516,1733.4703 Q527.4141,1732.4297 528.3984,1731.8813 Q529.3828,1731.3188 530.4938,1731.3188 Q531.1547,1731.3188 531.7313,1731.4734 Q532.3219,1731.6141 532.8141,1731.9375 Z " fill="#000000"/><text fill="#000000" font-family="sans-serif" font-size="12.6" lengthAdjust="spacing" textLength="28.8" x="548.775" y="1740.8672">Land</text><line style="stroke:#181818;stroke-width:0.45;" x1="416.7" x2="680.4" y1="1750.05" y2="1750.05"/><line style="stroke:#181818;stroke-width:0.45;" x1="416.7" x2="680.4" y1="1757.25" y2="1757.25"/><text fill="#000000" font-family="sans-serif" font-size="12.6" lengthAdjust="spacing" textLength="158.4" x="421.2" y="1774.4467">+Land(price, area, address,</text><text fill="#000000" font-family="sans-serif" font-size="12.6" lengthAdjust="spacing" textLength="254.7" x="421.2" y="1791.2057">distanceToCentre, photographs, client,store)</text></g><!--class Apartment--><g id="elem_Apartment"><rect codeLine="51" fill="#F1F1F1" filter="url(#fazucncz4j4lq)" height="110.2359" id="Apartment" rx="2.25" ry="2.25" style="stroke:#181818;stroke-width:0.45;" width="297" x="490.95" y="1902.15"/><ellipse cx="606.375" cy="1916.55" fill="#ADD1B2" rx="9.9" ry="9.9" style="stroke:#181818;stroke-width:0.9;"/><path d="M608.8641,1912.8375 Q609.0047,1912.6406 609.1734,1912.5422 Q609.3422,1912.4438 609.5391,1912.4438 Q609.8766,1912.4438 610.0875,1912.6828 Q610.2984,1912.9078 610.2984,1913.4563 L610.2984,1914.7641 Q610.2984,1915.3125 610.0875,1915.5516 Q609.8766,1915.7906 609.5391,1915.7906 Q609.2297,1915.7906 609.0469,1915.6078 Q608.8641,1915.4391 608.7656,1914.975 Q608.7234,1914.6516 608.5547,1914.4828 Q608.2594,1914.1453 607.7109,1913.9484 Q607.1625,1913.7516 606.6,1913.7516 Q605.9109,1913.7516 605.3344,1914.0469 Q604.7719,1914.3422 604.3219,1915.0172 Q603.8859,1915.6922 603.8859,1916.6203 L603.8859,1917.6047 Q603.8859,1918.7156 604.6875,1919.4609 Q605.4891,1920.1922 606.9234,1920.1922 Q607.7672,1920.1922 608.3578,1919.9672 Q608.7094,1919.8266 609.0891,1919.4328 Q609.3281,1919.1938 609.4547,1919.1234 Q609.5953,1919.0531 609.7781,1919.0531 Q610.0734,1919.0531 610.2984,1919.2922 Q610.5375,1919.5172 610.5375,1919.8266 Q610.5375,1920.1359 610.2281,1920.5016 Q609.7781,1921.0219 609.0609,1921.3172 Q608.0906,1921.725 606.9234,1921.725 Q605.5594,1921.725 604.4766,1921.1625 Q603.5906,1920.7125 602.9719,1919.7563 Q602.3531,1918.7859 602.3531,1917.6328 L602.3531,1916.5922 Q602.3531,1915.3969 602.9016,1914.3703 Q603.4641,1913.3297 604.4484,1912.7813 Q605.4328,1912.2188 606.5438,1912.2188 Q607.2047,1912.2188 607.7813,1912.3734 Q608.3719,1912.5141 608.8641,1912.8375 Z " fill="#000000"/><text fill="#000000" font-family="sans-serif" font-size="12.6" lengthAdjust="spacing" textLength="58.5" x="624.825" y="1921.7672">Apartment</text><line style="stroke:#181818;stroke-width:0.45;" x1="491.85" x2="787.05" y1="1930.95" y2="1930.95"/><line style="stroke:#181818;stroke-width:0.45;" x1="491.85" x2="787.05" y1="1938.15" y2="1938.15"/><text fill="#000000" font-family="sans-serif" font-size="12.6" lengthAdjust="spacing" textLength="188.1" x="496.35" y="1955.3467">+Apartment(price, area, address,</text><text fill="#000000" font-family="sans-serif" font-size="12.6" lengthAdjust="spacing" textLength="286.2" x="496.35" y="1972.1057">distanceToCentre, photographs, bedroomNumber,</text><text fill="#000000" font-family="sans-serif" font-size="12.6" lengthAdjust="spacing" textLength="193.5" x="496.35" y="1988.8646">bathroomNumber, parkingSpaces,</text><text fill="#000000" font-family="sans-serif" font-size="12.6" lengthAdjust="spacing" textLength="156.6" x="496.35" y="2005.6236">equipmentList, client, store)</text></g><!--class House--><g id="elem_House"><rect codeLine="54" fill="#F1F1F1" filter="url(#fazucncz4j4lq)" height="177.2719" id="House" rx="2.25" ry="2.25" style="stroke:#181818;stroke-width:0.45;" width="297" x="819.45" y="1868.4"/><ellipse cx="946.125" cy="1882.8" fill="#ADD1B2" rx="9.9" ry="9.9" style="stroke:#181818;stroke-width:0.9;"/><path d="M948.6141,1879.0875 Q948.7547,1878.8906 948.9234,1878.7922 Q949.0922,1878.6938 949.2891,1878.6938 Q949.6266,1878.6938 949.8375,1878.9328 Q950.0484,1879.1578 950.0484,1879.7063 L950.0484,1881.0141 Q950.0484,1881.5625 949.8375,1881.8016 Q949.6266,1882.0406 949.2891,1882.0406 Q948.9797,1882.0406 948.7969,1881.8578 Q948.6141,1881.6891 948.5156,1881.225 Q948.4734,1880.9016 948.3047,1880.7328 Q948.0094,1880.3953 947.4609,1880.1984 Q946.9125,1880.0016 946.35,1880.0016 Q945.6609,1880.0016 945.0844,1880.2969 Q944.5219,1880.5922 944.0719,1881.2672 Q943.6359,1881.9422 943.6359,1882.8703 L943.6359,1883.8547 Q943.6359,1884.9656 944.4375,1885.7109 Q945.2391,1886.4422 946.6734,1886.4422 Q947.5172,1886.4422 948.1078,1886.2172 Q948.4594,1886.0766 948.8391,1885.6828 Q949.0781,1885.4438 949.2047,1885.3734 Q949.3453,1885.3031 949.5281,1885.3031 Q949.8234,1885.3031 950.0484,1885.5422 Q950.2875,1885.7672 950.2875,1886.0766 Q950.2875,1886.3859 949.9781,1886.7516 Q949.5281,1887.2719 948.8109,1887.5672 Q947.8406,1887.975 946.6734,1887.975 Q945.3094,1887.975 944.2266,1887.4125 Q943.3406,1886.9625 942.7219,1886.0063 Q942.1031,1885.0359 942.1031,1883.8828 L942.1031,1882.8422 Q942.1031,1881.6469 942.6516,1880.6203 Q943.2141,1879.5797 944.1984,1879.0313 Q945.1828,1878.4688 946.2938,1878.4688 Q946.9547,1878.4688 947.5313,1878.6234 Q948.1219,1878.7641 948.6141,1879.0875 Z " fill="#000000"/><text fill="#000000" font-family="sans-serif" font-size="12.6" lengthAdjust="spacing" textLength="36" x="964.575" y="1888.0172">House</text><line style="stroke:#181818;stroke-width:0.45;" x1="820.35" x2="1115.55" y1="1897.2" y2="1897.2"/><text fill="#000000" font-family="sans-serif" font-size="12.6" lengthAdjust="spacing" textLength="132.3" x="824.85" y="1914.3967">-Boolean hasBasement</text><text fill="#000000" font-family="sans-serif" font-size="12.6" lengthAdjust="spacing" textLength="97.2" x="824.85" y="1931.1557">-Boolean hasLoft</text><text fill="#000000" font-family="sans-serif" font-size="12.6" lengthAdjust="spacing" textLength="115.2" x="824.85" y="1947.9146">-String sunExposure</text><line style="stroke:#181818;stroke-width:0.45;" x1="820.35" x2="1115.55" y1="1954.677" y2="1954.677"/><text fill="#000000" font-family="sans-serif" font-size="12.6" lengthAdjust="spacing" textLength="165.6" x="824.85" y="1971.8736">+House(price, area, address,</text><text fill="#000000" font-family="sans-serif" font-size="12.6" lengthAdjust="spacing" textLength="286.2" x="824.85" y="1988.6326">distanceToCentre, photographs, bedroomNumber,</text><text fill="#000000" font-family="sans-serif" font-size="12.6" lengthAdjust="spacing" textLength="193.5" x="824.85" y="2005.3916">bathroomNumber, parkingSpaces,</text><text fill="#000000" font-family="sans-serif" font-size="12.6" lengthAdjust="spacing" textLength="155.7" x="824.85" y="2022.1506">equipmentList, client, store,</text><text fill="#000000" font-family="sans-serif" font-size="12.6" lengthAdjust="spacing" textLength="212.4" x="824.85" y="2038.9096">hasBasement, hasLoft, sunExposure)</text></g><!--class BusinessType--><g id="elem_BusinessType"><rect codeLine="62" fill="#F1F1F1" filter="url(#fazucncz4j4lq)" height="59.959" id="BusinessType" rx="2.25" ry="2.25" style="stroke:#181818;stroke-width:0.45;" width="114.3" x="1067.4" y="1208.7"/><ellipse cx="1083.33" cy="1223.1" fill="#ADD1B2" rx="9.9" ry="9.9" style="stroke:#181818;stroke-width:0.9;"/><path d="M1085.8191,1219.3875 Q1085.9597,1219.1906 1086.1284,1219.0922 Q1086.2972,1218.9938 1086.4941,1218.9938 Q1086.8316,1218.9938 1087.0425,1219.2328 Q1087.2534,1219.4578 1087.2534,1220.0063 L1087.2534,1221.3141 Q1087.2534,1221.8625 1087.0425,1222.1016 Q1086.8316,1222.3406 1086.4941,1222.3406 Q1086.1847,1222.3406 1086.0019,1222.1578 Q1085.8191,1221.9891 1085.7206,1221.525 Q1085.6784,1221.2016 1085.5097,1221.0328 Q1085.2144,1220.6953 1084.6659,1220.4984 Q1084.1175,1220.3016 1083.555,1220.3016 Q1082.8659,1220.3016 1082.2894,1220.5969 Q1081.7269,1220.8922 1081.2769,1221.5672 Q1080.8409,1222.2422 1080.8409,1223.1703 L1080.8409,1224.1547 Q1080.8409,1225.2656 1081.6425,1226.0109 Q1082.4441,1226.7422 1083.8784,1226.7422 Q1084.7222,1226.7422 1085.3128,1226.5172 Q1085.6644,1226.3766 1086.0441,1225.9828 Q1086.2831,1225.7438 1086.4097,1225.6734 Q1086.5503,1225.6031 1086.7331,1225.6031 Q1087.0284,1225.6031 1087.2534,1225.8422 Q1087.4925,1226.0672 1087.4925,1226.3766 Q1087.4925,1226.6859 1087.1831,1227.0516 Q1086.7331,1227.5719 1086.0159,1227.8672 Q1085.0456,1228.275 1083.8784,1228.275 Q1082.5144,1228.275 1081.4316,1227.7125 Q1080.5456,1227.2625 1079.9269,1226.3063 Q1079.3081,1225.3359 1079.3081,1224.1828 L1079.3081,1223.1422 Q1079.3081,1221.9469 1079.8566,1220.9203 Q1080.4191,1219.8797 1081.4034,1219.3313 Q1082.3878,1218.7688 1083.4988,1218.7688 Q1084.1597,1218.7688 1084.7363,1218.9234 Q1085.3269,1219.0641 1085.8191,1219.3875 Z " fill="#000000"/><text fill="#000000" font-family="sans-serif" font-size="12.6" lengthAdjust="spacing" textLength="80.1" x="1096.47" y="1228.3172">BusinessType</text><line style="stroke:#181818;stroke-width:0.45;" x1="1068.3" x2="1180.8" y1="1237.5" y2="1237.5"/><text fill="#000000" font-family="sans-serif" font-size="12.6" lengthAdjust="spacing" textLength="103.5" x="1072.8" y="1254.6967">-String description</text><line style="stroke:#181818;stroke-width:0.45;" x1="1068.3" x2="1180.8" y1="1261.459" y2="1261.459"/></g><!--class PropertyType--><g id="elem_PropertyType"><rect codeLine="65" fill="#F1F1F1" filter="url(#fazucncz4j4lq)" height="59.959" id="PropertyType" rx="2.25" ry="2.25" style="stroke:#181818;stroke-width:0.45;" width="114.3" x="345.6" y="1473.3"/><ellipse cx="362.745" cy="1487.7" fill="#ADD1B2" rx="9.9" ry="9.9" style="stroke:#181818;stroke-width:0.9;"/><path d="M365.2341,1483.9875 Q365.3747,1483.7906 365.5434,1483.6922 Q365.7122,1483.5938 365.9091,1483.5938 Q366.2466,1483.5938 366.4575,1483.8328 Q366.6684,1484.0578 366.6684,1484.6063 L366.6684,1485.9141 Q366.6684,1486.4625 366.4575,1486.7016 Q366.2466,1486.9406 365.9091,1486.9406 Q365.5997,1486.9406 365.4169,1486.7578 Q365.2341,1486.5891 365.1356,1486.125 Q365.0934,1485.8016 364.9247,1485.6328 Q364.6294,1485.2953 364.0809,1485.0984 Q363.5325,1484.9016 362.97,1484.9016 Q362.2809,1484.9016 361.7044,1485.1969 Q361.1419,1485.4922 360.6919,1486.1672 Q360.2559,1486.8422 360.2559,1487.7703 L360.2559,1488.7547 Q360.2559,1489.8656 361.0575,1490.6109 Q361.8591,1491.3422 363.2934,1491.3422 Q364.1372,1491.3422 364.7278,1491.1172 Q365.0794,1490.9766 365.4591,1490.5828 Q365.6981,1490.3438 365.8247,1490.2734 Q365.9653,1490.2031 366.1481,1490.2031 Q366.4434,1490.2031 366.6684,1490.4422 Q366.9075,1490.6672 366.9075,1490.9766 Q366.9075,1491.2859 366.5981,1491.6516 Q366.1481,1492.1719 365.4309,1492.4672 Q364.4606,1492.875 363.2934,1492.875 Q361.9294,1492.875 360.8466,1492.3125 Q359.9606,1491.8625 359.3419,1490.9063 Q358.7231,1489.9359 358.7231,1488.7828 L358.7231,1487.7422 Q358.7231,1486.5469 359.2716,1485.5203 Q359.8341,1484.4797 360.8184,1483.9313 Q361.8028,1483.3688 362.9138,1483.3688 Q363.5747,1483.3688 364.1513,1483.5234 Q364.7419,1483.6641 365.2341,1483.9875 Z " fill="#000000"/><text fill="#000000" font-family="sans-serif" font-size="12.6" lengthAdjust="spacing" textLength="77.4" x="376.155" y="1492.9172">PropertyType</text><line style="stroke:#181818;stroke-width:0.45;" x1="346.5" x2="459" y1="1502.1" y2="1502.1"/><text fill="#000000" font-family="sans-serif" font-size="12.6" lengthAdjust="spacing" textLength="103.5" x="351" y="1519.2967">-String description</text><line style="stroke:#181818;stroke-width:0.45;" x1="346.5" x2="459" y1="1526.059" y2="1526.059"/></g><!--class BusinessTypeRepository--><g id="elem_BusinessTypeRepository"><rect codeLine="69" fill="#F1F1F1" filter="url(#fazucncz4j4lq)" height="76.718" id="BusinessTypeRepository" rx="2.25" ry="2.25" style="stroke:#181818;stroke-width:0.45;" width="346.5" x="1120.5" y="594"/><ellipse cx="1219.275" cy="608.4" fill="#ADD1B2" rx="9.9" ry="9.9" style="stroke:#181818;stroke-width:0.9;"/><path d="M1221.7641,604.6875 Q1221.9047,604.4906 1222.0734,604.3922 Q1222.2422,604.2938 1222.4391,604.2938 Q1222.7766,604.2938 1222.9875,604.5328 Q1223.1984,604.7578 1223.1984,605.3063 L1223.1984,606.6141 Q1223.1984,607.1625 1222.9875,607.4016 Q1222.7766,607.6406 1222.4391,607.6406 Q1222.1297,607.6406 1221.9469,607.4578 Q1221.7641,607.2891 1221.6656,606.825 Q1221.6234,606.5016 1221.4547,606.3328 Q1221.1594,605.9953 1220.6109,605.7984 Q1220.0625,605.6016 1219.5,605.6016 Q1218.8109,605.6016 1218.2344,605.8969 Q1217.6719,606.1922 1217.2219,606.8672 Q1216.7859,607.5422 1216.7859,608.4703 L1216.7859,609.4547 Q1216.7859,610.5656 1217.5875,611.3109 Q1218.3891,612.0422 1219.8234,612.0422 Q1220.6672,612.0422 1221.2578,611.8172 Q1221.6094,611.6766 1221.9891,611.2828 Q1222.2281,611.0438 1222.3547,610.9734 Q1222.4953,610.9031 1222.6781,610.9031 Q1222.9734,610.9031 1223.1984,611.1422 Q1223.4375,611.3672 1223.4375,611.6766 Q1223.4375,611.9859 1223.1281,612.3516 Q1222.6781,612.8719 1221.9609,613.1672 Q1220.9906,613.575 1219.8234,613.575 Q1218.4594,613.575 1217.3766,613.0125 Q1216.4906,612.5625 1215.8719,611.6063 Q1215.2531,610.6359 1215.2531,609.4828 L1215.2531,608.4422 Q1215.2531,607.2469 1215.8016,606.2203 Q1216.3641,605.1797 1217.3484,604.6313 Q1218.3328,604.0688 1219.4438,604.0688 Q1220.1047,604.0688 1220.6813,604.2234 Q1221.2719,604.3641 1221.7641,604.6875 Z " fill="#000000"/><text fill="#000000" font-family="sans-serif" font-size="12.6" lengthAdjust="spacing" textLength="141.3" x="1237.725" y="613.6172">BusinessTypeRepository</text><line style="stroke:#181818;stroke-width:0.45;" x1="1121.4" x2="1466.1" y1="622.8" y2="622.8"/><line style="stroke:#181818;stroke-width:0.45;" x1="1121.4" x2="1466.1" y1="630" y2="630"/><text fill="#000000" font-family="sans-serif" font-size="12.6" lengthAdjust="spacing" textLength="335.7" x="1125.9" y="647.1967">+getBusinessTypeByDescription(businessTypeDescription)</text><text fill="#000000" font-family="sans-serif" font-size="12.6" lengthAdjust="spacing" textLength="120.6" x="1125.9" y="663.9557">+getBusinessTypes()</text></g><!--class PropertyTypeRepository--><g id="elem_PropertyTypeRepository"><rect codeLine="73" fill="#F1F1F1" filter="url(#fazucncz4j4lq)" height="76.718" id="PropertyTypeRepository" rx="2.25" ry="2.25" style="stroke:#181818;stroke-width:0.45;" width="341.1" x="6.3" y="594"/><ellipse cx="103.725" cy="608.4" fill="#ADD1B2" rx="9.9" ry="9.9" style="stroke:#181818;stroke-width:0.9;"/><path d="M106.2141,604.6875 Q106.3547,604.4906 106.5234,604.3922 Q106.6922,604.2938 106.8891,604.2938 Q107.2266,604.2938 107.4375,604.5328 Q107.6484,604.7578 107.6484,605.3063 L107.6484,606.6141 Q107.6484,607.1625 107.4375,607.4016 Q107.2266,607.6406 106.8891,607.6406 Q106.5797,607.6406 106.3969,607.4578 Q106.2141,607.2891 106.1156,606.825 Q106.0734,606.5016 105.9047,606.3328 Q105.6094,605.9953 105.0609,605.7984 Q104.5125,605.6016 103.95,605.6016 Q103.2609,605.6016 102.6844,605.8969 Q102.1219,606.1922 101.6719,606.8672 Q101.2359,607.5422 101.2359,608.4703 L101.2359,609.4547 Q101.2359,610.5656 102.0375,611.3109 Q102.8391,612.0422 104.2734,612.0422 Q105.1172,612.0422 105.7078,611.8172 Q106.0594,611.6766 106.4391,611.2828 Q106.6781,611.0438 106.8047,610.9734 Q106.9453,610.9031 107.1281,610.9031 Q107.4234,610.9031 107.6484,611.1422 Q107.8875,611.3672 107.8875,611.6766 Q107.8875,611.9859 107.5781,612.3516 Q107.1281,612.8719 106.4109,613.1672 Q105.4406,613.575 104.2734,613.575 Q102.9094,613.575 101.8266,613.0125 Q100.9406,612.5625 100.3219,611.6063 Q99.7031,610.6359 99.7031,609.4828 L99.7031,608.4422 Q99.7031,607.2469 100.2516,606.2203 Q100.8141,605.1797 101.7984,604.6313 Q102.7828,604.0688 103.8938,604.0688 Q104.5547,604.0688 105.1313,604.2234 Q105.7219,604.3641 106.2141,604.6875 Z " fill="#000000"/><text fill="#000000" font-family="sans-serif" font-size="12.6" lengthAdjust="spacing" textLength="138.6" x="122.175" y="613.6172">PropertyTypeRepository</text><line style="stroke:#181818;stroke-width:0.45;" x1="7.2" x2="346.5" y1="622.8" y2="622.8"/><line style="stroke:#181818;stroke-width:0.45;" x1="7.2" x2="346.5" y1="630" y2="630"/><text fill="#000000" font-family="sans-serif" font-size="12.6" lengthAdjust="spacing" textLength="330.3" x="11.7" y="647.1967">+getPropertyTypeByDescription(propertyTypeDescription)</text><text fill="#000000" font-family="sans-serif" font-size="12.6" lengthAdjust="spacing" textLength="117.9" x="11.7" y="663.9557">+getPropertyTypes()</text></g><!--class StoreRepository--><g id="elem_StoreRepository"><rect codeLine="77" fill="#F1F1F1" filter="url(#fazucncz4j4lq)" height="76.718" id="StoreRepository" rx="2.25" ry="2.25" style="stroke:#181818;stroke-width:0.45;" width="246.6" x="1498.95" y="594"/><ellipse cx="1572.525" cy="608.4" fill="#ADD1B2" rx="9.9" ry="9.9" style="stroke:#181818;stroke-width:0.9;"/><path d="M1575.0141,604.6875 Q1575.1547,604.4906 1575.3234,604.3922 Q1575.4922,604.2938 1575.6891,604.2938 Q1576.0266,604.2938 1576.2375,604.5328 Q1576.4484,604.7578 1576.4484,605.3063 L1576.4484,606.6141 Q1576.4484,607.1625 1576.2375,607.4016 Q1576.0266,607.6406 1575.6891,607.6406 Q1575.3797,607.6406 1575.1969,607.4578 Q1575.0141,607.2891 1574.9156,606.825 Q1574.8734,606.5016 1574.7047,606.3328 Q1574.4094,605.9953 1573.8609,605.7984 Q1573.3125,605.6016 1572.75,605.6016 Q1572.0609,605.6016 1571.4844,605.8969 Q1570.9219,606.1922 1570.4719,606.8672 Q1570.0359,607.5422 1570.0359,608.4703 L1570.0359,609.4547 Q1570.0359,610.5656 1570.8375,611.3109 Q1571.6391,612.0422 1573.0734,612.0422 Q1573.9172,612.0422 1574.5078,611.8172 Q1574.8594,611.6766 1575.2391,611.2828 Q1575.4781,611.0438 1575.6047,610.9734 Q1575.7453,610.9031 1575.9281,610.9031 Q1576.2234,610.9031 1576.4484,611.1422 Q1576.6875,611.3672 1576.6875,611.6766 Q1576.6875,611.9859 1576.3781,612.3516 Q1575.9281,612.8719 1575.2109,613.1672 Q1574.2406,613.575 1573.0734,613.575 Q1571.7094,613.575 1570.6266,613.0125 Q1569.7406,612.5625 1569.1219,611.6063 Q1568.5031,610.6359 1568.5031,609.4828 L1568.5031,608.4422 Q1568.5031,607.2469 1569.0516,606.2203 Q1569.6141,605.1797 1570.5984,604.6313 Q1571.5828,604.0688 1572.6938,604.0688 Q1573.3547,604.0688 1573.9313,604.2234 Q1574.5219,604.3641 1575.0141,604.6875 Z " fill="#000000"/><text fill="#000000" font-family="sans-serif" font-size="12.6" lengthAdjust="spacing" textLength="91.8" x="1590.975" y="613.6172">StoreRepository</text><line style="stroke:#181818;stroke-width:0.45;" x1="1499.85" x2="1744.65" y1="622.8" y2="622.8"/><line style="stroke:#181818;stroke-width:0.45;" x1="1499.85" x2="1744.65" y1="630" y2="630"/><text fill="#000000" font-family="sans-serif" font-size="12.6" lengthAdjust="spacing" textLength="235.8" x="1504.35" y="647.1967">+getStoreByDescription(storeDescription)</text><text fill="#000000" font-family="sans-serif" font-size="12.6" lengthAdjust="spacing" textLength="71.1" x="1504.35" y="663.9557">+getStores()</text></g><!--class EmployeeRepository--><g id="elem_EmployeeRepository"><rect codeLine="82" fill="#F1F1F1" filter="url(#fazucncz4j4lq)" height="76.718" id="EmployeeRepository" rx="2.25" ry="2.25" style="stroke:#181818;stroke-width:0.45;" width="252.9" x="378.9" y="594"/><ellipse cx="443.025" cy="608.4" fill="#ADD1B2" rx="9.9" ry="9.9" style="stroke:#181818;stroke-width:0.9;"/><path d="M445.5141,604.6875 Q445.6547,604.4906 445.8234,604.3922 Q445.9922,604.2938 446.1891,604.2938 Q446.5266,604.2938 446.7375,604.5328 Q446.9484,604.7578 446.9484,605.3063 L446.9484,606.6141 Q446.9484,607.1625 446.7375,607.4016 Q446.5266,607.6406 446.1891,607.6406 Q445.8797,607.6406 445.6969,607.4578 Q445.5141,607.2891 445.4156,606.825 Q445.3734,606.5016 445.2047,606.3328 Q444.9094,605.9953 444.3609,605.7984 Q443.8125,605.6016 443.25,605.6016 Q442.5609,605.6016 441.9844,605.8969 Q441.4219,606.1922 440.9719,606.8672 Q440.5359,607.5422 440.5359,608.4703 L440.5359,609.4547 Q440.5359,610.5656 441.3375,611.3109 Q442.1391,612.0422 443.5734,612.0422 Q444.4172,612.0422 445.0078,611.8172 Q445.3594,611.6766 445.7391,611.2828 Q445.9781,611.0438 446.1047,610.9734 Q446.2453,610.9031 446.4281,610.9031 Q446.7234,610.9031 446.9484,611.1422 Q447.1875,611.3672 447.1875,611.6766 Q447.1875,611.9859 446.8781,612.3516 Q446.4281,612.8719 445.7109,613.1672 Q444.7406,613.575 443.5734,613.575 Q442.2094,613.575 441.1266,613.0125 Q440.2406,612.5625 439.6219,611.6063 Q439.0031,610.6359 439.0031,609.4828 L439.0031,608.4422 Q439.0031,607.2469 439.5516,606.2203 Q440.1141,605.1797 441.0984,604.6313 Q442.0828,604.0688 443.1938,604.0688 Q443.8547,604.0688 444.4313,604.2234 Q445.0219,604.3641 445.5141,604.6875 Z " fill="#000000"/><text fill="#000000" font-family="sans-serif" font-size="12.6" lengthAdjust="spacing" textLength="117" x="461.475" y="613.6172">EmployeeRepository</text><line style="stroke:#181818;stroke-width:0.45;" x1="379.8" x2="630.9" y1="622.8" y2="622.8"/><line style="stroke:#181818;stroke-width:0.45;" x1="379.8" x2="630.9" y1="630" y2="630"/><text fill="#000000" font-family="sans-serif" font-size="12.6" lengthAdjust="spacing" textLength="162.9" x="384.3" y="647.1967">+getAgentsFromStore(store)</text><text fill="#000000" font-family="sans-serif" font-size="12.6" lengthAdjust="spacing" textLength="242.1" x="384.3" y="663.9557">+getAgentByDescription(agentDescription)</text></g><!--class ClientRepository--><g id="elem_ClientRepository"><rect codeLine="87" fill="#F1F1F1" filter="url(#fazucncz4j4lq)" height="59.959" id="ClientRepository" rx="2.25" ry="2.25" style="stroke:#181818;stroke-width:0.45;" width="152.1" x="936.9" y="602.1"/><ellipse cx="963.765" cy="616.5" fill="#ADD1B2" rx="9.9" ry="9.9" style="stroke:#181818;stroke-width:0.9;"/><path d="M966.2541,612.7875 Q966.3947,612.5906 966.5634,612.4922 Q966.7322,612.3938 966.9291,612.3938 Q967.2666,612.3938 967.4775,612.6328 Q967.6884,612.8578 967.6884,613.4063 L967.6884,614.7141 Q967.6884,615.2625 967.4775,615.5016 Q967.2666,615.7406 966.9291,615.7406 Q966.6197,615.7406 966.4369,615.5578 Q966.2541,615.3891 966.1556,614.925 Q966.1134,614.6016 965.9447,614.4328 Q965.6494,614.0953 965.1009,613.8984 Q964.5525,613.7016 963.99,613.7016 Q963.3009,613.7016 962.7244,613.9969 Q962.1619,614.2922 961.7119,614.9672 Q961.2759,615.6422 961.2759,616.5703 L961.2759,617.5547 Q961.2759,618.6656 962.0775,619.4109 Q962.8791,620.1422 964.3134,620.1422 Q965.1572,620.1422 965.7478,619.9172 Q966.0994,619.7766 966.4791,619.3828 Q966.7181,619.1438 966.8447,619.0734 Q966.9853,619.0031 967.1681,619.0031 Q967.4634,619.0031 967.6884,619.2422 Q967.9275,619.4672 967.9275,619.7766 Q967.9275,620.0859 967.6181,620.4516 Q967.1681,620.9719 966.4509,621.2672 Q965.4806,621.675 964.3134,621.675 Q962.9494,621.675 961.8666,621.1125 Q960.9806,620.6625 960.3619,619.7063 Q959.7431,618.7359 959.7431,617.5828 L959.7431,616.5422 Q959.7431,615.3469 960.2916,614.3203 Q960.8541,613.2797 961.8384,612.7313 Q962.8228,612.1688 963.9337,612.1688 Q964.5947,612.1688 965.1713,612.3234 Q965.7619,612.4641 966.2541,612.7875 Z " fill="#000000"/><text fill="#000000" font-family="sans-serif" font-size="12.6" lengthAdjust="spacing" textLength="93.6" x="979.335" y="621.7172">ClientRepository</text><line style="stroke:#181818;stroke-width:0.45;" x1="937.8" x2="1088.1" y1="630.9" y2="630.9"/><line style="stroke:#181818;stroke-width:0.45;" x1="937.8" x2="1088.1" y1="638.1" y2="638.1"/><text fill="#000000" font-family="sans-serif" font-size="12.6" lengthAdjust="spacing" textLength="141.3" x="942.3" y="655.2967">+getClientByEmail(email)</text></g><!--class Repositories--><g id="elem_Repositories"><rect codeLine="91" fill="#F1F1F1" filter="url(#fazucncz4j4lq)" height="160.5129" id="Repositories" rx="2.25" ry="2.25" style="stroke:#181818;stroke-width:0.45;" width="186.3" x="675.9" y="115.2"/><ellipse cx="729.675" cy="129.6" fill="#ADD1B2" rx="9.9" ry="9.9" style="stroke:#181818;stroke-width:0.9;"/><path d="M732.1641,125.8875 Q732.3047,125.6906 732.4734,125.5922 Q732.6422,125.4938 732.8391,125.4938 Q733.1766,125.4938 733.3875,125.7328 Q733.5984,125.9578 733.5984,126.5063 L733.5984,127.8141 Q733.5984,128.3625 733.3875,128.6016 Q733.1766,128.8406 732.8391,128.8406 Q732.5297,128.8406 732.3469,128.6578 Q732.1641,128.4891 732.0656,128.025 Q732.0234,127.7016 731.8547,127.5328 Q731.5594,127.1953 731.0109,126.9984 Q730.4625,126.8016 729.9,126.8016 Q729.2109,126.8016 728.6344,127.0969 Q728.0719,127.3922 727.6219,128.0672 Q727.1859,128.7422 727.1859,129.6703 L727.1859,130.6547 Q727.1859,131.7656 727.9875,132.5109 Q728.7891,133.2422 730.2234,133.2422 Q731.0672,133.2422 731.6578,133.0172 Q732.0094,132.8766 732.3891,132.4828 Q732.6281,132.2438 732.7547,132.1734 Q732.8953,132.1031 733.0781,132.1031 Q733.3734,132.1031 733.5984,132.3422 Q733.8375,132.5672 733.8375,132.8766 Q733.8375,133.1859 733.5281,133.5516 Q733.0781,134.0719 732.3609,134.3672 Q731.3906,134.775 730.2234,134.775 Q728.8594,134.775 727.7766,134.2125 Q726.8906,133.7625 726.2719,132.8063 Q725.6531,131.8359 725.6531,130.6828 L725.6531,129.6422 Q725.6531,128.4469 726.2016,127.4203 Q726.7641,126.3797 727.7484,125.8313 Q728.7328,125.2688 729.8438,125.2688 Q730.5047,125.2688 731.0813,125.4234 Q731.6719,125.5641 732.1641,125.8875 Z " fill="#000000"/><text fill="#000000" font-family="sans-serif" font-size="12.6" lengthAdjust="spacing" textLength="71.1" x="748.125" y="134.8172">Repositories</text><line style="stroke:#181818;stroke-width:0.45;" x1="676.8" x2="861.3" y1="144" y2="144"/><line style="stroke:#181818;stroke-width:0.45;" x1="676.8" x2="861.3" y1="151.2" y2="151.2"/><text fill="#000000" font-family="sans-serif" font-size="12.6" lengthAdjust="spacing" textLength="84.6" x="681.3" y="168.3967">-Repositories()</text><text fill="#000000" font-family="sans-serif" font-size="12.6" lengthAdjust="spacing" textLength="163.8" x="681.3" y="185.1557">+getInstance() : Repositories</text><text fill="#000000" font-family="sans-serif" font-size="12.6" lengthAdjust="spacing" textLength="175.5" x="681.3" y="201.9146">+getBusinessTypeRepository()</text><text fill="#000000" font-family="sans-serif" font-size="12.6" lengthAdjust="spacing" textLength="172.8" x="681.3" y="218.6736">+getPropertyTypeRepository()</text><text fill="#000000" font-family="sans-serif" font-size="12.6" lengthAdjust="spacing" textLength="127.8" x="681.3" y="235.4326">+getClientRepository()</text><text fill="#000000" font-family="sans-serif" font-size="12.6" lengthAdjust="spacing" textLength="126" x="681.3" y="252.1916">+getStoreRepository()</text><text fill="#000000" font-family="sans-serif" font-size="12.6" lengthAdjust="spacing" textLength="151.2" x="681.3" y="268.9506">+getEmployeeRepository()</text></g><!--class CreatePropertyController--><g id="elem_CreatePropertyController"><rect codeLine="101" fill="#F1F1F1" filter="url(#fazucncz4j4lq)" height="378.3797" id="CreatePropertyController" rx="2.25" ry="2.25" style="stroke:#181818;stroke-width:0.45;" width="540" x="1068.75" y="6.3"/><ellipse cx="1263.375" cy="20.7" fill="#ADD1B2" rx="9.9" ry="9.9" style="stroke:#181818;stroke-width:0.9;"/><path d="M1265.8641,16.9875 Q1266.0047,16.7906 1266.1734,16.6922 Q1266.3422,16.5938 1266.5391,16.5938 Q1266.8766,16.5938 1267.0875,16.8328 Q1267.2984,17.0578 1267.2984,17.6063 L1267.2984,18.9141 Q1267.2984,19.4625 1267.0875,19.7016 Q1266.8766,19.9406 1266.5391,19.9406 Q1266.2297,19.9406 1266.0469,19.7578 Q1265.8641,19.5891 1265.7656,19.125 Q1265.7234,18.8016 1265.5547,18.6328 Q1265.2594,18.2953 1264.7109,18.0984 Q1264.1625,17.9016 1263.6,17.9016 Q1262.9109,17.9016 1262.3344,18.1969 Q1261.7719,18.4922 1261.3219,19.1672 Q1260.8859,19.8422 1260.8859,20.7703 L1260.8859,21.7547 Q1260.8859,22.8656 1261.6875,23.6109 Q1262.4891,24.3422 1263.9234,24.3422 Q1264.7672,24.3422 1265.3578,24.1172 Q1265.7094,23.9766 1266.0891,23.5828 Q1266.3281,23.3438 1266.4547,23.2734 Q1266.5953,23.2031 1266.7781,23.2031 Q1267.0734,23.2031 1267.2984,23.4422 Q1267.5375,23.6672 1267.5375,23.9766 Q1267.5375,24.2859 1267.2281,24.6516 Q1266.7781,25.1719 1266.0609,25.4672 Q1265.0906,25.875 1263.9234,25.875 Q1262.5594,25.875 1261.4766,25.3125 Q1260.5906,24.8625 1259.9719,23.9063 Q1259.3531,22.9359 1259.3531,21.7828 L1259.3531,20.7422 Q1259.3531,19.5469 1259.9016,18.5203 Q1260.4641,17.4797 1261.4484,16.9313 Q1262.4328,16.3688 1263.5438,16.3688 Q1264.2047,16.3688 1264.7813,16.5234 Q1265.3719,16.6641 1265.8641,16.9875 Z " fill="#000000"/><text fill="#000000" font-family="sans-serif" font-size="12.6" lengthAdjust="spacing" textLength="143.1" x="1281.825" y="25.9172">CreatePropertyController</text><line style="stroke:#181818;stroke-width:0.45;" x1="1069.65" x2="1607.85" y1="35.1" y2="35.1"/><line style="stroke:#181818;stroke-width:0.45;" x1="1069.65" x2="1607.85" y1="42.3" y2="42.3"/><text fill="#000000" font-family="sans-serif" font-size="12.6" lengthAdjust="spacing" textLength="159.3" x="1074.15" y="59.4967">+CreatePropertyController()</text><text fill="#000000" font-family="sans-serif" font-size="12.6" lengthAdjust="spacing" textLength="120.6" x="1074.15" y="76.2557">+getBusinessTypes()</text><text fill="#000000" font-family="sans-serif" font-size="12.6" lengthAdjust="spacing" textLength="117.9" x="1074.15" y="93.0146">+getPropertyTypes()</text><text fill="#000000" font-family="sans-serif" font-size="12.6" lengthAdjust="spacing" textLength="71.1" x="1074.15" y="109.7736">+getStores()</text><text fill="#000000" font-family="sans-serif" font-size="12.6" lengthAdjust="spacing" textLength="226.8" x="1074.15" y="126.5326">+getAgentsFromStore(storeDescription)</text><text fill="#000000" font-family="sans-serif" font-size="12.6" lengthAdjust="spacing" textLength="235.8" x="1074.15" y="143.2916">+getStoreByDescription(storeDescription)</text><text fill="#000000" font-family="sans-serif" font-size="12.6" lengthAdjust="spacing" textLength="335.7" x="1074.15" y="160.0506">+getBusinessTypeByDescription(businessTypeDescription)</text><text fill="#000000" font-family="sans-serif" font-size="12.6" lengthAdjust="spacing" textLength="330.3" x="1074.15" y="176.8096">+getPropertyTypeByDescription(propertyTypeDescription)</text><text fill="#000000" font-family="sans-serif" font-size="12.6" lengthAdjust="spacing" textLength="242.1" x="1074.15" y="193.5686">+getAgentByDescription(agentDescription)</text><text fill="#000000" font-family="sans-serif" font-size="12.6" lengthAdjust="spacing" textLength="138.6" x="1074.15" y="210.3275">-getClientFromSession()</text><text fill="#000000" font-family="sans-serif" font-size="12.6" lengthAdjust="spacing" textLength="402.3" x="1074.15" y="227.0865">+createProperty(price, area, address, distanceToCentre, photographs,</text><text fill="#000000" font-family="sans-serif" font-size="12.6" lengthAdjust="spacing" textLength="193.5" x="1074.15" y="243.8455">propertyType, store, agent, client)</text><text fill="#000000" font-family="sans-serif" font-size="12.6" lengthAdjust="spacing" textLength="402.3" x="1074.15" y="260.6045">+createProperty(price, area, address, distanceToCentre, photographs,</text><text fill="#000000" font-family="sans-serif" font-size="12.6" lengthAdjust="spacing" textLength="419.4" x="1074.15" y="277.3635">bedroomNumber, bathroomNumber, parkingSpaceNumber, equipmentList,</text><text fill="#000000" font-family="sans-serif" font-size="12.6" lengthAdjust="spacing" textLength="193.5" x="1074.15" y="294.1225">propertyType, store, agent, client)</text><text fill="#000000" font-family="sans-serif" font-size="12.6" lengthAdjust="spacing" textLength="504" x="1074.15" y="310.8814">+createProperty(price, area, address, distanceToCentre, photographs, bedroomNumber,</text><text fill="#000000" font-family="sans-serif" font-size="12.6" lengthAdjust="spacing" textLength="529.2" x="1074.15" y="327.6404">bathroomNumber, parkingSpaceNumber,equipmentList, hasBasement, hasLoft, sunExposure,</text><text fill="#000000" font-family="sans-serif" font-size="12.6" lengthAdjust="spacing" textLength="281.7" x="1074.15" y="344.3994">propertyTypeDescription, storeDescription, client)</text><text fill="#000000" font-family="sans-serif" font-size="12.6" lengthAdjust="spacing" textLength="474.3" x="1074.15" y="361.1584">+createAnnouncementRequest(rentDuration, businessType, property, agent, client)</text><text fill="#000000" font-family="sans-serif" font-size="12.6" lengthAdjust="spacing" textLength="396" x="1074.15" y="377.9174">+createAnnouncementRequest(businessType, property, agent, client)</text></g><!--class AnnouncementRequest--><g id="elem_AnnouncementRequest"><rect codeLine="118" fill="#F1F1F1" filter="url(#fazucncz4j4lq)" height="93.477" id="AnnouncementRequest" rx="2.25" ry="2.25" style="stroke:#181818;stroke-width:0.45;" width="441.9" x="553.5" y="1027.8"/><ellipse cx="704.025" cy="1042.2" fill="#ADD1B2" rx="9.9" ry="9.9" style="stroke:#181818;stroke-width:0.9;"/><path d="M706.5141,1038.4875 Q706.6547,1038.2906 706.8234,1038.1922 Q706.9922,1038.0938 707.1891,1038.0938 Q707.5266,1038.0938 707.7375,1038.3328 Q707.9484,1038.5578 707.9484,1039.1063 L707.9484,1040.4141 Q707.9484,1040.9625 707.7375,1041.2016 Q707.5266,1041.4406 707.1891,1041.4406 Q706.8797,1041.4406 706.6969,1041.2578 Q706.5141,1041.0891 706.4156,1040.625 Q706.3734,1040.3016 706.2047,1040.1328 Q705.9094,1039.7953 705.3609,1039.5984 Q704.8125,1039.4016 704.25,1039.4016 Q703.5609,1039.4016 702.9844,1039.6969 Q702.4219,1039.9922 701.9719,1040.6672 Q701.5359,1041.3422 701.5359,1042.2703 L701.5359,1043.2547 Q701.5359,1044.3656 702.3375,1045.1109 Q703.1391,1045.8422 704.5734,1045.8422 Q705.4172,1045.8422 706.0078,1045.6172 Q706.3594,1045.4766 706.7391,1045.0828 Q706.9781,1044.8438 707.1047,1044.7734 Q707.2453,1044.7031 707.4281,1044.7031 Q707.7234,1044.7031 707.9484,1044.9422 Q708.1875,1045.1672 708.1875,1045.4766 Q708.1875,1045.7859 707.8781,1046.1516 Q707.4281,1046.6719 706.7109,1046.9672 Q705.7406,1047.375 704.5734,1047.375 Q703.2094,1047.375 702.1266,1046.8125 Q701.2406,1046.3625 700.6219,1045.4063 Q700.0031,1044.4359 700.0031,1043.2828 L700.0031,1042.2422 Q700.0031,1041.0469 700.5516,1040.0203 Q701.1141,1038.9797 702.0984,1038.4313 Q703.0828,1037.8688 704.1938,1037.8688 Q704.8547,1037.8688 705.4313,1038.0234 Q706.0219,1038.1641 706.5141,1038.4875 Z " fill="#000000"/><text fill="#000000" font-family="sans-serif" font-size="12.6" lengthAdjust="spacing" textLength="133.2" x="722.475" y="1047.4172">AnnouncementRequest</text><line style="stroke:#181818;stroke-width:0.45;" x1="554.4" x2="994.5" y1="1056.6" y2="1056.6"/><text fill="#000000" font-family="sans-serif" font-size="12.6" lengthAdjust="spacing" textLength="118.8" x="558.9" y="1073.7967">-Integer rentDuration</text><line style="stroke:#181818;stroke-width:0.45;" x1="554.4" x2="994.5" y1="1080.559" y2="1080.559"/><text fill="#000000" font-family="sans-serif" font-size="12.6" lengthAdjust="spacing" textLength="356.4" x="558.9" y="1097.7557">+AnnouncementRequest(businessType, property, agent,client)</text><text fill="#000000" font-family="sans-serif" font-size="12.6" lengthAdjust="spacing" textLength="431.1" x="558.9" y="1114.5146">+AnnouncementRequest(rentDuration,businessType, property, agent,client)</text></g><!--class Store--><g id="elem_Store"><rect codeLine="123" fill="#F1F1F1" filter="url(#fazucncz4j4lq)" height="294.5848" id="Store" rx="2.25" ry="2.25" style="stroke:#181818;stroke-width:0.45;" width="540" x="886.05" y="1356.3"/><ellipse cx="1136.925" cy="1370.7" fill="#ADD1B2" rx="9.9" ry="9.9" style="stroke:#181818;stroke-width:0.9;"/><path d="M1139.4141,1366.9875 Q1139.5547,1366.7906 1139.7234,1366.6922 Q1139.8922,1366.5938 1140.0891,1366.5938 Q1140.4266,1366.5938 1140.6375,1366.8328 Q1140.8484,1367.0578 1140.8484,1367.6063 L1140.8484,1368.9141 Q1140.8484,1369.4625 1140.6375,1369.7016 Q1140.4266,1369.9406 1140.0891,1369.9406 Q1139.7797,1369.9406 1139.5969,1369.7578 Q1139.4141,1369.5891 1139.3156,1369.125 Q1139.2734,1368.8016 1139.1047,1368.6328 Q1138.8094,1368.2953 1138.2609,1368.0984 Q1137.7125,1367.9016 1137.15,1367.9016 Q1136.4609,1367.9016 1135.8844,1368.1969 Q1135.3219,1368.4922 1134.8719,1369.1672 Q1134.4359,1369.8422 1134.4359,1370.7703 L1134.4359,1371.7547 Q1134.4359,1372.8656 1135.2375,1373.6109 Q1136.0391,1374.3422 1137.4734,1374.3422 Q1138.3172,1374.3422 1138.9078,1374.1172 Q1139.2594,1373.9766 1139.6391,1373.5828 Q1139.8781,1373.3438 1140.0047,1373.2734 Q1140.1453,1373.2031 1140.3281,1373.2031 Q1140.6234,1373.2031 1140.8484,1373.4422 Q1141.0875,1373.6672 1141.0875,1373.9766 Q1141.0875,1374.2859 1140.7781,1374.6516 Q1140.3281,1375.1719 1139.6109,1375.4672 Q1138.6406,1375.875 1137.4734,1375.875 Q1136.1094,1375.875 1135.0266,1375.3125 Q1134.1406,1374.8625 1133.5219,1373.9063 Q1132.9031,1372.9359 1132.9031,1371.7828 L1132.9031,1370.7422 Q1132.9031,1369.5469 1133.4516,1368.5203 Q1134.0141,1367.4797 1134.9984,1366.9313 Q1135.9828,1366.3688 1137.0938,1366.3688 Q1137.7547,1366.3688 1138.3313,1366.5234 Q1138.9219,1366.6641 1139.4141,1366.9875 Z " fill="#000000"/><text fill="#000000" font-family="sans-serif" font-size="12.6" lengthAdjust="spacing" textLength="30.6" x="1155.375" y="1375.9172">Store</text><line style="stroke:#181818;stroke-width:0.45;" x1="886.95" x2="1425.15" y1="1385.1" y2="1385.1"/><text fill="#000000" font-family="sans-serif" font-size="12.6" lengthAdjust="spacing" textLength="107.1" x="891.45" y="1402.2967">-String designation</text><text fill="#000000" font-family="sans-serif" font-size="12.6" lengthAdjust="spacing" textLength="71.1" x="891.45" y="1419.0557">-String email</text><text fill="#000000" font-family="sans-serif" font-size="12.6" lengthAdjust="spacing" textLength="127.8" x="891.45" y="1435.8146">-Integer phoneNumber</text><line style="stroke:#181818;stroke-width:0.45;" x1="886.95" x2="1425.15" y1="1442.577" y2="1442.577"/><text fill="#000000" font-family="sans-serif" font-size="12.6" lengthAdjust="spacing" textLength="402.3" x="891.45" y="1459.7736">+createProperty(price, area, address, distanceToCentre, photographs,</text><text fill="#000000" font-family="sans-serif" font-size="12.6" lengthAdjust="spacing" textLength="193.5" x="891.45" y="1476.5326">propertyType, store, agent, client)</text><text fill="#000000" font-family="sans-serif" font-size="12.6" lengthAdjust="spacing" textLength="402.3" x="891.45" y="1493.2916">+createProperty(price, area, address, distanceToCentre, photographs,</text><text fill="#000000" font-family="sans-serif" font-size="12.6" lengthAdjust="spacing" textLength="419.4" x="891.45" y="1510.0506">bedroomNumber, bathroomNumber, parkingSpaceNumber, equipmentList,</text><text fill="#000000" font-family="sans-serif" font-size="12.6" lengthAdjust="spacing" textLength="193.5" x="891.45" y="1526.8096">propertyType, store, agent, client)</text><text fill="#000000" font-family="sans-serif" font-size="12.6" lengthAdjust="spacing" textLength="504" x="891.45" y="1543.5686">+createProperty(price, area, address, distanceToCentre, photographs, bedroomNumber,</text><text fill="#000000" font-family="sans-serif" font-size="12.6" lengthAdjust="spacing" textLength="529.2" x="891.45" y="1560.3275">bathroomNumber, parkingSpaceNumber,equipmentList, hasBasement, hasLoft, sunExposure,</text><text fill="#000000" font-family="sans-serif" font-size="12.6" lengthAdjust="spacing" textLength="281.7" x="891.45" y="1577.0865">propertyTypeDescription, storeDescription, client)</text><text fill="#000000" font-family="sans-serif" font-size="12.6" lengthAdjust="spacing" textLength="474.3" x="891.45" y="1593.8455">+createAnnouncementRequest(rentDuration, businessType, property, agent, client)</text><text fill="#000000" font-family="sans-serif" font-size="12.6" lengthAdjust="spacing" textLength="396" x="891.45" y="1610.6045">+createAnnouncementRequest(businessType, property, agent, client)</text><text fill="#000000" font-family="sans-serif" font-size="12.6" lengthAdjust="spacing" textLength="131.4" x="891.45" y="1627.3635">-addProperty(property)</text><text fill="#000000" font-family="sans-serif" font-size="12.6" lengthAdjust="spacing" textLength="153.9" x="891.45" y="1644.1225">-validateProperty(property)</text></g><!--class CreatePropertyUI--><g id="elem_CreatePropertyUI"><rect codeLine="136" fill="#F1F1F1" filter="url(#fazucncz4j4lq)" height="43.2" id="CreatePropertyUI" rx="2.25" ry="2.25" style="stroke:#181818;stroke-width:0.45;" width="126.9" x="909.9" y="173.7"/><ellipse cx="923.4" cy="188.1" fill="#ADD1B2" rx="9.9" ry="9.9" style="stroke:#181818;stroke-width:0.9;"/><path d="M925.8891,184.3875 Q926.0297,184.1906 926.1984,184.0922 Q926.3672,183.9938 926.5641,183.9938 Q926.9016,183.9938 927.1125,184.2328 Q927.3234,184.4578 927.3234,185.0063 L927.3234,186.3141 Q927.3234,186.8625 927.1125,187.1016 Q926.9016,187.3406 926.5641,187.3406 Q926.2547,187.3406 926.0719,187.1578 Q925.8891,186.9891 925.7906,186.525 Q925.7484,186.2016 925.5797,186.0328 Q925.2844,185.6953 924.7359,185.4984 Q924.1875,185.3016 923.625,185.3016 Q922.9359,185.3016 922.3594,185.5969 Q921.7969,185.8922 921.3469,186.5672 Q920.9109,187.2422 920.9109,188.1703 L920.9109,189.1547 Q920.9109,190.2656 921.7125,191.0109 Q922.5141,191.7422 923.9484,191.7422 Q924.7922,191.7422 925.3828,191.5172 Q925.7344,191.3766 926.1141,190.9828 Q926.3531,190.7438 926.4797,190.6734 Q926.6203,190.6031 926.8031,190.6031 Q927.0984,190.6031 927.3234,190.8422 Q927.5625,191.0672 927.5625,191.3766 Q927.5625,191.6859 927.2531,192.0516 Q926.8031,192.5719 926.0859,192.8672 Q925.1156,193.275 923.9484,193.275 Q922.5844,193.275 921.5016,192.7125 Q920.6156,192.2625 919.9969,191.3063 Q919.3781,190.3359 919.3781,189.1828 L919.3781,188.1422 Q919.3781,186.9469 919.9266,185.9203 Q920.4891,184.8797 921.4734,184.3313 Q922.4578,183.7688 923.5688,183.7688 Q924.2297,183.7688 924.8063,183.9234 Q925.3969,184.0641 925.8891,184.3875 Z " fill="#000000"/><text fill="#000000" font-family="sans-serif" font-size="12.6" lengthAdjust="spacing" textLength="98.1" x="936" y="193.3172">CreatePropertyUI</text><line style="stroke:#181818;stroke-width:0.45;" x1="910.8" x2="1035.9" y1="202.5" y2="202.5"/><line style="stroke:#181818;stroke-width:0.45;" x1="910.8" x2="1035.9" y1="209.7" y2="209.7"/></g><!--class Role--><g id="elem_Role"><rect codeLine="138" fill="#F1F1F1" filter="url(#fazucncz4j4lq)" height="76.718" id="Role" rx="2.25" ry="2.25" style="stroke:#181818;stroke-width:0.45;" width="114.3" x="342.9" y="1036.35"/><ellipse cx="383.175" cy="1050.75" fill="#ADD1B2" rx="9.9" ry="9.9" style="stroke:#181818;stroke-width:0.9;"/><path d="M385.6641,1047.0375 Q385.8047,1046.8406 385.9734,1046.7422 Q386.1422,1046.6438 386.3391,1046.6438 Q386.6766,1046.6438 386.8875,1046.8828 Q387.0984,1047.1078 387.0984,1047.6563 L387.0984,1048.9641 Q387.0984,1049.5125 386.8875,1049.7516 Q386.6766,1049.9906 386.3391,1049.9906 Q386.0297,1049.9906 385.8469,1049.8078 Q385.6641,1049.6391 385.5656,1049.175 Q385.5234,1048.8516 385.3547,1048.6828 Q385.0594,1048.3453 384.5109,1048.1484 Q383.9625,1047.9516 383.4,1047.9516 Q382.7109,1047.9516 382.1344,1048.2469 Q381.5719,1048.5422 381.1219,1049.2172 Q380.6859,1049.8922 380.6859,1050.8203 L380.6859,1051.8047 Q380.6859,1052.9156 381.4875,1053.6609 Q382.2891,1054.3922 383.7234,1054.3922 Q384.5672,1054.3922 385.1578,1054.1672 Q385.5094,1054.0266 385.8891,1053.6328 Q386.1281,1053.3938 386.2547,1053.3234 Q386.3953,1053.2531 386.5781,1053.2531 Q386.8734,1053.2531 387.0984,1053.4922 Q387.3375,1053.7172 387.3375,1054.0266 Q387.3375,1054.3359 387.0281,1054.7016 Q386.5781,1055.2219 385.8609,1055.5172 Q384.8906,1055.925 383.7234,1055.925 Q382.3594,1055.925 381.2766,1055.3625 Q380.3906,1054.9125 379.7719,1053.9563 Q379.1531,1052.9859 379.1531,1051.8328 L379.1531,1050.7922 Q379.1531,1049.5969 379.7016,1048.5703 Q380.2641,1047.5297 381.2484,1046.9813 Q382.2328,1046.4188 383.3438,1046.4188 Q384.0047,1046.4188 384.5813,1046.5734 Q385.1719,1046.7141 385.6641,1047.0375 Z " fill="#000000"/><text fill="#000000" font-family="sans-serif" font-size="12.6" lengthAdjust="spacing" textLength="26.1" x="401.625" y="1055.9672">Role</text><line style="stroke:#181818;stroke-width:0.45;" x1="343.8" x2="456.3" y1="1065.15" y2="1065.15"/><text fill="#000000" font-family="sans-serif" font-size="12.6" lengthAdjust="spacing" textLength="57.6" x="348.3" y="1082.3467">-Integer id</text><text fill="#000000" font-family="sans-serif" font-size="12.6" lengthAdjust="spacing" textLength="103.5" x="348.3" y="1099.1057">-String description</text><line style="stroke:#181818;stroke-width:0.45;" x1="343.8" x2="456.3" y1="1105.868" y2="1105.868"/></g><!--class Agent--><g id="elem_Agent"><rect fill="#F1F1F1" filter="url(#fazucncz4j4lq)" height="43.2" id="Agent" rx="2.25" ry="2.25" style="stroke:#181818;stroke-width:0.45;" width="62.1" x="849.6" y="1217.25"/><ellipse cx="863.1" cy="1231.65" fill="#ADD1B2" rx="9.9" ry="9.9" style="stroke:#181818;stroke-width:0.9;"/><path d="M865.5891,1227.9375 Q865.7297,1227.7406 865.8984,1227.6422 Q866.0672,1227.5438 866.2641,1227.5438 Q866.6016,1227.5438 866.8125,1227.7828 Q867.0234,1228.0078 867.0234,1228.5563 L867.0234,1229.8641 Q867.0234,1230.4125 866.8125,1230.6516 Q866.6016,1230.8906 866.2641,1230.8906 Q865.9547,1230.8906 865.7719,1230.7078 Q865.5891,1230.5391 865.4906,1230.075 Q865.4484,1229.7516 865.2797,1229.5828 Q864.9844,1229.2453 864.4359,1229.0484 Q863.8875,1228.8516 863.325,1228.8516 Q862.6359,1228.8516 862.0594,1229.1469 Q861.4969,1229.4422 861.0469,1230.1172 Q860.6109,1230.7922 860.6109,1231.7203 L860.6109,1232.7047 Q860.6109,1233.8156 861.4125,1234.5609 Q862.2141,1235.2922 863.6484,1235.2922 Q864.4922,1235.2922 865.0828,1235.0672 Q865.4344,1234.9266 865.8141,1234.5328 Q866.0531,1234.2938 866.1797,1234.2234 Q866.3203,1234.1531 866.5031,1234.1531 Q866.7984,1234.1531 867.0234,1234.3922 Q867.2625,1234.6172 867.2625,1234.9266 Q867.2625,1235.2359 866.9531,1235.6016 Q866.5031,1236.1219 865.7859,1236.4172 Q864.8156,1236.825 863.6484,1236.825 Q862.2844,1236.825 861.2016,1236.2625 Q860.3156,1235.8125 859.6969,1234.8563 Q859.0781,1233.8859 859.0781,1232.7328 L859.0781,1231.6922 Q859.0781,1230.4969 859.6266,1229.4703 Q860.1891,1228.4297 861.1734,1227.8813 Q862.1578,1227.3188 863.2688,1227.3188 Q863.9297,1227.3188 864.5063,1227.4734 Q865.0969,1227.6141 865.5891,1227.9375 Z " fill="#000000"/><text fill="#000000" font-family="sans-serif" font-size="12.6" lengthAdjust="spacing" textLength="33.3" x="875.7" y="1236.8672">Agent</text><line style="stroke:#181818;stroke-width:0.45;" x1="850.5" x2="910.8" y1="1246.05" y2="1246.05"/><line style="stroke:#181818;stroke-width:0.45;" x1="850.5" x2="910.8" y1="1253.25" y2="1253.25"/></g><!--class Client--><g id="elem_Client"><rect fill="#F1F1F1" filter="url(#fazucncz4j4lq)" height="43.2" id="Client" rx="2.25" ry="2.25" style="stroke:#181818;stroke-width:0.45;" width="61.2" x="964.35" y="1217.25"/><ellipse cx="977.85" cy="1231.65" fill="#ADD1B2" rx="9.9" ry="9.9" style="stroke:#181818;stroke-width:0.9;"/><path d="M980.3391,1227.9375 Q980.4797,1227.7406 980.6484,1227.6422 Q980.8172,1227.5438 981.0141,1227.5438 Q981.3516,1227.5438 981.5625,1227.7828 Q981.7734,1228.0078 981.7734,1228.5563 L981.7734,1229.8641 Q981.7734,1230.4125 981.5625,1230.6516 Q981.3516,1230.8906 981.0141,1230.8906 Q980.7047,1230.8906 980.5219,1230.7078 Q980.3391,1230.5391 980.2406,1230.075 Q980.1984,1229.7516 980.0297,1229.5828 Q979.7344,1229.2453 979.1859,1229.0484 Q978.6375,1228.8516 978.075,1228.8516 Q977.3859,1228.8516 976.8094,1229.1469 Q976.2469,1229.4422 975.7969,1230.1172 Q975.3609,1230.7922 975.3609,1231.7203 L975.3609,1232.7047 Q975.3609,1233.8156 976.1625,1234.5609 Q976.9641,1235.2922 978.3984,1235.2922 Q979.2422,1235.2922 979.8328,1235.0672 Q980.1844,1234.9266 980.5641,1234.5328 Q980.8031,1234.2938 980.9297,1234.2234 Q981.0703,1234.1531 981.2531,1234.1531 Q981.5484,1234.1531 981.7734,1234.3922 Q982.0125,1234.6172 982.0125,1234.9266 Q982.0125,1235.2359 981.7031,1235.6016 Q981.2531,1236.1219 980.5359,1236.4172 Q979.5656,1236.825 978.3984,1236.825 Q977.0344,1236.825 975.9516,1236.2625 Q975.0656,1235.8125 974.4469,1234.8563 Q973.8281,1233.8859 973.8281,1232.7328 L973.8281,1231.6922 Q973.8281,1230.4969 974.3766,1229.4703 Q974.9391,1228.4297 975.9234,1227.8813 Q976.9078,1227.3188 978.0188,1227.3188 Q978.6797,1227.3188 979.2563,1227.4734 Q979.8469,1227.6141 980.3391,1227.9375 Z " fill="#000000"/><text fill="#000000" font-family="sans-serif" font-size="12.6" lengthAdjust="spacing" textLength="32.4" x="990.45" y="1236.8672">Client</text><line style="stroke:#181818;stroke-width:0.45;" x1="965.25" x2="1024.65" y1="1246.05" y2="1246.05"/><line style="stroke:#181818;stroke-width:0.45;" x1="965.25" x2="1024.65" y1="1253.25" y2="1253.25"/></g><!--link Repositories to Repositories--><g id="link_Repositories_Repositories"><path codeLine="143" d="M769.05,114.975 C769.05,86.409 769.05,61.2 769.05,61.2 C769.05,61.2 669.825,61.2 669.825,61.2 C669.825,61.2 669.825,303.3 669.825,303.3 C669.825,303.3 800.1,303.3 800.1,303.3 C800.1,303.3 800.1,279.99 800.1,279.99 " fill="none" id="Repositories-to-Repositories" style="stroke:#181818;stroke-width:0.9;"/><polygon fill="#181818" points="800.1,275.49,796.5,283.59,800.1,279.99,803.7,283.59,800.1,275.49" style="stroke:#181818;stroke-width:0.9;"/><text fill="#000000" font-family="sans-serif" font-size="11.7" lengthAdjust="spacing" textLength="44.1" x="620.325" y="174.4725">instance</text></g><!--link ApplicationSession to ApplicationSession--><g id="link_ApplicationSession_ApplicationSession"><path codeLine="144" d="M1665.225,438.102 C1665.225,428.211 1665.225,420.3 1665.225,420.3 C1665.225,420.3 1733.625,420.3 1733.625,420.3 C1733.625,420.3 1733.625,541.8 1733.625,541.8 C1733.625,541.8 1653.75,541.8 1653.75,541.8 C1653.75,541.8 1653.75,519.381 1653.75,519.381 " fill="none" id="ApplicationSession-to-ApplicationSession" style="stroke:#181818;stroke-width:0.9;"/><polygon fill="#181818" points="1653.75,514.881,1650.15,522.981,1653.75,519.381,1657.35,522.981,1653.75,514.881" style="stroke:#181818;stroke-width:0.9;"/><text fill="#000000" font-family="sans-serif" font-size="11.7" lengthAdjust="spacing" textLength="44.1" x="1739.025" y="481.0215">instance</text></g><!--link CreatePropertyUI to CreatePropertyController--><g id="link_CreatePropertyUI_CreatePropertyController"><path codeLine="146" d="M1036.998,195.3 C1036.998,195.3 1050.642,195.3 1050.642,195.3 " fill="none" id="CreatePropertyUI-to-CreatePropertyController" style="stroke:#181818;stroke-width:0.9;stroke-dasharray:7.0,7.0;"/><polygon fill="none" points="1050.642,189,1068.642,195.3,1050.642,201.6,1050.642,189" style="stroke:#181818;stroke-width:0.9;"/></g><!--reverse link Repositories to CreatePropertyController--><g id="link_Repositories_CreatePropertyController"><path codeLine="148" d="M866.988,232.2 C866.988,232.2 1068.741,232.2 1068.741,232.2 " fill="none" id="Repositories-backto-CreatePropertyController" style="stroke:#181818;stroke-width:0.9;stroke-dasharray:7.0,7.0;"/><polygon fill="#181818" points="862.488,232.2,870.588,235.8,866.988,232.2,870.588,228.6,862.488,232.2" style="stroke:#181818;stroke-width:0.9;"/><text fill="#000000" font-family="sans-serif" font-size="11.7" lengthAdjust="spacing" textLength="60.3" x="906.669" y="245.7255">repositories</text></g><!--link Repositories to BusinessTypeRepository--><g id="link_Repositories_BusinessTypeRepository"><path codeLine="150" d="M862.398,261 C894.906,261 923.4,261 923.4,261 C923.4,261 923.4,598.5 923.4,598.5 C923.4,598.5 1115.73,598.5 1115.73,598.5 " fill="none" id="Repositories-to-BusinessTypeRepository" style="stroke:#181818;stroke-width:0.9;"/><polygon fill="#181818" points="1120.23,598.5,1112.13,594.9,1115.73,598.5,1112.13,602.1,1120.23,598.5" style="stroke:#181818;stroke-width:0.9;"/><text fill="#000000" font-family="sans-serif" font-size="11.7" lengthAdjust="spacing" textLength="6.3" x="1107.0288" y="594.2092">1</text></g><!--link Repositories to PropertyTypeRepository--><g id="link_Repositories_PropertyTypeRepository"><path codeLine="151" d="M675.711,169.2 C496.107,169.2 119.997,169.2 119.997,169.2 C119.997,169.2 119.997,589.464 119.997,589.464 " fill="none" id="Repositories-to-PropertyTypeRepository" style="stroke:#181818;stroke-width:0.9;"/><polygon fill="#181818" points="119.997,593.964,123.597,585.864,119.997,589.464,116.397,585.864,119.997,593.964" style="stroke:#181818;stroke-width:0.9;"/><text fill="#000000" font-family="sans-serif" font-size="11.7" lengthAdjust="spacing" textLength="6.3" x="104.134" y="583.9719">1</text></g><!--link Repositories to StoreRepository--><g id="link_Repositories_StoreRepository"><path codeLine="152" d="M738,275.625 C738,333.81 738,402.3 738,402.3 C738,402.3 1527.903,402.3 1527.903,402.3 C1527.903,402.3 1527.903,589.266 1527.903,589.266 " fill="none" id="Repositories-to-StoreRepository" style="stroke:#181818;stroke-width:0.9;"/><polygon fill="#181818" points="1527.903,593.766,1531.503,585.666,1527.903,589.266,1524.303,585.666,1527.903,593.766" style="stroke:#181818;stroke-width:0.9;"/><text fill="#000000" font-family="sans-serif" font-size="11.7" lengthAdjust="spacing" textLength="6.3" x="1506.0644" y="583.7424">1</text></g><!--link Repositories to EmployeeRepository--><g id="link_Repositories_EmployeeRepository"><path codeLine="153" d="M675.621,222.3 C585.675,222.3 463.203,222.3 463.203,222.3 C463.203,222.3 463.203,589.185 463.203,589.185 " fill="none" id="Repositories-to-EmployeeRepository" style="stroke:#181818;stroke-width:0.9;"/><polygon fill="#181818" points="463.203,593.685,466.803,585.585,463.203,589.185,459.603,585.585,463.203,593.685" style="stroke:#181818;stroke-width:0.9;"/><text fill="#000000" font-family="sans-serif" font-size="11.7" lengthAdjust="spacing" textLength="6.3" x="449.9669" y="583.9372">1</text></g><!--link Repositories to ClientRepository--><g id="link_Repositories_ClientRepository"><path codeLine="154" d="M862.362,246.6 C921.483,246.6 986.85,246.6 986.85,246.6 C986.85,246.6 986.85,597.492 986.85,597.492 " fill="none" id="Repositories-to-ClientRepository" style="stroke:#181818;stroke-width:0.9;"/><polygon fill="#181818" points="986.85,601.992,990.45,593.892,986.85,597.492,983.25,593.892,986.85,601.992" style="stroke:#181818;stroke-width:0.9;"/><text fill="#000000" font-family="sans-serif" font-size="11.7" lengthAdjust="spacing" textLength="6.3" x="974.7914" y="591.9137">1</text></g><!--link BusinessTypeRepository to BusinessType--><g id="link_BusinessTypeRepository_BusinessType"><path codeLine="155" d="M1151.1,670.653 C1151.1,670.653 1151.1,1203.912 1151.1,1203.912 " fill="none" id="BusinessTypeRepository-to-BusinessType" style="stroke:#181818;stroke-width:0.9;"/><polygon fill="#181818" points="1151.1,1208.412,1154.7,1200.312,1151.1,1203.912,1147.5,1200.312,1151.1,1208.412" style="stroke:#181818;stroke-width:0.9;"/><text fill="#000000" font-family="sans-serif" font-size="11.7" lengthAdjust="spacing" textLength="72" x="1078.2" y="933.7125">businessType</text><text fill="#000000" font-family="sans-serif" font-size="11.7" lengthAdjust="spacing" textLength="6.3" x="1121.5631" y="690.6217">1</text><text fill="#000000" font-family="sans-serif" font-size="11.7" lengthAdjust="spacing" textLength="4.5" x="1151.2322" y="1198.5344">*</text></g><!--link AnnouncementRequest to BusinessType--><g id="link_AnnouncementRequest_BusinessType"><path codeLine="156" d="M987.642,1121.607 C987.642,1161.495 987.642,1212.3 987.642,1212.3 C987.642,1212.3 1055.583,1212.3 1055.583,1212.3 " fill="none" id="AnnouncementRequest-to-BusinessType" style="stroke:#181818;stroke-width:0.9;"/><polygon fill="none" points="1067.283,1212.3,1061.883,1208.7,1056.483,1212.3,1061.883,1215.9,1067.283,1212.3" style="stroke:#181818;stroke-width:0.9;"/><text fill="#000000" font-family="sans-serif" font-size="11.7" lengthAdjust="spacing" textLength="72" x="914.742" y="1197.3495">businessType</text><text fill="#000000" font-family="sans-serif" font-size="11.7" lengthAdjust="spacing" textLength="4.5" x="1002.5882" y="1139.2889">*</text><text fill="#000000" font-family="sans-serif" font-size="11.7" lengthAdjust="spacing" textLength="6.3" x="1053.9973" y="1205.706">1</text></g><!--link AnnouncementRequest to Agent--><g id="link_AnnouncementRequest_Agent"><path codeLine="157" d="M891,1121.67 C891,1121.67 891,1205.118 891,1205.118 " fill="none" id="AnnouncementRequest-to-Agent" style="stroke:#181818;stroke-width:0.9;"/><polygon fill="none" points="891,1216.818,894.6,1211.418,891,1206.018,887.4,1211.418,891,1216.818" style="stroke:#181818;stroke-width:0.9;"/><text fill="#000000" font-family="sans-serif" font-size="11.7" lengthAdjust="spacing" textLength="28.8" x="861.3" y="1159.8195">agent</text><text fill="#000000" font-family="sans-serif" font-size="11.7" lengthAdjust="spacing" textLength="4.5" x="900.4303" y="1140.9879">*</text><text fill="#000000" font-family="sans-serif" font-size="11.7" lengthAdjust="spacing" textLength="6.3" x="894.2906" y="1206.9404">1</text></g><!--link AnnouncementRequest to Client--><g id="link_AnnouncementRequest_Client"><path codeLine="158" d="M979.875,1121.67 C979.875,1121.67 979.875,1205.118 979.875,1205.118 " fill="none" id="AnnouncementRequest-to-Client" style="stroke:#181818;stroke-width:0.9;"/><polygon fill="none" points="979.875,1216.818,983.475,1211.418,979.875,1206.018,976.275,1211.418,979.875,1216.818" style="stroke:#181818;stroke-width:0.9;"/><text fill="#000000" font-family="sans-serif" font-size="11.7" lengthAdjust="spacing" textLength="27.9" x="951.075" y="1159.8195">client</text><text fill="#000000" font-family="sans-serif" font-size="11.7" lengthAdjust="spacing" textLength="4.5" x="1000.137" y="1140.9879">*</text><text fill="#000000" font-family="sans-serif" font-size="11.7" lengthAdjust="spacing" textLength="6.3" x="969.1327" y="1206.9404">1</text></g><!--link AnnouncementRequest to Property--><g id="link_AnnouncementRequest_Property"><path codeLine="159" d="M685.575,1121.67 C685.575,1121.67 685.575,1163.547 685.575,1163.547 " fill="none" id="AnnouncementRequest-to-Property" style="stroke:#181818;stroke-width:0.9;"/><polygon fill="none" points="685.575,1175.247,689.175,1169.847,685.575,1164.447,681.975,1169.847,685.575,1175.247" style="stroke:#181818;stroke-width:0.9;"/><text fill="#000000" font-family="sans-serif" font-size="11.7" lengthAdjust="spacing" textLength="42.3" x="642.375" y="1156.1295">property</text><text fill="#000000" font-family="sans-serif" font-size="11.7" lengthAdjust="spacing" textLength="4.5" x="669.9691" y="1140.9879">*</text><text fill="#000000" font-family="sans-serif" font-size="11.7" lengthAdjust="spacing" textLength="6.3" x="683.9852" y="1165.2331">1</text></g><!--link Property to PropertyType--><g id="link_Property_PropertyType"><path codeLine="160" d="M455.76,1239.3 C423.918,1239.3 400.725,1239.3 400.725,1239.3 C400.725,1239.3 400.725,1461.447 400.725,1461.447 " fill="none" id="Property-to-PropertyType" style="stroke:#181818;stroke-width:0.9;"/><polygon fill="none" points="400.725,1473.147,404.325,1467.747,400.725,1462.347,397.125,1467.747,400.725,1473.147" style="stroke:#181818;stroke-width:0.9;"/><text fill="#000000" font-family="sans-serif" font-size="11.7" lengthAdjust="spacing" textLength="67.5" x="332.325" y="1319.2815">propertyType</text><text fill="#000000" font-family="sans-serif" font-size="11.7" lengthAdjust="spacing" textLength="4.5" x="444.1022" y="1236.3475">*</text><text fill="#000000" font-family="sans-serif" font-size="11.7" lengthAdjust="spacing" textLength="6.3" x="393.4062" y="1463.0598">1</text></g><!--link PropertyTypeRepository to PropertyType--><g id="link_PropertyTypeRepository_PropertyType"><path codeLine="161" d="M174.6,670.545 C174.6,838.773 174.6,1503.9 174.6,1503.9 C174.6,1503.9 340.974,1503.9 340.974,1503.9 " fill="none" id="PropertyTypeRepository-to-PropertyType" style="stroke:#181818;stroke-width:0.9;"/><polygon fill="#181818" points="345.474,1503.9,337.374,1500.3,340.974,1503.9,337.374,1507.5,345.474,1503.9" style="stroke:#181818;stroke-width:0.9;"/><text fill="#000000" font-family="sans-serif" font-size="11.7" lengthAdjust="spacing" textLength="67.5" x="106.2" y="1166.8305">propertyType</text><text fill="#000000" font-family="sans-serif" font-size="11.7" lengthAdjust="spacing" textLength="6.3" x="167.4394" y="690.4965">1</text><text fill="#000000" font-family="sans-serif" font-size="11.7" lengthAdjust="spacing" textLength="4.5" x="333.7193" y="1500.3847">*</text></g><!--link StoreRepository to Store--><g id="link_StoreRepository_Store"><path codeLine="162" d="M1622.25,670.545 C1622.25,838.773 1622.25,1503.9 1622.25,1503.9 C1622.25,1503.9 1430.73,1503.9 1430.73,1503.9 " fill="none" id="StoreRepository-to-Store" style="stroke:#181818;stroke-width:0.9;"/><polygon fill="#181818" points="1426.23,1503.9,1434.33,1507.5,1430.73,1503.9,1434.33,1500.3,1426.23,1503.9" style="stroke:#181818;stroke-width:0.9;"/><text fill="#000000" font-family="sans-serif" font-size="11.7" lengthAdjust="spacing" textLength="26.1" x="1595.25" y="1179.4125">store</text><text fill="#000000" font-family="sans-serif" font-size="11.7" lengthAdjust="spacing" textLength="6.3" x="1615.448" y="690.4965">1</text><text fill="#000000" font-family="sans-serif" font-size="11.7" lengthAdjust="spacing" textLength="4.5" x="1433.4664" y="1501.0339">*</text></g><!--link Agent to Store--><g id="link_Agent_Store"><path codeLine="163" d="M903.15,1260.504 C903.15,1260.504 903.15,1344.528 903.15,1344.528 " fill="none" id="Agent-to-Store" style="stroke:#181818;stroke-width:0.9;"/><polygon fill="none" points="903.15,1356.228,906.75,1350.828,903.15,1345.428,899.55,1350.828,903.15,1356.228" style="stroke:#181818;stroke-width:0.9;"/><text fill="#000000" font-family="sans-serif" font-size="11.7" lengthAdjust="spacing" textLength="26.1" x="876.15" y="1316.0415">store</text><text fill="#000000" font-family="sans-serif" font-size="11.7" lengthAdjust="spacing" textLength="4.5" x="903.5859" y="1280.3043">*</text><text fill="#000000" font-family="sans-serif" font-size="11.7" lengthAdjust="spacing" textLength="6.3" x="884.4476" y="1346.0513">1</text></g><!--link Property to Store--><g id="link_Property_Store"><path codeLine="164" d="M817.938,1286.1 C860.94,1286.1 894.6,1286.1 894.6,1286.1 C894.6,1286.1 894.6,1344.366 894.6,1344.366 " fill="none" id="Property-to-Store" style="stroke:#181818;stroke-width:0.9;"/><polygon fill="none" points="894.6,1356.066,898.2,1350.666,894.6,1345.266,891,1350.666,894.6,1356.066" style="stroke:#181818;stroke-width:0.9;"/><text fill="#000000" font-family="sans-serif" font-size="11.7" lengthAdjust="spacing" textLength="26.1" x="858.402" y="1282.5255">store</text><text fill="#000000" font-family="sans-serif" font-size="11.7" lengthAdjust="spacing" textLength="4.5" x="825.1035" y="1284.9756">*</text><text fill="#000000" font-family="sans-serif" font-size="11.7" lengthAdjust="spacing" textLength="6.3" x="876.3103" y="1346.366">1</text></g><!--link EmployeeRepository to Employee--><g id="link_EmployeeRepository_Employee"><path codeLine="165" d="M505.35,670.527 C505.35,670.527 505.35,925.929 505.35,925.929 " fill="none" id="EmployeeRepository-to-Employee" style="stroke:#181818;stroke-width:0.9;"/><polygon fill="#181818" points="505.35,930.429,508.95,922.329,505.35,925.929,501.75,922.329,505.35,930.429" style="stroke:#181818;stroke-width:0.9;"/><text fill="#000000" font-family="sans-serif" font-size="11.7" lengthAdjust="spacing" textLength="50.4" x="454.05" y="794.6535">employee</text><text fill="#000000" font-family="sans-serif" font-size="11.7" lengthAdjust="spacing" textLength="6.3" x="498.548" y="690.4756">1</text><text fill="#000000" font-family="sans-serif" font-size="11.7" lengthAdjust="spacing" textLength="4.5" x="500.3016" y="920.615">*</text></g><!--link ClientRepository to Client--><g id="link_ClientRepository_Client"><path codeLine="166" d="M1015.497,662.751 C1015.497,662.751 1015.497,1212.516 1015.497,1212.516 " fill="none" id="ClientRepository-to-Client" style="stroke:#181818;stroke-width:0.9;"/><polygon fill="#181818" points="1015.497,1217.016,1019.097,1208.916,1015.497,1212.516,1011.897,1208.916,1015.497,1217.016" style="stroke:#181818;stroke-width:0.9;"/><text fill="#000000" font-family="sans-serif" font-size="11.7" lengthAdjust="spacing" textLength="27.9" x="986.697" y="934.0545">client</text><text fill="#000000" font-family="sans-serif" font-size="11.7" lengthAdjust="spacing" textLength="6.3" x="1009.0934" y="681.9855">1</text><text fill="#000000" font-family="sans-serif" font-size="11.7" lengthAdjust="spacing" textLength="4.5" x="1015.4569" y="1207.1867">*</text></g><!--link CreatePropertyController to BusinessTypeRepository--><g id="link_CreatePropertyController_BusinessTypeRepository"><path codeLine="168" d="M1293.75,384.408 C1293.75,384.408 1293.75,589.185 1293.75,589.185 " fill="none" id="CreatePropertyController-to-BusinessTypeRepository" style="stroke:#181818;stroke-width:0.9;stroke-dasharray:7.0,7.0;"/><polygon fill="#181818" points="1293.75,593.685,1297.35,585.585,1293.75,589.185,1290.15,585.585,1293.75,593.685" style="stroke:#181818;stroke-width:0.9;"/><text fill="#000000" font-family="sans-serif" font-size="11.7" lengthAdjust="spacing" textLength="129.6" x="1163.25" y="483.2265">BusinessTypeRepository</text></g><!--link CreatePropertyController to PropertyTypeRepository--><g id="link_CreatePropertyController_PropertyTypeRepository"><path codeLine="169" d="M1068.426,330.3 C741.276,330.3 233.703,330.3 233.703,330.3 C233.703,330.3 233.703,589.203 233.703,589.203 " fill="none" id="CreatePropertyController-to-PropertyTypeRepository" style="stroke:#181818;stroke-width:0.9;stroke-dasharray:7.0,7.0;"/><polygon fill="#181818" points="233.703,593.703,237.303,585.603,233.703,589.203,230.103,585.603,233.703,593.703" style="stroke:#181818;stroke-width:0.9;"/><text fill="#000000" font-family="sans-serif" font-size="11.7" lengthAdjust="spacing" textLength="125.1" x="395.613" y="326.7255">PropertyTypeRepository</text></g><!--link CreatePropertyController to StoreRepository--><g id="link_CreatePropertyController_StoreRepository"><path codeLine="170" d="M1556.847,384.408 C1556.847,384.408 1556.847,589.185 1556.847,589.185 " fill="none" id="CreatePropertyController-to-StoreRepository" style="stroke:#181818;stroke-width:0.9;stroke-dasharray:7.0,7.0;"/><polygon fill="#181818" points="1556.847,593.685,1560.447,585.585,1556.847,589.185,1553.247,585.585,1556.847,593.685" style="stroke:#181818;stroke-width:0.9;"/><text fill="#000000" font-family="sans-serif" font-size="11.7" lengthAdjust="spacing" textLength="83.7" x="1472.247" y="483.2265">StoreRepository</text></g><!--link CreatePropertyController to EmployeeRepository--><g id="link_CreatePropertyController_EmployeeRepository"><path codeLine="171" d="M1068.66,357.3 C839.439,357.3 547.497,357.3 547.497,357.3 C547.497,357.3 547.497,589.23 547.497,589.23 " fill="none" id="CreatePropertyController-to-EmployeeRepository" style="stroke:#181818;stroke-width:0.9;stroke-dasharray:7.0,7.0;"/><polygon fill="#181818" points="547.497,593.73,551.097,585.63,547.497,589.23,543.897,585.63,547.497,593.73" style="stroke:#181818;stroke-width:0.9;"/><text fill="#000000" font-family="sans-serif" font-size="11.7" lengthAdjust="spacing" textLength="108" x="583.218" y="353.7255">EmployeeRepository</text></g><!--link CreatePropertyController to ClientRepository--><g id="link_CreatePropertyController_ClientRepository"><path codeLine="172" d="M1078.875,384.408 C1078.875,384.408 1078.875,597.519 1078.875,597.519 " fill="none" id="CreatePropertyController-to-ClientRepository" style="stroke:#181818;stroke-width:0.9;stroke-dasharray:7.0,7.0;"/><polygon fill="#181818" points="1078.875,602.019,1082.475,593.919,1078.875,597.519,1075.275,593.919,1078.875,602.019" style="stroke:#181818;stroke-width:0.9;"/><text fill="#000000" font-family="sans-serif" font-size="11.7" lengthAdjust="spacing" textLength="85.5" x="992.475" y="487.3935">ClientRepository</text></g><!--link ApplicationSession to UserSession--><g id="link_ApplicationSession_UserSession"><path codeLine="175" d="M1721.754,477 C1764.423,477 1811.403,477 1811.403,477 C1811.403,477 1811.403,597.447 1811.403,597.447 " fill="none" id="ApplicationSession-to-UserSession" style="stroke:#181818;stroke-width:0.9;"/><polygon fill="#181818" points="1811.403,601.947,1815.003,593.847,1811.403,597.447,1807.803,593.847,1811.403,601.947" style="stroke:#181818;stroke-width:0.9;"/><text fill="#000000" font-family="sans-serif" font-size="11.7" lengthAdjust="spacing" textLength="64.8" x="1745.703" y="505.9245">userSession</text><text fill="#000000" font-family="sans-serif" font-size="11.7" lengthAdjust="spacing" textLength="6.3" x="1801.1464" y="591.8598">1</text></g><!--link CreatePropertyController to ApplicationSession--><g id="link_CreatePropertyController_ApplicationSession"><path codeLine="177" d="M1597.275,384.462 C1597.275,384.462 1597.275,433.728 1597.275,433.728 " fill="none" id="CreatePropertyController-to-ApplicationSession" style="stroke:#181818;stroke-width:0.9;stroke-dasharray:7.0,7.0;"/><polygon fill="#181818" points="1597.275,438.228,1600.875,430.128,1597.275,433.728,1593.675,430.128,1597.275,438.228" style="stroke:#181818;stroke-width:0.9;"/></g><!--link CreatePropertyController to UserSession--><g id="link_CreatePropertyController_UserSession"><path codeLine="178" d="M1609.083,195.3 C1729.782,195.3 1845.297,195.3 1845.297,195.3 C1845.297,195.3 1845.297,597.375 1845.297,597.375 " fill="none" id="CreatePropertyController-to-UserSession" style="stroke:#181818;stroke-width:0.9;stroke-dasharray:7.0,7.0;"/><polygon fill="#181818" points="1845.297,601.875,1848.897,593.775,1845.297,597.375,1841.697,593.775,1845.297,601.875" style="stroke:#181818;stroke-width:0.9;"/></g><!--link Property to Client--><g id="link_Property_Client"><path codeLine="179" d="M817.686,1215 C896.877,1215 972.108,1215 972.108,1215 C972.108,1215 972.108,1215.216 972.108,1215.216 " fill="none" id="Property-to-Client" style="stroke:#181818;stroke-width:0.9;"/><polygon fill="#181818" points="972.108,1217.205,975.708,1209.105,972.108,1212.705,968.508,1209.105,972.108,1217.205" style="stroke:#181818;stroke-width:0.9;"/><text fill="#000000" font-family="sans-serif" font-size="11.7" lengthAdjust="spacing" textLength="53.1" x="841.005" y="1211.4255">createdBy</text></g><!--reverse link Property to Land--><g id="link_Property_Land"><path codeLine="180" d="M570.6,1320.435 C570.6,1320.435 570.6,1721.034 570.6,1721.034 " fill="none" id="Property-backto-Land" style="stroke:#181818;stroke-width:0.9;stroke-dasharray:7.0,7.0;"/><polygon fill="none" points="564.3,1320.435,570.6,1302.435,576.9,1320.435,564.3,1320.435" style="stroke:#181818;stroke-width:0.9;"/></g><!--reverse link Property to Inhabitable--><g id="link_Property_Inhabitable"><path codeLine="181" d="M765.225,1320.435 C765.225,1320.435 765.225,1704.582 765.225,1704.582 " fill="none" id="Property-backto-Inhabitable" style="stroke:#181818;stroke-width:0.9;stroke-dasharray:7.0,7.0;"/><polygon fill="none" points="758.925,1320.435,765.225,1302.435,771.525,1320.435,758.925,1320.435" style="stroke:#181818;stroke-width:0.9;"/></g><!--reverse link Person to Employee--><g id="link_Person_Employee"><path codeLine="182" d="M784.35,894.978 C784.35,894.978 784.35,952.2 784.35,952.2 C784.35,952.2 625.77,952.2 547.722,952.2 " fill="none" id="Person-backto-Employee" style="stroke:#181818;stroke-width:0.9;stroke-dasharray:7.0,7.0;"/><polygon fill="none" points="778.05,894.978,784.35,876.978,790.65,894.978,778.05,894.978" style="stroke:#181818;stroke-width:0.9;"/></g><!--reverse link Employee to Agent--><g id="link_Employee_Agent"><path codeLine="183" d="M519.453,991.944 C519.453,991.944 519.453,1148.4 519.453,1148.4 C519.453,1148.4 870.3,1148.4 870.3,1148.4 C870.3,1148.4 870.3,1190.43 870.3,1217.187 " fill="none" id="Employee-backto-Agent" style="stroke:#181818;stroke-width:0.9;stroke-dasharray:7.0,7.0;"/><polygon fill="none" points="513.153,991.944,519.453,973.944,525.753,991.944,513.153,991.944" style="stroke:#181818;stroke-width:0.9;"/></g><!--reverse link Employee to Role--><g id="link_Employee_Role"><path codeLine="184" d="M458.478,952.2 C458.478,952.2 418.05,952.2 418.05,952.2 C418.05,952.2 418.05,1000.314 418.05,1036.206 " fill="none" id="Employee-backto-Role" style="stroke:#181818;stroke-width:0.9;"/><polygon fill="#181818" points="462.978,952.2,454.878,948.6,458.478,952.2,454.878,955.8,462.978,952.2" style="stroke:#181818;stroke-width:0.9;"/><text fill="#000000" font-family="sans-serif" font-size="11.7" lengthAdjust="spacing" textLength="18.9" x="398.25" y="970.4145">role</text><text fill="#000000" font-family="sans-serif" font-size="11.7" lengthAdjust="spacing" textLength="6.3" x="449.4229" y="948.3271">1</text><text fill="#000000" font-family="sans-serif" font-size="11.7" lengthAdjust="spacing" textLength="6.3" x="414.1167" y="1026.1967">1</text></g><!--reverse link Person to Client--><g id="link_Person_Client"><path codeLine="185" d="M878.436,813.6 C878.436,813.6 1005.453,813.6 1005.453,813.6 C1005.453,813.6 1005.453,1130.517 1005.453,1217.178 " fill="none" id="Person-backto-Client" style="stroke:#181818;stroke-width:0.9;stroke-dasharray:7.0,7.0;"/><polygon fill="none" points="878.436,819.9,860.436,813.6,878.436,807.3,878.436,819.9" style="stroke:#181818;stroke-width:0.9;"/></g><!--reverse link Inhabitable to Apartment--><g id="link_Inhabitable_Apartment"><path codeLine="186" d="M750.375,1832.526 C750.375,1832.526 750.375,1901.97 750.375,1901.97 " fill="none" id="Inhabitable-backto-Apartment" style="stroke:#181818;stroke-width:0.9;stroke-dasharray:7.0,7.0;"/><polygon fill="none" points="744.075,1832.526,750.375,1814.526,756.675,1832.526,744.075,1832.526" style="stroke:#181818;stroke-width:0.9;"/></g><!--reverse link Inhabitable to House--><g id="link_Inhabitable_House"><path codeLine="187" d="M856.575,1832.526 C856.575,1832.526 856.575,1868.238 856.575,1868.238 " fill="none" id="Inhabitable-backto-House" style="stroke:#181818;stroke-width:0.9;stroke-dasharray:7.0,7.0;"/><polygon fill="none" points="850.275,1832.526,856.575,1814.526,862.875,1832.526,850.275,1832.526" style="stroke:#181818;stroke-width:0.9;"/></g><!--reverse link Address to Property--><g id="link_Address_Property"><path codeLine="189" d="M686.025,700.524 C686.025,700.524 686.025,1000.8 686.025,1000.8 C686.025,1000.8 491.247,1000.8 491.247,1000.8 C491.247,1000.8 491.247,1104.849 491.247,1175.373 " fill="none" id="Address-backto-Property" style="stroke:#181818;stroke-width:0.9;"/><polygon fill="#181818" points="686.025,696.024,682.425,704.124,686.025,700.524,689.625,704.124,686.025,696.024" style="stroke:#181818;stroke-width:0.9;"/><text fill="#000000" font-family="sans-serif" font-size="11.7" lengthAdjust="spacing" textLength="41.4" x="609.192" y="997.2255">address</text></g><!--reverse link Address to Person--><g id="link_Address_Person"><path codeLine="190" d="M784.35,700.272 C784.35,700.272 784.35,749.475 784.35,749.475 " fill="none" id="Address-backto-Person" style="stroke:#181818;stroke-width:0.9;"/><polygon fill="#181818" points="784.35,695.772,780.75,703.872,784.35,700.272,787.95,703.872,784.35,695.772" style="stroke:#181818;stroke-width:0.9;"/><text fill="#000000" font-family="sans-serif" font-size="11.7" lengthAdjust="spacing" textLength="41.4" x="742.05" y="721.3035">address</text></g><!--reverse link Address to Store--><g id="link_Address_Store"><path codeLine="191" d="M909.558,683.1 C909.558,683.1 1046.475,683.1 1046.475,683.1 C1046.475,683.1 1046.475,1119.951 1046.475,1356.075 " fill="none" id="Address-backto-Store" style="stroke:#181818;stroke-width:0.9;"/><polygon fill="#181818" points="905.058,683.1,913.158,686.7,909.558,683.1,913.158,679.5,905.058,683.1" style="stroke:#181818;stroke-width:0.9;"/><text fill="#000000" font-family="sans-serif" font-size="11.7" lengthAdjust="spacing" textLength="41.4" x="1004.175" y="964.6545">address</text></g><!--SRC=[vLX9Zzis5BxhLn2vnDFOHdir1WPiPu8EC2Y2SNBBXPOOcuXCgYJLnfdql_TnaqcAqdYoD2sQG-AydH_V9ZwN7oXhiC17TEICbmV1ZmGfqPBYp6bm-G7loLQTQe84AHLc-peKa0TSyJyfswUQDML4dHg2k507NWISiiPIhfGITDSgSbjojgMV2FgvA9xNvBr2YYD1zmU5AgezKiwAmkYWLTFKjCIQj2LIQiv3WU3F2oGLa4kq9-gMmMzMaicLOm5jqmf1c79AmFdBMRmvDZK_4VBW2Myb4QbjCA39DqTCQwFhP5yJ8Jb3Lco6jd0Ym87X8t6KMwR8dWX0KSe6SFYjFUw8YCKL_fWZ4-qiDNFWZ3XX7- -ggWI4cyGWbI14ELxAmYgDxnDjDhmYiM19rSa1u0nD8hDJQshkjS-WlXQy8KATEcHUrHmhr0XQaeY21S4HeQBsxjxm3LoNyD9tGBwsOIqr2ehl1MuEqjyzOTMACTw2vX7qxidlBP5gicib9A6KRo0Df-3UHZL5aD1CdSEzPGUyemhl8CKV4cHsf1AS7wCRwdXO7GQPaEgGyFij51291AApGA2qqI5hQXVG7MOLyicd_pCnq4qDNl2tm_yTI-6QXk1CeT0eaATISH7SpWf2KzfdvwAZVA6V22GGZu6PHbXeSz6fkp1H4kUll9Nd2rbpNXFCq07BDPRcclkSE_vU9TdUifkF3PUjowKNrko_uA303iuozU5Fmv1Dht5mh8DaJggz8h8Kj36TCgt1HyKpvky9kASGv0a5BJ2KM9zUder4THRGh_AwSdALZJBlDPI8lJO19-yrr0szRZN-PtU1DyE9tPZBojitqZAS27wSP8slTDkHhs3C6iM9o_UO7pitdIfothdQc6JAEhAizSaEB3D90iLEXHBPbLT830VdUPYYHIIKlzjpE9E1UyXBf8UPf2ZdMNsumylOG74hufrlE1GqhslepHwg8O79IEOE9bS_AyOlVYIbBax0hod9hociYpBL9bPtkURutVvbJPNH1UIRCXhloUzO6AxlhNR4-uxxJTt5Cm2DZG1FYyV0FnpnauQMeoLpwz4vbPmfI0Dtl8YIEs9kVTCR-yjMOAirkinTRlH2Czsor3VHsn73EFr6zMJFSVoFmd6PiMZWeVuQGFVi7FN5dnu_e7R_c_NxFwdXxrR7twYMPnhc07_xmm-eFt1Dg_Y2lC309l7s5ah9bzOzV7oa3O5Memjtj83Dbl52ja3KhLn5_xL3IsUeWKxH2tN-UJcuw2InNC-7TwO5jBbW-qiE0N4z- -NPm4T4NZQ_5EPbanKmBzHV1lDowQvP37pwQ5cZyrDyC80YJBmYDoAqpcp6Uw0yLTSiMg1aClfHQNio4BUP_wXyzqwpw8gdw6WvGNU4i4yK0vzm5Zq7tvX-ShUneXrS2zk02ej665ZCpyOUY_IJ97Re-Q10tCyYJPXO8mMz62oX-No-7FhENWpLphYr0V0NGzKrRYszYaMlyCRrC-0kScKvRgK7zw9ViaMsERe23vvmGRSD7dJ7FESwwxXy-5JSfTvi6MI4qQxMGLLTVuOpcZUzb1QyGXRkOLapElowr7NofXZEH7tmwzdC_AjdacxOF3O5IZQq8dpnD4ww5y0-oxoN0TvsKz4-m4lGETmA4mhuX_4iKwlxclJilm40]--></g></svg>