<?xml version="1.0" encoding="us-ascii" standalone="no"?><svg xmlns="http://www.w3.org/2000/svg" xmlns:xlink="http://www.w3.org/1999/xlink" contentStyleType="text/css" height="344.7px" preserveAspectRatio="none" style="width:777px;height:344px;background:#FFFFFF;" version="1.1" viewBox="0 0 777 344" width="777.6px" zoomAndPan="magnify"><defs/><g><rect fill="#FFFFFF" height="197.1334" style="stroke:#181818;stroke-width:0.9;" width="9" x="324.9" y="81.4799"/><rect fill="#FFFFFF" height="28.1619" style="stroke:#181818;stroke-width:0.9;" width="9" x="465.3" y="109.6418"/><rect fill="#FFFFFF" height="28.1619" style="stroke:#181818;stroke-width:0.9;" width="9" x="561.6" y="165.9656"/><rect fill="#FFFFFF" height="28.1619" style="stroke:#181818;stroke-width:0.9;" width="9" x="691.2" y="222.2895"/><line style="stroke:#181818;stroke-width:0.45;stroke-dasharray:5.0,5.0;" x1="328.95" x2="328.95" y1="51.518" y2="294.8133"/><line style="stroke:#181818;stroke-width:0.45;stroke-dasharray:5.0,5.0;" x1="469.35" x2="469.35" y1="51.518" y2="294.8133"/><line style="stroke:#181818;stroke-width:0.45;stroke-dasharray:5.0,5.0;" x1="565.65" x2="565.65" y1="51.518" y2="294.8133"/><line style="stroke:#181818;stroke-width:0.45;stroke-dasharray:5.0,5.0;" x1="695.25" x2="695.25" y1="51.518" y2="294.8133"/><rect fill="#E3E3E3" height="29.359" rx="2.25" ry="2.25" style="stroke:#181818;stroke-width:0.45;" width="175.5" x="241.65" y="21.259"/><text fill="#000000" font-family="sans-serif" font-size="12.6" lengthAdjust="spacing" textLength="162.9" x="247.95" y="41.1557">:RegisterEmployeeController</text><rect fill="#E3E3E3" height="29.359" rx="2.25" ry="2.25" style="stroke:#181818;stroke-width:0.45;" width="175.5" x="241.65" y="293.9133"/><text fill="#000000" font-family="sans-serif" font-size="12.6" lengthAdjust="spacing" textLength="162.9" x="247.95" y="313.81">:RegisterEmployeeController</text><rect fill="#E3E3E3" height="29.359" rx="2.25" ry="2.25" style="stroke:#181818;stroke-width:0.45;" width="87.3" x="426.15" y="21.259"/><text fill="#000000" font-family="sans-serif" font-size="12.6" lengthAdjust="spacing" textLength="74.7" x="432.45" y="41.1557">:Repositories</text><rect fill="#E3E3E3" height="29.359" rx="2.25" ry="2.25" style="stroke:#181818;stroke-width:0.45;" width="87.3" x="426.15" y="293.9133"/><text fill="#000000" font-family="sans-serif" font-size="12.6" lengthAdjust="spacing" textLength="74.7" x="432.45" y="313.81">:Repositories</text><rect fill="#E3E3E3" height="46.118" rx="2.25" ry="2.25" style="stroke:#181818;stroke-width:0.45;" width="87.3" x="522.45" y="4.5"/><text fill="#000000" font-family="sans-serif" font-size="12.6" lengthAdjust="spacing" textLength="66.6" x="532.8" y="24.3967">repositories</text><text fill="#000000" font-family="sans-serif" font-size="12.6" lengthAdjust="spacing" textLength="74.7" x="528.75" y="41.1557">:Repositories</text><rect fill="#E3E3E3" height="46.118" rx="2.25" ry="2.25" style="stroke:#181818;stroke-width:0.45;" width="87.3" x="522.45" y="293.9133"/><text fill="#000000" font-family="sans-serif" font-size="12.6" lengthAdjust="spacing" textLength="66.6" x="532.8" y="313.81">repositories</text><text fill="#000000" font-family="sans-serif" font-size="12.6" lengthAdjust="spacing" textLength="74.7" x="528.75" y="330.5689">:Repositories</text><rect fill="#E3E3E3" height="46.118" rx="2.25" ry="2.25" style="stroke:#181818;stroke-width:0.45;" width="153.9" x="618.75" y="4.5"/><text fill="#000000" font-family="sans-serif" font-size="12.6" lengthAdjust="spacing" textLength="141.3" x="625.05" y="24.3967">propertyTypeRepository:</text><text fill="#000000" font-family="sans-serif" font-size="12.6" lengthAdjust="spacing" textLength="138.6" x="626.4" y="41.1557">PropertyTypeRepository</text><rect fill="#E3E3E3" height="46.118" rx="2.25" ry="2.25" style="stroke:#181818;stroke-width:0.45;" width="153.9" x="618.75" y="293.9133"/><text fill="#000000" font-family="sans-serif" font-size="12.6" lengthAdjust="spacing" textLength="141.3" x="625.05" y="313.81">propertyTypeRepository:</text><text fill="#000000" font-family="sans-serif" font-size="12.6" lengthAdjust="spacing" textLength="138.6" x="626.4" y="330.5689">PropertyTypeRepository</text><rect fill="#FFFFFF" height="197.1334" style="stroke:#181818;stroke-width:0.9;" width="9" x="324.9" y="81.4799"/><rect fill="#FFFFFF" height="28.1619" style="stroke:#181818;stroke-width:0.9;" width="9" x="465.3" y="109.6418"/><rect fill="#FFFFFF" height="28.1619" style="stroke:#181818;stroke-width:0.9;" width="9" x="561.6" y="165.9656"/><rect fill="#FFFFFF" height="28.1619" style="stroke:#181818;stroke-width:0.9;" width="9" x="691.2" y="222.2895"/><polygon fill="#181818" points="314.1,77.8799,323.1,81.4799,314.1,85.0799,317.7,81.4799" style="stroke:#181818;stroke-width:0.9;"/><line style="stroke:#181818;stroke-width:0.9;" x1="0" x2="319.5" y1="81.4799" y2="81.4799"/><text fill="#000000" font-family="sans-serif" font-size="11.7" font-weight="bold" lengthAdjust="spacing" textLength="12.6" x="6.3" y="76.7435">29</text><text fill="#000000" font-family="sans-serif" font-size="11.7" lengthAdjust="spacing" textLength="291.6" x="22.5" y="76.7435">getPropertyTypeByDescription(propertyTypeDescription)</text><polygon fill="#181818" points="454.5,106.0418,463.5,109.6418,454.5,113.2418,458.1,109.6418" style="stroke:#181818;stroke-width:0.9;"/><line style="stroke:#181818;stroke-width:0.9;" x1="333.9" x2="459.9" y1="109.6418" y2="109.6418"/><text fill="#000000" font-family="sans-serif" font-size="11.7" font-weight="bold" lengthAdjust="spacing" textLength="22.5" x="340.2" y="104.9054">29.1</text><text fill="#000000" font-family="sans-serif" font-size="11.7" lengthAdjust="spacing" textLength="67.5" x="366.3" y="104.9054">getInstance()</text><polygon fill="#181818" points="343.8,134.2037,334.8,137.8037,343.8,141.4037,340.2,137.8037" style="stroke:#181818;stroke-width:0.9;"/><line style="stroke:#181818;stroke-width:0.9;stroke-dasharray:2.0,2.0;" x1="338.4" x2="468.9" y1="137.8037" y2="137.8037"/><text fill="#000000" font-family="sans-serif" font-size="11.7" font-weight="bold" lengthAdjust="spacing" textLength="22.5" x="349.2" y="133.0673">29.2</text><text fill="#000000" font-family="sans-serif" font-size="11.7" lengthAdjust="spacing" textLength="60.3" x="375.3" y="133.0673">repositories</text><polygon fill="#181818" points="550.8,162.3656,559.8,165.9656,550.8,169.5656,554.4,165.9656" style="stroke:#181818;stroke-width:0.9;"/><line style="stroke:#181818;stroke-width:0.9;" x1="333.9" x2="556.2" y1="165.9656" y2="165.9656"/><text fill="#000000" font-family="sans-serif" font-size="11.7" font-weight="bold" lengthAdjust="spacing" textLength="22.5" x="340.2" y="161.2292">29.3</text><text fill="#000000" font-family="sans-serif" font-size="11.7" lengthAdjust="spacing" textLength="148.5" x="366.3" y="161.2292">getPropertyTypeRepository()</text><polygon fill="#181818" points="343.8,190.5275,334.8,194.1275,343.8,197.7275,340.2,194.1275" style="stroke:#181818;stroke-width:0.9;"/><line style="stroke:#181818;stroke-width:0.9;" x1="338.4" x2="565.2" y1="194.1275" y2="194.1275"/><text fill="#000000" font-family="sans-serif" font-size="11.7" font-weight="bold" lengthAdjust="spacing" textLength="22.5" x="349.2" y="189.3911">29.4</text><text fill="#000000" font-family="sans-serif" font-size="11.7" lengthAdjust="spacing" textLength="125.1" x="375.3" y="189.3911">PropertyTypeRepository</text><polygon fill="#181818" points="680.4,218.6895,689.4,222.2895,680.4,225.8895,684,222.2895" style="stroke:#181818;stroke-width:0.9;"/><line style="stroke:#181818;stroke-width:0.9;" x1="333.9" x2="685.8" y1="222.2895" y2="222.2895"/><text fill="#000000" font-family="sans-serif" font-size="11.7" font-weight="bold" lengthAdjust="spacing" textLength="22.5" x="340.2" y="217.553">29.5</text><text fill="#000000" font-family="sans-serif" font-size="11.7" lengthAdjust="spacing" textLength="291.6" x="366.3" y="217.553">getPropertyTypeByDescription(propertyTypeDescription)</text><polygon fill="#181818" points="343.8,246.8514,334.8,250.4514,343.8,254.0514,340.2,250.4514" style="stroke:#181818;stroke-width:0.9;"/><line style="stroke:#181818;stroke-width:0.9;stroke-dasharray:2.0,2.0;" x1="338.4" x2="694.8" y1="250.4514" y2="250.4514"/><text fill="#000000" font-family="sans-serif" font-size="11.7" font-weight="bold" lengthAdjust="spacing" textLength="22.5" x="349.2" y="245.7149">29.6</text><text fill="#000000" font-family="sans-serif" font-size="11.7" lengthAdjust="spacing" textLength="67.5" x="375.3" y="245.7149">propertyType</text><polygon fill="#181818" points="9.9,275.0133,0.9,278.6133,9.9,282.2133,6.3,278.6133" style="stroke:#181818;stroke-width:0.9;"/><line style="stroke:#181818;stroke-width:0.9;stroke-dasharray:2.0,2.0;" x1="4.5" x2="328.5" y1="278.6133" y2="278.6133"/><text fill="#000000" font-family="sans-serif" font-size="11.7" font-weight="bold" lengthAdjust="spacing" textLength="12.6" x="15.3" y="273.8769">30</text><text fill="#000000" font-family="sans-serif" font-size="11.7" lengthAdjust="spacing" textLength="67.5" x="31.5" y="273.8769">propertyType</text><!--SRC=[dLDDRy8m3BtdLqHS1eTE-pWDJPCsjiCa3WXwv985KoBQE4hCjlxxDGqheLHGuQFZzvwVxRYjqaPOKV02DSgDnG8usHqmrxmO8RSYWmMLEN0BaeJEyhZ0RSGAVvJE-5ha3XWJEqAzAxx0yeSdncusQWLyZKXV-Cig32cfZD341-CvPCeHs8_2v5W2J52JnJm7E-32yKawdvuW33f5Q1MukgP9b0lbEwkqZo4sGYprAS5i-feU8un50vRAj3Hme1ylzQpp8R3CqZbZZFj8NkhEnpm3YY5lvJiuQPKXXNeOgqJvKI0HajIt80Wp2AbuhhVtGMiVlihhTao3rtryQbTjJi9mT8HhHoFRDTQpI1zTwaapZNWHPwbMS7qR_uFmM-Kd6pZGzPr3VHqNZTTgUwELQhTaNy-N9HkJrT7nQy-id_twh2_Qztqa1_-nPc_NuGErB_tnBgIUaoImj-bPYoVybpy0]--></g></svg>