<?xml version="1.0" encoding="us-ascii" standalone="no"?><svg xmlns="http://www.w3.org/2000/svg" xmlns:xlink="http://www.w3.org/1999/xlink" contentStyleType="text/css" height="344.7px" preserveAspectRatio="none" style="width:789px;height:344px;background:#FFFFFF;" version="1.1" viewBox="0 0 789 344" width="789.3px" zoomAndPan="magnify"><defs/><g><rect fill="#FFFFFF" height="197.1334" style="stroke:#181818;stroke-width:0.9;" width="9" x="333.9" y="81.4799"/><rect fill="#FFFFFF" height="28.1619" style="stroke:#181818;stroke-width:0.9;" width="9" x="474.3" y="109.6418"/><rect fill="#FFFFFF" height="28.1619" style="stroke:#181818;stroke-width:0.9;" width="9" x="570.6" y="165.9656"/><rect fill="#FFFFFF" height="28.1619" style="stroke:#181818;stroke-width:0.9;" width="9" x="701.55" y="222.2895"/><line style="stroke:#181818;stroke-width:0.45;stroke-dasharray:5.0,5.0;" x1="337.95" x2="337.95" y1="51.518" y2="294.8133"/><line style="stroke:#181818;stroke-width:0.45;stroke-dasharray:5.0,5.0;" x1="478.35" x2="478.35" y1="51.518" y2="294.8133"/><line style="stroke:#181818;stroke-width:0.45;stroke-dasharray:5.0,5.0;" x1="574.65" x2="574.65" y1="51.518" y2="294.8133"/><line style="stroke:#181818;stroke-width:0.45;stroke-dasharray:5.0,5.0;" x1="706.05" x2="706.05" y1="51.518" y2="294.8133"/><rect fill="#E3E3E3" height="29.359" rx="2.25" ry="2.25" style="stroke:#181818;stroke-width:0.45;" width="175.5" x="250.65" y="21.259"/><text fill="#000000" font-family="sans-serif" font-size="12.6" lengthAdjust="spacing" textLength="162.9" x="256.95" y="41.1557">:RegisterEmployeeController</text><rect fill="#E3E3E3" height="29.359" rx="2.25" ry="2.25" style="stroke:#181818;stroke-width:0.45;" width="175.5" x="250.65" y="293.9133"/><text fill="#000000" font-family="sans-serif" font-size="12.6" lengthAdjust="spacing" textLength="162.9" x="256.95" y="313.81">:RegisterEmployeeController</text><rect fill="#E3E3E3" height="29.359" rx="2.25" ry="2.25" style="stroke:#181818;stroke-width:0.45;" width="87.3" x="435.15" y="21.259"/><text fill="#000000" font-family="sans-serif" font-size="12.6" lengthAdjust="spacing" textLength="74.7" x="441.45" y="41.1557">:Repositories</text><rect fill="#E3E3E3" height="29.359" rx="2.25" ry="2.25" style="stroke:#181818;stroke-width:0.45;" width="87.3" x="435.15" y="293.9133"/><text fill="#000000" font-family="sans-serif" font-size="12.6" lengthAdjust="spacing" textLength="74.7" x="441.45" y="313.81">:Repositories</text><rect fill="#E3E3E3" height="46.118" rx="2.25" ry="2.25" style="stroke:#181818;stroke-width:0.45;" width="87.3" x="531.45" y="4.5"/><text fill="#000000" font-family="sans-serif" font-size="12.6" lengthAdjust="spacing" textLength="66.6" x="541.8" y="24.3967">repositories</text><text fill="#000000" font-family="sans-serif" font-size="12.6" lengthAdjust="spacing" textLength="74.7" x="537.75" y="41.1557">:Repositories</text><rect fill="#E3E3E3" height="46.118" rx="2.25" ry="2.25" style="stroke:#181818;stroke-width:0.45;" width="87.3" x="531.45" y="293.9133"/><text fill="#000000" font-family="sans-serif" font-size="12.6" lengthAdjust="spacing" textLength="66.6" x="541.8" y="313.81">repositories</text><text fill="#000000" font-family="sans-serif" font-size="12.6" lengthAdjust="spacing" textLength="74.7" x="537.75" y="330.5689">:Repositories</text><rect fill="#E3E3E3" height="46.118" rx="2.25" ry="2.25" style="stroke:#181818;stroke-width:0.45;" width="156.6" x="627.75" y="4.5"/><text fill="#000000" font-family="sans-serif" font-size="12.6" lengthAdjust="spacing" textLength="144" x="634.05" y="24.3967">businessTypeRepository:</text><text fill="#000000" font-family="sans-serif" font-size="12.6" lengthAdjust="spacing" textLength="141.3" x="635.4" y="41.1557">BusinessTypeRepository</text><rect fill="#E3E3E3" height="46.118" rx="2.25" ry="2.25" style="stroke:#181818;stroke-width:0.45;" width="156.6" x="627.75" y="293.9133"/><text fill="#000000" font-family="sans-serif" font-size="12.6" lengthAdjust="spacing" textLength="144" x="634.05" y="313.81">businessTypeRepository:</text><text fill="#000000" font-family="sans-serif" font-size="12.6" lengthAdjust="spacing" textLength="141.3" x="635.4" y="330.5689">BusinessTypeRepository</text><rect fill="#FFFFFF" height="197.1334" style="stroke:#181818;stroke-width:0.9;" width="9" x="333.9" y="81.4799"/><rect fill="#FFFFFF" height="28.1619" style="stroke:#181818;stroke-width:0.9;" width="9" x="474.3" y="109.6418"/><rect fill="#FFFFFF" height="28.1619" style="stroke:#181818;stroke-width:0.9;" width="9" x="570.6" y="165.9656"/><rect fill="#FFFFFF" height="28.1619" style="stroke:#181818;stroke-width:0.9;" width="9" x="701.55" y="222.2895"/><polygon fill="#181818" points="323.1,77.8799,332.1,81.4799,323.1,85.0799,326.7,81.4799" style="stroke:#181818;stroke-width:0.9;"/><line style="stroke:#181818;stroke-width:0.9;" x1="0" x2="328.5" y1="81.4799" y2="81.4799"/><text fill="#000000" font-family="sans-serif" font-size="11.7" font-weight="bold" lengthAdjust="spacing" textLength="12.6" x="6.3" y="76.7435">52</text><text fill="#000000" font-family="sans-serif" font-size="11.7" lengthAdjust="spacing" textLength="300.6" x="22.5" y="76.7435">getBusinessTypeByDescription(businessTypeDescription)</text><polygon fill="#181818" points="463.5,106.0418,472.5,109.6418,463.5,113.2418,467.1,109.6418" style="stroke:#181818;stroke-width:0.9;"/><line style="stroke:#181818;stroke-width:0.9;" x1="342.9" x2="468.9" y1="109.6418" y2="109.6418"/><text fill="#000000" font-family="sans-serif" font-size="11.7" font-weight="bold" lengthAdjust="spacing" textLength="22.5" x="349.2" y="104.9054">52.1</text><text fill="#000000" font-family="sans-serif" font-size="11.7" lengthAdjust="spacing" textLength="67.5" x="375.3" y="104.9054">getInstance()</text><polygon fill="#181818" points="352.8,134.2037,343.8,137.8037,352.8,141.4037,349.2,137.8037" style="stroke:#181818;stroke-width:0.9;"/><line style="stroke:#181818;stroke-width:0.9;stroke-dasharray:2.0,2.0;" x1="347.4" x2="477.9" y1="137.8037" y2="137.8037"/><text fill="#000000" font-family="sans-serif" font-size="11.7" font-weight="bold" lengthAdjust="spacing" textLength="22.5" x="358.2" y="133.0673">52.2</text><text fill="#000000" font-family="sans-serif" font-size="11.7" lengthAdjust="spacing" textLength="60.3" x="384.3" y="133.0673">repositories</text><polygon fill="#181818" points="559.8,162.3656,568.8,165.9656,559.8,169.5656,563.4,165.9656" style="stroke:#181818;stroke-width:0.9;"/><line style="stroke:#181818;stroke-width:0.9;" x1="342.9" x2="565.2" y1="165.9656" y2="165.9656"/><text fill="#000000" font-family="sans-serif" font-size="11.7" font-weight="bold" lengthAdjust="spacing" textLength="22.5" x="349.2" y="161.2292">52.3</text><text fill="#000000" font-family="sans-serif" font-size="11.7" lengthAdjust="spacing" textLength="153" x="375.3" y="161.2292">getBusinessTypeRepository()</text><polygon fill="#181818" points="352.8,190.5275,343.8,194.1275,352.8,197.7275,349.2,194.1275" style="stroke:#181818;stroke-width:0.9;"/><line style="stroke:#181818;stroke-width:0.9;" x1="347.4" x2="574.2" y1="194.1275" y2="194.1275"/><text fill="#000000" font-family="sans-serif" font-size="11.7" font-weight="bold" lengthAdjust="spacing" textLength="22.5" x="358.2" y="189.3911">52.4</text><text fill="#000000" font-family="sans-serif" font-size="11.7" lengthAdjust="spacing" textLength="127.8" x="384.3" y="189.3911">businessTypeRepository</text><polygon fill="#181818" points="690.75,218.6895,699.75,222.2895,690.75,225.8895,694.35,222.2895" style="stroke:#181818;stroke-width:0.9;"/><line style="stroke:#181818;stroke-width:0.9;" x1="342.9" x2="696.15" y1="222.2895" y2="222.2895"/><text fill="#000000" font-family="sans-serif" font-size="11.7" font-weight="bold" lengthAdjust="spacing" textLength="22.5" x="349.2" y="217.553">52.5</text><text fill="#000000" font-family="sans-serif" font-size="11.7" lengthAdjust="spacing" textLength="300.6" x="375.3" y="217.553">getBusinessTypeByDescription(businessTypeDescription)</text><polygon fill="#181818" points="352.8,246.8514,343.8,250.4514,352.8,254.0514,349.2,250.4514" style="stroke:#181818;stroke-width:0.9;"/><line style="stroke:#181818;stroke-width:0.9;stroke-dasharray:2.0,2.0;" x1="347.4" x2="705.15" y1="250.4514" y2="250.4514"/><text fill="#000000" font-family="sans-serif" font-size="11.7" font-weight="bold" lengthAdjust="spacing" textLength="22.5" x="358.2" y="245.7149">52.6</text><text fill="#000000" font-family="sans-serif" font-size="11.7" lengthAdjust="spacing" textLength="72" x="384.3" y="245.7149">businessType</text><polygon fill="#181818" points="9.9,275.0133,0.9,278.6133,9.9,282.2133,6.3,278.6133" style="stroke:#181818;stroke-width:0.9;"/><line style="stroke:#181818;stroke-width:0.9;stroke-dasharray:2.0,2.0;" x1="4.5" x2="337.5" y1="278.6133" y2="278.6133"/><text fill="#000000" font-family="sans-serif" font-size="11.7" font-weight="bold" lengthAdjust="spacing" textLength="12.6" x="15.3" y="273.8769">53</text><text fill="#000000" font-family="sans-serif" font-size="11.7" lengthAdjust="spacing" textLength="72" x="31.5" y="273.8769">businessType</text><!--SRC=[hPInRi8m48PtFuN5KXXIgQsweAfIeHqgeQg2Z2p67C4YiItxqZPltzY6O4Y64dhZsVVVhyztjZiXDJEie8MIYc-DAe2YAO7OvaGplcCPBB3AWHhWo6IMnnVibgtLjv0PtR3S0Y6iH2NBOWM6FjuJShCLQw0RfN2bVaXTWu8BpIJImNWEcR08vgtGkQe0fagYKNaEPa2PfTDqFcjLQ6K5AYF0-ZjDebe8vwpkVLfYeegbR0jypbxIqufLQOK4QzDAmr5-l9IJpWElClb8vuGGwY9vzix7D0ECIoRLArXkX4QXv33k4kL7GOHn55yC8J08gPZhxLte5S9TScqxO51lurtQ-k4u34TnsL-YCT85-b8n5rqUamPP_5gNgg_XNyqUeBe1eQt7F7QuWgcVlJuGlQSzjDfRzyHUmQ-NiGCmjmkqx_JtHHaMi0TAxpRfPda5mVs7qDhSXv1wIfBGyBmZETC9-_yB]--></g></svg>