<?xml version="1.0" encoding="us-ascii" standalone="no"?><svg xmlns="http://www.w3.org/2000/svg" xmlns:xlink="http://www.w3.org/1999/xlink" contentStyleType="text/css" height="344.7px" preserveAspectRatio="none" style="width:578px;height:344px;background:#FFFFFF;" version="1.1" viewBox="0 0 578 344" width="578.7px" zoomAndPan="magnify"><defs/><g><rect fill="#FFFFFF" height="197.1334" style="stroke:#181818;stroke-width:0.9;" width="9" x="126" y="81.4799"/><rect fill="#FFFFFF" height="28.1619" style="stroke:#181818;stroke-width:0.9;" width="9" x="266.4" y="109.6418"/><rect fill="#FFFFFF" height="28.1619" style="stroke:#181818;stroke-width:0.9;" width="9" x="362.7" y="165.9656"/><rect fill="#FFFFFF" height="28.1619" style="stroke:#181818;stroke-width:0.9;" width="9" x="492.3" y="222.2895"/><line style="stroke:#181818;stroke-width:0.45;stroke-dasharray:5.0,5.0;" x1="130.05" x2="130.05" y1="51.518" y2="294.8133"/><line style="stroke:#181818;stroke-width:0.45;stroke-dasharray:5.0,5.0;" x1="270.45" x2="270.45" y1="51.518" y2="294.8133"/><line style="stroke:#181818;stroke-width:0.45;stroke-dasharray:5.0,5.0;" x1="366.75" x2="366.75" y1="51.518" y2="294.8133"/><line style="stroke:#181818;stroke-width:0.45;stroke-dasharray:5.0,5.0;" x1="496.35" x2="496.35" y1="51.518" y2="294.8133"/><rect fill="#E3E3E3" height="29.359" rx="2.25" ry="2.25" style="stroke:#181818;stroke-width:0.45;" width="175.5" x="42.75" y="21.259"/><text fill="#000000" font-family="sans-serif" font-size="12.6" lengthAdjust="spacing" textLength="162.9" x="49.05" y="41.1557">:RegisterEmployeeController</text><rect fill="#E3E3E3" height="29.359" rx="2.25" ry="2.25" style="stroke:#181818;stroke-width:0.45;" width="175.5" x="42.75" y="293.9133"/><text fill="#000000" font-family="sans-serif" font-size="12.6" lengthAdjust="spacing" textLength="162.9" x="49.05" y="313.81">:RegisterEmployeeController</text><rect fill="#E3E3E3" height="29.359" rx="2.25" ry="2.25" style="stroke:#181818;stroke-width:0.45;" width="87.3" x="227.25" y="21.259"/><text fill="#000000" font-family="sans-serif" font-size="12.6" lengthAdjust="spacing" textLength="74.7" x="233.55" y="41.1557">:Repositories</text><rect fill="#E3E3E3" height="29.359" rx="2.25" ry="2.25" style="stroke:#181818;stroke-width:0.45;" width="87.3" x="227.25" y="293.9133"/><text fill="#000000" font-family="sans-serif" font-size="12.6" lengthAdjust="spacing" textLength="74.7" x="233.55" y="313.81">:Repositories</text><rect fill="#E3E3E3" height="46.118" rx="2.25" ry="2.25" style="stroke:#181818;stroke-width:0.45;" width="87.3" x="323.55" y="4.5"/><text fill="#000000" font-family="sans-serif" font-size="12.6" lengthAdjust="spacing" textLength="66.6" x="333.9" y="24.3967">repositories</text><text fill="#000000" font-family="sans-serif" font-size="12.6" lengthAdjust="spacing" textLength="74.7" x="329.85" y="41.1557">:Repositories</text><rect fill="#E3E3E3" height="46.118" rx="2.25" ry="2.25" style="stroke:#181818;stroke-width:0.45;" width="87.3" x="323.55" y="293.9133"/><text fill="#000000" font-family="sans-serif" font-size="12.6" lengthAdjust="spacing" textLength="66.6" x="333.9" y="313.81">repositories</text><text fill="#000000" font-family="sans-serif" font-size="12.6" lengthAdjust="spacing" textLength="74.7" x="329.85" y="330.5689">:Repositories</text><rect fill="#E3E3E3" height="46.118" rx="2.25" ry="2.25" style="stroke:#181818;stroke-width:0.45;" width="153.9" x="419.85" y="4.5"/><text fill="#000000" font-family="sans-serif" font-size="12.6" lengthAdjust="spacing" textLength="141.3" x="426.15" y="24.3967">propertyTypeRepository:</text><text fill="#000000" font-family="sans-serif" font-size="12.6" lengthAdjust="spacing" textLength="138.6" x="427.5" y="41.1557">PropertyTypeRepository</text><rect fill="#E3E3E3" height="46.118" rx="2.25" ry="2.25" style="stroke:#181818;stroke-width:0.45;" width="153.9" x="419.85" y="293.9133"/><text fill="#000000" font-family="sans-serif" font-size="12.6" lengthAdjust="spacing" textLength="141.3" x="426.15" y="313.81">propertyTypeRepository:</text><text fill="#000000" font-family="sans-serif" font-size="12.6" lengthAdjust="spacing" textLength="138.6" x="427.5" y="330.5689">PropertyTypeRepository</text><rect fill="#FFFFFF" height="197.1334" style="stroke:#181818;stroke-width:0.9;" width="9" x="126" y="81.4799"/><rect fill="#FFFFFF" height="28.1619" style="stroke:#181818;stroke-width:0.9;" width="9" x="266.4" y="109.6418"/><rect fill="#FFFFFF" height="28.1619" style="stroke:#181818;stroke-width:0.9;" width="9" x="362.7" y="165.9656"/><rect fill="#FFFFFF" height="28.1619" style="stroke:#181818;stroke-width:0.9;" width="9" x="492.3" y="222.2895"/><polygon fill="#181818" points="115.2,77.8799,124.2,81.4799,115.2,85.0799,118.8,81.4799" style="stroke:#181818;stroke-width:0.9;"/><line style="stroke:#181818;stroke-width:0.9;" x1="0" x2="120.6" y1="81.4799" y2="81.4799"/><text fill="#000000" font-family="sans-serif" font-size="11.7" font-weight="bold" lengthAdjust="spacing" textLength="6.3" x="6.3" y="76.7435">3</text><text fill="#000000" font-family="sans-serif" font-size="11.7" lengthAdjust="spacing" textLength="99" x="16.2" y="76.7435">getPropertyTypes()</text><polygon fill="#181818" points="255.6,106.0418,264.6,109.6418,255.6,113.2418,259.2,109.6418" style="stroke:#181818;stroke-width:0.9;"/><line style="stroke:#181818;stroke-width:0.9;" x1="135" x2="261" y1="109.6418" y2="109.6418"/><text fill="#000000" font-family="sans-serif" font-size="11.7" font-weight="bold" lengthAdjust="spacing" textLength="16.2" x="141.3" y="104.9054">3.1</text><text fill="#000000" font-family="sans-serif" font-size="11.7" lengthAdjust="spacing" textLength="67.5" x="161.1" y="104.9054">getInstance()</text><polygon fill="#181818" points="144.9,134.2037,135.9,137.8037,144.9,141.4037,141.3,137.8037" style="stroke:#181818;stroke-width:0.9;"/><line style="stroke:#181818;stroke-width:0.9;stroke-dasharray:2.0,2.0;" x1="139.5" x2="270" y1="137.8037" y2="137.8037"/><text fill="#000000" font-family="sans-serif" font-size="11.7" font-weight="bold" lengthAdjust="spacing" textLength="16.2" x="150.3" y="133.0673">3.2</text><text fill="#000000" font-family="sans-serif" font-size="11.7" lengthAdjust="spacing" textLength="60.3" x="170.1" y="133.0673">repositories</text><polygon fill="#181818" points="351.9,162.3656,360.9,165.9656,351.9,169.5656,355.5,165.9656" style="stroke:#181818;stroke-width:0.9;"/><line style="stroke:#181818;stroke-width:0.9;" x1="135" x2="357.3" y1="165.9656" y2="165.9656"/><text fill="#000000" font-family="sans-serif" font-size="11.7" font-weight="bold" lengthAdjust="spacing" textLength="16.2" x="141.3" y="161.2292">3.3</text><text fill="#000000" font-family="sans-serif" font-size="11.7" lengthAdjust="spacing" textLength="148.5" x="161.1" y="161.2292">getPropertyTypeRepository()</text><polygon fill="#181818" points="144.9,190.5275,135.9,194.1275,144.9,197.7275,141.3,194.1275" style="stroke:#181818;stroke-width:0.9;"/><line style="stroke:#181818;stroke-width:0.9;" x1="139.5" x2="366.3" y1="194.1275" y2="194.1275"/><text fill="#000000" font-family="sans-serif" font-size="11.7" font-weight="bold" lengthAdjust="spacing" textLength="16.2" x="150.3" y="189.3911">3.4</text><text fill="#000000" font-family="sans-serif" font-size="11.7" lengthAdjust="spacing" textLength="123.3" x="170.1" y="189.3911">propertyTypeRepository</text><polygon fill="#181818" points="481.5,218.6895,490.5,222.2895,481.5,225.8895,485.1,222.2895" style="stroke:#181818;stroke-width:0.9;"/><line style="stroke:#181818;stroke-width:0.9;" x1="135" x2="486.9" y1="222.2895" y2="222.2895"/><text fill="#000000" font-family="sans-serif" font-size="11.7" font-weight="bold" lengthAdjust="spacing" textLength="16.2" x="141.3" y="217.553">3.5</text><text fill="#000000" font-family="sans-serif" font-size="11.7" lengthAdjust="spacing" textLength="99" x="161.1" y="217.553">getPropertyTypes()</text><polygon fill="#181818" points="144.9,246.8514,135.9,250.4514,144.9,254.0514,141.3,250.4514" style="stroke:#181818;stroke-width:0.9;"/><line style="stroke:#181818;stroke-width:0.9;stroke-dasharray:2.0,2.0;" x1="139.5" x2="495.9" y1="250.4514" y2="250.4514"/><text fill="#000000" font-family="sans-serif" font-size="11.7" font-weight="bold" lengthAdjust="spacing" textLength="16.2" x="150.3" y="245.7149">3.6</text><text fill="#000000" font-family="sans-serif" font-size="11.7" lengthAdjust="spacing" textLength="86.4" x="170.1" y="245.7149">propertyTypeList</text><polygon fill="#181818" points="9.9,275.0133,0.9,278.6133,9.9,282.2133,6.3,278.6133" style="stroke:#181818;stroke-width:0.9;"/><line style="stroke:#181818;stroke-width:0.9;stroke-dasharray:2.0,2.0;" x1="4.5" x2="129.6" y1="278.6133" y2="278.6133"/><text fill="#000000" font-family="sans-serif" font-size="11.7" font-weight="bold" lengthAdjust="spacing" textLength="6.3" x="15.3" y="273.8769">4</text><text fill="#000000" font-family="sans-serif" font-size="11.7" lengthAdjust="spacing" textLength="86.4" x="25.2" y="273.8769">propertyTypeList</text><!--SRC=[ZP8zJyCm48Pt_ufJ5s084eAfGaYeOa3gKBKPkxZfDR6Q-2px2kJVOySbJHfNmkFvtkVU-t17fOsqie66D1MLfGQ1xGc5wt-CB8won0stDOB5WgKkws62g-IUlfKkuI1hXqB84vC-DJkqy2p4NQNs20SYtj6Fy19MXJ9ICypcQooLOxGVZQcfHLoGPajrZNO6qi4YNoyd2aDECLc5hilf0-r61ME-z5XY1ugjdW9Mo_Tyh32M35fkyzRW1J_VwbNo8r9M-Le80U5bRvtpEPJ8GucxVuWPic3r9HbZWp4qcDdZK-ISNqWAp4IdqDNurCulfK2F7-hwAgaHZJB3Iz6plfFX44VIFVw_p5yZOU8mcSv5VgkFRbCJuntjRDHJqykxvNcAx4twXK9oXMbltVudtW8aIvjR-ik_QIjUq_LblCJ8QvP5O8eehb3nn7u1]--></g></svg>