<?xml version="1.0" encoding="us-ascii" standalone="no"?><svg xmlns="http://www.w3.org/2000/svg" xmlns:xlink="http://www.w3.org/1999/xlink" contentStyleType="text/css" height="344.7px" preserveAspectRatio="none" style="width:592px;height:344px;background:#FFFFFF;" version="1.1" viewBox="0 0 592 344" width="592.2px" zoomAndPan="magnify"><defs/><g><rect fill="#FFFFFF" height="197.1334" style="stroke:#181818;stroke-width:0.9;" width="9" x="136.8" y="81.4799"/><rect fill="#FFFFFF" height="28.1619" style="stroke:#181818;stroke-width:0.9;" width="9" x="277.2" y="109.6418"/><rect fill="#FFFFFF" height="28.1619" style="stroke:#181818;stroke-width:0.9;" width="9" x="373.5" y="165.9656"/><rect fill="#FFFFFF" height="28.1619" style="stroke:#181818;stroke-width:0.9;" width="9" x="504.45" y="222.2895"/><line style="stroke:#181818;stroke-width:0.45;stroke-dasharray:5.0,5.0;" x1="140.85" x2="140.85" y1="51.518" y2="294.8133"/><line style="stroke:#181818;stroke-width:0.45;stroke-dasharray:5.0,5.0;" x1="281.25" x2="281.25" y1="51.518" y2="294.8133"/><line style="stroke:#181818;stroke-width:0.45;stroke-dasharray:5.0,5.0;" x1="377.55" x2="377.55" y1="51.518" y2="294.8133"/><line style="stroke:#181818;stroke-width:0.45;stroke-dasharray:5.0,5.0;" x1="508.95" x2="508.95" y1="51.518" y2="294.8133"/><rect fill="#E3E3E3" height="29.359" rx="2.25" ry="2.25" style="stroke:#181818;stroke-width:0.45;" width="175.5" x="53.55" y="21.259"/><text fill="#000000" font-family="sans-serif" font-size="12.6" lengthAdjust="spacing" textLength="162.9" x="59.85" y="41.1557">:RegisterEmployeeController</text><rect fill="#E3E3E3" height="29.359" rx="2.25" ry="2.25" style="stroke:#181818;stroke-width:0.45;" width="175.5" x="53.55" y="293.9133"/><text fill="#000000" font-family="sans-serif" font-size="12.6" lengthAdjust="spacing" textLength="162.9" x="59.85" y="313.81">:RegisterEmployeeController</text><rect fill="#E3E3E3" height="29.359" rx="2.25" ry="2.25" style="stroke:#181818;stroke-width:0.45;" width="87.3" x="238.05" y="21.259"/><text fill="#000000" font-family="sans-serif" font-size="12.6" lengthAdjust="spacing" textLength="74.7" x="244.35" y="41.1557">:Repositories</text><rect fill="#E3E3E3" height="29.359" rx="2.25" ry="2.25" style="stroke:#181818;stroke-width:0.45;" width="87.3" x="238.05" y="293.9133"/><text fill="#000000" font-family="sans-serif" font-size="12.6" lengthAdjust="spacing" textLength="74.7" x="244.35" y="313.81">:Repositories</text><rect fill="#E3E3E3" height="46.118" rx="2.25" ry="2.25" style="stroke:#181818;stroke-width:0.45;" width="87.3" x="334.35" y="4.5"/><text fill="#000000" font-family="sans-serif" font-size="12.6" lengthAdjust="spacing" textLength="66.6" x="344.7" y="24.3967">repositories</text><text fill="#000000" font-family="sans-serif" font-size="12.6" lengthAdjust="spacing" textLength="74.7" x="340.65" y="41.1557">:Repositories</text><rect fill="#E3E3E3" height="46.118" rx="2.25" ry="2.25" style="stroke:#181818;stroke-width:0.45;" width="87.3" x="334.35" y="293.9133"/><text fill="#000000" font-family="sans-serif" font-size="12.6" lengthAdjust="spacing" textLength="66.6" x="344.7" y="313.81">repositories</text><text fill="#000000" font-family="sans-serif" font-size="12.6" lengthAdjust="spacing" textLength="74.7" x="340.65" y="330.5689">:Repositories</text><rect fill="#E3E3E3" height="46.118" rx="2.25" ry="2.25" style="stroke:#181818;stroke-width:0.45;" width="156.6" x="430.65" y="4.5"/><text fill="#000000" font-family="sans-serif" font-size="12.6" lengthAdjust="spacing" textLength="144" x="436.95" y="24.3967">businessTypeRepository:</text><text fill="#000000" font-family="sans-serif" font-size="12.6" lengthAdjust="spacing" textLength="141.3" x="438.3" y="41.1557">BusinessTypeRepository</text><rect fill="#E3E3E3" height="46.118" rx="2.25" ry="2.25" style="stroke:#181818;stroke-width:0.45;" width="156.6" x="430.65" y="293.9133"/><text fill="#000000" font-family="sans-serif" font-size="12.6" lengthAdjust="spacing" textLength="144" x="436.95" y="313.81">businessTypeRepository:</text><text fill="#000000" font-family="sans-serif" font-size="12.6" lengthAdjust="spacing" textLength="141.3" x="438.3" y="330.5689">BusinessTypeRepository</text><rect fill="#FFFFFF" height="197.1334" style="stroke:#181818;stroke-width:0.9;" width="9" x="136.8" y="81.4799"/><rect fill="#FFFFFF" height="28.1619" style="stroke:#181818;stroke-width:0.9;" width="9" x="277.2" y="109.6418"/><rect fill="#FFFFFF" height="28.1619" style="stroke:#181818;stroke-width:0.9;" width="9" x="373.5" y="165.9656"/><rect fill="#FFFFFF" height="28.1619" style="stroke:#181818;stroke-width:0.9;" width="9" x="504.45" y="222.2895"/><polygon fill="#181818" points="126,77.8799,135,81.4799,126,85.0799,129.6,81.4799" style="stroke:#181818;stroke-width:0.9;"/><line style="stroke:#181818;stroke-width:0.9;" x1="0" x2="131.4" y1="81.4799" y2="81.4799"/><text fill="#000000" font-family="sans-serif" font-size="11.7" font-weight="bold" lengthAdjust="spacing" textLength="12.6" x="6.3" y="76.7435">47</text><text fill="#000000" font-family="sans-serif" font-size="11.7" lengthAdjust="spacing" textLength="103.5" x="22.5" y="76.7435">getBusinessTypes()</text><polygon fill="#181818" points="266.4,106.0418,275.4,109.6418,266.4,113.2418,270,109.6418" style="stroke:#181818;stroke-width:0.9;"/><line style="stroke:#181818;stroke-width:0.9;" x1="145.8" x2="271.8" y1="109.6418" y2="109.6418"/><text fill="#000000" font-family="sans-serif" font-size="11.7" font-weight="bold" lengthAdjust="spacing" textLength="22.5" x="152.1" y="104.9054">47.1</text><text fill="#000000" font-family="sans-serif" font-size="11.7" lengthAdjust="spacing" textLength="67.5" x="178.2" y="104.9054">getInstance()</text><polygon fill="#181818" points="155.7,134.2037,146.7,137.8037,155.7,141.4037,152.1,137.8037" style="stroke:#181818;stroke-width:0.9;"/><line style="stroke:#181818;stroke-width:0.9;stroke-dasharray:2.0,2.0;" x1="150.3" x2="280.8" y1="137.8037" y2="137.8037"/><text fill="#000000" font-family="sans-serif" font-size="11.7" font-weight="bold" lengthAdjust="spacing" textLength="22.5" x="161.1" y="133.0673">47.2</text><text fill="#000000" font-family="sans-serif" font-size="11.7" lengthAdjust="spacing" textLength="60.3" x="187.2" y="133.0673">repositories</text><polygon fill="#181818" points="362.7,162.3656,371.7,165.9656,362.7,169.5656,366.3,165.9656" style="stroke:#181818;stroke-width:0.9;"/><line style="stroke:#181818;stroke-width:0.9;" x1="145.8" x2="368.1" y1="165.9656" y2="165.9656"/><text fill="#000000" font-family="sans-serif" font-size="11.7" font-weight="bold" lengthAdjust="spacing" textLength="22.5" x="152.1" y="161.2292">47.3</text><text fill="#000000" font-family="sans-serif" font-size="11.7" lengthAdjust="spacing" textLength="153" x="178.2" y="161.2292">getBusinessTypeRepository()</text><polygon fill="#181818" points="155.7,190.5275,146.7,194.1275,155.7,197.7275,152.1,194.1275" style="stroke:#181818;stroke-width:0.9;"/><line style="stroke:#181818;stroke-width:0.9;" x1="150.3" x2="377.1" y1="194.1275" y2="194.1275"/><text fill="#000000" font-family="sans-serif" font-size="11.7" font-weight="bold" lengthAdjust="spacing" textLength="22.5" x="161.1" y="189.3911">47.4</text><text fill="#000000" font-family="sans-serif" font-size="11.7" lengthAdjust="spacing" textLength="127.8" x="187.2" y="189.3911">businessTypeRepository</text><polygon fill="#181818" points="493.65,218.6895,502.65,222.2895,493.65,225.8895,497.25,222.2895" style="stroke:#181818;stroke-width:0.9;"/><line style="stroke:#181818;stroke-width:0.9;" x1="145.8" x2="499.05" y1="222.2895" y2="222.2895"/><text fill="#000000" font-family="sans-serif" font-size="11.7" font-weight="bold" lengthAdjust="spacing" textLength="22.5" x="152.1" y="217.553">47.5</text><text fill="#000000" font-family="sans-serif" font-size="11.7" lengthAdjust="spacing" textLength="103.5" x="178.2" y="217.553">getBusinessTypes()</text><polygon fill="#181818" points="155.7,246.8514,146.7,250.4514,155.7,254.0514,152.1,250.4514" style="stroke:#181818;stroke-width:0.9;"/><line style="stroke:#181818;stroke-width:0.9;stroke-dasharray:2.0,2.0;" x1="150.3" x2="508.05" y1="250.4514" y2="250.4514"/><text fill="#000000" font-family="sans-serif" font-size="11.7" font-weight="bold" lengthAdjust="spacing" textLength="22.5" x="161.1" y="245.7149">47.6</text><text fill="#000000" font-family="sans-serif" font-size="11.7" lengthAdjust="spacing" textLength="90.9" x="187.2" y="245.7149">businessTypeList</text><polygon fill="#181818" points="9.9,275.0133,0.9,278.6133,9.9,282.2133,6.3,278.6133" style="stroke:#181818;stroke-width:0.9;"/><line style="stroke:#181818;stroke-width:0.9;stroke-dasharray:2.0,2.0;" x1="4.5" x2="140.4" y1="278.6133" y2="278.6133"/><text fill="#000000" font-family="sans-serif" font-size="11.7" font-weight="bold" lengthAdjust="spacing" textLength="12.6" x="15.3" y="273.8769">48</text><text fill="#000000" font-family="sans-serif" font-size="11.7" lengthAdjust="spacing" textLength="90.9" x="31.5" y="273.8769">businessTypeList</text><!--SRC=[fLF1QiCm3BtxAqGlsmuP30OROGpMiiEWZ97cs8kRggbfOWTRsPQ_NsotQReObZ0TPUazlMV978IikEObb4ggRAzLYK2wHcQwbufd1vxZYfe2GMD6NEP5ly3i-LPz2Pd3ZXS66UCrALcN6zHm_y3OrLvi4NPAqKPzixQ7H2OgBWbcSOAvC8JwjQmArI0kb2IjYWBr3BY1HPei1nsLCeAK5cXSJPTeLi9Erd9VjkXUnreE0JwMB-bbnwOsGg8nQLFX6JvUotdmmQ7CtzE4CGOsecStUGmvKh_5ND_u2fwH-EI4Ng1FzKsxlVD0FcoHnGme1SVn9atxAncsyF1tTEGXvyO0s0ZD4dMw-vQFGTpYluSwcMH_4mREdr4dUkIMOwmfZljeGZj3U8qc-Z5wW9C1TX4Xk7fJTFjr7gdRKKPXuSlslYTAFfxIu2mUVUefYZnHY8dzml87zWC0]--></g></svg>