<?xml version="1.0" encoding="us-ascii" standalone="no"?><svg xmlns="http://www.w3.org/2000/svg" xmlns:xlink="http://www.w3.org/1999/xlink" contentStyleType="text/css" height="374.4px" preserveAspectRatio="none" style="width:827px;height:374px;background:#FFFFFF;" version="1.1" viewBox="0 0 827 374" width="827.1px" zoomAndPan="magnify"><defs/><g><rect fill="#FFFFFF" height="234.9686" style="stroke:#181818;stroke-width:0.9;" width="9" x="387" y="81.4799"/><rect fill="#FFFFFF" height="152.2477" style="stroke:#181818;stroke-width:0.9;" width="9" x="391.5" y="156.1008"/><rect fill="#FFFFFF" height="38.0619" style="stroke:#181818;stroke-width:0.9;" width="9" x="396" y="195.9627"/><line style="stroke:#181818;stroke-width:0.45;stroke-dasharray:5.0,5.0;" x1="391.5" x2="391.5" y1="51.518" y2="324.5484"/><line style="stroke:#181818;stroke-width:0.45;stroke-dasharray:5.0,5.0;" x1="748.8" x2="748.8" y1="117.3094" y2="324.5484"/><rect fill="#E3E3E3" height="46.118" rx="2.25" ry="2.25" style="stroke:#181818;stroke-width:0.45;" width="45" x="369" y="4.5"/><text fill="#000000" font-family="sans-serif" font-size="12.6" lengthAdjust="spacing" textLength="32.4" x="375.3" y="24.3967">store:</text><text fill="#000000" font-family="sans-serif" font-size="12.6" lengthAdjust="spacing" textLength="30.6" x="376.2" y="41.1557">Store</text><rect fill="#E3E3E3" height="46.118" rx="2.25" ry="2.25" style="stroke:#181818;stroke-width:0.45;" width="45" x="369" y="323.6484"/><text fill="#000000" font-family="sans-serif" font-size="12.6" lengthAdjust="spacing" textLength="32.4" x="375.3" y="343.5451">store:</text><text fill="#000000" font-family="sans-serif" font-size="12.6" lengthAdjust="spacing" textLength="30.6" x="376.2" y="360.3041">Store</text><rect fill="#E3E3E3" height="29.359" rx="2.25" ry="2.25" style="stroke:#181818;stroke-width:0.45;" width="145.8" x="675.9" y="323.6484"/><text fill="#000000" font-family="sans-serif" font-size="12.6" lengthAdjust="spacing" textLength="133.2" x="682.2" y="343.5451">AnnouncementRequest</text><rect fill="#FFFFFF" height="234.9686" style="stroke:#181818;stroke-width:0.9;" width="9" x="387" y="81.4799"/><rect fill="#FFFFFF" height="152.2477" style="stroke:#181818;stroke-width:0.9;" width="9" x="391.5" y="156.1008"/><rect fill="#FFFFFF" height="38.0619" style="stroke:#181818;stroke-width:0.9;" width="9" x="396" y="195.9627"/><polygon fill="#181818" points="376.2,77.8799,385.2,81.4799,376.2,85.0799,379.8,81.4799" style="stroke:#181818;stroke-width:0.9;"/><line style="stroke:#181818;stroke-width:0.9;" x1="0" x2="381.6" y1="81.4799" y2="81.4799"/><text fill="#000000" font-family="sans-serif" font-size="11.7" font-weight="bold" lengthAdjust="spacing" textLength="12.6" x="6.3" y="76.7435">62</text><text fill="#000000" font-family="sans-serif" font-size="11.7" lengthAdjust="spacing" textLength="353.7" x="22.5" y="76.7435">createAnnouncementRequest(businessType, property, agent, client)</text><polygon fill="#181818" points="665.1,106.0418,674.1,109.6418,665.1,113.2418,668.7,109.6418" style="stroke:#181818;stroke-width:0.9;"/><line style="stroke:#181818;stroke-width:0.9;" x1="396" x2="670.5" y1="109.6418" y2="109.6418"/><text fill="#000000" font-family="sans-serif" font-size="11.7" font-weight="bold" lengthAdjust="spacing" textLength="22.5" x="402.3" y="104.9054">62.1</text><text fill="#000000" font-family="sans-serif" font-size="11.7" lengthAdjust="spacing" textLength="232.2" x="428.4" y="104.9054">create(businessType, property, agent, client)</text><rect fill="#E3E3E3" height="29.359" rx="2.25" ry="2.25" style="stroke:#181818;stroke-width:0.45;" width="145.8" x="675.9" y="88.6799"/><text fill="#000000" font-family="sans-serif" font-size="12.6" lengthAdjust="spacing" textLength="133.2" x="682.2" y="108.5766">AnnouncementRequest</text><line style="stroke:#181818;stroke-width:0.9;" x1="396" x2="438.3" y1="144.4008" y2="144.4008"/><line style="stroke:#181818;stroke-width:0.9;" x1="438.3" x2="438.3" y1="144.4008" y2="156.1008"/><line style="stroke:#181818;stroke-width:0.9;" x1="401.4" x2="438.3" y1="156.1008" y2="156.1008"/><polygon fill="#181818" points="410.4,152.5008,401.4,156.1008,410.4,159.7008,406.8,156.1008" style="stroke:#181818;stroke-width:0.9;"/><text fill="#000000" font-family="sans-serif" font-size="11.7" font-weight="bold" lengthAdjust="spacing" textLength="22.5" x="406.8" y="139.6644">62.2</text><text fill="#000000" font-family="sans-serif" font-size="11.7" lengthAdjust="spacing" textLength="224.1" x="432.9" y="139.6644">addAnnouncement(announcementRequest)</text><line style="stroke:#181818;stroke-width:0.9;" x1="400.5" x2="442.8" y1="184.2627" y2="184.2627"/><line style="stroke:#181818;stroke-width:0.9;" x1="442.8" x2="442.8" y1="184.2627" y2="195.9627"/><line style="stroke:#181818;stroke-width:0.9;" x1="405.9" x2="442.8" y1="195.9627" y2="195.9627"/><polygon fill="#181818" points="414.9,192.3627,405.9,195.9627,414.9,199.5627,411.3,195.9627" style="stroke:#181818;stroke-width:0.9;"/><text fill="#000000" font-family="sans-serif" font-size="11.7" font-weight="bold" lengthAdjust="spacing" textLength="22.5" x="411.3" y="179.5263">62.3</text><text fill="#000000" font-family="sans-serif" font-size="11.7" lengthAdjust="spacing" textLength="243.9" x="437.4" y="179.5263">validateAnnouncement(announcementRequest)</text><line style="stroke:#181818;stroke-width:0.9;stroke-dasharray:2.0,2.0;" x1="405" x2="442.8" y1="233.1246" y2="233.1246"/><line style="stroke:#181818;stroke-width:0.9;stroke-dasharray:2.0,2.0;" x1="442.8" x2="442.8" y1="233.1246" y2="244.8246"/><line style="stroke:#181818;stroke-width:0.9;stroke-dasharray:2.0,2.0;" x1="400.5" x2="442.8" y1="244.8246" y2="244.8246"/><polygon fill="#181818" points="409.5,241.2246,400.5,244.8246,409.5,248.4246,405.9,244.8246" style="stroke:#181818;stroke-width:0.9;"/><text fill="#000000" font-family="sans-serif" font-size="11.7" font-weight="bold" lengthAdjust="spacing" textLength="22.5" x="411.3" y="228.3882">62.4</text><text fill="#000000" font-family="sans-serif" font-size="11.7" lengthAdjust="spacing" textLength="3.6" x="437.4" y="228.3882">&#160;</text><line style="stroke:#181818;stroke-width:0.9;stroke-dasharray:2.0,2.0;" x1="400.5" x2="438.3" y1="268.4865" y2="268.4865"/><line style="stroke:#181818;stroke-width:0.9;stroke-dasharray:2.0,2.0;" x1="438.3" x2="438.3" y1="268.4865" y2="280.1865"/><line style="stroke:#181818;stroke-width:0.9;stroke-dasharray:2.0,2.0;" x1="401.4" x2="438.3" y1="280.1865" y2="280.1865"/><polygon fill="#181818" points="410.4,276.5865,401.4,280.1865,410.4,283.7865,406.8,280.1865" style="stroke:#181818;stroke-width:0.9;"/><text fill="#000000" font-family="sans-serif" font-size="11.7" font-weight="bold" lengthAdjust="spacing" textLength="22.5" x="406.8" y="263.7501">62.5</text><text fill="#000000" font-family="sans-serif" font-size="11.7" lengthAdjust="spacing" textLength="3.6" x="432.9" y="263.7501">&#160;</text><polygon fill="#181818" points="9.9,304.7484,0.9,308.3484,9.9,311.9484,6.3,308.3484" style="stroke:#181818;stroke-width:0.9;"/><line style="stroke:#181818;stroke-width:0.9;stroke-dasharray:2.0,2.0;" x1="4.5" x2="386.1" y1="308.3484" y2="308.3484"/><text fill="#000000" font-family="sans-serif" font-size="11.7" font-weight="bold" lengthAdjust="spacing" textLength="12.6" x="15.3" y="303.612">63</text><text fill="#000000" font-family="sans-serif" font-size="11.7" lengthAdjust="spacing" textLength="119.7" x="31.5" y="303.612">announcementRequest</text><!--SRC=[fL7DJiCm3BxdAQnT6DE614WS9eIq5-2mxiZ5JRqsMkkKn1tqxKdRCRKRqghYYwNaixyV-uFX4XqMK5YsEdEs811NaVBddnBr0LEAfCu976b1JlC-m6UOs2_3AUmnzwGKLcAvAc9oyFAar5rc4eAzjHBRRnLcn6XJ8WlCl5X7wm-EcZu3z13jjaF8XjbMhAaWbYrzLkIb1MxUjqefQ6hrreojGJj2eJy6vd7b3PFtkxga9PJEbkIaNaBmnR84dPlGxxjj_o_KOev1IMkcNJf8vE5nG1H0ZOFWPx7uzJ1My2t5fzrjEfWa_MZcU9tJpGG6paOaqUS_OcwIY_jC4Z55o5bCfsRCI4AJt9u8rFNXdxkdrzMgHK8uoRNx3dF1hNu0]--></g></svg>