<?xml version="1.0" encoding="us-ascii" standalone="no"?><svg xmlns="http://www.w3.org/2000/svg" xmlns:xlink="http://www.w3.org/1999/xlink" contentStyleType="text/css" height="810px" preserveAspectRatio="none" style="width:913px;height:810px;background:#FFFFFF;" version="1.1" viewBox="0 0 913 810" width="913px" zoomAndPan="magnify"><defs/><g><rect fill="#FFFFFF" height="630.5156" style="stroke:#181818;stroke-width:1.0;" width="10" x="75" y="90.6406"/><rect fill="#FFFFFF" height="28.5234" style="stroke:#181818;stroke-width:1.0;" width="10" x="860" y="111.1641"/><rect fill="#FFFFFF" height="28.5234" style="stroke:#181818;stroke-width:1.0;" width="10" x="860" y="168.2109"/><rect fill="#FFFFFF" height="28.5234" style="stroke:#181818;stroke-width:1.0;" width="10" x="860" y="225.2578"/><rect fill="#FFFFFF" height="28.5234" style="stroke:#181818;stroke-width:1.0;" width="10" x="860" y="282.3047"/><rect fill="#FFFFFF" height="52.0469" style="stroke:#181818;stroke-width:1.0;" width="10" x="860" y="339.3516"/><rect fill="#FFFFFF" height="28.5234" style="stroke:#181818;stroke-width:1.0;" width="10" x="860" y="419.9219"/><rect fill="#FFFFFF" height="28.5234" style="stroke:#181818;stroke-width:1.0;" width="10" x="860" y="476.9688"/><rect fill="#FFFFFF" height="28.5234" style="stroke:#181818;stroke-width:1.0;" width="10" x="860" y="534.0156"/><rect fill="#FFFFFF" height="64.0469" style="stroke:#181818;stroke-width:1.0;" width="10" x="860" y="591.0625"/><rect fill="#FFFFFF" height="28.5234" style="stroke:#181818;stroke-width:1.0;" width="10" x="860" y="683.6328"/><rect fill="none" height="273.2344" style="stroke:#000000;stroke-width:1.5;" width="897" x="10" y="354.3516"/><line style="stroke:#181818;stroke-width:0.5;stroke-dasharray:5.0,5.0;" x1="80" x2="80" y1="80.6406" y2="730.1563"/><line style="stroke:#181818;stroke-width:0.5;stroke-dasharray:5.0,5.0;" x1="865" x2="865" y1="80.6406" y2="730.1563"/><text fill="#000000" font-family="sans-serif" font-size="14" lengthAdjust="spacing" textLength="114" x="20" y="77.6738">Unregistered User</text><ellipse cx="80" cy="13.5" fill="#E3E3E3" rx="8" ry="8" style="stroke:#181818;stroke-width:0.5;"/><path d="M80,21.5 L80,48.5 M67,29.5 L93,29.5 M80,48.5 L67,63.5 M80,48.5 L93,63.5 " fill="none" style="stroke:#181818;stroke-width:0.5;"/><text fill="#000000" font-family="sans-serif" font-size="14" lengthAdjust="spacing" textLength="114" x="20" y="741.8301">Unregistered User</text><ellipse cx="80" cy="753.2969" fill="#E3E3E3" rx="8" ry="8" style="stroke:#181818;stroke-width:0.5;"/><path d="M80,761.2969 L80,788.2969 M67,769.2969 L93,769.2969 M80,788.2969 L67,803.2969 M80,788.2969 L93,803.2969 " fill="none" style="stroke:#181818;stroke-width:0.5;"/><rect fill="#E3E3E3" height="29.6406" rx="2.5" ry="2.5" style="stroke:#181818;stroke-width:0.5;" width="64" x="833" y="50"/><text fill="#000000" font-family="sans-serif" font-size="14" lengthAdjust="spacing" textLength="50" x="840" y="69.6738">:System</text><rect fill="#E3E3E3" height="29.6406" rx="2.5" ry="2.5" style="stroke:#181818;stroke-width:0.5;" width="64" x="833" y="729.1563"/><text fill="#000000" font-family="sans-serif" font-size="14" lengthAdjust="spacing" textLength="50" x="840" y="748.8301">:System</text><rect fill="#FFFFFF" height="630.5156" style="stroke:#181818;stroke-width:1.0;" width="10" x="75" y="90.6406"/><rect fill="#FFFFFF" height="28.5234" style="stroke:#181818;stroke-width:1.0;" width="10" x="860" y="111.1641"/><rect fill="#FFFFFF" height="28.5234" style="stroke:#181818;stroke-width:1.0;" width="10" x="860" y="168.2109"/><rect fill="#FFFFFF" height="28.5234" style="stroke:#181818;stroke-width:1.0;" width="10" x="860" y="225.2578"/><rect fill="#FFFFFF" height="28.5234" style="stroke:#181818;stroke-width:1.0;" width="10" x="860" y="282.3047"/><rect fill="#FFFFFF" height="52.0469" style="stroke:#181818;stroke-width:1.0;" width="10" x="860" y="339.3516"/><rect fill="#FFFFFF" height="28.5234" style="stroke:#181818;stroke-width:1.0;" width="10" x="860" y="419.9219"/><rect fill="#FFFFFF" height="28.5234" style="stroke:#181818;stroke-width:1.0;" width="10" x="860" y="476.9688"/><rect fill="#FFFFFF" height="28.5234" style="stroke:#181818;stroke-width:1.0;" width="10" x="860" y="534.0156"/><rect fill="#FFFFFF" height="64.0469" style="stroke:#181818;stroke-width:1.0;" width="10" x="860" y="591.0625"/><rect fill="#FFFFFF" height="28.5234" style="stroke:#181818;stroke-width:1.0;" width="10" x="860" y="683.6328"/><polygon fill="#181818" points="848,107.1641,858,111.1641,848,115.1641,852,111.1641" style="stroke:#181818;stroke-width:1.0;"/><line style="stroke:#181818;stroke-width:1.0;" x1="85" x2="854" y1="111.1641" y2="111.1641"/><text fill="#000000" font-family="sans-serif" font-size="13" font-weight="bold" lengthAdjust="spacing" textLength="7" x="92" y="106.4092">1</text><text fill="#000000" font-family="sans-serif" font-size="13" lengthAdjust="spacing" textLength="164" x="103" y="106.4092">asks to see list of properties</text><polygon fill="#181818" points="96,135.6875,86,139.6875,96,143.6875,92,139.6875" style="stroke:#181818;stroke-width:1.0;"/><line style="stroke:#181818;stroke-width:1.0;stroke-dasharray:2.0,2.0;" x1="90" x2="864" y1="139.6875" y2="139.6875"/><text fill="#000000" font-family="sans-serif" font-size="13" font-weight="bold" lengthAdjust="spacing" textLength="7" x="102" y="134.9326">2</text><text fill="#000000" font-family="sans-serif" font-size="13" lengthAdjust="spacing" textLength="279" x="113" y="134.9326">show list of properties available and asks to filter</text><polygon fill="#181818" points="848,164.2109,858,168.2109,848,172.2109,852,168.2109" style="stroke:#181818;stroke-width:1.0;"/><line style="stroke:#181818;stroke-width:1.0;" x1="85" x2="854" y1="168.2109" y2="168.2109"/><text fill="#000000" font-family="sans-serif" font-size="13" font-weight="bold" lengthAdjust="spacing" textLength="7" x="92" y="163.4561">3</text><text fill="#000000" font-family="sans-serif" font-size="13" lengthAdjust="spacing" textLength="156" x="103" y="163.4561">confirmation to filter the list</text><polygon fill="#181818" points="96,192.7344,86,196.7344,96,200.7344,92,196.7344" style="stroke:#181818;stroke-width:1.0;"/><line style="stroke:#181818;stroke-width:1.0;stroke-dasharray:2.0,2.0;" x1="90" x2="864" y1="196.7344" y2="196.7344"/><text fill="#000000" font-family="sans-serif" font-size="13" font-weight="bold" lengthAdjust="spacing" textLength="7" x="102" y="191.9795">4</text><text fill="#000000" font-family="sans-serif" font-size="13" lengthAdjust="spacing" textLength="314" x="113" y="191.9795">show filters of type of business and asks to select one</text><polygon fill="#181818" points="848,221.2578,858,225.2578,848,229.2578,852,225.2578" style="stroke:#181818;stroke-width:1.0;"/><line style="stroke:#181818;stroke-width:1.0;" x1="85" x2="854" y1="225.2578" y2="225.2578"/><text fill="#000000" font-family="sans-serif" font-size="13" font-weight="bold" lengthAdjust="spacing" textLength="7" x="92" y="220.5029">5</text><text fill="#000000" font-family="sans-serif" font-size="13" lengthAdjust="spacing" textLength="92" x="103" y="220.5029">select an option</text><polygon fill="#181818" points="96,249.7813,86,253.7813,96,257.7813,92,253.7813" style="stroke:#181818;stroke-width:1.0;"/><line style="stroke:#181818;stroke-width:1.0;stroke-dasharray:2.0,2.0;" x1="90" x2="864" y1="253.7813" y2="253.7813"/><text fill="#000000" font-family="sans-serif" font-size="13" font-weight="bold" lengthAdjust="spacing" textLength="7" x="102" y="249.0264">6</text><text fill="#000000" font-family="sans-serif" font-size="13" lengthAdjust="spacing" textLength="309" x="113" y="249.0264">show filters of type of property and asks to select one</text><polygon fill="#181818" points="848,278.3047,858,282.3047,848,286.3047,852,282.3047" style="stroke:#181818;stroke-width:1.0;"/><line style="stroke:#181818;stroke-width:1.0;" x1="85" x2="854" y1="282.3047" y2="282.3047"/><text fill="#000000" font-family="sans-serif" font-size="13" font-weight="bold" lengthAdjust="spacing" textLength="7" x="92" y="277.5498">7</text><text fill="#000000" font-family="sans-serif" font-size="13" lengthAdjust="spacing" textLength="92" x="103" y="277.5498">select an option</text><polygon fill="#181818" points="96,306.8281,86,310.8281,96,314.8281,92,310.8281" style="stroke:#181818;stroke-width:1.0;"/><line style="stroke:#181818;stroke-width:1.0;stroke-dasharray:2.0,2.0;" x1="90" x2="864" y1="310.8281" y2="310.8281"/><text fill="#000000" font-family="sans-serif" font-size="13" font-weight="bold" lengthAdjust="spacing" textLength="7" x="102" y="306.0732">8</text><text fill="#000000" font-family="sans-serif" font-size="13" lengthAdjust="spacing" textLength="165" x="113" y="306.0732">request number of bedrooms</text><polygon fill="#181818" points="848,335.3516,858,339.3516,848,343.3516,852,339.3516" style="stroke:#181818;stroke-width:1.0;"/><line style="stroke:#181818;stroke-width:1.0;" x1="85" x2="854" y1="339.3516" y2="339.3516"/><text fill="#000000" font-family="sans-serif" font-size="13" font-weight="bold" lengthAdjust="spacing" textLength="7" x="92" y="334.5967">9</text><text fill="#000000" font-family="sans-serif" font-size="13" lengthAdjust="spacing" textLength="157" x="103" y="334.5967">select number of bedrooms</text><path d="M10,354.3516 L75,354.3516 L75,360.875 L65,370.875 L10,370.875 L10,354.3516 " fill="#EEEEEE" style="stroke:#000000;stroke-width:1.5;"/><rect fill="none" height="273.2344" style="stroke:#000000;stroke-width:1.5;" width="897" x="10" y="354.3516"/><text fill="#000000" font-family="sans-serif" font-size="13" font-weight="bold" lengthAdjust="spacing" textLength="20" x="25" y="367.1201">opt</text><text fill="#000000" font-family="sans-serif" font-size="11" font-weight="bold" lengthAdjust="spacing" textLength="371" x="90" y="366.3096">[type of property, business type and number of bedrooms are null]</text><polygon fill="#181818" points="96,387.3984,86,391.3984,96,395.3984,92,391.3984" style="stroke:#181818;stroke-width:1.0;"/><line style="stroke:#181818;stroke-width:1.0;stroke-dasharray:2.0,2.0;" x1="90" x2="864" y1="391.3984" y2="391.3984"/><text fill="#000000" font-family="sans-serif" font-size="13" font-weight="bold" lengthAdjust="spacing" textLength="14" x="102" y="386.6436">10</text><text fill="#000000" font-family="sans-serif" font-size="13" lengthAdjust="spacing" textLength="441" x="120" y="386.6436">show list of all properties that are on sale and asks to filter by property filters</text><polygon fill="#181818" points="848,415.9219,858,419.9219,848,423.9219,852,419.9219" style="stroke:#181818;stroke-width:1.0;"/><line style="stroke:#181818;stroke-width:1.0;" x1="85" x2="854" y1="419.9219" y2="419.9219"/><text fill="#000000" font-family="sans-serif" font-size="13" font-weight="bold" lengthAdjust="spacing" textLength="14" x="92" y="415.167">11</text><text fill="#000000" font-family="sans-serif" font-size="13" lengthAdjust="spacing" textLength="42" x="110" y="415.167">confirm</text><polygon fill="#181818" points="96,444.4453,86,448.4453,96,452.4453,92,448.4453" style="stroke:#181818;stroke-width:1.0;"/><line style="stroke:#181818;stroke-width:1.0;stroke-dasharray:2.0,2.0;" x1="90" x2="864" y1="448.4453" y2="448.4453"/><text fill="#000000" font-family="sans-serif" font-size="13" font-weight="bold" lengthAdjust="spacing" textLength="14" x="102" y="443.6904">12</text><text fill="#000000" font-family="sans-serif" font-size="13" lengthAdjust="spacing" textLength="151" x="120" y="443.6904">show list of property filters</text><polygon fill="#181818" points="848,472.9688,858,476.9688,848,480.9688,852,476.9688" style="stroke:#181818;stroke-width:1.0;"/><line style="stroke:#181818;stroke-width:1.0;" x1="85" x2="854" y1="476.9688" y2="476.9688"/><text fill="#000000" font-family="sans-serif" font-size="13" font-weight="bold" lengthAdjust="spacing" textLength="14" x="92" y="472.2139">13</text><text fill="#000000" font-family="sans-serif" font-size="13" lengthAdjust="spacing" textLength="74" x="110" y="472.2139">select a filter</text><polygon fill="#181818" points="96,501.4922,86,505.4922,96,509.4922,92,505.4922" style="stroke:#181818;stroke-width:1.0;"/><line style="stroke:#181818;stroke-width:1.0;stroke-dasharray:2.0,2.0;" x1="90" x2="864" y1="505.4922" y2="505.4922"/><text fill="#000000" font-family="sans-serif" font-size="13" font-weight="bold" lengthAdjust="spacing" textLength="14" x="102" y="500.7373">14</text><text fill="#000000" font-family="sans-serif" font-size="13" lengthAdjust="spacing" textLength="733" x="120" y="500.7373">shows list of properties according to the filters and show list of all properties that are on rent and asks to filter by property filters</text><polygon fill="#181818" points="848,530.0156,858,534.0156,848,538.0156,852,534.0156" style="stroke:#181818;stroke-width:1.0;"/><line style="stroke:#181818;stroke-width:1.0;" x1="85" x2="854" y1="534.0156" y2="534.0156"/><text fill="#000000" font-family="sans-serif" font-size="13" font-weight="bold" lengthAdjust="spacing" textLength="14" x="92" y="529.2607">15</text><text fill="#000000" font-family="sans-serif" font-size="13" lengthAdjust="spacing" textLength="42" x="110" y="529.2607">confirm</text><polygon fill="#181818" points="96,558.5391,86,562.5391,96,566.5391,92,562.5391" style="stroke:#181818;stroke-width:1.0;"/><line style="stroke:#181818;stroke-width:1.0;stroke-dasharray:2.0,2.0;" x1="90" x2="864" y1="562.5391" y2="562.5391"/><text fill="#000000" font-family="sans-serif" font-size="13" font-weight="bold" lengthAdjust="spacing" textLength="14" x="102" y="557.7842">16</text><text fill="#000000" font-family="sans-serif" font-size="13" lengthAdjust="spacing" textLength="151" x="120" y="557.7842">show list of property filters</text><polygon fill="#181818" points="848,587.0625,858,591.0625,848,595.0625,852,591.0625" style="stroke:#181818;stroke-width:1.0;"/><line style="stroke:#181818;stroke-width:1.0;" x1="85" x2="854" y1="591.0625" y2="591.0625"/><text fill="#000000" font-family="sans-serif" font-size="13" font-weight="bold" lengthAdjust="spacing" textLength="14" x="92" y="586.3076">17</text><text fill="#000000" font-family="sans-serif" font-size="13" lengthAdjust="spacing" textLength="74" x="110" y="586.3076">select a filter</text><polygon fill="#181818" points="96,615.5859,86,619.5859,96,623.5859,92,619.5859" style="stroke:#181818;stroke-width:1.0;"/><line style="stroke:#181818;stroke-width:1.0;stroke-dasharray:2.0,2.0;" x1="90" x2="859" y1="619.5859" y2="619.5859"/><text fill="#000000" font-family="sans-serif" font-size="13" font-weight="bold" lengthAdjust="spacing" textLength="14" x="102" y="614.8311">18</text><text fill="#000000" font-family="sans-serif" font-size="13" lengthAdjust="spacing" textLength="133" x="120" y="614.8311">shows list of properties</text><polygon fill="#181818" points="96,651.1094,86,655.1094,96,659.1094,92,655.1094" style="stroke:#181818;stroke-width:1.0;"/><line style="stroke:#181818;stroke-width:1.0;stroke-dasharray:2.0,2.0;" x1="90" x2="864" y1="655.1094" y2="655.1094"/><text fill="#000000" font-family="sans-serif" font-size="13" font-weight="bold" lengthAdjust="spacing" textLength="14" x="102" y="650.3545">19</text><text fill="#000000" font-family="sans-serif" font-size="13" lengthAdjust="spacing" textLength="287" x="120" y="650.3545">show list of property filters and asks to select one</text><polygon fill="#181818" points="848,679.6328,858,683.6328,848,687.6328,852,683.6328" style="stroke:#181818;stroke-width:1.0;"/><line style="stroke:#181818;stroke-width:1.0;" x1="85" x2="854" y1="683.6328" y2="683.6328"/><text fill="#000000" font-family="sans-serif" font-size="13" font-weight="bold" lengthAdjust="spacing" textLength="14" x="92" y="678.8779">20</text><text fill="#000000" font-family="sans-serif" font-size="13" lengthAdjust="spacing" textLength="92" x="110" y="678.8779">select an option</text><polygon fill="#181818" points="96,708.1563,86,712.1563,96,716.1563,92,712.1563" style="stroke:#181818;stroke-width:1.0;"/><line style="stroke:#181818;stroke-width:1.0;stroke-dasharray:2.0,2.0;" x1="90" x2="864" y1="712.1563" y2="712.1563"/><text fill="#000000" font-family="sans-serif" font-size="13" font-weight="bold" lengthAdjust="spacing" textLength="14" x="102" y="707.4014">21</text><text fill="#000000" font-family="sans-serif" font-size="13" lengthAdjust="spacing" textLength="133" x="120" y="707.4014">shows list of properties</text><!--SRC=[tPLBSiCW38RtFeKcw-O2MVGIcHn0iHM72KOkmiduzXMOl1hdlSdK2ym0_lZr2s7P6DUYnmOQTbokFJS4mNTKo66cnNA3DSr3RmaybG5TRKyNo1ehtXbNmmgjK55W5zXrpPAyzil07YOBvwas4iXJ1GiXFm6Kr2aK4anfMdG19hDvhukQD3jq4y9iCT2ml01zOW-ctta9p7JvHY0m215OtGTu1QtdbfHDCdnqu6Hm74jDfamLcC0p3Obt8np0BHgBIpK2NNNOT6Mi1fPXgQbeRBF3z8NyajtA-0Q3ONT23EiXcYFuB_QM_W4YCOJGjnJVoqwC8v4p-K9Mimhiw5u0u-Bpz-Y0snZ0TRNt71zHdCtlFq-nfv-Ez8GC9psvIvLdRkGjKRTmLs4nZWlBlexfJbFHmKiwe2STjlRXUa1hJsiYh34aY1vTmV7IMFR7HEOalsPIBfIhbkJXPslxJLNxyvGfBnU0ZDuvPSc-YjUh-XblX7sLH9yVJOmd5zvF39nP-tHo_b5MYdChKaDgxyiXVkQDB5T_ffToVW40]--></g></svg>