<?xml version="1.0" encoding="us-ascii" standalone="no"?><svg xmlns="http://www.w3.org/2000/svg" xmlns:xlink="http://www.w3.org/1999/xlink" contentStyleType="text/css" height="971px" preserveAspectRatio="none" style="width:639px;height:971px;background:#FFFFFF;" version="1.1" viewBox="0 0 639 971" width="639px" zoomAndPan="magnify"><defs/><g><text fill="#000000" font-family="sans-serif" font-size="14" font-weight="bold" lengthAdjust="spacing" textLength="411" x="115.5" y="27.6738">As an unregistered user, I want to display listed properties</text><rect fill="#FFFFFF" height="754.6094" style="stroke:#181818;stroke-width:1.0;" width="10" x="85" y="127.2813"/><rect fill="#FFFFFF" height="725.0859" style="stroke:#181818;stroke-width:1.0;" width="10" x="576" y="147.8047"/><rect fill="none" height="279.2344" style="stroke:#000000;stroke-width:1.5;" width="623" x="10" y="162.8047"/><rect fill="none" height="45.0469" style="stroke:#000000;stroke-width:1.5;" width="603" x="20" y="214.8516"/><rect fill="none" height="45.0469" style="stroke:#000000;stroke-width:1.5;" width="603" x="20" y="302.4219"/><rect fill="none" height="45.0469" style="stroke:#000000;stroke-width:1.5;" width="603" x="20" y="389.9922"/><rect fill="none" height="301.7578" style="stroke:#000000;stroke-width:1.5;" width="603" x="20" y="456.0391"/><rect fill="none" height="45.0469" style="stroke:#000000;stroke-width:1.5;" width="603" x="20" y="800.3203"/><line style="stroke:#181818;stroke-width:0.5;stroke-dasharray:5.0,5.0;" x1="90" x2="90" y1="117.2813" y2="890.8906"/><line style="stroke:#181818;stroke-width:0.5;stroke-dasharray:5.0,5.0;" x1="581" x2="581" y1="117.2813" y2="890.8906"/><text fill="#000000" font-family="sans-serif" font-size="14" lengthAdjust="spacing" textLength="114" x="30" y="114.3145">Unregistered User</text><ellipse cx="90" cy="50.1406" fill="#E3E3E3" rx="8" ry="8" style="stroke:#181818;stroke-width:0.5;"/><path d="M90,58.1406 L90,85.1406 M77,66.1406 L103,66.1406 M90,85.1406 L77,100.1406 M90,85.1406 L103,100.1406 " fill="none" style="stroke:#181818;stroke-width:0.5;"/><text fill="#000000" font-family="sans-serif" font-size="14" lengthAdjust="spacing" textLength="114" x="30" y="902.5645">Unregistered User</text><ellipse cx="90" cy="914.0313" fill="#E3E3E3" rx="8" ry="8" style="stroke:#181818;stroke-width:0.5;"/><path d="M90,922.0313 L90,949.0313 M77,930.0313 L103,930.0313 M90,949.0313 L77,964.0313 M90,949.0313 L103,964.0313 " fill="none" style="stroke:#181818;stroke-width:0.5;"/><rect fill="#E3E3E3" height="29.6406" rx="2.5" ry="2.5" style="stroke:#181818;stroke-width:0.5;" width="64" x="549" y="86.6406"/><text fill="#000000" font-family="sans-serif" font-size="14" lengthAdjust="spacing" textLength="50" x="556" y="106.3145">:System</text><rect fill="#E3E3E3" height="29.6406" rx="2.5" ry="2.5" style="stroke:#181818;stroke-width:0.5;" width="64" x="549" y="889.8906"/><text fill="#000000" font-family="sans-serif" font-size="14" lengthAdjust="spacing" textLength="50" x="556" y="909.5645">:System</text><rect fill="#FFFFFF" height="754.6094" style="stroke:#181818;stroke-width:1.0;" width="10" x="85" y="127.2813"/><rect fill="#FFFFFF" height="725.0859" style="stroke:#181818;stroke-width:1.0;" width="10" x="576" y="147.8047"/><polygon fill="#181818" points="564,143.8047,574,147.8047,564,151.8047,568,147.8047" style="stroke:#181818;stroke-width:1.0;"/><line style="stroke:#181818;stroke-width:1.0;" x1="95" x2="570" y1="147.8047" y2="147.8047"/><text fill="#000000" font-family="sans-serif" font-size="13" font-weight="bold" lengthAdjust="spacing" textLength="7" x="102" y="143.0498">1</text><text fill="#000000" font-family="sans-serif" font-size="13" lengthAdjust="spacing" textLength="164" x="113" y="143.0498">asks to see list of properties</text><path d="M10,162.8047 L75,162.8047 L75,169.3281 L65,179.3281 L10,179.3281 L10,162.8047 " fill="#EEEEEE" style="stroke:#000000;stroke-width:1.5;"/><rect fill="none" height="279.2344" style="stroke:#000000;stroke-width:1.5;" width="623" x="10" y="162.8047"/><text fill="#000000" font-family="sans-serif" font-size="13" font-weight="bold" lengthAdjust="spacing" textLength="20" x="25" y="175.5732">opt</text><text fill="#000000" font-family="sans-serif" font-size="11" font-weight="bold" lengthAdjust="spacing" textLength="351" x="90" y="174.7627">[selects Type of business, property and number of bedrooms)]</text><polygon fill="#181818" points="106,195.8516,96,199.8516,106,203.8516,102,199.8516" style="stroke:#181818;stroke-width:1.0;"/><line style="stroke:#181818;stroke-width:1.0;stroke-dasharray:2.0,2.0;" x1="100" x2="575" y1="199.8516" y2="199.8516"/><text fill="#000000" font-family="sans-serif" font-size="13" font-weight="bold" lengthAdjust="spacing" textLength="7" x="112" y="195.0967">2</text><text fill="#000000" font-family="sans-serif" font-size="13" lengthAdjust="spacing" textLength="314" x="123" y="195.0967">show filters of type of business and asks to select one</text><path d="M20,214.8516 L85,214.8516 L85,221.375 L75,231.375 L20,231.375 L20,214.8516 " fill="#EEEEEE" style="stroke:#000000;stroke-width:1.5;"/><rect fill="none" height="45.0469" style="stroke:#000000;stroke-width:1.5;" width="603" x="20" y="214.8516"/><text fill="#000000" font-family="sans-serif" font-size="13" font-weight="bold" lengthAdjust="spacing" textLength="20" x="35" y="227.6201">opt</text><text fill="#000000" font-family="sans-serif" font-size="11" font-weight="bold" lengthAdjust="spacing" textLength="145" x="100" y="226.8096">[selects type of business]</text><polygon fill="#181818" points="564,247.8984,574,251.8984,564,255.8984,568,251.8984" style="stroke:#181818;stroke-width:1.0;"/><line style="stroke:#181818;stroke-width:1.0;" x1="95" x2="570" y1="251.8984" y2="251.8984"/><text fill="#000000" font-family="sans-serif" font-size="13" font-weight="bold" lengthAdjust="spacing" textLength="7" x="102" y="247.1436">3</text><text fill="#000000" font-family="sans-serif" font-size="13" lengthAdjust="spacing" textLength="92" x="113" y="247.1436">select an option</text><polygon fill="#181818" points="106,283.4219,96,287.4219,106,291.4219,102,287.4219" style="stroke:#181818;stroke-width:1.0;"/><line style="stroke:#181818;stroke-width:1.0;stroke-dasharray:2.0,2.0;" x1="100" x2="575" y1="287.4219" y2="287.4219"/><text fill="#000000" font-family="sans-serif" font-size="13" font-weight="bold" lengthAdjust="spacing" textLength="7" x="112" y="282.667">4</text><text fill="#000000" font-family="sans-serif" font-size="13" lengthAdjust="spacing" textLength="309" x="123" y="282.667">show filters of type of property and asks to select one</text><path d="M20,302.4219 L85,302.4219 L85,308.9453 L75,318.9453 L20,318.9453 L20,302.4219 " fill="#EEEEEE" style="stroke:#000000;stroke-width:1.5;"/><rect fill="none" height="45.0469" style="stroke:#000000;stroke-width:1.5;" width="603" x="20" y="302.4219"/><text fill="#000000" font-family="sans-serif" font-size="13" font-weight="bold" lengthAdjust="spacing" textLength="20" x="35" y="315.1904">opt</text><text fill="#000000" font-family="sans-serif" font-size="11" font-weight="bold" lengthAdjust="spacing" textLength="141" x="100" y="314.3799">[selects type of property]</text><polygon fill="#181818" points="564,335.4688,574,339.4688,564,343.4688,568,339.4688" style="stroke:#181818;stroke-width:1.0;"/><line style="stroke:#181818;stroke-width:1.0;" x1="95" x2="570" y1="339.4688" y2="339.4688"/><text fill="#000000" font-family="sans-serif" font-size="13" font-weight="bold" lengthAdjust="spacing" textLength="7" x="102" y="334.7139">5</text><text fill="#000000" font-family="sans-serif" font-size="13" lengthAdjust="spacing" textLength="92" x="113" y="334.7139">select an option</text><polygon fill="#181818" points="106,370.9922,96,374.9922,106,378.9922,102,374.9922" style="stroke:#181818;stroke-width:1.0;"/><line style="stroke:#181818;stroke-width:1.0;stroke-dasharray:2.0,2.0;" x1="100" x2="575" y1="374.9922" y2="374.9922"/><text fill="#000000" font-family="sans-serif" font-size="13" font-weight="bold" lengthAdjust="spacing" textLength="7" x="112" y="370.2373">6</text><text fill="#000000" font-family="sans-serif" font-size="13" lengthAdjust="spacing" textLength="165" x="123" y="370.2373">request number of bedrooms</text><path d="M20,389.9922 L85,389.9922 L85,396.5156 L75,406.5156 L20,406.5156 L20,389.9922 " fill="#EEEEEE" style="stroke:#000000;stroke-width:1.5;"/><rect fill="none" height="45.0469" style="stroke:#000000;stroke-width:1.5;" width="603" x="20" y="389.9922"/><text fill="#000000" font-family="sans-serif" font-size="13" font-weight="bold" lengthAdjust="spacing" textLength="20" x="35" y="402.7607">opt</text><text fill="#000000" font-family="sans-serif" font-size="11" font-weight="bold" lengthAdjust="spacing" textLength="171" x="100" y="401.9502">[selects number of bedrooms]</text><polygon fill="#181818" points="564,423.0391,574,427.0391,564,431.0391,568,427.0391" style="stroke:#181818;stroke-width:1.0;"/><line style="stroke:#181818;stroke-width:1.0;" x1="95" x2="570" y1="427.0391" y2="427.0391"/><text fill="#000000" font-family="sans-serif" font-size="13" font-weight="bold" lengthAdjust="spacing" textLength="7" x="102" y="422.2842">7</text><text fill="#000000" font-family="sans-serif" font-size="13" lengthAdjust="spacing" textLength="157" x="113" y="422.2842">select number of bedrooms</text><path d="M20,456.0391 L468,456.0391 L468,462.5625 L458,472.5625 L20,472.5625 L20,456.0391 " fill="#EEEEEE" style="stroke:#000000;stroke-width:1.5;"/><rect fill="none" height="301.7578" style="stroke:#000000;stroke-width:1.5;" width="603" x="20" y="456.0391"/><text fill="#000000" font-family="sans-serif" font-size="13" font-weight="bold" lengthAdjust="spacing" textLength="403" x="35" y="468.8076">if  Type of business, property and number of bedrooms equals 0</text><polygon fill="#181818" points="106,489.0859,96,493.0859,106,497.0859,102,493.0859" style="stroke:#181818;stroke-width:1.0;"/><line style="stroke:#181818;stroke-width:1.0;stroke-dasharray:2.0,2.0;" x1="100" x2="575" y1="493.0859" y2="493.0859"/><text fill="#000000" font-family="sans-serif" font-size="13" font-weight="bold" lengthAdjust="spacing" textLength="7" x="112" y="488.3311">8</text><text fill="#000000" font-family="sans-serif" font-size="13" lengthAdjust="spacing" textLength="441" x="123" y="488.3311">show list of all properties that are on sale and asks to filter by property filters</text><polygon fill="#181818" points="564,517.6094,574,521.6094,564,525.6094,568,521.6094" style="stroke:#181818;stroke-width:1.0;"/><line style="stroke:#181818;stroke-width:1.0;" x1="95" x2="570" y1="521.6094" y2="521.6094"/><text fill="#000000" font-family="sans-serif" font-size="13" font-weight="bold" lengthAdjust="spacing" textLength="7" x="102" y="516.8545">9</text><text fill="#000000" font-family="sans-serif" font-size="13" lengthAdjust="spacing" textLength="42" x="113" y="516.8545">confirm</text><polygon fill="#181818" points="106,546.1328,96,550.1328,106,554.1328,102,550.1328" style="stroke:#181818;stroke-width:1.0;"/><line style="stroke:#181818;stroke-width:1.0;stroke-dasharray:2.0,2.0;" x1="100" x2="575" y1="550.1328" y2="550.1328"/><text fill="#000000" font-family="sans-serif" font-size="13" font-weight="bold" lengthAdjust="spacing" textLength="14" x="112" y="545.3779">10</text><text fill="#000000" font-family="sans-serif" font-size="13" lengthAdjust="spacing" textLength="151" x="130" y="545.3779">show list of property filters</text><polygon fill="#181818" points="564,574.6563,574,578.6563,564,582.6563,568,578.6563" style="stroke:#181818;stroke-width:1.0;"/><line style="stroke:#181818;stroke-width:1.0;" x1="95" x2="570" y1="578.6563" y2="578.6563"/><text fill="#000000" font-family="sans-serif" font-size="13" font-weight="bold" lengthAdjust="spacing" textLength="14" x="102" y="573.9014">11</text><text fill="#000000" font-family="sans-serif" font-size="13" lengthAdjust="spacing" textLength="74" x="120" y="573.9014">select a filter</text><polygon fill="#181818" points="106,603.1797,96,607.1797,106,611.1797,102,607.1797" style="stroke:#181818;stroke-width:1.0;"/><line style="stroke:#181818;stroke-width:1.0;stroke-dasharray:2.0,2.0;" x1="100" x2="575" y1="607.1797" y2="607.1797"/><text fill="#000000" font-family="sans-serif" font-size="13" font-weight="bold" lengthAdjust="spacing" textLength="14" x="112" y="602.4248">12</text><text fill="#000000" font-family="sans-serif" font-size="13" lengthAdjust="spacing" textLength="133" x="130" y="602.4248">shows list of properties</text><polygon fill="#181818" points="106,631.7031,96,635.7031,106,639.7031,102,635.7031" style="stroke:#181818;stroke-width:1.0;"/><line style="stroke:#181818;stroke-width:1.0;stroke-dasharray:2.0,2.0;" x1="100" x2="575" y1="635.7031" y2="635.7031"/><text fill="#000000" font-family="sans-serif" font-size="13" font-weight="bold" lengthAdjust="spacing" textLength="14" x="112" y="630.9482">13</text><text fill="#000000" font-family="sans-serif" font-size="13" lengthAdjust="spacing" textLength="439" x="130" y="630.9482">show list of all properties that are on rent and asks to filter by property filters</text><polygon fill="#181818" points="564,660.2266,574,664.2266,564,668.2266,568,664.2266" style="stroke:#181818;stroke-width:1.0;"/><line style="stroke:#181818;stroke-width:1.0;" x1="95" x2="570" y1="664.2266" y2="664.2266"/><text fill="#000000" font-family="sans-serif" font-size="13" font-weight="bold" lengthAdjust="spacing" textLength="14" x="102" y="659.4717">14</text><text fill="#000000" font-family="sans-serif" font-size="13" lengthAdjust="spacing" textLength="42" x="120" y="659.4717">confirm</text><polygon fill="#181818" points="106,688.75,96,692.75,106,696.75,102,692.75" style="stroke:#181818;stroke-width:1.0;"/><line style="stroke:#181818;stroke-width:1.0;stroke-dasharray:2.0,2.0;" x1="100" x2="575" y1="692.75" y2="692.75"/><text fill="#000000" font-family="sans-serif" font-size="13" font-weight="bold" lengthAdjust="spacing" textLength="14" x="112" y="687.9951">15</text><text fill="#000000" font-family="sans-serif" font-size="13" lengthAdjust="spacing" textLength="151" x="130" y="687.9951">show list of property filters</text><polygon fill="#181818" points="564,717.2734,574,721.2734,564,725.2734,568,721.2734" style="stroke:#181818;stroke-width:1.0;"/><line style="stroke:#181818;stroke-width:1.0;" x1="95" x2="570" y1="721.2734" y2="721.2734"/><text fill="#000000" font-family="sans-serif" font-size="13" font-weight="bold" lengthAdjust="spacing" textLength="14" x="102" y="716.5186">16</text><text fill="#000000" font-family="sans-serif" font-size="13" lengthAdjust="spacing" textLength="74" x="120" y="716.5186">select a filter</text><polygon fill="#181818" points="106,745.7969,96,749.7969,106,753.7969,102,749.7969" style="stroke:#181818;stroke-width:1.0;"/><line style="stroke:#181818;stroke-width:1.0;stroke-dasharray:2.0,2.0;" x1="100" x2="575" y1="749.7969" y2="749.7969"/><text fill="#000000" font-family="sans-serif" font-size="13" font-weight="bold" lengthAdjust="spacing" textLength="14" x="112" y="745.042">17</text><text fill="#000000" font-family="sans-serif" font-size="13" lengthAdjust="spacing" textLength="133" x="130" y="745.042">shows list of properties</text><polygon fill="#181818" points="106,781.3203,96,785.3203,106,789.3203,102,785.3203" style="stroke:#181818;stroke-width:1.0;"/><line style="stroke:#181818;stroke-width:1.0;stroke-dasharray:2.0,2.0;" x1="100" x2="575" y1="785.3203" y2="785.3203"/><text fill="#000000" font-family="sans-serif" font-size="13" font-weight="bold" lengthAdjust="spacing" textLength="14" x="112" y="780.5654">18</text><text fill="#000000" font-family="sans-serif" font-size="13" lengthAdjust="spacing" textLength="287" x="130" y="780.5654">show list of property filters and asks to select one</text><path d="M20,800.3203 L85,800.3203 L85,806.8438 L75,816.8438 L20,816.8438 L20,800.3203 " fill="#EEEEEE" style="stroke:#000000;stroke-width:1.5;"/><rect fill="none" height="45.0469" style="stroke:#000000;stroke-width:1.5;" width="603" x="20" y="800.3203"/><text fill="#000000" font-family="sans-serif" font-size="13" font-weight="bold" lengthAdjust="spacing" textLength="20" x="35" y="813.0889">opt</text><text fill="#000000" font-family="sans-serif" font-size="11" font-weight="bold" lengthAdjust="spacing" textLength="310" x="100" y="812.2783">[selects price, city or state by descending or ascending]</text><polygon fill="#181818" points="564,833.3672,574,837.3672,564,841.3672,568,837.3672" style="stroke:#181818;stroke-width:1.0;"/><line style="stroke:#181818;stroke-width:1.0;" x1="95" x2="570" y1="837.3672" y2="837.3672"/><text fill="#000000" font-family="sans-serif" font-size="13" font-weight="bold" lengthAdjust="spacing" textLength="14" x="102" y="832.6123">19</text><text fill="#000000" font-family="sans-serif" font-size="13" lengthAdjust="spacing" textLength="92" x="120" y="832.6123">select an option</text><polygon fill="#181818" points="106,868.8906,96,872.8906,106,876.8906,102,872.8906" style="stroke:#181818;stroke-width:1.0;"/><line style="stroke:#181818;stroke-width:1.0;stroke-dasharray:2.0,2.0;" x1="100" x2="580" y1="872.8906" y2="872.8906"/><text fill="#000000" font-family="sans-serif" font-size="13" font-weight="bold" lengthAdjust="spacing" textLength="14" x="112" y="868.1357">20</text><text fill="#000000" font-family="sans-serif" font-size="13" lengthAdjust="spacing" textLength="133" x="130" y="868.1357">shows list of properties</text><!--SRC=[rLMxRkCm4Epv5Gjt0HmWjOi3KbwTomVGv4ecB97CBXL3VtzBMf8Ld-BOFgI86jFIpEnmbW_UEnyrwHRQu8FPKMWH4dMeUFeIjTdh6bzIto0GcgHztSm1lDCs79oleT8Der8gkIHOU6RG7ZfFM3jEI6YXOwGr_8Q3zWbI0EiuDhg79WCiH0eHAJbafNINWk_QBPACJGe4gzUvrAj8hK1p6IYnafnnCUkkDY-zWDhozJWi4kvT9pp25SYJH_3uQu30Hk1xpguOiJY2K7smb4cJpYYSNuQOXDH8E0n_-eYPkEtOUMHUZnAzf67XEAK2G4iXjFnG9F8p67aKJyNRHh8D1wXS8rFcp4bduaNoP3ixWE1nKfmRE-TEeCKi1Z5fe6Yuu2SqUglkSFmXX1iTZzplSKpurg4q-z_Eg4LN2xXhV5sWPOFptvf25y5LSFjY0fcCx49u-gf5u_hMJJDRuv1sMY8aAUg1jUpYURkEROLjVt8nTBfKKvz6O8Al7BKdnBNk5kjShZKkWu5oRKbUsl6tshqG9g5FjuJvzKH_SgYoqk-s-za9ihXP8pc3Qp1E-7A5SCf7jsHkaOsOoBUMlDRZ7_K_HymzOHIEnVDRvIy0]--></g></svg>