<?xml version="1.0" encoding="us-ascii" standalone="no"?><svg xmlns="http://www.w3.org/2000/svg" xmlns:xlink="http://www.w3.org/1999/xlink" contentStyleType="text/css" height="683.1px" preserveAspectRatio="none" style="width:283px;height:683px;background:#FFFFFF;" version="1.1" viewBox="0 0 283 683" width="283.5px" zoomAndPan="magnify"><defs/><g><!--class Employee--><g id="elem_Employee"><rect codeLine="13" fill="#F1F1F1" height="32.959" id="Employee" rx="2.25" ry="2.25" style="stroke:#181818;stroke-width:0.45;" width="61.2" x="78.75" y="556.2"/><text fill="#000000" font-family="sans-serif" font-size="12.6" lengthAdjust="spacing" textLength="55.8" x="81.45" y="574.2967">Employee</text><line style="stroke:#181818;stroke-width:0.45;" x1="79.65" x2="139.05" y1="581.959" y2="581.959"/></g><!--class Property--><g id="elem_Property"><rect codeLine="17" fill="#F1F1F1" height="32.959" id="Property" rx="2.25" ry="2.25" style="stroke:#181818;stroke-width:0.45;" width="54" x="91.35" y="160.2"/><text fill="#000000" font-family="sans-serif" font-size="12.6" lengthAdjust="spacing" textLength="48.6" x="94.05" y="178.2967">Property</text><line style="stroke:#181818;stroke-width:0.45;" x1="92.25" x2="144.45" y1="185.959" y2="185.959"/></g><!--class Person--><g id="elem_Person"><rect codeLine="20" fill="#F1F1F1" height="66.477" id="Person" rx="2.25" ry="2.25" style="stroke:#181818;stroke-width:0.45;" width="45.9" x="86.4" y="418.5"/><text fill="#000000" font-family="sans-serif" font-size="12.6" lengthAdjust="spacing" textLength="40.5" x="89.1" y="436.5967">Person</text><line style="stroke:#181818;stroke-width:0.45;" x1="87.3" x2="131.4" y1="444.259" y2="444.259"/><text fill="#000000" font-family="sans-serif" font-size="12.6" lengthAdjust="spacing" textLength="29.7" x="91.8" y="461.4557">email</text><text fill="#000000" font-family="sans-serif" font-size="12.6" lengthAdjust="spacing" textLength="31.5" x="91.8" y="478.2146">name</text></g><!--class Agent--><g id="elem_Agent"><rect codeLine="26" fill="#F1F1F1" height="32.959" id="Agent" rx="2.25" ry="2.25" style="stroke:#181818;stroke-width:0.45;" width="38.7" x="24.3" y="644.4"/><text fill="#000000" font-family="sans-serif" font-size="12.6" lengthAdjust="spacing" textLength="33.3" x="27" y="662.4967">Agent</text><line style="stroke:#181818;stroke-width:0.45;" x1="25.2" x2="62.1" y1="670.159" y2="670.159"/></g><!--class Role--><g id="elem_Role"><rect codeLine="30" fill="#F1F1F1" height="66.477" id="Role" rx="2.25" ry="2.25" style="stroke:#181818;stroke-width:0.45;" width="72.9" x="163.8" y="418.5"/><text fill="#000000" font-family="sans-serif" font-size="12.6" lengthAdjust="spacing" textLength="26.1" x="187.2" y="436.5967">Role</text><line style="stroke:#181818;stroke-width:0.45;" x1="164.7" x2="235.8" y1="444.259" y2="444.259"/><text fill="#000000" font-family="sans-serif" font-size="12.6" lengthAdjust="spacing" textLength="9.9" x="169.2" y="461.4557">id</text><text fill="#000000" font-family="sans-serif" font-size="12.6" lengthAdjust="spacing" textLength="62.1" x="169.2" y="478.2146">description</text></g><!--class Address--><g id="elem_Address"><rect codeLine="35" fill="#F1F1F1" height="83.2359" id="Address" rx="2.25" ry="2.25" style="stroke:#181818;stroke-width:0.45;" width="90" x="73.35" y="264.6"/><text fill="#000000" font-family="sans-serif" font-size="12.6" lengthAdjust="spacing" textLength="46.8" x="94.95" y="282.6967">Address</text><line style="stroke:#181818;stroke-width:0.45;" x1="74.25" x2="162.45" y1="290.359" y2="290.359"/><text fill="#000000" font-family="sans-serif" font-size="12.6" lengthAdjust="spacing" textLength="79.2" x="78.75" y="307.5557">streetAddress</text><text fill="#000000" font-family="sans-serif" font-size="12.6" lengthAdjust="spacing" textLength="27.9" x="78.75" y="324.3146">state</text><text fill="#000000" font-family="sans-serif" font-size="12.6" lengthAdjust="spacing" textLength="45.9" x="78.75" y="341.0736">zipCode</text></g><!--class PurchaseOrder--><g id="elem_PurchaseOrder"><rect codeLine="41" fill="#F1F1F1" height="83.2359" id="PurchaseOrder" rx="2.25" ry="2.25" style="stroke:#181818;stroke-width:0.45;" width="92.7" x="184.5" y="6.3"/><text fill="#000000" font-family="sans-serif" font-size="12.6" lengthAdjust="spacing" textLength="87.3" x="187.2" y="24.3967">PurchaseOrder</text><line style="stroke:#181818;stroke-width:0.45;" x1="185.4" x2="276.3" y1="32.059" y2="32.059"/><text fill="#000000" font-family="sans-serif" font-size="12.6" lengthAdjust="spacing" textLength="73.8" x="189.9" y="49.2557">orderAmount</text><text fill="#000000" font-family="sans-serif" font-size="12.6" lengthAdjust="spacing" textLength="74.7" x="189.9" y="66.0146">wasAccepted</text><text fill="#000000" font-family="sans-serif" font-size="12.6" lengthAdjust="spacing" textLength="72.9" x="189.9" y="82.7736">creationDate</text></g><!--class Announcement--><g id="elem_Announcement"><rect codeLine="47" fill="#F1F1F1" height="83.2359" id="Announcement" rx="2.25" ry="2.25" style="stroke:#181818;stroke-width:0.45;" width="90.9" x="6.3" y="6.3"/><text fill="#000000" font-family="sans-serif" font-size="12.6" lengthAdjust="spacing" textLength="85.5" x="9" y="24.3967">Announcement</text><line style="stroke:#181818;stroke-width:0.45;" x1="7.2" x2="96.3" y1="32.059" y2="32.059"/><text fill="#000000" font-family="sans-serif" font-size="12.6" lengthAdjust="spacing" textLength="58.5" x="11.7" y="49.2557">listedPrice</text><text fill="#000000" font-family="sans-serif" font-size="12.6" lengthAdjust="spacing" textLength="25.2" x="11.7" y="66.0146">date</text><text fill="#000000" font-family="sans-serif" font-size="12.6" lengthAdjust="spacing" textLength="79.2" x="11.7" y="82.7736">businessType</text></g><!--class PropertyType--><g id="elem_PropertyType"><rect codeLine="53" fill="#F1F1F1" height="49.718" id="PropertyType" rx="2.25" ry="2.25" style="stroke:#181818;stroke-width:0.45;" width="82.8" x="194.85" y="281.25"/><text fill="#000000" font-family="sans-serif" font-size="12.6" lengthAdjust="spacing" textLength="77.4" x="197.55" y="299.3467">PropertyType</text><line style="stroke:#181818;stroke-width:0.45;" x1="195.75" x2="276.75" y1="307.009" y2="307.009"/><text fill="#000000" font-family="sans-serif" font-size="12.6" lengthAdjust="spacing" textLength="62.1" x="200.25" y="324.2057">description</text></g><!--link Property to PropertyType--><g id="link_Property_PropertyType"><path codeLine="57" d="M142.101,193.644 C152.496,201.168 164.502,210.645 174.15,220.5 C192.384,239.112 209.619,263.331 221.292,281.079 " fill="none" id="Property-PropertyType" style="stroke:#181818;stroke-width:0.9;"/><polygon fill="#000000" points="196.9709,232.5163,193.4665,224.707,189.5456,228.2582,196.9709,232.5163" style="stroke:#000000;stroke-width:0.9;"/><text fill="#000000" font-family="sans-serif" font-size="11.7" lengthAdjust="spacing" textLength="35.1" x="202.05" y="234.0255">has an</text><text fill="#000000" font-family="sans-serif" font-size="11.7" lengthAdjust="spacing" textLength="6.3" x="141.3375" y="212.9198">1</text><text fill="#000000" font-family="sans-serif" font-size="11.7" lengthAdjust="spacing" textLength="6.3" x="211.0309" y="271.2844">1</text></g><!--link Property to Address--><g id="link_Property_Address"><path codeLine="58" d="M118.35,193.617 C118.35,211.221 118.35,240.309 118.35,264.366 " fill="none" id="Property-Address" style="stroke:#181818;stroke-width:0.9;"/><polygon fill="#000000" points="122.85,233.681,125.495,225.5404,120.205,225.5404,122.85,233.681" style="stroke:#000000;stroke-width:0.9;"/><text fill="#000000" font-family="sans-serif" font-size="11.7" lengthAdjust="spacing" textLength="35.1" x="130.95" y="234.0255">has an</text><text fill="#000000" font-family="sans-serif" font-size="11.7" lengthAdjust="spacing" textLength="6.3" x="111.2034" y="212.8856">1</text><text fill="#000000" font-family="sans-serif" font-size="11.7" lengthAdjust="spacing" textLength="6.3" x="111.5873" y="254.4401">1</text></g><!--link Address to Person--><g id="link_Address_Person"><path codeLine="59" d="M115.794,347.778 C114.399,370.143 112.689,397.476 111.384,418.383 " fill="none" id="Address-Person" style="stroke:#181818;stroke-width:0.9;"/><polygon fill="#000000" points="119.5305,378.5897,116.3832,386.5496,121.6629,386.8793,119.5305,378.5897" style="stroke:#000000;stroke-width:0.9;"/><text fill="#000000" font-family="sans-serif" font-size="11.7" lengthAdjust="spacing" textLength="35.1" x="127.35" y="387.9255">has an</text><text fill="#000000" font-family="sans-serif" font-size="11.7" lengthAdjust="spacing" textLength="6.3" x="108.6559" y="367.6504">1</text><text fill="#000000" font-family="sans-serif" font-size="11.7" lengthAdjust="spacing" textLength="6.3" x="104.8852" y="408.4277">1</text></g><!--reverse link Person to Employee--><g id="link_Person_Employee"><path codeLine="61" d="M109.35,503.55 C109.35,522.504 109.35,542.673 109.35,556.164 " fill="none" id="Person-backto-Employee" style="stroke:#181818;stroke-width:0.9;"/><polygon fill="none" points="103.05,503.289,109.35,485.289,115.65,503.289,103.05,503.289" style="stroke:#181818;stroke-width:0.9;"/></g><!--reverse link Employee to Agent--><g id="link_Employee_Agent"><path codeLine="62" d="M86.193,604.206 C75.96,617.661 64.35,632.925 55.845,644.112 " fill="none" id="Employee-backto-Agent" style="stroke:#181818;stroke-width:0.9;"/><polygon fill="none" points="81.387,600.111,97.299,589.599,91.422,607.743,81.387,600.111" style="stroke:#181818;stroke-width:0.9;"/></g><!--link Role to Employee--><g id="link_Role_Employee"><path codeLine="63" d="M175.41,485.289 C157.851,508.32 135.09,538.182 121.383,556.164 " fill="none" id="Role-Employee" style="stroke:#181818;stroke-width:0.9;"/><polygon fill="#000000" points="162.4781,517.2022,155.4394,522.0727,159.6465,525.2798,162.4781,517.2022" style="stroke:#000000;stroke-width:0.9;"/><text fill="#000000" font-family="sans-serif" font-size="11.7" lengthAdjust="spacing" textLength="28.8" x="167.85" y="525.6255">has a</text><text fill="#000000" font-family="sans-serif" font-size="11.7" lengthAdjust="spacing" textLength="18" x="151.8053" y="504.76">1..*</text><text fill="#000000" font-family="sans-serif" font-size="11.7" lengthAdjust="spacing" textLength="6.3" x="117.8034" y="546.1289">1</text></g><!--link Announcement to PurchaseOrder--><g id="link_Announcement_PurchaseOrder"><path codeLine="65" d="M97.407,47.7 C124.047,47.7 157.563,47.7 184.338,47.7 " fill="none" id="Announcement-PurchaseOrder" style="stroke:#181818;stroke-width:0.9;"/><polygon fill="#000000" points="112.95,36.581,121.0906,39.226,121.0906,33.9359,112.95,36.581" style="stroke:#000000;stroke-width:0.9;"/><text fill="#000000" font-family="sans-serif" font-size="11.7" lengthAdjust="spacing" textLength="42.3" x="125.55" y="41.4255">refers to</text><text fill="#000000" font-family="sans-serif" font-size="11.7" lengthAdjust="spacing" textLength="6.3" x="104.2705" y="43.9375">1</text><text fill="#000000" font-family="sans-serif" font-size="11.7" lengthAdjust="spacing" textLength="6.3" x="171.0543" y="43.9375">1</text></g><!--link Announcement to Agent--><g id="link_Announcement_Agent"><path codeLine="66" d="M39.078,89.172 C32.436,113.976 25.65,146.502 25.65,175.95 C25.65,175.95 25.65,175.95 25.65,573.75 C25.65,598.725 32.949,626.922 38.25,644.112 " fill="none" id="Announcement-Agent" style="stroke:#181818;stroke-width:0.9;"/><polygon fill="#000000" points="30.1567,378.581,27.4995,386.7176,32.7896,386.7255,30.1567,378.581" style="stroke:#000000;stroke-width:0.9;"/><text fill="#000000" font-family="sans-serif" font-size="11.7" lengthAdjust="spacing" textLength="38.7" x="38.25" y="387.9255">creates</text><text fill="#000000" font-family="sans-serif" font-size="11.7" lengthAdjust="spacing" textLength="4.5" x="32.2931" y="109.306">*</text><text fill="#000000" font-family="sans-serif" font-size="11.7" lengthAdjust="spacing" textLength="6.3" x="29.4384" y="634.3033">1</text></g><!--link Announcement to Property--><g id="link_Announcement_Property"><path codeLine="67" d="M73.008,89.244 C85.572,113.265 100.773,142.344 109.998,159.975 " fill="none" id="Announcement-Property" style="stroke:#181818;stroke-width:0.9;"/><polygon fill="#000000" points="101.5354,128.7686,100.1067,120.3291,95.419,122.7807,101.5354,128.7686" style="stroke:#000000;stroke-width:0.9;"/><text fill="#000000" font-family="sans-serif" font-size="11.7" lengthAdjust="spacing" textLength="42.3" x="107.55" y="129.6255">refers to</text><text fill="#000000" font-family="sans-serif" font-size="11.7" lengthAdjust="spacing" textLength="6.3" x="69.4808" y="109.389">1</text><text fill="#000000" font-family="sans-serif" font-size="11.7" lengthAdjust="spacing" textLength="6.3" x="100.3193" y="150.1848">1</text></g><!--SRC=[RL9DQoCn3BtxLuXS2eKMUWsX4BfxRcZx1xosCcFgBoI7aktkVwzipqmotPs3HtvwUf8byRkBMPCE459CPgGK40gTKF7YoTgywm5VozaZ49gYu-2l2JngcpvS7E2eFQDIwiRZiK19G6uO2rXNmroAuXgTHJ2EZ4WqEs0PasLn6Q-PuMV8FfqHFzNV1JjGoaZb39_g1kJBq_tjd55e4mc9KnHAPM3GpZShwe1NKli1On5IXJhoahmaSrPPP4Ckjq8NxzvQGkQkoeKGomHDY2xOhDykFoMBbyZ3YSoe6P_98arbfMhlGph5qkuVclV6O2veszqGwfh_HrMzr12ZH1WClVHAz8ubva3EzEnsBkFNYLsKwgRMV6jWHRl0jySk7TuyRE3khlrMKR25Hv3dW8x_9qzTkURDq4gpJsaBkvcb9cZtHpZpzDLiTBXDJTL9YShz_UsYjz0MGQLMxUh9sxaUo5Ps-IYPwvhkrZ6RspcaRykspmNv7-BbOKjFhdKVPUs-0000]--></g></svg>