<?xml version="1.0" encoding="us-ascii" standalone="no"?><svg xmlns="http://www.w3.org/2000/svg" xmlns:xlink="http://www.w3.org/1999/xlink" contentStyleType="text/css" height="2638.8px" preserveAspectRatio="none" style="width:1731px;height:2638px;background:#FFFFFF;" version="1.1" viewBox="0 0 1731 2638" width="1731.6px" zoomAndPan="magnify"><defs/><g><rect fill="#FFFFFF" height="2413.2469" style="stroke:#181818;stroke-width:1.2;" width="12" x="90" y="108.7688"/><rect fill="#FFFFFF" height="202.9688" style="stroke:#181818;stroke-width:1.2;" width="12" x="1032" y="133.3969"/><rect fill="#FFFFFF" height="154.2" style="stroke:#181818;stroke-width:1.2;" width="12" x="1032" y="370.5938"/><rect fill="#FFFFFF" height="204.0281" style="stroke:#181818;stroke-width:1.2;" width="12" x="1032" y="559.0219"/><rect fill="#FFFFFF" height="84.0562" style="stroke:#181818;stroke-width:1.2;" width="12" x="1032" y="797.2781"/><rect fill="#FFFFFF" height="232.2563" style="stroke:#181818;stroke-width:1.2;" width="12" x="1032" y="915.5625"/><rect fill="#FFFFFF" height="154.2" style="stroke:#181818;stroke-width:1.2;" width="12" x="1032" y="1182.0469"/><rect fill="#FFFFFF" height="324" style="stroke:#181818;stroke-width:1.2;" width="12" x="1032" y="1370.475"/><rect fill="#FFFFFF" height="154.2" style="stroke:#181818;stroke-width:1.2;" width="12" x="1032" y="1728.7031"/><rect fill="#FFFFFF" height="204.0281" style="stroke:#181818;stroke-width:1.2;" width="12" x="1032" y="1917.1313"/><rect fill="#FFFFFF" height="119.9719" style="stroke:#181818;stroke-width:1.2;" width="12" x="1032" y="2163.7875"/><rect fill="#FFFFFF" height="204.0281" style="stroke:#181818;stroke-width:1.2;" width="12" x="1032" y="2317.9875"/><rect fill="#FFFFFF" height="85.7437" style="stroke:#181818;stroke-width:1.2;" width="12" x="1585.2" y="216.3937"/><rect fill="#FFFFFF" height="85.7437" style="stroke:#181818;stroke-width:1.2;" width="12" x="1585.2" y="404.8219"/><rect fill="#FFFFFF" height="85.7437" style="stroke:#181818;stroke-width:1.2;" width="12" x="1585.2" y="643.0781"/><rect fill="#FFFFFF" height="85.7437" style="stroke:#181818;stroke-width:1.2;" width="12" x="1585.2" y="1027.8469"/><rect fill="#FFFFFF" height="85.7437" style="stroke:#181818;stroke-width:1.2;" width="12" x="1585.2" y="1216.275"/><rect fill="#FFFFFF" height="85.7437" style="stroke:#181818;stroke-width:1.2;" width="12" x="1585.2" y="1454.5313"/><rect fill="#FFFFFF" height="85.7437" style="stroke:#181818;stroke-width:1.2;" width="12" x="1585.2" y="1574.5031"/><rect fill="#FFFFFF" height="85.7437" style="stroke:#181818;stroke-width:1.2;" width="12" x="1585.2" y="1762.9312"/><rect fill="#FFFFFF" height="85.7437" style="stroke:#181818;stroke-width:1.2;" width="12" x="1585.2" y="2001.1875"/><rect fill="#FFFFFF" height="85.7437" style="stroke:#181818;stroke-width:1.2;" width="12" x="1585.2" y="2163.7875"/><rect fill="#FFFFFF" height="85.7437" style="stroke:#181818;stroke-width:1.2;" width="12" x="1585.2" y="2402.0438"/><rect fill="none" height="1147.3687" style="stroke:#000000;stroke-width:1.7999999999999998;" width="1684.8" x="12" y="983.3906"/><line style="stroke:#181818;stroke-width:0.6;stroke-dasharray:5.0,5.0;" x1="96" x2="96" y1="96.7688" y2="2543.6156"/><line style="stroke:#181818;stroke-width:0.6;stroke-dasharray:5.0,5.0;" x1="1037.4" x2="1037.4" y1="96.7688" y2="2543.6156"/><line style="stroke:#181818;stroke-width:0.6;stroke-dasharray:5.0,5.0;" x1="1591.2" x2="1591.2" y1="179.3813" y2="2543.6156"/><text fill="#000000" font-family="sans-serif" font-size="16.8" lengthAdjust="spacing" textLength="136.8" x="24" y="93.2086">Unregistered User</text><ellipse cx="96" cy="16.2" fill="#E3E3E3" rx="9.6" ry="9.6" style="stroke:#181818;stroke-width:0.6;"/><path d="M96,25.8 L96,58.2 M80.4,35.4 L111.6,35.4 M96,58.2 L80.4,76.2 M96,58.2 L111.6,76.2 " fill="none" style="stroke:#181818;stroke-width:0.6;"/><text fill="#000000" font-family="sans-serif" font-size="16.8" lengthAdjust="spacing" textLength="136.8" x="24" y="2557.6242">Unregistered User</text><ellipse cx="96" cy="2571.3844" fill="#E3E3E3" rx="9.6" ry="9.6" style="stroke:#181818;stroke-width:0.6;"/><path d="M96,2580.9844 L96,2613.3844 M80.4,2590.5844 L111.6,2590.5844 M96,2613.3844 L80.4,2631.3844 M96,2613.3844 L111.6,2631.3844 " fill="none" style="stroke:#181818;stroke-width:0.6;"/><rect fill="#E3E3E3" height="35.5688" rx="3" ry="3" style="stroke:#181818;stroke-width:0.6;" width="154.8" x="960.6" y="60"/><text fill="#000000" font-family="sans-serif" font-size="16.8" lengthAdjust="spacing" textLength="138" x="969" y="83.6086">:GetPropertyListUI</text><rect fill="#E3E3E3" height="35.5688" rx="3" ry="3" style="stroke:#181818;stroke-width:0.6;" width="154.8" x="960.6" y="2542.4156"/><text fill="#000000" font-family="sans-serif" font-size="16.8" lengthAdjust="spacing" textLength="138" x="969" y="2566.0242">:GetPropertyListUI</text><rect fill="#E3E3E3" height="35.5688" rx="3" ry="3" style="stroke:#181818;stroke-width:0.6;" width="187.2" x="1497.6" y="2542.4156"/><text fill="#000000" font-family="sans-serif" font-size="16.8" lengthAdjust="spacing" textLength="170.4" x="1506" y="2566.0242">:PropertyListController</text><rect fill="#FFFFFF" height="2413.2469" style="stroke:#181818;stroke-width:1.2;" width="12" x="90" y="108.7688"/><rect fill="#FFFFFF" height="202.9688" style="stroke:#181818;stroke-width:1.2;" width="12" x="1032" y="133.3969"/><rect fill="#FFFFFF" height="154.2" style="stroke:#181818;stroke-width:1.2;" width="12" x="1032" y="370.5938"/><rect fill="#FFFFFF" height="204.0281" style="stroke:#181818;stroke-width:1.2;" width="12" x="1032" y="559.0219"/><rect fill="#FFFFFF" height="84.0562" style="stroke:#181818;stroke-width:1.2;" width="12" x="1032" y="797.2781"/><rect fill="#FFFFFF" height="232.2563" style="stroke:#181818;stroke-width:1.2;" width="12" x="1032" y="915.5625"/><rect fill="#FFFFFF" height="154.2" style="stroke:#181818;stroke-width:1.2;" width="12" x="1032" y="1182.0469"/><rect fill="#FFFFFF" height="324" style="stroke:#181818;stroke-width:1.2;" width="12" x="1032" y="1370.475"/><rect fill="#FFFFFF" height="154.2" style="stroke:#181818;stroke-width:1.2;" width="12" x="1032" y="1728.7031"/><rect fill="#FFFFFF" height="204.0281" style="stroke:#181818;stroke-width:1.2;" width="12" x="1032" y="1917.1313"/><rect fill="#FFFFFF" height="119.9719" style="stroke:#181818;stroke-width:1.2;" width="12" x="1032" y="2163.7875"/><rect fill="#FFFFFF" height="204.0281" style="stroke:#181818;stroke-width:1.2;" width="12" x="1032" y="2317.9875"/><rect fill="#FFFFFF" height="85.7437" style="stroke:#181818;stroke-width:1.2;" width="12" x="1585.2" y="216.3937"/><rect fill="#FFFFFF" height="85.7437" style="stroke:#181818;stroke-width:1.2;" width="12" x="1585.2" y="404.8219"/><rect fill="#FFFFFF" height="85.7437" style="stroke:#181818;stroke-width:1.2;" width="12" x="1585.2" y="643.0781"/><rect fill="#FFFFFF" height="85.7437" style="stroke:#181818;stroke-width:1.2;" width="12" x="1585.2" y="1027.8469"/><rect fill="#FFFFFF" height="85.7437" style="stroke:#181818;stroke-width:1.2;" width="12" x="1585.2" y="1216.275"/><rect fill="#FFFFFF" height="85.7437" style="stroke:#181818;stroke-width:1.2;" width="12" x="1585.2" y="1454.5313"/><rect fill="#FFFFFF" height="85.7437" style="stroke:#181818;stroke-width:1.2;" width="12" x="1585.2" y="1574.5031"/><rect fill="#FFFFFF" height="85.7437" style="stroke:#181818;stroke-width:1.2;" width="12" x="1585.2" y="1762.9312"/><rect fill="#FFFFFF" height="85.7437" style="stroke:#181818;stroke-width:1.2;" width="12" x="1585.2" y="2001.1875"/><rect fill="#FFFFFF" height="85.7437" style="stroke:#181818;stroke-width:1.2;" width="12" x="1585.2" y="2163.7875"/><rect fill="#FFFFFF" height="85.7437" style="stroke:#181818;stroke-width:1.2;" width="12" x="1585.2" y="2402.0438"/><polygon fill="#181818" points="1017.6,128.5969,1029.6,133.3969,1017.6,138.1969,1022.4,133.3969" style="stroke:#181818;stroke-width:1.2;"/><line style="stroke:#181818;stroke-width:1.2;" x1="102" x2="1024.8" y1="133.3969" y2="133.3969"/><text fill="#000000" font-family="sans-serif" font-size="15.6" font-weight="bold" lengthAdjust="spacing" textLength="8.4" x="110.4" y="127.691">1</text><text fill="#000000" font-family="sans-serif" font-size="15.6" lengthAdjust="spacing" textLength="196.8" x="123.6" y="127.691">asks to see list of properties</text><polygon fill="#181818" points="1483.2,162.825,1495.2,167.625,1483.2,172.425,1488,167.625" style="stroke:#181818;stroke-width:1.2;"/><line style="stroke:#181818;stroke-width:1.2;" x1="1044" x2="1490.4" y1="167.625" y2="167.625"/><text fill="#000000" font-family="sans-serif" font-size="15.6" font-weight="bold" lengthAdjust="spacing" textLength="8.4" x="1052.4" y="161.9191">2</text><text fill="#000000" font-family="sans-serif" font-size="15.6" lengthAdjust="spacing" textLength="232.8" x="1065.6" y="161.9191">CreateGetPropertiesListController</text><rect fill="#E3E3E3" height="35.5688" rx="3" ry="3" style="stroke:#181818;stroke-width:0.6;" width="187.2" x="1497.6" y="142.9969"/><text fill="#000000" font-family="sans-serif" font-size="16.8" lengthAdjust="spacing" textLength="170.4" x="1506" y="166.6055">:PropertyListController</text><polygon fill="#181818" points="1570.8,211.5938,1582.8,216.3937,1570.8,221.1938,1575.6,216.3937" style="stroke:#181818;stroke-width:1.2;"/><line style="stroke:#181818;stroke-width:1.2;" x1="1044" x2="1578" y1="216.3937" y2="216.3937"/><text fill="#000000" font-family="sans-serif" font-size="15.6" font-weight="bold" lengthAdjust="spacing" textLength="8.4" x="1052.4" y="210.6879">3</text><text fill="#000000" font-family="sans-serif" font-size="15.6" lengthAdjust="spacing" textLength="238.8" x="1065.6" y="210.6879">getPropertyListByAnnouncement()</text><rect fill="none" height="45.5156" style="stroke:#000000;stroke-width:1.7999999999999998;" width="230.4" x="1494" y="225.9938"/><path d="M1494,225.9938 L1568.4,225.9938 L1568.4,233.1938 L1556.4,245.1938 L1494,245.1938 L1494,225.9938 " fill="#EEEEEE" style="stroke:#000000;stroke-width:2.4;"/><text fill="#000000" font-family="sans-serif" font-size="15.6" font-weight="bold" lengthAdjust="spacing" textLength="20.4" x="1509.6" y="242.516">ref</text><text fill="#000000" font-family="sans-serif" font-size="14.4" lengthAdjust="spacing" textLength="220.8" x="1498.8" y="263.0297">get property list by announcement</text><polygon fill="#181818" points="1057.2,297.3375,1045.2,302.1375,1057.2,306.9375,1052.4,302.1375" style="stroke:#181818;stroke-width:1.2;"/><line style="stroke:#181818;stroke-width:1.2;stroke-dasharray:2.0,2.0;" x1="1050" x2="1590" y1="302.1375" y2="302.1375"/><text fill="#000000" font-family="sans-serif" font-size="15.6" font-weight="bold" lengthAdjust="spacing" textLength="8.4" x="1064.4" y="296.4316">4</text><text fill="#000000" font-family="sans-serif" font-size="15.6" lengthAdjust="spacing" textLength="205.2" x="1077.6" y="296.4316">propertyListByAnnouncement</text><polygon fill="#181818" points="115.2,331.5656,103.2,336.3656,115.2,341.1656,110.4,336.3656" style="stroke:#181818;stroke-width:1.2;"/><line style="stroke:#181818;stroke-width:1.2;stroke-dasharray:2.0,2.0;" x1="108" x2="1036.8" y1="336.3656" y2="336.3656"/><text fill="#000000" font-family="sans-serif" font-size="15.6" font-weight="bold" lengthAdjust="spacing" textLength="8.4" x="122.4" y="330.6598">5</text><text fill="#000000" font-family="sans-serif" font-size="15.6" lengthAdjust="spacing" textLength="334.8" x="135.6" y="330.6598">show list of properties available and asks to filter</text><polygon fill="#181818" points="1017.6,365.7938,1029.6,370.5938,1017.6,375.3938,1022.4,370.5938" style="stroke:#181818;stroke-width:1.2;"/><line style="stroke:#181818;stroke-width:1.2;" x1="102" x2="1024.8" y1="370.5938" y2="370.5938"/><text fill="#000000" font-family="sans-serif" font-size="15.6" font-weight="bold" lengthAdjust="spacing" textLength="8.4" x="110.4" y="364.8879">6</text><text fill="#000000" font-family="sans-serif" font-size="15.6" lengthAdjust="spacing" textLength="187.2" x="123.6" y="364.8879">confirmation to filter the list</text><polygon fill="#181818" points="1570.8,400.0219,1582.8,404.8219,1570.8,409.6219,1575.6,404.8219" style="stroke:#181818;stroke-width:1.2;"/><line style="stroke:#181818;stroke-width:1.2;" x1="1044" x2="1578" y1="404.8219" y2="404.8219"/><text fill="#000000" font-family="sans-serif" font-size="15.6" font-weight="bold" lengthAdjust="spacing" textLength="8.4" x="1052.4" y="399.116">7</text><text fill="#000000" font-family="sans-serif" font-size="15.6" lengthAdjust="spacing" textLength="122.4" x="1065.6" y="399.116">getRequestType()</text><rect fill="none" height="45.5156" style="stroke:#000000;stroke-width:1.7999999999999998;" width="194.4" x="1494" y="414.4219"/><path d="M1494,414.4219 L1568.4,414.4219 L1568.4,421.6219 L1556.4,433.6219 L1494,433.6219 L1494,414.4219 " fill="#EEEEEE" style="stroke:#000000;stroke-width:2.4;"/><text fill="#000000" font-family="sans-serif" font-size="15.6" font-weight="bold" lengthAdjust="spacing" textLength="20.4" x="1509.6" y="430.9441">ref</text><text fill="#000000" font-family="sans-serif" font-size="14.4" lengthAdjust="spacing" textLength="144" x="1519.2" y="451.4578">get business type List</text><polygon fill="#181818" points="1057.2,485.7656,1045.2,490.5656,1057.2,495.3656,1052.4,490.5656" style="stroke:#181818;stroke-width:1.2;"/><line style="stroke:#181818;stroke-width:1.2;stroke-dasharray:2.0,2.0;" x1="1050" x2="1590" y1="490.5656" y2="490.5656"/><text fill="#000000" font-family="sans-serif" font-size="15.6" font-weight="bold" lengthAdjust="spacing" textLength="8.4" x="1064.4" y="484.8598">4</text><text fill="#000000" font-family="sans-serif" font-size="15.6" lengthAdjust="spacing" textLength="110.4" x="1077.6" y="484.8598">requestTypeList</text><polygon fill="#181818" points="115.2,519.9938,103.2,524.7937,115.2,529.5938,110.4,524.7937" style="stroke:#181818;stroke-width:1.2;"/><line style="stroke:#181818;stroke-width:1.2;stroke-dasharray:2.0,2.0;" x1="108" x2="1036.8" y1="524.7937" y2="524.7937"/><text fill="#000000" font-family="sans-serif" font-size="15.6" font-weight="bold" lengthAdjust="spacing" textLength="8.4" x="122.4" y="519.0879">5</text><text fill="#000000" font-family="sans-serif" font-size="15.6" lengthAdjust="spacing" textLength="376.8" x="135.6" y="519.0879">show filters of type of business and asks to select one</text><polygon fill="#181818" points="1017.6,554.2219,1029.6,559.0219,1017.6,563.8219,1022.4,559.0219" style="stroke:#181818;stroke-width:1.2;"/><line style="stroke:#181818;stroke-width:1.2;" x1="102" x2="1024.8" y1="559.0219" y2="559.0219"/><text fill="#000000" font-family="sans-serif" font-size="15.6" font-weight="bold" lengthAdjust="spacing" textLength="8.4" x="110.4" y="553.316">6</text><text fill="#000000" font-family="sans-serif" font-size="15.6" lengthAdjust="spacing" textLength="110.4" x="123.6" y="553.316">select an option</text><line style="stroke:#181818;stroke-width:1.2;stroke-dasharray:2.0,2.0;" x1="1044" x2="1094.4" y1="593.25" y2="593.25"/><line style="stroke:#181818;stroke-width:1.2;stroke-dasharray:2.0,2.0;" x1="1094.4" x2="1094.4" y1="593.25" y2="608.85"/><line style="stroke:#181818;stroke-width:1.2;stroke-dasharray:2.0,2.0;" x1="1045.2" x2="1094.4" y1="608.85" y2="608.85"/><polygon fill="#181818" points="1057.2,604.05,1045.2,608.85,1057.2,613.65,1052.4,608.85" style="stroke:#181818;stroke-width:1.2;"/><text fill="#000000" font-family="sans-serif" font-size="15.6" font-weight="bold" lengthAdjust="spacing" textLength="8.4" x="1052.4" y="587.5441">7</text><text fill="#000000" font-family="sans-serif" font-size="15.6" lengthAdjust="spacing" textLength="120" x="1065.6" y="587.5441">add(requestType)</text><polygon fill="#181818" points="1570.8,638.2781,1582.8,643.0781,1570.8,647.8781,1575.6,643.0781" style="stroke:#181818;stroke-width:1.2;"/><line style="stroke:#181818;stroke-width:1.2;" x1="1044" x2="1578" y1="643.0781" y2="643.0781"/><text fill="#000000" font-family="sans-serif" font-size="15.6" font-weight="bold" lengthAdjust="spacing" textLength="8.4" x="1052.4" y="637.3723">8</text><text fill="#000000" font-family="sans-serif" font-size="15.6" lengthAdjust="spacing" textLength="123.6" x="1065.6" y="637.3723">getPropertyType()</text><rect fill="none" height="45.5156" style="stroke:#000000;stroke-width:1.7999999999999998;" width="194.4" x="1494" y="652.6781"/><path d="M1494,652.6781 L1568.4,652.6781 L1568.4,659.8781 L1556.4,671.8781 L1494,671.8781 L1494,652.6781 " fill="#EEEEEE" style="stroke:#000000;stroke-width:2.4;"/><text fill="#000000" font-family="sans-serif" font-size="15.6" font-weight="bold" lengthAdjust="spacing" textLength="20.4" x="1509.6" y="669.2004">ref</text><text fill="#000000" font-family="sans-serif" font-size="14.4" lengthAdjust="spacing" textLength="142.8" x="1519.8" y="689.7141">get property types List</text><polygon fill="#181818" points="1057.2,724.0219,1045.2,728.8219,1057.2,733.6219,1052.4,728.8219" style="stroke:#181818;stroke-width:1.2;"/><line style="stroke:#181818;stroke-width:1.2;stroke-dasharray:2.0,2.0;" x1="1050" x2="1590" y1="728.8219" y2="728.8219"/><text fill="#000000" font-family="sans-serif" font-size="15.6" font-weight="bold" lengthAdjust="spacing" textLength="8.4" x="1064.4" y="723.116">9</text><text fill="#000000" font-family="sans-serif" font-size="15.6" lengthAdjust="spacing" textLength="117.6" x="1077.6" y="723.116">PropertyTypeList</text><polygon fill="#181818" points="115.2,758.25,103.2,763.05,115.2,767.85,110.4,763.05" style="stroke:#181818;stroke-width:1.2;"/><line style="stroke:#181818;stroke-width:1.2;stroke-dasharray:2.0,2.0;" x1="108" x2="1036.8" y1="763.05" y2="763.05"/><text fill="#000000" font-family="sans-serif" font-size="15.6" font-weight="bold" lengthAdjust="spacing" textLength="16.8" x="122.4" y="757.3441">10</text><text fill="#000000" font-family="sans-serif" font-size="15.6" lengthAdjust="spacing" textLength="370.8" x="144" y="757.3441">show filters of type of property and asks to select one</text><polygon fill="#181818" points="1017.6,792.4781,1029.6,797.2781,1017.6,802.0781,1022.4,797.2781" style="stroke:#181818;stroke-width:1.2;"/><line style="stroke:#181818;stroke-width:1.2;" x1="102" x2="1024.8" y1="797.2781" y2="797.2781"/><text fill="#000000" font-family="sans-serif" font-size="15.6" font-weight="bold" lengthAdjust="spacing" textLength="16.8" x="110.4" y="791.5723">11</text><text fill="#000000" font-family="sans-serif" font-size="15.6" lengthAdjust="spacing" textLength="110.4" x="132" y="791.5723">select an option</text><line style="stroke:#181818;stroke-width:1.2;stroke-dasharray:2.0,2.0;" x1="1044" x2="1094.4" y1="831.5063" y2="831.5063"/><line style="stroke:#181818;stroke-width:1.2;stroke-dasharray:2.0,2.0;" x1="1094.4" x2="1094.4" y1="831.5063" y2="847.1062"/><line style="stroke:#181818;stroke-width:1.2;stroke-dasharray:2.0,2.0;" x1="1045.2" x2="1094.4" y1="847.1062" y2="847.1062"/><polygon fill="#181818" points="1057.2,842.3063,1045.2,847.1062,1057.2,851.9063,1052.4,847.1062" style="stroke:#181818;stroke-width:1.2;"/><text fill="#000000" font-family="sans-serif" font-size="15.6" font-weight="bold" lengthAdjust="spacing" textLength="16.8" x="1052.4" y="825.8004">12</text><text fill="#000000" font-family="sans-serif" font-size="15.6" lengthAdjust="spacing" textLength="129.6" x="1074" y="825.8004">add(propertyType))</text><polygon fill="#181818" points="115.2,876.5344,103.2,881.3344,115.2,886.1344,110.4,881.3344" style="stroke:#181818;stroke-width:1.2;"/><line style="stroke:#181818;stroke-width:1.2;stroke-dasharray:2.0,2.0;" x1="108" x2="1036.8" y1="881.3344" y2="881.3344"/><text fill="#000000" font-family="sans-serif" font-size="15.6" font-weight="bold" lengthAdjust="spacing" textLength="16.8" x="122.4" y="875.6285">13</text><text fill="#000000" font-family="sans-serif" font-size="15.6" lengthAdjust="spacing" textLength="198" x="144" y="875.6285">request number of bedrooms</text><polygon fill="#181818" points="1017.6,910.7625,1029.6,915.5625,1017.6,920.3625,1022.4,915.5625" style="stroke:#181818;stroke-width:1.2;"/><line style="stroke:#181818;stroke-width:1.2;" x1="102" x2="1024.8" y1="915.5625" y2="915.5625"/><text fill="#000000" font-family="sans-serif" font-size="15.6" font-weight="bold" lengthAdjust="spacing" textLength="16.8" x="110.4" y="909.8566">14</text><text fill="#000000" font-family="sans-serif" font-size="15.6" lengthAdjust="spacing" textLength="188.4" x="132" y="909.8566">select number of bedrooms</text><line style="stroke:#181818;stroke-width:1.2;stroke-dasharray:2.0,2.0;" x1="1044" x2="1094.4" y1="949.7906" y2="949.7906"/><line style="stroke:#181818;stroke-width:1.2;stroke-dasharray:2.0,2.0;" x1="1094.4" x2="1094.4" y1="949.7906" y2="965.3906"/><line style="stroke:#181818;stroke-width:1.2;stroke-dasharray:2.0,2.0;" x1="1045.2" x2="1094.4" y1="965.3906" y2="965.3906"/><polygon fill="#181818" points="1057.2,960.5906,1045.2,965.3906,1057.2,970.1906,1052.4,965.3906" style="stroke:#181818;stroke-width:1.2;"/><text fill="#000000" font-family="sans-serif" font-size="15.6" font-weight="bold" lengthAdjust="spacing" textLength="16.8" x="1052.4" y="944.0848">15</text><text fill="#000000" font-family="sans-serif" font-size="15.6" lengthAdjust="spacing" textLength="114" x="1074" y="944.0848">add(bedroomNo)</text><path d="M12,983.3906 L90,983.3906 L90,991.2188 L78,1003.2188 L12,1003.2188 L12,983.3906 " fill="#EEEEEE" style="stroke:#000000;stroke-width:1.7999999999999998;"/><rect fill="none" height="1147.3687" style="stroke:#000000;stroke-width:1.7999999999999998;" width="1684.8" x="12" y="983.3906"/><text fill="#000000" font-family="sans-serif" font-size="15.6" font-weight="bold" lengthAdjust="spacing" textLength="24" x="30" y="998.7129">opt</text><text fill="#000000" font-family="sans-serif" font-size="13.2" font-weight="bold" lengthAdjust="spacing" textLength="416.4" x="108" y="997.7402">[Type of business, property and number of bedrooms are null]</text><polygon fill="#181818" points="1570.8,1023.0469,1582.8,1027.8469,1570.8,1032.6469,1575.6,1027.8469" style="stroke:#181818;stroke-width:1.2;"/><line style="stroke:#181818;stroke-width:1.2;" x1="1044" x2="1578" y1="1027.8469" y2="1027.8469"/><text fill="#000000" font-family="sans-serif" font-size="15.6" font-weight="bold" lengthAdjust="spacing" textLength="16.8" x="1052.4" y="1022.141">16</text><text fill="#000000" font-family="sans-serif" font-size="15.6" lengthAdjust="spacing" textLength="162" x="1074" y="1022.141">getAllPropertiesOnSale</text><rect fill="none" height="45.5156" style="stroke:#000000;stroke-width:1.7999999999999998;" width="194.4" x="1494" y="1037.4469"/><path d="M1494,1037.4469 L1568.4,1037.4469 L1568.4,1044.6469 L1556.4,1056.6469 L1494,1056.6469 L1494,1037.4469 " fill="#EEEEEE" style="stroke:#000000;stroke-width:2.4;"/><text fill="#000000" font-family="sans-serif" font-size="15.6" font-weight="bold" lengthAdjust="spacing" textLength="20.4" x="1509.6" y="1053.9691">ref</text><text fill="#000000" font-family="sans-serif" font-size="14.4" lengthAdjust="spacing" textLength="141.6" x="1520.4" y="1074.4828">get PropertiesOnSale</text><polygon fill="#181818" points="1057.2,1108.7906,1045.2,1113.5906,1057.2,1118.3906,1052.4,1113.5906" style="stroke:#181818;stroke-width:1.2;"/><line style="stroke:#181818;stroke-width:1.2;stroke-dasharray:2.0,2.0;" x1="1050" x2="1590" y1="1113.5906" y2="1113.5906"/><text fill="#000000" font-family="sans-serif" font-size="15.6" font-weight="bold" lengthAdjust="spacing" textLength="16.8" x="1064.4" y="1107.8848">17</text><text fill="#000000" font-family="sans-serif" font-size="15.6" lengthAdjust="spacing" textLength="122.4" x="1086" y="1107.8848">PropertiesOnSale</text><polygon fill="#181818" points="115.2,1143.0188,103.2,1147.8188,115.2,1152.6187,110.4,1147.8188" style="stroke:#181818;stroke-width:1.2;"/><line style="stroke:#181818;stroke-width:1.2;stroke-dasharray:2.0,2.0;" x1="108" x2="1036.8" y1="1147.8188" y2="1147.8188"/><text fill="#000000" font-family="sans-serif" font-size="15.6" font-weight="bold" lengthAdjust="spacing" textLength="16.8" x="122.4" y="1142.1129">18</text><text fill="#000000" font-family="sans-serif" font-size="15.6" lengthAdjust="spacing" textLength="529.2" x="144" y="1142.1129">show list of all properties that are on sale and asks to filter by property filters</text><polygon fill="#181818" points="1017.6,1177.2469,1029.6,1182.0469,1017.6,1186.8469,1022.4,1182.0469" style="stroke:#181818;stroke-width:1.2;"/><line style="stroke:#181818;stroke-width:1.2;" x1="102" x2="1024.8" y1="1182.0469" y2="1182.0469"/><text fill="#000000" font-family="sans-serif" font-size="15.6" font-weight="bold" lengthAdjust="spacing" textLength="16.8" x="110.4" y="1176.341">19</text><text fill="#000000" font-family="sans-serif" font-size="15.6" lengthAdjust="spacing" textLength="50.4" x="132" y="1176.341">confirm</text><polygon fill="#181818" points="1570.8,1211.475,1582.8,1216.275,1570.8,1221.075,1575.6,1216.275" style="stroke:#181818;stroke-width:1.2;"/><line style="stroke:#181818;stroke-width:1.2;" x1="1044" x2="1578" y1="1216.275" y2="1216.275"/><text fill="#000000" font-family="sans-serif" font-size="15.6" font-weight="bold" lengthAdjust="spacing" textLength="16.8" x="1052.4" y="1210.5691">20</text><text fill="#000000" font-family="sans-serif" font-size="15.6" lengthAdjust="spacing" textLength="138" x="1074" y="1210.5691">getPropertyFilters ()</text><rect fill="none" height="45.5156" style="stroke:#000000;stroke-width:1.7999999999999998;" width="194.4" x="1494" y="1225.875"/><path d="M1494,1225.875 L1568.4,1225.875 L1568.4,1233.075 L1556.4,1245.075 L1494,1245.075 L1494,1225.875 " fill="#EEEEEE" style="stroke:#000000;stroke-width:2.4;"/><text fill="#000000" font-family="sans-serif" font-size="15.6" font-weight="bold" lengthAdjust="spacing" textLength="20.4" x="1509.6" y="1242.3973">ref</text><text fill="#000000" font-family="sans-serif" font-size="14.4" lengthAdjust="spacing" textLength="157.2" x="1512.6" y="1262.9109">get ListOfPropertyFilters</text><polygon fill="#181818" points="1057.2,1297.2188,1045.2,1302.0188,1057.2,1306.8188,1052.4,1302.0188" style="stroke:#181818;stroke-width:1.2;"/><line style="stroke:#181818;stroke-width:1.2;stroke-dasharray:2.0,2.0;" x1="1050" x2="1590" y1="1302.0188" y2="1302.0188"/><text fill="#000000" font-family="sans-serif" font-size="15.6" font-weight="bold" lengthAdjust="spacing" textLength="16.8" x="1064.4" y="1296.3129">21</text><text fill="#000000" font-family="sans-serif" font-size="15.6" lengthAdjust="spacing" textLength="142.8" x="1086" y="1296.3129">ListOfPropertyFilters</text><polygon fill="#181818" points="115.2,1331.4469,103.2,1336.2469,115.2,1341.0469,110.4,1336.2469" style="stroke:#181818;stroke-width:1.2;"/><line style="stroke:#181818;stroke-width:1.2;stroke-dasharray:2.0,2.0;" x1="108" x2="1036.8" y1="1336.2469" y2="1336.2469"/><text fill="#000000" font-family="sans-serif" font-size="15.6" font-weight="bold" lengthAdjust="spacing" textLength="16.8" x="122.4" y="1330.541">22</text><text fill="#000000" font-family="sans-serif" font-size="15.6" lengthAdjust="spacing" textLength="181.2" x="144" y="1330.541">show list of property filters</text><polygon fill="#181818" points="1017.6,1365.675,1029.6,1370.475,1017.6,1375.275,1022.4,1370.475" style="stroke:#181818;stroke-width:1.2;"/><line style="stroke:#181818;stroke-width:1.2;" x1="102" x2="1024.8" y1="1370.475" y2="1370.475"/><text fill="#000000" font-family="sans-serif" font-size="15.6" font-weight="bold" lengthAdjust="spacing" textLength="16.8" x="110.4" y="1364.7691">23</text><text fill="#000000" font-family="sans-serif" font-size="15.6" lengthAdjust="spacing" textLength="88.8" x="132" y="1364.7691">select a filter</text><line style="stroke:#181818;stroke-width:1.2;stroke-dasharray:2.0,2.0;" x1="1044" x2="1094.4" y1="1404.7031" y2="1404.7031"/><line style="stroke:#181818;stroke-width:1.2;stroke-dasharray:2.0,2.0;" x1="1094.4" x2="1094.4" y1="1404.7031" y2="1420.3031"/><line style="stroke:#181818;stroke-width:1.2;stroke-dasharray:2.0,2.0;" x1="1045.2" x2="1094.4" y1="1420.3031" y2="1420.3031"/><polygon fill="#181818" points="1057.2,1415.5031,1045.2,1420.3031,1057.2,1425.1031,1052.4,1420.3031" style="stroke:#181818;stroke-width:1.2;"/><text fill="#000000" font-family="sans-serif" font-size="15.6" font-weight="bold" lengthAdjust="spacing" textLength="16.8" x="1052.4" y="1398.9973">24</text><text fill="#000000" font-family="sans-serif" font-size="15.6" lengthAdjust="spacing" textLength="128.4" x="1074" y="1398.9973">add(choosenFilter)</text><polygon fill="#181818" points="1570.8,1449.7313,1582.8,1454.5313,1570.8,1459.3313,1575.6,1454.5313" style="stroke:#181818;stroke-width:1.2;"/><line style="stroke:#181818;stroke-width:1.2;stroke-dasharray:2.0,2.0;" x1="1044" x2="1578" y1="1454.5313" y2="1454.5313"/><text fill="#000000" font-family="sans-serif" font-size="15.6" font-weight="bold" lengthAdjust="spacing" textLength="16.8" x="1052.4" y="1448.8254">25</text><text fill="#000000" font-family="sans-serif" font-size="15.6" lengthAdjust="spacing" textLength="496.8" x="1074" y="1448.8254">getPropertyList (requestType, propertyType, bedroomNo, choosenFilter)</text><rect fill="none" height="45.5156" style="stroke:#000000;stroke-width:1.7999999999999998;" width="194.4" x="1494" y="1464.1313"/><path d="M1494,1464.1313 L1568.4,1464.1313 L1568.4,1471.3313 L1556.4,1483.3313 L1494,1483.3313 L1494,1464.1313 " fill="#EEEEEE" style="stroke:#000000;stroke-width:2.4;"/><text fill="#000000" font-family="sans-serif" font-size="15.6" font-weight="bold" lengthAdjust="spacing" textLength="20.4" x="1509.6" y="1480.6535">ref</text><text fill="#000000" font-family="sans-serif" font-size="14.4" lengthAdjust="spacing" textLength="130.8" x="1525.8" y="1501.1672">get ListOfProperties</text><polygon fill="#181818" points="1057.2,1535.475,1045.2,1540.275,1057.2,1545.075,1052.4,1540.275" style="stroke:#181818;stroke-width:1.2;"/><line style="stroke:#181818;stroke-width:1.2;" x1="1050" x2="1590" y1="1540.275" y2="1540.275"/><text fill="#000000" font-family="sans-serif" font-size="15.6" font-weight="bold" lengthAdjust="spacing" textLength="16.8" x="1064.4" y="1534.5691">26</text><text fill="#000000" font-family="sans-serif" font-size="15.6" lengthAdjust="spacing" textLength="111.6" x="1086" y="1534.5691">ListOfProperties</text><polygon fill="#181818" points="1570.8,1569.7031,1582.8,1574.5031,1570.8,1579.3031,1575.6,1574.5031" style="stroke:#181818;stroke-width:1.2;"/><line style="stroke:#181818;stroke-width:1.2;" x1="1044" x2="1578" y1="1574.5031" y2="1574.5031"/><text fill="#000000" font-family="sans-serif" font-size="15.6" font-weight="bold" lengthAdjust="spacing" textLength="16.8" x="1052.4" y="1568.7973">27</text><text fill="#000000" font-family="sans-serif" font-size="15.6" lengthAdjust="spacing" textLength="172.8" x="1074" y="1568.7973">getAllPropertiesOnRent()</text><rect fill="none" height="45.5156" style="stroke:#000000;stroke-width:1.7999999999999998;" width="194.4" x="1494" y="1584.1031"/><path d="M1494,1584.1031 L1568.4,1584.1031 L1568.4,1591.3031 L1556.4,1603.3031 L1494,1603.3031 L1494,1584.1031 " fill="#EEEEEE" style="stroke:#000000;stroke-width:2.4;"/><text fill="#000000" font-family="sans-serif" font-size="15.6" font-weight="bold" lengthAdjust="spacing" textLength="20.4" x="1509.6" y="1600.6254">ref</text><text fill="#000000" font-family="sans-serif" font-size="14.4" lengthAdjust="spacing" textLength="142.8" x="1519.8" y="1621.1391">get PropertiesOnRent</text><polygon fill="#181818" points="1057.2,1655.4469,1045.2,1660.2469,1057.2,1665.0469,1052.4,1660.2469" style="stroke:#181818;stroke-width:1.2;"/><line style="stroke:#181818;stroke-width:1.2;stroke-dasharray:2.0,2.0;" x1="1050" x2="1590" y1="1660.2469" y2="1660.2469"/><text fill="#000000" font-family="sans-serif" font-size="15.6" font-weight="bold" lengthAdjust="spacing" textLength="16.8" x="1064.4" y="1654.541">28</text><text fill="#000000" font-family="sans-serif" font-size="15.6" lengthAdjust="spacing" textLength="123.6" x="1086" y="1654.541">PropertiesOnRent</text><polygon fill="#181818" points="115.2,1689.675,103.2,1694.475,115.2,1699.275,110.4,1694.475" style="stroke:#181818;stroke-width:1.2;"/><line style="stroke:#181818;stroke-width:1.2;stroke-dasharray:2.0,2.0;" x1="108" x2="1036.8" y1="1694.475" y2="1694.475"/><text fill="#000000" font-family="sans-serif" font-size="15.6" font-weight="bold" lengthAdjust="spacing" textLength="16.8" x="122.4" y="1688.7691">29</text><text fill="#000000" font-family="sans-serif" font-size="15.6" lengthAdjust="spacing" textLength="879.6" x="144" y="1688.7691">shows list of properties according to the filters and show list of all properties that are on rent and asks to filter by property filters</text><polygon fill="#181818" points="1017.6,1723.9031,1029.6,1728.7031,1017.6,1733.5031,1022.4,1728.7031" style="stroke:#181818;stroke-width:1.2;"/><line style="stroke:#181818;stroke-width:1.2;" x1="102" x2="1024.8" y1="1728.7031" y2="1728.7031"/><text fill="#000000" font-family="sans-serif" font-size="15.6" font-weight="bold" lengthAdjust="spacing" textLength="16.8" x="110.4" y="1722.9973">30</text><text fill="#000000" font-family="sans-serif" font-size="15.6" lengthAdjust="spacing" textLength="50.4" x="132" y="1722.9973">confirm</text><polygon fill="#181818" points="1570.8,1758.1313,1582.8,1762.9312,1570.8,1767.7313,1575.6,1762.9312" style="stroke:#181818;stroke-width:1.2;"/><line style="stroke:#181818;stroke-width:1.2;" x1="1044" x2="1578" y1="1762.9312" y2="1762.9312"/><text fill="#000000" font-family="sans-serif" font-size="15.6" font-weight="bold" lengthAdjust="spacing" textLength="16.8" x="1052.4" y="1757.2254">31</text><text fill="#000000" font-family="sans-serif" font-size="15.6" lengthAdjust="spacing" textLength="138" x="1074" y="1757.2254">getPropertyFilters ()</text><rect fill="none" height="45.5156" style="stroke:#000000;stroke-width:1.7999999999999998;" width="194.4" x="1494" y="1772.5313"/><path d="M1494,1772.5313 L1568.4,1772.5313 L1568.4,1779.7313 L1556.4,1791.7313 L1494,1791.7313 L1494,1772.5313 " fill="#EEEEEE" style="stroke:#000000;stroke-width:2.4;"/><text fill="#000000" font-family="sans-serif" font-size="15.6" font-weight="bold" lengthAdjust="spacing" textLength="20.4" x="1509.6" y="1789.0535">ref</text><text fill="#000000" font-family="sans-serif" font-size="14.4" lengthAdjust="spacing" textLength="157.2" x="1512.6" y="1809.5672">get ListOfPropertyFilters</text><polygon fill="#181818" points="1057.2,1843.875,1045.2,1848.675,1057.2,1853.475,1052.4,1848.675" style="stroke:#181818;stroke-width:1.2;"/><line style="stroke:#181818;stroke-width:1.2;stroke-dasharray:2.0,2.0;" x1="1050" x2="1590" y1="1848.675" y2="1848.675"/><text fill="#000000" font-family="sans-serif" font-size="15.6" font-weight="bold" lengthAdjust="spacing" textLength="16.8" x="1064.4" y="1842.9691">33</text><text fill="#000000" font-family="sans-serif" font-size="15.6" lengthAdjust="spacing" textLength="142.8" x="1086" y="1842.9691">ListOfPropertyFilters</text><polygon fill="#181818" points="115.2,1878.1031,103.2,1882.9031,115.2,1887.7031,110.4,1882.9031" style="stroke:#181818;stroke-width:1.2;"/><line style="stroke:#181818;stroke-width:1.2;stroke-dasharray:2.0,2.0;" x1="108" x2="1036.8" y1="1882.9031" y2="1882.9031"/><text fill="#000000" font-family="sans-serif" font-size="15.6" font-weight="bold" lengthAdjust="spacing" textLength="16.8" x="122.4" y="1877.1973">34</text><text fill="#000000" font-family="sans-serif" font-size="15.6" lengthAdjust="spacing" textLength="181.2" x="144" y="1877.1973">show list of property filters</text><polygon fill="#181818" points="1017.6,1912.3313,1029.6,1917.1313,1017.6,1921.9312,1022.4,1917.1313" style="stroke:#181818;stroke-width:1.2;"/><line style="stroke:#181818;stroke-width:1.2;" x1="102" x2="1024.8" y1="1917.1313" y2="1917.1313"/><text fill="#000000" font-family="sans-serif" font-size="15.6" font-weight="bold" lengthAdjust="spacing" textLength="16.8" x="110.4" y="1911.4254">35</text><text fill="#000000" font-family="sans-serif" font-size="15.6" lengthAdjust="spacing" textLength="88.8" x="132" y="1911.4254">select a filter</text><line style="stroke:#181818;stroke-width:1.2;stroke-dasharray:2.0,2.0;" x1="1044" x2="1094.4" y1="1951.3594" y2="1951.3594"/><line style="stroke:#181818;stroke-width:1.2;stroke-dasharray:2.0,2.0;" x1="1094.4" x2="1094.4" y1="1951.3594" y2="1966.9594"/><line style="stroke:#181818;stroke-width:1.2;stroke-dasharray:2.0,2.0;" x1="1045.2" x2="1094.4" y1="1966.9594" y2="1966.9594"/><polygon fill="#181818" points="1057.2,1962.1594,1045.2,1966.9594,1057.2,1971.7594,1052.4,1966.9594" style="stroke:#181818;stroke-width:1.2;"/><text fill="#000000" font-family="sans-serif" font-size="15.6" font-weight="bold" lengthAdjust="spacing" textLength="16.8" x="1052.4" y="1945.6535">36</text><text fill="#000000" font-family="sans-serif" font-size="15.6" lengthAdjust="spacing" textLength="128.4" x="1074" y="1945.6535">add(choosenFilter)</text><polygon fill="#181818" points="1570.8,1996.3875,1582.8,2001.1875,1570.8,2005.9875,1575.6,2001.1875" style="stroke:#181818;stroke-width:1.2;"/><line style="stroke:#181818;stroke-width:1.2;stroke-dasharray:2.0,2.0;" x1="1044" x2="1578" y1="2001.1875" y2="2001.1875"/><text fill="#000000" font-family="sans-serif" font-size="15.6" font-weight="bold" lengthAdjust="spacing" textLength="16.8" x="1052.4" y="1995.4816">37</text><text fill="#000000" font-family="sans-serif" font-size="15.6" lengthAdjust="spacing" textLength="496.8" x="1074" y="1995.4816">getPropertyList (requestType, propertyType, bedroomNo, choosenFilter)</text><rect fill="none" height="45.5156" style="stroke:#000000;stroke-width:1.7999999999999998;" width="194.4" x="1494" y="2010.7875"/><path d="M1494,2010.7875 L1568.4,2010.7875 L1568.4,2017.9875 L1556.4,2029.9875 L1494,2029.9875 L1494,2010.7875 " fill="#EEEEEE" style="stroke:#000000;stroke-width:2.4;"/><text fill="#000000" font-family="sans-serif" font-size="15.6" font-weight="bold" lengthAdjust="spacing" textLength="20.4" x="1509.6" y="2027.3098">ref</text><text fill="#000000" font-family="sans-serif" font-size="14.4" lengthAdjust="spacing" textLength="130.8" x="1525.8" y="2047.8234">get ListOfProperties</text><polygon fill="#181818" points="1057.2,2082.1313,1045.2,2086.9313,1057.2,2091.7313,1052.4,2086.9313" style="stroke:#181818;stroke-width:1.2;"/><line style="stroke:#181818;stroke-width:1.2;" x1="1050" x2="1590" y1="2086.9313" y2="2086.9313"/><text fill="#000000" font-family="sans-serif" font-size="15.6" font-weight="bold" lengthAdjust="spacing" textLength="16.8" x="1064.4" y="2081.2254">38</text><text fill="#000000" font-family="sans-serif" font-size="15.6" lengthAdjust="spacing" textLength="111.6" x="1086" y="2081.2254">ListOfProperties</text><polygon fill="#181818" points="115.2,2116.3594,103.2,2121.1594,115.2,2125.9594,110.4,2121.1594" style="stroke:#181818;stroke-width:1.2;"/><line style="stroke:#181818;stroke-width:1.2;stroke-dasharray:2.0,2.0;" x1="108" x2="1036.8" y1="2121.1594" y2="2121.1594"/><text fill="#000000" font-family="sans-serif" font-size="15.6" font-weight="bold" lengthAdjust="spacing" textLength="16.8" x="122.4" y="2115.4535">39</text><text fill="#000000" font-family="sans-serif" font-size="15.6" lengthAdjust="spacing" textLength="159.6" x="144" y="2115.4535">shows list of properties</text><polygon fill="#181818" points="1570.8,2158.9875,1582.8,2163.7875,1570.8,2168.5875,1575.6,2163.7875" style="stroke:#181818;stroke-width:1.2;"/><line style="stroke:#181818;stroke-width:1.2;" x1="1044" x2="1578" y1="2163.7875" y2="2163.7875"/><text fill="#000000" font-family="sans-serif" font-size="15.6" font-weight="bold" lengthAdjust="spacing" textLength="16.8" x="1052.4" y="2158.0816">40</text><text fill="#000000" font-family="sans-serif" font-size="15.6" lengthAdjust="spacing" textLength="138" x="1074" y="2158.0816">getPropertyFilters ()</text><rect fill="none" height="45.5156" style="stroke:#000000;stroke-width:1.7999999999999998;" width="194.4" x="1494" y="2173.3875"/><path d="M1494,2173.3875 L1568.4,2173.3875 L1568.4,2180.5875 L1556.4,2192.5875 L1494,2192.5875 L1494,2173.3875 " fill="#EEEEEE" style="stroke:#000000;stroke-width:2.4;"/><text fill="#000000" font-family="sans-serif" font-size="15.6" font-weight="bold" lengthAdjust="spacing" textLength="20.4" x="1509.6" y="2189.9098">ref</text><text fill="#000000" font-family="sans-serif" font-size="14.4" lengthAdjust="spacing" textLength="157.2" x="1512.6" y="2210.4234">get ListOfPropertyFilters</text><polygon fill="#181818" points="1057.2,2244.7313,1045.2,2249.5313,1057.2,2254.3312,1052.4,2249.5313" style="stroke:#181818;stroke-width:1.2;"/><line style="stroke:#181818;stroke-width:1.2;stroke-dasharray:2.0,2.0;" x1="1050" x2="1590" y1="2249.5313" y2="2249.5313"/><text fill="#000000" font-family="sans-serif" font-size="15.6" font-weight="bold" lengthAdjust="spacing" textLength="16.8" x="1064.4" y="2243.8254">17</text><text fill="#000000" font-family="sans-serif" font-size="15.6" lengthAdjust="spacing" textLength="142.8" x="1086" y="2243.8254">ListOfPropertyFilters</text><polygon fill="#181818" points="115.2,2278.9594,103.2,2283.7594,115.2,2288.5594,110.4,2283.7594" style="stroke:#181818;stroke-width:1.2;"/><line style="stroke:#181818;stroke-width:1.2;stroke-dasharray:2.0,2.0;" x1="108" x2="1036.8" y1="2283.7594" y2="2283.7594"/><text fill="#000000" font-family="sans-serif" font-size="15.6" font-weight="bold" lengthAdjust="spacing" textLength="16.8" x="122.4" y="2278.0535">18</text><text fill="#000000" font-family="sans-serif" font-size="15.6" lengthAdjust="spacing" textLength="344.4" x="144" y="2278.0535">show list of property filters and asks to select one</text><polygon fill="#181818" points="1017.6,2313.1875,1029.6,2317.9875,1017.6,2322.7875,1022.4,2317.9875" style="stroke:#181818;stroke-width:1.2;"/><line style="stroke:#181818;stroke-width:1.2;" x1="102" x2="1024.8" y1="2317.9875" y2="2317.9875"/><text fill="#000000" font-family="sans-serif" font-size="15.6" font-weight="bold" lengthAdjust="spacing" textLength="16.8" x="110.4" y="2312.2816">19</text><text fill="#000000" font-family="sans-serif" font-size="15.6" lengthAdjust="spacing" textLength="110.4" x="132" y="2312.2816">select an option</text><line style="stroke:#181818;stroke-width:1.2;stroke-dasharray:2.0,2.0;" x1="1044" x2="1094.4" y1="2352.2156" y2="2352.2156"/><line style="stroke:#181818;stroke-width:1.2;stroke-dasharray:2.0,2.0;" x1="1094.4" x2="1094.4" y1="2352.2156" y2="2367.8156"/><line style="stroke:#181818;stroke-width:1.2;stroke-dasharray:2.0,2.0;" x1="1045.2" x2="1094.4" y1="2367.8156" y2="2367.8156"/><polygon fill="#181818" points="1057.2,2363.0156,1045.2,2367.8156,1057.2,2372.6156,1052.4,2367.8156" style="stroke:#181818;stroke-width:1.2;"/><text fill="#000000" font-family="sans-serif" font-size="15.6" font-weight="bold" lengthAdjust="spacing" textLength="16.8" x="1052.4" y="2346.5098">20</text><text fill="#000000" font-family="sans-serif" font-size="15.6" lengthAdjust="spacing" textLength="128.4" x="1074" y="2346.5098">add(choosenFilter)</text><polygon fill="#181818" points="1570.8,2397.2438,1582.8,2402.0438,1570.8,2406.8438,1575.6,2402.0438" style="stroke:#181818;stroke-width:1.2;"/><line style="stroke:#181818;stroke-width:1.2;stroke-dasharray:2.0,2.0;" x1="1044" x2="1578" y1="2402.0438" y2="2402.0438"/><text fill="#000000" font-family="sans-serif" font-size="15.6" font-weight="bold" lengthAdjust="spacing" textLength="16.8" x="1052.4" y="2396.3379">21</text><text fill="#000000" font-family="sans-serif" font-size="15.6" lengthAdjust="spacing" textLength="496.8" x="1074" y="2396.3379">getPropertyList (requestType, propertyType, bedroomNo, choosenFilter)</text><rect fill="none" height="45.5156" style="stroke:#000000;stroke-width:1.7999999999999998;" width="194.4" x="1494" y="2411.6437"/><path d="M1494,2411.6437 L1568.4,2411.6437 L1568.4,2418.8438 L1556.4,2430.8438 L1494,2430.8438 L1494,2411.6437 " fill="#EEEEEE" style="stroke:#000000;stroke-width:2.4;"/><text fill="#000000" font-family="sans-serif" font-size="15.6" font-weight="bold" lengthAdjust="spacing" textLength="20.4" x="1509.6" y="2428.166">ref</text><text fill="#000000" font-family="sans-serif" font-size="14.4" lengthAdjust="spacing" textLength="130.8" x="1525.8" y="2448.6797">get ListOfProperties</text><polygon fill="#181818" points="1057.2,2482.9875,1045.2,2487.7875,1057.2,2492.5875,1052.4,2487.7875" style="stroke:#181818;stroke-width:1.2;"/><line style="stroke:#181818;stroke-width:1.2;" x1="1050" x2="1590" y1="2487.7875" y2="2487.7875"/><text fill="#000000" font-family="sans-serif" font-size="15.6" font-weight="bold" lengthAdjust="spacing" textLength="16.8" x="1064.4" y="2482.0816">22</text><text fill="#000000" font-family="sans-serif" font-size="15.6" lengthAdjust="spacing" textLength="111.6" x="1086" y="2482.0816">ListOfProperties</text><polygon fill="#181818" points="109.2,2517.2156,97.2,2522.0156,109.2,2526.8156,104.4,2522.0156" style="stroke:#181818;stroke-width:1.2;"/><line style="stroke:#181818;stroke-width:1.2;stroke-dasharray:2.0,2.0;" x1="102" x2="1036.8" y1="2522.0156" y2="2522.0156"/><text fill="#000000" font-family="sans-serif" font-size="15.6" font-weight="bold" lengthAdjust="spacing" textLength="16.8" x="116.4" y="2516.3098">23</text><text fill="#000000" font-family="sans-serif" font-size="15.6" lengthAdjust="spacing" textLength="159.6" x="138" y="2516.3098">shows list of properties</text><!--SRC=[nLXjJzim4FxkNt7Yos3YHOnfc_Y0n90s8KrZ0l83J79j8nmxirsc_llPJPCuZlFM5kWNg7k-Ez_pt3rEFYoqpjNbsLdEADVBZ9t68ZjJ-7U9FCQJ9ALpIJD2r7FASsh-XKnm4I-ao12qNABpIqxZPph71xrY219ZJVcSkGPgGHFnB-Lpc56ca12wr88lioUKXCPQI3Y8kCHvgZHAJ21IA0-0AeWYOZpeD4vpaoKSNFv4_KUA7ALU_JBMqMrXTkkPkJOtWcif6Dkul7cy_qM83Pk-K8qs107pYI8ukJAUuD9OFIlG0XGYCEC1n0pomcEAgZ2lzzzkzj_Q_TRxnu_6nur4yskThjdOJCRVPVRCcuVxlhhcN2mD71boVNXaibxlQOGlZbCkIvo1U45PB9Uhnc-P_weuqDCAgEExiaIULFzR5oSdL-kAv9rfLUO9TkHaZsWh6na_QY7-1KeAz8McZ3uP-b2ULFMVfKoNXV92sAex8MhiOi5dgSoeJWMlVO1U5506m0i3SMyxGUd7LOwcyZqbXvhByFdql5xlngC2vMcfKexA7DQ40LlSfes1mxfeBhhnt2AqG9Fr4PgkMr3rW5NKJrcyracQlrNMBbOAcMby41mxyNBpT13RxAGSH6vHQzYv3Xe7BHDTzskI73g7NJTAuqIX3dEGxKDt04M_ksoDr5WaVS3SrDekVDHQhiPWLoNQWTq0T7u7xXDI7z7SgSRHKGT7Dx33fY4iEp6HGcHgU6g4a-xnD2NxpURVeXhRfXG0ZruF7JSHQGS7Aj4iCqP2SBl4lcQirfex_a0PajQcVWhr4xqaUojAowfaUpjyFRlElv9GBzHL70pJgJY3oaCPSzL7BwXUrzb8Xg914RAAMI6rwQk-XFnn5HIf7dZyUTatoNvisjoPPg7FGB6cyS3dX1rNTpCle_wTdIJf8CodyrxB9dccvxCzc_R7Yt9kLZUV0OPq9rcEeNWXX49U5E28T8f6-0OAhgpMewhuLasuOnYCyYuqj7Vr_JBmomW6XWWub4dxGWOJf_rzyOGmll3xhRkVohYwm_X-dXHWwARaTx8AFfB4iP29VMOr8c0V7yhRb1M7iMeYJQflfYPzemBsB2PRTlJM9DjTRgRoBpm2BYv6xzfLa7PXz1jeqnIsJLQbTrMetRczFRctKB79YjP5xMyJgRsDqkrqumhDQT9FPFj2QyJBWC3K2rx59xrs6pUi_64KVaIQCaosVXEtQcZS-BS3h_iUeAjrNtKkx0wqoqqVut7zqpNqTsWBudwD2FaF]--></g></svg>