<?xml version="1.0" encoding="us-ascii" standalone="no"?><svg xmlns="http://www.w3.org/2000/svg" xmlns:xlink="http://www.w3.org/1999/xlink" contentStyleType="text/css" height="725px" preserveAspectRatio="none" style="width:1329px;height:725px;background:#FFFFFF;" version="1.1" viewBox="0 0 1329 725" width="1329px" zoomAndPan="magnify"><defs/><g><text fill="#000000" font-family="sans-serif" font-size="14" font-weight="bold" lengthAdjust="spacing" textLength="351" x="490.75" y="27.6738">As a administrator, I intend to register a new store</text><rect fill="#FFFFFF" height="500.25" style="stroke:#181818;stroke-width:1.0;" width="10" x="44.5" y="127.2813"/><rect fill="#FFFFFF" height="69.1641" style="stroke:#181818;stroke-width:1.0;" width="10" x="363.5" y="147.8047"/><rect fill="#FFFFFF" height="367.5156" style="stroke:#181818;stroke-width:1.0;" width="10" x="363.5" y="260.0156"/><rect fill="#FFFFFF" height="333.4688" style="stroke:#181818;stroke-width:1.0;" width="10" x="623.5" y="303.0625"/><rect fill="#FFFFFF" height="290.4219" style="stroke:#181818;stroke-width:1.0;" width="10" x="883.5" y="346.1094"/><rect fill="#FFFFFF" height="122.5703" style="stroke:#181818;stroke-width:1.0;" width="10" x="888.5" y="462.4375"/><rect fill="#FFFFFF" height="39.5234" style="stroke:#181818;stroke-width:1.0;" width="10" x="893.5" y="503.9609"/><rect fill="none" height="238.8984" style="stroke:#000000;stroke-width:1.5;" width="485" x="838.5" y="361.1094"/><line style="stroke:#181818;stroke-width:0.5;stroke-dasharray:5.0,5.0;" x1="49" x2="49" y1="117.2813" y2="645.5313"/><line style="stroke:#181818;stroke-width:0.5;stroke-dasharray:5.0,5.0;" x1="368" x2="368" y1="117.2813" y2="645.5313"/><line style="stroke:#181818;stroke-width:0.5;stroke-dasharray:5.0,5.0;" x1="628" x2="628" y1="186.125" y2="645.5313"/><line style="stroke:#181818;stroke-width:0.5;stroke-dasharray:5.0,5.0;" x1="888.5" x2="888.5" y1="117.2813" y2="645.5313"/><line style="stroke:#181818;stroke-width:0.5;stroke-dasharray:5.0,5.0;" x1="1287.5" x2="1287.5" y1="415.7734" y2="645.5313"/><text fill="#000000" font-family="sans-serif" font-size="14" lengthAdjust="spacing" textLength="83" x="5" y="114.3145">Administrator</text><ellipse cx="49.5" cy="50.1406" fill="#E3E3E3" rx="8" ry="8" style="stroke:#181818;stroke-width:0.5;"/><path d="M49.5,58.1406 L49.5,85.1406 M36.5,66.1406 L62.5,66.1406 M49.5,85.1406 L36.5,100.1406 M49.5,85.1406 L62.5,100.1406 " fill="none" style="stroke:#181818;stroke-width:0.5;"/><text fill="#000000" font-family="sans-serif" font-size="14" lengthAdjust="spacing" textLength="83" x="5" y="657.2051">Administrator</text><ellipse cx="49.5" cy="668.6719" fill="#E3E3E3" rx="8" ry="8" style="stroke:#181818;stroke-width:0.5;"/><path d="M49.5,676.6719 L49.5,703.6719 M36.5,684.6719 L62.5,684.6719 M49.5,703.6719 L36.5,718.6719 M49.5,703.6719 L62.5,718.6719 " fill="none" style="stroke:#181818;stroke-width:0.5;"/><rect fill="#E3E3E3" height="29.6406" rx="2.5" ry="2.5" style="stroke:#181818;stroke-width:0.5;" width="117" x="310" y="86.6406"/><text fill="#000000" font-family="sans-serif" font-size="14" lengthAdjust="spacing" textLength="103" x="317" y="106.3145">:RegisterStoreUI</text><rect fill="#E3E3E3" height="29.6406" rx="2.5" ry="2.5" style="stroke:#181818;stroke-width:0.5;" width="117" x="310" y="644.5313"/><text fill="#000000" font-family="sans-serif" font-size="14" lengthAdjust="spacing" textLength="103" x="317" y="664.2051">:RegisterStoreUI</text><rect fill="#E3E3E3" height="29.6406" rx="2.5" ry="2.5" style="stroke:#181818;stroke-width:0.5;" width="167" x="545" y="644.5313"/><text fill="#000000" font-family="sans-serif" font-size="14" lengthAdjust="spacing" textLength="153" x="552" y="664.2051">:RegisterStoreController</text><rect fill="#E3E3E3" height="45.2813" rx="2.5" ry="2.5" style="stroke:#181818;stroke-width:0.5;" width="80" x="848.5" y="71"/><text fill="#000000" font-family="sans-serif" font-size="14" lengthAdjust="spacing" textLength="53" x="862" y="90.6738">emplyee</text><text fill="#000000" font-family="sans-serif" font-size="14" lengthAdjust="spacing" textLength="66" x="855.5" y="106.3145">:Employee</text><rect fill="#E3E3E3" height="45.2813" rx="2.5" ry="2.5" style="stroke:#181818;stroke-width:0.5;" width="80" x="848.5" y="644.5313"/><text fill="#000000" font-family="sans-serif" font-size="14" lengthAdjust="spacing" textLength="53" x="862" y="664.2051">emplyee</text><text fill="#000000" font-family="sans-serif" font-size="14" lengthAdjust="spacing" textLength="66" x="855.5" y="679.8457">:Employee</text><rect fill="#E3E3E3" height="45.2813" rx="2.5" ry="2.5" style="stroke:#181818;stroke-width:0.5;" width="52" x="1261.5" y="644.5313"/><text fill="#000000" font-family="sans-serif" font-size="14" lengthAdjust="spacing" textLength="32" x="1271.5" y="664.2051">store</text><text fill="#000000" font-family="sans-serif" font-size="14" lengthAdjust="spacing" textLength="38" x="1268.5" y="679.8457">:Store</text><rect fill="#FFFFFF" height="500.25" style="stroke:#181818;stroke-width:1.0;" width="10" x="44.5" y="127.2813"/><rect fill="#FFFFFF" height="69.1641" style="stroke:#181818;stroke-width:1.0;" width="10" x="363.5" y="147.8047"/><rect fill="#FFFFFF" height="367.5156" style="stroke:#181818;stroke-width:1.0;" width="10" x="363.5" y="260.0156"/><rect fill="#FFFFFF" height="333.4688" style="stroke:#181818;stroke-width:1.0;" width="10" x="623.5" y="303.0625"/><rect fill="#FFFFFF" height="290.4219" style="stroke:#181818;stroke-width:1.0;" width="10" x="883.5" y="346.1094"/><rect fill="#FFFFFF" height="122.5703" style="stroke:#181818;stroke-width:1.0;" width="10" x="888.5" y="462.4375"/><rect fill="#FFFFFF" height="39.5234" style="stroke:#181818;stroke-width:1.0;" width="10" x="893.5" y="503.9609"/><polygon fill="#181818" points="351.5,143.8047,361.5,147.8047,351.5,151.8047,355.5,147.8047" style="stroke:#181818;stroke-width:1.0;"/><line style="stroke:#181818;stroke-width:1.0;" x1="54.5" x2="357.5" y1="147.8047" y2="147.8047"/><text fill="#000000" font-family="sans-serif" font-size="13" font-weight="bold" lengthAdjust="spacing" textLength="7" x="61.5" y="143.0498">1</text><text fill="#000000" font-family="sans-serif" font-size="13" lengthAdjust="spacing" textLength="161" x="72.5" y="143.0498">asks to register a new store</text><polygon fill="#181818" points="533,172.3281,543,176.3281,533,180.3281,537,176.3281" style="stroke:#181818;stroke-width:1.0;"/><line style="stroke:#181818;stroke-width:1.0;" x1="373.5" x2="539" y1="176.3281" y2="176.3281"/><text fill="#000000" font-family="sans-serif" font-size="13" font-weight="bold" lengthAdjust="spacing" textLength="7" x="380.5" y="171.5732">2</text><text fill="#000000" font-family="sans-serif" font-size="13" lengthAdjust="spacing" textLength="36" x="391.5" y="171.5732">create</text><rect fill="#E3E3E3" height="29.6406" rx="2.5" ry="2.5" style="stroke:#181818;stroke-width:0.5;" width="167" x="545" y="155.8047"/><text fill="#000000" font-family="sans-serif" font-size="14" lengthAdjust="spacing" textLength="153" x="552" y="175.4785">:RegisterStoreController</text><polygon fill="#181818" points="65.5,212.9688,55.5,216.9688,65.5,220.9688,61.5,216.9688" style="stroke:#181818;stroke-width:1.0;"/><line style="stroke:#181818;stroke-width:1.0;stroke-dasharray:2.0,2.0;" x1="59.5" x2="367.5" y1="216.9688" y2="216.9688"/><text fill="#000000" font-family="sans-serif" font-size="13" font-weight="bold" lengthAdjust="spacing" textLength="7" x="71.5" y="212.2139">3</text><text fill="#000000" font-family="sans-serif" font-size="13" lengthAdjust="spacing" textLength="105" x="82.5" y="212.2139">request store data</text><polygon fill="#181818" points="351.5,256.0156,361.5,260.0156,351.5,264.0156,355.5,260.0156" style="stroke:#181818;stroke-width:1.0;"/><line style="stroke:#181818;stroke-width:1.0;" x1="54.5" x2="357.5" y1="260.0156" y2="260.0156"/><text fill="#000000" font-family="sans-serif" font-size="13" font-weight="bold" lengthAdjust="spacing" textLength="7" x="61.5" y="247.999">4</text><text fill="#000000" font-family="sans-serif" font-size="13" lengthAdjust="spacing" textLength="279" x="72.5" y="240.7373">types requested data (ID, name, address, email,</text><text fill="#000000" font-family="sans-serif" font-size="13" lengthAdjust="spacing" textLength="84" x="72.5" y="255.2607">phoneNumber)</text><polygon fill="#181818" points="611.5,299.0625,621.5,303.0625,611.5,307.0625,615.5,303.0625" style="stroke:#181818;stroke-width:1.0;"/><line style="stroke:#181818;stroke-width:1.0;" x1="373.5" x2="617.5" y1="303.0625" y2="303.0625"/><text fill="#000000" font-family="sans-serif" font-size="13" font-weight="bold" lengthAdjust="spacing" textLength="7" x="380.5" y="291.0459">5</text><text fill="#000000" font-family="sans-serif" font-size="13" lengthAdjust="spacing" textLength="220" x="391.5" y="283.7842">createStore(ID, name, address, email,</text><text fill="#000000" font-family="sans-serif" font-size="13" lengthAdjust="spacing" textLength="84" x="391.5" y="298.3076">phoneNumber)</text><polygon fill="#181818" points="871.5,342.1094,881.5,346.1094,871.5,350.1094,875.5,346.1094" style="stroke:#181818;stroke-width:1.0;"/><line style="stroke:#181818;stroke-width:1.0;" x1="633.5" x2="877.5" y1="346.1094" y2="346.1094"/><text fill="#000000" font-family="sans-serif" font-size="13" font-weight="bold" lengthAdjust="spacing" textLength="7" x="640.5" y="334.0928">6</text><text fill="#000000" font-family="sans-serif" font-size="13" lengthAdjust="spacing" textLength="220" x="651.5" y="326.8311">createStore(ID, name, address, email,</text><text fill="#000000" font-family="sans-serif" font-size="13" lengthAdjust="spacing" textLength="84" x="655.5" y="341.3545">phoneNumber)</text><path d="M838.5,361.1094 L963.5,361.1094 L963.5,367.6328 L953.5,377.6328 L838.5,377.6328 L838.5,361.1094 " fill="#EEEEEE" style="stroke:#000000;stroke-width:1.5;"/><rect fill="none" height="238.8984" style="stroke:#000000;stroke-width:1.5;" width="485" x="838.5" y="361.1094"/><text fill="#000000" font-family="sans-serif" font-size="13" font-weight="bold" lengthAdjust="spacing" textLength="80" x="853.5" y="373.8779">Create Store</text><polygon fill="#181818" points="1249.5,394.1563,1259.5,398.1563,1249.5,402.1563,1253.5,398.1563" style="stroke:#181818;stroke-width:1.0;"/><line style="stroke:#181818;stroke-width:1.0;" x1="893.5" x2="1255.5" y1="398.1563" y2="398.1563"/><text fill="#000000" font-family="sans-serif" font-size="13" font-weight="bold" lengthAdjust="spacing" textLength="25" x="900.5" y="393.4014">12.1</text><text fill="#000000" font-family="sans-serif" font-size="13" lengthAdjust="spacing" textLength="315" x="929.5" y="393.4014">new Store(id,designation,email,address,phoneNumber)</text><rect fill="#E3E3E3" height="45.2813" rx="2.5" ry="2.5" style="stroke:#181818;stroke-width:0.5;" width="52" x="1261.5" y="377.6328"/><text fill="#000000" font-family="sans-serif" font-size="14" lengthAdjust="spacing" textLength="32" x="1271.5" y="397.3066">store</text><text fill="#000000" font-family="sans-serif" font-size="14" lengthAdjust="spacing" textLength="38" x="1268.5" y="412.9473">:Store</text><line style="stroke:#181818;stroke-width:1.0;" x1="893.5" x2="940.5" y1="449.4375" y2="449.4375"/><line style="stroke:#181818;stroke-width:1.0;" x1="940.5" x2="940.5" y1="449.4375" y2="462.4375"/><line style="stroke:#181818;stroke-width:1.0;" x1="899.5" x2="940.5" y1="462.4375" y2="462.4375"/><polygon fill="#181818" points="909.5,458.4375,899.5,462.4375,909.5,466.4375,905.5,462.4375" style="stroke:#181818;stroke-width:1.0;"/><text fill="#000000" font-family="sans-serif" font-size="13" font-weight="bold" lengthAdjust="spacing" textLength="25" x="905.5" y="444.6826">12.2</text><text fill="#000000" font-family="sans-serif" font-size="13" lengthAdjust="spacing" textLength="105" x="934.5" y="444.6826">storeClone.clone()</text><line style="stroke:#181818;stroke-width:1.0;" x1="898.5" x2="945.5" y1="490.9609" y2="490.9609"/><line style="stroke:#181818;stroke-width:1.0;" x1="945.5" x2="945.5" y1="490.9609" y2="503.9609"/><line style="stroke:#181818;stroke-width:1.0;" x1="904.5" x2="945.5" y1="503.9609" y2="503.9609"/><polygon fill="#181818" points="914.5,499.9609,904.5,503.9609,914.5,507.9609,910.5,503.9609" style="stroke:#181818;stroke-width:1.0;"/><text fill="#000000" font-family="sans-serif" font-size="13" font-weight="bold" lengthAdjust="spacing" textLength="25" x="910.5" y="486.2061">12.3</text><text fill="#000000" font-family="sans-serif" font-size="13" lengthAdjust="spacing" textLength="95" x="939.5" y="486.2061">add(storeClone);</text><line style="stroke:#181818;stroke-width:1.0;stroke-dasharray:2.0,2.0;" x1="903.5" x2="945.5" y1="542.4844" y2="542.4844"/><line style="stroke:#181818;stroke-width:1.0;stroke-dasharray:2.0,2.0;" x1="945.5" x2="945.5" y1="542.4844" y2="555.4844"/><line style="stroke:#181818;stroke-width:1.0;stroke-dasharray:2.0,2.0;" x1="898.5" x2="945.5" y1="555.4844" y2="555.4844"/><polygon fill="#181818" points="908.5,551.4844,898.5,555.4844,908.5,559.4844,904.5,555.4844" style="stroke:#181818;stroke-width:1.0;"/><text fill="#000000" font-family="sans-serif" font-size="13" font-weight="bold" lengthAdjust="spacing" textLength="25" x="910.5" y="537.7295">12.4</text><text fill="#000000" font-family="sans-serif" font-size="13" lengthAdjust="spacing" textLength="4" x="939.5" y="537.7295">&#160;</text><line style="stroke:#181818;stroke-width:1.0;stroke-dasharray:2.0,2.0;" x1="898.5" x2="940.5" y1="584.0078" y2="584.0078"/><line style="stroke:#181818;stroke-width:1.0;stroke-dasharray:2.0,2.0;" x1="940.5" x2="940.5" y1="584.0078" y2="597.0078"/><line style="stroke:#181818;stroke-width:1.0;stroke-dasharray:2.0,2.0;" x1="893.5" x2="940.5" y1="597.0078" y2="597.0078"/><polygon fill="#181818" points="903.5,593.0078,893.5,597.0078,903.5,601.0078,899.5,597.0078" style="stroke:#181818;stroke-width:1.0;"/><text fill="#000000" font-family="sans-serif" font-size="13" font-weight="bold" lengthAdjust="spacing" textLength="25" x="905.5" y="579.2529">12.5</text><text fill="#000000" font-family="sans-serif" font-size="13" lengthAdjust="spacing" textLength="4" x="934.5" y="579.2529">&#160;</text><polygon fill="#181818" points="60.5,623.5313,50.5,627.5313,60.5,631.5313,56.5,627.5313" style="stroke:#181818;stroke-width:1.0;"/><line style="stroke:#181818;stroke-width:1.0;stroke-dasharray:2.0,2.0;" x1="54.5" x2="367.5" y1="627.5313" y2="627.5313"/><text fill="#000000" font-family="sans-serif" font-size="13" font-weight="bold" lengthAdjust="spacing" textLength="25" x="66.5" y="622.7764">12.6</text><text fill="#000000" font-family="sans-serif" font-size="13" lengthAdjust="spacing" textLength="158" x="95.5" y="622.7764">displays operation success</text><!--SRC=[dLPDR-8m4BtxLunwAQnejTtT4ojLOYcgaEXkrOzRBsuo1Qk9dRLDk_px7JiGd10J80SauZVFC-CtBpRlGXPSynno9LMoq2f7i7g9p5Gh1K_U-HmVxIf3q9XOBkTP230BdgfF8UVmnZE3Z5bX2Jeom86dkP32MCsjqWEOWf0MPGfM4TMS5b0JIk8d609GB5zQ9PVvAsh6pXSYHNXJohwgVumdX82pKSXu1jp0wEQEKIPM9ABWqiBPy65D_UWudwSUzJpT1nehQRNACYmfnqyFCtRUn1VA208BD1vKlLWz2jSIIhmHeuEG5xdBS3yRFJL2C2yojKBSabFWPEUb3v_z6RETO8854MMYa_iwplUQKBvq3tcqr6_NOl71BVgMCbW_z0Skhgc1C2JekuaVtYQYug6cLo_TGnp4vBhxvGkn9He9HGTTnrnSEmIjpz7w5E-u90Lgq-kpyphOFRTQBGkuHGiU36lqBh2MMdd4hP1AWl3zygeTunwV99NJeWEV-bGQcfK4NTOnZYgTLZ75urhWcyuE8THPd2B5KpVV5ExawolTrUS15PVYZmFT-hQcOxO8AklQP5CAZLAxt3hBS4EuPmDQtXPX0lOPpSz19VWDOZZdfNEd_quf_sX7kCGkBgxzS1-MNf1QEKFDyGNYywOnX4Ah3-VXdXdoaXgo6dV0HtOHi8M-Op2ZBm_I9uKADbIrQN2-qQUhGRpNXQeKDVvTeh5hkfHRlWNNKsFDfEoge8pM19ZwOEXDRmOWUOu3-lYb6eqP0EPSP8CNMIoKnD_-FFeickBM92kBzB8yYddNwrZWinlPbx9iwFxNwa5bs0lLu5xqMpfRDz50RLTVcyuPTUccW4wrrMFSx4JxFCuoZxR9lQvrd1rsME0-s-i-_Yx_YtfUDCSrINqzucsXogxQozgtSzE-wjPGYMzoV_3iGMtuMBicwGeMA-8RZKguvck6iT-y71OMjtKVpLek29DxLmVTw_nDortIoa94EaZHYBdaLYWvA8lOr1Ilf4xhs-FxEyueuZ9nlpIGRJ7H7hIpKYgzBNF_9-kwE4LPA-QIcdLVWmZ4Jk7fvd1QZds4Xf0AKsHyPK0LgFsvW5ac2Pq8Q_aC1N_TFVq_]--></g></svg>