<?xml version="1.0" encoding="us-ascii" standalone="no"?><svg xmlns="http://www.w3.org/2000/svg" xmlns:xlink="http://www.w3.org/1999/xlink" contentStyleType="text/css" height="400px" preserveAspectRatio="none" style="width:854px;height:400px;background:#FFFFFF;" version="1.1" viewBox="0 0 854 400" width="854px" zoomAndPan="magnify"><defs/><g><rect fill="#FFFFFF" height="259.8984" style="stroke:#181818;stroke-width:1.0;" width="10" x="420" y="81.8047"/><rect fill="#FFFFFF" height="122.5703" style="stroke:#181818;stroke-width:1.0;" width="10" x="425" y="174.6094"/><rect fill="#FFFFFF" height="39.5234" style="stroke:#181818;stroke-width:1.0;" width="10" x="430" y="216.1328"/><line style="stroke:#181818;stroke-width:0.5;stroke-dasharray:5.0,5.0;" x1="425" x2="425" y1="51.2813" y2="350.7031"/><line style="stroke:#181818;stroke-width:0.5;stroke-dasharray:5.0,5.0;" x1="823" x2="823" y1="127.9453" y2="350.7031"/><rect fill="#E3E3E3" height="45.2813" rx="2.5" ry="2.5" style="stroke:#181818;stroke-width:0.5;" width="116" x="367" y="5"/><text fill="#000000" font-family="sans-serif" font-size="14" lengthAdjust="spacing" textLength="102" x="374" y="24.6738">StoreRepository</text><text fill="#000000" font-family="sans-serif" font-size="14" lengthAdjust="spacing" textLength="66" x="392" y="40.3145">:Employee</text><rect fill="#E3E3E3" height="45.2813" rx="2.5" ry="2.5" style="stroke:#181818;stroke-width:0.5;" width="116" x="367" y="349.7031"/><text fill="#000000" font-family="sans-serif" font-size="14" lengthAdjust="spacing" textLength="102" x="374" y="369.377">StoreRepository</text><text fill="#000000" font-family="sans-serif" font-size="14" lengthAdjust="spacing" textLength="66" x="392" y="385.0176">:Employee</text><rect fill="#E3E3E3" height="45.2813" rx="2.5" ry="2.5" style="stroke:#181818;stroke-width:0.5;" width="50" x="798" y="349.7031"/><text fill="#000000" font-family="sans-serif" font-size="14" lengthAdjust="spacing" textLength="36" x="805" y="369.377">store:</text><text fill="#000000" font-family="sans-serif" font-size="14" lengthAdjust="spacing" textLength="34" x="806" y="385.0176">Store</text><rect fill="#FFFFFF" height="259.8984" style="stroke:#181818;stroke-width:1.0;" width="10" x="420" y="81.8047"/><rect fill="#FFFFFF" height="122.5703" style="stroke:#181818;stroke-width:1.0;" width="10" x="425" y="174.6094"/><rect fill="#FFFFFF" height="39.5234" style="stroke:#181818;stroke-width:1.0;" width="10" x="430" y="216.1328"/><polygon fill="#181818" points="408,77.8047,418,81.8047,408,85.8047,412,81.8047" style="stroke:#181818;stroke-width:1.0;"/><line style="stroke:#181818;stroke-width:1.0;" x1="0" x2="414" y1="81.8047" y2="81.8047"/><text fill="#000000" font-family="sans-serif" font-size="13" font-weight="bold" lengthAdjust="spacing" textLength="14" x="7" y="77.0498">12</text><text fill="#000000" font-family="sans-serif" font-size="13" lengthAdjust="spacing" textLength="383" x="25" y="77.0498">createStore( id,  designation,  email, storeAddress, phoneNumber)</text><polygon fill="#181818" points="786,106.3281,796,110.3281,786,114.3281,790,110.3281" style="stroke:#181818;stroke-width:1.0;"/><line style="stroke:#181818;stroke-width:1.0;" x1="430" x2="792" y1="110.3281" y2="110.3281"/><text fill="#000000" font-family="sans-serif" font-size="13" font-weight="bold" lengthAdjust="spacing" textLength="25" x="437" y="105.5732">12.1</text><text fill="#000000" font-family="sans-serif" font-size="13" lengthAdjust="spacing" textLength="315" x="466" y="105.5732">new Store(id,designation,email,address,phoneNumber)</text><rect fill="#E3E3E3" height="45.2813" rx="2.5" ry="2.5" style="stroke:#181818;stroke-width:0.5;" width="50" x="798" y="89.8047"/><text fill="#000000" font-family="sans-serif" font-size="14" lengthAdjust="spacing" textLength="36" x="805" y="109.4785">store:</text><text fill="#000000" font-family="sans-serif" font-size="14" lengthAdjust="spacing" textLength="34" x="806" y="125.1191">Store</text><line style="stroke:#181818;stroke-width:1.0;" x1="430" x2="477" y1="161.6094" y2="161.6094"/><line style="stroke:#181818;stroke-width:1.0;" x1="477" x2="477" y1="161.6094" y2="174.6094"/><line style="stroke:#181818;stroke-width:1.0;" x1="436" x2="477" y1="174.6094" y2="174.6094"/><polygon fill="#181818" points="446,170.6094,436,174.6094,446,178.6094,442,174.6094" style="stroke:#181818;stroke-width:1.0;"/><text fill="#000000" font-family="sans-serif" font-size="13" font-weight="bold" lengthAdjust="spacing" textLength="25" x="442" y="156.8545">12.2</text><text fill="#000000" font-family="sans-serif" font-size="13" lengthAdjust="spacing" textLength="105" x="471" y="156.8545">storeClone.clone()</text><line style="stroke:#181818;stroke-width:1.0;" x1="435" x2="482" y1="203.1328" y2="203.1328"/><line style="stroke:#181818;stroke-width:1.0;" x1="482" x2="482" y1="203.1328" y2="216.1328"/><line style="stroke:#181818;stroke-width:1.0;" x1="441" x2="482" y1="216.1328" y2="216.1328"/><polygon fill="#181818" points="451,212.1328,441,216.1328,451,220.1328,447,216.1328" style="stroke:#181818;stroke-width:1.0;"/><text fill="#000000" font-family="sans-serif" font-size="13" font-weight="bold" lengthAdjust="spacing" textLength="25" x="447" y="198.3779">12.3</text><text fill="#000000" font-family="sans-serif" font-size="13" lengthAdjust="spacing" textLength="95" x="476" y="198.3779">add(storeClone);</text><line style="stroke:#181818;stroke-width:1.0;stroke-dasharray:2.0,2.0;" x1="440" x2="482" y1="254.6563" y2="254.6563"/><line style="stroke:#181818;stroke-width:1.0;stroke-dasharray:2.0,2.0;" x1="482" x2="482" y1="254.6563" y2="267.6563"/><line style="stroke:#181818;stroke-width:1.0;stroke-dasharray:2.0,2.0;" x1="435" x2="482" y1="267.6563" y2="267.6563"/><polygon fill="#181818" points="445,263.6563,435,267.6563,445,271.6563,441,267.6563" style="stroke:#181818;stroke-width:1.0;"/><text fill="#000000" font-family="sans-serif" font-size="13" font-weight="bold" lengthAdjust="spacing" textLength="25" x="447" y="249.9014">12.4</text><text fill="#000000" font-family="sans-serif" font-size="13" lengthAdjust="spacing" textLength="4" x="476" y="249.9014">&#160;</text><line style="stroke:#181818;stroke-width:1.0;stroke-dasharray:2.0,2.0;" x1="435" x2="477" y1="296.1797" y2="296.1797"/><line style="stroke:#181818;stroke-width:1.0;stroke-dasharray:2.0,2.0;" x1="477" x2="477" y1="296.1797" y2="309.1797"/><line style="stroke:#181818;stroke-width:1.0;stroke-dasharray:2.0,2.0;" x1="430" x2="477" y1="309.1797" y2="309.1797"/><polygon fill="#181818" points="440,305.1797,430,309.1797,440,313.1797,436,309.1797" style="stroke:#181818;stroke-width:1.0;"/><text fill="#000000" font-family="sans-serif" font-size="13" font-weight="bold" lengthAdjust="spacing" textLength="25" x="442" y="291.4248">12.5</text><text fill="#000000" font-family="sans-serif" font-size="13" lengthAdjust="spacing" textLength="4" x="471" y="291.4248">&#160;</text><polygon fill="#181818" points="11,328.7031,1,332.7031,11,336.7031,7,332.7031" style="stroke:#181818;stroke-width:1.0;"/><line style="stroke:#181818;stroke-width:1.0;stroke-dasharray:2.0,2.0;" x1="5" x2="419" y1="332.7031" y2="332.7031"/><text fill="#000000" font-family="sans-serif" font-size="13" font-weight="bold" lengthAdjust="spacing" textLength="14" x="17" y="327.9482">13</text><text fill="#000000" font-family="sans-serif" font-size="13" lengthAdjust="spacing" textLength="62" x="35" y="327.9482">storeClone</text><!--SRC=[ZP4nRuCm48Lt_ufJ9XA5I6atMaMgggnL5TOiL_iALi16jcd4lwynAOKAKcwmRFczTz_PzY9LXGPBABNIF3Uw972c9cRxcmhv1JDANLCG6E8ELLOC1JP7eQzIPV29XIN66DPEgxhy80Fx1yQyp4akArGELgdJXavKQIlzhZchv5XMXMw8Le0MJiVtiTws-kIiWYz8KcSOt2e-j8u4k25q53GHIB4546Hbfj19hVo9IfJ55aBOYn26hDr2bMj5Ru5ptISE2xcJNputK4qhXfFkzjCYNpwWPVNecmqaeEWA7Qnd7P9sd7WZ707EHVzaXtS80xuMthRZxHfvtvnnD1tCrp3VaqM_FTPFztnBy_iUNPDxKa7_Vydon2Lfmmz-d5Gyn_7VjsVV]--></g></svg>