<?xml version="1.0" encoding="us-ascii" standalone="no"?><svg xmlns="http://www.w3.org/2000/svg" xmlns:xlink="http://www.w3.org/1999/xlink" contentStyleType="text/css" height="536px" preserveAspectRatio="none" style="width:937px;height:536px;background:#FFFFFF;" version="1.1" viewBox="0 0 937 536" width="937px" zoomAndPan="magnify"><defs/><g><rect fill="#FFFFFF" height="347.3281" style="stroke:#181818;stroke-width:1.0;" width="10" x="44.5" y="90.6406"/><rect fill="#FFFFFF" height="69.1641" style="stroke:#181818;stroke-width:1.0;" width="10" x="363.5" y="111.1641"/><rect fill="#FFFFFF" height="214.5938" style="stroke:#181818;stroke-width:1.0;" width="10" x="363.5" y="223.375"/><rect fill="#FFFFFF" height="143.0234" style="stroke:#181818;stroke-width:1.0;" width="10" x="623.5" y="266.4219"/><rect fill="#FFFFFF" height="71.4531" style="stroke:#181818;stroke-width:1.0;" width="10" x="883.5" y="309.4688"/><line style="stroke:#181818;stroke-width:0.5;stroke-dasharray:5.0,5.0;" x1="49" x2="49" y1="80.6406" y2="455.9688"/><line style="stroke:#181818;stroke-width:0.5;stroke-dasharray:5.0,5.0;" x1="368" x2="368" y1="80.6406" y2="455.9688"/><line style="stroke:#181818;stroke-width:0.5;stroke-dasharray:5.0,5.0;" x1="628" x2="628" y1="149.4844" y2="455.9688"/><line style="stroke:#181818;stroke-width:0.5;stroke-dasharray:5.0,5.0;" x1="888.5" x2="888.5" y1="80.6406" y2="455.9688"/><text fill="#000000" font-family="sans-serif" font-size="14" lengthAdjust="spacing" textLength="83" x="5" y="77.6738">Administrator</text><ellipse cx="49.5" cy="13.5" fill="#E3E3E3" rx="8" ry="8" style="stroke:#181818;stroke-width:0.5;"/><path d="M49.5,21.5 L49.5,48.5 M36.5,29.5 L62.5,29.5 M49.5,48.5 L36.5,63.5 M49.5,48.5 L62.5,63.5 " fill="none" style="stroke:#181818;stroke-width:0.5;"/><text fill="#000000" font-family="sans-serif" font-size="14" lengthAdjust="spacing" textLength="83" x="5" y="467.6426">Administrator</text><ellipse cx="49.5" cy="479.1094" fill="#E3E3E3" rx="8" ry="8" style="stroke:#181818;stroke-width:0.5;"/><path d="M49.5,487.1094 L49.5,514.1094 M36.5,495.1094 L62.5,495.1094 M49.5,514.1094 L36.5,529.1094 M49.5,514.1094 L62.5,529.1094 " fill="none" style="stroke:#181818;stroke-width:0.5;"/><rect fill="#E3E3E3" height="29.6406" rx="2.5" ry="2.5" style="stroke:#181818;stroke-width:0.5;" width="99" x="319" y="50"/><text fill="#000000" font-family="sans-serif" font-size="14" lengthAdjust="spacing" textLength="85" x="326" y="69.6738">:CreatStoreUI</text><rect fill="#E3E3E3" height="29.6406" rx="2.5" ry="2.5" style="stroke:#181818;stroke-width:0.5;" width="99" x="319" y="454.9688"/><text fill="#000000" font-family="sans-serif" font-size="14" lengthAdjust="spacing" textLength="85" x="326" y="474.6426">:CreatStoreUI</text><rect fill="#E3E3E3" height="29.6406" rx="2.5" ry="2.5" style="stroke:#181818;stroke-width:0.5;" width="157" x="550" y="454.9688"/><text fill="#000000" font-family="sans-serif" font-size="14" lengthAdjust="spacing" textLength="143" x="557" y="474.6426">:CreateStoreController</text><rect fill="#E3E3E3" height="45.2813" rx="2.5" ry="2.5" style="stroke:#181818;stroke-width:0.5;" width="80" x="848.5" y="34.3594"/><text fill="#000000" font-family="sans-serif" font-size="14" lengthAdjust="spacing" textLength="61" x="858" y="54.0332">employee</text><text fill="#000000" font-family="sans-serif" font-size="14" lengthAdjust="spacing" textLength="66" x="855.5" y="69.6738">:Employee</text><rect fill="#E3E3E3" height="45.2813" rx="2.5" ry="2.5" style="stroke:#181818;stroke-width:0.5;" width="80" x="848.5" y="454.9688"/><text fill="#000000" font-family="sans-serif" font-size="14" lengthAdjust="spacing" textLength="61" x="858" y="474.6426">employee</text><text fill="#000000" font-family="sans-serif" font-size="14" lengthAdjust="spacing" textLength="66" x="855.5" y="490.2832">:Employee</text><rect fill="#FFFFFF" height="347.3281" style="stroke:#181818;stroke-width:1.0;" width="10" x="44.5" y="90.6406"/><rect fill="#FFFFFF" height="69.1641" style="stroke:#181818;stroke-width:1.0;" width="10" x="363.5" y="111.1641"/><rect fill="#FFFFFF" height="214.5938" style="stroke:#181818;stroke-width:1.0;" width="10" x="363.5" y="223.375"/><rect fill="#FFFFFF" height="143.0234" style="stroke:#181818;stroke-width:1.0;" width="10" x="623.5" y="266.4219"/><rect fill="#FFFFFF" height="71.4531" style="stroke:#181818;stroke-width:1.0;" width="10" x="883.5" y="309.4688"/><polygon fill="#181818" points="351.5,107.1641,361.5,111.1641,351.5,115.1641,355.5,111.1641" style="stroke:#181818;stroke-width:1.0;"/><line style="stroke:#181818;stroke-width:1.0;" x1="54.5" x2="357.5" y1="111.1641" y2="111.1641"/><text fill="#000000" font-family="sans-serif" font-size="13" font-weight="bold" lengthAdjust="spacing" textLength="7" x="61.5" y="106.4092">1</text><text fill="#000000" font-family="sans-serif" font-size="13" lengthAdjust="spacing" textLength="161" x="72.5" y="106.4092">asks to register a new store</text><polygon fill="#181818" points="538,135.6875,548,139.6875,538,143.6875,542,139.6875" style="stroke:#181818;stroke-width:1.0;"/><line style="stroke:#181818;stroke-width:1.0;" x1="373.5" x2="544" y1="139.6875" y2="139.6875"/><text fill="#000000" font-family="sans-serif" font-size="13" font-weight="bold" lengthAdjust="spacing" textLength="7" x="380.5" y="134.9326">2</text><text fill="#000000" font-family="sans-serif" font-size="13" lengthAdjust="spacing" textLength="36" x="391.5" y="134.9326">create</text><rect fill="#E3E3E3" height="29.6406" rx="2.5" ry="2.5" style="stroke:#181818;stroke-width:0.5;" width="157" x="550" y="119.1641"/><text fill="#000000" font-family="sans-serif" font-size="14" lengthAdjust="spacing" textLength="143" x="557" y="138.8379">:CreateStoreController</text><polygon fill="#181818" points="65.5,176.3281,55.5,180.3281,65.5,184.3281,61.5,180.3281" style="stroke:#181818;stroke-width:1.0;"/><line style="stroke:#181818;stroke-width:1.0;stroke-dasharray:2.0,2.0;" x1="59.5" x2="367.5" y1="180.3281" y2="180.3281"/><text fill="#000000" font-family="sans-serif" font-size="13" font-weight="bold" lengthAdjust="spacing" textLength="7" x="71.5" y="175.5732">3</text><text fill="#000000" font-family="sans-serif" font-size="13" lengthAdjust="spacing" textLength="105" x="82.5" y="175.5732">request store data</text><polygon fill="#181818" points="351.5,219.375,361.5,223.375,351.5,227.375,355.5,223.375" style="stroke:#181818;stroke-width:1.0;"/><line style="stroke:#181818;stroke-width:1.0;" x1="54.5" x2="357.5" y1="223.375" y2="223.375"/><text fill="#000000" font-family="sans-serif" font-size="13" font-weight="bold" lengthAdjust="spacing" textLength="7" x="61.5" y="211.3584">4</text><text fill="#000000" font-family="sans-serif" font-size="13" lengthAdjust="spacing" textLength="279" x="72.5" y="204.0967">types requested data (ID, name, address, email,</text><text fill="#000000" font-family="sans-serif" font-size="13" lengthAdjust="spacing" textLength="84" x="76.5" y="218.6201">phoneNumber)</text><polygon fill="#181818" points="611.5,262.4219,621.5,266.4219,611.5,270.4219,615.5,266.4219" style="stroke:#181818;stroke-width:1.0;"/><line style="stroke:#181818;stroke-width:1.0;" x1="373.5" x2="617.5" y1="266.4219" y2="266.4219"/><text fill="#000000" font-family="sans-serif" font-size="13" font-weight="bold" lengthAdjust="spacing" textLength="7" x="380.5" y="254.4053">5</text><text fill="#000000" font-family="sans-serif" font-size="13" lengthAdjust="spacing" textLength="220" x="391.5" y="247.1436">createStore(ID, name, address, email,</text><text fill="#000000" font-family="sans-serif" font-size="13" lengthAdjust="spacing" textLength="84" x="391.5" y="261.667">phoneNumber)</text><polygon fill="#181818" points="871.5,305.4688,881.5,309.4688,871.5,313.4688,875.5,309.4688" style="stroke:#181818;stroke-width:1.0;"/><line style="stroke:#181818;stroke-width:1.0;" x1="633.5" x2="877.5" y1="309.4688" y2="309.4688"/><text fill="#000000" font-family="sans-serif" font-size="13" font-weight="bold" lengthAdjust="spacing" textLength="7" x="640.5" y="297.4521">6</text><text fill="#000000" font-family="sans-serif" font-size="13" lengthAdjust="spacing" textLength="220" x="651.5" y="290.1904">createStore(ID, name, address, email,</text><text fill="#000000" font-family="sans-serif" font-size="13" lengthAdjust="spacing" textLength="84" x="655.5" y="304.7139">phoneNumber)</text><rect fill="none" height="37.9297" style="stroke:#000000;stroke-width:1.5;" width="86" x="845.5" y="317.4688"/><path d="M845.5,317.4688 L907.5,317.4688 L907.5,323.4688 L897.5,333.4688 L845.5,333.4688 L845.5,317.4688 " fill="#EEEEEE" style="stroke:#000000;stroke-width:2.0;"/><text fill="#000000" font-family="sans-serif" font-size="13" font-weight="bold" lengthAdjust="spacing" textLength="17" x="858.5" y="331.2373">ref</text><text fill="#000000" font-family="sans-serif" font-size="12" lengthAdjust="spacing" textLength="69" x="854" y="348.332">Create Store</text><polygon fill="#181818" points="644.5,376.9219,634.5,380.9219,644.5,384.9219,640.5,380.9219" style="stroke:#181818;stroke-width:1.0;"/><line style="stroke:#181818;stroke-width:1.0;stroke-dasharray:2.0,2.0;" x1="638.5" x2="887.5" y1="380.9219" y2="380.9219"/><text fill="#000000" font-family="sans-serif" font-size="13" font-weight="bold" lengthAdjust="spacing" textLength="7" x="650.5" y="376.167">7</text><text fill="#000000" font-family="sans-serif" font-size="13" lengthAdjust="spacing" textLength="29" x="661.5" y="376.167">store</text><polygon fill="#181818" points="384.5,405.4453,374.5,409.4453,384.5,413.4453,380.5,409.4453" style="stroke:#181818;stroke-width:1.0;"/><line style="stroke:#181818;stroke-width:1.0;stroke-dasharray:2.0,2.0;" x1="378.5" x2="627.5" y1="409.4453" y2="409.4453"/><text fill="#000000" font-family="sans-serif" font-size="13" font-weight="bold" lengthAdjust="spacing" textLength="7" x="390.5" y="404.6904">8</text><text fill="#000000" font-family="sans-serif" font-size="13" lengthAdjust="spacing" textLength="29" x="401.5" y="404.6904">store</text><polygon fill="#181818" points="60.5,433.9688,50.5,437.9688,60.5,441.9688,56.5,437.9688" style="stroke:#181818;stroke-width:1.0;"/><line style="stroke:#181818;stroke-width:1.0;stroke-dasharray:2.0,2.0;" x1="54.5" x2="367.5" y1="437.9688" y2="437.9688"/><text fill="#000000" font-family="sans-serif" font-size="13" font-weight="bold" lengthAdjust="spacing" textLength="7" x="66.5" y="433.2139">9</text><text fill="#000000" font-family="sans-serif" font-size="13" lengthAdjust="spacing" textLength="158" x="77.5" y="433.2139">displays operation success</text><!--SRC=[bLHDSzem4BthL-nm0JBm1pWmav9CXndITaXposMn5d2H9LSIfFpxhcG7v0_IL2Txz-dfxUwJt27N9Leie33QP7jh2W9lZoJS9LDYTi0TFVkp8h2KUTGxbGBS7gLvo_KEjgWS2O57R_Ins90LOhZF9S7M6BynVmHctbWOtCiYrxdp5lbt0EZW_k59C9lFixn4xM4mMrX2_ynvUbb6oCko3q4HiZ3QMwCKLMoBd-jL4qn5gSoPw5NF7klFY5m__X11LNvYggX202_-WEcSZuGPemuElE7ITooPB21eUWCNpgtGb_qiCGR2uhtC49JStJ5B5iMAuJKzdOSaftPKrVc4cljitMXyXJNeOrcDL5YMjc1EhAi_7TPNyX2FWFeCM74fOjX5avRjSA2TJkUn5oxHML6aI4ajgMcvm1onhpCehJa5LqGsA6f9wiANy717X-yywL0SANOYEK0j-KTBrsBRifKJofjZweYpzFj8pjTq4ZrUmKrXNQluSycIQWQISJUCbWyJq5ZG151AIyvDW0hCrUHLGxatchx5kpB-Z9SkJehZ_8YwmzorKZAzo5sV4HsvCXcgUj9VpckZQAIIK0YCk_QvEV__D6o_QRzlVl7GRz56wxQ3TLrLMMa1NMZRlKsFl3U87unFZm1wPz3eKtn_RZOePFjAhLw-gZkYhm-T83D5ZzSUSfsTIVKTJLNjqUJ_s1eRrt-rPY1pLoeyEp0bySkV6mtkc6NSCj5pkPBVy2p_1G00]--></g></svg>