<?xml version="1.0" encoding="us-ascii" standalone="no"?><svg xmlns="http://www.w3.org/2000/svg" xmlns:xlink="http://www.w3.org/1999/xlink" contentStyleType="text/css" height="799px" preserveAspectRatio="none" style="width:1380px;height:799px;background:#FFFFFF;" version="1.1" viewBox="0 0 1380 799" width="1380px" zoomAndPan="magnify"><defs><filter height="300%" id="fiwbdc3q5ywdu" width="300%" x="-1" y="-1"><feGaussianBlur result="blurOut" stdDeviation="2.0"/><feColorMatrix in="blurOut" result="blurOut2" type="matrix" values="0 0 0 0 0 0 0 0 0 0 0 0 0 0 0 0 0 0 .4 0"/><feOffset dx="4.0" dy="4.0" in="blurOut2" result="blurOut3"/><feBlend in="SourceGraphic" in2="blurOut3" mode="normal"/></filter></defs><g><!--class ApplicationSession--><g id="elem_ApplicationSession"><rect codeLine="11" fill="#F1F1F1" filter="url(#fiwbdc3q5ywdu)" height="79.2813" id="ApplicationSession" rx="2.5" ry="2.5" style="stroke:#181818;stroke-width:0.5;" width="154" x="7" y="232.5"/><ellipse cx="23.35" cy="248.5" fill="#ADD1B2" rx="11" ry="11" style="stroke:#181818;stroke-width:1.0;"/><path d="M26.1156,244.375 Q26.2719,244.1563 26.4594,244.0469 Q26.6469,243.9375 26.8656,243.9375 Q27.2406,243.9375 27.475,244.2031 Q27.7094,244.4531 27.7094,245.0625 L27.7094,246.5156 Q27.7094,247.125 27.475,247.3906 Q27.2406,247.6563 26.8656,247.6563 Q26.5219,247.6563 26.3188,247.4531 Q26.1156,247.2656 26.0063,246.75 Q25.9594,246.3906 25.7719,246.2031 Q25.4438,245.8281 24.8344,245.6094 Q24.225,245.3906 23.6,245.3906 Q22.8344,245.3906 22.1938,245.7188 Q21.5688,246.0469 21.0688,246.7969 Q20.5844,247.5469 20.5844,248.5781 L20.5844,249.6719 Q20.5844,250.9063 21.475,251.7344 Q22.3656,252.5469 23.9594,252.5469 Q24.8969,252.5469 25.5531,252.2969 Q25.9438,252.1406 26.3656,251.7031 Q26.6313,251.4375 26.7719,251.3594 Q26.9281,251.2813 27.1313,251.2813 Q27.4594,251.2813 27.7094,251.5469 Q27.975,251.7969 27.975,252.1406 Q27.975,252.4844 27.6313,252.8906 Q27.1313,253.4688 26.3344,253.7969 Q25.2563,254.25 23.9594,254.25 Q22.4438,254.25 21.2406,253.625 Q20.2563,253.125 19.5688,252.0625 Q18.8813,250.9844 18.8813,249.7031 L18.8813,248.5469 Q18.8813,247.2188 19.4906,246.0781 Q20.1156,244.9219 21.2094,244.3125 Q22.3031,243.6875 23.5375,243.6875 Q24.2719,243.6875 24.9125,243.8594 Q25.5688,244.0156 26.1156,244.375 Z " fill="#000000"/><text fill="#000000" font-family="sans-serif" font-size="14" lengthAdjust="spacing" textLength="119" x="37.65" y="253.3535">ApplicationSession</text><line style="stroke:#181818;stroke-width:0.5;" x1="8" x2="160" y1="264.5" y2="264.5"/><line style="stroke:#181818;stroke-width:0.5;" x1="8" x2="160" y1="272.5" y2="272.5"/><ellipse cx="18" cy="285.8203" fill="#84BE84" rx="3" ry="3" style="stroke:#038048;stroke-width:1.0;"/><text fill="#000000" font-family="sans-serif" font-size="14" lengthAdjust="spacing" textLength="120" x="27" y="289.1738">static getInstance()</text><ellipse cx="18" cy="301.4609" fill="#84BE84" rx="3" ry="3" style="stroke:#038048;stroke-width:1.0;"/><text fill="#000000" font-family="sans-serif" font-size="14" lengthAdjust="spacing" textLength="128" x="27" y="304.8145">getCurrentSession()</text></g><!--class UserSession--><g id="elem_UserSession"><rect codeLine="17" fill="#F1F1F1" filter="url(#fiwbdc3q5ywdu)" height="63.6406" id="UserSession" rx="2.5" ry="2.5" style="stroke:#181818;stroke-width:0.5;" width="119" x="185.5" y="411"/><ellipse cx="204.1" cy="427" fill="#ADD1B2" rx="11" ry="11" style="stroke:#181818;stroke-width:1.0;"/><path d="M206.8656,422.875 Q207.0219,422.6563 207.2094,422.5469 Q207.3969,422.4375 207.6156,422.4375 Q207.9906,422.4375 208.225,422.7031 Q208.4594,422.9531 208.4594,423.5625 L208.4594,425.0156 Q208.4594,425.625 208.225,425.8906 Q207.9906,426.1563 207.6156,426.1563 Q207.2719,426.1563 207.0688,425.9531 Q206.8656,425.7656 206.7563,425.25 Q206.7094,424.8906 206.5219,424.7031 Q206.1938,424.3281 205.5844,424.1094 Q204.975,423.8906 204.35,423.8906 Q203.5844,423.8906 202.9438,424.2188 Q202.3188,424.5469 201.8188,425.2969 Q201.3344,426.0469 201.3344,427.0781 L201.3344,428.1719 Q201.3344,429.4063 202.225,430.2344 Q203.1156,431.0469 204.7094,431.0469 Q205.6469,431.0469 206.3031,430.7969 Q206.6938,430.6406 207.1156,430.2031 Q207.3813,429.9375 207.5219,429.8594 Q207.6781,429.7813 207.8813,429.7813 Q208.2094,429.7813 208.4594,430.0469 Q208.725,430.2969 208.725,430.6406 Q208.725,430.9844 208.3813,431.3906 Q207.8813,431.9688 207.0844,432.2969 Q206.0063,432.75 204.7094,432.75 Q203.1938,432.75 201.9906,432.125 Q201.0063,431.625 200.3188,430.5625 Q199.6313,429.4844 199.6313,428.2031 L199.6313,427.0469 Q199.6313,425.7188 200.2406,424.5781 Q200.8656,423.4219 201.9594,422.8125 Q203.0531,422.1875 204.2875,422.1875 Q205.0219,422.1875 205.6625,422.3594 Q206.3188,422.5156 206.8656,422.875 Z " fill="#000000"/><text fill="#000000" font-family="sans-serif" font-size="14" lengthAdjust="spacing" textLength="79" x="218.9" y="431.8535">UserSession</text><line style="stroke:#181818;stroke-width:0.5;" x1="186.5" x2="303.5" y1="443" y2="443"/><line style="stroke:#181818;stroke-width:0.5;" x1="186.5" x2="303.5" y1="451" y2="451"/><ellipse cx="196.5" cy="464.3203" fill="#84BE84" rx="3" ry="3" style="stroke:#038048;stroke-width:1.0;"/><text fill="#000000" font-family="sans-serif" font-size="14" lengthAdjust="spacing" textLength="93" x="205.5" y="467.6738">getUserEmail()</text></g><!--class Administrator--><g id="elem_Administrator"><rect codeLine="22" fill="#F1F1F1" filter="url(#fiwbdc3q5ywdu)" height="48" id="Administrator" rx="2.5" ry="2.5" style="stroke:#181818;stroke-width:0.5;" width="115" x="694.5" y="505"/><ellipse cx="709.5" cy="521" fill="#ADD1B2" rx="11" ry="11" style="stroke:#181818;stroke-width:1.0;"/><path d="M712.2656,516.875 Q712.4219,516.6563 712.6094,516.5469 Q712.7969,516.4375 713.0156,516.4375 Q713.3906,516.4375 713.625,516.7031 Q713.8594,516.9531 713.8594,517.5625 L713.8594,519.0156 Q713.8594,519.625 713.625,519.8906 Q713.3906,520.1563 713.0156,520.1563 Q712.6719,520.1563 712.4688,519.9531 Q712.2656,519.7656 712.1563,519.25 Q712.1094,518.8906 711.9219,518.7031 Q711.5938,518.3281 710.9844,518.1094 Q710.375,517.8906 709.75,517.8906 Q708.9844,517.8906 708.3438,518.2188 Q707.7188,518.5469 707.2188,519.2969 Q706.7344,520.0469 706.7344,521.0781 L706.7344,522.1719 Q706.7344,523.4063 707.625,524.2344 Q708.5156,525.0469 710.1094,525.0469 Q711.0469,525.0469 711.7031,524.7969 Q712.0938,524.6406 712.5156,524.2031 Q712.7813,523.9375 712.9219,523.8594 Q713.0781,523.7813 713.2813,523.7813 Q713.6094,523.7813 713.8594,524.0469 Q714.125,524.2969 714.125,524.6406 Q714.125,524.9844 713.7813,525.3906 Q713.2813,525.9688 712.4844,526.2969 Q711.4063,526.75 710.1094,526.75 Q708.5938,526.75 707.3906,526.125 Q706.4063,525.625 705.7188,524.5625 Q705.0313,523.4844 705.0313,522.2031 L705.0313,521.0469 Q705.0313,519.7188 705.6406,518.5781 Q706.2656,517.4219 707.3594,516.8125 Q708.4531,516.1875 709.6875,516.1875 Q710.4219,516.1875 711.0625,516.3594 Q711.7188,516.5156 712.2656,516.875 Z " fill="#000000"/><text fill="#000000" font-family="sans-serif" font-size="14" lengthAdjust="spacing" textLength="83" x="723.5" y="525.8535">Administrator</text><line style="stroke:#181818;stroke-width:0.5;" x1="695.5" x2="808.5" y1="537" y2="537"/><line style="stroke:#181818;stroke-width:0.5;" x1="695.5" x2="808.5" y1="545" y2="545"/></g><!--class Address--><g id="elem_Address"><rect codeLine="24" fill="#F1F1F1" filter="url(#fiwbdc3q5ywdu)" height="94.9219" id="Address" rx="2.5" ry="2.5" style="stroke:#181818;stroke-width:0.5;" width="155" x="346.5" y="224.5"/><ellipse cx="393.75" cy="240.5" fill="#ADD1B2" rx="11" ry="11" style="stroke:#181818;stroke-width:1.0;"/><path d="M396.5156,236.375 Q396.6719,236.1563 396.8594,236.0469 Q397.0469,235.9375 397.2656,235.9375 Q397.6406,235.9375 397.875,236.2031 Q398.1094,236.4531 398.1094,237.0625 L398.1094,238.5156 Q398.1094,239.125 397.875,239.3906 Q397.6406,239.6563 397.2656,239.6563 Q396.9219,239.6563 396.7188,239.4531 Q396.5156,239.2656 396.4063,238.75 Q396.3594,238.3906 396.1719,238.2031 Q395.8438,237.8281 395.2344,237.6094 Q394.625,237.3906 394,237.3906 Q393.2344,237.3906 392.5938,237.7188 Q391.9688,238.0469 391.4688,238.7969 Q390.9844,239.5469 390.9844,240.5781 L390.9844,241.6719 Q390.9844,242.9063 391.875,243.7344 Q392.7656,244.5469 394.3594,244.5469 Q395.2969,244.5469 395.9531,244.2969 Q396.3438,244.1406 396.7656,243.7031 Q397.0313,243.4375 397.1719,243.3594 Q397.3281,243.2813 397.5313,243.2813 Q397.8594,243.2813 398.1094,243.5469 Q398.375,243.7969 398.375,244.1406 Q398.375,244.4844 398.0313,244.8906 Q397.5313,245.4688 396.7344,245.7969 Q395.6563,246.25 394.3594,246.25 Q392.8438,246.25 391.6406,245.625 Q390.6563,245.125 389.9688,244.0625 Q389.2813,242.9844 389.2813,241.7031 L389.2813,240.5469 Q389.2813,239.2188 389.8906,238.0781 Q390.5156,236.9219 391.6094,236.3125 Q392.7031,235.6875 393.9375,235.6875 Q394.6719,235.6875 395.3125,235.8594 Q395.9688,236.0156 396.5156,236.375 Z " fill="#000000"/><text fill="#000000" font-family="sans-serif" font-size="14" lengthAdjust="spacing" textLength="52" x="414.25" y="245.3535">Address</text><line style="stroke:#181818;stroke-width:0.5;" x1="347.5" x2="500.5" y1="256.5" y2="256.5"/><rect fill="none" height="6" style="stroke:#C82930;stroke-width:1.0;" width="6" x="354.5" y="266.8203"/><text fill="#000000" font-family="sans-serif" font-size="14" lengthAdjust="spacing" textLength="129" x="366.5" y="273.1738">String streetAddress</text><rect fill="none" height="6" style="stroke:#C82930;stroke-width:1.0;" width="6" x="354.5" y="282.4609"/><text fill="#000000" font-family="sans-serif" font-size="14" lengthAdjust="spacing" textLength="72" x="366.5" y="288.8145">String state</text><rect fill="none" height="6" style="stroke:#C82930;stroke-width:1.0;" width="6" x="354.5" y="298.1016"/><text fill="#000000" font-family="sans-serif" font-size="14" lengthAdjust="spacing" textLength="99" x="366.5" y="304.4551">Integer zipCode</text><line style="stroke:#181818;stroke-width:0.5;" x1="347.5" x2="500.5" y1="311.4219" y2="311.4219"/></g><!--class Store--><g id="elem_Store"><rect codeLine="30" fill="#F1F1F1" filter="url(#fiwbdc3q5ywdu)" height="126.2031" id="Store" rx="2.5" ry="2.5" style="stroke:#181818;stroke-width:0.5;" width="163" x="688.5" y="209"/><ellipse cx="748.75" cy="225" fill="#ADD1B2" rx="11" ry="11" style="stroke:#181818;stroke-width:1.0;"/><path d="M751.5156,220.875 Q751.6719,220.6563 751.8594,220.5469 Q752.0469,220.4375 752.2656,220.4375 Q752.6406,220.4375 752.875,220.7031 Q753.1094,220.9531 753.1094,221.5625 L753.1094,223.0156 Q753.1094,223.625 752.875,223.8906 Q752.6406,224.1563 752.2656,224.1563 Q751.9219,224.1563 751.7188,223.9531 Q751.5156,223.7656 751.4063,223.25 Q751.3594,222.8906 751.1719,222.7031 Q750.8438,222.3281 750.2344,222.1094 Q749.625,221.8906 749,221.8906 Q748.2344,221.8906 747.5938,222.2188 Q746.9688,222.5469 746.4688,223.2969 Q745.9844,224.0469 745.9844,225.0781 L745.9844,226.1719 Q745.9844,227.4063 746.875,228.2344 Q747.7656,229.0469 749.3594,229.0469 Q750.2969,229.0469 750.9531,228.7969 Q751.3438,228.6406 751.7656,228.2031 Q752.0313,227.9375 752.1719,227.8594 Q752.3281,227.7813 752.5313,227.7813 Q752.8594,227.7813 753.1094,228.0469 Q753.375,228.2969 753.375,228.6406 Q753.375,228.9844 753.0313,229.3906 Q752.5313,229.9688 751.7344,230.2969 Q750.6563,230.75 749.3594,230.75 Q747.8438,230.75 746.6406,230.125 Q745.6563,229.625 744.9688,228.5625 Q744.2813,227.4844 744.2813,226.2031 L744.2813,225.0469 Q744.2813,223.7188 744.8906,222.5781 Q745.5156,221.4219 746.6094,220.8125 Q747.7031,220.1875 748.9375,220.1875 Q749.6719,220.1875 750.3125,220.3594 Q750.9688,220.5156 751.5156,220.875 Z " fill="#000000"/><text fill="#000000" font-family="sans-serif" font-size="14" lengthAdjust="spacing" textLength="34" x="769.25" y="229.8535">Store</text><line style="stroke:#181818;stroke-width:0.5;" x1="689.5" x2="850.5" y1="241" y2="241"/><rect fill="none" height="6" style="stroke:#C82930;stroke-width:1.0;" width="6" x="696.5" y="251.3203"/><text fill="#000000" font-family="sans-serif" font-size="14" lengthAdjust="spacing" textLength="61" x="708.5" y="257.6738">Integer ID</text><rect fill="none" height="6" style="stroke:#C82930;stroke-width:1.0;" width="6" x="696.5" y="266.9609"/><text fill="#000000" font-family="sans-serif" font-size="14" lengthAdjust="spacing" textLength="114" x="708.5" y="273.3145">String designation</text><rect fill="none" height="6" style="stroke:#C82930;stroke-width:1.0;" width="6" x="696.5" y="282.6016"/><text fill="#000000" font-family="sans-serif" font-size="14" lengthAdjust="spacing" textLength="92" x="708.5" y="288.9551">String address</text><rect fill="none" height="6" style="stroke:#C82930;stroke-width:1.0;" width="6" x="696.5" y="298.2422"/><text fill="#000000" font-family="sans-serif" font-size="14" lengthAdjust="spacing" textLength="74" x="708.5" y="304.5957">String email</text><rect fill="none" height="6" style="stroke:#C82930;stroke-width:1.0;" width="6" x="696.5" y="313.8828"/><text fill="#000000" font-family="sans-serif" font-size="14" lengthAdjust="spacing" textLength="137" x="708.5" y="320.2363">Integer phoneNumber</text><line style="stroke:#181818;stroke-width:0.5;" x1="689.5" x2="850.5" y1="327.2031" y2="327.2031"/></g><!--class Employee--><g id="elem_Employee"><rect codeLine="38" fill="#F1F1F1" filter="url(#fiwbdc3q5ywdu)" height="204.4063" id="Employee" rx="2.5" ry="2.5" style="stroke:#181818;stroke-width:0.5;" width="412" x="480" y="583"/><ellipse cx="650.75" cy="599" fill="#B4A7E5" rx="11" ry="11" style="stroke:#181818;stroke-width:1.0;"/><path d="M651.7031,595.6406 L651.7031,602.2969 L653.4219,602.2969 Q654.0313,602.2969 654.2969,602.5313 Q654.5625,602.7656 654.5625,603.1563 Q654.5625,603.5313 654.2969,603.7656 Q654.0313,604 653.4219,604 L648.2813,604 Q647.6719,604 647.4063,603.7656 Q647.1406,603.5313 647.1406,603.1406 Q647.1406,602.7656 647.4063,602.5313 Q647.6719,602.2969 648.2813,602.2969 L650,602.2969 L650,595.6406 L648.2813,595.6406 Q647.6719,595.6406 647.4063,595.4063 Q647.1406,595.1719 647.1406,594.7813 Q647.1406,594.4063 647.4063,594.1719 Q647.6719,593.9375 648.2813,593.9375 L653.4219,593.9375 Q654.0313,593.9375 654.2969,594.1719 Q654.5625,594.4063 654.5625,594.7813 Q654.5625,595.1719 654.2969,595.4063 Q654.0313,595.6406 653.4219,595.6406 L651.7031,595.6406 Z " fill="#000000"/><text fill="#000000" font-family="sans-serif" font-size="14" font-style="italic" lengthAdjust="spacing" textLength="62" x="671.25" y="603.8535">Employee</text><line style="stroke:#181818;stroke-width:0.5;" x1="481" x2="891" y1="615" y2="615"/><rect fill="none" height="6" style="stroke:#C82930;stroke-width:1.0;" width="6" x="488" y="625.3203"/><text fill="#000000" font-family="sans-serif" font-size="14" lengthAdjust="spacing" textLength="76" x="500" y="631.6738">String name</text><rect fill="none" height="6" style="stroke:#C82930;stroke-width:1.0;" width="6" x="488" y="640.9609"/><text fill="#000000" font-family="sans-serif" font-size="14" lengthAdjust="spacing" textLength="152" x="500" y="647.3145">Integer passportNumber</text><rect fill="none" height="6" style="stroke:#C82930;stroke-width:1.0;" width="6" x="488" y="656.6016"/><text fill="#000000" font-family="sans-serif" font-size="14" lengthAdjust="spacing" textLength="115" x="500" y="662.9551">String taxNumber</text><rect fill="none" height="6" style="stroke:#C82930;stroke-width:1.0;" width="6" x="488" y="672.2422"/><text fill="#000000" font-family="sans-serif" font-size="14" lengthAdjust="spacing" textLength="100" x="500" y="678.5957">Address address</text><rect fill="none" height="6" style="stroke:#C82930;stroke-width:1.0;" width="6" x="488" y="687.8828"/><text fill="#000000" font-family="sans-serif" font-size="14" lengthAdjust="spacing" textLength="74" x="500" y="694.2363">String email</text><rect fill="none" height="6" style="stroke:#C82930;stroke-width:1.0;" width="6" x="488" y="703.5234"/><text fill="#000000" font-family="sans-serif" font-size="14" lengthAdjust="spacing" textLength="137" x="500" y="709.877">Integer phoneNumber</text><line style="stroke:#181818;stroke-width:0.5;" x1="481" x2="891" y1="716.8438" y2="716.8438"/><rect fill="#F24D5C" height="6" style="stroke:#C82930;stroke-width:1.0;" width="6" x="488" y="727.1641"/><text fill="#000000" font-family="sans-serif" font-size="14" lengthAdjust="spacing" textLength="100" x="500" y="733.5176">addStore(store)</text><rect fill="#F24D5C" height="6" style="stroke:#C82930;stroke-width:1.0;" width="6" x="488" y="742.8047"/><text fill="#000000" font-family="sans-serif" font-size="14" lengthAdjust="spacing" textLength="125" x="500" y="749.1582">validateStore(store)</text><ellipse cx="491" cy="769.2656" fill="#84BE84" rx="3" ry="3" style="stroke:#038048;stroke-width:1.0;"/><text fill="#000000" font-family="sans-serif" font-size="14" lengthAdjust="spacing" textLength="386" x="500" y="764.7988">createStore(ID, name, location, emailAddress, phoneNumber,</text><text fill="#000000" font-family="sans-serif" font-size="14" lengthAdjust="spacing" textLength="93" x="504" y="780.4395">storeManager)</text></g><!--class Repositories--><g id="elem_Repositories"><rect codeLine="52" fill="#F1F1F1" filter="url(#fiwbdc3q5ywdu)" height="94.9219" id="Repositories" rx="2.5" ry="2.5" style="stroke:#181818;stroke-width:0.5;" width="200" x="1077" y="224.5"/><ellipse cx="1133.25" cy="240.5" fill="#ADD1B2" rx="11" ry="11" style="stroke:#181818;stroke-width:1.0;"/><path d="M1136.0156,236.375 Q1136.1719,236.1563 1136.3594,236.0469 Q1136.5469,235.9375 1136.7656,235.9375 Q1137.1406,235.9375 1137.375,236.2031 Q1137.6094,236.4531 1137.6094,237.0625 L1137.6094,238.5156 Q1137.6094,239.125 1137.375,239.3906 Q1137.1406,239.6563 1136.7656,239.6563 Q1136.4219,239.6563 1136.2188,239.4531 Q1136.0156,239.2656 1135.9063,238.75 Q1135.8594,238.3906 1135.6719,238.2031 Q1135.3438,237.8281 1134.7344,237.6094 Q1134.125,237.3906 1133.5,237.3906 Q1132.7344,237.3906 1132.0938,237.7188 Q1131.4688,238.0469 1130.9688,238.7969 Q1130.4844,239.5469 1130.4844,240.5781 L1130.4844,241.6719 Q1130.4844,242.9063 1131.375,243.7344 Q1132.2656,244.5469 1133.8594,244.5469 Q1134.7969,244.5469 1135.4531,244.2969 Q1135.8438,244.1406 1136.2656,243.7031 Q1136.5313,243.4375 1136.6719,243.3594 Q1136.8281,243.2813 1137.0313,243.2813 Q1137.3594,243.2813 1137.6094,243.5469 Q1137.875,243.7969 1137.875,244.1406 Q1137.875,244.4844 1137.5313,244.8906 Q1137.0313,245.4688 1136.2344,245.7969 Q1135.1563,246.25 1133.8594,246.25 Q1132.3438,246.25 1131.1406,245.625 Q1130.1563,245.125 1129.4688,244.0625 Q1128.7813,242.9844 1128.7813,241.7031 L1128.7813,240.5469 Q1128.7813,239.2188 1129.3906,238.0781 Q1130.0156,236.9219 1131.1094,236.3125 Q1132.2031,235.6875 1133.4375,235.6875 Q1134.1719,235.6875 1134.8125,235.8594 Q1135.4688,236.0156 1136.0156,236.375 Z " fill="#000000"/><text fill="#000000" font-family="sans-serif" font-size="14" lengthAdjust="spacing" textLength="79" x="1153.75" y="245.3535">Repositories</text><line style="stroke:#181818;stroke-width:0.5;" x1="1078" x2="1276" y1="256.5" y2="256.5"/><line style="stroke:#181818;stroke-width:0.5;" x1="1078" x2="1276" y1="264.5" y2="264.5"/><rect fill="#F24D5C" height="6" style="stroke:#C82930;stroke-width:1.0;" width="6" x="1085" y="274.8203"/><text fill="#000000" font-family="sans-serif" font-size="14" lengthAdjust="spacing" textLength="89" x="1097" y="281.1738">Repositories()</text><ellipse cx="1088" cy="293.4609" fill="#84BE84" rx="3" ry="3" style="stroke:#038048;stroke-width:1.0;"/><text fill="#000000" font-family="sans-serif" font-size="14" lengthAdjust="spacing" textLength="174" x="1097" y="296.8145">getInstance() : Repositories</text><ellipse cx="1088" cy="309.1016" fill="#84BE84" rx="3" ry="3" style="stroke:#038048;stroke-width:1.0;"/><text fill="#000000" font-family="sans-serif" font-size="14" lengthAdjust="spacing" textLength="160" x="1097" y="312.4551">getEmployeeRepository()</text></g><!--class StoreManager--><g id="elem_StoreManager"><rect codeLine="60" fill="#F1F1F1" filter="url(#fiwbdc3q5ywdu)" height="48" id="StoreManager" rx="2.5" ry="2.5" style="stroke:#181818;stroke-width:0.5;" width="122" x="559" y="419"/><ellipse cx="574" cy="435" fill="#ADD1B2" rx="11" ry="11" style="stroke:#181818;stroke-width:1.0;"/><path d="M576.7656,430.875 Q576.9219,430.6563 577.1094,430.5469 Q577.2969,430.4375 577.5156,430.4375 Q577.8906,430.4375 578.125,430.7031 Q578.3594,430.9531 578.3594,431.5625 L578.3594,433.0156 Q578.3594,433.625 578.125,433.8906 Q577.8906,434.1563 577.5156,434.1563 Q577.1719,434.1563 576.9688,433.9531 Q576.7656,433.7656 576.6563,433.25 Q576.6094,432.8906 576.4219,432.7031 Q576.0938,432.3281 575.4844,432.1094 Q574.875,431.8906 574.25,431.8906 Q573.4844,431.8906 572.8438,432.2188 Q572.2188,432.5469 571.7188,433.2969 Q571.2344,434.0469 571.2344,435.0781 L571.2344,436.1719 Q571.2344,437.4063 572.125,438.2344 Q573.0156,439.0469 574.6094,439.0469 Q575.5469,439.0469 576.2031,438.7969 Q576.5938,438.6406 577.0156,438.2031 Q577.2813,437.9375 577.4219,437.8594 Q577.5781,437.7813 577.7813,437.7813 Q578.1094,437.7813 578.3594,438.0469 Q578.625,438.2969 578.625,438.6406 Q578.625,438.9844 578.2813,439.3906 Q577.7813,439.9688 576.9844,440.2969 Q575.9063,440.75 574.6094,440.75 Q573.0938,440.75 571.8906,440.125 Q570.9063,439.625 570.2188,438.5625 Q569.5313,437.4844 569.5313,436.2031 L569.5313,435.0469 Q569.5313,433.7188 570.1406,432.5781 Q570.7656,431.4219 571.8594,430.8125 Q572.9531,430.1875 574.1875,430.1875 Q574.9219,430.1875 575.5625,430.3594 Q576.2188,430.5156 576.7656,430.875 Z " fill="#000000"/><text fill="#000000" font-family="sans-serif" font-size="14" lengthAdjust="spacing" textLength="90" x="588" y="439.8535">StoreManager</text><line style="stroke:#181818;stroke-width:0.5;" x1="560" x2="680" y1="451" y2="451"/><line style="stroke:#181818;stroke-width:0.5;" x1="560" x2="680" y1="459" y2="459"/></g><!--class employeeRepository--><g id="elem_employeeRepository"><rect codeLine="64" fill="#F1F1F1" filter="url(#fiwbdc3q5ywdu)" height="63.6406" id="employeeRepository" rx="2.5" ry="2.5" style="stroke:#181818;stroke-width:0.5;" width="308" x="805" y="411"/><ellipse cx="890.25" cy="427" fill="#ADD1B2" rx="11" ry="11" style="stroke:#181818;stroke-width:1.0;"/><path d="M893.0156,422.875 Q893.1719,422.6563 893.3594,422.5469 Q893.5469,422.4375 893.7656,422.4375 Q894.1406,422.4375 894.375,422.7031 Q894.6094,422.9531 894.6094,423.5625 L894.6094,425.0156 Q894.6094,425.625 894.375,425.8906 Q894.1406,426.1563 893.7656,426.1563 Q893.4219,426.1563 893.2188,425.9531 Q893.0156,425.7656 892.9063,425.25 Q892.8594,424.8906 892.6719,424.7031 Q892.3438,424.3281 891.7344,424.1094 Q891.125,423.8906 890.5,423.8906 Q889.7344,423.8906 889.0938,424.2188 Q888.4688,424.5469 887.9688,425.2969 Q887.4844,426.0469 887.4844,427.0781 L887.4844,428.1719 Q887.4844,429.4063 888.375,430.2344 Q889.2656,431.0469 890.8594,431.0469 Q891.7969,431.0469 892.4531,430.7969 Q892.8438,430.6406 893.2656,430.2031 Q893.5313,429.9375 893.6719,429.8594 Q893.8281,429.7813 894.0313,429.7813 Q894.3594,429.7813 894.6094,430.0469 Q894.875,430.2969 894.875,430.6406 Q894.875,430.9844 894.5313,431.3906 Q894.0313,431.9688 893.2344,432.2969 Q892.1563,432.75 890.8594,432.75 Q889.3438,432.75 888.1406,432.125 Q887.1563,431.625 886.4688,430.5625 Q885.7813,429.4844 885.7813,428.2031 L885.7813,427.0469 Q885.7813,425.7188 886.3906,424.5781 Q887.0156,423.4219 888.1094,422.8125 Q889.2031,422.1875 890.4375,422.1875 Q891.1719,422.1875 891.8125,422.3594 Q892.4688,422.5156 893.0156,422.875 Z " fill="#000000"/><text fill="#000000" font-family="sans-serif" font-size="14" lengthAdjust="spacing" textLength="129" x="910.75" y="431.8535">employeeRepository</text><line style="stroke:#181818;stroke-width:0.5;" x1="806" x2="1112" y1="443" y2="443"/><line style="stroke:#181818;stroke-width:0.5;" x1="806" x2="1112" y1="451" y2="451"/><ellipse cx="816" cy="464.3203" fill="#84BE84" rx="3" ry="3" style="stroke:#038048;stroke-width:1.0;"/><text fill="#000000" font-family="sans-serif" font-size="14" lengthAdjust="spacing" textLength="282" x="825" y="467.6738">getStoreManagerByRole(storeManagerRole)</text></g><!--class CreateStoreController--><g id="elem_CreateStoreController"><rect codeLine="68" fill="#F1F1F1" filter="url(#fiwbdc3q5ywdu)" height="126.2031" id="CreateStoreController" rx="2.5" ry="2.5" style="stroke:#181818;stroke-width:0.5;" width="408" x="368" y="7"/><ellipse cx="498.25" cy="23" fill="#ADD1B2" rx="11" ry="11" style="stroke:#181818;stroke-width:1.0;"/><path d="M501.0156,18.875 Q501.1719,18.6563 501.3594,18.5469 Q501.5469,18.4375 501.7656,18.4375 Q502.1406,18.4375 502.375,18.7031 Q502.6094,18.9531 502.6094,19.5625 L502.6094,21.0156 Q502.6094,21.625 502.375,21.8906 Q502.1406,22.1563 501.7656,22.1563 Q501.4219,22.1563 501.2188,21.9531 Q501.0156,21.7656 500.9063,21.25 Q500.8594,20.8906 500.6719,20.7031 Q500.3438,20.3281 499.7344,20.1094 Q499.125,19.8906 498.5,19.8906 Q497.7344,19.8906 497.0938,20.2188 Q496.4688,20.5469 495.9688,21.2969 Q495.4844,22.0469 495.4844,23.0781 L495.4844,24.1719 Q495.4844,25.4063 496.375,26.2344 Q497.2656,27.0469 498.8594,27.0469 Q499.7969,27.0469 500.4531,26.7969 Q500.8438,26.6406 501.2656,26.2031 Q501.5313,25.9375 501.6719,25.8594 Q501.8281,25.7813 502.0313,25.7813 Q502.3594,25.7813 502.6094,26.0469 Q502.875,26.2969 502.875,26.6406 Q502.875,26.9844 502.5313,27.3906 Q502.0313,27.9688 501.2344,28.2969 Q500.1563,28.75 498.8594,28.75 Q497.3438,28.75 496.1406,28.125 Q495.1563,27.625 494.4688,26.5625 Q493.7813,25.4844 493.7813,24.2031 L493.7813,23.0469 Q493.7813,21.7188 494.3906,20.5781 Q495.0156,19.4219 496.1094,18.8125 Q497.2031,18.1875 498.4375,18.1875 Q499.1719,18.1875 499.8125,18.3594 Q500.4688,18.5156 501.0156,18.875 Z " fill="#000000"/><text fill="#000000" font-family="sans-serif" font-size="14" lengthAdjust="spacing" textLength="139" x="518.75" y="27.8535">CreateStoreController</text><line style="stroke:#181818;stroke-width:0.5;" x1="369" x2="775" y1="39" y2="39"/><line style="stroke:#181818;stroke-width:0.5;" x1="369" x2="775" y1="47" y2="47"/><ellipse cx="379" cy="60.3203" fill="#84BE84" rx="3" ry="3" style="stroke:#038048;stroke-width:1.0;"/><text fill="#000000" font-family="sans-serif" font-size="14" lengthAdjust="spacing" textLength="382" x="388" y="63.6738">CreateStoreController(employeeRepository, userRepository)</text><ellipse cx="379" cy="83.7813" fill="#84BE84" rx="3" ry="3" style="stroke:#038048;stroke-width:1.0;"/><text fill="#000000" font-family="sans-serif" font-size="14" lengthAdjust="spacing" textLength="289" x="388" y="79.3145">createStore(ID, name, location, emailAddress,</text><text fill="#000000" font-family="sans-serif" font-size="14" lengthAdjust="spacing" textLength="190" x="388" y="94.9551">phoneNumber, storeManager)</text><ellipse cx="379" cy="107.2422" fill="#84BE84" rx="3" ry="3" style="stroke:#038048;stroke-width:1.0;"/><text fill="#000000" font-family="sans-serif" font-size="14" lengthAdjust="spacing" textLength="127" x="388" y="110.5957">getStoreManagers()</text><rect fill="#F24D5C" height="6" style="stroke:#C82930;stroke-width:1.0;" width="6" x="376" y="119.8828"/><text fill="#000000" font-family="sans-serif" font-size="14" lengthAdjust="spacing" textLength="175" x="388" y="126.2363">getEmployeeFromSession()</text></g><!--class CreateStoreUI--><g id="elem_CreateStoreUI"><rect codeLine="76" fill="#F1F1F1" filter="url(#fiwbdc3q5ywdu)" height="48" id="CreateStoreUI" rx="2.5" ry="2.5" style="stroke:#181818;stroke-width:0.5;" width="121" x="211.5" y="46"/><ellipse cx="226.5" cy="62" fill="#ADD1B2" rx="11" ry="11" style="stroke:#181818;stroke-width:1.0;"/><path d="M229.2656,57.875 Q229.4219,57.6563 229.6094,57.5469 Q229.7969,57.4375 230.0156,57.4375 Q230.3906,57.4375 230.625,57.7031 Q230.8594,57.9531 230.8594,58.5625 L230.8594,60.0156 Q230.8594,60.625 230.625,60.8906 Q230.3906,61.1563 230.0156,61.1563 Q229.6719,61.1563 229.4688,60.9531 Q229.2656,60.7656 229.1563,60.25 Q229.1094,59.8906 228.9219,59.7031 Q228.5938,59.3281 227.9844,59.1094 Q227.375,58.8906 226.75,58.8906 Q225.9844,58.8906 225.3438,59.2188 Q224.7188,59.5469 224.2188,60.2969 Q223.7344,61.0469 223.7344,62.0781 L223.7344,63.1719 Q223.7344,64.4063 224.625,65.2344 Q225.5156,66.0469 227.1094,66.0469 Q228.0469,66.0469 228.7031,65.7969 Q229.0938,65.6406 229.5156,65.2031 Q229.7813,64.9375 229.9219,64.8594 Q230.0781,64.7813 230.2813,64.7813 Q230.6094,64.7813 230.8594,65.0469 Q231.125,65.2969 231.125,65.6406 Q231.125,65.9844 230.7813,66.3906 Q230.2813,66.9688 229.4844,67.2969 Q228.4063,67.75 227.1094,67.75 Q225.5938,67.75 224.3906,67.125 Q223.4063,66.625 222.7188,65.5625 Q222.0313,64.4844 222.0313,63.2031 L222.0313,62.0469 Q222.0313,60.7188 222.6406,59.5781 Q223.2656,58.4219 224.3594,57.8125 Q225.4531,57.1875 226.6875,57.1875 Q227.4219,57.1875 228.0625,57.3594 Q228.7188,57.5156 229.2656,57.875 Z " fill="#000000"/><text fill="#000000" font-family="sans-serif" font-size="14" lengthAdjust="spacing" textLength="89" x="240.5" y="66.8535">CreateStoreUI</text><line style="stroke:#181818;stroke-width:0.5;" x1="212.5" x2="331.5" y1="78" y2="78"/><line style="stroke:#181818;stroke-width:0.5;" x1="212.5" x2="331.5" y1="86" y2="86"/></g><!--link ApplicationSession to ApplicationSession--><g id="link_ApplicationSession_ApplicationSession"><path codeLine="79" d="M161.21,253.46 C181.06,254.64 196,260.82 196,272 C196,282.22 183.52,288.26 166.21,290.13 " fill="none" id="ApplicationSession-to-ApplicationSession" style="stroke:#181818;stroke-width:1.0;"/><polygon fill="#181818" points="161.21,290.54,170.5103,293.781,166.1928,290.126,169.8479,285.8085,161.21,290.54" style="stroke:#181818;stroke-width:1.0;"/><text fill="#000000" font-family="sans-serif" font-size="13" lengthAdjust="spacing" textLength="49" x="202" y="276.7686">instance</text></g><!--link CreateStoreUI to CreateStoreController--><g id="link_CreateStoreUI_CreateStoreController"><path codeLine="80" d="M332.76,70 C344.27,70 354.97,70 362.28,70 " fill="none" id="CreateStoreUI-to-CreateStoreController" style="stroke:#181818;stroke-width:1.0;stroke-dasharray:7.0,7.0;"/><polygon fill="#181818" points="367.57,70,358.57,66,362.57,70,358.57,74,367.57,70" style="stroke:#181818;stroke-width:1.0;"/></g><!--link ApplicationSession to UserSession--><g id="link_ApplicationSession_UserSession"><path codeLine="81" d="M120.94,311.77 C148.3,340.5 185.28,379.31 211.73,407.08 " fill="none" id="ApplicationSession-to-UserSession" style="stroke:#181818;stroke-width:1.0;"/><polygon fill="#181818" points="215.23,410.75,211.9187,401.4745,211.7814,407.1297,206.1262,406.9923,215.23,410.75" style="stroke:#181818;stroke-width:1.0;"/><text fill="#000000" font-family="sans-serif" font-size="13" lengthAdjust="spacing" textLength="72" x="185" y="377.7686">userSession</text><text fill="#000000" font-family="sans-serif" font-size="13" lengthAdjust="spacing" textLength="7" x="200.9522" y="400.0292">1</text></g><!--link CreateStoreController to ApplicationSession--><g id="link_CreateStoreController_ApplicationSession"><path codeLine="82" d="M367.71,132.62 C312.15,149.38 267,163 267,163 C267,163 205.36,199.38 153.63,229.91 " fill="none" id="CreateStoreController-to-ApplicationSession" style="stroke:#181818;stroke-width:1.0;stroke-dasharray:7.0,7.0;"/><polygon fill="#181818" points="149.29,232.47,159.0729,231.3319,153.5938,229.9249,155.0007,224.4458,149.29,232.47" style="stroke:#181818;stroke-width:1.0;"/></g><!--link CreateStoreController to UserSession--><g id="link_CreateStoreController_UserSession"><path codeLine="83" d="M462.58,133.14 C398.09,169.77 329,209 329,209 C329,209 281.75,340.06 258.13,405.59 " fill="none" id="CreateStoreController-to-UserSession" style="stroke:#181818;stroke-width:1.0;stroke-dasharray:7.0,7.0;"/><polygon fill="#181818" points="256.33,410.58,263.1527,403.4772,258.0307,405.8781,255.6297,400.7561,256.33,410.58" style="stroke:#181818;stroke-width:1.0;"/></g><!--link Store to Administrator--><g id="link_Store_Administrator"><path codeLine="84" d="M765.62,335.05 C761.91,387.54 756.78,460.32 753.99,499.8 " fill="none" id="Store-to-Administrator" style="stroke:#181818;stroke-width:1.0;"/><polygon fill="#181818" points="753.63,504.91,758.2628,496.2188,753.9873,499.9228,750.2833,495.6472,753.63,504.91" style="stroke:#181818;stroke-width:1.0;"/><text fill="#000000" font-family="sans-serif" font-size="13" lengthAdjust="spacing" textLength="59" x="765" y="377.7686">createdBy</text></g><!--reverse link Store to StoreManager--><g id="link_Store_StoreManager"><path codeLine="85" d="M687.33,338.57 C668.54,353.47 654,365 654,365 C654,365 640.22,396.22 630.2,418.9 " fill="none" id="Store-backto-StoreManager" style="stroke:#181818;stroke-width:1.0;"/><polygon fill="#181818" points="691.66,335.13,682.1212,337.5819,687.7404,338.2342,687.088,343.8534,691.66,335.13" style="stroke:#181818;stroke-width:1.0;"/><text fill="#000000" font-family="sans-serif" font-size="13" lengthAdjust="spacing" textLength="53" x="655" y="377.7686">manages</text></g><!--link CreateStoreController to Repositories--><g id="link_CreateStoreController_Repositories"><path codeLine="86" d="M776.23,120.97 C864.52,142.57 948,163 948,163 C948,163 1050,209 1050,209 C1050,209 1061.29,214.51 1077.14,222.25 " fill="none" id="CreateStoreController-to-Repositories" style="stroke:#181818;stroke-width:1.0;stroke-dasharray:7.0,7.0;"/><polygon fill="#181818" points="1081.72,224.49,1075.3815,216.9519,1077.2252,222.2999,1071.8772,224.1436,1081.72,224.49" style="stroke:#181818;stroke-width:1.0;"/><text fill="#000000" font-family="sans-serif" font-size="13" lengthAdjust="spacing" textLength="67" x="981" y="175.7686">repositories</text></g><!--link Repositories to Repositories--><g id="link_Repositories_Repositories"><path codeLine="87" d="M1277.09,253.97 C1297.43,255.93 1312,261.94 1312,272 C1312,281.19 1299.83,287.01 1282.2,289.44 " fill="none" id="Repositories-to-Repositories" style="stroke:#181818;stroke-width:1.0;"/><polygon fill="#181818" points="1277.09,290.03,1286.4889,292.973,1282.0571,289.4574,1285.5727,285.0257,1277.09,290.03" style="stroke:#181818;stroke-width:1.0;"/><text fill="#000000" font-family="sans-serif" font-size="13" lengthAdjust="spacing" textLength="49" x="1318" y="276.7686">instance</text></g><!--link CreateStoreController to StoreManager--><g id="link_CreateStoreController_StoreManager"><path codeLine="88" d="M576.24,133.23 C581.56,211.28 590,335 590,335 C590,335 603.22,382.13 612.1,413.84 " fill="none" id="CreateStoreController-to-StoreManager" style="stroke:#181818;stroke-width:1.0;"/><polygon fill="#181818" points="613.49,418.78,614.9248,409.0362,612.1466,413.9638,607.219,411.1856,613.49,418.78" style="stroke:#181818;stroke-width:1.0;"/><text fill="#000000" font-family="sans-serif" font-size="13" lengthAdjust="spacing" textLength="79" x="591" y="276.7686">storeManager</text></g><!--link StoreManager to Employee--><g id="link_StoreManager_Employee"><path codeLine="89" d="M615.46,467.06 C612.07,484.34 608,505 608,505 C608,505 608,553 608,553 C608,553 614.21,563.42 623.12,578.39 " fill="none" id="StoreManager-to-Employee" style="stroke:#181818;stroke-width:1.0;stroke-dasharray:7.0,7.0;"/><polygon fill="#181818" points="625.7,582.73,624.5139,572.9528,623.1338,578.4388,617.6479,577.0587,625.7,582.73" style="stroke:#181818;stroke-width:1.0;"/><text fill="#000000" font-family="sans-serif" font-size="13" lengthAdjust="spacing" textLength="67" x="609" y="533.7686">implements</text></g><!--link Administrator to Employee--><g id="link_Administrator_Employee"><path codeLine="90" d="M742.12,553.06 C739.03,560.27 735.39,568.76 731.48,577.89 " fill="none" id="Administrator-to-Employee" style="stroke:#181818;stroke-width:1.0;stroke-dasharray:7.0,7.0;"/><polygon fill="#181818" points="729.41,582.71,736.6319,576.0134,731.3796,578.1143,729.2787,572.862,729.41,582.71" style="stroke:#181818;stroke-width:1.0;"/><text fill="#000000" font-family="sans-serif" font-size="13" lengthAdjust="spacing" textLength="67" x="668.8" y="578.2386">implements</text></g><!--link Repositories to employeeRepository--><g id="link_Repositories_employeeRepository"><path codeLine="91" d="M1116.85,319.63 C1080.91,347.49 1036.03,382.28 1003.32,407.64 " fill="none" id="Repositories-to-employeeRepository" style="stroke:#181818;stroke-width:1.0;"/><polygon fill="#181818" points="998.99,411,1008.5481,408.6248,1002.9345,407.9273,1003.6319,402.3136,998.99,411" style="stroke:#181818;stroke-width:1.0;"/><text fill="#000000" font-family="sans-serif" font-size="13" lengthAdjust="spacing" textLength="7" x="999.9722" y="400.3339">1</text></g><!--link CreateStoreController to employeeRepository--><g id="link_CreateStoreController_employeeRepository"><path codeLine="92" d="M705.73,133.14 C784.56,169.77 869,209 869,209 C869,209 919.62,340.06 944.94,405.59 " fill="none" id="CreateStoreController-to-employeeRepository" style="stroke:#181818;stroke-width:1.0;stroke-dasharray:7.0,7.0;"/><polygon fill="#181818" points="946.86,410.58,947.3464,400.7432,945.0574,405.9162,939.8844,403.6273,946.86,410.58" style="stroke:#181818;stroke-width:1.0;"/><text fill="#000000" font-family="sans-serif" font-size="13" lengthAdjust="spacing" textLength="118" x="917" y="276.7686">employeeRepository</text></g><!--link employeeRepository to Employee--><g id="link_employeeRepository_Employee"><path codeLine="93" d="M923.59,475.13 C893.34,501.72 848.02,541.56 805.05,579.34 " fill="none" id="employeeRepository-to-Employee" style="stroke:#181818;stroke-width:1.0;"/><polygon fill="#181818" points="801.16,582.76,810.5554,579.8059,804.9096,579.4524,805.2632,573.8066,801.16,582.76" style="stroke:#181818;stroke-width:1.0;"/><text fill="#000000" font-family="sans-serif" font-size="13" lengthAdjust="spacing" textLength="7" x="909.1728" y="494.4419">1</text><text fill="#000000" font-family="sans-serif" font-size="13" lengthAdjust="spacing" textLength="5" x="804.7855" y="572.1694">*</text></g><!--reverse link Address to Employee--><g id="link_Address_Employee"><path codeLine="95" d="M443.4,324.57 C465.92,384.42 500,475 500,475 C500,475 548.52,529.52 596,582.87 " fill="none" id="Address-backto-Employee" style="stroke:#181818;stroke-width:1.0;"/><polygon fill="#181818" points="441.53,319.6,440.9448,329.4315,443.2856,324.2816,448.4354,326.6225,441.53,319.6" style="stroke:#181818;stroke-width:1.0;"/><text fill="#000000" font-family="sans-serif" font-size="13" lengthAdjust="spacing" textLength="39" x="501" y="447.7686">has an</text><text fill="#000000" font-family="sans-serif" font-size="13" lengthAdjust="spacing" textLength="7" x="436.503" y="339.089">1</text><text fill="#000000" font-family="sans-serif" font-size="13" lengthAdjust="spacing" textLength="7" x="581.8414" y="572.2878">1</text></g><!--reverse link Address to Store--><g id="link_Address_Store"><path codeLine="96" d="M468.67,220.4 C487.22,198.97 504.5,179 504.5,179 C504.5,179 545.5,179 545.5,179 C545.5,179 661,209 661,209 C661,209 672.6,215.7 688.22,224.74 " fill="none" id="Address-backto-Store" style="stroke:#181818;stroke-width:1.0;"/><polygon fill="#181818" points="465.19,224.41,474.1101,220.2349,468.4674,220.6339,468.0684,214.9911,465.19,224.41" style="stroke:#181818;stroke-width:1.0;"/><text fill="#000000" font-family="sans-serif" font-size="13" lengthAdjust="spacing" textLength="39" x="505.5" y="175.7686">has an</text><text fill="#000000" font-family="sans-serif" font-size="13" lengthAdjust="spacing" textLength="7" x="463.9613" y="213.8655">1</text><text fill="#000000" font-family="sans-serif" font-size="13" lengthAdjust="spacing" textLength="7" x="673.6248" y="217.6903">1</text></g><!--SRC=[dLN1Rjim3BthAuXScgnni5w3ea2RTa0Esw51J-iEgiqwGcN9a9HjRh1_7sKhiHIxEJI7nE5xVAH8YhwmRqBLtF0AAgrqlZMwGd1cXwn7Qfw_yH8thf481dF7LIbZWjtoGlyHgZprb4AXQsg4Mil6_s4N8w0sJhF8AvVSsbldZ7ZPELpdMct4EyBLLyOk9BuwS1gCABSE2k7J4LenrZh1RLrBaNDlsg2r7japeCybM4Vc74fqQqNFAiVfB41aM-sCGUM24o7_3f9F5isf5ZbuyqF5XOovjqKbbB3ESASDx2DxOKYYSuSCDdGsgXOH4Lq01nXtUB2jbSCI3RoBUgKBx0DkA0v2fzlJrlSiqIhGYbArLKa17eK-6j6VwaIntcg5FtRL2neVN93PlF8SuQ6gfMuGzwc6uXMUIb2-DRKwgAIWutyJUoVpyzVdCkmGSctBCxN-UnQilxaK1PLs05r2Rl08hE_dxI7c87KtJ_CkREZMF0uuVrRGAdtdYYwAcR5MaGeLslI8jRQ260BjiLknCHx5VZnXcP1wog7gHxGX0TR7sqJ9K3pM9TDXEF2DfZfsl6iUjGmb2YPlYCPzrHTifPKpMiesNYStYaw7uUUmexlK__zKEvvLt8-JRemUxr3pB2xeDzf_oGuOdlHfJISaPBXg8BiPMK3KH14wobAPnSruZKQbINjoDOct4Gdlejqqtep5OYodC-HutNNRnOTE5ziozAQuQmBdEilIeLj2rJxPCw6IMx6aDqiqwWcM3RXZ5OtKoU4actWWM8BvJ0xjzyhqY1Mz2YnB3_qXBKqrz6auvcSACIHJX1654PwFrSRyCZccHxFPtOeMlSxQdpZvBRV0rIYhQ-UHmlu3]--></g></svg>