<?xml version="1.0" encoding="us-ascii" standalone="no"?><svg xmlns="http://www.w3.org/2000/svg" xmlns:xlink="http://www.w3.org/1999/xlink" contentStyleType="text/css" height="521px" preserveAspectRatio="none" style="width:1175px;height:521px;background:#FFFFFF;" version="1.1" viewBox="0 0 1175 521" width="1175px" zoomAndPan="magnify"><defs/><g><rect fill="#FFFFFF" height="332.8047" style="stroke:#181818;stroke-width:1.0;" width="10" x="44.5" y="90.6406"/><rect fill="#FFFFFF" height="69.1641" style="stroke:#181818;stroke-width:1.0;" width="10" x="363.5" y="111.1641"/><rect fill="#FFFFFF" height="200.0703" style="stroke:#181818;stroke-width:1.0;" width="10" x="363.5" y="223.375"/><rect fill="#FFFFFF" height="128.5" style="stroke:#181818;stroke-width:1.0;" width="10" x="623.5" y="266.4219"/><rect fill="#FFFFFF" height="71.4531" style="stroke:#181818;stroke-width:1.0;" width="10" x="1121.5" y="294.9453"/><line style="stroke:#181818;stroke-width:0.5;stroke-dasharray:5.0,5.0;" x1="49" x2="49" y1="80.6406" y2="441.4453"/><line style="stroke:#181818;stroke-width:0.5;stroke-dasharray:5.0,5.0;" x1="368" x2="368" y1="80.6406" y2="441.4453"/><line style="stroke:#181818;stroke-width:0.5;stroke-dasharray:5.0,5.0;" x1="628" x2="628" y1="149.4844" y2="441.4453"/><line style="stroke:#181818;stroke-width:0.5;stroke-dasharray:5.0,5.0;" x1="1126.5" x2="1126.5" y1="80.6406" y2="441.4453"/><text fill="#000000" font-family="sans-serif" font-size="14" lengthAdjust="spacing" textLength="83" x="5" y="77.6738">Administrator</text><ellipse cx="49.5" cy="13.5" fill="#E3E3E3" rx="8" ry="8" style="stroke:#181818;stroke-width:0.5;"/><path d="M49.5,21.5 L49.5,48.5 M36.5,29.5 L62.5,29.5 M49.5,48.5 L36.5,63.5 M49.5,48.5 L62.5,63.5 " fill="none" style="stroke:#181818;stroke-width:0.5;"/><text fill="#000000" font-family="sans-serif" font-size="14" lengthAdjust="spacing" textLength="83" x="5" y="453.1191">Administrator</text><ellipse cx="49.5" cy="464.5859" fill="#E3E3E3" rx="8" ry="8" style="stroke:#181818;stroke-width:0.5;"/><path d="M49.5,472.5859 L49.5,499.5859 M36.5,480.5859 L62.5,480.5859 M49.5,499.5859 L36.5,514.5859 M49.5,499.5859 L62.5,514.5859 " fill="none" style="stroke:#181818;stroke-width:0.5;"/><rect fill="#E3E3E3" height="29.6406" rx="2.5" ry="2.5" style="stroke:#181818;stroke-width:0.5;" width="99" x="319" y="50"/><text fill="#000000" font-family="sans-serif" font-size="14" lengthAdjust="spacing" textLength="85" x="326" y="69.6738">:CreatStoreUI</text><rect fill="#E3E3E3" height="29.6406" rx="2.5" ry="2.5" style="stroke:#181818;stroke-width:0.5;" width="99" x="319" y="440.4453"/><text fill="#000000" font-family="sans-serif" font-size="14" lengthAdjust="spacing" textLength="85" x="326" y="460.1191">:CreatStoreUI</text><rect fill="#E3E3E3" height="29.6406" rx="2.5" ry="2.5" style="stroke:#181818;stroke-width:0.5;" width="157" x="550" y="440.4453"/><text fill="#000000" font-family="sans-serif" font-size="14" lengthAdjust="spacing" textLength="143" x="557" y="460.1191">:CreateStoreController</text><rect fill="#E3E3E3" height="45.2813" rx="2.5" ry="2.5" style="stroke:#181818;stroke-width:0.5;" width="80" x="1086.5" y="34.3594"/><text fill="#000000" font-family="sans-serif" font-size="14" lengthAdjust="spacing" textLength="61" x="1096" y="54.0332">employee</text><text fill="#000000" font-family="sans-serif" font-size="14" lengthAdjust="spacing" textLength="66" x="1093.5" y="69.6738">:Employee</text><rect fill="#E3E3E3" height="45.2813" rx="2.5" ry="2.5" style="stroke:#181818;stroke-width:0.5;" width="80" x="1086.5" y="440.4453"/><text fill="#000000" font-family="sans-serif" font-size="14" lengthAdjust="spacing" textLength="61" x="1096" y="460.1191">employee</text><text fill="#000000" font-family="sans-serif" font-size="14" lengthAdjust="spacing" textLength="66" x="1093.5" y="475.7598">:Employee</text><rect fill="#FFFFFF" height="332.8047" style="stroke:#181818;stroke-width:1.0;" width="10" x="44.5" y="90.6406"/><rect fill="#FFFFFF" height="69.1641" style="stroke:#181818;stroke-width:1.0;" width="10" x="363.5" y="111.1641"/><rect fill="#FFFFFF" height="200.0703" style="stroke:#181818;stroke-width:1.0;" width="10" x="363.5" y="223.375"/><rect fill="#FFFFFF" height="128.5" style="stroke:#181818;stroke-width:1.0;" width="10" x="623.5" y="266.4219"/><rect fill="#FFFFFF" height="71.4531" style="stroke:#181818;stroke-width:1.0;" width="10" x="1121.5" y="294.9453"/><polygon fill="#181818" points="351.5,107.1641,361.5,111.1641,351.5,115.1641,355.5,111.1641" style="stroke:#181818;stroke-width:1.0;"/><line style="stroke:#181818;stroke-width:1.0;" x1="54.5" x2="357.5" y1="111.1641" y2="111.1641"/><text fill="#000000" font-family="sans-serif" font-size="13" font-weight="bold" lengthAdjust="spacing" textLength="7" x="61.5" y="106.4092">1</text><text fill="#000000" font-family="sans-serif" font-size="13" lengthAdjust="spacing" textLength="161" x="72.5" y="106.4092">asks to register a new store</text><polygon fill="#181818" points="538,135.6875,548,139.6875,538,143.6875,542,139.6875" style="stroke:#181818;stroke-width:1.0;"/><line style="stroke:#181818;stroke-width:1.0;" x1="373.5" x2="544" y1="139.6875" y2="139.6875"/><text fill="#000000" font-family="sans-serif" font-size="13" font-weight="bold" lengthAdjust="spacing" textLength="7" x="380.5" y="134.9326">2</text><text fill="#000000" font-family="sans-serif" font-size="13" lengthAdjust="spacing" textLength="36" x="391.5" y="134.9326">create</text><rect fill="#E3E3E3" height="29.6406" rx="2.5" ry="2.5" style="stroke:#181818;stroke-width:0.5;" width="157" x="550" y="119.1641"/><text fill="#000000" font-family="sans-serif" font-size="14" lengthAdjust="spacing" textLength="143" x="557" y="138.8379">:CreateStoreController</text><polygon fill="#181818" points="65.5,176.3281,55.5,180.3281,65.5,184.3281,61.5,180.3281" style="stroke:#181818;stroke-width:1.0;"/><line style="stroke:#181818;stroke-width:1.0;stroke-dasharray:2.0,2.0;" x1="59.5" x2="367.5" y1="180.3281" y2="180.3281"/><text fill="#000000" font-family="sans-serif" font-size="13" font-weight="bold" lengthAdjust="spacing" textLength="7" x="71.5" y="175.5732">3</text><text fill="#000000" font-family="sans-serif" font-size="13" lengthAdjust="spacing" textLength="105" x="82.5" y="175.5732">request store data</text><polygon fill="#181818" points="351.5,219.375,361.5,223.375,351.5,227.375,355.5,223.375" style="stroke:#181818;stroke-width:1.0;"/><line style="stroke:#181818;stroke-width:1.0;" x1="54.5" x2="357.5" y1="223.375" y2="223.375"/><text fill="#000000" font-family="sans-serif" font-size="13" font-weight="bold" lengthAdjust="spacing" textLength="7" x="61.5" y="211.3584">4</text><text fill="#000000" font-family="sans-serif" font-size="13" lengthAdjust="spacing" textLength="279" x="72.5" y="204.0967">types requested data (ID, name, address, email,</text><text fill="#000000" font-family="sans-serif" font-size="13" lengthAdjust="spacing" textLength="84" x="76.5" y="218.6201">phoneNumber)</text><polygon fill="#181818" points="611.5,262.4219,621.5,266.4219,611.5,270.4219,615.5,266.4219" style="stroke:#181818;stroke-width:1.0;"/><line style="stroke:#181818;stroke-width:1.0;" x1="373.5" x2="617.5" y1="266.4219" y2="266.4219"/><text fill="#000000" font-family="sans-serif" font-size="13" font-weight="bold" lengthAdjust="spacing" textLength="7" x="380.5" y="254.4053">5</text><text fill="#000000" font-family="sans-serif" font-size="13" lengthAdjust="spacing" textLength="220" x="391.5" y="247.1436">createStore(ID, name, address, email,</text><text fill="#000000" font-family="sans-serif" font-size="13" lengthAdjust="spacing" textLength="84" x="391.5" y="261.667">phoneNumber)</text><polygon fill="#181818" points="1109.5,290.9453,1119.5,294.9453,1109.5,298.9453,1113.5,294.9453" style="stroke:#181818;stroke-width:1.0;"/><line style="stroke:#181818;stroke-width:1.0;" x1="633.5" x2="1115.5" y1="294.9453" y2="294.9453"/><text fill="#000000" font-family="sans-serif" font-size="13" font-weight="bold" lengthAdjust="spacing" textLength="7" x="640.5" y="290.1904">6</text><text fill="#000000" font-family="sans-serif" font-size="13" lengthAdjust="spacing" textLength="458" x="651.5" y="290.1904">createStore(id, designation, email, storeAddress, phoneNumber, storeManager)</text><rect fill="none" height="37.9297" style="stroke:#000000;stroke-width:1.5;" width="86" x="1083.5" y="302.9453"/><path d="M1083.5,302.9453 L1145.5,302.9453 L1145.5,308.9453 L1135.5,318.9453 L1083.5,318.9453 L1083.5,302.9453 " fill="#EEEEEE" style="stroke:#000000;stroke-width:2.0;"/><text fill="#000000" font-family="sans-serif" font-size="13" font-weight="bold" lengthAdjust="spacing" textLength="17" x="1096.5" y="316.7139">ref</text><text fill="#000000" font-family="sans-serif" font-size="12" lengthAdjust="spacing" textLength="69" x="1092" y="333.8086">Create Store</text><polygon fill="#181818" points="644.5,362.3984,634.5,366.3984,644.5,370.3984,640.5,366.3984" style="stroke:#181818;stroke-width:1.0;"/><line style="stroke:#181818;stroke-width:1.0;stroke-dasharray:2.0,2.0;" x1="638.5" x2="1125.5" y1="366.3984" y2="366.3984"/><text fill="#000000" font-family="sans-serif" font-size="13" font-weight="bold" lengthAdjust="spacing" textLength="7" x="650.5" y="361.6436">7</text><text fill="#000000" font-family="sans-serif" font-size="13" lengthAdjust="spacing" textLength="62" x="661.5" y="361.6436">storeClone</text><polygon fill="#181818" points="384.5,390.9219,374.5,394.9219,384.5,398.9219,380.5,394.9219" style="stroke:#181818;stroke-width:1.0;"/><line style="stroke:#181818;stroke-width:1.0;stroke-dasharray:2.0,2.0;" x1="378.5" x2="627.5" y1="394.9219" y2="394.9219"/><text fill="#000000" font-family="sans-serif" font-size="13" font-weight="bold" lengthAdjust="spacing" textLength="7" x="390.5" y="390.167">8</text><text fill="#000000" font-family="sans-serif" font-size="13" lengthAdjust="spacing" textLength="62" x="401.5" y="390.167">storeClone</text><polygon fill="#181818" points="60.5,419.4453,50.5,423.4453,60.5,427.4453,56.5,423.4453" style="stroke:#181818;stroke-width:1.0;"/><line style="stroke:#181818;stroke-width:1.0;stroke-dasharray:2.0,2.0;" x1="54.5" x2="367.5" y1="423.4453" y2="423.4453"/><text fill="#000000" font-family="sans-serif" font-size="13" font-weight="bold" lengthAdjust="spacing" textLength="7" x="66.5" y="418.6904">9</text><text fill="#000000" font-family="sans-serif" font-size="13" lengthAdjust="spacing" textLength="158" x="77.5" y="418.6904">displays operation success</text><!--SRC=[bLJ1Zjem4BtxAqPSW1Ny00Saogug9BQjsEvjBqCy11V7Jct3bh_ln0ciGqArzIcP6J-_UVDiVr2cH8S55DROREziGH3SaOI_PahC3fZJIpXh0aTPG9FhjC3lKTftPNBOeVOa11w3DSTYIqw8uLv9WfsrOMl_2Co2TJ1Oo48PvOD3_Xq0UbWyFWj62ofJ9Pe0WzdI4OONpjFhAfQyhlegA9OihGdEQaqrslBdPjqkfgBKzapqPcPFpMUit3pz41KhTMAeo480B_w0wPoFX1bN7Jm4owtdJ9aS81Xw1r-TMrTVzpF56AWMxsM4Yid30wDaaQmOVgIdyoh9gPpgFf_HiCxEZyOVPItus5OhLIr7Ex0dvjMVhjPN2X2FWEOCM7ChOjYj9YDlmnNiT3gFMlY4PmsHLagwePgs2umHTPr1wUofSaL4WwAXfAzu2GuhEhpWf4FnfDc9v06Dv1yZ_GtQZgsSGDuTKuUSezz7yg61anZmexXDh6kLS2wPKeD0Ckw6qUfn0WOBcW1AwSZx2L21Ia_U39HxQ-XRl2lZptZfwgGupdz1Tv2xLagc5x6RCw8ZrpP3tKpwotbZDOrq4ge2uwvzxix_FmtRRzhlsryyz7kmqRgtmQQlkgsqWMxfhNlR7ha8n0z6UmHAJdYhLxd1eAov3A3sp-8obMGQazOj6ejU_UAxT5UuAjidGVqYrgg9FdqwGKQAtc-y5PajDNCLTwJf4Ak5YJVWC_kZjFsNRmPI-LBZsOCjoKKvmH-pZ1KKFTSl-QqUxhy0]--></g></svg>