<?xml version="1.0" encoding="us-ascii" standalone="no"?><svg xmlns="http://www.w3.org/2000/svg" xmlns:xlink="http://www.w3.org/1999/xlink" contentStyleType="text/css" height="446px" preserveAspectRatio="none" style="width:575px;height:446px;background:#FFFFFF;" version="1.1" viewBox="0 0 575 446" width="575px" zoomAndPan="magnify"><defs/><g><rect fill="#FFFFFF" height="290.4219" style="stroke:#181818;stroke-width:1.0;" width="10" x="257" y="96.3281"/><rect fill="#FFFFFF" height="122.5703" style="stroke:#181818;stroke-width:1.0;" width="10" x="262" y="212.6563"/><rect fill="#FFFFFF" height="39.5234" style="stroke:#181818;stroke-width:1.0;" width="10" x="267" y="254.1797"/><rect fill="none" height="238.8984" style="stroke:#000000;stroke-width:1.5;" width="357" x="212" y="111.3281"/><line style="stroke:#181818;stroke-width:0.5;stroke-dasharray:5.0,5.0;" x1="262" x2="262" y1="51.2813" y2="395.75"/><line style="stroke:#181818;stroke-width:0.5;stroke-dasharray:5.0,5.0;" x1="534" x2="534" y1="165.9922" y2="395.75"/><rect fill="#E3E3E3" height="45.2813" rx="2.5" ry="2.5" style="stroke:#181818;stroke-width:0.5;" width="80" x="222" y="5"/><text fill="#000000" font-family="sans-serif" font-size="14" lengthAdjust="spacing" textLength="61" x="231.5" y="24.6738">employee</text><text fill="#000000" font-family="sans-serif" font-size="14" lengthAdjust="spacing" textLength="66" x="229" y="40.3145">:Employee</text><rect fill="#E3E3E3" height="45.2813" rx="2.5" ry="2.5" style="stroke:#181818;stroke-width:0.5;" width="80" x="222" y="394.75"/><text fill="#000000" font-family="sans-serif" font-size="14" lengthAdjust="spacing" textLength="61" x="231.5" y="414.4238">employee</text><text fill="#000000" font-family="sans-serif" font-size="14" lengthAdjust="spacing" textLength="66" x="229" y="430.0645">:Employee</text><rect fill="#E3E3E3" height="45.2813" rx="2.5" ry="2.5" style="stroke:#181818;stroke-width:0.5;" width="50" x="509" y="394.75"/><text fill="#000000" font-family="sans-serif" font-size="14" lengthAdjust="spacing" textLength="36" x="516" y="414.4238">store:</text><text fill="#000000" font-family="sans-serif" font-size="14" lengthAdjust="spacing" textLength="34" x="517" y="430.0645">Store</text><rect fill="#FFFFFF" height="290.4219" style="stroke:#181818;stroke-width:1.0;" width="10" x="257" y="96.3281"/><rect fill="#FFFFFF" height="122.5703" style="stroke:#181818;stroke-width:1.0;" width="10" x="262" y="212.6563"/><rect fill="#FFFFFF" height="39.5234" style="stroke:#181818;stroke-width:1.0;" width="10" x="267" y="254.1797"/><polygon fill="#181818" points="245,92.3281,255,96.3281,245,100.3281,249,96.3281" style="stroke:#181818;stroke-width:1.0;"/><line style="stroke:#181818;stroke-width:1.0;" x1="0" x2="251" y1="96.3281" y2="96.3281"/><text fill="#000000" font-family="sans-serif" font-size="13" font-weight="bold" lengthAdjust="spacing" textLength="14" x="7" y="84.3115">12</text><text fill="#000000" font-family="sans-serif" font-size="13" lengthAdjust="spacing" textLength="220" x="25" y="77.0498">createStore(ID, name, address, email,</text><text fill="#000000" font-family="sans-serif" font-size="13" lengthAdjust="spacing" textLength="84" x="29" y="91.5732">phoneNumber)</text><path d="M212,111.3281 L337,111.3281 L337,117.8516 L327,127.8516 L212,127.8516 L212,111.3281 " fill="#EEEEEE" style="stroke:#000000;stroke-width:1.5;"/><rect fill="none" height="238.8984" style="stroke:#000000;stroke-width:1.5;" width="357" x="212" y="111.3281"/><text fill="#000000" font-family="sans-serif" font-size="13" font-weight="bold" lengthAdjust="spacing" textLength="80" x="227" y="124.0967">Create Store</text><polygon fill="#181818" points="497,158.8984,507,162.8984,497,166.8984,501,162.8984" style="stroke:#181818;stroke-width:1.0;"/><line style="stroke:#181818;stroke-width:1.0;" x1="267" x2="503" y1="162.8984" y2="162.8984"/><text fill="#000000" font-family="sans-serif" font-size="13" font-weight="bold" lengthAdjust="spacing" textLength="25" x="274" y="150.8818">12.1</text><text fill="#000000" font-family="sans-serif" font-size="13" lengthAdjust="spacing" textLength="189" x="303" y="143.6201">create(ID, name, address, email,</text><text fill="#000000" font-family="sans-serif" font-size="13" lengthAdjust="spacing" textLength="84" x="307" y="158.1436">phoneNumber)</text><rect fill="#E3E3E3" height="45.2813" rx="2.5" ry="2.5" style="stroke:#181818;stroke-width:0.5;" width="50" x="509" y="127.8516"/><text fill="#000000" font-family="sans-serif" font-size="14" lengthAdjust="spacing" textLength="36" x="516" y="147.5254">store:</text><text fill="#000000" font-family="sans-serif" font-size="14" lengthAdjust="spacing" textLength="34" x="517" y="163.166">Store</text><line style="stroke:#181818;stroke-width:1.0;" x1="267" x2="314" y1="199.6563" y2="199.6563"/><line style="stroke:#181818;stroke-width:1.0;" x1="314" x2="314" y1="199.6563" y2="212.6563"/><line style="stroke:#181818;stroke-width:1.0;" x1="273" x2="314" y1="212.6563" y2="212.6563"/><polygon fill="#181818" points="283,208.6563,273,212.6563,283,216.6563,279,212.6563" style="stroke:#181818;stroke-width:1.0;"/><text fill="#000000" font-family="sans-serif" font-size="13" font-weight="bold" lengthAdjust="spacing" textLength="25" x="279" y="194.9014">12.2</text><text fill="#000000" font-family="sans-serif" font-size="13" lengthAdjust="spacing" textLength="93" x="308" y="194.9014">addStore (store)</text><line style="stroke:#181818;stroke-width:1.0;" x1="272" x2="319" y1="241.1797" y2="241.1797"/><line style="stroke:#181818;stroke-width:1.0;" x1="319" x2="319" y1="241.1797" y2="254.1797"/><line style="stroke:#181818;stroke-width:1.0;" x1="278" x2="319" y1="254.1797" y2="254.1797"/><polygon fill="#181818" points="288,250.1797,278,254.1797,288,258.1797,284,254.1797" style="stroke:#181818;stroke-width:1.0;"/><text fill="#000000" font-family="sans-serif" font-size="13" font-weight="bold" lengthAdjust="spacing" textLength="25" x="284" y="236.4248">12.3</text><text fill="#000000" font-family="sans-serif" font-size="13" lengthAdjust="spacing" textLength="111" x="313" y="236.4248">validateStore(store)</text><line style="stroke:#181818;stroke-width:1.0;stroke-dasharray:2.0,2.0;" x1="277" x2="319" y1="292.7031" y2="292.7031"/><line style="stroke:#181818;stroke-width:1.0;stroke-dasharray:2.0,2.0;" x1="319" x2="319" y1="292.7031" y2="305.7031"/><line style="stroke:#181818;stroke-width:1.0;stroke-dasharray:2.0,2.0;" x1="272" x2="319" y1="305.7031" y2="305.7031"/><polygon fill="#181818" points="282,301.7031,272,305.7031,282,309.7031,278,305.7031" style="stroke:#181818;stroke-width:1.0;"/><text fill="#000000" font-family="sans-serif" font-size="13" font-weight="bold" lengthAdjust="spacing" textLength="25" x="284" y="287.9482">12.4</text><text fill="#000000" font-family="sans-serif" font-size="13" lengthAdjust="spacing" textLength="4" x="313" y="287.9482">&#160;</text><line style="stroke:#181818;stroke-width:1.0;stroke-dasharray:2.0,2.0;" x1="272" x2="314" y1="334.2266" y2="334.2266"/><line style="stroke:#181818;stroke-width:1.0;stroke-dasharray:2.0,2.0;" x1="314" x2="314" y1="334.2266" y2="347.2266"/><line style="stroke:#181818;stroke-width:1.0;stroke-dasharray:2.0,2.0;" x1="267" x2="314" y1="347.2266" y2="347.2266"/><polygon fill="#181818" points="277,343.2266,267,347.2266,277,351.2266,273,347.2266" style="stroke:#181818;stroke-width:1.0;"/><text fill="#000000" font-family="sans-serif" font-size="13" font-weight="bold" lengthAdjust="spacing" textLength="25" x="279" y="329.4717">12.5</text><text fill="#000000" font-family="sans-serif" font-size="13" lengthAdjust="spacing" textLength="4" x="308" y="329.4717">&#160;</text><polygon fill="#181818" points="11,373.75,1,377.75,11,381.75,7,377.75" style="stroke:#181818;stroke-width:1.0;"/><line style="stroke:#181818;stroke-width:1.0;stroke-dasharray:2.0,2.0;" x1="5" x2="256" y1="377.75" y2="377.75"/><text fill="#000000" font-family="sans-serif" font-size="13" font-weight="bold" lengthAdjust="spacing" textLength="14" x="17" y="372.9951">13</text><text fill="#000000" font-family="sans-serif" font-size="13" lengthAdjust="spacing" textLength="29" x="35" y="372.9951">store</text><!--SRC=[fP8nJyCm48Lt_ufJfr8bI8MjGYpGWGKXicOvx2En6jkHxHJrt-Cu8KgHQIfnYoFvk_VkdUCEKhTeKO4osl3Q6aNWRKVCJJSjyWDMLFXJGs29UzHLCmTSZS9yILt19pQE66FOUQCxzK4MjdUC1SnBBblK7bQasiQSY4gzsu-VAq07x_ktSz1vOsbNwg8_8r9uos2i_B7ls06tX9uYitvvpa2ZeWnG24lEPK0APPEL6jhQQ7gDCzrC8lD2xkKnICL1Ka1bJTV2K_I3Q9ZMcMU_tR8a52hOz252fiq6Vd9S7s51DkucICGvOHrt6Ph-wbeCdr0_OYF5jFlHuKBljHwJps1q2HLq9ih-f_XBBOMG5iD_iFZqzqdY8S-7vSLriMy0]--></g></svg>