<?xml version="1.0" encoding="us-ascii" standalone="no"?><svg xmlns="http://www.w3.org/2000/svg" xmlns:xlink="http://www.w3.org/1999/xlink" contentStyleType="text/css" height="442px" preserveAspectRatio="none" style="width:623px;height:442px;background:#FFFFFF;" version="1.1" viewBox="0 0 623 442" width="623px" zoomAndPan="magnify"><defs/><g><rect fill="#FFFFFF" height="256.6191" style="stroke:#181818;stroke-width:1.0;" width="10" x="73" y="93.6211"/><rect fill="#FFFFFF" height="31.291" style="stroke:#181818;stroke-width:1.0;" width="10" x="570" y="134.2031"/><rect fill="#FFFFFF" height="57.582" style="stroke:#181818;stroke-width:1.0;" width="10" x="570" y="196.7852"/><rect fill="#FFFFFF" height="55.582" style="stroke:#181818;stroke-width:1.0;" width="10" x="570" y="285.6582"/><rect fill="none" height="81.873" style="stroke:#000000;stroke-width:1.5;" width="607" x="10" y="211.7852"/><line style="stroke:#181818;stroke-width:0.5;stroke-dasharray:5.0,5.0;" x1="78" x2="78" y1="83.6211" y2="359.2402"/><line style="stroke:#181818;stroke-width:0.5;stroke-dasharray:5.0,5.0;" x1="575" x2="575" y1="83.6211" y2="359.2402"/><text fill="#000000" font-family="sans-serif" font-size="14" lengthAdjust="spacing" textLength="110" x="20" y="80.1074">Network Manager</text><ellipse cx="78" cy="13.5" fill="#E3E3E3" rx="8" ry="8" style="stroke:#181818;stroke-width:0.5;"/><path d="M78,21.5 L78,48.5 M65,29.5 L91,29.5 M78,48.5 L65,63.5 M78,48.5 L91,63.5 " fill="none" style="stroke:#181818;stroke-width:0.5;"/><text fill="#000000" font-family="sans-serif" font-size="14" lengthAdjust="spacing" textLength="110" x="20" y="373.3477">Network Manager</text><ellipse cx="78" cy="385.3613" fill="#E3E3E3" rx="8" ry="8" style="stroke:#181818;stroke-width:0.5;"/><path d="M78,393.3613 L78,420.3613 M65,401.3613 L91,401.3613 M78,420.3613 L65,435.3613 M78,420.3613 L91,435.3613 " fill="none" style="stroke:#181818;stroke-width:0.5;"/><rect fill="#E3E3E3" height="32.6211" rx="2.5" ry="2.5" style="stroke:#181818;stroke-width:0.5;" width="64" x="543" y="50"/><text fill="#000000" font-family="sans-serif" font-size="14" lengthAdjust="spacing" textLength="50" x="550" y="72.1074">:System</text><rect fill="#E3E3E3" height="32.6211" rx="2.5" ry="2.5" style="stroke:#181818;stroke-width:0.5;" width="64" x="543" y="358.2402"/><text fill="#000000" font-family="sans-serif" font-size="14" lengthAdjust="spacing" textLength="50" x="550" y="380.3477">:System</text><rect fill="#FFFFFF" height="256.6191" style="stroke:#181818;stroke-width:1.0;" width="10" x="73" y="93.6211"/><rect fill="#FFFFFF" height="31.291" style="stroke:#181818;stroke-width:1.0;" width="10" x="570" y="134.2031"/><rect fill="#FFFFFF" height="57.582" style="stroke:#181818;stroke-width:1.0;" width="10" x="570" y="196.7852"/><rect fill="#FFFFFF" height="55.582" style="stroke:#181818;stroke-width:1.0;" width="10" x="570" y="285.6582"/><polygon fill="#181818" points="558,130.2031,568,134.2031,558,138.2031,562,134.2031" style="stroke:#181818;stroke-width:1.0;"/><line style="stroke:#181818;stroke-width:1.0;" x1="83" x2="564" y1="134.2031" y2="134.2031"/><text fill="#000000" font-family="sans-serif" font-size="13" font-weight="bold" lengthAdjust="spacing" textLength="7" x="90" y="120.2949">1</text><text fill="#000000" font-family="sans-serif" font-size="13" lengthAdjust="spacing" textLength="449" x="101" y="111.6494">asks to divide stores into two sublists so that they have the closest number of</text><text fill="#000000" font-family="sans-serif" font-size="13" lengthAdjust="spacing" textLength="180" x="101" y="128.9404">properties between the sublists</text><polygon fill="#181818" points="94,161.4941,84,165.4941,94,169.4941,90,165.4941" style="stroke:#181818;stroke-width:1.0;"/><line style="stroke:#181818;stroke-width:1.0;stroke-dasharray:2.0,2.0;" x1="88" x2="574" y1="165.4941" y2="165.4941"/><text fill="#000000" font-family="sans-serif" font-size="13" font-weight="bold" lengthAdjust="spacing" textLength="7" x="100" y="160.2314">2</text><text fill="#000000" font-family="sans-serif" font-size="13" lengthAdjust="spacing" textLength="173" x="111" y="160.2314">requests the number of stores</text><polygon fill="#181818" points="558,192.7852,568,196.7852,558,200.7852,562,196.7852" style="stroke:#181818;stroke-width:1.0;"/><line style="stroke:#181818;stroke-width:1.0;" x1="83" x2="564" y1="196.7852" y2="196.7852"/><text fill="#000000" font-family="sans-serif" font-size="13" font-weight="bold" lengthAdjust="spacing" textLength="7" x="90" y="191.5225">3</text><text fill="#000000" font-family="sans-serif" font-size="13" lengthAdjust="spacing" textLength="170" x="101" y="191.5225">provides the number of stores</text><path d="M10,211.7852 L83,211.7852 L83,221.0762 L73,231.0762 L10,231.0762 L10,211.7852 " fill="#EEEEEE" style="stroke:#000000;stroke-width:1.5;"/><rect fill="none" height="81.873" style="stroke:#000000;stroke-width:1.5;" width="607" x="10" y="211.7852"/><text fill="#000000" font-family="sans-serif" font-size="13" font-weight="bold" lengthAdjust="spacing" textLength="28" x="25" y="226.8135">loop</text><text fill="#000000" font-family="sans-serif" font-size="11" font-weight="bold" lengthAdjust="spacing" textLength="106" x="98" y="225.6553">[number of stores]</text><polygon fill="#181818" points="94,250.3672,84,254.3672,94,258.3672,90,254.3672" style="stroke:#181818;stroke-width:1.0;"/><line style="stroke:#181818;stroke-width:1.0;" x1="88" x2="574" y1="254.3672" y2="254.3672"/><text fill="#000000" font-family="sans-serif" font-size="13" font-weight="bold" lengthAdjust="spacing" textLength="7" x="100" y="249.1045">4</text><text fill="#000000" font-family="sans-serif" font-size="13" lengthAdjust="spacing" textLength="305" x="111" y="249.1045">asks to select a store from the list of available stores</text><polygon fill="#181818" points="558,281.6582,568,285.6582,558,289.6582,562,285.6582" style="stroke:#181818;stroke-width:1.0;"/><line style="stroke:#181818;stroke-width:1.0;" x1="83" x2="564" y1="285.6582" y2="285.6582"/><text fill="#000000" font-family="sans-serif" font-size="13" font-weight="bold" lengthAdjust="spacing" textLength="7" x="90" y="280.3955">5</text><text fill="#000000" font-family="sans-serif" font-size="13" lengthAdjust="spacing" textLength="125" x="101" y="280.3955">selects store from list</text><polygon fill="#181818" points="94,337.2402,84,341.2402,94,345.2402,90,341.2402" style="stroke:#181818;stroke-width:1.0;"/><line style="stroke:#181818;stroke-width:1.0;stroke-dasharray:2.0,2.0;" x1="88" x2="574" y1="341.2402" y2="341.2402"/><text fill="#000000" font-family="sans-serif" font-size="13" font-weight="bold" lengthAdjust="spacing" textLength="7" x="100" y="327.332">6</text><text fill="#000000" font-family="sans-serif" font-size="13" lengthAdjust="spacing" textLength="452" x="111" y="318.6865">provide all the pairs of sublists with minimum difference between the number of</text><text fill="#000000" font-family="sans-serif" font-size="13" lengthAdjust="spacing" textLength="220" x="111" y="335.9775">properties associated with their stores</text><!--SRC=[fPBBZjfG38RtF8N5PbffHgh4ZaNVeDtCberpuX2BSvjZ1vIthtD3W82AzYoYayJ-_Td-vS0nOy408SNasf82WPQELdB-az4TS4-Vsdk2GaunxlrbWBHOfnF7FJJeXLPsiDCKkr1HiRlJL63zc_IKoW5-OJIriWQKvRuo7MN76QF2UllPYr8O0wRhgC57L3fdhC3E_08VF-T0s5hIGK0Jr7paca2iDWbmj4zM7wIhF8iAYBstgFQW7beyqd03vvEGA4pia9fTp2LbCZnJgQm5eZX6Ba8Zo1bluONvp5WVHhZ0Rcs6NnqD38FEkTACUavzMwfj06CDcnyJBmiWXCuhPrk7fMt6Z9fk6HQTUqEodeRf_8N0fvJl_trKQsdtijjb8KBUl6FmemuqPhMn_335GHwFo1uhJvU5NcjhAY6N5GRrfyWKw-VRccS5wFt8cv6BZFDOh7HYRI5mvD05yrtJKA7ewCekzms58icnKTMJY4LoUTx_wkrHzzfdavpDPOerAiAtGZFEkuc9AvoLKto7NUJOf1BGNtzNScraT_Dv5-kku1JXakZt2UC-tCDHIfjEvWLp13ZBsgVIJ-iV37xZanHfKdjb18i1yBh8Vy1EYZRDQwsNeBegi44D-_WdafebU-pDTEQRSGccwHo9F8Bv0m00]--></g></svg>