<?xml version="1.0" encoding="us-ascii" standalone="no"?><svg xmlns="http://www.w3.org/2000/svg" xmlns:xlink="http://www.w3.org/1999/xlink" contentStyleType="text/css" height="498px" preserveAspectRatio="none" style="width:1046px;height:498px;background:#FFFFFF;" version="1.1" viewBox="0 0 1046 498" width="1046px" zoomAndPan="magnify"><defs/><g><rect fill="#FFFFFF" height="333.2793" style="stroke:#181818;stroke-width:1.0;" width="10" x="262" y="90.5332"/><rect fill="#FFFFFF" height="270.6973" style="stroke:#181818;stroke-width:1.0;" width="10" x="513" y="121.8242"/><rect fill="#FFFFFF" height="130.873" style="stroke:#181818;stroke-width:1.0;" width="10" x="518" y="223.3574"/><rect fill="#FFFFFF" height="42.291" style="stroke:#181818;stroke-width:1.0;" width="10" x="523" y="267.6484"/><line style="stroke:#181818;stroke-width:0.5;stroke-dasharray:5.0,5.0;" x1="266.5" x2="266.5" y1="57.2422" y2="441.8125"/><line style="stroke:#181818;stroke-width:0.5;stroke-dasharray:5.0,5.0;" x1="517.5" x2="517.5" y1="57.2422" y2="441.8125"/><line style="stroke:#181818;stroke-width:0.5;stroke-dasharray:5.0,5.0;" x1="1014" x2="1014" y1="170.9453" y2="441.8125"/><rect fill="#E3E3E3" height="51.2422" rx="2.5" ry="2.5" style="stroke:#181818;stroke-width:0.5;" width="149" x="192.5" y="5"/><text fill="#000000" font-family="sans-serif" font-size="14" lengthAdjust="spacing" textLength="135" x="199.5" y="27.1074">dataIntegrityChecker:</text><text fill="#000000" font-family="sans-serif" font-size="14" lengthAdjust="spacing" textLength="133" x="200.5" y="45.7285">DataIntegrityChecker</text><rect fill="#E3E3E3" height="51.2422" rx="2.5" ry="2.5" style="stroke:#181818;stroke-width:0.5;" width="149" x="192.5" y="440.8125"/><text fill="#000000" font-family="sans-serif" font-size="14" lengthAdjust="spacing" textLength="135" x="199.5" y="462.9199">dataIntegrityChecker:</text><text fill="#000000" font-family="sans-serif" font-size="14" lengthAdjust="spacing" textLength="133" x="200.5" y="481.541">DataIntegrityChecker</text><rect fill="#E3E3E3" height="51.2422" rx="2.5" ry="2.5" style="stroke:#181818;stroke-width:0.5;" width="119" x="458.5" y="5"/><text fill="#000000" font-family="sans-serif" font-size="14" lengthAdjust="spacing" textLength="105" x="465.5" y="27.1074">clientRepository:</text><text fill="#000000" font-family="sans-serif" font-size="14" lengthAdjust="spacing" textLength="104" x="466" y="45.7285">ClientRepository</text><rect fill="#E3E3E3" height="51.2422" rx="2.5" ry="2.5" style="stroke:#181818;stroke-width:0.5;" width="119" x="458.5" y="440.8125"/><text fill="#000000" font-family="sans-serif" font-size="14" lengthAdjust="spacing" textLength="105" x="465.5" y="462.9199">clientRepository:</text><text fill="#000000" font-family="sans-serif" font-size="14" lengthAdjust="spacing" textLength="104" x="466" y="481.541">ClientRepository</text><rect fill="#E3E3E3" height="51.2422" rx="2.5" ry="2.5" style="stroke:#181818;stroke-width:0.5;" width="51" x="989" y="440.8125"/><text fill="#000000" font-family="sans-serif" font-size="14" lengthAdjust="spacing" textLength="37" x="996" y="462.9199">client:</text><text fill="#000000" font-family="sans-serif" font-size="14" lengthAdjust="spacing" textLength="36" x="996.5" y="481.541">Client</text><rect fill="#FFFFFF" height="333.2793" style="stroke:#181818;stroke-width:1.0;" width="10" x="262" y="90.5332"/><rect fill="#FFFFFF" height="270.6973" style="stroke:#181818;stroke-width:1.0;" width="10" x="513" y="121.8242"/><rect fill="#FFFFFF" height="130.873" style="stroke:#181818;stroke-width:1.0;" width="10" x="518" y="223.3574"/><rect fill="#FFFFFF" height="42.291" style="stroke:#181818;stroke-width:1.0;" width="10" x="523" y="267.6484"/><polygon fill="#181818" points="250,86.5332,260,90.5332,250,94.5332,254,90.5332" style="stroke:#181818;stroke-width:1.0;"/><line style="stroke:#181818;stroke-width:1.0;" x1="0" x2="256" y1="90.5332" y2="90.5332"/><text fill="#000000" font-family="sans-serif" font-size="13" font-weight="bold" lengthAdjust="spacing" textLength="7" x="7" y="85.2705">1</text><text fill="#000000" font-family="sans-serif" font-size="13" lengthAdjust="spacing" textLength="232" x="18" y="85.2705">submitClientData(clientValues, address)</text><polygon fill="#181818" points="501,117.8242,511,121.8242,501,125.8242,505,121.8242" style="stroke:#181818;stroke-width:1.0;"/><line style="stroke:#181818;stroke-width:1.0;" x1="272" x2="507" y1="121.8242" y2="121.8242"/><text fill="#000000" font-family="sans-serif" font-size="13" font-weight="bold" lengthAdjust="spacing" textLength="7" x="279" y="116.5615">2</text><text fill="#000000" font-family="sans-serif" font-size="13" lengthAdjust="spacing" textLength="211" x="290" y="116.5615">createClient(clientValues, password)</text><polygon fill="#181818" points="977,149.1152,987,153.1152,977,157.1152,981,153.1152" style="stroke:#181818;stroke-width:1.0;"/><line style="stroke:#181818;stroke-width:1.0;" x1="523" x2="983" y1="153.1152" y2="153.1152"/><text fill="#000000" font-family="sans-serif" font-size="13" font-weight="bold" lengthAdjust="spacing" textLength="7" x="530" y="147.8525">3</text><text fill="#000000" font-family="sans-serif" font-size="13" lengthAdjust="spacing" textLength="431" x="541" y="147.8525">create(name, email, passportNumber, taxNumber, address, phoneNumber)</text><rect fill="#E3E3E3" height="51.2422" rx="2.5" ry="2.5" style="stroke:#181818;stroke-width:0.5;" width="51" x="989" y="129.8242"/><text fill="#000000" font-family="sans-serif" font-size="14" lengthAdjust="spacing" textLength="37" x="996" y="151.9316">client:</text><text fill="#000000" font-family="sans-serif" font-size="14" lengthAdjust="spacing" textLength="36" x="996.5" y="170.5527">Client</text><line style="stroke:#181818;stroke-width:1.0;" x1="523" x2="570" y1="210.3574" y2="210.3574"/><line style="stroke:#181818;stroke-width:1.0;" x1="570" x2="570" y1="210.3574" y2="223.3574"/><line style="stroke:#181818;stroke-width:1.0;" x1="529" x2="570" y1="223.3574" y2="223.3574"/><polygon fill="#181818" points="539,219.3574,529,223.3574,539,227.3574,535,223.3574" style="stroke:#181818;stroke-width:1.0;"/><text fill="#000000" font-family="sans-serif" font-size="13" font-weight="bold" lengthAdjust="spacing" textLength="7" x="535" y="205.0947">4</text><text fill="#000000" font-family="sans-serif" font-size="13" lengthAdjust="spacing" textLength="60" x="546" y="205.0947">add(client)</text><line style="stroke:#181818;stroke-width:1.0;" x1="528" x2="575" y1="254.6484" y2="254.6484"/><line style="stroke:#181818;stroke-width:1.0;" x1="575" x2="575" y1="254.6484" y2="267.6484"/><line style="stroke:#181818;stroke-width:1.0;" x1="534" x2="575" y1="267.6484" y2="267.6484"/><polygon fill="#181818" points="544,263.6484,534,267.6484,544,271.6484,540,267.6484" style="stroke:#181818;stroke-width:1.0;"/><text fill="#000000" font-family="sans-serif" font-size="13" font-weight="bold" lengthAdjust="spacing" textLength="7" x="540" y="249.3857">5</text><text fill="#000000" font-family="sans-serif" font-size="13" lengthAdjust="spacing" textLength="115" x="551" y="249.3857">validateClient(client)</text><line style="stroke:#181818;stroke-width:1.0;stroke-dasharray:2.0,2.0;" x1="533" x2="575" y1="308.9395" y2="308.9395"/><line style="stroke:#181818;stroke-width:1.0;stroke-dasharray:2.0,2.0;" x1="575" x2="575" y1="308.9395" y2="321.9395"/><line style="stroke:#181818;stroke-width:1.0;stroke-dasharray:2.0,2.0;" x1="528" x2="575" y1="321.9395" y2="321.9395"/><polygon fill="#181818" points="538,317.9395,528,321.9395,538,325.9395,534,321.9395" style="stroke:#181818;stroke-width:1.0;"/><text fill="#000000" font-family="sans-serif" font-size="13" font-weight="bold" lengthAdjust="spacing" textLength="7" x="540" y="303.6768">6</text><text fill="#000000" font-family="sans-serif" font-size="13" lengthAdjust="spacing" textLength="4" x="551" y="303.6768">&#160;</text><line style="stroke:#181818;stroke-width:1.0;stroke-dasharray:2.0,2.0;" x1="528" x2="570" y1="353.2305" y2="353.2305"/><line style="stroke:#181818;stroke-width:1.0;stroke-dasharray:2.0,2.0;" x1="570" x2="570" y1="353.2305" y2="366.2305"/><line style="stroke:#181818;stroke-width:1.0;stroke-dasharray:2.0,2.0;" x1="523" x2="570" y1="366.2305" y2="366.2305"/><polygon fill="#181818" points="533,362.2305,523,366.2305,533,370.2305,529,366.2305" style="stroke:#181818;stroke-width:1.0;"/><text fill="#000000" font-family="sans-serif" font-size="13" font-weight="bold" lengthAdjust="spacing" textLength="7" x="535" y="347.9678">7</text><text fill="#000000" font-family="sans-serif" font-size="13" lengthAdjust="spacing" textLength="4" x="546" y="347.9678">&#160;</text><polygon fill="#181818" points="283,388.5215,273,392.5215,283,396.5215,279,392.5215" style="stroke:#181818;stroke-width:1.0;"/><line style="stroke:#181818;stroke-width:1.0;stroke-dasharray:2.0,2.0;" x1="277" x2="517" y1="392.5215" y2="392.5215"/><text fill="#000000" font-family="sans-serif" font-size="13" font-weight="bold" lengthAdjust="spacing" textLength="7" x="289" y="387.2588">8</text><text fill="#000000" font-family="sans-serif" font-size="13" lengthAdjust="spacing" textLength="31" x="300" y="387.2588">client</text><polygon fill="#181818" points="11,419.8125,1,423.8125,11,427.8125,7,423.8125" style="stroke:#181818;stroke-width:1.0;"/><line style="stroke:#181818;stroke-width:1.0;stroke-dasharray:2.0,2.0;" x1="5" x2="266" y1="423.8125" y2="423.8125"/><text fill="#000000" font-family="sans-serif" font-size="13" font-weight="bold" lengthAdjust="spacing" textLength="7" x="17" y="418.5498">9</text><text fill="#000000" font-family="sans-serif" font-size="13" lengthAdjust="spacing" textLength="31" x="28" y="418.5498">client</text><!--SRC=[dP71Ri8m38RlUGgB4o1u0JJjqY4DhTg1IJljOXAlZPecLUB2UFibf5ICTPVT8kVpvzz9QBJjq6CBhRDErjwr1Enx4c6ywL0sMD4Rdms19ybeAtCBX1gLEsbRmIUQG480zknitnx82o4Yn5hg3Yt3J27ZpZ9LNlEvg4asv3SVzccYF0CCK3nlYvVj_gT46asMzzIveDdvSnGKTwNSN4usZlW0xM9YM3zUPy46GdzeDMSeHPldndSqFOKLe5AUGbYaJINh8pADGKTB4fP99Zr58ClkH1s6S79UBMv5PPAKWs2tN8wAkSMMLa0jQfDxE-VvzVBEAs3ykXw7V96fdQLSJM57QueLeI7DtzCJTqIZrVq2qosvPoD0qRzkyyl5TIypVe427jRhcr-QmePV-0O0]--></g></svg>