<?xml version="1.0" encoding="us-ascii" standalone="no"?><svg xmlns="http://www.w3.org/2000/svg" xmlns:xlink="http://www.w3.org/1999/xlink" contentStyleType="text/css" height="498px" preserveAspectRatio="none" style="width:1294px;height:498px;background:#FFFFFF;" version="1.1" viewBox="0 0 1294 498" width="1294px" zoomAndPan="magnify"><defs/><g><rect fill="#FFFFFF" height="333.2793" style="stroke:#181818;stroke-width:1.0;" width="10" x="409" y="90.5332"/><rect fill="#FFFFFF" height="270.6973" style="stroke:#181818;stroke-width:1.0;" width="10" x="798" y="121.8242"/><rect fill="#FFFFFF" height="130.873" style="stroke:#181818;stroke-width:1.0;" width="10" x="803" y="223.3574"/><rect fill="#FFFFFF" height="42.291" style="stroke:#181818;stroke-width:1.0;" width="10" x="808" y="267.6484"/><line style="stroke:#181818;stroke-width:0.5;stroke-dasharray:5.0,5.0;" x1="413.5" x2="413.5" y1="57.2422" y2="441.8125"/><line style="stroke:#181818;stroke-width:0.5;stroke-dasharray:5.0,5.0;" x1="803" x2="803" y1="57.2422" y2="441.8125"/><line style="stroke:#181818;stroke-width:0.5;stroke-dasharray:5.0,5.0;" x1="1231" x2="1231" y1="170.9453" y2="441.8125"/><rect fill="#E3E3E3" height="51.2422" rx="2.5" ry="2.5" style="stroke:#181818;stroke-width:0.5;" width="149" x="339.5" y="5"/><text fill="#000000" font-family="sans-serif" font-size="14" lengthAdjust="spacing" textLength="135" x="346.5" y="27.1074">dataIntegrityChecker:</text><text fill="#000000" font-family="sans-serif" font-size="14" lengthAdjust="spacing" textLength="133" x="347.5" y="45.7285">DataIntegrityChecker</text><rect fill="#E3E3E3" height="51.2422" rx="2.5" ry="2.5" style="stroke:#181818;stroke-width:0.5;" width="149" x="339.5" y="440.8125"/><text fill="#000000" font-family="sans-serif" font-size="14" lengthAdjust="spacing" textLength="135" x="346.5" y="462.9199">dataIntegrityChecker:</text><text fill="#000000" font-family="sans-serif" font-size="14" lengthAdjust="spacing" textLength="133" x="347.5" y="481.541">DataIntegrityChecker</text><rect fill="#E3E3E3" height="51.2422" rx="2.5" ry="2.5" style="stroke:#181818;stroke-width:0.5;" width="182" x="712" y="5"/><text fill="#000000" font-family="sans-serif" font-size="14" lengthAdjust="spacing" textLength="168" x="719" y="27.1074">purchaseOrderRepository:</text><text fill="#000000" font-family="sans-serif" font-size="14" lengthAdjust="spacing" textLength="165" x="720.5" y="45.7285">PurchaseOrderRepository</text><rect fill="#E3E3E3" height="51.2422" rx="2.5" ry="2.5" style="stroke:#181818;stroke-width:0.5;" width="182" x="712" y="440.8125"/><text fill="#000000" font-family="sans-serif" font-size="14" lengthAdjust="spacing" textLength="168" x="719" y="462.9199">purchaseOrderRepository:</text><text fill="#000000" font-family="sans-serif" font-size="14" lengthAdjust="spacing" textLength="165" x="720.5" y="481.541">PurchaseOrderRepository</text><rect fill="#E3E3E3" height="51.2422" rx="2.5" ry="2.5" style="stroke:#181818;stroke-width:0.5;" width="114" x="1174" y="440.8125"/><text fill="#000000" font-family="sans-serif" font-size="14" lengthAdjust="spacing" textLength="100" x="1181" y="462.9199">purchaseOrder:</text><text fill="#000000" font-family="sans-serif" font-size="14" lengthAdjust="spacing" textLength="97" x="1182.5" y="481.541">PurchaseOrder</text><rect fill="#FFFFFF" height="333.2793" style="stroke:#181818;stroke-width:1.0;" width="10" x="409" y="90.5332"/><rect fill="#FFFFFF" height="270.6973" style="stroke:#181818;stroke-width:1.0;" width="10" x="798" y="121.8242"/><rect fill="#FFFFFF" height="130.873" style="stroke:#181818;stroke-width:1.0;" width="10" x="803" y="223.3574"/><rect fill="#FFFFFF" height="42.291" style="stroke:#181818;stroke-width:1.0;" width="10" x="808" y="267.6484"/><polygon fill="#181818" points="397,86.5332,407,90.5332,397,94.5332,401,90.5332" style="stroke:#181818;stroke-width:1.0;"/><line style="stroke:#181818;stroke-width:1.0;" x1="0" x2="403" y1="90.5332" y2="90.5332"/><text fill="#000000" font-family="sans-serif" font-size="13" font-weight="bold" lengthAdjust="spacing" textLength="7" x="7" y="85.2705">1</text><text fill="#000000" font-family="sans-serif" font-size="13" lengthAdjust="spacing" textLength="379" x="18" y="85.2705">submitPurchaseOrderData(purchaseOrderValues, announcement)</text><polygon fill="#181818" points="786,117.8242,796,121.8242,786,125.8242,790,121.8242" style="stroke:#181818;stroke-width:1.0;"/><line style="stroke:#181818;stroke-width:1.0;" x1="419" x2="792" y1="121.8242" y2="121.8242"/><text fill="#000000" font-family="sans-serif" font-size="13" font-weight="bold" lengthAdjust="spacing" textLength="7" x="426" y="116.5615">2</text><text fill="#000000" font-family="sans-serif" font-size="13" lengthAdjust="spacing" textLength="349" x="437" y="116.5615">createPurchaseOrder(purchaseOrderValues, announcement)</text><polygon fill="#181818" points="1162,149.1152,1172,153.1152,1162,157.1152,1166,153.1152" style="stroke:#181818;stroke-width:1.0;"/><line style="stroke:#181818;stroke-width:1.0;" x1="808" x2="1168" y1="153.1152" y2="153.1152"/><text fill="#000000" font-family="sans-serif" font-size="13" font-weight="bold" lengthAdjust="spacing" textLength="7" x="815" y="147.8525">3</text><text fill="#000000" font-family="sans-serif" font-size="13" lengthAdjust="spacing" textLength="331" x="826" y="147.8525">create(orderAmount, announcement, client, creationDate)</text><rect fill="#E3E3E3" height="51.2422" rx="2.5" ry="2.5" style="stroke:#181818;stroke-width:0.5;" width="114" x="1174" y="129.8242"/><text fill="#000000" font-family="sans-serif" font-size="14" lengthAdjust="spacing" textLength="100" x="1181" y="151.9316">purchaseOrder:</text><text fill="#000000" font-family="sans-serif" font-size="14" lengthAdjust="spacing" textLength="97" x="1182.5" y="170.5527">PurchaseOrder</text><line style="stroke:#181818;stroke-width:1.0;" x1="808" x2="855" y1="210.3574" y2="210.3574"/><line style="stroke:#181818;stroke-width:1.0;" x1="855" x2="855" y1="210.3574" y2="223.3574"/><line style="stroke:#181818;stroke-width:1.0;" x1="814" x2="855" y1="223.3574" y2="223.3574"/><polygon fill="#181818" points="824,219.3574,814,223.3574,824,227.3574,820,223.3574" style="stroke:#181818;stroke-width:1.0;"/><text fill="#000000" font-family="sans-serif" font-size="13" font-weight="bold" lengthAdjust="spacing" textLength="7" x="820" y="205.0947">4</text><text fill="#000000" font-family="sans-serif" font-size="13" lengthAdjust="spacing" textLength="114" x="831" y="205.0947">add(purchaseOrder)</text><line style="stroke:#181818;stroke-width:1.0;" x1="813" x2="860" y1="254.6484" y2="254.6484"/><line style="stroke:#181818;stroke-width:1.0;" x1="860" x2="860" y1="254.6484" y2="267.6484"/><line style="stroke:#181818;stroke-width:1.0;" x1="819" x2="860" y1="267.6484" y2="267.6484"/><polygon fill="#181818" points="829,263.6484,819,267.6484,829,271.6484,825,267.6484" style="stroke:#181818;stroke-width:1.0;"/><text fill="#000000" font-family="sans-serif" font-size="13" font-weight="bold" lengthAdjust="spacing" textLength="7" x="825" y="249.3857">5</text><text fill="#000000" font-family="sans-serif" font-size="13" lengthAdjust="spacing" textLength="223" x="836" y="249.3857">validatePurchaseOrder(purchaseOrder)</text><line style="stroke:#181818;stroke-width:1.0;stroke-dasharray:2.0,2.0;" x1="818" x2="860" y1="308.9395" y2="308.9395"/><line style="stroke:#181818;stroke-width:1.0;stroke-dasharray:2.0,2.0;" x1="860" x2="860" y1="308.9395" y2="321.9395"/><line style="stroke:#181818;stroke-width:1.0;stroke-dasharray:2.0,2.0;" x1="813" x2="860" y1="321.9395" y2="321.9395"/><polygon fill="#181818" points="823,317.9395,813,321.9395,823,325.9395,819,321.9395" style="stroke:#181818;stroke-width:1.0;"/><text fill="#000000" font-family="sans-serif" font-size="13" font-weight="bold" lengthAdjust="spacing" textLength="7" x="825" y="303.6768">6</text><text fill="#000000" font-family="sans-serif" font-size="13" lengthAdjust="spacing" textLength="4" x="836" y="303.6768">&#160;</text><line style="stroke:#181818;stroke-width:1.0;stroke-dasharray:2.0,2.0;" x1="813" x2="855" y1="353.2305" y2="353.2305"/><line style="stroke:#181818;stroke-width:1.0;stroke-dasharray:2.0,2.0;" x1="855" x2="855" y1="353.2305" y2="366.2305"/><line style="stroke:#181818;stroke-width:1.0;stroke-dasharray:2.0,2.0;" x1="808" x2="855" y1="366.2305" y2="366.2305"/><polygon fill="#181818" points="818,362.2305,808,366.2305,818,370.2305,814,366.2305" style="stroke:#181818;stroke-width:1.0;"/><text fill="#000000" font-family="sans-serif" font-size="13" font-weight="bold" lengthAdjust="spacing" textLength="7" x="820" y="347.9678">7</text><text fill="#000000" font-family="sans-serif" font-size="13" lengthAdjust="spacing" textLength="4" x="831" y="347.9678">&#160;</text><polygon fill="#181818" points="430,388.5215,420,392.5215,430,396.5215,426,392.5215" style="stroke:#181818;stroke-width:1.0;"/><line style="stroke:#181818;stroke-width:1.0;stroke-dasharray:2.0,2.0;" x1="424" x2="802" y1="392.5215" y2="392.5215"/><text fill="#000000" font-family="sans-serif" font-size="13" font-weight="bold" lengthAdjust="spacing" textLength="7" x="436" y="387.2588">8</text><text fill="#000000" font-family="sans-serif" font-size="13" lengthAdjust="spacing" textLength="85" x="447" y="387.2588">purchaseOrder</text><polygon fill="#181818" points="11,419.8125,1,423.8125,11,427.8125,7,423.8125" style="stroke:#181818;stroke-width:1.0;"/><line style="stroke:#181818;stroke-width:1.0;stroke-dasharray:2.0,2.0;" x1="5" x2="413" y1="423.8125" y2="423.8125"/><text fill="#000000" font-family="sans-serif" font-size="13" font-weight="bold" lengthAdjust="spacing" textLength="7" x="17" y="418.5498">9</text><text fill="#000000" font-family="sans-serif" font-size="13" lengthAdjust="spacing" textLength="85" x="28" y="418.5498">purchaseOrder</text><!--SRC=[bP71QW8n48RlUOh1aug-m58AnGgM7XGBFVKo9jFTi9jaIIOMtxw9rcqZLl0KcFd_R_x9X5RR7ZqQCCuwsNXd2DX74c7ez2XRhEcD3ns19ybew-wl83Iet9UsDNnY5qW8mCZEHhCZBqJIi9QwHyimKiZuOfbgh_cmQ4YsvAiF-tobF08Ci5Wj5w_BRGdfevSD1bfxHNvBlGkQdJyapkPwvuZQh4lCPfsh9UmICKgxp1_FAQ2247T6Sw79sSS5vHsxI646QAsBLf8XonE1alKUcOQTpjGq86LBSEafzGluNU2yOIOTWTFfG1oxR7uooSEbUGQoqwStAxNBbw29-CNaNAXKcUE_cLcynqwhssjSiv_ybL1qT-_d7oieXbognSDyFXmIReZFv_a6]--></g></svg>