<?xml version="1.0" encoding="us-ascii" standalone="no"?><svg xmlns="http://www.w3.org/2000/svg" xmlns:xlink="http://www.w3.org/1999/xlink" contentStyleType="text/css" height="498px" preserveAspectRatio="none" style="width:1282px;height:498px;background:#FFFFFF;" version="1.1" viewBox="0 0 1282 498" width="1282px" zoomAndPan="magnify"><defs/><g><rect fill="#FFFFFF" height="333.2793" style="stroke:#181818;stroke-width:1.0;" width="10" x="370" y="90.5332"/><rect fill="#FFFFFF" height="270.6973" style="stroke:#181818;stroke-width:1.0;" width="10" x="720" y="121.8242"/><rect fill="#FFFFFF" height="130.873" style="stroke:#181818;stroke-width:1.0;" width="10" x="725" y="223.3574"/><rect fill="#FFFFFF" height="42.291" style="stroke:#181818;stroke-width:1.0;" width="10" x="730" y="267.6484"/><line style="stroke:#181818;stroke-width:0.5;stroke-dasharray:5.0,5.0;" x1="374.5" x2="374.5" y1="57.2422" y2="441.8125"/><line style="stroke:#181818;stroke-width:0.5;stroke-dasharray:5.0,5.0;" x1="725" x2="725" y1="57.2422" y2="441.8125"/><line style="stroke:#181818;stroke-width:0.5;stroke-dasharray:5.0,5.0;" x1="1220" x2="1220" y1="170.9453" y2="441.8125"/><rect fill="#E3E3E3" height="51.2422" rx="2.5" ry="2.5" style="stroke:#181818;stroke-width:0.5;" width="149" x="300.5" y="5"/><text fill="#000000" font-family="sans-serif" font-size="14" lengthAdjust="spacing" textLength="135" x="307.5" y="27.1074">dataIntegrityChecker:</text><text fill="#000000" font-family="sans-serif" font-size="14" lengthAdjust="spacing" textLength="133" x="308.5" y="45.7285">DataIntegrityChecker</text><rect fill="#E3E3E3" height="51.2422" rx="2.5" ry="2.5" style="stroke:#181818;stroke-width:0.5;" width="149" x="300.5" y="440.8125"/><text fill="#000000" font-family="sans-serif" font-size="14" lengthAdjust="spacing" textLength="135" x="307.5" y="462.9199">dataIntegrityChecker:</text><text fill="#000000" font-family="sans-serif" font-size="14" lengthAdjust="spacing" textLength="133" x="308.5" y="481.541">DataIntegrityChecker</text><rect fill="#E3E3E3" height="51.2422" rx="2.5" ry="2.5" style="stroke:#181818;stroke-width:0.5;" width="180" x="635" y="5"/><text fill="#000000" font-family="sans-serif" font-size="14" lengthAdjust="spacing" textLength="166" x="642" y="27.1074">announcementRepository:</text><text fill="#000000" font-family="sans-serif" font-size="14" lengthAdjust="spacing" textLength="163" x="643.5" y="45.7285">AnnouncementRepository</text><rect fill="#E3E3E3" height="51.2422" rx="2.5" ry="2.5" style="stroke:#181818;stroke-width:0.5;" width="180" x="635" y="440.8125"/><text fill="#000000" font-family="sans-serif" font-size="14" lengthAdjust="spacing" textLength="166" x="642" y="462.9199">announcementRepository:</text><text fill="#000000" font-family="sans-serif" font-size="14" lengthAdjust="spacing" textLength="163" x="643.5" y="481.541">AnnouncementRepository</text><rect fill="#E3E3E3" height="51.2422" rx="2.5" ry="2.5" style="stroke:#181818;stroke-width:0.5;" width="112" x="1164" y="440.8125"/><text fill="#000000" font-family="sans-serif" font-size="14" lengthAdjust="spacing" textLength="98" x="1171" y="462.9199">announcement:</text><text fill="#000000" font-family="sans-serif" font-size="14" lengthAdjust="spacing" textLength="95" x="1172.5" y="481.541">Announcement</text><rect fill="#FFFFFF" height="333.2793" style="stroke:#181818;stroke-width:1.0;" width="10" x="370" y="90.5332"/><rect fill="#FFFFFF" height="270.6973" style="stroke:#181818;stroke-width:1.0;" width="10" x="720" y="121.8242"/><rect fill="#FFFFFF" height="130.873" style="stroke:#181818;stroke-width:1.0;" width="10" x="725" y="223.3574"/><rect fill="#FFFFFF" height="42.291" style="stroke:#181818;stroke-width:1.0;" width="10" x="730" y="267.6484"/><polygon fill="#181818" points="358,86.5332,368,90.5332,358,94.5332,362,90.5332" style="stroke:#181818;stroke-width:1.0;"/><line style="stroke:#181818;stroke-width:1.0;" x1="0" x2="364" y1="90.5332" y2="90.5332"/><text fill="#000000" font-family="sans-serif" font-size="13" font-weight="bold" lengthAdjust="spacing" textLength="7" x="7" y="85.2705">1</text><text fill="#000000" font-family="sans-serif" font-size="13" lengthAdjust="spacing" textLength="340" x="18" y="85.2705">submitAnnouncementData(announcementValues, address)</text><polygon fill="#181818" points="708,117.8242,718,121.8242,708,125.8242,712,121.8242" style="stroke:#181818;stroke-width:1.0;"/><line style="stroke:#181818;stroke-width:1.0;" x1="380" x2="714" y1="121.8242" y2="121.8242"/><text fill="#000000" font-family="sans-serif" font-size="13" font-weight="bold" lengthAdjust="spacing" textLength="7" x="387" y="116.5615">2</text><text fill="#000000" font-family="sans-serif" font-size="13" lengthAdjust="spacing" textLength="310" x="398" y="116.5615">createAnnouncement(announcementValues, address)</text><polygon fill="#181818" points="1152,149.1152,1162,153.1152,1152,157.1152,1156,153.1152" style="stroke:#181818;stroke-width:1.0;"/><line style="stroke:#181818;stroke-width:1.0;" x1="730" x2="1158" y1="153.1152" y2="153.1152"/><text fill="#000000" font-family="sans-serif" font-size="13" font-weight="bold" lengthAdjust="spacing" textLength="7" x="737" y="147.8525">3</text><text fill="#000000" font-family="sans-serif" font-size="13" lengthAdjust="spacing" textLength="399" x="748" y="147.8525">create(listedPrice, rentDuration, agent, date, businessType, property)</text><rect fill="#E3E3E3" height="51.2422" rx="2.5" ry="2.5" style="stroke:#181818;stroke-width:0.5;" width="112" x="1164" y="129.8242"/><text fill="#000000" font-family="sans-serif" font-size="14" lengthAdjust="spacing" textLength="98" x="1171" y="151.9316">announcement:</text><text fill="#000000" font-family="sans-serif" font-size="14" lengthAdjust="spacing" textLength="95" x="1172.5" y="170.5527">Announcement</text><line style="stroke:#181818;stroke-width:1.0;" x1="730" x2="777" y1="210.3574" y2="210.3574"/><line style="stroke:#181818;stroke-width:1.0;" x1="777" x2="777" y1="210.3574" y2="223.3574"/><line style="stroke:#181818;stroke-width:1.0;" x1="736" x2="777" y1="223.3574" y2="223.3574"/><polygon fill="#181818" points="746,219.3574,736,223.3574,746,227.3574,742,223.3574" style="stroke:#181818;stroke-width:1.0;"/><text fill="#000000" font-family="sans-serif" font-size="13" font-weight="bold" lengthAdjust="spacing" textLength="7" x="742" y="205.0947">4</text><text fill="#000000" font-family="sans-serif" font-size="13" lengthAdjust="spacing" textLength="114" x="753" y="205.0947">add(announcement)</text><line style="stroke:#181818;stroke-width:1.0;" x1="735" x2="782" y1="254.6484" y2="254.6484"/><line style="stroke:#181818;stroke-width:1.0;" x1="782" x2="782" y1="254.6484" y2="267.6484"/><line style="stroke:#181818;stroke-width:1.0;" x1="741" x2="782" y1="267.6484" y2="267.6484"/><polygon fill="#181818" points="751,263.6484,741,267.6484,751,271.6484,747,267.6484" style="stroke:#181818;stroke-width:1.0;"/><text fill="#000000" font-family="sans-serif" font-size="13" font-weight="bold" lengthAdjust="spacing" textLength="7" x="747" y="249.3857">5</text><text fill="#000000" font-family="sans-serif" font-size="13" lengthAdjust="spacing" textLength="223" x="758" y="249.3857">validateAnnouncement(announcement)</text><line style="stroke:#181818;stroke-width:1.0;stroke-dasharray:2.0,2.0;" x1="740" x2="782" y1="308.9395" y2="308.9395"/><line style="stroke:#181818;stroke-width:1.0;stroke-dasharray:2.0,2.0;" x1="782" x2="782" y1="308.9395" y2="321.9395"/><line style="stroke:#181818;stroke-width:1.0;stroke-dasharray:2.0,2.0;" x1="735" x2="782" y1="321.9395" y2="321.9395"/><polygon fill="#181818" points="745,317.9395,735,321.9395,745,325.9395,741,321.9395" style="stroke:#181818;stroke-width:1.0;"/><text fill="#000000" font-family="sans-serif" font-size="13" font-weight="bold" lengthAdjust="spacing" textLength="7" x="747" y="303.6768">6</text><text fill="#000000" font-family="sans-serif" font-size="13" lengthAdjust="spacing" textLength="4" x="758" y="303.6768">&#160;</text><line style="stroke:#181818;stroke-width:1.0;stroke-dasharray:2.0,2.0;" x1="735" x2="777" y1="353.2305" y2="353.2305"/><line style="stroke:#181818;stroke-width:1.0;stroke-dasharray:2.0,2.0;" x1="777" x2="777" y1="353.2305" y2="366.2305"/><line style="stroke:#181818;stroke-width:1.0;stroke-dasharray:2.0,2.0;" x1="730" x2="777" y1="366.2305" y2="366.2305"/><polygon fill="#181818" points="740,362.2305,730,366.2305,740,370.2305,736,366.2305" style="stroke:#181818;stroke-width:1.0;"/><text fill="#000000" font-family="sans-serif" font-size="13" font-weight="bold" lengthAdjust="spacing" textLength="7" x="742" y="347.9678">7</text><text fill="#000000" font-family="sans-serif" font-size="13" lengthAdjust="spacing" textLength="4" x="753" y="347.9678">&#160;</text><polygon fill="#181818" points="391,388.5215,381,392.5215,391,396.5215,387,392.5215" style="stroke:#181818;stroke-width:1.0;"/><line style="stroke:#181818;stroke-width:1.0;stroke-dasharray:2.0,2.0;" x1="385" x2="724" y1="392.5215" y2="392.5215"/><text fill="#000000" font-family="sans-serif" font-size="13" font-weight="bold" lengthAdjust="spacing" textLength="7" x="397" y="387.2588">8</text><text fill="#000000" font-family="sans-serif" font-size="13" lengthAdjust="spacing" textLength="85" x="408" y="387.2588">announcement</text><polygon fill="#181818" points="11,419.8125,1,423.8125,11,427.8125,7,423.8125" style="stroke:#181818;stroke-width:1.0;"/><line style="stroke:#181818;stroke-width:1.0;stroke-dasharray:2.0,2.0;" x1="5" x2="374" y1="423.8125" y2="423.8125"/><text fill="#000000" font-family="sans-serif" font-size="13" font-weight="bold" lengthAdjust="spacing" textLength="7" x="17" y="418.5498">9</text><text fill="#000000" font-family="sans-serif" font-size="13" lengthAdjust="spacing" textLength="85" x="28" y="418.5498">announcement</text><!--SRC=[dP7TIWCn48NlynIXLsrfNw28K5P14OjKySgRQJ9kGtSd8PbKzksTxP_RjOfuEJadNyx9f8sZ015gNNloPXrzZPfZHfLEIW2pWHAVkQbGHpGCL5PTGrg3zH-EIlqELKAbD6JsbEiLHgN4mywu0CHwO87XdXZBwBWfrcWs66TlT7FXUA0XwUBkjdYuNVOeGEGp6QoHU8d19yS-DiAPNnHsf7dnsCFC5ukYLSvmFSX0oaolZp7qJAUygXrtBMtsOHVn2bN6DD5WRSIKHWeCkoqmVhKvyWJTvXAkYIYEBlUFp7qlfNQSbYUjnkCJSLYvn6YVeZCuaUr9tXo1dIU1bJ9EjEn4f5LEZWJzqWIPGlG18pUZBdcVL2ASHUjdwTctK3dxMxNBzm-0cRBuF_dmnPAtyzOtkxgQJa_RrJ-RZvlx1000]--></g></svg>