<?xml version="1.0" encoding="us-ascii" standalone="no"?><svg xmlns="http://www.w3.org/2000/svg" xmlns:xlink="http://www.w3.org/1999/xlink" contentStyleType="text/css" height="887.4px" preserveAspectRatio="none" style="width:899px;height:887px;background:#FFFFFF;" version="1.1" viewBox="0 0 899 887" width="899.4px" zoomAndPan="magnify"><defs><filter height="300%" id="f12y5w2mjiafx0" width="300%" x="-1" y="-1"><feGaussianBlur result="blurOut" stdDeviation="1.2"/><feColorMatrix in="blurOut" result="blurOut2" type="matrix" values="0 0 0 0 0 0 0 0 0 0 0 0 0 0 0 0 0 0 .4 0"/><feOffset dx="2.4" dy="2.4" in="blurOut2" result="blurOut3"/><feBlend in="SourceGraphic" in2="blurOut3" mode="normal"/></filter></defs><g><!--class Store--><g id="elem_Store"><rect codeLine="11" fill="#F1F1F1" filter="url(#f12y5w2mjiafx0)" height="73.4906" id="Store" rx="1.5" ry="1.5" style="stroke:#181818;stroke-width:0.3;" width="92.4" x="177" y="571.5"/><ellipse cx="210.45" cy="581.1" fill="#ADD1B2" rx="6.6" ry="6.6" style="stroke:#181818;stroke-width:0.6;"/><path d="M212.1094,578.625 Q212.2031,578.4938 212.3156,578.4281 Q212.4281,578.3625 212.5594,578.3625 Q212.7844,578.3625 212.925,578.5219 Q213.0656,578.6719 213.0656,579.0375 L213.0656,579.9094 Q213.0656,580.275 212.925,580.4344 Q212.7844,580.5938 212.5594,580.5938 Q212.3531,580.5938 212.2313,580.4719 Q212.1094,580.3594 212.0438,580.05 Q212.0156,579.8344 211.9031,579.7219 Q211.7062,579.4969 211.3406,579.3656 Q210.975,579.2344 210.6,579.2344 Q210.1406,579.2344 209.7563,579.4313 Q209.3813,579.6281 209.0812,580.0781 Q208.7906,580.5281 208.7906,581.1469 L208.7906,581.8031 Q208.7906,582.5437 209.325,583.0406 Q209.8594,583.5281 210.8156,583.5281 Q211.3781,583.5281 211.7719,583.3781 Q212.0063,583.2844 212.2594,583.0219 Q212.4188,582.8625 212.5031,582.8156 Q212.5969,582.7688 212.7188,582.7688 Q212.9156,582.7688 213.0656,582.9281 Q213.225,583.0781 213.225,583.2844 Q213.225,583.4906 213.0187,583.7344 Q212.7188,584.0813 212.2406,584.2781 Q211.5938,584.55 210.8156,584.55 Q209.9063,584.55 209.1844,584.175 Q208.5938,583.875 208.1813,583.2375 Q207.7687,582.5906 207.7687,581.8219 L207.7687,581.1281 Q207.7687,580.3313 208.1344,579.6469 Q208.5094,578.9531 209.1656,578.5875 Q209.8219,578.2125 210.5625,578.2125 Q211.0031,578.2125 211.3875,578.3156 Q211.7813,578.4094 212.1094,578.625 Z " fill="#000000"/><text fill="#000000" font-family="sans-serif" font-size="8.4" lengthAdjust="spacing" textLength="20.4" x="222.75" y="584.5781">Store</text><line style="stroke:#181818;stroke-width:0.3;" x1="177.6" x2="268.8" y1="590.7" y2="590.7"/><text fill="#000000" font-family="sans-serif" font-size="8.4" lengthAdjust="spacing" textLength="38.4" x="180.6" y="602.1645">-Integer id</text><text fill="#000000" font-family="sans-serif" font-size="8.4" lengthAdjust="spacing" textLength="71.4" x="180.6" y="613.3371">-String designation</text><text fill="#000000" font-family="sans-serif" font-size="8.4" lengthAdjust="spacing" textLength="47.4" x="180.6" y="624.5098">-String email</text><text fill="#000000" font-family="sans-serif" font-size="8.4" lengthAdjust="spacing" textLength="85.2" x="180.6" y="635.6824">-Integer phoneNumber</text><line style="stroke:#181818;stroke-width:0.3;" x1="177.6" x2="268.8" y1="640.1906" y2="640.1906"/></g><!--class Employee--><g id="elem_Employee"><rect codeLine="18" fill="#F1F1F1" filter="url(#f12y5w2mjiafx0)" height="84.6633" id="Employee" rx="1.5" ry="1.5" style="stroke:#181818;stroke-width:0.3;" width="101.4" x="8.1" y="565.8"/><ellipse cx="37.65" cy="575.4" fill="#ADD1B2" rx="6.6" ry="6.6" style="stroke:#181818;stroke-width:0.6;"/><path d="M39.3094,572.925 Q39.4031,572.7937 39.5156,572.7281 Q39.6281,572.6625 39.7594,572.6625 Q39.9844,572.6625 40.125,572.8219 Q40.2656,572.9719 40.2656,573.3375 L40.2656,574.2094 Q40.2656,574.575 40.125,574.7344 Q39.9844,574.8938 39.7594,574.8938 Q39.5531,574.8938 39.4313,574.7719 Q39.3094,574.6594 39.2438,574.35 Q39.2156,574.1344 39.1031,574.0219 Q38.9063,573.7969 38.5406,573.6656 Q38.175,573.5344 37.8,573.5344 Q37.3406,573.5344 36.9563,573.7312 Q36.5813,573.9281 36.2813,574.3781 Q35.9906,574.8281 35.9906,575.4469 L35.9906,576.1031 Q35.9906,576.8438 36.525,577.3406 Q37.0594,577.8281 38.0156,577.8281 Q38.5781,577.8281 38.9719,577.6781 Q39.2063,577.5844 39.4594,577.3219 Q39.6188,577.1625 39.7031,577.1156 Q39.7969,577.0688 39.9187,577.0688 Q40.1156,577.0688 40.2656,577.2281 Q40.425,577.3781 40.425,577.5844 Q40.425,577.7906 40.2188,578.0344 Q39.9187,578.3813 39.4406,578.5781 Q38.7937,578.85 38.0156,578.85 Q37.1062,578.85 36.3844,578.475 Q35.7937,578.175 35.3813,577.5375 Q34.9688,576.8906 34.9688,576.1219 L34.9688,575.4281 Q34.9688,574.6313 35.3344,573.9469 Q35.7094,573.2531 36.3656,572.8875 Q37.0219,572.5125 37.7625,572.5125 Q38.2031,572.5125 38.5875,572.6156 Q38.9812,572.7094 39.3094,572.925 Z " fill="#000000"/><text fill="#000000" font-family="sans-serif" font-size="8.4" lengthAdjust="spacing" textLength="37.2" x="49.95" y="578.8781">Employee</text><line style="stroke:#181818;stroke-width:0.3;" x1="8.7" x2="108.9" y1="585" y2="585"/><text fill="#000000" font-family="sans-serif" font-size="8.4" lengthAdjust="spacing" textLength="48.6" x="11.7" y="596.4645">-String name</text><text fill="#000000" font-family="sans-serif" font-size="8.4" lengthAdjust="spacing" textLength="47.4" x="11.7" y="607.6371">-String email</text><text fill="#000000" font-family="sans-serif" font-size="8.4" lengthAdjust="spacing" textLength="94.2" x="11.7" y="618.8098">-Integer passportNumber</text><text fill="#000000" font-family="sans-serif" font-size="8.4" lengthAdjust="spacing" textLength="67.8" x="11.7" y="629.9824">-String taxNumber</text><text fill="#000000" font-family="sans-serif" font-size="8.4" lengthAdjust="spacing" textLength="85.2" x="11.7" y="641.1551">-Integer phoneNumber</text><line style="stroke:#181818;stroke-width:0.3;" x1="8.7" x2="108.9" y1="645.6633" y2="645.6633"/></g><!--class Address--><g id="elem_Address"><rect codeLine="26" fill="#F1F1F1" filter="url(#f12y5w2mjiafx0)" height="73.4906" id="Address" rx="1.5" ry="1.5" style="stroke:#181818;stroke-width:0.3;" width="87.6" x="223.8" y="203.4"/><ellipse cx="249.54" cy="213" fill="#ADD1B2" rx="6.6" ry="6.6" style="stroke:#181818;stroke-width:0.6;"/><path d="M251.1994,210.525 Q251.2931,210.3937 251.4056,210.3281 Q251.5181,210.2625 251.6494,210.2625 Q251.8744,210.2625 252.015,210.4219 Q252.1556,210.5719 252.1556,210.9375 L252.1556,211.8094 Q252.1556,212.175 252.015,212.3344 Q251.8744,212.4938 251.6494,212.4938 Q251.4431,212.4938 251.3212,212.3719 Q251.1994,212.2594 251.1337,211.95 Q251.1056,211.7344 250.9931,211.6219 Q250.7963,211.3969 250.4306,211.2656 Q250.065,211.1344 249.69,211.1344 Q249.2306,211.1344 248.8462,211.3312 Q248.4712,211.5281 248.1713,211.9781 Q247.8806,212.4281 247.8806,213.0469 L247.8806,213.7031 Q247.8806,214.4438 248.415,214.9406 Q248.9494,215.4281 249.9056,215.4281 Q250.4681,215.4281 250.8619,215.2781 Q251.0962,215.1844 251.3494,214.9219 Q251.5087,214.7625 251.5931,214.7156 Q251.6869,214.6688 251.8087,214.6688 Q252.0056,214.6688 252.1556,214.8281 Q252.315,214.9781 252.315,215.1844 Q252.315,215.3906 252.1088,215.6344 Q251.8087,215.9813 251.3306,216.1781 Q250.6837,216.45 249.9056,216.45 Q248.9962,216.45 248.2744,216.075 Q247.6837,215.775 247.2712,215.1375 Q246.8588,214.4906 246.8588,213.7219 L246.8588,213.0281 Q246.8588,212.2313 247.2244,211.5469 Q247.5994,210.8531 248.2556,210.4875 Q248.9119,210.1125 249.6525,210.1125 Q250.0931,210.1125 250.4775,210.2156 Q250.8712,210.3094 251.1994,210.525 Z " fill="#000000"/><text fill="#000000" font-family="sans-serif" font-size="8.4" lengthAdjust="spacing" textLength="31.2" x="261.66" y="216.4781">Address</text><line style="stroke:#181818;stroke-width:0.3;" x1="224.4" x2="310.8" y1="222.6" y2="222.6"/><text fill="#000000" font-family="sans-serif" font-size="8.4" lengthAdjust="spacing" textLength="80.4" x="227.4" y="234.0645">-String streetAddress</text><text fill="#000000" font-family="sans-serif" font-size="8.4" lengthAdjust="spacing" textLength="46.2" x="227.4" y="245.2371">-String state</text><text fill="#000000" font-family="sans-serif" font-size="8.4" lengthAdjust="spacing" textLength="40.2" x="227.4" y="256.4098">-String city</text><text fill="#000000" font-family="sans-serif" font-size="8.4" lengthAdjust="spacing" textLength="58.2" x="227.4" y="267.5824">-String zipCode</text><line style="stroke:#181818;stroke-width:0.3;" x1="224.4" x2="310.8" y1="272.0906" y2="272.0906"/></g><!--class EmployeeRepository--><g id="elem_EmployeeRepository"><rect codeLine="34" fill="#F1F1F1" filter="url(#f12y5w2mjiafx0)" height="39.9727" id="EmployeeRepository" rx="1.5" ry="1.5" style="stroke:#181818;stroke-width:0.3;" width="97.2" x="4.2" y="219.9"/><ellipse cx="13.2" cy="229.5" fill="#ADD1B2" rx="6.6" ry="6.6" style="stroke:#181818;stroke-width:0.6;"/><path d="M14.8594,227.025 Q14.9531,226.8937 15.0656,226.8281 Q15.1781,226.7625 15.3094,226.7625 Q15.5344,226.7625 15.675,226.9219 Q15.8156,227.0719 15.8156,227.4375 L15.8156,228.3094 Q15.8156,228.675 15.675,228.8344 Q15.5344,228.9938 15.3094,228.9938 Q15.1031,228.9938 14.9813,228.8719 Q14.8594,228.7594 14.7938,228.45 Q14.7656,228.2344 14.6531,228.1219 Q14.4562,227.8969 14.0906,227.7656 Q13.725,227.6344 13.35,227.6344 Q12.8906,227.6344 12.5063,227.8312 Q12.1313,228.0281 11.8312,228.4781 Q11.5406,228.9281 11.5406,229.5469 L11.5406,230.2031 Q11.5406,230.9438 12.075,231.4406 Q12.6094,231.9281 13.5656,231.9281 Q14.1281,231.9281 14.5219,231.7781 Q14.7563,231.6844 15.0094,231.4219 Q15.1688,231.2625 15.2531,231.2156 Q15.3469,231.1688 15.4688,231.1688 Q15.6656,231.1688 15.8156,231.3281 Q15.975,231.4781 15.975,231.6844 Q15.975,231.8906 15.7687,232.1344 Q15.4688,232.4813 14.9906,232.6781 Q14.3438,232.95 13.5656,232.95 Q12.6563,232.95 11.9344,232.575 Q11.3438,232.275 10.9313,231.6375 Q10.5187,230.9906 10.5187,230.2219 L10.5187,229.5281 Q10.5187,228.7313 10.8844,228.0469 Q11.2594,227.3531 11.9156,226.9875 Q12.5719,226.6125 13.3125,226.6125 Q13.7531,226.6125 14.1375,226.7156 Q14.5313,226.8094 14.8594,227.025 Z " fill="#000000"/><text fill="#000000" font-family="sans-serif" font-size="8.4" lengthAdjust="spacing" textLength="78" x="21.6" y="232.9781">EmployeeRepository</text><line style="stroke:#181818;stroke-width:0.3;" x1="4.8" x2="100.8" y1="239.1" y2="239.1"/><line style="stroke:#181818;stroke-width:0.3;" x1="4.8" x2="100.8" y1="243.9" y2="243.9"/><text fill="#000000" font-family="sans-serif" font-size="8.4" lengthAdjust="spacing" textLength="64.2" x="7.8" y="255.3645">+getEmployees()</text></g><!--class PropertyRepository--><g id="elem_PropertyRepository"><rect codeLine="38" fill="#F1F1F1" filter="url(#f12y5w2mjiafx0)" height="39.9727" id="PropertyRepository" rx="1.5" ry="1.5" style="stroke:#181818;stroke-width:0.3;" width="92.4" x="332.4" y="219.9"/><ellipse cx="341.4" cy="229.5" fill="#ADD1B2" rx="6.6" ry="6.6" style="stroke:#181818;stroke-width:0.6;"/><path d="M343.0594,227.025 Q343.1531,226.8937 343.2656,226.8281 Q343.3781,226.7625 343.5094,226.7625 Q343.7344,226.7625 343.875,226.9219 Q344.0156,227.0719 344.0156,227.4375 L344.0156,228.3094 Q344.0156,228.675 343.875,228.8344 Q343.7344,228.9938 343.5094,228.9938 Q343.3031,228.9938 343.1813,228.8719 Q343.0594,228.7594 342.9938,228.45 Q342.9656,228.2344 342.8531,228.1219 Q342.6563,227.8969 342.2906,227.7656 Q341.925,227.6344 341.55,227.6344 Q341.0906,227.6344 340.7063,227.8312 Q340.3313,228.0281 340.0313,228.4781 Q339.7406,228.9281 339.7406,229.5469 L339.7406,230.2031 Q339.7406,230.9438 340.275,231.4406 Q340.8094,231.9281 341.7656,231.9281 Q342.3281,231.9281 342.7219,231.7781 Q342.9563,231.6844 343.2094,231.4219 Q343.3688,231.2625 343.4531,231.2156 Q343.5469,231.1688 343.6688,231.1688 Q343.8656,231.1688 344.0156,231.3281 Q344.175,231.4781 344.175,231.6844 Q344.175,231.8906 343.9688,232.1344 Q343.6688,232.4813 343.1906,232.6781 Q342.5438,232.95 341.7656,232.95 Q340.8563,232.95 340.1344,232.575 Q339.5438,232.275 339.1312,231.6375 Q338.7188,230.9906 338.7188,230.2219 L338.7188,229.5281 Q338.7188,228.7313 339.0844,228.0469 Q339.4594,227.3531 340.1156,226.9875 Q340.7719,226.6125 341.5125,226.6125 Q341.9531,226.6125 342.3375,226.7156 Q342.7313,226.8094 343.0594,227.025 Z " fill="#000000"/><text fill="#000000" font-family="sans-serif" font-size="8.4" lengthAdjust="spacing" textLength="73.2" x="349.8" y="232.9781">PropertyRepository</text><line style="stroke:#181818;stroke-width:0.3;" x1="333" x2="424.2" y1="239.1" y2="239.1"/><line style="stroke:#181818;stroke-width:0.3;" x1="333" x2="424.2" y1="243.9" y2="243.9"/><text fill="#000000" font-family="sans-serif" font-size="8.4" lengthAdjust="spacing" textLength="61.8" x="336" y="255.3645">+getProperties()</text></g><!--class StoreRepository--><g id="elem_StoreRepository"><rect codeLine="42" fill="#F1F1F1" filter="url(#f12y5w2mjiafx0)" height="39.9727" id="StoreRepository" rx="1.5" ry="1.5" style="stroke:#181818;stroke-width:0.3;" width="80.4" x="122.4" y="219.9"/><ellipse cx="131.4" cy="229.5" fill="#ADD1B2" rx="6.6" ry="6.6" style="stroke:#181818;stroke-width:0.6;"/><path d="M133.0594,227.025 Q133.1531,226.8937 133.2656,226.8281 Q133.3781,226.7625 133.5094,226.7625 Q133.7344,226.7625 133.875,226.9219 Q134.0156,227.0719 134.0156,227.4375 L134.0156,228.3094 Q134.0156,228.675 133.875,228.8344 Q133.7344,228.9938 133.5094,228.9938 Q133.3031,228.9938 133.1813,228.8719 Q133.0594,228.7594 132.9938,228.45 Q132.9656,228.2344 132.8531,228.1219 Q132.6563,227.8969 132.2906,227.7656 Q131.925,227.6344 131.55,227.6344 Q131.0906,227.6344 130.7062,227.8312 Q130.3312,228.0281 130.0313,228.4781 Q129.7406,228.9281 129.7406,229.5469 L129.7406,230.2031 Q129.7406,230.9438 130.275,231.4406 Q130.8094,231.9281 131.7656,231.9281 Q132.3281,231.9281 132.7219,231.7781 Q132.9562,231.6844 133.2094,231.4219 Q133.3688,231.2625 133.4531,231.2156 Q133.5469,231.1688 133.6688,231.1688 Q133.8656,231.1688 134.0156,231.3281 Q134.175,231.4781 134.175,231.6844 Q134.175,231.8906 133.9688,232.1344 Q133.6688,232.4813 133.1906,232.6781 Q132.5438,232.95 131.7656,232.95 Q130.8563,232.95 130.1344,232.575 Q129.5438,232.275 129.1313,231.6375 Q128.7188,230.9906 128.7188,230.2219 L128.7188,229.5281 Q128.7188,228.7313 129.0844,228.0469 Q129.4594,227.3531 130.1156,226.9875 Q130.7719,226.6125 131.5125,226.6125 Q131.9531,226.6125 132.3375,226.7156 Q132.7313,226.8094 133.0594,227.025 Z " fill="#000000"/><text fill="#000000" font-family="sans-serif" font-size="8.4" lengthAdjust="spacing" textLength="61.2" x="139.8" y="232.9781">StoreRepository</text><line style="stroke:#181818;stroke-width:0.3;" x1="123" x2="202.2" y1="239.1" y2="239.1"/><line style="stroke:#181818;stroke-width:0.3;" x1="123" x2="202.2" y1="243.9" y2="243.9"/><text fill="#000000" font-family="sans-serif" font-size="8.4" lengthAdjust="spacing" textLength="47.4" x="126" y="255.3645">+getStores()</text></g><!--class AnnouncementRepository--><g id="elem_AnnouncementRepository"><rect codeLine="46" fill="#F1F1F1" filter="url(#f12y5w2mjiafx0)" height="39.9727" id="AnnouncementRepository" rx="1.5" ry="1.5" style="stroke:#181818;stroke-width:0.3;" width="117" x="585.3" y="219.9"/><ellipse cx="594.3" cy="229.5" fill="#ADD1B2" rx="6.6" ry="6.6" style="stroke:#181818;stroke-width:0.6;"/><path d="M595.9594,227.025 Q596.0531,226.8937 596.1656,226.8281 Q596.2781,226.7625 596.4094,226.7625 Q596.6344,226.7625 596.775,226.9219 Q596.9156,227.0719 596.9156,227.4375 L596.9156,228.3094 Q596.9156,228.675 596.775,228.8344 Q596.6344,228.9938 596.4094,228.9938 Q596.2031,228.9938 596.0813,228.8719 Q595.9594,228.7594 595.8938,228.45 Q595.8656,228.2344 595.7531,228.1219 Q595.5563,227.8969 595.1906,227.7656 Q594.825,227.6344 594.45,227.6344 Q593.9906,227.6344 593.6062,227.8312 Q593.2312,228.0281 592.9313,228.4781 Q592.6406,228.9281 592.6406,229.5469 L592.6406,230.2031 Q592.6406,230.9438 593.175,231.4406 Q593.7094,231.9281 594.6656,231.9281 Q595.2281,231.9281 595.6219,231.7781 Q595.8562,231.6844 596.1094,231.4219 Q596.2688,231.2625 596.3531,231.2156 Q596.4469,231.1688 596.5688,231.1688 Q596.7656,231.1688 596.9156,231.3281 Q597.075,231.4781 597.075,231.6844 Q597.075,231.8906 596.8688,232.1344 Q596.5688,232.4813 596.0906,232.6781 Q595.4438,232.95 594.6656,232.95 Q593.7563,232.95 593.0344,232.575 Q592.4438,232.275 592.0313,231.6375 Q591.6188,230.9906 591.6188,230.2219 L591.6188,229.5281 Q591.6188,228.7313 591.9844,228.0469 Q592.3594,227.3531 593.0156,226.9875 Q593.6719,226.6125 594.4125,226.6125 Q594.8531,226.6125 595.2375,226.7156 Q595.6313,226.8094 595.9594,227.025 Z " fill="#000000"/><text fill="#000000" font-family="sans-serif" font-size="8.4" lengthAdjust="spacing" textLength="97.8" x="602.7" y="232.9781">AnnouncementRepository</text><line style="stroke:#181818;stroke-width:0.3;" x1="585.9" x2="701.7" y1="239.1" y2="239.1"/><line style="stroke:#181818;stroke-width:0.3;" x1="585.9" x2="701.7" y1="243.9" y2="243.9"/><text fill="#000000" font-family="sans-serif" font-size="8.4" lengthAdjust="spacing" textLength="86.4" x="588.9" y="255.3645">+getAnnouncements();</text></g><!--class PurchaseOrderRepository--><g id="elem_PurchaseOrderRepository"><rect codeLine="50" fill="#F1F1F1" filter="url(#f12y5w2mjiafx0)" height="39.9727" id="PurchaseOrderRepository" rx="1.5" ry="1.5" style="stroke:#181818;stroke-width:0.3;" width="118.2" x="446.1" y="219.9"/><ellipse cx="455.1" cy="229.5" fill="#ADD1B2" rx="6.6" ry="6.6" style="stroke:#181818;stroke-width:0.6;"/><path d="M456.7594,227.025 Q456.8531,226.8937 456.9656,226.8281 Q457.0781,226.7625 457.2094,226.7625 Q457.4344,226.7625 457.575,226.9219 Q457.7156,227.0719 457.7156,227.4375 L457.7156,228.3094 Q457.7156,228.675 457.575,228.8344 Q457.4344,228.9938 457.2094,228.9938 Q457.0031,228.9938 456.8812,228.8719 Q456.7594,228.7594 456.6937,228.45 Q456.6656,228.2344 456.5531,228.1219 Q456.3563,227.8969 455.9906,227.7656 Q455.625,227.6344 455.25,227.6344 Q454.7906,227.6344 454.4063,227.8312 Q454.0313,228.0281 453.7313,228.4781 Q453.4406,228.9281 453.4406,229.5469 L453.4406,230.2031 Q453.4406,230.9438 453.975,231.4406 Q454.5094,231.9281 455.4656,231.9281 Q456.0281,231.9281 456.4219,231.7781 Q456.6563,231.6844 456.9094,231.4219 Q457.0687,231.2625 457.1531,231.2156 Q457.2469,231.1688 457.3688,231.1688 Q457.5656,231.1688 457.7156,231.3281 Q457.875,231.4781 457.875,231.6844 Q457.875,231.8906 457.6688,232.1344 Q457.3688,232.4813 456.8906,232.6781 Q456.2438,232.95 455.4656,232.95 Q454.5563,232.95 453.8344,232.575 Q453.2438,232.275 452.8313,231.6375 Q452.4188,230.9906 452.4188,230.2219 L452.4188,229.5281 Q452.4188,228.7313 452.7844,228.0469 Q453.1594,227.3531 453.8156,226.9875 Q454.4719,226.6125 455.2125,226.6125 Q455.6531,226.6125 456.0375,226.7156 Q456.4313,226.8094 456.7594,227.025 Z " fill="#000000"/><text fill="#000000" font-family="sans-serif" font-size="8.4" lengthAdjust="spacing" textLength="99" x="463.5" y="232.9781">PurchaseOrderRepository</text><line style="stroke:#181818;stroke-width:0.3;" x1="446.7" x2="563.7" y1="239.1" y2="239.1"/><line style="stroke:#181818;stroke-width:0.3;" x1="446.7" x2="563.7" y1="243.9" y2="243.9"/><text fill="#000000" font-family="sans-serif" font-size="8.4" lengthAdjust="spacing" textLength="87.6" x="449.7" y="255.3645">+getPurchaseOrders();</text></g><!--class Repositories--><g id="elem_Repositories"><rect codeLine="55" fill="#F1F1F1" filter="url(#f12y5w2mjiafx0)" height="107.0086" id="Repositories" rx="1.5" ry="1.5" style="stroke:#181818;stroke-width:0.3;" width="129" x="431.7" y="26.7"/><ellipse cx="469.95" cy="36.3" fill="#ADD1B2" rx="6.6" ry="6.6" style="stroke:#181818;stroke-width:0.6;"/><path d="M471.6094,33.825 Q471.7031,33.6938 471.8156,33.6281 Q471.9281,33.5625 472.0594,33.5625 Q472.2844,33.5625 472.425,33.7219 Q472.5656,33.8719 472.5656,34.2375 L472.5656,35.1094 Q472.5656,35.475 472.425,35.6344 Q472.2844,35.7937 472.0594,35.7937 Q471.8531,35.7937 471.7313,35.6719 Q471.6094,35.5594 471.5438,35.25 Q471.5156,35.0344 471.4031,34.9219 Q471.2062,34.6969 470.8406,34.5656 Q470.475,34.4344 470.1,34.4344 Q469.6406,34.4344 469.2562,34.6313 Q468.8812,34.8281 468.5812,35.2781 Q468.2906,35.7281 468.2906,36.3469 L468.2906,37.0031 Q468.2906,37.7438 468.825,38.2406 Q469.3594,38.7281 470.3156,38.7281 Q470.8781,38.7281 471.2719,38.5781 Q471.5062,38.4844 471.7594,38.2219 Q471.9188,38.0625 472.0031,38.0156 Q472.0969,37.9688 472.2188,37.9688 Q472.4156,37.9688 472.5656,38.1281 Q472.725,38.2781 472.725,38.4844 Q472.725,38.6906 472.5187,38.9344 Q472.2188,39.2813 471.7406,39.4781 Q471.0938,39.75 470.3156,39.75 Q469.4063,39.75 468.6844,39.375 Q468.0938,39.075 467.6813,38.4375 Q467.2687,37.7906 467.2687,37.0219 L467.2687,36.3281 Q467.2687,35.5313 467.6344,34.8469 Q468.0094,34.1531 468.6656,33.7875 Q469.3219,33.4125 470.0625,33.4125 Q470.5031,33.4125 470.8875,33.5156 Q471.2813,33.6094 471.6094,33.825 Z " fill="#000000"/><text fill="#000000" font-family="sans-serif" font-size="8.4" lengthAdjust="spacing" textLength="47.4" x="482.25" y="39.7781">Repositories</text><line style="stroke:#181818;stroke-width:0.3;" x1="432.3" x2="560.1" y1="45.9" y2="45.9"/><line style="stroke:#181818;stroke-width:0.3;" x1="432.3" x2="560.1" y1="50.7" y2="50.7"/><text fill="#000000" font-family="sans-serif" font-size="8.4" lengthAdjust="spacing" textLength="56.4" x="435.3" y="62.1645">-Repositories()</text><text fill="#000000" font-family="sans-serif" font-size="8.4" lengthAdjust="spacing" textLength="109.2" x="435.3" y="73.3371">+getInstance() : Repositories</text><text fill="#000000" font-family="sans-serif" font-size="8.4" lengthAdjust="spacing" textLength="100.8" x="435.3" y="84.5098">+getEmployeeRepository()</text><text fill="#000000" font-family="sans-serif" font-size="8.4" lengthAdjust="spacing" textLength="96" x="435.3" y="95.6824">+getPropertyRepository()</text><text fill="#000000" font-family="sans-serif" font-size="8.4" lengthAdjust="spacing" textLength="84" x="435.3" y="106.8551">+getStoreRepository()</text><text fill="#000000" font-family="sans-serif" font-size="8.4" lengthAdjust="spacing" textLength="120.6" x="435.3" y="118.0277">+getAnnouncementRepository()</text><text fill="#000000" font-family="sans-serif" font-size="8.4" lengthAdjust="spacing" textLength="121.8" x="435.3" y="129.2004">+getPurchaseOrderRepository()</text></g><!--class ImportLegacySystemController--><g id="elem_ImportLegacySystemController"><rect codeLine="65" fill="#F1F1F1" filter="url(#f12y5w2mjiafx0)" height="51.1453" id="ImportLegacySystemController" rx="1.5" ry="1.5" style="stroke:#181818;stroke-width:0.3;" width="202.2" x="167.1" y="54.6"/><ellipse cx="207.75" cy="64.2" fill="#ADD1B2" rx="6.6" ry="6.6" style="stroke:#181818;stroke-width:0.6;"/><path d="M209.4094,61.725 Q209.5031,61.5938 209.6156,61.5281 Q209.7281,61.4625 209.8594,61.4625 Q210.0844,61.4625 210.225,61.6219 Q210.3656,61.7719 210.3656,62.1375 L210.3656,63.0094 Q210.3656,63.375 210.225,63.5344 Q210.0844,63.6937 209.8594,63.6937 Q209.6531,63.6937 209.5313,63.5719 Q209.4094,63.4594 209.3438,63.15 Q209.3156,62.9344 209.2031,62.8219 Q209.0063,62.5969 208.6406,62.4656 Q208.275,62.3344 207.9,62.3344 Q207.4406,62.3344 207.0563,62.5313 Q206.6813,62.7281 206.3813,63.1781 Q206.0906,63.6281 206.0906,64.2469 L206.0906,64.9031 Q206.0906,65.6438 206.625,66.1406 Q207.1594,66.6281 208.1156,66.6281 Q208.6781,66.6281 209.0719,66.4781 Q209.3063,66.3844 209.5594,66.1219 Q209.7188,65.9625 209.8031,65.9156 Q209.8969,65.8687 210.0187,65.8687 Q210.2156,65.8687 210.3656,66.0281 Q210.525,66.1781 210.525,66.3844 Q210.525,66.5906 210.3188,66.8344 Q210.0187,67.1812 209.5406,67.3781 Q208.8937,67.65 208.1156,67.65 Q207.2062,67.65 206.4844,67.275 Q205.8937,66.975 205.4813,66.3375 Q205.0688,65.6906 205.0688,64.9219 L205.0688,64.2281 Q205.0688,63.4313 205.4344,62.7469 Q205.8094,62.0531 206.4656,61.6875 Q207.1219,61.3125 207.8625,61.3125 Q208.3031,61.3125 208.6875,61.4156 Q209.0812,61.5094 209.4094,61.725 Z " fill="#000000"/><text fill="#000000" font-family="sans-serif" font-size="8.4" lengthAdjust="spacing" textLength="115.8" x="220.05" y="67.6781">ImportLegacySystemController</text><line style="stroke:#181818;stroke-width:0.3;" x1="167.7" x2="368.7" y1="73.8" y2="73.8"/><line style="stroke:#181818;stroke-width:0.3;" x1="167.7" x2="368.7" y1="78.6" y2="78.6"/><text fill="#000000" font-family="sans-serif" font-size="8.4" lengthAdjust="spacing" textLength="126.6" x="170.7" y="90.0645">+ImportLegacySystemController()</text><text fill="#000000" font-family="sans-serif" font-size="8.4" lengthAdjust="spacing" textLength="195" x="170.7" y="101.2371">+returnValueHeader(arrayHeaders,headers,values)</text></g><!--class DataIntegrityChecker--><g id="elem_DataIntegrityChecker"><rect codeLine="72" fill="#F1F1F1" filter="url(#f12y5w2mjiafx0)" height="151.6992" id="DataIntegrityChecker" rx="1.5" ry="1.5" style="stroke:#181818;stroke-width:0.3;" width="263.4" x="629.1" y="4.2"/><ellipse cx="718.35" cy="13.8" fill="#ADD1B2" rx="6.6" ry="6.6" style="stroke:#181818;stroke-width:0.6;"/><path d="M720.0094,11.325 Q720.1031,11.1938 720.2156,11.1281 Q720.3281,11.0625 720.4594,11.0625 Q720.6844,11.0625 720.825,11.2219 Q720.9656,11.3719 720.9656,11.7375 L720.9656,12.6094 Q720.9656,12.975 720.825,13.1344 Q720.6844,13.2938 720.4594,13.2938 Q720.2531,13.2938 720.1313,13.1719 Q720.0094,13.0594 719.9438,12.75 Q719.9156,12.5344 719.8031,12.4219 Q719.6062,12.1969 719.2406,12.0656 Q718.875,11.9344 718.5,11.9344 Q718.0406,11.9344 717.6563,12.1313 Q717.2813,12.3281 716.9812,12.7781 Q716.6906,13.2281 716.6906,13.8469 L716.6906,14.5031 Q716.6906,15.2437 717.225,15.7406 Q717.7594,16.2281 718.7156,16.2281 Q719.2781,16.2281 719.6719,16.0781 Q719.9063,15.9844 720.1594,15.7219 Q720.3188,15.5625 720.4031,15.5156 Q720.4969,15.4688 720.6188,15.4688 Q720.8156,15.4688 720.9656,15.6281 Q721.125,15.7781 721.125,15.9844 Q721.125,16.1906 720.9187,16.4344 Q720.6188,16.7813 720.1406,16.9781 Q719.4938,17.25 718.7156,17.25 Q717.8063,17.25 717.0844,16.875 Q716.4938,16.575 716.0813,15.9375 Q715.6687,15.2906 715.6687,14.5219 L715.6687,13.8281 Q715.6687,13.0313 716.0344,12.3469 Q716.4094,11.6531 717.0656,11.2875 Q717.7219,10.9125 718.4625,10.9125 Q718.9031,10.9125 719.2875,11.0156 Q719.6813,11.1094 720.0094,11.325 Z " fill="#000000"/><text fill="#000000" font-family="sans-serif" font-size="8.4" lengthAdjust="spacing" textLength="79.8" x="730.65" y="17.2781">DataIntegrityChecker</text><line style="stroke:#181818;stroke-width:0.3;" x1="629.7" x2="891.9" y1="23.4" y2="23.4"/><line style="stroke:#181818;stroke-width:0.3;" x1="629.7" x2="891.9" y1="28.2" y2="28.2"/><text fill="#000000" font-family="sans-serif" font-size="8.4" lengthAdjust="spacing" textLength="177" x="632.7" y="39.6645">+checkAllData(arrayHeaders, headers, values)</text><text fill="#000000" font-family="sans-serif" font-size="8.4" lengthAdjust="spacing" textLength="160.8" x="632.7" y="50.8371">+validateClientData(clientValues, address)</text><text fill="#000000" font-family="sans-serif" font-size="8.4" lengthAdjust="spacing" textLength="159" x="632.7" y="62.0098">+validateStoreData(storeValues, address)</text><text fill="#000000" font-family="sans-serif" font-size="8.4" lengthAdjust="spacing" textLength="183.6" x="632.7" y="73.1824">+validatePropertyData(propertyValues, address)</text><text fill="#000000" font-family="sans-serif" font-size="8.4" lengthAdjust="spacing" textLength="197.4" x="632.7" y="84.3551">+validateAnnouncementData(announcementValues)</text><text fill="#000000" font-family="sans-serif" font-size="8.4" lengthAdjust="spacing" textLength="199.8" x="632.7" y="95.5277">+validatePurchaseOrderData(purchaseOrderValues)</text><text fill="#000000" font-family="sans-serif" font-size="8.4" lengthAdjust="spacing" textLength="156" x="632.7" y="106.7004">+submitClientData(clientValues, address)</text><text fill="#000000" font-family="sans-serif" font-size="8.4" lengthAdjust="spacing" textLength="118.8" x="632.7" y="117.873">+submitStoreData(storeValues)</text><text fill="#000000" font-family="sans-serif" font-size="8.4" lengthAdjust="spacing" textLength="227.4" x="632.7" y="129.0457">+submitPropertyData(propertyValues, address, store, client)</text><text fill="#000000" font-family="sans-serif" font-size="8.4" lengthAdjust="spacing" textLength="228" x="632.7" y="140.2184">+submitAnnouncementData(announcementValues, address)</text><text fill="#000000" font-family="sans-serif" font-size="8.4" lengthAdjust="spacing" textLength="256.2" x="632.7" y="151.391">+submitPurchaseOrderData(purchaseOrderValues, announcement)</text></g><!--class PurchaseOrder--><g id="elem_PurchaseOrder"><rect codeLine="87" fill="#F1F1F1" filter="url(#f12y5w2mjiafx0)" height="62.318" id="PurchaseOrder" rx="1.5" ry="1.5" style="stroke:#181818;stroke-width:0.3;" width="97.8" x="471.3" y="335.1"/><ellipse cx="489.48" cy="344.7" fill="#ADD1B2" rx="6.6" ry="6.6" style="stroke:#181818;stroke-width:0.6;"/><path d="M491.1394,342.225 Q491.2331,342.0938 491.3456,342.0281 Q491.4581,341.9625 491.5894,341.9625 Q491.8144,341.9625 491.955,342.1219 Q492.0956,342.2719 492.0956,342.6375 L492.0956,343.5094 Q492.0956,343.875 491.955,344.0344 Q491.8144,344.1937 491.5894,344.1937 Q491.3831,344.1937 491.2612,344.0719 Q491.1394,343.9594 491.0737,343.65 Q491.0456,343.4344 490.9331,343.3219 Q490.7362,343.0969 490.3706,342.9656 Q490.005,342.8344 489.63,342.8344 Q489.1706,342.8344 488.7862,343.0313 Q488.4112,343.2281 488.1112,343.6781 Q487.8206,344.1281 487.8206,344.7469 L487.8206,345.4031 Q487.8206,346.1438 488.355,346.6406 Q488.8894,347.1281 489.8456,347.1281 Q490.4081,347.1281 490.8019,346.9781 Q491.0362,346.8844 491.2894,346.6219 Q491.4487,346.4625 491.5331,346.4156 Q491.6269,346.3688 491.7488,346.3688 Q491.9456,346.3688 492.0956,346.5281 Q492.255,346.6781 492.255,346.8844 Q492.255,347.0906 492.0487,347.3344 Q491.7488,347.6813 491.2706,347.8781 Q490.6238,348.15 489.8456,348.15 Q488.9363,348.15 488.2144,347.775 Q487.6238,347.475 487.2112,346.8375 Q486.7987,346.1906 486.7987,345.4219 L486.7987,344.7281 Q486.7987,343.9313 487.1644,343.2469 Q487.5394,342.5531 488.1956,342.1875 Q488.8519,341.8125 489.5925,341.8125 Q490.0331,341.8125 490.4175,341.9156 Q490.8113,342.0094 491.1394,342.225 Z " fill="#000000"/><text fill="#000000" font-family="sans-serif" font-size="8.4" lengthAdjust="spacing" textLength="58.2" x="499.92" y="348.1781">PurchaseOrder</text><line style="stroke:#181818;stroke-width:0.3;" x1="471.9" x2="568.5" y1="354.3" y2="354.3"/><text fill="#000000" font-family="sans-serif" font-size="8.4" lengthAdjust="spacing" textLength="80.4" x="474.9" y="365.7645">-double orderAmount</text><text fill="#000000" font-family="sans-serif" font-size="8.4" lengthAdjust="spacing" textLength="81.6" x="474.9" y="376.9371">-Integer wasAccepted</text><text fill="#000000" font-family="sans-serif" font-size="8.4" lengthAdjust="spacing" textLength="90.6" x="474.9" y="388.1098">-DateTime creationDate</text><line style="stroke:#181818;stroke-width:0.3;" x1="471.9" x2="568.5" y1="392.618" y2="392.618"/></g><!--class Property--><g id="elem_Property"><rect codeLine="93" fill="#F1F1F1" filter="url(#f12y5w2mjiafx0)" height="62.318" id="Property" rx="1.5" ry="1.5" style="stroke:#181818;stroke-width:0.3;" width="102.6" x="353.1" y="576.9"/><ellipse cx="385.65" cy="586.5" fill="#ADD1B2" rx="6.6" ry="6.6" style="stroke:#181818;stroke-width:0.6;"/><path d="M387.3094,584.025 Q387.4031,583.8938 387.5156,583.8281 Q387.6281,583.7625 387.7594,583.7625 Q387.9844,583.7625 388.125,583.9219 Q388.2656,584.0719 388.2656,584.4375 L388.2656,585.3094 Q388.2656,585.675 388.125,585.8344 Q387.9844,585.9938 387.7594,585.9938 Q387.5531,585.9938 387.4313,585.8719 Q387.3094,585.7594 387.2438,585.45 Q387.2156,585.2344 387.1031,585.1219 Q386.9063,584.8969 386.5406,584.7656 Q386.175,584.6344 385.8,584.6344 Q385.3406,584.6344 384.9563,584.8313 Q384.5813,585.0281 384.2813,585.4781 Q383.9906,585.9281 383.9906,586.5469 L383.9906,587.2031 Q383.9906,587.9438 384.525,588.4406 Q385.0594,588.9281 386.0156,588.9281 Q386.5781,588.9281 386.9719,588.7781 Q387.2063,588.6844 387.4594,588.4219 Q387.6188,588.2625 387.7031,588.2156 Q387.7969,588.1687 387.9188,588.1687 Q388.1156,588.1687 388.2656,588.3281 Q388.425,588.4781 388.425,588.6844 Q388.425,588.8906 388.2188,589.1344 Q387.9188,589.4812 387.4406,589.6781 Q386.7938,589.95 386.0156,589.95 Q385.1063,589.95 384.3844,589.575 Q383.7938,589.275 383.3812,588.6375 Q382.9688,587.9906 382.9688,587.2219 L382.9688,586.5281 Q382.9688,585.7312 383.3344,585.0469 Q383.7094,584.3531 384.3656,583.9875 Q385.0219,583.6125 385.7625,583.6125 Q386.2031,583.6125 386.5875,583.7156 Q386.9813,583.8094 387.3094,584.025 Z " fill="#000000"/><text fill="#000000" font-family="sans-serif" font-size="8.4" lengthAdjust="spacing" textLength="32.4" x="397.95" y="589.9781">Property</text><line style="stroke:#181818;stroke-width:0.3;" x1="353.7" x2="455.1" y1="596.1" y2="596.1"/><text fill="#000000" font-family="sans-serif" font-size="8.4" lengthAdjust="spacing" textLength="50.4" x="356.7" y="607.5645">-Integer price</text><text fill="#000000" font-family="sans-serif" font-size="8.4" lengthAdjust="spacing" textLength="49.2" x="356.7" y="618.7371">-Integer area</text><text fill="#000000" font-family="sans-serif" font-size="8.4" lengthAdjust="spacing" textLength="95.4" x="356.7" y="629.9098">-String distanceToCentre</text><line style="stroke:#181818;stroke-width:0.3;" x1="353.7" x2="455.1" y1="634.418" y2="634.418"/></g><!--class Client--><g id="elem_Client"><rect codeLine="100" fill="#F1F1F1" filter="url(#f12y5w2mjiafx0)" height="84.6633" id="Client" rx="1.5" ry="1.5" style="stroke:#181818;stroke-width:0.3;" width="101.4" x="299.7" y="324"/><ellipse cx="337.05" cy="333.6" fill="#ADD1B2" rx="6.6" ry="6.6" style="stroke:#181818;stroke-width:0.6;"/><path d="M338.7094,331.125 Q338.8031,330.9938 338.9156,330.9281 Q339.0281,330.8625 339.1594,330.8625 Q339.3844,330.8625 339.525,331.0219 Q339.6656,331.1719 339.6656,331.5375 L339.6656,332.4094 Q339.6656,332.775 339.525,332.9344 Q339.3844,333.0938 339.1594,333.0938 Q338.9531,333.0938 338.8313,332.9719 Q338.7094,332.8594 338.6438,332.55 Q338.6156,332.3344 338.5031,332.2219 Q338.3063,331.9969 337.9406,331.8656 Q337.575,331.7344 337.2,331.7344 Q336.7406,331.7344 336.3563,331.9313 Q335.9813,332.1281 335.6813,332.5781 Q335.3906,333.0281 335.3906,333.6469 L335.3906,334.3031 Q335.3906,335.0438 335.925,335.5406 Q336.4594,336.0281 337.4156,336.0281 Q337.9781,336.0281 338.3719,335.8781 Q338.6063,335.7844 338.8594,335.5219 Q339.0188,335.3625 339.1031,335.3156 Q339.1969,335.2688 339.3187,335.2688 Q339.5156,335.2688 339.6656,335.4281 Q339.825,335.5781 339.825,335.7844 Q339.825,335.9906 339.6188,336.2344 Q339.3187,336.5813 338.8406,336.7781 Q338.1937,337.05 337.4156,337.05 Q336.5062,337.05 335.7844,336.675 Q335.1937,336.375 334.7813,335.7375 Q334.3688,335.0906 334.3688,334.3219 L334.3688,333.6281 Q334.3688,332.8313 334.7344,332.1469 Q335.1094,331.4531 335.7656,331.0875 Q336.4219,330.7125 337.1625,330.7125 Q337.6031,330.7125 337.9875,330.8156 Q338.3812,330.9094 338.7094,331.125 Z " fill="#000000"/><text fill="#000000" font-family="sans-serif" font-size="8.4" lengthAdjust="spacing" textLength="21.6" x="349.35" y="337.0781">Client</text><line style="stroke:#181818;stroke-width:0.3;" x1="300.3" x2="400.5" y1="343.2" y2="343.2"/><text fill="#000000" font-family="sans-serif" font-size="8.4" lengthAdjust="spacing" textLength="47.4" x="303.3" y="354.6645">-String email</text><text fill="#000000" font-family="sans-serif" font-size="8.4" lengthAdjust="spacing" textLength="48.6" x="303.3" y="365.8371">-String name</text><text fill="#000000" font-family="sans-serif" font-size="8.4" lengthAdjust="spacing" textLength="94.2" x="303.3" y="377.0098">-Integer passportNumber</text><text fill="#000000" font-family="sans-serif" font-size="8.4" lengthAdjust="spacing" textLength="67.8" x="303.3" y="388.1824">-String taxNumber</text><text fill="#000000" font-family="sans-serif" font-size="8.4" lengthAdjust="spacing" textLength="85.2" x="303.3" y="399.3551">-Integer phoneNumber</text><line style="stroke:#181818;stroke-width:0.3;" x1="300.3" x2="400.5" y1="403.8633" y2="403.8633"/></g><!--class Announcement--><g id="elem_Announcement"><rect codeLine="108" fill="#F1F1F1" filter="url(#f12y5w2mjiafx0)" height="62.318" id="Announcement" rx="1.5" ry="1.5" style="stroke:#181818;stroke-width:0.3;" width="84" x="566.4" y="456"/><ellipse cx="578.91" cy="465.6" fill="#ADD1B2" rx="6.6" ry="6.6" style="stroke:#181818;stroke-width:0.6;"/><path d="M580.5694,463.125 Q580.6631,462.9938 580.7756,462.9281 Q580.8881,462.8625 581.0194,462.8625 Q581.2444,462.8625 581.385,463.0219 Q581.5256,463.1719 581.5256,463.5375 L581.5256,464.4094 Q581.5256,464.775 581.385,464.9344 Q581.2444,465.0938 581.0194,465.0938 Q580.8131,465.0938 580.6913,464.9719 Q580.5694,464.8594 580.5038,464.55 Q580.4756,464.3344 580.3631,464.2219 Q580.1663,463.9969 579.8006,463.8656 Q579.435,463.7344 579.06,463.7344 Q578.6006,463.7344 578.2163,463.9313 Q577.8413,464.1281 577.5413,464.5781 Q577.2506,465.0281 577.2506,465.6469 L577.2506,466.3031 Q577.2506,467.0438 577.785,467.5406 Q578.3194,468.0281 579.2756,468.0281 Q579.8381,468.0281 580.2319,467.8781 Q580.4663,467.7844 580.7194,467.5219 Q580.8788,467.3625 580.9631,467.3156 Q581.0569,467.2687 581.1788,467.2687 Q581.3756,467.2687 581.5256,467.4281 Q581.685,467.5781 581.685,467.7844 Q581.685,467.9906 581.4788,468.2344 Q581.1788,468.5812 580.7006,468.7781 Q580.0538,469.05 579.2756,469.05 Q578.3663,469.05 577.6444,468.675 Q577.0538,468.375 576.6413,467.7375 Q576.2288,467.0906 576.2288,466.3219 L576.2288,465.6281 Q576.2288,464.8312 576.5944,464.1469 Q576.9694,463.4531 577.6256,463.0875 Q578.2819,462.7125 579.0225,462.7125 Q579.4631,462.7125 579.8475,462.8156 Q580.2413,462.9094 580.5694,463.125 Z " fill="#000000"/><text fill="#000000" font-family="sans-serif" font-size="8.4" lengthAdjust="spacing" textLength="57" x="588.09" y="469.0781">Announcement</text><line style="stroke:#181818;stroke-width:0.3;" x1="567" x2="649.8" y1="475.2" y2="475.2"/><text fill="#000000" font-family="sans-serif" font-size="8.4" lengthAdjust="spacing" textLength="58.8" x="570" y="486.6645">-DateTime date</text><text fill="#000000" font-family="sans-serif" font-size="8.4" lengthAdjust="spacing" textLength="76.8" x="570" y="497.8371">-IntegerrentDuration</text><text fill="#000000" font-family="sans-serif" font-size="8.4" lengthAdjust="spacing" textLength="70.2" x="570" y="509.0098">-double listedPrice</text><line style="stroke:#181818;stroke-width:0.3;" x1="567" x2="649.8" y1="513.518" y2="513.518"/></g><!--class Commission--><g id="elem_Commission"><rect codeLine="117" fill="#F1F1F1" filter="url(#f12y5w2mjiafx0)" height="51.1453" id="Commission" rx="1.5" ry="1.5" style="stroke:#181818;stroke-width:0.3;" width="96.6" x="673.5" y="582.6"/><ellipse cx="696.81" cy="592.2" fill="#ADD1B2" rx="6.6" ry="6.6" style="stroke:#181818;stroke-width:0.6;"/><path d="M698.4694,589.725 Q698.5631,589.5938 698.6756,589.5281 Q698.7881,589.4625 698.9194,589.4625 Q699.1444,589.4625 699.285,589.6219 Q699.4256,589.7719 699.4256,590.1375 L699.4256,591.0094 Q699.4256,591.375 699.285,591.5344 Q699.1444,591.6938 698.9194,591.6938 Q698.7131,591.6938 698.5913,591.5719 Q698.4694,591.4594 698.4038,591.15 Q698.3756,590.9344 698.2631,590.8219 Q698.0663,590.5969 697.7006,590.4656 Q697.335,590.3344 696.96,590.3344 Q696.5006,590.3344 696.1162,590.5313 Q695.7412,590.7281 695.4413,591.1781 Q695.1506,591.6281 695.1506,592.2469 L695.1506,592.9031 Q695.1506,593.6438 695.685,594.1406 Q696.2194,594.6281 697.1756,594.6281 Q697.7381,594.6281 698.1319,594.4781 Q698.3662,594.3844 698.6194,594.1219 Q698.7788,593.9625 698.8631,593.9156 Q698.9569,593.8688 699.0787,593.8688 Q699.2756,593.8688 699.4256,594.0281 Q699.585,594.1781 699.585,594.3844 Q699.585,594.5906 699.3788,594.8344 Q699.0787,595.1813 698.6006,595.3781 Q697.9537,595.65 697.1756,595.65 Q696.2662,595.65 695.5444,595.275 Q694.9537,594.975 694.5412,594.3375 Q694.1288,593.6906 694.1288,592.9219 L694.1288,592.2281 Q694.1288,591.4313 694.4944,590.7469 Q694.8694,590.0531 695.5256,589.6875 Q696.1819,589.3125 696.9225,589.3125 Q697.3631,589.3125 697.7475,589.4156 Q698.1412,589.5094 698.4694,589.725 Z " fill="#000000"/><text fill="#000000" font-family="sans-serif" font-size="8.4" lengthAdjust="spacing" textLength="45.6" x="708.39" y="595.6781">Commission</text><line style="stroke:#181818;stroke-width:0.3;" x1="674.1" x2="769.5" y1="601.8" y2="601.8"/><text fill="#000000" font-family="sans-serif" font-size="8.4" lengthAdjust="spacing" textLength="52.2" x="677.1" y="613.2645">-Integer value</text><text fill="#000000" font-family="sans-serif" font-size="8.4" lengthAdjust="spacing" textLength="89.4" x="677.1" y="624.4371">-String typeCommission</text><line style="stroke:#181818;stroke-width:0.3;" x1="674.1" x2="769.5" y1="628.9453" y2="628.9453"/></g><!--class BusinessType--><g id="elem_BusinessType"><rect codeLine="122" fill="#F1F1F1" filter="url(#f12y5w2mjiafx0)" height="39.9727" id="BusinessType" rx="1.5" ry="1.5" style="stroke:#181818;stroke-width:0.3;" width="76.2" x="576.3" y="588"/><ellipse cx="586.92" cy="597.6" fill="#ADD1B2" rx="6.6" ry="6.6" style="stroke:#181818;stroke-width:0.6;"/><path d="M588.5794,595.125 Q588.6731,594.9938 588.7856,594.9281 Q588.8981,594.8625 589.0294,594.8625 Q589.2544,594.8625 589.395,595.0219 Q589.5356,595.1719 589.5356,595.5375 L589.5356,596.4094 Q589.5356,596.775 589.395,596.9344 Q589.2544,597.0938 589.0294,597.0938 Q588.8231,597.0938 588.7013,596.9719 Q588.5794,596.8594 588.5138,596.55 Q588.4856,596.3344 588.3731,596.2219 Q588.1763,595.9969 587.8106,595.8656 Q587.445,595.7344 587.07,595.7344 Q586.6106,595.7344 586.2263,595.9313 Q585.8513,596.1281 585.5513,596.5781 Q585.2606,597.0281 585.2606,597.6469 L585.2606,598.3031 Q585.2606,599.0437 585.795,599.5406 Q586.3294,600.0281 587.2856,600.0281 Q587.8481,600.0281 588.2419,599.8781 Q588.4763,599.7844 588.7294,599.5219 Q588.8888,599.3625 588.9731,599.3156 Q589.0669,599.2688 589.1888,599.2688 Q589.3856,599.2688 589.5356,599.4281 Q589.695,599.5781 589.695,599.7844 Q589.695,599.9906 589.4888,600.2344 Q589.1888,600.5813 588.7106,600.7781 Q588.0638,601.05 587.2856,601.05 Q586.3763,601.05 585.6544,600.675 Q585.0638,600.375 584.6513,599.7375 Q584.2388,599.0906 584.2388,598.3219 L584.2388,597.6281 Q584.2388,596.8313 584.6044,596.1469 Q584.9794,595.4531 585.6356,595.0875 Q586.2919,594.7125 587.0325,594.7125 Q587.4731,594.7125 587.8575,594.8156 Q588.2513,594.9094 588.5794,595.125 Z " fill="#000000"/><text fill="#000000" font-family="sans-serif" font-size="8.4" lengthAdjust="spacing" textLength="53.4" x="595.68" y="601.0781">BusinessType</text><line style="stroke:#181818;stroke-width:0.3;" x1="576.9" x2="651.9" y1="607.2" y2="607.2"/><text fill="#000000" font-family="sans-serif" font-size="8.4" lengthAdjust="spacing" textLength="69" x="579.9" y="618.6645">-String description</text><line style="stroke:#181818;stroke-width:0.3;" x1="576.9" x2="651.9" y1="623.1727" y2="623.1727"/></g><!--class PropertyType--><g id="elem_PropertyType"><rect codeLine="126" fill="#F1F1F1" filter="url(#f12y5w2mjiafx0)" height="39.9727" id="PropertyType" rx="1.5" ry="1.5" style="stroke:#181818;stroke-width:0.3;" width="76.2" x="423.3" y="714.3"/><ellipse cx="434.73" cy="723.9" fill="#ADD1B2" rx="6.6" ry="6.6" style="stroke:#181818;stroke-width:0.6;"/><path d="M436.3894,721.425 Q436.4831,721.2937 436.5956,721.2281 Q436.7081,721.1625 436.8394,721.1625 Q437.0644,721.1625 437.205,721.3219 Q437.3456,721.4719 437.3456,721.8375 L437.3456,722.7094 Q437.3456,723.075 437.205,723.2344 Q437.0644,723.3938 436.8394,723.3938 Q436.6331,723.3938 436.5112,723.2719 Q436.3894,723.1594 436.3237,722.85 Q436.2956,722.6344 436.1831,722.5219 Q435.9863,722.2969 435.6206,722.1656 Q435.255,722.0344 434.88,722.0344 Q434.4206,722.0344 434.0362,722.2312 Q433.6612,722.4281 433.3613,722.8781 Q433.0706,723.3281 433.0706,723.9469 L433.0706,724.6031 Q433.0706,725.3438 433.605,725.8406 Q434.1394,726.3281 435.0956,726.3281 Q435.6581,726.3281 436.0519,726.1781 Q436.2862,726.0844 436.5394,725.8219 Q436.6987,725.6625 436.7831,725.6156 Q436.8769,725.5688 436.9988,725.5688 Q437.1956,725.5688 437.3456,725.7281 Q437.505,725.8781 437.505,726.0844 Q437.505,726.2906 437.2988,726.5344 Q436.9988,726.8813 436.5206,727.0781 Q435.8738,727.35 435.0956,727.35 Q434.1863,727.35 433.4644,726.975 Q432.8738,726.675 432.4612,726.0375 Q432.0488,725.3906 432.0488,724.6219 L432.0488,723.9281 Q432.0488,723.1313 432.4144,722.4469 Q432.7894,721.7531 433.4456,721.3875 Q434.1019,721.0125 434.8425,721.0125 Q435.2831,721.0125 435.6675,721.1156 Q436.0613,721.2094 436.3894,721.425 Z " fill="#000000"/><text fill="#000000" font-family="sans-serif" font-size="8.4" lengthAdjust="spacing" textLength="51.6" x="443.67" y="727.3781">PropertyType</text><line style="stroke:#181818;stroke-width:0.3;" x1="423.9" x2="498.9" y1="733.5" y2="733.5"/><text fill="#000000" font-family="sans-serif" font-size="8.4" lengthAdjust="spacing" textLength="69" x="426.9" y="744.9645">-String description</text><line style="stroke:#181818;stroke-width:0.3;" x1="423.9" x2="498.9" y1="749.4727" y2="749.4727"/></g><!--class Inhabitable--><g id="elem_Inhabitable"><rect codeLine="130" fill="#F1F1F1" filter="url(#f12y5w2mjiafx0)" height="73.4906" id="Inhabitable" rx="1.5" ry="1.5" style="stroke:#181818;stroke-width:0.3;" width="110.4" x="291.6" y="697.8"/><ellipse cx="323.55" cy="707.4" fill="#ADD1B2" rx="6.6" ry="6.6" style="stroke:#181818;stroke-width:0.6;"/><path d="M325.2094,704.925 Q325.3031,704.7937 325.4156,704.7281 Q325.5281,704.6625 325.6594,704.6625 Q325.8844,704.6625 326.025,704.8219 Q326.1656,704.9719 326.1656,705.3375 L326.1656,706.2094 Q326.1656,706.575 326.025,706.7344 Q325.8844,706.8938 325.6594,706.8938 Q325.4531,706.8938 325.3313,706.7719 Q325.2094,706.6594 325.1438,706.35 Q325.1156,706.1344 325.0031,706.0219 Q324.8063,705.7969 324.4406,705.6656 Q324.075,705.5344 323.7,705.5344 Q323.2406,705.5344 322.8563,705.7312 Q322.4813,705.9281 322.1813,706.3781 Q321.8906,706.8281 321.8906,707.4469 L321.8906,708.1031 Q321.8906,708.8438 322.425,709.3406 Q322.9594,709.8281 323.9156,709.8281 Q324.4781,709.8281 324.8719,709.6781 Q325.1063,709.5844 325.3594,709.3219 Q325.5188,709.1625 325.6031,709.1156 Q325.6969,709.0688 325.8187,709.0688 Q326.0156,709.0688 326.1656,709.2281 Q326.325,709.3781 326.325,709.5844 Q326.325,709.7906 326.1188,710.0344 Q325.8187,710.3813 325.3406,710.5781 Q324.6937,710.85 323.9156,710.85 Q323.0062,710.85 322.2844,710.475 Q321.6937,710.175 321.2813,709.5375 Q320.8688,708.8906 320.8688,708.1219 L320.8688,707.4281 Q320.8688,706.6313 321.2344,705.9469 Q321.6094,705.2531 322.2656,704.8875 Q322.9219,704.5125 323.6625,704.5125 Q324.1031,704.5125 324.4875,704.6156 Q324.8812,704.7094 325.2094,704.925 Z " fill="#000000"/><text fill="#000000" font-family="sans-serif" font-size="8.4" lengthAdjust="spacing" textLength="41.4" x="335.85" y="710.8781">Inhabitable</text><line style="stroke:#181818;stroke-width:0.3;" x1="292.2" x2="401.4" y1="717" y2="717"/><text fill="#000000" font-family="sans-serif" font-size="8.4" lengthAdjust="spacing" textLength="94.8" x="295.2" y="728.4645">-Integer bedroomNumber</text><text fill="#000000" font-family="sans-serif" font-size="8.4" lengthAdjust="spacing" textLength="97.2" x="295.2" y="739.6371">-Integer bathroomNumber</text><text fill="#000000" font-family="sans-serif" font-size="8.4" lengthAdjust="spacing" textLength="88.2" x="295.2" y="750.8098">-Integer parkingSpaces</text><text fill="#000000" font-family="sans-serif" font-size="8.4" lengthAdjust="spacing" textLength="103.2" x="295.2" y="761.9824">-List&lt;String&gt; equipmentList</text><line style="stroke:#181818;stroke-width:0.3;" x1="292.2" x2="401.4" y1="766.4906" y2="766.4906"/></g><!--class House--><g id="elem_House"><rect codeLine="137" fill="#F1F1F1" filter="url(#f12y5w2mjiafx0)" height="62.318" id="House" rx="1.5" ry="1.5" style="stroke:#181818;stroke-width:0.3;" width="94.8" x="299.4" y="818.4"/><ellipse cx="332.25" cy="828" fill="#ADD1B2" rx="6.6" ry="6.6" style="stroke:#181818;stroke-width:0.6;"/><path d="M333.9094,825.525 Q334.0031,825.3938 334.1156,825.3281 Q334.2281,825.2625 334.3594,825.2625 Q334.5844,825.2625 334.725,825.4219 Q334.8656,825.5719 334.8656,825.9375 L334.8656,826.8094 Q334.8656,827.175 334.725,827.3344 Q334.5844,827.4938 334.3594,827.4938 Q334.1531,827.4938 334.0313,827.3719 Q333.9094,827.2594 333.8438,826.95 Q333.8156,826.7344 333.7031,826.6219 Q333.5062,826.3969 333.1406,826.2656 Q332.775,826.1344 332.4,826.1344 Q331.9406,826.1344 331.5563,826.3313 Q331.1813,826.5281 330.8812,826.9781 Q330.5906,827.4281 330.5906,828.0469 L330.5906,828.7031 Q330.5906,829.4438 331.125,829.9406 Q331.6594,830.4281 332.6156,830.4281 Q333.1781,830.4281 333.5719,830.2781 Q333.8063,830.1844 334.0594,829.9219 Q334.2188,829.7625 334.3031,829.7156 Q334.3969,829.6687 334.5188,829.6687 Q334.7156,829.6687 334.8656,829.8281 Q335.025,829.9781 335.025,830.1844 Q335.025,830.3906 334.8187,830.6344 Q334.5188,830.9812 334.0406,831.1781 Q333.3938,831.45 332.6156,831.45 Q331.7063,831.45 330.9844,831.075 Q330.3938,830.775 329.9813,830.1375 Q329.5687,829.4906 329.5687,828.7219 L329.5687,828.0281 Q329.5687,827.2312 329.9344,826.5469 Q330.3094,825.8531 330.9656,825.4875 Q331.6219,825.1125 332.3625,825.1125 Q332.8031,825.1125 333.1875,825.2156 Q333.5813,825.3094 333.9094,825.525 Z " fill="#000000"/><text fill="#000000" font-family="sans-serif" font-size="8.4" lengthAdjust="spacing" textLength="24" x="344.55" y="831.4781">House</text><line style="stroke:#181818;stroke-width:0.3;" x1="300" x2="393.6" y1="837.6" y2="837.6"/><text fill="#000000" font-family="sans-serif" font-size="8.4" lengthAdjust="spacing" textLength="87.6" x="303" y="849.0645">-boolean hasBasement</text><text fill="#000000" font-family="sans-serif" font-size="8.4" lengthAdjust="spacing" textLength="64.2" x="303" y="860.2371">-boolean hasLoft</text><text fill="#000000" font-family="sans-serif" font-size="8.4" lengthAdjust="spacing" textLength="76.8" x="303" y="871.4098">-String sunExposure</text><line style="stroke:#181818;stroke-width:0.3;" x1="300" x2="393.6" y1="875.918" y2="875.918"/></g><!--class Role--><g id="elem_Role"><rect codeLine="144" fill="#F1F1F1" filter="url(#f12y5w2mjiafx0)" height="51.1453" id="Role" rx="1.5" ry="1.5" style="stroke:#181818;stroke-width:0.3;" width="76.2" x="20.7" y="708.9"/><ellipse cx="47.55" cy="718.5" fill="#ADD1B2" rx="6.6" ry="6.6" style="stroke:#181818;stroke-width:0.6;"/><path d="M49.2094,716.025 Q49.3031,715.8938 49.4156,715.8281 Q49.5281,715.7625 49.6594,715.7625 Q49.8844,715.7625 50.025,715.9219 Q50.1656,716.0719 50.1656,716.4375 L50.1656,717.3094 Q50.1656,717.675 50.025,717.8344 Q49.8844,717.9938 49.6594,717.9938 Q49.4531,717.9938 49.3313,717.8719 Q49.2094,717.7594 49.1438,717.45 Q49.1156,717.2344 49.0031,717.1219 Q48.8063,716.8969 48.4406,716.7656 Q48.075,716.6344 47.7,716.6344 Q47.2406,716.6344 46.8562,716.8313 Q46.4812,717.0281 46.1813,717.4781 Q45.8906,717.9281 45.8906,718.5469 L45.8906,719.2031 Q45.8906,719.9438 46.425,720.4406 Q46.9594,720.9281 47.9156,720.9281 Q48.4781,720.9281 48.8719,720.7781 Q49.1062,720.6844 49.3594,720.4219 Q49.5188,720.2625 49.6031,720.2156 Q49.6969,720.1687 49.8188,720.1687 Q50.0156,720.1687 50.1656,720.3281 Q50.325,720.4781 50.325,720.6844 Q50.325,720.8906 50.1188,721.1344 Q49.8188,721.4812 49.3406,721.6781 Q48.6938,721.95 47.9156,721.95 Q47.0063,721.95 46.2844,721.575 Q45.6938,721.275 45.2813,720.6375 Q44.8688,719.9906 44.8688,719.2219 L44.8688,718.5281 Q44.8688,717.7312 45.2344,717.0469 Q45.6094,716.3531 46.2656,715.9875 Q46.9219,715.6125 47.6625,715.6125 Q48.1031,715.6125 48.4875,715.7156 Q48.8813,715.8094 49.2094,716.025 Z " fill="#000000"/><text fill="#000000" font-family="sans-serif" font-size="8.4" lengthAdjust="spacing" textLength="17.4" x="59.85" y="721.9781">Role</text><line style="stroke:#181818;stroke-width:0.3;" x1="21.3" x2="96.3" y1="728.1" y2="728.1"/><text fill="#000000" font-family="sans-serif" font-size="8.4" lengthAdjust="spacing" textLength="38.4" x="24.3" y="739.5645">-Integer id</text><text fill="#000000" font-family="sans-serif" font-size="8.4" lengthAdjust="spacing" textLength="69" x="24.3" y="750.7371">-String description</text><line style="stroke:#181818;stroke-width:0.3;" x1="21.3" x2="96.3" y1="755.2453" y2="755.2453"/></g><!--class ImportLegacySystemUI--><g id="elem_ImportLegacySystemUI"><rect codeLine="150" fill="#F1F1F1" filter="url(#f12y5w2mjiafx0)" height="39.9727" id="ImportLegacySystemUI" rx="1.5" ry="1.5" style="stroke:#181818;stroke-width:0.3;" width="105" x="41.1" y="60"/><ellipse cx="50.1" cy="69.6" fill="#ADD1B2" rx="6.6" ry="6.6" style="stroke:#181818;stroke-width:0.6;"/><path d="M51.7594,67.125 Q51.8531,66.9937 51.9656,66.9281 Q52.0781,66.8625 52.2094,66.8625 Q52.4344,66.8625 52.575,67.0219 Q52.7156,67.1719 52.7156,67.5375 L52.7156,68.4094 Q52.7156,68.775 52.575,68.9344 Q52.4344,69.0938 52.2094,69.0938 Q52.0031,69.0938 51.8813,68.9719 Q51.7594,68.8594 51.6938,68.55 Q51.6656,68.3344 51.5531,68.2219 Q51.3562,67.9969 50.9906,67.8656 Q50.625,67.7344 50.25,67.7344 Q49.7906,67.7344 49.4063,67.9312 Q49.0313,68.1281 48.7312,68.5781 Q48.4406,69.0281 48.4406,69.6469 L48.4406,70.3031 Q48.4406,71.0438 48.975,71.5406 Q49.5094,72.0281 50.4656,72.0281 Q51.0281,72.0281 51.4219,71.8781 Q51.6563,71.7844 51.9094,71.5219 Q52.0688,71.3625 52.1531,71.3156 Q52.2469,71.2688 52.3688,71.2688 Q52.5656,71.2688 52.7156,71.4281 Q52.875,71.5781 52.875,71.7844 Q52.875,71.9906 52.6687,72.2344 Q52.3688,72.5813 51.8906,72.7781 Q51.2438,73.05 50.4656,73.05 Q49.5563,73.05 48.8344,72.675 Q48.2438,72.375 47.8313,71.7375 Q47.4187,71.0906 47.4187,70.3219 L47.4187,69.6281 Q47.4187,68.8313 47.7844,68.1469 Q48.1594,67.4531 48.8156,67.0875 Q49.4719,66.7125 50.2125,66.7125 Q50.6531,66.7125 51.0375,66.8156 Q51.4313,66.9094 51.7594,67.125 Z " fill="#000000"/><text fill="#000000" font-family="sans-serif" font-size="8.4" lengthAdjust="spacing" textLength="85.8" x="58.5" y="73.0781">ImportLegacySystemUI</text><line style="stroke:#181818;stroke-width:0.3;" x1="41.7" x2="145.5" y1="79.2" y2="79.2"/><line style="stroke:#181818;stroke-width:0.3;" x1="41.7" x2="145.5" y1="84" y2="84"/><text fill="#000000" font-family="sans-serif" font-size="8.4" lengthAdjust="spacing" textLength="58.8" x="44.7" y="95.4645">+importFile(file)</text></g><!--link Repositories to Repositories--><g id="link_Repositories_Repositories"><path codeLine="154" d="M560.706,62.316 C573,64.446 581.7,70.374 581.7,80.1 C581.7,88.992 574.434,94.704 563.79,97.248 " fill="none" id="Repositories-to-Repositories" style="stroke:#181818;stroke-width:0.6;"/><polygon fill="#181818" points="560.706,97.884,566.4804,99.1396,563.6437,97.2759,565.5074,94.4392,560.706,97.884" style="stroke:#181818;stroke-width:0.6;"/><text fill="#000000" font-family="sans-serif" font-size="7.8" lengthAdjust="spacing" textLength="29.4" x="585.3" y="83.417">instance</text></g><!--link ImportLegacySystemUI to ImportLegacySystemController--><g id="link_ImportLegacySystemUI_ImportLegacySystemController"><path codeLine="156" d="M146.22,80.1 C149.67,80.1 151.8,80.1 151.8,80.1 C151.8,80.1 156.828,80.1 163.932,80.1 " fill="none" id="ImportLegacySystemUI-to-ImportLegacySystemController" style="stroke:#181818;stroke-width:0.6;stroke-dasharray:7.0,7.0;"/><polygon fill="#181818" points="167.094,80.1,161.694,77.7,164.094,80.1,161.694,82.5,167.094,80.1" style="stroke:#181818;stroke-width:0.6;"/></g><!--link ImportLegacySystemController to Repositories--><g id="link_ImportLegacySystemController_Repositories"><path codeLine="158" d="M369.366,80.1 C389.34,80.1 409.842,80.1 428.382,80.1 " fill="none" id="ImportLegacySystemController-to-Repositories" style="stroke:#181818;stroke-width:0.6;stroke-dasharray:7.0,7.0;"/><polygon fill="#181818" points="431.58,80.1,426.18,77.7,428.58,80.1,426.18,82.5,431.58,80.1" style="stroke:#181818;stroke-width:0.6;"/><text fill="#000000" font-family="sans-serif" font-size="7.8" lengthAdjust="spacing" textLength="40.2" x="380.4" y="75.917">repositories</text></g><!--link Repositories to PropertyRepository--><g id="link_Repositories_PropertyRepository"><path codeLine="160" d="M549.63,133.62 C570.894,154.68 590.4,174 590.4,174 C590.4,174 590.4,185.4 590.4,185.4 C590.4,185.4 435.6,203.4 435.6,203.4 C435.6,203.4 424.59,210.354 412.254,218.148 " fill="none" id="Repositories-to-PropertyRepository" style="stroke:#181818;stroke-width:0.6;"/><polygon fill="#181818" points="409.602,219.822,415.4491,218.9669,412.1383,218.2197,412.8854,214.9088,409.602,219.822" style="stroke:#181818;stroke-width:0.6;"/><text fill="#000000" font-family="sans-serif" font-size="7.8" lengthAdjust="spacing" textLength="4.2" x="411.0921" y="213.102">1</text></g><!--link Repositories to EmployeeRepository--><g id="link_Repositories_EmployeeRepository"><path codeLine="161" d="M431.532,122.532 C404.742,139.866 379.8,156 379.8,156 C379.8,156 220.2,185.4 220.2,185.4 C220.2,185.4 111.6,203.4 111.6,203.4 C111.6,203.4 100.152,210.408 87.354,218.244 " fill="none" id="Repositories-to-EmployeeRepository" style="stroke:#181818;stroke-width:0.6;"/><polygon fill="#181818" points="84.78,219.822,90.6387,219.0501,87.3388,218.2559,88.133,214.956,84.78,219.822" style="stroke:#181818;stroke-width:0.6;"/><text fill="#000000" font-family="sans-serif" font-size="7.8" lengthAdjust="spacing" textLength="4.2" x="86.4626" y="213.102">1</text></g><!--link Repositories to StoreRepository--><g id="link_Repositories_StoreRepository"><path codeLine="162" d="M431.514,123.132 C387.276,152.16 336.6,185.4 336.6,185.4 C336.6,185.4 213,203.4 213,203.4 C213,203.4 203.43,210.234 192.63,217.95 " fill="none" id="Repositories-to-StoreRepository" style="stroke:#181818;stroke-width:0.6;"/><polygon fill="#181818" points="190.158,219.714,195.9459,218.5225,192.5975,217.9679,193.1521,214.6194,190.158,219.714" style="stroke:#181818;stroke-width:0.6;"/><text fill="#000000" font-family="sans-serif" font-size="7.8" lengthAdjust="spacing" textLength="4.2" x="190.8109" y="213.1301">1</text></g><!--link Repositories to AnnouncementRepository--><g id="link_Repositories_AnnouncementRepository"><path codeLine="163" d="M558.48,133.62 C583.26,154.68 606,174 606,174 C606,174 619.92,198.084 630.87,217.026 " fill="none" id="Repositories-to-AnnouncementRepository" style="stroke:#181818;stroke-width:0.6;"/><polygon fill="#181818" points="632.46,219.78,631.8375,213.9036,630.9596,217.1822,627.681,216.3042,632.46,219.78" style="stroke:#181818;stroke-width:0.6;"/><text fill="#000000" font-family="sans-serif" font-size="7.8" lengthAdjust="spacing" textLength="4.2" x="625.698" y="213.2087">1</text></g><!--link ImportLegacySystemController to PropertyRepository--><g id="link_ImportLegacySystemController_PropertyRepository"><path codeLine="165" d="M273.66,105.78 C280.404,136.752 291,185.4 291,185.4 C291,185.4 321.6,203.4 321.6,203.4 C321.6,203.4 332.61,210.354 344.946,218.148 " fill="none" id="ImportLegacySystemController-to-PropertyRepository" style="stroke:#181818;stroke-width:0.6;stroke-dasharray:7.0,7.0;"/><polygon fill="#181818" points="347.598,219.822,344.3146,214.9088,345.0617,218.2197,341.7509,218.9669,347.598,219.822" style="stroke:#181818;stroke-width:0.6;"/><text fill="#000000" font-family="sans-serif" font-size="7.8" lengthAdjust="spacing" textLength="66.6" x="291.6" y="183.017">PropertyRepository</text></g><!--link ImportLegacySystemController to EmployeeRepository--><g id="link_ImportLegacySystemController_EmployeeRepository"><path codeLine="166" d="M231.192,105.672 C198.708,127.59 156.6,156 156.6,156 C156.6,156 103.8,174 103.8,174 C103.8,174 84.864,198.282 70.068,217.26 " fill="none" id="ImportLegacySystemController-to-EmployeeRepository" style="stroke:#181818;stroke-width:0.6;stroke-dasharray:7.0,7.0;"/><polygon fill="#181818" points="68.1,219.78,73.3118,216.9949,69.9436,217.4133,69.5251,214.0451,68.1,219.78" style="stroke:#181818;stroke-width:0.6;"/><text fill="#000000" font-family="sans-serif" font-size="7.8" lengthAdjust="spacing" textLength="72" x="104.4" y="183.017">EmployeeRepository</text></g><!--link ImportLegacySystemController to StoreRepository--><g id="link_ImportLegacySystemController_StoreRepository"><path codeLine="167" d="M246.012,105.702 C221.484,133.338 185.4,174 185.4,174 C185.4,174 177.072,197.892 170.484,216.792 " fill="none" id="ImportLegacySystemController-to-StoreRepository" style="stroke:#181818;stroke-width:0.6;stroke-dasharray:7.0,7.0;"/><polygon fill="#181818" points="169.44,219.78,173.4793,215.4667,170.4246,216.9462,168.9451,213.8914,169.44,219.78" style="stroke:#181818;stroke-width:0.6;"/><text fill="#000000" font-family="sans-serif" font-size="7.8" lengthAdjust="spacing" textLength="55.8" x="186" y="183.017">StoreRepository</text></g><!--link ImportLegacySystemController to AnnouncementRepository--><g id="link_ImportLegacySystemController_AnnouncementRepository"><path codeLine="168" d="M318.936,105.672 C363.474,127.59 421.2,156 421.2,156 C421.2,156 510.6,185.4 510.6,185.4 C510.6,185.4 574.8,203.4 574.8,203.4 C574.8,203.4 588.348,210.468 603.438,218.34 " fill="none" id="ImportLegacySystemController-to-AnnouncementRepository" style="stroke:#181818;stroke-width:0.6;stroke-dasharray:7.0,7.0;"/><polygon fill="#181818" points="606.27,219.822,602.5957,215.1939,603.6112,218.4325,600.3725,219.448,606.27,219.822" style="stroke:#181818;stroke-width:0.6;"/><text fill="#000000" font-family="sans-serif" font-size="7.8" lengthAdjust="spacing" textLength="89.4" x="511.2" y="183.017">AnnouncementRepository</text></g><!--link ImportLegacySystemController to PurchaseOrderRepository--><g id="link_ImportLegacySystemController_PurchaseOrderRepository"><path codeLine="169" d="M295.65,105.78 C329.55,136.752 382.8,185.4 382.8,185.4 C382.8,185.4 435,203.4 435,203.4 C435,203.4 448.896,210.528 464.328,218.442 " fill="none" id="ImportLegacySystemController-to-PurchaseOrderRepository" style="stroke:#181818;stroke-width:0.6;stroke-dasharray:7.0,7.0;"/><polygon fill="#181818" points="467.016,219.822,463.3004,215.2269,464.3449,218.4564,461.1154,219.5008,467.016,219.822" style="stroke:#181818;stroke-width:0.6;"/><text fill="#000000" font-family="sans-serif" font-size="7.8" lengthAdjust="spacing" textLength="89.4" x="383.4" y="183.017">PurchaseOrderRepository</text></g><!--link EmployeeRepository to Employee--><g id="link_EmployeeRepository_Employee"><path codeLine="171" d="M53.124,260.328 C54.054,317.16 56.754,482.316 58.068,562.614 " fill="none" id="EmployeeRepository-to-Employee" style="stroke:#181818;stroke-width:0.6;"/><polygon fill="#181818" points="58.116,565.674,60.4231,560.2337,58.0646,562.6744,55.6238,560.3159,58.116,565.674" style="stroke:#181818;stroke-width:0.6;"/><text fill="#000000" font-family="sans-serif" font-size="7.8" lengthAdjust="spacing" textLength="33.6" x="57" y="435.617">employee</text><text fill="#000000" font-family="sans-serif" font-size="7.8" lengthAdjust="spacing" textLength="4.2" x="48.6188" y="273.15">1</text><text fill="#000000" font-family="sans-serif" font-size="7.8" lengthAdjust="spacing" textLength="3" x="54.8908" y="558.9956">*</text></g><!--link PropertyRepository to Property--><g id="link_PropertyRepository_Property"><path codeLine="172" d="M386.34,260.154 C396.09,284.802 411.6,324 411.6,324 C411.6,324 417,456 417,456 C417,456 417,518.4 417,518.4 C417,518.4 412.734,548.562 409.17,573.786 " fill="none" id="PropertyRepository-to-Property" style="stroke:#181818;stroke-width:0.6;"/><polygon fill="#181818" points="408.738,576.834,411.8695,571.8226,409.1575,573.8635,407.1166,571.1515,408.738,576.834" style="stroke:#181818;stroke-width:0.6;"/><text fill="#000000" font-family="sans-serif" font-size="7.8" lengthAdjust="spacing" textLength="28.2" x="417" y="435.617">property</text><text fill="#000000" font-family="sans-serif" font-size="7.8" lengthAdjust="spacing" textLength="4.2" x="383.1446" y="273.1052">1</text><text fill="#000000" font-family="sans-serif" font-size="7.8" lengthAdjust="spacing" textLength="3" x="406.1194" y="570.1816">*</text></g><!--link StoreRepository to Store--><g id="link_StoreRepository_Store"><path codeLine="173" d="M158.376,260.154 C148.05,307.908 122.4,426.6 122.4,426.6 C122.4,426.6 122.4,438 122.4,438 C122.4,438 170.364,518.652 200.118,568.692 " fill="none" id="StoreRepository-to-Store" style="stroke:#181818;stroke-width:0.6;"/><polygon fill="#181818" points="201.702,571.344,200.9961,565.477,200.1648,568.7677,196.8741,567.9365,201.702,571.344" style="stroke:#181818;stroke-width:0.6;"/><text fill="#000000" font-family="sans-serif" font-size="7.8" lengthAdjust="spacing" textLength="17.4" x="123" y="435.617">store</text><text fill="#000000" font-family="sans-serif" font-size="7.8" lengthAdjust="spacing" textLength="4.2" x="153.0495" y="273.1052">1</text><text fill="#000000" font-family="sans-serif" font-size="7.8" lengthAdjust="spacing" textLength="3" x="196.0429" y="564.7147">*</text></g><!--link AnnouncementRepository to Announcement--><g id="link_AnnouncementRepository_Announcement"><path codeLine="174" d="M640.992,260.106 C634.974,301.95 620.76,400.728 613.248,452.922 " fill="none" id="AnnouncementRepository-to-Announcement" style="stroke:#181818;stroke-width:0.6;"/><polygon fill="#181818" points="612.804,455.988,615.9496,450.9855,613.2319,453.0187,611.1987,450.3009,612.804,455.988" style="stroke:#181818;stroke-width:0.6;"/><text fill="#000000" font-family="sans-serif" font-size="7.8" lengthAdjust="spacing" textLength="51" x="632.4" y="369.617">announcement</text><text fill="#000000" font-family="sans-serif" font-size="7.8" lengthAdjust="spacing" textLength="4.2" x="635.9178" y="273.0486">1</text><text fill="#000000" font-family="sans-serif" font-size="7.8" lengthAdjust="spacing" textLength="3" x="610.1942" y="449.3428">*</text></g><!--link PurchaseOrderRepository to PurchaseOrder--><g id="link_PurchaseOrderRepository_PurchaseOrder"><path codeLine="175" d="M507.546,260.148 C509.844,279.348 513.408,309.036 516.162,332.04 " fill="none" id="PurchaseOrderRepository-to-PurchaseOrder" style="stroke:#181818;stroke-width:0.6;"/><polygon fill="#181818" points="516.528,335.1,518.2637,329.4513,516.1685,332.1216,513.4983,330.0265,516.528,335.1" style="stroke:#181818;stroke-width:0.6;"/><text fill="#000000" font-family="sans-serif" font-size="7.8" lengthAdjust="spacing" textLength="51" x="513.6" y="303.617">purchaseOrder</text><text fill="#000000" font-family="sans-serif" font-size="7.8" lengthAdjust="spacing" textLength="4.2" x="503.3898" y="273.0981">1</text><text fill="#000000" font-family="sans-serif" font-size="7.8" lengthAdjust="spacing" textLength="3" x="512.8007" y="328.2303">*</text></g><!--link Address to Employee--><g id="link_Address_Employee"><path codeLine="180" d="M247.104,276.618 C208.212,344.952 123.912,493.08 82.596,565.68 " fill="none" id="Address-Employee" style="stroke:#181818;stroke-width:0.6;"/><polygon fill="#000000" points="165.2839,429.78,161.067,433.6245,164.1321,435.3689,165.2839,429.78" style="stroke:#000000;stroke-width:0.6;"/><text fill="#000000" font-family="sans-serif" font-size="7.8" lengthAdjust="spacing" textLength="23.4" x="169.2" y="435.617">has an</text><text fill="#000000" font-family="sans-serif" font-size="7.8" lengthAdjust="spacing" textLength="4.2" x="240.1501" y="290.1123">1</text><text fill="#000000" font-family="sans-serif" font-size="7.8" lengthAdjust="spacing" textLength="4.2" x="80.6334" y="559.0022">1</text></g><!--link Address to Store--><g id="link_Address_Store"><path codeLine="181" d="M257.196,276.618 C254.334,286.524 252,294.6 252,294.6 C252,294.6 221.4,426.6 221.4,426.6 C221.4,426.6 221.4,438 221.4,438 C221.4,438 222.288,521.568 222.816,571.344 " fill="none" id="Address-Store" style="stroke:#181818;stroke-width:0.6;"/><polygon fill="#000000" points="224.7476,429.4075,222.3673,434.5937,225.8703,435.0023,224.7476,429.4075" style="stroke:#000000;stroke-width:0.6;"/><text fill="#000000" font-family="sans-serif" font-size="7.8" lengthAdjust="spacing" textLength="23.4" x="229.8" y="435.617">has an</text><text fill="#000000" font-family="sans-serif" font-size="7.8" lengthAdjust="spacing" textLength="4.2" x="251.4721" y="290.1123">1</text><text fill="#000000" font-family="sans-serif" font-size="7.8" lengthAdjust="spacing" textLength="4.2" x="218.3288" y="564.7147">1</text></g><!--link Address to Property--><g id="link_Address_Property"><path codeLine="182" d="M272.232,276.642 C278.58,326.004 289.2,408.6 289.2,408.6 C289.2,408.6 354.336,521.064 386.652,576.858 " fill="none" id="Address-Property" style="stroke:#181818;stroke-width:0.6;"/><polygon fill="#000000" points="307.9316,429.584,308.2166,435.2832,311.5121,434.0272,307.9316,429.584" style="stroke:#000000;stroke-width:0.6;"/><text fill="#000000" font-family="sans-serif" font-size="7.8" lengthAdjust="spacing" textLength="23.4" x="314.4" y="435.617">has an</text><text fill="#000000" font-family="sans-serif" font-size="7.8" lengthAdjust="spacing" textLength="4.2" x="268.3406" y="290.1392">1</text><text fill="#000000" font-family="sans-serif" font-size="7.8" lengthAdjust="spacing" textLength="4.2" x="379.7849" y="570.2088">1</text></g><!--link Address to Client--><g id="link_Address_Client"><path codeLine="183" d="M291.438,276.618 C301.23,291.414 312.636,308.64 322.788,323.982 " fill="none" id="Address-Client" style="stroke:#181818;stroke-width:0.6;"/><polygon fill="#000000" points="310.3442,297.8857,311.8692,303.3845,314.81,301.4379,310.3442,297.8857" style="stroke:#000000;stroke-width:0.6;"/><text fill="#000000" font-family="sans-serif" font-size="7.8" lengthAdjust="spacing" textLength="23.4" x="317.4" y="303.617">has an</text><text fill="#000000" font-family="sans-serif" font-size="7.8" lengthAdjust="spacing" textLength="4.2" x="289.8873" y="290.1123">1</text><text fill="#000000" font-family="sans-serif" font-size="7.8" lengthAdjust="spacing" textLength="4.2" x="315.5239" y="317.3148">1</text></g><!--link Employee to Store--><g id="link_Employee_Store"><path codeLine="186" d="M109.692,608.1 C131.1,608.1 155.832,608.1 176.742,608.1 " fill="none" id="Employee-Store" style="stroke:#181818;stroke-width:0.6;"/><polygon fill="#000000" points="125.85,600.6873,120.4229,598.9239,120.4229,602.4507,125.85,600.6873" style="stroke:#000000;stroke-width:0.6;"/><text fill="#000000" font-family="sans-serif" font-size="7.8" lengthAdjust="spacing" textLength="37.8" x="128.25" y="603.917">works on a</text><text fill="#000000" font-family="sans-serif" font-size="7.8" lengthAdjust="spacing" textLength="4.2" x="114.246" y="605.8835">1</text><text fill="#000000" font-family="sans-serif" font-size="7.8" lengthAdjust="spacing" textLength="4.2" x="168.0656" y="605.8415">1</text></g><!--link Store to Property--><g id="link_Store_Property"><path codeLine="187" d="M269.628,608.1 C295.11,608.1 326.76,608.1 352.986,608.1 " fill="none" id="Store-Property" style="stroke:#181818;stroke-width:0.6;"/><polygon fill="#000000" points="279.75,600.6873,285.1771,602.4507,285.1771,598.9239,279.75,600.6873" style="stroke:#000000;stroke-width:0.6;"/><text fill="#000000" font-family="sans-serif" font-size="7.8" lengthAdjust="spacing" textLength="54" x="288.15" y="603.917">associated with</text><text fill="#000000" font-family="sans-serif" font-size="7.8" lengthAdjust="spacing" textLength="4.2" x="274.2533" y="605.8254">1</text><text fill="#000000" font-family="sans-serif" font-size="7.8" lengthAdjust="spacing" textLength="4.2" x="344.0199" y="605.8742">1</text></g><!--link PurchaseOrder to Announcement--><g id="link_PurchaseOrder_Announcement"><path codeLine="193" d="M541.752,397.674 C555.21,416.886 570,438 570,438 C570,438 576.462,446.178 584.082,455.82 " fill="none" id="PurchaseOrder-Announcement" style="stroke:#181818;stroke-width:0.6;"/><polygon fill="#000000" points="571.2343,429.9619,573.0029,435.3873,575.854,433.3116,571.2343,429.9619" style="stroke:#000000;stroke-width:0.6;"/><text fill="#000000" font-family="sans-serif" font-size="7.8" lengthAdjust="spacing" textLength="28.2" x="578.4" y="435.617">provides</text><text fill="#000000" font-family="sans-serif" font-size="7.8" lengthAdjust="spacing" textLength="12" x="531.6474" y="410.5519">0..*</text><text fill="#000000" font-family="sans-serif" font-size="7.8" lengthAdjust="spacing" textLength="4.2" x="576.3321" y="449.1522">1</text></g><!--link Employee to Role--><g id="link_Employee_Role"><path codeLine="194" d="M58.8,650.532 C58.8,669.852 58.8,692.142 58.8,708.798 " fill="none" id="Employee-Role" style="stroke:#181818;stroke-width:0.6;"/><polygon fill="#000000" points="61.8,677.1873,63.5634,671.7603,60.0366,671.7603,61.8,677.1873" style="stroke:#000000;stroke-width:0.6;"/><text fill="#000000" font-family="sans-serif" font-size="7.8" lengthAdjust="spacing" textLength="12.6" x="67.2" y="677.417">has</text><text fill="#000000" font-family="sans-serif" font-size="7.8" lengthAdjust="spacing" textLength="4.2" x="54.3933" y="663.6334">1</text><text fill="#000000" font-family="sans-serif" font-size="7.8" lengthAdjust="spacing" textLength="12" x="45.8438" y="702.1242">1..*</text></g><!--link Announcement to BusinessType--><g id="link_Announcement_BusinessType"><path codeLine="195" d="M609.936,518.472 C611.034,540.36 612.48,569.142 613.422,587.97 " fill="none" id="Announcement-BusinessType" style="stroke:#181818;stroke-width:0.6;"/><polygon fill="#000000" points="614.5503,545.1835,616.0396,539.675,612.5173,539.8516,614.5503,545.1835" style="stroke:#000000;stroke-width:0.6;"/><text fill="#000000" font-family="sans-serif" font-size="7.8" lengthAdjust="spacing" textLength="19.2" x="619.8" y="545.417">has a</text><text fill="#000000" font-family="sans-serif" font-size="7.8" lengthAdjust="spacing" textLength="4.2" x="605.6637" y="531.5656">1</text><text fill="#000000" font-family="sans-serif" font-size="7.8" lengthAdjust="spacing" textLength="4.2" x="608.616" y="581.2594">1</text></g><!--link Announcement to Commission--><g id="link_Announcement_Commission"><path codeLine="196" d="M637.458,518.472 C656.292,538.35 680.514,563.916 698.16,582.546 " fill="none" id="Announcement-Commission" style="stroke:#181818;stroke-width:0.6;"/><polygon fill="#000000" points="670.4632,544.3652,668.0109,539.2126,665.4507,541.6381,670.4632,544.3652" style="stroke:#000000;stroke-width:0.6;"/><text fill="#000000" font-family="sans-serif" font-size="7.8" lengthAdjust="spacing" textLength="19.2" x="673.8" y="545.417">has a</text><text fill="#000000" font-family="sans-serif" font-size="7.8" lengthAdjust="spacing" textLength="4.2" x="636.712" y="531.5656">1</text><text fill="#000000" font-family="sans-serif" font-size="7.8" lengthAdjust="spacing" textLength="4.2" x="689.8577" y="575.8798">1</text></g><!--link Announcement to Property--><g id="link_Announcement_Property"><path codeLine="197" d="M571.554,518.502 C553.842,533.268 536.4,547.8 536.4,547.8 C536.4,547.8 492.876,567.486 455.814,584.25 " fill="none" id="Announcement-Property" style="stroke:#181818;stroke-width:0.6;"/><polygon fill="#000000" points="554.6085,540.7055,549.0187,541.8529,550.7607,544.9193,554.6085,540.7055" style="stroke:#000000;stroke-width:0.6;"/><text fill="#000000" font-family="sans-serif" font-size="7.8" lengthAdjust="spacing" textLength="21.6" x="557.4" y="545.417">part of</text><text fill="#000000" font-family="sans-serif" font-size="7.8" lengthAdjust="spacing" textLength="4.2" x="562.364" y="531.5994">1</text><text fill="#000000" font-family="sans-serif" font-size="7.8" lengthAdjust="spacing" textLength="4.2" x="460.5801" y="579.9001">1</text></g><!--link Announcement to Employee--><g id="link_Announcement_Employee"><path codeLine="198" d="M566.202,495.246 C455.67,514.74 166.2,565.8 166.2,565.8 C166.2,565.8 137.322,577.014 109.512,587.808 " fill="none" id="Announcement-Employee" style="stroke:#181818;stroke-width:0.6;"/><polygon fill="#000000" points="328.1402,541.5914,322.471,540.9412,323.1716,544.3976,328.1402,541.5914" style="stroke:#000000;stroke-width:0.6;"/><text fill="#000000" font-family="sans-serif" font-size="7.8" lengthAdjust="spacing" textLength="58.8" x="330.6" y="545.417">is responsible for</text><text fill="#000000" font-family="sans-serif" font-size="7.8" lengthAdjust="spacing" textLength="4.2" x="557.4338" y="493.78">1</text><text fill="#000000" font-family="sans-serif" font-size="7.8" lengthAdjust="spacing" textLength="4.2" x="114.3806" y="583.6893">1</text></g><!--link Property to PropertyType--><g id="link_Property_PropertyType"><path codeLine="200" d="M418.344,639.3 C428.988,662.67 443.34,694.158 452.484,714.228 " fill="none" id="Property-PropertyType" style="stroke:#181818;stroke-width:0.6;"/><polygon fill="#000000" points="441.0439,676.9173,440.3983,671.2476,437.189,672.7098,441.0439,676.9173" style="stroke:#000000;stroke-width:0.6;"/><text fill="#000000" font-family="sans-serif" font-size="7.8" lengthAdjust="spacing" textLength="19.2" x="445.2" y="677.417">has a</text><text fill="#000000" font-family="sans-serif" font-size="7.8" lengthAdjust="spacing" textLength="4.2" x="415.6615" y="652.3844">1</text><text fill="#000000" font-family="sans-serif" font-size="7.8" lengthAdjust="spacing" textLength="4.2" x="446.1152" y="707.5091">1</text></g><!--link Property to Inhabitable--><g id="link_Property_Inhabitable"><path codeLine="202" d="M390.312,639.3 C382.182,656.952 371.922,679.242 363.402,697.74 " fill="none" id="Property-Inhabitable" style="stroke:#181818;stroke-width:0.6;"/><polygon fill="#000000" points="379.8548,671.4623,375.9832,675.6543,379.1866,677.1294,379.8548,671.4623" style="stroke:#000000;stroke-width:0.6;"/><text fill="#000000" font-family="sans-serif" font-size="7.8" lengthAdjust="spacing" textLength="16.8" x="384" y="677.417">is an</text><text fill="#000000" font-family="sans-serif" font-size="7.8" lengthAdjust="spacing" textLength="4.2" x="384.0379" y="652.3844">1</text><text fill="#000000" font-family="sans-serif" font-size="7.8" lengthAdjust="spacing" textLength="4.2" x="360.8788" y="691.1218">1</text></g><!--link Inhabitable to House--><g id="link_Inhabitable_House"><path codeLine="203" d="M346.8,771.072 C346.8,786.27 346.8,803.772 346.8,818.34 " fill="none" id="Inhabitable-House" style="stroke:#181818;stroke-width:0.6;"/><polygon fill="#000000" points="349.8,791.7873,348.0366,797.2144,351.5634,797.2144,349.8,791.7873" style="stroke:#000000;stroke-width:0.6;"/><text fill="#000000" font-family="sans-serif" font-size="7.8" lengthAdjust="spacing" textLength="16.8" x="355.2" y="798.017">is an</text><text fill="#000000" font-family="sans-serif" font-size="7.8" lengthAdjust="spacing" textLength="4.2" x="342.3441" y="784.5729">1</text><text fill="#000000" font-family="sans-serif" font-size="7.8" lengthAdjust="spacing" textLength="4.2" x="342.3178" y="811.6884">1</text></g><!--link Client to Property--><g id="link_Client_Property"><path codeLine="205" d="M359.808,408.81 C370.566,456.738 387.918,534.078 397.5,576.75 " fill="none" id="Client-Property" style="stroke:#181818;stroke-width:0.6;"/><polygon fill="#000000" points="386.343,484.3601,385.8109,490.0416,389.2521,489.2693,386.343,484.3601" style="stroke:#000000;stroke-width:0.6;"/><text fill="#000000" font-family="sans-serif" font-size="7.8" lengthAdjust="spacing" textLength="19.2" x="392.4" y="490.517">has a</text><text fill="#000000" font-family="sans-serif" font-size="7.8" lengthAdjust="spacing" textLength="4.2" x="356.3274" y="421.9191">1</text><text fill="#000000" font-family="sans-serif" font-size="7.8" lengthAdjust="spacing" textLength="4.2" x="392.0906" y="570.0863">1</text></g><!--link Client to PurchaseOrder--><g id="link_Client_PurchaseOrder"><path codeLine="206" d="M401.118,366.3 C423.3,366.3 449.22,366.3 471.204,366.3 " fill="none" id="Client-PurchaseOrder" style="stroke:#181818;stroke-width:0.6;"/><polygon fill="#000000" points="422.1,358.8873,427.5271,360.6507,427.5271,357.1239,422.1,358.8873" style="stroke:#000000;stroke-width:0.6;"/><text fill="#000000" font-family="sans-serif" font-size="7.8" lengthAdjust="spacing" textLength="19.2" x="430.5" y="362.117">has a</text><text fill="#000000" font-family="sans-serif" font-size="7.8" lengthAdjust="spacing" textLength="4.2" x="405.8221" y="364.0677">1</text><text fill="#000000" font-family="sans-serif" font-size="7.8" lengthAdjust="spacing" textLength="4.2" x="462.2936" y="364.0587">1</text></g><!--SRC=[ZLTDRziu4BtpLn2vEDd6GVVg3GAutXOr4EmMwsplj3IsYKYaIb9DrMB_-mufIY8bodOEZZLyy-QBugCN-fMBYYbMqb8AcPsKB84QLGCPLYgMlR8Zx4nJ05MG6IQEHGZG9vRBDowEOy-22p1D1RIIHMCVo2AnA9MHP570mL0ZgUB7aw4vju6u52IWomgczTeOnVUrWMqcnOx_1FgU4EAMwCv81VGNeVYtf5jXu0YAyjmRTkY9IUQW-L4mnnujGCbuCNAkJbB0NtMv1qN-w-9yBAj2DZ24yWI2bN059L9KMBHdZV26_OZCPzDOvxa2hTia1Wvj583nYvCrPc1aoxXfHgQVlDh876oeKSd_G2KrnputllXtz0YcMzMtTqDwNvIiG9bcujAxUGIF_TmKqt7SKWHU2o5haK49mim72b7e_aUGPAso4zFmjyf1dSaqX7KCdgBtmZhw7H4QCT-UQ2jm19Z9xHrTHQ1fCuTiGe9fLyFLKU_2fNId8kfqBy9sRqkxSv_XoB9crsW3vKOAesHHu2Rj1dKErCTJO6eblhAYXi_0CE0jKuerxNTzV_B_lrk0liDczpdyoGnpxuN2ZRivGVOwnCxiuxeeB2Ocf1qZxIZzUF6Hv_XMR0gEdN6EcVlgSaCyQz-aYOFhjSDh- -qIl1kSywZymoMdS6XjJO7XQxgGQ8njjD0oyjBrlkJcwk9RUBBq4UQQUk-fyx-dRT0HmnN5poLuLG_GEI2y8pEdWd-bSrdl2wjMQ5gNw6PQUtT4lp6zpZAe37YzmR3mmb5FCmLERQnXUZoEvQfIF8EHZI73ICHuUuwyo0tchY18lfrbTn9DXMWYLkU4AQrBvsKfQ2fcGSZG2RizIUUjx5XhrGhnalh-5bWOv5zS4uAQP5bohH69Z7ruzoQJFaUyJ0oumVT3hV6geVKBhl_gqNWBo1IlJ0JjPd85T2jERCyDmvmHsKzg3xcIilGzwJFTCtDAsV5YWzURumxlM2W1I_gCrJ-sOPyeVAjvPRjehKFapxBMDkPUoWAOeBXHF-1UjS38-2mFfgz1r-BZ3ppHQxzLgDSkH7SxPNnVIbHF1zMR7lB_Rf7f7ULkuHCluFQ07quy8ebSFiMIkQBSYo8XITQ7fxEIal8ALEbX4aw5iZlA3PEx-VqcSNT9uwPQdSQDT3aDIYlqfVAmliHDQvKguI9HufQtIjLuaMXyXrjDEd2HOkPcjvfhq-KkpLprLdChX2JwOGVb1lRRC7sa0F-L96OHkdJBwD9f8XatAyItFsbMhKwIcPw43j7fkueKZinr84emnDWimsTY__ml2-hTelS07HxjsODnUrm0wwevXmbRT0xdPIu03VDgSL789_ecrQkcg22ixNW0YaBYwIOpZagLqpTkJaYxw7WjTl32ZuS7R9azHCd27QNU4gGPTeV44w0txntQ8qUJUxGRv3l7utTKrZACQmj3mcXdHDqCrOzwD7PW5Zyew3bmOb8ePORAmpnpLuK5Kwxn6CRRXj3Sglv1ujxgwGAlK963z9FOK9DTIjnjYz0Qe9sC1Z3YDrGY-B398b2B2ISwu0Zv7m00]--></g></svg>