<?xml version="1.0" encoding="us-ascii" standalone="no"?><svg xmlns="http://www.w3.org/2000/svg" xmlns:xlink="http://www.w3.org/1999/xlink" contentStyleType="text/css" height="482px" preserveAspectRatio="none" style="width:745px;height:482px;background:#FFFFFF;" version="1.1" viewBox="0 0 745 482" width="745px" zoomAndPan="magnify"><defs/><g><rect fill="#FFFFFF" height="287.5801" style="stroke:#181818;stroke-width:1.0;" width="10" x="44.5" y="93.6211"/><rect fill="#FFFFFF" height="74.9121" style="stroke:#181818;stroke-width:1.0;" width="10" x="375.5" y="116.9121"/><rect fill="#FFFFFF" height="158.0859" style="stroke:#181818;stroke-width:1.0;" width="10" x="375.5" y="223.1152"/><rect fill="#FFFFFF" height="135.7949" style="stroke:#181818;stroke-width:1.0;" width="10" x="571.5" y="254.4063"/><line style="stroke:#181818;stroke-width:0.5;stroke-dasharray:5.0,5.0;" x1="49" x2="49" y1="83.6211" y2="399.2012"/><line style="stroke:#181818;stroke-width:0.5;stroke-dasharray:5.0,5.0;" x1="380" x2="380" y1="83.6211" y2="399.2012"/><line style="stroke:#181818;stroke-width:0.5;stroke-dasharray:5.0,5.0;" x1="576" x2="576" y1="156.7227" y2="399.2012"/><text fill="#000000" font-family="sans-serif" font-size="14" lengthAdjust="spacing" textLength="83" x="5" y="80.1074">Administrator</text><ellipse cx="49.5" cy="13.5" fill="#E3E3E3" rx="8" ry="8" style="stroke:#181818;stroke-width:0.5;"/><path d="M49.5,21.5 L49.5,48.5 M36.5,29.5 L62.5,29.5 M49.5,48.5 L36.5,63.5 M49.5,48.5 L62.5,63.5 " fill="none" style="stroke:#181818;stroke-width:0.5;"/><text fill="#000000" font-family="sans-serif" font-size="14" lengthAdjust="spacing" textLength="83" x="5" y="413.3086">Administrator</text><ellipse cx="49.5" cy="425.3223" fill="#E3E3E3" rx="8" ry="8" style="stroke:#181818;stroke-width:0.5;"/><path d="M49.5,433.3223 L49.5,460.3223 M36.5,441.3223 L62.5,441.3223 M49.5,460.3223 L36.5,475.3223 M49.5,460.3223 L62.5,475.3223 " fill="none" style="stroke:#181818;stroke-width:0.5;"/><rect fill="#E3E3E3" height="32.6211" rx="2.5" ry="2.5" style="stroke:#181818;stroke-width:0.5;" width="161" x="300" y="50"/><text fill="#000000" font-family="sans-serif" font-size="14" lengthAdjust="spacing" textLength="147" x="307" y="72.1074">:ImportLegacySystemUI</text><rect fill="#E3E3E3" height="32.6211" rx="2.5" ry="2.5" style="stroke:#181818;stroke-width:0.5;" width="161" x="300" y="398.2012"/><text fill="#000000" font-family="sans-serif" font-size="14" lengthAdjust="spacing" textLength="147" x="307" y="420.3086">:ImportLegacySystemUI</text><rect fill="#E3E3E3" height="32.6211" rx="2.5" ry="2.5" style="stroke:#181818;stroke-width:0.5;" width="211" x="471" y="398.2012"/><text fill="#000000" font-family="sans-serif" font-size="14" lengthAdjust="spacing" textLength="197" x="478" y="420.3086">:ImportLegacySystemController</text><rect fill="#FFFFFF" height="287.5801" style="stroke:#181818;stroke-width:1.0;" width="10" x="44.5" y="93.6211"/><rect fill="#FFFFFF" height="74.9121" style="stroke:#181818;stroke-width:1.0;" width="10" x="375.5" y="116.9121"/><rect fill="#FFFFFF" height="158.0859" style="stroke:#181818;stroke-width:1.0;" width="10" x="375.5" y="223.1152"/><rect fill="#FFFFFF" height="135.7949" style="stroke:#181818;stroke-width:1.0;" width="10" x="571.5" y="254.4063"/><polygon fill="#181818" points="363.5,112.9121,373.5,116.9121,363.5,120.9121,367.5,116.9121" style="stroke:#181818;stroke-width:1.0;"/><line style="stroke:#181818;stroke-width:1.0;" x1="54.5" x2="369.5" y1="116.9121" y2="116.9121"/><text fill="#000000" font-family="sans-serif" font-size="13" font-weight="bold" lengthAdjust="spacing" textLength="7" x="61.5" y="111.6494">1</text><text fill="#000000" font-family="sans-serif" font-size="13" lengthAdjust="spacing" textLength="137" x="72.5" y="111.6494">asks to import a csv file</text><polygon fill="#181818" points="459,144.2031,469,148.2031,459,152.2031,463,148.2031" style="stroke:#181818;stroke-width:1.0;"/><line style="stroke:#181818;stroke-width:1.0;" x1="385.5" x2="465" y1="148.2031" y2="148.2031"/><text fill="#000000" font-family="sans-serif" font-size="13" font-weight="bold" lengthAdjust="spacing" textLength="7" x="392.5" y="142.9404">2</text><text fill="#000000" font-family="sans-serif" font-size="13" lengthAdjust="spacing" textLength="36" x="403.5" y="142.9404">create</text><rect fill="#E3E3E3" height="32.6211" rx="2.5" ry="2.5" style="stroke:#181818;stroke-width:0.5;" width="211" x="471" y="124.9121"/><text fill="#000000" font-family="sans-serif" font-size="14" lengthAdjust="spacing" textLength="197" x="478" y="147.0195">:ImportLegacySystemController</text><polygon fill="#181818" points="65.5,187.8242,55.5,191.8242,65.5,195.8242,61.5,191.8242" style="stroke:#181818;stroke-width:1.0;"/><line style="stroke:#181818;stroke-width:1.0;stroke-dasharray:2.0,2.0;" x1="59.5" x2="379.5" y1="191.8242" y2="191.8242"/><text fill="#000000" font-family="sans-serif" font-size="13" font-weight="bold" lengthAdjust="spacing" textLength="7" x="71.5" y="186.5615">3</text><text fill="#000000" font-family="sans-serif" font-size="13" lengthAdjust="spacing" textLength="286" x="82.5" y="186.5615">show the list of all csv files in the resources folder</text><polygon fill="#181818" points="363.5,219.1152,373.5,223.1152,363.5,227.1152,367.5,223.1152" style="stroke:#181818;stroke-width:1.0;"/><line style="stroke:#181818;stroke-width:1.0;" x1="54.5" x2="369.5" y1="223.1152" y2="223.1152"/><text fill="#000000" font-family="sans-serif" font-size="13" font-weight="bold" lengthAdjust="spacing" textLength="7" x="61.5" y="217.8525">4</text><text fill="#000000" font-family="sans-serif" font-size="13" lengthAdjust="spacing" textLength="196" x="72.5" y="217.8525">choose an option to import the file</text><polygon fill="#181818" points="559.5,250.4063,569.5,254.4063,559.5,258.4063,563.5,254.4063" style="stroke:#181818;stroke-width:1.0;"/><line style="stroke:#181818;stroke-width:1.0;" x1="385.5" x2="565.5" y1="254.4063" y2="254.4063"/><text fill="#000000" font-family="sans-serif" font-size="13" font-weight="bold" lengthAdjust="spacing" textLength="7" x="392.5" y="249.1436">5</text><text fill="#000000" font-family="sans-serif" font-size="13" lengthAdjust="spacing" textLength="81" x="403.5" y="249.1436">importFile(file)</text><rect fill="none" height="59.2129" style="stroke:#000000;stroke-width:1.5;" width="271" x="468" y="262.4063"/><path d="M468,262.4063 L530,262.4063 L530,271.4063 L520,281.4063 L468,281.4063 L468,262.4063 " fill="#EEEEEE" style="stroke:#000000;stroke-width:2.0;"/><text fill="#000000" font-family="sans-serif" font-size="13" font-weight="bold" lengthAdjust="spacing" textLength="17" x="481" y="278.4346">ref</text><text fill="#000000" font-family="sans-serif" font-size="12" lengthAdjust="spacing" textLength="263" x="472" y="298.3555">Legacy System Data Import and Entity Validation</text><text fill="#000000" font-family="sans-serif" font-size="12" lengthAdjust="spacing" textLength="3" x="602" y="314.3164">&#160;</text><polygon fill="#181818" points="396.5,345.9102,386.5,349.9102,396.5,353.9102,392.5,349.9102" style="stroke:#181818;stroke-width:1.0;"/><line style="stroke:#181818;stroke-width:1.0;stroke-dasharray:2.0,2.0;" x1="390.5" x2="570.5" y1="349.9102" y2="349.9102"/><text fill="#000000" font-family="sans-serif" font-size="13" font-weight="bold" lengthAdjust="spacing" textLength="7" x="402.5" y="344.6475">6</text><text fill="#000000" font-family="sans-serif" font-size="13" lengthAdjust="spacing" textLength="90" x="413.5" y="344.6475">operationResult</text><polygon fill="#181818" points="60.5,377.2012,50.5,381.2012,60.5,385.2012,56.5,381.2012" style="stroke:#181818;stroke-width:1.0;"/><line style="stroke:#181818;stroke-width:1.0;stroke-dasharray:2.0,2.0;" x1="54.5" x2="379.5" y1="381.2012" y2="381.2012"/><text fill="#000000" font-family="sans-serif" font-size="13" font-weight="bold" lengthAdjust="spacing" textLength="7" x="66.5" y="375.9385">7</text><text fill="#000000" font-family="sans-serif" font-size="13" lengthAdjust="spacing" textLength="151" x="77.5" y="375.9385">display operation success</text><!--SRC=[hLBBRjim4BppAnQ-A0tW7_2XWE6qXG0NAE8uzmsriWXJN85SET7VPocfVXH17q09w43jpEpESDFHXGuZjj1oODj4RWaazcJIkTAXFUA1TZ9uWaXMC1pyDI0rMF6h2mUeqISo1dlXqBSl58qf6bSHrCpomcy6hN24nRfgNN198kfr0PXW_V3Tg9euwpeC0ejLsNOSPKi7jCDkI4BjlXoX-_AFo0q7YUmzJUARfyUjoRtT2ON6Nlh1yhDgmKeHnmJ2u4OTGB3f1BLJZsUAzZJxKWbPwlvUIJQI5amHgGO-KPoQ5A3d6mbirHrm3PlTCtnLgMGA2fN6LwiEB5KfJx3IxFWLf27mCm6zF_TFuC9OZ9IuZrP_rEmhZRMYcz6ktTY6EH5W0Ex4SRXobgK-yWMpCMLFo3pnNKP-ka2d46_jPhTJxZ053mye2EKSf1h-4iJ90C_eNOLv76D-vg3de_HcyiOxqjVDUfVeYjynThfBD1F-al8ZSaTHv_idrZe4xeEbzZBW_s0QCxx1Sdp85UJ9niGUAVLUpEtUL2vr7eSB2b9lTK7IhwjnTLNcEm00]--></g></svg>