<?xml version="1.0" encoding="us-ascii" standalone="no"?><svg xmlns="http://www.w3.org/2000/svg" xmlns:xlink="http://www.w3.org/1999/xlink" contentStyleType="text/css" height="498px" preserveAspectRatio="none" style="width:852px;height:498px;background:#FFFFFF;" version="1.1" viewBox="0 0 852 498" width="852px" zoomAndPan="magnify"><defs/><g><rect fill="#FFFFFF" height="333.2793" style="stroke:#181818;stroke-width:1.0;" width="10" x="204" y="90.5332"/><rect fill="#FFFFFF" height="270.6973" style="stroke:#181818;stroke-width:1.0;" width="10" x="442" y="121.8242"/><rect fill="#FFFFFF" height="130.873" style="stroke:#181818;stroke-width:1.0;" width="10" x="447" y="223.3574"/><rect fill="#FFFFFF" height="42.291" style="stroke:#181818;stroke-width:1.0;" width="10" x="452" y="267.6484"/><line style="stroke:#181818;stroke-width:0.5;stroke-dasharray:5.0,5.0;" x1="208.5" x2="208.5" y1="57.2422" y2="441.8125"/><line style="stroke:#181818;stroke-width:0.5;stroke-dasharray:5.0,5.0;" x1="447" x2="447" y1="57.2422" y2="441.8125"/><line style="stroke:#181818;stroke-width:0.5;stroke-dasharray:5.0,5.0;" x1="821" x2="821" y1="170.9453" y2="441.8125"/><rect fill="#E3E3E3" height="51.2422" rx="2.5" ry="2.5" style="stroke:#181818;stroke-width:0.5;" width="149" x="134.5" y="5"/><text fill="#000000" font-family="sans-serif" font-size="14" lengthAdjust="spacing" textLength="135" x="141.5" y="27.1074">dataIntegrityChecker:</text><text fill="#000000" font-family="sans-serif" font-size="14" lengthAdjust="spacing" textLength="133" x="142.5" y="45.7285">DataIntegrityChecker</text><rect fill="#E3E3E3" height="51.2422" rx="2.5" ry="2.5" style="stroke:#181818;stroke-width:0.5;" width="149" x="134.5" y="440.8125"/><text fill="#000000" font-family="sans-serif" font-size="14" lengthAdjust="spacing" textLength="135" x="141.5" y="462.9199">dataIntegrityChecker:</text><text fill="#000000" font-family="sans-serif" font-size="14" lengthAdjust="spacing" textLength="133" x="142.5" y="481.541">DataIntegrityChecker</text><rect fill="#E3E3E3" height="51.2422" rx="2.5" ry="2.5" style="stroke:#181818;stroke-width:0.5;" width="118" x="388" y="5"/><text fill="#000000" font-family="sans-serif" font-size="14" lengthAdjust="spacing" textLength="104" x="395" y="27.1074">storeRepository:</text><text fill="#000000" font-family="sans-serif" font-size="14" lengthAdjust="spacing" textLength="102" x="396" y="45.7285">StoreRepository</text><rect fill="#E3E3E3" height="51.2422" rx="2.5" ry="2.5" style="stroke:#181818;stroke-width:0.5;" width="118" x="388" y="440.8125"/><text fill="#000000" font-family="sans-serif" font-size="14" lengthAdjust="spacing" textLength="104" x="395" y="462.9199">storeRepository:</text><text fill="#000000" font-family="sans-serif" font-size="14" lengthAdjust="spacing" textLength="102" x="396" y="481.541">StoreRepository</text><rect fill="#E3E3E3" height="51.2422" rx="2.5" ry="2.5" style="stroke:#181818;stroke-width:0.5;" width="50" x="796" y="440.8125"/><text fill="#000000" font-family="sans-serif" font-size="14" lengthAdjust="spacing" textLength="36" x="803" y="462.9199">store:</text><text fill="#000000" font-family="sans-serif" font-size="14" lengthAdjust="spacing" textLength="34" x="804" y="481.541">Store</text><rect fill="#FFFFFF" height="333.2793" style="stroke:#181818;stroke-width:1.0;" width="10" x="204" y="90.5332"/><rect fill="#FFFFFF" height="270.6973" style="stroke:#181818;stroke-width:1.0;" width="10" x="442" y="121.8242"/><rect fill="#FFFFFF" height="130.873" style="stroke:#181818;stroke-width:1.0;" width="10" x="447" y="223.3574"/><rect fill="#FFFFFF" height="42.291" style="stroke:#181818;stroke-width:1.0;" width="10" x="452" y="267.6484"/><polygon fill="#181818" points="192,86.5332,202,90.5332,192,94.5332,196,90.5332" style="stroke:#181818;stroke-width:1.0;"/><line style="stroke:#181818;stroke-width:1.0;" x1="0" x2="198" y1="90.5332" y2="90.5332"/><text fill="#000000" font-family="sans-serif" font-size="13" font-weight="bold" lengthAdjust="spacing" textLength="7" x="7" y="85.2705">1</text><text fill="#000000" font-family="sans-serif" font-size="13" lengthAdjust="spacing" textLength="174" x="18" y="85.2705">submitStoreData(storeValues)</text><polygon fill="#181818" points="430,117.8242,440,121.8242,430,125.8242,434,121.8242" style="stroke:#181818;stroke-width:1.0;"/><line style="stroke:#181818;stroke-width:1.0;" x1="214" x2="436" y1="121.8242" y2="121.8242"/><text fill="#000000" font-family="sans-serif" font-size="13" font-weight="bold" lengthAdjust="spacing" textLength="7" x="221" y="116.5615">2</text><text fill="#000000" font-family="sans-serif" font-size="13" lengthAdjust="spacing" textLength="198" x="232" y="116.5615">createStore(storeValues, address)</text><polygon fill="#181818" points="784,149.1152,794,153.1152,784,157.1152,788,153.1152" style="stroke:#181818;stroke-width:1.0;"/><line style="stroke:#181818;stroke-width:1.0;" x1="452" x2="790" y1="153.1152" y2="153.1152"/><text fill="#000000" font-family="sans-serif" font-size="13" font-weight="bold" lengthAdjust="spacing" textLength="7" x="459" y="147.8525">3</text><text fill="#000000" font-family="sans-serif" font-size="13" lengthAdjust="spacing" textLength="309" x="470" y="147.8525">create(id, designation, address, email, phoneNumber)</text><rect fill="#E3E3E3" height="51.2422" rx="2.5" ry="2.5" style="stroke:#181818;stroke-width:0.5;" width="50" x="796" y="129.8242"/><text fill="#000000" font-family="sans-serif" font-size="14" lengthAdjust="spacing" textLength="36" x="803" y="151.9316">store:</text><text fill="#000000" font-family="sans-serif" font-size="14" lengthAdjust="spacing" textLength="34" x="804" y="170.5527">Store</text><line style="stroke:#181818;stroke-width:1.0;" x1="452" x2="499" y1="210.3574" y2="210.3574"/><line style="stroke:#181818;stroke-width:1.0;" x1="499" x2="499" y1="210.3574" y2="223.3574"/><line style="stroke:#181818;stroke-width:1.0;" x1="458" x2="499" y1="223.3574" y2="223.3574"/><polygon fill="#181818" points="468,219.3574,458,223.3574,468,227.3574,464,223.3574" style="stroke:#181818;stroke-width:1.0;"/><text fill="#000000" font-family="sans-serif" font-size="13" font-weight="bold" lengthAdjust="spacing" textLength="7" x="464" y="205.0947">4</text><text fill="#000000" font-family="sans-serif" font-size="13" lengthAdjust="spacing" textLength="58" x="475" y="205.0947">add(store)</text><line style="stroke:#181818;stroke-width:1.0;" x1="457" x2="504" y1="254.6484" y2="254.6484"/><line style="stroke:#181818;stroke-width:1.0;" x1="504" x2="504" y1="254.6484" y2="267.6484"/><line style="stroke:#181818;stroke-width:1.0;" x1="463" x2="504" y1="267.6484" y2="267.6484"/><polygon fill="#181818" points="473,263.6484,463,267.6484,473,271.6484,469,267.6484" style="stroke:#181818;stroke-width:1.0;"/><text fill="#000000" font-family="sans-serif" font-size="13" font-weight="bold" lengthAdjust="spacing" textLength="7" x="469" y="249.3857">5</text><text fill="#000000" font-family="sans-serif" font-size="13" lengthAdjust="spacing" textLength="111" x="480" y="249.3857">validateStore(store)</text><line style="stroke:#181818;stroke-width:1.0;stroke-dasharray:2.0,2.0;" x1="462" x2="504" y1="308.9395" y2="308.9395"/><line style="stroke:#181818;stroke-width:1.0;stroke-dasharray:2.0,2.0;" x1="504" x2="504" y1="308.9395" y2="321.9395"/><line style="stroke:#181818;stroke-width:1.0;stroke-dasharray:2.0,2.0;" x1="457" x2="504" y1="321.9395" y2="321.9395"/><polygon fill="#181818" points="467,317.9395,457,321.9395,467,325.9395,463,321.9395" style="stroke:#181818;stroke-width:1.0;"/><text fill="#000000" font-family="sans-serif" font-size="13" font-weight="bold" lengthAdjust="spacing" textLength="7" x="469" y="303.6768">6</text><text fill="#000000" font-family="sans-serif" font-size="13" lengthAdjust="spacing" textLength="4" x="480" y="303.6768">&#160;</text><line style="stroke:#181818;stroke-width:1.0;stroke-dasharray:2.0,2.0;" x1="457" x2="499" y1="353.2305" y2="353.2305"/><line style="stroke:#181818;stroke-width:1.0;stroke-dasharray:2.0,2.0;" x1="499" x2="499" y1="353.2305" y2="366.2305"/><line style="stroke:#181818;stroke-width:1.0;stroke-dasharray:2.0,2.0;" x1="452" x2="499" y1="366.2305" y2="366.2305"/><polygon fill="#181818" points="462,362.2305,452,366.2305,462,370.2305,458,366.2305" style="stroke:#181818;stroke-width:1.0;"/><text fill="#000000" font-family="sans-serif" font-size="13" font-weight="bold" lengthAdjust="spacing" textLength="7" x="464" y="347.9678">7</text><text fill="#000000" font-family="sans-serif" font-size="13" lengthAdjust="spacing" textLength="4" x="475" y="347.9678">&#160;</text><polygon fill="#181818" points="225,388.5215,215,392.5215,225,396.5215,221,392.5215" style="stroke:#181818;stroke-width:1.0;"/><line style="stroke:#181818;stroke-width:1.0;stroke-dasharray:2.0,2.0;" x1="219" x2="446" y1="392.5215" y2="392.5215"/><text fill="#000000" font-family="sans-serif" font-size="13" font-weight="bold" lengthAdjust="spacing" textLength="7" x="231" y="387.2588">8</text><text fill="#000000" font-family="sans-serif" font-size="13" lengthAdjust="spacing" textLength="29" x="242" y="387.2588">store</text><polygon fill="#181818" points="11,419.8125,1,423.8125,11,427.8125,7,423.8125" style="stroke:#181818;stroke-width:1.0;"/><line style="stroke:#181818;stroke-width:1.0;stroke-dasharray:2.0,2.0;" x1="5" x2="208" y1="423.8125" y2="423.8125"/><text fill="#000000" font-family="sans-serif" font-size="13" font-weight="bold" lengthAdjust="spacing" textLength="7" x="17" y="418.5498">9</text><text fill="#000000" font-family="sans-serif" font-size="13" lengthAdjust="spacing" textLength="29" x="28" y="418.5498">store</text><!--SRC=[dP51QiCm44NtEiMGLHBi2vZIJHfeA3JWbAwwcKXJUx0j6McSajjNKHFZK7VJdP3U-_CPXOPjZnuxw9nrklQk8n0_a0hZIu-wmOeEScu9F6b1MxLJ8DHet1VR2Zwn3QGK3kBiq1t9AnKHOSqzMe65GS6T5QeyotbJasx85n_sQUPw0HXWyxpTl6pB-v0WpbD9lGiSJ-Ve7-vladfuAqir8zxmAxIF4EIFjqbGG1YE7KjYBhsMoNh7Tg2mKgY5JoWqDbCtCMPSHiO0xIaIAM0gPu36U0hJb5GoQKdVb-lr6B1aau6Xm9L5OMT7FmFgaDiC-jfPUarxNgb9J6eHuP_fVuzBt0bRDlTzvushKYX3_tk-RYfk-3Ba5wSUydpy1fYXnfL_0m00]--></g></svg>