<?xml version="1.0" encoding="us-ascii" standalone="no"?><svg xmlns="http://www.w3.org/2000/svg" xmlns:xlink="http://www.w3.org/1999/xlink" contentStyleType="text/css" height="498px" preserveAspectRatio="none" style="width:1357px;height:498px;background:#FFFFFF;" version="1.1" viewBox="0 0 1357 498" width="1357px" zoomAndPan="magnify"><defs/><g><rect fill="#FFFFFF" height="333.2793" style="stroke:#181818;stroke-width:1.0;" width="10" x="370" y="90.5332"/><rect fill="#FFFFFF" height="270.6973" style="stroke:#181818;stroke-width:1.0;" width="10" x="720" y="121.8242"/><rect fill="#FFFFFF" height="130.873" style="stroke:#181818;stroke-width:1.0;" width="10" x="725" y="223.3574"/><rect fill="#FFFFFF" height="42.291" style="stroke:#181818;stroke-width:1.0;" width="10" x="730" y="267.6484"/><line style="stroke:#181818;stroke-width:0.5;stroke-dasharray:5.0,5.0;" x1="374.5" x2="374.5" y1="57.2422" y2="441.8125"/><line style="stroke:#181818;stroke-width:0.5;stroke-dasharray:5.0,5.0;" x1="724.5" x2="724.5" y1="57.2422" y2="441.8125"/><line style="stroke:#181818;stroke-width:0.5;stroke-dasharray:5.0,5.0;" x1="1315" x2="1315" y1="170.9453" y2="441.8125"/><rect fill="#E3E3E3" height="51.2422" rx="2.5" ry="2.5" style="stroke:#181818;stroke-width:0.5;" width="149" x="300.5" y="5"/><text fill="#000000" font-family="sans-serif" font-size="14" lengthAdjust="spacing" textLength="135" x="307.5" y="27.1074">dataIntegrityChecker:</text><text fill="#000000" font-family="sans-serif" font-size="14" lengthAdjust="spacing" textLength="133" x="308.5" y="45.7285">DataIntegrityChecker</text><rect fill="#E3E3E3" height="51.2422" rx="2.5" ry="2.5" style="stroke:#181818;stroke-width:0.5;" width="149" x="300.5" y="440.8125"/><text fill="#000000" font-family="sans-serif" font-size="14" lengthAdjust="spacing" textLength="135" x="307.5" y="462.9199">dataIntegrityChecker:</text><text fill="#000000" font-family="sans-serif" font-size="14" lengthAdjust="spacing" textLength="133" x="308.5" y="481.541">DataIntegrityChecker</text><rect fill="#E3E3E3" height="51.2422" rx="2.5" ry="2.5" style="stroke:#181818;stroke-width:0.5;" width="139" x="655.5" y="5"/><text fill="#000000" font-family="sans-serif" font-size="14" lengthAdjust="spacing" textLength="125" x="662.5" y="27.1074">propertyRepository:</text><text fill="#000000" font-family="sans-serif" font-size="14" lengthAdjust="spacing" textLength="122" x="664" y="45.7285">PropertyRepository</text><rect fill="#E3E3E3" height="51.2422" rx="2.5" ry="2.5" style="stroke:#181818;stroke-width:0.5;" width="139" x="655.5" y="440.8125"/><text fill="#000000" font-family="sans-serif" font-size="14" lengthAdjust="spacing" textLength="125" x="662.5" y="462.9199">propertyRepository:</text><text fill="#000000" font-family="sans-serif" font-size="14" lengthAdjust="spacing" textLength="122" x="664" y="481.541">PropertyRepository</text><rect fill="#E3E3E3" height="51.2422" rx="2.5" ry="2.5" style="stroke:#181818;stroke-width:0.5;" width="71" x="1280" y="440.8125"/><text fill="#000000" font-family="sans-serif" font-size="14" lengthAdjust="spacing" textLength="57" x="1287" y="462.9199">property:</text><text fill="#000000" font-family="sans-serif" font-size="14" lengthAdjust="spacing" textLength="54" x="1288.5" y="481.541">Property</text><rect fill="#FFFFFF" height="333.2793" style="stroke:#181818;stroke-width:1.0;" width="10" x="370" y="90.5332"/><rect fill="#FFFFFF" height="270.6973" style="stroke:#181818;stroke-width:1.0;" width="10" x="720" y="121.8242"/><rect fill="#FFFFFF" height="130.873" style="stroke:#181818;stroke-width:1.0;" width="10" x="725" y="223.3574"/><rect fill="#FFFFFF" height="42.291" style="stroke:#181818;stroke-width:1.0;" width="10" x="730" y="267.6484"/><polygon fill="#181818" points="358,86.5332,368,90.5332,358,94.5332,362,90.5332" style="stroke:#181818;stroke-width:1.0;"/><line style="stroke:#181818;stroke-width:1.0;" x1="0" x2="364" y1="90.5332" y2="90.5332"/><text fill="#000000" font-family="sans-serif" font-size="13" font-weight="bold" lengthAdjust="spacing" textLength="7" x="7" y="85.2705">1</text><text fill="#000000" font-family="sans-serif" font-size="13" lengthAdjust="spacing" textLength="340" x="18" y="85.2705">submitPropertyData(propertyValues, address, store, client)</text><polygon fill="#181818" points="708,117.8242,718,121.8242,708,125.8242,712,121.8242" style="stroke:#181818;stroke-width:1.0;"/><line style="stroke:#181818;stroke-width:1.0;" x1="380" x2="714" y1="121.8242" y2="121.8242"/><text fill="#000000" font-family="sans-serif" font-size="13" font-weight="bold" lengthAdjust="spacing" textLength="7" x="387" y="116.5615">2</text><text fill="#000000" font-family="sans-serif" font-size="13" lengthAdjust="spacing" textLength="310" x="398" y="116.5615">createProperty(propertyValues, address, store, client)</text><polygon fill="#181818" points="1268,149.1152,1278,153.1152,1268,157.1152,1272,153.1152" style="stroke:#181818;stroke-width:1.0;"/><line style="stroke:#181818;stroke-width:1.0;" x1="730" x2="1274" y1="153.1152" y2="153.1152"/><text fill="#000000" font-family="sans-serif" font-size="13" font-weight="bold" lengthAdjust="spacing" textLength="7" x="737" y="147.8525">3</text><text fill="#000000" font-family="sans-serif" font-size="13" lengthAdjust="spacing" textLength="515" x="748" y="147.8525">create(price, area, address, distanceToCentre, photographs, propertyType, store, creator)</text><rect fill="#E3E3E3" height="51.2422" rx="2.5" ry="2.5" style="stroke:#181818;stroke-width:0.5;" width="71" x="1280" y="129.8242"/><text fill="#000000" font-family="sans-serif" font-size="14" lengthAdjust="spacing" textLength="57" x="1287" y="151.9316">property:</text><text fill="#000000" font-family="sans-serif" font-size="14" lengthAdjust="spacing" textLength="54" x="1288.5" y="170.5527">Property</text><line style="stroke:#181818;stroke-width:1.0;" x1="730" x2="777" y1="210.3574" y2="210.3574"/><line style="stroke:#181818;stroke-width:1.0;" x1="777" x2="777" y1="210.3574" y2="223.3574"/><line style="stroke:#181818;stroke-width:1.0;" x1="736" x2="777" y1="223.3574" y2="223.3574"/><polygon fill="#181818" points="746,219.3574,736,223.3574,746,227.3574,742,223.3574" style="stroke:#181818;stroke-width:1.0;"/><text fill="#000000" font-family="sans-serif" font-size="13" font-weight="bold" lengthAdjust="spacing" textLength="7" x="742" y="205.0947">4</text><text fill="#000000" font-family="sans-serif" font-size="13" lengthAdjust="spacing" textLength="76" x="753" y="205.0947">add(property)</text><line style="stroke:#181818;stroke-width:1.0;" x1="735" x2="782" y1="254.6484" y2="254.6484"/><line style="stroke:#181818;stroke-width:1.0;" x1="782" x2="782" y1="254.6484" y2="267.6484"/><line style="stroke:#181818;stroke-width:1.0;" x1="741" x2="782" y1="267.6484" y2="267.6484"/><polygon fill="#181818" points="751,263.6484,741,267.6484,751,271.6484,747,267.6484" style="stroke:#181818;stroke-width:1.0;"/><text fill="#000000" font-family="sans-serif" font-size="13" font-weight="bold" lengthAdjust="spacing" textLength="7" x="747" y="249.3857">5</text><text fill="#000000" font-family="sans-serif" font-size="13" lengthAdjust="spacing" textLength="147" x="758" y="249.3857">validateProperty(property)</text><line style="stroke:#181818;stroke-width:1.0;stroke-dasharray:2.0,2.0;" x1="740" x2="782" y1="308.9395" y2="308.9395"/><line style="stroke:#181818;stroke-width:1.0;stroke-dasharray:2.0,2.0;" x1="782" x2="782" y1="308.9395" y2="321.9395"/><line style="stroke:#181818;stroke-width:1.0;stroke-dasharray:2.0,2.0;" x1="735" x2="782" y1="321.9395" y2="321.9395"/><polygon fill="#181818" points="745,317.9395,735,321.9395,745,325.9395,741,321.9395" style="stroke:#181818;stroke-width:1.0;"/><text fill="#000000" font-family="sans-serif" font-size="13" font-weight="bold" lengthAdjust="spacing" textLength="7" x="747" y="303.6768">6</text><text fill="#000000" font-family="sans-serif" font-size="13" lengthAdjust="spacing" textLength="4" x="758" y="303.6768">&#160;</text><line style="stroke:#181818;stroke-width:1.0;stroke-dasharray:2.0,2.0;" x1="735" x2="777" y1="353.2305" y2="353.2305"/><line style="stroke:#181818;stroke-width:1.0;stroke-dasharray:2.0,2.0;" x1="777" x2="777" y1="353.2305" y2="366.2305"/><line style="stroke:#181818;stroke-width:1.0;stroke-dasharray:2.0,2.0;" x1="730" x2="777" y1="366.2305" y2="366.2305"/><polygon fill="#181818" points="740,362.2305,730,366.2305,740,370.2305,736,366.2305" style="stroke:#181818;stroke-width:1.0;"/><text fill="#000000" font-family="sans-serif" font-size="13" font-weight="bold" lengthAdjust="spacing" textLength="7" x="742" y="347.9678">7</text><text fill="#000000" font-family="sans-serif" font-size="13" lengthAdjust="spacing" textLength="4" x="753" y="347.9678">&#160;</text><polygon fill="#181818" points="391,388.5215,381,392.5215,391,396.5215,387,392.5215" style="stroke:#181818;stroke-width:1.0;"/><line style="stroke:#181818;stroke-width:1.0;stroke-dasharray:2.0,2.0;" x1="385" x2="724" y1="392.5215" y2="392.5215"/><text fill="#000000" font-family="sans-serif" font-size="13" font-weight="bold" lengthAdjust="spacing" textLength="7" x="397" y="387.2588">8</text><text fill="#000000" font-family="sans-serif" font-size="13" lengthAdjust="spacing" textLength="47" x="408" y="387.2588">property</text><polygon fill="#181818" points="11,419.8125,1,423.8125,11,427.8125,7,423.8125" style="stroke:#181818;stroke-width:1.0;"/><line style="stroke:#181818;stroke-width:1.0;stroke-dasharray:2.0,2.0;" x1="5" x2="374" y1="423.8125" y2="423.8125"/><text fill="#000000" font-family="sans-serif" font-size="13" font-weight="bold" lengthAdjust="spacing" textLength="7" x="17" y="418.5498">9</text><text fill="#000000" font-family="sans-serif" font-size="13" lengthAdjust="spacing" textLength="47" x="28" y="418.5498">property</text><!--SRC=[bP71Ri8m38RlUOfefu7W1QffbmvfqmvK3EsqYqcyDg9D8iTbwjlFHRHKq0kt9Fx_xxVZT7G-0a6Zc-23gIWqg9bQL6ciH317AF6BknereM7mPJqLf0fi-7E-rBzG9rHAGyl1jyq1IIdHi3CkWcVzP87XmpEMvBZBApH7fEp7lyqyFsb8Ed_Vv9-RtGqbKeX8tEqmXkGuK2UCukxnJ2Xsyzw9uwBR5aglNuT8dUdK7Xh7WwhlyNbmVqFTObffi9OmoI598AwqgHrwNYWmx4x0U1rWm4f2qSCDeTG7-EDWcQkuqBR5SZaIXUIC641k4unrIVPcS1zouVJ4M0KE9K6if3p4xxk8rymU66YXnYH94UBOx7mx8Zf1xUpSUFUEioLJ5XyfN3up6_k-aQcNzNgoo3dLk9X_]--></g></svg>