<?xml version="1.0" encoding="us-ascii" standalone="no"?><svg xmlns="http://www.w3.org/2000/svg" xmlns:xlink="http://www.w3.org/1999/xlink" contentStyleType="text/css" height="490px" preserveAspectRatio="none" style="width:745px;height:490px;background:#FFFFFF;" version="1.1" viewBox="0 0 745 490" width="745px" zoomAndPan="magnify"><defs/><g><rect fill="#FFFFFF" height="301.6406" style="stroke:#181818;stroke-width:1.0;" width="10" x="44.5" y="90.6406"/><rect fill="#FFFFFF" height="110.6875" style="stroke:#181818;stroke-width:1.0;" width="10" x="375.5" y="111.1641"/><rect fill="#FFFFFF" height="141.9063" style="stroke:#181818;stroke-width:1.0;" width="10" x="375.5" y="250.375"/><rect fill="#FFFFFF" height="84.8594" style="stroke:#181818;stroke-width:1.0;" width="10" x="571.5" y="278.8984"/><line style="stroke:#181818;stroke-width:0.5;stroke-dasharray:5.0,5.0;" x1="49" x2="49" y1="80.6406" y2="410.2813"/><line style="stroke:#181818;stroke-width:0.5;stroke-dasharray:5.0,5.0;" x1="380" x2="380" y1="80.6406" y2="410.2813"/><line style="stroke:#181818;stroke-width:0.5;stroke-dasharray:5.0,5.0;" x1="576" x2="576" y1="149.4844" y2="410.2813"/><text fill="#000000" font-family="sans-serif" font-size="14" lengthAdjust="spacing" textLength="83" x="5" y="77.6738">Administrator</text><ellipse cx="49.5" cy="13.5" fill="#E3E3E3" rx="8" ry="8" style="stroke:#181818;stroke-width:0.5;"/><path d="M49.5,21.5 L49.5,48.5 M36.5,29.5 L62.5,29.5 M49.5,48.5 L36.5,63.5 M49.5,48.5 L62.5,63.5 " fill="none" style="stroke:#181818;stroke-width:0.5;"/><text fill="#000000" font-family="sans-serif" font-size="14" lengthAdjust="spacing" textLength="83" x="5" y="421.9551">Administrator</text><ellipse cx="49.5" cy="433.4219" fill="#E3E3E3" rx="8" ry="8" style="stroke:#181818;stroke-width:0.5;"/><path d="M49.5,441.4219 L49.5,468.4219 M36.5,449.4219 L62.5,449.4219 M49.5,468.4219 L36.5,483.4219 M49.5,468.4219 L62.5,483.4219 " fill="none" style="stroke:#181818;stroke-width:0.5;"/><rect fill="#E3E3E3" height="29.6406" rx="2.5" ry="2.5" style="stroke:#181818;stroke-width:0.5;" width="161" x="300" y="50"/><text fill="#000000" font-family="sans-serif" font-size="14" lengthAdjust="spacing" textLength="147" x="307" y="69.6738">:ImportLegacySystemUI</text><rect fill="#E3E3E3" height="29.6406" rx="2.5" ry="2.5" style="stroke:#181818;stroke-width:0.5;" width="161" x="300" y="409.2813"/><text fill="#000000" font-family="sans-serif" font-size="14" lengthAdjust="spacing" textLength="147" x="307" y="428.9551">:ImportLegacySystemUI</text><rect fill="#E3E3E3" height="29.6406" rx="2.5" ry="2.5" style="stroke:#181818;stroke-width:0.5;" width="211" x="471" y="409.2813"/><text fill="#000000" font-family="sans-serif" font-size="14" lengthAdjust="spacing" textLength="197" x="478" y="428.9551">:ImportLegacySystemController</text><rect fill="#FFFFFF" height="301.6406" style="stroke:#181818;stroke-width:1.0;" width="10" x="44.5" y="90.6406"/><rect fill="#FFFFFF" height="110.6875" style="stroke:#181818;stroke-width:1.0;" width="10" x="375.5" y="111.1641"/><rect fill="#FFFFFF" height="141.9063" style="stroke:#181818;stroke-width:1.0;" width="10" x="375.5" y="250.375"/><rect fill="#FFFFFF" height="84.8594" style="stroke:#181818;stroke-width:1.0;" width="10" x="571.5" y="278.8984"/><polygon fill="#181818" points="363.5,107.1641,373.5,111.1641,363.5,115.1641,367.5,111.1641" style="stroke:#181818;stroke-width:1.0;"/><line style="stroke:#181818;stroke-width:1.0;" x1="54.5" x2="369.5" y1="111.1641" y2="111.1641"/><text fill="#000000" font-family="sans-serif" font-size="13" font-weight="bold" lengthAdjust="spacing" textLength="7" x="61.5" y="106.4092">1</text><text fill="#000000" font-family="sans-serif" font-size="13" lengthAdjust="spacing" textLength="137" x="72.5" y="106.4092">asks to import a csv file</text><polygon fill="#181818" points="459,135.6875,469,139.6875,459,143.6875,463,139.6875" style="stroke:#181818;stroke-width:1.0;"/><line style="stroke:#181818;stroke-width:1.0;" x1="385.5" x2="465" y1="139.6875" y2="139.6875"/><text fill="#000000" font-family="sans-serif" font-size="13" font-weight="bold" lengthAdjust="spacing" textLength="7" x="392.5" y="134.9326">2</text><text fill="#000000" font-family="sans-serif" font-size="13" lengthAdjust="spacing" textLength="36" x="403.5" y="134.9326">create</text><rect fill="#E3E3E3" height="29.6406" rx="2.5" ry="2.5" style="stroke:#181818;stroke-width:0.5;" width="211" x="471" y="119.1641"/><text fill="#000000" font-family="sans-serif" font-size="14" lengthAdjust="spacing" textLength="197" x="478" y="138.8379">:ImportLegacySystemController</text><line style="stroke:#181818;stroke-width:1.0;stroke-dasharray:2.0,2.0;" x1="385.5" x2="427.5" y1="180.3281" y2="180.3281"/><line style="stroke:#181818;stroke-width:1.0;stroke-dasharray:2.0,2.0;" x1="427.5" x2="427.5" y1="180.3281" y2="193.3281"/><line style="stroke:#181818;stroke-width:1.0;stroke-dasharray:2.0,2.0;" x1="386.5" x2="427.5" y1="193.3281" y2="193.3281"/><polygon fill="#181818" points="396.5,189.3281,386.5,193.3281,396.5,197.3281,392.5,193.3281" style="stroke:#181818;stroke-width:1.0;"/><text fill="#000000" font-family="sans-serif" font-size="13" font-weight="bold" lengthAdjust="spacing" textLength="7" x="392.5" y="175.5732">3</text><text fill="#000000" font-family="sans-serif" font-size="13" lengthAdjust="spacing" textLength="77" x="403.5" y="175.5732">displayFiles()</text><polygon fill="#181818" points="65.5,217.8516,55.5,221.8516,65.5,225.8516,61.5,221.8516" style="stroke:#181818;stroke-width:1.0;"/><line style="stroke:#181818;stroke-width:1.0;stroke-dasharray:2.0,2.0;" x1="59.5" x2="379.5" y1="221.8516" y2="221.8516"/><text fill="#000000" font-family="sans-serif" font-size="13" font-weight="bold" lengthAdjust="spacing" textLength="7" x="71.5" y="217.0967">4</text><text fill="#000000" font-family="sans-serif" font-size="13" lengthAdjust="spacing" textLength="286" x="82.5" y="217.0967">show the list of all csv files in the resources folder</text><polygon fill="#181818" points="363.5,246.375,373.5,250.375,363.5,254.375,367.5,250.375" style="stroke:#181818;stroke-width:1.0;"/><line style="stroke:#181818;stroke-width:1.0;" x1="54.5" x2="369.5" y1="250.375" y2="250.375"/><text fill="#000000" font-family="sans-serif" font-size="13" font-weight="bold" lengthAdjust="spacing" textLength="7" x="61.5" y="245.6201">5</text><text fill="#000000" font-family="sans-serif" font-size="13" lengthAdjust="spacing" textLength="196" x="72.5" y="245.6201">choose an option to import the file</text><polygon fill="#181818" points="559.5,274.8984,569.5,278.8984,559.5,282.8984,563.5,278.8984" style="stroke:#181818;stroke-width:1.0;"/><line style="stroke:#181818;stroke-width:1.0;" x1="385.5" x2="565.5" y1="278.8984" y2="278.8984"/><text fill="#000000" font-family="sans-serif" font-size="13" font-weight="bold" lengthAdjust="spacing" textLength="7" x="392.5" y="274.1436">6</text><text fill="#000000" font-family="sans-serif" font-size="13" lengthAdjust="spacing" textLength="81" x="403.5" y="274.1436">importFile(file)</text><rect fill="none" height="51.3359" style="stroke:#000000;stroke-width:1.5;" width="271" x="468" y="286.8984"/><path d="M468,286.8984 L530,286.8984 L530,292.8984 L520,302.8984 L468,302.8984 L468,286.8984 " fill="#EEEEEE" style="stroke:#000000;stroke-width:2.0;"/><text fill="#000000" font-family="sans-serif" font-size="13" font-weight="bold" lengthAdjust="spacing" textLength="17" x="481" y="300.667">ref</text><text fill="#000000" font-family="sans-serif" font-size="12" lengthAdjust="spacing" textLength="263" x="472" y="317.7617">Legacy System Data Import and Entity Validation</text><text fill="#000000" font-family="sans-serif" font-size="12" lengthAdjust="spacing" textLength="3" x="602" y="331.168">&#160;</text><polygon fill="#181818" points="396.5,359.7578,386.5,363.7578,396.5,367.7578,392.5,363.7578" style="stroke:#181818;stroke-width:1.0;"/><line style="stroke:#181818;stroke-width:1.0;stroke-dasharray:2.0,2.0;" x1="390.5" x2="575.5" y1="363.7578" y2="363.7578"/><text fill="#000000" font-family="sans-serif" font-size="13" font-weight="bold" lengthAdjust="spacing" textLength="7" x="402.5" y="359.0029">7</text><text fill="#000000" font-family="sans-serif" font-size="13" lengthAdjust="spacing" textLength="90" x="413.5" y="359.0029">operationResult</text><polygon fill="#181818" points="60.5,388.2813,50.5,392.2813,60.5,396.2813,56.5,392.2813" style="stroke:#181818;stroke-width:1.0;"/><line style="stroke:#181818;stroke-width:1.0;stroke-dasharray:2.0,2.0;" x1="54.5" x2="379.5" y1="392.2813" y2="392.2813"/><text fill="#000000" font-family="sans-serif" font-size="13" font-weight="bold" lengthAdjust="spacing" textLength="7" x="66.5" y="387.5264">8</text><text fill="#000000" font-family="sans-serif" font-size="13" lengthAdjust="spacing" textLength="151" x="77.5" y="387.5264">display operation success</text><!--SRC=[XP7FJiCm3CRlUGfhbm7INc0793J-gDAuCCRTfEuQBOshn1tqxN7QKJg4HAKU4d_-FlkNT7IXnOWDD1pOrf4R0eaTcJHLMhH7FD1EUayGoGg6WvyBKeqbVxXmW0fz8cEm4mvTyqxHc6NjIeAAMTxvqw0LZh2uAniNN9A8Ubm09hYxVpRg9iww5eF0ObqqBKVPqW5jl-kJKBCl1kc- -5UvuI2HlQVHVFFwiZKvsvrGQCZI7rQtwWLhLHmJ28CRV031fXDKJdUSMZJJx0jjo5OtDzfa8sd1B2DLm2UAOyWIz7iYWQrk1rp1PlS6ZsgLp992gVYgR0Ihx-pIfTPZFqYkhgTQ7c-jOFa3f2RmPpVqVXekWGj3CLBYBbgzgDYNcNb95uFFTxKrSoB00DoAup3REtlzjJMSrzRkKPc7lShAwn_fYFWIHcOnlWgCpmBtA0Z56RFYU0ZYf8StzAx4F8un4wKXSkIqrc4f3e8NIfsN-OP3r0MsCzEV9aYTLJxfDvZPKJk_0000]--></g></svg>