<?xml version="1.0" encoding="us-ascii" standalone="no"?><svg xmlns="http://www.w3.org/2000/svg" xmlns:xlink="http://www.w3.org/1999/xlink" contentStyleType="text/css" height="968px" preserveAspectRatio="none" style="width:1070px;height:968px;background:#FFFFFF;" version="1.1" viewBox="0 0 1070 968" width="1070px" zoomAndPan="magnify"><defs/><g><text fill="#000000" font-family="sans-serif" font-size="14" font-weight="bold" lengthAdjust="spacing" textLength="1042" x="10" y="25.1074">Domain Model: US008 - As an agent, I intend to see the list of property announcement requests made to myself, so that I can post the announcement.</text><!--class Agent--><g id="elem_Agent"><rect codeLine="13" fill="#F1F1F1" height="36.6211" id="Agent" rx="2.5" ry="2.5" style="stroke:#181818;stroke-width:0.5;" width="43" x="198.75" y="524.6211"/><text fill="#000000" font-family="sans-serif" font-size="14" lengthAdjust="spacing" textLength="37" x="201.75" y="544.7285">Agent</text><line style="stroke:#181818;stroke-width:0.5;" x1="199.75" x2="240.75" y1="553.2422" y2="553.2422"/></g><!--class AnnouncementRequest--><g id="elem_AnnouncementRequest"><rect codeLine="18" fill="#F1F1F1" height="55.2422" id="AnnouncementRequest" rx="2.5" ry="2.5" style="stroke:#181818;stroke-width:0.5;" width="154" x="392.25" y="353.6211"/><text fill="#000000" font-family="sans-serif" font-size="14" lengthAdjust="spacing" textLength="148" x="395.25" y="373.7285">AnnouncementRequest</text><line style="stroke:#181818;stroke-width:0.5;" x1="393.25" x2="545.25" y1="382.2422" y2="382.2422"/><text fill="#000000" font-family="sans-serif" font-size="14" lengthAdjust="spacing" textLength="28" x="398.25" y="401.3496">date</text></g><!--class SaleAnnouncement--><g id="elem_SaleAnnouncement"><rect codeLine="24" fill="#F1F1F1" height="55.2422" id="SaleAnnouncement" rx="2.5" ry="2.5" style="stroke:#181818;stroke-width:0.5;" width="129" x="109.75" y="687.6211"/><text fill="#000000" font-family="sans-serif" font-size="14" lengthAdjust="spacing" textLength="123" x="112.75" y="707.7285">SaleAnnouncement</text><line style="stroke:#181818;stroke-width:0.5;" x1="110.75" x2="237.75" y1="716.2422" y2="716.2422"/><text fill="#000000" font-family="sans-serif" font-size="14" lengthAdjust="spacing" textLength="65" x="115.75" y="735.3496">listedPrice</text></g><!--class RentAnnouncement--><g id="elem_RentAnnouncement"><rect codeLine="29" fill="#F1F1F1" height="55.2422" id="RentAnnouncement" rx="2.5" ry="2.5" style="stroke:#181818;stroke-width:0.5;" width="131" x="273.75" y="687.6211"/><text fill="#000000" font-family="sans-serif" font-size="14" lengthAdjust="spacing" textLength="125" x="276.75" y="707.7285">RentAnnouncement</text><line style="stroke:#181818;stroke-width:0.5;" x1="274.75" x2="403.75" y1="716.2422" y2="716.2422"/><text fill="#000000" font-family="sans-serif" font-size="14" lengthAdjust="spacing" textLength="79" x="279.75" y="735.3496">rentDuration</text></g><!--class Announcement--><g id="elem_Announcement"><rect codeLine="33" fill="#F1F1F1" height="55.2422" id="Announcement" rx="2.5" ry="2.5" style="stroke:#181818;stroke-width:0.5;" width="101" x="288.75" y="515.6211"/><text fill="#000000" font-family="sans-serif" font-size="14" lengthAdjust="spacing" textLength="95" x="291.75" y="535.7285">Announcement</text><line style="stroke:#181818;stroke-width:0.5;" x1="289.75" x2="388.75" y1="544.2422" y2="544.2422"/><text fill="#000000" font-family="sans-serif" font-size="14" lengthAdjust="spacing" textLength="73" x="294.75" y="563.3496">commission</text></g><!--class Inhabitable--><g id="elem_Inhabitable"><rect codeLine="37" fill="#F1F1F1" height="111.1055" id="Inhabitable" rx="2.5" ry="2.5" style="stroke:#181818;stroke-width:0.5;" width="121" x="709.75" y="659.6211"/><text fill="#000000" font-family="sans-serif" font-size="14" lengthAdjust="spacing" textLength="69" x="735.75" y="679.7285">Inhabitable</text><line style="stroke:#181818;stroke-width:0.5;" x1="710.75" x2="829.75" y1="688.2422" y2="688.2422"/><text fill="#000000" font-family="sans-serif" font-size="14" lengthAdjust="spacing" textLength="105" x="715.75" y="707.3496">bedroomNumber</text><text fill="#000000" font-family="sans-serif" font-size="14" lengthAdjust="spacing" textLength="109" x="715.75" y="725.9707">bathroomNumber</text><text fill="#000000" font-family="sans-serif" font-size="14" lengthAdjust="spacing" textLength="94" x="715.75" y="744.5918">parkingSpaces</text><text fill="#000000" font-family="sans-serif" font-size="14" lengthAdjust="spacing" textLength="90" x="715.75" y="763.2129">hasEquipment</text></g><!--class House--><g id="elem_House"><rect codeLine="44" fill="#F1F1F1" height="92.4844" id="House" rx="2.5" ry="2.5" style="stroke:#181818;stroke-width:0.5;" width="98" x="721.25" y="850.6211"/><text fill="#000000" font-family="sans-serif" font-size="14" lengthAdjust="spacing" textLength="40" x="750.25" y="870.7285">House</text><line style="stroke:#181818;stroke-width:0.5;" x1="722.25" x2="818.25" y1="879.2422" y2="879.2422"/><text fill="#000000" font-family="sans-serif" font-size="14" lengthAdjust="spacing" textLength="86" x="727.25" y="898.3496">hasBasement</text><text fill="#000000" font-family="sans-serif" font-size="14" lengthAdjust="spacing" textLength="47" x="727.25" y="916.9707">hasLoft</text><text fill="#000000" font-family="sans-serif" font-size="14" lengthAdjust="spacing" textLength="82" x="727.25" y="935.5918">sunExposure</text></g><!--class Address--><g id="elem_Address"><rect codeLine="51" fill="#F1F1F1" height="92.4844" id="Address" rx="2.5" ry="2.5" style="stroke:#181818;stroke-width:0.5;" width="100" x="866.25" y="669.1211"/><text fill="#000000" font-family="sans-serif" font-size="14" lengthAdjust="spacing" textLength="52" x="890.25" y="689.2285">Address</text><line style="stroke:#181818;stroke-width:0.5;" x1="867.25" x2="965.25" y1="697.7422" y2="697.7422"/><text fill="#000000" font-family="sans-serif" font-size="14" lengthAdjust="spacing" textLength="88" x="872.25" y="716.8496">streetAddress</text><text fill="#000000" font-family="sans-serif" font-size="14" lengthAdjust="spacing" textLength="31" x="872.25" y="735.4707">state</text><text fill="#000000" font-family="sans-serif" font-size="14" lengthAdjust="spacing" textLength="51" x="872.25" y="754.0918">zipCode</text></g><!--class Store--><g id="elem_Store"><rect codeLine="58" fill="#F1F1F1" height="129.7266" id="Store" rx="2.5" ry="2.5" style="stroke:#181818;stroke-width:0.5;" width="101" x="407.75" y="831.6211"/><text fill="#000000" font-family="sans-serif" font-size="14" lengthAdjust="spacing" textLength="34" x="441.25" y="851.7285">Store</text><line style="stroke:#181818;stroke-width:0.5;" x1="408.75" x2="507.75" y1="860.2422" y2="860.2422"/><text fill="#000000" font-family="sans-serif" font-size="14" lengthAdjust="spacing" textLength="11" x="413.75" y="879.3496">id</text><text fill="#000000" font-family="sans-serif" font-size="14" lengthAdjust="spacing" textLength="73" x="413.75" y="897.9707">designation</text><text fill="#000000" font-family="sans-serif" font-size="14" lengthAdjust="spacing" textLength="51" x="413.75" y="916.5918">address</text><text fill="#000000" font-family="sans-serif" font-size="14" lengthAdjust="spacing" textLength="33" x="413.75" y="935.2129">email</text><text fill="#000000" font-family="sans-serif" font-size="14" lengthAdjust="spacing" textLength="89" x="413.75" y="953.834">phoneNumber</text></g><!--class BusinessType--><g id="elem_BusinessType"><rect codeLine="66" fill="#F1F1F1" height="55.2422" id="BusinessType" rx="2.5" ry="2.5" style="stroke:#181818;stroke-width:0.5;" width="95" x="463.75" y="515.6211"/><text fill="#000000" font-family="sans-serif" font-size="14" lengthAdjust="spacing" textLength="89" x="466.75" y="535.7285">BusinessType</text><line style="stroke:#181818;stroke-width:0.5;" x1="464.75" x2="557.75" y1="544.2422" y2="544.2422"/><text fill="#000000" font-family="sans-serif" font-size="14" lengthAdjust="spacing" textLength="69" x="469.75" y="563.3496">description</text></g><!--class PropertyType--><g id="elem_PropertyType"><rect codeLine="70" fill="#F1F1F1" height="55.2422" id="PropertyType" rx="2.5" ry="2.5" style="stroke:#181818;stroke-width:0.5;" width="92" x="511.25" y="687.6211"/><text fill="#000000" font-family="sans-serif" font-size="14" lengthAdjust="spacing" textLength="86" x="514.25" y="707.7285">PropertyType</text><line style="stroke:#181818;stroke-width:0.5;" x1="512.25" x2="602.25" y1="716.2422" y2="716.2422"/><text fill="#000000" font-family="sans-serif" font-size="14" lengthAdjust="spacing" textLength="69" x="517.25" y="735.3496">description</text></g><!--class Property--><g id="elem_Property"><rect codeLine="73" fill="#F1F1F1" height="111.1055" id="Property" rx="2.5" ry="2.5" style="stroke:#181818;stroke-width:0.5;" width="125" x="593.75" y="487.6211"/><text fill="#000000" font-family="sans-serif" font-size="14" lengthAdjust="spacing" textLength="54" x="629.25" y="507.7285">Property</text><line style="stroke:#181818;stroke-width:0.5;" x1="594.75" x2="717.75" y1="516.2422" y2="516.2422"/><text fill="#000000" font-family="sans-serif" font-size="14" lengthAdjust="spacing" textLength="31" x="599.75" y="535.3496">price</text><text fill="#000000" font-family="sans-serif" font-size="14" lengthAdjust="spacing" textLength="29" x="599.75" y="553.9707">area</text><text fill="#000000" font-family="sans-serif" font-size="14" lengthAdjust="spacing" textLength="51" x="599.75" y="572.5918">address</text><text fill="#000000" font-family="sans-serif" font-size="14" lengthAdjust="spacing" textLength="113" x="599.75" y="591.2129">distanceToCentre</text></g><!--class Employee--><g id="elem_Employee"><rect codeLine="80" fill="#F1F1F1" height="36.6211" id="Employee" rx="2.5" ry="2.5" style="stroke:#181818;stroke-width:0.5;" width="68" x="258.25" y="237.6211"/><text fill="#000000" font-family="sans-serif" font-size="14" lengthAdjust="spacing" textLength="62" x="261.25" y="257.7285">Employee</text><line style="stroke:#181818;stroke-width:0.5;" x1="259.25" x2="325.25" y1="266.2422" y2="266.2422"/></g><!--class Client--><g id="elem_Client"><rect codeLine="84" fill="#F1F1F1" height="36.6211" id="Client" rx="2.5" ry="2.5" style="stroke:#181818;stroke-width:0.5;" width="42" x="448.25" y="237.6211"/><text fill="#000000" font-family="sans-serif" font-size="14" lengthAdjust="spacing" textLength="36" x="451.25" y="257.7285">Client</text><line style="stroke:#181818;stroke-width:0.5;" x1="449.25" x2="489.25" y1="266.2422" y2="266.2422"/></g><!--class Photos--><g id="elem_Photos"><rect codeLine="88" fill="#F1F1F1" height="55.2422" id="Photos" rx="2.5" ry="2.5" style="stroke:#181818;stroke-width:0.5;" width="50" x="631.25" y="869.1211"/><text fill="#000000" font-family="sans-serif" font-size="14" lengthAdjust="spacing" textLength="44" x="634.25" y="889.2285">Photos</text><line style="stroke:#181818;stroke-width:0.5;" x1="632.25" x2="680.25" y1="897.7422" y2="897.7422"/><text fill="#000000" font-family="sans-serif" font-size="14" lengthAdjust="spacing" textLength="27" x="637.25" y="916.8496">URL</text></g><!--class Person--><g id="elem_Person"><rect codeLine="92" fill="#F1F1F1" height="129.7266" id="Person" rx="2.5" ry="2.5" style="stroke:#181818;stroke-width:0.5;" width="116" x="411.25" y="46.6211"/><text fill="#000000" font-family="sans-serif" font-size="14" lengthAdjust="spacing" textLength="45" x="446.75" y="66.7285">Person</text><line style="stroke:#181818;stroke-width:0.5;" x1="412.25" x2="526.25" y1="75.2422" y2="75.2422"/><text fill="#000000" font-family="sans-serif" font-size="14" lengthAdjust="spacing" textLength="33" x="417.25" y="94.3496">email</text><text fill="#000000" font-family="sans-serif" font-size="14" lengthAdjust="spacing" textLength="35" x="417.25" y="112.9707">name</text><text fill="#000000" font-family="sans-serif" font-size="14" lengthAdjust="spacing" textLength="104" x="417.25" y="131.5918">passportNumber</text><text fill="#000000" font-family="sans-serif" font-size="14" lengthAdjust="spacing" textLength="67" x="417.25" y="150.2129">taxNumber</text><text fill="#000000" font-family="sans-serif" font-size="14" lengthAdjust="spacing" textLength="89" x="417.25" y="168.834">phoneNumber</text></g><!--class Role--><g id="elem_Role"><rect codeLine="100" fill="#F1F1F1" height="73.8633" id="Role" rx="2.5" ry="2.5" style="stroke:#181818;stroke-width:0.5;" width="81" x="251.75" y="74.6211"/><text fill="#000000" font-family="sans-serif" font-size="14" lengthAdjust="spacing" textLength="29" x="277.75" y="94.7285">Role</text><line style="stroke:#181818;stroke-width:0.5;" x1="252.75" x2="331.75" y1="103.2422" y2="103.2422"/><text fill="#000000" font-family="sans-serif" font-size="14" lengthAdjust="spacing" textLength="11" x="257.75" y="122.3496">id</text><text fill="#000000" font-family="sans-serif" font-size="14" lengthAdjust="spacing" textLength="69" x="257.75" y="140.9707">description</text></g><!--link AnnouncementRequest to Agent--><g id="link_AnnouncementRequest_Agent"><path codeLine="108" d="M391.78,390.9011 C353.97,398.4611 309.76,412.5111 277.25,438.6211 C249.26,461.1011 232.9,501.2111 225.35,524.3411 " fill="none" id="AnnouncementRequest-Agent" style="stroke:#181818;stroke-width:1.0;"/><polygon fill="#000000" points="286.151,445.1389,277.2556,448.504,280.9325,453.0899,286.151,445.1389" style="stroke:#000000;stroke-width:1.0;"/><text fill="#000000" font-family="sans-serif" font-size="13" lengthAdjust="spacing" textLength="82" x="291.25" y="453.6494">intends to see</text><text fill="#000000" font-family="sans-serif" font-size="13" lengthAdjust="spacing" textLength="5" x="379.1579" y="388.0537">*</text><text fill="#000000" font-family="sans-serif" font-size="13" lengthAdjust="spacing" textLength="7" x="218.82" y="513.4543">1</text></g><!--link AnnouncementRequest to Announcement--><g id="link_AnnouncementRequest_Announcement"><path codeLine="109" d="M428.18,408.6311 C416.66,417.3011 404.7,427.5611 395.25,438.6211 C375.34,461.9111 359.53,493.4411 349.86,515.5611 " fill="none" id="AnnouncementRequest-Announcement" style="stroke:#181818;stroke-width:1.0;"/><polygon fill="#000000" points="397.2955,452.3003,405.0112,446.7398,400.2693,443.2666,397.2955,452.3003" style="stroke:#000000;stroke-width:1.0;"/><text fill="#000000" font-family="sans-serif" font-size="13" lengthAdjust="spacing" textLength="71" x="409.25" y="453.6494">can become</text><text fill="#000000" font-family="sans-serif" font-size="13" lengthAdjust="spacing" textLength="7" x="410.8732" y="430.9924">1</text><text fill="#000000" font-family="sans-serif" font-size="13" lengthAdjust="spacing" textLength="7" x="344.5042" y="504.2562">1</text></g><!--reverse link Announcement to SaleAnnouncement--><g id="link_Announcement_SaleAnnouncement"><path codeLine="110" d="M299.32,585.2611 C268.49,617.0311 226.72,660.0611 200.12,687.4611 " fill="none" id="Announcement-backto-SaleAnnouncement" style="stroke:#181818;stroke-width:1.0;"/><polygon fill="none" points="294.52,580.1611,313.47,570.6811,304.56,589.9111,294.52,580.1611" style="stroke:#181818;stroke-width:1.0;"/><text fill="#000000" font-family="sans-serif" font-size="13" lengthAdjust="spacing" textLength="7" x="299.699" y="593.0539">1</text><text fill="#000000" font-family="sans-serif" font-size="13" lengthAdjust="spacing" textLength="7" x="198.2931" y="676.1331">1</text></g><!--reverse link Announcement to RentAnnouncement--><g id="link_Announcement_RentAnnouncement"><path codeLine="111" d="M339.25,591.0011 C339.25,622.0611 339.25,661.6811 339.25,687.4611 " fill="none" id="Announcement-backto-RentAnnouncement" style="stroke:#181818;stroke-width:1.0;"/><polygon fill="none" points="332.25,590.6811,339.25,570.6811,346.25,590.6811,332.25,590.6811" style="stroke:#181818;stroke-width:1.0;"/><text fill="#000000" font-family="sans-serif" font-size="13" lengthAdjust="spacing" textLength="7" x="331.4406" y="593.0539">1</text><text fill="#000000" font-family="sans-serif" font-size="13" lengthAdjust="spacing" textLength="7" x="331.4406" y="676.1331">1</text></g><!--link AnnouncementRequest to BusinessType--><g id="link_AnnouncementRequest_BusinessType"><path codeLine="113" d="M479.54,408.9011 C482.9,418.2311 486.48,428.8111 489.25,438.6211 C495.14,459.4911 500.27,483.1311 504.1,502.5311 " fill="none" id="AnnouncementRequest-to-BusinessType" style="stroke:#181818;stroke-width:1.0;"/><polygon fill="none" points="506.59,515.5111,509.3916,508.8665,504.3356,503.7248,501.534,510.3694,506.59,515.5111" style="stroke:#181818;stroke-width:1.0;"/><text fill="#000000" font-family="sans-serif" font-size="13" lengthAdjust="spacing" textLength="5" x="476.2441" y="430.871">*</text><text fill="#000000" font-family="sans-serif" font-size="13" lengthAdjust="spacing" textLength="7" x="497.703" y="504.1946">1</text></g><!--link AnnouncementRequest to Property--><g id="link_AnnouncementRequest_Property"><path codeLine="117" d="M500.55,408.9011 C523.15,428.2411 554.62,455.1711 583.36,479.7611 " fill="none" id="AnnouncementRequest-to-Property" style="stroke:#181818;stroke-width:1.0;"/><polygon fill="none" points="593.4,488.3411,591.441,481.4012,584.2815,480.5403,586.2405,487.4802,593.4,488.3411" style="stroke:#181818;stroke-width:1.0;"/><text fill="#000000" font-family="sans-serif" font-size="13" lengthAdjust="spacing" textLength="7" x="499.6313" y="430.871">1</text><text fill="#000000" font-family="sans-serif" font-size="13" lengthAdjust="spacing" textLength="7" x="578.7283" y="478.0634">1</text></g><!--reverse link Inhabitable to House--><g id="link_Inhabitable_House"><path codeLine="119" d="M770.25,791.0411 C770.25,811.2311 770.25,832.4611 770.25,850.4711 " fill="none" id="Inhabitable-backto-House" style="stroke:#181818;stroke-width:1.0;"/><polygon fill="none" points="763.25,790.9511,770.25,770.9511,777.25,790.9511,763.25,790.9511" style="stroke:#181818;stroke-width:1.0;"/></g><!--reverse link Property to Inhabitable--><g id="link_Property_Inhabitable"><path codeLine="123" d="M704.24,615.6911 C714.07,630.3511 724.27,645.5511 733.62,659.5011 " fill="none" id="Property-backto-Inhabitable" style="stroke:#181818;stroke-width:1.0;"/><polygon fill="none" points="698.27,619.3511,692.95,598.8411,709.9,611.5611,698.27,619.3511" style="stroke:#181818;stroke-width:1.0;"/></g><!--reverse link Employee to Agent--><g id="link_Employee_Agent"><path codeLine="125" d="M282.8,294.5211 C267.12,356.6111 236.29,478.6211 224.75,524.3011 " fill="none" id="Employee-backto-Agent" style="stroke:#181818;stroke-width:1.0;"/><polygon fill="none" points="276.06,292.6211,287.75,274.9511,289.63,296.0511,276.06,292.6211" style="stroke:#181818;stroke-width:1.0;"/></g><!--reverse link Person to Client--><g id="link_Person_Client"><path codeLine="127" d="M469.25,196.8011 C469.25,212.1311 469.25,226.6411 469.25,237.3511 " fill="none" id="Person-backto-Client" style="stroke:#181818;stroke-width:1.0;"/><polygon fill="none" points="462.25,196.7811,469.25,176.7811,476.25,196.7811,462.25,196.7811" style="stroke:#181818;stroke-width:1.0;"/></g><!--reverse link Person to Employee--><g id="link_Person_Employee"><path codeLine="129" d="M394.94,172.4511 C365.85,195.8711 334.66,220.9811 314.38,237.3011 " fill="none" id="Person-backto-Employee" style="stroke:#181818;stroke-width:1.0;"/><polygon fill="none" points="390.83,166.7611,410.8,159.6711,399.61,177.6711,390.83,166.7611" style="stroke:#181818;stroke-width:1.0;"/></g><!--reverse link Role to Employee--><g id="link_Role_Employee"><path codeLine="131" d="M292.25,162.1411 C292.25,188.2911 292.25,218.7611 292.25,237.4911 " fill="none" id="Role-backto-Employee" style="stroke:#181818;stroke-width:1.0;"/><polygon fill="none" points="292.25,148.9511,288.25,154.9511,292.25,160.9511,296.25,154.9511,292.25,148.9511" style="stroke:#181818;stroke-width:1.0;"/><text fill="#000000" font-family="sans-serif" font-size="13" lengthAdjust="spacing" textLength="20" x="270.5938" y="170.6054">1..*</text><text fill="#000000" font-family="sans-serif" font-size="13" lengthAdjust="spacing" textLength="7" x="284.1781" y="226.3134">1</text></g><!--link Client to AnnouncementRequest--><g id="link_Client_AnnouncementRequest"><path codeLine="133" d="M469.25,274.7411 C469.25,295.3411 469.25,329.6211 469.25,353.4711 " fill="none" id="Client-AnnouncementRequest" style="stroke:#181818;stroke-width:1.0;"/><polygon fill="#000000" points="474.25,319.2666,477.1889,310.2215,471.3111,310.2215,474.25,319.2666" style="stroke:#000000;stroke-width:1.0;"/><text fill="#000000" font-family="sans-serif" font-size="13" lengthAdjust="spacing" textLength="43" x="483.25" y="319.6494">creates</text><text fill="#000000" font-family="sans-serif" font-size="13" lengthAdjust="spacing" textLength="7" x="461.3094" y="296.1479">1</text><text fill="#000000" font-family="sans-serif" font-size="13" lengthAdjust="spacing" textLength="5" x="463.6719" y="342.1454">*</text></g><!--link Property to Store--><g id="link_Property_Store"><path codeLine="137" d="M593.66,586.7811 C549.11,617.4211 496.56,654.2311 493.25,659.6211 C464.16,706.9811 455.95,769.5411 454.72,818.3511 " fill="none" id="Property-to-Store" style="stroke:#181818;stroke-width:1.0;"/><polygon fill="none" points="454.55,831.4011,458.6288,825.4544,454.7082,819.4021,450.6295,825.3489,454.55,831.4011" style="stroke:#181818;stroke-width:1.0;"/><text fill="#000000" font-family="sans-serif" font-size="13" lengthAdjust="spacing" textLength="7" x="578.6053" y="588.1058">1</text><text fill="#000000" font-family="sans-serif" font-size="13" lengthAdjust="spacing" textLength="7" x="446.7625" y="820.3972">1</text></g><!--link Property to Photos--><g id="link_Property_Photos"><path codeLine="139" d="M656.25,598.6611 C656.25,669.8311 656.25,792.7111 656.25,855.7611 " fill="none" id="Property-to-Photos" style="stroke:#181818;stroke-width:1.0;"/><polygon fill="none" points="656.25,868.9911,660.25,862.9911,656.25,856.9911,652.25,862.9911,656.25,868.9911" style="stroke:#181818;stroke-width:1.0;"/><text fill="#000000" font-family="sans-serif" font-size="13" lengthAdjust="spacing" textLength="29" x="623.8969" y="857.67">1..30</text></g><!--link Person to Address--><g id="link_Person_Address"><path codeLine="142" d="M527.35,119.9111 C642.84,136.0311 890.25,179.4011 890.25,255.1211 C890.25,255.1211 890.25,255.1211 890.25,544.1211 C890.25,581.6511 896.52,623.3011 902.9,655.9811 " fill="none" id="Person-to-Address" style="stroke:#181818;stroke-width:1.0;"/><polygon fill="none" points="905.52,668.9511,908.2469,662.2755,903.1337,657.1908,900.4067,663.8664,905.52,668.9511" style="stroke:#181818;stroke-width:1.0;"/><text fill="#000000" font-family="sans-serif" font-size="13" lengthAdjust="spacing" textLength="7" x="535.2425" y="116.9487">1</text><text fill="#000000" font-family="sans-serif" font-size="13" lengthAdjust="spacing" textLength="7" x="896.43" y="657.9356">1</text></g><!--link Property to Address--><g id="link_Property_Address"><path codeLine="143" d="M718.97,579.0011 C757.14,600.9211 806.44,630.4911 848.25,659.6211 C850.62,661.2711 853.01,662.9811 855.42,664.7311 " fill="none" id="Property-to-Address" style="stroke:#181818;stroke-width:1.0;"/><polygon fill="none" points="865.95,672.5911,863.5291,665.7985,856.3279,665.4207,858.7488,672.2132,865.95,672.5911" style="stroke:#181818;stroke-width:1.0;"/><text fill="#000000" font-family="sans-serif" font-size="13" lengthAdjust="spacing" textLength="7" x="726.6267" y="579.206">1</text><text fill="#000000" font-family="sans-serif" font-size="13" lengthAdjust="spacing" textLength="7" x="851.3844" y="662.4297">1</text></g><!--link Property to PropertyType--><g id="link_Property_PropertyType"><path codeLine="145" d="M624.38,598.8411 C609.65,624.1411 592.53,653.5411 579.26,676.3311 " fill="none" id="Property-to-PropertyType" style="stroke:#181818;stroke-width:1.0;"/><polygon fill="none" points="572.71,687.5811,579.1868,684.4108,578.7515,677.2129,572.2747,680.3831,572.71,687.5811" style="stroke:#181818;stroke-width:1.0;"/><text fill="#000000" font-family="sans-serif" font-size="13" lengthAdjust="spacing" textLength="5" x="615.1912" y="620.7075">*</text><text fill="#000000" font-family="sans-serif" font-size="13" lengthAdjust="spacing" textLength="7" x="568.4758" y="676.2808">1</text></g><!--SRC=[VLJRRjim37tdLn1v6L2qGOgz344n8Bq0Az0DHT9-W68piL1RT2KPQ-hrtqTPlYX5DZqOjdWEoSEBtOisjRAgmeeDPuNbYj3RXi2DbbfbBsfF6tye2IrbNfbzcG9SeNB-hSqUTwfq1F2bf9r7psZrll2Owy3IR20XPQLoRkMzrTl6qtt6PgFV2HVWjPSujrmfRV0dvrGkyNcpM7p32rmvL0Ob6UFFyHwryMJo4CYHf5qGbjfvv1tMbcko_Y1mmut9g1AA9F_QaFCEAvLJe5K7H-Nk71qBMtbncOd_ciL9y9QIvm255bQcRIRgk_UAVC6v0-Z4u2haXIt01unNYOTrZDv2hhmKAQ0YQADAIe4j11cKFrgTKU9iBRPZd9NdRMDLBEx7YQ0jP5nLshc062FUcq9jjLVRabhOKcwPgrzDjIKBM-MBv5EQ9ItRRsG8o46XtDrhe-lWUVBsWnidViHuhLmNDRm_yCw3QypTczIpiPG8NkMv9UTQSDuI-VuJK8xpeJZXxLtNDzBzj4wUhSJHEM1EJkzDrArwEid4b50NRAXFVcHUDquRmJmTQd4WvCpgsX-LvB6Vc5EGOqGBTTSOPKcDmNFfc9AQF_6DwBSqERwhwf8F94wd3jsKUXgLtdl1dgKap-k7v9AiOzFsqeogI1hYNCtMznAzUXiwTKhucijOiK-QvPmOJPoTpV3Y0cUNitwOb_sEkM79haxpBYTUkd3BRf-sb8NVolSZQWU- -jEpFg_0Vw2Vj-2aaYY40o7j_JzrNyvwzDXbW6H9C8QFanwS3AZ1a601Xev7uqKifN2wPlQCE07ZPNSty012soIR-LnaSAzxiaRkKFEpsQc_p1A_OoO3wcLhatmZAKhjrYcHqj_FvryNituSOKmm9GxxEr6ZzTYOMATc7AqPnFCN]--></g></svg>