<?xml version="1.0" encoding="us-ascii" standalone="no"?><svg xmlns="http://www.w3.org/2000/svg" xmlns:xlink="http://www.w3.org/1999/xlink" contentStyleType="text/css" height="1093px" preserveAspectRatio="none" style="width:619px;height:1093px;background:#FFFFFF;" version="1.1" viewBox="0 0 619 1093" width="619px" zoomAndPan="magnify"><defs/><g><!--class Agent--><g id="elem_Agent"><rect codeLine="15" fill="#F1F1F1" height="36.6211" id="Agent" rx="2.5" ry="2.5" style="stroke:#181818;stroke-width:0.5;" width="43" x="403.5" y="34.5"/><text fill="#000000" font-family="sans-serif" font-size="14" lengthAdjust="spacing" textLength="37" x="406.5" y="54.6074">Agent</text><line style="stroke:#181818;stroke-width:0.5;" x1="404.5" x2="445.5" y1="63.1211" y2="63.1211"/></g><!--class Store--><g id="elem_Store"><rect codeLine="22" fill="#F1F1F1" height="129.7266" id="Store" rx="2.5" ry="2.5" style="stroke:#181818;stroke-width:0.5;" width="101" x="287.5" y="576"/><text fill="#000000" font-family="sans-serif" font-size="14" lengthAdjust="spacing" textLength="34" x="321" y="596.1074">Store</text><line style="stroke:#181818;stroke-width:0.5;" x1="288.5" x2="387.5" y1="604.6211" y2="604.6211"/><text fill="#000000" font-family="sans-serif" font-size="14" lengthAdjust="spacing" textLength="11" x="293.5" y="623.7285">id</text><text fill="#000000" font-family="sans-serif" font-size="14" lengthAdjust="spacing" textLength="73" x="293.5" y="642.3496">designation</text><text fill="#000000" font-family="sans-serif" font-size="14" lengthAdjust="spacing" textLength="51" x="293.5" y="660.9707">address</text><text fill="#000000" font-family="sans-serif" font-size="14" lengthAdjust="spacing" textLength="33" x="293.5" y="679.5918">email</text><text fill="#000000" font-family="sans-serif" font-size="14" lengthAdjust="spacing" textLength="89" x="293.5" y="698.2129">phoneNumber</text></g><!--class Inhabitable--><g id="elem_Inhabitable"><rect codeLine="37" fill="#F1F1F1" height="111.1055" id="Inhabitable" rx="2.5" ry="2.5" style="stroke:#181818;stroke-width:0.5;" width="121" x="134.5" y="196.5"/><text fill="#000000" font-family="sans-serif" font-size="14" lengthAdjust="spacing" textLength="69" x="160.5" y="216.6074">Inhabitable</text><line style="stroke:#181818;stroke-width:0.5;" x1="135.5" x2="254.5" y1="225.1211" y2="225.1211"/><text fill="#000000" font-family="sans-serif" font-size="14" lengthAdjust="spacing" textLength="105" x="140.5" y="244.2285">bedroomNumber</text><text fill="#000000" font-family="sans-serif" font-size="14" lengthAdjust="spacing" textLength="109" x="140.5" y="262.8496">bathroomNumber</text><text fill="#000000" font-family="sans-serif" font-size="14" lengthAdjust="spacing" textLength="94" x="140.5" y="281.4707">parkingSpaces</text><text fill="#000000" font-family="sans-serif" font-size="14" lengthAdjust="spacing" textLength="90" x="140.5" y="300.0918">hasEquipment</text></g><!--class House--><g id="elem_House"><rect codeLine="44" fill="#F1F1F1" height="92.4844" id="House" rx="2.5" ry="2.5" style="stroke:#181818;stroke-width:0.5;" width="98" x="146" y="7"/><text fill="#000000" font-family="sans-serif" font-size="14" lengthAdjust="spacing" textLength="40" x="175" y="27.1074">House</text><line style="stroke:#181818;stroke-width:0.5;" x1="147" x2="243" y1="35.6211" y2="35.6211"/><text fill="#000000" font-family="sans-serif" font-size="14" lengthAdjust="spacing" textLength="86" x="152" y="54.7285">hasBasement</text><text fill="#000000" font-family="sans-serif" font-size="14" lengthAdjust="spacing" textLength="47" x="152" y="73.3496">hasLoft</text><text fill="#000000" font-family="sans-serif" font-size="14" lengthAdjust="spacing" textLength="82" x="152" y="91.9707">sunExposure</text></g><!--class Address--><g id="elem_Address"><rect codeLine="51" fill="#F1F1F1" height="92.4844" id="Address" rx="2.5" ry="2.5" style="stroke:#181818;stroke-width:0.5;" width="100" x="176" y="994"/><text fill="#000000" font-family="sans-serif" font-size="14" lengthAdjust="spacing" textLength="52" x="200" y="1014.1074">Address</text><line style="stroke:#181818;stroke-width:0.5;" x1="177" x2="275" y1="1022.6211" y2="1022.6211"/><text fill="#000000" font-family="sans-serif" font-size="14" lengthAdjust="spacing" textLength="88" x="182" y="1041.7285">streetAddress</text><text fill="#000000" font-family="sans-serif" font-size="14" lengthAdjust="spacing" textLength="31" x="182" y="1060.3496">state</text><text fill="#000000" font-family="sans-serif" font-size="14" lengthAdjust="spacing" textLength="51" x="182" y="1078.9707">zipCode</text></g><!--class PropertyType--><g id="elem_PropertyType"><rect codeLine="62" fill="#F1F1F1" height="55.2422" id="PropertyType" rx="2.5" ry="2.5" style="stroke:#181818;stroke-width:0.5;" width="92" x="7" y="224.5"/><text fill="#000000" font-family="sans-serif" font-size="14" lengthAdjust="spacing" textLength="86" x="10" y="244.6074">PropertyType</text><line style="stroke:#181818;stroke-width:0.5;" x1="8" x2="98" y1="253.1211" y2="253.1211"/><text fill="#000000" font-family="sans-serif" font-size="14" lengthAdjust="spacing" textLength="69" x="13" y="272.2285">description</text></g><!--class Property--><g id="elem_Property"><rect codeLine="65" fill="#F1F1F1" height="92.4844" id="Property" rx="2.5" ry="2.5" style="stroke:#181818;stroke-width:0.5;" width="125" x="133.5" y="405"/><text fill="#000000" font-family="sans-serif" font-size="14" lengthAdjust="spacing" textLength="54" x="169" y="425.1074">Property</text><line style="stroke:#181818;stroke-width:0.5;" x1="134.5" x2="257.5" y1="433.6211" y2="433.6211"/><text fill="#000000" font-family="sans-serif" font-size="14" lengthAdjust="spacing" textLength="31" x="139.5" y="452.7285">price</text><text fill="#000000" font-family="sans-serif" font-size="14" lengthAdjust="spacing" textLength="29" x="139.5" y="471.3496">area</text><text fill="#000000" font-family="sans-serif" font-size="14" lengthAdjust="spacing" textLength="113" x="139.5" y="489.9707">distanceToCentre</text></g><!--class Employee--><g id="elem_Employee"><rect codeLine="71" fill="#F1F1F1" height="36.6211" id="Employee" rx="2.5" ry="2.5" style="stroke:#181818;stroke-width:0.5;" width="68" x="444" y="432.5"/><text fill="#000000" font-family="sans-serif" font-size="14" lengthAdjust="spacing" textLength="62" x="447" y="452.6074">Employee</text><line style="stroke:#181818;stroke-width:0.5;" x1="445" x2="511" y1="461.1211" y2="461.1211"/></g><!--class Photographs--><g id="elem_Photographs"><rect codeLine="76" fill="#F1F1F1" height="55.2422" id="Photographs" rx="2.5" ry="2.5" style="stroke:#181818;stroke-width:0.5;" width="87" x="56.5" y="613.5"/><text fill="#000000" font-family="sans-serif" font-size="14" lengthAdjust="spacing" textLength="81" x="59.5" y="633.6074">Photographs</text><line style="stroke:#181818;stroke-width:0.5;" x1="57.5" x2="142.5" y1="642.1211" y2="642.1211"/><text fill="#000000" font-family="sans-serif" font-size="14" lengthAdjust="spacing" textLength="16" x="62.5" y="661.2285">uri</text></g><!--class Person--><g id="elem_Person"><rect codeLine="81" fill="#F1F1F1" height="129.7266" id="Person" rx="2.5" ry="2.5" style="stroke:#181818;stroke-width:0.5;" width="116" x="364" y="785"/><text fill="#000000" font-family="sans-serif" font-size="14" lengthAdjust="spacing" textLength="45" x="399.5" y="805.1074">Person</text><line style="stroke:#181818;stroke-width:0.5;" x1="365" x2="479" y1="813.6211" y2="813.6211"/><text fill="#000000" font-family="sans-serif" font-size="14" lengthAdjust="spacing" textLength="33" x="370" y="832.7285">email</text><text fill="#000000" font-family="sans-serif" font-size="14" lengthAdjust="spacing" textLength="35" x="370" y="851.3496">name</text><text fill="#000000" font-family="sans-serif" font-size="14" lengthAdjust="spacing" textLength="104" x="370" y="869.9707">passportNumber</text><text fill="#000000" font-family="sans-serif" font-size="14" lengthAdjust="spacing" textLength="67" x="370" y="888.5918">taxNumber</text><text fill="#000000" font-family="sans-serif" font-size="14" lengthAdjust="spacing" textLength="89" x="370" y="907.2129">phoneNumber</text></g><!--class VisitRequest--><g id="elem_VisitRequest"><rect codeLine="95" fill="#F1F1F1" height="148.3477" id="VisitRequest" rx="2.5" ry="2.5" style="stroke:#181818;stroke-width:0.5;" width="135" x="290.5" y="178"/><text fill="#000000" font-family="sans-serif" font-size="14" lengthAdjust="spacing" textLength="79" x="318.5" y="198.1074">VisitRequest</text><line style="stroke:#181818;stroke-width:0.5;" x1="291.5" x2="424.5" y1="206.6211" y2="206.6211"/><text fill="#000000" font-family="sans-serif" font-size="14" lengthAdjust="spacing" textLength="69" x="296.5" y="225.7285">clientName</text><text fill="#000000" font-family="sans-serif" font-size="14" lengthAdjust="spacing" textLength="123" x="296.5" y="244.3496">clientPhoneNumber</text><text fill="#000000" font-family="sans-serif" font-size="14" lengthAdjust="spacing" textLength="69" x="296.5" y="262.9707">clientReply</text><text fill="#000000" font-family="sans-serif" font-size="14" lengthAdjust="spacing" textLength="50" x="296.5" y="281.5918">timeSlot</text><text fill="#000000" font-family="sans-serif" font-size="14" lengthAdjust="spacing" textLength="89" x="296.5" y="300.2129">preferredDate</text><text fill="#000000" font-family="sans-serif" font-size="14" lengthAdjust="spacing" textLength="83" x="296.5" y="318.834">wasAccepted</text></g><!--class Role--><g id="elem_Role"><rect codeLine="104" fill="#F1F1F1" height="73.8633" id="Role" rx="2.5" ry="2.5" style="stroke:#181818;stroke-width:0.5;" width="81" x="531.5" y="604"/><text fill="#000000" font-family="sans-serif" font-size="14" lengthAdjust="spacing" textLength="29" x="557.5" y="624.1074">Role</text><line style="stroke:#181818;stroke-width:0.5;" x1="532.5" x2="611.5" y1="632.6211" y2="632.6211"/><text fill="#000000" font-family="sans-serif" font-size="14" lengthAdjust="spacing" textLength="11" x="537.5" y="651.7285">id</text><text fill="#000000" font-family="sans-serif" font-size="14" lengthAdjust="spacing" textLength="69" x="537.5" y="670.3496">description</text></g><!--link Agent to VisitRequest--><g id="link_Agent_VisitRequest"><path codeLine="110" d="M407.3,71.66 C394.27,85.86 377.42,107 369,129 C363.15,144.29 359.82,161.42 358.03,177.9 " fill="none" id="Agent-VisitRequest" style="stroke:#181818;stroke-width:1.0;"/><text fill="#000000" font-family="sans-serif" font-size="13" lengthAdjust="spacing" textLength="82" x="370" y="144.0283">intends to see</text><text fill="#000000" font-family="sans-serif" font-size="13" lengthAdjust="spacing" textLength="7" x="394.6025" y="93.0776">1</text><text fill="#000000" font-family="sans-serif" font-size="13" lengthAdjust="spacing" textLength="5" x="352.7869" y="166.7946">*</text></g><!--link Agent to Employee--><g id="link_Agent_Employee"><path codeLine="112" d="M434.53,71.6 C442.07,86.44 452.1,108.48 457,129 C480.91,229.19 481.27,351.63 479.6,412.26 " fill="none" id="Agent-to-Employee" style="stroke:#181818;stroke-width:1.0;"/><polygon fill="none" points="486.59,412.55,478.91,432.29,472.6,412.06,486.59,412.55" style="stroke:#181818;stroke-width:1.0;"/></g><!--link Employee to Person--><g id="link_Employee_Person"><path codeLine="114" d="M475.52,469.57 C468.37,520.25 447.37,669.16 433.9,764.66 " fill="none" id="Employee-to-Person" style="stroke:#181818;stroke-width:1.0;"/><polygon fill="none" points="440.79,765.93,431.06,784.76,426.92,763.97,440.79,765.93" style="stroke:#181818;stroke-width:1.0;"/></g><!--link VisitRequest to Property--><g id="link_VisitRequest_Property"><path codeLine="118" d="M297.91,326.08 C276.21,352.47 252.36,381.47 233.19,404.78 " fill="none" id="VisitRequest-Property" style="stroke:#181818;stroke-width:1.0;"/><polygon fill="#000000" points="274.8241,369.5074,282.8393,364.3879,278.2994,360.6545,274.8241,369.5074" style="stroke:#000000;stroke-width:1.0;"/><text fill="#000000" font-family="sans-serif" font-size="13" lengthAdjust="spacing" textLength="47" x="287" y="371.0283">refers to</text><text fill="#000000" font-family="sans-serif" font-size="13" lengthAdjust="spacing" textLength="5" x="286.4554" y="348.6215">*</text><text fill="#000000" font-family="sans-serif" font-size="13" lengthAdjust="spacing" textLength="7" x="231.1382" y="393.7571">1</text></g><!--link Inhabitable to Property--><g id="link_Inhabitable_Property"><path codeLine="119" d="M195.28,307.61 C195.4,331.54 195.54,359.82 195.67,384.84 " fill="none" id="Inhabitable-to-Property" style="stroke:#181818;stroke-width:1.0;"/><polygon fill="none" points="202.67,384.89,195.77,404.92,188.67,384.96,202.67,384.89" style="stroke:#181818;stroke-width:1.0;"/></g><!--link House to Inhabitable--><g id="link_House_Inhabitable"><path codeLine="120" d="M195,99.2 C195,121.96 195,150.17 195,176.06 " fill="none" id="House-to-Inhabitable" style="stroke:#181818;stroke-width:1.0;"/><polygon fill="none" points="202,176.19,195,196.19,188,176.19,202,176.19" style="stroke:#181818;stroke-width:1.0;"/></g><!--link Property to Store--><g id="link_Property_Store"><path codeLine="121" d="M230.01,497.03 C247.82,520.6 269.93,549.88 289.5,575.78 " fill="none" id="Property-Store" style="stroke:#181818;stroke-width:1.0;"/><polygon fill="#000000" points="275.0138,540.6351,271.9068,531.6464,267.2167,535.1894,275.0138,540.6351" style="stroke:#000000;stroke-width:1.0;"/><text fill="#000000" font-family="sans-serif" font-size="13" lengthAdjust="spacing" textLength="67" x="281" y="542.0283">listed under</text><text fill="#000000" font-family="sans-serif" font-size="13" lengthAdjust="spacing" textLength="5" x="229.835" y="519.3934">*</text><text fill="#000000" font-family="sans-serif" font-size="13" lengthAdjust="spacing" textLength="7" x="276.8125" y="564.7761">1</text></g><!--link Property to Address--><g id="link_Property_Address"><path codeLine="123" d="M198.3,497.09 C203.89,606.35 218.1,884.34 223.69,993.76 " fill="none" id="Property-Address" style="stroke:#181818;stroke-width:1.0;"/><polygon fill="#000000" points="217.2553,750.639,219.7286,741.4557,213.8584,741.7557,217.2553,750.639" style="stroke:#000000;stroke-width:1.0;"/><text fill="#000000" font-family="sans-serif" font-size="13" lengthAdjust="spacing" textLength="39" x="226" y="751.0283">has an</text><text fill="#000000" font-family="sans-serif" font-size="13" lengthAdjust="spacing" textLength="7" x="191.1163" y="519.4626">1</text><text fill="#000000" font-family="sans-serif" font-size="13" lengthAdjust="spacing" textLength="7" x="215.8367" y="982.7342">1</text></g><!--link PropertyType to Property--><g id="link_PropertyType_Property"><path codeLine="126" d="M58.59,279.81 C65.04,306.01 77.6,346.06 99,375 C108.49,387.84 120.75,399.59 133.33,409.79 " fill="none" id="PropertyType-Property" style="stroke:#181818;stroke-width:1.0;"/><polygon fill="#000000" points="101.5076,361.311,103.4686,370.6172,108.5641,367.6872,101.5076,361.311" style="stroke:#000000;stroke-width:1.0;"/><text fill="#000000" font-family="sans-serif" font-size="13" lengthAdjust="spacing" textLength="74" x="113" y="371.0283">cataloged as</text><text fill="#000000" font-family="sans-serif" font-size="13" lengthAdjust="spacing" textLength="7" x="52.0472" y="301.7865">1</text><text fill="#000000" font-family="sans-serif" font-size="13" lengthAdjust="spacing" textLength="5" x="120.3874" y="400.7481">*</text></g><!--link Property to Photographs--><g id="link_Property_Photographs"><path codeLine="127" d="M154.66,497.25 C147.42,506.64 140.47,516.79 135,527 C120.17,554.7 110.56,589.65 105.24,613.3 " fill="none" id="Property-Photographs" style="stroke:#181818;stroke-width:1.0;"/><polygon fill="#000000" points="138.041,541.2458,144.2888,534.0753,138.8809,531.7723,138.041,541.2458" style="stroke:#000000;stroke-width:1.0;"/><text fill="#000000" font-family="sans-serif" font-size="13" lengthAdjust="spacing" textLength="21" x="149" y="542.0283">has</text><text fill="#000000" font-family="sans-serif" font-size="13" lengthAdjust="spacing" textLength="29" x="74.2144" y="602.4149">1..30</text></g><!--link Person to Address--><g id="link_Person_Address"><path codeLine="129" d="M363.99,906.64 C334.98,934.47 300.32,967.71 273,993.92 " fill="none" id="Person-Address" style="stroke:#181818;stroke-width:1.0;"/><polygon fill="#000000" points="325.3917,958.1067,333.9536,953.9663,329.8848,949.7244,325.3917,958.1067" style="stroke:#000000;stroke-width:1.0;"/><text fill="#000000" font-family="sans-serif" font-size="13" lengthAdjust="spacing" textLength="39" x="338" y="960.0283">has an</text><text fill="#000000" font-family="sans-serif" font-size="13" lengthAdjust="spacing" textLength="7" x="349.109" y="909.8724">1</text><text fill="#000000" font-family="sans-serif" font-size="13" lengthAdjust="spacing" textLength="7" x="272.6609" y="982.576">1</text></g><!--link Employee to Store--><g id="link_Employee_Store"><path codeLine="130" d="M443.57,469.26 C420.84,482.28 392.03,502.13 374,527 C363.55,541.42 356.05,559 350.7,575.95 " fill="none" id="Employee-Store" style="stroke:#181818;stroke-width:1.0;"/><polygon fill="#000000" points="375.7172,540.4169,383.8726,535.524,379.4391,531.6648,375.7172,540.4169" style="stroke:#000000;stroke-width:1.0;"/><text fill="#000000" font-family="sans-serif" font-size="13" lengthAdjust="spacing" textLength="63" x="388" y="542.0283">works on a</text><text fill="#000000" font-family="sans-serif" font-size="13" lengthAdjust="spacing" textLength="5" x="430.9532" y="468.3704">*</text><text fill="#000000" font-family="sans-serif" font-size="13" lengthAdjust="spacing" textLength="7" x="344.7063" y="564.9647">1</text></g><!--link Employee to Role--><g id="link_Employee_Role"><path codeLine="131" d="M486.84,469.69 C502.15,500.31 533.89,563.77 553.99,603.99 " fill="none" id="Employee-Role" style="stroke:#181818;stroke-width:1.0;"/><polygon fill="#000000" points="532.2361,541.1176,530.8196,531.7131,525.5623,534.3418,532.2361,541.1176" style="stroke:#000000;stroke-width:1.0;"/><text fill="#000000" font-family="sans-serif" font-size="13" lengthAdjust="spacing" textLength="21" x="539" y="542.0283">has</text><text fill="#000000" font-family="sans-serif" font-size="13" lengthAdjust="spacing" textLength="7" x="481.2751" y="491.1157">1</text><text fill="#000000" font-family="sans-serif" font-size="13" lengthAdjust="spacing" textLength="20" x="528.8257" y="592.6668">1..*</text></g><!--SRC=[RLDTQnin47pVNo7yKYZO9FJDb82R1Xee8SIXxxAqlXEvqohI7edZvhztfRkprRJtOFGnEpipMgSdvuEEkbSzUJ9jf1uLnm4XdMw2Da-wmIqVEbGH3MlVT3KWjThIY_EDskik8G1ywd3FYab5rxIihCjbZZnKLQRJAMsOeziDZBU6_DQzeRgGyjPPLCP58stAkaTkoIQ0KgGs3NfMHu1toDzuk6MAU0HdmM9oZTUbeROsOag0lNOTX9OytWtz3kDSVAg_zQtUETQxJbXsQ2DHFq5tcjjgA_h5HRELO311gzFDy-12BveovyZsWuOaF7BvJISiTxB-INk6DFYRrq1fY0ZdWiqez0Y98o9FMzbfHdXpuPeidZIF9VUH0aO-F1w2j1BN9hfGNBz_G1mXH6SGT4GDrWcfD_X8ro9BH9mqtFIXemCAMINilYMc9khGYhWXkg9XkiAOo1-dSBtkKR99AL3aAIhMhtDeLVGVal_bakC7V1umyL7EdCYwosJZyhwg74yUC7G7ODVZjYCMRxZ76D5-prczwBGn1WEZFPjueFogIeP3rJbbG1ccnUL2BPUBpuk_nAoLyupUfZpA2N422tBv- -gK5i2ycYx6MBA_canbzkLIvLRpkwnLaLxuhw2QG3KIJJ0eqpIULI2OxslgyZTOgquU6QqQlCKer2VeP5H-fmbRAvbBfNq6GJrHQeGMxhDUerbtr0YrL7qzAoZTLwil5ujwO4RotBv4CZDUBlvjFcTujZ8vUQ7ub1HvfMlKP6Er4dX-t96fcFZVzmS0]--></g></svg>