<?xml version="1.0" encoding="us-ascii" standalone="no"?><svg xmlns="http://www.w3.org/2000/svg" xmlns:xlink="http://www.w3.org/1999/xlink" contentStyleType="text/css" height="509px" preserveAspectRatio="none" style="width:768px;height:509px;background:#FFFFFF;" version="1.1" viewBox="0 0 768 509" width="768px" zoomAndPan="magnify"><defs/><g><text fill="#000000" font-family="sans-serif" font-size="14" font-weight="bold" lengthAdjust="spacing" textLength="228" x="271.75" y="30.1074">System Sequence Diagram (SSD)</text><rect fill="#FFFFFF" height="284.6191" style="stroke:#181818;stroke-width:1.0;" width="10" x="59.5" y="133.2422"/><rect fill="#FFFFFF" height="57.582" style="stroke:#181818;stroke-width:1.0;" width="10" x="715.5" y="156.5332"/><rect fill="#FFFFFF" height="38.291" style="stroke:#181818;stroke-width:1.0;" width="10" x="715.5" y="245.4063"/><rect fill="#FFFFFF" height="31.291" style="stroke:#181818;stroke-width:1.0;" width="10" x="715.5" y="314.9883"/><rect fill="#FFFFFF" height="31.291" style="stroke:#181818;stroke-width:1.0;" width="10" x="715.5" y="377.5703"/><rect fill="none" height="81.873" style="stroke:#000000;stroke-width:1.5;" width="752.5" x="10" y="171.5332"/><line style="stroke:#181818;stroke-width:0.5;stroke-dasharray:5.0,5.0;" x1="64" x2="64" y1="123.2422" y2="426.8613"/><line style="stroke:#181818;stroke-width:0.5;stroke-dasharray:5.0,5.0;" x1="720.5" x2="720.5" y1="123.2422" y2="426.8613"/><text fill="#000000" font-family="sans-serif" font-size="14" lengthAdjust="spacing" textLength="83" x="20" y="119.7285">Administrator</text><ellipse cx="64.5" cy="53.1211" fill="#E3E3E3" rx="8" ry="8" style="stroke:#181818;stroke-width:0.5;"/><path d="M64.5,61.1211 L64.5,88.1211 M51.5,69.1211 L77.5,69.1211 M64.5,88.1211 L51.5,103.1211 M64.5,88.1211 L77.5,103.1211 " fill="none" style="stroke:#181818;stroke-width:0.5;"/><text fill="#000000" font-family="sans-serif" font-size="14" lengthAdjust="spacing" textLength="83" x="20" y="440.9688">Administrator</text><ellipse cx="64.5" cy="452.9824" fill="#E3E3E3" rx="8" ry="8" style="stroke:#181818;stroke-width:0.5;"/><path d="M64.5,460.9824 L64.5,487.9824 M51.5,468.9824 L77.5,468.9824 M64.5,487.9824 L51.5,502.9824 M64.5,487.9824 L77.5,502.9824 " fill="none" style="stroke:#181818;stroke-width:0.5;"/><rect fill="#E3E3E3" height="32.6211" rx="2.5" ry="2.5" style="stroke:#181818;stroke-width:0.5;" width="64" x="688.5" y="89.6211"/><text fill="#000000" font-family="sans-serif" font-size="14" lengthAdjust="spacing" textLength="50" x="695.5" y="111.7285">:System</text><rect fill="#E3E3E3" height="32.6211" rx="2.5" ry="2.5" style="stroke:#181818;stroke-width:0.5;" width="64" x="688.5" y="425.8613"/><text fill="#000000" font-family="sans-serif" font-size="14" lengthAdjust="spacing" textLength="50" x="695.5" y="447.9688">:System</text><rect fill="#FFFFFF" height="284.6191" style="stroke:#181818;stroke-width:1.0;" width="10" x="59.5" y="133.2422"/><rect fill="#FFFFFF" height="57.582" style="stroke:#181818;stroke-width:1.0;" width="10" x="715.5" y="156.5332"/><rect fill="#FFFFFF" height="38.291" style="stroke:#181818;stroke-width:1.0;" width="10" x="715.5" y="245.4063"/><rect fill="#FFFFFF" height="31.291" style="stroke:#181818;stroke-width:1.0;" width="10" x="715.5" y="314.9883"/><rect fill="#FFFFFF" height="31.291" style="stroke:#181818;stroke-width:1.0;" width="10" x="715.5" y="377.5703"/><polygon fill="#181818" points="703.5,152.5332,713.5,156.5332,703.5,160.5332,707.5,156.5332" style="stroke:#181818;stroke-width:1.0;"/><line style="stroke:#181818;stroke-width:1.0;" x1="69.5" x2="709.5" y1="156.5332" y2="156.5332"/><text fill="#000000" font-family="sans-serif" font-size="13" font-weight="bold" lengthAdjust="spacing" textLength="7" x="76.5" y="151.2705">1</text><text fill="#000000" font-family="sans-serif" font-size="13" lengthAdjust="spacing" textLength="188" x="87.5" y="151.2705">asks to register a new employee</text><path d="M10,171.5332 L83,171.5332 L83,180.8242 L73,190.8242 L10,190.8242 L10,171.5332 " fill="#EEEEEE" style="stroke:#000000;stroke-width:1.5;"/><rect fill="none" height="81.873" style="stroke:#000000;stroke-width:1.5;" width="752.5" x="10" y="171.5332"/><text fill="#000000" font-family="sans-serif" font-size="13" font-weight="bold" lengthAdjust="spacing" textLength="28" x="25" y="186.5615">loop</text><text fill="#000000" font-family="sans-serif" font-size="11" font-weight="bold" lengthAdjust="spacing" textLength="528" x="98" y="185.4033">[until there are no more roles to assign or the administrator decides not to provide more roles]</text><polygon fill="#181818" points="80.5,210.1152,70.5,214.1152,80.5,218.1152,76.5,214.1152" style="stroke:#181818;stroke-width:1.0;"/><line style="stroke:#181818;stroke-width:1.0;stroke-dasharray:2.0,2.0;" x1="74.5" x2="719.5" y1="214.1152" y2="214.1152"/><text fill="#000000" font-family="sans-serif" font-size="13" font-weight="bold" lengthAdjust="spacing" textLength="7" x="86.5" y="208.8525">2</text><text fill="#000000" font-family="sans-serif" font-size="13" lengthAdjust="spacing" textLength="172" x="97.5" y="208.8525">show the list of available roles</text><polygon fill="#181818" points="703.5,241.4063,713.5,245.4063,703.5,249.4063,707.5,245.4063" style="stroke:#181818;stroke-width:1.0;"/><line style="stroke:#181818;stroke-width:1.0;" x1="69.5" x2="709.5" y1="245.4063" y2="245.4063"/><text fill="#000000" font-family="sans-serif" font-size="13" font-weight="bold" lengthAdjust="spacing" textLength="7" x="76.5" y="240.1436">3</text><text fill="#000000" font-family="sans-serif" font-size="13" lengthAdjust="spacing" textLength="240" x="87.5" y="240.1436">select one or more roles for the employee</text><polygon fill="#181818" points="80.5,279.6973,70.5,283.6973,80.5,287.6973,76.5,283.6973" style="stroke:#181818;stroke-width:1.0;"/><line style="stroke:#181818;stroke-width:1.0;stroke-dasharray:2.0,2.0;" x1="74.5" x2="719.5" y1="283.6973" y2="283.6973"/><text fill="#000000" font-family="sans-serif" font-size="13" font-weight="bold" lengthAdjust="spacing" textLength="7" x="86.5" y="278.4346">4</text><text fill="#000000" font-family="sans-serif" font-size="13" lengthAdjust="spacing" textLength="224" x="97.5" y="278.4346">show a list of stores for the user select</text><polygon fill="#181818" points="703.5,310.9883,713.5,314.9883,703.5,318.9883,707.5,314.9883" style="stroke:#181818;stroke-width:1.0;"/><line style="stroke:#181818;stroke-width:1.0;" x1="69.5" x2="709.5" y1="314.9883" y2="314.9883"/><text fill="#000000" font-family="sans-serif" font-size="13" font-weight="bold" lengthAdjust="spacing" textLength="7" x="76.5" y="309.7256">5</text><text fill="#000000" font-family="sans-serif" font-size="13" lengthAdjust="spacing" textLength="230" x="87.5" y="309.7256">select the store to situate the employee</text><polygon fill="#181818" points="80.5,342.2793,70.5,346.2793,80.5,350.2793,76.5,346.2793" style="stroke:#181818;stroke-width:1.0;"/><line style="stroke:#181818;stroke-width:1.0;stroke-dasharray:2.0,2.0;" x1="74.5" x2="719.5" y1="346.2793" y2="346.2793"/><text fill="#000000" font-family="sans-serif" font-size="13" font-weight="bold" lengthAdjust="spacing" textLength="7" x="86.5" y="341.0166">6</text><text fill="#000000" font-family="sans-serif" font-size="13" lengthAdjust="spacing" textLength="611" x="97.5" y="341.0166">request data to register a new employee (name,email,passportNumber,taxNumber,address,phoneNumber)</text><polygon fill="#181818" points="703.5,373.5703,713.5,377.5703,703.5,381.5703,707.5,377.5703" style="stroke:#181818;stroke-width:1.0;"/><line style="stroke:#181818;stroke-width:1.0;" x1="69.5" x2="709.5" y1="377.5703" y2="377.5703"/><text fill="#000000" font-family="sans-serif" font-size="13" font-weight="bold" lengthAdjust="spacing" textLength="7" x="76.5" y="372.3076">7</text><text fill="#000000" font-family="sans-serif" font-size="13" lengthAdjust="spacing" textLength="191" x="87.5" y="372.3076">submit data of the new employee</text><polygon fill="#181818" points="80.5,404.8613,70.5,408.8613,80.5,412.8613,76.5,408.8613" style="stroke:#181818;stroke-width:1.0;"/><line style="stroke:#181818;stroke-width:1.0;stroke-dasharray:2.0,2.0;" x1="74.5" x2="719.5" y1="408.8613" y2="408.8613"/><text fill="#000000" font-family="sans-serif" font-size="13" font-weight="bold" lengthAdjust="spacing" textLength="7" x="86.5" y="403.5986">8</text><text fill="#000000" font-family="sans-serif" font-size="13" lengthAdjust="spacing" textLength="158" x="97.5" y="403.5986">displays operation success</text><!--SRC=[dLJ1Zk8m3BttAomkp4ZCVW27aKQQorxsmXUOn9I89Ex4AIn_FquA5MLPG1C9aRhEizzxRcJdOeS90mIERBQ90q5EFJKolkdGxB2bLJvwWaGcOspzPO9iqVB1nHOsw8KQNVFiicP_2238KJ85-B31HISvOUQqWDzmm9WXiqAs6gQagP4EGA7pV2JwrGmOg-7uYhvwYeRWqs5RghwiLf-lJODzvjY7DINT6uM6sQJI352cjHljEZlZkb9_jXpmQzgmhJXkZvckpZMWQnA2j_TpVqi5sCaTFlNqY7mkLOAUkOC-PkSXRoaHeFuYgoNwdzXJXKKHrqRGefe4E6d3ad5Mqo9NHRl4Uts-01WAbNLgzqqxdr9PgezygE1UWy0Rm3qwZsj_1YddBTtaS5yQ8Qzp0nofz7_1QtEYCn7fbb0bHj4-JGD74gBHYqgzg3D3F_VuFEHIi2fq4LnSxWl2KrJ65mzuf3Bnoi5YnZjp1IyH0oqeg5UBJgUauvJ_r2zYaV7lQOVMgWgowBPgmX1x7HlvcQVzEhXJTofpeVxFkD-aFuSd1QWVLF7DSDou530xZaM9NLI7tL2prdUYEQdSJLVe_oKudoO-f7dPmlJeJ-srJZgFHm7kA0tKf3T6JRgI2AE5SikLuWQzF-e8HbjkrkBsWPCjcXGjpXD2ThHXBb0duuxNtm00]--></g></svg>