<?xml version="1.0" encoding="us-ascii" standalone="no"?><svg xmlns="http://www.w3.org/2000/svg" xmlns:xlink="http://www.w3.org/1999/xlink" contentStyleType="text/css" height="752px" preserveAspectRatio="none" style="width:946px;height:752px;background:#FFFFFF;" version="1.1" viewBox="0 0 946 752" width="946px" zoomAndPan="magnify"><defs><filter height="300%" id="fs3w6iaee4c91" width="300%" x="-1" y="-1"><feGaussianBlur result="blurOut" stdDeviation="2.0"/><feColorMatrix in="blurOut" result="blurOut2" type="matrix" values="0 0 0 0 0 0 0 0 0 0 0 0 0 0 0 0 0 0 .4 0"/><feOffset dx="4.0" dy="4.0" in="blurOut2" result="blurOut3"/><feBlend in="SourceGraphic" in2="blurOut3" mode="normal"/></filter></defs><g><!--class Store--><g id="elem_Store"><rect codeLine="17" fill="#F1F1F1" filter="url(#fs3w6iaee4c91)" height="110.5625" id="Store" rx="2.5" ry="2.5" style="stroke:#181818;stroke-width:0.5;" width="154" x="402" y="442.5"/><ellipse cx="457.75" cy="458.5" fill="#ADD1B2" rx="11" ry="11" style="stroke:#181818;stroke-width:1.0;"/><path d="M460.5156,454.375 Q460.6719,454.1563 460.8594,454.0469 Q461.0469,453.9375 461.2656,453.9375 Q461.6406,453.9375 461.875,454.2031 Q462.1094,454.4531 462.1094,455.0625 L462.1094,456.5156 Q462.1094,457.125 461.875,457.3906 Q461.6406,457.6563 461.2656,457.6563 Q460.9219,457.6563 460.7188,457.4531 Q460.5156,457.2656 460.4063,456.75 Q460.3594,456.3906 460.1719,456.2031 Q459.8438,455.8281 459.2344,455.6094 Q458.625,455.3906 458,455.3906 Q457.2344,455.3906 456.5938,455.7188 Q455.9688,456.0469 455.4688,456.7969 Q454.9844,457.5469 454.9844,458.5781 L454.9844,459.6719 Q454.9844,460.9063 455.875,461.7344 Q456.7656,462.5469 458.3594,462.5469 Q459.2969,462.5469 459.9531,462.2969 Q460.3438,462.1406 460.7656,461.7031 Q461.0313,461.4375 461.1719,461.3594 Q461.3281,461.2813 461.5313,461.2813 Q461.8594,461.2813 462.1094,461.5469 Q462.375,461.7969 462.375,462.1406 Q462.375,462.4844 462.0313,462.8906 Q461.5313,463.4688 460.7344,463.7969 Q459.6563,464.25 458.3594,464.25 Q456.8438,464.25 455.6406,463.625 Q454.6563,463.125 453.9688,462.0625 Q453.2813,460.9844 453.2813,459.7031 L453.2813,458.5469 Q453.2813,457.2188 453.8906,456.0781 Q454.5156,454.9219 455.6094,454.3125 Q456.7031,453.6875 457.9375,453.6875 Q458.6719,453.6875 459.3125,453.8594 Q459.9688,454.0156 460.5156,454.375 Z " fill="#000000"/><text fill="#000000" font-family="sans-serif" font-size="14" lengthAdjust="spacing" textLength="34" x="478.25" y="463.3535">Store</text><line style="stroke:#181818;stroke-width:0.5;" x1="403" x2="555" y1="474.5" y2="474.5"/><text fill="#000000" font-family="sans-serif" font-size="14" lengthAdjust="spacing" textLength="64" x="408" y="491.1738">-Integer id</text><text fill="#000000" font-family="sans-serif" font-size="14" lengthAdjust="spacing" textLength="119" x="408" y="506.8145">-String designation</text><text fill="#000000" font-family="sans-serif" font-size="14" lengthAdjust="spacing" textLength="79" x="408" y="522.4551">-String email</text><text fill="#000000" font-family="sans-serif" font-size="14" lengthAdjust="spacing" textLength="142" x="408" y="538.0957">-Integer phoneNumber</text><line style="stroke:#181818;stroke-width:0.5;" x1="403" x2="555" y1="545.0625" y2="545.0625"/></g><!--class Employee--><g id="elem_Employee"><rect codeLine="24" fill="#F1F1F1" filter="url(#fs3w6iaee4c91)" height="141.8438" id="Employee" rx="2.5" ry="2.5" style="stroke:#181818;stroke-width:0.5;" width="169" x="197.5" y="427"/><ellipse cx="246.75" cy="443" fill="#ADD1B2" rx="11" ry="11" style="stroke:#181818;stroke-width:1.0;"/><path d="M249.5156,438.875 Q249.6719,438.6563 249.8594,438.5469 Q250.0469,438.4375 250.2656,438.4375 Q250.6406,438.4375 250.875,438.7031 Q251.1094,438.9531 251.1094,439.5625 L251.1094,441.0156 Q251.1094,441.625 250.875,441.8906 Q250.6406,442.1563 250.2656,442.1563 Q249.9219,442.1563 249.7188,441.9531 Q249.5156,441.7656 249.4063,441.25 Q249.3594,440.8906 249.1719,440.7031 Q248.8438,440.3281 248.2344,440.1094 Q247.625,439.8906 247,439.8906 Q246.2344,439.8906 245.5938,440.2188 Q244.9688,440.5469 244.4688,441.2969 Q243.9844,442.0469 243.9844,443.0781 L243.9844,444.1719 Q243.9844,445.4063 244.875,446.2344 Q245.7656,447.0469 247.3594,447.0469 Q248.2969,447.0469 248.9531,446.7969 Q249.3438,446.6406 249.7656,446.2031 Q250.0313,445.9375 250.1719,445.8594 Q250.3281,445.7813 250.5313,445.7813 Q250.8594,445.7813 251.1094,446.0469 Q251.375,446.2969 251.375,446.6406 Q251.375,446.9844 251.0313,447.3906 Q250.5313,447.9688 249.7344,448.2969 Q248.6563,448.75 247.3594,448.75 Q245.8438,448.75 244.6406,448.125 Q243.6563,447.625 242.9688,446.5625 Q242.2813,445.4844 242.2813,444.2031 L242.2813,443.0469 Q242.2813,441.7188 242.8906,440.5781 Q243.5156,439.4219 244.6094,438.8125 Q245.7031,438.1875 246.9375,438.1875 Q247.6719,438.1875 248.3125,438.3594 Q248.9688,438.5156 249.5156,438.875 Z " fill="#000000"/><text fill="#000000" font-family="sans-serif" font-size="14" lengthAdjust="spacing" textLength="62" x="267.25" y="447.8535">Employee</text><line style="stroke:#181818;stroke-width:0.5;" x1="198.5" x2="365.5" y1="459" y2="459"/><text fill="#000000" font-family="sans-serif" font-size="14" lengthAdjust="spacing" textLength="81" x="203.5" y="475.6738">-String name</text><text fill="#000000" font-family="sans-serif" font-size="14" lengthAdjust="spacing" textLength="79" x="203.5" y="491.3145">-String email</text><text fill="#000000" font-family="sans-serif" font-size="14" lengthAdjust="spacing" textLength="157" x="203.5" y="506.9551">-Integer passportNumber</text><text fill="#000000" font-family="sans-serif" font-size="14" lengthAdjust="spacing" textLength="113" x="203.5" y="522.5957">-String taxNumber</text><text fill="#000000" font-family="sans-serif" font-size="14" lengthAdjust="spacing" textLength="142" x="203.5" y="538.2363">-Integer phoneNumber</text><line style="stroke:#181818;stroke-width:0.5;" x1="198.5" x2="365.5" y1="545.2031" y2="545.2031"/><text fill="#000000" font-family="sans-serif" font-size="14" lengthAdjust="spacing" textLength="72" x="203.5" y="561.877">+getStore()</text></g><!--class Address--><g id="elem_Address"><rect codeLine="33" fill="#F1F1F1" filter="url(#fs3w6iaee4c91)" height="110.5625" id="Address" rx="2.5" ry="2.5" style="stroke:#181818;stroke-width:0.5;" width="146" x="406" y="630"/><ellipse cx="448.9" cy="646" fill="#ADD1B2" rx="11" ry="11" style="stroke:#181818;stroke-width:1.0;"/><path d="M451.6656,641.875 Q451.8219,641.6563 452.0094,641.5469 Q452.1969,641.4375 452.4156,641.4375 Q452.7906,641.4375 453.025,641.7031 Q453.2594,641.9531 453.2594,642.5625 L453.2594,644.0156 Q453.2594,644.625 453.025,644.8906 Q452.7906,645.1563 452.4156,645.1563 Q452.0719,645.1563 451.8688,644.9531 Q451.6656,644.7656 451.5563,644.25 Q451.5094,643.8906 451.3219,643.7031 Q450.9938,643.3281 450.3844,643.1094 Q449.775,642.8906 449.15,642.8906 Q448.3844,642.8906 447.7438,643.2188 Q447.1188,643.5469 446.6188,644.2969 Q446.1344,645.0469 446.1344,646.0781 L446.1344,647.1719 Q446.1344,648.4063 447.025,649.2344 Q447.9156,650.0469 449.5094,650.0469 Q450.4469,650.0469 451.1031,649.7969 Q451.4938,649.6406 451.9156,649.2031 Q452.1813,648.9375 452.3219,648.8594 Q452.4781,648.7813 452.6813,648.7813 Q453.0094,648.7813 453.2594,649.0469 Q453.525,649.2969 453.525,649.6406 Q453.525,649.9844 453.1813,650.3906 Q452.6813,650.9688 451.8844,651.2969 Q450.8063,651.75 449.5094,651.75 Q447.9938,651.75 446.7906,651.125 Q445.8063,650.625 445.1188,649.5625 Q444.4313,648.4844 444.4313,647.2031 L444.4313,646.0469 Q444.4313,644.7188 445.0406,643.5781 Q445.6656,642.4219 446.7594,641.8125 Q447.8531,641.1875 449.0875,641.1875 Q449.8219,641.1875 450.4625,641.3594 Q451.1188,641.5156 451.6656,641.875 Z " fill="#000000"/><text fill="#000000" font-family="sans-serif" font-size="14" lengthAdjust="spacing" textLength="52" x="469.1" y="650.8535">Address</text><line style="stroke:#181818;stroke-width:0.5;" x1="407" x2="551" y1="662" y2="662"/><text fill="#000000" font-family="sans-serif" font-size="14" lengthAdjust="spacing" textLength="134" x="412" y="678.6738">-String streetAddress</text><text fill="#000000" font-family="sans-serif" font-size="14" lengthAdjust="spacing" textLength="77" x="412" y="694.3145">-String state</text><text fill="#000000" font-family="sans-serif" font-size="14" lengthAdjust="spacing" textLength="67" x="412" y="709.9551">-String city</text><text fill="#000000" font-family="sans-serif" font-size="14" lengthAdjust="spacing" textLength="97" x="412" y="725.5957">-String zipCode</text><line style="stroke:#181818;stroke-width:0.5;" x1="407" x2="551" y1="732.5625" y2="732.5625"/></g><!--class StoreRepository--><g id="elem_StoreRepository"><rect codeLine="42" fill="#F1F1F1" filter="url(#fs3w6iaee4c91)" height="63.6406" id="StoreRepository" rx="2.5" ry="2.5" style="stroke:#181818;stroke-width:0.5;" width="274" x="342" y="263.5"/><ellipse cx="423.75" cy="279.5" fill="#ADD1B2" rx="11" ry="11" style="stroke:#181818;stroke-width:1.0;"/><path d="M426.5156,275.375 Q426.6719,275.1563 426.8594,275.0469 Q427.0469,274.9375 427.2656,274.9375 Q427.6406,274.9375 427.875,275.2031 Q428.1094,275.4531 428.1094,276.0625 L428.1094,277.5156 Q428.1094,278.125 427.875,278.3906 Q427.6406,278.6563 427.2656,278.6563 Q426.9219,278.6563 426.7188,278.4531 Q426.5156,278.2656 426.4063,277.75 Q426.3594,277.3906 426.1719,277.2031 Q425.8438,276.8281 425.2344,276.6094 Q424.625,276.3906 424,276.3906 Q423.2344,276.3906 422.5938,276.7188 Q421.9688,277.0469 421.4688,277.7969 Q420.9844,278.5469 420.9844,279.5781 L420.9844,280.6719 Q420.9844,281.9063 421.875,282.7344 Q422.7656,283.5469 424.3594,283.5469 Q425.2969,283.5469 425.9531,283.2969 Q426.3438,283.1406 426.7656,282.7031 Q427.0313,282.4375 427.1719,282.3594 Q427.3281,282.2813 427.5313,282.2813 Q427.8594,282.2813 428.1094,282.5469 Q428.375,282.7969 428.375,283.1406 Q428.375,283.4844 428.0313,283.8906 Q427.5313,284.4688 426.7344,284.7969 Q425.6563,285.25 424.3594,285.25 Q422.8438,285.25 421.6406,284.625 Q420.6563,284.125 419.9688,283.0625 Q419.2813,281.9844 419.2813,280.7031 L419.2813,279.5469 Q419.2813,278.2188 419.8906,277.0781 Q420.5156,275.9219 421.6094,275.3125 Q422.7031,274.6875 423.9375,274.6875 Q424.6719,274.6875 425.3125,274.8594 Q425.9688,275.0156 426.5156,275.375 Z " fill="#000000"/><text fill="#000000" font-family="sans-serif" font-size="14" lengthAdjust="spacing" textLength="102" x="444.25" y="284.3535">StoreRepository</text><line style="stroke:#181818;stroke-width:0.5;" x1="343" x2="615" y1="295.5" y2="295.5"/><line style="stroke:#181818;stroke-width:0.5;" x1="343" x2="615" y1="303.5" y2="303.5"/><text fill="#000000" font-family="sans-serif" font-size="14" lengthAdjust="spacing" textLength="262" x="348" y="320.1738">+getStoreByDescription(storeDescription)</text></g><!--class Role--><g id="elem_Role"><rect codeLine="46" fill="#F1F1F1" filter="url(#fs3w6iaee4c91)" height="79.2813" id="Role" rx="2.5" ry="2.5" style="stroke:#181818;stroke-width:0.5;" width="127" x="654.5" y="458.5"/><ellipse cx="699.25" cy="474.5" fill="#ADD1B2" rx="11" ry="11" style="stroke:#181818;stroke-width:1.0;"/><path d="M702.0156,470.375 Q702.1719,470.1563 702.3594,470.0469 Q702.5469,469.9375 702.7656,469.9375 Q703.1406,469.9375 703.375,470.2031 Q703.6094,470.4531 703.6094,471.0625 L703.6094,472.5156 Q703.6094,473.125 703.375,473.3906 Q703.1406,473.6563 702.7656,473.6563 Q702.4219,473.6563 702.2188,473.4531 Q702.0156,473.2656 701.9063,472.75 Q701.8594,472.3906 701.6719,472.2031 Q701.3438,471.8281 700.7344,471.6094 Q700.125,471.3906 699.5,471.3906 Q698.7344,471.3906 698.0938,471.7188 Q697.4688,472.0469 696.9688,472.7969 Q696.4844,473.5469 696.4844,474.5781 L696.4844,475.6719 Q696.4844,476.9063 697.375,477.7344 Q698.2656,478.5469 699.8594,478.5469 Q700.7969,478.5469 701.4531,478.2969 Q701.8438,478.1406 702.2656,477.7031 Q702.5313,477.4375 702.6719,477.3594 Q702.8281,477.2813 703.0313,477.2813 Q703.3594,477.2813 703.6094,477.5469 Q703.875,477.7969 703.875,478.1406 Q703.875,478.4844 703.5313,478.8906 Q703.0313,479.4688 702.2344,479.7969 Q701.1563,480.25 699.8594,480.25 Q698.3438,480.25 697.1406,479.625 Q696.1563,479.125 695.4688,478.0625 Q694.7813,476.9844 694.7813,475.7031 L694.7813,474.5469 Q694.7813,473.2188 695.3906,472.0781 Q696.0156,470.9219 697.1094,470.3125 Q698.2031,469.6875 699.4375,469.6875 Q700.1719,469.6875 700.8125,469.8594 Q701.4688,470.0156 702.0156,470.375 Z " fill="#000000"/><text fill="#000000" font-family="sans-serif" font-size="14" lengthAdjust="spacing" textLength="29" x="719.75" y="479.3535">Role</text><line style="stroke:#181818;stroke-width:0.5;" x1="655.5" x2="780.5" y1="490.5" y2="490.5"/><text fill="#000000" font-family="sans-serif" font-size="14" lengthAdjust="spacing" textLength="64" x="660.5" y="507.1738">-Integer id</text><text fill="#000000" font-family="sans-serif" font-size="14" lengthAdjust="spacing" textLength="115" x="660.5" y="522.8145">-String description</text><line style="stroke:#181818;stroke-width:0.5;" x1="655.5" x2="780.5" y1="529.7813" y2="529.7813"/></g><!--class RoleRepository--><g id="elem_RoleRepository"><rect codeLine="51" fill="#F1F1F1" filter="url(#fs3w6iaee4c91)" height="63.6406" id="RoleRepository" rx="2.5" ry="2.5" style="stroke:#181818;stroke-width:0.5;" width="261" x="651.5" y="263.5"/><ellipse cx="729.25" cy="279.5" fill="#ADD1B2" rx="11" ry="11" style="stroke:#181818;stroke-width:1.0;"/><path d="M732.0156,275.375 Q732.1719,275.1563 732.3594,275.0469 Q732.5469,274.9375 732.7656,274.9375 Q733.1406,274.9375 733.375,275.2031 Q733.6094,275.4531 733.6094,276.0625 L733.6094,277.5156 Q733.6094,278.125 733.375,278.3906 Q733.1406,278.6563 732.7656,278.6563 Q732.4219,278.6563 732.2188,278.4531 Q732.0156,278.2656 731.9063,277.75 Q731.8594,277.3906 731.6719,277.2031 Q731.3438,276.8281 730.7344,276.6094 Q730.125,276.3906 729.5,276.3906 Q728.7344,276.3906 728.0938,276.7188 Q727.4688,277.0469 726.9688,277.7969 Q726.4844,278.5469 726.4844,279.5781 L726.4844,280.6719 Q726.4844,281.9063 727.375,282.7344 Q728.2656,283.5469 729.8594,283.5469 Q730.7969,283.5469 731.4531,283.2969 Q731.8438,283.1406 732.2656,282.7031 Q732.5313,282.4375 732.6719,282.3594 Q732.8281,282.2813 733.0313,282.2813 Q733.3594,282.2813 733.6094,282.5469 Q733.875,282.7969 733.875,283.1406 Q733.875,283.4844 733.5313,283.8906 Q733.0313,284.4688 732.2344,284.7969 Q731.1563,285.25 729.8594,285.25 Q728.3438,285.25 727.1406,284.625 Q726.1563,284.125 725.4688,283.0625 Q724.7813,281.9844 724.7813,280.7031 L724.7813,279.5469 Q724.7813,278.2188 725.3906,277.0781 Q726.0156,275.9219 727.1094,275.3125 Q728.2031,274.6875 729.4375,274.6875 Q730.1719,274.6875 730.8125,274.8594 Q731.4688,275.0156 732.0156,275.375 Z " fill="#000000"/><text fill="#000000" font-family="sans-serif" font-size="14" lengthAdjust="spacing" textLength="97" x="749.75" y="284.3535">RoleRepository</text><line style="stroke:#181818;stroke-width:0.5;" x1="652.5" x2="911.5" y1="295.5" y2="295.5"/><line style="stroke:#181818;stroke-width:0.5;" x1="652.5" x2="911.5" y1="303.5" y2="303.5"/><text fill="#000000" font-family="sans-serif" font-size="14" lengthAdjust="spacing" textLength="249" x="657.5" y="320.1738">+getRoleByDescription(roleDescription)</text></g><!--class EmployeeRepository--><g id="elem_EmployeeRepository"><rect codeLine="55" fill="#F1F1F1" filter="url(#fs3w6iaee4c91)" height="110.5625" id="EmployeeRepository" rx="2.5" ry="2.5" style="stroke:#181818;stroke-width:0.5;" width="300" x="7" y="240"/><ellipse cx="87.75" cy="256" fill="#ADD1B2" rx="11" ry="11" style="stroke:#181818;stroke-width:1.0;"/><path d="M90.5156,251.875 Q90.6719,251.6563 90.8594,251.5469 Q91.0469,251.4375 91.2656,251.4375 Q91.6406,251.4375 91.875,251.7031 Q92.1094,251.9531 92.1094,252.5625 L92.1094,254.0156 Q92.1094,254.625 91.875,254.8906 Q91.6406,255.1563 91.2656,255.1563 Q90.9219,255.1563 90.7188,254.9531 Q90.5156,254.7656 90.4063,254.25 Q90.3594,253.8906 90.1719,253.7031 Q89.8438,253.3281 89.2344,253.1094 Q88.625,252.8906 88,252.8906 Q87.2344,252.8906 86.5938,253.2188 Q85.9688,253.5469 85.4688,254.2969 Q84.9844,255.0469 84.9844,256.0781 L84.9844,257.1719 Q84.9844,258.4063 85.875,259.2344 Q86.7656,260.0469 88.3594,260.0469 Q89.2969,260.0469 89.9531,259.7969 Q90.3438,259.6406 90.7656,259.2031 Q91.0313,258.9375 91.1719,258.8594 Q91.3281,258.7813 91.5313,258.7813 Q91.8594,258.7813 92.1094,259.0469 Q92.375,259.2969 92.375,259.6406 Q92.375,259.9844 92.0313,260.3906 Q91.5313,260.9688 90.7344,261.2969 Q89.6563,261.75 88.3594,261.75 Q86.8438,261.75 85.6406,261.125 Q84.6563,260.625 83.9688,259.5625 Q83.2813,258.4844 83.2813,257.2031 L83.2813,256.0469 Q83.2813,254.7188 83.8906,253.5781 Q84.5156,252.4219 85.6094,251.8125 Q86.7031,251.1875 87.9375,251.1875 Q88.6719,251.1875 89.3125,251.3594 Q89.9688,251.5156 90.5156,251.875 Z " fill="#000000"/><text fill="#000000" font-family="sans-serif" font-size="14" lengthAdjust="spacing" textLength="130" x="108.25" y="260.8535">EmployeeRepository</text><line style="stroke:#181818;stroke-width:0.5;" x1="8" x2="306" y1="272" y2="272"/><line style="stroke:#181818;stroke-width:0.5;" x1="8" x2="306" y1="280" y2="280"/><text fill="#000000" font-family="sans-serif" font-size="14" lengthAdjust="spacing" textLength="198" x="13" y="296.6738">+create(email,passportNumber,</text><text fill="#000000" font-family="sans-serif" font-size="14" lengthAdjust="spacing" textLength="284" x="17" y="312.3145">taxNumber,address,phoneNumber,store,role)</text><text fill="#000000" font-family="sans-serif" font-size="14" lengthAdjust="spacing" textLength="119" x="13" y="327.9551">+createPassword()</text><text fill="#000000" font-family="sans-serif" font-size="14" lengthAdjust="spacing" textLength="205" x="13" y="343.5957">+createPasswordTxt(email,pass)</text></g><!--class Repositories--><g id="elem_Repositories"><rect codeLine="61" fill="#F1F1F1" filter="url(#fs3w6iaee4c91)" height="126.2031" id="Repositories" rx="2.5" ry="2.5" style="stroke:#181818;stroke-width:0.5;" width="194" x="649" y="22.5"/><ellipse cx="702.25" cy="38.5" fill="#ADD1B2" rx="11" ry="11" style="stroke:#181818;stroke-width:1.0;"/><path d="M705.0156,34.375 Q705.1719,34.1563 705.3594,34.0469 Q705.5469,33.9375 705.7656,33.9375 Q706.1406,33.9375 706.375,34.2031 Q706.6094,34.4531 706.6094,35.0625 L706.6094,36.5156 Q706.6094,37.125 706.375,37.3906 Q706.1406,37.6563 705.7656,37.6563 Q705.4219,37.6563 705.2188,37.4531 Q705.0156,37.2656 704.9063,36.75 Q704.8594,36.3906 704.6719,36.2031 Q704.3438,35.8281 703.7344,35.6094 Q703.125,35.3906 702.5,35.3906 Q701.7344,35.3906 701.0938,35.7188 Q700.4688,36.0469 699.9688,36.7969 Q699.4844,37.5469 699.4844,38.5781 L699.4844,39.6719 Q699.4844,40.9063 700.375,41.7344 Q701.2656,42.5469 702.8594,42.5469 Q703.7969,42.5469 704.4531,42.2969 Q704.8438,42.1406 705.2656,41.7031 Q705.5313,41.4375 705.6719,41.3594 Q705.8281,41.2813 706.0313,41.2813 Q706.3594,41.2813 706.6094,41.5469 Q706.875,41.7969 706.875,42.1406 Q706.875,42.4844 706.5313,42.8906 Q706.0313,43.4688 705.2344,43.7969 Q704.1563,44.25 702.8594,44.25 Q701.3438,44.25 700.1406,43.625 Q699.1563,43.125 698.4688,42.0625 Q697.7813,40.9844 697.7813,39.7031 L697.7813,38.5469 Q697.7813,37.2188 698.3906,36.0781 Q699.0156,34.9219 700.1094,34.3125 Q701.2031,33.6875 702.4375,33.6875 Q703.1719,33.6875 703.8125,33.8594 Q704.4688,34.0156 705.0156,34.375 Z " fill="#000000"/><text fill="#000000" font-family="sans-serif" font-size="14" lengthAdjust="spacing" textLength="79" x="722.75" y="43.3535">Repositories</text><line style="stroke:#181818;stroke-width:0.5;" x1="650" x2="842" y1="54.5" y2="54.5"/><line style="stroke:#181818;stroke-width:0.5;" x1="650" x2="842" y1="62.5" y2="62.5"/><text fill="#000000" font-family="sans-serif" font-size="14" lengthAdjust="spacing" textLength="94" x="655" y="79.1738">-Repositories()</text><text fill="#000000" font-family="sans-serif" font-size="14" lengthAdjust="spacing" textLength="182" x="655" y="94.8145">+getInstance() : Repositories</text><text fill="#000000" font-family="sans-serif" font-size="14" lengthAdjust="spacing" textLength="135" x="655" y="110.4551">+getRoleRepository()</text><text fill="#000000" font-family="sans-serif" font-size="14" lengthAdjust="spacing" textLength="140" x="655" y="126.0957">+getStoreRepository()</text><text fill="#000000" font-family="sans-serif" font-size="14" lengthAdjust="spacing" textLength="168" x="655" y="141.7363">+getEmployeeRepository()</text></g><!--class RegisterEmployeeController--><g id="elem_RegisterEmployeeController"><rect codeLine="69" fill="#F1F1F1" filter="url(#fs3w6iaee4c91)" height="157.4844" id="RegisterEmployeeController" rx="2.5" ry="2.5" style="stroke:#181818;stroke-width:0.5;" width="300" x="245" y="7"/><ellipse cx="302.25" cy="23" fill="#ADD1B2" rx="11" ry="11" style="stroke:#181818;stroke-width:1.0;"/><path d="M305.0156,18.875 Q305.1719,18.6563 305.3594,18.5469 Q305.5469,18.4375 305.7656,18.4375 Q306.1406,18.4375 306.375,18.7031 Q306.6094,18.9531 306.6094,19.5625 L306.6094,21.0156 Q306.6094,21.625 306.375,21.8906 Q306.1406,22.1563 305.7656,22.1563 Q305.4219,22.1563 305.2188,21.9531 Q305.0156,21.7656 304.9063,21.25 Q304.8594,20.8906 304.6719,20.7031 Q304.3438,20.3281 303.7344,20.1094 Q303.125,19.8906 302.5,19.8906 Q301.7344,19.8906 301.0938,20.2188 Q300.4688,20.5469 299.9688,21.2969 Q299.4844,22.0469 299.4844,23.0781 L299.4844,24.1719 Q299.4844,25.4063 300.375,26.2344 Q301.2656,27.0469 302.8594,27.0469 Q303.7969,27.0469 304.4531,26.7969 Q304.8438,26.6406 305.2656,26.2031 Q305.5313,25.9375 305.6719,25.8594 Q305.8281,25.7813 306.0313,25.7813 Q306.3594,25.7813 306.6094,26.0469 Q306.875,26.2969 306.875,26.6406 Q306.875,26.9844 306.5313,27.3906 Q306.0313,27.9688 305.2344,28.2969 Q304.1563,28.75 302.8594,28.75 Q301.3438,28.75 300.1406,28.125 Q299.1563,27.625 298.4688,26.5625 Q297.7813,25.4844 297.7813,24.2031 L297.7813,23.0469 Q297.7813,21.7188 298.3906,20.5781 Q299.0156,19.4219 300.1094,18.8125 Q301.2031,18.1875 302.4375,18.1875 Q303.1719,18.1875 303.8125,18.3594 Q304.4688,18.5156 305.0156,18.875 Z " fill="#000000"/><text fill="#000000" font-family="sans-serif" font-size="14" lengthAdjust="spacing" textLength="177" x="322.75" y="27.8535">RegisterEmployeeController</text><line style="stroke:#181818;stroke-width:0.5;" x1="246" x2="544" y1="39" y2="39"/><line style="stroke:#181818;stroke-width:0.5;" x1="246" x2="544" y1="47" y2="47"/><text fill="#000000" font-family="sans-serif" font-size="14" lengthAdjust="spacing" textLength="195" x="251" y="63.6738">+RegisterEmployeeController()</text><text fill="#000000" font-family="sans-serif" font-size="14" lengthAdjust="spacing" textLength="74" x="251" y="79.3145">+getRoles()</text><text fill="#000000" font-family="sans-serif" font-size="14" lengthAdjust="spacing" textLength="79" x="251" y="94.9551">+getStores()</text><text fill="#000000" font-family="sans-serif" font-size="14" lengthAdjust="spacing" textLength="262" x="251" y="110.5957">+getStoreByDescription(storeDescription)</text><text fill="#000000" font-family="sans-serif" font-size="14" lengthAdjust="spacing" textLength="249" x="251" y="126.2363">+getRoleByDescription(roleDescription)</text><text fill="#000000" font-family="sans-serif" font-size="14" lengthAdjust="spacing" textLength="198" x="251" y="141.877">+create(email,passportNumber,</text><text fill="#000000" font-family="sans-serif" font-size="14" lengthAdjust="spacing" textLength="284" x="255" y="157.5176">taxNumber,address,phoneNumber,store,role)</text></g><!--class RegisterEmployeeUI--><g id="elem_RegisterEmployeeUI"><rect codeLine="92" fill="#F1F1F1" filter="url(#fs3w6iaee4c91)" height="48" id="RegisterEmployeeUI" rx="2.5" ry="2.5" style="stroke:#181818;stroke-width:0.5;" width="159" x="50.5" y="61.5"/><ellipse cx="65.5" cy="77.5" fill="#ADD1B2" rx="11" ry="11" style="stroke:#181818;stroke-width:1.0;"/><path d="M68.2656,73.375 Q68.4219,73.1563 68.6094,73.0469 Q68.7969,72.9375 69.0156,72.9375 Q69.3906,72.9375 69.625,73.2031 Q69.8594,73.4531 69.8594,74.0625 L69.8594,75.5156 Q69.8594,76.125 69.625,76.3906 Q69.3906,76.6563 69.0156,76.6563 Q68.6719,76.6563 68.4688,76.4531 Q68.2656,76.2656 68.1563,75.75 Q68.1094,75.3906 67.9219,75.2031 Q67.5938,74.8281 66.9844,74.6094 Q66.375,74.3906 65.75,74.3906 Q64.9844,74.3906 64.3438,74.7188 Q63.7188,75.0469 63.2188,75.7969 Q62.7344,76.5469 62.7344,77.5781 L62.7344,78.6719 Q62.7344,79.9063 63.625,80.7344 Q64.5156,81.5469 66.1094,81.5469 Q67.0469,81.5469 67.7031,81.2969 Q68.0938,81.1406 68.5156,80.7031 Q68.7813,80.4375 68.9219,80.3594 Q69.0781,80.2813 69.2813,80.2813 Q69.6094,80.2813 69.8594,80.5469 Q70.125,80.7969 70.125,81.1406 Q70.125,81.4844 69.7813,81.8906 Q69.2813,82.4688 68.4844,82.7969 Q67.4063,83.25 66.1094,83.25 Q64.5938,83.25 63.3906,82.625 Q62.4063,82.125 61.7188,81.0625 Q61.0313,79.9844 61.0313,78.7031 L61.0313,77.5469 Q61.0313,76.2188 61.6406,75.0781 Q62.2656,73.9219 63.3594,73.3125 Q64.4531,72.6875 65.6875,72.6875 Q66.4219,72.6875 67.0625,72.8594 Q67.7188,73.0156 68.2656,73.375 Z " fill="#000000"/><text fill="#000000" font-family="sans-serif" font-size="14" lengthAdjust="spacing" textLength="127" x="79.5" y="82.3535">RegisterEmployeeUI</text><line style="stroke:#181818;stroke-width:0.5;" x1="51.5" x2="208.5" y1="93.5" y2="93.5"/><line style="stroke:#181818;stroke-width:0.5;" x1="51.5" x2="208.5" y1="101.5" y2="101.5"/></g><!--link Repositories to Repositories--><g id="link_Repositories_Repositories"><path codeLine="95" d="M843.28,64.51 C863.48,66.72 878,73.72 878,85.5 C878,97.28 869.4444,103.6275 849.2444,105.8375 " fill="none" id="Repositories-to-Repositories" style="stroke:#181818;stroke-width:1.0;"/><polygon fill="#181818" points="843.28,106.49,852.6616,109.4875,848.2503,105.9462,851.7916,101.5349,843.28,106.49" style="stroke:#181818;stroke-width:1.0;"/><text fill="#000000" font-family="sans-serif" font-size="13" lengthAdjust="spacing" textLength="49" x="884" y="90.2686">instance</text></g><!--link RegisterEmployeeUI to RegisterEmployeeController--><g id="link_RegisterEmployeeUI_RegisterEmployeeController"><path codeLine="97" d="M209.54,85.5 C214.96,85.5 218.33,85.5 218.33,85.5 C218.33,85.5 223.99,85.5 238.84,85.5 " fill="none" id="RegisterEmployeeUI-to-RegisterEmployeeController" style="stroke:#181818;stroke-width:1.0;stroke-dasharray:7.0,7.0;"/><polygon fill="#181818" points="244.84,85.5,235.84,81.5,239.84,85.5,235.84,89.5,244.84,85.5" style="stroke:#181818;stroke-width:1.0;"/></g><!--link RegisterEmployeeController to Repositories--><g id="link_RegisterEmployeeController_Repositories"><path codeLine="99" d="M545.13,85.5 C580.23,85.5 610.71,85.5 642.8,85.5 " fill="none" id="RegisterEmployeeController-to-Repositories" style="stroke:#181818;stroke-width:1.0;stroke-dasharray:7.0,7.0;"/><polygon fill="#181818" points="648.8,85.5,639.8,81.5,643.8,85.5,639.8,89.5,648.8,85.5" style="stroke:#181818;stroke-width:1.0;"/><text fill="#000000" font-family="sans-serif" font-size="13" lengthAdjust="spacing" textLength="67" x="563.5" y="79.2686">repositories</text></g><!--link Repositories to StoreRepository--><g id="link_Repositories_StoreRepository"><path codeLine="101" d="M719.85,148.61 C706.9,179.37 694,210 694,210 C694,210 625.0341,237.105 563.7241,261.205 " fill="none" id="Repositories-to-StoreRepository" style="stroke:#181818;stroke-width:1.0;"/><polygon fill="#181818" points="558.14,263.4,567.9795,263.8302,562.7934,261.5708,565.0528,256.3848,558.14,263.4" style="stroke:#181818;stroke-width:1.0;"/><text fill="#000000" font-family="sans-serif" font-size="13" lengthAdjust="spacing" textLength="7" x="567.6863" y="252.712">1</text></g><!--link Repositories to EmployeeRepository--><g id="link_Repositories_EmployeeRepository"><path codeLine="102" d="M648.85,136.91 C583.04,171.06 508,210 508,210 C508,210 325,240 325,240 C325,240 323.7779,240.4007 312.7279,243.9807 " fill="none" id="Repositories-to-EmployeeRepository" style="stroke:#181818;stroke-width:1.0;"/><polygon fill="#181818" points="307.02,245.83,316.8147,246.8614,311.7766,244.289,314.349,239.2508,307.02,245.83" style="stroke:#181818;stroke-width:1.0;"/><text fill="#000000" font-family="sans-serif" font-size="13" lengthAdjust="spacing" textLength="7" x="314.9359" y="240.7013">1</text></g><!--link RegisterEmployeeController to EmployeeRepository--><g id="link_RegisterEmployeeController_EmployeeRepository"><path codeLine="105" d="M306.04,164.25 C277.26,189.4 250.4776,212.8014 224.0376,235.9114 " fill="none" id="RegisterEmployeeController-to-EmployeeRepository" style="stroke:#181818;stroke-width:1.0;stroke-dasharray:7.0,7.0;"/><polygon fill="#181818" points="219.52,239.86,228.9288,236.9488,223.2846,236.5695,223.664,230.9254,219.52,239.86" style="stroke:#181818;stroke-width:1.0;"/><text fill="#000000" font-family="sans-serif" font-size="13" lengthAdjust="spacing" textLength="120" x="269" y="206.7686">EmployeeRepository</text></g><!--link RegisterEmployeeController to RoleRepository--><g id="link_RegisterEmployeeController_RoleRepository"><path codeLine="106" d="M539.38,164.1 C603.6,198.62 670.2749,234.4496 719.0249,260.6496 " fill="none" id="RegisterEmployeeController-to-RoleRepository" style="stroke:#181818;stroke-width:1.0;stroke-dasharray:7.0,7.0;"/><polygon fill="#181818" points="724.31,263.49,718.276,255.706,719.9058,261.123,714.4888,262.7528,724.31,263.49" style="stroke:#181818;stroke-width:1.0;"/><text fill="#000000" font-family="sans-serif" font-size="13" lengthAdjust="spacing" textLength="88" x="624" y="206.7686">RoleRepository</text></g><!--link RegisterEmployeeController to StoreRepository--><g id="link_RegisterEmployeeController_StoreRepository"><path codeLine="107" d="M426.4,164.25 C440.28,198.63 453.5841,231.5562 464.1441,257.7162 " fill="none" id="RegisterEmployeeController-to-StoreRepository" style="stroke:#181818;stroke-width:1.0;stroke-dasharray:7.0,7.0;"/><polygon fill="#181818" points="466.39,263.28,466.7303,253.437,464.5184,258.6435,459.3119,256.4316,466.39,263.28" style="stroke:#181818;stroke-width:1.0;"/><text fill="#000000" font-family="sans-serif" font-size="13" lengthAdjust="spacing" textLength="93" x="445" y="206.7686">StoreRepository</text></g><!--link Repositories to RoleRepository--><g id="link_Repositories_RoleRepository"><path codeLine="109" d="M756.75,148.63 C763.3,186.45 770.3568,227.2379 775.5868,257.4579 " fill="none" id="Repositories-to-RoleRepository" style="stroke:#181818;stroke-width:1.0;"/><polygon fill="#181818" points="776.61,263.37,779.0166,253.8197,775.7574,258.4432,771.1338,255.1839,776.61,263.37" style="stroke:#181818;stroke-width:1.0;"/><text fill="#000000" font-family="sans-serif" font-size="13" lengthAdjust="spacing" textLength="7" x="767.6653" y="252.6754">1</text></g><!--link StoreRepository to Store--><g id="link_StoreRepository_Store"><path codeLine="111" d="M479,327.83 C479,358.45 479,399.69 479,436.48 " fill="none" id="StoreRepository-to-Store" style="stroke:#181818;stroke-width:1.0;"/><polygon fill="#181818" points="479,442.48,483,433.48,479,437.48,475,433.48,479,442.48" style="stroke:#181818;stroke-width:1.0;"/><text fill="#000000" font-family="sans-serif" font-size="13" lengthAdjust="spacing" textLength="29" x="480" y="393.7686">store</text><text fill="#000000" font-family="sans-serif" font-size="13" lengthAdjust="spacing" textLength="7" x="471.3547" y="346.9314">1</text><text fill="#000000" font-family="sans-serif" font-size="13" lengthAdjust="spacing" textLength="5" x="473.6641" y="431.912">*</text></g><!--link RoleRepository to Role--><g id="link_RoleRepository_Role"><path codeLine="112" d="M772,327.83 C760.75,363.07 744.2946,414.6241 732.1646,452.6241 " fill="none" id="RoleRepository-to-Role" style="stroke:#181818;stroke-width:1.0;"/><polygon fill="#181818" points="730.34,458.34,736.8874,450.9826,731.8605,453.5768,729.2663,448.5498,730.34,458.34" style="stroke:#181818;stroke-width:1.0;"/><text fill="#000000" font-family="sans-serif" font-size="13" lengthAdjust="spacing" textLength="21" x="754" y="393.7686">role</text><text fill="#000000" font-family="sans-serif" font-size="13" lengthAdjust="spacing" textLength="7" x="762.5109" y="346.9314">1</text><text fill="#000000" font-family="sans-serif" font-size="13" lengthAdjust="spacing" textLength="5" x="727.0928" y="447.8188">*</text></g><!--link EmployeeRepository to Employee--><g id="link_EmployeeRepository_Employee"><path codeLine="113" d="M190.99,351.02 C205.52,374.33 219.4954,396.7487 234.9654,421.5587 " fill="none" id="EmployeeRepository-to-Employee" style="stroke:#181818;stroke-width:1.0;"/><polygon fill="#181818" points="238.14,426.65,236.7723,416.8966,235.4945,422.4072,229.9838,421.1294,238.14,426.65" style="stroke:#181818;stroke-width:1.0;"/><text fill="#000000" font-family="sans-serif" font-size="13" lengthAdjust="spacing" textLength="56" x="221" y="393.7686">employee</text><text fill="#000000" font-family="sans-serif" font-size="13" lengthAdjust="spacing" textLength="7" x="187.706" y="370.4667">1</text><text fill="#000000" font-family="sans-serif" font-size="13" lengthAdjust="spacing" textLength="5" x="228.3591" y="416.3738">*</text></g><!--link Employee to Store--><g id="link_Employee_Store"><path codeLine="116" d="M366.66,498 C378.02,498 380.09,498 389.8,498 " fill="none" id="Employee-to-Store" style="stroke:#181818;stroke-width:1.0;"/><polygon fill="none" points="401.8,498,395.8,494,389.8,498,395.8,502,401.8,498" style="stroke:#181818;stroke-width:1.0;"/></g><!--link Employee to Address--><g id="link_Employee_Address"><path codeLine="117" d="M356.48,569.13 C377.83,589.24 392.0535,602.6336 412.2635,621.6636 " fill="none" id="Employee-to-Address" style="stroke:#181818;stroke-width:1.0;"/><polygon fill="none" points="421,629.89,419.3739,622.8646,412.2635,621.6636,413.8896,628.689,421,629.89" style="stroke:#181818;stroke-width:1.0;"/></g><!--link Store to Address--><g id="link_Store_Address"><path codeLine="118" d="M479,553.65 C479,577.7 479,593.88 479,617.92 " fill="none" id="Store-to-Address" style="stroke:#181818;stroke-width:1.0;"/><polygon fill="none" points="479,629.92,483,623.92,479,617.92,475,623.92,479,629.92" style="stroke:#181818;stroke-width:1.0;"/></g><!--link Role to Address--><g id="link_Role_Address"><path codeLine="119" d="M668.19,537.66 C633.85,564.31 597.1884,592.7606 559.0784,622.3506 " fill="none" id="Role-to-Address" style="stroke:#181818;stroke-width:1.0;"/><polygon fill="none" points="549.6,629.71,556.7923,629.1898,559.0784,622.3506,551.8861,622.8709,549.6,629.71" style="stroke:#181818;stroke-width:1.0;"/></g><!--SRC=[hLKzRzim4DtvAuWiSbevQ5SF0T8qWvUYY9kj2osTPI8IAP3d9agG_zwZADca97yKg1TBz_7kyTtnbDXdgMfXHCKhhNIsDRe2ZcO7xE2fHVOi2bXXKm8taA5GHHa6sAt8zOjKnJ2pb0gmgO7NkcpS2qicdDgWPaa96-IekP755dakNI6f5GlWib9OUuTev7g7iCoqMiatu5yOOqdhuqyMp0giTOd9Eqiu_Jxp0j0v7YeXozarIpuemSUlK1lWxyp5pVbI8HHWkCmxmufAqQboiB9GegKJES0X3fBhhLRmOrUjmR2Fliv3LPUwWKEf3a292Yw098YQLEfGetWKhv5vYiPUXVQufC2UrrsU6vBBipg0MZG0s3b7Fe4mi6KIcu7fJTRtEWTNAXBx4Mfj9JqrdHO7Oj-Qxs0p8sidzCmwKs08M3_g4YxeMPyP9quJS9wulY7BTFc-cICaWieCa3opjejftBVqjpfqAnLUt3JeKzeUENM5hsEydmJqeaq-EsB_zOf1oL2fdg84kv-zqDWXjXei5VLMPJGWV145nJ8TZXqc3veRkiPwpIAAXRJeRgUFkjSAIOAIUjhtvtX8MCPnioDAOykvCVkNcVZFJMylIw8qGhS6zUR4uVrwc_DTlzkuj5olKT1YpRrpG_kSunRQ66xxpUZpCY9TK3U24taNmHYWQmH_8FSG5afQn_IM2nGi0PLpnv8b7TkrHgGmeZkOWu0ZGMb3YztMfMZeYdgN8zSJeK-2nG3zo8GyBMaoIAfekEUtyR0lkEp6sGME06vkJmdBJWpbpQYG2Q_AYDNLrwkHA5Cnurj2et2A1n5fSTcPe8brjPYgTWPci3iN0mExX6gKFnHbe4edow0A6-Auc3RsKoSp8LilIqmu37GkrpZwOnFoXA7xB_U2Fit-aUxetZhNNHD2I__Xz7pcWQKj71eO-mi0]--></g></svg>