<?xml version="1.0" encoding="us-ascii" standalone="no"?><svg xmlns="http://www.w3.org/2000/svg" xmlns:xlink="http://www.w3.org/1999/xlink" contentStyleType="text/css" height="541px" preserveAspectRatio="none" style="width:747px;height:541px;background:#FFFFFF;" version="1.1" viewBox="0 0 747 541" width="747px" zoomAndPan="magnify"><defs/><g><rect fill="#FFFFFF" height="359.2793" style="stroke:#181818;stroke-width:1.0;" width="10" x="316" y="107.8242"/><rect fill="#FFFFFF" height="219.4551" style="stroke:#181818;stroke-width:1.0;" width="10" x="321" y="209.3574"/><rect fill="#FFFFFF" height="130.873" style="stroke:#181818;stroke-width:1.0;" width="10" x="326" y="253.6484"/><rect fill="#FFFFFF" height="42.291" style="stroke:#181818;stroke-width:1.0;" width="10" x="331" y="297.9395"/><line style="stroke:#181818;stroke-width:0.5;stroke-dasharray:5.0,5.0;" x1="320.5" x2="320.5" y1="57.2422" y2="485.1035"/><line style="stroke:#181818;stroke-width:0.5;stroke-dasharray:5.0,5.0;" x1="701" x2="701" y1="156.9453" y2="485.1035"/><rect fill="#E3E3E3" height="51.2422" rx="2.5" ry="2.5" style="stroke:#181818;stroke-width:0.5;" width="147" x="247.5" y="5"/><text fill="#000000" font-family="sans-serif" font-size="14" lengthAdjust="spacing" textLength="133" x="254.5" y="27.1074">employeeRepository:</text><text fill="#000000" font-family="sans-serif" font-size="14" lengthAdjust="spacing" textLength="130" x="256" y="45.7285">EmployeeRepository</text><rect fill="#E3E3E3" height="51.2422" rx="2.5" ry="2.5" style="stroke:#181818;stroke-width:0.5;" width="147" x="247.5" y="484.1035"/><text fill="#000000" font-family="sans-serif" font-size="14" lengthAdjust="spacing" textLength="133" x="254.5" y="506.2109">employeeRepository:</text><text fill="#000000" font-family="sans-serif" font-size="14" lengthAdjust="spacing" textLength="130" x="256" y="524.832">EmployeeRepository</text><rect fill="#E3E3E3" height="51.2422" rx="2.5" ry="2.5" style="stroke:#181818;stroke-width:0.5;" width="79" x="662" y="484.1035"/><text fill="#000000" font-family="sans-serif" font-size="14" lengthAdjust="spacing" textLength="65" x="669" y="506.2109">employee:</text><text fill="#000000" font-family="sans-serif" font-size="14" lengthAdjust="spacing" textLength="62" x="670.5" y="524.832">Employee</text><rect fill="#FFFFFF" height="359.2793" style="stroke:#181818;stroke-width:1.0;" width="10" x="316" y="107.8242"/><rect fill="#FFFFFF" height="219.4551" style="stroke:#181818;stroke-width:1.0;" width="10" x="321" y="209.3574"/><rect fill="#FFFFFF" height="130.873" style="stroke:#181818;stroke-width:1.0;" width="10" x="326" y="253.6484"/><rect fill="#FFFFFF" height="42.291" style="stroke:#181818;stroke-width:1.0;" width="10" x="331" y="297.9395"/><polygon fill="#181818" points="304,103.8242,314,107.8242,304,111.8242,308,107.8242" style="stroke:#181818;stroke-width:1.0;"/><line style="stroke:#181818;stroke-width:1.0;stroke-dasharray:2.0,2.0;" x1="0" x2="310" y1="107.8242" y2="107.8242"/><text fill="#000000" font-family="sans-serif" font-size="13" font-weight="bold" lengthAdjust="spacing" textLength="14" x="7" y="93.916">18</text><text fill="#000000" font-family="sans-serif" font-size="13" lengthAdjust="spacing" textLength="275" x="25" y="85.2705">registerEmployee(name,email,passportNumber,</text><text fill="#000000" font-family="sans-serif" font-size="13" lengthAdjust="spacing" textLength="275" x="29" y="102.5615">taxNumber,address,phoneNumber,EMPRe,role)</text><polygon fill="#181818" points="650,152.4063,660,156.4063,650,160.4063,654,156.4063" style="stroke:#181818;stroke-width:1.0;"/><line style="stroke:#181818;stroke-width:1.0;" x1="326" x2="656" y1="156.4063" y2="156.4063"/><text fill="#000000" font-family="sans-serif" font-size="13" font-weight="bold" lengthAdjust="spacing" textLength="25" x="333" y="142.498">18.1</text><text fill="#000000" font-family="sans-serif" font-size="13" lengthAdjust="spacing" textLength="269" x="362" y="133.8525">create(name,email,password,passportNumber,</text><text fill="#000000" font-family="sans-serif" font-size="13" lengthAdjust="spacing" textLength="279" x="366" y="151.1436">taxNumber,address,phoneNumber,EMPRe, role)</text><rect fill="#E3E3E3" height="51.2422" rx="2.5" ry="2.5" style="stroke:#181818;stroke-width:0.5;" width="79" x="662" y="115.8242"/><text fill="#000000" font-family="sans-serif" font-size="14" lengthAdjust="spacing" textLength="65" x="669" y="137.9316">employee:</text><text fill="#000000" font-family="sans-serif" font-size="14" lengthAdjust="spacing" textLength="62" x="670.5" y="156.5527">Employee</text><line style="stroke:#181818;stroke-width:1.0;" x1="326" x2="373" y1="196.3574" y2="196.3574"/><line style="stroke:#181818;stroke-width:1.0;" x1="373" x2="373" y1="196.3574" y2="209.3574"/><line style="stroke:#181818;stroke-width:1.0;" x1="332" x2="373" y1="209.3574" y2="209.3574"/><polygon fill="#181818" points="342,205.3574,332,209.3574,342,213.3574,338,209.3574" style="stroke:#181818;stroke-width:1.0;"/><text fill="#000000" font-family="sans-serif" font-size="13" font-weight="bold" lengthAdjust="spacing" textLength="25" x="338" y="191.0947">18.2</text><text fill="#000000" font-family="sans-serif" font-size="13" lengthAdjust="spacing" textLength="147" x="367" y="191.0947">addEmployee (employee)</text><line style="stroke:#181818;stroke-width:1.0;" x1="331" x2="378" y1="240.6484" y2="240.6484"/><line style="stroke:#181818;stroke-width:1.0;" x1="378" x2="378" y1="240.6484" y2="253.6484"/><line style="stroke:#181818;stroke-width:1.0;" x1="337" x2="378" y1="253.6484" y2="253.6484"/><polygon fill="#181818" points="347,249.6484,337,253.6484,347,257.6484,343,253.6484" style="stroke:#181818;stroke-width:1.0;"/><text fill="#000000" font-family="sans-serif" font-size="13" font-weight="bold" lengthAdjust="spacing" textLength="25" x="343" y="235.3857">18.3</text><text fill="#000000" font-family="sans-serif" font-size="13" lengthAdjust="spacing" textLength="148" x="372" y="235.3857">generate password(email)</text><line style="stroke:#181818;stroke-width:1.0;" x1="336" x2="383" y1="284.9395" y2="284.9395"/><line style="stroke:#181818;stroke-width:1.0;" x1="383" x2="383" y1="284.9395" y2="297.9395"/><line style="stroke:#181818;stroke-width:1.0;" x1="342" x2="383" y1="297.9395" y2="297.9395"/><polygon fill="#181818" points="352,293.9395,342,297.9395,352,301.9395,348,297.9395" style="stroke:#181818;stroke-width:1.0;"/><text fill="#000000" font-family="sans-serif" font-size="13" font-weight="bold" lengthAdjust="spacing" textLength="25" x="348" y="279.6768">18.4</text><text fill="#000000" font-family="sans-serif" font-size="13" lengthAdjust="spacing" textLength="165" x="377" y="279.6768">validateEmployee(employee)</text><line style="stroke:#181818;stroke-width:1.0;stroke-dasharray:2.0,2.0;" x1="341" x2="383" y1="339.2305" y2="339.2305"/><line style="stroke:#181818;stroke-width:1.0;stroke-dasharray:2.0,2.0;" x1="383" x2="383" y1="339.2305" y2="352.2305"/><line style="stroke:#181818;stroke-width:1.0;stroke-dasharray:2.0,2.0;" x1="336" x2="383" y1="352.2305" y2="352.2305"/><polygon fill="#181818" points="346,348.2305,336,352.2305,346,356.2305,342,352.2305" style="stroke:#181818;stroke-width:1.0;"/><text fill="#000000" font-family="sans-serif" font-size="13" font-weight="bold" lengthAdjust="spacing" textLength="25" x="348" y="333.9678">18.5</text><text fill="#000000" font-family="sans-serif" font-size="13" lengthAdjust="spacing" textLength="4" x="377" y="333.9678">&#160;</text><line style="stroke:#181818;stroke-width:1.0;stroke-dasharray:2.0,2.0;" x1="336" x2="378" y1="383.5215" y2="383.5215"/><line style="stroke:#181818;stroke-width:1.0;stroke-dasharray:2.0,2.0;" x1="378" x2="378" y1="383.5215" y2="396.5215"/><line style="stroke:#181818;stroke-width:1.0;stroke-dasharray:2.0,2.0;" x1="331" x2="378" y1="396.5215" y2="396.5215"/><polygon fill="#181818" points="341,392.5215,331,396.5215,341,400.5215,337,396.5215" style="stroke:#181818;stroke-width:1.0;"/><text fill="#000000" font-family="sans-serif" font-size="13" font-weight="bold" lengthAdjust="spacing" textLength="25" x="343" y="378.2588">18.6</text><text fill="#000000" font-family="sans-serif" font-size="13" lengthAdjust="spacing" textLength="4" x="372" y="378.2588">&#160;</text><line style="stroke:#181818;stroke-width:1.0;stroke-dasharray:2.0,2.0;" x1="331" x2="373" y1="427.8125" y2="427.8125"/><line style="stroke:#181818;stroke-width:1.0;stroke-dasharray:2.0,2.0;" x1="373" x2="373" y1="427.8125" y2="440.8125"/><line style="stroke:#181818;stroke-width:1.0;stroke-dasharray:2.0,2.0;" x1="326" x2="373" y1="440.8125" y2="440.8125"/><polygon fill="#181818" points="336,436.8125,326,440.8125,336,444.8125,332,440.8125" style="stroke:#181818;stroke-width:1.0;"/><text fill="#000000" font-family="sans-serif" font-size="13" font-weight="bold" lengthAdjust="spacing" textLength="25" x="338" y="422.5498">18.7</text><text fill="#000000" font-family="sans-serif" font-size="13" lengthAdjust="spacing" textLength="4" x="367" y="422.5498">&#160;</text><polygon fill="#181818" points="11,463.1035,1,467.1035,11,471.1035,7,467.1035" style="stroke:#181818;stroke-width:1.0;"/><line style="stroke:#181818;stroke-width:1.0;stroke-dasharray:2.0,2.0;" x1="5" x2="320" y1="467.1035" y2="467.1035"/><text fill="#000000" font-family="sans-serif" font-size="13" font-weight="bold" lengthAdjust="spacing" textLength="14" x="17" y="461.8408">19</text><text fill="#000000" font-family="sans-serif" font-size="13" lengthAdjust="spacing" textLength="118" x="35" y="461.8408">employeeRegistered</text><!--SRC=[hLF9Ri8m4BtxAqQz551IYLkBgjwuqQgYLov3F2GMjiUopVRtJKZ2NkWsjupdBVCSXxco3ZqQC6mvApmRWkWN9CBkn64snvm-uaOJUCeYsbmV3eG29Q-KpM66Ef0Gk8Xi5sPA7lgFGjmNIXBCcEEKrwB4H9KfXpR27HcdUKCq9iT1HVQRmSGEpvftW066h-_Zo-W3J3iv4a90LMdwiaKEIkkv2f5yEzgnQ2WXWqed3aDmxEFRrdKoiH1ntNoWb9v2I5p1bffUnKY9PqtTMWUpg9OOgNRPz0vZUEWtXawgceVQuwZN6q3cgQGvzRPYBtzf4cgNDxJBV4gADXhejD5sBxi-NXUkrB56JfPyXMkNwcnt_4BbhsfBr4gMkDsDxxVw7xczPADvTLhIJnUvnVfTnjjifqndF_1JUqNFQTh42_lNMxyiak8osIS0]--></g></svg>