<?xml version="1.0" encoding="us-ascii" standalone="no"?><svg xmlns="http://www.w3.org/2000/svg" xmlns:xlink="http://www.w3.org/1999/xlink" contentStyleType="text/css" height="532.8px" preserveAspectRatio="none" style="width:1149px;height:532px;background:#FFFFFF;" version="1.1" viewBox="0 0 1149 532" width="1149px" zoomAndPan="magnify"><defs/><g><rect fill="#FFFFFF" height="419.7281" style="stroke:#181818;stroke-width:0.6;" width="6" x="26.7" y="54.3844"/><rect fill="#FFFFFF" height="109.5281" style="stroke:#181818;stroke-width:0.6;" width="6" x="424.5" y="66.6984"/><rect fill="#FFFFFF" height="85.1438" style="stroke:#181818;stroke-width:0.6;" width="6" x="424.5" y="193.3406"/><rect fill="#FFFFFF" height="17.1141" style="stroke:#181818;stroke-width:0.6;" width="6" x="424.5" y="295.5984"/><rect fill="#FFFFFF" height="144.2859" style="stroke:#181818;stroke-width:0.6;" width="6" x="424.5" y="329.8266"/><rect fill="#FFFFFF" height="50.9156" style="stroke:#181818;stroke-width:0.6;" width="6" x="782.7" y="108.1969"/><rect fill="#FFFFFF" height="50.9156" style="stroke:#181818;stroke-width:0.6;" width="6" x="782.7" y="210.4547"/><rect fill="#FFFFFF" height="110.0578" style="stroke:#181818;stroke-width:0.6;" width="6" x="782.7" y="346.9406"/><rect fill="#FFFFFF" height="50.9156" style="stroke:#181818;stroke-width:0.6;" width="6" x="1092.3" y="388.9688"/><line style="stroke:#181818;stroke-width:0.3;stroke-dasharray:5.0,5.0;" x1="29.4" x2="29.4" y1="48.3844" y2="484.9125"/><line style="stroke:#181818;stroke-width:0.3;stroke-dasharray:5.0,5.0;" x1="427.2" x2="427.2" y1="48.3844" y2="484.9125"/><line style="stroke:#181818;stroke-width:0.3;stroke-dasharray:5.0,5.0;" x1="785.4" x2="785.4" y1="89.6906" y2="484.9125"/><line style="stroke:#181818;stroke-width:0.3;stroke-dasharray:5.0,5.0;" x1="1095" x2="1095" y1="48.3844" y2="484.9125"/><text fill="#000000" font-family="sans-serif" font-size="8.4" lengthAdjust="spacing" textLength="49.8" x="3" y="46.6043">Administrator</text><ellipse cx="29.7" cy="8.1" fill="#E3E3E3" rx="4.8" ry="4.8" style="stroke:#181818;stroke-width:0.3;"/><path d="M29.7,12.9 L29.7,29.1 M21.9,17.7 L37.5,17.7 M29.7,29.1 L21.9,38.1 M29.7,29.1 L37.5,38.1 " fill="none" style="stroke:#181818;stroke-width:0.3;"/><text fill="#000000" font-family="sans-serif" font-size="8.4" lengthAdjust="spacing" textLength="49.8" x="3" y="491.9168">Administrator</text><ellipse cx="29.7" cy="498.7969" fill="#E3E3E3" rx="4.8" ry="4.8" style="stroke:#181818;stroke-width:0.3;"/><path d="M29.7,503.5969 L29.7,519.7969 M21.9,508.3969 L37.5,508.3969 M29.7,519.7969 L21.9,528.7969 M29.7,519.7969 L37.5,528.7969 " fill="none" style="stroke:#181818;stroke-width:0.3;"/><rect fill="#E3E3E3" height="17.7844" rx="1.5" ry="1.5" style="stroke:#181818;stroke-width:0.3;" width="87" x="384" y="30"/><text fill="#000000" font-family="sans-serif" font-size="8.4" lengthAdjust="spacing" textLength="78.6" x="388.2" y="41.8043">:RegisterEmployeeUI</text><rect fill="#E3E3E3" height="17.7844" rx="1.5" ry="1.5" style="stroke:#181818;stroke-width:0.3;" width="87" x="384" y="484.3125"/><text fill="#000000" font-family="sans-serif" font-size="8.4" lengthAdjust="spacing" textLength="78.6" x="388.2" y="496.1168">:RegisterEmployeeUI</text><rect fill="#E3E3E3" height="17.7844" rx="1.5" ry="1.5" style="stroke:#181818;stroke-width:0.3;" width="117" x="727.2" y="484.3125"/><text fill="#000000" font-family="sans-serif" font-size="8.4" lengthAdjust="spacing" textLength="108.6" x="731.4" y="496.1168">:RegisterEmployeeController</text><rect fill="#E3E3E3" height="17.7844" rx="1.5" ry="1.5" style="stroke:#181818;stroke-width:0.3;" width="31.8" x="1079.4" y="30"/><text fill="#000000" font-family="sans-serif" font-size="8.4" lengthAdjust="spacing" textLength="23.4" x="1083.6" y="41.8043">EMPR</text><rect fill="#E3E3E3" height="17.7844" rx="1.5" ry="1.5" style="stroke:#181818;stroke-width:0.3;" width="31.8" x="1079.4" y="484.3125"/><text fill="#000000" font-family="sans-serif" font-size="8.4" lengthAdjust="spacing" textLength="23.4" x="1083.6" y="496.1168">EMPR</text><rect fill="#FFFFFF" height="419.7281" style="stroke:#181818;stroke-width:0.6;" width="6" x="26.7" y="54.3844"/><rect fill="#FFFFFF" height="109.5281" style="stroke:#181818;stroke-width:0.6;" width="6" x="424.5" y="66.6984"/><rect fill="#FFFFFF" height="85.1438" style="stroke:#181818;stroke-width:0.6;" width="6" x="424.5" y="193.3406"/><rect fill="#FFFFFF" height="17.1141" style="stroke:#181818;stroke-width:0.6;" width="6" x="424.5" y="295.5984"/><rect fill="#FFFFFF" height="144.2859" style="stroke:#181818;stroke-width:0.6;" width="6" x="424.5" y="329.8266"/><rect fill="#FFFFFF" height="50.9156" style="stroke:#181818;stroke-width:0.6;" width="6" x="782.7" y="108.1969"/><rect fill="#FFFFFF" height="50.9156" style="stroke:#181818;stroke-width:0.6;" width="6" x="782.7" y="210.4547"/><rect fill="#FFFFFF" height="110.0578" style="stroke:#181818;stroke-width:0.6;" width="6" x="782.7" y="346.9406"/><rect fill="#FFFFFF" height="50.9156" style="stroke:#181818;stroke-width:0.6;" width="6" x="1092.3" y="388.9688"/><polygon fill="#181818" points="417.3,64.2984,423.3,66.6984,417.3,69.0984,419.7,66.6984" style="stroke:#181818;stroke-width:0.6;"/><line style="stroke:#181818;stroke-width:0.6;" x1="32.7" x2="420.9" y1="66.6984" y2="66.6984"/><text fill="#000000" font-family="sans-serif" font-size="7.8" font-weight="bold" lengthAdjust="spacing" textLength="4.2" x="36.9" y="63.8455">1</text><text fill="#000000" font-family="sans-serif" font-size="7.8" lengthAdjust="spacing" textLength="112.8" x="43.5" y="63.8455">asks to register a new employee</text><polygon fill="#181818" points="720,81.4125,726,83.8125,720,86.2125,722.4,83.8125" style="stroke:#181818;stroke-width:0.6;"/><line style="stroke:#181818;stroke-width:0.6;" x1="430.5" x2="723.6" y1="83.8125" y2="83.8125"/><text fill="#000000" font-family="sans-serif" font-size="7.8" font-weight="bold" lengthAdjust="spacing" textLength="4.2" x="434.7" y="80.9596">2</text><text fill="#000000" font-family="sans-serif" font-size="7.8" lengthAdjust="spacing" textLength="21.6" x="441.3" y="80.9596">create</text><rect fill="#E3E3E3" height="17.7844" rx="1.5" ry="1.5" style="stroke:#181818;stroke-width:0.3;" width="117" x="727.2" y="71.4984"/><text fill="#000000" font-family="sans-serif" font-size="8.4" lengthAdjust="spacing" textLength="108.6" x="731.4" y="83.3027">:RegisterEmployeeController</text><polygon fill="#181818" points="775.5,105.7969,781.5,108.1969,775.5,110.5969,777.9,108.1969" style="stroke:#181818;stroke-width:0.6;"/><line style="stroke:#181818;stroke-width:0.6;" x1="430.5" x2="779.1" y1="108.1969" y2="108.1969"/><text fill="#000000" font-family="sans-serif" font-size="7.8" font-weight="bold" lengthAdjust="spacing" textLength="4.2" x="434.7" y="105.3439">3</text><text fill="#000000" font-family="sans-serif" font-size="7.8" lengthAdjust="spacing" textLength="31.2" x="441.3" y="105.3439">getRole()</text><rect fill="none" height="30.8016" style="stroke:#000000;stroke-width:0.8999999999999999;" width="120.6" x="725.4" y="112.9969"/><path d="M725.4,112.9969 L762.6,112.9969 L762.6,116.5969 L756.6,122.5969 L725.4,122.5969 L725.4,112.9969 " fill="#EEEEEE" style="stroke:#000000;stroke-width:1.2;"/><text fill="#000000" font-family="sans-serif" font-size="7.8" font-weight="bold" lengthAdjust="spacing" textLength="10.2" x="733.2" y="121.258">ref</text><text fill="#000000" font-family="sans-serif" font-size="7.2" lengthAdjust="spacing" textLength="46.8" x="762.3" y="131.5148">Get Roles List</text><text fill="#000000" font-family="sans-serif" font-size="7.2" lengthAdjust="spacing" textLength="1.8" x="784.8" y="139.5586">&#160;</text><polygon fill="#181818" points="437.1,156.7125,431.1,159.1125,437.1,161.5125,434.7,159.1125" style="stroke:#181818;stroke-width:0.6;"/><line style="stroke:#181818;stroke-width:0.6;stroke-dasharray:2.0,2.0;" x1="433.5" x2="785.1" y1="159.1125" y2="159.1125"/><text fill="#000000" font-family="sans-serif" font-size="7.8" font-weight="bold" lengthAdjust="spacing" textLength="4.2" x="440.7" y="156.2596">4</text><text fill="#000000" font-family="sans-serif" font-size="7.8" lengthAdjust="spacing" textLength="25.2" x="447.3" y="156.2596">roleList</text><polygon fill="#181818" points="39.3,173.8266,33.3,176.2266,39.3,178.6266,36.9,176.2266" style="stroke:#181818;stroke-width:0.6;"/><line style="stroke:#181818;stroke-width:0.6;stroke-dasharray:2.0,2.0;" x1="35.7" x2="426.9" y1="176.2266" y2="176.2266"/><text fill="#000000" font-family="sans-serif" font-size="7.8" font-weight="bold" lengthAdjust="spacing" textLength="4.2" x="42.9" y="173.3736">5</text><text fill="#000000" font-family="sans-serif" font-size="7.8" lengthAdjust="spacing" textLength="103.2" x="49.5" y="173.3736">show the list of available roles</text><polygon fill="#181818" points="417.3,190.9406,423.3,193.3406,417.3,195.7406,419.7,193.3406" style="stroke:#181818;stroke-width:0.6;"/><line style="stroke:#181818;stroke-width:0.6;" x1="32.7" x2="420.9" y1="193.3406" y2="193.3406"/><text fill="#000000" font-family="sans-serif" font-size="7.8" font-weight="bold" lengthAdjust="spacing" textLength="4.2" x="36.9" y="190.4877">6</text><text fill="#000000" font-family="sans-serif" font-size="7.8" lengthAdjust="spacing" textLength="144" x="43.5" y="190.4877">select one or more roles for the employee</text><polygon fill="#181818" points="775.5,208.0547,781.5,210.4547,775.5,212.8547,777.9,210.4547" style="stroke:#181818;stroke-width:0.6;"/><line style="stroke:#181818;stroke-width:0.6;" x1="430.5" x2="779.1" y1="210.4547" y2="210.4547"/><text fill="#000000" font-family="sans-serif" font-size="7.8" font-weight="bold" lengthAdjust="spacing" textLength="4.2" x="434.7" y="207.6018">7</text><text fill="#000000" font-family="sans-serif" font-size="7.8" lengthAdjust="spacing" textLength="34.2" x="441.3" y="207.6018">getStore()</text><rect fill="none" height="30.8016" style="stroke:#000000;stroke-width:0.8999999999999999;" width="120.6" x="725.4" y="215.2547"/><path d="M725.4,215.2547 L762.6,215.2547 L762.6,218.8547 L756.6,224.8547 L725.4,224.8547 L725.4,215.2547 " fill="#EEEEEE" style="stroke:#000000;stroke-width:1.2;"/><text fill="#000000" font-family="sans-serif" font-size="7.8" font-weight="bold" lengthAdjust="spacing" textLength="10.2" x="733.2" y="223.5158">ref</text><text fill="#000000" font-family="sans-serif" font-size="7.2" lengthAdjust="spacing" textLength="48.6" x="761.4" y="233.7727">Get Stores List</text><text fill="#000000" font-family="sans-serif" font-size="7.2" lengthAdjust="spacing" textLength="1.8" x="784.8" y="241.8164">&#160;</text><polygon fill="#181818" points="437.1,258.9703,431.1,261.3703,437.1,263.7703,434.7,261.3703" style="stroke:#181818;stroke-width:0.6;"/><line style="stroke:#181818;stroke-width:0.6;stroke-dasharray:2.0,2.0;" x1="433.5" x2="785.1" y1="261.3703" y2="261.3703"/><text fill="#000000" font-family="sans-serif" font-size="7.8" font-weight="bold" lengthAdjust="spacing" textLength="4.2" x="440.7" y="258.5174">8</text><text fill="#000000" font-family="sans-serif" font-size="7.8" lengthAdjust="spacing" textLength="30" x="447.3" y="258.5174">storeList</text><polygon fill="#181818" points="39.3,276.0844,33.3,278.4844,39.3,280.8844,36.9,278.4844" style="stroke:#181818;stroke-width:0.6;"/><line style="stroke:#181818;stroke-width:0.6;stroke-dasharray:2.0,2.0;" x1="35.7" x2="426.9" y1="278.4844" y2="278.4844"/><text fill="#000000" font-family="sans-serif" font-size="7.8" font-weight="bold" lengthAdjust="spacing" textLength="4.2" x="42.9" y="275.6314">9</text><text fill="#000000" font-family="sans-serif" font-size="7.8" lengthAdjust="spacing" textLength="134.4" x="49.5" y="275.6314">show a list of stores for the user select</text><polygon fill="#181818" points="417.3,293.1984,423.3,295.5984,417.3,297.9984,419.7,295.5984" style="stroke:#181818;stroke-width:0.6;"/><line style="stroke:#181818;stroke-width:0.6;" x1="32.7" x2="420.9" y1="295.5984" y2="295.5984"/><text fill="#000000" font-family="sans-serif" font-size="7.8" font-weight="bold" lengthAdjust="spacing" textLength="8.4" x="36.9" y="292.7455">10</text><text fill="#000000" font-family="sans-serif" font-size="7.8" lengthAdjust="spacing" textLength="138" x="47.7" y="292.7455">select the store to situate the employee</text><polygon fill="#181818" points="39.3,310.3125,33.3,312.7125,39.3,315.1125,36.9,312.7125" style="stroke:#181818;stroke-width:0.6;"/><line style="stroke:#181818;stroke-width:0.6;stroke-dasharray:2.0,2.0;" x1="35.7" x2="426.9" y1="312.7125" y2="312.7125"/><text fill="#000000" font-family="sans-serif" font-size="7.8" font-weight="bold" lengthAdjust="spacing" textLength="8.4" x="42.9" y="309.8596">11</text><text fill="#000000" font-family="sans-serif" font-size="7.8" lengthAdjust="spacing" textLength="366.6" x="53.7" y="309.8596">request data to register a new employee (name,email,passportNumber,taxNumber,address,phoneNumber)</text><polygon fill="#181818" points="417.3,327.4266,423.3,329.8266,417.3,332.2266,419.7,329.8266" style="stroke:#181818;stroke-width:0.6;"/><line style="stroke:#181818;stroke-width:0.6;" x1="32.7" x2="420.9" y1="329.8266" y2="329.8266"/><text fill="#000000" font-family="sans-serif" font-size="7.8" font-weight="bold" lengthAdjust="spacing" textLength="8.4" x="36.9" y="326.9736">12</text><text fill="#000000" font-family="sans-serif" font-size="7.8" lengthAdjust="spacing" textLength="114.6" x="47.7" y="326.9736">submit data of the new employee</text><polygon fill="#181818" points="775.5,344.5406,781.5,346.9406,775.5,349.3406,777.9,346.9406" style="stroke:#181818;stroke-width:0.6;"/><line style="stroke:#181818;stroke-width:0.6;stroke-dasharray:2.0,2.0;" x1="430.5" x2="779.1" y1="346.9406" y2="346.9406"/><text fill="#000000" font-family="sans-serif" font-size="7.8" font-weight="bold" lengthAdjust="spacing" textLength="8.4" x="434.7" y="344.0877">13</text><text fill="#000000" font-family="sans-serif" font-size="7.8" lengthAdjust="spacing" textLength="330" x="445.5" y="344.0877">create(name,email,passportNumber,taxNumber,address,phoneNumber,storeByDescription,role)</text><line style="stroke:#181818;stroke-width:0.6;stroke-dasharray:2.0,2.0;" x1="788.7" x2="813.9" y1="364.0547" y2="364.0547"/><line style="stroke:#181818;stroke-width:0.6;stroke-dasharray:2.0,2.0;" x1="813.9" x2="813.9" y1="364.0547" y2="371.8547"/><line style="stroke:#181818;stroke-width:0.6;stroke-dasharray:2.0,2.0;" x1="789.3" x2="813.9" y1="371.8547" y2="371.8547"/><polygon fill="#181818" points="795.3,369.4547,789.3,371.8547,795.3,374.2547,792.9,371.8547" style="stroke:#181818;stroke-width:0.6;"/><text fill="#000000" font-family="sans-serif" font-size="7.8" font-weight="bold" lengthAdjust="spacing" textLength="8.4" x="792.9" y="361.2018">14</text><text fill="#000000" font-family="sans-serif" font-size="7.8" lengthAdjust="spacing" textLength="148.8" x="803.7" y="361.2018">getStoreByDescription(storeByDescription)</text><polygon fill="#181818" points="1085.1,386.5687,1091.1,388.9688,1085.1,391.3688,1087.5,388.9688" style="stroke:#181818;stroke-width:0.6;"/><line style="stroke:#181818;stroke-width:0.6;stroke-dasharray:2.0,2.0;" x1="788.7" x2="1088.7" y1="388.9688" y2="388.9688"/><text fill="#000000" font-family="sans-serif" font-size="7.8" font-weight="bold" lengthAdjust="spacing" textLength="8.4" x="792.9" y="386.1158">15</text><text fill="#000000" font-family="sans-serif" font-size="7.8" lengthAdjust="spacing" textLength="281.4" x="803.7" y="386.1158">create(name,email,passportNumber,taxNumber,address,phoneNumber,store,role)</text><rect fill="none" height="30.8016" style="stroke:#000000;stroke-width:0.8999999999999999;" width="67.8" x="1077.6" y="393.7688"/><path d="M1077.6,393.7688 L1114.8,393.7688 L1114.8,397.3688 L1108.8,403.3688 L1077.6,403.3688 L1077.6,393.7688 " fill="#EEEEEE" style="stroke:#000000;stroke-width:1.2;"/><text fill="#000000" font-family="sans-serif" font-size="7.8" font-weight="bold" lengthAdjust="spacing" textLength="10.2" x="1085.4" y="402.0299">ref</text><text fill="#000000" font-family="sans-serif" font-size="7.2" lengthAdjust="spacing" textLength="63" x="1080" y="412.2867">Register Employee</text><text fill="#000000" font-family="sans-serif" font-size="7.2" lengthAdjust="spacing" textLength="1.8" x="1110.6" y="420.3305">&#160;</text><polygon fill="#181818" points="795.3,437.4844,789.3,439.8844,795.3,442.2844,792.9,439.8844" style="stroke:#181818;stroke-width:0.6;"/><line style="stroke:#181818;stroke-width:0.6;stroke-dasharray:2.0,2.0;" x1="791.7" x2="1094.7" y1="439.8844" y2="439.8844"/><text fill="#000000" font-family="sans-serif" font-size="7.8" font-weight="bold" lengthAdjust="spacing" textLength="8.4" x="798.9" y="437.0314">16</text><text fill="#000000" font-family="sans-serif" font-size="7.8" lengthAdjust="spacing" textLength="70.8" x="809.7" y="437.0314">employeeRegistered</text><polygon fill="#181818" points="437.1,454.5984,431.1,456.9984,437.1,459.3984,434.7,456.9984" style="stroke:#181818;stroke-width:0.6;"/><line style="stroke:#181818;stroke-width:0.6;stroke-dasharray:2.0,2.0;" x1="433.5" x2="785.1" y1="456.9984" y2="456.9984"/><text fill="#000000" font-family="sans-serif" font-size="7.8" font-weight="bold" lengthAdjust="spacing" textLength="8.4" x="440.7" y="454.1455">17</text><text fill="#000000" font-family="sans-serif" font-size="7.8" lengthAdjust="spacing" textLength="70.8" x="451.5" y="454.1455">employeeRegistered</text><polygon fill="#181818" points="36.3,471.7125,30.3,474.1125,36.3,476.5125,33.9,474.1125" style="stroke:#181818;stroke-width:0.6;"/><line style="stroke:#181818;stroke-width:0.6;stroke-dasharray:2.0,2.0;" x1="32.7" x2="426.9" y1="474.1125" y2="474.1125"/><text fill="#000000" font-family="sans-serif" font-size="7.8" font-weight="bold" lengthAdjust="spacing" textLength="8.4" x="39.9" y="471.2596">18</text><text fill="#000000" font-family="sans-serif" font-size="7.8" lengthAdjust="spacing" textLength="94.8" x="50.7" y="471.2596">displays operation success</text><!--SRC=[lLLDZzem4BtxLuou55RXraF5OQNjBggGTgkABJzWI8PWaTYfxS3oxpjsFWWGFbIjcWiaCtxpPjwpRJTI5MWmXrmh7Q-DpWcSAKdODb9WlC6Ktjq-8p0KErHfrasmQqpqJgeKLfXP4W9BfrMPBya8yMKj4uALrcwfFmJ6JXiOF2MvLD8wW_mw0BJmzF8c6Ct9M1Qe70mcSqevWymqBpAz9rhCGk9YTYFlMIjdT9PH1VpyU_ug-E7ASekEGYK0_mFZHuQ32QTjB3ZDpLLGWA1e1rGZ2fyFBG0p21yMCrxluHyU62CsnC4c0dM80ocvkSveE0gXqwT53JpXmcDe1NhBnAvcLSyFSk0BMdZbPiILR5A9HxwSSj0HlbvCyfJ6uySmIE31KoZRbvdGxMxzw7XsNfq96qllmAq9CeO4lGBSeinmwNteEnG7wXtiHXyuKTbInkO5hGZOWxasDGgRquGg1xt5cJnTq3Dztzd5_qjWBs-eTqlVHjqxnFrsbxZML_raSR6LrbOzDLgKbdbLYbrNkKTXlpx0-JrjfIjz_h705pPqXvwXFoKnjGGTNZaROAWmfuXoDcPKeBM5Dkvd66layAF-Xqd2pTceMBFxgc-ZkgrRBPNBNDOiU4g-Y-EZgR-LfXSlHNCs_IlJACpo-_w5R6nauQHMaTyuevFQhUorQQhQpVOuMZyyXnorImFnwTkl-USGx-NguSNvtcctOOZtMRYvRM1wvANUOxMAUAYE5grq3H8bujJR5Jiu6iXYDhbdQNNTzMwuHDeYmxq5NH1Vl3npTbSSyz3wdDXvypVcNm00]--></g></svg>