<?xml version="1.0" encoding="us-ascii" standalone="no"?><svg xmlns="http://www.w3.org/2000/svg" xmlns:xlink="http://www.w3.org/1999/xlink" contentStyleType="text/css" height="820.2px" preserveAspectRatio="none" style="width:1499px;height:820px;background:#FFFFFF;" version="1.1" viewBox="0 0 1499 820" width="1499.4px" zoomAndPan="magnify"><defs/><g><rect fill="#FFFFFF" height="706.9453" style="stroke:#181818;stroke-width:0.6;" width="6" x="26.7" y="54.3844"/><rect fill="#FFFFFF" height="178.4109" style="stroke:#181818;stroke-width:0.6;" width="6" x="424.5" y="66.6984"/><rect fill="#FFFFFF" height="154.0266" style="stroke:#181818;stroke-width:0.6;" width="6" x="424.5" y="262.2234"/><rect fill="#FFFFFF" height="17.1141" style="stroke:#181818;stroke-width:0.6;" width="6" x="424.5" y="433.3641"/><rect fill="#FFFFFF" height="293.7375" style="stroke:#181818;stroke-width:0.6;" width="6" x="424.5" y="467.5922"/><rect fill="#FFFFFF" height="119.7984" style="stroke:#181818;stroke-width:0.6;" width="6" x="782.7" y="108.1969"/><rect fill="#FFFFFF" height="119.7984" style="stroke:#181818;stroke-width:0.6;" width="6" x="782.7" y="279.3375"/><rect fill="#FFFFFF" height="259.5094" style="stroke:#181818;stroke-width:0.6;" width="6" x="782.7" y="484.7062"/><rect fill="#FFFFFF" height="17.1141" style="stroke:#181818;stroke-width:0.6;" width="6" x="956.7" y="125.3109"/><rect fill="#FFFFFF" height="17.1141" style="stroke:#181818;stroke-width:0.6;" width="6" x="956.7" y="296.4516"/><rect fill="#FFFFFF" height="17.1141" style="stroke:#181818;stroke-width:0.6;" width="6" x="1020.9" y="159.5391"/><rect fill="#FFFFFF" height="17.1141" style="stroke:#181818;stroke-width:0.6;" width="6" x="1020.9" y="330.6797"/><rect fill="#FFFFFF" height="17.1141" style="stroke:#181818;stroke-width:0.6;" width="6" x="1089.3" y="193.7672"/><rect fill="#FFFFFF" height="17.1141" style="stroke:#181818;stroke-width:0.6;" width="6" x="1164" y="364.9078"/><rect fill="#FFFFFF" height="200.3672" style="stroke:#181818;stroke-width:0.6;" width="6" x="1249.5" y="526.7344"/><rect fill="#FFFFFF" height="123.3703" style="stroke:#181818;stroke-width:0.6;" width="6" x="1252.5" y="582.4172"/><rect fill="#FFFFFF" height="73.5422" style="stroke:#181818;stroke-width:0.6;" width="6" x="1255.5" y="607.3313"/><rect fill="#FFFFFF" height="23.7141" style="stroke:#181818;stroke-width:0.6;" width="6" x="1258.5" y="632.2453"/><line style="stroke:#181818;stroke-width:0.3;stroke-dasharray:5.0,5.0;" x1="29.4" x2="29.4" y1="48.3844" y2="772.1297"/><line style="stroke:#181818;stroke-width:0.3;stroke-dasharray:5.0,5.0;" x1="427.2" x2="427.2" y1="48.3844" y2="772.1297"/><line style="stroke:#181818;stroke-width:0.3;stroke-dasharray:5.0,5.0;" x1="785.4" x2="785.4" y1="89.6906" y2="772.1297"/><line style="stroke:#181818;stroke-width:0.3;stroke-dasharray:5.0,5.0;" x1="959.4" x2="959.4" y1="48.3844" y2="772.1297"/><line style="stroke:#181818;stroke-width:0.3;stroke-dasharray:5.0,5.0;" x1="1023.6" x2="1023.6" y1="48.3844" y2="772.1297"/><line style="stroke:#181818;stroke-width:0.3;stroke-dasharray:5.0,5.0;" x1="1092" x2="1092" y1="48.3844" y2="772.1297"/><line style="stroke:#181818;stroke-width:0.3;stroke-dasharray:5.0,5.0;" x1="1167" x2="1167" y1="48.3844" y2="772.1297"/><line style="stroke:#181818;stroke-width:0.3;stroke-dasharray:5.0,5.0;" x1="1252.2" x2="1252.2" y1="48.3844" y2="772.1297"/><line style="stroke:#181818;stroke-width:0.3;stroke-dasharray:5.0,5.0;" x1="1472.1" x2="1472.1" y1="554.4187" y2="772.1297"/><text fill="#000000" font-family="sans-serif" font-size="8.4" lengthAdjust="spacing" textLength="49.8" x="3" y="46.6043">Administrator</text><ellipse cx="29.7" cy="8.1" fill="#E3E3E3" rx="4.8" ry="4.8" style="stroke:#181818;stroke-width:0.3;"/><path d="M29.7,12.9 L29.7,29.1 M21.9,17.7 L37.5,17.7 M29.7,29.1 L21.9,38.1 M29.7,29.1 L37.5,38.1 " fill="none" style="stroke:#181818;stroke-width:0.3;"/><text fill="#000000" font-family="sans-serif" font-size="8.4" lengthAdjust="spacing" textLength="49.8" x="3" y="779.134">Administrator</text><ellipse cx="29.7" cy="786.0141" fill="#E3E3E3" rx="4.8" ry="4.8" style="stroke:#181818;stroke-width:0.3;"/><path d="M29.7,790.8141 L29.7,807.0141 M21.9,795.6141 L37.5,795.6141 M29.7,807.0141 L21.9,816.0141 M29.7,807.0141 L37.5,816.0141 " fill="none" style="stroke:#181818;stroke-width:0.3;"/><rect fill="#E3E3E3" height="17.7844" rx="1.5" ry="1.5" style="stroke:#181818;stroke-width:0.3;" width="87" x="384" y="30"/><text fill="#000000" font-family="sans-serif" font-size="8.4" lengthAdjust="spacing" textLength="78.6" x="388.2" y="41.8043">:RegisterEmployeeUI</text><rect fill="#E3E3E3" height="17.7844" rx="1.5" ry="1.5" style="stroke:#181818;stroke-width:0.3;" width="87" x="384" y="771.5297"/><text fill="#000000" font-family="sans-serif" font-size="8.4" lengthAdjust="spacing" textLength="78.6" x="388.2" y="783.334">:RegisterEmployeeUI</text><rect fill="#E3E3E3" height="17.7844" rx="1.5" ry="1.5" style="stroke:#181818;stroke-width:0.3;" width="117" x="727.2" y="771.5297"/><text fill="#000000" font-family="sans-serif" font-size="8.4" lengthAdjust="spacing" textLength="108.6" x="731.4" y="783.334">:RegisterEmployeeController</text><rect fill="#E3E3E3" height="17.7844" rx="1.5" ry="1.5" style="stroke:#181818;stroke-width:0.3;" width="58.2" x="930.6" y="30"/><text fill="#000000" font-family="sans-serif" font-size="8.4" lengthAdjust="spacing" textLength="49.8" x="934.8" y="41.8043">:Repositories</text><rect fill="#E3E3E3" height="17.7844" rx="1.5" ry="1.5" style="stroke:#181818;stroke-width:0.3;" width="58.2" x="930.6" y="771.5297"/><text fill="#000000" font-family="sans-serif" font-size="8.4" lengthAdjust="spacing" textLength="49.8" x="934.8" y="783.334">:Repositories</text><rect fill="#E3E3E3" height="27.1688" rx="1.5" ry="1.5" style="stroke:#181818;stroke-width:0.3;" width="58.2" x="994.8" y="20.6156"/><text fill="#000000" font-family="sans-serif" font-size="8.4" lengthAdjust="spacing" textLength="44.4" x="1001.7" y="32.4199">repositories</text><text fill="#000000" font-family="sans-serif" font-size="8.4" lengthAdjust="spacing" textLength="49.8" x="999" y="41.8043">:Repositories</text><rect fill="#E3E3E3" height="27.1688" rx="1.5" ry="1.5" style="stroke:#181818;stroke-width:0.3;" width="58.2" x="994.8" y="771.5297"/><text fill="#000000" font-family="sans-serif" font-size="8.4" lengthAdjust="spacing" textLength="44.4" x="1001.7" y="783.334">repositories</text><text fill="#000000" font-family="sans-serif" font-size="8.4" lengthAdjust="spacing" textLength="49.8" x="999" y="792.7184">:Repositories</text><rect fill="#E3E3E3" height="27.1688" rx="1.5" ry="1.5" style="stroke:#181818;stroke-width:0.3;" width="66.6" x="1059" y="20.6156"/><text fill="#000000" font-family="sans-serif" font-size="8.4" lengthAdjust="spacing" textLength="57.6" x="1063.5" y="32.4199">roleRepository:</text><text fill="#000000" font-family="sans-serif" font-size="8.4" lengthAdjust="spacing" textLength="58.2" x="1063.2" y="41.8043">RoleRepository</text><rect fill="#E3E3E3" height="27.1688" rx="1.5" ry="1.5" style="stroke:#181818;stroke-width:0.3;" width="66.6" x="1059" y="771.5297"/><text fill="#000000" font-family="sans-serif" font-size="8.4" lengthAdjust="spacing" textLength="57.6" x="1063.5" y="783.334">roleRepository:</text><text fill="#000000" font-family="sans-serif" font-size="8.4" lengthAdjust="spacing" textLength="58.2" x="1063.2" y="792.7184">RoleRepository</text><rect fill="#E3E3E3" height="27.1688" rx="1.5" ry="1.5" style="stroke:#181818;stroke-width:0.3;" width="70.8" x="1131.6" y="20.6156"/><text fill="#000000" font-family="sans-serif" font-size="8.4" lengthAdjust="spacing" textLength="62.4" x="1135.8" y="32.4199">storeRepository:</text><text fill="#000000" font-family="sans-serif" font-size="8.4" lengthAdjust="spacing" textLength="61.2" x="1136.4" y="41.8043">StoreRepository</text><rect fill="#E3E3E3" height="27.1688" rx="1.5" ry="1.5" style="stroke:#181818;stroke-width:0.3;" width="70.8" x="1131.6" y="771.5297"/><text fill="#000000" font-family="sans-serif" font-size="8.4" lengthAdjust="spacing" textLength="62.4" x="1135.8" y="783.334">storeRepository:</text><text fill="#000000" font-family="sans-serif" font-size="8.4" lengthAdjust="spacing" textLength="61.2" x="1136.4" y="792.7184">StoreRepository</text><rect fill="#E3E3E3" height="27.1688" rx="1.5" ry="1.5" style="stroke:#181818;stroke-width:0.3;" width="88.2" x="1208.4" y="20.6156"/><text fill="#000000" font-family="sans-serif" font-size="8.4" lengthAdjust="spacing" textLength="79.8" x="1212.6" y="32.4199">employeeRepository:</text><text fill="#000000" font-family="sans-serif" font-size="8.4" lengthAdjust="spacing" textLength="78" x="1213.5" y="41.8043">EmployeeRepository</text><rect fill="#E3E3E3" height="27.1688" rx="1.5" ry="1.5" style="stroke:#181818;stroke-width:0.3;" width="88.2" x="1208.4" y="771.5297"/><text fill="#000000" font-family="sans-serif" font-size="8.4" lengthAdjust="spacing" textLength="79.8" x="1212.6" y="783.334">employeeRepository:</text><text fill="#000000" font-family="sans-serif" font-size="8.4" lengthAdjust="spacing" textLength="78" x="1213.5" y="792.7184">EmployeeRepository</text><rect fill="#E3E3E3" height="27.1688" rx="1.5" ry="1.5" style="stroke:#181818;stroke-width:0.3;" width="47.4" x="1448.7" y="771.5297"/><text fill="#000000" font-family="sans-serif" font-size="8.4" lengthAdjust="spacing" textLength="39" x="1452.9" y="783.334">employee:</text><text fill="#000000" font-family="sans-serif" font-size="8.4" lengthAdjust="spacing" textLength="37.2" x="1453.8" y="792.7184">Employee</text><rect fill="#FFFFFF" height="706.9453" style="stroke:#181818;stroke-width:0.6;" width="6" x="26.7" y="54.3844"/><rect fill="#FFFFFF" height="178.4109" style="stroke:#181818;stroke-width:0.6;" width="6" x="424.5" y="66.6984"/><rect fill="#FFFFFF" height="154.0266" style="stroke:#181818;stroke-width:0.6;" width="6" x="424.5" y="262.2234"/><rect fill="#FFFFFF" height="17.1141" style="stroke:#181818;stroke-width:0.6;" width="6" x="424.5" y="433.3641"/><rect fill="#FFFFFF" height="293.7375" style="stroke:#181818;stroke-width:0.6;" width="6" x="424.5" y="467.5922"/><rect fill="#FFFFFF" height="119.7984" style="stroke:#181818;stroke-width:0.6;" width="6" x="782.7" y="108.1969"/><rect fill="#FFFFFF" height="119.7984" style="stroke:#181818;stroke-width:0.6;" width="6" x="782.7" y="279.3375"/><rect fill="#FFFFFF" height="259.5094" style="stroke:#181818;stroke-width:0.6;" width="6" x="782.7" y="484.7062"/><rect fill="#FFFFFF" height="17.1141" style="stroke:#181818;stroke-width:0.6;" width="6" x="956.7" y="125.3109"/><rect fill="#FFFFFF" height="17.1141" style="stroke:#181818;stroke-width:0.6;" width="6" x="956.7" y="296.4516"/><rect fill="#FFFFFF" height="17.1141" style="stroke:#181818;stroke-width:0.6;" width="6" x="1020.9" y="159.5391"/><rect fill="#FFFFFF" height="17.1141" style="stroke:#181818;stroke-width:0.6;" width="6" x="1020.9" y="330.6797"/><rect fill="#FFFFFF" height="17.1141" style="stroke:#181818;stroke-width:0.6;" width="6" x="1089.3" y="193.7672"/><rect fill="#FFFFFF" height="17.1141" style="stroke:#181818;stroke-width:0.6;" width="6" x="1164" y="364.9078"/><rect fill="#FFFFFF" height="200.3672" style="stroke:#181818;stroke-width:0.6;" width="6" x="1249.5" y="526.7344"/><rect fill="#FFFFFF" height="123.3703" style="stroke:#181818;stroke-width:0.6;" width="6" x="1252.5" y="582.4172"/><rect fill="#FFFFFF" height="73.5422" style="stroke:#181818;stroke-width:0.6;" width="6" x="1255.5" y="607.3313"/><rect fill="#FFFFFF" height="23.7141" style="stroke:#181818;stroke-width:0.6;" width="6" x="1258.5" y="632.2453"/><polygon fill="#181818" points="417.3,64.2984,423.3,66.6984,417.3,69.0984,419.7,66.6984" style="stroke:#181818;stroke-width:0.6;"/><line style="stroke:#181818;stroke-width:0.6;" x1="32.7" x2="420.9" y1="66.6984" y2="66.6984"/><text fill="#000000" font-family="sans-serif" font-size="7.8" font-weight="bold" lengthAdjust="spacing" textLength="4.2" x="36.9" y="63.8455">1</text><text fill="#000000" font-family="sans-serif" font-size="7.8" lengthAdjust="spacing" textLength="112.8" x="43.5" y="63.8455">asks to register a new employee</text><polygon fill="#181818" points="720,81.4125,726,83.8125,720,86.2125,722.4,83.8125" style="stroke:#181818;stroke-width:0.6;"/><line style="stroke:#181818;stroke-width:0.6;" x1="430.5" x2="723.6" y1="83.8125" y2="83.8125"/><text fill="#000000" font-family="sans-serif" font-size="7.8" font-weight="bold" lengthAdjust="spacing" textLength="4.2" x="434.7" y="80.9596">2</text><text fill="#000000" font-family="sans-serif" font-size="7.8" lengthAdjust="spacing" textLength="21.6" x="441.3" y="80.9596">create</text><rect fill="#E3E3E3" height="17.7844" rx="1.5" ry="1.5" style="stroke:#181818;stroke-width:0.3;" width="117" x="727.2" y="71.4984"/><text fill="#000000" font-family="sans-serif" font-size="8.4" lengthAdjust="spacing" textLength="108.6" x="731.4" y="83.3027">:RegisterEmployeeController</text><polygon fill="#181818" points="775.5,105.7969,781.5,108.1969,775.5,110.5969,777.9,108.1969" style="stroke:#181818;stroke-width:0.6;"/><line style="stroke:#181818;stroke-width:0.6;" x1="430.5" x2="779.1" y1="108.1969" y2="108.1969"/><text fill="#000000" font-family="sans-serif" font-size="7.8" font-weight="bold" lengthAdjust="spacing" textLength="4.2" x="434.7" y="105.3439">3</text><text fill="#000000" font-family="sans-serif" font-size="7.8" lengthAdjust="spacing" textLength="35.4" x="441.3" y="105.3439">getRoles()</text><polygon fill="#181818" points="949.5,122.9109,955.5,125.3109,949.5,127.7109,951.9,125.3109" style="stroke:#181818;stroke-width:0.6;"/><line style="stroke:#181818;stroke-width:0.6;" x1="788.7" x2="953.1" y1="125.3109" y2="125.3109"/><text fill="#000000" font-family="sans-serif" font-size="7.8" font-weight="bold" lengthAdjust="spacing" textLength="10.8" x="792.9" y="122.458">3.1</text><text fill="#000000" font-family="sans-serif" font-size="7.8" lengthAdjust="spacing" textLength="45" x="806.1" y="122.458">getInstance()</text><polygon fill="#181818" points="795.3,140.025,789.3,142.425,795.3,144.825,792.9,142.425" style="stroke:#181818;stroke-width:0.6;"/><line style="stroke:#181818;stroke-width:0.6;stroke-dasharray:2.0,2.0;" x1="791.7" x2="959.1" y1="142.425" y2="142.425"/><text fill="#000000" font-family="sans-serif" font-size="7.8" font-weight="bold" lengthAdjust="spacing" textLength="10.8" x="798.9" y="139.5721">3.2</text><text fill="#000000" font-family="sans-serif" font-size="7.8" lengthAdjust="spacing" textLength="40.2" x="812.1" y="139.5721">repositories</text><polygon fill="#181818" points="1013.7,157.1391,1019.7,159.5391,1013.7,161.9391,1016.1,159.5391" style="stroke:#181818;stroke-width:0.6;"/><line style="stroke:#181818;stroke-width:0.6;" x1="788.7" x2="1017.3" y1="159.5391" y2="159.5391"/><text fill="#000000" font-family="sans-serif" font-size="7.8" font-weight="bold" lengthAdjust="spacing" textLength="10.8" x="792.9" y="156.6861">3.3</text><text fill="#000000" font-family="sans-serif" font-size="7.8" lengthAdjust="spacing" textLength="68.4" x="806.1" y="156.6861">getRoleRepository()</text><polygon fill="#181818" points="795.3,174.2531,789.3,176.6531,795.3,179.0531,792.9,176.6531" style="stroke:#181818;stroke-width:0.6;"/><line style="stroke:#181818;stroke-width:0.6;stroke-dasharray:2.0,2.0;" x1="791.7" x2="1023.3" y1="176.6531" y2="176.6531"/><text fill="#000000" font-family="sans-serif" font-size="7.8" font-weight="bold" lengthAdjust="spacing" textLength="10.8" x="798.9" y="173.8002">3.4</text><text fill="#000000" font-family="sans-serif" font-size="7.8" lengthAdjust="spacing" textLength="49.8" x="812.1" y="173.8002">roleRepository</text><polygon fill="#181818" points="1082.1,191.3672,1088.1,193.7672,1082.1,196.1672,1084.5,193.7672" style="stroke:#181818;stroke-width:0.6;"/><line style="stroke:#181818;stroke-width:0.6;" x1="788.7" x2="1085.7" y1="193.7672" y2="193.7672"/><text fill="#000000" font-family="sans-serif" font-size="7.8" font-weight="bold" lengthAdjust="spacing" textLength="10.8" x="792.9" y="190.9143">3.5</text><text fill="#000000" font-family="sans-serif" font-size="7.8" lengthAdjust="spacing" textLength="35.4" x="806.1" y="190.9143">getRoles()</text><polygon fill="#181818" points="795.3,208.4813,789.3,210.8813,795.3,213.2813,792.9,210.8813" style="stroke:#181818;stroke-width:0.6;"/><line style="stroke:#181818;stroke-width:0.6;stroke-dasharray:2.0,2.0;" x1="791.7" x2="1091.7" y1="210.8813" y2="210.8813"/><text fill="#000000" font-family="sans-serif" font-size="7.8" font-weight="bold" lengthAdjust="spacing" textLength="10.8" x="798.9" y="208.0283">3.6</text><text fill="#000000" font-family="sans-serif" font-size="7.8" lengthAdjust="spacing" textLength="25.2" x="812.1" y="208.0283">roleList</text><polygon fill="#181818" points="437.1,225.5953,431.1,227.9953,437.1,230.3953,434.7,227.9953" style="stroke:#181818;stroke-width:0.6;"/><line style="stroke:#181818;stroke-width:0.6;stroke-dasharray:2.0,2.0;" x1="433.5" x2="785.1" y1="227.9953" y2="227.9953"/><text fill="#000000" font-family="sans-serif" font-size="7.8" font-weight="bold" lengthAdjust="spacing" textLength="4.2" x="440.7" y="225.1424">4</text><text fill="#000000" font-family="sans-serif" font-size="7.8" lengthAdjust="spacing" textLength="25.2" x="447.3" y="225.1424">roleList</text><polygon fill="#181818" points="39.3,242.7094,33.3,245.1094,39.3,247.5094,36.9,245.1094" style="stroke:#181818;stroke-width:0.6;"/><line style="stroke:#181818;stroke-width:0.6;stroke-dasharray:2.0,2.0;" x1="35.7" x2="426.9" y1="245.1094" y2="245.1094"/><text fill="#000000" font-family="sans-serif" font-size="7.8" font-weight="bold" lengthAdjust="spacing" textLength="4.2" x="42.9" y="242.2564">5</text><text fill="#000000" font-family="sans-serif" font-size="7.8" lengthAdjust="spacing" textLength="103.2" x="49.5" y="242.2564">show the list of available roles</text><polygon fill="#181818" points="417.3,259.8234,423.3,262.2234,417.3,264.6234,419.7,262.2234" style="stroke:#181818;stroke-width:0.6;"/><line style="stroke:#181818;stroke-width:0.6;" x1="32.7" x2="420.9" y1="262.2234" y2="262.2234"/><text fill="#000000" font-family="sans-serif" font-size="7.8" font-weight="bold" lengthAdjust="spacing" textLength="4.2" x="36.9" y="259.3705">6</text><text fill="#000000" font-family="sans-serif" font-size="7.8" lengthAdjust="spacing" textLength="144" x="43.5" y="259.3705">select one or more roles for the employee</text><polygon fill="#181818" points="775.5,276.9375,781.5,279.3375,775.5,281.7375,777.9,279.3375" style="stroke:#181818;stroke-width:0.6;"/><line style="stroke:#181818;stroke-width:0.6;" x1="430.5" x2="779.1" y1="279.3375" y2="279.3375"/><text fill="#000000" font-family="sans-serif" font-size="7.8" font-weight="bold" lengthAdjust="spacing" textLength="4.2" x="434.7" y="276.4846">7</text><text fill="#000000" font-family="sans-serif" font-size="7.8" lengthAdjust="spacing" textLength="38.4" x="441.3" y="276.4846">getStores()</text><polygon fill="#181818" points="949.5,294.0516,955.5,296.4516,949.5,298.8516,951.9,296.4516" style="stroke:#181818;stroke-width:0.6;"/><line style="stroke:#181818;stroke-width:0.6;" x1="788.7" x2="953.1" y1="296.4516" y2="296.4516"/><text fill="#000000" font-family="sans-serif" font-size="7.8" font-weight="bold" lengthAdjust="spacing" textLength="10.8" x="792.9" y="293.5986">7.1</text><text fill="#000000" font-family="sans-serif" font-size="7.8" lengthAdjust="spacing" textLength="45" x="806.1" y="293.5986">getInstance()</text><polygon fill="#181818" points="795.3,311.1656,789.3,313.5656,795.3,315.9656,792.9,313.5656" style="stroke:#181818;stroke-width:0.6;"/><line style="stroke:#181818;stroke-width:0.6;stroke-dasharray:2.0,2.0;" x1="791.7" x2="959.1" y1="313.5656" y2="313.5656"/><text fill="#000000" font-family="sans-serif" font-size="7.8" font-weight="bold" lengthAdjust="spacing" textLength="10.8" x="798.9" y="310.7127">7.2</text><text fill="#000000" font-family="sans-serif" font-size="7.8" lengthAdjust="spacing" textLength="40.2" x="812.1" y="310.7127">repositories</text><polygon fill="#181818" points="1013.7,328.2797,1019.7,330.6797,1013.7,333.0797,1016.1,330.6797" style="stroke:#181818;stroke-width:0.6;"/><line style="stroke:#181818;stroke-width:0.6;" x1="788.7" x2="1017.3" y1="330.6797" y2="330.6797"/><text fill="#000000" font-family="sans-serif" font-size="7.8" font-weight="bold" lengthAdjust="spacing" textLength="10.8" x="792.9" y="327.8268">7.3</text><text fill="#000000" font-family="sans-serif" font-size="7.8" lengthAdjust="spacing" textLength="71.4" x="806.1" y="327.8268">getStoreRepository()</text><polygon fill="#181818" points="795.3,345.3938,789.3,347.7938,795.3,350.1937,792.9,347.7938" style="stroke:#181818;stroke-width:0.6;"/><line style="stroke:#181818;stroke-width:0.6;stroke-dasharray:2.0,2.0;" x1="791.7" x2="1023.3" y1="347.7938" y2="347.7938"/><text fill="#000000" font-family="sans-serif" font-size="7.8" font-weight="bold" lengthAdjust="spacing" textLength="10.8" x="798.9" y="344.9408">7.4</text><text fill="#000000" font-family="sans-serif" font-size="7.8" lengthAdjust="spacing" textLength="54.6" x="812.1" y="344.9408">storeRepository</text><polygon fill="#181818" points="1156.8,362.5078,1162.8,364.9078,1156.8,367.3078,1159.2,364.9078" style="stroke:#181818;stroke-width:0.6;"/><line style="stroke:#181818;stroke-width:0.6;" x1="788.7" x2="1160.4" y1="364.9078" y2="364.9078"/><text fill="#000000" font-family="sans-serif" font-size="7.8" font-weight="bold" lengthAdjust="spacing" textLength="10.8" x="792.9" y="362.0549">7.5</text><text fill="#000000" font-family="sans-serif" font-size="7.8" lengthAdjust="spacing" textLength="38.4" x="806.1" y="362.0549">getStores()</text><polygon fill="#181818" points="795.3,379.6219,789.3,382.0219,795.3,384.4219,792.9,382.0219" style="stroke:#181818;stroke-width:0.6;"/><line style="stroke:#181818;stroke-width:0.6;stroke-dasharray:2.0,2.0;" x1="791.7" x2="1166.4" y1="382.0219" y2="382.0219"/><text fill="#000000" font-family="sans-serif" font-size="7.8" font-weight="bold" lengthAdjust="spacing" textLength="10.8" x="798.9" y="379.1689">7.6</text><text fill="#000000" font-family="sans-serif" font-size="7.8" lengthAdjust="spacing" textLength="30" x="812.1" y="379.1689">storeList</text><polygon fill="#181818" points="437.1,396.7359,431.1,399.1359,437.1,401.5359,434.7,399.1359" style="stroke:#181818;stroke-width:0.6;"/><line style="stroke:#181818;stroke-width:0.6;stroke-dasharray:2.0,2.0;" x1="433.5" x2="785.1" y1="399.1359" y2="399.1359"/><text fill="#000000" font-family="sans-serif" font-size="7.8" font-weight="bold" lengthAdjust="spacing" textLength="4.2" x="440.7" y="396.283">8</text><text fill="#000000" font-family="sans-serif" font-size="7.8" lengthAdjust="spacing" textLength="30" x="447.3" y="396.283">storeList</text><polygon fill="#181818" points="39.3,413.85,33.3,416.25,39.3,418.65,36.9,416.25" style="stroke:#181818;stroke-width:0.6;"/><line style="stroke:#181818;stroke-width:0.6;stroke-dasharray:2.0,2.0;" x1="35.7" x2="426.9" y1="416.25" y2="416.25"/><text fill="#000000" font-family="sans-serif" font-size="7.8" font-weight="bold" lengthAdjust="spacing" textLength="4.2" x="42.9" y="413.3971">9</text><text fill="#000000" font-family="sans-serif" font-size="7.8" lengthAdjust="spacing" textLength="134.4" x="49.5" y="413.3971">show a list of stores for the user select</text><polygon fill="#181818" points="417.3,430.9641,423.3,433.3641,417.3,435.7641,419.7,433.3641" style="stroke:#181818;stroke-width:0.6;"/><line style="stroke:#181818;stroke-width:0.6;" x1="32.7" x2="420.9" y1="433.3641" y2="433.3641"/><text fill="#000000" font-family="sans-serif" font-size="7.8" font-weight="bold" lengthAdjust="spacing" textLength="8.4" x="36.9" y="430.5111">10</text><text fill="#000000" font-family="sans-serif" font-size="7.8" lengthAdjust="spacing" textLength="138" x="47.7" y="430.5111">select the store to situate the employee</text><polygon fill="#181818" points="39.3,448.0781,33.3,450.4781,39.3,452.8781,36.9,450.4781" style="stroke:#181818;stroke-width:0.6;"/><line style="stroke:#181818;stroke-width:0.6;stroke-dasharray:2.0,2.0;" x1="35.7" x2="426.9" y1="450.4781" y2="450.4781"/><text fill="#000000" font-family="sans-serif" font-size="7.8" font-weight="bold" lengthAdjust="spacing" textLength="8.4" x="42.9" y="447.6252">11</text><text fill="#000000" font-family="sans-serif" font-size="7.8" lengthAdjust="spacing" textLength="366.6" x="53.7" y="447.6252">request data to register a new employee (name,email,passportNumber,taxNumber,address,phoneNumber)</text><polygon fill="#181818" points="417.3,465.1922,423.3,467.5922,417.3,469.9922,419.7,467.5922" style="stroke:#181818;stroke-width:0.6;"/><line style="stroke:#181818;stroke-width:0.6;" x1="32.7" x2="420.9" y1="467.5922" y2="467.5922"/><text fill="#000000" font-family="sans-serif" font-size="7.8" font-weight="bold" lengthAdjust="spacing" textLength="8.4" x="36.9" y="464.7393">12</text><text fill="#000000" font-family="sans-serif" font-size="7.8" lengthAdjust="spacing" textLength="114.6" x="47.7" y="464.7393">submit data of the new employee</text><polygon fill="#181818" points="775.5,482.3063,781.5,484.7062,775.5,487.1063,777.9,484.7062" style="stroke:#181818;stroke-width:0.6;"/><line style="stroke:#181818;stroke-width:0.6;" x1="430.5" x2="779.1" y1="484.7062" y2="484.7062"/><text fill="#000000" font-family="sans-serif" font-size="7.8" font-weight="bold" lengthAdjust="spacing" textLength="8.4" x="434.7" y="481.8533">13</text><text fill="#000000" font-family="sans-serif" font-size="7.8" lengthAdjust="spacing" textLength="330" x="445.5" y="481.8533">create(name,email,passportNumber,taxNumber,address,phoneNumber,storeByDescription,role)</text><line style="stroke:#181818;stroke-width:0.6;stroke-dasharray:2.0,2.0;" x1="788.7" x2="813.9" y1="501.8203" y2="501.8203"/><line style="stroke:#181818;stroke-width:0.6;stroke-dasharray:2.0,2.0;" x1="813.9" x2="813.9" y1="501.8203" y2="509.6203"/><line style="stroke:#181818;stroke-width:0.6;stroke-dasharray:2.0,2.0;" x1="789.3" x2="813.9" y1="509.6203" y2="509.6203"/><polygon fill="#181818" points="795.3,507.2203,789.3,509.6203,795.3,512.0203,792.9,509.6203" style="stroke:#181818;stroke-width:0.6;"/><text fill="#000000" font-family="sans-serif" font-size="7.8" font-weight="bold" lengthAdjust="spacing" textLength="8.4" x="792.9" y="498.9674">14</text><text fill="#000000" font-family="sans-serif" font-size="7.8" lengthAdjust="spacing" textLength="148.8" x="803.7" y="498.9674">getStoreByDescription(storeByDescription)</text><polygon fill="#181818" points="1242.3,524.3344,1248.3,526.7344,1242.3,529.1344,1244.7,526.7344" style="stroke:#181818;stroke-width:0.6;"/><line style="stroke:#181818;stroke-width:0.6;" x1="788.7" x2="1245.9" y1="526.7344" y2="526.7344"/><text fill="#000000" font-family="sans-serif" font-size="7.8" font-weight="bold" lengthAdjust="spacing" textLength="8.4" x="792.9" y="523.8814">15</text><text fill="#000000" font-family="sans-serif" font-size="7.8" lengthAdjust="spacing" textLength="281.4" x="803.7" y="523.8814">create(name,email,passportNumber,taxNumber,address,phoneNumber,store,role)</text><polygon fill="#181818" points="1441.5,550.1625,1447.5,552.5625,1441.5,554.9625,1443.9,552.5625" style="stroke:#181818;stroke-width:0.6;"/><line style="stroke:#181818;stroke-width:0.6;" x1="1255.5" x2="1445.1" y1="552.5625" y2="552.5625"/><text fill="#000000" font-family="sans-serif" font-size="7.8" font-weight="bold" lengthAdjust="spacing" textLength="15" x="1259.7" y="545.3525">15.1</text><text fill="#000000" font-family="sans-serif" font-size="7.8" lengthAdjust="spacing" textLength="161.4" x="1277.1" y="540.9955">create(name,email,password,passportNumber,</text><text fill="#000000" font-family="sans-serif" font-size="7.8" lengthAdjust="spacing" textLength="157.8" x="1279.5" y="549.7096">taxNumber,address,phoneNumber,store, role)</text><rect fill="#E3E3E3" height="27.1688" rx="1.5" ry="1.5" style="stroke:#181818;stroke-width:0.3;" width="47.4" x="1448.7" y="531.5344"/><text fill="#000000" font-family="sans-serif" font-size="8.4" lengthAdjust="spacing" textLength="39" x="1452.9" y="543.3387">employee:</text><text fill="#000000" font-family="sans-serif" font-size="8.4" lengthAdjust="spacing" textLength="37.2" x="1453.8" y="552.723">Employee</text><line style="stroke:#181818;stroke-width:0.6;" x1="1255.5" x2="1283.7" y1="574.6172" y2="574.6172"/><line style="stroke:#181818;stroke-width:0.6;" x1="1283.7" x2="1283.7" y1="574.6172" y2="582.4172"/><line style="stroke:#181818;stroke-width:0.6;" x1="1259.1" x2="1283.7" y1="582.4172" y2="582.4172"/><polygon fill="#181818" points="1265.1,580.0172,1259.1,582.4172,1265.1,584.8172,1262.7,582.4172" style="stroke:#181818;stroke-width:0.6;"/><text fill="#000000" font-family="sans-serif" font-size="7.8" font-weight="bold" lengthAdjust="spacing" textLength="15" x="1262.7" y="571.7643">15.2</text><text fill="#000000" font-family="sans-serif" font-size="7.8" lengthAdjust="spacing" textLength="88.2" x="1280.1" y="571.7643">addEmployee (employee)</text><line style="stroke:#181818;stroke-width:0.6;" x1="1258.5" x2="1286.7" y1="599.5313" y2="599.5313"/><line style="stroke:#181818;stroke-width:0.6;" x1="1286.7" x2="1286.7" y1="599.5313" y2="607.3313"/><line style="stroke:#181818;stroke-width:0.6;" x1="1262.1" x2="1286.7" y1="607.3313" y2="607.3313"/><polygon fill="#181818" points="1268.1,604.9313,1262.1,607.3313,1268.1,609.7312,1265.7,607.3313" style="stroke:#181818;stroke-width:0.6;"/><text fill="#000000" font-family="sans-serif" font-size="7.8" font-weight="bold" lengthAdjust="spacing" textLength="15" x="1265.7" y="596.6783">15.3</text><text fill="#000000" font-family="sans-serif" font-size="7.8" lengthAdjust="spacing" textLength="69" x="1283.1" y="596.6783">generatePassword()</text><line style="stroke:#181818;stroke-width:0.6;" x1="1261.5" x2="1289.7" y1="624.4453" y2="624.4453"/><line style="stroke:#181818;stroke-width:0.6;" x1="1289.7" x2="1289.7" y1="624.4453" y2="632.2453"/><line style="stroke:#181818;stroke-width:0.6;" x1="1265.1" x2="1289.7" y1="632.2453" y2="632.2453"/><polygon fill="#181818" points="1271.1,629.8453,1265.1,632.2453,1271.1,634.6453,1268.7,632.2453" style="stroke:#181818;stroke-width:0.6;"/><text fill="#000000" font-family="sans-serif" font-size="7.8" font-weight="bold" lengthAdjust="spacing" textLength="15" x="1268.7" y="621.5924">15.4</text><text fill="#000000" font-family="sans-serif" font-size="7.8" lengthAdjust="spacing" textLength="99" x="1286.1" y="621.5924">validateEmployee(employee)</text><line style="stroke:#181818;stroke-width:0.6;stroke-dasharray:2.0,2.0;" x1="1264.5" x2="1289.7" y1="655.3594" y2="655.3594"/><line style="stroke:#181818;stroke-width:0.6;stroke-dasharray:2.0,2.0;" x1="1289.7" x2="1289.7" y1="655.3594" y2="663.1594"/><line style="stroke:#181818;stroke-width:0.6;stroke-dasharray:2.0,2.0;" x1="1261.5" x2="1289.7" y1="663.1594" y2="663.1594"/><polygon fill="#181818" points="1267.5,660.7594,1261.5,663.1594,1267.5,665.5594,1265.1,663.1594" style="stroke:#181818;stroke-width:0.6;"/><text fill="#000000" font-family="sans-serif" font-size="7.8" font-weight="bold" lengthAdjust="spacing" textLength="15" x="1268.7" y="652.5064">15.5</text><text fill="#000000" font-family="sans-serif" font-size="7.8" lengthAdjust="spacing" textLength="2.4" x="1286.1" y="652.5064">&#160;</text><line style="stroke:#181818;stroke-width:0.6;stroke-dasharray:2.0,2.0;" x1="1261.5" x2="1286.7" y1="680.2734" y2="680.2734"/><line style="stroke:#181818;stroke-width:0.6;stroke-dasharray:2.0,2.0;" x1="1286.7" x2="1286.7" y1="680.2734" y2="688.0734"/><line style="stroke:#181818;stroke-width:0.6;stroke-dasharray:2.0,2.0;" x1="1258.5" x2="1286.7" y1="688.0734" y2="688.0734"/><polygon fill="#181818" points="1264.5,685.6734,1258.5,688.0734,1264.5,690.4734,1262.1,688.0734" style="stroke:#181818;stroke-width:0.6;"/><text fill="#000000" font-family="sans-serif" font-size="7.8" font-weight="bold" lengthAdjust="spacing" textLength="15" x="1265.7" y="677.4205">15.6</text><text fill="#000000" font-family="sans-serif" font-size="7.8" lengthAdjust="spacing" textLength="2.4" x="1283.1" y="677.4205">&#160;</text><line style="stroke:#181818;stroke-width:0.6;stroke-dasharray:2.0,2.0;" x1="1258.5" x2="1283.7" y1="705.1875" y2="705.1875"/><line style="stroke:#181818;stroke-width:0.6;stroke-dasharray:2.0,2.0;" x1="1283.7" x2="1283.7" y1="705.1875" y2="712.9875"/><line style="stroke:#181818;stroke-width:0.6;stroke-dasharray:2.0,2.0;" x1="1255.5" x2="1283.7" y1="712.9875" y2="712.9875"/><polygon fill="#181818" points="1261.5,710.5875,1255.5,712.9875,1261.5,715.3875,1259.1,712.9875" style="stroke:#181818;stroke-width:0.6;"/><text fill="#000000" font-family="sans-serif" font-size="7.8" font-weight="bold" lengthAdjust="spacing" textLength="15" x="1262.7" y="702.3346">15.7</text><text fill="#000000" font-family="sans-serif" font-size="7.8" lengthAdjust="spacing" textLength="2.4" x="1280.1" y="702.3346">&#160;</text><polygon fill="#181818" points="795.3,724.7016,789.3,727.1016,795.3,729.5016,792.9,727.1016" style="stroke:#181818;stroke-width:0.6;"/><line style="stroke:#181818;stroke-width:0.6;stroke-dasharray:2.0,2.0;" x1="791.7" x2="1251.9" y1="727.1016" y2="727.1016"/><text fill="#000000" font-family="sans-serif" font-size="7.8" font-weight="bold" lengthAdjust="spacing" textLength="8.4" x="798.9" y="724.2486">16</text><text fill="#000000" font-family="sans-serif" font-size="7.8" lengthAdjust="spacing" textLength="70.8" x="809.7" y="724.2486">employeeRegistered</text><polygon fill="#181818" points="437.1,741.8156,431.1,744.2156,437.1,746.6156,434.7,744.2156" style="stroke:#181818;stroke-width:0.6;"/><line style="stroke:#181818;stroke-width:0.6;stroke-dasharray:2.0,2.0;" x1="433.5" x2="785.1" y1="744.2156" y2="744.2156"/><text fill="#000000" font-family="sans-serif" font-size="7.8" font-weight="bold" lengthAdjust="spacing" textLength="8.4" x="440.7" y="741.3627">17</text><text fill="#000000" font-family="sans-serif" font-size="7.8" lengthAdjust="spacing" textLength="70.8" x="451.5" y="741.3627">employeeRegistered</text><polygon fill="#181818" points="36.3,758.9297,30.3,761.3297,36.3,763.7297,33.9,761.3297" style="stroke:#181818;stroke-width:0.6;"/><line style="stroke:#181818;stroke-width:0.6;stroke-dasharray:2.0,2.0;" x1="32.7" x2="426.9" y1="761.3297" y2="761.3297"/><text fill="#000000" font-family="sans-serif" font-size="7.8" font-weight="bold" lengthAdjust="spacing" textLength="8.4" x="39.9" y="758.4768">18</text><text fill="#000000" font-family="sans-serif" font-size="7.8" lengthAdjust="spacing" textLength="94.8" x="50.7" y="758.4768">displays operation success</text><!--SRC=[xLTBRzim3BxxLn2zB2dI0SMUo650r-OG8DsAfBtrejXi8jIMF4bfcdy_Idu_Ohj5TbikRIJouqUH_AJePovYfbW4aHJItoeP8HYrGq_dEp7pdza6L-OG8YZq3HERi6oWjooGUousyCH2ZPx7TaQANRH6vNaVjZn0U9BIhEMhntmZ5PnT1H4NN1l5wEiPC0rNDxSUeHdkyvW90sVJ9Mx80jKiYaDvG7oOEyE7UO_TjHH6oJ341FZwVhbeUCHISuhCKJkRVE6muZOtObzrKIMFHz44k5jStTSyP8W5xFHHB2iBITZVYsNLIzDUrMrLNN5-g_jbpG_Jt2kkiyQYyvxTtXtnBlbabWlFbeo_C8EkH03s3rpye3h0b8oUDHX9NP7K01W8t4C6w5bxo06eT6xXOKx-jYxdvuJXAwJDR0VIBThOeB67faTZjrV_vB2kmgqMUHl2fu-NhIRPnuMaq2sTa32P2qrzx-CHCWrIRItLwMa_RT4lqWEPGha9Ew42V3-Dx21iHnSrA626vkyceZTX5-MYA7brQeOcsHyhBozDN7zdDOjf1xM_UXQybio2ni8RN2mNvhXvgPy_Ursf4WatdWM5diX7HyWE96LaPtvAEY_tOBO88K62V0BsmdZ8rlPQiCTPC2z1PqCFDUdG6D9L0b8Wq8qGaSeb87HLA1UaAYAjGW9jck4KyoIYyUs_QBnND6hNrhzLZTgjUNhPi1VkWEPgfECkwjvq77ezdJS9HtUSKaT_7oGR1O7JoGRBHSEX5sE-qyGh4ODE_MZH3klkqEmJX6g_i_OLwJZo_2YHK_XdXqGiO8Prl6HW95Y44un8y2OnqpgMolnoXpenx3NzZmK1fQOdyPPaBLaR9p7x4jgj8vwIe2EoEVIze-eFfkmXzLwY4tUIFmytg7t5OyEbc5X17jU25pLFMoO9dir61M3Kn4mc9nii-nOz3V5MhkwfcwuLGt3vXNIzjMsjVKgBtgR7YEsb2keC7mKC8Ga9ovxOT2G4CSjRBsk3iTTzfxbqkoIZ6cE30ka76DwbEOt6tZ1PUsES5nPowcpC4YhbSvfmHSWqvb3T79X87-fGn7wqEbAZTR-c9SgXakc3uWTW8byOUCS1q_5puZCTukfctciLzu3hE6G73JAspKGJJcBc-zJ-RS9N-cP_JVu5]--></g></svg>