<?xml version="1.0" encoding="us-ascii" standalone="no"?><svg xmlns="http://www.w3.org/2000/svg" xmlns:xlink="http://www.w3.org/1999/xlink" contentStyleType="text/css" height="1073px" preserveAspectRatio="none" style="width:1964px;height:1073px;background:#FFFFFF;" version="1.1" viewBox="0 0 1964 1073" width="1964px" zoomAndPan="magnify"><defs/><g><rect fill="#FFFFFF" height="884.7891" style="stroke:#181818;stroke-width:1.0;" width="10" x="44.5" y="90.6406"/><rect fill="#FFFFFF" height="182.5469" style="stroke:#181818;stroke-width:1.0;" width="10" x="707.5" y="111.1641"/><rect fill="#FFFFFF" height="141.9063" style="stroke:#181818;stroke-width:1.0;" width="10" x="707.5" y="322.2344"/><rect fill="#FFFFFF" height="28.5234" style="stroke:#181818;stroke-width:1.0;" width="10" x="707.5" y="492.6641"/><rect fill="#FFFFFF" height="425.7188" style="stroke:#181818;stroke-width:1.0;" width="10" x="707.5" y="549.7109"/><rect fill="#FFFFFF" height="84.8594" style="stroke:#181818;stroke-width:1.0;" width="10" x="1288.5" y="180.3281"/><rect fill="#FFFFFF" height="84.8594" style="stroke:#181818;stroke-width:1.0;" width="10" x="1288.5" y="350.7578"/><rect fill="#FFFFFF" height="84.8594" style="stroke:#181818;stroke-width:1.0;" width="10" x="1288.5" y="578.2344"/><rect fill="#FFFFFF" height="84.8594" style="stroke:#181818;stroke-width:1.0;" width="10" x="1288.5" y="691.6172"/><rect fill="#FFFFFF" height="141.9063" style="stroke:#181818;stroke-width:1.0;" width="10" x="1288.5" y="805"/><rect fill="#FFFFFF" height="84.8594" style="stroke:#181818;stroke-width:1.0;" width="10" x="1869.5" y="833.5234"/><line style="stroke:#181818;stroke-width:0.5;stroke-dasharray:5.0,5.0;" x1="49" x2="49" y1="80.6406" y2="993.4297"/><line style="stroke:#181818;stroke-width:0.5;stroke-dasharray:5.0,5.0;" x1="712" x2="712" y1="80.6406" y2="993.4297"/><line style="stroke:#181818;stroke-width:0.5;stroke-dasharray:5.0,5.0;" x1="1293" x2="1293" y1="149.4844" y2="993.4297"/><line style="stroke:#181818;stroke-width:0.5;stroke-dasharray:5.0,5.0;" x1="1874" x2="1874" y1="80.6406" y2="993.4297"/><text fill="#000000" font-family="sans-serif" font-size="14" lengthAdjust="spacing" textLength="83" x="5" y="77.6738">Administrator</text><ellipse cx="49.5" cy="13.5" fill="#E3E3E3" rx="8" ry="8" style="stroke:#181818;stroke-width:0.5;"/><path d="M49.5,21.5 L49.5,48.5 M36.5,29.5 L62.5,29.5 M49.5,48.5 L36.5,63.5 M49.5,48.5 L62.5,63.5 " fill="none" style="stroke:#181818;stroke-width:0.5;"/><text fill="#000000" font-family="sans-serif" font-size="14" lengthAdjust="spacing" textLength="83" x="5" y="1005.1035">Administrator</text><ellipse cx="49.5" cy="1016.5703" fill="#E3E3E3" rx="8" ry="8" style="stroke:#181818;stroke-width:0.5;"/><path d="M49.5,1024.5703 L49.5,1051.5703 M36.5,1032.5703 L62.5,1032.5703 M49.5,1051.5703 L36.5,1066.5703 M49.5,1051.5703 L62.5,1066.5703 " fill="none" style="stroke:#181818;stroke-width:0.5;"/><rect fill="#E3E3E3" height="29.6406" rx="2.5" ry="2.5" style="stroke:#181818;stroke-width:0.5;" width="145" x="640" y="50"/><text fill="#000000" font-family="sans-serif" font-size="14" lengthAdjust="spacing" textLength="131" x="647" y="69.6738">:RegisterEmployeeUI</text><rect fill="#E3E3E3" height="29.6406" rx="2.5" ry="2.5" style="stroke:#181818;stroke-width:0.5;" width="145" x="640" y="992.4297"/><text fill="#000000" font-family="sans-serif" font-size="14" lengthAdjust="spacing" textLength="131" x="647" y="1012.1035">:RegisterEmployeeUI</text><rect fill="#E3E3E3" height="29.6406" rx="2.5" ry="2.5" style="stroke:#181818;stroke-width:0.5;" width="195" x="1196" y="992.4297"/><text fill="#000000" font-family="sans-serif" font-size="14" lengthAdjust="spacing" textLength="181" x="1203" y="1012.1035">:RegisterEmployeeController</text><rect fill="#E3E3E3" height="29.6406" rx="2.5" ry="2.5" style="stroke:#181818;stroke-width:0.5;" width="53" x="1848" y="50"/><text fill="#000000" font-family="sans-serif" font-size="14" lengthAdjust="spacing" textLength="39" x="1855" y="69.6738">EMPR</text><rect fill="#E3E3E3" height="29.6406" rx="2.5" ry="2.5" style="stroke:#181818;stroke-width:0.5;" width="53" x="1848" y="992.4297"/><text fill="#000000" font-family="sans-serif" font-size="14" lengthAdjust="spacing" textLength="39" x="1855" y="1012.1035">EMPR</text><rect fill="#FFFFFF" height="884.7891" style="stroke:#181818;stroke-width:1.0;" width="10" x="44.5" y="90.6406"/><rect fill="#FFFFFF" height="182.5469" style="stroke:#181818;stroke-width:1.0;" width="10" x="707.5" y="111.1641"/><rect fill="#FFFFFF" height="141.9063" style="stroke:#181818;stroke-width:1.0;" width="10" x="707.5" y="322.2344"/><rect fill="#FFFFFF" height="28.5234" style="stroke:#181818;stroke-width:1.0;" width="10" x="707.5" y="492.6641"/><rect fill="#FFFFFF" height="425.7188" style="stroke:#181818;stroke-width:1.0;" width="10" x="707.5" y="549.7109"/><rect fill="#FFFFFF" height="84.8594" style="stroke:#181818;stroke-width:1.0;" width="10" x="1288.5" y="180.3281"/><rect fill="#FFFFFF" height="84.8594" style="stroke:#181818;stroke-width:1.0;" width="10" x="1288.5" y="350.7578"/><rect fill="#FFFFFF" height="84.8594" style="stroke:#181818;stroke-width:1.0;" width="10" x="1288.5" y="578.2344"/><rect fill="#FFFFFF" height="84.8594" style="stroke:#181818;stroke-width:1.0;" width="10" x="1288.5" y="691.6172"/><rect fill="#FFFFFF" height="141.9063" style="stroke:#181818;stroke-width:1.0;" width="10" x="1288.5" y="805"/><rect fill="#FFFFFF" height="84.8594" style="stroke:#181818;stroke-width:1.0;" width="10" x="1869.5" y="833.5234"/><polygon fill="#181818" points="695.5,107.1641,705.5,111.1641,695.5,115.1641,699.5,111.1641" style="stroke:#181818;stroke-width:1.0;"/><line style="stroke:#181818;stroke-width:1.0;" x1="54.5" x2="701.5" y1="111.1641" y2="111.1641"/><text fill="#000000" font-family="sans-serif" font-size="13" font-weight="bold" lengthAdjust="spacing" textLength="7" x="61.5" y="106.4092">1</text><text fill="#000000" font-family="sans-serif" font-size="13" lengthAdjust="spacing" textLength="188" x="72.5" y="106.4092">asks to register a new employee</text><polygon fill="#181818" points="1184,135.6875,1194,139.6875,1184,143.6875,1188,139.6875" style="stroke:#181818;stroke-width:1.0;"/><line style="stroke:#181818;stroke-width:1.0;" x1="717.5" x2="1190" y1="139.6875" y2="139.6875"/><text fill="#000000" font-family="sans-serif" font-size="13" font-weight="bold" lengthAdjust="spacing" textLength="7" x="724.5" y="134.9326">2</text><text fill="#000000" font-family="sans-serif" font-size="13" lengthAdjust="spacing" textLength="36" x="735.5" y="134.9326">create</text><rect fill="#E3E3E3" height="29.6406" rx="2.5" ry="2.5" style="stroke:#181818;stroke-width:0.5;" width="195" x="1196" y="119.1641"/><text fill="#000000" font-family="sans-serif" font-size="14" lengthAdjust="spacing" textLength="181" x="1203" y="138.8379">:RegisterEmployeeController</text><polygon fill="#181818" points="1276.5,176.3281,1286.5,180.3281,1276.5,184.3281,1280.5,180.3281" style="stroke:#181818;stroke-width:1.0;"/><line style="stroke:#181818;stroke-width:1.0;" x1="717.5" x2="1282.5" y1="180.3281" y2="180.3281"/><text fill="#000000" font-family="sans-serif" font-size="13" font-weight="bold" lengthAdjust="spacing" textLength="7" x="724.5" y="175.5732">3</text><text fill="#000000" font-family="sans-serif" font-size="13" lengthAdjust="spacing" textLength="59" x="735.5" y="175.5732">getRoles()</text><rect fill="none" height="51.3359" style="stroke:#000000;stroke-width:1.5;" width="201" x="1193" y="188.3281"/><path d="M1193,188.3281 L1255,188.3281 L1255,194.3281 L1245,204.3281 L1193,204.3281 L1193,188.3281 " fill="#EEEEEE" style="stroke:#000000;stroke-width:2.0;"/><text fill="#000000" font-family="sans-serif" font-size="13" font-weight="bold" lengthAdjust="spacing" textLength="17" x="1206" y="202.0967">ref</text><text fill="#000000" font-family="sans-serif" font-size="12" lengthAdjust="spacing" textLength="78" x="1254.5" y="219.1914">Get Roles List</text><text fill="#000000" font-family="sans-serif" font-size="12" lengthAdjust="spacing" textLength="3" x="1292" y="232.5977">&#160;</text><polygon fill="#181818" points="728.5,261.1875,718.5,265.1875,728.5,269.1875,724.5,265.1875" style="stroke:#181818;stroke-width:1.0;"/><line style="stroke:#181818;stroke-width:1.0;stroke-dasharray:2.0,2.0;" x1="722.5" x2="1292.5" y1="265.1875" y2="265.1875"/><text fill="#000000" font-family="sans-serif" font-size="13" font-weight="bold" lengthAdjust="spacing" textLength="7" x="734.5" y="260.4326">4</text><text fill="#000000" font-family="sans-serif" font-size="13" lengthAdjust="spacing" textLength="42" x="745.5" y="260.4326">roleList</text><polygon fill="#181818" points="65.5,289.7109,55.5,293.7109,65.5,297.7109,61.5,293.7109" style="stroke:#181818;stroke-width:1.0;"/><line style="stroke:#181818;stroke-width:1.0;stroke-dasharray:2.0,2.0;" x1="59.5" x2="711.5" y1="293.7109" y2="293.7109"/><text fill="#000000" font-family="sans-serif" font-size="13" font-weight="bold" lengthAdjust="spacing" textLength="7" x="71.5" y="288.9561">5</text><text fill="#000000" font-family="sans-serif" font-size="13" lengthAdjust="spacing" textLength="172" x="82.5" y="288.9561">show the list of available roles</text><polygon fill="#181818" points="695.5,318.2344,705.5,322.2344,695.5,326.2344,699.5,322.2344" style="stroke:#181818;stroke-width:1.0;"/><line style="stroke:#181818;stroke-width:1.0;" x1="54.5" x2="701.5" y1="322.2344" y2="322.2344"/><text fill="#000000" font-family="sans-serif" font-size="13" font-weight="bold" lengthAdjust="spacing" textLength="7" x="61.5" y="317.4795">6</text><text fill="#000000" font-family="sans-serif" font-size="13" lengthAdjust="spacing" textLength="240" x="72.5" y="317.4795">select one or more roles for the employee</text><polygon fill="#181818" points="1276.5,346.7578,1286.5,350.7578,1276.5,354.7578,1280.5,350.7578" style="stroke:#181818;stroke-width:1.0;"/><line style="stroke:#181818;stroke-width:1.0;" x1="717.5" x2="1282.5" y1="350.7578" y2="350.7578"/><text fill="#000000" font-family="sans-serif" font-size="13" font-weight="bold" lengthAdjust="spacing" textLength="7" x="724.5" y="346.0029">7</text><text fill="#000000" font-family="sans-serif" font-size="13" lengthAdjust="spacing" textLength="64" x="735.5" y="346.0029">getStores()</text><rect fill="none" height="51.3359" style="stroke:#000000;stroke-width:1.5;" width="201" x="1193" y="358.7578"/><path d="M1193,358.7578 L1255,358.7578 L1255,364.7578 L1245,374.7578 L1193,374.7578 L1193,358.7578 " fill="#EEEEEE" style="stroke:#000000;stroke-width:2.0;"/><text fill="#000000" font-family="sans-serif" font-size="13" font-weight="bold" lengthAdjust="spacing" textLength="17" x="1206" y="372.5264">ref</text><text fill="#000000" font-family="sans-serif" font-size="12" lengthAdjust="spacing" textLength="81" x="1253" y="389.6211">Get Stores List</text><text fill="#000000" font-family="sans-serif" font-size="12" lengthAdjust="spacing" textLength="3" x="1292" y="403.0273">&#160;</text><polygon fill="#181818" points="728.5,431.6172,718.5,435.6172,728.5,439.6172,724.5,435.6172" style="stroke:#181818;stroke-width:1.0;"/><line style="stroke:#181818;stroke-width:1.0;stroke-dasharray:2.0,2.0;" x1="722.5" x2="1292.5" y1="435.6172" y2="435.6172"/><text fill="#000000" font-family="sans-serif" font-size="13" font-weight="bold" lengthAdjust="spacing" textLength="7" x="734.5" y="430.8623">8</text><text fill="#000000" font-family="sans-serif" font-size="13" lengthAdjust="spacing" textLength="50" x="745.5" y="430.8623">storeList</text><polygon fill="#181818" points="65.5,460.1406,55.5,464.1406,65.5,468.1406,61.5,464.1406" style="stroke:#181818;stroke-width:1.0;"/><line style="stroke:#181818;stroke-width:1.0;stroke-dasharray:2.0,2.0;" x1="59.5" x2="711.5" y1="464.1406" y2="464.1406"/><text fill="#000000" font-family="sans-serif" font-size="13" font-weight="bold" lengthAdjust="spacing" textLength="7" x="71.5" y="459.3857">9</text><text fill="#000000" font-family="sans-serif" font-size="13" lengthAdjust="spacing" textLength="224" x="82.5" y="459.3857">show a list of stores for the user select</text><polygon fill="#181818" points="695.5,488.6641,705.5,492.6641,695.5,496.6641,699.5,492.6641" style="stroke:#181818;stroke-width:1.0;"/><line style="stroke:#181818;stroke-width:1.0;" x1="54.5" x2="701.5" y1="492.6641" y2="492.6641"/><text fill="#000000" font-family="sans-serif" font-size="13" font-weight="bold" lengthAdjust="spacing" textLength="14" x="61.5" y="487.9092">10</text><text fill="#000000" font-family="sans-serif" font-size="13" lengthAdjust="spacing" textLength="230" x="79.5" y="487.9092">select the store to situate the employee</text><polygon fill="#181818" points="65.5,517.1875,55.5,521.1875,65.5,525.1875,61.5,521.1875" style="stroke:#181818;stroke-width:1.0;"/><line style="stroke:#181818;stroke-width:1.0;stroke-dasharray:2.0,2.0;" x1="59.5" x2="711.5" y1="521.1875" y2="521.1875"/><text fill="#000000" font-family="sans-serif" font-size="13" font-weight="bold" lengthAdjust="spacing" textLength="14" x="71.5" y="516.4326">11</text><text fill="#000000" font-family="sans-serif" font-size="13" lengthAdjust="spacing" textLength="611" x="89.5" y="516.4326">request data to register a new employee (name,email,passportNumber,taxNumber,address,phoneNumber)</text><polygon fill="#181818" points="695.5,545.7109,705.5,549.7109,695.5,553.7109,699.5,549.7109" style="stroke:#181818;stroke-width:1.0;"/><line style="stroke:#181818;stroke-width:1.0;" x1="54.5" x2="701.5" y1="549.7109" y2="549.7109"/><text fill="#000000" font-family="sans-serif" font-size="13" font-weight="bold" lengthAdjust="spacing" textLength="14" x="61.5" y="544.9561">12</text><text fill="#000000" font-family="sans-serif" font-size="13" lengthAdjust="spacing" textLength="191" x="79.5" y="544.9561">submit data of the new employee</text><polygon fill="#181818" points="1276.5,574.2344,1286.5,578.2344,1276.5,582.2344,1280.5,578.2344" style="stroke:#181818;stroke-width:1.0;"/><line style="stroke:#181818;stroke-width:1.0;stroke-dasharray:2.0,2.0;" x1="717.5" x2="1282.5" y1="578.2344" y2="578.2344"/><text fill="#000000" font-family="sans-serif" font-size="13" font-weight="bold" lengthAdjust="spacing" textLength="14" x="724.5" y="573.4795">13</text><text fill="#000000" font-family="sans-serif" font-size="13" lengthAdjust="spacing" textLength="219" x="742.5" y="573.4795">getRoleByDescription(roleDescription)</text><rect fill="none" height="51.3359" style="stroke:#000000;stroke-width:1.5;" width="201" x="1193" y="586.2344"/><path d="M1193,586.2344 L1255,586.2344 L1255,592.2344 L1245,602.2344 L1193,602.2344 L1193,586.2344 " fill="#EEEEEE" style="stroke:#000000;stroke-width:2.0;"/><text fill="#000000" font-family="sans-serif" font-size="13" font-weight="bold" lengthAdjust="spacing" textLength="17" x="1206" y="600.0029">ref</text><text fill="#000000" font-family="sans-serif" font-size="12" lengthAdjust="spacing" textLength="48" x="1269.5" y="617.0977">Get Role</text><text fill="#000000" font-family="sans-serif" font-size="12" lengthAdjust="spacing" textLength="3" x="1292" y="630.5039">&#160;</text><polygon fill="#181818" points="728.5,659.0938,718.5,663.0938,728.5,667.0938,724.5,663.0938" style="stroke:#181818;stroke-width:1.0;"/><line style="stroke:#181818;stroke-width:1.0;stroke-dasharray:2.0,2.0;" x1="722.5" x2="1292.5" y1="663.0938" y2="663.0938"/><text fill="#000000" font-family="sans-serif" font-size="13" font-weight="bold" lengthAdjust="spacing" textLength="14" x="734.5" y="658.3389">14</text><text fill="#000000" font-family="sans-serif" font-size="13" lengthAdjust="spacing" textLength="21" x="752.5" y="658.3389">role</text><polygon fill="#181818" points="1276.5,687.6172,1286.5,691.6172,1276.5,695.6172,1280.5,691.6172" style="stroke:#181818;stroke-width:1.0;"/><line style="stroke:#181818;stroke-width:1.0;stroke-dasharray:2.0,2.0;" x1="717.5" x2="1282.5" y1="691.6172" y2="691.6172"/><text fill="#000000" font-family="sans-serif" font-size="13" font-weight="bold" lengthAdjust="spacing" textLength="14" x="724.5" y="686.8623">15</text><text fill="#000000" font-family="sans-serif" font-size="13" lengthAdjust="spacing" textLength="232" x="742.5" y="686.8623">getStoreByDescription(storeDescription)</text><rect fill="none" height="51.3359" style="stroke:#000000;stroke-width:1.5;" width="201" x="1193" y="699.6172"/><path d="M1193,699.6172 L1255,699.6172 L1255,705.6172 L1245,715.6172 L1193,715.6172 L1193,699.6172 " fill="#EEEEEE" style="stroke:#000000;stroke-width:2.0;"/><text fill="#000000" font-family="sans-serif" font-size="13" font-weight="bold" lengthAdjust="spacing" textLength="17" x="1206" y="713.3857">ref</text><text fill="#000000" font-family="sans-serif" font-size="12" lengthAdjust="spacing" textLength="51" x="1268" y="730.4805">Get Store</text><text fill="#000000" font-family="sans-serif" font-size="12" lengthAdjust="spacing" textLength="3" x="1292" y="743.8867">&#160;</text><polygon fill="#181818" points="728.5,772.4766,718.5,776.4766,728.5,780.4766,724.5,776.4766" style="stroke:#181818;stroke-width:1.0;"/><line style="stroke:#181818;stroke-width:1.0;stroke-dasharray:2.0,2.0;" x1="722.5" x2="1292.5" y1="776.4766" y2="776.4766"/><text fill="#000000" font-family="sans-serif" font-size="13" font-weight="bold" lengthAdjust="spacing" textLength="14" x="734.5" y="771.7217">16</text><text fill="#000000" font-family="sans-serif" font-size="13" lengthAdjust="spacing" textLength="29" x="752.5" y="771.7217">store</text><polygon fill="#181818" points="1276.5,801,1286.5,805,1276.5,809,1280.5,805" style="stroke:#181818;stroke-width:1.0;"/><line style="stroke:#181818;stroke-width:1.0;stroke-dasharray:2.0,2.0;" x1="717.5" x2="1282.5" y1="805" y2="805"/><text fill="#000000" font-family="sans-serif" font-size="13" font-weight="bold" lengthAdjust="spacing" textLength="14" x="724.5" y="800.2451">17</text><text fill="#000000" font-family="sans-serif" font-size="13" lengthAdjust="spacing" textLength="534" x="742.5" y="800.2451">registerEmployee(name,email,passportNumber,taxNumber,address,phoneNumber,store,role)</text><polygon fill="#181818" points="1857.5,829.5234,1867.5,833.5234,1857.5,837.5234,1861.5,833.5234" style="stroke:#181818;stroke-width:1.0;"/><line style="stroke:#181818;stroke-width:1.0;stroke-dasharray:2.0,2.0;" x1="1298.5" x2="1863.5" y1="833.5234" y2="833.5234"/><text fill="#000000" font-family="sans-serif" font-size="13" font-weight="bold" lengthAdjust="spacing" textLength="14" x="1305.5" y="828.7686">18</text><text fill="#000000" font-family="sans-serif" font-size="13" lengthAdjust="spacing" textLength="534" x="1323.5" y="828.7686">registerEmployee(name,email,passportNumber,taxNumber,address,phoneNumber,store,role)</text><rect fill="none" height="51.3359" style="stroke:#000000;stroke-width:1.5;" width="113" x="1845" y="841.5234"/><path d="M1845,841.5234 L1907,841.5234 L1907,847.5234 L1897,857.5234 L1845,857.5234 L1845,841.5234 " fill="#EEEEEE" style="stroke:#000000;stroke-width:2.0;"/><text fill="#000000" font-family="sans-serif" font-size="13" font-weight="bold" lengthAdjust="spacing" textLength="17" x="1858" y="855.292">ref</text><text fill="#000000" font-family="sans-serif" font-size="12" lengthAdjust="spacing" textLength="105" x="1849" y="872.3867">Register Employee</text><text fill="#000000" font-family="sans-serif" font-size="12" lengthAdjust="spacing" textLength="3" x="1900" y="885.793">&#160;</text><polygon fill="#181818" points="1309.5,914.3828,1299.5,918.3828,1309.5,922.3828,1305.5,918.3828" style="stroke:#181818;stroke-width:1.0;"/><line style="stroke:#181818;stroke-width:1.0;stroke-dasharray:2.0,2.0;" x1="1303.5" x2="1873.5" y1="918.3828" y2="918.3828"/><text fill="#000000" font-family="sans-serif" font-size="13" font-weight="bold" lengthAdjust="spacing" textLength="14" x="1315.5" y="913.6279">19</text><text fill="#000000" font-family="sans-serif" font-size="13" lengthAdjust="spacing" textLength="118" x="1333.5" y="913.6279">employeeRegistered</text><polygon fill="#181818" points="728.5,942.9063,718.5,946.9063,728.5,950.9063,724.5,946.9063" style="stroke:#181818;stroke-width:1.0;"/><line style="stroke:#181818;stroke-width:1.0;stroke-dasharray:2.0,2.0;" x1="722.5" x2="1292.5" y1="946.9063" y2="946.9063"/><text fill="#000000" font-family="sans-serif" font-size="13" font-weight="bold" lengthAdjust="spacing" textLength="14" x="734.5" y="942.1514">20</text><text fill="#000000" font-family="sans-serif" font-size="13" lengthAdjust="spacing" textLength="118" x="752.5" y="942.1514">employeeRegistered</text><polygon fill="#181818" points="60.5,971.4297,50.5,975.4297,60.5,979.4297,56.5,975.4297" style="stroke:#181818;stroke-width:1.0;"/><line style="stroke:#181818;stroke-width:1.0;stroke-dasharray:2.0,2.0;" x1="54.5" x2="711.5" y1="975.4297" y2="975.4297"/><text fill="#000000" font-family="sans-serif" font-size="13" font-weight="bold" lengthAdjust="spacing" textLength="14" x="66.5" y="970.6748">21</text><text fill="#000000" font-family="sans-serif" font-size="13" lengthAdjust="spacing" textLength="158" x="84.5" y="970.6748">displays operation success</text><!--SRC=[lLPDZzem4BtxLuou55Pmww7YiD9s5rL8krN5bXym90DO97PgEx3y-uuTyWKXeAhQN22PyPkFzsOIkvCgGuCff5hfQ6jqIk1CJi9MbWoZ7MxetHqJ0aEHGxL9cWvsYx4-IBM1DIQMXC3SQPMdAp92VDdAc62jjLlf3u6HqmO6Jt4gbRJE8DyE02qylRm9HdCoaXag1uFfWZRiGMQMPea-4YtdmN4vl-7th9KpEace07x-lNWLV75akKT78HA0_u798yF1bDrs5fpcuWeeG51q03eX2kyF5G1d41uivtpUmpyyC4PaY8sb1KucDcp8BNH2TZWAjlEhWWs9mfNBq1hqdZFhzIgk7-GWH8HNhaRqU9EAFV9rbvf8-7hLoQSqcJo6JW9tdaBOBi-ORbVhUyVDy_HCMLdw06vBa30aw3NW7cM2Aoz4Nw6eKszWbmJ16SsM4bOlQ4N08aorEQ6mEas8KXCkBkXfWbuG_Cuo_ZI6FRz5m1i4b_JUmUwtkzYrFkf_PXShRcrHKqb6RZclWh9-cZiezkS3d9zgArtk_TiCNndfHdg6_kJ4gSNei6Sxm51XIcDAMPdZ3AtDj74_Grl73ZzE_p2EkJWxphOil-BPw5JMhPBoLIfFMN2NV1NjvTHRYcUYsa7VZoza8oCp9xKQUkqtxaTdGCNYl2tFSjtKlgsr4ePa4egPXd4Jr_HI0vpd7jJUJZwmUvbzJmMtXwmQhFQXYotPAidM1xe6e5MAENjL_QjonY7es7UpaxLMahEtNujF2Uq3YSjjLFKysBkMGla6XrbhEZivA2mUgj7NQXXA98h5kSIAx2xvk-DeMqUj7H5BcoLujA0pueyP5YBFQnHnqxfckt7dlqB-0W00]--></g></svg>