<?xml version="1.0" encoding="us-ascii" standalone="no"?><svg xmlns="http://www.w3.org/2000/svg" xmlns:xlink="http://www.w3.org/1999/xlink" contentStyleType="text/css" height="1935px" preserveAspectRatio="none" style="width:2349px;height:1935px;background:#FFFFFF;" version="1.1" viewBox="0 0 2349 1935" width="2349px" zoomAndPan="magnify"><defs/><g><rect fill="#FFFFFF" height="1740.4141" style="stroke:#181818;stroke-width:1.0;" width="10" x="44.5" y="93.6211"/><rect fill="#FFFFFF" height="325.2402" style="stroke:#181818;stroke-width:1.0;" width="10" x="707.5" y="116.9121"/><rect fill="#FFFFFF" height="281.6191" style="stroke:#181818;stroke-width:1.0;" width="10" x="707.5" y="473.4434"/><rect fill="#FFFFFF" height="31.291" style="stroke:#181818;stroke-width:1.0;" width="10" x="707.5" y="786.3535"/><rect fill="#FFFFFF" height="985.0996" style="stroke:#181818;stroke-width:1.0;" width="10" x="707.5" y="848.9355"/><rect fill="#FFFFFF" height="219.0371" style="stroke:#181818;stroke-width:1.0;" width="10" x="1288.5" y="191.8242"/><rect fill="#FFFFFF" height="219.0371" style="stroke:#181818;stroke-width:1.0;" width="10" x="1288.5" y="504.7344"/><rect fill="#FFFFFF" height="219.0371" style="stroke:#181818;stroke-width:1.0;" width="10" x="1288.5" y="880.2266"/><rect fill="#FFFFFF" height="219.0371" style="stroke:#181818;stroke-width:1.0;" width="10" x="1288.5" y="1130.5547"/><rect fill="#FFFFFF" height="421.8613" style="stroke:#181818;stroke-width:1.0;" width="10" x="1288.5" y="1380.8828"/><rect fill="#FFFFFF" height="31.291" style="stroke:#181818;stroke-width:1.0;" width="10" x="1444.5" y="223.1152"/><rect fill="#FFFFFF" height="31.291" style="stroke:#181818;stroke-width:1.0;" width="10" x="1444.5" y="536.0254"/><rect fill="#FFFFFF" height="31.291" style="stroke:#181818;stroke-width:1.0;" width="10" x="1444.5" y="911.5176"/><rect fill="#FFFFFF" height="31.291" style="stroke:#181818;stroke-width:1.0;" width="10" x="1444.5" y="1161.8457"/><rect fill="#FFFFFF" height="31.291" style="stroke:#181818;stroke-width:1.0;" width="10" x="1551.5" y="285.6973"/><rect fill="#FFFFFF" height="31.291" style="stroke:#181818;stroke-width:1.0;" width="10" x="1551.5" y="598.6074"/><rect fill="#FFFFFF" height="31.291" style="stroke:#181818;stroke-width:1.0;" width="10" x="1551.5" y="974.0996"/><rect fill="#FFFFFF" height="31.291" style="stroke:#181818;stroke-width:1.0;" width="10" x="1551.5" y="1224.4277"/><rect fill="#FFFFFF" height="31.291" style="stroke:#181818;stroke-width:1.0;" width="10" x="1665.5" y="348.2793"/><rect fill="#FFFFFF" height="31.291" style="stroke:#181818;stroke-width:1.0;" width="10" x="1665.5" y="1036.6816"/><rect fill="#FFFFFF" height="31.291" style="stroke:#181818;stroke-width:1.0;" width="10" x="1790" y="661.1895"/><rect fill="#FFFFFF" height="31.291" style="stroke:#181818;stroke-width:1.0;" width="10" x="1790" y="1287.0098"/><rect fill="#FFFFFF" height="359.2793" style="stroke:#181818;stroke-width:1.0;" width="10" x="1932.5" y="1412.1738"/><rect fill="#FFFFFF" height="219.4551" style="stroke:#181818;stroke-width:1.0;" width="10" x="1937.5" y="1513.707"/><rect fill="#FFFFFF" height="130.873" style="stroke:#181818;stroke-width:1.0;" width="10" x="1942.5" y="1557.998"/><rect fill="#FFFFFF" height="42.291" style="stroke:#181818;stroke-width:1.0;" width="10" x="1947.5" y="1602.2891"/><line style="stroke:#181818;stroke-width:0.5;stroke-dasharray:5.0,5.0;" x1="49" x2="49" y1="83.6211" y2="1852.0352"/><line style="stroke:#181818;stroke-width:0.5;stroke-dasharray:5.0,5.0;" x1="712" x2="712" y1="83.6211" y2="1852.0352"/><line style="stroke:#181818;stroke-width:0.5;stroke-dasharray:5.0,5.0;" x1="1293" x2="1293" y1="156.7227" y2="1852.0352"/><line style="stroke:#181818;stroke-width:0.5;stroke-dasharray:5.0,5.0;" x1="1449" x2="1449" y1="83.6211" y2="1852.0352"/><line style="stroke:#181818;stroke-width:0.5;stroke-dasharray:5.0,5.0;" x1="1556" x2="1556" y1="83.6211" y2="1852.0352"/><line style="stroke:#181818;stroke-width:0.5;stroke-dasharray:5.0,5.0;" x1="1670" x2="1670" y1="83.6211" y2="1852.0352"/><line style="stroke:#181818;stroke-width:0.5;stroke-dasharray:5.0,5.0;" x1="1795" x2="1795" y1="83.6211" y2="1852.0352"/><line style="stroke:#181818;stroke-width:0.5;stroke-dasharray:5.0,5.0;" x1="1937" x2="1937" y1="83.6211" y2="1852.0352"/><line style="stroke:#181818;stroke-width:0.5;stroke-dasharray:5.0,5.0;" x1="2303.5" x2="2303.5" y1="1461.2949" y2="1852.0352"/><text fill="#000000" font-family="sans-serif" font-size="14" lengthAdjust="spacing" textLength="83" x="5" y="80.1074">Administrator</text><ellipse cx="49.5" cy="13.5" fill="#E3E3E3" rx="8" ry="8" style="stroke:#181818;stroke-width:0.5;"/><path d="M49.5,21.5 L49.5,48.5 M36.5,29.5 L62.5,29.5 M49.5,48.5 L36.5,63.5 M49.5,48.5 L62.5,63.5 " fill="none" style="stroke:#181818;stroke-width:0.5;"/><text fill="#000000" font-family="sans-serif" font-size="14" lengthAdjust="spacing" textLength="83" x="5" y="1866.1426">Administrator</text><ellipse cx="49.5" cy="1878.1563" fill="#E3E3E3" rx="8" ry="8" style="stroke:#181818;stroke-width:0.5;"/><path d="M49.5,1886.1563 L49.5,1913.1563 M36.5,1894.1563 L62.5,1894.1563 M49.5,1913.1563 L36.5,1928.1563 M49.5,1913.1563 L62.5,1928.1563 " fill="none" style="stroke:#181818;stroke-width:0.5;"/><rect fill="#E3E3E3" height="32.6211" rx="2.5" ry="2.5" style="stroke:#181818;stroke-width:0.5;" width="145" x="640" y="50"/><text fill="#000000" font-family="sans-serif" font-size="14" lengthAdjust="spacing" textLength="131" x="647" y="72.1074">:RegisterEmployeeUI</text><rect fill="#E3E3E3" height="32.6211" rx="2.5" ry="2.5" style="stroke:#181818;stroke-width:0.5;" width="145" x="640" y="1851.0352"/><text fill="#000000" font-family="sans-serif" font-size="14" lengthAdjust="spacing" textLength="131" x="647" y="1873.1426">:RegisterEmployeeUI</text><rect fill="#E3E3E3" height="32.6211" rx="2.5" ry="2.5" style="stroke:#181818;stroke-width:0.5;" width="195" x="1196" y="1851.0352"/><text fill="#000000" font-family="sans-serif" font-size="14" lengthAdjust="spacing" textLength="181" x="1203" y="1873.1426">:RegisterEmployeeController</text><rect fill="#E3E3E3" height="32.6211" rx="2.5" ry="2.5" style="stroke:#181818;stroke-width:0.5;" width="97" x="1401" y="50"/><text fill="#000000" font-family="sans-serif" font-size="14" lengthAdjust="spacing" textLength="83" x="1408" y="72.1074">:Repositories</text><rect fill="#E3E3E3" height="32.6211" rx="2.5" ry="2.5" style="stroke:#181818;stroke-width:0.5;" width="97" x="1401" y="1851.0352"/><text fill="#000000" font-family="sans-serif" font-size="14" lengthAdjust="spacing" textLength="83" x="1408" y="1873.1426">:Repositories</text><rect fill="#E3E3E3" height="51.2422" rx="2.5" ry="2.5" style="stroke:#181818;stroke-width:0.5;" width="97" x="1508" y="31.3789"/><text fill="#000000" font-family="sans-serif" font-size="14" lengthAdjust="spacing" textLength="74" x="1519.5" y="53.4863">repositories</text><text fill="#000000" font-family="sans-serif" font-size="14" lengthAdjust="spacing" textLength="83" x="1515" y="72.1074">:Repositories</text><rect fill="#E3E3E3" height="51.2422" rx="2.5" ry="2.5" style="stroke:#181818;stroke-width:0.5;" width="97" x="1508" y="1851.0352"/><text fill="#000000" font-family="sans-serif" font-size="14" lengthAdjust="spacing" textLength="74" x="1519.5" y="1873.1426">repositories</text><text fill="#000000" font-family="sans-serif" font-size="14" lengthAdjust="spacing" textLength="83" x="1515" y="1891.7637">:Repositories</text><rect fill="#E3E3E3" height="51.2422" rx="2.5" ry="2.5" style="stroke:#181818;stroke-width:0.5;" width="111" x="1615" y="31.3789"/><text fill="#000000" font-family="sans-serif" font-size="14" lengthAdjust="spacing" textLength="96" x="1622.5" y="53.4863">roleRepository:</text><text fill="#000000" font-family="sans-serif" font-size="14" lengthAdjust="spacing" textLength="97" x="1622" y="72.1074">RoleRepository</text><rect fill="#E3E3E3" height="51.2422" rx="2.5" ry="2.5" style="stroke:#181818;stroke-width:0.5;" width="111" x="1615" y="1851.0352"/><text fill="#000000" font-family="sans-serif" font-size="14" lengthAdjust="spacing" textLength="96" x="1622.5" y="1873.1426">roleRepository:</text><text fill="#000000" font-family="sans-serif" font-size="14" lengthAdjust="spacing" textLength="97" x="1622" y="1891.7637">RoleRepository</text><rect fill="#E3E3E3" height="51.2422" rx="2.5" ry="2.5" style="stroke:#181818;stroke-width:0.5;" width="118" x="1736" y="31.3789"/><text fill="#000000" font-family="sans-serif" font-size="14" lengthAdjust="spacing" textLength="104" x="1743" y="53.4863">storeRepository:</text><text fill="#000000" font-family="sans-serif" font-size="14" lengthAdjust="spacing" textLength="102" x="1744" y="72.1074">StoreRepository</text><rect fill="#E3E3E3" height="51.2422" rx="2.5" ry="2.5" style="stroke:#181818;stroke-width:0.5;" width="118" x="1736" y="1851.0352"/><text fill="#000000" font-family="sans-serif" font-size="14" lengthAdjust="spacing" textLength="104" x="1743" y="1873.1426">storeRepository:</text><text fill="#000000" font-family="sans-serif" font-size="14" lengthAdjust="spacing" textLength="102" x="1744" y="1891.7637">StoreRepository</text><rect fill="#E3E3E3" height="51.2422" rx="2.5" ry="2.5" style="stroke:#181818;stroke-width:0.5;" width="147" x="1864" y="31.3789"/><text fill="#000000" font-family="sans-serif" font-size="14" lengthAdjust="spacing" textLength="133" x="1871" y="53.4863">employeeRepository:</text><text fill="#000000" font-family="sans-serif" font-size="14" lengthAdjust="spacing" textLength="130" x="1872.5" y="72.1074">EmployeeRepository</text><rect fill="#E3E3E3" height="51.2422" rx="2.5" ry="2.5" style="stroke:#181818;stroke-width:0.5;" width="147" x="1864" y="1851.0352"/><text fill="#000000" font-family="sans-serif" font-size="14" lengthAdjust="spacing" textLength="133" x="1871" y="1873.1426">employeeRepository:</text><text fill="#000000" font-family="sans-serif" font-size="14" lengthAdjust="spacing" textLength="130" x="1872.5" y="1891.7637">EmployeeRepository</text><rect fill="#E3E3E3" height="51.2422" rx="2.5" ry="2.5" style="stroke:#181818;stroke-width:0.5;" width="79" x="2264.5" y="1851.0352"/><text fill="#000000" font-family="sans-serif" font-size="14" lengthAdjust="spacing" textLength="65" x="2271.5" y="1873.1426">employee:</text><text fill="#000000" font-family="sans-serif" font-size="14" lengthAdjust="spacing" textLength="62" x="2273" y="1891.7637">Employee</text><rect fill="#FFFFFF" height="1740.4141" style="stroke:#181818;stroke-width:1.0;" width="10" x="44.5" y="93.6211"/><rect fill="#FFFFFF" height="325.2402" style="stroke:#181818;stroke-width:1.0;" width="10" x="707.5" y="116.9121"/><rect fill="#FFFFFF" height="281.6191" style="stroke:#181818;stroke-width:1.0;" width="10" x="707.5" y="473.4434"/><rect fill="#FFFFFF" height="31.291" style="stroke:#181818;stroke-width:1.0;" width="10" x="707.5" y="786.3535"/><rect fill="#FFFFFF" height="985.0996" style="stroke:#181818;stroke-width:1.0;" width="10" x="707.5" y="848.9355"/><rect fill="#FFFFFF" height="219.0371" style="stroke:#181818;stroke-width:1.0;" width="10" x="1288.5" y="191.8242"/><rect fill="#FFFFFF" height="219.0371" style="stroke:#181818;stroke-width:1.0;" width="10" x="1288.5" y="504.7344"/><rect fill="#FFFFFF" height="219.0371" style="stroke:#181818;stroke-width:1.0;" width="10" x="1288.5" y="880.2266"/><rect fill="#FFFFFF" height="219.0371" style="stroke:#181818;stroke-width:1.0;" width="10" x="1288.5" y="1130.5547"/><rect fill="#FFFFFF" height="421.8613" style="stroke:#181818;stroke-width:1.0;" width="10" x="1288.5" y="1380.8828"/><rect fill="#FFFFFF" height="31.291" style="stroke:#181818;stroke-width:1.0;" width="10" x="1444.5" y="223.1152"/><rect fill="#FFFFFF" height="31.291" style="stroke:#181818;stroke-width:1.0;" width="10" x="1444.5" y="536.0254"/><rect fill="#FFFFFF" height="31.291" style="stroke:#181818;stroke-width:1.0;" width="10" x="1444.5" y="911.5176"/><rect fill="#FFFFFF" height="31.291" style="stroke:#181818;stroke-width:1.0;" width="10" x="1444.5" y="1161.8457"/><rect fill="#FFFFFF" height="31.291" style="stroke:#181818;stroke-width:1.0;" width="10" x="1551.5" y="285.6973"/><rect fill="#FFFFFF" height="31.291" style="stroke:#181818;stroke-width:1.0;" width="10" x="1551.5" y="598.6074"/><rect fill="#FFFFFF" height="31.291" style="stroke:#181818;stroke-width:1.0;" width="10" x="1551.5" y="974.0996"/><rect fill="#FFFFFF" height="31.291" style="stroke:#181818;stroke-width:1.0;" width="10" x="1551.5" y="1224.4277"/><rect fill="#FFFFFF" height="31.291" style="stroke:#181818;stroke-width:1.0;" width="10" x="1665.5" y="348.2793"/><rect fill="#FFFFFF" height="31.291" style="stroke:#181818;stroke-width:1.0;" width="10" x="1665.5" y="1036.6816"/><rect fill="#FFFFFF" height="31.291" style="stroke:#181818;stroke-width:1.0;" width="10" x="1790" y="661.1895"/><rect fill="#FFFFFF" height="31.291" style="stroke:#181818;stroke-width:1.0;" width="10" x="1790" y="1287.0098"/><rect fill="#FFFFFF" height="359.2793" style="stroke:#181818;stroke-width:1.0;" width="10" x="1932.5" y="1412.1738"/><rect fill="#FFFFFF" height="219.4551" style="stroke:#181818;stroke-width:1.0;" width="10" x="1937.5" y="1513.707"/><rect fill="#FFFFFF" height="130.873" style="stroke:#181818;stroke-width:1.0;" width="10" x="1942.5" y="1557.998"/><rect fill="#FFFFFF" height="42.291" style="stroke:#181818;stroke-width:1.0;" width="10" x="1947.5" y="1602.2891"/><polygon fill="#181818" points="695.5,112.9121,705.5,116.9121,695.5,120.9121,699.5,116.9121" style="stroke:#181818;stroke-width:1.0;"/><line style="stroke:#181818;stroke-width:1.0;" x1="54.5" x2="701.5" y1="116.9121" y2="116.9121"/><text fill="#000000" font-family="sans-serif" font-size="13" font-weight="bold" lengthAdjust="spacing" textLength="7" x="61.5" y="111.6494">1</text><text fill="#000000" font-family="sans-serif" font-size="13" lengthAdjust="spacing" textLength="188" x="72.5" y="111.6494">asks to register a new employee</text><polygon fill="#181818" points="1184,144.2031,1194,148.2031,1184,152.2031,1188,148.2031" style="stroke:#181818;stroke-width:1.0;"/><line style="stroke:#181818;stroke-width:1.0;" x1="717.5" x2="1190" y1="148.2031" y2="148.2031"/><text fill="#000000" font-family="sans-serif" font-size="13" font-weight="bold" lengthAdjust="spacing" textLength="7" x="724.5" y="142.9404">2</text><text fill="#000000" font-family="sans-serif" font-size="13" lengthAdjust="spacing" textLength="36" x="735.5" y="142.9404">create</text><rect fill="#E3E3E3" height="32.6211" rx="2.5" ry="2.5" style="stroke:#181818;stroke-width:0.5;" width="195" x="1196" y="124.9121"/><text fill="#000000" font-family="sans-serif" font-size="14" lengthAdjust="spacing" textLength="181" x="1203" y="147.0195">:RegisterEmployeeController</text><polygon fill="#181818" points="1276.5,187.8242,1286.5,191.8242,1276.5,195.8242,1280.5,191.8242" style="stroke:#181818;stroke-width:1.0;"/><line style="stroke:#181818;stroke-width:1.0;" x1="717.5" x2="1282.5" y1="191.8242" y2="191.8242"/><text fill="#000000" font-family="sans-serif" font-size="13" font-weight="bold" lengthAdjust="spacing" textLength="7" x="724.5" y="186.5615">3</text><text fill="#000000" font-family="sans-serif" font-size="13" lengthAdjust="spacing" textLength="59" x="735.5" y="186.5615">getRoles()</text><polygon fill="#181818" points="1432.5,219.1152,1442.5,223.1152,1432.5,227.1152,1436.5,223.1152" style="stroke:#181818;stroke-width:1.0;"/><line style="stroke:#181818;stroke-width:1.0;" x1="1298.5" x2="1438.5" y1="223.1152" y2="223.1152"/><text fill="#000000" font-family="sans-serif" font-size="13" font-weight="bold" lengthAdjust="spacing" textLength="18" x="1305.5" y="217.8525">3.1</text><text fill="#000000" font-family="sans-serif" font-size="13" lengthAdjust="spacing" textLength="75" x="1327.5" y="217.8525">getInstance()</text><polygon fill="#181818" points="1309.5,250.4063,1299.5,254.4063,1309.5,258.4063,1305.5,254.4063" style="stroke:#181818;stroke-width:1.0;"/><line style="stroke:#181818;stroke-width:1.0;stroke-dasharray:2.0,2.0;" x1="1303.5" x2="1448.5" y1="254.4063" y2="254.4063"/><text fill="#000000" font-family="sans-serif" font-size="13" font-weight="bold" lengthAdjust="spacing" textLength="18" x="1315.5" y="249.1436">3.2</text><text fill="#000000" font-family="sans-serif" font-size="13" lengthAdjust="spacing" textLength="67" x="1337.5" y="249.1436">repositories</text><polygon fill="#181818" points="1539.5,281.6973,1549.5,285.6973,1539.5,289.6973,1543.5,285.6973" style="stroke:#181818;stroke-width:1.0;"/><line style="stroke:#181818;stroke-width:1.0;" x1="1298.5" x2="1545.5" y1="285.6973" y2="285.6973"/><text fill="#000000" font-family="sans-serif" font-size="13" font-weight="bold" lengthAdjust="spacing" textLength="18" x="1305.5" y="280.4346">3.3</text><text fill="#000000" font-family="sans-serif" font-size="13" lengthAdjust="spacing" textLength="114" x="1327.5" y="280.4346">getRoleRepository()</text><polygon fill="#181818" points="1309.5,312.9883,1299.5,316.9883,1309.5,320.9883,1305.5,316.9883" style="stroke:#181818;stroke-width:1.0;"/><line style="stroke:#181818;stroke-width:1.0;stroke-dasharray:2.0,2.0;" x1="1303.5" x2="1555.5" y1="316.9883" y2="316.9883"/><text fill="#000000" font-family="sans-serif" font-size="13" font-weight="bold" lengthAdjust="spacing" textLength="18" x="1315.5" y="311.7256">3.4</text><text fill="#000000" font-family="sans-serif" font-size="13" lengthAdjust="spacing" textLength="83" x="1337.5" y="311.7256">roleRepository</text><polygon fill="#181818" points="1653.5,344.2793,1663.5,348.2793,1653.5,352.2793,1657.5,348.2793" style="stroke:#181818;stroke-width:1.0;"/><line style="stroke:#181818;stroke-width:1.0;" x1="1298.5" x2="1659.5" y1="348.2793" y2="348.2793"/><text fill="#000000" font-family="sans-serif" font-size="13" font-weight="bold" lengthAdjust="spacing" textLength="18" x="1305.5" y="343.0166">3.5</text><text fill="#000000" font-family="sans-serif" font-size="13" lengthAdjust="spacing" textLength="59" x="1327.5" y="343.0166">getRoles()</text><polygon fill="#181818" points="1309.5,375.5703,1299.5,379.5703,1309.5,383.5703,1305.5,379.5703" style="stroke:#181818;stroke-width:1.0;"/><line style="stroke:#181818;stroke-width:1.0;stroke-dasharray:2.0,2.0;" x1="1303.5" x2="1669.5" y1="379.5703" y2="379.5703"/><text fill="#000000" font-family="sans-serif" font-size="13" font-weight="bold" lengthAdjust="spacing" textLength="18" x="1315.5" y="374.3076">3.6</text><text fill="#000000" font-family="sans-serif" font-size="13" lengthAdjust="spacing" textLength="42" x="1337.5" y="374.3076">roleList</text><polygon fill="#181818" points="728.5,406.8613,718.5,410.8613,728.5,414.8613,724.5,410.8613" style="stroke:#181818;stroke-width:1.0;"/><line style="stroke:#181818;stroke-width:1.0;stroke-dasharray:2.0,2.0;" x1="722.5" x2="1292.5" y1="410.8613" y2="410.8613"/><text fill="#000000" font-family="sans-serif" font-size="13" font-weight="bold" lengthAdjust="spacing" textLength="7" x="734.5" y="405.5986">4</text><text fill="#000000" font-family="sans-serif" font-size="13" lengthAdjust="spacing" textLength="42" x="745.5" y="405.5986">roleList</text><polygon fill="#181818" points="65.5,438.1523,55.5,442.1523,65.5,446.1523,61.5,442.1523" style="stroke:#181818;stroke-width:1.0;"/><line style="stroke:#181818;stroke-width:1.0;stroke-dasharray:2.0,2.0;" x1="59.5" x2="711.5" y1="442.1523" y2="442.1523"/><text fill="#000000" font-family="sans-serif" font-size="13" font-weight="bold" lengthAdjust="spacing" textLength="7" x="71.5" y="436.8896">5</text><text fill="#000000" font-family="sans-serif" font-size="13" lengthAdjust="spacing" textLength="172" x="82.5" y="436.8896">show the list of available roles</text><polygon fill="#181818" points="695.5,469.4434,705.5,473.4434,695.5,477.4434,699.5,473.4434" style="stroke:#181818;stroke-width:1.0;"/><line style="stroke:#181818;stroke-width:1.0;" x1="54.5" x2="701.5" y1="473.4434" y2="473.4434"/><text fill="#000000" font-family="sans-serif" font-size="13" font-weight="bold" lengthAdjust="spacing" textLength="7" x="61.5" y="468.1807">6</text><text fill="#000000" font-family="sans-serif" font-size="13" lengthAdjust="spacing" textLength="240" x="72.5" y="468.1807">select one or more roles for the employee</text><polygon fill="#181818" points="1276.5,500.7344,1286.5,504.7344,1276.5,508.7344,1280.5,504.7344" style="stroke:#181818;stroke-width:1.0;"/><line style="stroke:#181818;stroke-width:1.0;" x1="717.5" x2="1282.5" y1="504.7344" y2="504.7344"/><text fill="#000000" font-family="sans-serif" font-size="13" font-weight="bold" lengthAdjust="spacing" textLength="7" x="724.5" y="499.4717">7</text><text fill="#000000" font-family="sans-serif" font-size="13" lengthAdjust="spacing" textLength="64" x="735.5" y="499.4717">getStores()</text><polygon fill="#181818" points="1432.5,532.0254,1442.5,536.0254,1432.5,540.0254,1436.5,536.0254" style="stroke:#181818;stroke-width:1.0;"/><line style="stroke:#181818;stroke-width:1.0;" x1="1298.5" x2="1438.5" y1="536.0254" y2="536.0254"/><text fill="#000000" font-family="sans-serif" font-size="13" font-weight="bold" lengthAdjust="spacing" textLength="18" x="1305.5" y="530.7627">7.1</text><text fill="#000000" font-family="sans-serif" font-size="13" lengthAdjust="spacing" textLength="75" x="1327.5" y="530.7627">getInstance()</text><polygon fill="#181818" points="1309.5,563.3164,1299.5,567.3164,1309.5,571.3164,1305.5,567.3164" style="stroke:#181818;stroke-width:1.0;"/><line style="stroke:#181818;stroke-width:1.0;stroke-dasharray:2.0,2.0;" x1="1303.5" x2="1448.5" y1="567.3164" y2="567.3164"/><text fill="#000000" font-family="sans-serif" font-size="13" font-weight="bold" lengthAdjust="spacing" textLength="18" x="1315.5" y="562.0537">7.2</text><text fill="#000000" font-family="sans-serif" font-size="13" lengthAdjust="spacing" textLength="67" x="1337.5" y="562.0537">repositories</text><polygon fill="#181818" points="1539.5,594.6074,1549.5,598.6074,1539.5,602.6074,1543.5,598.6074" style="stroke:#181818;stroke-width:1.0;"/><line style="stroke:#181818;stroke-width:1.0;" x1="1298.5" x2="1545.5" y1="598.6074" y2="598.6074"/><text fill="#000000" font-family="sans-serif" font-size="13" font-weight="bold" lengthAdjust="spacing" textLength="18" x="1305.5" y="593.3447">7.3</text><text fill="#000000" font-family="sans-serif" font-size="13" lengthAdjust="spacing" textLength="119" x="1327.5" y="593.3447">getStoreRepository()</text><polygon fill="#181818" points="1309.5,625.8984,1299.5,629.8984,1309.5,633.8984,1305.5,629.8984" style="stroke:#181818;stroke-width:1.0;"/><line style="stroke:#181818;stroke-width:1.0;stroke-dasharray:2.0,2.0;" x1="1303.5" x2="1555.5" y1="629.8984" y2="629.8984"/><text fill="#000000" font-family="sans-serif" font-size="13" font-weight="bold" lengthAdjust="spacing" textLength="18" x="1315.5" y="624.6357">7.4</text><text fill="#000000" font-family="sans-serif" font-size="13" lengthAdjust="spacing" textLength="91" x="1337.5" y="624.6357">storeRepository</text><polygon fill="#181818" points="1778,657.1895,1788,661.1895,1778,665.1895,1782,661.1895" style="stroke:#181818;stroke-width:1.0;"/><line style="stroke:#181818;stroke-width:1.0;" x1="1298.5" x2="1784" y1="661.1895" y2="661.1895"/><text fill="#000000" font-family="sans-serif" font-size="13" font-weight="bold" lengthAdjust="spacing" textLength="18" x="1305.5" y="655.9268">7.5</text><text fill="#000000" font-family="sans-serif" font-size="13" lengthAdjust="spacing" textLength="64" x="1327.5" y="655.9268">getStores()</text><polygon fill="#181818" points="1309.5,688.4805,1299.5,692.4805,1309.5,696.4805,1305.5,692.4805" style="stroke:#181818;stroke-width:1.0;"/><line style="stroke:#181818;stroke-width:1.0;stroke-dasharray:2.0,2.0;" x1="1303.5" x2="1794" y1="692.4805" y2="692.4805"/><text fill="#000000" font-family="sans-serif" font-size="13" font-weight="bold" lengthAdjust="spacing" textLength="18" x="1315.5" y="687.2178">7.6</text><text fill="#000000" font-family="sans-serif" font-size="13" lengthAdjust="spacing" textLength="50" x="1337.5" y="687.2178">storeList</text><polygon fill="#181818" points="728.5,719.7715,718.5,723.7715,728.5,727.7715,724.5,723.7715" style="stroke:#181818;stroke-width:1.0;"/><line style="stroke:#181818;stroke-width:1.0;stroke-dasharray:2.0,2.0;" x1="722.5" x2="1292.5" y1="723.7715" y2="723.7715"/><text fill="#000000" font-family="sans-serif" font-size="13" font-weight="bold" lengthAdjust="spacing" textLength="7" x="734.5" y="718.5088">8</text><text fill="#000000" font-family="sans-serif" font-size="13" lengthAdjust="spacing" textLength="50" x="745.5" y="718.5088">storeList</text><polygon fill="#181818" points="65.5,751.0625,55.5,755.0625,65.5,759.0625,61.5,755.0625" style="stroke:#181818;stroke-width:1.0;"/><line style="stroke:#181818;stroke-width:1.0;stroke-dasharray:2.0,2.0;" x1="59.5" x2="711.5" y1="755.0625" y2="755.0625"/><text fill="#000000" font-family="sans-serif" font-size="13" font-weight="bold" lengthAdjust="spacing" textLength="7" x="71.5" y="749.7998">9</text><text fill="#000000" font-family="sans-serif" font-size="13" lengthAdjust="spacing" textLength="224" x="82.5" y="749.7998">show a list of stores for the user select</text><polygon fill="#181818" points="695.5,782.3535,705.5,786.3535,695.5,790.3535,699.5,786.3535" style="stroke:#181818;stroke-width:1.0;"/><line style="stroke:#181818;stroke-width:1.0;" x1="54.5" x2="701.5" y1="786.3535" y2="786.3535"/><text fill="#000000" font-family="sans-serif" font-size="13" font-weight="bold" lengthAdjust="spacing" textLength="14" x="61.5" y="781.0908">10</text><text fill="#000000" font-family="sans-serif" font-size="13" lengthAdjust="spacing" textLength="230" x="79.5" y="781.0908">select the store to situate the employee</text><polygon fill="#181818" points="65.5,813.6445,55.5,817.6445,65.5,821.6445,61.5,817.6445" style="stroke:#181818;stroke-width:1.0;"/><line style="stroke:#181818;stroke-width:1.0;stroke-dasharray:2.0,2.0;" x1="59.5" x2="711.5" y1="817.6445" y2="817.6445"/><text fill="#000000" font-family="sans-serif" font-size="13" font-weight="bold" lengthAdjust="spacing" textLength="14" x="71.5" y="812.3818">11</text><text fill="#000000" font-family="sans-serif" font-size="13" lengthAdjust="spacing" textLength="611" x="89.5" y="812.3818">request data to register a new employee (name,email,passportNumber,taxNumber,address,phoneNumber)</text><polygon fill="#181818" points="695.5,844.9355,705.5,848.9355,695.5,852.9355,699.5,848.9355" style="stroke:#181818;stroke-width:1.0;"/><line style="stroke:#181818;stroke-width:1.0;" x1="54.5" x2="701.5" y1="848.9355" y2="848.9355"/><text fill="#000000" font-family="sans-serif" font-size="13" font-weight="bold" lengthAdjust="spacing" textLength="14" x="61.5" y="843.6729">12</text><text fill="#000000" font-family="sans-serif" font-size="13" lengthAdjust="spacing" textLength="191" x="79.5" y="843.6729">submit data of the new employee</text><polygon fill="#181818" points="1276.5,876.2266,1286.5,880.2266,1276.5,884.2266,1280.5,880.2266" style="stroke:#181818;stroke-width:1.0;"/><line style="stroke:#181818;stroke-width:1.0;" x1="717.5" x2="1282.5" y1="880.2266" y2="880.2266"/><text fill="#000000" font-family="sans-serif" font-size="13" font-weight="bold" lengthAdjust="spacing" textLength="14" x="724.5" y="874.9639">13</text><text fill="#000000" font-family="sans-serif" font-size="13" lengthAdjust="spacing" textLength="219" x="742.5" y="874.9639">getRoleByDescription(roleDescription)</text><polygon fill="#181818" points="1432.5,907.5176,1442.5,911.5176,1432.5,915.5176,1436.5,911.5176" style="stroke:#181818;stroke-width:1.0;"/><line style="stroke:#181818;stroke-width:1.0;" x1="1298.5" x2="1438.5" y1="911.5176" y2="911.5176"/><text fill="#000000" font-family="sans-serif" font-size="13" font-weight="bold" lengthAdjust="spacing" textLength="25" x="1305.5" y="906.2549">13.1</text><text fill="#000000" font-family="sans-serif" font-size="13" lengthAdjust="spacing" textLength="75" x="1334.5" y="906.2549">getInstance()</text><polygon fill="#181818" points="1309.5,938.8086,1299.5,942.8086,1309.5,946.8086,1305.5,942.8086" style="stroke:#181818;stroke-width:1.0;"/><line style="stroke:#181818;stroke-width:1.0;stroke-dasharray:2.0,2.0;" x1="1303.5" x2="1448.5" y1="942.8086" y2="942.8086"/><text fill="#000000" font-family="sans-serif" font-size="13" font-weight="bold" lengthAdjust="spacing" textLength="25" x="1315.5" y="937.5459">13.2</text><text fill="#000000" font-family="sans-serif" font-size="13" lengthAdjust="spacing" textLength="67" x="1344.5" y="937.5459">repositories</text><polygon fill="#181818" points="1539.5,970.0996,1549.5,974.0996,1539.5,978.0996,1543.5,974.0996" style="stroke:#181818;stroke-width:1.0;"/><line style="stroke:#181818;stroke-width:1.0;" x1="1298.5" x2="1545.5" y1="974.0996" y2="974.0996"/><text fill="#000000" font-family="sans-serif" font-size="13" font-weight="bold" lengthAdjust="spacing" textLength="25" x="1305.5" y="968.8369">13.3</text><text fill="#000000" font-family="sans-serif" font-size="13" lengthAdjust="spacing" textLength="114" x="1334.5" y="968.8369">getRoleRepository()</text><polygon fill="#181818" points="1309.5,1001.3906,1299.5,1005.3906,1309.5,1009.3906,1305.5,1005.3906" style="stroke:#181818;stroke-width:1.0;"/><line style="stroke:#181818;stroke-width:1.0;stroke-dasharray:2.0,2.0;" x1="1303.5" x2="1555.5" y1="1005.3906" y2="1005.3906"/><text fill="#000000" font-family="sans-serif" font-size="13" font-weight="bold" lengthAdjust="spacing" textLength="25" x="1315.5" y="1000.1279">13.4</text><text fill="#000000" font-family="sans-serif" font-size="13" lengthAdjust="spacing" textLength="83" x="1344.5" y="1000.1279">roleRepository</text><polygon fill="#181818" points="1653.5,1032.6816,1663.5,1036.6816,1653.5,1040.6816,1657.5,1036.6816" style="stroke:#181818;stroke-width:1.0;"/><line style="stroke:#181818;stroke-width:1.0;" x1="1298.5" x2="1659.5" y1="1036.6816" y2="1036.6816"/><text fill="#000000" font-family="sans-serif" font-size="13" font-weight="bold" lengthAdjust="spacing" textLength="25" x="1305.5" y="1031.4189">13.5</text><text fill="#000000" font-family="sans-serif" font-size="13" lengthAdjust="spacing" textLength="219" x="1334.5" y="1031.4189">getRoleByDescription(roleDescription)</text><polygon fill="#181818" points="1309.5,1063.9727,1299.5,1067.9727,1309.5,1071.9727,1305.5,1067.9727" style="stroke:#181818;stroke-width:1.0;"/><line style="stroke:#181818;stroke-width:1.0;stroke-dasharray:2.0,2.0;" x1="1303.5" x2="1669.5" y1="1067.9727" y2="1067.9727"/><text fill="#000000" font-family="sans-serif" font-size="13" font-weight="bold" lengthAdjust="spacing" textLength="25" x="1315.5" y="1062.71">13.6</text><text fill="#000000" font-family="sans-serif" font-size="13" lengthAdjust="spacing" textLength="21" x="1344.5" y="1062.71">role</text><polygon fill="#181818" points="728.5,1095.2637,718.5,1099.2637,728.5,1103.2637,724.5,1099.2637" style="stroke:#181818;stroke-width:1.0;"/><line style="stroke:#181818;stroke-width:1.0;stroke-dasharray:2.0,2.0;" x1="722.5" x2="1292.5" y1="1099.2637" y2="1099.2637"/><text fill="#000000" font-family="sans-serif" font-size="13" font-weight="bold" lengthAdjust="spacing" textLength="14" x="734.5" y="1094.001">14</text><text fill="#000000" font-family="sans-serif" font-size="13" lengthAdjust="spacing" textLength="21" x="752.5" y="1094.001">role</text><polygon fill="#181818" points="1276.5,1126.5547,1286.5,1130.5547,1276.5,1134.5547,1280.5,1130.5547" style="stroke:#181818;stroke-width:1.0;"/><line style="stroke:#181818;stroke-width:1.0;stroke-dasharray:2.0,2.0;" x1="717.5" x2="1282.5" y1="1130.5547" y2="1130.5547"/><text fill="#000000" font-family="sans-serif" font-size="13" font-weight="bold" lengthAdjust="spacing" textLength="14" x="724.5" y="1125.292">15</text><text fill="#000000" font-family="sans-serif" font-size="13" lengthAdjust="spacing" textLength="232" x="742.5" y="1125.292">getStoreByDescription(storeDescription)</text><polygon fill="#181818" points="1432.5,1157.8457,1442.5,1161.8457,1432.5,1165.8457,1436.5,1161.8457" style="stroke:#181818;stroke-width:1.0;"/><line style="stroke:#181818;stroke-width:1.0;" x1="1298.5" x2="1438.5" y1="1161.8457" y2="1161.8457"/><text fill="#000000" font-family="sans-serif" font-size="13" font-weight="bold" lengthAdjust="spacing" textLength="25" x="1305.5" y="1156.583">15.1</text><text fill="#000000" font-family="sans-serif" font-size="13" lengthAdjust="spacing" textLength="75" x="1334.5" y="1156.583">getInstance()</text><polygon fill="#181818" points="1309.5,1189.1367,1299.5,1193.1367,1309.5,1197.1367,1305.5,1193.1367" style="stroke:#181818;stroke-width:1.0;"/><line style="stroke:#181818;stroke-width:1.0;stroke-dasharray:2.0,2.0;" x1="1303.5" x2="1448.5" y1="1193.1367" y2="1193.1367"/><text fill="#000000" font-family="sans-serif" font-size="13" font-weight="bold" lengthAdjust="spacing" textLength="25" x="1315.5" y="1187.874">15.2</text><text fill="#000000" font-family="sans-serif" font-size="13" lengthAdjust="spacing" textLength="67" x="1344.5" y="1187.874">repositories</text><polygon fill="#181818" points="1539.5,1220.4277,1549.5,1224.4277,1539.5,1228.4277,1543.5,1224.4277" style="stroke:#181818;stroke-width:1.0;"/><line style="stroke:#181818;stroke-width:1.0;" x1="1298.5" x2="1545.5" y1="1224.4277" y2="1224.4277"/><text fill="#000000" font-family="sans-serif" font-size="13" font-weight="bold" lengthAdjust="spacing" textLength="25" x="1305.5" y="1219.165">15.3</text><text fill="#000000" font-family="sans-serif" font-size="13" lengthAdjust="spacing" textLength="119" x="1334.5" y="1219.165">getStoreRepository()</text><polygon fill="#181818" points="1309.5,1251.7188,1299.5,1255.7188,1309.5,1259.7188,1305.5,1255.7188" style="stroke:#181818;stroke-width:1.0;"/><line style="stroke:#181818;stroke-width:1.0;stroke-dasharray:2.0,2.0;" x1="1303.5" x2="1555.5" y1="1255.7188" y2="1255.7188"/><text fill="#000000" font-family="sans-serif" font-size="13" font-weight="bold" lengthAdjust="spacing" textLength="25" x="1315.5" y="1250.4561">15.4</text><text fill="#000000" font-family="sans-serif" font-size="13" lengthAdjust="spacing" textLength="91" x="1344.5" y="1250.4561">storeRepository</text><polygon fill="#181818" points="1778,1283.0098,1788,1287.0098,1778,1291.0098,1782,1287.0098" style="stroke:#181818;stroke-width:1.0;"/><line style="stroke:#181818;stroke-width:1.0;" x1="1298.5" x2="1784" y1="1287.0098" y2="1287.0098"/><text fill="#000000" font-family="sans-serif" font-size="13" font-weight="bold" lengthAdjust="spacing" textLength="25" x="1305.5" y="1281.7471">15.5</text><text fill="#000000" font-family="sans-serif" font-size="13" lengthAdjust="spacing" textLength="232" x="1334.5" y="1281.7471">getStoreByDescription(storeDescription)</text><polygon fill="#181818" points="1309.5,1314.3008,1299.5,1318.3008,1309.5,1322.3008,1305.5,1318.3008" style="stroke:#181818;stroke-width:1.0;"/><line style="stroke:#181818;stroke-width:1.0;stroke-dasharray:2.0,2.0;" x1="1303.5" x2="1794" y1="1318.3008" y2="1318.3008"/><text fill="#000000" font-family="sans-serif" font-size="13" font-weight="bold" lengthAdjust="spacing" textLength="25" x="1315.5" y="1313.0381">15.6</text><text fill="#000000" font-family="sans-serif" font-size="13" lengthAdjust="spacing" textLength="29" x="1344.5" y="1313.0381">store</text><polygon fill="#181818" points="728.5,1345.5918,718.5,1349.5918,728.5,1353.5918,724.5,1349.5918" style="stroke:#181818;stroke-width:1.0;"/><line style="stroke:#181818;stroke-width:1.0;stroke-dasharray:2.0,2.0;" x1="722.5" x2="1292.5" y1="1349.5918" y2="1349.5918"/><text fill="#000000" font-family="sans-serif" font-size="13" font-weight="bold" lengthAdjust="spacing" textLength="14" x="734.5" y="1344.3291">16</text><text fill="#000000" font-family="sans-serif" font-size="13" lengthAdjust="spacing" textLength="29" x="752.5" y="1344.3291">store</text><polygon fill="#181818" points="1276.5,1376.8828,1286.5,1380.8828,1276.5,1384.8828,1280.5,1380.8828" style="stroke:#181818;stroke-width:1.0;"/><line style="stroke:#181818;stroke-width:1.0;" x1="717.5" x2="1282.5" y1="1380.8828" y2="1380.8828"/><text fill="#000000" font-family="sans-serif" font-size="13" font-weight="bold" lengthAdjust="spacing" textLength="14" x="724.5" y="1375.6201">17</text><text fill="#000000" font-family="sans-serif" font-size="13" lengthAdjust="spacing" textLength="534" x="742.5" y="1375.6201">registerEmployee(name,email,passportNumber,taxNumber,address,phoneNumber,store,role)</text><polygon fill="#181818" points="1920.5,1408.1738,1930.5,1412.1738,1920.5,1416.1738,1924.5,1412.1738" style="stroke:#181818;stroke-width:1.0;"/><line style="stroke:#181818;stroke-width:1.0;" x1="1298.5" x2="1926.5" y1="1412.1738" y2="1412.1738"/><text fill="#000000" font-family="sans-serif" font-size="13" font-weight="bold" lengthAdjust="spacing" textLength="14" x="1305.5" y="1406.9111">18</text><text fill="#000000" font-family="sans-serif" font-size="13" lengthAdjust="spacing" textLength="534" x="1323.5" y="1406.9111">registerEmployee(name,email,passportNumber,taxNumber,address,phoneNumber,store,role)</text><polygon fill="#181818" points="2252.5,1456.7559,2262.5,1460.7559,2252.5,1464.7559,2256.5,1460.7559" style="stroke:#181818;stroke-width:1.0;"/><line style="stroke:#181818;stroke-width:1.0;" x1="1942.5" x2="2258.5" y1="1460.7559" y2="1460.7559"/><text fill="#000000" font-family="sans-serif" font-size="13" font-weight="bold" lengthAdjust="spacing" textLength="25" x="1949.5" y="1446.8477">18.1</text><text fill="#000000" font-family="sans-serif" font-size="13" lengthAdjust="spacing" textLength="269" x="1978.5" y="1438.2021">create(name,email,password,passportNumber,</text><text fill="#000000" font-family="sans-serif" font-size="13" lengthAdjust="spacing" textLength="263" x="1982.5" y="1455.4932">taxNumber,address,phoneNumber,store, role)</text><rect fill="#E3E3E3" height="51.2422" rx="2.5" ry="2.5" style="stroke:#181818;stroke-width:0.5;" width="79" x="2264.5" y="1420.1738"/><text fill="#000000" font-family="sans-serif" font-size="14" lengthAdjust="spacing" textLength="65" x="2271.5" y="1442.2813">employee:</text><text fill="#000000" font-family="sans-serif" font-size="14" lengthAdjust="spacing" textLength="62" x="2273" y="1460.9023">Employee</text><line style="stroke:#181818;stroke-width:1.0;" x1="1942.5" x2="1989.5" y1="1500.707" y2="1500.707"/><line style="stroke:#181818;stroke-width:1.0;" x1="1989.5" x2="1989.5" y1="1500.707" y2="1513.707"/><line style="stroke:#181818;stroke-width:1.0;" x1="1948.5" x2="1989.5" y1="1513.707" y2="1513.707"/><polygon fill="#181818" points="1958.5,1509.707,1948.5,1513.707,1958.5,1517.707,1954.5,1513.707" style="stroke:#181818;stroke-width:1.0;"/><text fill="#000000" font-family="sans-serif" font-size="13" font-weight="bold" lengthAdjust="spacing" textLength="25" x="1954.5" y="1495.4443">18.2</text><text fill="#000000" font-family="sans-serif" font-size="13" lengthAdjust="spacing" textLength="147" x="1983.5" y="1495.4443">addEmployee (employee)</text><line style="stroke:#181818;stroke-width:1.0;" x1="1947.5" x2="1994.5" y1="1544.998" y2="1544.998"/><line style="stroke:#181818;stroke-width:1.0;" x1="1994.5" x2="1994.5" y1="1544.998" y2="1557.998"/><line style="stroke:#181818;stroke-width:1.0;" x1="1953.5" x2="1994.5" y1="1557.998" y2="1557.998"/><polygon fill="#181818" points="1963.5,1553.998,1953.5,1557.998,1963.5,1561.998,1959.5,1557.998" style="stroke:#181818;stroke-width:1.0;"/><text fill="#000000" font-family="sans-serif" font-size="13" font-weight="bold" lengthAdjust="spacing" textLength="25" x="1959.5" y="1539.7354">18.3</text><text fill="#000000" font-family="sans-serif" font-size="13" lengthAdjust="spacing" textLength="115" x="1988.5" y="1539.7354">generatePassword()</text><line style="stroke:#181818;stroke-width:1.0;" x1="1952.5" x2="1999.5" y1="1589.2891" y2="1589.2891"/><line style="stroke:#181818;stroke-width:1.0;" x1="1999.5" x2="1999.5" y1="1589.2891" y2="1602.2891"/><line style="stroke:#181818;stroke-width:1.0;" x1="1958.5" x2="1999.5" y1="1602.2891" y2="1602.2891"/><polygon fill="#181818" points="1968.5,1598.2891,1958.5,1602.2891,1968.5,1606.2891,1964.5,1602.2891" style="stroke:#181818;stroke-width:1.0;"/><text fill="#000000" font-family="sans-serif" font-size="13" font-weight="bold" lengthAdjust="spacing" textLength="25" x="1964.5" y="1584.0264">18.4</text><text fill="#000000" font-family="sans-serif" font-size="13" lengthAdjust="spacing" textLength="165" x="1993.5" y="1584.0264">validateEmployee(employee)</text><line style="stroke:#181818;stroke-width:1.0;stroke-dasharray:2.0,2.0;" x1="1957.5" x2="1999.5" y1="1643.5801" y2="1643.5801"/><line style="stroke:#181818;stroke-width:1.0;stroke-dasharray:2.0,2.0;" x1="1999.5" x2="1999.5" y1="1643.5801" y2="1656.5801"/><line style="stroke:#181818;stroke-width:1.0;stroke-dasharray:2.0,2.0;" x1="1952.5" x2="1999.5" y1="1656.5801" y2="1656.5801"/><polygon fill="#181818" points="1962.5,1652.5801,1952.5,1656.5801,1962.5,1660.5801,1958.5,1656.5801" style="stroke:#181818;stroke-width:1.0;"/><text fill="#000000" font-family="sans-serif" font-size="13" font-weight="bold" lengthAdjust="spacing" textLength="25" x="1964.5" y="1638.3174">18.5</text><text fill="#000000" font-family="sans-serif" font-size="13" lengthAdjust="spacing" textLength="4" x="1993.5" y="1638.3174">&#160;</text><line style="stroke:#181818;stroke-width:1.0;stroke-dasharray:2.0,2.0;" x1="1952.5" x2="1994.5" y1="1687.8711" y2="1687.8711"/><line style="stroke:#181818;stroke-width:1.0;stroke-dasharray:2.0,2.0;" x1="1994.5" x2="1994.5" y1="1687.8711" y2="1700.8711"/><line style="stroke:#181818;stroke-width:1.0;stroke-dasharray:2.0,2.0;" x1="1947.5" x2="1994.5" y1="1700.8711" y2="1700.8711"/><polygon fill="#181818" points="1957.5,1696.8711,1947.5,1700.8711,1957.5,1704.8711,1953.5,1700.8711" style="stroke:#181818;stroke-width:1.0;"/><text fill="#000000" font-family="sans-serif" font-size="13" font-weight="bold" lengthAdjust="spacing" textLength="25" x="1959.5" y="1682.6084">18.6</text><text fill="#000000" font-family="sans-serif" font-size="13" lengthAdjust="spacing" textLength="4" x="1988.5" y="1682.6084">&#160;</text><line style="stroke:#181818;stroke-width:1.0;stroke-dasharray:2.0,2.0;" x1="1947.5" x2="1989.5" y1="1732.1621" y2="1732.1621"/><line style="stroke:#181818;stroke-width:1.0;stroke-dasharray:2.0,2.0;" x1="1989.5" x2="1989.5" y1="1732.1621" y2="1745.1621"/><line style="stroke:#181818;stroke-width:1.0;stroke-dasharray:2.0,2.0;" x1="1942.5" x2="1989.5" y1="1745.1621" y2="1745.1621"/><polygon fill="#181818" points="1952.5,1741.1621,1942.5,1745.1621,1952.5,1749.1621,1948.5,1745.1621" style="stroke:#181818;stroke-width:1.0;"/><text fill="#000000" font-family="sans-serif" font-size="13" font-weight="bold" lengthAdjust="spacing" textLength="25" x="1954.5" y="1726.8994">18.7</text><text fill="#000000" font-family="sans-serif" font-size="13" lengthAdjust="spacing" textLength="4" x="1983.5" y="1726.8994">&#160;</text><polygon fill="#181818" points="1309.5,1767.4531,1299.5,1771.4531,1309.5,1775.4531,1305.5,1771.4531" style="stroke:#181818;stroke-width:1.0;"/><line style="stroke:#181818;stroke-width:1.0;stroke-dasharray:2.0,2.0;" x1="1303.5" x2="1936.5" y1="1771.4531" y2="1771.4531"/><text fill="#000000" font-family="sans-serif" font-size="13" font-weight="bold" lengthAdjust="spacing" textLength="14" x="1315.5" y="1766.1904">19</text><text fill="#000000" font-family="sans-serif" font-size="13" lengthAdjust="spacing" textLength="118" x="1333.5" y="1766.1904">employeeRegistered</text><polygon fill="#181818" points="728.5,1798.7441,718.5,1802.7441,728.5,1806.7441,724.5,1802.7441" style="stroke:#181818;stroke-width:1.0;"/><line style="stroke:#181818;stroke-width:1.0;stroke-dasharray:2.0,2.0;" x1="722.5" x2="1292.5" y1="1802.7441" y2="1802.7441"/><text fill="#000000" font-family="sans-serif" font-size="13" font-weight="bold" lengthAdjust="spacing" textLength="14" x="734.5" y="1797.4814">20</text><text fill="#000000" font-family="sans-serif" font-size="13" lengthAdjust="spacing" textLength="118" x="752.5" y="1797.4814">employeeRegistered</text><polygon fill="#181818" points="60.5,1830.0352,50.5,1834.0352,60.5,1838.0352,56.5,1834.0352" style="stroke:#181818;stroke-width:1.0;"/><line style="stroke:#181818;stroke-width:1.0;stroke-dasharray:2.0,2.0;" x1="54.5" x2="711.5" y1="1834.0352" y2="1834.0352"/><text fill="#000000" font-family="sans-serif" font-size="13" font-weight="bold" lengthAdjust="spacing" textLength="14" x="66.5" y="1828.7725">21</text><text fill="#000000" font-family="sans-serif" font-size="13" lengthAdjust="spacing" textLength="158" x="84.5" y="1828.7725">displays operation success</text><!--SRC=[xLXBSziu3BxpLs1oQTnnTgQpkstgGsUoRGwPSRSP9xdbmaY8pOb4QaawgV_zWfIi9ws7c_PKNnAHn0U003v0Caz2Pbpp558bLRJHAaMmUelCb3iPZvxu6c_iBa7G65akrqdzWDdmMBq8kOP7dXXaZ6-jajlq0JLZRpOYHdXKoZwexun7LcaukOXJ8OMncjFZ2N035r- -CaAp8X8PbnPE5YjSqmdKbscMg1tYtPK_U7SrSEwpabQh9C4S-FFjQjcHo9GHf5cWyMVAXTsDSBwHzKqHNPEubrs0w-N5RKj29LZ1Bkxbgh6Gg_ssN3Mb3EqrnMwQArxkvdRLaiF2zuRePMVHIrz-lJuWNPFPdrmo5pBnp2tw406uFt3sYU802phqPC0goeey1i11uWli0Pax3oK0XSult5sHl8lBsxU44McapVqE55kqiKRhBisSplnU-rV2-WW7JvHf27_-yIvuPF_pAabr81DoIwwaeRoFy80n7QD2ATKhwNuXxMV5XIoWdeIzK34URyR-8bn6Lp6eOCRwxojYq66lvQmAURDgnZevhAiCBrNSS6PrW-aATJXw3hpbp9BAWeqEbbTp-7Wjd_zYVQwI4RuyAnC6D1yi8LUGv96h-GNnl7e1kq5821BK8_1dBXB-uDg2kyxAyXhqlkYXHHq64sebe2G2TOIKM2u7eLQXlP8cYGI914ASuHdpLKZZms_IE9OqMcthvx96gsk-FcsuXZiYkJhk-4Ozw8v7RxipYJZwzTGo-dmKRLG6l1vjy98qF7fLvbj3TkLaqCiV0UvmuXxDZI0K-wqxtw2E0-D7pJYD_ssH38kvvJsJ39nAdk8SKoAyUSQDoPIs__fBdLl-lVYFnp6vPkRPXcWjNvlbEeSSsZwaeZ22hiZvC6gEWhBEYvRsp-uBcaYBp0ebJnsXrfvdBHmVFXP8atVjSUbOffj6AKSosHJccZZU3735XF6bbtV2uyb0B2TCAg79XFKF8UsCo0UEt52VjGKA2r52lSpAzFJKsVJ95sytGNkIj6tMtu4M_IDjUNeF_87sExNb7jDcHtIxgUrqi8KUQ9j3iJ-YZGPR9nlTAUkPz9urpI-IF4TaXvfVXuTrwsl4iNrZxXNFNOq5QRj-p-wD_fTezfyEkjnmJaKO38yxNnX8x_hxL_ssOIzAnsqBxoMCCH9oAmTqq-KGn6NPolTjTSRwtn6yktqZM5F76YLgahikV3gTiN5ZuaGzppmHD2bW6UZAdzTHLwaiT8wTGqSwCeGw5d4OhOtKITsFHOXAgBoAeVgWbXSLnkmmO9CnHeWsUrfZ7es5oHA-Cw0obqn4Z3GSHX6bVsYGh3svhtF_0m00]--></g></svg>