<?xml version="1.0" encoding="us-ascii" standalone="no"?><svg xmlns="http://www.w3.org/2000/svg" xmlns:xlink="http://www.w3.org/1999/xlink" contentStyleType="text/css" height="657px" preserveAspectRatio="none" style="width:929px;height:657px;background:#FFFFFF;" version="1.1" viewBox="0 0 929 657" width="929px" zoomAndPan="magnify"><defs/><g><!--class Agent--><g id="elem_Agent"><rect codeLine="14" fill="#F1F1F1" height="36.6211" id="Agent" rx="2.5" ry="2.5" style="stroke:#181818;stroke-width:0.5;" width="43" x="394.5" y="34.5"/><text fill="#000000" font-family="sans-serif" font-size="14" lengthAdjust="spacing" textLength="37" x="397.5" y="54.6074">Agent</text><line style="stroke:#181818;stroke-width:0.5;" x1="395.5" x2="436.5" y1="63.1211" y2="63.1211"/></g><!--class House--><g id="elem_House"><rect codeLine="22" fill="#F1F1F1" height="92.4844" id="House" rx="2.5" ry="2.5" style="stroke:#181818;stroke-width:0.5;" width="98" x="134" y="558"/><text fill="#000000" font-family="sans-serif" font-size="14" lengthAdjust="spacing" textLength="40" x="163" y="578.1074">House</text><line style="stroke:#181818;stroke-width:0.5;" x1="135" x2="231" y1="586.6211" y2="586.6211"/><text fill="#000000" font-family="sans-serif" font-size="14" lengthAdjust="spacing" textLength="86" x="140" y="605.7285">hasBasement</text><text fill="#000000" font-family="sans-serif" font-size="14" lengthAdjust="spacing" textLength="47" x="140" y="624.3496">hasLoft</text><text fill="#000000" font-family="sans-serif" font-size="14" lengthAdjust="spacing" textLength="82" x="140" y="642.9707">sunExposure</text></g><!--class Inhabitable--><g id="elem_Inhabitable"><rect codeLine="28" fill="#F1F1F1" height="111.1055" id="Inhabitable" rx="2.5" ry="2.5" style="stroke:#181818;stroke-width:0.5;" width="121" x="122.5" y="358.5"/><text fill="#000000" font-family="sans-serif" font-size="14" lengthAdjust="spacing" textLength="69" x="148.5" y="378.6074">Inhabitable</text><line style="stroke:#181818;stroke-width:0.5;" x1="123.5" x2="242.5" y1="387.1211" y2="387.1211"/><text fill="#000000" font-family="sans-serif" font-size="14" lengthAdjust="spacing" textLength="105" x="128.5" y="406.2285">bedroomNumber</text><text fill="#000000" font-family="sans-serif" font-size="14" lengthAdjust="spacing" textLength="109" x="128.5" y="424.8496">bathroomNumber</text><text fill="#000000" font-family="sans-serif" font-size="14" lengthAdjust="spacing" textLength="94" x="128.5" y="443.4707">parkingSpaces</text><text fill="#000000" font-family="sans-serif" font-size="14" lengthAdjust="spacing" textLength="90" x="128.5" y="462.0918">hasEquipment</text></g><!--class BusinessType--><g id="elem_BusinessType"><rect codeLine="38" fill="#F1F1F1" height="55.2422" id="BusinessType" rx="2.5" ry="2.5" style="stroke:#181818;stroke-width:0.5;" width="95" x="39.5" y="196.5"/><text fill="#000000" font-family="sans-serif" font-size="14" lengthAdjust="spacing" textLength="89" x="42.5" y="216.6074">BusinessType</text><line style="stroke:#181818;stroke-width:0.5;" x1="40.5" x2="133.5" y1="225.1211" y2="225.1211"/><text fill="#000000" font-family="sans-serif" font-size="14" lengthAdjust="spacing" textLength="69" x="45.5" y="244.2285">description</text></g><!--class PropertyType--><g id="elem_PropertyType"><rect codeLine="43" fill="#F1F1F1" height="55.2422" id="PropertyType" rx="2.5" ry="2.5" style="stroke:#181818;stroke-width:0.5;" width="92" x="279" y="386.5"/><text fill="#000000" font-family="sans-serif" font-size="14" lengthAdjust="spacing" textLength="86" x="282" y="406.6074">PropertyType</text><line style="stroke:#181818;stroke-width:0.5;" x1="280" x2="370" y1="415.1211" y2="415.1211"/><text fill="#000000" font-family="sans-serif" font-size="14" lengthAdjust="spacing" textLength="69" x="285" y="434.2285">description</text></g><!--class Announcement--><g id="elem_Announcement"><rect codeLine="48" fill="#F1F1F1" height="92.4844" id="Announcement" rx="2.5" ry="2.5" style="stroke:#181818;stroke-width:0.5;" width="101" x="188.5" y="7"/><text fill="#000000" font-family="sans-serif" font-size="14" lengthAdjust="spacing" textLength="95" x="191.5" y="27.1074">Announcement</text><line style="stroke:#181818;stroke-width:0.5;" x1="189.5" x2="288.5" y1="35.6211" y2="35.6211"/><text fill="#000000" font-family="sans-serif" font-size="14" lengthAdjust="spacing" textLength="65" x="194.5" y="54.7285">listedPrice</text><text fill="#000000" font-family="sans-serif" font-size="14" lengthAdjust="spacing" textLength="79" x="194.5" y="73.3496">rentDuration</text><text fill="#000000" font-family="sans-serif" font-size="14" lengthAdjust="spacing" textLength="28" x="194.5" y="91.9707">date</text></g><!--class Store--><g id="elem_Store"><rect codeLine="56" fill="#F1F1F1" height="129.7266" id="Store" rx="2.5" ry="2.5" style="stroke:#181818;stroke-width:0.5;" width="101" x="545.5" y="349"/><text fill="#000000" font-family="sans-serif" font-size="14" lengthAdjust="spacing" textLength="34" x="579" y="369.1074">Store</text><line style="stroke:#181818;stroke-width:0.5;" x1="546.5" x2="645.5" y1="377.6211" y2="377.6211"/><text fill="#000000" font-family="sans-serif" font-size="14" lengthAdjust="spacing" textLength="11" x="551.5" y="396.7285">id</text><text fill="#000000" font-family="sans-serif" font-size="14" lengthAdjust="spacing" textLength="73" x="551.5" y="415.3496">designation</text><text fill="#000000" font-family="sans-serif" font-size="14" lengthAdjust="spacing" textLength="51" x="551.5" y="433.9707">address</text><text fill="#000000" font-family="sans-serif" font-size="14" lengthAdjust="spacing" textLength="33" x="551.5" y="452.5918">email</text><text fill="#000000" font-family="sans-serif" font-size="14" lengthAdjust="spacing" textLength="89" x="551.5" y="471.2129">phoneNumber</text></g><!--class Property--><g id="elem_Property"><rect codeLine="70" fill="#F1F1F1" height="92.4844" id="Property" rx="2.5" ry="2.5" style="stroke:#181818;stroke-width:0.5;" width="125" x="319.5" y="178"/><text fill="#000000" font-family="sans-serif" font-size="14" lengthAdjust="spacing" textLength="54" x="355" y="198.1074">Property</text><line style="stroke:#181818;stroke-width:0.5;" x1="320.5" x2="443.5" y1="206.6211" y2="206.6211"/><text fill="#000000" font-family="sans-serif" font-size="14" lengthAdjust="spacing" textLength="31" x="325.5" y="225.7285">price</text><text fill="#000000" font-family="sans-serif" font-size="14" lengthAdjust="spacing" textLength="29" x="325.5" y="244.3496">area</text><text fill="#000000" font-family="sans-serif" font-size="14" lengthAdjust="spacing" textLength="113" x="325.5" y="262.9707">distanceToCentre</text></g><!--class Address--><g id="elem_Address"><rect codeLine="77" fill="#F1F1F1" height="92.4844" id="Address" rx="2.5" ry="2.5" style="stroke:#181818;stroke-width:0.5;" width="100" x="546" y="558"/><text fill="#000000" font-family="sans-serif" font-size="14" lengthAdjust="spacing" textLength="52" x="570" y="578.1074">Address</text><line style="stroke:#181818;stroke-width:0.5;" x1="547" x2="645" y1="586.6211" y2="586.6211"/><text fill="#000000" font-family="sans-serif" font-size="14" lengthAdjust="spacing" textLength="88" x="552" y="605.7285">streetAddress</text><text fill="#000000" font-family="sans-serif" font-size="14" lengthAdjust="spacing" textLength="31" x="552" y="624.3496">state</text><text fill="#000000" font-family="sans-serif" font-size="14" lengthAdjust="spacing" textLength="51" x="552" y="642.9707">zipCode</text></g><!--class Employee--><g id="elem_Employee"><rect codeLine="83" fill="#F1F1F1" height="36.6211" id="Employee" rx="2.5" ry="2.5" style="stroke:#181818;stroke-width:0.5;" width="68" x="644" y="205.5"/><text fill="#000000" font-family="sans-serif" font-size="14" lengthAdjust="spacing" textLength="62" x="647" y="225.6074">Employee</text><line style="stroke:#181818;stroke-width:0.5;" x1="645" x2="711" y1="234.1211" y2="234.1211"/></g><!--class Commission--><g id="elem_Commission"><rect codeLine="87" fill="#F1F1F1" height="73.8633" id="Commission" rx="2.5" ry="2.5" style="stroke:#181818;stroke-width:0.5;" width="115" x="169.5" y="187"/><text fill="#000000" font-family="sans-serif" font-size="14" lengthAdjust="spacing" textLength="76" x="189" y="207.1074">Commission</text><line style="stroke:#181818;stroke-width:0.5;" x1="170.5" x2="283.5" y1="215.6211" y2="215.6211"/><text fill="#000000" font-family="sans-serif" font-size="14" lengthAdjust="spacing" textLength="34" x="175.5" y="234.7285">value</text><text fill="#000000" font-family="sans-serif" font-size="14" lengthAdjust="spacing" textLength="103" x="175.5" y="253.3496">typeCommission</text></g><!--class Person--><g id="elem_Person"><rect codeLine="94" fill="#F1F1F1" height="129.7266" id="Person" rx="2.5" ry="2.5" style="stroke:#181818;stroke-width:0.5;" width="116" x="806" y="349"/><text fill="#000000" font-family="sans-serif" font-size="14" lengthAdjust="spacing" textLength="45" x="841.5" y="369.1074">Person</text><line style="stroke:#181818;stroke-width:0.5;" x1="807" x2="921" y1="377.6211" y2="377.6211"/><text fill="#000000" font-family="sans-serif" font-size="14" lengthAdjust="spacing" textLength="33" x="812" y="396.7285">email</text><text fill="#000000" font-family="sans-serif" font-size="14" lengthAdjust="spacing" textLength="35" x="812" y="415.3496">name</text><text fill="#000000" font-family="sans-serif" font-size="14" lengthAdjust="spacing" textLength="104" x="812" y="433.9707">passportNumber</text><text fill="#000000" font-family="sans-serif" font-size="14" lengthAdjust="spacing" textLength="67" x="812" y="452.5918">taxNumber</text><text fill="#000000" font-family="sans-serif" font-size="14" lengthAdjust="spacing" textLength="89" x="812" y="471.2129">phoneNumber</text></g><!--class Photograph--><g id="elem_Photograph"><rect codeLine="104" fill="#F1F1F1" height="55.2422" id="Photograph" rx="2.5" ry="2.5" style="stroke:#181818;stroke-width:0.5;" width="80" x="7" y="386.5"/><text fill="#000000" font-family="sans-serif" font-size="14" lengthAdjust="spacing" textLength="74" x="10" y="406.6074">Photograph</text><line style="stroke:#181818;stroke-width:0.5;" x1="8" x2="86" y1="415.1211" y2="415.1211"/><text fill="#000000" font-family="sans-serif" font-size="14" lengthAdjust="spacing" textLength="16" x="13" y="434.2285">uri</text></g><!--class Role--><g id="elem_Role"><rect codeLine="109" fill="#F1F1F1" height="73.8633" id="Role" rx="2.5" ry="2.5" style="stroke:#181818;stroke-width:0.5;" width="81" x="689.5" y="377"/><text fill="#000000" font-family="sans-serif" font-size="14" lengthAdjust="spacing" textLength="29" x="715.5" y="397.1074">Role</text><line style="stroke:#181818;stroke-width:0.5;" x1="690.5" x2="769.5" y1="405.6211" y2="405.6211"/><text fill="#000000" font-family="sans-serif" font-size="14" lengthAdjust="spacing" textLength="11" x="695.5" y="424.7285">id</text><text fill="#000000" font-family="sans-serif" font-size="14" lengthAdjust="spacing" textLength="69" x="695.5" y="443.3496">description</text></g><!--link Announcement to Agent--><g id="link_Announcement_Agent"><path codeLine="116" d="M289.72,53 C324.25,53 368.22,53 394.12,53 " fill="none" id="Announcement-Agent" style="stroke:#181818;stroke-width:1.0;"/><polygon fill="#000000" points="313,40.6455,322.0451,43.5844,322.0451,37.7066,313,40.6455" style="stroke:#000000;stroke-width:1.0;"/><text fill="#000000" font-family="sans-serif" font-size="13" lengthAdjust="spacing" textLength="43" x="327" y="46.0283">creates</text><text fill="#000000" font-family="sans-serif" font-size="13" lengthAdjust="spacing" textLength="5" x="297.5367" y="48.7657">*</text><text fill="#000000" font-family="sans-serif" font-size="13" lengthAdjust="spacing" textLength="7" x="379.3474" y="47.5278">1</text></g><!--link Announcement to Commission--><g id="link_Announcement_Commission"><path codeLine="118" d="M228.43,99.39 C226.59,109.11 224.96,119.35 224,129 C222.12,148.01 222.58,169.28 223.64,186.77 " fill="none" id="Announcement-Commission" style="stroke:#181818;stroke-width:1.0;"/><polygon fill="#000000" points="228.7263,143.638,232.1559,134.7674,226.2869,134.4456,228.7263,143.638" style="stroke:#000000;stroke-width:1.0;"/><text fill="#000000" font-family="sans-serif" font-size="13" lengthAdjust="spacing" textLength="32" x="238" y="144.0283">has a</text><text fill="#000000" font-family="sans-serif" font-size="13" lengthAdjust="spacing" textLength="7" x="219.3635" y="121.4661">1</text><text fill="#000000" font-family="sans-serif" font-size="13" lengthAdjust="spacing" textLength="7" x="215.4181" y="175.6908">1</text></g><!--link Announcement to Property--><g id="link_Announcement_Property"><path codeLine="120" d="M277.32,99.29 C297.92,123.63 323.24,153.56 343.82,177.88 " fill="none" id="Announcement-Property" style="stroke:#181818;stroke-width:1.0;"/><polygon fill="#000000" points="322.2297,142.4624,318.6306,133.6592,314.1436,137.4559,322.2297,142.4624" style="stroke:#000000;stroke-width:1.0;"/><text fill="#000000" font-family="sans-serif" font-size="13" lengthAdjust="spacing" textLength="47" x="328" y="144.0283">refers to</text><text fill="#000000" font-family="sans-serif" font-size="13" lengthAdjust="spacing" textLength="7" x="275.4342" y="121.3514">1</text><text fill="#000000" font-family="sans-serif" font-size="13" lengthAdjust="spacing" textLength="7" x="330.6983" y="166.8718">1</text></g><!--link Employee to Role--><g id="link_Employee_Role"><path codeLine="123" d="M682.89,242.69 C691.36,273.31 708.92,336.77 720.04,376.99 " fill="none" id="Employee-Role" style="stroke:#181818;stroke-width:1.0;"/><polygon fill="#000000" points="710.333,314.4645,710.7541,304.9633,705.089,306.5304,710.333,314.4645" style="stroke:#000000;stroke-width:1.0;"/><text fill="#000000" font-family="sans-serif" font-size="13" lengthAdjust="spacing" textLength="21" x="718" y="315.0283">has</text><text fill="#000000" font-family="sans-serif" font-size="13" lengthAdjust="spacing" textLength="7" x="676.2636" y="264.1157">1</text><text fill="#000000" font-family="sans-serif" font-size="13" lengthAdjust="spacing" textLength="20" x="696.3599" y="365.6668">1..*</text></g><!--link Property to Store--><g id="link_Property_Store"><path codeLine="125" d="M433.26,270.03 C467.14,299.8 511.36,338.65 545.16,368.34 " fill="none" id="Property-Store" style="stroke:#181818;stroke-width:1.0;"/><polygon fill="#000000" points="497.7563,312.9456,492.9009,304.7678,489.0214,309.1836,497.7563,312.9456" style="stroke:#000000;stroke-width:1.0;"/><text fill="#000000" font-family="sans-serif" font-size="13" lengthAdjust="spacing" textLength="67" x="503" y="315.0283">listed under</text><text fill="#000000" font-family="sans-serif" font-size="13" lengthAdjust="spacing" textLength="5" x="435.7264" y="292.3934">*</text><text fill="#000000" font-family="sans-serif" font-size="13" lengthAdjust="spacing" textLength="7" x="530.5184" y="357.7918">1</text></g><!--link Employee to Person--><g id="link_Employee_Person"><path codeLine="128" d="M695.5,242.69 C717.52,264.94 756.69,304.54 791.73,339.96 " fill="none" id="Employee-to-Person" style="stroke:#181818;stroke-width:1.0;"/><polygon fill="none" points="796.83,335.16,805.92,354.3,786.88,345.01,796.83,335.16" style="stroke:#181818;stroke-width:1.0;"/></g><!--link Agent to Employee--><g id="link_Agent_Employee"><path codeLine="130" d="M437.89,68.12 C480.84,95.82 576.9,157.78 633.64,194.39 " fill="none" id="Agent-to-Employee" style="stroke:#181818;stroke-width:1.0;"/><polygon fill="none" points="637.55,188.58,650.56,205.3,629.96,200.34,637.55,188.58" style="stroke:#181818;stroke-width:1.0;"/></g><!--reverse link Inhabitable to House--><g id="link_Inhabitable_House"><path codeLine="133" d="M183,489.72 C183,512.73 183,537.36 183,557.75 " fill="none" id="Inhabitable-backto-House" style="stroke:#181818;stroke-width:1.0;"/><polygon fill="none" points="176,489.63,183,469.63,190,489.63,176,489.63" style="stroke:#181818;stroke-width:1.0;"/></g><!--reverse link Property to Inhabitable--><g id="link_Property_Inhabitable"><path codeLine="135" d="M319.62,283.94 C294.46,307.7 265.61,334.96 240.92,358.28 " fill="none" id="Property-backto-Inhabitable" style="stroke:#181818;stroke-width:1.0;"/><polygon fill="none" points="314.99,278.68,334.33,270.03,324.6,288.85,314.99,278.68" style="stroke:#181818;stroke-width:1.0;"/></g><!--link Announcement to BusinessType--><g id="link_Announcement_BusinessType"><path codeLine="138" d="M188.49,78.35 C166.6,90.95 142.12,108.11 125,129 C108.82,148.74 98.78,176.28 93.11,196.44 " fill="none" id="Announcement-BusinessType" style="stroke:#181818;stroke-width:1.0;"/><polygon fill="#000000" points="126.8583,142.5352,134.828,137.3453,130.2554,133.652,126.8583,142.5352" style="stroke:#000000;stroke-width:1.0;"/><text fill="#000000" font-family="sans-serif" font-size="13" lengthAdjust="spacing" textLength="74" x="139" y="144.0283">cataloged as</text><text fill="#000000" font-family="sans-serif" font-size="13" lengthAdjust="spacing" textLength="5" x="175.3728" y="77.9437">*</text><text fill="#000000" font-family="sans-serif" font-size="13" lengthAdjust="spacing" textLength="7" x="86.7136" y="185.1351">1</text></g><!--link Store to Address--><g id="link_Store_Address"><path codeLine="141" d="M596,479.17 C596,505.02 596,534.23 596,557.78 " fill="none" id="Store-Address" style="stroke:#181818;stroke-width:1.0;"/><polygon fill="#000000" points="601,523.6455,603.9389,514.6004,598.0611,514.6004,601,523.6455" style="stroke:#000000;stroke-width:1.0;"/><text fill="#000000" font-family="sans-serif" font-size="13" lengthAdjust="spacing" textLength="39" x="610" y="524.0283">has an</text><text fill="#000000" font-family="sans-serif" font-size="13" lengthAdjust="spacing" textLength="7" x="588.6391" y="500.8246">1</text><text fill="#000000" font-family="sans-serif" font-size="13" lengthAdjust="spacing" textLength="7" x="588.4859" y="546.7571">1</text></g><!--link Employee to Store--><g id="link_Employee_Store"><path codeLine="143" d="M657.52,242.57 C642.65,256.55 623.38,277.46 613,300 C606.07,315.05 601.85,332.3 599.31,348.72 " fill="none" id="Employee-Store" style="stroke:#181818;stroke-width:1.0;"/><polygon fill="#000000" points="615.5959,314.0296,622.5219,307.5118,617.3681,304.6856,615.5959,314.0296" style="stroke:#000000;stroke-width:1.0;"/><text fill="#000000" font-family="sans-serif" font-size="13" lengthAdjust="spacing" textLength="63" x="627" y="315.0283">works on a</text><text fill="#000000" font-family="sans-serif" font-size="13" lengthAdjust="spacing" textLength="5" x="646.0569" y="264.306">*</text><text fill="#000000" font-family="sans-serif" font-size="13" lengthAdjust="spacing" textLength="7" x="592.2892" y="337.7095">1</text></g><!--link Person to Address--><g id="link_Person_Address"><path codeLine="145" d="M805.68,465.37 C799.79,470.08 793.83,474.69 788,479 C741.42,513.44 685.52,548.93 646.08,573.07 " fill="none" id="Person-Address" style="stroke:#181818;stroke-width:1.0;"/><polygon fill="#000000" points="741.8554,521.4423,750.997,518.819,747.7091,513.9467,741.8554,521.4423" style="stroke:#000000;stroke-width:1.0;"/><text fill="#000000" font-family="sans-serif" font-size="13" lengthAdjust="spacing" textLength="32" x="755" y="524.0283">has a</text><text fill="#000000" font-family="sans-serif" font-size="13" lengthAdjust="spacing" textLength="7" x="791.1457" y="467.6575">1</text><text fill="#000000" font-family="sans-serif" font-size="13" lengthAdjust="spacing" textLength="7" x="653.9496" y="564.2928">1</text></g><!--link Property to Address--><g id="link_Property_Address"><path codeLine="147" d="M404.23,270.2 C408.7,279.93 413.18,290.23 417,300 C447.38,377.77 430.88,407.51 474,479 C492.87,510.29 521.16,539.7 545.75,562.02 " fill="none" id="Property-Address" style="stroke:#181818;stroke-width:1.0;"/><polygon fill="#000000" points="481.1818,418.6444,479.8793,409.2234,474.5905,411.7882,481.1818,418.6444" style="stroke:#000000;stroke-width:1.0;"/><text fill="#000000" font-family="sans-serif" font-size="13" lengthAdjust="spacing" textLength="39" x="488" y="419.5283">has an</text><text fill="#000000" font-family="sans-serif" font-size="13" lengthAdjust="spacing" textLength="7" x="400.098" y="292.5895">1</text><text fill="#000000" font-family="sans-serif" font-size="13" lengthAdjust="spacing" textLength="7" x="530.8555" y="551.6199">1</text></g><!--link Property to Photograph--><g id="link_Property_Photograph"><path codeLine="149" d="M319.09,261.4 C313.36,264.4 307.6,267.31 302,270 C216.93,310.77 182.43,295.12 105,349 C90.35,359.19 76.79,373.74 66.47,386.39 " fill="none" id="Property-Photograph" style="stroke:#181818;stroke-width:1.0;"/><polygon fill="#000000" points="214.5185,311.8628,223.9289,310.4858,221.3223,305.2175,214.5185,311.8628" style="stroke:#000000;stroke-width:1.0;"/><text fill="#000000" font-family="sans-serif" font-size="13" lengthAdjust="spacing" textLength="21" x="228" y="315.0283">has</text><text fill="#000000" font-family="sans-serif" font-size="13" lengthAdjust="spacing" textLength="7" x="304.4113" y="261.7587">1</text><text fill="#000000" font-family="sans-serif" font-size="13" lengthAdjust="spacing" textLength="29" x="38.6193" y="375.0735">1..30</text></g><!--link Property to PropertyType--><g id="link_Property_PropertyType"><path codeLine="151" d="M339.67,270.21 C333.24,279.45 327.56,289.56 324,300 C314.36,328.22 316.52,362.77 319.87,386.18 " fill="none" id="Property-PropertyType" style="stroke:#181818;stroke-width:1.0;"/><polygon fill="#000000" points="328.1585,314.5742,332.5778,306.1527,326.7838,305.1635,328.1585,314.5742" style="stroke:#000000;stroke-width:1.0;"/><text fill="#000000" font-family="sans-serif" font-size="13" lengthAdjust="spacing" textLength="74" x="338" y="315.0283">cataloged as</text><text fill="#000000" font-family="sans-serif" font-size="13" lengthAdjust="spacing" textLength="5" x="327.8054" y="292.601">*</text><text fill="#000000" font-family="sans-serif" font-size="13" lengthAdjust="spacing" textLength="7" x="310.9822" y="375.2687">1</text></g><!--link Agent to Property--><g id="link_Agent_Property"><path codeLine="154" d="M412.43,71.77 C407.41,96.68 398.12,142.85 391.12,177.65 " fill="none" id="Agent-Property" style="stroke:#181818;stroke-width:1.0;"/><polygon fill="#000000" points="404.0135,143.5472,408.6793,135.2598,402.917,134.1001,404.0135,143.5472" style="stroke:#000000;stroke-width:1.0;"/><text fill="#000000" font-family="sans-serif" font-size="13" lengthAdjust="spacing" textLength="43" x="414" y="144.0283">creates</text><text fill="#000000" font-family="sans-serif" font-size="13" lengthAdjust="spacing" textLength="7" x="403.5299" y="93.2172">1</text><text fill="#000000" font-family="sans-serif" font-size="13" lengthAdjust="spacing" textLength="5" x="387.0923" y="166.608">*</text></g><!--SRC=[VLJ1Rjim3BthAuXS1Wn8q66te0YGTGLMO1YAfJ_0s8mjr1OrILwRflttKL8SQsasdnZgaNplYOf_rCQYmnvwDborZdk2u0PI_dHYiNh4XZPXtn4ugWAQfYi1liMQdxHfO8UT9wK-TBGB41YSRje0jOvLceqgYgeElL-7uFHs27HNiTde5u8hfLIhQu9AkqgcfBYdq7BjvIXLmReX4-0WlzzK_78p-CQ39qb3Y_uBUke5bNvyvvq4VZ2tpvRzu4Z1swdgphIurG6t7KcfV5kg7NF_O-Ytv786GtkM4X4YfTc8EUHJHkRS_XgqJLFJW97kby5hGzu_xAsCgCbNJjlanzi9S-_OaWlxY874up9kRGmFfahQ3ghJFb1zxtH5oadcw-0m5TGOADkJopQ1NPIdQnKRwyPa761TEw6cW7hKdGBRig6Zpj7UCuhP9Pk6nWWTOGfgOOF2xO5lX8kuFCrVvp6vrCiPXVKuEMKYtnYzQ7l3DKsLjxtjU4z2VihTSDzhxqN0GVt6JhOrY6rJjbH-Jyv7t2ZGO2-Jh1nPTc6yqO3FO_ZEWMEVbWCt3crxK8FJnSbFZfiZpfOtbgmhBmjc7sSmXzcdsN5zbr29SO4yN9yZ1JFFq4dJCYuO8Ap-3HulI5exsedk-0G5hqOF9_1Y8MmYyTmseiRgn3CtJ5kpXBnbC9YQtD_zvlFNrT5XePLafTG846pnl02kNwLpVgVJm35T8C-ycoYLJqaCn80TDy9DD4HYYN1foN79bh3AzfdIZ7T2L_34xj436q3XbtHTw0PmwbUe-2_EN08k5f-lPiLYlR-BacFv3t51UdO_zKvLnJACUnPXwWy0]--></g></svg>