<?xml version="1.0" encoding="us-ascii" standalone="no"?><svg xmlns="http://www.w3.org/2000/svg" xmlns:xlink="http://www.w3.org/1999/xlink" contentStyleType="text/css" height="1070px" preserveAspectRatio="none" style="width:591px;height:1070px;background:#FFFFFF;" version="1.1" viewBox="0 0 591 1070" width="591px" zoomAndPan="magnify"><defs/><g><rect fill="#FFFFFF" height="890.3281" style="stroke:#181818;stroke-width:1.0;" width="10" x="36.5" y="90.6406"/><rect fill="#FFFFFF" height="28.5234" style="stroke:#181818;stroke-width:1.0;" width="10" x="537.5" y="111.1641"/><rect fill="#FFFFFF" height="52.0469" style="stroke:#181818;stroke-width:1.0;" width="10" x="537.5" y="168.2109"/><rect fill="#FFFFFF" height="28.5234" style="stroke:#181818;stroke-width:1.0;" width="10" x="537.5" y="248.7813"/><rect fill="#FFFFFF" height="71.8594" style="stroke:#181818;stroke-width:1.0;" width="10" x="537.5" y="305.8281"/><rect fill="#FFFFFF" height="28.5234" style="stroke:#181818;stroke-width:1.0;" width="10" x="537.5" y="406.2109"/><rect fill="#FFFFFF" height="71.8594" style="stroke:#181818;stroke-width:1.0;" width="10" x="537.5" y="463.2578"/><rect fill="#FFFFFF" height="28.5234" style="stroke:#181818;stroke-width:1.0;" width="10" x="537.5" y="563.6406"/><rect fill="#FFFFFF" height="35.5234" style="stroke:#181818;stroke-width:1.0;" width="10" x="537.5" y="620.6875"/><rect fill="#FFFFFF" height="52.0469" style="stroke:#181818;stroke-width:1.0;" width="10" x="537.5" y="684.7344"/><rect fill="#FFFFFF" height="35.5234" style="stroke:#181818;stroke-width:1.0;" width="10" x="537.5" y="765.3047"/><rect fill="#FFFFFF" height="28.5234" style="stroke:#181818;stroke-width:1.0;" width="10" x="537.5" y="829.3516"/><rect fill="#FFFFFF" height="28.5234" style="stroke:#181818;stroke-width:1.0;" width="10" x="537.5" y="886.3984"/><rect fill="#FFFFFF" height="28.5234" style="stroke:#181818;stroke-width:1.0;" width="10" x="537.5" y="943.4453"/><rect fill="none" height="445.4766" style="stroke:#000000;stroke-width:1.5;" width="574.5" x="10" y="183.2109"/><rect fill="none" height="73.5703" style="stroke:#000000;stroke-width:1.5;" width="574.5" x="10" y="699.7344"/><line style="stroke:#181818;stroke-width:0.5;stroke-dasharray:5.0,5.0;" x1="41" x2="41" y1="80.6406" y2="989.9688"/><line style="stroke:#181818;stroke-width:0.5;stroke-dasharray:5.0,5.0;" x1="542.5" x2="542.5" y1="80.6406" y2="989.9688"/><text fill="#000000" font-family="sans-serif" font-size="14" lengthAdjust="spacing" textLength="37" x="20" y="77.6738">Agent</text><ellipse cx="41.5" cy="13.5" fill="#E3E3E3" rx="8" ry="8" style="stroke:#181818;stroke-width:0.5;"/><path d="M41.5,21.5 L41.5,48.5 M28.5,29.5 L54.5,29.5 M41.5,48.5 L28.5,63.5 M41.5,48.5 L54.5,63.5 " fill="none" style="stroke:#181818;stroke-width:0.5;"/><text fill="#000000" font-family="sans-serif" font-size="14" lengthAdjust="spacing" textLength="37" x="20" y="1001.6426">Agent</text><ellipse cx="41.5" cy="1013.1094" fill="#E3E3E3" rx="8" ry="8" style="stroke:#181818;stroke-width:0.5;"/><path d="M41.5,1021.1094 L41.5,1048.1094 M28.5,1029.1094 L54.5,1029.1094 M41.5,1048.1094 L28.5,1063.1094 M41.5,1048.1094 L54.5,1063.1094 " fill="none" style="stroke:#181818;stroke-width:0.5;"/><rect fill="#E3E3E3" height="29.6406" rx="2.5" ry="2.5" style="stroke:#181818;stroke-width:0.5;" width="64" x="510.5" y="50"/><text fill="#000000" font-family="sans-serif" font-size="14" lengthAdjust="spacing" textLength="50" x="517.5" y="69.6738">:System</text><rect fill="#E3E3E3" height="29.6406" rx="2.5" ry="2.5" style="stroke:#181818;stroke-width:0.5;" width="64" x="510.5" y="988.9688"/><text fill="#000000" font-family="sans-serif" font-size="14" lengthAdjust="spacing" textLength="50" x="517.5" y="1008.6426">:System</text><rect fill="#FFFFFF" height="890.3281" style="stroke:#181818;stroke-width:1.0;" width="10" x="36.5" y="90.6406"/><rect fill="#FFFFFF" height="28.5234" style="stroke:#181818;stroke-width:1.0;" width="10" x="537.5" y="111.1641"/><rect fill="#FFFFFF" height="52.0469" style="stroke:#181818;stroke-width:1.0;" width="10" x="537.5" y="168.2109"/><rect fill="#FFFFFF" height="28.5234" style="stroke:#181818;stroke-width:1.0;" width="10" x="537.5" y="248.7813"/><rect fill="#FFFFFF" height="71.8594" style="stroke:#181818;stroke-width:1.0;" width="10" x="537.5" y="305.8281"/><rect fill="#FFFFFF" height="28.5234" style="stroke:#181818;stroke-width:1.0;" width="10" x="537.5" y="406.2109"/><rect fill="#FFFFFF" height="71.8594" style="stroke:#181818;stroke-width:1.0;" width="10" x="537.5" y="463.2578"/><rect fill="#FFFFFF" height="28.5234" style="stroke:#181818;stroke-width:1.0;" width="10" x="537.5" y="563.6406"/><rect fill="#FFFFFF" height="35.5234" style="stroke:#181818;stroke-width:1.0;" width="10" x="537.5" y="620.6875"/><rect fill="#FFFFFF" height="52.0469" style="stroke:#181818;stroke-width:1.0;" width="10" x="537.5" y="684.7344"/><rect fill="#FFFFFF" height="35.5234" style="stroke:#181818;stroke-width:1.0;" width="10" x="537.5" y="765.3047"/><rect fill="#FFFFFF" height="28.5234" style="stroke:#181818;stroke-width:1.0;" width="10" x="537.5" y="829.3516"/><rect fill="#FFFFFF" height="28.5234" style="stroke:#181818;stroke-width:1.0;" width="10" x="537.5" y="886.3984"/><rect fill="#FFFFFF" height="28.5234" style="stroke:#181818;stroke-width:1.0;" width="10" x="537.5" y="943.4453"/><polygon fill="#181818" points="525.5,107.1641,535.5,111.1641,525.5,115.1641,529.5,111.1641" style="stroke:#181818;stroke-width:1.0;"/><line style="stroke:#181818;stroke-width:1.0;" x1="46.5" x2="531.5" y1="111.1641" y2="111.1641"/><text fill="#000000" font-family="sans-serif" font-size="13" font-weight="bold" lengthAdjust="spacing" textLength="7" x="53.5" y="106.4092">1</text><text fill="#000000" font-family="sans-serif" font-size="13" lengthAdjust="spacing" textLength="195" x="64.5" y="106.4092">asks to publish an announcement</text><polygon fill="#181818" points="57.5,135.6875,47.5,139.6875,57.5,143.6875,53.5,139.6875" style="stroke:#181818;stroke-width:1.0;"/><line style="stroke:#181818;stroke-width:1.0;stroke-dasharray:2.0,2.0;" x1="51.5" x2="541.5" y1="139.6875" y2="139.6875"/><text fill="#000000" font-family="sans-serif" font-size="13" font-weight="bold" lengthAdjust="spacing" textLength="7" x="63.5" y="134.9326">2</text><text fill="#000000" font-family="sans-serif" font-size="13" lengthAdjust="spacing" textLength="173" x="74.5" y="134.9326">provides property type options</text><polygon fill="#181818" points="525.5,164.2109,535.5,168.2109,525.5,172.2109,529.5,168.2109" style="stroke:#181818;stroke-width:1.0;"/><line style="stroke:#181818;stroke-width:1.0;" x1="46.5" x2="531.5" y1="168.2109" y2="168.2109"/><text fill="#000000" font-family="sans-serif" font-size="13" font-weight="bold" lengthAdjust="spacing" textLength="7" x="53.5" y="163.4561">3</text><text fill="#000000" font-family="sans-serif" font-size="13" lengthAdjust="spacing" textLength="122" x="64.5" y="163.4561">selects property type</text><path d="M10,183.2109 L71,183.2109 L71,189.7344 L61,199.7344 L10,199.7344 L10,183.2109 " fill="#EEEEEE" style="stroke:#000000;stroke-width:1.5;"/><rect fill="none" height="445.4766" style="stroke:#000000;stroke-width:1.5;" width="574.5" x="10" y="183.2109"/><text fill="#000000" font-family="sans-serif" font-size="13" font-weight="bold" lengthAdjust="spacing" textLength="16" x="25" y="195.9795">alt</text><text fill="#000000" font-family="sans-serif" font-size="11" font-weight="bold" lengthAdjust="spacing" textLength="128" x="86" y="195.1689">[if property type = land]</text><polygon fill="#181818" points="57.5,216.2578,47.5,220.2578,57.5,224.2578,53.5,220.2578" style="stroke:#181818;stroke-width:1.0;"/><line style="stroke:#181818;stroke-width:1.0;stroke-dasharray:2.0,2.0;" x1="51.5" x2="541.5" y1="220.2578" y2="220.2578"/><text fill="#000000" font-family="sans-serif" font-size="13" font-weight="bold" lengthAdjust="spacing" textLength="7" x="63.5" y="215.5029">4</text><text fill="#000000" font-family="sans-serif" font-size="13" lengthAdjust="spacing" textLength="422" x="74.5" y="215.5029">requests land data (price, area, address, distanceToCentre, photographs)</text><polygon fill="#181818" points="525.5,244.7813,535.5,248.7813,525.5,252.7813,529.5,248.7813" style="stroke:#181818;stroke-width:1.0;"/><line style="stroke:#181818;stroke-width:1.0;" x1="46.5" x2="531.5" y1="248.7813" y2="248.7813"/><text fill="#000000" font-family="sans-serif" font-size="13" font-weight="bold" lengthAdjust="spacing" textLength="7" x="53.5" y="244.0264">5</text><text fill="#000000" font-family="sans-serif" font-size="13" lengthAdjust="spacing" textLength="122" x="64.5" y="244.0264">types requested data</text><polygon fill="#181818" points="57.5,273.3047,47.5,277.3047,57.5,281.3047,53.5,277.3047" style="stroke:#181818;stroke-width:1.0;"/><line style="stroke:#181818;stroke-width:1.0;stroke-dasharray:2.0,2.0;" x1="51.5" x2="541.5" y1="277.3047" y2="277.3047"/><text fill="#000000" font-family="sans-serif" font-size="13" font-weight="bold" lengthAdjust="spacing" textLength="7" x="63.5" y="272.5498">6</text><text fill="#000000" font-family="sans-serif" font-size="13" lengthAdjust="spacing" textLength="146" x="74.5" y="272.5498">request data confirmation</text><polygon fill="#181818" points="525.5,301.8281,535.5,305.8281,525.5,309.8281,529.5,305.8281" style="stroke:#181818;stroke-width:1.0;"/><line style="stroke:#181818;stroke-width:1.0;" x1="46.5" x2="531.5" y1="305.8281" y2="305.8281"/><text fill="#000000" font-family="sans-serif" font-size="13" font-weight="bold" lengthAdjust="spacing" textLength="7" x="53.5" y="301.0732">7</text><text fill="#000000" font-family="sans-serif" font-size="13" lengthAdjust="spacing" textLength="78" x="64.5" y="301.0732">confirms data</text><line style="stroke:#000000;stroke-width:1.0;stroke-dasharray:2.0,2.0;" x1="10" x2="584.5" y1="314.8281" y2="314.8281"/><text fill="#000000" font-family="sans-serif" font-size="11" font-weight="bold" lengthAdjust="spacing" textLength="162" x="15" y="324.7861">[if property type = apartment]</text><polygon fill="#181818" points="57.5,373.6875,47.5,377.6875,57.5,381.6875,53.5,377.6875" style="stroke:#181818;stroke-width:1.0;"/><line style="stroke:#181818;stroke-width:1.0;stroke-dasharray:2.0,2.0;" x1="51.5" x2="541.5" y1="377.6875" y2="377.6875"/><text fill="#000000" font-family="sans-serif" font-size="13" font-weight="bold" lengthAdjust="spacing" textLength="7" x="63.5" y="358.4092">8</text><text fill="#000000" font-family="sans-serif" font-size="13" lengthAdjust="spacing" textLength="456" x="74.5" y="343.8857">requests apartment data (price, area, address, distanceToCentre, photographs,</text><text fill="#000000" font-family="sans-serif" font-size="13" lengthAdjust="spacing" textLength="334" x="74.5" y="358.4092">bedroomNumber,bathroomNumber, parkingSpaceNumber,</text><text fill="#000000" font-family="sans-serif" font-size="13" lengthAdjust="spacing" textLength="81" x="74.5" y="372.9326">equipmentList</text><polygon fill="#181818" points="525.5,402.2109,535.5,406.2109,525.5,410.2109,529.5,406.2109" style="stroke:#181818;stroke-width:1.0;"/><line style="stroke:#181818;stroke-width:1.0;" x1="46.5" x2="531.5" y1="406.2109" y2="406.2109"/><text fill="#000000" font-family="sans-serif" font-size="13" font-weight="bold" lengthAdjust="spacing" textLength="7" x="53.5" y="401.4561">9</text><text fill="#000000" font-family="sans-serif" font-size="13" lengthAdjust="spacing" textLength="122" x="64.5" y="401.4561">types requested data</text><polygon fill="#181818" points="57.5,430.7344,47.5,434.7344,57.5,438.7344,53.5,434.7344" style="stroke:#181818;stroke-width:1.0;"/><line style="stroke:#181818;stroke-width:1.0;stroke-dasharray:2.0,2.0;" x1="51.5" x2="541.5" y1="434.7344" y2="434.7344"/><text fill="#000000" font-family="sans-serif" font-size="13" font-weight="bold" lengthAdjust="spacing" textLength="14" x="63.5" y="429.9795">10</text><text fill="#000000" font-family="sans-serif" font-size="13" lengthAdjust="spacing" textLength="146" x="81.5" y="429.9795">request data confirmation</text><polygon fill="#181818" points="525.5,459.2578,535.5,463.2578,525.5,467.2578,529.5,463.2578" style="stroke:#181818;stroke-width:1.0;"/><line style="stroke:#181818;stroke-width:1.0;" x1="46.5" x2="531.5" y1="463.2578" y2="463.2578"/><text fill="#000000" font-family="sans-serif" font-size="13" font-weight="bold" lengthAdjust="spacing" textLength="14" x="53.5" y="458.5029">11</text><text fill="#000000" font-family="sans-serif" font-size="13" lengthAdjust="spacing" textLength="78" x="71.5" y="458.5029">confirms data</text><line style="stroke:#000000;stroke-width:1.0;stroke-dasharray:2.0,2.0;" x1="10" x2="584.5" y1="472.2578" y2="472.2578"/><text fill="#000000" font-family="sans-serif" font-size="11" font-weight="bold" lengthAdjust="spacing" textLength="140" x="15" y="482.2158">[if property type = house]</text><polygon fill="#181818" points="57.5,531.1172,47.5,535.1172,57.5,539.1172,53.5,535.1172" style="stroke:#181818;stroke-width:1.0;"/><line style="stroke:#181818;stroke-width:1.0;stroke-dasharray:2.0,2.0;" x1="51.5" x2="541.5" y1="535.1172" y2="535.1172"/><text fill="#000000" font-family="sans-serif" font-size="13" font-weight="bold" lengthAdjust="spacing" textLength="14" x="63.5" y="515.8389">12</text><text fill="#000000" font-family="sans-serif" font-size="13" lengthAdjust="spacing" textLength="433" x="81.5" y="501.3154">requests house data (price, area, address, distanceToCentre, photographs,</text><text fill="#000000" font-family="sans-serif" font-size="13" lengthAdjust="spacing" textLength="338" x="81.5" y="515.8389">bedroomNumber, bathroomNumber, parkingSpaceNumber,</text><text fill="#000000" font-family="sans-serif" font-size="13" lengthAdjust="spacing" textLength="307" x="81.5" y="530.3623">equipmentList, hasBasement, hasLoft, sunExposure)</text><polygon fill="#181818" points="525.5,559.6406,535.5,563.6406,525.5,567.6406,529.5,563.6406" style="stroke:#181818;stroke-width:1.0;"/><line style="stroke:#181818;stroke-width:1.0;" x1="46.5" x2="531.5" y1="563.6406" y2="563.6406"/><text fill="#000000" font-family="sans-serif" font-size="13" font-weight="bold" lengthAdjust="spacing" textLength="14" x="53.5" y="558.8857">13</text><text fill="#000000" font-family="sans-serif" font-size="13" lengthAdjust="spacing" textLength="122" x="71.5" y="558.8857">types requested data</text><polygon fill="#181818" points="57.5,588.1641,47.5,592.1641,57.5,596.1641,53.5,592.1641" style="stroke:#181818;stroke-width:1.0;"/><line style="stroke:#181818;stroke-width:1.0;stroke-dasharray:2.0,2.0;" x1="51.5" x2="541.5" y1="592.1641" y2="592.1641"/><text fill="#000000" font-family="sans-serif" font-size="13" font-weight="bold" lengthAdjust="spacing" textLength="14" x="63.5" y="587.4092">14</text><text fill="#000000" font-family="sans-serif" font-size="13" lengthAdjust="spacing" textLength="146" x="81.5" y="587.4092">request data confirmation</text><polygon fill="#181818" points="525.5,616.6875,535.5,620.6875,525.5,624.6875,529.5,620.6875" style="stroke:#181818;stroke-width:1.0;"/><line style="stroke:#181818;stroke-width:1.0;" x1="46.5" x2="531.5" y1="620.6875" y2="620.6875"/><text fill="#000000" font-family="sans-serif" font-size="13" font-weight="bold" lengthAdjust="spacing" textLength="14" x="53.5" y="615.9326">15</text><text fill="#000000" font-family="sans-serif" font-size="13" lengthAdjust="spacing" textLength="78" x="71.5" y="615.9326">confirms data</text><polygon fill="#181818" points="57.5,652.2109,47.5,656.2109,57.5,660.2109,53.5,656.2109" style="stroke:#181818;stroke-width:1.0;"/><line style="stroke:#181818;stroke-width:1.0;stroke-dasharray:2.0,2.0;" x1="51.5" x2="541.5" y1="656.2109" y2="656.2109"/><text fill="#000000" font-family="sans-serif" font-size="13" font-weight="bold" lengthAdjust="spacing" textLength="14" x="63.5" y="651.4561">16</text><text fill="#000000" font-family="sans-serif" font-size="13" lengthAdjust="spacing" textLength="178" x="81.5" y="651.4561">provides business type options</text><polygon fill="#181818" points="525.5,680.7344,535.5,684.7344,525.5,688.7344,529.5,684.7344" style="stroke:#181818;stroke-width:1.0;"/><line style="stroke:#181818;stroke-width:1.0;" x1="46.5" x2="531.5" y1="684.7344" y2="684.7344"/><text fill="#000000" font-family="sans-serif" font-size="13" font-weight="bold" lengthAdjust="spacing" textLength="14" x="53.5" y="679.9795">17</text><text fill="#000000" font-family="sans-serif" font-size="13" lengthAdjust="spacing" textLength="127" x="71.5" y="679.9795">selects business type</text><path d="M10,699.7344 L71,699.7344 L71,706.2578 L61,716.2578 L10,716.2578 L10,699.7344 " fill="#EEEEEE" style="stroke:#000000;stroke-width:1.5;"/><rect fill="none" height="73.5703" style="stroke:#000000;stroke-width:1.5;" width="574.5" x="10" y="699.7344"/><text fill="#000000" font-family="sans-serif" font-size="13" font-weight="bold" lengthAdjust="spacing" textLength="16" x="25" y="712.5029">alt</text><text fill="#000000" font-family="sans-serif" font-size="11" font-weight="bold" lengthAdjust="spacing" textLength="105" x="86" y="711.6924">[if business = rent]</text><polygon fill="#181818" points="57.5,732.7813,47.5,736.7813,57.5,740.7813,53.5,736.7813" style="stroke:#181818;stroke-width:1.0;"/><line style="stroke:#181818;stroke-width:1.0;stroke-dasharray:2.0,2.0;" x1="51.5" x2="541.5" y1="736.7813" y2="736.7813"/><text fill="#000000" font-family="sans-serif" font-size="13" font-weight="bold" lengthAdjust="spacing" textLength="14" x="63.5" y="732.0264">18</text><text fill="#000000" font-family="sans-serif" font-size="13" lengthAdjust="spacing" textLength="161" x="81.5" y="732.0264">requests data (rentDuration)</text><polygon fill="#181818" points="525.5,761.3047,535.5,765.3047,525.5,769.3047,529.5,765.3047" style="stroke:#181818;stroke-width:1.0;"/><line style="stroke:#181818;stroke-width:1.0;" x1="46.5" x2="531.5" y1="765.3047" y2="765.3047"/><text fill="#000000" font-family="sans-serif" font-size="13" font-weight="bold" lengthAdjust="spacing" textLength="14" x="53.5" y="760.5498">19</text><text fill="#000000" font-family="sans-serif" font-size="13" lengthAdjust="spacing" textLength="122" x="71.5" y="760.5498">types requested data</text><polygon fill="#181818" points="57.5,796.8281,47.5,800.8281,57.5,804.8281,53.5,800.8281" style="stroke:#181818;stroke-width:1.0;"/><line style="stroke:#181818;stroke-width:1.0;stroke-dasharray:2.0,2.0;" x1="51.5" x2="541.5" y1="800.8281" y2="800.8281"/><text fill="#000000" font-family="sans-serif" font-size="13" font-weight="bold" lengthAdjust="spacing" textLength="14" x="63.5" y="796.0732">20</text><text fill="#000000" font-family="sans-serif" font-size="13" lengthAdjust="spacing" textLength="254" x="81.5" y="796.0732">asks if commission is in percentage or fixed</text><polygon fill="#181818" points="525.5,825.3516,535.5,829.3516,525.5,833.3516,529.5,829.3516" style="stroke:#181818;stroke-width:1.0;"/><line style="stroke:#181818;stroke-width:1.0;" x1="46.5" x2="531.5" y1="829.3516" y2="829.3516"/><text fill="#000000" font-family="sans-serif" font-size="13" font-weight="bold" lengthAdjust="spacing" textLength="14" x="53.5" y="824.5967">21</text><text fill="#000000" font-family="sans-serif" font-size="13" lengthAdjust="spacing" textLength="143" x="71.5" y="824.5967">inputs the pretend option</text><polygon fill="#181818" points="57.5,853.875,47.5,857.875,57.5,861.875,53.5,857.875" style="stroke:#181818;stroke-width:1.0;"/><line style="stroke:#181818;stroke-width:1.0;stroke-dasharray:2.0,2.0;" x1="51.5" x2="541.5" y1="857.875" y2="857.875"/><text fill="#000000" font-family="sans-serif" font-size="13" font-weight="bold" lengthAdjust="spacing" textLength="14" x="63.5" y="853.1201">22</text><text fill="#000000" font-family="sans-serif" font-size="13" lengthAdjust="spacing" textLength="248" x="81.5" y="853.1201">Asks for announcement data (commission)</text><polygon fill="#181818" points="525.5,882.3984,535.5,886.3984,525.5,890.3984,529.5,886.3984" style="stroke:#181818;stroke-width:1.0;"/><line style="stroke:#181818;stroke-width:1.0;" x1="46.5" x2="531.5" y1="886.3984" y2="886.3984"/><text fill="#000000" font-family="sans-serif" font-size="13" font-weight="bold" lengthAdjust="spacing" textLength="14" x="53.5" y="881.6436">23</text><text fill="#000000" font-family="sans-serif" font-size="13" lengthAdjust="spacing" textLength="191" x="71.5" y="881.6436">provides the  announcement data</text><polygon fill="#181818" points="57.5,910.9219,47.5,914.9219,57.5,918.9219,53.5,914.9219" style="stroke:#181818;stroke-width:1.0;"/><line style="stroke:#181818;stroke-width:1.0;stroke-dasharray:2.0,2.0;" x1="51.5" x2="541.5" y1="914.9219" y2="914.9219"/><text fill="#000000" font-family="sans-serif" font-size="13" font-weight="bold" lengthAdjust="spacing" textLength="14" x="63.5" y="910.167">24</text><text fill="#000000" font-family="sans-serif" font-size="13" lengthAdjust="spacing" textLength="146" x="81.5" y="910.167">request data confirmation</text><polygon fill="#181818" points="525.5,939.4453,535.5,943.4453,525.5,947.4453,529.5,943.4453" style="stroke:#181818;stroke-width:1.0;"/><line style="stroke:#181818;stroke-width:1.0;" x1="46.5" x2="531.5" y1="943.4453" y2="943.4453"/><text fill="#000000" font-family="sans-serif" font-size="13" font-weight="bold" lengthAdjust="spacing" textLength="14" x="53.5" y="938.6904">25</text><text fill="#000000" font-family="sans-serif" font-size="13" lengthAdjust="spacing" textLength="78" x="71.5" y="938.6904">confirms data</text><polygon fill="#181818" points="57.5,967.9688,47.5,971.9688,57.5,975.9688,53.5,971.9688" style="stroke:#181818;stroke-width:1.0;"/><line style="stroke:#181818;stroke-width:1.0;stroke-dasharray:2.0,2.0;" x1="51.5" x2="541.5" y1="971.9688" y2="971.9688"/><text fill="#000000" font-family="sans-serif" font-size="13" font-weight="bold" lengthAdjust="spacing" textLength="14" x="63.5" y="967.2139">26</text><text fill="#000000" font-family="sans-serif" font-size="13" lengthAdjust="spacing" textLength="151" x="81.5" y="967.2139">display operation success</text><!--SRC=[jLRBZjim3BpxAuWzDK3s1m9iWUtZjkWbFUw5aPbOY2sfehpT_7qf-T4qaTquQ8qWa6II6isGbFceZKEF3JJMM5Lvsn04trB1unk7weW7sePJJU191JI7-jo0AopjJsqEiCUQgOWFji6QjjcHbx4AriF3yu5CU01aIAD2d8DMsg49yB3PdZXGarvtm-Idtp1GRrz0VD8O7Z_sLh0HZoD3iE3QNQsv0ZJoCxOrYfhe5xt6K4FijDg7U9HeAUm6dBTlkYIE0qS-d22S785rGLl3oQcags0vO1jWgeMiYr2TRGOErW7q_cBV9wZHb5ciSd1FFrfYsI4QGOa1uOFpMj4Qq1FAVrbwObv3gLbKK_JTVXPNBmQkii4UFBgALnscwtFbwOx0UDYRkdtp76SPxXqxkCgQlVODHdQBIMwlcEtTUDmxmoT99kO8nPXsOrxCiJfQta_j-jNigFJMDjzIBQnt6AgpgTIMbp8wRAN6g5zxDG90kxZnYyJ-Z-8iLMSk-szHAP_vCS2KM9LjcGRNMR6IvJyK2fOhjOOA-HDowZffycBtCk3MV7rtbbjFg_4i4uekL7LIsJlLdLVuTfKdb1vUaVIqDCqeEdRWNSlQY7BN7NWMvsGR_YDUCPMB2LRVYqUF9s6kRnYpITYbNxJzqlf4x23uXDfBfCwh8bH6k0Etrvgdsr4EespJQ6R115eM34YXAR6GcntaTjxhTohFvRir8RASovT1Ato4YaHF2X5a9-2bvtIIP7X-ZaVP2zZpwxqd_VVnLejRrNdMHSZNyOk_rTgznNOpnOjARvBSQMwbExeQJn3xRq8fRKifIVwvZjK_lm00]--></g></svg>