<?xml version="1.0" encoding="us-ascii" standalone="no"?><svg xmlns="http://www.w3.org/2000/svg" xmlns:xlink="http://www.w3.org/1999/xlink" contentStyleType="text/css" height="1373px" preserveAspectRatio="none" style="width:591px;height:1373px;background:#FFFFFF;" version="1.1" viewBox="0 0 591 1373" width="591px" zoomAndPan="magnify"><defs/><g><rect fill="#FFFFFF" height="1187.9512" style="stroke:#181818;stroke-width:1.0;" width="10" x="36.5" y="93.6211"/><rect fill="#FFFFFF" height="31.291" style="stroke:#181818;stroke-width:1.0;" width="10" x="537.5" y="116.9121"/><rect fill="#FFFFFF" height="57.582" style="stroke:#181818;stroke-width:1.0;" width="10" x="537.5" y="179.4941"/><rect fill="#FFFFFF" height="31.291" style="stroke:#181818;stroke-width:1.0;" width="10" x="537.5" y="268.3672"/><rect fill="#FFFFFF" height="82.5039" style="stroke:#181818;stroke-width:1.0;" width="10" x="537.5" y="330.9492"/><rect fill="#FFFFFF" height="31.291" style="stroke:#181818;stroke-width:1.0;" width="10" x="537.5" y="444.7441"/><rect fill="#FFFFFF" height="82.5039" style="stroke:#181818;stroke-width:1.0;" width="10" x="537.5" y="507.3262"/><rect fill="#FFFFFF" height="31.291" style="stroke:#181818;stroke-width:1.0;" width="10" x="537.5" y="621.1211"/><rect fill="#FFFFFF" height="38.291" style="stroke:#181818;stroke-width:1.0;" width="10" x="537.5" y="683.7031"/><rect fill="#FFFFFF" height="57.582" style="stroke:#181818;stroke-width:1.0;" width="10" x="537.5" y="753.2852"/><rect fill="#FFFFFF" height="31.291" style="stroke:#181818;stroke-width:1.0;" width="10" x="537.5" y="842.1582"/><rect fill="#FFFFFF" height="31.291" style="stroke:#181818;stroke-width:1.0;" width="10" x="537.5" y="904.7402"/><rect fill="#FFFFFF" height="31.291" style="stroke:#181818;stroke-width:1.0;" width="10" x="537.5" y="967.3223"/><rect fill="#FFFFFF" height="47.9219" style="stroke:#181818;stroke-width:1.0;" width="10" x="537.5" y="1029.9043"/><rect fill="#FFFFFF" height="31.291" style="stroke:#181818;stroke-width:1.0;" width="10" x="537.5" y="1109.1172"/><rect fill="#FFFFFF" height="31.291" style="stroke:#181818;stroke-width:1.0;" width="10" x="537.5" y="1171.6992"/><rect fill="#FFFFFF" height="38.291" style="stroke:#181818;stroke-width:1.0;" width="10" x="537.5" y="1234.2813"/><rect fill="none" height="497.209" style="stroke:#000000;stroke-width:1.5;" width="574.5" x="10" y="194.4941"/><rect fill="none" height="473.9961" style="stroke:#000000;stroke-width:1.5;" width="574.5" x="10" y="768.2852"/><line style="stroke:#181818;stroke-width:0.5;stroke-dasharray:5.0,5.0;" x1="41" x2="41" y1="83.6211" y2="1290.5723"/><line style="stroke:#181818;stroke-width:0.5;stroke-dasharray:5.0,5.0;" x1="542.5" x2="542.5" y1="83.6211" y2="1290.5723"/><text fill="#000000" font-family="sans-serif" font-size="14" lengthAdjust="spacing" textLength="37" x="20" y="80.1074">Agent</text><ellipse cx="41.5" cy="13.5" fill="#E3E3E3" rx="8" ry="8" style="stroke:#181818;stroke-width:0.5;"/><path d="M41.5,21.5 L41.5,48.5 M28.5,29.5 L54.5,29.5 M41.5,48.5 L28.5,63.5 M41.5,48.5 L54.5,63.5 " fill="none" style="stroke:#181818;stroke-width:0.5;"/><text fill="#000000" font-family="sans-serif" font-size="14" lengthAdjust="spacing" textLength="37" x="20" y="1304.6797">Agent</text><ellipse cx="41.5" cy="1316.6934" fill="#E3E3E3" rx="8" ry="8" style="stroke:#181818;stroke-width:0.5;"/><path d="M41.5,1324.6934 L41.5,1351.6934 M28.5,1332.6934 L54.5,1332.6934 M41.5,1351.6934 L28.5,1366.6934 M41.5,1351.6934 L54.5,1366.6934 " fill="none" style="stroke:#181818;stroke-width:0.5;"/><rect fill="#E3E3E3" height="32.6211" rx="2.5" ry="2.5" style="stroke:#181818;stroke-width:0.5;" width="64" x="510.5" y="50"/><text fill="#000000" font-family="sans-serif" font-size="14" lengthAdjust="spacing" textLength="50" x="517.5" y="72.1074">:System</text><rect fill="#E3E3E3" height="32.6211" rx="2.5" ry="2.5" style="stroke:#181818;stroke-width:0.5;" width="64" x="510.5" y="1289.5723"/><text fill="#000000" font-family="sans-serif" font-size="14" lengthAdjust="spacing" textLength="50" x="517.5" y="1311.6797">:System</text><rect fill="#FFFFFF" height="1187.9512" style="stroke:#181818;stroke-width:1.0;" width="10" x="36.5" y="93.6211"/><rect fill="#FFFFFF" height="31.291" style="stroke:#181818;stroke-width:1.0;" width="10" x="537.5" y="116.9121"/><rect fill="#FFFFFF" height="57.582" style="stroke:#181818;stroke-width:1.0;" width="10" x="537.5" y="179.4941"/><rect fill="#FFFFFF" height="31.291" style="stroke:#181818;stroke-width:1.0;" width="10" x="537.5" y="268.3672"/><rect fill="#FFFFFF" height="82.5039" style="stroke:#181818;stroke-width:1.0;" width="10" x="537.5" y="330.9492"/><rect fill="#FFFFFF" height="31.291" style="stroke:#181818;stroke-width:1.0;" width="10" x="537.5" y="444.7441"/><rect fill="#FFFFFF" height="82.5039" style="stroke:#181818;stroke-width:1.0;" width="10" x="537.5" y="507.3262"/><rect fill="#FFFFFF" height="31.291" style="stroke:#181818;stroke-width:1.0;" width="10" x="537.5" y="621.1211"/><rect fill="#FFFFFF" height="38.291" style="stroke:#181818;stroke-width:1.0;" width="10" x="537.5" y="683.7031"/><rect fill="#FFFFFF" height="57.582" style="stroke:#181818;stroke-width:1.0;" width="10" x="537.5" y="753.2852"/><rect fill="#FFFFFF" height="31.291" style="stroke:#181818;stroke-width:1.0;" width="10" x="537.5" y="842.1582"/><rect fill="#FFFFFF" height="31.291" style="stroke:#181818;stroke-width:1.0;" width="10" x="537.5" y="904.7402"/><rect fill="#FFFFFF" height="31.291" style="stroke:#181818;stroke-width:1.0;" width="10" x="537.5" y="967.3223"/><rect fill="#FFFFFF" height="47.9219" style="stroke:#181818;stroke-width:1.0;" width="10" x="537.5" y="1029.9043"/><rect fill="#FFFFFF" height="31.291" style="stroke:#181818;stroke-width:1.0;" width="10" x="537.5" y="1109.1172"/><rect fill="#FFFFFF" height="31.291" style="stroke:#181818;stroke-width:1.0;" width="10" x="537.5" y="1171.6992"/><rect fill="#FFFFFF" height="38.291" style="stroke:#181818;stroke-width:1.0;" width="10" x="537.5" y="1234.2813"/><polygon fill="#181818" points="525.5,112.9121,535.5,116.9121,525.5,120.9121,529.5,116.9121" style="stroke:#181818;stroke-width:1.0;"/><line style="stroke:#181818;stroke-width:1.0;" x1="46.5" x2="531.5" y1="116.9121" y2="116.9121"/><text fill="#000000" font-family="sans-serif" font-size="13" font-weight="bold" lengthAdjust="spacing" textLength="7" x="53.5" y="111.6494">1</text><text fill="#000000" font-family="sans-serif" font-size="13" lengthAdjust="spacing" textLength="195" x="64.5" y="111.6494">asks to publish an announcement</text><polygon fill="#181818" points="57.5,144.2031,47.5,148.2031,57.5,152.2031,53.5,148.2031" style="stroke:#181818;stroke-width:1.0;"/><line style="stroke:#181818;stroke-width:1.0;stroke-dasharray:2.0,2.0;" x1="51.5" x2="541.5" y1="148.2031" y2="148.2031"/><text fill="#000000" font-family="sans-serif" font-size="13" font-weight="bold" lengthAdjust="spacing" textLength="7" x="63.5" y="142.9404">2</text><text fill="#000000" font-family="sans-serif" font-size="13" lengthAdjust="spacing" textLength="173" x="74.5" y="142.9404">provides property type options</text><polygon fill="#181818" points="525.5,175.4941,535.5,179.4941,525.5,183.4941,529.5,179.4941" style="stroke:#181818;stroke-width:1.0;"/><line style="stroke:#181818;stroke-width:1.0;" x1="46.5" x2="531.5" y1="179.4941" y2="179.4941"/><text fill="#000000" font-family="sans-serif" font-size="13" font-weight="bold" lengthAdjust="spacing" textLength="7" x="53.5" y="174.2314">3</text><text fill="#000000" font-family="sans-serif" font-size="13" lengthAdjust="spacing" textLength="122" x="64.5" y="174.2314">selects property type</text><path d="M10,194.4941 L71,194.4941 L71,203.7852 L61,213.7852 L10,213.7852 L10,194.4941 " fill="#EEEEEE" style="stroke:#000000;stroke-width:1.5;"/><rect fill="none" height="497.209" style="stroke:#000000;stroke-width:1.5;" width="574.5" x="10" y="194.4941"/><text fill="#000000" font-family="sans-serif" font-size="13" font-weight="bold" lengthAdjust="spacing" textLength="16" x="25" y="209.5225">alt</text><text fill="#000000" font-family="sans-serif" font-size="11" font-weight="bold" lengthAdjust="spacing" textLength="128" x="86" y="208.3643">[if property type = land]</text><polygon fill="#181818" points="57.5,233.0762,47.5,237.0762,57.5,241.0762,53.5,237.0762" style="stroke:#181818;stroke-width:1.0;"/><line style="stroke:#181818;stroke-width:1.0;stroke-dasharray:2.0,2.0;" x1="51.5" x2="541.5" y1="237.0762" y2="237.0762"/><text fill="#000000" font-family="sans-serif" font-size="13" font-weight="bold" lengthAdjust="spacing" textLength="7" x="63.5" y="231.8135">4</text><text fill="#000000" font-family="sans-serif" font-size="13" lengthAdjust="spacing" textLength="422" x="74.5" y="231.8135">requests land data (price, area, address, distanceToCentre, photographs)</text><polygon fill="#181818" points="525.5,264.3672,535.5,268.3672,525.5,272.3672,529.5,268.3672" style="stroke:#181818;stroke-width:1.0;"/><line style="stroke:#181818;stroke-width:1.0;" x1="46.5" x2="531.5" y1="268.3672" y2="268.3672"/><text fill="#000000" font-family="sans-serif" font-size="13" font-weight="bold" lengthAdjust="spacing" textLength="7" x="53.5" y="263.1045">5</text><text fill="#000000" font-family="sans-serif" font-size="13" lengthAdjust="spacing" textLength="122" x="64.5" y="263.1045">types requested data</text><polygon fill="#181818" points="57.5,295.6582,47.5,299.6582,57.5,303.6582,53.5,299.6582" style="stroke:#181818;stroke-width:1.0;"/><line style="stroke:#181818;stroke-width:1.0;stroke-dasharray:2.0,2.0;" x1="51.5" x2="541.5" y1="299.6582" y2="299.6582"/><text fill="#000000" font-family="sans-serif" font-size="13" font-weight="bold" lengthAdjust="spacing" textLength="7" x="63.5" y="294.3955">6</text><text fill="#000000" font-family="sans-serif" font-size="13" lengthAdjust="spacing" textLength="146" x="74.5" y="294.3955">request data confirmation</text><polygon fill="#181818" points="525.5,326.9492,535.5,330.9492,525.5,334.9492,529.5,330.9492" style="stroke:#181818;stroke-width:1.0;"/><line style="stroke:#181818;stroke-width:1.0;" x1="46.5" x2="531.5" y1="330.9492" y2="330.9492"/><text fill="#000000" font-family="sans-serif" font-size="13" font-weight="bold" lengthAdjust="spacing" textLength="7" x="53.5" y="325.6865">7</text><text fill="#000000" font-family="sans-serif" font-size="13" lengthAdjust="spacing" textLength="78" x="64.5" y="325.6865">confirms data</text><line style="stroke:#000000;stroke-width:1.0;stroke-dasharray:2.0,2.0;" x1="10" x2="584.5" y1="339.9492" y2="339.9492"/><text fill="#000000" font-family="sans-serif" font-size="11" font-weight="bold" lengthAdjust="spacing" textLength="162" x="15" y="351.8193">[if property type = apartment]</text><polygon fill="#181818" points="57.5,409.4531,47.5,413.4531,57.5,417.4531,53.5,413.4531" style="stroke:#181818;stroke-width:1.0;"/><line style="stroke:#181818;stroke-width:1.0;stroke-dasharray:2.0,2.0;" x1="51.5" x2="541.5" y1="413.4531" y2="413.4531"/><text fill="#000000" font-family="sans-serif" font-size="13" font-weight="bold" lengthAdjust="spacing" textLength="7" x="63.5" y="390.8994">8</text><text fill="#000000" font-family="sans-serif" font-size="13" lengthAdjust="spacing" textLength="456" x="74.5" y="373.6084">requests apartment data (price, area, address, distanceToCentre, photographs,</text><text fill="#000000" font-family="sans-serif" font-size="13" lengthAdjust="spacing" textLength="334" x="74.5" y="390.8994">bedroomNumber,bathroomNumber, parkingSpaceNumber,</text><text fill="#000000" font-family="sans-serif" font-size="13" lengthAdjust="spacing" textLength="81" x="74.5" y="408.1904">equipmentList</text><polygon fill="#181818" points="525.5,440.7441,535.5,444.7441,525.5,448.7441,529.5,444.7441" style="stroke:#181818;stroke-width:1.0;"/><line style="stroke:#181818;stroke-width:1.0;" x1="46.5" x2="531.5" y1="444.7441" y2="444.7441"/><text fill="#000000" font-family="sans-serif" font-size="13" font-weight="bold" lengthAdjust="spacing" textLength="7" x="53.5" y="439.4814">9</text><text fill="#000000" font-family="sans-serif" font-size="13" lengthAdjust="spacing" textLength="122" x="64.5" y="439.4814">types requested data</text><polygon fill="#181818" points="57.5,472.0352,47.5,476.0352,57.5,480.0352,53.5,476.0352" style="stroke:#181818;stroke-width:1.0;"/><line style="stroke:#181818;stroke-width:1.0;stroke-dasharray:2.0,2.0;" x1="51.5" x2="541.5" y1="476.0352" y2="476.0352"/><text fill="#000000" font-family="sans-serif" font-size="13" font-weight="bold" lengthAdjust="spacing" textLength="14" x="63.5" y="470.7725">10</text><text fill="#000000" font-family="sans-serif" font-size="13" lengthAdjust="spacing" textLength="146" x="81.5" y="470.7725">request data confirmation</text><polygon fill="#181818" points="525.5,503.3262,535.5,507.3262,525.5,511.3262,529.5,507.3262" style="stroke:#181818;stroke-width:1.0;"/><line style="stroke:#181818;stroke-width:1.0;" x1="46.5" x2="531.5" y1="507.3262" y2="507.3262"/><text fill="#000000" font-family="sans-serif" font-size="13" font-weight="bold" lengthAdjust="spacing" textLength="14" x="53.5" y="502.0635">11</text><text fill="#000000" font-family="sans-serif" font-size="13" lengthAdjust="spacing" textLength="78" x="71.5" y="502.0635">confirms data</text><line style="stroke:#000000;stroke-width:1.0;stroke-dasharray:2.0,2.0;" x1="10" x2="584.5" y1="516.3262" y2="516.3262"/><text fill="#000000" font-family="sans-serif" font-size="11" font-weight="bold" lengthAdjust="spacing" textLength="140" x="15" y="528.1963">[if property type = house]</text><polygon fill="#181818" points="57.5,585.8301,47.5,589.8301,57.5,593.8301,53.5,589.8301" style="stroke:#181818;stroke-width:1.0;"/><line style="stroke:#181818;stroke-width:1.0;stroke-dasharray:2.0,2.0;" x1="51.5" x2="541.5" y1="589.8301" y2="589.8301"/><text fill="#000000" font-family="sans-serif" font-size="13" font-weight="bold" lengthAdjust="spacing" textLength="14" x="63.5" y="567.2764">12</text><text fill="#000000" font-family="sans-serif" font-size="13" lengthAdjust="spacing" textLength="433" x="81.5" y="549.9854">requests house data (price, area, address, distanceToCentre, photographs,</text><text fill="#000000" font-family="sans-serif" font-size="13" lengthAdjust="spacing" textLength="338" x="81.5" y="567.2764">bedroomNumber, bathroomNumber, parkingSpaceNumber,</text><text fill="#000000" font-family="sans-serif" font-size="13" lengthAdjust="spacing" textLength="307" x="81.5" y="584.5674">equipmentList, hasBasement, hasLoft, sunExposure)</text><polygon fill="#181818" points="525.5,617.1211,535.5,621.1211,525.5,625.1211,529.5,621.1211" style="stroke:#181818;stroke-width:1.0;"/><line style="stroke:#181818;stroke-width:1.0;" x1="46.5" x2="531.5" y1="621.1211" y2="621.1211"/><text fill="#000000" font-family="sans-serif" font-size="13" font-weight="bold" lengthAdjust="spacing" textLength="14" x="53.5" y="615.8584">13</text><text fill="#000000" font-family="sans-serif" font-size="13" lengthAdjust="spacing" textLength="122" x="71.5" y="615.8584">types requested data</text><polygon fill="#181818" points="57.5,648.4121,47.5,652.4121,57.5,656.4121,53.5,652.4121" style="stroke:#181818;stroke-width:1.0;"/><line style="stroke:#181818;stroke-width:1.0;stroke-dasharray:2.0,2.0;" x1="51.5" x2="541.5" y1="652.4121" y2="652.4121"/><text fill="#000000" font-family="sans-serif" font-size="13" font-weight="bold" lengthAdjust="spacing" textLength="14" x="63.5" y="647.1494">14</text><text fill="#000000" font-family="sans-serif" font-size="13" lengthAdjust="spacing" textLength="146" x="81.5" y="647.1494">request data confirmation</text><polygon fill="#181818" points="525.5,679.7031,535.5,683.7031,525.5,687.7031,529.5,683.7031" style="stroke:#181818;stroke-width:1.0;"/><line style="stroke:#181818;stroke-width:1.0;" x1="46.5" x2="531.5" y1="683.7031" y2="683.7031"/><text fill="#000000" font-family="sans-serif" font-size="13" font-weight="bold" lengthAdjust="spacing" textLength="14" x="53.5" y="678.4404">15</text><text fill="#000000" font-family="sans-serif" font-size="13" lengthAdjust="spacing" textLength="78" x="71.5" y="678.4404">confirms data</text><polygon fill="#181818" points="57.5,717.9941,47.5,721.9941,57.5,725.9941,53.5,721.9941" style="stroke:#181818;stroke-width:1.0;"/><line style="stroke:#181818;stroke-width:1.0;stroke-dasharray:2.0,2.0;" x1="51.5" x2="541.5" y1="721.9941" y2="721.9941"/><text fill="#000000" font-family="sans-serif" font-size="13" font-weight="bold" lengthAdjust="spacing" textLength="14" x="63.5" y="716.7314">16</text><text fill="#000000" font-family="sans-serif" font-size="13" lengthAdjust="spacing" textLength="178" x="81.5" y="716.7314">provides business type options</text><polygon fill="#181818" points="525.5,749.2852,535.5,753.2852,525.5,757.2852,529.5,753.2852" style="stroke:#181818;stroke-width:1.0;"/><line style="stroke:#181818;stroke-width:1.0;" x1="46.5" x2="531.5" y1="753.2852" y2="753.2852"/><text fill="#000000" font-family="sans-serif" font-size="13" font-weight="bold" lengthAdjust="spacing" textLength="14" x="53.5" y="748.0225">17</text><text fill="#000000" font-family="sans-serif" font-size="13" lengthAdjust="spacing" textLength="127" x="71.5" y="748.0225">selects business type</text><path d="M10,768.2852 L71,768.2852 L71,777.5762 L61,787.5762 L10,787.5762 L10,768.2852 " fill="#EEEEEE" style="stroke:#000000;stroke-width:1.5;"/><rect fill="none" height="473.9961" style="stroke:#000000;stroke-width:1.5;" width="574.5" x="10" y="768.2852"/><text fill="#000000" font-family="sans-serif" font-size="13" font-weight="bold" lengthAdjust="spacing" textLength="16" x="25" y="783.3135">alt</text><text fill="#000000" font-family="sans-serif" font-size="11" font-weight="bold" lengthAdjust="spacing" textLength="105" x="86" y="782.1553">[if business = rent]</text><polygon fill="#181818" points="57.5,806.8672,47.5,810.8672,57.5,814.8672,53.5,810.8672" style="stroke:#181818;stroke-width:1.0;"/><line style="stroke:#181818;stroke-width:1.0;stroke-dasharray:2.0,2.0;" x1="51.5" x2="541.5" y1="810.8672" y2="810.8672"/><text fill="#000000" font-family="sans-serif" font-size="13" font-weight="bold" lengthAdjust="spacing" textLength="14" x="63.5" y="805.6045">18</text><text fill="#000000" font-family="sans-serif" font-size="13" lengthAdjust="spacing" textLength="161" x="81.5" y="805.6045">requests data (rentDuration)</text><polygon fill="#181818" points="525.5,838.1582,535.5,842.1582,525.5,846.1582,529.5,842.1582" style="stroke:#181818;stroke-width:1.0;"/><line style="stroke:#181818;stroke-width:1.0;" x1="46.5" x2="531.5" y1="842.1582" y2="842.1582"/><text fill="#000000" font-family="sans-serif" font-size="13" font-weight="bold" lengthAdjust="spacing" textLength="14" x="53.5" y="836.8955">19</text><text fill="#000000" font-family="sans-serif" font-size="13" lengthAdjust="spacing" textLength="122" x="71.5" y="836.8955">types requested data</text><polygon fill="#181818" points="57.5,869.4492,47.5,873.4492,57.5,877.4492,53.5,873.4492" style="stroke:#181818;stroke-width:1.0;"/><line style="stroke:#181818;stroke-width:1.0;stroke-dasharray:2.0,2.0;" x1="51.5" x2="541.5" y1="873.4492" y2="873.4492"/><text fill="#000000" font-family="sans-serif" font-size="13" font-weight="bold" lengthAdjust="spacing" textLength="14" x="63.5" y="868.1865">20</text><text fill="#000000" font-family="sans-serif" font-size="13" lengthAdjust="spacing" textLength="254" x="81.5" y="868.1865">asks if commission is in percentage or fixed</text><polygon fill="#181818" points="525.5,900.7402,535.5,904.7402,525.5,908.7402,529.5,904.7402" style="stroke:#181818;stroke-width:1.0;"/><line style="stroke:#181818;stroke-width:1.0;" x1="46.5" x2="531.5" y1="904.7402" y2="904.7402"/><text fill="#000000" font-family="sans-serif" font-size="13" font-weight="bold" lengthAdjust="spacing" textLength="14" x="53.5" y="899.4775">21</text><text fill="#000000" font-family="sans-serif" font-size="13" lengthAdjust="spacing" textLength="143" x="71.5" y="899.4775">inputs the pretend option</text><polygon fill="#181818" points="57.5,932.0313,47.5,936.0313,57.5,940.0313,53.5,936.0313" style="stroke:#181818;stroke-width:1.0;"/><line style="stroke:#181818;stroke-width:1.0;stroke-dasharray:2.0,2.0;" x1="51.5" x2="541.5" y1="936.0313" y2="936.0313"/><text fill="#000000" font-family="sans-serif" font-size="13" font-weight="bold" lengthAdjust="spacing" textLength="14" x="63.5" y="930.7686">22</text><text fill="#000000" font-family="sans-serif" font-size="13" lengthAdjust="spacing" textLength="246" x="81.5" y="930.7686">asks for announcement data (commission)</text><polygon fill="#181818" points="525.5,963.3223,535.5,967.3223,525.5,971.3223,529.5,967.3223" style="stroke:#181818;stroke-width:1.0;"/><line style="stroke:#181818;stroke-width:1.0;" x1="46.5" x2="531.5" y1="967.3223" y2="967.3223"/><text fill="#000000" font-family="sans-serif" font-size="13" font-weight="bold" lengthAdjust="spacing" textLength="14" x="53.5" y="962.0596">23</text><text fill="#000000" font-family="sans-serif" font-size="13" lengthAdjust="spacing" textLength="187" x="71.5" y="962.0596">provides the announcement data</text><polygon fill="#181818" points="57.5,994.6133,47.5,998.6133,57.5,1002.6133,53.5,998.6133" style="stroke:#181818;stroke-width:1.0;"/><line style="stroke:#181818;stroke-width:1.0;stroke-dasharray:2.0,2.0;" x1="51.5" x2="541.5" y1="998.6133" y2="998.6133"/><text fill="#000000" font-family="sans-serif" font-size="13" font-weight="bold" lengthAdjust="spacing" textLength="14" x="63.5" y="993.3506">24</text><text fill="#000000" font-family="sans-serif" font-size="13" lengthAdjust="spacing" textLength="146" x="81.5" y="993.3506">request data confirmation</text><polygon fill="#181818" points="525.5,1025.9043,535.5,1029.9043,525.5,1033.9043,529.5,1029.9043" style="stroke:#181818;stroke-width:1.0;"/><line style="stroke:#181818;stroke-width:1.0;" x1="46.5" x2="531.5" y1="1029.9043" y2="1029.9043"/><text fill="#000000" font-family="sans-serif" font-size="13" font-weight="bold" lengthAdjust="spacing" textLength="14" x="53.5" y="1024.6416">25</text><text fill="#000000" font-family="sans-serif" font-size="13" lengthAdjust="spacing" textLength="78" x="71.5" y="1024.6416">confirms data</text><line style="stroke:#000000;stroke-width:1.0;stroke-dasharray:2.0,2.0;" x1="10" x2="584.5" y1="1038.9043" y2="1038.9043"/><text fill="#000000" font-family="sans-serif" font-size="11" font-weight="bold" lengthAdjust="spacing" textLength="105" x="15" y="1050.7744">[if business = sale]</text><polygon fill="#181818" points="57.5,1073.8262,47.5,1077.8262,57.5,1081.8262,53.5,1077.8262" style="stroke:#181818;stroke-width:1.0;"/><line style="stroke:#181818;stroke-width:1.0;stroke-dasharray:2.0,2.0;" x1="51.5" x2="541.5" y1="1077.8262" y2="1077.8262"/><text fill="#000000" font-family="sans-serif" font-size="13" font-weight="bold" lengthAdjust="spacing" textLength="14" x="63.5" y="1072.5635">26</text><text fill="#000000" font-family="sans-serif" font-size="13" lengthAdjust="spacing" textLength="254" x="81.5" y="1072.5635">asks if commission is in percentage or fixed</text><polygon fill="#181818" points="525.5,1105.1172,535.5,1109.1172,525.5,1113.1172,529.5,1109.1172" style="stroke:#181818;stroke-width:1.0;"/><line style="stroke:#181818;stroke-width:1.0;" x1="46.5" x2="531.5" y1="1109.1172" y2="1109.1172"/><text fill="#000000" font-family="sans-serif" font-size="13" font-weight="bold" lengthAdjust="spacing" textLength="14" x="53.5" y="1103.8545">27</text><text fill="#000000" font-family="sans-serif" font-size="13" lengthAdjust="spacing" textLength="143" x="71.5" y="1103.8545">inputs the pretend option</text><polygon fill="#181818" points="57.5,1136.4082,47.5,1140.4082,57.5,1144.4082,53.5,1140.4082" style="stroke:#181818;stroke-width:1.0;"/><line style="stroke:#181818;stroke-width:1.0;stroke-dasharray:2.0,2.0;" x1="51.5" x2="541.5" y1="1140.4082" y2="1140.4082"/><text fill="#000000" font-family="sans-serif" font-size="13" font-weight="bold" lengthAdjust="spacing" textLength="14" x="63.5" y="1135.1455">28</text><text fill="#000000" font-family="sans-serif" font-size="13" lengthAdjust="spacing" textLength="248" x="81.5" y="1135.1455">Asks for announcement data (commission)</text><polygon fill="#181818" points="525.5,1167.6992,535.5,1171.6992,525.5,1175.6992,529.5,1171.6992" style="stroke:#181818;stroke-width:1.0;"/><line style="stroke:#181818;stroke-width:1.0;" x1="46.5" x2="531.5" y1="1171.6992" y2="1171.6992"/><text fill="#000000" font-family="sans-serif" font-size="13" font-weight="bold" lengthAdjust="spacing" textLength="14" x="53.5" y="1166.4365">29</text><text fill="#000000" font-family="sans-serif" font-size="13" lengthAdjust="spacing" textLength="191" x="71.5" y="1166.4365">provides the  announcement data</text><polygon fill="#181818" points="57.5,1198.9902,47.5,1202.9902,57.5,1206.9902,53.5,1202.9902" style="stroke:#181818;stroke-width:1.0;"/><line style="stroke:#181818;stroke-width:1.0;stroke-dasharray:2.0,2.0;" x1="51.5" x2="541.5" y1="1202.9902" y2="1202.9902"/><text fill="#000000" font-family="sans-serif" font-size="13" font-weight="bold" lengthAdjust="spacing" textLength="14" x="63.5" y="1197.7275">30</text><text fill="#000000" font-family="sans-serif" font-size="13" lengthAdjust="spacing" textLength="146" x="81.5" y="1197.7275">request data confirmation</text><polygon fill="#181818" points="525.5,1230.2813,535.5,1234.2813,525.5,1238.2813,529.5,1234.2813" style="stroke:#181818;stroke-width:1.0;"/><line style="stroke:#181818;stroke-width:1.0;" x1="46.5" x2="531.5" y1="1234.2813" y2="1234.2813"/><text fill="#000000" font-family="sans-serif" font-size="13" font-weight="bold" lengthAdjust="spacing" textLength="14" x="53.5" y="1229.0186">31</text><text fill="#000000" font-family="sans-serif" font-size="13" lengthAdjust="spacing" textLength="78" x="71.5" y="1229.0186">confirms data</text><polygon fill="#181818" points="57.5,1268.5723,47.5,1272.5723,57.5,1276.5723,53.5,1272.5723" style="stroke:#181818;stroke-width:1.0;"/><line style="stroke:#181818;stroke-width:1.0;stroke-dasharray:2.0,2.0;" x1="51.5" x2="541.5" y1="1272.5723" y2="1272.5723"/><text fill="#000000" font-family="sans-serif" font-size="13" font-weight="bold" lengthAdjust="spacing" textLength="14" x="63.5" y="1267.3096">32</text><text fill="#000000" font-family="sans-serif" font-size="13" lengthAdjust="spacing" textLength="151" x="81.5" y="1267.3096">display operation success</text><!--SRC=[jLPDRzim3BtxLn0vBK3w1m9qGFTnAtR9ZhqmCXCBjILDbBlctuzI72-DBJVELYC8P9kagFSUIVEpDWuzDj1OOrNbRKCGV4i5zsySgcVSqoOSQW9FAg3Pr-S6N65fVskpXntMJ4Myi0tMjCsMlAnLi1uM3tioOG78a5Q5E0Ujj4CJOB7U73XGaruVbybFls2Wphw0UAKrt7tkh60j7iyCmO9hjxNc2j38pzZMA6gYN_JgGvrYfwTTY3k9biAkmNdxealYk73amm72mH5O5xGrd9nA6WGRIsmDJBM0TH7gQ3kI3jO1zEvYttkeqPIZkSh1FVrgYMM7Q0Gb1eHFpcj5Aq1FAFzbwObv1QLcOKtHJ_jLNBqOkCe6k_VeAbuUSngUQnpkc1YVzgRZlkCOZoBSEHxJLTRij6ymebjaiHqWsxbnl_S8dYHA70CKe-nwNKoXsblU3ktgoMofzDOsFr8jhBOOghDRgIqlPRJVI8rHz-p9I0BQnOqV9VO7aZENdIdrNyFIkF9ZW1nPbMsPJgwJP2NB_qWKp6Tg1HNo5-JKTTBDezt9Wblp_TLPRZqj-xDa69t9QfRP6zcTPlXwbZDCdrwHzBHqEy9etu6tBMiZp0qxy6IUsJRy9bwHqs9Ag-l5lSUz8DSrZ4aH7kKNRR-rFW5x8Zp3zXogP_2S9g8SGDccqSoI1sXvO42AIuc5J7EGYRpJhrIUKtQL0eO8otT0AwSF5Gbx58JTZgutRkCZE5lPwGmxoV9ybdS8_ptNihWoxI7IlT1YteDDYkiIlxdARaSxMt2PYZlrrZCrCyhtM_51wdd_IBThQBAjZ8ZeOPw8hXvkb_B9woSFnBy9vts8vsadFvsByvOz3RUCM5VZ0U8GJudBx5DAD3Srzhhh3m00]--></g></svg>