<?xml version="1.0" encoding="us-ascii" standalone="no"?><svg xmlns="http://www.w3.org/2000/svg" xmlns:xlink="http://www.w3.org/1999/xlink" contentStyleType="text/css" height="793.1px" preserveAspectRatio="none" style="width:958px;height:793px;background:#FFFFFF;" version="1.1" viewBox="0 0 958 793" width="958.3px" zoomAndPan="magnify"><defs/><g><rect fill="#FFFFFF" height="666.6297" style="stroke:#181818;stroke-width:0.6999999999999998;" width="7" x="30.8" y="63.4484"/><rect fill="#FFFFFF" height="118.3984" style="stroke:#181818;stroke-width:0.6999999999999998;" width="7" x="493.5" y="77.8148"/><rect fill="#FFFFFF" height="169.0336" style="stroke:#181818;stroke-width:0.6999999999999998;" width="7" x="493.5" y="216.1797"/><rect fill="#FFFFFF" height="119.0164" style="stroke:#181818;stroke-width:0.6999999999999998;" width="7" x="493.5" y="405.1797"/><rect fill="#FFFFFF" height="19.9664" style="stroke:#181818;stroke-width:0.6999999999999998;" width="7" x="493.5" y="560.6289"/><rect fill="#FFFFFF" height="119.0164" style="stroke:#181818;stroke-width:0.6999999999999998;" width="7" x="493.5" y="600.5617"/><rect fill="#FFFFFF" height="50.0172" style="stroke:#181818;stroke-width:0.6999999999999998;" width="7" x="843.5" y="126.2297"/><rect fill="#FFFFFF" height="50.0172" style="stroke:#181818;stroke-width:0.6999999999999998;" width="7" x="843.5" y="265.2125"/><rect fill="#FFFFFF" height="50.0172" style="stroke:#181818;stroke-width:0.6999999999999998;" width="7" x="843.5" y="335.1961"/><rect fill="#FFFFFF" height="50.0172" style="stroke:#181818;stroke-width:0.6999999999999998;" width="7" x="843.5" y="454.2125"/><rect fill="#FFFFFF" height="50.0172" style="stroke:#181818;stroke-width:0.6999999999999998;" width="7" x="843.5" y="649.5945"/><rect fill="none" height="190.482" style="stroke:#000000;stroke-width:1.0499999999999998;" width="947.1" x="7" y="534.6961"/><line style="stroke:#181818;stroke-width:0.3499999999999999;stroke-dasharray:5.0,5.0;" x1="34.3" x2="34.3" y1="56.4484" y2="737.0781"/><line style="stroke:#181818;stroke-width:0.3499999999999999;stroke-dasharray:5.0,5.0;" x1="497" x2="497" y1="56.4484" y2="737.0781"/><line style="stroke:#181818;stroke-width:0.3499999999999999;stroke-dasharray:5.0,5.0;" x1="847" x2="847" y1="104.6391" y2="737.0781"/><text fill="#000000" font-family="sans-serif" font-size="9.8" lengthAdjust="spacing" textLength="36.4" x="14" y="54.3717">Client UI</text><ellipse cx="34.3" cy="9.45" fill="#E3E3E3" rx="5.6" ry="5.6" style="stroke:#181818;stroke-width:0.3499999999999999;"/><path d="M34.3,15.05 L34.3,33.95 M25.2,20.65 L43.4,20.65 M34.3,33.95 L25.2,44.45 M34.3,33.95 L43.4,44.45 " fill="none" style="stroke:#181818;stroke-width:0.3499999999999999;"/><text fill="#000000" font-family="sans-serif" font-size="9.8" lengthAdjust="spacing" textLength="36.4" x="14" y="745.2498">Client UI</text><ellipse cx="34.3" cy="753.2766" fill="#E3E3E3" rx="5.6" ry="5.6" style="stroke:#181818;stroke-width:0.3499999999999999;"/><path d="M34.3,758.8766 L34.3,777.7766 M25.2,764.4766 L43.4,764.4766 M34.3,777.7766 L25.2,788.2766 M34.3,777.7766 L43.4,788.2766 " fill="none" style="stroke:#181818;stroke-width:0.3499999999999999;"/><rect fill="#E3E3E3" height="20.7484" rx="1.75" ry="1.75" style="stroke:#181818;stroke-width:0.3499999999999999;" width="165.2" x="414.4" y="35"/><text fill="#000000" font-family="sans-serif" font-size="9.8" lengthAdjust="spacing" textLength="155.4" x="419.3" y="48.7717">:ReplyToAgentAboutVisitRequestUI</text><rect fill="#E3E3E3" height="20.7484" rx="1.75" ry="1.75" style="stroke:#181818;stroke-width:0.3499999999999999;" width="165.2" x="414.4" y="736.3781"/><text fill="#000000" font-family="sans-serif" font-size="9.8" lengthAdjust="spacing" textLength="155.4" x="419.3" y="750.1498">:ReplyToAgentAboutVisitRequestUI</text><rect fill="#E3E3E3" height="20.7484" rx="1.75" ry="1.75" style="stroke:#181818;stroke-width:0.3499999999999999;" width="200.2" x="746.9" y="736.3781"/><text fill="#000000" font-family="sans-serif" font-size="9.8" lengthAdjust="spacing" textLength="190.4" x="751.8" y="750.1498">:ReplyToAgentAboutVisitRequestController</text><rect fill="#FFFFFF" height="666.6297" style="stroke:#181818;stroke-width:0.6999999999999998;" width="7" x="30.8" y="63.4484"/><rect fill="#FFFFFF" height="118.3984" style="stroke:#181818;stroke-width:0.6999999999999998;" width="7" x="493.5" y="77.8148"/><rect fill="#FFFFFF" height="169.0336" style="stroke:#181818;stroke-width:0.6999999999999998;" width="7" x="493.5" y="216.1797"/><rect fill="#FFFFFF" height="119.0164" style="stroke:#181818;stroke-width:0.6999999999999998;" width="7" x="493.5" y="405.1797"/><rect fill="#FFFFFF" height="19.9664" style="stroke:#181818;stroke-width:0.6999999999999998;" width="7" x="493.5" y="560.6289"/><rect fill="#FFFFFF" height="119.0164" style="stroke:#181818;stroke-width:0.6999999999999998;" width="7" x="493.5" y="600.5617"/><rect fill="#FFFFFF" height="50.0172" style="stroke:#181818;stroke-width:0.6999999999999998;" width="7" x="843.5" y="126.2297"/><rect fill="#FFFFFF" height="50.0172" style="stroke:#181818;stroke-width:0.6999999999999998;" width="7" x="843.5" y="265.2125"/><rect fill="#FFFFFF" height="50.0172" style="stroke:#181818;stroke-width:0.6999999999999998;" width="7" x="843.5" y="335.1961"/><rect fill="#FFFFFF" height="50.0172" style="stroke:#181818;stroke-width:0.6999999999999998;" width="7" x="843.5" y="454.2125"/><rect fill="#FFFFFF" height="50.0172" style="stroke:#181818;stroke-width:0.6999999999999998;" width="7" x="843.5" y="649.5945"/><polygon fill="#181818" points="485.1,75.0148,492.1,77.8148,485.1,80.6148,487.9,77.8148" style="stroke:#181818;stroke-width:0.6999999999999998;"/><line style="stroke:#181818;stroke-width:0.6999999999999998;" x1="37.8" x2="489.3" y1="77.8148" y2="77.8148"/><text fill="#000000" font-family="sans-serif" font-size="9.1" font-weight="bold" lengthAdjust="spacing" textLength="4.9" x="42.7" y="74.4864">1</text><text fill="#000000" font-family="sans-serif" font-size="9.1" lengthAdjust="spacing" textLength="216.3" x="50.4" y="74.4864">asks to see the agent's response to my visit requests</text><polygon fill="#181818" points="738.5,94.9812,745.5,97.7812,738.5,100.5812,741.3,97.7812" style="stroke:#181818;stroke-width:0.6999999999999998;"/><line style="stroke:#181818;stroke-width:0.6999999999999998;" x1="500.5" x2="742.7" y1="97.7812" y2="97.7812"/><text fill="#000000" font-family="sans-serif" font-size="9.1" font-weight="bold" lengthAdjust="spacing" textLength="4.9" x="505.4" y="94.4528">2</text><text fill="#000000" font-family="sans-serif" font-size="9.1" lengthAdjust="spacing" textLength="221.9" x="513.1" y="94.4528">createGetReplyFromAgentAboutVisitRequestController</text><rect fill="#E3E3E3" height="20.7484" rx="1.75" ry="1.75" style="stroke:#181818;stroke-width:0.3499999999999999;" width="200.2" x="746.9" y="83.4148"/><text fill="#000000" font-family="sans-serif" font-size="9.8" lengthAdjust="spacing" textLength="190.4" x="751.8" y="97.1865">:ReplyToAgentAboutVisitRequestController</text><polygon fill="#181818" points="835.1,123.4297,842.1,126.2297,835.1,129.0297,837.9,126.2297" style="stroke:#181818;stroke-width:0.6999999999999998;"/><line style="stroke:#181818;stroke-width:0.6999999999999998;" x1="500.5" x2="839.3" y1="126.2297" y2="126.2297"/><text fill="#000000" font-family="sans-serif" font-size="9.1" font-weight="bold" lengthAdjust="spacing" textLength="4.9" x="505.4" y="122.9013">3</text><text fill="#000000" font-family="sans-serif" font-size="9.1" lengthAdjust="spacing" textLength="77" x="513.1" y="122.9013">GetVisitRequests()</text><rect fill="none" height="26.5508" style="stroke:#000000;stroke-width:1.0499999999999998;" width="204.4" x="744.8" y="131.8297"/><path d="M744.8,131.8297 L788.2,131.8297 L788.2,136.0297 L781.2,143.0297 L744.8,143.0297 L744.8,131.8297 " fill="#EEEEEE" style="stroke:#000000;stroke-width:1.3999999999999997;"/><text fill="#000000" font-family="sans-serif" font-size="9.1" font-weight="bold" lengthAdjust="spacing" textLength="11.9" x="753.9" y="141.4677">ref</text><text fill="#000000" font-family="sans-serif" font-size="8.4" lengthAdjust="spacing" textLength="65.8" x="814.1" y="153.434">getVisitRequests</text><polygon fill="#181818" points="508.2,173.4469,501.2,176.2469,508.2,179.0469,505.4,176.2469" style="stroke:#181818;stroke-width:0.6999999999999998;"/><line style="stroke:#181818;stroke-width:0.6999999999999998;stroke-dasharray:2.0,2.0;" x1="504" x2="846.3" y1="176.2469" y2="176.2469"/><text fill="#000000" font-family="sans-serif" font-size="9.1" font-weight="bold" lengthAdjust="spacing" textLength="4.9" x="512.4" y="172.9185">4</text><text fill="#000000" font-family="sans-serif" font-size="9.1" lengthAdjust="spacing" textLength="56.7" x="520.1" y="172.9185">VisitRequests</text><polygon fill="#181818" points="45.5,193.4133,38.5,196.2133,45.5,199.0133,42.7,196.2133" style="stroke:#181818;stroke-width:0.6999999999999998;"/><line style="stroke:#181818;stroke-width:0.6999999999999998;stroke-dasharray:2.0,2.0;" x1="41.3" x2="496.3" y1="196.2133" y2="196.2133"/><text fill="#000000" font-family="sans-serif" font-size="9.1" font-weight="bold" lengthAdjust="spacing" textLength="4.9" x="49.7" y="192.8849">5</text><text fill="#000000" font-family="sans-serif" font-size="9.1" lengthAdjust="spacing" textLength="396.2" x="57.4" y="192.8849">show list of response (display property, date of the appointment, agent's name and phone number)</text><polygon fill="#181818" points="485.1,213.3797,492.1,216.1797,485.1,218.9797,487.9,216.1797" style="stroke:#181818;stroke-width:0.6999999999999998;"/><line style="stroke:#181818;stroke-width:0.6999999999999998;" x1="37.8" x2="489.3" y1="216.1797" y2="216.1797"/><text fill="#000000" font-family="sans-serif" font-size="9.1" font-weight="bold" lengthAdjust="spacing" textLength="4.9" x="42.7" y="212.8513">6</text><text fill="#000000" font-family="sans-serif" font-size="9.1" lengthAdjust="spacing" textLength="77" x="50.4" y="212.8513">select appointment</text><line style="stroke:#181818;stroke-width:0.6999999999999998;stroke-dasharray:2.0,2.0;" x1="500.5" x2="529.9" y1="236.1461" y2="236.1461"/><line style="stroke:#181818;stroke-width:0.6999999999999998;stroke-dasharray:2.0,2.0;" x1="529.9" x2="529.9" y1="236.1461" y2="245.2461"/><line style="stroke:#181818;stroke-width:0.6999999999999998;stroke-dasharray:2.0,2.0;" x1="501.2" x2="529.9" y1="245.2461" y2="245.2461"/><polygon fill="#181818" points="508.2,242.4461,501.2,245.2461,508.2,248.0461,505.4,245.2461" style="stroke:#181818;stroke-width:0.6999999999999998;"/><text fill="#000000" font-family="sans-serif" font-size="9.1" font-weight="bold" lengthAdjust="spacing" textLength="4.9" x="505.4" y="232.8177">7</text><text fill="#000000" font-family="sans-serif" font-size="9.1" lengthAdjust="spacing" textLength="85.4" x="513.1" y="232.8177">displayAppointment()</text><polygon fill="#181818" points="835.1,262.4125,842.1,265.2125,835.1,268.0125,837.9,265.2125" style="stroke:#181818;stroke-width:0.6999999999999998;"/><line style="stroke:#181818;stroke-width:0.6999999999999998;stroke-dasharray:2.0,2.0;" x1="500.5" x2="839.3" y1="265.2125" y2="265.2125"/><text fill="#000000" font-family="sans-serif" font-size="9.1" font-weight="bold" lengthAdjust="spacing" textLength="4.9" x="505.4" y="261.8841">8</text><text fill="#000000" font-family="sans-serif" font-size="9.1" lengthAdjust="spacing" textLength="56" x="513.1" y="261.8841">getClientList()</text><rect fill="none" height="26.5508" style="stroke:#000000;stroke-width:1.0499999999999998;" width="204.4" x="744.8" y="270.8125"/><path d="M744.8,270.8125 L788.2,270.8125 L788.2,275.0125 L781.2,282.0125 L744.8,282.0125 L744.8,270.8125 " fill="#EEEEEE" style="stroke:#000000;stroke-width:1.3999999999999997;"/><text fill="#000000" font-family="sans-serif" font-size="9.1" font-weight="bold" lengthAdjust="spacing" textLength="11.9" x="753.9" y="280.4505">ref</text><text fill="#000000" font-family="sans-serif" font-size="8.4" lengthAdjust="spacing" textLength="52.5" x="820.75" y="292.4168">get Client List</text><polygon fill="#181818" points="508.2,312.4297,501.2,315.2297,508.2,318.0297,505.4,315.2297" style="stroke:#181818;stroke-width:0.6999999999999998;"/><line style="stroke:#181818;stroke-width:0.6999999999999998;stroke-dasharray:2.0,2.0;" x1="504" x2="846.3" y1="315.2297" y2="315.2297"/><text fill="#000000" font-family="sans-serif" font-size="9.1" font-weight="bold" lengthAdjust="spacing" textLength="4.9" x="512.4" y="311.9013">9</text><text fill="#000000" font-family="sans-serif" font-size="9.1" lengthAdjust="spacing" textLength="36.4" x="520.1" y="311.9013">clientList</text><polygon fill="#181818" points="835.1,332.3961,842.1,335.1961,835.1,337.9961,837.9,335.1961" style="stroke:#181818;stroke-width:0.6999999999999998;"/><line style="stroke:#181818;stroke-width:0.6999999999999998;" x1="500.5" x2="839.3" y1="335.1961" y2="335.1961"/><text fill="#000000" font-family="sans-serif" font-size="9.1" font-weight="bold" lengthAdjust="spacing" textLength="9.8" x="505.4" y="331.8677">10</text><text fill="#000000" font-family="sans-serif" font-size="9.1" lengthAdjust="spacing" textLength="222.6" x="518" y="331.8677">createEmail(clientEmail, agentEmail, subject, mesage)</text><rect fill="none" height="26.5508" style="stroke:#000000;stroke-width:1.0499999999999998;" width="204.4" x="744.8" y="340.7961"/><path d="M744.8,340.7961 L788.2,340.7961 L788.2,344.9961 L781.2,351.9961 L744.8,351.9961 L744.8,340.7961 " fill="#EEEEEE" style="stroke:#000000;stroke-width:1.3999999999999997;"/><text fill="#000000" font-family="sans-serif" font-size="9.1" font-weight="bold" lengthAdjust="spacing" textLength="11.9" x="753.9" y="350.4341">ref</text><text fill="#000000" font-family="sans-serif" font-size="8.4" lengthAdjust="spacing" textLength="46.2" x="823.9" y="362.4004">createEmail</text><polygon fill="#181818" points="45.5,382.4133,38.5,385.2133,45.5,388.0133,42.7,385.2133" style="stroke:#181818;stroke-width:0.6999999999999998;"/><line style="stroke:#181818;stroke-width:0.6999999999999998;stroke-dasharray:2.0,2.0;" x1="41.3" x2="496.3" y1="385.2133" y2="385.2133"/><text fill="#000000" font-family="sans-serif" font-size="9.1" font-weight="bold" lengthAdjust="spacing" textLength="9.8" x="49.7" y="381.8849">11</text><text fill="#000000" font-family="sans-serif" font-size="9.1" lengthAdjust="spacing" textLength="426.3" x="62.3" y="381.8849">display property, date of the appointment, agent's name and phone number and asks to accept or reject it</text><polygon fill="#181818" points="485.1,402.3797,492.1,405.1797,485.1,407.9797,487.9,405.1797" style="stroke:#181818;stroke-width:0.6999999999999998;"/><line style="stroke:#181818;stroke-width:0.6999999999999998;" x1="37.8" x2="489.3" y1="405.1797" y2="405.1797"/><text fill="#000000" font-family="sans-serif" font-size="9.1" font-weight="bold" lengthAdjust="spacing" textLength="9.8" x="42.7" y="401.8513">12</text><text fill="#000000" font-family="sans-serif" font-size="9.1" lengthAdjust="spacing" textLength="95.2" x="55.3" y="401.8513">accept the appointment</text><line style="stroke:#181818;stroke-width:0.6999999999999998;stroke-dasharray:2.0,2.0;" x1="500.5" x2="529.9" y1="425.1461" y2="425.1461"/><line style="stroke:#181818;stroke-width:0.6999999999999998;stroke-dasharray:2.0,2.0;" x1="529.9" x2="529.9" y1="425.1461" y2="434.2461"/><line style="stroke:#181818;stroke-width:0.6999999999999998;stroke-dasharray:2.0,2.0;" x1="501.2" x2="529.9" y1="434.2461" y2="434.2461"/><polygon fill="#181818" points="508.2,431.4461,501.2,434.2461,508.2,437.0461,505.4,434.2461" style="stroke:#181818;stroke-width:0.6999999999999998;"/><text fill="#000000" font-family="sans-serif" font-size="9.1" font-weight="bold" lengthAdjust="spacing" textLength="9.8" x="505.4" y="421.8177">13</text><text fill="#000000" font-family="sans-serif" font-size="9.1" lengthAdjust="spacing" textLength="44.8" x="518" y="421.8177">keep(reply)</text><polygon fill="#181818" points="835.1,451.4125,842.1,454.2125,835.1,457.0125,837.9,454.2125" style="stroke:#181818;stroke-width:0.6999999999999998;"/><line style="stroke:#181818;stroke-width:0.6999999999999998;" x1="500.5" x2="839.3" y1="454.2125" y2="454.2125"/><text fill="#000000" font-family="sans-serif" font-size="9.1" font-weight="bold" lengthAdjust="spacing" textLength="9.8" x="505.4" y="450.8841">14</text><text fill="#000000" font-family="sans-serif" font-size="9.1" lengthAdjust="spacing" textLength="135.8" x="518" y="450.8841">setVisitRequestClientReply(reply)</text><rect fill="none" height="26.5508" style="stroke:#000000;stroke-width:1.0499999999999998;" width="204.4" x="744.8" y="459.8125"/><path d="M744.8,459.8125 L788.2,459.8125 L788.2,464.0125 L781.2,471.0125 L744.8,471.0125 L744.8,459.8125 " fill="#EEEEEE" style="stroke:#000000;stroke-width:1.3999999999999997;"/><text fill="#000000" font-family="sans-serif" font-size="9.1" font-weight="bold" lengthAdjust="spacing" textLength="11.9" x="753.9" y="469.4505">ref</text><text fill="#000000" font-family="sans-serif" font-size="8.4" lengthAdjust="spacing" textLength="105" x="794.5" y="481.4168">setVisitRequestClientReply</text><polygon fill="#181818" points="508.2,501.4297,501.2,504.2297,508.2,507.0297,505.4,504.2297" style="stroke:#181818;stroke-width:0.6999999999999998;"/><line style="stroke:#181818;stroke-width:0.6999999999999998;stroke-dasharray:2.0,2.0;" x1="504" x2="846.3" y1="504.2297" y2="504.2297"/><text fill="#000000" font-family="sans-serif" font-size="9.1" font-weight="bold" lengthAdjust="spacing" textLength="9.8" x="512.4" y="500.9013">16</text><text fill="#000000" font-family="sans-serif" font-size="9.1" lengthAdjust="spacing" textLength="54.6" x="525" y="500.9013">wasAccepted</text><polygon fill="#181818" points="45.5,521.3961,38.5,524.1961,45.5,526.9961,42.7,524.1961" style="stroke:#181818;stroke-width:0.6999999999999998;"/><line style="stroke:#181818;stroke-width:0.6999999999999998;stroke-dasharray:2.0,2.0;" x1="41.3" x2="496.3" y1="524.1961" y2="524.1961"/><text fill="#000000" font-family="sans-serif" font-size="9.1" font-weight="bold" lengthAdjust="spacing" textLength="9.8" x="49.7" y="520.8677">17</text><text fill="#000000" font-family="sans-serif" font-size="9.1" lengthAdjust="spacing" textLength="105.7" x="62.3" y="520.8677">display success message</text><path d="M7,534.6961 L52.5,534.6961 L52.5,539.2625 L45.5,546.2625 L7,546.2625 L7,534.6961 " fill="#EEEEEE" style="stroke:#000000;stroke-width:1.0499999999999998;"/><rect fill="none" height="190.482" style="stroke:#000000;stroke-width:1.0499999999999998;" width="947.1" x="7" y="534.6961"/><text fill="#000000" font-family="sans-serif" font-size="9.1" font-weight="bold" lengthAdjust="spacing" textLength="14" x="17.5" y="543.6341">opt</text><text fill="#000000" font-family="sans-serif" font-size="7.7" font-weight="bold" lengthAdjust="spacing" textLength="107.1" x="63" y="543.0667">[appointment was rejected]</text><polygon fill="#181818" points="485.1,557.8289,492.1,560.6289,485.1,563.4289,487.9,560.6289" style="stroke:#181818;stroke-width:0.6999999999999998;"/><line style="stroke:#181818;stroke-width:0.6999999999999998;" x1="37.8" x2="489.3" y1="560.6289" y2="560.6289"/><text fill="#000000" font-family="sans-serif" font-size="9.1" font-weight="bold" lengthAdjust="spacing" textLength="9.8" x="42.7" y="557.3005">18</text><text fill="#000000" font-family="sans-serif" font-size="9.1" lengthAdjust="spacing" textLength="90.3" x="55.3" y="557.3005">reject the appointment</text><polygon fill="#181818" points="45.5,577.7953,38.5,580.5953,45.5,583.3953,42.7,580.5953" style="stroke:#181818;stroke-width:0.6999999999999998;"/><line style="stroke:#181818;stroke-width:0.6999999999999998;stroke-dasharray:2.0,2.0;" x1="41.3" x2="496.3" y1="580.5953" y2="580.5953"/><text fill="#000000" font-family="sans-serif" font-size="9.1" font-weight="bold" lengthAdjust="spacing" textLength="9.8" x="49.7" y="577.2669">19</text><text fill="#000000" font-family="sans-serif" font-size="9.1" lengthAdjust="spacing" textLength="168.7" x="62.3" y="577.2669">asks the reason to reject the appointment</text><polygon fill="#181818" points="485.1,597.7617,492.1,600.5617,485.1,603.3617,487.9,600.5617" style="stroke:#181818;stroke-width:0.6999999999999998;"/><line style="stroke:#181818;stroke-width:0.6999999999999998;" x1="37.8" x2="489.3" y1="600.5617" y2="600.5617"/><text fill="#000000" font-family="sans-serif" font-size="9.1" font-weight="bold" lengthAdjust="spacing" textLength="9.8" x="42.7" y="597.2333">20</text><text fill="#000000" font-family="sans-serif" font-size="9.1" lengthAdjust="spacing" textLength="58.8" x="55.3" y="597.2333">write message</text><line style="stroke:#181818;stroke-width:0.6999999999999998;stroke-dasharray:2.0,2.0;" x1="500.5" x2="529.9" y1="620.5281" y2="620.5281"/><line style="stroke:#181818;stroke-width:0.6999999999999998;stroke-dasharray:2.0,2.0;" x1="529.9" x2="529.9" y1="620.5281" y2="629.6281"/><line style="stroke:#181818;stroke-width:0.6999999999999998;stroke-dasharray:2.0,2.0;" x1="501.2" x2="529.9" y1="629.6281" y2="629.6281"/><polygon fill="#181818" points="508.2,626.8281,501.2,629.6281,508.2,632.4281,505.4,629.6281" style="stroke:#181818;stroke-width:0.6999999999999998;"/><text fill="#000000" font-family="sans-serif" font-size="9.1" font-weight="bold" lengthAdjust="spacing" textLength="9.8" x="505.4" y="617.1997">21</text><text fill="#000000" font-family="sans-serif" font-size="9.1" lengthAdjust="spacing" textLength="44.8" x="518" y="617.1997">keep(reply)</text><polygon fill="#181818" points="835.1,646.7945,842.1,649.5945,835.1,652.3945,837.9,649.5945" style="stroke:#181818;stroke-width:0.6999999999999998;"/><line style="stroke:#181818;stroke-width:0.6999999999999998;" x1="500.5" x2="839.3" y1="649.5945" y2="649.5945"/><text fill="#000000" font-family="sans-serif" font-size="9.1" font-weight="bold" lengthAdjust="spacing" textLength="9.8" x="505.4" y="646.2661">22</text><text fill="#000000" font-family="sans-serif" font-size="9.1" lengthAdjust="spacing" textLength="135.8" x="518" y="646.2661">setVisitRequestClientReply(reply)</text><rect fill="none" height="26.5508" style="stroke:#000000;stroke-width:1.0499999999999998;" width="204.4" x="744.8" y="655.1945"/><path d="M744.8,655.1945 L788.2,655.1945 L788.2,659.3945 L781.2,666.3945 L744.8,666.3945 L744.8,655.1945 " fill="#EEEEEE" style="stroke:#000000;stroke-width:1.3999999999999997;"/><text fill="#000000" font-family="sans-serif" font-size="9.1" font-weight="bold" lengthAdjust="spacing" textLength="11.9" x="753.9" y="664.8325">ref</text><text fill="#000000" font-family="sans-serif" font-size="8.4" lengthAdjust="spacing" textLength="105" x="794.5" y="676.7988">setVisitRequestClientReply</text><polygon fill="#181818" points="508.2,696.8117,501.2,699.6117,508.2,702.4117,505.4,699.6117" style="stroke:#181818;stroke-width:0.6999999999999998;"/><line style="stroke:#181818;stroke-width:0.6999999999999998;stroke-dasharray:2.0,2.0;" x1="504" x2="846.3" y1="699.6117" y2="699.6117"/><text fill="#000000" font-family="sans-serif" font-size="9.1" font-weight="bold" lengthAdjust="spacing" textLength="9.8" x="512.4" y="696.2833">23</text><text fill="#000000" font-family="sans-serif" font-size="9.1" lengthAdjust="spacing" textLength="54.6" x="525" y="696.2833">wasAccepted</text><polygon fill="#181818" points="45.5,716.7781,38.5,719.5781,45.5,722.3781,42.7,719.5781" style="stroke:#181818;stroke-width:0.6999999999999998;"/><line style="stroke:#181818;stroke-width:0.6999999999999998;stroke-dasharray:2.0,2.0;" x1="41.3" x2="496.3" y1="719.5781" y2="719.5781"/><text fill="#000000" font-family="sans-serif" font-size="9.1" font-weight="bold" lengthAdjust="spacing" textLength="9.8" x="49.7" y="716.2497">24</text><text fill="#000000" font-family="sans-serif" font-size="9.1" lengthAdjust="spacing" textLength="105.7" x="62.3" y="716.2497">display success message</text><!--SRC=[pLR1Zjem4BtxAqPxMLYnbRPRzS1X9OJQQYNK0ztjtIG3SKbir-D0-VkEan0IacYXwc5piiRZDs_cFHjegxILJcQG6MsYn9aCmRiS1TKxLaPRkS4V_f0YE8oyr9kqcK29ZCrUwGsiPKeeXCozqNcsGYV4RQ9YXBKnVcN-21bvu-1cdYhK7bwVRq0Ip1VV1IDv5IahENmpNQ9D3ozcjk6isSha_gSYvPVuEqVorQdNvsiEpOtspgGfkhBaot8X-6C-QYSz5Xm4yCSBk7zYT9XoufR06o3aeIG8Ca3V4W-1hD64OIyxm2xKuM1HY4gOyDNWJBKECZ33X_ftTrmYSiWPtz0NxB_o_D_YtmV5GC0OpGCq6f-8r7h0uuU7BhzY6bNGuHhCZZERGTYSWHytKCUYhyodEbZGkpzEj1S4OcnJ4UqUGvEiofIDPlQGAl9WrYSHHh4Ycye3M6SiEd-OG1oWEASGpLgZjCzugfDQGItPvrB7O1EZ4KhMupv2GRjJCmrp4APy5vhmJTw3sX-FLwHdf-CiMAVjKbkUVdbZ5jnxKzS-0OSLXEhQ1PGw7XJiroggImuBrMl5qjDVCgdIKGbIhAlfLslALxzuVXF8a3W-_XTNDWgr-Xdop_yoIX4uFWuoYj2o8nsJ31s1kc1UvmRhTLY5VCRjAfTj4Ut8XQTbF20MjMzsQP7YCUgSkyPkmx1jfNhUZeVF0uRSIveL8y5ON6R9ZlAKCm1HC5rmtQ0Wnx2nhHiUA5GoOzohMUM1ZcQNA5PIBNsLX9zQIKO7Yxq5Ea2-oMll5Ezssdu71khtpyKs6dBHnyVtuw8MnsQfyAVZBm00]--></g></svg>