<?xml version="1.0" encoding="us-ascii" standalone="no"?><svg xmlns="http://www.w3.org/2000/svg" xmlns:xlink="http://www.w3.org/1999/xlink" contentStyleType="text/css" height="1291px" preserveAspectRatio="none" style="width:1225px;height:1291px;background:#FFFFFF;" version="1.1" viewBox="0 0 1225 1291" width="1225px" zoomAndPan="magnify"><defs><filter height="300%" id="fonpfobfnwdje" width="300%" x="-1" y="-1"><feGaussianBlur result="blurOut" stdDeviation="2.0"/><feColorMatrix in="blurOut" result="blurOut2" type="matrix" values="0 0 0 0 0 0 0 0 0 0 0 0 0 0 0 0 0 0 .4 0"/><feOffset dx="4.0" dy="4.0" in="blurOut2" result="blurOut3"/><feBlend in="SourceGraphic" in2="blurOut3" mode="normal"/></filter></defs><g><!--class ReplyToAgentAboutVisitRequestUI--><g id="elem_ReplyToAgentAboutVisitRequestUI"><rect codeLine="12" fill="#F1F1F1" filter="url(#fonpfobfnwdje)" height="48" id="ReplyToAgentAboutVisitRequestUI" rx="2.5" ry="2.5" style="stroke:#181818;stroke-width:0.5;" width="250" x="6" y="51"/><ellipse cx="21" cy="67" fill="#ADD1B2" rx="11" ry="11" style="stroke:#181818;stroke-width:1.0;"/><path d="M23.7656,62.875 Q23.9219,62.6563 24.1094,62.5469 Q24.2969,62.4375 24.5156,62.4375 Q24.8906,62.4375 25.125,62.7031 Q25.3594,62.9531 25.3594,63.5625 L25.3594,65.0156 Q25.3594,65.625 25.125,65.8906 Q24.8906,66.1563 24.5156,66.1563 Q24.1719,66.1563 23.9688,65.9531 Q23.7656,65.7656 23.6563,65.25 Q23.6094,64.8906 23.4219,64.7031 Q23.0938,64.3281 22.4844,64.1094 Q21.875,63.8906 21.25,63.8906 Q20.4844,63.8906 19.8438,64.2188 Q19.2188,64.5469 18.7188,65.2969 Q18.2344,66.0469 18.2344,67.0781 L18.2344,68.1719 Q18.2344,69.4063 19.125,70.2344 Q20.0156,71.0469 21.6094,71.0469 Q22.5469,71.0469 23.2031,70.7969 Q23.5938,70.6406 24.0156,70.2031 Q24.2813,69.9375 24.4219,69.8594 Q24.5781,69.7813 24.7813,69.7813 Q25.1094,69.7813 25.3594,70.0469 Q25.625,70.2969 25.625,70.6406 Q25.625,70.9844 25.2813,71.3906 Q24.7813,71.9688 23.9844,72.2969 Q22.9063,72.75 21.6094,72.75 Q20.0938,72.75 18.8906,72.125 Q17.9063,71.625 17.2188,70.5625 Q16.5313,69.4844 16.5313,68.2031 L16.5313,67.0469 Q16.5313,65.7188 17.1406,64.5781 Q17.7656,63.4219 18.8594,62.8125 Q19.9531,62.1875 21.1875,62.1875 Q21.9219,62.1875 22.5625,62.3594 Q23.2188,62.5156 23.7656,62.875 Z " fill="#000000"/><text fill="#000000" font-family="sans-serif" font-size="14" lengthAdjust="spacing" textLength="218" x="35" y="71.8535">ReplyToAgentAboutVisitRequestUI</text><line style="stroke:#181818;stroke-width:0.5;" x1="7" x2="255" y1="83" y2="83"/><line style="stroke:#181818;stroke-width:0.5;" x1="7" x2="255" y1="91" y2="91"/></g><!--class ReplyToAgentAboutVisitRequestController--><g id="elem_ReplyToAgentAboutVisitRequestController"><rect codeLine="15" fill="#F1F1F1" filter="url(#fonpfobfnwdje)" height="126.2031" id="ReplyToAgentAboutVisitRequestController" rx="2.5" ry="2.5" style="stroke:#181818;stroke-width:0.5;" width="360" x="274" y="12"/><ellipse cx="316" cy="28" fill="#ADD1B2" rx="11" ry="11" style="stroke:#181818;stroke-width:1.0;"/><path d="M318.7656,23.875 Q318.9219,23.6563 319.1094,23.5469 Q319.2969,23.4375 319.5156,23.4375 Q319.8906,23.4375 320.125,23.7031 Q320.3594,23.9531 320.3594,24.5625 L320.3594,26.0156 Q320.3594,26.625 320.125,26.8906 Q319.8906,27.1563 319.5156,27.1563 Q319.1719,27.1563 318.9688,26.9531 Q318.7656,26.7656 318.6563,26.25 Q318.6094,25.8906 318.4219,25.7031 Q318.0938,25.3281 317.4844,25.1094 Q316.875,24.8906 316.25,24.8906 Q315.4844,24.8906 314.8438,25.2188 Q314.2188,25.5469 313.7188,26.2969 Q313.2344,27.0469 313.2344,28.0781 L313.2344,29.1719 Q313.2344,30.4063 314.125,31.2344 Q315.0156,32.0469 316.6094,32.0469 Q317.5469,32.0469 318.2031,31.7969 Q318.5938,31.6406 319.0156,31.2031 Q319.2813,30.9375 319.4219,30.8594 Q319.5781,30.7813 319.7813,30.7813 Q320.1094,30.7813 320.3594,31.0469 Q320.625,31.2969 320.625,31.6406 Q320.625,31.9844 320.2813,32.3906 Q319.7813,32.9688 318.9844,33.2969 Q317.9063,33.75 316.6094,33.75 Q315.0938,33.75 313.8906,33.125 Q312.9063,32.625 312.2188,31.5625 Q311.5313,30.4844 311.5313,29.2031 L311.5313,28.0469 Q311.5313,26.7188 312.1406,25.5781 Q312.7656,24.4219 313.8594,23.8125 Q314.9531,23.1875 316.1875,23.1875 Q316.9219,23.1875 317.5625,23.3594 Q318.2188,23.5156 318.7656,23.875 Z " fill="#000000"/><text fill="#000000" font-family="sans-serif" font-size="14" lengthAdjust="spacing" textLength="268" x="336" y="32.8535">ReplyToAgentAboutVisitRequestController</text><line style="stroke:#181818;stroke-width:0.5;" x1="275" x2="633" y1="44" y2="44"/><line style="stroke:#181818;stroke-width:0.5;" x1="275" x2="633" y1="52" y2="52"/><text fill="#000000" font-family="sans-serif" font-size="14" lengthAdjust="spacing" textLength="127" x="280" y="68.6738">+GetVisitRequests()</text><text fill="#000000" font-family="sans-serif" font-size="14" lengthAdjust="spacing" textLength="195" x="280" y="84.3145">+getVisitRequestAgent(Stores)</text><text fill="#000000" font-family="sans-serif" font-size="14" lengthAdjust="spacing" textLength="224" x="280" y="99.9551">+addVisitRequestClientReply(reply)</text><text fill="#000000" font-family="sans-serif" font-size="14" lengthAdjust="spacing" textLength="96" x="280" y="115.5957">+getClientList()</text><text fill="#000000" font-family="sans-serif" font-size="14" lengthAdjust="spacing" textLength="348" x="280" y="131.2363">+createEmail(clientEmail, agentEmail, subject, mesage)</text></g><!--class PropertyDTO--><g id="elem_PropertyDTO"><rect codeLine="22" fill="#F1F1F1" filter="url(#fonpfobfnwdje)" height="79.2813" id="PropertyDTO" rx="2.5" ry="2.5" style="stroke:#181818;stroke-width:0.5;" width="116" x="817" y="758.5"/><ellipse cx="832" cy="774.5" fill="#ADD1B2" rx="11" ry="11" style="stroke:#181818;stroke-width:1.0;"/><path d="M834.7656,770.375 Q834.9219,770.1563 835.1094,770.0469 Q835.2969,769.9375 835.5156,769.9375 Q835.8906,769.9375 836.125,770.2031 Q836.3594,770.4531 836.3594,771.0625 L836.3594,772.5156 Q836.3594,773.125 836.125,773.3906 Q835.8906,773.6563 835.5156,773.6563 Q835.1719,773.6563 834.9688,773.4531 Q834.7656,773.2656 834.6563,772.75 Q834.6094,772.3906 834.4219,772.2031 Q834.0938,771.8281 833.4844,771.6094 Q832.875,771.3906 832.25,771.3906 Q831.4844,771.3906 830.8438,771.7188 Q830.2188,772.0469 829.7188,772.7969 Q829.2344,773.5469 829.2344,774.5781 L829.2344,775.6719 Q829.2344,776.9063 830.125,777.7344 Q831.0156,778.5469 832.6094,778.5469 Q833.5469,778.5469 834.2031,778.2969 Q834.5938,778.1406 835.0156,777.7031 Q835.2813,777.4375 835.4219,777.3594 Q835.5781,777.2813 835.7813,777.2813 Q836.1094,777.2813 836.3594,777.5469 Q836.625,777.7969 836.625,778.1406 Q836.625,778.4844 836.2813,778.8906 Q835.7813,779.4688 834.9844,779.7969 Q833.9063,780.25 832.6094,780.25 Q831.0938,780.25 829.8906,779.625 Q828.9063,779.125 828.2188,778.0625 Q827.5313,776.9844 827.5313,775.7031 L827.5313,774.5469 Q827.5313,773.2188 828.1406,772.0781 Q828.7656,770.9219 829.8594,770.3125 Q830.9531,769.6875 832.1875,769.6875 Q832.9219,769.6875 833.5625,769.8594 Q834.2188,770.0156 834.7656,770.375 Z " fill="#000000"/><text fill="#000000" font-family="sans-serif" font-size="14" lengthAdjust="spacing" textLength="84" x="846" y="779.3535">PropertyDTO</text><line style="stroke:#181818;stroke-width:0.5;" x1="818" x2="932" y1="790.5" y2="790.5"/><text fill="#000000" font-family="sans-serif" font-size="14" lengthAdjust="spacing" textLength="83" x="823" y="807.1738">-double price</text><text fill="#000000" font-family="sans-serif" font-size="14" lengthAdjust="spacing" textLength="81" x="823" y="822.8145">-double area</text><line style="stroke:#181818;stroke-width:0.5;" x1="818" x2="932" y1="829.7813" y2="829.7813"/></g><!--class DateTimeDTO--><g id="elem_DateTimeDTO"><rect codeLine="27" fill="#F1F1F1" filter="url(#fonpfobfnwdje)" height="63.6406" id="DateTimeDTO" rx="2.5" ry="2.5" style="stroke:#181818;stroke-width:0.5;" width="123" x="1090.5" y="532.5"/><ellipse cx="1105.5" cy="548.5" fill="#ADD1B2" rx="11" ry="11" style="stroke:#181818;stroke-width:1.0;"/><path d="M1108.2656,544.375 Q1108.4219,544.1563 1108.6094,544.0469 Q1108.7969,543.9375 1109.0156,543.9375 Q1109.3906,543.9375 1109.625,544.2031 Q1109.8594,544.4531 1109.8594,545.0625 L1109.8594,546.5156 Q1109.8594,547.125 1109.625,547.3906 Q1109.3906,547.6563 1109.0156,547.6563 Q1108.6719,547.6563 1108.4688,547.4531 Q1108.2656,547.2656 1108.1563,546.75 Q1108.1094,546.3906 1107.9219,546.2031 Q1107.5938,545.8281 1106.9844,545.6094 Q1106.375,545.3906 1105.75,545.3906 Q1104.9844,545.3906 1104.3438,545.7188 Q1103.7188,546.0469 1103.2188,546.7969 Q1102.7344,547.5469 1102.7344,548.5781 L1102.7344,549.6719 Q1102.7344,550.9063 1103.625,551.7344 Q1104.5156,552.5469 1106.1094,552.5469 Q1107.0469,552.5469 1107.7031,552.2969 Q1108.0938,552.1406 1108.5156,551.7031 Q1108.7813,551.4375 1108.9219,551.3594 Q1109.0781,551.2813 1109.2813,551.2813 Q1109.6094,551.2813 1109.8594,551.5469 Q1110.125,551.7969 1110.125,552.1406 Q1110.125,552.4844 1109.7813,552.8906 Q1109.2813,553.4688 1108.4844,553.7969 Q1107.4063,554.25 1106.1094,554.25 Q1104.5938,554.25 1103.3906,553.625 Q1102.4063,553.125 1101.7188,552.0625 Q1101.0313,550.9844 1101.0313,549.7031 L1101.0313,548.5469 Q1101.0313,547.2188 1101.6406,546.0781 Q1102.2656,544.9219 1103.3594,544.3125 Q1104.4531,543.6875 1105.6875,543.6875 Q1106.4219,543.6875 1107.0625,543.8594 Q1107.7188,544.0156 1108.2656,544.375 Z " fill="#000000"/><text fill="#000000" font-family="sans-serif" font-size="14" lengthAdjust="spacing" textLength="91" x="1119.5" y="553.3535">DateTimeDTO</text><line style="stroke:#181818;stroke-width:0.5;" x1="1091.5" x2="1212.5" y1="564.5" y2="564.5"/><text fill="#000000" font-family="sans-serif" font-size="14" lengthAdjust="spacing" textLength="95" x="1096.5" y="581.1738">-Calendar date</text><line style="stroke:#181818;stroke-width:0.5;" x1="1091.5" x2="1212.5" y1="588.1406" y2="588.1406"/></g><!--class Repositories--><g id="elem_Repositories"><rect codeLine="32" fill="#F1F1F1" filter="url(#fonpfobfnwdje)" height="110.5625" id="Repositories" rx="2.5" ry="2.5" style="stroke:#181818;stroke-width:0.5;" width="197" x="355.5" y="190"/><ellipse cx="410.25" cy="206" fill="#ADD1B2" rx="11" ry="11" style="stroke:#181818;stroke-width:1.0;"/><path d="M413.0156,201.875 Q413.1719,201.6563 413.3594,201.5469 Q413.5469,201.4375 413.7656,201.4375 Q414.1406,201.4375 414.375,201.7031 Q414.6094,201.9531 414.6094,202.5625 L414.6094,204.0156 Q414.6094,204.625 414.375,204.8906 Q414.1406,205.1563 413.7656,205.1563 Q413.4219,205.1563 413.2188,204.9531 Q413.0156,204.7656 412.9063,204.25 Q412.8594,203.8906 412.6719,203.7031 Q412.3438,203.3281 411.7344,203.1094 Q411.125,202.8906 410.5,202.8906 Q409.7344,202.8906 409.0938,203.2188 Q408.4688,203.5469 407.9688,204.2969 Q407.4844,205.0469 407.4844,206.0781 L407.4844,207.1719 Q407.4844,208.4063 408.375,209.2344 Q409.2656,210.0469 410.8594,210.0469 Q411.7969,210.0469 412.4531,209.7969 Q412.8438,209.6406 413.2656,209.2031 Q413.5313,208.9375 413.6719,208.8594 Q413.8281,208.7813 414.0313,208.7813 Q414.3594,208.7813 414.6094,209.0469 Q414.875,209.2969 414.875,209.6406 Q414.875,209.9844 414.5313,210.3906 Q414.0313,210.9688 413.2344,211.2969 Q412.1563,211.75 410.8594,211.75 Q409.3438,211.75 408.1406,211.125 Q407.1563,210.625 406.4688,209.5625 Q405.7813,208.4844 405.7813,207.2031 L405.7813,206.0469 Q405.7813,204.7188 406.3906,203.5781 Q407.0156,202.4219 408.1094,201.8125 Q409.2031,201.1875 410.4375,201.1875 Q411.1719,201.1875 411.8125,201.3594 Q412.4688,201.5156 413.0156,201.875 Z " fill="#000000"/><text fill="#000000" font-family="sans-serif" font-size="14" lengthAdjust="spacing" textLength="79" x="430.75" y="210.8535">Repositories</text><line style="stroke:#181818;stroke-width:0.5;" x1="356.5" x2="551.5" y1="222" y2="222"/><line style="stroke:#181818;stroke-width:0.5;" x1="356.5" x2="551.5" y1="230" y2="230"/><text fill="#000000" font-family="sans-serif" font-size="14" lengthAdjust="spacing" textLength="94" x="361.5" y="246.6738">-Repositories()</text><text fill="#000000" font-family="sans-serif" font-size="14" lengthAdjust="spacing" textLength="182" x="361.5" y="262.3145">+getInstance() : Repositories</text><text fill="#000000" font-family="sans-serif" font-size="14" lengthAdjust="spacing" textLength="142" x="361.5" y="277.9551">+getClientRepository()</text><text fill="#000000" font-family="sans-serif" font-size="14" lengthAdjust="spacing" textLength="185" x="361.5" y="293.5957">+getVisitRequestRepository()</text></g><!--class ClientRepository--><g id="elem_ClientRepository"><rect codeLine="39" fill="#F1F1F1" filter="url(#fonpfobfnwdje)" height="79.2813" id="ClientRepository" rx="2.5" ry="2.5" style="stroke:#181818;stroke-width:0.5;" width="173" x="192.5" y="346"/><ellipse cx="224.15" cy="362" fill="#ADD1B2" rx="11" ry="11" style="stroke:#181818;stroke-width:1.0;"/><path d="M226.9156,357.875 Q227.0719,357.6563 227.2594,357.5469 Q227.4469,357.4375 227.6656,357.4375 Q228.0406,357.4375 228.275,357.7031 Q228.5094,357.9531 228.5094,358.5625 L228.5094,360.0156 Q228.5094,360.625 228.275,360.8906 Q228.0406,361.1563 227.6656,361.1563 Q227.3219,361.1563 227.1188,360.9531 Q226.9156,360.7656 226.8063,360.25 Q226.7594,359.8906 226.5719,359.7031 Q226.2438,359.3281 225.6344,359.1094 Q225.025,358.8906 224.4,358.8906 Q223.6344,358.8906 222.9938,359.2188 Q222.3688,359.5469 221.8688,360.2969 Q221.3844,361.0469 221.3844,362.0781 L221.3844,363.1719 Q221.3844,364.4063 222.275,365.2344 Q223.1656,366.0469 224.7594,366.0469 Q225.6969,366.0469 226.3531,365.7969 Q226.7438,365.6406 227.1656,365.2031 Q227.4313,364.9375 227.5719,364.8594 Q227.7281,364.7813 227.9313,364.7813 Q228.2594,364.7813 228.5094,365.0469 Q228.775,365.2969 228.775,365.6406 Q228.775,365.9844 228.4313,366.3906 Q227.9313,366.9688 227.1344,367.2969 Q226.0563,367.75 224.7594,367.75 Q223.2438,367.75 222.0406,367.125 Q221.0563,366.625 220.3688,365.5625 Q219.6813,364.4844 219.6813,363.2031 L219.6813,362.0469 Q219.6813,360.7188 220.2906,359.5781 Q220.9156,358.4219 222.0094,357.8125 Q223.1031,357.1875 224.3375,357.1875 Q225.0719,357.1875 225.7125,357.3594 Q226.3688,357.5156 226.9156,357.875 Z " fill="#000000"/><text fill="#000000" font-family="sans-serif" font-size="14" lengthAdjust="spacing" textLength="104" x="241.85" y="366.8535">ClientRepository</text><line style="stroke:#181818;stroke-width:0.5;" x1="193.5" x2="364.5" y1="378" y2="378"/><text fill="#000000" font-family="sans-serif" font-size="14" lengthAdjust="spacing" textLength="161" x="198.5" y="394.6738">-ArrayList &lt;Client&gt; clients</text><line style="stroke:#181818;stroke-width:0.5;" x1="193.5" x2="364.5" y1="401.6406" y2="401.6406"/><text fill="#000000" font-family="sans-serif" font-size="14" lengthAdjust="spacing" textLength="81" x="198.5" y="418.3145">+getClients()</text></g><!--class Client--><g id="elem_Client"><rect codeLine="43" fill="#F1F1F1" filter="url(#fonpfobfnwdje)" height="63.6406" id="Client" rx="2.5" ry="2.5" style="stroke:#181818;stroke-width:0.5;" width="110" x="224" y="532.5"/><ellipse cx="257.9" cy="548.5" fill="#ADD1B2" rx="11" ry="11" style="stroke:#181818;stroke-width:1.0;"/><path d="M260.6656,544.375 Q260.8219,544.1563 261.0094,544.0469 Q261.1969,543.9375 261.4156,543.9375 Q261.7906,543.9375 262.025,544.2031 Q262.2594,544.4531 262.2594,545.0625 L262.2594,546.5156 Q262.2594,547.125 262.025,547.3906 Q261.7906,547.6563 261.4156,547.6563 Q261.0719,547.6563 260.8688,547.4531 Q260.6656,547.2656 260.5563,546.75 Q260.5094,546.3906 260.3219,546.2031 Q259.9938,545.8281 259.3844,545.6094 Q258.775,545.3906 258.15,545.3906 Q257.3844,545.3906 256.7438,545.7188 Q256.1188,546.0469 255.6187,546.7969 Q255.1344,547.5469 255.1344,548.5781 L255.1344,549.6719 Q255.1344,550.9063 256.025,551.7344 Q256.9156,552.5469 258.5094,552.5469 Q259.4469,552.5469 260.1031,552.2969 Q260.4938,552.1406 260.9156,551.7031 Q261.1813,551.4375 261.3219,551.3594 Q261.4781,551.2813 261.6813,551.2813 Q262.0094,551.2813 262.2594,551.5469 Q262.525,551.7969 262.525,552.1406 Q262.525,552.4844 262.1813,552.8906 Q261.6813,553.4688 260.8844,553.7969 Q259.8063,554.25 258.5094,554.25 Q256.9938,554.25 255.7906,553.625 Q254.8062,553.125 254.1187,552.0625 Q253.4312,550.9844 253.4312,549.7031 L253.4312,548.5469 Q253.4312,547.2188 254.0406,546.0781 Q254.6656,544.9219 255.7594,544.3125 Q256.8531,543.6875 258.0875,543.6875 Q258.8219,543.6875 259.4625,543.8594 Q260.1188,544.0156 260.6656,544.375 Z " fill="#000000"/><text fill="#000000" font-family="sans-serif" font-size="14" lengthAdjust="spacing" textLength="36" x="276.1" y="553.3535">Client</text><line style="stroke:#181818;stroke-width:0.5;" x1="225" x2="333" y1="564.5" y2="564.5"/><text fill="#000000" font-family="sans-serif" font-size="14" lengthAdjust="spacing" textLength="98" x="230" y="581.1738">-Person person</text><line style="stroke:#181818;stroke-width:0.5;" x1="225" x2="333" y1="588.1406" y2="588.1406"/></g><!--class Person--><g id="elem_Person"><rect codeLine="47" fill="#F1F1F1" filter="url(#fonpfobfnwdje)" height="141.8438" id="Person" rx="2.5" ry="2.5" style="stroke:#181818;stroke-width:0.5;" width="169" x="194.5" y="727"/><ellipse cx="252.25" cy="743" fill="#ADD1B2" rx="11" ry="11" style="stroke:#181818;stroke-width:1.0;"/><path d="M255.0156,738.875 Q255.1719,738.6563 255.3594,738.5469 Q255.5469,738.4375 255.7656,738.4375 Q256.1406,738.4375 256.375,738.7031 Q256.6094,738.9531 256.6094,739.5625 L256.6094,741.0156 Q256.6094,741.625 256.375,741.8906 Q256.1406,742.1563 255.7656,742.1563 Q255.4219,742.1563 255.2188,741.9531 Q255.0156,741.7656 254.9063,741.25 Q254.8594,740.8906 254.6719,740.7031 Q254.3438,740.3281 253.7344,740.1094 Q253.125,739.8906 252.5,739.8906 Q251.7344,739.8906 251.0938,740.2188 Q250.4688,740.5469 249.9688,741.2969 Q249.4844,742.0469 249.4844,743.0781 L249.4844,744.1719 Q249.4844,745.4063 250.375,746.2344 Q251.2656,747.0469 252.8594,747.0469 Q253.7969,747.0469 254.4531,746.7969 Q254.8438,746.6406 255.2656,746.2031 Q255.5313,745.9375 255.6719,745.8594 Q255.8281,745.7813 256.0313,745.7813 Q256.3594,745.7813 256.6094,746.0469 Q256.875,746.2969 256.875,746.6406 Q256.875,746.9844 256.5313,747.3906 Q256.0313,747.9688 255.2344,748.2969 Q254.1563,748.75 252.8594,748.75 Q251.3438,748.75 250.1406,748.125 Q249.1563,747.625 248.4688,746.5625 Q247.7813,745.4844 247.7813,744.2031 L247.7813,743.0469 Q247.7813,741.7188 248.3906,740.5781 Q249.0156,739.4219 250.1094,738.8125 Q251.2031,738.1875 252.4375,738.1875 Q253.1719,738.1875 253.8125,738.3594 Q254.4688,738.5156 255.0156,738.875 Z " fill="#000000"/><text fill="#000000" font-family="sans-serif" font-size="14" lengthAdjust="spacing" textLength="45" x="272.75" y="747.8535">Person</text><line style="stroke:#181818;stroke-width:0.5;" x1="195.5" x2="362.5" y1="759" y2="759"/><text fill="#000000" font-family="sans-serif" font-size="14" lengthAdjust="spacing" textLength="81" x="200.5" y="775.6738">-String name</text><text fill="#000000" font-family="sans-serif" font-size="14" lengthAdjust="spacing" textLength="79" x="200.5" y="791.3145">-String email</text><text fill="#000000" font-family="sans-serif" font-size="14" lengthAdjust="spacing" textLength="157" x="200.5" y="806.9551">-Integer passportNumber</text><text fill="#000000" font-family="sans-serif" font-size="14" lengthAdjust="spacing" textLength="125" x="200.5" y="822.5957">-long phoneNumber</text><text fill="#000000" font-family="sans-serif" font-size="14" lengthAdjust="spacing" textLength="113" x="200.5" y="838.2363">-String taxNumber</text><text fill="#000000" font-family="sans-serif" font-size="14" lengthAdjust="spacing" textLength="112" x="200.5" y="853.877">-Address address</text><line style="stroke:#181818;stroke-width:0.5;" x1="195.5" x2="362.5" y1="860.8438" y2="860.8438"/></g><!--class VisitRequestRepository--><g id="elem_VisitRequestRepository"><rect codeLine="58" fill="#F1F1F1" filter="url(#fonpfobfnwdje)" height="94.9219" id="VisitRequestRepository" rx="2.5" ry="2.5" style="stroke:#181818;stroke-width:0.5;" width="360" x="384" y="338"/><ellipse cx="486.25" cy="354" fill="#ADD1B2" rx="11" ry="11" style="stroke:#181818;stroke-width:1.0;"/><path d="M489.0156,349.875 Q489.1719,349.6563 489.3594,349.5469 Q489.5469,349.4375 489.7656,349.4375 Q490.1406,349.4375 490.375,349.7031 Q490.6094,349.9531 490.6094,350.5625 L490.6094,352.0156 Q490.6094,352.625 490.375,352.8906 Q490.1406,353.1563 489.7656,353.1563 Q489.4219,353.1563 489.2188,352.9531 Q489.0156,352.7656 488.9063,352.25 Q488.8594,351.8906 488.6719,351.7031 Q488.3438,351.3281 487.7344,351.1094 Q487.125,350.8906 486.5,350.8906 Q485.7344,350.8906 485.0938,351.2188 Q484.4688,351.5469 483.9688,352.2969 Q483.4844,353.0469 483.4844,354.0781 L483.4844,355.1719 Q483.4844,356.4063 484.375,357.2344 Q485.2656,358.0469 486.8594,358.0469 Q487.7969,358.0469 488.4531,357.7969 Q488.8438,357.6406 489.2656,357.2031 Q489.5313,356.9375 489.6719,356.8594 Q489.8281,356.7813 490.0313,356.7813 Q490.3594,356.7813 490.6094,357.0469 Q490.875,357.2969 490.875,357.6406 Q490.875,357.9844 490.5313,358.3906 Q490.0313,358.9688 489.2344,359.2969 Q488.1563,359.75 486.8594,359.75 Q485.3438,359.75 484.1406,359.125 Q483.1563,358.625 482.4688,357.5625 Q481.7813,356.4844 481.7813,355.2031 L481.7813,354.0469 Q481.7813,352.7188 482.3906,351.5781 Q483.0156,350.4219 484.1094,349.8125 Q485.2031,349.1875 486.4375,349.1875 Q487.1719,349.1875 487.8125,349.3594 Q488.4688,349.5156 489.0156,349.875 Z " fill="#000000"/><text fill="#000000" font-family="sans-serif" font-size="14" lengthAdjust="spacing" textLength="147" x="506.75" y="358.8535">VisitRequestRepository</text><line style="stroke:#181818;stroke-width:0.5;" x1="385" x2="743" y1="370" y2="370"/><text fill="#000000" font-family="sans-serif" font-size="14" lengthAdjust="spacing" textLength="241" x="390" y="386.6738">-ArrayList &lt;VisitRequest&gt; visitRequest</text><line style="stroke:#181818;stroke-width:0.5;" x1="385" x2="743" y1="393.6406" y2="393.6406"/><text fill="#000000" font-family="sans-serif" font-size="14" lengthAdjust="spacing" textLength="183" x="390" y="410.3145">+getVisitRequestsAccepted()</text><text fill="#000000" font-family="sans-serif" font-size="14" lengthAdjust="spacing" textLength="348" x="390" y="425.9551">+createEmail(clientEmail, agentEmail, subject, mesage)</text></g><!--class VisitRequest--><g id="elem_VisitRequest"><rect codeLine="65" fill="#F1F1F1" filter="url(#fonpfobfnwdje)" height="204.4063" id="VisitRequest" rx="2.5" ry="2.5" style="stroke:#181818;stroke-width:0.5;" width="360" x="384" y="696"/><ellipse cx="520.25" cy="712" fill="#ADD1B2" rx="11" ry="11" style="stroke:#181818;stroke-width:1.0;"/><path d="M523.0156,707.875 Q523.1719,707.6563 523.3594,707.5469 Q523.5469,707.4375 523.7656,707.4375 Q524.1406,707.4375 524.375,707.7031 Q524.6094,707.9531 524.6094,708.5625 L524.6094,710.0156 Q524.6094,710.625 524.375,710.8906 Q524.1406,711.1563 523.7656,711.1563 Q523.4219,711.1563 523.2188,710.9531 Q523.0156,710.7656 522.9063,710.25 Q522.8594,709.8906 522.6719,709.7031 Q522.3438,709.3281 521.7344,709.1094 Q521.125,708.8906 520.5,708.8906 Q519.7344,708.8906 519.0938,709.2188 Q518.4688,709.5469 517.9688,710.2969 Q517.4844,711.0469 517.4844,712.0781 L517.4844,713.1719 Q517.4844,714.4063 518.375,715.2344 Q519.2656,716.0469 520.8594,716.0469 Q521.7969,716.0469 522.4531,715.7969 Q522.8438,715.6406 523.2656,715.2031 Q523.5313,714.9375 523.6719,714.8594 Q523.8281,714.7813 524.0313,714.7813 Q524.3594,714.7813 524.6094,715.0469 Q524.875,715.2969 524.875,715.6406 Q524.875,715.9844 524.5313,716.3906 Q524.0313,716.9688 523.2344,717.2969 Q522.1563,717.75 520.8594,717.75 Q519.3438,717.75 518.1406,717.125 Q517.1563,716.625 516.4688,715.5625 Q515.7813,714.4844 515.7813,713.2031 L515.7813,712.0469 Q515.7813,710.7188 516.3906,709.5781 Q517.0156,708.4219 518.1094,707.8125 Q519.2031,707.1875 520.4375,707.1875 Q521.1719,707.1875 521.8125,707.3594 Q522.4688,707.5156 523.0156,707.875 Z " fill="#000000"/><text fill="#000000" font-family="sans-serif" font-size="14" lengthAdjust="spacing" textLength="79" x="540.75" y="716.8535">VisitRequest</text><line style="stroke:#181818;stroke-width:0.5;" x1="385" x2="743" y1="728" y2="728"/><text fill="#000000" font-family="sans-serif" font-size="14" lengthAdjust="spacing" textLength="116" x="390" y="744.6738">-Property property</text><text fill="#000000" font-family="sans-serif" font-size="14" lengthAdjust="spacing" textLength="135" x="390" y="760.3145">-String preferredDate</text><text fill="#000000" font-family="sans-serif" font-size="14" lengthAdjust="spacing" textLength="96" x="390" y="775.9551">-String timeSlot</text><text fill="#000000" font-family="sans-serif" font-size="14" lengthAdjust="spacing" textLength="115" x="390" y="791.5957">-String clientName</text><text fill="#000000" font-family="sans-serif" font-size="14" lengthAdjust="spacing" textLength="176" x="390" y="807.2363">-Integer clientPhoneNumber</text><text fill="#000000" font-family="sans-serif" font-size="14" lengthAdjust="spacing" textLength="115" x="390" y="822.877">-String clientReply</text><text fill="#000000" font-family="sans-serif" font-size="14" lengthAdjust="spacing" textLength="82" x="390" y="838.5176">-Agent agent</text><text fill="#000000" font-family="sans-serif" font-size="14" lengthAdjust="spacing" textLength="136" x="390" y="854.1582">-Integer wasAccepted</text><line style="stroke:#181818;stroke-width:0.5;" x1="385" x2="743" y1="861.125" y2="861.125"/><text fill="#000000" font-family="sans-serif" font-size="14" lengthAdjust="spacing" textLength="223" x="390" y="877.7988">+setVisitRequestClientReply (reply)</text><text fill="#000000" font-family="sans-serif" font-size="14" lengthAdjust="spacing" textLength="348" x="390" y="893.4395">+createEmail(clientEmail, agentEmail, subject, mesage)</text></g><!--class VisitRequestMapper--><g id="elem_VisitRequestMapper"><rect codeLine="78" fill="#F1F1F1" filter="url(#fonpfobfnwdje)" height="79.2813" id="VisitRequestMapper" rx="2.5" ry="2.5" style="stroke:#181818;stroke-width:0.5;" width="190" x="469" y="525"/><ellipse cx="497.95" cy="541" fill="#ADD1B2" rx="11" ry="11" style="stroke:#181818;stroke-width:1.0;"/><path d="M500.7156,536.875 Q500.8719,536.6563 501.0594,536.5469 Q501.2469,536.4375 501.4656,536.4375 Q501.8406,536.4375 502.075,536.7031 Q502.3094,536.9531 502.3094,537.5625 L502.3094,539.0156 Q502.3094,539.625 502.075,539.8906 Q501.8406,540.1563 501.4656,540.1563 Q501.1219,540.1563 500.9188,539.9531 Q500.7156,539.7656 500.6063,539.25 Q500.5594,538.8906 500.3719,538.7031 Q500.0438,538.3281 499.4344,538.1094 Q498.825,537.8906 498.2,537.8906 Q497.4344,537.8906 496.7938,538.2188 Q496.1688,538.5469 495.6688,539.2969 Q495.1844,540.0469 495.1844,541.0781 L495.1844,542.1719 Q495.1844,543.4063 496.075,544.2344 Q496.9656,545.0469 498.5594,545.0469 Q499.4969,545.0469 500.1531,544.7969 Q500.5438,544.6406 500.9656,544.2031 Q501.2313,543.9375 501.3719,543.8594 Q501.5281,543.7813 501.7313,543.7813 Q502.0594,543.7813 502.3094,544.0469 Q502.575,544.2969 502.575,544.6406 Q502.575,544.9844 502.2313,545.3906 Q501.7313,545.9688 500.9344,546.2969 Q499.8563,546.75 498.5594,546.75 Q497.0438,546.75 495.8406,546.125 Q494.8563,545.625 494.1688,544.5625 Q493.4813,543.4844 493.4813,542.2031 L493.4813,541.0469 Q493.4813,539.7188 494.0906,538.5781 Q494.7156,537.4219 495.8094,536.8125 Q496.9031,536.1875 498.1375,536.1875 Q498.8719,536.1875 499.5125,536.3594 Q500.1688,536.5156 500.7156,536.875 Z " fill="#000000"/><text fill="#000000" font-family="sans-serif" font-size="14" lengthAdjust="spacing" textLength="127" x="515.05" y="545.8535">VisitRequestMapper</text><line style="stroke:#181818;stroke-width:0.5;" x1="470" x2="658" y1="557" y2="557"/><line style="stroke:#181818;stroke-width:0.5;" x1="470" x2="658" y1="565" y2="565"/><text fill="#000000" font-family="sans-serif" font-size="14" lengthAdjust="spacing" textLength="178" x="475" y="581.6738">+toEntity (VisitRequestDTO)</text><text fill="#000000" font-family="sans-serif" font-size="14" lengthAdjust="spacing" textLength="143" x="475" y="597.3145">+toDTO (VisitRequest)</text></g><!--class VisitRequestDTO--><g id="elem_VisitRequestDTO"><rect codeLine="83" fill="#F1F1F1" filter="url(#fonpfobfnwdje)" height="188.7656" id="VisitRequestDTO" rx="2.5" ry="2.5" style="stroke:#181818;stroke-width:0.5;" width="395" x="677.5" y="470"/><ellipse cx="816.25" cy="486" fill="#ADD1B2" rx="11" ry="11" style="stroke:#181818;stroke-width:1.0;"/><path d="M819.0156,481.875 Q819.1719,481.6563 819.3594,481.5469 Q819.5469,481.4375 819.7656,481.4375 Q820.1406,481.4375 820.375,481.7031 Q820.6094,481.9531 820.6094,482.5625 L820.6094,484.0156 Q820.6094,484.625 820.375,484.8906 Q820.1406,485.1563 819.7656,485.1563 Q819.4219,485.1563 819.2188,484.9531 Q819.0156,484.7656 818.9063,484.25 Q818.8594,483.8906 818.6719,483.7031 Q818.3438,483.3281 817.7344,483.1094 Q817.125,482.8906 816.5,482.8906 Q815.7344,482.8906 815.0938,483.2188 Q814.4688,483.5469 813.9688,484.2969 Q813.4844,485.0469 813.4844,486.0781 L813.4844,487.1719 Q813.4844,488.4063 814.375,489.2344 Q815.2656,490.0469 816.8594,490.0469 Q817.7969,490.0469 818.4531,489.7969 Q818.8438,489.6406 819.2656,489.2031 Q819.5313,488.9375 819.6719,488.8594 Q819.8281,488.7813 820.0313,488.7813 Q820.3594,488.7813 820.6094,489.0469 Q820.875,489.2969 820.875,489.6406 Q820.875,489.9844 820.5313,490.3906 Q820.0313,490.9688 819.2344,491.2969 Q818.1563,491.75 816.8594,491.75 Q815.3438,491.75 814.1406,491.125 Q813.1563,490.625 812.4688,489.5625 Q811.7813,488.4844 811.7813,487.2031 L811.7813,486.0469 Q811.7813,484.7188 812.3906,483.5781 Q813.0156,482.4219 814.1094,481.8125 Q815.2031,481.1875 816.4375,481.1875 Q817.1719,481.1875 817.8125,481.3594 Q818.4688,481.5156 819.0156,481.875 Z " fill="#000000"/><text fill="#000000" font-family="sans-serif" font-size="14" lengthAdjust="spacing" textLength="109" x="836.75" y="490.8535">VisitRequestDTO</text><line style="stroke:#181818;stroke-width:0.5;" x1="678.5" x2="1071.5" y1="502" y2="502"/><text fill="#000000" font-family="sans-serif" font-size="14" lengthAdjust="spacing" textLength="146" x="683.5" y="518.6738">-PropertyDTO property</text><text fill="#000000" font-family="sans-serif" font-size="14" lengthAdjust="spacing" textLength="189" x="683.5" y="534.3145">-DateTimeDTO preferredDate</text><text fill="#000000" font-family="sans-serif" font-size="14" lengthAdjust="spacing" textLength="192" x="683.5" y="549.9551">-ArrayList&lt;DateTime&gt; timeSlot</text><text fill="#000000" font-family="sans-serif" font-size="14" lengthAdjust="spacing" textLength="115" x="683.5" y="565.5957">-String clientName</text><text fill="#000000" font-family="sans-serif" font-size="14" lengthAdjust="spacing" textLength="159" x="683.5" y="581.2363">-long clientPhoneNumber</text><text fill="#000000" font-family="sans-serif" font-size="14" lengthAdjust="spacing" textLength="115" x="683.5" y="596.877">-String clientReply</text><line style="stroke:#181818;stroke-width:0.5;" x1="678.5" x2="1071.5" y1="603.8438" y2="603.8438"/><text fill="#000000" font-family="sans-serif" font-size="14" lengthAdjust="spacing" textLength="267" x="683.5" y="620.5176">+VisitRequestDTO(PropertyDTO property,</text><text fill="#000000" font-family="sans-serif" font-size="14" lengthAdjust="spacing" textLength="383" x="683.5" y="636.1582">DateTimeDTO preferredDate, ArrayList&lt;DateTime&gt; timeSlot,</text><text fill="#000000" font-family="sans-serif" font-size="14" lengthAdjust="spacing" textLength="277" x="683.5" y="651.7988">String clientName, long clientPhoneNumber)</text></g><!--class PropertyTypeDTO--><g id="elem_PropertyTypeDTO"><rect codeLine="93" fill="#F1F1F1" filter="url(#fonpfobfnwdje)" height="63.6406" id="PropertyTypeDTO" rx="2.5" ry="2.5" style="stroke:#181818;stroke-width:0.5;" width="148" x="552" y="1006"/><ellipse cx="567" cy="1022" fill="#ADD1B2" rx="11" ry="11" style="stroke:#181818;stroke-width:1.0;"/><path d="M569.7656,1017.875 Q569.9219,1017.6563 570.1094,1017.5469 Q570.2969,1017.4375 570.5156,1017.4375 Q570.8906,1017.4375 571.125,1017.7031 Q571.3594,1017.9531 571.3594,1018.5625 L571.3594,1020.0156 Q571.3594,1020.625 571.125,1020.8906 Q570.8906,1021.1563 570.5156,1021.1563 Q570.1719,1021.1563 569.9688,1020.9531 Q569.7656,1020.7656 569.6563,1020.25 Q569.6094,1019.8906 569.4219,1019.7031 Q569.0938,1019.3281 568.4844,1019.1094 Q567.875,1018.8906 567.25,1018.8906 Q566.4844,1018.8906 565.8438,1019.2188 Q565.2188,1019.5469 564.7188,1020.2969 Q564.2344,1021.0469 564.2344,1022.0781 L564.2344,1023.1719 Q564.2344,1024.4063 565.125,1025.2344 Q566.0156,1026.0469 567.6094,1026.0469 Q568.5469,1026.0469 569.2031,1025.7969 Q569.5938,1025.6406 570.0156,1025.2031 Q570.2813,1024.9375 570.4219,1024.8594 Q570.5781,1024.7813 570.7813,1024.7813 Q571.1094,1024.7813 571.3594,1025.0469 Q571.625,1025.2969 571.625,1025.6406 Q571.625,1025.9844 571.2813,1026.3906 Q570.7813,1026.9688 569.9844,1027.2969 Q568.9063,1027.75 567.6094,1027.75 Q566.0938,1027.75 564.8906,1027.125 Q563.9063,1026.625 563.2188,1025.5625 Q562.5313,1024.4844 562.5313,1023.2031 L562.5313,1022.0469 Q562.5313,1020.7188 563.1406,1019.5781 Q563.7656,1018.4219 564.8594,1017.8125 Q565.9531,1017.1875 567.1875,1017.1875 Q567.9219,1017.1875 568.5625,1017.3594 Q569.2188,1017.5156 569.7656,1017.875 Z " fill="#000000"/><text fill="#000000" font-family="sans-serif" font-size="14" lengthAdjust="spacing" textLength="116" x="581" y="1026.8535">PropertyTypeDTO</text><line style="stroke:#181818;stroke-width:0.5;" x1="553" x2="699" y1="1038" y2="1038"/><text fill="#000000" font-family="sans-serif" font-size="14" lengthAdjust="spacing" textLength="117" x="558" y="1054.6738">-String Description</text><line style="stroke:#181818;stroke-width:0.5;" x1="553" x2="699" y1="1061.6406" y2="1061.6406"/></g><!--class AddressDTO--><g id="elem_AddressDTO"><rect codeLine="99" fill="#F1F1F1" filter="url(#fonpfobfnwdje)" height="110.5625" id="AddressDTO" rx="2.5" ry="2.5" style="stroke:#181818;stroke-width:0.5;" width="146" x="718" y="982.5"/><ellipse cx="747.4" cy="998.5" fill="#ADD1B2" rx="11" ry="11" style="stroke:#181818;stroke-width:1.0;"/><path d="M750.1656,994.375 Q750.3219,994.1563 750.5094,994.0469 Q750.6969,993.9375 750.9156,993.9375 Q751.2906,993.9375 751.525,994.2031 Q751.7594,994.4531 751.7594,995.0625 L751.7594,996.5156 Q751.7594,997.125 751.525,997.3906 Q751.2906,997.6563 750.9156,997.6563 Q750.5719,997.6563 750.3688,997.4531 Q750.1656,997.2656 750.0563,996.75 Q750.0094,996.3906 749.8219,996.2031 Q749.4938,995.8281 748.8844,995.6094 Q748.275,995.3906 747.65,995.3906 Q746.8844,995.3906 746.2438,995.7188 Q745.6188,996.0469 745.1188,996.7969 Q744.6344,997.5469 744.6344,998.5781 L744.6344,999.6719 Q744.6344,1000.9063 745.525,1001.7344 Q746.4156,1002.5469 748.0094,1002.5469 Q748.9469,1002.5469 749.6031,1002.2969 Q749.9938,1002.1406 750.4156,1001.7031 Q750.6813,1001.4375 750.8219,1001.3594 Q750.9781,1001.2813 751.1813,1001.2813 Q751.5094,1001.2813 751.7594,1001.5469 Q752.025,1001.7969 752.025,1002.1406 Q752.025,1002.4844 751.6813,1002.8906 Q751.1813,1003.4688 750.3844,1003.7969 Q749.3063,1004.25 748.0094,1004.25 Q746.4938,1004.25 745.2906,1003.625 Q744.3063,1003.125 743.6188,1002.0625 Q742.9313,1000.9844 742.9313,999.7031 L742.9313,998.5469 Q742.9313,997.2188 743.5406,996.0781 Q744.1656,994.9219 745.2594,994.3125 Q746.3531,993.6875 747.5875,993.6875 Q748.3219,993.6875 748.9625,993.8594 Q749.6188,994.0156 750.1656,994.375 Z " fill="#000000"/><text fill="#000000" font-family="sans-serif" font-size="14" lengthAdjust="spacing" textLength="82" x="764.6" y="1003.3535">AddressDTO</text><line style="stroke:#181818;stroke-width:0.5;" x1="719" x2="863" y1="1014.5" y2="1014.5"/><text fill="#000000" font-family="sans-serif" font-size="14" lengthAdjust="spacing" textLength="134" x="724" y="1031.1738">-String streetAddress</text><text fill="#000000" font-family="sans-serif" font-size="14" lengthAdjust="spacing" textLength="67" x="724" y="1046.8145">-String city</text><text fill="#000000" font-family="sans-serif" font-size="14" lengthAdjust="spacing" textLength="77" x="724" y="1062.4551">-String state</text><text fill="#000000" font-family="sans-serif" font-size="14" lengthAdjust="spacing" textLength="97" x="724" y="1078.0957">-String zipCode</text><line style="stroke:#181818;stroke-width:0.5;" x1="719" x2="863" y1="1085.0625" y2="1085.0625"/></g><!--class StoreDTO--><g id="elem_StoreDTO"><rect codeLine="107" fill="#F1F1F1" filter="url(#fonpfobfnwdje)" height="126.2031" id="StoreDTO" rx="2.5" ry="2.5" style="stroke:#181818;stroke-width:0.5;" width="154" x="882" y="975"/><ellipse cx="923.1" cy="991" fill="#ADD1B2" rx="11" ry="11" style="stroke:#181818;stroke-width:1.0;"/><path d="M925.8656,986.875 Q926.0219,986.6563 926.2094,986.5469 Q926.3969,986.4375 926.6156,986.4375 Q926.9906,986.4375 927.225,986.7031 Q927.4594,986.9531 927.4594,987.5625 L927.4594,989.0156 Q927.4594,989.625 927.225,989.8906 Q926.9906,990.1563 926.6156,990.1563 Q926.2719,990.1563 926.0688,989.9531 Q925.8656,989.7656 925.7563,989.25 Q925.7094,988.8906 925.5219,988.7031 Q925.1938,988.3281 924.5844,988.1094 Q923.975,987.8906 923.35,987.8906 Q922.5844,987.8906 921.9438,988.2188 Q921.3188,988.5469 920.8188,989.2969 Q920.3344,990.0469 920.3344,991.0781 L920.3344,992.1719 Q920.3344,993.4063 921.225,994.2344 Q922.1156,995.0469 923.7094,995.0469 Q924.6469,995.0469 925.3031,994.7969 Q925.6938,994.6406 926.1156,994.2031 Q926.3813,993.9375 926.5219,993.8594 Q926.6781,993.7813 926.8813,993.7813 Q927.2094,993.7813 927.4594,994.0469 Q927.725,994.2969 927.725,994.6406 Q927.725,994.9844 927.3813,995.3906 Q926.8813,995.9688 926.0844,996.2969 Q925.0063,996.75 923.7094,996.75 Q922.1938,996.75 920.9906,996.125 Q920.0063,995.625 919.3188,994.5625 Q918.6313,993.4844 918.6313,992.2031 L918.6313,991.0469 Q918.6313,989.7188 919.2406,988.5781 Q919.8656,987.4219 920.9594,986.8125 Q922.0531,986.1875 923.2875,986.1875 Q924.0219,986.1875 924.6625,986.3594 Q925.3188,986.5156 925.8656,986.875 Z " fill="#000000"/><text fill="#000000" font-family="sans-serif" font-size="14" lengthAdjust="spacing" textLength="64" x="942.9" y="995.8535">StoreDTO</text><line style="stroke:#181818;stroke-width:0.5;" x1="883" x2="1035" y1="1007" y2="1007"/><text fill="#000000" font-family="sans-serif" font-size="14" lengthAdjust="spacing" textLength="64" x="888" y="1023.6738">-Integer id</text><text fill="#000000" font-family="sans-serif" font-size="14" lengthAdjust="spacing" textLength="119" x="888" y="1039.3145">-String designation</text><text fill="#000000" font-family="sans-serif" font-size="14" lengthAdjust="spacing" textLength="142" x="888" y="1054.9551">-AddressDTO address</text><text fill="#000000" font-family="sans-serif" font-size="14" lengthAdjust="spacing" textLength="79" x="888" y="1070.5957">-String email</text><text fill="#000000" font-family="sans-serif" font-size="14" lengthAdjust="spacing" textLength="125" x="888" y="1086.2363">-long phoneNumber</text><line style="stroke:#181818;stroke-width:0.5;" x1="883" x2="1035" y1="1093.2031" y2="1093.2031"/></g><!--class CLientDTO--><g id="elem_CLientDTO"><rect codeLine="116" fill="#F1F1F1" filter="url(#fonpfobfnwdje)" height="63.6406" id="CLientDTO" rx="2.5" ry="2.5" style="stroke:#181818;stroke-width:0.5;" width="140" x="1054" y="1006"/><ellipse cx="1085.65" cy="1022" fill="#ADD1B2" rx="11" ry="11" style="stroke:#181818;stroke-width:1.0;"/><path d="M1088.4156,1017.875 Q1088.5719,1017.6563 1088.7594,1017.5469 Q1088.9469,1017.4375 1089.1656,1017.4375 Q1089.5406,1017.4375 1089.775,1017.7031 Q1090.0094,1017.9531 1090.0094,1018.5625 L1090.0094,1020.0156 Q1090.0094,1020.625 1089.775,1020.8906 Q1089.5406,1021.1563 1089.1656,1021.1563 Q1088.8219,1021.1563 1088.6188,1020.9531 Q1088.4156,1020.7656 1088.3063,1020.25 Q1088.2594,1019.8906 1088.0719,1019.7031 Q1087.7438,1019.3281 1087.1344,1019.1094 Q1086.525,1018.8906 1085.9,1018.8906 Q1085.1344,1018.8906 1084.4938,1019.2188 Q1083.8688,1019.5469 1083.3688,1020.2969 Q1082.8844,1021.0469 1082.8844,1022.0781 L1082.8844,1023.1719 Q1082.8844,1024.4063 1083.775,1025.2344 Q1084.6656,1026.0469 1086.2594,1026.0469 Q1087.1969,1026.0469 1087.8531,1025.7969 Q1088.2438,1025.6406 1088.6656,1025.2031 Q1088.9313,1024.9375 1089.0719,1024.8594 Q1089.2281,1024.7813 1089.4313,1024.7813 Q1089.7594,1024.7813 1090.0094,1025.0469 Q1090.275,1025.2969 1090.275,1025.6406 Q1090.275,1025.9844 1089.9313,1026.3906 Q1089.4313,1026.9688 1088.6344,1027.2969 Q1087.5563,1027.75 1086.2594,1027.75 Q1084.7438,1027.75 1083.5406,1027.125 Q1082.5563,1026.625 1081.8688,1025.5625 Q1081.1813,1024.4844 1081.1813,1023.2031 L1081.1813,1022.0469 Q1081.1813,1020.7188 1081.7906,1019.5781 Q1082.4156,1018.4219 1083.5094,1017.8125 Q1084.6031,1017.1875 1085.8375,1017.1875 Q1086.5719,1017.1875 1087.2125,1017.3594 Q1087.8688,1017.5156 1088.4156,1017.875 Z " fill="#000000"/><text fill="#000000" font-family="sans-serif" font-size="14" lengthAdjust="spacing" textLength="71" x="1103.35" y="1026.8535">CLientDTO</text><line style="stroke:#181818;stroke-width:0.5;" x1="1055" x2="1193" y1="1038" y2="1038"/><text fill="#000000" font-family="sans-serif" font-size="14" lengthAdjust="spacing" textLength="128" x="1060" y="1054.6738">-PersonDTO person</text><line style="stroke:#181818;stroke-width:0.5;" x1="1055" x2="1193" y1="1061.6406" y2="1061.6406"/></g><!--class PersonDTO--><g id="elem_PersonDTO"><rect codeLine="120" fill="#F1F1F1" filter="url(#fonpfobfnwdje)" height="141.8438" id="PersonDTO" rx="2.5" ry="2.5" style="stroke:#181818;stroke-width:0.5;" width="169" x="1039.5" y="1138"/><ellipse cx="1082.4" cy="1154" fill="#ADD1B2" rx="11" ry="11" style="stroke:#181818;stroke-width:1.0;"/><path d="M1085.1656,1149.875 Q1085.3219,1149.6563 1085.5094,1149.5469 Q1085.6969,1149.4375 1085.9156,1149.4375 Q1086.2906,1149.4375 1086.525,1149.7031 Q1086.7594,1149.9531 1086.7594,1150.5625 L1086.7594,1152.0156 Q1086.7594,1152.625 1086.525,1152.8906 Q1086.2906,1153.1563 1085.9156,1153.1563 Q1085.5719,1153.1563 1085.3688,1152.9531 Q1085.1656,1152.7656 1085.0563,1152.25 Q1085.0094,1151.8906 1084.8219,1151.7031 Q1084.4938,1151.3281 1083.8844,1151.1094 Q1083.275,1150.8906 1082.65,1150.8906 Q1081.8844,1150.8906 1081.2438,1151.2188 Q1080.6188,1151.5469 1080.1188,1152.2969 Q1079.6344,1153.0469 1079.6344,1154.0781 L1079.6344,1155.1719 Q1079.6344,1156.4063 1080.525,1157.2344 Q1081.4156,1158.0469 1083.0094,1158.0469 Q1083.9469,1158.0469 1084.6031,1157.7969 Q1084.9938,1157.6406 1085.4156,1157.2031 Q1085.6813,1156.9375 1085.8219,1156.8594 Q1085.9781,1156.7813 1086.1813,1156.7813 Q1086.5094,1156.7813 1086.7594,1157.0469 Q1087.025,1157.2969 1087.025,1157.6406 Q1087.025,1157.9844 1086.6813,1158.3906 Q1086.1813,1158.9688 1085.3844,1159.2969 Q1084.3063,1159.75 1083.0094,1159.75 Q1081.4938,1159.75 1080.2906,1159.125 Q1079.3063,1158.625 1078.6188,1157.5625 Q1077.9313,1156.4844 1077.9313,1155.2031 L1077.9313,1154.0469 Q1077.9313,1152.7188 1078.5406,1151.5781 Q1079.1656,1150.4219 1080.2594,1149.8125 Q1081.3531,1149.1875 1082.5875,1149.1875 Q1083.3219,1149.1875 1083.9625,1149.3594 Q1084.6188,1149.5156 1085.1656,1149.875 Z " fill="#000000"/><text fill="#000000" font-family="sans-serif" font-size="14" lengthAdjust="spacing" textLength="75" x="1102.6" y="1158.8535">PersonDTO</text><line style="stroke:#181818;stroke-width:0.5;" x1="1040.5" x2="1207.5" y1="1170" y2="1170"/><text fill="#000000" font-family="sans-serif" font-size="14" lengthAdjust="spacing" textLength="79" x="1045.5" y="1186.6738">-String email</text><text fill="#000000" font-family="sans-serif" font-size="14" lengthAdjust="spacing" textLength="81" x="1045.5" y="1202.3145">-String name</text><text fill="#000000" font-family="sans-serif" font-size="14" lengthAdjust="spacing" textLength="157" x="1045.5" y="1217.9551">-Integer passportNumber</text><text fill="#000000" font-family="sans-serif" font-size="14" lengthAdjust="spacing" textLength="125" x="1045.5" y="1233.5957">-long phoneNumber</text><text fill="#000000" font-family="sans-serif" font-size="14" lengthAdjust="spacing" textLength="113" x="1045.5" y="1249.2363">-String taxNumber</text><text fill="#000000" font-family="sans-serif" font-size="14" lengthAdjust="spacing" textLength="142" x="1045.5" y="1264.877">-AddressDTO address</text><line style="stroke:#181818;stroke-width:0.5;" x1="1040.5" x2="1207.5" y1="1271.8438" y2="1271.8438"/></g><path d="M552.5908,233.8277 C563.4735,236.0448 570.5,239.9355 570.5,245.5 C570.5,251.0645 563.4735,254.9552 552.5908,257.1723 " fill="none" style="stroke:#181818;stroke-width:1.0;"/><polygon fill="#181818" points="552.5908,257.1723,562.2081,259.2952,557.4901,256.1742,560.6111,251.4562,552.5908,257.1723" style="stroke:#181818;stroke-width:1.0;"/><text fill="#000000" font-family="sans-serif" font-size="13" lengthAdjust="spacing" textLength="49" x="571.5" y="250.2686">instance</text><path d="M256.2256,75 C262.1485,75 268.0714,75 273.9944,75 " fill="none" style="stroke:#181818;stroke-width:1.0;stroke-dasharray:7.0,7.0;"/><polygon fill="#181818" points="273.9944,75,264.9944,71,268.9944,75,264.9944,79,273.9944,75" style="stroke:#181818;stroke-width:1.0;"/><path d="M454,138.2644 C454,155.233 454,173.4808 454,189.9829 " fill="none" style="stroke:#181818;stroke-width:1.0;stroke-dasharray:7.0,7.0;"/><polygon fill="#181818" points="454,189.9829,458,180.9829,454,184.9829,450,180.9829,454,189.9829" style="stroke:#181818;stroke-width:1.0;"/><text fill="#000000" font-family="sans-serif" font-size="13" lengthAdjust="spacing" textLength="67" x="455" y="168.7686">repositories</text><path d="M497.4749,301.0413 C507.2034,313.2461 517.4356,326.0829 526.8788,337.9298 " fill="none" style="stroke:#181818;stroke-width:1.0;"/><polygon fill="#181818" points="526.8788,337.9298,524.3969,328.3988,523.7623,334.0199,518.1411,333.3853,526.8788,337.9298" style="stroke:#181818;stroke-width:1.0;"/><text fill="#000000" font-family="sans-serif" font-size="13" lengthAdjust="spacing" textLength="7" x="518.8788" y="334.6984">1</text><path d="M384.8354,301.0413 C365.8233,316.0336 345.602,331.9796 327.9836,345.8729 " fill="none" style="stroke:#181818;stroke-width:1.0;"/><polygon fill="#181818" points="327.9836,345.8729,337.5275,343.441,331.9097,342.7769,332.5738,337.1592,327.9836,345.8729" style="stroke:#181818;stroke-width:1.0;"/><text fill="#000000" font-family="sans-serif" font-size="13" lengthAdjust="spacing" textLength="7" x="319.9836" y="342.6415">1</text><path d="M279,425.3434 C279,457.5006 279,502.5904 279,532.3998 " fill="none" style="stroke:#181818;stroke-width:1.0;"/><polygon fill="#181818" points="279,532.3998,283,523.3998,279,527.3998,275,523.3998,279,532.3998" style="stroke:#181818;stroke-width:1.0;"/><text fill="#000000" font-family="sans-serif" font-size="13" lengthAdjust="spacing" textLength="7" x="271" y="529.1684">1</text><path d="M279,596.7211 C279,629.9203 279,683.5185 279,726.9166 " fill="none" style="stroke:#181818;stroke-width:1.0;"/><polygon fill="#181818" points="279,726.9166,283,717.9166,279,721.9166,275,717.9166,279,726.9166" style="stroke:#181818;stroke-width:1.0;"/><text fill="#000000" font-family="sans-serif" font-size="13" lengthAdjust="spacing" textLength="7" x="271" y="723.6851">1</text><path d="M564,433.0047 C564,461.5815 564,497.7633 564,524.7763 " fill="none" style="stroke:#181818;stroke-width:1.0;"/><polygon fill="#181818" points="564,524.7763,568,515.7763,564,519.7763,560,515.7763,564,524.7763" style="stroke:#181818;stroke-width:1.0;"/><text fill="#000000" font-family="sans-serif" font-size="13" lengthAdjust="spacing" textLength="7" x="556" y="521.5448">1</text><text fill="#000000" font-family="sans-serif" font-size="13" lengthAdjust="spacing" textLength="7" x="556" y="445.7732">1</text><path d="M564,604.2479 C564,629.3474 564,663.2876 564,695.6936 " fill="none" style="stroke:#181818;stroke-width:1.0;"/><polygon fill="#181818" points="564,695.6936,568,686.6936,564,690.6936,560,686.6936,564,695.6936" style="stroke:#181818;stroke-width:1.0;"/><text fill="#000000" font-family="sans-serif" font-size="13" lengthAdjust="spacing" textLength="7" x="556" y="692.4621">1</text><text fill="#000000" font-family="sans-serif" font-size="13" lengthAdjust="spacing" textLength="7" x="556" y="617.0164">1</text><path d="M659.0615,564.5 C665.1067,564.5 671.1518,564.5 677.197,564.5 " fill="none" style="stroke:#181818;stroke-width:1.0;"/><polygon fill="#181818" points="677.197,564.5,668.197,560.5,672.197,564.5,668.197,568.5,677.197,564.5" style="stroke:#181818;stroke-width:1.0;"/><text fill="#000000" font-family="sans-serif" font-size="13" lengthAdjust="spacing" textLength="7" x="669.197" y="561.2686">1</text><text fill="#000000" font-family="sans-serif" font-size="13" lengthAdjust="spacing" textLength="7" x="660.0615" y="561.2686">1</text><path d="M875,659.3262 C875,693.9185 875,731.2224 875,758.2623 " fill="none" style="stroke:#181818;stroke-width:1.0;"/><polygon fill="#181818" points="875,758.2623,879,749.2623,875,753.2623,871,749.2623,875,758.2623" style="stroke:#181818;stroke-width:1.0;"/><text fill="#000000" font-family="sans-serif" font-size="13" lengthAdjust="spacing" textLength="7" x="867" y="755.0308">1</text><text fill="#000000" font-family="sans-serif" font-size="13" lengthAdjust="spacing" textLength="7" x="867" y="672.0947">1</text><path d="M1072.7412,564.5 C1078.6237,564.5 1084.5062,564.5 1090.3887,564.5 " fill="none" style="stroke:#181818;stroke-width:1.0;"/><polygon fill="#181818" points="1090.3887,564.5,1081.3887,560.5,1085.3887,564.5,1081.3887,568.5,1090.3887,564.5" style="stroke:#181818;stroke-width:1.0;"/><text fill="#000000" font-family="sans-serif" font-size="13" lengthAdjust="spacing" textLength="7" x="1082.3887" y="561.2686">1</text><text fill="#000000" font-family="sans-serif" font-size="13" lengthAdjust="spacing" textLength="7" x="1073.7412" y="561.2686">1</text><path d="M888.5894,837.5033 C901.6836,874.6035 921.7135,931.3548 937.0667,974.8556 " fill="none" style="stroke:#181818;stroke-width:1.0;"/><polygon fill="#181818" points="937.0667,974.8556,937.8433,965.0374,935.4026,970.1407,930.2993,967.7,937.0667,974.8556" style="stroke:#181818;stroke-width:1.0;"/><text fill="#000000" font-family="sans-serif" font-size="13" lengthAdjust="spacing" textLength="7" x="929.0667" y="971.6242">1</text><text fill="#000000" font-family="sans-serif" font-size="13" lengthAdjust="spacing" textLength="7" x="880.5894" y="850.2719">1</text><path d="M861.4106,837.5033 C847.5735,876.7085 825.9913,937.8579 810.3673,982.126 " fill="none" style="stroke:#181818;stroke-width:1.0;"/><polygon fill="#181818" points="810.3673,982.126,817.1346,974.9704,812.0314,977.4111,809.5907,972.3078,810.3673,982.126" style="stroke:#181818;stroke-width:1.0;"/><text fill="#000000" font-family="sans-serif" font-size="13" lengthAdjust="spacing" textLength="7" x="802.3673" y="978.8946">1</text><text fill="#000000" font-family="sans-serif" font-size="13" lengthAdjust="spacing" textLength="7" x="853.4106" y="850.2719">1</text><path d="M915.2829,837.5033 C964.2832,884.339 1046.0487,962.4924 1091.3257,1005.7691 " fill="none" style="stroke:#181818;stroke-width:1.0;"/><polygon fill="#181818" points="1091.3257,1005.7691,1087.5835,996.6589,1087.7112,1002.3143,1082.0558,1002.4421,1091.3257,1005.7691" style="stroke:#181818;stroke-width:1.0;"/><text fill="#000000" font-family="sans-serif" font-size="13" lengthAdjust="spacing" textLength="7" x="1083.3257" y="1002.5377">1</text><text fill="#000000" font-family="sans-serif" font-size="13" lengthAdjust="spacing" textLength="7" x="907.2829" y="850.2719">1</text><path d="M1124,1070.3915 C1124,1089.3873 1124,1114.4048 1124,1137.8934 " fill="none" style="stroke:#181818;stroke-width:1.0;"/><polygon fill="#181818" points="1124,1137.8934,1128,1128.8934,1124,1132.8934,1120,1128.8934,1124,1137.8934" style="stroke:#181818;stroke-width:1.0;"/><path d="M834.7171,837.5033 C785.7168,884.339 703.9513,962.4924 658.6743,1005.7691 " fill="none" style="stroke:#181818;stroke-width:1.0;"/><polygon fill="#181818" points="658.6743,1005.7691,667.9442,1002.4421,662.2888,1002.3143,662.4165,996.6589,658.6743,1005.7691" style="stroke:#181818;stroke-width:1.0;"/><text fill="#000000" font-family="sans-serif" font-size="13" lengthAdjust="spacing" textLength="7" x="650.6743" y="1002.5377">1</text><text fill="#000000" font-family="sans-serif" font-size="13" lengthAdjust="spacing" textLength="7" x="826.7171" y="850.2719">1</text><!--SRC=[fLPBRzim3BxhLsYzD4MJOhiMHO0WBOO0NLSqsKwxA3RhQBKbJrBMfSF- -sZ9iYK_icxheR79ZnJvyI6VwYSkIgPOGGifPB9JiW1gr1v8gobPyiGoM9j33bH1OfZ8yX2WTooLprnaNSkS2p274gXKPYV7BTwKYcK5epaxoBsXkW0yWv708CcPrWjZ5D_k3QmIATRy1UXRGavpU3JKIAfujZCqvLM4N0f2h0sb3r3cXurSP23COel-FtFDpGDysuCsdrRq9_dbiKUXIocCadaE2aqe_ftJzn0XzEIiLcInmZgSh8rKe3s4fMdaFUU8iG5CLFK_SELqjroRve140JDmKp2UJnAhjizJohBsMU-tNv6CAIr0e_mC4tLvtYjPWZA7wyr7J6MMolqMIrigda3xol08qfXSut4RNe0rcIrP3Y9bYgOe9X614dEIYeEkMPf5mf2XbT1OvWGcP_Go0dKpRtI7CO8ZH1DDrze7j52A7IewwPM3pAdZi7UodhIaEOdtSGzAIq5B-zCUMOizQeqDYqqkM06n1AeArQALC91XLvNeeCH9kTiNMr2rCfU8BdTIG2IktHZs8n8lqXHRJ5VDLVrMSVd8XkaQe2G4pkdtu6sOUxr84YWDfF_Pd2s9eVU6xxfbiKlTGqn4gU0Hb8AqwjCEHzYrwroQMEhYkciBuwlW5FTZZ2Vjd7hgggHSQXrNpwpXfcP6nzG5Gq_ZgV_N-HvWy0ChaJ2_ieoy4OOZZvCGWrDzrW3m9TQEEAvmtV9Kiaw5WiqnMAQczQuySlxQcjdX-Ck2dNTpc0p5FlqYHkEU7WqPBNlXJaSY3OZrGMpmkdGxjlPo3JfHl7HNMhkFwqbt6xpDLXi5O6fbg4YuBKW0T1Le12-yNCeKxCfmHzZxgZd0DpLFGwiKDCy4iz452wZYZFM3y5jlOAsrcIrlAvRgSzjLQyimk6qzjBzSUmlusB8TthN3gtOmKRjiING5pcRp-4wyfBo-zIpow8V9nVor7oH_y1LykLpq0rBXpTiF_-JToSZTqGTNsEwbIqXNqhXr2WzenAwgIENmiHOp59bRTB6PausQZ8FxM2nr3Azg7peEziW8qE62nKB2tUDyrI0_V6GSqhRW4L0pJKYpVxGHDxDpnBYpb0Zv3G00]--></g></svg>