<?xml version="1.0" encoding="us-ascii" standalone="no"?><svg xmlns="http://www.w3.org/2000/svg" xmlns:xlink="http://www.w3.org/1999/xlink" contentStyleType="text/css" height="2036px" preserveAspectRatio="none" style="width:2297px;height:2036px;background:#FFFFFF;" version="1.1" viewBox="0 0 2297 2036" width="2297px" zoomAndPan="magnify"><defs/><g><rect fill="#FFFFFF" height="1855.5234" style="stroke:#181818;stroke-width:1.0;" width="10" x="44" y="90.6406"/><rect fill="#FFFFFF" height="338.875" style="stroke:#181818;stroke-width:1.0;" width="10" x="705" y="111.1641"/><rect fill="#FFFFFF" height="552.4219" style="stroke:#181818;stroke-width:1.0;" width="10" x="705" y="478.5625"/><rect fill="#FFFFFF" height="381.2813" style="stroke:#181818;stroke-width:1.0;" width="10" x="705" y="1059.5078"/><rect fill="#FFFFFF" height="28.5234" style="stroke:#181818;stroke-width:1.0;" width="10" x="705" y="1492.8359"/><rect fill="#FFFFFF" height="381.2813" style="stroke:#181818;stroke-width:1.0;" width="10" x="705" y="1549.8828"/><rect fill="#FFFFFF" height="241.1875" style="stroke:#181818;stroke-width:1.0;" width="10" x="1168" y="180.3281"/><rect fill="#FFFFFF" height="241.1875" style="stroke:#181818;stroke-width:1.0;" width="10" x="1168" y="548.6094"/><rect fill="#FFFFFF" height="177.1406" style="stroke:#181818;stroke-width:1.0;" width="10" x="1168" y="818.3203"/><rect fill="#FFFFFF" height="282.7109" style="stroke:#181818;stroke-width:1.0;" width="10" x="1168" y="1129.5547"/><rect fill="#FFFFFF" height="282.7109" style="stroke:#181818;stroke-width:1.0;" width="10" x="1168" y="1619.9297"/><rect fill="#FFFFFF" height="28.5234" style="stroke:#181818;stroke-width:1.0;" width="10" x="1369.5" y="208.8516"/><rect fill="#FFFFFF" height="28.5234" style="stroke:#181818;stroke-width:1.0;" width="10" x="1369.5" y="577.1328"/><rect fill="#FFFFFF" height="28.5234" style="stroke:#181818;stroke-width:1.0;" width="10" x="1369.5" y="846.8438"/><rect fill="#FFFFFF" height="28.5234" style="stroke:#181818;stroke-width:1.0;" width="10" x="1369.5" y="1158.0781"/><rect fill="#FFFFFF" height="28.5234" style="stroke:#181818;stroke-width:1.0;" width="10" x="1369.5" y="1648.4531"/><rect fill="#FFFFFF" height="28.5234" style="stroke:#181818;stroke-width:1.0;" width="10" x="1476.5" y="265.8984"/><rect fill="#FFFFFF" height="28.5234" style="stroke:#181818;stroke-width:1.0;" width="10" x="1476.5" y="634.1797"/><rect fill="#FFFFFF" height="28.5234" style="stroke:#181818;stroke-width:1.0;" width="10" x="1476.5" y="903.8906"/><rect fill="#FFFFFF" height="28.5234" style="stroke:#181818;stroke-width:1.0;" width="10" x="1476.5" y="1215.125"/><rect fill="#FFFFFF" height="28.5234" style="stroke:#181818;stroke-width:1.0;" width="10" x="1476.5" y="1705.5"/><rect fill="#FFFFFF" height="70.0469" style="stroke:#181818;stroke-width:1.0;" width="10" x="1850" y="322.9453"/><rect fill="#FFFFFF" height="70.0469" style="stroke:#181818;stroke-width:1.0;" width="10" x="1850" y="960.9375"/><rect fill="#FFFFFF" height="111.5703" style="stroke:#181818;stroke-width:1.0;" width="10" x="1850" y="1272.1719"/><rect fill="#FFFFFF" height="111.5703" style="stroke:#181818;stroke-width:1.0;" width="10" x="1850" y="1762.5469"/><rect fill="#FFFFFF" height="70.0469" style="stroke:#181818;stroke-width:1.0;" width="10" x="2171" y="691.2266"/><rect fill="none" height="483.375" style="stroke:#000000;stroke-width:1.5;" width="2031" x="10" y="1455.7891"/><line style="stroke:#181818;stroke-width:0.5;stroke-dasharray:5.0,5.0;" x1="49" x2="49" y1="80.6406" y2="1956.1641"/><line style="stroke:#181818;stroke-width:0.5;stroke-dasharray:5.0,5.0;" x1="710" x2="710" y1="80.6406" y2="1956.1641"/><line style="stroke:#181818;stroke-width:0.5;stroke-dasharray:5.0,5.0;" x1="1173" x2="1173" y1="149.4844" y2="1956.1641"/><line style="stroke:#181818;stroke-width:0.5;stroke-dasharray:5.0,5.0;" x1="1374" x2="1374" y1="80.6406" y2="1956.1641"/><line style="stroke:#181818;stroke-width:0.5;stroke-dasharray:5.0,5.0;" x1="1481" x2="1481" y1="80.6406" y2="1956.1641"/><line style="stroke:#181818;stroke-width:0.5;stroke-dasharray:5.0,5.0;" x1="1613" x2="1613" y1="80.6406" y2="1956.1641"/><line style="stroke:#181818;stroke-width:0.5;stroke-dasharray:5.0,5.0;" x1="1855" x2="1855" y1="80.6406" y2="1956.1641"/><line style="stroke:#181818;stroke-width:0.5;stroke-dasharray:5.0,5.0;" x1="2176" x2="2176" y1="80.6406" y2="1956.1641"/><text fill="#000000" font-family="sans-serif" font-size="14" lengthAdjust="spacing" textLength="52" x="20" y="77.6738">Client UI</text><ellipse cx="49" cy="13.5" fill="#E3E3E3" rx="8" ry="8" style="stroke:#181818;stroke-width:0.5;"/><path d="M49,21.5 L49,48.5 M36,29.5 L62,29.5 M49,48.5 L36,63.5 M49,48.5 L62,63.5 " fill="none" style="stroke:#181818;stroke-width:0.5;"/><text fill="#000000" font-family="sans-serif" font-size="14" lengthAdjust="spacing" textLength="52" x="20" y="1967.8379">Client UI</text><ellipse cx="49" cy="1979.3047" fill="#E3E3E3" rx="8" ry="8" style="stroke:#181818;stroke-width:0.5;"/><path d="M49,1987.3047 L49,2014.3047 M36,1995.3047 L62,1995.3047 M49,2014.3047 L36,2029.3047 M49,2014.3047 L62,2029.3047 " fill="none" style="stroke:#181818;stroke-width:0.5;"/><rect fill="#E3E3E3" height="29.6406" rx="2.5" ry="2.5" style="stroke:#181818;stroke-width:0.5;" width="236" x="592" y="50"/><text fill="#000000" font-family="sans-serif" font-size="14" lengthAdjust="spacing" textLength="222" x="599" y="69.6738">:ReplyToAgentAboutVisitRequestUI</text><rect fill="#E3E3E3" height="29.6406" rx="2.5" ry="2.5" style="stroke:#181818;stroke-width:0.5;" width="236" x="592" y="1955.1641"/><text fill="#000000" font-family="sans-serif" font-size="14" lengthAdjust="spacing" textLength="222" x="599" y="1974.8379">:ReplyToAgentAboutVisitRequestUI</text><rect fill="#E3E3E3" height="29.6406" rx="2.5" ry="2.5" style="stroke:#181818;stroke-width:0.5;" width="286" x="1030" y="1955.1641"/><text fill="#000000" font-family="sans-serif" font-size="14" lengthAdjust="spacing" textLength="272" x="1037" y="1974.8379">:ReplyToAgentAboutVisitRequestController</text><rect fill="#E3E3E3" height="29.6406" rx="2.5" ry="2.5" style="stroke:#181818;stroke-width:0.5;" width="97" x="1326" y="50"/><text fill="#000000" font-family="sans-serif" font-size="14" lengthAdjust="spacing" textLength="83" x="1333" y="69.6738">:Repositories</text><rect fill="#E3E3E3" height="29.6406" rx="2.5" ry="2.5" style="stroke:#181818;stroke-width:0.5;" width="97" x="1326" y="1955.1641"/><text fill="#000000" font-family="sans-serif" font-size="14" lengthAdjust="spacing" textLength="83" x="1333" y="1974.8379">:Repositories</text><rect fill="#E3E3E3" height="45.2813" rx="2.5" ry="2.5" style="stroke:#181818;stroke-width:0.5;" width="97" x="1433" y="34.3594"/><text fill="#000000" font-family="sans-serif" font-size="14" lengthAdjust="spacing" textLength="79" x="1442" y="54.0332">Repositories</text><text fill="#000000" font-family="sans-serif" font-size="14" lengthAdjust="spacing" textLength="83" x="1440" y="69.6738">:Repositories</text><rect fill="#E3E3E3" height="45.2813" rx="2.5" ry="2.5" style="stroke:#181818;stroke-width:0.5;" width="97" x="1433" y="1955.1641"/><text fill="#000000" font-family="sans-serif" font-size="14" lengthAdjust="spacing" textLength="79" x="1442" y="1974.8379">Repositories</text><text fill="#000000" font-family="sans-serif" font-size="14" lengthAdjust="spacing" textLength="83" x="1440" y="1990.4785">:Repositories</text><rect fill="#E3E3E3" height="45.2813" rx="2.5" ry="2.5" style="stroke:#181818;stroke-width:0.5;" width="147" x="1540" y="34.3594"/><text fill="#000000" font-family="sans-serif" font-size="14" lengthAdjust="spacing" textLength="133" x="1547" y="54.0332">employeeRepository:</text><text fill="#000000" font-family="sans-serif" font-size="14" lengthAdjust="spacing" textLength="130" x="1548.5" y="69.6738">EmployeeRepository</text><rect fill="#E3E3E3" height="45.2813" rx="2.5" ry="2.5" style="stroke:#181818;stroke-width:0.5;" width="147" x="1540" y="1955.1641"/><text fill="#000000" font-family="sans-serif" font-size="14" lengthAdjust="spacing" textLength="133" x="1547" y="1974.8379">employeeRepository:</text><text fill="#000000" font-family="sans-serif" font-size="14" lengthAdjust="spacing" textLength="130" x="1548.5" y="1990.4785">EmployeeRepository</text><rect fill="#E3E3E3" height="29.6406" rx="2.5" ry="2.5" style="stroke:#181818;stroke-width:0.5;" width="316" x="1697" y="50"/><text fill="#000000" font-family="sans-serif" font-size="14" lengthAdjust="spacing" textLength="302" x="1704" y="69.6738">VisitRequestRepository:\VisitRequestRepository</text><rect fill="#E3E3E3" height="29.6406" rx="2.5" ry="2.5" style="stroke:#181818;stroke-width:0.5;" width="316" x="1697" y="1955.1641"/><text fill="#000000" font-family="sans-serif" font-size="14" lengthAdjust="spacing" textLength="302" x="1704" y="1974.8379">VisitRequestRepository:\VisitRequestRepository</text><rect fill="#E3E3E3" height="29.6406" rx="2.5" ry="2.5" style="stroke:#181818;stroke-width:0.5;" width="230" x="2061" y="50"/><text fill="#000000" font-family="sans-serif" font-size="14" lengthAdjust="spacing" textLength="216" x="2068" y="69.6738">ClientRepository:\ClientRepository</text><rect fill="#E3E3E3" height="29.6406" rx="2.5" ry="2.5" style="stroke:#181818;stroke-width:0.5;" width="230" x="2061" y="1955.1641"/><text fill="#000000" font-family="sans-serif" font-size="14" lengthAdjust="spacing" textLength="216" x="2068" y="1974.8379">ClientRepository:\ClientRepository</text><rect fill="#FFFFFF" height="1855.5234" style="stroke:#181818;stroke-width:1.0;" width="10" x="44" y="90.6406"/><rect fill="#FFFFFF" height="338.875" style="stroke:#181818;stroke-width:1.0;" width="10" x="705" y="111.1641"/><rect fill="#FFFFFF" height="552.4219" style="stroke:#181818;stroke-width:1.0;" width="10" x="705" y="478.5625"/><rect fill="#FFFFFF" height="381.2813" style="stroke:#181818;stroke-width:1.0;" width="10" x="705" y="1059.5078"/><rect fill="#FFFFFF" height="28.5234" style="stroke:#181818;stroke-width:1.0;" width="10" x="705" y="1492.8359"/><rect fill="#FFFFFF" height="381.2813" style="stroke:#181818;stroke-width:1.0;" width="10" x="705" y="1549.8828"/><rect fill="#FFFFFF" height="241.1875" style="stroke:#181818;stroke-width:1.0;" width="10" x="1168" y="180.3281"/><rect fill="#FFFFFF" height="241.1875" style="stroke:#181818;stroke-width:1.0;" width="10" x="1168" y="548.6094"/><rect fill="#FFFFFF" height="177.1406" style="stroke:#181818;stroke-width:1.0;" width="10" x="1168" y="818.3203"/><rect fill="#FFFFFF" height="282.7109" style="stroke:#181818;stroke-width:1.0;" width="10" x="1168" y="1129.5547"/><rect fill="#FFFFFF" height="282.7109" style="stroke:#181818;stroke-width:1.0;" width="10" x="1168" y="1619.9297"/><rect fill="#FFFFFF" height="28.5234" style="stroke:#181818;stroke-width:1.0;" width="10" x="1369.5" y="208.8516"/><rect fill="#FFFFFF" height="28.5234" style="stroke:#181818;stroke-width:1.0;" width="10" x="1369.5" y="577.1328"/><rect fill="#FFFFFF" height="28.5234" style="stroke:#181818;stroke-width:1.0;" width="10" x="1369.5" y="846.8438"/><rect fill="#FFFFFF" height="28.5234" style="stroke:#181818;stroke-width:1.0;" width="10" x="1369.5" y="1158.0781"/><rect fill="#FFFFFF" height="28.5234" style="stroke:#181818;stroke-width:1.0;" width="10" x="1369.5" y="1648.4531"/><rect fill="#FFFFFF" height="28.5234" style="stroke:#181818;stroke-width:1.0;" width="10" x="1476.5" y="265.8984"/><rect fill="#FFFFFF" height="28.5234" style="stroke:#181818;stroke-width:1.0;" width="10" x="1476.5" y="634.1797"/><rect fill="#FFFFFF" height="28.5234" style="stroke:#181818;stroke-width:1.0;" width="10" x="1476.5" y="903.8906"/><rect fill="#FFFFFF" height="28.5234" style="stroke:#181818;stroke-width:1.0;" width="10" x="1476.5" y="1215.125"/><rect fill="#FFFFFF" height="28.5234" style="stroke:#181818;stroke-width:1.0;" width="10" x="1476.5" y="1705.5"/><rect fill="#FFFFFF" height="70.0469" style="stroke:#181818;stroke-width:1.0;" width="10" x="1850" y="322.9453"/><rect fill="#FFFFFF" height="70.0469" style="stroke:#181818;stroke-width:1.0;" width="10" x="1850" y="960.9375"/><rect fill="#FFFFFF" height="111.5703" style="stroke:#181818;stroke-width:1.0;" width="10" x="1850" y="1272.1719"/><rect fill="#FFFFFF" height="111.5703" style="stroke:#181818;stroke-width:1.0;" width="10" x="1850" y="1762.5469"/><rect fill="#FFFFFF" height="70.0469" style="stroke:#181818;stroke-width:1.0;" width="10" x="2171" y="691.2266"/><polygon fill="#181818" points="693,107.1641,703,111.1641,693,115.1641,697,111.1641" style="stroke:#181818;stroke-width:1.0;"/><line style="stroke:#181818;stroke-width:1.0;" x1="54" x2="699" y1="111.1641" y2="111.1641"/><text fill="#000000" font-family="sans-serif" font-size="13" font-weight="bold" lengthAdjust="spacing" textLength="7" x="61" y="106.4092">1</text><text fill="#000000" font-family="sans-serif" font-size="13" lengthAdjust="spacing" textLength="309" x="72" y="106.4092">asks to see the agent's response to my visit requests</text><polygon fill="#181818" points="1018,135.6875,1028,139.6875,1018,143.6875,1022,139.6875" style="stroke:#181818;stroke-width:1.0;"/><line style="stroke:#181818;stroke-width:1.0;" x1="715" x2="1024" y1="139.6875" y2="139.6875"/><text fill="#000000" font-family="sans-serif" font-size="13" font-weight="bold" lengthAdjust="spacing" textLength="7" x="722" y="134.9326">2</text><text fill="#000000" font-family="sans-serif" font-size="13" lengthAdjust="spacing" textLength="280" x="733" y="134.9326">createReplyToAgentAboutVisitRequestController</text><rect fill="#E3E3E3" height="29.6406" rx="2.5" ry="2.5" style="stroke:#181818;stroke-width:0.5;" width="286" x="1030" y="119.1641"/><text fill="#000000" font-family="sans-serif" font-size="14" lengthAdjust="spacing" textLength="272" x="1037" y="138.8379">:ReplyToAgentAboutVisitRequestController</text><polygon fill="#181818" points="1156,176.3281,1166,180.3281,1156,184.3281,1160,180.3281" style="stroke:#181818;stroke-width:1.0;"/><line style="stroke:#181818;stroke-width:1.0;" x1="715" x2="1162" y1="180.3281" y2="180.3281"/><text fill="#000000" font-family="sans-serif" font-size="13" font-weight="bold" lengthAdjust="spacing" textLength="7" x="722" y="175.5732">3</text><text fill="#000000" font-family="sans-serif" font-size="13" lengthAdjust="spacing" textLength="110" x="733" y="175.5732">GetVisitRequests()</text><polygon fill="#181818" points="1357.5,204.8516,1367.5,208.8516,1357.5,212.8516,1361.5,208.8516" style="stroke:#181818;stroke-width:1.0;"/><line style="stroke:#181818;stroke-width:1.0;" x1="1178" x2="1363.5" y1="208.8516" y2="208.8516"/><text fill="#000000" font-family="sans-serif" font-size="13" font-weight="bold" lengthAdjust="spacing" textLength="7" x="1185" y="204.0967">4</text><text fill="#000000" font-family="sans-serif" font-size="13" lengthAdjust="spacing" textLength="75" x="1196" y="204.0967">getInstance()</text><polygon fill="#181818" points="1189,233.375,1179,237.375,1189,241.375,1185,237.375" style="stroke:#181818;stroke-width:1.0;"/><line style="stroke:#181818;stroke-width:1.0;stroke-dasharray:2.0,2.0;" x1="1183" x2="1373.5" y1="237.375" y2="237.375"/><text fill="#000000" font-family="sans-serif" font-size="13" font-weight="bold" lengthAdjust="spacing" textLength="7" x="1195" y="232.6201">5</text><text fill="#000000" font-family="sans-serif" font-size="13" lengthAdjust="spacing" textLength="67" x="1206" y="232.6201">repositories</text><polygon fill="#181818" points="1464.5,261.8984,1474.5,265.8984,1464.5,269.8984,1468.5,265.8984" style="stroke:#181818;stroke-width:1.0;"/><line style="stroke:#181818;stroke-width:1.0;" x1="1178" x2="1470.5" y1="265.8984" y2="265.8984"/><text fill="#000000" font-family="sans-serif" font-size="13" font-weight="bold" lengthAdjust="spacing" textLength="7" x="1185" y="261.1436">6</text><text fill="#000000" font-family="sans-serif" font-size="13" lengthAdjust="spacing" textLength="162" x="1196" y="261.1436">getVisitRequestRepository()</text><polygon fill="#181818" points="1189,290.4219,1179,294.4219,1189,298.4219,1185,294.4219" style="stroke:#181818;stroke-width:1.0;"/><line style="stroke:#181818;stroke-width:1.0;stroke-dasharray:2.0,2.0;" x1="1183" x2="1480.5" y1="294.4219" y2="294.4219"/><text fill="#000000" font-family="sans-serif" font-size="13" font-weight="bold" lengthAdjust="spacing" textLength="7" x="1195" y="289.667">7</text><text fill="#000000" font-family="sans-serif" font-size="13" lengthAdjust="spacing" textLength="136" x="1206" y="289.667">VisitRequestRepository</text><polygon fill="#181818" points="1838,318.9453,1848,322.9453,1838,326.9453,1842,322.9453" style="stroke:#181818;stroke-width:1.0;"/><line style="stroke:#181818;stroke-width:1.0;" x1="1178" x2="1844" y1="322.9453" y2="322.9453"/><text fill="#000000" font-family="sans-serif" font-size="13" font-weight="bold" lengthAdjust="spacing" textLength="7" x="1185" y="318.1904">8</text><text fill="#000000" font-family="sans-serif" font-size="13" lengthAdjust="spacing" textLength="92" x="1196" y="318.1904">getVisitRequest</text><line style="stroke:#181818;stroke-width:1.0;stroke-dasharray:2.0,2.0;" x1="1860" x2="1902" y1="351.4688" y2="351.4688"/><line style="stroke:#181818;stroke-width:1.0;stroke-dasharray:2.0,2.0;" x1="1902" x2="1902" y1="351.4688" y2="364.4688"/><line style="stroke:#181818;stroke-width:1.0;stroke-dasharray:2.0,2.0;" x1="1861" x2="1902" y1="364.4688" y2="364.4688"/><polygon fill="#181818" points="1871,360.4688,1861,364.4688,1871,368.4688,1867,364.4688" style="stroke:#181818;stroke-width:1.0;"/><text fill="#000000" font-family="sans-serif" font-size="13" font-weight="bold" lengthAdjust="spacing" textLength="7" x="1867" y="346.7139">9</text><text fill="#000000" font-family="sans-serif" font-size="13" lengthAdjust="spacing" textLength="155" x="1878" y="346.7139">getVisitRequestAccepted()</text><polygon fill="#181818" points="1189,388.9922,1179,392.9922,1189,396.9922,1185,392.9922" style="stroke:#181818;stroke-width:1.0;"/><line style="stroke:#181818;stroke-width:1.0;stroke-dasharray:2.0,2.0;" x1="1183" x2="1854" y1="392.9922" y2="392.9922"/><text fill="#000000" font-family="sans-serif" font-size="13" font-weight="bold" lengthAdjust="spacing" textLength="14" x="1195" y="388.2373">10</text><text fill="#000000" font-family="sans-serif" font-size="13" lengthAdjust="spacing" textLength="81" x="1213" y="388.2373">VisitRequests</text><polygon fill="#181818" points="726,417.5156,716,421.5156,726,425.5156,722,421.5156" style="stroke:#181818;stroke-width:1.0;"/><line style="stroke:#181818;stroke-width:1.0;stroke-dasharray:2.0,2.0;" x1="720" x2="1172" y1="421.5156" y2="421.5156"/><text fill="#000000" font-family="sans-serif" font-size="13" font-weight="bold" lengthAdjust="spacing" textLength="14" x="732" y="416.7607">11</text><text fill="#000000" font-family="sans-serif" font-size="13" lengthAdjust="spacing" textLength="81" x="750" y="416.7607">VisitRequests</text><polygon fill="#181818" points="65,446.0391,55,450.0391,65,454.0391,61,450.0391" style="stroke:#181818;stroke-width:1.0;"/><line style="stroke:#181818;stroke-width:1.0;stroke-dasharray:2.0,2.0;" x1="59" x2="709" y1="450.0391" y2="450.0391"/><text fill="#000000" font-family="sans-serif" font-size="13" font-weight="bold" lengthAdjust="spacing" textLength="14" x="71" y="445.2842">12</text><text fill="#000000" font-family="sans-serif" font-size="13" lengthAdjust="spacing" textLength="566" x="89" y="445.2842">show list of response (display property, date of the appointment, agent's name and phone number)</text><polygon fill="#181818" points="693,474.5625,703,478.5625,693,482.5625,697,478.5625" style="stroke:#181818;stroke-width:1.0;"/><line style="stroke:#181818;stroke-width:1.0;" x1="54" x2="699" y1="478.5625" y2="478.5625"/><text fill="#000000" font-family="sans-serif" font-size="13" font-weight="bold" lengthAdjust="spacing" textLength="14" x="61" y="473.8076">13</text><text fill="#000000" font-family="sans-serif" font-size="13" lengthAdjust="spacing" textLength="110" x="79" y="473.8076">select appointment</text><line style="stroke:#181818;stroke-width:1.0;stroke-dasharray:2.0,2.0;" x1="715" x2="757" y1="507.0859" y2="507.0859"/><line style="stroke:#181818;stroke-width:1.0;stroke-dasharray:2.0,2.0;" x1="757" x2="757" y1="507.0859" y2="520.0859"/><line style="stroke:#181818;stroke-width:1.0;stroke-dasharray:2.0,2.0;" x1="716" x2="757" y1="520.0859" y2="520.0859"/><polygon fill="#181818" points="726,516.0859,716,520.0859,726,524.0859,722,520.0859" style="stroke:#181818;stroke-width:1.0;"/><text fill="#000000" font-family="sans-serif" font-size="13" font-weight="bold" lengthAdjust="spacing" textLength="14" x="722" y="502.3311">14</text><text fill="#000000" font-family="sans-serif" font-size="13" lengthAdjust="spacing" textLength="122" x="740" y="502.3311">displayAppointment()</text><polygon fill="#181818" points="1156,544.6094,1166,548.6094,1156,552.6094,1160,548.6094" style="stroke:#181818;stroke-width:1.0;"/><line style="stroke:#181818;stroke-width:1.0;" x1="715" x2="1162" y1="548.6094" y2="548.6094"/><text fill="#000000" font-family="sans-serif" font-size="13" font-weight="bold" lengthAdjust="spacing" textLength="14" x="722" y="543.8545">15</text><text fill="#000000" font-family="sans-serif" font-size="13" lengthAdjust="spacing" textLength="80" x="740" y="543.8545">getClientList()</text><polygon fill="#181818" points="1357.5,573.1328,1367.5,577.1328,1357.5,581.1328,1361.5,577.1328" style="stroke:#181818;stroke-width:1.0;"/><line style="stroke:#181818;stroke-width:1.0;" x1="1178" x2="1363.5" y1="577.1328" y2="577.1328"/><text fill="#000000" font-family="sans-serif" font-size="13" font-weight="bold" lengthAdjust="spacing" textLength="14" x="1185" y="572.3779">16</text><text fill="#000000" font-family="sans-serif" font-size="13" lengthAdjust="spacing" textLength="75" x="1203" y="572.3779">getInstance()</text><polygon fill="#181818" points="1189,601.6563,1179,605.6563,1189,609.6563,1185,605.6563" style="stroke:#181818;stroke-width:1.0;"/><line style="stroke:#181818;stroke-width:1.0;stroke-dasharray:2.0,2.0;" x1="1183" x2="1373.5" y1="605.6563" y2="605.6563"/><text fill="#000000" font-family="sans-serif" font-size="13" font-weight="bold" lengthAdjust="spacing" textLength="14" x="1195" y="600.9014">17</text><text fill="#000000" font-family="sans-serif" font-size="13" lengthAdjust="spacing" textLength="67" x="1213" y="600.9014">repositories</text><polygon fill="#181818" points="1464.5,630.1797,1474.5,634.1797,1464.5,638.1797,1468.5,634.1797" style="stroke:#181818;stroke-width:1.0;"/><line style="stroke:#181818;stroke-width:1.0;" x1="1178" x2="1470.5" y1="634.1797" y2="634.1797"/><text fill="#000000" font-family="sans-serif" font-size="13" font-weight="bold" lengthAdjust="spacing" textLength="14" x="1185" y="629.4248">18</text><text fill="#000000" font-family="sans-serif" font-size="13" lengthAdjust="spacing" textLength="121" x="1203" y="629.4248">getClientRepository()</text><polygon fill="#181818" points="1189,658.7031,1179,662.7031,1189,666.7031,1185,662.7031" style="stroke:#181818;stroke-width:1.0;"/><line style="stroke:#181818;stroke-width:1.0;stroke-dasharray:2.0,2.0;" x1="1183" x2="1480.5" y1="662.7031" y2="662.7031"/><text fill="#000000" font-family="sans-serif" font-size="13" font-weight="bold" lengthAdjust="spacing" textLength="14" x="1195" y="657.9482">19</text><text fill="#000000" font-family="sans-serif" font-size="13" lengthAdjust="spacing" textLength="95" x="1213" y="657.9482">ClientRepository</text><polygon fill="#181818" points="2159,687.2266,2169,691.2266,2159,695.2266,2163,691.2266" style="stroke:#181818;stroke-width:1.0;"/><line style="stroke:#181818;stroke-width:1.0;" x1="1178" x2="2165" y1="691.2266" y2="691.2266"/><text fill="#000000" font-family="sans-serif" font-size="13" font-weight="bold" lengthAdjust="spacing" textLength="14" x="1185" y="686.4717">20</text><text fill="#000000" font-family="sans-serif" font-size="13" lengthAdjust="spacing" textLength="58" x="1203" y="686.4717">getClients</text><line style="stroke:#181818;stroke-width:1.0;stroke-dasharray:2.0,2.0;" x1="2181" x2="2223" y1="719.75" y2="719.75"/><line style="stroke:#181818;stroke-width:1.0;stroke-dasharray:2.0,2.0;" x1="2223" x2="2223" y1="719.75" y2="732.75"/><line style="stroke:#181818;stroke-width:1.0;stroke-dasharray:2.0,2.0;" x1="2182" x2="2223" y1="732.75" y2="732.75"/><polygon fill="#181818" points="2192,728.75,2182,732.75,2192,736.75,2188,732.75" style="stroke:#181818;stroke-width:1.0;"/><text fill="#000000" font-family="sans-serif" font-size="13" font-weight="bold" lengthAdjust="spacing" textLength="14" x="2188" y="714.9951">21</text><text fill="#000000" font-family="sans-serif" font-size="13" lengthAdjust="spacing" textLength="66" x="2206" y="714.9951">getClients()</text><polygon fill="#181818" points="1189,757.2734,1179,761.2734,1189,765.2734,1185,761.2734" style="stroke:#181818;stroke-width:1.0;"/><line style="stroke:#181818;stroke-width:1.0;stroke-dasharray:2.0,2.0;" x1="1183" x2="2175" y1="761.2734" y2="761.2734"/><text fill="#000000" font-family="sans-serif" font-size="13" font-weight="bold" lengthAdjust="spacing" textLength="14" x="1195" y="756.5186">22</text><text fill="#000000" font-family="sans-serif" font-size="13" lengthAdjust="spacing" textLength="52" x="1213" y="756.5186">clientList</text><polygon fill="#181818" points="726,785.7969,716,789.7969,726,793.7969,722,789.7969" style="stroke:#181818;stroke-width:1.0;"/><line style="stroke:#181818;stroke-width:1.0;stroke-dasharray:2.0,2.0;" x1="720" x2="1172" y1="789.7969" y2="789.7969"/><text fill="#000000" font-family="sans-serif" font-size="13" font-weight="bold" lengthAdjust="spacing" textLength="14" x="732" y="785.042">23</text><text fill="#000000" font-family="sans-serif" font-size="13" lengthAdjust="spacing" textLength="52" x="750" y="785.042">clientList</text><polygon fill="#181818" points="1156,814.3203,1166,818.3203,1156,822.3203,1160,818.3203" style="stroke:#181818;stroke-width:1.0;"/><line style="stroke:#181818;stroke-width:1.0;" x1="715" x2="1162" y1="818.3203" y2="818.3203"/><text fill="#000000" font-family="sans-serif" font-size="13" font-weight="bold" lengthAdjust="spacing" textLength="14" x="722" y="813.5654">24</text><text fill="#000000" font-family="sans-serif" font-size="13" lengthAdjust="spacing" textLength="318" x="740" y="813.5654">createEmail(clientEmail, agentEmail, subject, mesage)</text><polygon fill="#181818" points="1357.5,842.8438,1367.5,846.8438,1357.5,850.8438,1361.5,846.8438" style="stroke:#181818;stroke-width:1.0;"/><line style="stroke:#181818;stroke-width:1.0;" x1="1178" x2="1363.5" y1="846.8438" y2="846.8438"/><text fill="#000000" font-family="sans-serif" font-size="13" font-weight="bold" lengthAdjust="spacing" textLength="14" x="1185" y="842.0889">25</text><text fill="#000000" font-family="sans-serif" font-size="13" lengthAdjust="spacing" textLength="75" x="1203" y="842.0889">getInstance()</text><polygon fill="#181818" points="1189,871.3672,1179,875.3672,1189,879.3672,1185,875.3672" style="stroke:#181818;stroke-width:1.0;"/><line style="stroke:#181818;stroke-width:1.0;stroke-dasharray:2.0,2.0;" x1="1183" x2="1373.5" y1="875.3672" y2="875.3672"/><text fill="#000000" font-family="sans-serif" font-size="13" font-weight="bold" lengthAdjust="spacing" textLength="14" x="1195" y="870.6123">26</text><text fill="#000000" font-family="sans-serif" font-size="13" lengthAdjust="spacing" textLength="67" x="1213" y="870.6123">repositories</text><polygon fill="#181818" points="1464.5,899.8906,1474.5,903.8906,1464.5,907.8906,1468.5,903.8906" style="stroke:#181818;stroke-width:1.0;"/><line style="stroke:#181818;stroke-width:1.0;" x1="1178" x2="1470.5" y1="903.8906" y2="903.8906"/><text fill="#000000" font-family="sans-serif" font-size="13" font-weight="bold" lengthAdjust="spacing" textLength="14" x="1185" y="899.1357">27</text><text fill="#000000" font-family="sans-serif" font-size="13" lengthAdjust="spacing" textLength="162" x="1203" y="899.1357">getVisitRequestRepository()</text><polygon fill="#181818" points="1189,928.4141,1179,932.4141,1189,936.4141,1185,932.4141" style="stroke:#181818;stroke-width:1.0;"/><line style="stroke:#181818;stroke-width:1.0;stroke-dasharray:2.0,2.0;" x1="1183" x2="1480.5" y1="932.4141" y2="932.4141"/><text fill="#000000" font-family="sans-serif" font-size="13" font-weight="bold" lengthAdjust="spacing" textLength="14" x="1195" y="927.6592">28</text><text fill="#000000" font-family="sans-serif" font-size="13" lengthAdjust="spacing" textLength="136" x="1213" y="927.6592">RequestVisitRepository</text><polygon fill="#181818" points="1838,956.9375,1848,960.9375,1838,964.9375,1842,960.9375" style="stroke:#181818;stroke-width:1.0;"/><line style="stroke:#181818;stroke-width:1.0;" x1="1178" x2="1844" y1="960.9375" y2="960.9375"/><text fill="#000000" font-family="sans-serif" font-size="13" font-weight="bold" lengthAdjust="spacing" textLength="14" x="1185" y="956.1826">29</text><text fill="#000000" font-family="sans-serif" font-size="13" lengthAdjust="spacing" textLength="279" x="1203" y="956.1826">createEmail(sender, receiver, subject, message)</text><line style="stroke:#181818;stroke-width:1.0;stroke-dasharray:2.0,2.0;" x1="1860" x2="1902" y1="994.4609" y2="994.4609"/><line style="stroke:#181818;stroke-width:1.0;stroke-dasharray:2.0,2.0;" x1="1902" x2="1902" y1="994.4609" y2="1007.4609"/><line style="stroke:#181818;stroke-width:1.0;stroke-dasharray:2.0,2.0;" x1="1855" x2="1902" y1="1007.4609" y2="1007.4609"/><polygon fill="#181818" points="1865,1003.4609,1855,1007.4609,1865,1011.4609,1861,1007.4609" style="stroke:#181818;stroke-width:1.0;"/><text fill="#000000" font-family="sans-serif" font-size="13" font-weight="bold" lengthAdjust="spacing" textLength="14" x="1867" y="989.7061">30</text><text fill="#000000" font-family="sans-serif" font-size="13" lengthAdjust="spacing" textLength="279" x="1885" y="989.7061">createEmail(sender, receiver, subject, message)</text><polygon fill="#181818" points="65,1026.9844,55,1030.9844,65,1034.9844,61,1030.9844" style="stroke:#181818;stroke-width:1.0;"/><line style="stroke:#181818;stroke-width:1.0;stroke-dasharray:2.0,2.0;" x1="59" x2="709" y1="1030.9844" y2="1030.9844"/><text fill="#000000" font-family="sans-serif" font-size="13" font-weight="bold" lengthAdjust="spacing" textLength="14" x="71" y="1026.2295">31</text><text fill="#000000" font-family="sans-serif" font-size="13" lengthAdjust="spacing" textLength="609" x="89" y="1026.2295">display property, date of the appointment, agent's name and phone number and asks to accept or reject it</text><polygon fill="#181818" points="693,1055.5078,703,1059.5078,693,1063.5078,697,1059.5078" style="stroke:#181818;stroke-width:1.0;"/><line style="stroke:#181818;stroke-width:1.0;" x1="54" x2="699" y1="1059.5078" y2="1059.5078"/><text fill="#000000" font-family="sans-serif" font-size="13" font-weight="bold" lengthAdjust="spacing" textLength="14" x="61" y="1054.7529">32</text><text fill="#000000" font-family="sans-serif" font-size="13" lengthAdjust="spacing" textLength="136" x="79" y="1054.7529">accept the appointment</text><line style="stroke:#181818;stroke-width:1.0;stroke-dasharray:2.0,2.0;" x1="715" x2="757" y1="1088.0313" y2="1088.0313"/><line style="stroke:#181818;stroke-width:1.0;stroke-dasharray:2.0,2.0;" x1="757" x2="757" y1="1088.0313" y2="1101.0313"/><line style="stroke:#181818;stroke-width:1.0;stroke-dasharray:2.0,2.0;" x1="716" x2="757" y1="1101.0313" y2="1101.0313"/><polygon fill="#181818" points="726,1097.0313,716,1101.0313,726,1105.0313,722,1101.0313" style="stroke:#181818;stroke-width:1.0;"/><text fill="#000000" font-family="sans-serif" font-size="13" font-weight="bold" lengthAdjust="spacing" textLength="14" x="722" y="1083.2764">33</text><text fill="#000000" font-family="sans-serif" font-size="13" lengthAdjust="spacing" textLength="64" x="740" y="1083.2764">keep(reply)</text><polygon fill="#181818" points="1156,1125.5547,1166,1129.5547,1156,1133.5547,1160,1129.5547" style="stroke:#181818;stroke-width:1.0;"/><line style="stroke:#181818;stroke-width:1.0;" x1="715" x2="1162" y1="1129.5547" y2="1129.5547"/><text fill="#000000" font-family="sans-serif" font-size="13" font-weight="bold" lengthAdjust="spacing" textLength="14" x="722" y="1124.7998">34</text><text fill="#000000" font-family="sans-serif" font-size="13" lengthAdjust="spacing" textLength="194" x="740" y="1124.7998">setVisitRequestClientReply(reply)</text><polygon fill="#181818" points="1357.5,1154.0781,1367.5,1158.0781,1357.5,1162.0781,1361.5,1158.0781" style="stroke:#181818;stroke-width:1.0;"/><line style="stroke:#181818;stroke-width:1.0;" x1="1178" x2="1363.5" y1="1158.0781" y2="1158.0781"/><text fill="#000000" font-family="sans-serif" font-size="13" font-weight="bold" lengthAdjust="spacing" textLength="14" x="1185" y="1153.3232">35</text><text fill="#000000" font-family="sans-serif" font-size="13" lengthAdjust="spacing" textLength="75" x="1203" y="1153.3232">getInstance()</text><polygon fill="#181818" points="1189,1182.6016,1179,1186.6016,1189,1190.6016,1185,1186.6016" style="stroke:#181818;stroke-width:1.0;"/><line style="stroke:#181818;stroke-width:1.0;stroke-dasharray:2.0,2.0;" x1="1183" x2="1373.5" y1="1186.6016" y2="1186.6016"/><text fill="#000000" font-family="sans-serif" font-size="13" font-weight="bold" lengthAdjust="spacing" textLength="14" x="1195" y="1181.8467">36</text><text fill="#000000" font-family="sans-serif" font-size="13" lengthAdjust="spacing" textLength="67" x="1213" y="1181.8467">repositories</text><polygon fill="#181818" points="1464.5,1211.125,1474.5,1215.125,1464.5,1219.125,1468.5,1215.125" style="stroke:#181818;stroke-width:1.0;"/><line style="stroke:#181818;stroke-width:1.0;" x1="1178" x2="1470.5" y1="1215.125" y2="1215.125"/><text fill="#000000" font-family="sans-serif" font-size="13" font-weight="bold" lengthAdjust="spacing" textLength="14" x="1185" y="1210.3701">37</text><text fill="#000000" font-family="sans-serif" font-size="13" lengthAdjust="spacing" textLength="162" x="1203" y="1210.3701">getVisitRequestRepository()</text><polygon fill="#181818" points="1189,1239.6484,1179,1243.6484,1189,1247.6484,1185,1243.6484" style="stroke:#181818;stroke-width:1.0;"/><line style="stroke:#181818;stroke-width:1.0;stroke-dasharray:2.0,2.0;" x1="1183" x2="1480.5" y1="1243.6484" y2="1243.6484"/><text fill="#000000" font-family="sans-serif" font-size="13" font-weight="bold" lengthAdjust="spacing" textLength="14" x="1195" y="1238.8936">38</text><text fill="#000000" font-family="sans-serif" font-size="13" lengthAdjust="spacing" textLength="136" x="1213" y="1238.8936">RequestVisitRepository</text><polygon fill="#181818" points="1838,1268.1719,1848,1272.1719,1838,1276.1719,1842,1272.1719" style="stroke:#181818;stroke-width:1.0;"/><line style="stroke:#181818;stroke-width:1.0;" x1="1178" x2="1844" y1="1272.1719" y2="1272.1719"/><text fill="#000000" font-family="sans-serif" font-size="13" font-weight="bold" lengthAdjust="spacing" textLength="14" x="1185" y="1267.417">39</text><text fill="#000000" font-family="sans-serif" font-size="13" lengthAdjust="spacing" textLength="197" x="1203" y="1267.417">addVisitRequestClientReply(reply)</text><line style="stroke:#181818;stroke-width:1.0;stroke-dasharray:2.0,2.0;" x1="1860" x2="1902" y1="1300.6953" y2="1300.6953"/><line style="stroke:#181818;stroke-width:1.0;stroke-dasharray:2.0,2.0;" x1="1902" x2="1902" y1="1300.6953" y2="1313.6953"/><line style="stroke:#181818;stroke-width:1.0;stroke-dasharray:2.0,2.0;" x1="1861" x2="1902" y1="1313.6953" y2="1313.6953"/><polygon fill="#181818" points="1871,1309.6953,1861,1313.6953,1871,1317.6953,1867,1313.6953" style="stroke:#181818;stroke-width:1.0;"/><text fill="#000000" font-family="sans-serif" font-size="13" font-weight="bold" lengthAdjust="spacing" textLength="14" x="1867" y="1295.9404">40</text><text fill="#000000" font-family="sans-serif" font-size="13" lengthAdjust="spacing" textLength="120" x="1885" y="1295.9404">setClientReply(reply)</text><line style="stroke:#181818;stroke-width:1.0;stroke-dasharray:2.0,2.0;" x1="1860" x2="1902" y1="1342.2188" y2="1342.2188"/><line style="stroke:#181818;stroke-width:1.0;stroke-dasharray:2.0,2.0;" x1="1902" x2="1902" y1="1342.2188" y2="1355.2188"/><line style="stroke:#181818;stroke-width:1.0;stroke-dasharray:2.0,2.0;" x1="1861" x2="1902" y1="1355.2188" y2="1355.2188"/><polygon fill="#181818" points="1871,1351.2188,1861,1355.2188,1871,1359.2188,1867,1355.2188" style="stroke:#181818;stroke-width:1.0;"/><text fill="#000000" font-family="sans-serif" font-size="13" font-weight="bold" lengthAdjust="spacing" textLength="14" x="1867" y="1337.4639">41</text><text fill="#000000" font-family="sans-serif" font-size="13" lengthAdjust="spacing" textLength="144" x="1885" y="1337.4639">confirmClientReply(reply)</text><polygon fill="#181818" points="1189,1379.7422,1179,1383.7422,1189,1387.7422,1185,1383.7422" style="stroke:#181818;stroke-width:1.0;"/><line style="stroke:#181818;stroke-width:1.0;stroke-dasharray:2.0,2.0;" x1="1183" x2="1854" y1="1383.7422" y2="1383.7422"/><text fill="#000000" font-family="sans-serif" font-size="13" font-weight="bold" lengthAdjust="spacing" textLength="14" x="1195" y="1378.9873">42</text><text fill="#000000" font-family="sans-serif" font-size="13" lengthAdjust="spacing" textLength="78" x="1213" y="1378.9873">wasAccepted</text><polygon fill="#181818" points="726,1408.2656,716,1412.2656,726,1416.2656,722,1412.2656" style="stroke:#181818;stroke-width:1.0;"/><line style="stroke:#181818;stroke-width:1.0;stroke-dasharray:2.0,2.0;" x1="720" x2="1172" y1="1412.2656" y2="1412.2656"/><text fill="#000000" font-family="sans-serif" font-size="13" font-weight="bold" lengthAdjust="spacing" textLength="14" x="732" y="1407.5107">43</text><text fill="#000000" font-family="sans-serif" font-size="13" lengthAdjust="spacing" textLength="78" x="750" y="1407.5107">wasAccepted</text><polygon fill="#181818" points="65,1436.7891,55,1440.7891,65,1444.7891,61,1440.7891" style="stroke:#181818;stroke-width:1.0;"/><line style="stroke:#181818;stroke-width:1.0;stroke-dasharray:2.0,2.0;" x1="59" x2="709" y1="1440.7891" y2="1440.7891"/><text fill="#000000" font-family="sans-serif" font-size="13" font-weight="bold" lengthAdjust="spacing" textLength="14" x="71" y="1436.0342">44</text><text fill="#000000" font-family="sans-serif" font-size="13" lengthAdjust="spacing" textLength="151" x="89" y="1436.0342">display success message</text><path d="M10,1455.7891 L75,1455.7891 L75,1462.3125 L65,1472.3125 L10,1472.3125 L10,1455.7891 " fill="#EEEEEE" style="stroke:#000000;stroke-width:1.5;"/><rect fill="none" height="483.375" style="stroke:#000000;stroke-width:1.5;" width="2031" x="10" y="1455.7891"/><text fill="#000000" font-family="sans-serif" font-size="13" font-weight="bold" lengthAdjust="spacing" textLength="20" x="25" y="1468.5576">opt</text><text fill="#000000" font-family="sans-serif" font-size="11" font-weight="bold" lengthAdjust="spacing" textLength="153" x="90" y="1467.7471">[appointment was rejected]</text><polygon fill="#181818" points="693,1488.8359,703,1492.8359,693,1496.8359,697,1492.8359" style="stroke:#181818;stroke-width:1.0;"/><line style="stroke:#181818;stroke-width:1.0;" x1="54" x2="699" y1="1492.8359" y2="1492.8359"/><text fill="#000000" font-family="sans-serif" font-size="13" font-weight="bold" lengthAdjust="spacing" textLength="14" x="61" y="1488.0811">45</text><text fill="#000000" font-family="sans-serif" font-size="13" lengthAdjust="spacing" textLength="129" x="79" y="1488.0811">reject the appointment</text><polygon fill="#181818" points="65,1517.3594,55,1521.3594,65,1525.3594,61,1521.3594" style="stroke:#181818;stroke-width:1.0;"/><line style="stroke:#181818;stroke-width:1.0;stroke-dasharray:2.0,2.0;" x1="59" x2="709" y1="1521.3594" y2="1521.3594"/><text fill="#000000" font-family="sans-serif" font-size="13" font-weight="bold" lengthAdjust="spacing" textLength="14" x="71" y="1516.6045">46</text><text fill="#000000" font-family="sans-serif" font-size="13" lengthAdjust="spacing" textLength="241" x="89" y="1516.6045">asks the reason to reject the appointment</text><polygon fill="#181818" points="693,1545.8828,703,1549.8828,693,1553.8828,697,1549.8828" style="stroke:#181818;stroke-width:1.0;"/><line style="stroke:#181818;stroke-width:1.0;" x1="54" x2="699" y1="1549.8828" y2="1549.8828"/><text fill="#000000" font-family="sans-serif" font-size="13" font-weight="bold" lengthAdjust="spacing" textLength="14" x="61" y="1545.1279">47</text><text fill="#000000" font-family="sans-serif" font-size="13" lengthAdjust="spacing" textLength="84" x="79" y="1545.1279">write message</text><line style="stroke:#181818;stroke-width:1.0;stroke-dasharray:2.0,2.0;" x1="715" x2="757" y1="1578.4063" y2="1578.4063"/><line style="stroke:#181818;stroke-width:1.0;stroke-dasharray:2.0,2.0;" x1="757" x2="757" y1="1578.4063" y2="1591.4063"/><line style="stroke:#181818;stroke-width:1.0;stroke-dasharray:2.0,2.0;" x1="716" x2="757" y1="1591.4063" y2="1591.4063"/><polygon fill="#181818" points="726,1587.4063,716,1591.4063,726,1595.4063,722,1591.4063" style="stroke:#181818;stroke-width:1.0;"/><text fill="#000000" font-family="sans-serif" font-size="13" font-weight="bold" lengthAdjust="spacing" textLength="14" x="722" y="1573.6514">48</text><text fill="#000000" font-family="sans-serif" font-size="13" lengthAdjust="spacing" textLength="64" x="740" y="1573.6514">keep(reply)</text><polygon fill="#181818" points="1156,1615.9297,1166,1619.9297,1156,1623.9297,1160,1619.9297" style="stroke:#181818;stroke-width:1.0;"/><line style="stroke:#181818;stroke-width:1.0;" x1="715" x2="1162" y1="1619.9297" y2="1619.9297"/><text fill="#000000" font-family="sans-serif" font-size="13" font-weight="bold" lengthAdjust="spacing" textLength="14" x="722" y="1615.1748">49</text><text fill="#000000" font-family="sans-serif" font-size="13" lengthAdjust="spacing" textLength="194" x="740" y="1615.1748">setVisitRequestClientReply(reply)</text><polygon fill="#181818" points="1357.5,1644.4531,1367.5,1648.4531,1357.5,1652.4531,1361.5,1648.4531" style="stroke:#181818;stroke-width:1.0;"/><line style="stroke:#181818;stroke-width:1.0;" x1="1178" x2="1363.5" y1="1648.4531" y2="1648.4531"/><text fill="#000000" font-family="sans-serif" font-size="13" font-weight="bold" lengthAdjust="spacing" textLength="14" x="1185" y="1643.6982">50</text><text fill="#000000" font-family="sans-serif" font-size="13" lengthAdjust="spacing" textLength="75" x="1203" y="1643.6982">getInstance()</text><polygon fill="#181818" points="1189,1672.9766,1179,1676.9766,1189,1680.9766,1185,1676.9766" style="stroke:#181818;stroke-width:1.0;"/><line style="stroke:#181818;stroke-width:1.0;stroke-dasharray:2.0,2.0;" x1="1183" x2="1373.5" y1="1676.9766" y2="1676.9766"/><text fill="#000000" font-family="sans-serif" font-size="13" font-weight="bold" lengthAdjust="spacing" textLength="14" x="1195" y="1672.2217">51</text><text fill="#000000" font-family="sans-serif" font-size="13" lengthAdjust="spacing" textLength="67" x="1213" y="1672.2217">repositories</text><polygon fill="#181818" points="1464.5,1701.5,1474.5,1705.5,1464.5,1709.5,1468.5,1705.5" style="stroke:#181818;stroke-width:1.0;"/><line style="stroke:#181818;stroke-width:1.0;" x1="1178" x2="1470.5" y1="1705.5" y2="1705.5"/><text fill="#000000" font-family="sans-serif" font-size="13" font-weight="bold" lengthAdjust="spacing" textLength="14" x="1185" y="1700.7451">52</text><text fill="#000000" font-family="sans-serif" font-size="13" lengthAdjust="spacing" textLength="162" x="1203" y="1700.7451">getVisitRequestRepository()</text><polygon fill="#181818" points="1189,1730.0234,1179,1734.0234,1189,1738.0234,1185,1734.0234" style="stroke:#181818;stroke-width:1.0;"/><line style="stroke:#181818;stroke-width:1.0;stroke-dasharray:2.0,2.0;" x1="1183" x2="1480.5" y1="1734.0234" y2="1734.0234"/><text fill="#000000" font-family="sans-serif" font-size="13" font-weight="bold" lengthAdjust="spacing" textLength="14" x="1195" y="1729.2686">53</text><text fill="#000000" font-family="sans-serif" font-size="13" lengthAdjust="spacing" textLength="136" x="1213" y="1729.2686">RequestVisitRepository</text><polygon fill="#181818" points="1838,1758.5469,1848,1762.5469,1838,1766.5469,1842,1762.5469" style="stroke:#181818;stroke-width:1.0;"/><line style="stroke:#181818;stroke-width:1.0;" x1="1178" x2="1844" y1="1762.5469" y2="1762.5469"/><text fill="#000000" font-family="sans-serif" font-size="13" font-weight="bold" lengthAdjust="spacing" textLength="14" x="1185" y="1757.792">54</text><text fill="#000000" font-family="sans-serif" font-size="13" lengthAdjust="spacing" textLength="194" x="1203" y="1757.792">setVisitRequestClientReply(reply)</text><line style="stroke:#181818;stroke-width:1.0;stroke-dasharray:2.0,2.0;" x1="1860" x2="1902" y1="1791.0703" y2="1791.0703"/><line style="stroke:#181818;stroke-width:1.0;stroke-dasharray:2.0,2.0;" x1="1902" x2="1902" y1="1791.0703" y2="1804.0703"/><line style="stroke:#181818;stroke-width:1.0;stroke-dasharray:2.0,2.0;" x1="1861" x2="1902" y1="1804.0703" y2="1804.0703"/><polygon fill="#181818" points="1871,1800.0703,1861,1804.0703,1871,1808.0703,1867,1804.0703" style="stroke:#181818;stroke-width:1.0;"/><text fill="#000000" font-family="sans-serif" font-size="13" font-weight="bold" lengthAdjust="spacing" textLength="14" x="1867" y="1786.3154">55</text><text fill="#000000" font-family="sans-serif" font-size="13" lengthAdjust="spacing" textLength="120" x="1885" y="1786.3154">setClientReply(reply)</text><line style="stroke:#181818;stroke-width:1.0;stroke-dasharray:2.0,2.0;" x1="1860" x2="1902" y1="1832.5938" y2="1832.5938"/><line style="stroke:#181818;stroke-width:1.0;stroke-dasharray:2.0,2.0;" x1="1902" x2="1902" y1="1832.5938" y2="1845.5938"/><line style="stroke:#181818;stroke-width:1.0;stroke-dasharray:2.0,2.0;" x1="1861" x2="1902" y1="1845.5938" y2="1845.5938"/><polygon fill="#181818" points="1871,1841.5938,1861,1845.5938,1871,1849.5938,1867,1845.5938" style="stroke:#181818;stroke-width:1.0;"/><text fill="#000000" font-family="sans-serif" font-size="13" font-weight="bold" lengthAdjust="spacing" textLength="14" x="1867" y="1827.8389">56</text><text fill="#000000" font-family="sans-serif" font-size="13" lengthAdjust="spacing" textLength="144" x="1885" y="1827.8389">confirmClientReply(reply)</text><polygon fill="#181818" points="1189,1870.1172,1179,1874.1172,1189,1878.1172,1185,1874.1172" style="stroke:#181818;stroke-width:1.0;"/><line style="stroke:#181818;stroke-width:1.0;stroke-dasharray:2.0,2.0;" x1="1183" x2="1854" y1="1874.1172" y2="1874.1172"/><text fill="#000000" font-family="sans-serif" font-size="13" font-weight="bold" lengthAdjust="spacing" textLength="14" x="1195" y="1869.3623">57</text><text fill="#000000" font-family="sans-serif" font-size="13" lengthAdjust="spacing" textLength="78" x="1213" y="1869.3623">wasAccepted</text><polygon fill="#181818" points="726,1898.6406,716,1902.6406,726,1906.6406,722,1902.6406" style="stroke:#181818;stroke-width:1.0;"/><line style="stroke:#181818;stroke-width:1.0;stroke-dasharray:2.0,2.0;" x1="720" x2="1172" y1="1902.6406" y2="1902.6406"/><text fill="#000000" font-family="sans-serif" font-size="13" font-weight="bold" lengthAdjust="spacing" textLength="14" x="732" y="1897.8857">58</text><text fill="#000000" font-family="sans-serif" font-size="13" lengthAdjust="spacing" textLength="78" x="750" y="1897.8857">wasAccepted</text><polygon fill="#181818" points="65,1927.1641,55,1931.1641,65,1935.1641,61,1931.1641" style="stroke:#181818;stroke-width:1.0;"/><line style="stroke:#181818;stroke-width:1.0;stroke-dasharray:2.0,2.0;" x1="59" x2="709" y1="1931.1641" y2="1931.1641"/><text fill="#000000" font-family="sans-serif" font-size="13" font-weight="bold" lengthAdjust="spacing" textLength="14" x="71" y="1926.4092">59</text><text fill="#000000" font-family="sans-serif" font-size="13" lengthAdjust="spacing" textLength="151" x="89" y="1926.4092">display success message</text><!--SRC=[xLXDR-8m4BtdLrYzbAtW3t1O2LLLLGbLAqfxwiKa0tX9xAnjokRVxzZvSX8daBQ7NMrpYepdPSRptXiBTM0yfP8c915SX7if4Y1Q7Y5GrIyf3Gzq1qywYu5823NbkzZTeFOq4YV6TsHBOmK1FlIe1Jyc6v11SBrd4P2j47eZVWSqr4AIgzkO0TVa-U6AK4Lkbuy1OcaMifJYyjLy1McShSLYXxiM6t7KBqmnlO9VHr2wY7f-61DqAxYM8ev1vfzShvRTS87xXMIWx9vg8NjYfcQigHdYHhpoBi2FvMBTZ80aZKK6K4FFN_bTPz56B-xNgsQqMu-Bu5-t82-h5aP-ycvqUwLeoShqCTJiZMgm7Ge8FlX2Pj_nxCaSjnqKqO8eGDBiWL1pyDSAIQ9ImHMOtvACl9diSD6cft8OyrJWsCXg4O4HtdJdvWO_4Kh07HSsreU26EGU6W5gyisJX2L4kMeZ4S7300JSWNxW2dKGWe6gejodmlMHo1lX-zQig6AEnrTponiUmVXFbcKQdkPr-Pc4LGxMQ7dktMAHPtKl_FZd2ihn1qj0dfDvgu3Xf8qol3iCrAo4R1_A8WmXrH2v729a4CTJ-jaMskG62YubE0hKKjm-havCXYZgEVguE96OAKt4jjRm968gZMb6KYbIa3gRaiY0uHwh-JGLZEi4bJcj381J72EKHoJT2muadmGrXvoKZFHhrJdUeY36KUF2ktdtMaSPNYIzgCFTXZNi0HkSE-0IItUOtZgsZrd3PTfyXmLSAlkkrDksxokzAUoscDi8GT2htNOQE5xSB9Jdr740rSGebDIASbAkjkIfXLL7VJdPuUONr9d01XMQFCf7rLr2MJp9KUnxeOhYNHqtFv7NKvA0mdKlHJvX4ls5T3ixMIuaNG5Hm7KcIF_KQ4mAjraAU0HoQkwsmDxCczkbl4t3qwCvCSPY1_rCynlrPpcoNIWlSTGEDeANSmacGSAy2cZKtJPohvCNmAtKHhdv0I2TI7C9x3DnrIHOvKnnredpwsoSqBvqrjQPLsM4Hj7ejWmeIu4N8kYvkeM2RvbCXhxQkgETg2elUC7PMrbpSBYXvqU7Ly_gY01AbSxGgxDoMQID2v99eH2laxuhnKBP7IbU8iGyrTmjzkQF0AgGncWSvq1xadVpEac6ltRA_lTyuSiOBZI6z_Hbl37ydxQ0Lmx_fvQFmHy0]--></g></svg>