<?xml version="1.0" encoding="us-ascii" standalone="no"?><svg xmlns="http://www.w3.org/2000/svg" xmlns:xlink="http://www.w3.org/1999/xlink" contentStyleType="text/css" height="391px" preserveAspectRatio="none" style="width:925px;height:391px;background:#FFFFFF;" version="1.1" viewBox="0 0 925 391" width="925px" zoomAndPan="magnify"><defs/><g><rect fill="#FFFFFF" height="241.1875" style="stroke:#181818;stroke-width:1.0;" width="10" x="227" y="81.8047"/><rect fill="#FFFFFF" height="28.5234" style="stroke:#181818;stroke-width:1.0;" width="10" x="428.5" y="110.3281"/><rect fill="#FFFFFF" height="28.5234" style="stroke:#181818;stroke-width:1.0;" width="10" x="535.5" y="167.375"/><rect fill="#FFFFFF" height="70.0469" style="stroke:#181818;stroke-width:1.0;" width="10" x="754" y="224.4219"/><line style="stroke:#181818;stroke-width:0.5;stroke-dasharray:5.0,5.0;" x1="232" x2="232" y1="51.2813" y2="340.9922"/><line style="stroke:#181818;stroke-width:0.5;stroke-dasharray:5.0,5.0;" x1="433" x2="433" y1="51.2813" y2="340.9922"/><line style="stroke:#181818;stroke-width:0.5;stroke-dasharray:5.0,5.0;" x1="540" x2="540" y1="51.2813" y2="340.9922"/><line style="stroke:#181818;stroke-width:0.5;stroke-dasharray:5.0,5.0;" x1="759" x2="759" y1="51.2813" y2="340.9922"/><rect fill="#E3E3E3" height="29.6406" rx="2.5" ry="2.5" style="stroke:#181818;stroke-width:0.5;" width="286" x="89" y="20.6406"/><text fill="#000000" font-family="sans-serif" font-size="14" lengthAdjust="spacing" textLength="272" x="96" y="40.3145">:ReplyToAgentAboutVisitRequestController</text><rect fill="#E3E3E3" height="29.6406" rx="2.5" ry="2.5" style="stroke:#181818;stroke-width:0.5;" width="286" x="89" y="339.9922"/><text fill="#000000" font-family="sans-serif" font-size="14" lengthAdjust="spacing" textLength="272" x="96" y="359.666">:ReplyToAgentAboutVisitRequestController</text><rect fill="#E3E3E3" height="29.6406" rx="2.5" ry="2.5" style="stroke:#181818;stroke-width:0.5;" width="97" x="385" y="20.6406"/><text fill="#000000" font-family="sans-serif" font-size="14" lengthAdjust="spacing" textLength="83" x="392" y="40.3145">:Repositories</text><rect fill="#E3E3E3" height="29.6406" rx="2.5" ry="2.5" style="stroke:#181818;stroke-width:0.5;" width="97" x="385" y="339.9922"/><text fill="#000000" font-family="sans-serif" font-size="14" lengthAdjust="spacing" textLength="83" x="392" y="359.666">:Repositories</text><rect fill="#E3E3E3" height="45.2813" rx="2.5" ry="2.5" style="stroke:#181818;stroke-width:0.5;" width="97" x="492" y="5"/><text fill="#000000" font-family="sans-serif" font-size="14" lengthAdjust="spacing" textLength="79" x="501" y="24.6738">Repositories</text><text fill="#000000" font-family="sans-serif" font-size="14" lengthAdjust="spacing" textLength="83" x="499" y="40.3145">:Repositories</text><rect fill="#E3E3E3" height="45.2813" rx="2.5" ry="2.5" style="stroke:#181818;stroke-width:0.5;" width="97" x="492" y="339.9922"/><text fill="#000000" font-family="sans-serif" font-size="14" lengthAdjust="spacing" textLength="79" x="501" y="359.666">Repositories</text><text fill="#000000" font-family="sans-serif" font-size="14" lengthAdjust="spacing" textLength="83" x="499" y="375.3066">:Repositories</text><rect fill="#E3E3E3" height="29.6406" rx="2.5" ry="2.5" style="stroke:#181818;stroke-width:0.5;" width="320" x="599" y="20.6406"/><text fill="#000000" font-family="sans-serif" font-size="14" lengthAdjust="spacing" textLength="306" x="606" y="40.3145">:VisitRequestRepository:\VisitRequestRepository</text><rect fill="#E3E3E3" height="29.6406" rx="2.5" ry="2.5" style="stroke:#181818;stroke-width:0.5;" width="320" x="599" y="339.9922"/><text fill="#000000" font-family="sans-serif" font-size="14" lengthAdjust="spacing" textLength="306" x="606" y="359.666">:VisitRequestRepository:\VisitRequestRepository</text><rect fill="#FFFFFF" height="241.1875" style="stroke:#181818;stroke-width:1.0;" width="10" x="227" y="81.8047"/><rect fill="#FFFFFF" height="28.5234" style="stroke:#181818;stroke-width:1.0;" width="10" x="428.5" y="110.3281"/><rect fill="#FFFFFF" height="28.5234" style="stroke:#181818;stroke-width:1.0;" width="10" x="535.5" y="167.375"/><rect fill="#FFFFFF" height="70.0469" style="stroke:#181818;stroke-width:1.0;" width="10" x="754" y="224.4219"/><polygon fill="#181818" points="215,77.8047,225,81.8047,215,85.8047,219,81.8047" style="stroke:#181818;stroke-width:1.0;"/><line style="stroke:#181818;stroke-width:1.0;" x1="0" x2="221" y1="81.8047" y2="81.8047"/><text fill="#000000" font-family="sans-serif" font-size="13" font-weight="bold" lengthAdjust="spacing" textLength="7" x="7" y="77.0498">1</text><text fill="#000000" font-family="sans-serif" font-size="13" lengthAdjust="spacing" textLength="197" x="18" y="77.0498">addVisitRequestClientReply(reply)</text><polygon fill="#181818" points="416.5,106.3281,426.5,110.3281,416.5,114.3281,420.5,110.3281" style="stroke:#181818;stroke-width:1.0;"/><line style="stroke:#181818;stroke-width:1.0;" x1="237" x2="422.5" y1="110.3281" y2="110.3281"/><text fill="#000000" font-family="sans-serif" font-size="13" font-weight="bold" lengthAdjust="spacing" textLength="7" x="244" y="105.5732">2</text><text fill="#000000" font-family="sans-serif" font-size="13" lengthAdjust="spacing" textLength="75" x="255" y="105.5732">getInstance()</text><polygon fill="#181818" points="248,134.8516,238,138.8516,248,142.8516,244,138.8516" style="stroke:#181818;stroke-width:1.0;"/><line style="stroke:#181818;stroke-width:1.0;stroke-dasharray:2.0,2.0;" x1="242" x2="432.5" y1="138.8516" y2="138.8516"/><text fill="#000000" font-family="sans-serif" font-size="13" font-weight="bold" lengthAdjust="spacing" textLength="7" x="254" y="134.0967">3</text><text fill="#000000" font-family="sans-serif" font-size="13" lengthAdjust="spacing" textLength="67" x="265" y="134.0967">repositories</text><polygon fill="#181818" points="523.5,163.375,533.5,167.375,523.5,171.375,527.5,167.375" style="stroke:#181818;stroke-width:1.0;"/><line style="stroke:#181818;stroke-width:1.0;" x1="237" x2="529.5" y1="167.375" y2="167.375"/><text fill="#000000" font-family="sans-serif" font-size="13" font-weight="bold" lengthAdjust="spacing" textLength="7" x="244" y="162.6201">4</text><text fill="#000000" font-family="sans-serif" font-size="13" lengthAdjust="spacing" textLength="162" x="255" y="162.6201">getVisitRequestRepository()</text><polygon fill="#181818" points="248,191.8984,238,195.8984,248,199.8984,244,195.8984" style="stroke:#181818;stroke-width:1.0;"/><line style="stroke:#181818;stroke-width:1.0;stroke-dasharray:2.0,2.0;" x1="242" x2="539.5" y1="195.8984" y2="195.8984"/><text fill="#000000" font-family="sans-serif" font-size="13" font-weight="bold" lengthAdjust="spacing" textLength="7" x="254" y="191.1436">5</text><text fill="#000000" font-family="sans-serif" font-size="13" lengthAdjust="spacing" textLength="136" x="265" y="191.1436">RequestVisitRepository</text><polygon fill="#181818" points="742,220.4219,752,224.4219,742,228.4219,746,224.4219" style="stroke:#181818;stroke-width:1.0;"/><line style="stroke:#181818;stroke-width:1.0;" x1="237" x2="748" y1="224.4219" y2="224.4219"/><text fill="#000000" font-family="sans-serif" font-size="13" font-weight="bold" lengthAdjust="spacing" textLength="7" x="244" y="219.667">6</text><text fill="#000000" font-family="sans-serif" font-size="13" lengthAdjust="spacing" textLength="194" x="255" y="219.667">setVisitRequestClientReply(reply)</text><line style="stroke:#181818;stroke-width:1.0;stroke-dasharray:2.0,2.0;" x1="764" x2="806" y1="252.9453" y2="252.9453"/><line style="stroke:#181818;stroke-width:1.0;stroke-dasharray:2.0,2.0;" x1="806" x2="806" y1="252.9453" y2="265.9453"/><line style="stroke:#181818;stroke-width:1.0;stroke-dasharray:2.0,2.0;" x1="765" x2="806" y1="265.9453" y2="265.9453"/><polygon fill="#181818" points="775,261.9453,765,265.9453,775,269.9453,771,265.9453" style="stroke:#181818;stroke-width:1.0;"/><text fill="#000000" font-family="sans-serif" font-size="13" font-weight="bold" lengthAdjust="spacing" textLength="7" x="771" y="248.1904">7</text><text fill="#000000" font-family="sans-serif" font-size="13" lengthAdjust="spacing" textLength="120" x="782" y="248.1904">setClientReply(reply)</text><polygon fill="#181818" points="248,290.4688,238,294.4688,248,298.4688,244,294.4688" style="stroke:#181818;stroke-width:1.0;"/><line style="stroke:#181818;stroke-width:1.0;stroke-dasharray:2.0,2.0;" x1="242" x2="758" y1="294.4688" y2="294.4688"/><text fill="#000000" font-family="sans-serif" font-size="13" font-weight="bold" lengthAdjust="spacing" textLength="7" x="254" y="289.7139">8</text><text fill="#000000" font-family="sans-serif" font-size="13" lengthAdjust="spacing" textLength="78" x="265" y="289.7139">wasAccepted</text><polygon fill="#181818" points="11,318.9922,1,322.9922,11,326.9922,7,322.9922" style="stroke:#181818;stroke-width:1.0;"/><line style="stroke:#181818;stroke-width:1.0;stroke-dasharray:2.0,2.0;" x1="5" x2="231" y1="322.9922" y2="322.9922"/><text fill="#000000" font-family="sans-serif" font-size="13" font-weight="bold" lengthAdjust="spacing" textLength="7" x="17" y="318.2373">9</text><text fill="#000000" font-family="sans-serif" font-size="13" lengthAdjust="spacing" textLength="78" x="28" y="318.2373">wasAccepted</text><!--SRC=[ZP4_Ry8m4CLtVmgBfNH8sQEgKiHKYQ4AY8dbSAx1mh5J-rB4jw_Z_241go935BtS-zsxkvSJKUtIrQfMeAcfr9imrShXJuDQO598A2rKp9sbhi5_ySfe8qxMLCZ9DZZvKuCuGubRkYha5WM1BjMqm9sWC1UfI_uDoY5ZpEiaXQnzQxv8SwpLTMUo4ZLbHzFGNZf9UPl5qTfeiaOfj0iEZgzt-URHRdoziH9Tg1c5wrQsKSZekMNgEEX7mDScszqrcKQwyTD3N0-KVPup1etltbH7j8mb7o4-JpaKnMn69VteOGrBsxvV6UFz0uBaBn1sauzoH_B4oB2-GOdqgPs_XC2bXptIOZiQgsBCf4-V-XFVrZLQ2dmEFSHkLzpbZ6_Gftx87Cuooe6Gt7RQ8thSm8a539pxGFvQ7kBcUPuwJBZpeBQOP8hx3p4KznDSm6L2O4rOn6BF-hmdIMUxyyMCRTqV]--></g></svg>