<?xml version="1.0" encoding="us-ascii" standalone="no"?><svg xmlns="http://www.w3.org/2000/svg" xmlns:xlink="http://www.w3.org/1999/xlink" contentStyleType="text/css" height="349px" preserveAspectRatio="none" style="width:566px;height:349px;background:#FFFFFF;" version="1.1" viewBox="0 0 566 349" width="566px" zoomAndPan="magnify"><defs/><g><rect fill="#FFFFFF" height="199.6641" style="stroke:#181818;stroke-width:1.0;" width="10" x="192" y="81.8047"/><rect fill="#FFFFFF" height="28.5234" style="stroke:#181818;stroke-width:1.0;" width="10" x="330" y="110.3281"/><rect fill="#FFFFFF" height="28.5234" style="stroke:#181818;stroke-width:1.0;" width="10" x="472" y="167.375"/><rect fill="#FFFFFF" height="28.5234" style="stroke:#181818;stroke-width:1.0;" width="10" x="472" y="224.4219"/><line style="stroke:#181818;stroke-width:0.5;stroke-dasharray:5.0,5.0;" x1="196.5" x2="196.5" y1="51.2813" y2="299.4688"/><line style="stroke:#181818;stroke-width:0.5;stroke-dasharray:5.0,5.0;" x1="334.5" x2="334.5" y1="51.2813" y2="299.4688"/><line style="stroke:#181818;stroke-width:0.5;stroke-dasharray:5.0,5.0;" x1="476.5" x2="476.5" y1="51.2813" y2="299.4688"/><rect fill="#E3E3E3" height="29.6406" rx="2.5" ry="2.5" style="stroke:#181818;stroke-width:0.5;" width="159" x="117.5" y="20.6406"/><text fill="#000000" font-family="sans-serif" font-size="14" lengthAdjust="spacing" textLength="145" x="124.5" y="40.3145">:VisitRequestController</text><rect fill="#E3E3E3" height="29.6406" rx="2.5" ry="2.5" style="stroke:#181818;stroke-width:0.5;" width="159" x="117.5" y="298.4688"/><text fill="#000000" font-family="sans-serif" font-size="14" lengthAdjust="spacing" textLength="145" x="124.5" y="318.1426">:VisitRequestController</text><rect fill="#E3E3E3" height="29.6406" rx="2.5" ry="2.5" style="stroke:#181818;stroke-width:0.5;" width="97" x="286.5" y="20.6406"/><text fill="#000000" font-family="sans-serif" font-size="14" lengthAdjust="spacing" textLength="83" x="293.5" y="40.3145">:Repositories</text><rect fill="#E3E3E3" height="29.6406" rx="2.5" ry="2.5" style="stroke:#181818;stroke-width:0.5;" width="97" x="286.5" y="298.4688"/><text fill="#000000" font-family="sans-serif" font-size="14" lengthAdjust="spacing" textLength="83" x="293.5" y="318.1426">:Repositories</text><rect fill="#E3E3E3" height="45.2813" rx="2.5" ry="2.5" style="stroke:#181818;stroke-width:0.5;" width="167" x="393.5" y="5"/><text fill="#000000" font-family="sans-serif" font-size="14" lengthAdjust="spacing" textLength="149" x="404.5" y="24.6738">visitRequestRepository:</text><text fill="#000000" font-family="sans-serif" font-size="14" lengthAdjust="spacing" textLength="147" x="403.5" y="40.3145">VisitRequestRepository</text><rect fill="#E3E3E3" height="45.2813" rx="2.5" ry="2.5" style="stroke:#181818;stroke-width:0.5;" width="167" x="393.5" y="298.4688"/><text fill="#000000" font-family="sans-serif" font-size="14" lengthAdjust="spacing" textLength="149" x="404.5" y="318.1426">visitRequestRepository:</text><text fill="#000000" font-family="sans-serif" font-size="14" lengthAdjust="spacing" textLength="147" x="403.5" y="333.7832">VisitRequestRepository</text><rect fill="#FFFFFF" height="199.6641" style="stroke:#181818;stroke-width:1.0;" width="10" x="192" y="81.8047"/><rect fill="#FFFFFF" height="28.5234" style="stroke:#181818;stroke-width:1.0;" width="10" x="330" y="110.3281"/><rect fill="#FFFFFF" height="28.5234" style="stroke:#181818;stroke-width:1.0;" width="10" x="472" y="167.375"/><rect fill="#FFFFFF" height="28.5234" style="stroke:#181818;stroke-width:1.0;" width="10" x="472" y="224.4219"/><polygon fill="#181818" points="180,77.8047,190,81.8047,180,85.8047,184,81.8047" style="stroke:#181818;stroke-width:1.0;"/><line style="stroke:#181818;stroke-width:1.0;" x1="0" x2="186" y1="81.8047" y2="81.8047"/><text fill="#000000" font-family="sans-serif" font-size="13" font-weight="bold" lengthAdjust="spacing" textLength="7" x="7" y="77.0498">3</text><text fill="#000000" font-family="sans-serif" font-size="13" lengthAdjust="spacing" textLength="107" x="18" y="77.0498">getVisitRequests()</text><polygon fill="#181818" points="318,106.3281,328,110.3281,318,114.3281,322,110.3281" style="stroke:#181818;stroke-width:1.0;"/><line style="stroke:#181818;stroke-width:1.0;" x1="202" x2="324" y1="110.3281" y2="110.3281"/><text fill="#000000" font-family="sans-serif" font-size="13" font-weight="bold" lengthAdjust="spacing" textLength="7" x="209" y="105.5732">4</text><text fill="#000000" font-family="sans-serif" font-size="13" lengthAdjust="spacing" textLength="75" x="220" y="105.5732">getInstance()</text><polygon fill="#181818" points="213,134.8516,203,138.8516,213,142.8516,209,138.8516" style="stroke:#181818;stroke-width:1.0;"/><line style="stroke:#181818;stroke-width:1.0;stroke-dasharray:2.0,2.0;" x1="207" x2="334" y1="138.8516" y2="138.8516"/><text fill="#000000" font-family="sans-serif" font-size="13" font-weight="bold" lengthAdjust="spacing" textLength="7" x="219" y="134.0967">5</text><text fill="#000000" font-family="sans-serif" font-size="13" lengthAdjust="spacing" textLength="72" x="230" y="134.0967">Repositories</text><polygon fill="#181818" points="460,163.375,470,167.375,460,171.375,464,167.375" style="stroke:#181818;stroke-width:1.0;"/><line style="stroke:#181818;stroke-width:1.0;" x1="202" x2="466" y1="167.375" y2="167.375"/><text fill="#000000" font-family="sans-serif" font-size="13" font-weight="bold" lengthAdjust="spacing" textLength="7" x="209" y="162.6201">6</text><text fill="#000000" font-family="sans-serif" font-size="13" lengthAdjust="spacing" textLength="162" x="220" y="162.6201">getVisitRequestRepository()</text><polygon fill="#181818" points="213,191.8984,203,195.8984,213,199.8984,209,195.8984" style="stroke:#181818;stroke-width:1.0;"/><line style="stroke:#181818;stroke-width:1.0;stroke-dasharray:2.0,2.0;" x1="207" x2="476" y1="195.8984" y2="195.8984"/><text fill="#000000" font-family="sans-serif" font-size="13" font-weight="bold" lengthAdjust="spacing" textLength="7" x="219" y="191.1436">7</text><text fill="#000000" font-family="sans-serif" font-size="13" lengthAdjust="spacing" textLength="132" x="230" y="191.1436">visitRequestRepository</text><polygon fill="#181818" points="460,220.4219,470,224.4219,460,228.4219,464,224.4219" style="stroke:#181818;stroke-width:1.0;"/><line style="stroke:#181818;stroke-width:1.0;" x1="202" x2="466" y1="224.4219" y2="224.4219"/><text fill="#000000" font-family="sans-serif" font-size="13" font-weight="bold" lengthAdjust="spacing" textLength="7" x="209" y="219.667">8</text><text fill="#000000" font-family="sans-serif" font-size="13" lengthAdjust="spacing" textLength="107" x="220" y="219.667">getVisitRequests()</text><polygon fill="#181818" points="213,248.9453,203,252.9453,213,256.9453,209,252.9453" style="stroke:#181818;stroke-width:1.0;"/><line style="stroke:#181818;stroke-width:1.0;stroke-dasharray:2.0,2.0;" x1="207" x2="476" y1="252.9453" y2="252.9453"/><text fill="#000000" font-family="sans-serif" font-size="13" font-weight="bold" lengthAdjust="spacing" textLength="7" x="219" y="248.1904">9</text><text fill="#000000" font-family="sans-serif" font-size="13" lengthAdjust="spacing" textLength="77" x="230" y="248.1904">visitRequests</text><polygon fill="#181818" points="11,277.4688,1,281.4688,11,285.4688,7,281.4688" style="stroke:#181818;stroke-width:1.0;"/><line style="stroke:#181818;stroke-width:1.0;stroke-dasharray:2.0,2.0;" x1="5" x2="196" y1="281.4688" y2="281.4688"/><text fill="#000000" font-family="sans-serif" font-size="13" font-weight="bold" lengthAdjust="spacing" textLength="14" x="17" y="276.7139">10</text><text fill="#000000" font-family="sans-serif" font-size="13" lengthAdjust="spacing" textLength="155" x="35" y="276.7139">provide list of visit requests</text><!--SRC=[ZPCnSy8m38Lt_meTIziXKxTSZuMfT-sIzZ9r4K447ucLsafQ_dsD0yGaGD5eFNz-UhRTLfi6BTPGi-5YOxac4DkISgTEWyKMI_gGNKLWgH0qPHKBt0PN_ADD2Mki72bVlY6wq0qQWLcQQwSbe- -Md2pOYEMg8Zi3TB3upDv6wemQzdgscbpGlACsfyNTkHgwY3s8qY-JNsm4O9vbIc4hRDfwIHQUbNhOw1N1cbcM_AiK72kP1ukGGaaI8ztZKoJR5nQYEnJgPu9H1OgddG_JSr-Dyw4Mv97ZRGDrbC9KEI8doVpWF0vqkcr5znzn7C87E0bas7XpZ93zfErNzuR30UcLExrf_J8sydlF3TvdT0WszkdK__x6afSaERwkndAtVu6LTWAyxj7-jntOrx3XgVdw0m00]--></g></svg>