<?xml version="1.0" encoding="us-ascii" standalone="no"?><svg xmlns="http://www.w3.org/2000/svg" xmlns:xlink="http://www.w3.org/1999/xlink" contentStyleType="text/css" height="1195px" preserveAspectRatio="none" style="width:2547px;height:1195px;background:#FFFFFF;" version="1.1" viewBox="0 0 2547 1195" width="2547px" zoomAndPan="magnify"><defs/><g><text fill="#000000" font-family="sans-serif" font-size="14" font-weight="bold" lengthAdjust="spacing" textLength="744" x="903.25" y="30.1074">As an Agent, I want to list real estate purchase orders to accept or decline a purchase order for a property</text><rect fill="#FFFFFF" height="961.4395" style="stroke:#181818;stroke-width:1.0;" width="10" x="36.5" y="133.2422"/><rect fill="#FFFFFF" height="119.873" style="stroke:#181818;stroke-width:1.0;" width="10" x="388.5" y="182.8242"/><rect fill="#FFFFFF" height="42.291" style="stroke:#181818;stroke-width:1.0;" width="10" x="393.5" y="222.1152"/><rect fill="#FFFFFF" height="727.4023" style="stroke:#181818;stroke-width:1.0;" width="10" x="388.5" y="367.2793"/><rect fill="#FFFFFF" height="42.291" style="stroke:#181818;stroke-width:1.0;" width="10" x="393.5" y="406.5703"/><rect fill="#FFFFFF" height="569.2383" style="stroke:#181818;stroke-width:1.0;" width="10" x="859.5" y="494.1523"/><rect fill="#FFFFFF" height="506.6563" style="stroke:#181818;stroke-width:1.0;" width="10" x="1330.5" y="525.4434"/><rect fill="#FFFFFF" height="93.873" style="stroke:#181818;stroke-width:1.0;" width="10" x="1808.5" y="583.0254"/><rect fill="#FFFFFF" height="93.873" style="stroke:#181818;stroke-width:1.0;" width="10" x="1808.5" y="741.4805"/><rect fill="#FFFFFF" height="93.873" style="stroke:#181818;stroke-width:1.0;" width="10" x="1808.5" y="899.9355"/><rect fill="#FFFFFF" height="31.291" style="stroke:#181818;stroke-width:1.0;" width="10" x="2286.5" y="614.3164"/><rect fill="#FFFFFF" height="31.291" style="stroke:#181818;stroke-width:1.0;" width="10" x="2383.5" y="772.7715"/><rect fill="#FFFFFF" height="31.291" style="stroke:#181818;stroke-width:1.0;" width="10" x="2483" y="931.2266"/><rect fill="none" height="170.4551" style="stroke:#000000;stroke-width:1.5;" width="514.5" x="10" y="140.2422"/><rect fill="none" height="139.1641" style="stroke:#000000;stroke-width:1.5;" width="521.5" x="10" y="324.6973"/><rect fill="none" height="144.4551" style="stroke:#000000;stroke-width:1.5;" width="1066.5" x="1276" y="540.4434"/><rect fill="none" height="144.4551" style="stroke:#000000;stroke-width:1.5;" width="1168.5" x="1276" y="698.8984"/><rect fill="none" height="144.4551" style="stroke:#000000;stroke-width:1.5;" width="1265.5" x="1276" y="857.3535"/><line style="stroke:#181818;stroke-width:0.5;stroke-dasharray:5.0,5.0;" x1="41" x2="41" y1="123.2422" y2="1112.6816"/><line style="stroke:#181818;stroke-width:0.5;stroke-dasharray:5.0,5.0;" x1="393.5" x2="393.5" y1="123.2422" y2="1112.6816"/><line style="stroke:#181818;stroke-width:0.5;stroke-dasharray:5.0,5.0;" x1="864.5" x2="864.5" y1="123.2422" y2="1112.6816"/><line style="stroke:#181818;stroke-width:0.5;stroke-dasharray:5.0,5.0;" x1="1335" x2="1335" y1="123.2422" y2="1112.6816"/><line style="stroke:#181818;stroke-width:0.5;stroke-dasharray:5.0,5.0;" x1="1813.5" x2="1813.5" y1="123.2422" y2="1112.6816"/><line style="stroke:#181818;stroke-width:0.5;stroke-dasharray:5.0,5.0;" x1="2291.5" x2="2291.5" y1="123.2422" y2="1112.6816"/><line style="stroke:#181818;stroke-width:0.5;stroke-dasharray:5.0,5.0;" x1="2388.5" x2="2388.5" y1="123.2422" y2="1112.6816"/><line style="stroke:#181818;stroke-width:0.5;stroke-dasharray:5.0,5.0;" x1="2487.5" x2="2487.5" y1="123.2422" y2="1112.6816"/><text fill="#000000" font-family="sans-serif" font-size="14" lengthAdjust="spacing" textLength="37" x="20" y="119.7285">Agent</text><ellipse cx="41.5" cy="53.1211" fill="#E3E3E3" rx="8" ry="8" style="stroke:#181818;stroke-width:0.5;"/><path d="M41.5,61.1211 L41.5,88.1211 M28.5,69.1211 L54.5,69.1211 M41.5,88.1211 L28.5,103.1211 M41.5,88.1211 L54.5,103.1211 " fill="none" style="stroke:#181818;stroke-width:0.5;"/><text fill="#000000" font-family="sans-serif" font-size="14" lengthAdjust="spacing" textLength="37" x="20" y="1126.7891">Agent</text><ellipse cx="41.5" cy="1138.8027" fill="#E3E3E3" rx="8" ry="8" style="stroke:#181818;stroke-width:0.5;"/><path d="M41.5,1146.8027 L41.5,1173.8027 M28.5,1154.8027 L54.5,1154.8027 M41.5,1173.8027 L28.5,1188.8027 M41.5,1173.8027 L54.5,1188.8027 " fill="none" style="stroke:#181818;stroke-width:0.5;"/><rect fill="#E3E3E3" height="32.6211" rx="2.5" ry="2.5" style="stroke:#181818;stroke-width:0.5;" width="156" x="315.5" y="89.6211"/><text fill="#000000" font-family="sans-serif" font-size="14" lengthAdjust="spacing" textLength="142" x="322.5" y="111.7285">:ListBookingRequestUI</text><rect fill="#E3E3E3" height="32.6211" rx="2.5" ry="2.5" style="stroke:#181818;stroke-width:0.5;" width="156" x="315.5" y="1111.6816"/><text fill="#000000" font-family="sans-serif" font-size="14" lengthAdjust="spacing" textLength="142" x="322.5" y="1133.7891">:ListBookingRequestUI</text><rect fill="#E3E3E3" height="32.6211" rx="2.5" ry="2.5" style="stroke:#181818;stroke-width:0.5;" width="206" x="761.5" y="89.6211"/><text fill="#000000" font-family="sans-serif" font-size="14" lengthAdjust="spacing" textLength="192" x="768.5" y="111.7285">:ListBookingRequestController</text><rect fill="#E3E3E3" height="32.6211" rx="2.5" ry="2.5" style="stroke:#181818;stroke-width:0.5;" width="206" x="761.5" y="1111.6816"/><text fill="#000000" font-family="sans-serif" font-size="14" lengthAdjust="spacing" textLength="192" x="768.5" y="1133.7891">:ListBookingRequestController</text><rect fill="#E3E3E3" height="32.6211" rx="2.5" ry="2.5" style="stroke:#181818;stroke-width:0.5;" width="99" x="1286" y="89.6211"/><text fill="#000000" font-family="sans-serif" font-size="14" lengthAdjust="spacing" textLength="85" x="1293" y="111.7285">Configuration</text><rect fill="#E3E3E3" height="32.6211" rx="2.5" ry="2.5" style="stroke:#181818;stroke-width:0.5;" width="99" x="1286" y="1111.6816"/><text fill="#000000" font-family="sans-serif" font-size="14" lengthAdjust="spacing" textLength="85" x="1293" y="1133.7891">Configuration</text><rect fill="#E3E3E3" height="32.6211" rx="2.5" ry="2.5" style="stroke:#181818;stroke-width:0.5;" width="80" x="1773.5" y="89.6211"/><text fill="#000000" font-family="sans-serif" font-size="14" lengthAdjust="spacing" textLength="66" x="1780.5" y="111.7285">EmailFilter</text><rect fill="#E3E3E3" height="32.6211" rx="2.5" ry="2.5" style="stroke:#181818;stroke-width:0.5;" width="80" x="1773.5" y="1111.6816"/><text fill="#000000" font-family="sans-serif" font-size="14" lengthAdjust="spacing" textLength="66" x="1780.5" y="1133.7891">EmailFilter</text><rect fill="#E3E3E3" height="32.6211" rx="2.5" ry="2.5" style="stroke:#181818;stroke-width:0.5;" width="82" x="2250.5" y="89.6211"/><text fill="#000000" font-family="sans-serif" font-size="14" lengthAdjust="spacing" textLength="68" x="2257.5" y="111.7285">GmailFilter</text><rect fill="#E3E3E3" height="32.6211" rx="2.5" ry="2.5" style="stroke:#181818;stroke-width:0.5;" width="82" x="2250.5" y="1111.6816"/><text fill="#000000" font-family="sans-serif" font-size="14" lengthAdjust="spacing" textLength="68" x="2257.5" y="1133.7891">GmailFilter</text><rect fill="#E3E3E3" height="32.6211" rx="2.5" ry="2.5" style="stroke:#181818;stroke-width:0.5;" width="92" x="2342.5" y="89.6211"/><text fill="#000000" font-family="sans-serif" font-size="14" lengthAdjust="spacing" textLength="78" x="2349.5" y="111.7285">HotmailFilter</text><rect fill="#E3E3E3" height="32.6211" rx="2.5" ry="2.5" style="stroke:#181818;stroke-width:0.5;" width="92" x="2342.5" y="1111.6816"/><text fill="#000000" font-family="sans-serif" font-size="14" lengthAdjust="spacing" textLength="78" x="2349.5" y="1133.7891">HotmailFilter</text><rect fill="#E3E3E3" height="32.6211" rx="2.5" ry="2.5" style="stroke:#181818;stroke-width:0.5;" width="87" x="2444.5" y="89.6211"/><text fill="#000000" font-family="sans-serif" font-size="14" lengthAdjust="spacing" textLength="73" x="2451.5" y="111.7285">YahooFilter</text><rect fill="#E3E3E3" height="32.6211" rx="2.5" ry="2.5" style="stroke:#181818;stroke-width:0.5;" width="87" x="2444.5" y="1111.6816"/><text fill="#000000" font-family="sans-serif" font-size="14" lengthAdjust="spacing" textLength="73" x="2451.5" y="1133.7891">YahooFilter</text><rect fill="#FFFFFF" height="961.4395" style="stroke:#181818;stroke-width:1.0;" width="10" x="36.5" y="133.2422"/><rect fill="#FFFFFF" height="119.873" style="stroke:#181818;stroke-width:1.0;" width="10" x="388.5" y="182.8242"/><rect fill="#FFFFFF" height="42.291" style="stroke:#181818;stroke-width:1.0;" width="10" x="393.5" y="222.1152"/><rect fill="#FFFFFF" height="727.4023" style="stroke:#181818;stroke-width:1.0;" width="10" x="388.5" y="367.2793"/><rect fill="#FFFFFF" height="42.291" style="stroke:#181818;stroke-width:1.0;" width="10" x="393.5" y="406.5703"/><rect fill="#FFFFFF" height="569.2383" style="stroke:#181818;stroke-width:1.0;" width="10" x="859.5" y="494.1523"/><rect fill="#FFFFFF" height="506.6563" style="stroke:#181818;stroke-width:1.0;" width="10" x="1330.5" y="525.4434"/><rect fill="#FFFFFF" height="93.873" style="stroke:#181818;stroke-width:1.0;" width="10" x="1808.5" y="583.0254"/><rect fill="#FFFFFF" height="93.873" style="stroke:#181818;stroke-width:1.0;" width="10" x="1808.5" y="741.4805"/><rect fill="#FFFFFF" height="93.873" style="stroke:#181818;stroke-width:1.0;" width="10" x="1808.5" y="899.9355"/><rect fill="#FFFFFF" height="31.291" style="stroke:#181818;stroke-width:1.0;" width="10" x="2286.5" y="614.3164"/><rect fill="#FFFFFF" height="31.291" style="stroke:#181818;stroke-width:1.0;" width="10" x="2383.5" y="772.7715"/><rect fill="#FFFFFF" height="31.291" style="stroke:#181818;stroke-width:1.0;" width="10" x="2483" y="931.2266"/><path d="M10,140.2422 L83,140.2422 L83,149.5332 L73,159.5332 L10,159.5332 L10,140.2422 " fill="#EEEEEE" style="stroke:#000000;stroke-width:1.5;"/><rect fill="none" height="170.4551" style="stroke:#000000;stroke-width:1.5;" width="514.5" x="10" y="140.2422"/><text fill="#000000" font-family="sans-serif" font-size="13" font-weight="bold" lengthAdjust="spacing" textLength="28" x="25" y="155.2705">loop</text><polygon fill="#181818" points="376.5,178.8242,386.5,182.8242,376.5,186.8242,380.5,182.8242" style="stroke:#181818;stroke-width:1.0;"/><line style="stroke:#181818;stroke-width:1.0;" x1="46.5" x2="382.5" y1="182.8242" y2="182.8242"/><text fill="#000000" font-family="sans-serif" font-size="13" font-weight="bold" lengthAdjust="spacing" textLength="7" x="53.5" y="177.5615">1</text><text fill="#000000" font-family="sans-serif" font-size="13" lengthAdjust="spacing" textLength="96" x="64.5" y="177.5615">selectes request</text><line style="stroke:#181818;stroke-width:1.0;" x1="398.5" x2="445.5" y1="209.1152" y2="209.1152"/><line style="stroke:#181818;stroke-width:1.0;" x1="445.5" x2="445.5" y1="209.1152" y2="222.1152"/><line style="stroke:#181818;stroke-width:1.0;" x1="404.5" x2="445.5" y1="222.1152" y2="222.1152"/><polygon fill="#181818" points="414.5,218.1152,404.5,222.1152,414.5,226.1152,410.5,222.1152" style="stroke:#181818;stroke-width:1.0;"/><text fill="#000000" font-family="sans-serif" font-size="13" font-weight="bold" lengthAdjust="spacing" textLength="7" x="410.5" y="203.8525">2</text><text fill="#000000" font-family="sans-serif" font-size="13" lengthAdjust="spacing" textLength="91" x="421.5" y="203.8525">selectRequest()</text><line style="stroke:#181818;stroke-width:1.0;" x1="403.5" x2="445.5" y1="263.4063" y2="263.4063"/><line style="stroke:#181818;stroke-width:1.0;" x1="445.5" x2="445.5" y1="263.4063" y2="276.4063"/><line style="stroke:#181818;stroke-width:1.0;" x1="398.5" x2="445.5" y1="276.4063" y2="276.4063"/><polygon fill="#181818" points="408.5,272.4063,398.5,276.4063,408.5,280.4063,404.5,276.4063" style="stroke:#181818;stroke-width:1.0;"/><text fill="#000000" font-family="sans-serif" font-size="13" font-weight="bold" lengthAdjust="spacing" textLength="7" x="410.5" y="258.1436">3</text><text fill="#000000" font-family="sans-serif" font-size="13" lengthAdjust="spacing" textLength="83" x="421.5" y="258.1436">ValidateInput()</text><polygon fill="#181818" points="57.5,298.6973,47.5,302.6973,57.5,306.6973,53.5,302.6973" style="stroke:#181818;stroke-width:1.0;"/><line style="stroke:#181818;stroke-width:1.0;stroke-dasharray:2.0,2.0;" x1="51.5" x2="392.5" y1="302.6973" y2="302.6973"/><text fill="#000000" font-family="sans-serif" font-size="13" font-weight="bold" lengthAdjust="spacing" textLength="7" x="63.5" y="297.4346">4</text><text fill="#000000" font-family="sans-serif" font-size="13" lengthAdjust="spacing" textLength="200" x="74.5" y="297.4346">asks what message wants to write</text><path d="M10,324.6973 L83,324.6973 L83,333.9883 L73,343.9883 L10,343.9883 L10,324.6973 " fill="#EEEEEE" style="stroke:#000000;stroke-width:1.5;"/><rect fill="none" height="139.1641" style="stroke:#000000;stroke-width:1.5;" width="521.5" x="10" y="324.6973"/><text fill="#000000" font-family="sans-serif" font-size="13" font-weight="bold" lengthAdjust="spacing" textLength="28" x="25" y="339.7256">loop</text><polygon fill="#181818" points="376.5,363.2793,386.5,367.2793,376.5,371.2793,380.5,367.2793" style="stroke:#181818;stroke-width:1.0;"/><line style="stroke:#181818;stroke-width:1.0;" x1="46.5" x2="382.5" y1="367.2793" y2="367.2793"/><text fill="#000000" font-family="sans-serif" font-size="13" font-weight="bold" lengthAdjust="spacing" textLength="7" x="53.5" y="362.0166">5</text><text fill="#000000" font-family="sans-serif" font-size="13" lengthAdjust="spacing" textLength="84" x="64.5" y="362.0166">submit answer</text><line style="stroke:#181818;stroke-width:1.0;" x1="398.5" x2="445.5" y1="393.5703" y2="393.5703"/><line style="stroke:#181818;stroke-width:1.0;" x1="445.5" x2="445.5" y1="393.5703" y2="406.5703"/><line style="stroke:#181818;stroke-width:1.0;" x1="404.5" x2="445.5" y1="406.5703" y2="406.5703"/><polygon fill="#181818" points="414.5,402.5703,404.5,406.5703,414.5,410.5703,410.5,406.5703" style="stroke:#181818;stroke-width:1.0;"/><text fill="#000000" font-family="sans-serif" font-size="13" font-weight="bold" lengthAdjust="spacing" textLength="7" x="410.5" y="388.3076">6</text><text fill="#000000" font-family="sans-serif" font-size="13" lengthAdjust="spacing" textLength="90" x="421.5" y="388.3076">submitAnswer()</text><line style="stroke:#181818;stroke-width:1.0;" x1="403.5" x2="445.5" y1="447.8613" y2="447.8613"/><line style="stroke:#181818;stroke-width:1.0;" x1="445.5" x2="445.5" y1="447.8613" y2="460.8613"/><line style="stroke:#181818;stroke-width:1.0;" x1="398.5" x2="445.5" y1="460.8613" y2="460.8613"/><polygon fill="#181818" points="408.5,456.8613,398.5,460.8613,408.5,464.8613,404.5,460.8613" style="stroke:#181818;stroke-width:1.0;"/><text fill="#000000" font-family="sans-serif" font-size="13" font-weight="bold" lengthAdjust="spacing" textLength="7" x="410.5" y="442.5986">7</text><text fill="#000000" font-family="sans-serif" font-size="13" lengthAdjust="spacing" textLength="98" x="421.5" y="442.5986">ValidateAnswer()</text><polygon fill="#181818" points="847.5,490.1523,857.5,494.1523,847.5,498.1523,851.5,494.1523" style="stroke:#181818;stroke-width:1.0;"/><line style="stroke:#181818;stroke-width:1.0;" x1="398.5" x2="853.5" y1="494.1523" y2="494.1523"/><text fill="#000000" font-family="sans-serif" font-size="13" font-weight="bold" lengthAdjust="spacing" textLength="7" x="405.5" y="488.8896">8</text><text fill="#000000" font-family="sans-serif" font-size="13" lengthAdjust="spacing" textLength="431" x="416.5" y="488.8896">createEmail(String sender, String receiver, String subject, String message)</text><polygon fill="#181818" points="1318.5,521.4434,1328.5,525.4434,1318.5,529.4434,1322.5,525.4434" style="stroke:#181818;stroke-width:1.0;"/><line style="stroke:#181818;stroke-width:1.0;" x1="869.5" x2="1324.5" y1="525.4434" y2="525.4434"/><text fill="#000000" font-family="sans-serif" font-size="13" font-weight="bold" lengthAdjust="spacing" textLength="7" x="876.5" y="520.1807">9</text><text fill="#000000" font-family="sans-serif" font-size="13" lengthAdjust="spacing" textLength="431" x="887.5" y="520.1807">createEmail(String sender, String receiver, String subject, String message)</text><path d="M1276,540.4434 L1337,540.4434 L1337,549.7344 L1327,559.7344 L1276,559.7344 L1276,540.4434 " fill="#EEEEEE" style="stroke:#000000;stroke-width:1.5;"/><rect fill="none" height="144.4551" style="stroke:#000000;stroke-width:1.5;" width="1066.5" x="1276" y="540.4434"/><text fill="#000000" font-family="sans-serif" font-size="13" font-weight="bold" lengthAdjust="spacing" textLength="16" x="1291" y="555.4717">alt</text><text fill="#000000" font-family="sans-serif" font-size="11" font-weight="bold" lengthAdjust="spacing" textLength="43" x="1352" y="554.3135">[filter =]</text><polygon fill="#181818" points="1796.5,579.0254,1806.5,583.0254,1796.5,587.0254,1800.5,583.0254" style="stroke:#181818;stroke-width:1.0;"/><line style="stroke:#181818;stroke-width:1.0;" x1="1340.5" x2="1802.5" y1="583.0254" y2="583.0254"/><text fill="#000000" font-family="sans-serif" font-size="13" font-weight="bold" lengthAdjust="spacing" textLength="14" x="1347.5" y="577.7627">10</text><text fill="#000000" font-family="sans-serif" font-size="13" lengthAdjust="spacing" textLength="431" x="1365.5" y="577.7627">createEmail(String sender, String receiver, String subject, String message)</text><polygon fill="#181818" points="2274.5,610.3164,2284.5,614.3164,2274.5,618.3164,2278.5,614.3164" style="stroke:#181818;stroke-width:1.0;"/><line style="stroke:#181818;stroke-width:1.0;" x1="1818.5" x2="2280.5" y1="614.3164" y2="614.3164"/><text fill="#000000" font-family="sans-serif" font-size="13" font-weight="bold" lengthAdjust="spacing" textLength="14" x="1825.5" y="609.0537">11</text><text fill="#000000" font-family="sans-serif" font-size="13" lengthAdjust="spacing" textLength="431" x="1843.5" y="609.0537">createEmail(String sender, String receiver, String subject, String message)</text><polygon fill="#181818" points="1829.5,641.6074,1819.5,645.6074,1829.5,649.6074,1825.5,645.6074" style="stroke:#181818;stroke-width:1.0;"/><line style="stroke:#181818;stroke-width:1.0;" x1="1823.5" x2="2290.5" y1="645.6074" y2="645.6074"/><text fill="#000000" font-family="sans-serif" font-size="13" font-weight="bold" lengthAdjust="spacing" textLength="14" x="1835.5" y="640.3447">12</text><text fill="#000000" font-family="sans-serif" font-size="13" lengthAdjust="spacing" textLength="53" x="1853.5" y="640.3447">message</text><polygon fill="#181818" points="1351.5,672.8984,1341.5,676.8984,1351.5,680.8984,1347.5,676.8984" style="stroke:#181818;stroke-width:1.0;"/><line style="stroke:#181818;stroke-width:1.0;stroke-dasharray:2.0,2.0;" x1="1345.5" x2="1812.5" y1="676.8984" y2="676.8984"/><text fill="#000000" font-family="sans-serif" font-size="13" font-weight="bold" lengthAdjust="spacing" textLength="14" x="1357.5" y="671.6357">13</text><text fill="#000000" font-family="sans-serif" font-size="13" lengthAdjust="spacing" textLength="53" x="1375.5" y="671.6357">message</text><path d="M1276,698.8984 L1337,698.8984 L1337,708.1895 L1327,718.1895 L1276,718.1895 L1276,698.8984 " fill="#EEEEEE" style="stroke:#000000;stroke-width:1.5;"/><rect fill="none" height="144.4551" style="stroke:#000000;stroke-width:1.5;" width="1168.5" x="1276" y="698.8984"/><text fill="#000000" font-family="sans-serif" font-size="13" font-weight="bold" lengthAdjust="spacing" textLength="16" x="1291" y="713.9268">alt</text><text fill="#000000" font-family="sans-serif" font-size="11" font-weight="bold" lengthAdjust="spacing" textLength="50" x="1352" y="712.7686">[filter = t]</text><polygon fill="#181818" points="1796.5,737.4805,1806.5,741.4805,1796.5,745.4805,1800.5,741.4805" style="stroke:#181818;stroke-width:1.0;"/><line style="stroke:#181818;stroke-width:1.0;" x1="1340.5" x2="1802.5" y1="741.4805" y2="741.4805"/><text fill="#000000" font-family="sans-serif" font-size="13" font-weight="bold" lengthAdjust="spacing" textLength="14" x="1347.5" y="736.2178">14</text><text fill="#000000" font-family="sans-serif" font-size="13" lengthAdjust="spacing" textLength="431" x="1365.5" y="736.2178">createEmail(String sender, String receiver, String subject, String message)</text><polygon fill="#181818" points="2371.5,768.7715,2381.5,772.7715,2371.5,776.7715,2375.5,772.7715" style="stroke:#181818;stroke-width:1.0;"/><line style="stroke:#181818;stroke-width:1.0;" x1="1818.5" x2="2377.5" y1="772.7715" y2="772.7715"/><text fill="#000000" font-family="sans-serif" font-size="13" font-weight="bold" lengthAdjust="spacing" textLength="14" x="1825.5" y="767.5088">15</text><text fill="#000000" font-family="sans-serif" font-size="13" lengthAdjust="spacing" textLength="431" x="1843.5" y="767.5088">createEmail(String sender, String receiver, String subject, String message)</text><polygon fill="#181818" points="1829.5,800.0625,1819.5,804.0625,1829.5,808.0625,1825.5,804.0625" style="stroke:#181818;stroke-width:1.0;"/><line style="stroke:#181818;stroke-width:1.0;" x1="1823.5" x2="2387.5" y1="804.0625" y2="804.0625"/><text fill="#000000" font-family="sans-serif" font-size="13" font-weight="bold" lengthAdjust="spacing" textLength="14" x="1835.5" y="798.7998">16</text><text fill="#000000" font-family="sans-serif" font-size="13" lengthAdjust="spacing" textLength="53" x="1853.5" y="798.7998">message</text><polygon fill="#181818" points="1351.5,831.3535,1341.5,835.3535,1351.5,839.3535,1347.5,835.3535" style="stroke:#181818;stroke-width:1.0;"/><line style="stroke:#181818;stroke-width:1.0;stroke-dasharray:2.0,2.0;" x1="1345.5" x2="1812.5" y1="835.3535" y2="835.3535"/><text fill="#000000" font-family="sans-serif" font-size="13" font-weight="bold" lengthAdjust="spacing" textLength="14" x="1357.5" y="830.0908">17</text><text fill="#000000" font-family="sans-serif" font-size="13" lengthAdjust="spacing" textLength="53" x="1375.5" y="830.0908">message</text><path d="M1276,857.3535 L1337,857.3535 L1337,866.6445 L1327,876.6445 L1276,876.6445 L1276,857.3535 " fill="#EEEEEE" style="stroke:#000000;stroke-width:1.5;"/><rect fill="none" height="144.4551" style="stroke:#000000;stroke-width:1.5;" width="1265.5" x="1276" y="857.3535"/><text fill="#000000" font-family="sans-serif" font-size="13" font-weight="bold" lengthAdjust="spacing" textLength="16" x="1291" y="872.3818">alt</text><text fill="#000000" font-family="sans-serif" font-size="11" font-weight="bold" lengthAdjust="spacing" textLength="50" x="1352" y="871.2236">[filter = t]</text><polygon fill="#181818" points="1796.5,895.9355,1806.5,899.9355,1796.5,903.9355,1800.5,899.9355" style="stroke:#181818;stroke-width:1.0;"/><line style="stroke:#181818;stroke-width:1.0;" x1="1340.5" x2="1802.5" y1="899.9355" y2="899.9355"/><text fill="#000000" font-family="sans-serif" font-size="13" font-weight="bold" lengthAdjust="spacing" textLength="14" x="1347.5" y="894.6729">18</text><text fill="#000000" font-family="sans-serif" font-size="13" lengthAdjust="spacing" textLength="431" x="1365.5" y="894.6729">createEmail(String sender, String receiver, String subject, String message)</text><polygon fill="#181818" points="2471,927.2266,2481,931.2266,2471,935.2266,2475,931.2266" style="stroke:#181818;stroke-width:1.0;"/><line style="stroke:#181818;stroke-width:1.0;" x1="1818.5" x2="2477" y1="931.2266" y2="931.2266"/><text fill="#000000" font-family="sans-serif" font-size="13" font-weight="bold" lengthAdjust="spacing" textLength="14" x="1825.5" y="925.9639">19</text><text fill="#000000" font-family="sans-serif" font-size="13" lengthAdjust="spacing" textLength="431" x="1843.5" y="925.9639">createEmail(String sender, String receiver, String subject, String message)</text><polygon fill="#181818" points="1829.5,958.5176,1819.5,962.5176,1829.5,966.5176,1825.5,962.5176" style="stroke:#181818;stroke-width:1.0;"/><line style="stroke:#181818;stroke-width:1.0;" x1="1823.5" x2="2487" y1="962.5176" y2="962.5176"/><text fill="#000000" font-family="sans-serif" font-size="13" font-weight="bold" lengthAdjust="spacing" textLength="14" x="1835.5" y="957.2549">20</text><text fill="#000000" font-family="sans-serif" font-size="13" lengthAdjust="spacing" textLength="53" x="1853.5" y="957.2549">message</text><polygon fill="#181818" points="1351.5,989.8086,1341.5,993.8086,1351.5,997.8086,1347.5,993.8086" style="stroke:#181818;stroke-width:1.0;"/><line style="stroke:#181818;stroke-width:1.0;stroke-dasharray:2.0,2.0;" x1="1345.5" x2="1812.5" y1="993.8086" y2="993.8086"/><text fill="#000000" font-family="sans-serif" font-size="13" font-weight="bold" lengthAdjust="spacing" textLength="14" x="1357.5" y="988.5459">21</text><text fill="#000000" font-family="sans-serif" font-size="13" lengthAdjust="spacing" textLength="53" x="1375.5" y="988.5459">message</text><polygon fill="#181818" points="880.5,1028.0996,870.5,1032.0996,880.5,1036.0996,876.5,1032.0996" style="stroke:#181818;stroke-width:1.0;"/><line style="stroke:#181818;stroke-width:1.0;stroke-dasharray:2.0,2.0;" x1="874.5" x2="1334.5" y1="1032.0996" y2="1032.0996"/><text fill="#000000" font-family="sans-serif" font-size="13" font-weight="bold" lengthAdjust="spacing" textLength="14" x="886.5" y="1026.8369">22</text><text fill="#000000" font-family="sans-serif" font-size="13" lengthAdjust="spacing" textLength="53" x="904.5" y="1026.8369">message</text><polygon fill="#181818" points="409.5,1059.3906,399.5,1063.3906,409.5,1067.3906,405.5,1063.3906" style="stroke:#181818;stroke-width:1.0;"/><line style="stroke:#181818;stroke-width:1.0;stroke-dasharray:2.0,2.0;" x1="403.5" x2="863.5" y1="1063.3906" y2="1063.3906"/><text fill="#000000" font-family="sans-serif" font-size="13" font-weight="bold" lengthAdjust="spacing" textLength="14" x="415.5" y="1058.1279">23</text><text fill="#000000" font-family="sans-serif" font-size="13" lengthAdjust="spacing" textLength="53" x="433.5" y="1058.1279">message</text><polygon fill="#181818" points="52.5,1090.6816,42.5,1094.6816,52.5,1098.6816,48.5,1094.6816" style="stroke:#181818;stroke-width:1.0;"/><line style="stroke:#181818;stroke-width:1.0;stroke-dasharray:2.0,2.0;" x1="46.5" x2="392.5" y1="1094.6816" y2="1094.6816"/><text fill="#000000" font-family="sans-serif" font-size="13" font-weight="bold" lengthAdjust="spacing" textLength="14" x="58.5" y="1089.4189">24</text><text fill="#000000" font-family="sans-serif" font-size="13" lengthAdjust="spacing" textLength="300" x="76.5" y="1089.4189">displays operation success and send email to client</text><!--SRC=[xLVRRjim37tNLn1zMGkqFn1W1RAYJGBqeUWDAB0NrMOShRBaINI3_FqenNPyoQNRMXG3fYUBEXGFfKERzY_A5DB9779hRB9mDaSWLwBmpKeXanUPuHsjD8B3XAJ9T1lW5pArIsKoc4ljKGXInD2n1sbWdA6XKvZ1KXe2ig2L9zv6Qa1FaX2AqYKBwH6iIz7vW959WWMn0L9Cj388iWU3EI-oqTa27Qs4a2LPK-RFwFWv8LuzYg6FG7eOJ-u5SoMLg2BGE1fTCujlrd8EsIt-B9dAmon27sO7aHVMaBDQeuiU5_Utr-9Br-aM2-iLir3e8wWnhEvKE3ucs_DnBPVlPhZ3pVNulkVogXXHaTe4OEV7hGjh8fSttGGvcxdAIYT9MRDEA5gwgCjSAdsbD5L9N-RhIHSrwQ4cMr5JIptST2lkIIwiRQ6U5XLAn2jMhq4zuMe5yCYSBGlGrXPnodOuE-VhX15ur2nRz2oxU2GHqEp0DnuDOJ2ywrGTul590zdXTtOUlHwbLYclpanHjhrIxFY9oec31Q8ZJk_5mt8X2NBqdiijraiiXgLJX6AuIR2WIGzdNpxdYhWM_PBFxasfHuznTFZjp0TklTHhSqDz4pnK4k-KyDk1C2hk-8vSUB5uHgCxXMhARo5Khoq3C_x1jzNCgqCy4KFoiLmRSnWnR0WVTV_E1A0tDZpMLJO4Q89vr3by7InM59biNO0VJBT3kIdwhR0m6bRCi2x-ZoSu83evI3ICIOjiwpYhK3jTMthU7sTp66rnxTg-jMrppdqC7rhGntxH0FtJifb-dcocRvBDzAzbC_qlctUNJTqSV89iDdt9FdYD-dFPx8_pSRBP9OlD5tjRb5Q4-bCdkb_SkjteUxSzmyUwRX3MpT88KkKBBLSUGkyVsrQ-GFvZyE678usN3HYkFtHF_Fl0Vm5RsYVHceOcyXS0]--></g></svg>