<?xml version="1.0" encoding="us-ascii" standalone="no"?><svg xmlns="http://www.w3.org/2000/svg" xmlns:xlink="http://www.w3.org/1999/xlink" contentStyleType="text/css" height="450.6px" preserveAspectRatio="none" style="width:786px;height:450px;background:#FFFFFF;" version="1.1" viewBox="0 0 786 450" width="786.6px" zoomAndPan="magnify"><defs><filter height="300%" id="fe9ghu2y11npd" width="300%" x="-1" y="-1"><feGaussianBlur result="blurOut" stdDeviation="1.2"/><feColorMatrix in="blurOut" result="blurOut2" type="matrix" values="0 0 0 0 0 0 0 0 0 0 0 0 0 0 0 0 0 0 .4 0"/><feOffset dx="2.4" dy="2.4" in="blurOut2" result="blurOut3"/><feBlend in="SourceGraphic" in2="blurOut3" mode="normal"/></filter></defs><g><!--class Client--><g id="elem_Client"><rect codeLine="11" fill="#F1F1F1" filter="url(#fe9ghu2y11npd)" height="85.1063" id="Client" rx="1.5" ry="1.5" style="stroke:#181818;stroke-width:0.3;" width="101.4" x="321.9" y="237.1529"/><ellipse cx="359.25" cy="246.7529" fill="#ADD1B2" rx="6.6" ry="6.6" style="stroke:#181818;stroke-width:0.6;"/><path d="M360.9094,244.2779 Q361.0031,244.1467 361.1156,244.0811 Q361.2281,244.0154 361.3594,244.0154 Q361.5844,244.0154 361.725,244.1748 Q361.8656,244.3248 361.8656,244.6904 L361.8656,245.5623 Q361.8656,245.9279 361.725,246.0873 Q361.5844,246.2467 361.3594,246.2467 Q361.1531,246.2467 361.0313,246.1248 Q360.9094,246.0123 360.8438,245.7029 Q360.8156,245.4873 360.7031,245.3748 Q360.5062,245.1498 360.1406,245.0186 Q359.775,244.8873 359.4,244.8873 Q358.9406,244.8873 358.5563,245.0842 Q358.1813,245.2811 357.8812,245.7311 Q357.5906,246.1811 357.5906,246.7998 L357.5906,247.4561 Q357.5906,248.1967 358.125,248.6936 Q358.6594,249.1811 359.6156,249.1811 Q360.1781,249.1811 360.5719,249.0311 Q360.8063,248.9373 361.0594,248.6748 Q361.2188,248.5154 361.3031,248.4686 Q361.3969,248.4217 361.5188,248.4217 Q361.7156,248.4217 361.8656,248.5811 Q362.025,248.7311 362.025,248.9373 Q362.025,249.1436 361.8187,249.3873 Q361.5188,249.7342 361.0406,249.9311 Q360.3938,250.2029 359.6156,250.2029 Q358.7063,250.2029 357.9844,249.8279 Q357.3938,249.5279 356.9813,248.8904 Q356.5687,248.2436 356.5687,247.4748 L356.5687,246.7811 Q356.5687,245.9842 356.9344,245.2998 Q357.3094,244.6061 357.9656,244.2404 Q358.6219,243.8654 359.3625,243.8654 Q359.8031,243.8654 360.1875,243.9686 Q360.5813,244.0623 360.9094,244.2779 Z " fill="#000000"/><text fill="#000000" font-family="sans-serif" font-size="8.4" lengthAdjust="spacing" textLength="21.6" x="371.55" y="249.665">Client</text><line style="stroke:#181818;stroke-width:0.3;" x1="322.5" x2="422.7" y1="256.3529" y2="256.3529"/><text fill="#000000" font-family="sans-serif" font-size="8.4" lengthAdjust="spacing" textLength="48.6" x="325.5" y="266.3572">-String name</text><text fill="#000000" font-family="sans-serif" font-size="8.4" lengthAdjust="spacing" textLength="47.4" x="325.5" y="275.7416">-String email</text><text fill="#000000" font-family="sans-serif" font-size="8.4" lengthAdjust="spacing" textLength="94.2" x="325.5" y="285.126">-Integer passportNumber</text><text fill="#000000" font-family="sans-serif" font-size="8.4" lengthAdjust="spacing" textLength="67.8" x="325.5" y="294.5104">-String taxNumber</text><text fill="#000000" font-family="sans-serif" font-size="8.4" lengthAdjust="spacing" textLength="67.2" x="325.5" y="303.8947">-Address address</text><text fill="#000000" font-family="sans-serif" font-size="8.4" lengthAdjust="spacing" textLength="85.2" x="325.5" y="313.2791">-Integer phoneNumber</text><line style="stroke:#181818;stroke-width:0.3;" x1="322.5" x2="422.7" y1="317.4592" y2="317.4592"/></g><!--class Address--><g id="elem_Address"><rect codeLine="20" fill="#F1F1F1" filter="url(#fe9ghu2y11npd)" height="56.9531" id="Address" rx="1.5" ry="1.5" style="stroke:#181818;stroke-width:0.3;" width="87.6" x="109.2" y="143.5529"/><ellipse cx="134.94" cy="153.1529" fill="#ADD1B2" rx="6.6" ry="6.6" style="stroke:#181818;stroke-width:0.6;"/><path d="M136.5994,150.6779 Q136.6931,150.5467 136.8056,150.4811 Q136.9181,150.4154 137.0494,150.4154 Q137.2744,150.4154 137.415,150.5748 Q137.5556,150.7248 137.5556,151.0904 L137.5556,151.9623 Q137.5556,152.3279 137.415,152.4873 Q137.2744,152.6467 137.0494,152.6467 Q136.8431,152.6467 136.7213,152.5248 Q136.5994,152.4123 136.5338,152.1029 Q136.5056,151.8873 136.3931,151.7748 Q136.1963,151.5498 135.8306,151.4186 Q135.465,151.2873 135.09,151.2873 Q134.6306,151.2873 134.2463,151.4842 Q133.8713,151.6811 133.5713,152.1311 Q133.2806,152.5811 133.2806,153.1998 L133.2806,153.8561 Q133.2806,154.5967 133.815,155.0936 Q134.3494,155.5811 135.3056,155.5811 Q135.8681,155.5811 136.2619,155.4311 Q136.4963,155.3373 136.7494,155.0748 Q136.9088,154.9154 136.9931,154.8686 Q137.0869,154.8217 137.2088,154.8217 Q137.4056,154.8217 137.5556,154.9811 Q137.715,155.1311 137.715,155.3373 Q137.715,155.5436 137.5088,155.7873 Q137.2088,156.1342 136.7306,156.3311 Q136.0838,156.6029 135.3056,156.6029 Q134.3963,156.6029 133.6744,156.2279 Q133.0838,155.9279 132.6713,155.2904 Q132.2588,154.6436 132.2588,153.8748 L132.2588,153.1811 Q132.2588,152.3842 132.6244,151.6998 Q132.9994,151.0061 133.6556,150.6404 Q134.3119,150.2654 135.0525,150.2654 Q135.4931,150.2654 135.8775,150.3686 Q136.2713,150.4623 136.5994,150.6779 Z " fill="#000000"/><text fill="#000000" font-family="sans-serif" font-size="8.4" lengthAdjust="spacing" textLength="31.2" x="147.06" y="156.065">Address</text><line style="stroke:#181818;stroke-width:0.3;" x1="109.8" x2="196.2" y1="162.7529" y2="162.7529"/><text fill="#000000" font-family="sans-serif" font-size="8.4" lengthAdjust="spacing" textLength="80.4" x="112.8" y="172.7572">-String streetAddress</text><text fill="#000000" font-family="sans-serif" font-size="8.4" lengthAdjust="spacing" textLength="46.2" x="112.8" y="182.1416">-String state</text><text fill="#000000" font-family="sans-serif" font-size="8.4" lengthAdjust="spacing" textLength="62.4" x="112.8" y="191.526">-Integer zipCode</text><line style="stroke:#181818;stroke-width:0.3;" x1="109.8" x2="196.2" y1="195.7061" y2="195.7061"/></g><!--class Employee--><g id="elem_Employee"><rect codeLine="27" fill="#F1F1F1" filter="url(#fe9ghu2y11npd)" height="75.7219" id="Employee" rx="1.5" ry="1.5" style="stroke:#181818;stroke-width:0.3;" width="101.4" x="169.5" y="367.9529"/><ellipse cx="199.05" cy="377.5529" fill="#ADD1B2" rx="6.6" ry="6.6" style="stroke:#181818;stroke-width:0.6;"/><path d="M200.7094,375.0779 Q200.8031,374.9467 200.9156,374.8811 Q201.0281,374.8154 201.1594,374.8154 Q201.3844,374.8154 201.525,374.9748 Q201.6656,375.1248 201.6656,375.4904 L201.6656,376.3623 Q201.6656,376.7279 201.525,376.8873 Q201.3844,377.0467 201.1594,377.0467 Q200.9531,377.0467 200.8312,376.9248 Q200.7094,376.8123 200.6437,376.5029 Q200.6156,376.2873 200.5031,376.1748 Q200.3063,375.9498 199.9406,375.8186 Q199.575,375.6873 199.2,375.6873 Q198.7406,375.6873 198.3563,375.8842 Q197.9813,376.0811 197.6813,376.5311 Q197.3906,376.9811 197.3906,377.5998 L197.3906,378.2561 Q197.3906,378.9967 197.925,379.4936 Q198.4594,379.9811 199.4156,379.9811 Q199.9781,379.9811 200.3719,379.8311 Q200.6063,379.7373 200.8594,379.4748 Q201.0187,379.3154 201.1031,379.2686 Q201.1969,379.2217 201.3188,379.2217 Q201.5156,379.2217 201.6656,379.3811 Q201.825,379.5311 201.825,379.7373 Q201.825,379.9436 201.6188,380.1873 Q201.3188,380.5342 200.8406,380.7311 Q200.1938,381.0029 199.4156,381.0029 Q198.5063,381.0029 197.7844,380.6279 Q197.1938,380.3279 196.7813,379.6904 Q196.3688,379.0436 196.3688,378.2748 L196.3688,377.5811 Q196.3688,376.7842 196.7344,376.0998 Q197.1094,375.4061 197.7656,375.0404 Q198.4219,374.6654 199.1625,374.6654 Q199.6031,374.6654 199.9875,374.7686 Q200.3813,374.8623 200.7094,375.0779 Z " fill="#000000"/><text fill="#000000" font-family="sans-serif" font-size="8.4" lengthAdjust="spacing" textLength="37.2" x="211.35" y="380.465">Employee</text><line style="stroke:#181818;stroke-width:0.3;" x1="170.1" x2="270.3" y1="387.1529" y2="387.1529"/><text fill="#000000" font-family="sans-serif" font-size="8.4" lengthAdjust="spacing" textLength="48.6" x="173.1" y="397.1572">-String name</text><text fill="#000000" font-family="sans-serif" font-size="8.4" lengthAdjust="spacing" textLength="94.2" x="173.1" y="406.5416">-Integer passportNumber</text><text fill="#000000" font-family="sans-serif" font-size="8.4" lengthAdjust="spacing" textLength="67.8" x="173.1" y="415.926">-String taxNumber</text><text fill="#000000" font-family="sans-serif" font-size="8.4" lengthAdjust="spacing" textLength="47.4" x="173.1" y="425.3104">-String email</text><text fill="#000000" font-family="sans-serif" font-size="8.4" lengthAdjust="spacing" textLength="85.2" x="173.1" y="434.6947">-Integer phoneNumber</text><line style="stroke:#181818;stroke-width:0.3;" x1="170.1" x2="270.3" y1="438.8748" y2="438.8748"/></g><!--class Repositories--><g id="elem_Repositories"><rect codeLine="35" fill="#F1F1F1" filter="url(#fe9ghu2y11npd)" height="66.3375" id="Repositories" rx="1.5" ry="1.5" style="stroke:#181818;stroke-width:0.3;" width="118.2" x="606.9" y="31.3529"/><ellipse cx="639.75" cy="40.9529" fill="#ADD1B2" rx="6.6" ry="6.6" style="stroke:#181818;stroke-width:0.6;"/><path d="M641.4094,38.4779 Q641.5031,38.3467 641.6156,38.2811 Q641.7281,38.2154 641.8594,38.2154 Q642.0844,38.2154 642.225,38.3748 Q642.3656,38.5248 642.3656,38.8904 L642.3656,39.7623 Q642.3656,40.1279 642.225,40.2873 Q642.0844,40.4467 641.8594,40.4467 Q641.6531,40.4467 641.5313,40.3248 Q641.4094,40.2123 641.3438,39.9029 Q641.3156,39.6873 641.2031,39.5748 Q641.0063,39.3498 640.6406,39.2186 Q640.275,39.0873 639.9,39.0873 Q639.4406,39.0873 639.0563,39.2842 Q638.6813,39.4811 638.3813,39.9311 Q638.0906,40.3811 638.0906,40.9998 L638.0906,41.6561 Q638.0906,42.3967 638.625,42.8936 Q639.1594,43.3811 640.1156,43.3811 Q640.6781,43.3811 641.0719,43.2311 Q641.3063,43.1373 641.5594,42.8748 Q641.7188,42.7154 641.8031,42.6686 Q641.8969,42.6217 642.0188,42.6217 Q642.2156,42.6217 642.3656,42.7811 Q642.525,42.9311 642.525,43.1373 Q642.525,43.3436 642.3188,43.5873 Q642.0188,43.9342 641.5406,44.1311 Q640.8938,44.4029 640.1156,44.4029 Q639.2063,44.4029 638.4844,44.0279 Q637.8938,43.7279 637.4812,43.0904 Q637.0688,42.4436 637.0688,41.6748 L637.0688,40.9811 Q637.0688,40.1842 637.4344,39.4998 Q637.8094,38.8061 638.4656,38.4404 Q639.1219,38.0654 639.8625,38.0654 Q640.3031,38.0654 640.6875,38.1686 Q641.0813,38.2623 641.4094,38.4779 Z " fill="#000000"/><text fill="#000000" font-family="sans-serif" font-size="8.4" lengthAdjust="spacing" textLength="47.4" x="652.05" y="43.865">Repositories</text><line style="stroke:#181818;stroke-width:0.3;" x1="607.5" x2="724.5" y1="50.5529" y2="50.5529"/><line style="stroke:#181818;stroke-width:0.3;" x1="607.5" x2="724.5" y1="55.3529" y2="55.3529"/><text fill="#000000" font-family="sans-serif" font-size="8.4" lengthAdjust="spacing" textLength="56.4" x="610.5" y="65.3572">-Repositories()</text><text fill="#000000" font-family="sans-serif" font-size="8.4" lengthAdjust="spacing" textLength="109.2" x="610.5" y="74.7416">+getInstance() : Repositories</text><text fill="#000000" font-family="sans-serif" font-size="8.4" lengthAdjust="spacing" textLength="111" x="610.5" y="84.126">+getVisitRequestRepository()</text><text fill="#000000" font-family="sans-serif" font-size="8.4" lengthAdjust="spacing" textLength="85.2" x="610.5" y="93.5104">+getClientRepository()</text></g><!--class ClientRepository--><g id="elem_ClientRepository"><rect codeLine="43" fill="#F1F1F1" filter="url(#fe9ghu2y11npd)" height="38.1844" id="ClientRepository" rx="1.5" ry="1.5" style="stroke:#181818;stroke-width:0.3;" width="81.6" x="325.2" y="152.8529"/><ellipse cx="334.2" cy="162.4529" fill="#ADD1B2" rx="6.6" ry="6.6" style="stroke:#181818;stroke-width:0.6;"/><path d="M335.8594,159.9779 Q335.9531,159.8467 336.0656,159.7811 Q336.1781,159.7154 336.3094,159.7154 Q336.5344,159.7154 336.675,159.8748 Q336.8156,160.0248 336.8156,160.3904 L336.8156,161.2623 Q336.8156,161.6279 336.675,161.7873 Q336.5344,161.9467 336.3094,161.9467 Q336.1031,161.9467 335.9813,161.8248 Q335.8594,161.7123 335.7938,161.4029 Q335.7656,161.1873 335.6531,161.0748 Q335.4563,160.8498 335.0906,160.7186 Q334.725,160.5873 334.35,160.5873 Q333.8906,160.5873 333.5062,160.7842 Q333.1312,160.9811 332.8313,161.4311 Q332.5406,161.8811 332.5406,162.4998 L332.5406,163.1561 Q332.5406,163.8967 333.075,164.3936 Q333.6094,164.8811 334.5656,164.8811 Q335.1281,164.8811 335.5219,164.7311 Q335.7562,164.6373 336.0094,164.3748 Q336.1688,164.2154 336.2531,164.1686 Q336.3469,164.1217 336.4688,164.1217 Q336.6656,164.1217 336.8156,164.2811 Q336.975,164.4311 336.975,164.6373 Q336.975,164.8436 336.7688,165.0873 Q336.4688,165.4342 335.9906,165.6311 Q335.3438,165.9029 334.5656,165.9029 Q333.6563,165.9029 332.9344,165.5279 Q332.3438,165.2279 331.9313,164.5904 Q331.5188,163.9436 331.5188,163.1748 L331.5188,162.4811 Q331.5188,161.6842 331.8844,160.9998 Q332.2594,160.3061 332.9156,159.9404 Q333.5719,159.5654 334.3125,159.5654 Q334.7531,159.5654 335.1375,159.6686 Q335.5313,159.7623 335.8594,159.9779 Z " fill="#000000"/><text fill="#000000" font-family="sans-serif" font-size="8.4" lengthAdjust="spacing" textLength="62.4" x="342.6" y="165.365">ClientRepository</text><line style="stroke:#181818;stroke-width:0.3;" x1="325.8" x2="406.2" y1="172.0529" y2="172.0529"/><line style="stroke:#181818;stroke-width:0.3;" x1="325.8" x2="406.2" y1="176.8529" y2="176.8529"/><text fill="#000000" font-family="sans-serif" font-size="8.4" lengthAdjust="spacing" textLength="44.4" x="328.8" y="186.8572">+getClient()</text></g><!--class VisitRequestRepository--><g id="elem_VisitRequestRepository"><rect codeLine="50" fill="#F1F1F1" filter="url(#fe9ghu2y11npd)" height="38.1844" id="VisitRequestRepository" rx="1.5" ry="1.5" style="stroke:#181818;stroke-width:0.3;" width="107.4" x="428.1" y="152.8529"/><ellipse cx="437.1" cy="162.4529" fill="#ADD1B2" rx="6.6" ry="6.6" style="stroke:#181818;stroke-width:0.6;"/><path d="M438.7594,159.9779 Q438.8531,159.8467 438.9656,159.7811 Q439.0781,159.7154 439.2094,159.7154 Q439.4344,159.7154 439.575,159.8748 Q439.7156,160.0248 439.7156,160.3904 L439.7156,161.2623 Q439.7156,161.6279 439.575,161.7873 Q439.4344,161.9467 439.2094,161.9467 Q439.0031,161.9467 438.8812,161.8248 Q438.7594,161.7123 438.6937,161.4029 Q438.6656,161.1873 438.5531,161.0748 Q438.3563,160.8498 437.9906,160.7186 Q437.625,160.5873 437.25,160.5873 Q436.7906,160.5873 436.4063,160.7842 Q436.0313,160.9811 435.7313,161.4311 Q435.4406,161.8811 435.4406,162.4998 L435.4406,163.1561 Q435.4406,163.8967 435.975,164.3936 Q436.5094,164.8811 437.4656,164.8811 Q438.0281,164.8811 438.4219,164.7311 Q438.6563,164.6373 438.9094,164.3748 Q439.0687,164.2154 439.1531,164.1686 Q439.2469,164.1217 439.3688,164.1217 Q439.5656,164.1217 439.7156,164.2811 Q439.875,164.4311 439.875,164.6373 Q439.875,164.8436 439.6688,165.0873 Q439.3688,165.4342 438.8906,165.6311 Q438.2438,165.9029 437.4656,165.9029 Q436.5563,165.9029 435.8344,165.5279 Q435.2438,165.2279 434.8313,164.5904 Q434.4188,163.9436 434.4188,163.1748 L434.4188,162.4811 Q434.4188,161.6842 434.7844,160.9998 Q435.1594,160.3061 435.8156,159.9404 Q436.4719,159.5654 437.2125,159.5654 Q437.6531,159.5654 438.0375,159.6686 Q438.4313,159.7623 438.7594,159.9779 Z " fill="#000000"/><text fill="#000000" font-family="sans-serif" font-size="8.4" lengthAdjust="spacing" textLength="88.2" x="445.5" y="165.365">VisitRequestRepository</text><line style="stroke:#181818;stroke-width:0.3;" x1="428.7" x2="534.9" y1="172.0529" y2="172.0529"/><line style="stroke:#181818;stroke-width:0.3;" x1="428.7" x2="534.9" y1="176.8529" y2="176.8529"/><text fill="#000000" font-family="sans-serif" font-size="8.4" lengthAdjust="spacing" textLength="74.4" x="431.7" y="186.8572">+getVisitRequests()</text></g><!--class VisitRequest--><g id="elem_VisitRequest"><rect codeLine="55" fill="#F1F1F1" filter="url(#fe9ghu2y11npd)" height="66.3375" id="VisitRequest" rx="1.5" ry="1.5" style="stroke:#181818;stroke-width:0.3;" width="112.8" x="330.6" y="372.4529"/><ellipse cx="360.75" cy="382.0529" fill="#ADD1B2" rx="6.6" ry="6.6" style="stroke:#181818;stroke-width:0.6;"/><path d="M362.4094,379.5779 Q362.5031,379.4467 362.6156,379.3811 Q362.7281,379.3154 362.8594,379.3154 Q363.0844,379.3154 363.225,379.4748 Q363.3656,379.6248 363.3656,379.9904 L363.3656,380.8623 Q363.3656,381.2279 363.225,381.3873 Q363.0844,381.5467 362.8594,381.5467 Q362.6531,381.5467 362.5313,381.4248 Q362.4094,381.3123 362.3438,381.0029 Q362.3156,380.7873 362.2031,380.6748 Q362.0062,380.4498 361.6406,380.3186 Q361.275,380.1873 360.9,380.1873 Q360.4406,380.1873 360.0563,380.3842 Q359.6813,380.5811 359.3812,381.0311 Q359.0906,381.4811 359.0906,382.0998 L359.0906,382.7561 Q359.0906,383.4967 359.625,383.9936 Q360.1594,384.4811 361.1156,384.4811 Q361.6781,384.4811 362.0719,384.3311 Q362.3063,384.2373 362.5594,383.9748 Q362.7188,383.8154 362.8031,383.7686 Q362.8969,383.7217 363.0188,383.7217 Q363.2156,383.7217 363.3656,383.8811 Q363.525,384.0311 363.525,384.2373 Q363.525,384.4436 363.3187,384.6873 Q363.0188,385.0342 362.5406,385.2311 Q361.8938,385.5029 361.1156,385.5029 Q360.2063,385.5029 359.4844,385.1279 Q358.8938,384.8279 358.4813,384.1904 Q358.0687,383.5436 358.0687,382.7748 L358.0687,382.0811 Q358.0687,381.2842 358.4344,380.5998 Q358.8094,379.9061 359.4656,379.5404 Q360.1219,379.1654 360.8625,379.1654 Q361.3031,379.1654 361.6875,379.2686 Q362.0813,379.3623 362.4094,379.5779 Z " fill="#000000"/><text fill="#000000" font-family="sans-serif" font-size="8.4" lengthAdjust="spacing" textLength="47.4" x="373.05" y="384.965">VisitRequest</text><line style="stroke:#181818;stroke-width:0.3;" x1="331.2" x2="442.8" y1="391.6529" y2="391.6529"/><text fill="#000000" font-family="sans-serif" font-size="8.4" lengthAdjust="spacing" textLength="81" x="334.2" y="401.6572">-String preferredDate</text><text fill="#000000" font-family="sans-serif" font-size="8.4" lengthAdjust="spacing" textLength="57.6" x="334.2" y="411.0416">-String timeSlot</text><text fill="#000000" font-family="sans-serif" font-size="8.4" lengthAdjust="spacing" textLength="69" x="334.2" y="420.426">-String clientName</text><text fill="#000000" font-family="sans-serif" font-size="8.4" lengthAdjust="spacing" textLength="105.6" x="334.2" y="429.8104">-Integer clientPhoneNumber</text><line style="stroke:#181818;stroke-width:0.3;" x1="331.2" x2="442.8" y1="433.9904" y2="433.9904"/></g><!--class Person--><g id="elem_Person"><rect codeLine="69" fill="#F1F1F1" filter="url(#fe9ghu2y11npd)" height="47.5688" id="Person" rx="1.5" ry="1.5" style="stroke:#181818;stroke-width:0.3;" width="55.8" x="125.1" y="256.0529"/><ellipse cx="138.42" cy="265.6529" fill="#ADD1B2" rx="6.6" ry="6.6" style="stroke:#181818;stroke-width:0.6;"/><path d="M140.0794,263.1779 Q140.1731,263.0467 140.2856,262.9811 Q140.3981,262.9154 140.5294,262.9154 Q140.7544,262.9154 140.895,263.0748 Q141.0356,263.2248 141.0356,263.5904 L141.0356,264.4623 Q141.0356,264.8279 140.895,264.9873 Q140.7544,265.1467 140.5294,265.1467 Q140.3231,265.1467 140.2013,265.0248 Q140.0794,264.9123 140.0138,264.6029 Q139.9856,264.3873 139.8731,264.2748 Q139.6762,264.0498 139.3106,263.9186 Q138.945,263.7873 138.57,263.7873 Q138.1106,263.7873 137.7263,263.9842 Q137.3513,264.1811 137.0512,264.6311 Q136.7606,265.0811 136.7606,265.6998 L136.7606,266.3561 Q136.7606,267.0967 137.295,267.5936 Q137.8294,268.0811 138.7856,268.0811 Q139.3481,268.0811 139.7419,267.9311 Q139.9763,267.8373 140.2294,267.5748 Q140.3888,267.4154 140.4731,267.3686 Q140.5669,267.3217 140.6888,267.3217 Q140.8856,267.3217 141.0356,267.4811 Q141.195,267.6311 141.195,267.8373 Q141.195,268.0436 140.9887,268.2873 Q140.6888,268.6342 140.2106,268.8311 Q139.5638,269.1029 138.7856,269.1029 Q137.8763,269.1029 137.1544,268.7279 Q136.5638,268.4279 136.1512,267.7904 Q135.7387,267.1436 135.7387,266.3748 L135.7387,265.6811 Q135.7387,264.8842 136.1044,264.1998 Q136.4794,263.5061 137.1356,263.1404 Q137.7919,262.7654 138.5325,262.7654 Q138.9731,262.7654 139.3575,262.8686 Q139.7513,262.9623 140.0794,263.1779 Z " fill="#000000"/><text fill="#000000" font-family="sans-serif" font-size="8.4" lengthAdjust="spacing" textLength="27" x="147.78" y="268.565">Person</text><line style="stroke:#181818;stroke-width:0.3;" x1="125.7" x2="180.3" y1="275.2529" y2="275.2529"/><text fill="#000000" font-family="sans-serif" font-size="8.4" lengthAdjust="spacing" textLength="48.6" x="128.7" y="285.2572">-String name</text><text fill="#000000" font-family="sans-serif" font-size="8.4" lengthAdjust="spacing" textLength="47.4" x="128.7" y="294.6416">-String email</text><line style="stroke:#181818;stroke-width:0.3;" x1="125.7" x2="180.3" y1="298.8217" y2="298.8217"/></g><!--class RespondVisitRequestController--><g id="elem_RespondVisitRequestController"><rect codeLine="78" fill="#F1F1F1" filter="url(#fe9ghu2y11npd)" height="56.9531" id="RespondVisitRequestController" rx="1.5" ry="1.5" style="stroke:#181818;stroke-width:0.3;" width="293.4" x="133.5" y="36.1529"/><ellipse cx="218.25" cy="45.7529" fill="#ADD1B2" rx="6.6" ry="6.6" style="stroke:#181818;stroke-width:0.6;"/><path d="M219.9094,43.2779 Q220.0031,43.1467 220.1156,43.0811 Q220.2281,43.0154 220.3594,43.0154 Q220.5844,43.0154 220.725,43.1748 Q220.8656,43.3248 220.8656,43.6904 L220.8656,44.5623 Q220.8656,44.9279 220.725,45.0873 Q220.5844,45.2467 220.3594,45.2467 Q220.1531,45.2467 220.0313,45.1248 Q219.9094,45.0123 219.8438,44.7029 Q219.8156,44.4873 219.7031,44.3748 Q219.5063,44.1498 219.1406,44.0186 Q218.775,43.8873 218.4,43.8873 Q217.9406,43.8873 217.5563,44.0842 Q217.1813,44.2811 216.8813,44.7311 Q216.5906,45.1811 216.5906,45.7998 L216.5906,46.4561 Q216.5906,47.1967 217.125,47.6936 Q217.6594,48.1811 218.6156,48.1811 Q219.1781,48.1811 219.5719,48.0311 Q219.8063,47.9373 220.0594,47.6748 Q220.2188,47.5154 220.3031,47.4686 Q220.3969,47.4217 220.5187,47.4217 Q220.7156,47.4217 220.8656,47.5811 Q221.025,47.7311 221.025,47.9373 Q221.025,48.1436 220.8188,48.3873 Q220.5187,48.7342 220.0406,48.9311 Q219.3937,49.2029 218.6156,49.2029 Q217.7062,49.2029 216.9844,48.8279 Q216.3937,48.5279 215.9813,47.8904 Q215.5688,47.2436 215.5688,46.4748 L215.5688,45.7811 Q215.5688,44.9842 215.9344,44.2998 Q216.3094,43.6061 216.9656,43.2404 Q217.6219,42.8654 218.3625,42.8654 Q218.8031,42.8654 219.1875,42.9686 Q219.5812,43.0623 219.9094,43.2779 Z " fill="#000000"/><text fill="#000000" font-family="sans-serif" font-size="8.4" lengthAdjust="spacing" textLength="118.8" x="230.55" y="48.665">RespondVisitRequestController</text><line style="stroke:#181818;stroke-width:0.3;" x1="134.1" x2="426.3" y1="55.3529" y2="55.3529"/><line style="stroke:#181818;stroke-width:0.3;" x1="134.1" x2="426.3" y1="60.1529" y2="60.1529"/><text fill="#000000" font-family="sans-serif" font-size="8.4" lengthAdjust="spacing" textLength="286.2" x="137.1" y="70.1572">+createEmail(String sender, String receiver, String subject, String message)</text><text fill="#000000" font-family="sans-serif" font-size="8.4" lengthAdjust="spacing" textLength="57.6" x="137.1" y="79.5416">+getClientLIst()</text><text fill="#000000" font-family="sans-serif" font-size="8.4" lengthAdjust="spacing" textLength="74.4" x="137.1" y="88.926">+getVisitRequests()</text></g><!--class RespondVisitRequestUI--><g id="elem_RespondVisitRequestUI"><rect codeLine="88" fill="#F1F1F1" filter="url(#fe9ghu2y11npd)" height="28.8" id="RespondVisitRequestUI" rx="1.5" ry="1.5" style="stroke:#181818;stroke-width:0.3;" width="108" x="4.2" y="50.2529"/><ellipse cx="13.2" cy="59.8529" fill="#ADD1B2" rx="6.6" ry="6.6" style="stroke:#181818;stroke-width:0.6;"/><path d="M14.8594,57.3779 Q14.9531,57.2467 15.0656,57.1811 Q15.1781,57.1154 15.3094,57.1154 Q15.5344,57.1154 15.675,57.2748 Q15.8156,57.4248 15.8156,57.7904 L15.8156,58.6623 Q15.8156,59.0279 15.675,59.1873 Q15.5344,59.3467 15.3094,59.3467 Q15.1031,59.3467 14.9813,59.2248 Q14.8594,59.1123 14.7938,58.8029 Q14.7656,58.5873 14.6531,58.4748 Q14.4562,58.2498 14.0906,58.1186 Q13.725,57.9873 13.35,57.9873 Q12.8906,57.9873 12.5063,58.1842 Q12.1313,58.3811 11.8312,58.8311 Q11.5406,59.2811 11.5406,59.8998 L11.5406,60.5561 Q11.5406,61.2967 12.075,61.7936 Q12.6094,62.2811 13.5656,62.2811 Q14.1281,62.2811 14.5219,62.1311 Q14.7563,62.0373 15.0094,61.7748 Q15.1688,61.6154 15.2531,61.5686 Q15.3469,61.5217 15.4688,61.5217 Q15.6656,61.5217 15.8156,61.6811 Q15.975,61.8311 15.975,62.0373 Q15.975,62.2436 15.7687,62.4873 Q15.4688,62.8342 14.9906,63.0311 Q14.3438,63.3029 13.5656,63.3029 Q12.6563,63.3029 11.9344,62.9279 Q11.3438,62.6279 10.9313,61.9904 Q10.5187,61.3436 10.5187,60.5748 L10.5187,59.8811 Q10.5187,59.0842 10.8844,58.3998 Q11.2594,57.7061 11.9156,57.3404 Q12.5719,56.9654 13.3125,56.9654 Q13.7531,56.9654 14.1375,57.0686 Q14.5313,57.1623 14.8594,57.3779 Z " fill="#000000"/><text fill="#000000" font-family="sans-serif" font-size="8.4" lengthAdjust="spacing" textLength="88.8" x="21.6" y="62.765">RespondVisitRequestUI</text><line style="stroke:#181818;stroke-width:0.3;" x1="4.8" x2="111.6" y1="69.4529" y2="69.4529"/><line style="stroke:#181818;stroke-width:0.3;" x1="4.8" x2="111.6" y1="74.2529" y2="74.2529"/></g><!--class ApplicationSession--><g id="elem_ApplicationSession"><rect fill="#F1F1F1" filter="url(#fe9ghu2y11npd)" height="28.8" id="ApplicationSession" rx="1.5" ry="1.5" style="stroke:#181818;stroke-width:0.3;" width="90.6" x="447.9" y="50.2529"/><ellipse cx="456.9" cy="59.8529" fill="#ADD1B2" rx="6.6" ry="6.6" style="stroke:#181818;stroke-width:0.6;"/><path d="M458.5594,57.3779 Q458.6531,57.2467 458.7656,57.1811 Q458.8781,57.1154 459.0094,57.1154 Q459.2344,57.1154 459.375,57.2748 Q459.5156,57.4248 459.5156,57.7904 L459.5156,58.6623 Q459.5156,59.0279 459.375,59.1873 Q459.2344,59.3467 459.0094,59.3467 Q458.8031,59.3467 458.6813,59.2248 Q458.5594,59.1123 458.4938,58.8029 Q458.4656,58.5873 458.3531,58.4748 Q458.1563,58.2498 457.7906,58.1186 Q457.425,57.9873 457.05,57.9873 Q456.5906,57.9873 456.2063,58.1842 Q455.8313,58.3811 455.5313,58.8311 Q455.2406,59.2811 455.2406,59.8998 L455.2406,60.5561 Q455.2406,61.2967 455.775,61.7936 Q456.3094,62.2811 457.2656,62.2811 Q457.8281,62.2811 458.2219,62.1311 Q458.4563,62.0373 458.7094,61.7748 Q458.8688,61.6154 458.9531,61.5686 Q459.0469,61.5217 459.1688,61.5217 Q459.3656,61.5217 459.5156,61.6811 Q459.675,61.8311 459.675,62.0373 Q459.675,62.2436 459.4688,62.4873 Q459.1688,62.8342 458.6906,63.0311 Q458.0438,63.3029 457.2656,63.3029 Q456.3563,63.3029 455.6344,62.9279 Q455.0438,62.6279 454.6312,61.9904 Q454.2188,61.3436 454.2188,60.5748 L454.2188,59.8811 Q454.2188,59.0842 454.5844,58.3998 Q454.9594,57.7061 455.6156,57.3404 Q456.2719,56.9654 457.0125,56.9654 Q457.4531,56.9654 457.8375,57.0686 Q458.2313,57.1623 458.5594,57.3779 Z " fill="#000000"/><text fill="#000000" font-family="sans-serif" font-size="8.4" lengthAdjust="spacing" textLength="71.4" x="465.3" y="62.765">ApplicationSession</text><line style="stroke:#181818;stroke-width:0.3;" x1="448.5" x2="537.9" y1="69.4529" y2="69.4529"/><line style="stroke:#181818;stroke-width:0.3;" x1="448.5" x2="537.9" y1="74.2529" y2="74.2529"/></g><!--class Agent--><g id="elem_Agent"><rect fill="#F1F1F1" filter="url(#fe9ghu2y11npd)" height="28.8" id="Agent" rx="1.5" ry="1.5" style="stroke:#181818;stroke-width:0.3;" width="41.4" x="259.5" y="265.3529"/><ellipse cx="268.5" cy="274.9529" fill="#ADD1B2" rx="6.6" ry="6.6" style="stroke:#181818;stroke-width:0.6;"/><path d="M270.1594,272.4779 Q270.2531,272.3467 270.3656,272.2811 Q270.4781,272.2154 270.6094,272.2154 Q270.8344,272.2154 270.975,272.3748 Q271.1156,272.5248 271.1156,272.8904 L271.1156,273.7623 Q271.1156,274.1279 270.975,274.2873 Q270.8344,274.4467 270.6094,274.4467 Q270.4031,274.4467 270.2813,274.3248 Q270.1594,274.2123 270.0938,273.9029 Q270.0656,273.6873 269.9531,273.5748 Q269.7562,273.3498 269.3906,273.2186 Q269.025,273.0873 268.65,273.0873 Q268.1906,273.0873 267.8063,273.2842 Q267.4313,273.4811 267.1312,273.9311 Q266.8406,274.3811 266.8406,274.9998 L266.8406,275.6561 Q266.8406,276.3967 267.375,276.8936 Q267.9094,277.3811 268.8656,277.3811 Q269.4281,277.3811 269.8219,277.2311 Q270.0563,277.1373 270.3094,276.8748 Q270.4688,276.7154 270.5531,276.6686 Q270.6469,276.6217 270.7688,276.6217 Q270.9656,276.6217 271.1156,276.7811 Q271.275,276.9311 271.275,277.1373 Q271.275,277.3436 271.0687,277.5873 Q270.7688,277.9342 270.2906,278.1311 Q269.6438,278.4029 268.8656,278.4029 Q267.9563,278.4029 267.2344,278.0279 Q266.6438,277.7279 266.2313,277.0904 Q265.8187,276.4436 265.8187,275.6748 L265.8187,274.9811 Q265.8187,274.1842 266.1844,273.4998 Q266.5594,272.8061 267.2156,272.4404 Q267.8719,272.0654 268.6125,272.0654 Q269.0531,272.0654 269.4375,272.1686 Q269.8313,272.2623 270.1594,272.4779 Z " fill="#000000"/><text fill="#000000" font-family="sans-serif" font-size="8.4" lengthAdjust="spacing" textLength="22.2" x="276.9" y="277.865">Agent</text><line style="stroke:#181818;stroke-width:0.3;" x1="260.1" x2="300.3" y1="284.5529" y2="284.5529"/><line style="stroke:#181818;stroke-width:0.3;" x1="260.1" x2="300.3" y1="289.3529" y2="289.3529"/></g><!--class Role--><g id="elem_Role"><rect fill="#F1F1F1" filter="url(#fe9ghu2y11npd)" height="28.8" id="Role" rx="1.5" ry="1.5" style="stroke:#181818;stroke-width:0.3;" width="36.6" x="201.9" y="265.3529"/><ellipse cx="210.9" cy="274.9529" fill="#ADD1B2" rx="6.6" ry="6.6" style="stroke:#181818;stroke-width:0.6;"/><path d="M212.5594,272.4779 Q212.6531,272.3467 212.7656,272.2811 Q212.8781,272.2154 213.0094,272.2154 Q213.2344,272.2154 213.375,272.3748 Q213.5156,272.5248 213.5156,272.8904 L213.5156,273.7623 Q213.5156,274.1279 213.375,274.2873 Q213.2344,274.4467 213.0094,274.4467 Q212.8031,274.4467 212.6813,274.3248 Q212.5594,274.2123 212.4938,273.9029 Q212.4656,273.6873 212.3531,273.5748 Q212.1563,273.3498 211.7906,273.2186 Q211.425,273.0873 211.05,273.0873 Q210.5906,273.0873 210.2062,273.2842 Q209.8312,273.4811 209.5313,273.9311 Q209.2406,274.3811 209.2406,274.9998 L209.2406,275.6561 Q209.2406,276.3967 209.775,276.8936 Q210.3094,277.3811 211.2656,277.3811 Q211.8281,277.3811 212.2219,277.2311 Q212.4562,277.1373 212.7094,276.8748 Q212.8688,276.7154 212.9531,276.6686 Q213.0469,276.6217 213.1688,276.6217 Q213.3656,276.6217 213.5156,276.7811 Q213.675,276.9311 213.675,277.1373 Q213.675,277.3436 213.4688,277.5873 Q213.1688,277.9342 212.6906,278.1311 Q212.0438,278.4029 211.2656,278.4029 Q210.3563,278.4029 209.6344,278.0279 Q209.0438,277.7279 208.6313,277.0904 Q208.2188,276.4436 208.2188,275.6748 L208.2188,274.9811 Q208.2188,274.1842 208.5844,273.4998 Q208.9594,272.8061 209.6156,272.4404 Q210.2719,272.0654 211.0125,272.0654 Q211.4531,272.0654 211.8375,272.1686 Q212.2313,272.2623 212.5594,272.4779 Z " fill="#000000"/><text fill="#000000" font-family="sans-serif" font-size="8.4" lengthAdjust="spacing" textLength="17.4" x="219.3" y="277.865">Role</text><line style="stroke:#181818;stroke-width:0.3;" x1="202.5" x2="237.9" y1="284.5529" y2="284.5529"/><line style="stroke:#181818;stroke-width:0.3;" x1="202.5" x2="237.9" y1="289.3529" y2="289.3529"/></g><!--link ApplicationSession to ApplicationSession--><g id="link_ApplicationSession_ApplicationSession"><path codeLine="91" d="M538.596,54.3989 C550.5,55.0109 559.5,58.4249 559.5,64.6529 C559.5,70.8809 554.0953,74.1101 542.1913,74.7221 " fill="none" id="ApplicationSession-to-ApplicationSession" style="stroke:#181818;stroke-width:0.6;"/><polygon fill="#181818" points="538.596,74.9069,544.1121,77.0265,541.592,74.7529,543.8657,72.2328,538.596,74.9069" style="stroke:#181818;stroke-width:0.6;"/><text fill="#000000" font-family="sans-serif" font-size="7.8" lengthAdjust="spacing" textLength="29.4" x="563.1" y="67.5141">instance</text></g><!--link RespondVisitRequestUI to RespondVisitRequestController--><g id="link_RespondVisitRequestUI_RespondVisitRequestController"><path codeLine="92" d="M112.368,64.6529 C123.654,64.6529 132.198,64.6529 132.198,64.6529 C132.198,64.6529 129.054,64.6529 129.882,64.6529 " fill="none" id="RespondVisitRequestUI-to-RespondVisitRequestController" style="stroke:#181818;stroke-width:0.6;stroke-dasharray:7.0,7.0;"/><polygon fill="#181818" points="133.482,64.6529,128.082,62.2529,130.482,64.6529,128.082,67.0529,133.482,64.6529" style="stroke:#181818;stroke-width:0.6;"/></g><!--link RespondVisitRequestController to ApplicationSession--><g id="link_RespondVisitRequestController_ApplicationSession"><path codeLine="94" d="M427.08,64.6529 C431.778,64.6529 435.798,64.6529 444.228,64.6529 " fill="none" id="RespondVisitRequestController-to-ApplicationSession" style="stroke:#181818;stroke-width:0.6;stroke-dasharray:7.0,7.0;"/><polygon fill="#181818" points="447.828,64.6529,442.428,62.2529,444.828,64.6529,442.428,67.0529,447.828,64.6529" style="stroke:#181818;stroke-width:0.6;"/></g><!--link RespondVisitRequestController to Repositories--><g id="link_RespondVisitRequestController_Repositories"><path codeLine="96" d="M398.778,36.1229 C448.902,24.0629 495.9,12.7529 495.9,12.7529 C495.9,12.7529 537.3,12.7529 537.3,12.7529 C537.3,12.7529 596.4,31.3529 596.4,31.3529 C596.4,31.3529 597.298,31.7863 603.574,34.7863 " fill="none" id="RespondVisitRequestController-to-Repositories" style="stroke:#181818;stroke-width:0.6;stroke-dasharray:7.0,7.0;"/><polygon fill="#181818" points="606.822,36.3389,602.9851,31.8447,604.1153,35.0451,600.9149,36.1754,606.822,36.3389" style="stroke:#181818;stroke-width:0.6;"/><text fill="#000000" font-family="sans-serif" font-size="7.8" lengthAdjust="spacing" textLength="40.2" x="496.5" y="11.4141">repositories</text></g><!--link Repositories to Repositories--><g id="link_Repositories_Repositories"><path codeLine="97" d="M725.208,54.6809 C737.37,55.7489 746.1,59.0729 746.1,64.6529 C746.1,70.2329 740.9562,73.242 728.7942,74.31 " fill="none" id="Repositories-to-Repositories" style="stroke:#181818;stroke-width:0.6;"/><polygon fill="#181818" points="725.208,74.6249,730.7972,76.5433,728.1965,74.3625,730.3774,71.7617,725.208,74.6249" style="stroke:#181818;stroke-width:0.6;"/><text fill="#000000" font-family="sans-serif" font-size="7.8" lengthAdjust="spacing" textLength="29.4" x="749.7" y="67.5141">instance</text></g><!--link RespondVisitRequestController to Agent--><g id="link_RespondVisitRequestController_Agent"><path codeLine="98" d="M280.2,93.2189 C280.2,139.5329 280.2,226.9049 280.2,261.6269 " fill="none" id="RespondVisitRequestController-to-Agent" style="stroke:#181818;stroke-width:0.6;"/><polygon fill="#181818" points="280.2,265.2269,282.6,259.8269,280.2,262.2269,277.8,259.8269,280.2,265.2269" style="stroke:#181818;stroke-width:0.6;"/><text fill="#000000" font-family="sans-serif" font-size="7.8" lengthAdjust="spacing" textLength="20.4" x="280.8" y="174.9141">Agent</text></g><!--link Agent to Employee--><g id="link_Agent_Employee"><path codeLine="99" d="M273.552,294.1829 C265.068,311.8289 254.7487,333.2959 242.8087,358.1239 " fill="none" id="Agent-to-Employee" style="stroke:#181818;stroke-width:0.6;"/><polygon fill="none" points="238.128,367.8569,246.053,359.6842,239.5644,356.5637,238.128,367.8569" style="stroke:#181818;stroke-width:0.6;"/><text fill="#000000" font-family="sans-serif" font-size="7.8" lengthAdjust="spacing" textLength="40.2" x="250.8" y="348.0141">implements</text></g><!--reverse link Address to Person--><g id="link_Address_Person"><path codeLine="100" d="M153,204.2369 C153,221.4929 153,239.7569 153,256.0289 " fill="none" id="Address-backto-Person" style="stroke:#181818;stroke-width:0.6;"/><polygon fill="#181818" points="153,200.6369,150.6,206.0369,153,203.6369,155.4,206.0369,153,200.6369" style="stroke:#181818;stroke-width:0.6;"/><text fill="#000000" font-family="sans-serif" font-size="7.8" lengthAdjust="spacing" textLength="4.2" x="148.5047" y="212.3337">1</text><text fill="#000000" font-family="sans-serif" font-size="7.8" lengthAdjust="spacing" textLength="4.2" x="148.4128" y="249.555">1</text></g><!--link RespondVisitRequestController to VisitRequestRepository--><g id="link_RespondVisitRequestController_VisitRequestRepository"><path codeLine="101" d="M341.052,93.2009 C366.642,104.9489 390.6,115.9529 390.6,115.9529 C390.6,115.9529 421.6108,134.8233 448.1008,150.9453 " fill="none" id="RespondVisitRequestController-to-VisitRequestRepository" style="stroke:#181818;stroke-width:0.6;stroke-dasharray:7.0,7.0;"/><polygon fill="#181818" points="451.176,152.8169,447.8109,147.9594,448.6133,151.2573,445.3154,152.0597,451.176,152.8169" style="stroke:#181818;stroke-width:0.6;"/><text fill="#000000" font-family="sans-serif" font-size="7.8" lengthAdjust="spacing" textLength="79.2" x="406.2" y="123.6141">visitRequestRepository</text></g><!--link RespondVisitRequestController to ClientRepository--><g id="link_RespondVisitRequestController_ClientRepository"><path codeLine="102" d="M302.742,93.1529 C317.934,111.9629 335.304,133.4564 348.636,149.9624 " fill="none" id="RespondVisitRequestController-to-ClientRepository" style="stroke:#181818;stroke-width:0.6;stroke-dasharray:7.0,7.0;"/><polygon fill="#181818" points="350.898,152.7629,349.372,147.0541,349.013,150.4291,345.6379,150.0701,350.898,152.7629" style="stroke:#181818;stroke-width:0.6;"/><text fill="#000000" font-family="sans-serif" font-size="7.8" lengthAdjust="spacing" textLength="55.8" x="329.4" y="123.6141">clientRepository</text></g><!--link Repositories to ClientRepository--><g id="link_Repositories_ClientRepository"><path codeLine="103" d="M606.822,93.0569 C600.546,96.0029 596.4,97.9529 596.4,97.9529 C596.4,97.9529 490.8,125.5529 490.8,125.5529 C490.8,125.5529 417.6,143.5529 417.6,143.5529 C417.6,143.5529 413.0509,146.011 403.5829,151.129 " fill="none" id="Repositories-to-ClientRepository" style="stroke:#181818;stroke-width:0.6;"/><polygon fill="#181818" points="400.416,152.8409,406.3077,152.3844,403.0551,151.4143,404.0251,148.1618,400.416,152.8409" style="stroke:#181818;stroke-width:0.6;"/><text fill="#000000" font-family="sans-serif" font-size="7.8" lengthAdjust="spacing" textLength="4.2" x="403.2851" y="146.4386">1</text></g><!--link ClientRepository to Client--><g id="link_ClientRepository_Client"><path codeLine="104" d="M367.164,191.4449 C367.95,204.1049 368.796,217.7258 369.774,233.5538 " fill="none" id="ClientRepository-to-Client" style="stroke:#181818;stroke-width:0.6;"/><polygon fill="#181818" points="369.996,237.1469,372.0584,231.6092,369.811,234.1526,367.2675,231.9052,369.996,237.1469" style="stroke:#181818;stroke-width:0.6;"/><text fill="#000000" font-family="sans-serif" font-size="7.8" lengthAdjust="spacing" textLength="4.2" x="365.2815" y="230.711">1</text></g><!--link VisitRequestRepository to VisitRequest--><g id="link_VisitRequestRepository_VisitRequest"><path codeLine="105" d="M475.818,191.3069 C462.948,231.4409 433.8,322.3529 433.8,322.3529 C433.8,322.3529 420.3494,346.1529 407.2694,369.2949 " fill="none" id="VisitRequestRepository-to-VisitRequest" style="stroke:#181818;stroke-width:0.6;"/><polygon fill="#181818" points="405.498,372.4289,410.2444,368.9088,406.9741,369.8172,406.0657,366.5469,405.498,372.4289" style="stroke:#181818;stroke-width:0.6;"/><text fill="#000000" font-family="sans-serif" font-size="7.8" lengthAdjust="spacing" textLength="4.2" x="470.0774" y="202.8895">1</text><text fill="#000000" font-family="sans-serif" font-size="7.8" lengthAdjust="spacing" textLength="4.2" x="403.5015" y="366.0865">1</text></g><!--link Repositories to VisitRequestRepository--><g id="link_Repositories_VisitRequestRepository"><path codeLine="106" d="M635.322,98.0489 C622.098,112.1909 609.6,125.5529 609.6,125.5529 C609.6,125.5529 572.4102,138.9103 536.9862,151.6303 " fill="none" id="Repositories-to-VisitRequestRepository" style="stroke:#181818;stroke-width:0.6;"/><polygon fill="#181818" points="533.598,152.8469,539.4914,153.2808,536.4215,151.8331,537.8692,148.7632,533.598,152.8469" style="stroke:#181818;stroke-width:0.6;"/><text fill="#000000" font-family="sans-serif" font-size="7.8" lengthAdjust="spacing" textLength="4.2" x="540.2694" y="146.4459">1</text></g><!--link Client to VisitRequest--><g id="link_Client_VisitRequest"><path codeLine="107" d="M377.454,322.4309 C379.332,338.7089 381.037,353.4747 382.801,368.7507 " fill="none" id="Client-to-VisitRequest" style="stroke:#181818;stroke-width:0.6;"/><polygon fill="#181818" points="383.214,372.3269,384.9787,366.6873,382.8699,369.3467,380.2104,367.2379,383.214,372.3269" style="stroke:#181818;stroke-width:0.6;"/><text fill="#000000" font-family="sans-serif" font-size="7.8" lengthAdjust="spacing" textLength="25.8" x="380.4" y="348.0141">creates</text><text fill="#000000" font-family="sans-serif" font-size="7.8" lengthAdjust="spacing" textLength="4.2" x="373.5251" y="334.1267">1</text><text fill="#000000" font-family="sans-serif" font-size="7.8" lengthAdjust="spacing" textLength="3" x="379.5037" y="365.9708">*</text></g><!--link Agent to VisitRequest--><g id="link_Agent_VisitRequest"><path codeLine="108" d="M290.592,294.3389 C299.664,306.5549 311.4,322.3529 311.4,322.3529 C311.4,322.3529 333.5605,346.6285 354.6925,369.7705 " fill="none" id="Agent-to-VisitRequest" style="stroke:#181818;stroke-width:0.6;"/><polygon fill="#181818" points="357.12,372.4289,355.251,366.823,355.0971,370.2136,351.7064,370.0597,357.12,372.4289" style="stroke:#181818;stroke-width:0.6;"/><text fill="#000000" font-family="sans-serif" font-size="7.8" lengthAdjust="spacing" textLength="31.8" x="336.6" y="348.0141">responds</text><text fill="#000000" font-family="sans-serif" font-size="7.8" lengthAdjust="spacing" textLength="4.2" x="288.4132" y="306.0174">1</text><text fill="#000000" font-family="sans-serif" font-size="7.8" lengthAdjust="spacing" textLength="3" x="349.9033" y="366.0865">*</text></g><!--reverse link Role to Employee--><g id="link_Role_Employee"><path codeLine="110" d="M219.6728,297.8653 C219.1448,315.5893 218.4,340.3529 218.4,340.3529 C218.4,340.3529 218.4,349.9529 218.4,349.9529 C218.4,349.9529 218.664,357.9569 218.982,367.8749 " fill="none" id="Role-backto-Employee" style="stroke:#181818;stroke-width:0.6;"/><polygon fill="#181818" points="219.78,294.2669,217.2203,299.5931,219.6907,297.2656,222.0181,299.736,219.78,294.2669" style="stroke:#181818;stroke-width:0.6;"/><text fill="#000000" font-family="sans-serif" font-size="7.8" lengthAdjust="spacing" textLength="19.2" x="219" y="348.0141">has a</text><text fill="#000000" font-family="sans-serif" font-size="7.8" lengthAdjust="spacing" textLength="4.2" x="214.9657" y="305.9279">1</text><text fill="#000000" font-family="sans-serif" font-size="7.8" lengthAdjust="spacing" textLength="3" x="215.6507" y="361.4195">*</text></g><!--reverse link Person to Client--><g id="link_Person_Client"><path codeLine="112" d="M178.8069,247.6145 C192.5409,230.5145 201.9,218.8529 201.9,218.8529 C201.9,218.8529 300.9,218.8529 300.9,218.8529 C300.9,218.8529 310.362,226.8929 322.41,237.1229 " fill="none" id="Person-backto-Client" style="stroke:#181818;stroke-width:0.6;"/><polygon fill="none" points="172.044,256.0349,181.6137,249.8688,176.0001,245.3602,172.044,256.0349" style="stroke:#181818;stroke-width:0.6;"/></g><!--reverse link Person to Employee--><g id="link_Person_Employee"><path codeLine="113" d="M170.6024,313.0449 C180.3224,331.0869 188.88,346.9829 200.13,367.8749 " fill="none" id="Person-backto-Employee" style="stroke:#181818;stroke-width:0.6;"/><polygon fill="none" points="165.48,303.5369,167.433,314.7524,173.7717,311.3374,165.48,303.5369" style="stroke:#181818;stroke-width:0.6;"/></g><!--SRC=[dLLDZzem4BtxLrXSOBVDghqYX8Je7f3G2YrgxoQP1NSTsxKDRPRT_zu9TX8d18gQYvEPvpVVaw5zvL8pmtAQAwdIdL4vK6VsG1gDPkahsyBQ5GAeWTGnkHKnmEvOfdvpkUtU55o2ApHGhKHHVf1XZr8PfqXqAnNCsfbpXc_s3XQfacl-1lGBmUUaetF1GJfw91IVXAuHYiObow4jWPnn4KGBwM0B1gEnLgF9fts-0TF6E_Qd9PvbcG6qn_pPPTef2G7_KRaMhdZN6cRh382RHJonZZceP1Nv6zTpbK5979WVSorK0N0vwly9yLgc-k9x1gqiTyfmi7K1Ok7exYJyHBVW5X9ZaocCxkYu1MeWFpZAdk7N7goh4KLCuelTqdrqEg5H7iambCuOLYovTHCFcM9RbQVrW8Zv2HE8d5tnged-t1llWtUXFu9pH-WaHaxf8VhgpuUzPAOcNncbmRY2wl3Ihgesy0B6GFQjwh2c3tWEQw5SMvhM6UdqGjhDoQa6f1d95HYhP5zl3gysv_3sxWpGfIeZwtXIDITIoonErLn9PvGGQFb8GffJ0vYFnv9qLCqWo0pCvyeWRZdWXqXWzvkVkFdgxnp767VYMMCi5zR5xT8jfq_RHM-_Bz1BXCoq5ZnbZkFkGqjuq6HAUwHZoiECaNwwX-drh11oFMaFVMPlkDJQ4sDCQ3JyBLroXhqMKMIaJCYs_0sC_KdyLvAyJ-jTMRBXA-IdoQ_M-U3hW4wIv7I6nlrNG1XH_voZXKEluWR6xl92hhGZwkGAOowTxbuaPqnj9BdWUua8m1ZHRxIV8vZsL2NoleqiOpgDcmtrgMoUuunFcCNkKWBg8jqFechk6FwD2V55evFtf8gmaIHrzGdv2m00]--></g></svg>