<?xml version="1.0" encoding="us-ascii" standalone="no"?><svg xmlns="http://www.w3.org/2000/svg" xmlns:xlink="http://www.w3.org/1999/xlink" contentStyleType="text/css" height="634px" preserveAspectRatio="none" style="width:1671px;height:634px;background:#FFFFFF;" version="1.1" viewBox="0 0 1671 634" width="1671px" zoomAndPan="magnify"><defs/><g><rect fill="#FFFFFF" height="506.6563" style="stroke:#181818;stroke-width:1.0;" width="10" x="461" y="71.9121"/><rect fill="#FFFFFF" height="93.873" style="stroke:#181818;stroke-width:1.0;" width="10" x="939" y="129.4941"/><rect fill="#FFFFFF" height="93.873" style="stroke:#181818;stroke-width:1.0;" width="10" x="939" y="287.9492"/><rect fill="#FFFFFF" height="93.873" style="stroke:#181818;stroke-width:1.0;" width="10" x="939" y="446.4043"/><rect fill="#FFFFFF" height="31.291" style="stroke:#181818;stroke-width:1.0;" width="10" x="1410" y="160.7852"/><rect fill="#FFFFFF" height="31.291" style="stroke:#181818;stroke-width:1.0;" width="10" x="1507" y="319.2402"/><rect fill="#FFFFFF" height="31.291" style="stroke:#181818;stroke-width:1.0;" width="10" x="1606.5" y="477.6953"/><rect fill="none" height="144.4551" style="stroke:#000000;stroke-width:1.5;" width="1059.5" x="406.5" y="86.9121"/><rect fill="none" height="144.4551" style="stroke:#000000;stroke-width:1.5;" width="1161.5" x="406.5" y="245.3672"/><rect fill="none" height="144.4551" style="stroke:#000000;stroke-width:1.5;" width="1258.5" x="406.5" y="403.8223"/><line style="stroke:#181818;stroke-width:0.5;stroke-dasharray:5.0,5.0;" x1="465.5" x2="465.5" y1="38.6211" y2="596.5684"/><line style="stroke:#181818;stroke-width:0.5;stroke-dasharray:5.0,5.0;" x1="944" x2="944" y1="38.6211" y2="596.5684"/><line style="stroke:#181818;stroke-width:0.5;stroke-dasharray:5.0,5.0;" x1="1415" x2="1415" y1="38.6211" y2="596.5684"/><line style="stroke:#181818;stroke-width:0.5;stroke-dasharray:5.0,5.0;" x1="1512" x2="1512" y1="38.6211" y2="596.5684"/><line style="stroke:#181818;stroke-width:0.5;stroke-dasharray:5.0,5.0;" x1="1611" x2="1611" y1="38.6211" y2="596.5684"/><rect fill="#E3E3E3" height="32.6211" rx="2.5" ry="2.5" style="stroke:#181818;stroke-width:0.5;" width="99" x="416.5" y="5"/><text fill="#000000" font-family="sans-serif" font-size="14" lengthAdjust="spacing" textLength="85" x="423.5" y="27.1074">Configuration</text><rect fill="#E3E3E3" height="32.6211" rx="2.5" ry="2.5" style="stroke:#181818;stroke-width:0.5;" width="99" x="416.5" y="595.5684"/><text fill="#000000" font-family="sans-serif" font-size="14" lengthAdjust="spacing" textLength="85" x="423.5" y="617.6758">Configuration</text><rect fill="#E3E3E3" height="32.6211" rx="2.5" ry="2.5" style="stroke:#181818;stroke-width:0.5;" width="80" x="904" y="5"/><text fill="#000000" font-family="sans-serif" font-size="14" lengthAdjust="spacing" textLength="66" x="911" y="27.1074">EmailFilter</text><rect fill="#E3E3E3" height="32.6211" rx="2.5" ry="2.5" style="stroke:#181818;stroke-width:0.5;" width="80" x="904" y="595.5684"/><text fill="#000000" font-family="sans-serif" font-size="14" lengthAdjust="spacing" textLength="66" x="911" y="617.6758">EmailFilter</text><rect fill="#E3E3E3" height="32.6211" rx="2.5" ry="2.5" style="stroke:#181818;stroke-width:0.5;" width="82" x="1374" y="5"/><text fill="#000000" font-family="sans-serif" font-size="14" lengthAdjust="spacing" textLength="68" x="1381" y="27.1074">GmailFilter</text><rect fill="#E3E3E3" height="32.6211" rx="2.5" ry="2.5" style="stroke:#181818;stroke-width:0.5;" width="82" x="1374" y="595.5684"/><text fill="#000000" font-family="sans-serif" font-size="14" lengthAdjust="spacing" textLength="68" x="1381" y="617.6758">GmailFilter</text><rect fill="#E3E3E3" height="32.6211" rx="2.5" ry="2.5" style="stroke:#181818;stroke-width:0.5;" width="92" x="1466" y="5"/><text fill="#000000" font-family="sans-serif" font-size="14" lengthAdjust="spacing" textLength="78" x="1473" y="27.1074">HotmailFilter</text><rect fill="#E3E3E3" height="32.6211" rx="2.5" ry="2.5" style="stroke:#181818;stroke-width:0.5;" width="92" x="1466" y="595.5684"/><text fill="#000000" font-family="sans-serif" font-size="14" lengthAdjust="spacing" textLength="78" x="1473" y="617.6758">HotmailFilter</text><rect fill="#E3E3E3" height="32.6211" rx="2.5" ry="2.5" style="stroke:#181818;stroke-width:0.5;" width="87" x="1568" y="5"/><text fill="#000000" font-family="sans-serif" font-size="14" lengthAdjust="spacing" textLength="73" x="1575" y="27.1074">YahooFilter</text><rect fill="#E3E3E3" height="32.6211" rx="2.5" ry="2.5" style="stroke:#181818;stroke-width:0.5;" width="87" x="1568" y="595.5684"/><text fill="#000000" font-family="sans-serif" font-size="14" lengthAdjust="spacing" textLength="73" x="1575" y="617.6758">YahooFilter</text><rect fill="#FFFFFF" height="506.6563" style="stroke:#181818;stroke-width:1.0;" width="10" x="461" y="71.9121"/><rect fill="#FFFFFF" height="93.873" style="stroke:#181818;stroke-width:1.0;" width="10" x="939" y="129.4941"/><rect fill="#FFFFFF" height="93.873" style="stroke:#181818;stroke-width:1.0;" width="10" x="939" y="287.9492"/><rect fill="#FFFFFF" height="93.873" style="stroke:#181818;stroke-width:1.0;" width="10" x="939" y="446.4043"/><rect fill="#FFFFFF" height="31.291" style="stroke:#181818;stroke-width:1.0;" width="10" x="1410" y="160.7852"/><rect fill="#FFFFFF" height="31.291" style="stroke:#181818;stroke-width:1.0;" width="10" x="1507" y="319.2402"/><rect fill="#FFFFFF" height="31.291" style="stroke:#181818;stroke-width:1.0;" width="10" x="1606.5" y="477.6953"/><polygon fill="#181818" points="449,67.9121,459,71.9121,449,75.9121,453,71.9121" style="stroke:#181818;stroke-width:1.0;"/><line style="stroke:#181818;stroke-width:1.0;" x1="0" x2="455" y1="71.9121" y2="71.9121"/><text fill="#000000" font-family="sans-serif" font-size="13" font-weight="bold" lengthAdjust="spacing" textLength="7" x="7" y="66.6494">3</text><text fill="#000000" font-family="sans-serif" font-size="13" lengthAdjust="spacing" textLength="431" x="18" y="66.6494">createEmail(String sender, String receiver, String subject, String message)</text><path d="M406.5,86.9121 L467.5,86.9121 L467.5,96.2031 L457.5,106.2031 L406.5,106.2031 L406.5,86.9121 " fill="#EEEEEE" style="stroke:#000000;stroke-width:1.5;"/><rect fill="none" height="144.4551" style="stroke:#000000;stroke-width:1.5;" width="1059.5" x="406.5" y="86.9121"/><text fill="#000000" font-family="sans-serif" font-size="13" font-weight="bold" lengthAdjust="spacing" textLength="16" x="421.5" y="101.9404">alt</text><text fill="#000000" font-family="sans-serif" font-size="11" font-weight="bold" lengthAdjust="spacing" textLength="43" x="482.5" y="100.7822">[filter =]</text><polygon fill="#181818" points="927,125.4941,937,129.4941,927,133.4941,931,129.4941" style="stroke:#181818;stroke-width:1.0;"/><line style="stroke:#181818;stroke-width:1.0;" x1="471" x2="933" y1="129.4941" y2="129.4941"/><text fill="#000000" font-family="sans-serif" font-size="13" font-weight="bold" lengthAdjust="spacing" textLength="7" x="478" y="124.2314">4</text><text fill="#000000" font-family="sans-serif" font-size="13" lengthAdjust="spacing" textLength="431" x="489" y="124.2314">createEmail(String sender, String receiver, String subject, String message)</text><polygon fill="#181818" points="1398,156.7852,1408,160.7852,1398,164.7852,1402,160.7852" style="stroke:#181818;stroke-width:1.0;"/><line style="stroke:#181818;stroke-width:1.0;" x1="949" x2="1404" y1="160.7852" y2="160.7852"/><text fill="#000000" font-family="sans-serif" font-size="13" font-weight="bold" lengthAdjust="spacing" textLength="7" x="956" y="155.5225">5</text><text fill="#000000" font-family="sans-serif" font-size="13" lengthAdjust="spacing" textLength="431" x="967" y="155.5225">createEmail(String sender, String receiver, String subject, String message)</text><polygon fill="#181818" points="960,188.0762,950,192.0762,960,196.0762,956,192.0762" style="stroke:#181818;stroke-width:1.0;"/><line style="stroke:#181818;stroke-width:1.0;" x1="954" x2="1414" y1="192.0762" y2="192.0762"/><text fill="#000000" font-family="sans-serif" font-size="13" font-weight="bold" lengthAdjust="spacing" textLength="7" x="966" y="186.8135">6</text><text fill="#000000" font-family="sans-serif" font-size="13" lengthAdjust="spacing" textLength="4" x="977" y="186.8135">&#160;</text><polygon fill="#181818" points="482,219.3672,472,223.3672,482,227.3672,478,223.3672" style="stroke:#181818;stroke-width:1.0;"/><line style="stroke:#181818;stroke-width:1.0;stroke-dasharray:2.0,2.0;" x1="476" x2="943" y1="223.3672" y2="223.3672"/><text fill="#000000" font-family="sans-serif" font-size="13" font-weight="bold" lengthAdjust="spacing" textLength="7" x="488" y="218.1045">7</text><text fill="#000000" font-family="sans-serif" font-size="13" lengthAdjust="spacing" textLength="4" x="499" y="218.1045">&#160;</text><path d="M406.5,245.3672 L467.5,245.3672 L467.5,254.6582 L457.5,264.6582 L406.5,264.6582 L406.5,245.3672 " fill="#EEEEEE" style="stroke:#000000;stroke-width:1.5;"/><rect fill="none" height="144.4551" style="stroke:#000000;stroke-width:1.5;" width="1161.5" x="406.5" y="245.3672"/><text fill="#000000" font-family="sans-serif" font-size="13" font-weight="bold" lengthAdjust="spacing" textLength="16" x="421.5" y="260.3955">alt</text><text fill="#000000" font-family="sans-serif" font-size="11" font-weight="bold" lengthAdjust="spacing" textLength="50" x="482.5" y="259.2373">[filter = t]</text><polygon fill="#181818" points="927,283.9492,937,287.9492,927,291.9492,931,287.9492" style="stroke:#181818;stroke-width:1.0;"/><line style="stroke:#181818;stroke-width:1.0;" x1="471" x2="933" y1="287.9492" y2="287.9492"/><text fill="#000000" font-family="sans-serif" font-size="13" font-weight="bold" lengthAdjust="spacing" textLength="7" x="478" y="282.6865">8</text><text fill="#000000" font-family="sans-serif" font-size="13" lengthAdjust="spacing" textLength="431" x="489" y="282.6865">createEmail(String sender, String receiver, String subject, String message)</text><polygon fill="#181818" points="1495,315.2402,1505,319.2402,1495,323.2402,1499,319.2402" style="stroke:#181818;stroke-width:1.0;"/><line style="stroke:#181818;stroke-width:1.0;" x1="949" x2="1501" y1="319.2402" y2="319.2402"/><text fill="#000000" font-family="sans-serif" font-size="13" font-weight="bold" lengthAdjust="spacing" textLength="7" x="956" y="313.9775">9</text><text fill="#000000" font-family="sans-serif" font-size="13" lengthAdjust="spacing" textLength="431" x="967" y="313.9775">createEmail(String sender, String receiver, String subject, String message)</text><polygon fill="#181818" points="960,346.5313,950,350.5313,960,354.5313,956,350.5313" style="stroke:#181818;stroke-width:1.0;"/><line style="stroke:#181818;stroke-width:1.0;" x1="954" x2="1511" y1="350.5313" y2="350.5313"/><text fill="#000000" font-family="sans-serif" font-size="13" font-weight="bold" lengthAdjust="spacing" textLength="14" x="966" y="345.2686">10</text><text fill="#000000" font-family="sans-serif" font-size="13" lengthAdjust="spacing" textLength="4" x="984" y="345.2686">&#160;</text><polygon fill="#181818" points="482,377.8223,472,381.8223,482,385.8223,478,381.8223" style="stroke:#181818;stroke-width:1.0;"/><line style="stroke:#181818;stroke-width:1.0;stroke-dasharray:2.0,2.0;" x1="476" x2="943" y1="381.8223" y2="381.8223"/><text fill="#000000" font-family="sans-serif" font-size="13" font-weight="bold" lengthAdjust="spacing" textLength="14" x="488" y="376.5596">11</text><text fill="#000000" font-family="sans-serif" font-size="13" lengthAdjust="spacing" textLength="4" x="506" y="376.5596">&#160;</text><path d="M406.5,403.8223 L467.5,403.8223 L467.5,413.1133 L457.5,423.1133 L406.5,423.1133 L406.5,403.8223 " fill="#EEEEEE" style="stroke:#000000;stroke-width:1.5;"/><rect fill="none" height="144.4551" style="stroke:#000000;stroke-width:1.5;" width="1258.5" x="406.5" y="403.8223"/><text fill="#000000" font-family="sans-serif" font-size="13" font-weight="bold" lengthAdjust="spacing" textLength="16" x="421.5" y="418.8506">alt</text><text fill="#000000" font-family="sans-serif" font-size="11" font-weight="bold" lengthAdjust="spacing" textLength="50" x="482.5" y="417.6924">[filter = t]</text><polygon fill="#181818" points="927,442.4043,937,446.4043,927,450.4043,931,446.4043" style="stroke:#181818;stroke-width:1.0;"/><line style="stroke:#181818;stroke-width:1.0;" x1="471" x2="933" y1="446.4043" y2="446.4043"/><text fill="#000000" font-family="sans-serif" font-size="13" font-weight="bold" lengthAdjust="spacing" textLength="14" x="478" y="441.1416">12</text><text fill="#000000" font-family="sans-serif" font-size="13" lengthAdjust="spacing" textLength="431" x="496" y="441.1416">createEmail(String sender, String receiver, String subject, String message)</text><polygon fill="#181818" points="1594.5,473.6953,1604.5,477.6953,1594.5,481.6953,1598.5,477.6953" style="stroke:#181818;stroke-width:1.0;"/><line style="stroke:#181818;stroke-width:1.0;" x1="949" x2="1600.5" y1="477.6953" y2="477.6953"/><text fill="#000000" font-family="sans-serif" font-size="13" font-weight="bold" lengthAdjust="spacing" textLength="14" x="956" y="472.4326">13</text><text fill="#000000" font-family="sans-serif" font-size="13" lengthAdjust="spacing" textLength="431" x="974" y="472.4326">createEmail(String sender, String receiver, String subject, String message)</text><polygon fill="#181818" points="960,504.9863,950,508.9863,960,512.9863,956,508.9863" style="stroke:#181818;stroke-width:1.0;"/><line style="stroke:#181818;stroke-width:1.0;" x1="954" x2="1610.5" y1="508.9863" y2="508.9863"/><text fill="#000000" font-family="sans-serif" font-size="13" font-weight="bold" lengthAdjust="spacing" textLength="14" x="966" y="503.7236">14</text><text fill="#000000" font-family="sans-serif" font-size="13" lengthAdjust="spacing" textLength="4" x="984" y="503.7236">&#160;</text><polygon fill="#181818" points="482,536.2773,472,540.2773,482,544.2773,478,540.2773" style="stroke:#181818;stroke-width:1.0;"/><line style="stroke:#181818;stroke-width:1.0;stroke-dasharray:2.0,2.0;" x1="476" x2="943" y1="540.2773" y2="540.2773"/><text fill="#000000" font-family="sans-serif" font-size="13" font-weight="bold" lengthAdjust="spacing" textLength="14" x="488" y="535.0146">15</text><text fill="#000000" font-family="sans-serif" font-size="13" lengthAdjust="spacing" textLength="4" x="506" y="535.0146">&#160;</text><polygon fill="#181818" points="11,574.5684,1,578.5684,11,582.5684,7,578.5684" style="stroke:#181818;stroke-width:1.0;"/><line style="stroke:#181818;stroke-width:1.0;stroke-dasharray:2.0,2.0;" x1="5" x2="465" y1="578.5684" y2="578.5684"/><text fill="#000000" font-family="sans-serif" font-size="13" font-weight="bold" lengthAdjust="spacing" textLength="14" x="17" y="573.3057">16</text><text fill="#000000" font-family="sans-serif" font-size="13" lengthAdjust="spacing" textLength="4" x="35" y="573.3057">&#160;</text><!--SRC=[xPJ1JiCm38RlUGfh5q1Y9su8kA3HtdVQqMlTDgn9giGTyFQaMzkrMmiCRI0aV8lzoVdjFufRILsWHGNAQ1DbrYW2jYK9rrOAZ5QOqfpVSW9B4QDEyoxWCepDYzGf99Wx4iAdMKQoGCqmUJGwaMbfaQNH4q07sqoVcYcK-PFCcUo6cQdjeKy5UrGmI8M6zxXma5jWPao7McGrvGDBDhfKIx9m8yH59cE2n1XUcbSXe8dfGpqCt49a2PasSrpEsLRhSAHZijTG7_tkIAux2LSkd_q-sxCYv_ochtON-C28vTftRjRMB-OCoKOqtFSAjImliDda6INsPBRE7I1Lj6gyiiQzymex41XyAB2Ae2Eo7MS8ZEaBNNSZjyz5Z3GPlCmlel9vt7ZWFsTz-3lMXvzQ7tx3-l3V-YEiRtxP7xP-zxcFeGrnZFNZNKzbVJTtDvtkj-gqgIll]--></g></svg>