<?xml version="1.0" encoding="us-ascii" standalone="no"?><svg xmlns="http://www.w3.org/2000/svg" xmlns:xlink="http://www.w3.org/1999/xlink" contentStyleType="text/css" height="1017px" preserveAspectRatio="none" style="width:1047px;height:1017px;background:#FFFFFF;" version="1.1" viewBox="0 0 1047 1017" width="1047px" zoomAndPan="magnify"><defs><filter height="300%" id="fss6oeme3s160" width="300%" x="-1" y="-1"><feGaussianBlur result="blurOut" stdDeviation="2.0"/><feColorMatrix in="blurOut" result="blurOut2" type="matrix" values="0 0 0 0 0 0 0 0 0 0 0 0 0 0 0 0 0 0 .4 0"/><feOffset dx="4.0" dy="4.0" in="blurOut2" result="blurOut3"/><feBlend in="SourceGraphic" in2="blurOut3" mode="normal"/></filter></defs><g><!--class ApplicationSession--><g id="elem_ApplicationSession"><rect codeLine="11" fill="#F1F1F1" filter="url(#fss6oeme3s160)" height="79.2813" id="ApplicationSession" rx="2.5" ry="2.5" style="stroke:#181818;stroke-width:0.5;" width="151" x="120" y="163"/><ellipse cx="135" cy="179" fill="#ADD1B2" rx="11" ry="11" style="stroke:#181818;stroke-width:1.0;"/><path d="M137.7656,174.875 Q137.9219,174.6563 138.1094,174.5469 Q138.2969,174.4375 138.5156,174.4375 Q138.8906,174.4375 139.125,174.7031 Q139.3594,174.9531 139.3594,175.5625 L139.3594,177.0156 Q139.3594,177.625 139.125,177.8906 Q138.8906,178.1563 138.5156,178.1563 Q138.1719,178.1563 137.9688,177.9531 Q137.7656,177.7656 137.6563,177.25 Q137.6094,176.8906 137.4219,176.7031 Q137.0938,176.3281 136.4844,176.1094 Q135.875,175.8906 135.25,175.8906 Q134.4844,175.8906 133.8438,176.2188 Q133.2188,176.5469 132.7188,177.2969 Q132.2344,178.0469 132.2344,179.0781 L132.2344,180.1719 Q132.2344,181.4063 133.125,182.2344 Q134.0156,183.0469 135.6094,183.0469 Q136.5469,183.0469 137.2031,182.7969 Q137.5938,182.6406 138.0156,182.2031 Q138.2813,181.9375 138.4219,181.8594 Q138.5781,181.7813 138.7813,181.7813 Q139.1094,181.7813 139.3594,182.0469 Q139.625,182.2969 139.625,182.6406 Q139.625,182.9844 139.2813,183.3906 Q138.7813,183.9688 137.9844,184.2969 Q136.9063,184.75 135.6094,184.75 Q134.0938,184.75 132.8906,184.125 Q131.9063,183.625 131.2188,182.5625 Q130.5313,181.4844 130.5313,180.2031 L130.5313,179.0469 Q130.5313,177.7188 131.1406,176.5781 Q131.7656,175.4219 132.8594,174.8125 Q133.9531,174.1875 135.1875,174.1875 Q135.9219,174.1875 136.5625,174.3594 Q137.2188,174.5156 137.7656,174.875 Z " fill="#000000"/><text fill="#000000" font-family="sans-serif" font-size="14" lengthAdjust="spacing" textLength="119" x="149" y="183.8535">ApplicationSession</text><line style="stroke:#181818;stroke-width:0.5;" x1="121" x2="270" y1="195" y2="195"/><line style="stroke:#181818;stroke-width:0.5;" x1="121" x2="270" y1="203" y2="203"/><text fill="#000000" font-family="sans-serif" font-size="14" lengthAdjust="spacing" textLength="128" x="126" y="219.6738">+static getInstance()</text><text fill="#000000" font-family="sans-serif" font-size="14" lengthAdjust="spacing" textLength="136" x="126" y="235.3145">+getCurrentSession()</text></g><!--class UserSession--><g id="elem_UserSession"><rect codeLine="17" fill="#F1F1F1" filter="url(#fss6oeme3s160)" height="63.6406" id="UserSession" rx="2.5" ry="2.5" style="stroke:#181818;stroke-width:0.5;" width="113" x="7" y="287.5"/><ellipse cx="22.9" cy="303.5" fill="#ADD1B2" rx="11" ry="11" style="stroke:#181818;stroke-width:1.0;"/><path d="M25.6656,299.375 Q25.8219,299.1563 26.0094,299.0469 Q26.1969,298.9375 26.4156,298.9375 Q26.7906,298.9375 27.025,299.2031 Q27.2594,299.4531 27.2594,300.0625 L27.2594,301.5156 Q27.2594,302.125 27.025,302.3906 Q26.7906,302.6563 26.4156,302.6563 Q26.0719,302.6563 25.8688,302.4531 Q25.6656,302.2656 25.5563,301.75 Q25.5094,301.3906 25.3219,301.2031 Q24.9938,300.8281 24.3844,300.6094 Q23.775,300.3906 23.15,300.3906 Q22.3844,300.3906 21.7438,300.7188 Q21.1188,301.0469 20.6188,301.7969 Q20.1344,302.5469 20.1344,303.5781 L20.1344,304.6719 Q20.1344,305.9063 21.025,306.7344 Q21.9156,307.5469 23.5094,307.5469 Q24.4469,307.5469 25.1031,307.2969 Q25.4938,307.1406 25.9156,306.7031 Q26.1813,306.4375 26.3219,306.3594 Q26.4781,306.2813 26.6813,306.2813 Q27.0094,306.2813 27.2594,306.5469 Q27.525,306.7969 27.525,307.1406 Q27.525,307.4844 27.1813,307.8906 Q26.6813,308.4688 25.8844,308.7969 Q24.8063,309.25 23.5094,309.25 Q21.9938,309.25 20.7906,308.625 Q19.8063,308.125 19.1188,307.0625 Q18.4313,305.9844 18.4313,304.7031 L18.4313,303.5469 Q18.4313,302.2188 19.0406,301.0781 Q19.6656,299.9219 20.7594,299.3125 Q21.8531,298.6875 23.0875,298.6875 Q23.8219,298.6875 24.4625,298.8594 Q25.1188,299.0156 25.6656,299.375 Z " fill="#000000"/><text fill="#000000" font-family="sans-serif" font-size="14" lengthAdjust="spacing" textLength="79" x="37.1" y="308.3535">UserSession</text><line style="stroke:#181818;stroke-width:0.5;" x1="8" x2="119" y1="319.5" y2="319.5"/><line style="stroke:#181818;stroke-width:0.5;" x1="8" x2="119" y1="327.5" y2="327.5"/><text fill="#000000" font-family="sans-serif" font-size="14" lengthAdjust="spacing" textLength="101" x="13" y="344.1738">+getUserEmail()</text></g><!--class Client--><g id="elem_Client"><rect codeLine="22" fill="#F1F1F1" filter="url(#fss6oeme3s160)" height="141.8438" id="Client" rx="2.5" ry="2.5" style="stroke:#181818;stroke-width:0.5;" width="169" x="832" y="428"/><ellipse cx="894.25" cy="444" fill="#ADD1B2" rx="11" ry="11" style="stroke:#181818;stroke-width:1.0;"/><path d="M897.0156,439.875 Q897.1719,439.6563 897.3594,439.5469 Q897.5469,439.4375 897.7656,439.4375 Q898.1406,439.4375 898.375,439.7031 Q898.6094,439.9531 898.6094,440.5625 L898.6094,442.0156 Q898.6094,442.625 898.375,442.8906 Q898.1406,443.1563 897.7656,443.1563 Q897.4219,443.1563 897.2188,442.9531 Q897.0156,442.7656 896.9063,442.25 Q896.8594,441.8906 896.6719,441.7031 Q896.3438,441.3281 895.7344,441.1094 Q895.125,440.8906 894.5,440.8906 Q893.7344,440.8906 893.0938,441.2188 Q892.4688,441.5469 891.9688,442.2969 Q891.4844,443.0469 891.4844,444.0781 L891.4844,445.1719 Q891.4844,446.4063 892.375,447.2344 Q893.2656,448.0469 894.8594,448.0469 Q895.7969,448.0469 896.4531,447.7969 Q896.8438,447.6406 897.2656,447.2031 Q897.5313,446.9375 897.6719,446.8594 Q897.8281,446.7813 898.0313,446.7813 Q898.3594,446.7813 898.6094,447.0469 Q898.875,447.2969 898.875,447.6406 Q898.875,447.9844 898.5313,448.3906 Q898.0313,448.9688 897.2344,449.2969 Q896.1563,449.75 894.8594,449.75 Q893.3438,449.75 892.1406,449.125 Q891.1563,448.625 890.4688,447.5625 Q889.7813,446.4844 889.7813,445.2031 L889.7813,444.0469 Q889.7813,442.7188 890.3906,441.5781 Q891.0156,440.4219 892.1094,439.8125 Q893.2031,439.1875 894.4375,439.1875 Q895.1719,439.1875 895.8125,439.3594 Q896.4688,439.5156 897.0156,439.875 Z " fill="#000000"/><text fill="#000000" font-family="sans-serif" font-size="14" lengthAdjust="spacing" textLength="36" x="914.75" y="448.8535">Client</text><line style="stroke:#181818;stroke-width:0.5;" x1="833" x2="1000" y1="460" y2="460"/><text fill="#000000" font-family="sans-serif" font-size="14" lengthAdjust="spacing" textLength="81" x="838" y="476.6738">-String name</text><text fill="#000000" font-family="sans-serif" font-size="14" lengthAdjust="spacing" textLength="79" x="838" y="492.3145">-String email</text><text fill="#000000" font-family="sans-serif" font-size="14" lengthAdjust="spacing" textLength="157" x="838" y="507.9551">-Integer passportNumber</text><text fill="#000000" font-family="sans-serif" font-size="14" lengthAdjust="spacing" textLength="113" x="838" y="523.5957">-String taxNumber</text><text fill="#000000" font-family="sans-serif" font-size="14" lengthAdjust="spacing" textLength="112" x="838" y="539.2363">-Address address</text><text fill="#000000" font-family="sans-serif" font-size="14" lengthAdjust="spacing" textLength="142" x="838" y="554.877">-Integer phoneNumber</text><line style="stroke:#181818;stroke-width:0.5;" x1="833" x2="1000" y1="561.8438" y2="561.8438"/></g><!--class Address--><g id="elem_Address"><rect codeLine="31" fill="#F1F1F1" filter="url(#fss6oeme3s160)" height="94.9219" id="Address" rx="2.5" ry="2.5" style="stroke:#181818;stroke-width:0.5;" width="146" x="343.5" y="272"/><ellipse cx="386.4" cy="288" fill="#ADD1B2" rx="11" ry="11" style="stroke:#181818;stroke-width:1.0;"/><path d="M389.1656,283.875 Q389.3219,283.6563 389.5094,283.5469 Q389.6969,283.4375 389.9156,283.4375 Q390.2906,283.4375 390.525,283.7031 Q390.7594,283.9531 390.7594,284.5625 L390.7594,286.0156 Q390.7594,286.625 390.525,286.8906 Q390.2906,287.1563 389.9156,287.1563 Q389.5719,287.1563 389.3688,286.9531 Q389.1656,286.7656 389.0563,286.25 Q389.0094,285.8906 388.8219,285.7031 Q388.4938,285.3281 387.8844,285.1094 Q387.275,284.8906 386.65,284.8906 Q385.8844,284.8906 385.2438,285.2188 Q384.6188,285.5469 384.1188,286.2969 Q383.6344,287.0469 383.6344,288.0781 L383.6344,289.1719 Q383.6344,290.4063 384.525,291.2344 Q385.4156,292.0469 387.0094,292.0469 Q387.9469,292.0469 388.6031,291.7969 Q388.9938,291.6406 389.4156,291.2031 Q389.6813,290.9375 389.8219,290.8594 Q389.9781,290.7813 390.1813,290.7813 Q390.5094,290.7813 390.7594,291.0469 Q391.025,291.2969 391.025,291.6406 Q391.025,291.9844 390.6813,292.3906 Q390.1813,292.9688 389.3844,293.2969 Q388.3063,293.75 387.0094,293.75 Q385.4938,293.75 384.2906,293.125 Q383.3063,292.625 382.6188,291.5625 Q381.9313,290.4844 381.9313,289.2031 L381.9313,288.0469 Q381.9313,286.7188 382.5406,285.5781 Q383.1656,284.4219 384.2594,283.8125 Q385.3531,283.1875 386.5875,283.1875 Q387.3219,283.1875 387.9625,283.3594 Q388.6188,283.5156 389.1656,283.875 Z " fill="#000000"/><text fill="#000000" font-family="sans-serif" font-size="14" lengthAdjust="spacing" textLength="52" x="406.6" y="292.8535">Address</text><line style="stroke:#181818;stroke-width:0.5;" x1="344.5" x2="488.5" y1="304" y2="304"/><text fill="#000000" font-family="sans-serif" font-size="14" lengthAdjust="spacing" textLength="134" x="349.5" y="320.6738">-String streetAddress</text><text fill="#000000" font-family="sans-serif" font-size="14" lengthAdjust="spacing" textLength="77" x="349.5" y="336.3145">-String state</text><text fill="#000000" font-family="sans-serif" font-size="14" lengthAdjust="spacing" textLength="104" x="349.5" y="351.9551">-Integer zipCode</text><line style="stroke:#181818;stroke-width:0.5;" x1="344.5" x2="488.5" y1="358.9219" y2="358.9219"/></g><!--class Employee--><g id="elem_Employee"><rect codeLine="38" fill="#F1F1F1" filter="url(#fss6oeme3s160)" height="126.2031" id="Employee" rx="2.5" ry="2.5" style="stroke:#181818;stroke-width:0.5;" width="169" x="433" y="646"/><ellipse cx="482.25" cy="662" fill="#ADD1B2" rx="11" ry="11" style="stroke:#181818;stroke-width:1.0;"/><path d="M485.0156,657.875 Q485.1719,657.6563 485.3594,657.5469 Q485.5469,657.4375 485.7656,657.4375 Q486.1406,657.4375 486.375,657.7031 Q486.6094,657.9531 486.6094,658.5625 L486.6094,660.0156 Q486.6094,660.625 486.375,660.8906 Q486.1406,661.1563 485.7656,661.1563 Q485.4219,661.1563 485.2188,660.9531 Q485.0156,660.7656 484.9063,660.25 Q484.8594,659.8906 484.6719,659.7031 Q484.3438,659.3281 483.7344,659.1094 Q483.125,658.8906 482.5,658.8906 Q481.7344,658.8906 481.0938,659.2188 Q480.4688,659.5469 479.9688,660.2969 Q479.4844,661.0469 479.4844,662.0781 L479.4844,663.1719 Q479.4844,664.4063 480.375,665.2344 Q481.2656,666.0469 482.8594,666.0469 Q483.7969,666.0469 484.4531,665.7969 Q484.8438,665.6406 485.2656,665.2031 Q485.5313,664.9375 485.6719,664.8594 Q485.8281,664.7813 486.0313,664.7813 Q486.3594,664.7813 486.6094,665.0469 Q486.875,665.2969 486.875,665.6406 Q486.875,665.9844 486.5313,666.3906 Q486.0313,666.9688 485.2344,667.2969 Q484.1563,667.75 482.8594,667.75 Q481.3438,667.75 480.1406,667.125 Q479.1563,666.625 478.4688,665.5625 Q477.7813,664.4844 477.7813,663.2031 L477.7813,662.0469 Q477.7813,660.7188 478.3906,659.5781 Q479.0156,658.4219 480.1094,657.8125 Q481.2031,657.1875 482.4375,657.1875 Q483.1719,657.1875 483.8125,657.3594 Q484.4688,657.5156 485.0156,657.875 Z " fill="#000000"/><text fill="#000000" font-family="sans-serif" font-size="14" lengthAdjust="spacing" textLength="62" x="502.75" y="666.8535">Employee</text><line style="stroke:#181818;stroke-width:0.5;" x1="434" x2="601" y1="678" y2="678"/><text fill="#000000" font-family="sans-serif" font-size="14" lengthAdjust="spacing" textLength="81" x="439" y="694.6738">-String name</text><text fill="#000000" font-family="sans-serif" font-size="14" lengthAdjust="spacing" textLength="157" x="439" y="710.3145">-Integer passportNumber</text><text fill="#000000" font-family="sans-serif" font-size="14" lengthAdjust="spacing" textLength="113" x="439" y="725.9551">-String taxNumber</text><text fill="#000000" font-family="sans-serif" font-size="14" lengthAdjust="spacing" textLength="79" x="439" y="741.5957">-String email</text><text fill="#000000" font-family="sans-serif" font-size="14" lengthAdjust="spacing" textLength="142" x="439" y="757.2363">-Integer phoneNumber</text><line style="stroke:#181818;stroke-width:0.5;" x1="434" x2="601" y1="764.2031" y2="764.2031"/></g><!--class Repositories--><g id="elem_Repositories"><rect codeLine="46" fill="#F1F1F1" filter="url(#fss6oeme3s160)" height="126.2031" id="Repositories" rx="2.5" ry="2.5" style="stroke:#181818;stroke-width:0.5;" width="197" x="703" y="7"/><ellipse cx="757.75" cy="23" fill="#ADD1B2" rx="11" ry="11" style="stroke:#181818;stroke-width:1.0;"/><path d="M760.5156,18.875 Q760.6719,18.6563 760.8594,18.5469 Q761.0469,18.4375 761.2656,18.4375 Q761.6406,18.4375 761.875,18.7031 Q762.1094,18.9531 762.1094,19.5625 L762.1094,21.0156 Q762.1094,21.625 761.875,21.8906 Q761.6406,22.1563 761.2656,22.1563 Q760.9219,22.1563 760.7188,21.9531 Q760.5156,21.7656 760.4063,21.25 Q760.3594,20.8906 760.1719,20.7031 Q759.8438,20.3281 759.2344,20.1094 Q758.625,19.8906 758,19.8906 Q757.2344,19.8906 756.5938,20.2188 Q755.9688,20.5469 755.4688,21.2969 Q754.9844,22.0469 754.9844,23.0781 L754.9844,24.1719 Q754.9844,25.4063 755.875,26.2344 Q756.7656,27.0469 758.3594,27.0469 Q759.2969,27.0469 759.9531,26.7969 Q760.3438,26.6406 760.7656,26.2031 Q761.0313,25.9375 761.1719,25.8594 Q761.3281,25.7813 761.5313,25.7813 Q761.8594,25.7813 762.1094,26.0469 Q762.375,26.2969 762.375,26.6406 Q762.375,26.9844 762.0313,27.3906 Q761.5313,27.9688 760.7344,28.2969 Q759.6563,28.75 758.3594,28.75 Q756.8438,28.75 755.6406,28.125 Q754.6563,27.625 753.9688,26.5625 Q753.2813,25.4844 753.2813,24.2031 L753.2813,23.0469 Q753.2813,21.7188 753.8906,20.5781 Q754.5156,19.4219 755.6094,18.8125 Q756.7031,18.1875 757.9375,18.1875 Q758.6719,18.1875 759.3125,18.3594 Q759.9688,18.5156 760.5156,18.875 Z " fill="#000000"/><text fill="#000000" font-family="sans-serif" font-size="14" lengthAdjust="spacing" textLength="79" x="778.25" y="27.8535">Repositories</text><line style="stroke:#181818;stroke-width:0.5;" x1="704" x2="899" y1="39" y2="39"/><line style="stroke:#181818;stroke-width:0.5;" x1="704" x2="899" y1="47" y2="47"/><text fill="#000000" font-family="sans-serif" font-size="14" lengthAdjust="spacing" textLength="94" x="709" y="63.6738">-Repositories()</text><text fill="#000000" font-family="sans-serif" font-size="14" lengthAdjust="spacing" textLength="182" x="709" y="79.3145">+getInstance() : Repositories</text><text fill="#000000" font-family="sans-serif" font-size="14" lengthAdjust="spacing" textLength="160" x="709" y="94.9551">+getPropertyRepository()</text><text fill="#000000" font-family="sans-serif" font-size="14" lengthAdjust="spacing" textLength="185" x="709" y="110.5957">+getVisitRequestRepository()</text><text fill="#000000" font-family="sans-serif" font-size="14" lengthAdjust="spacing" textLength="142" x="709" y="126.2363">+getClientRepository()</text></g><!--class propertyRepository--><g id="elem_propertyRepository"><rect codeLine="53" fill="#F1F1F1" filter="url(#fss6oeme3s160)" height="63.6406" id="propertyRepository" rx="2.5" ry="2.5" style="stroke:#181818;stroke-width:0.5;" width="153" x="155" y="287.5"/><ellipse cx="170" cy="303.5" fill="#ADD1B2" rx="11" ry="11" style="stroke:#181818;stroke-width:1.0;"/><path d="M172.7656,299.375 Q172.9219,299.1563 173.1094,299.0469 Q173.2969,298.9375 173.5156,298.9375 Q173.8906,298.9375 174.125,299.2031 Q174.3594,299.4531 174.3594,300.0625 L174.3594,301.5156 Q174.3594,302.125 174.125,302.3906 Q173.8906,302.6563 173.5156,302.6563 Q173.1719,302.6563 172.9688,302.4531 Q172.7656,302.2656 172.6563,301.75 Q172.6094,301.3906 172.4219,301.2031 Q172.0938,300.8281 171.4844,300.6094 Q170.875,300.3906 170.25,300.3906 Q169.4844,300.3906 168.8438,300.7188 Q168.2188,301.0469 167.7188,301.7969 Q167.2344,302.5469 167.2344,303.5781 L167.2344,304.6719 Q167.2344,305.9063 168.125,306.7344 Q169.0156,307.5469 170.6094,307.5469 Q171.5469,307.5469 172.2031,307.2969 Q172.5938,307.1406 173.0156,306.7031 Q173.2813,306.4375 173.4219,306.3594 Q173.5781,306.2813 173.7813,306.2813 Q174.1094,306.2813 174.3594,306.5469 Q174.625,306.7969 174.625,307.1406 Q174.625,307.4844 174.2813,307.8906 Q173.7813,308.4688 172.9844,308.7969 Q171.9063,309.25 170.6094,309.25 Q169.0938,309.25 167.8906,308.625 Q166.9063,308.125 166.2188,307.0625 Q165.5313,305.9844 165.5313,304.7031 L165.5313,303.5469 Q165.5313,302.2188 166.1406,301.0781 Q166.7656,299.9219 167.8594,299.3125 Q168.9531,298.6875 170.1875,298.6875 Q170.9219,298.6875 171.5625,298.8594 Q172.2188,299.0156 172.7656,299.375 Z " fill="#000000"/><text fill="#000000" font-family="sans-serif" font-size="14" lengthAdjust="spacing" textLength="121" x="184" y="308.3535">propertyRepository</text><line style="stroke:#181818;stroke-width:0.5;" x1="156" x2="307" y1="319.5" y2="319.5"/><line style="stroke:#181818;stroke-width:0.5;" x1="156" x2="307" y1="327.5" y2="327.5"/><text fill="#000000" font-family="sans-serif" font-size="14" lengthAdjust="spacing" textLength="103" x="161" y="344.1738">+getProperties()</text></g><!--class ClientRepository--><g id="elem_ClientRepository"><rect codeLine="57" fill="#F1F1F1" filter="url(#fss6oeme3s160)" height="63.6406" id="ClientRepository" rx="2.5" ry="2.5" style="stroke:#181818;stroke-width:0.5;" width="136" x="899.5" y="287.5"/><ellipse cx="914.5" cy="303.5" fill="#ADD1B2" rx="11" ry="11" style="stroke:#181818;stroke-width:1.0;"/><path d="M917.2656,299.375 Q917.4219,299.1563 917.6094,299.0469 Q917.7969,298.9375 918.0156,298.9375 Q918.3906,298.9375 918.625,299.2031 Q918.8594,299.4531 918.8594,300.0625 L918.8594,301.5156 Q918.8594,302.125 918.625,302.3906 Q918.3906,302.6563 918.0156,302.6563 Q917.6719,302.6563 917.4688,302.4531 Q917.2656,302.2656 917.1563,301.75 Q917.1094,301.3906 916.9219,301.2031 Q916.5938,300.8281 915.9844,300.6094 Q915.375,300.3906 914.75,300.3906 Q913.9844,300.3906 913.3438,300.7188 Q912.7188,301.0469 912.2188,301.7969 Q911.7344,302.5469 911.7344,303.5781 L911.7344,304.6719 Q911.7344,305.9063 912.625,306.7344 Q913.5156,307.5469 915.1094,307.5469 Q916.0469,307.5469 916.7031,307.2969 Q917.0938,307.1406 917.5156,306.7031 Q917.7813,306.4375 917.9219,306.3594 Q918.0781,306.2813 918.2813,306.2813 Q918.6094,306.2813 918.8594,306.5469 Q919.125,306.7969 919.125,307.1406 Q919.125,307.4844 918.7813,307.8906 Q918.2813,308.4688 917.4844,308.7969 Q916.4063,309.25 915.1094,309.25 Q913.5938,309.25 912.3906,308.625 Q911.4063,308.125 910.7188,307.0625 Q910.0313,305.9844 910.0313,304.7031 L910.0313,303.5469 Q910.0313,302.2188 910.6406,301.0781 Q911.2656,299.9219 912.3594,299.3125 Q913.4531,298.6875 914.6875,298.6875 Q915.4219,298.6875 916.0625,298.8594 Q916.7188,299.0156 917.2656,299.375 Z " fill="#000000"/><text fill="#000000" font-family="sans-serif" font-size="14" lengthAdjust="spacing" textLength="104" x="928.5" y="308.3535">ClientRepository</text><line style="stroke:#181818;stroke-width:0.5;" x1="900.5" x2="1034.5" y1="319.5" y2="319.5"/><line style="stroke:#181818;stroke-width:0.5;" x1="900.5" x2="1034.5" y1="327.5" y2="327.5"/><text fill="#000000" font-family="sans-serif" font-size="14" lengthAdjust="spacing" textLength="74" x="905.5" y="344.1738">+getClient()</text></g><!--class VisitRequestRepository--><g id="elem_VisitRequestRepository"><rect codeLine="64" fill="#F1F1F1" filter="url(#fss6oeme3s160)" height="63.6406" id="VisitRequestRepository" rx="2.5" ry="2.5" style="stroke:#181818;stroke-width:0.5;" width="179" x="685" y="287.5"/><ellipse cx="700" cy="303.5" fill="#ADD1B2" rx="11" ry="11" style="stroke:#181818;stroke-width:1.0;"/><path d="M702.7656,299.375 Q702.9219,299.1563 703.1094,299.0469 Q703.2969,298.9375 703.5156,298.9375 Q703.8906,298.9375 704.125,299.2031 Q704.3594,299.4531 704.3594,300.0625 L704.3594,301.5156 Q704.3594,302.125 704.125,302.3906 Q703.8906,302.6563 703.5156,302.6563 Q703.1719,302.6563 702.9688,302.4531 Q702.7656,302.2656 702.6563,301.75 Q702.6094,301.3906 702.4219,301.2031 Q702.0938,300.8281 701.4844,300.6094 Q700.875,300.3906 700.25,300.3906 Q699.4844,300.3906 698.8438,300.7188 Q698.2188,301.0469 697.7188,301.7969 Q697.2344,302.5469 697.2344,303.5781 L697.2344,304.6719 Q697.2344,305.9063 698.125,306.7344 Q699.0156,307.5469 700.6094,307.5469 Q701.5469,307.5469 702.2031,307.2969 Q702.5938,307.1406 703.0156,306.7031 Q703.2813,306.4375 703.4219,306.3594 Q703.5781,306.2813 703.7813,306.2813 Q704.1094,306.2813 704.3594,306.5469 Q704.625,306.7969 704.625,307.1406 Q704.625,307.4844 704.2813,307.8906 Q703.7813,308.4688 702.9844,308.7969 Q701.9063,309.25 700.6094,309.25 Q699.0938,309.25 697.8906,308.625 Q696.9063,308.125 696.2188,307.0625 Q695.5313,305.9844 695.5313,304.7031 L695.5313,303.5469 Q695.5313,302.2188 696.1406,301.0781 Q696.7656,299.9219 697.8594,299.3125 Q698.9531,298.6875 700.1875,298.6875 Q700.9219,298.6875 701.5625,298.8594 Q702.2188,299.0156 702.7656,299.375 Z " fill="#000000"/><text fill="#000000" font-family="sans-serif" font-size="14" lengthAdjust="spacing" textLength="147" x="714" y="308.3535">VisitRequestRepository</text><line style="stroke:#181818;stroke-width:0.5;" x1="686" x2="863" y1="319.5" y2="319.5"/><line style="stroke:#181818;stroke-width:0.5;" x1="686" x2="863" y1="327.5" y2="327.5"/><text fill="#000000" font-family="sans-serif" font-size="14" lengthAdjust="spacing" textLength="124" x="691" y="344.1738">+getVisitRequests()</text></g><!--class VisitRequest--><g id="elem_VisitRequest"><rect codeLine="69" fill="#F1F1F1" filter="url(#fss6oeme3s160)" height="110.5625" id="VisitRequest" rx="2.5" ry="2.5" style="stroke:#181818;stroke-width:0.5;" width="188" x="661.5" y="653.5"/><ellipse cx="711.75" cy="669.5" fill="#ADD1B2" rx="11" ry="11" style="stroke:#181818;stroke-width:1.0;"/><path d="M714.5156,665.375 Q714.6719,665.1563 714.8594,665.0469 Q715.0469,664.9375 715.2656,664.9375 Q715.6406,664.9375 715.875,665.2031 Q716.1094,665.4531 716.1094,666.0625 L716.1094,667.5156 Q716.1094,668.125 715.875,668.3906 Q715.6406,668.6563 715.2656,668.6563 Q714.9219,668.6563 714.7188,668.4531 Q714.5156,668.2656 714.4063,667.75 Q714.3594,667.3906 714.1719,667.2031 Q713.8438,666.8281 713.2344,666.6094 Q712.625,666.3906 712,666.3906 Q711.2344,666.3906 710.5938,666.7188 Q709.9688,667.0469 709.4688,667.7969 Q708.9844,668.5469 708.9844,669.5781 L708.9844,670.6719 Q708.9844,671.9063 709.875,672.7344 Q710.7656,673.5469 712.3594,673.5469 Q713.2969,673.5469 713.9531,673.2969 Q714.3438,673.1406 714.7656,672.7031 Q715.0313,672.4375 715.1719,672.3594 Q715.3281,672.2813 715.5313,672.2813 Q715.8594,672.2813 716.1094,672.5469 Q716.375,672.7969 716.375,673.1406 Q716.375,673.4844 716.0313,673.8906 Q715.5313,674.4688 714.7344,674.7969 Q713.6563,675.25 712.3594,675.25 Q710.8438,675.25 709.6406,674.625 Q708.6563,674.125 707.9688,673.0625 Q707.2813,671.9844 707.2813,670.7031 L707.2813,669.5469 Q707.2813,668.2188 707.8906,667.0781 Q708.5156,665.9219 709.6094,665.3125 Q710.7031,664.6875 711.9375,664.6875 Q712.6719,664.6875 713.3125,664.8594 Q713.9688,665.0156 714.5156,665.375 Z " fill="#000000"/><text fill="#000000" font-family="sans-serif" font-size="14" lengthAdjust="spacing" textLength="79" x="732.25" y="674.3535">VisitRequest</text><line style="stroke:#181818;stroke-width:0.5;" x1="662.5" x2="848.5" y1="685.5" y2="685.5"/><text fill="#000000" font-family="sans-serif" font-size="14" lengthAdjust="spacing" textLength="135" x="667.5" y="702.1738">-String preferredDate</text><text fill="#000000" font-family="sans-serif" font-size="14" lengthAdjust="spacing" textLength="96" x="667.5" y="717.8145">-String timeSlot</text><text fill="#000000" font-family="sans-serif" font-size="14" lengthAdjust="spacing" textLength="115" x="667.5" y="733.4551">-String clientName</text><text fill="#000000" font-family="sans-serif" font-size="14" lengthAdjust="spacing" textLength="176" x="667.5" y="749.0957">-Integer clientPhoneNumber</text><line style="stroke:#181818;stroke-width:0.5;" x1="662.5" x2="848.5" y1="756.0625" y2="756.0625"/></g><!--class Property--><g id="elem_Property"><rect codeLine="78" fill="#F1F1F1" filter="url(#fss6oeme3s160)" height="48" id="Property" rx="2.5" ry="2.5" style="stroke:#181818;stroke-width:0.5;" width="86" x="269.5" y="833"/><ellipse cx="284.5" cy="849" fill="#ADD1B2" rx="11" ry="11" style="stroke:#181818;stroke-width:1.0;"/><path d="M287.2656,844.875 Q287.4219,844.6563 287.6094,844.5469 Q287.7969,844.4375 288.0156,844.4375 Q288.3906,844.4375 288.625,844.7031 Q288.8594,844.9531 288.8594,845.5625 L288.8594,847.0156 Q288.8594,847.625 288.625,847.8906 Q288.3906,848.1563 288.0156,848.1563 Q287.6719,848.1563 287.4688,847.9531 Q287.2656,847.7656 287.1563,847.25 Q287.1094,846.8906 286.9219,846.7031 Q286.5938,846.3281 285.9844,846.1094 Q285.375,845.8906 284.75,845.8906 Q283.9844,845.8906 283.3438,846.2188 Q282.7188,846.5469 282.2188,847.2969 Q281.7344,848.0469 281.7344,849.0781 L281.7344,850.1719 Q281.7344,851.4063 282.625,852.2344 Q283.5156,853.0469 285.1094,853.0469 Q286.0469,853.0469 286.7031,852.7969 Q287.0938,852.6406 287.5156,852.2031 Q287.7813,851.9375 287.9219,851.8594 Q288.0781,851.7813 288.2813,851.7813 Q288.6094,851.7813 288.8594,852.0469 Q289.125,852.2969 289.125,852.6406 Q289.125,852.9844 288.7813,853.3906 Q288.2813,853.9688 287.4844,854.2969 Q286.4063,854.75 285.1094,854.75 Q283.5938,854.75 282.3906,854.125 Q281.4063,853.625 280.7188,852.5625 Q280.0313,851.4844 280.0313,850.2031 L280.0313,849.0469 Q280.0313,847.7188 280.6406,846.5781 Q281.2656,845.4219 282.3594,844.8125 Q283.4531,844.1875 284.6875,844.1875 Q285.4219,844.1875 286.0625,844.3594 Q286.7188,844.5156 287.2656,844.875 Z " fill="#000000"/><text fill="#000000" font-family="sans-serif" font-size="14" lengthAdjust="spacing" textLength="54" x="298.5" y="853.8535">Property</text><line style="stroke:#181818;stroke-width:0.5;" x1="270.5" x2="354.5" y1="865" y2="865"/><line style="stroke:#181818;stroke-width:0.5;" x1="270.5" x2="354.5" y1="873" y2="873"/></g><!--class Agent--><g id="elem_Agent"><rect codeLine="82" fill="#F1F1F1" filter="url(#fss6oeme3s160)" height="48" id="Agent" rx="2.5" ry="2.5" style="stroke:#181818;stroke-width:0.5;" width="69" x="656" y="475"/><ellipse cx="671" cy="491" fill="#ADD1B2" rx="11" ry="11" style="stroke:#181818;stroke-width:1.0;"/><path d="M673.7656,486.875 Q673.9219,486.6563 674.1094,486.5469 Q674.2969,486.4375 674.5156,486.4375 Q674.8906,486.4375 675.125,486.7031 Q675.3594,486.9531 675.3594,487.5625 L675.3594,489.0156 Q675.3594,489.625 675.125,489.8906 Q674.8906,490.1563 674.5156,490.1563 Q674.1719,490.1563 673.9688,489.9531 Q673.7656,489.7656 673.6563,489.25 Q673.6094,488.8906 673.4219,488.7031 Q673.0938,488.3281 672.4844,488.1094 Q671.875,487.8906 671.25,487.8906 Q670.4844,487.8906 669.8438,488.2188 Q669.2188,488.5469 668.7188,489.2969 Q668.2344,490.0469 668.2344,491.0781 L668.2344,492.1719 Q668.2344,493.4063 669.125,494.2344 Q670.0156,495.0469 671.6094,495.0469 Q672.5469,495.0469 673.2031,494.7969 Q673.5938,494.6406 674.0156,494.2031 Q674.2813,493.9375 674.4219,493.8594 Q674.5781,493.7813 674.7813,493.7813 Q675.1094,493.7813 675.3594,494.0469 Q675.625,494.2969 675.625,494.6406 Q675.625,494.9844 675.2813,495.3906 Q674.7813,495.9688 673.9844,496.2969 Q672.9063,496.75 671.6094,496.75 Q670.0938,496.75 668.8906,496.125 Q667.9063,495.625 667.2188,494.5625 Q666.5313,493.4844 666.5313,492.2031 L666.5313,491.0469 Q666.5313,489.7188 667.1406,488.5781 Q667.7656,487.4219 668.8594,486.8125 Q669.9531,486.1875 671.1875,486.1875 Q671.9219,486.1875 672.5625,486.3594 Q673.2188,486.5156 673.7656,486.875 Z " fill="#000000"/><text fill="#000000" font-family="sans-serif" font-size="14" lengthAdjust="spacing" textLength="37" x="685" y="495.8535">Agent</text><line style="stroke:#181818;stroke-width:0.5;" x1="657" x2="724" y1="507" y2="507"/><line style="stroke:#181818;stroke-width:0.5;" x1="657" x2="724" y1="515" y2="515"/></g><!--class Person--><g id="elem_Person"><rect codeLine="86" fill="#F1F1F1" filter="url(#fss6oeme3s160)" height="79.2813" id="Person" rx="2.5" ry="2.5" style="stroke:#181818;stroke-width:0.5;" width="93" x="366" y="459.5"/><ellipse cx="388.2" cy="475.5" fill="#ADD1B2" rx="11" ry="11" style="stroke:#181818;stroke-width:1.0;"/><path d="M390.9656,471.375 Q391.1219,471.1563 391.3094,471.0469 Q391.4969,470.9375 391.7156,470.9375 Q392.0906,470.9375 392.325,471.2031 Q392.5594,471.4531 392.5594,472.0625 L392.5594,473.5156 Q392.5594,474.125 392.325,474.3906 Q392.0906,474.6563 391.7156,474.6563 Q391.3719,474.6563 391.1688,474.4531 Q390.9656,474.2656 390.8563,473.75 Q390.8094,473.3906 390.6219,473.2031 Q390.2938,472.8281 389.6844,472.6094 Q389.075,472.3906 388.45,472.3906 Q387.6844,472.3906 387.0438,472.7188 Q386.4188,473.0469 385.9188,473.7969 Q385.4344,474.5469 385.4344,475.5781 L385.4344,476.6719 Q385.4344,477.9063 386.325,478.7344 Q387.2156,479.5469 388.8094,479.5469 Q389.7469,479.5469 390.4031,479.2969 Q390.7938,479.1406 391.2156,478.7031 Q391.4813,478.4375 391.6219,478.3594 Q391.7781,478.2813 391.9813,478.2813 Q392.3094,478.2813 392.5594,478.5469 Q392.825,478.7969 392.825,479.1406 Q392.825,479.4844 392.4813,479.8906 Q391.9813,480.4688 391.1844,480.7969 Q390.1063,481.25 388.8094,481.25 Q387.2938,481.25 386.0906,480.625 Q385.1063,480.125 384.4188,479.0625 Q383.7313,477.9844 383.7313,476.7031 L383.7313,475.5469 Q383.7313,474.2188 384.3406,473.0781 Q384.9656,471.9219 386.0594,471.3125 Q387.1531,470.6875 388.3875,470.6875 Q389.1219,470.6875 389.7625,470.8594 Q390.4188,471.0156 390.9656,471.375 Z " fill="#000000"/><text fill="#000000" font-family="sans-serif" font-size="14" lengthAdjust="spacing" textLength="45" x="403.8" y="480.3535">Person</text><line style="stroke:#181818;stroke-width:0.5;" x1="367" x2="458" y1="491.5" y2="491.5"/><text fill="#000000" font-family="sans-serif" font-size="14" lengthAdjust="spacing" textLength="81" x="372" y="508.1738">-String name</text><text fill="#000000" font-family="sans-serif" font-size="14" lengthAdjust="spacing" textLength="79" x="372" y="523.8145">-String email</text><line style="stroke:#181818;stroke-width:0.5;" x1="367" x2="458" y1="530.7813" y2="530.7813"/></g><!--class ListBookingRequestController--><g id="elem_ListBookingRequestController"><rect codeLine="95" fill="#F1F1F1" filter="url(#fss6oeme3s160)" height="110.5625" id="ListBookingRequestController" rx="2.5" ry="2.5" style="stroke:#181818;stroke-width:0.5;" width="220" x="379.5" y="14.5"/><ellipse cx="394.5" cy="30.5" fill="#ADD1B2" rx="11" ry="11" style="stroke:#181818;stroke-width:1.0;"/><path d="M397.2656,26.375 Q397.4219,26.1563 397.6094,26.0469 Q397.7969,25.9375 398.0156,25.9375 Q398.3906,25.9375 398.625,26.2031 Q398.8594,26.4531 398.8594,27.0625 L398.8594,28.5156 Q398.8594,29.125 398.625,29.3906 Q398.3906,29.6563 398.0156,29.6563 Q397.6719,29.6563 397.4688,29.4531 Q397.2656,29.2656 397.1563,28.75 Q397.1094,28.3906 396.9219,28.2031 Q396.5938,27.8281 395.9844,27.6094 Q395.375,27.3906 394.75,27.3906 Q393.9844,27.3906 393.3438,27.7188 Q392.7188,28.0469 392.2188,28.7969 Q391.7344,29.5469 391.7344,30.5781 L391.7344,31.6719 Q391.7344,32.9063 392.625,33.7344 Q393.5156,34.5469 395.1094,34.5469 Q396.0469,34.5469 396.7031,34.2969 Q397.0938,34.1406 397.5156,33.7031 Q397.7813,33.4375 397.9219,33.3594 Q398.0781,33.2813 398.2813,33.2813 Q398.6094,33.2813 398.8594,33.5469 Q399.125,33.7969 399.125,34.1406 Q399.125,34.4844 398.7813,34.8906 Q398.2813,35.4688 397.4844,35.7969 Q396.4063,36.25 395.1094,36.25 Q393.5938,36.25 392.3906,35.625 Q391.4063,35.125 390.7188,34.0625 Q390.0313,32.9844 390.0313,31.7031 L390.0313,30.5469 Q390.0313,29.2188 390.6406,28.0781 Q391.2656,26.9219 392.3594,26.3125 Q393.4531,25.6875 394.6875,25.6875 Q395.4219,25.6875 396.0625,25.8594 Q396.7188,26.0156 397.2656,26.375 Z " fill="#000000"/><text fill="#000000" font-family="sans-serif" font-size="14" lengthAdjust="spacing" textLength="188" x="408.5" y="35.3535">ListBookingRequestController</text><line style="stroke:#181818;stroke-width:0.5;" x1="380.5" x2="598.5" y1="46.5" y2="46.5"/><line style="stroke:#181818;stroke-width:0.5;" x1="380.5" x2="598.5" y1="54.5" y2="54.5"/><text fill="#000000" font-family="sans-serif" font-size="14" lengthAdjust="spacing" textLength="206" x="385.5" y="71.1738">+ListBookingRequestController()</text><text fill="#000000" font-family="sans-serif" font-size="14" lengthAdjust="spacing" textLength="155" x="385.5" y="86.8145">-getAgentFromSession()</text><text fill="#000000" font-family="sans-serif" font-size="14" lengthAdjust="spacing" textLength="96" x="385.5" y="102.4551">+getClientLIst()</text><text fill="#000000" font-family="sans-serif" font-size="14" lengthAdjust="spacing" textLength="124" x="385.5" y="118.0957">+getVisitRequests()</text></g><!--class PropertyType--><g id="elem_PropertyType"><rect codeLine="103" fill="#F1F1F1" filter="url(#fss6oeme3s160)" height="63.6406" id="PropertyType" rx="2.5" ry="2.5" style="stroke:#181818;stroke-width:0.5;" width="127" x="249" y="942"/><ellipse cx="268.05" cy="958" fill="#ADD1B2" rx="11" ry="11" style="stroke:#181818;stroke-width:1.0;"/><path d="M270.8156,953.875 Q270.9719,953.6563 271.1594,953.5469 Q271.3469,953.4375 271.5656,953.4375 Q271.9406,953.4375 272.175,953.7031 Q272.4094,953.9531 272.4094,954.5625 L272.4094,956.0156 Q272.4094,956.625 272.175,956.8906 Q271.9406,957.1563 271.5656,957.1563 Q271.2219,957.1563 271.0188,956.9531 Q270.8156,956.7656 270.7063,956.25 Q270.6594,955.8906 270.4719,955.7031 Q270.1438,955.3281 269.5344,955.1094 Q268.925,954.8906 268.3,954.8906 Q267.5344,954.8906 266.8938,955.2188 Q266.2688,955.5469 265.7688,956.2969 Q265.2844,957.0469 265.2844,958.0781 L265.2844,959.1719 Q265.2844,960.4063 266.175,961.2344 Q267.0656,962.0469 268.6594,962.0469 Q269.5969,962.0469 270.2531,961.7969 Q270.6438,961.6406 271.0656,961.2031 Q271.3313,960.9375 271.4719,960.8594 Q271.6281,960.7813 271.8313,960.7813 Q272.1594,960.7813 272.4094,961.0469 Q272.675,961.2969 272.675,961.6406 Q272.675,961.9844 272.3313,962.3906 Q271.8313,962.9688 271.0344,963.2969 Q269.9563,963.75 268.6594,963.75 Q267.1438,963.75 265.9406,963.125 Q264.9563,962.625 264.2688,961.5625 Q263.5813,960.4844 263.5813,959.2031 L263.5813,958.0469 Q263.5813,956.7188 264.1906,955.5781 Q264.8156,954.4219 265.9094,953.8125 Q267.0031,953.1875 268.2375,953.1875 Q268.9719,953.1875 269.6125,953.3594 Q270.2688,953.5156 270.8156,953.875 Z " fill="#000000"/><text fill="#000000" font-family="sans-serif" font-size="14" lengthAdjust="spacing" textLength="86" x="282.95" y="962.8535">PropertyType</text><line style="stroke:#181818;stroke-width:0.5;" x1="250" x2="375" y1="974" y2="974"/><text fill="#000000" font-family="sans-serif" font-size="14" lengthAdjust="spacing" textLength="115" x="255" y="990.6738">-String description</text><line style="stroke:#181818;stroke-width:0.5;" x1="250" x2="375" y1="997.6406" y2="997.6406"/></g><!--class Role--><g id="elem_Role"><rect codeLine="107" fill="#F1F1F1" filter="url(#fss6oeme3s160)" height="79.2813" id="Role" rx="2.5" ry="2.5" style="stroke:#181818;stroke-width:0.5;" width="127" x="494" y="459.5"/><ellipse cx="538.75" cy="475.5" fill="#ADD1B2" rx="11" ry="11" style="stroke:#181818;stroke-width:1.0;"/><path d="M541.5156,471.375 Q541.6719,471.1563 541.8594,471.0469 Q542.0469,470.9375 542.2656,470.9375 Q542.6406,470.9375 542.875,471.2031 Q543.1094,471.4531 543.1094,472.0625 L543.1094,473.5156 Q543.1094,474.125 542.875,474.3906 Q542.6406,474.6563 542.2656,474.6563 Q541.9219,474.6563 541.7188,474.4531 Q541.5156,474.2656 541.4063,473.75 Q541.3594,473.3906 541.1719,473.2031 Q540.8438,472.8281 540.2344,472.6094 Q539.625,472.3906 539,472.3906 Q538.2344,472.3906 537.5938,472.7188 Q536.9688,473.0469 536.4688,473.7969 Q535.9844,474.5469 535.9844,475.5781 L535.9844,476.6719 Q535.9844,477.9063 536.875,478.7344 Q537.7656,479.5469 539.3594,479.5469 Q540.2969,479.5469 540.9531,479.2969 Q541.3438,479.1406 541.7656,478.7031 Q542.0313,478.4375 542.1719,478.3594 Q542.3281,478.2813 542.5313,478.2813 Q542.8594,478.2813 543.1094,478.5469 Q543.375,478.7969 543.375,479.1406 Q543.375,479.4844 543.0313,479.8906 Q542.5313,480.4688 541.7344,480.7969 Q540.6563,481.25 539.3594,481.25 Q537.8438,481.25 536.6406,480.625 Q535.6563,480.125 534.9688,479.0625 Q534.2813,477.9844 534.2813,476.7031 L534.2813,475.5469 Q534.2813,474.2188 534.8906,473.0781 Q535.5156,471.9219 536.6094,471.3125 Q537.7031,470.6875 538.9375,470.6875 Q539.6719,470.6875 540.3125,470.8594 Q540.9688,471.0156 541.5156,471.375 Z " fill="#000000"/><text fill="#000000" font-family="sans-serif" font-size="14" lengthAdjust="spacing" textLength="29" x="559.25" y="480.3535">Role</text><line style="stroke:#181818;stroke-width:0.5;" x1="495" x2="620" y1="491.5" y2="491.5"/><text fill="#000000" font-family="sans-serif" font-size="14" lengthAdjust="spacing" textLength="64" x="500" y="508.1738">-Integer id</text><text fill="#000000" font-family="sans-serif" font-size="14" lengthAdjust="spacing" textLength="115" x="500" y="523.8145">-String description</text><line style="stroke:#181818;stroke-width:0.5;" x1="495" x2="620" y1="530.7813" y2="530.7813"/></g><!--class ListBookingRequestUI--><g id="elem_ListBookingRequestUI"><rect codeLine="113" fill="#F1F1F1" filter="url(#fss6oeme3s160)" height="48" id="ListBookingRequestUI" rx="2.5" ry="2.5" style="stroke:#181818;stroke-width:0.5;" width="170" x="174.5" y="46"/><ellipse cx="189.5" cy="62" fill="#ADD1B2" rx="11" ry="11" style="stroke:#181818;stroke-width:1.0;"/><path d="M192.2656,57.875 Q192.4219,57.6563 192.6094,57.5469 Q192.7969,57.4375 193.0156,57.4375 Q193.3906,57.4375 193.625,57.7031 Q193.8594,57.9531 193.8594,58.5625 L193.8594,60.0156 Q193.8594,60.625 193.625,60.8906 Q193.3906,61.1563 193.0156,61.1563 Q192.6719,61.1563 192.4688,60.9531 Q192.2656,60.7656 192.1563,60.25 Q192.1094,59.8906 191.9219,59.7031 Q191.5938,59.3281 190.9844,59.1094 Q190.375,58.8906 189.75,58.8906 Q188.9844,58.8906 188.3438,59.2188 Q187.7188,59.5469 187.2188,60.2969 Q186.7344,61.0469 186.7344,62.0781 L186.7344,63.1719 Q186.7344,64.4063 187.625,65.2344 Q188.5156,66.0469 190.1094,66.0469 Q191.0469,66.0469 191.7031,65.7969 Q192.0938,65.6406 192.5156,65.2031 Q192.7813,64.9375 192.9219,64.8594 Q193.0781,64.7813 193.2813,64.7813 Q193.6094,64.7813 193.8594,65.0469 Q194.125,65.2969 194.125,65.6406 Q194.125,65.9844 193.7813,66.3906 Q193.2813,66.9688 192.4844,67.2969 Q191.4063,67.75 190.1094,67.75 Q188.5938,67.75 187.3906,67.125 Q186.4063,66.625 185.7188,65.5625 Q185.0313,64.4844 185.0313,63.2031 L185.0313,62.0469 Q185.0313,60.7188 185.6406,59.5781 Q186.2656,58.4219 187.3594,57.8125 Q188.4531,57.1875 189.6875,57.1875 Q190.4219,57.1875 191.0625,57.3594 Q191.7188,57.5156 192.2656,57.875 Z " fill="#000000"/><text fill="#000000" font-family="sans-serif" font-size="14" lengthAdjust="spacing" textLength="138" x="203.5" y="66.8535">ListBookingRequestUI</text><line style="stroke:#181818;stroke-width:0.5;" x1="175.5" x2="343.5" y1="78" y2="78"/><line style="stroke:#181818;stroke-width:0.5;" x1="175.5" x2="343.5" y1="86" y2="86"/></g><!--link ApplicationSession to ApplicationSession--><g id="link_ApplicationSession_ApplicationSession"><path codeLine="116" d="M271.16,180.96 C291,182.24 306,189.42 306,202.5 C306,214.46 293.47,221.49 276.16,223.58 " fill="none" id="ApplicationSession-to-ApplicationSession" style="stroke:#181818;stroke-width:1.0;"/><polygon fill="#181818" points="271.16,224.04,280.4876,227.2015,276.1391,223.5835,279.7572,219.2349,271.16,224.04" style="stroke:#181818;stroke-width:1.0;"/><text fill="#000000" font-family="sans-serif" font-size="13" lengthAdjust="spacing" textLength="49" x="312" y="207.2686">instance</text></g><!--link ListBookingRequestUI to ListBookingRequestController--><g id="link_ListBookingRequestUI_ListBookingRequestController"><path codeLine="117" d="M344.66,70 C351.97,70 363.05,70 374.17,70 " fill="none" id="ListBookingRequestUI-to-ListBookingRequestController" style="stroke:#181818;stroke-width:1.0;stroke-dasharray:7.0,7.0;"/><polygon fill="#181818" points="379.27,70,370.27,66,374.27,70,370.27,74,379.27,70" style="stroke:#181818;stroke-width:1.0;"/></g><!--link ApplicationSession to UserSession--><g id="link_ApplicationSession_UserSession"><path codeLine="118" d="M151.18,242.11 C135.57,255.71 118.15,270.89 102.97,284.11 " fill="none" id="ApplicationSession-to-UserSession" style="stroke:#181818;stroke-width:1.0;"/><polygon fill="#181818" points="99.17,287.43,108.5897,284.5543,102.947,284.1537,103.3476,278.5111,99.17,287.43" style="stroke:#181818;stroke-width:1.0;"/><text fill="#000000" font-family="sans-serif" font-size="13" lengthAdjust="spacing" textLength="72" x="54.08" y="259.8786">userSession</text><text fill="#000000" font-family="sans-serif" font-size="13" lengthAdjust="spacing" textLength="7" x="99.2072" y="276.7485">1</text></g><!--link ListBookingRequestController to ApplicationSession--><g id="link_ListBookingRequestController_ApplicationSession"><path codeLine="119" d="M379.3,124.38 C368.53,129.59 361.5,133 361.5,133 C361.5,133 318.21,150.87 275.84,168.35 " fill="none" id="ListBookingRequestController-to-ApplicationSession" style="stroke:#181818;stroke-width:1.0;stroke-dasharray:7.0,7.0;"/><polygon fill="#181818" points="271.21,170.26,281.0548,170.5427,275.8355,168.3613,278.0168,163.1419,271.21,170.26" style="stroke:#181818;stroke-width:1.0;"/></g><!--link ListBookingRequestController to UserSession--><g id="link_ListBookingRequestController_UserSession"><path codeLine="120" d="M379.3,124.38 C368.53,129.59 361.5,133 361.5,133 C361.5,133 102.5,163 102.5,163 C102.5,163 84.05,236.57 72.53,282.5 " fill="none" id="ListBookingRequestController-to-UserSession" style="stroke:#181818;stroke-width:1.0;stroke-dasharray:7.0,7.0;"/><polygon fill="#181818" points="71.3,287.41,77.3688,279.6531,72.516,282.5601,69.609,277.7074,71.3,287.41" style="stroke:#181818;stroke-width:1.0;"/></g><!--link ListBookingRequestController to Repositories--><g id="link_ListBookingRequestController_Repositories"><path codeLine="121" d="M599.94,70 C631.8,70 666.45,70 697.88,70 " fill="none" id="ListBookingRequestController-to-Repositories" style="stroke:#181818;stroke-width:1.0;stroke-dasharray:7.0,7.0;"/><polygon fill="#181818" points="702.9,70,693.9,66,697.9,70,693.9,74,702.9,70" style="stroke:#181818;stroke-width:1.0;"/><text fill="#000000" font-family="sans-serif" font-size="13" lengthAdjust="spacing" textLength="67" x="617.75" y="63.7686">repositories</text></g><!--link Repositories to Repositories--><g id="link_Repositories_Repositories"><path codeLine="122" d="M900.18,46.16 C920.45,48.71 935,56.66 935,70 C935,82.2 922.85,89.88 905.27,93.07 " fill="none" id="Repositories-to-Repositories" style="stroke:#181818;stroke-width:1.0;"/><polygon fill="#181818" points="900.18,93.84,909.6819,96.4312,905.1224,93.0829,908.4706,88.5234,900.18,93.84" style="stroke:#181818;stroke-width:1.0;"/><text fill="#000000" font-family="sans-serif" font-size="13" lengthAdjust="spacing" textLength="49" x="941" y="74.7686">instance</text></g><!--link ListBookingRequestController to Agent--><g id="link_ListBookingRequestController_Agent"><path codeLine="123" d="M514.39,125.58 C537.22,175.62 567.5,242 567.5,242 C567.5,242 645.31,403.95 677.16,470.23 " fill="none" id="ListBookingRequestController-to-Agent" style="stroke:#181818;stroke-width:1.0;"/><polygon fill="#181818" points="679.37,474.83,679.0987,464.9849,677.2142,470.3186,671.8805,468.4341,679.37,474.83" style="stroke:#181818;stroke-width:1.0;"/><text fill="#000000" font-family="sans-serif" font-size="13" lengthAdjust="spacing" textLength="34" x="628.5" y="324.2686">Agent</text></g><!--link Agent to Employee--><g id="link_Agent_Employee"><path codeLine="124" d="M673.18,523.31 C658.06,543.67 638.5,570 638.5,570 C638.5,570 612.86,599.24 585.19,630.8 " fill="none" id="Agent-to-Employee" style="stroke:#181818;stroke-width:1.0;"/><polygon fill="none" points="590.43,635.44,571.98,645.86,579.9,626.21,590.43,635.44" style="stroke:#181818;stroke-width:1.0;"/><text fill="#000000" font-family="sans-serif" font-size="13" lengthAdjust="spacing" textLength="67" x="610.5" y="612.7686">implements</text></g><!--reverse link Address to Person--><g id="link_Address_Person"><path codeLine="125" d="M415.33,372.27 C414.71,400.13 413.94,433.93 413.37,459.46 " fill="none" id="Address-backto-Person" style="stroke:#181818;stroke-width:1.0;"/><polygon fill="#181818" points="415.45,367.14,411.2708,376.0582,415.35,372.139,419.2692,376.2182,415.45,367.14" style="stroke:#181818;stroke-width:1.0;"/><text fill="#000000" font-family="sans-serif" font-size="13" lengthAdjust="spacing" textLength="7" x="407.8102" y="386.6346">1</text><text fill="#000000" font-family="sans-serif" font-size="13" lengthAdjust="spacing" textLength="7" x="405.8851" y="448.6701">1</text></g><!--reverse link Address to Property--><g id="link_Address_Property"><path codeLine="126" d="M384.26,371.47 C366.69,399.24 348.5,428 348.5,428 C348.5,428 321.91,744.09 314.44,832.99 " fill="none" id="Address-backto-Property" style="stroke:#181818;stroke-width:1.0;"/><polygon fill="#181818" points="387.07,367.03,378.8814,372.5024,384.3995,371.2571,385.6448,376.7752,387.07,367.03" style="stroke:#181818;stroke-width:1.0;"/><text fill="#000000" font-family="sans-serif" font-size="13" lengthAdjust="spacing" textLength="7" x="375.2334" y="386.8518">1</text><text fill="#000000" font-family="sans-serif" font-size="13" lengthAdjust="spacing" textLength="7" x="307.0012" y="822.1106">1</text></g><!--link Repositories to propertyRepository--><g id="link_Repositories_propertyRepository"><path codeLine="127" d="M702.74,118.08 C655.25,140.71 608.5,163 608.5,163 C608.5,163 527.5,242 527.5,242 C527.5,242 325.5,272 325.5,272 C325.5,272 313.95,277.71 298.96,285.13 " fill="none" id="Repositories-to-propertyRepository" style="stroke:#181818;stroke-width:1.0;"/><polygon fill="#181818" points="294.2,287.48,304.0409,287.0831,298.6835,285.2668,300.4997,279.9095,294.2,287.48" style="stroke:#181818;stroke-width:1.0;"/><text fill="#000000" font-family="sans-serif" font-size="13" lengthAdjust="spacing" textLength="7" x="300.15" y="276.8095">1</text></g><!--link propertyRepository to Property--><g id="link_propertyRepository_Property"><path codeLine="128" d="M235.07,351.79 C247.25,458.71 286.5,803 286.5,803 C286.5,803 292.58,815.39 298.86,828.2 " fill="none" id="propertyRepository-to-Property" style="stroke:#181818;stroke-width:1.0;"/><polygon fill="#181818" points="301.17,832.91,300.7983,823.0682,298.9683,828.4208,293.6156,826.5909,301.17,832.91" style="stroke:#181818;stroke-width:1.0;"/><text fill="#000000" font-family="sans-serif" font-size="13" lengthAdjust="spacing" textLength="7" x="228.0829" y="370.884">1</text><text fill="#000000" font-family="sans-serif" font-size="13" lengthAdjust="spacing" textLength="5" x="292.4532" y="822.3935">*</text></g><!--link ListBookingRequestController to propertyRepository--><g id="link_ListBookingRequestController_propertyRepository"><path codeLine="129" d="M441.45,125.58 C424,145.39 408.5,163 408.5,163 C408.5,163 365.5,242 365.5,242 C365.5,242 326.35,264.35 290.37,284.89 " fill="none" id="ListBookingRequestController-to-propertyRepository" style="stroke:#181818;stroke-width:1.0;stroke-dasharray:7.0,7.0;"/><polygon fill="#181818" points="286,287.38,295.8005,286.4051,290.3456,284.907,291.8437,279.4521,286,287.38" style="stroke:#181818;stroke-width:1.0;"/><text fill="#000000" font-family="sans-serif" font-size="13" lengthAdjust="spacing" textLength="109" x="409.5" y="207.2686">propertyRepository</text></g><!--link ListBookingRequestController to VisitRequestRepository--><g id="link_ListBookingRequestController_VisitRequestRepository"><path codeLine="130" d="M538.15,125.58 C555.8,145.39 571.5,163 571.5,163 C571.5,163 640.5,242 640.5,242 C640.5,242 679.65,264.35 715.63,284.89 " fill="none" id="ListBookingRequestController-to-VisitRequestRepository" style="stroke:#181818;stroke-width:1.0;stroke-dasharray:7.0,7.0;"/><polygon fill="#181818" points="720,287.38,714.1563,279.4521,715.6544,284.907,710.1995,286.4051,720,287.38" style="stroke:#181818;stroke-width:1.0;"/><text fill="#000000" font-family="sans-serif" font-size="13" lengthAdjust="spacing" textLength="132" x="641.5" y="207.2686">visitRequestRepository</text></g><!--link ListBookingRequestController to ClientRepository--><g id="link_ListBookingRequestController_ClientRepository"><path codeLine="131" d="M599.53,105.81 C644.21,119.94 685.5,133 685.5,133 C685.5,133 782.5,163 782.5,163 C782.5,163 852.5,242 852.5,242 C852.5,242 885.56,263.99 916.22,284.39 " fill="none" id="ListBookingRequestController-to-ClientRepository" style="stroke:#181818;stroke-width:1.0;stroke-dasharray:7.0,7.0;"/><polygon fill="#181818" points="920.73,287.38,915.4603,279.0595,916.5697,284.6065,911.0227,285.7159,920.73,287.38" style="stroke:#181818;stroke-width:1.0;"/><text fill="#000000" font-family="sans-serif" font-size="13" lengthAdjust="spacing" textLength="93" x="853.5" y="207.2686">clientRepository</text></g><!--link Repositories to ClientRepository--><g id="link_Repositories_ClientRepository"><path codeLine="132" d="M900.34,130.05 C930.33,147.96 955.5,163 955.5,163 C955.5,163 961.15,236.27 964.7,282.22 " fill="none" id="Repositories-to-ClientRepository" style="stroke:#181818;stroke-width:1.0;"/><polygon fill="#181818" points="965.1,287.41,968.3939,278.1283,964.7143,282.4249,960.4177,278.7453,965.1,287.41" style="stroke:#181818;stroke-width:1.0;"/><text fill="#000000" font-family="sans-serif" font-size="13" lengthAdjust="spacing" textLength="7" x="956.8094" y="276.7242">1</text></g><!--link ClientRepository to Client--><g id="link_ClientRepository_Client"><path codeLine="133" d="M958.5,351.82 C952.82,371.61 945.22,398.06 938.04,423.02 " fill="none" id="ClientRepository-to-Client" style="stroke:#181818;stroke-width:1.0;"/><polygon fill="#181818" points="936.62,427.99,942.9386,420.4352,937.9936,423.1824,935.2464,418.2374,936.62,427.99" style="stroke:#181818;stroke-width:1.0;"/><text fill="#000000" font-family="sans-serif" font-size="13" lengthAdjust="spacing" textLength="7" x="931.4378" y="417.2634">1</text></g><!--link VisitRequestRepository to VisitRequest--><g id="link_VisitRequestRepository_VisitRequest"><path codeLine="134" d="M772.98,351.56 C769.82,415.85 762.54,564.5 758.44,648.11 " fill="none" id="VisitRequestRepository-to-VisitRequest" style="stroke:#181818;stroke-width:1.0;"/><polygon fill="#181818" points="758.18,653.27,762.637,644.4873,758.4368,648.2766,754.6475,644.0764,758.18,653.27" style="stroke:#181818;stroke-width:1.0;"/><text fill="#000000" font-family="sans-serif" font-size="13" lengthAdjust="spacing" textLength="7" x="765.0231" y="370.8585">1</text><text fill="#000000" font-family="sans-serif" font-size="13" lengthAdjust="spacing" textLength="7" x="751.0698" y="642.6738">1</text></g><!--link Repositories to VisitRequestRepository--><g id="link_Repositories_VisitRequestRepository"><path codeLine="135" d="M794.72,133.14 C789.59,180.14 782.73,243.07 778.46,282.18 " fill="none" id="Repositories-to-VisitRequestRepository" style="stroke:#181818;stroke-width:1.0;"/><polygon fill="#181818" points="777.9,287.3,782.8533,278.7874,778.4428,282.3295,774.9006,277.919,777.9,287.3" style="stroke:#181818;stroke-width:1.0;"/><text fill="#000000" font-family="sans-serif" font-size="13" lengthAdjust="spacing" textLength="7" x="770.8781" y="276.5901">1</text></g><!--link Client to VisitRequest--><g id="link_Client_VisitRequest"><path codeLine="136" d="M862.22,570.13 C842.37,595.77 820.13,624.5 801.12,649.07 " fill="none" id="Client-to-VisitRequest" style="stroke:#181818;stroke-width:1.0;"/><polygon fill="#181818" points="797.85,653.29,806.5177,648.6133,800.9068,649.3333,800.1869,643.7224,797.85,653.29" style="stroke:#181818;stroke-width:1.0;"/><text fill="#000000" font-family="sans-serif" font-size="13" lengthAdjust="spacing" textLength="43" x="836.5" y="612.7686">creates</text><text fill="#000000" font-family="sans-serif" font-size="13" lengthAdjust="spacing" textLength="7" x="849.5323" y="589.6229">1</text><text fill="#000000" font-family="sans-serif" font-size="13" lengthAdjust="spacing" textLength="5" x="798.2048" y="642.6965">*</text></g><!--link Agent to VisitRequest--><g id="link_Agent_VisitRequest"><path codeLine="137" d="M691.9,523.2 C693.94,557.05 697.5,616 697.5,616 C697.5,616 706.93,630.97 718.19,648.82 " fill="none" id="Agent-to-VisitRequest" style="stroke:#181818;stroke-width:1.0;"/><polygon fill="#181818" points="721.09,653.42,719.6884,643.6714,718.4297,649.1864,712.9147,647.9278,721.09,653.42" style="stroke:#181818;stroke-width:1.0;"/><text fill="#000000" font-family="sans-serif" font-size="13" lengthAdjust="spacing" textLength="53" x="698.5" y="612.7686">responds</text><text fill="#000000" font-family="sans-serif" font-size="13" lengthAdjust="spacing" textLength="7" x="684.3881" y="542.6373">1</text><text fill="#000000" font-family="sans-serif" font-size="13" lengthAdjust="spacing" textLength="5" x="711.1302" y="642.8439">*</text></g><!--link VisitRequest to Property--><g id="link_VisitRequest_Property"><path codeLine="138" d="M661.41,752.89 C638.03,763.55 619.5,772 619.5,772 C619.5,772 446.94,819.21 360.57,842.85 " fill="none" id="VisitRequest-to-Property" style="stroke:#181818;stroke-width:1.0;"/><polygon fill="#181818" points="355.51,844.23,365.2446,845.7259,360.3345,842.9168,363.1435,838.0067,355.51,844.23" style="stroke:#181818;stroke-width:1.0;"/><text fill="#000000" font-family="sans-serif" font-size="13" lengthAdjust="spacing" textLength="5" x="648.4111" y="753.7533">*</text><text fill="#000000" font-family="sans-serif" font-size="13" lengthAdjust="spacing" textLength="7" x="363.5039" y="838.6456">1</text></g><!--reverse link Role to Employee--><g id="link_Role_Employee"><path codeLine="139" d="M538.87,543.32 C527.26,570.33 514.5,600 514.5,600 C514.5,600 514.5,616 514.5,616 C514.5,616 514.94,629.34 515.47,645.87 " fill="none" id="Role-backto-Employee" style="stroke:#181818;stroke-width:1.0;"/><polygon fill="#181818" points="540.88,538.66,533.6406,545.3377,538.8984,543.2505,540.9855,548.5083,540.88,538.66" style="stroke:#181818;stroke-width:1.0;"/><text fill="#000000" font-family="sans-serif" font-size="13" lengthAdjust="spacing" textLength="32" x="515.5" y="612.7686">has a</text><text fill="#000000" font-family="sans-serif" font-size="13" lengthAdjust="spacing" textLength="7" x="530.4219" y="558.4691">1</text><text fill="#000000" font-family="sans-serif" font-size="13" lengthAdjust="spacing" textLength="5" x="509.9179" y="635.111">*</text></g><!--link Property to PropertyType--><g id="link_Property_PropertyType"><path codeLine="140" d="M312.5,881.27 C312.5,897.23 312.5,918.72 312.5,936.88 " fill="none" id="Property-to-PropertyType" style="stroke:#181818;stroke-width:1.0;"/><polygon fill="#181818" points="312.5,941.91,316.5,932.91,312.5,936.91,308.5,932.91,312.5,941.91" style="stroke:#181818;stroke-width:1.0;"/><text fill="#000000" font-family="sans-serif" font-size="13" lengthAdjust="spacing" textLength="5" x="306.8906" y="900.7244">*</text><text fill="#000000" font-family="sans-serif" font-size="13" lengthAdjust="spacing" textLength="7" x="304.7344" y="931.2242">1</text></g><!--reverse link Person to Client--><g id="link_Person_Client"><path codeLine="141" d="M456.79,443.85 C475.92,420.02 494,397.5 494,397.5 C494,397.5 787,397.5 787,397.5 C787,397.5 807.36,413.46 831.93,432.71 " fill="none" id="Person-backto-Client" style="stroke:#181818;stroke-width:1.0;"/><polygon fill="none" points="462.22,448.25,444.24,459.47,451.31,439.49,462.22,448.25" style="stroke:#181818;stroke-width:1.0;"/></g><!--reverse link Person to Employee--><g id="link_Person_Employee"><path codeLine="142" d="M441.13,556.72 C455.07,584.33 471.86,617.58 486.14,645.87 " fill="none" id="Person-backto-Employee" style="stroke:#181818;stroke-width:1.0;"/><polygon fill="none" points="434.77,559.64,432,538.64,447.27,553.34,434.77,559.64" style="stroke:#181818;stroke-width:1.0;"/></g><!--SRC=[dLPDRzim3BthLmYvPElWOhi6GO0qwu00HL4qw-wgpJf2RKcJb6vfsly-ofPjsLQIRRqe9X-VI8eVdPfdBXJJhAIb53BTQba2jNe7fDCebZwp73PsNm3La5ecyY84c2tBv2ykyg5bmGNOlGAgPB5t7sGQKKfj9Gciqe8PixHMyyUTXNKgnOQ_0lrCoBI09qkjf9hdMqipxhpXKX1IsT2bKWLFcHDjm1YdEH2AVv-eiIXEQGvsBV2tIE73Hwz2sMgdDGZhZL3ptb0-6D13BZHmukkIyIB4hWgE9BI69NI34M1E12kXBm5dw4LhOI47ZKasHc4cRdVb8-W-thBVFV4oopIwH5bz3fcsKe37jwvvazgrZjbO3M2N0K-eOnOQMKF-ojLAPk28FVDrgGgv1pWUzV-4U2fJiVZkGKd3hTGSJFi0eJ1yxQu2wAm7wY1tMYhGTjzgzo713uwoU_Yv0sF725TFLINqLE_UKpLYFhHc_jRQtK5PXVYfhmEjsVw66pkl8Gji7NUQ6b1NTYMvnTT0og7uhajbhnigPUX2FE2n8tGU8XVq9VYAfyySkwObRvwYpLo_H9I69y3kpRusvTeL5IzXKqZRbwPjHWQ5bGvp4bHvwyGX42xpkjsx0Ev06obYhJ0zsGlJlsy63xsHBlQeh-uXhgJ4UPhxNAwai5eM1LxSpB1J85yBYNkhAiPlk1QwsJYeavkriSUQmxrka1sVnEyuzGyayM5bO5BDLJN7ktwMk6iGq-IBPyVmHuD-MDUFDLuAD5b4LWNE0ku70ucoNIvEPkt8HPClat29u2sxOAMSVAlBc9jdJD3cuH_uUtDpXjiz68OzNJB2daXMS8TBTTKci_eazLUIl2tQrU78y2UKrUngjfjBt3n9gjCtra1N7KrHZTnrol6m9MEHGoR9Od8Ha9rDSeHc5hlkB55yj2BPIrHndd2uBf0g7OW6kVB96XgI4LCVIOwuxX0U62BYbyOv_DKrbKDUz94k9Wquy8slf-RECGxhHKcHcPwt5R1neQiW73fjrLrCWlBSClnlYpJ0m3WSQQGkKZf_IveCTPAahNP2_W00]--></g></svg>