<?xml version="1.0" encoding="us-ascii" standalone="no"?><svg xmlns="http://www.w3.org/2000/svg" xmlns:xlink="http://www.w3.org/1999/xlink" contentStyleType="text/css" height="1159px" preserveAspectRatio="none" style="width:1538px;height:1159px;background:#FFFFFF;" version="1.1" viewBox="0 0 1538 1159" width="1538px" zoomAndPan="magnify"><defs/><g><text fill="#000000" font-family="sans-serif" font-size="14" font-weight="bold" lengthAdjust="spacing" textLength="744" x="396.25" y="30.1074">As an Agent, I want to list real estate purchase orders to accept or decline a purchase order for a property</text><rect fill="#FFFFFF" height="924.7793" style="stroke:#181818;stroke-width:1.0;" width="10" x="36.5" y="133.2422"/><rect fill="#FFFFFF" height="421.7441" style="stroke:#181818;stroke-width:1.0;" width="10" x="388.5" y="156.5332"/><rect fill="#FFFFFF" height="119.873" style="stroke:#181818;stroke-width:1.0;" width="10" x="388.5" y="635.8594"/><rect fill="#FFFFFF" height="42.291" style="stroke:#181818;stroke-width:1.0;" width="10" x="393.5" y="675.1504"/><rect fill="#FFFFFF" height="237.707" style="stroke:#181818;stroke-width:1.0;" width="10" x="388.5" y="820.3145"/><rect fill="#FFFFFF" height="42.291" style="stroke:#181818;stroke-width:1.0;" width="10" x="393.5" y="859.6055"/><rect fill="#FFFFFF" height="79.543" style="stroke:#181818;stroke-width:1.0;" width="10" x="866.5" y="231.4453"/><rect fill="#FFFFFF" height="31.291" style="stroke:#181818;stroke-width:1.0;" width="10" x="866.5" y="342.2793"/><rect fill="#FFFFFF" height="79.543" style="stroke:#181818;stroke-width:1.0;" width="10" x="866.5" y="404.8613"/><rect fill="#FFFFFF" height="31.291" style="stroke:#181818;stroke-width:1.0;" width="10" x="866.5" y="515.6953"/><rect fill="#FFFFFF" height="79.543" style="stroke:#181818;stroke-width:1.0;" width="10" x="866.5" y="947.1875"/><rect fill="none" height="170.4551" style="stroke:#000000;stroke-width:1.5;" width="528.5" x="10" y="593.2773"/><rect fill="none" height="139.1641" style="stroke:#000000;stroke-width:1.5;" width="528.5" x="10" y="777.7324"/><line style="stroke:#181818;stroke-width:0.5;stroke-dasharray:5.0,5.0;" x1="41" x2="41" y1="123.2422" y2="1076.0215"/><line style="stroke:#181818;stroke-width:0.5;stroke-dasharray:5.0,5.0;" x1="393.5" x2="393.5" y1="123.2422" y2="1076.0215"/><line style="stroke:#181818;stroke-width:0.5;stroke-dasharray:5.0,5.0;" x1="871.5" x2="871.5" y1="196.3438" y2="1076.0215"/><line style="stroke:#181818;stroke-width:0.5;stroke-dasharray:5.0,5.0;" x1="1021.5" x2="1021.5" y1="123.2422" y2="1076.0215"/><line style="stroke:#181818;stroke-width:0.5;stroke-dasharray:5.0,5.0;" x1="1128.5" x2="1128.5" y1="123.2422" y2="1076.0215"/><line style="stroke:#181818;stroke-width:0.5;stroke-dasharray:5.0,5.0;" x1="1277.5" x2="1277.5" y1="123.2422" y2="1076.0215"/><line style="stroke:#181818;stroke-width:0.5;stroke-dasharray:5.0,5.0;" x1="1455.5" x2="1455.5" y1="123.2422" y2="1076.0215"/><text fill="#000000" font-family="sans-serif" font-size="14" lengthAdjust="spacing" textLength="37" x="20" y="119.7285">Agent</text><ellipse cx="41.5" cy="53.1211" fill="#E3E3E3" rx="8" ry="8" style="stroke:#181818;stroke-width:0.5;"/><path d="M41.5,61.1211 L41.5,88.1211 M28.5,69.1211 L54.5,69.1211 M41.5,88.1211 L28.5,103.1211 M41.5,88.1211 L54.5,103.1211 " fill="none" style="stroke:#181818;stroke-width:0.5;"/><text fill="#000000" font-family="sans-serif" font-size="14" lengthAdjust="spacing" textLength="37" x="20" y="1090.1289">Agent</text><ellipse cx="41.5" cy="1102.1426" fill="#E3E3E3" rx="8" ry="8" style="stroke:#181818;stroke-width:0.5;"/><path d="M41.5,1110.1426 L41.5,1137.1426 M28.5,1118.1426 L54.5,1118.1426 M41.5,1137.1426 L28.5,1152.1426 M41.5,1137.1426 L54.5,1152.1426 " fill="none" style="stroke:#181818;stroke-width:0.5;"/><rect fill="#E3E3E3" height="32.6211" rx="2.5" ry="2.5" style="stroke:#181818;stroke-width:0.5;" width="134" x="326.5" y="89.6211"/><text fill="#000000" font-family="sans-serif" font-size="14" lengthAdjust="spacing" textLength="120" x="333.5" y="111.7285">:PurchaseOrdersUI</text><rect fill="#E3E3E3" height="32.6211" rx="2.5" ry="2.5" style="stroke:#181818;stroke-width:0.5;" width="134" x="326.5" y="1075.0215"/><text fill="#000000" font-family="sans-serif" font-size="14" lengthAdjust="spacing" textLength="120" x="333.5" y="1097.1289">:PurchaseOrdersUI</text><rect fill="#E3E3E3" height="32.6211" rx="2.5" ry="2.5" style="stroke:#181818;stroke-width:0.5;" width="184" x="779.5" y="1075.0215"/><text fill="#000000" font-family="sans-serif" font-size="14" lengthAdjust="spacing" textLength="170" x="786.5" y="1097.1289">:PurchaseOrdersController</text><rect fill="#E3E3E3" height="32.6211" rx="2.5" ry="2.5" style="stroke:#181818;stroke-width:0.5;" width="97" x="973.5" y="89.6211"/><text fill="#000000" font-family="sans-serif" font-size="14" lengthAdjust="spacing" textLength="83" x="980.5" y="111.7285">:Repositories</text><rect fill="#E3E3E3" height="32.6211" rx="2.5" ry="2.5" style="stroke:#181818;stroke-width:0.5;" width="97" x="973.5" y="1075.0215"/><text fill="#000000" font-family="sans-serif" font-size="14" lengthAdjust="spacing" textLength="83" x="980.5" y="1097.1289">:Repositories</text><rect fill="#E3E3E3" height="51.2422" rx="2.5" ry="2.5" style="stroke:#181818;stroke-width:0.5;" width="97" x="1080.5" y="71"/><text fill="#000000" font-family="sans-serif" font-size="14" lengthAdjust="spacing" textLength="74" x="1092" y="93.1074">repositories</text><text fill="#000000" font-family="sans-serif" font-size="14" lengthAdjust="spacing" textLength="83" x="1087.5" y="111.7285">:Repositories</text><rect fill="#E3E3E3" height="51.2422" rx="2.5" ry="2.5" style="stroke:#181818;stroke-width:0.5;" width="97" x="1080.5" y="1075.0215"/><text fill="#000000" font-family="sans-serif" font-size="14" lengthAdjust="spacing" textLength="74" x="1092" y="1097.1289">repositories</text><text fill="#000000" font-family="sans-serif" font-size="14" lengthAdjust="spacing" textLength="83" x="1087.5" y="1115.75">:Repositories</text><rect fill="#E3E3E3" height="51.2422" rx="2.5" ry="2.5" style="stroke:#181818;stroke-width:0.5;" width="181" x="1187.5" y="71"/><text fill="#000000" font-family="sans-serif" font-size="14" lengthAdjust="spacing" textLength="162" x="1197" y="93.1074">announcementRepository</text><text fill="#000000" font-family="sans-serif" font-size="14" lengthAdjust="spacing" textLength="167" x="1194.5" y="111.7285">:AnnouncementRepository</text><rect fill="#E3E3E3" height="51.2422" rx="2.5" ry="2.5" style="stroke:#181818;stroke-width:0.5;" width="181" x="1187.5" y="1075.0215"/><text fill="#000000" font-family="sans-serif" font-size="14" lengthAdjust="spacing" textLength="162" x="1197" y="1097.1289">announcementRepository</text><text fill="#000000" font-family="sans-serif" font-size="14" lengthAdjust="spacing" textLength="167" x="1194.5" y="1115.75">:AnnouncementRepository</text><rect fill="#E3E3E3" height="51.2422" rx="2.5" ry="2.5" style="stroke:#181818;stroke-width:0.5;" width="154" x="1378.5" y="71"/><text fill="#000000" font-family="sans-serif" font-size="14" lengthAdjust="spacing" textLength="135" x="1388" y="93.1074">buyOrdersRepository</text><text fill="#000000" font-family="sans-serif" font-size="14" lengthAdjust="spacing" textLength="140" x="1385.5" y="111.7285">:BuyOrdersRepository</text><rect fill="#E3E3E3" height="51.2422" rx="2.5" ry="2.5" style="stroke:#181818;stroke-width:0.5;" width="154" x="1378.5" y="1075.0215"/><text fill="#000000" font-family="sans-serif" font-size="14" lengthAdjust="spacing" textLength="135" x="1388" y="1097.1289">buyOrdersRepository</text><text fill="#000000" font-family="sans-serif" font-size="14" lengthAdjust="spacing" textLength="140" x="1385.5" y="1115.75">:BuyOrdersRepository</text><rect fill="#FFFFFF" height="924.7793" style="stroke:#181818;stroke-width:1.0;" width="10" x="36.5" y="133.2422"/><rect fill="#FFFFFF" height="421.7441" style="stroke:#181818;stroke-width:1.0;" width="10" x="388.5" y="156.5332"/><rect fill="#FFFFFF" height="119.873" style="stroke:#181818;stroke-width:1.0;" width="10" x="388.5" y="635.8594"/><rect fill="#FFFFFF" height="42.291" style="stroke:#181818;stroke-width:1.0;" width="10" x="393.5" y="675.1504"/><rect fill="#FFFFFF" height="237.707" style="stroke:#181818;stroke-width:1.0;" width="10" x="388.5" y="820.3145"/><rect fill="#FFFFFF" height="42.291" style="stroke:#181818;stroke-width:1.0;" width="10" x="393.5" y="859.6055"/><rect fill="#FFFFFF" height="79.543" style="stroke:#181818;stroke-width:1.0;" width="10" x="866.5" y="231.4453"/><rect fill="#FFFFFF" height="31.291" style="stroke:#181818;stroke-width:1.0;" width="10" x="866.5" y="342.2793"/><rect fill="#FFFFFF" height="79.543" style="stroke:#181818;stroke-width:1.0;" width="10" x="866.5" y="404.8613"/><rect fill="#FFFFFF" height="31.291" style="stroke:#181818;stroke-width:1.0;" width="10" x="866.5" y="515.6953"/><rect fill="#FFFFFF" height="79.543" style="stroke:#181818;stroke-width:1.0;" width="10" x="866.5" y="947.1875"/><polygon fill="#181818" points="376.5,152.5332,386.5,156.5332,376.5,160.5332,380.5,156.5332" style="stroke:#181818;stroke-width:1.0;"/><line style="stroke:#181818;stroke-width:1.0;" x1="46.5" x2="382.5" y1="156.5332" y2="156.5332"/><text fill="#000000" font-family="sans-serif" font-size="13" font-weight="bold" lengthAdjust="spacing" textLength="7" x="53.5" y="151.2705">1</text><text fill="#000000" font-family="sans-serif" font-size="13" lengthAdjust="spacing" textLength="161" x="64.5" y="151.2705">asks to list purchase orders</text><polygon fill="#181818" points="767.5,183.8242,777.5,187.8242,767.5,191.8242,771.5,187.8242" style="stroke:#181818;stroke-width:1.0;"/><line style="stroke:#181818;stroke-width:1.0;" x1="398.5" x2="773.5" y1="187.8242" y2="187.8242"/><text fill="#000000" font-family="sans-serif" font-size="13" font-weight="bold" lengthAdjust="spacing" textLength="7" x="405.5" y="182.5615">2</text><text fill="#000000" font-family="sans-serif" font-size="13" lengthAdjust="spacing" textLength="36" x="416.5" y="182.5615">create</text><rect fill="#E3E3E3" height="32.6211" rx="2.5" ry="2.5" style="stroke:#181818;stroke-width:0.5;" width="184" x="779.5" y="164.5332"/><text fill="#000000" font-family="sans-serif" font-size="14" lengthAdjust="spacing" textLength="170" x="786.5" y="186.6406">:PurchaseOrdersController</text><polygon fill="#181818" points="854.5,227.4453,864.5,231.4453,854.5,235.4453,858.5,231.4453" style="stroke:#181818;stroke-width:1.0;"/><line style="stroke:#181818;stroke-width:1.0;" x1="398.5" x2="860.5" y1="231.4453" y2="231.4453"/><text fill="#000000" font-family="sans-serif" font-size="13" font-weight="bold" lengthAdjust="spacing" textLength="7" x="405.5" y="226.1826">3</text><text fill="#000000" font-family="sans-serif" font-size="13" lengthAdjust="spacing" textLength="146" x="416.5" y="226.1826">getSaleAnnouncements()</text><rect fill="none" height="43.252" style="stroke:#000000;stroke-width:1.5;" width="190" x="776.5" y="239.4453"/><path d="M776.5,239.4453 L838.5,239.4453 L838.5,248.4453 L828.5,258.4453 L776.5,258.4453 L776.5,239.4453 " fill="#EEEEEE" style="stroke:#000000;stroke-width:2.0;"/><text fill="#000000" font-family="sans-serif" font-size="13" font-weight="bold" lengthAdjust="spacing" textLength="17" x="789.5" y="255.4736">ref</text><text fill="#000000" font-family="sans-serif" font-size="12" lengthAdjust="spacing" textLength="161" x="791" y="275.3945">get Sale Announcements List</text><polygon fill="#181818" points="409.5,306.9883,399.5,310.9883,409.5,314.9883,405.5,310.9883" style="stroke:#181818;stroke-width:1.0;"/><line style="stroke:#181818;stroke-width:1.0;stroke-dasharray:2.0,2.0;" x1="403.5" x2="870.5" y1="310.9883" y2="310.9883"/><text fill="#000000" font-family="sans-serif" font-size="13" font-weight="bold" lengthAdjust="spacing" textLength="7" x="415.5" y="305.7256">4</text><text fill="#000000" font-family="sans-serif" font-size="13" lengthAdjust="spacing" textLength="106" x="426.5" y="305.7256">announcementList</text><polygon fill="#181818" points="854.5,338.2793,864.5,342.2793,854.5,346.2793,858.5,342.2793" style="stroke:#181818;stroke-width:1.0;"/><line style="stroke:#181818;stroke-width:1.0;" x1="398.5" x2="860.5" y1="342.2793" y2="342.2793"/><text fill="#000000" font-family="sans-serif" font-size="13" font-weight="bold" lengthAdjust="spacing" textLength="7" x="405.5" y="337.0166">5</text><text fill="#000000" font-family="sans-serif" font-size="13" lengthAdjust="spacing" textLength="406" x="416.5" y="337.0166">getListOldestToNewest(announcementList,AnnouncementComparator)</text><polygon fill="#181818" points="409.5,369.5703,399.5,373.5703,409.5,377.5703,405.5,373.5703" style="stroke:#181818;stroke-width:1.0;"/><line style="stroke:#181818;stroke-width:1.0;stroke-dasharray:2.0,2.0;" x1="403.5" x2="870.5" y1="373.5703" y2="373.5703"/><text fill="#000000" font-family="sans-serif" font-size="13" font-weight="bold" lengthAdjust="spacing" textLength="7" x="415.5" y="368.3076">6</text><text fill="#000000" font-family="sans-serif" font-size="13" lengthAdjust="spacing" textLength="84" x="426.5" y="368.3076">itemListSorted</text><polygon fill="#181818" points="854.5,400.8613,864.5,404.8613,854.5,408.8613,858.5,404.8613" style="stroke:#181818;stroke-width:1.0;"/><line style="stroke:#181818;stroke-width:1.0;" x1="398.5" x2="860.5" y1="404.8613" y2="404.8613"/><text fill="#000000" font-family="sans-serif" font-size="13" font-weight="bold" lengthAdjust="spacing" textLength="7" x="405.5" y="399.5986">7</text><text fill="#000000" font-family="sans-serif" font-size="13" lengthAdjust="spacing" textLength="88" x="416.5" y="399.5986">getBuyOrders()</text><rect fill="none" height="43.252" style="stroke:#000000;stroke-width:1.5;" width="190" x="776.5" y="412.8613"/><path d="M776.5,412.8613 L838.5,412.8613 L838.5,421.8613 L828.5,431.8613 L776.5,431.8613 L776.5,412.8613 " fill="#EEEEEE" style="stroke:#000000;stroke-width:2.0;"/><text fill="#000000" font-family="sans-serif" font-size="13" font-weight="bold" lengthAdjust="spacing" textLength="17" x="789.5" y="428.8896">ref</text><text fill="#000000" font-family="sans-serif" font-size="12" lengthAdjust="spacing" textLength="104" x="819.5" y="448.8105">get Buy Orders List</text><polygon fill="#181818" points="409.5,480.4043,399.5,484.4043,409.5,488.4043,405.5,484.4043" style="stroke:#181818;stroke-width:1.0;"/><line style="stroke:#181818;stroke-width:1.0;stroke-dasharray:2.0,2.0;" x1="403.5" x2="870.5" y1="484.4043" y2="484.4043"/><text fill="#000000" font-family="sans-serif" font-size="13" font-weight="bold" lengthAdjust="spacing" textLength="7" x="415.5" y="479.1416">8</text><text fill="#000000" font-family="sans-serif" font-size="13" lengthAdjust="spacing" textLength="81" x="426.5" y="479.1416">buyOrdersList</text><polygon fill="#181818" points="854.5,511.6953,864.5,515.6953,854.5,519.6953,858.5,515.6953" style="stroke:#181818;stroke-width:1.0;"/><line style="stroke:#181818;stroke-width:1.0;" x1="398.5" x2="860.5" y1="515.6953" y2="515.6953"/><text fill="#000000" font-family="sans-serif" font-size="13" font-weight="bold" lengthAdjust="spacing" textLength="7" x="405.5" y="510.4326">9</text><text fill="#000000" font-family="sans-serif" font-size="13" lengthAdjust="spacing" textLength="354" x="416.5" y="510.4326">getListDescendingOrder(buyOrdersList,BuyOrderComparator)</text><polygon fill="#181818" points="409.5,542.9863,399.5,546.9863,409.5,550.9863,405.5,546.9863" style="stroke:#181818;stroke-width:1.0;"/><line style="stroke:#181818;stroke-width:1.0;stroke-dasharray:2.0,2.0;" x1="403.5" x2="870.5" y1="546.9863" y2="546.9863"/><text fill="#000000" font-family="sans-serif" font-size="13" font-weight="bold" lengthAdjust="spacing" textLength="14" x="415.5" y="541.7236">10</text><text fill="#000000" font-family="sans-serif" font-size="13" lengthAdjust="spacing" textLength="84" x="433.5" y="541.7236">itemListSorted</text><polygon fill="#181818" points="57.5,574.2773,47.5,578.2773,57.5,582.2773,53.5,578.2773" style="stroke:#181818;stroke-width:1.0;"/><line style="stroke:#181818;stroke-width:1.0;stroke-dasharray:2.0,2.0;" x1="51.5" x2="392.5" y1="578.2773" y2="578.2773"/><text fill="#000000" font-family="sans-serif" font-size="13" font-weight="bold" lengthAdjust="spacing" textLength="14" x="63.5" y="573.0146">11</text><text fill="#000000" font-family="sans-serif" font-size="13" lengthAdjust="spacing" textLength="244" x="81.5" y="573.0146">provide properties list and respective offers</text><path d="M10,593.2773 L83,593.2773 L83,602.5684 L73,612.5684 L10,612.5684 L10,593.2773 " fill="#EEEEEE" style="stroke:#000000;stroke-width:1.5;"/><rect fill="none" height="170.4551" style="stroke:#000000;stroke-width:1.5;" width="528.5" x="10" y="593.2773"/><text fill="#000000" font-family="sans-serif" font-size="13" font-weight="bold" lengthAdjust="spacing" textLength="28" x="25" y="608.3057">loop</text><polygon fill="#181818" points="376.5,631.8594,386.5,635.8594,376.5,639.8594,380.5,635.8594" style="stroke:#181818;stroke-width:1.0;"/><line style="stroke:#181818;stroke-width:1.0;" x1="46.5" x2="382.5" y1="635.8594" y2="635.8594"/><text fill="#000000" font-family="sans-serif" font-size="13" font-weight="bold" lengthAdjust="spacing" textLength="14" x="53.5" y="630.5967">12</text><text fill="#000000" font-family="sans-serif" font-size="13" lengthAdjust="spacing" textLength="153" x="71.5" y="630.5967">selectes property and offer</text><line style="stroke:#181818;stroke-width:1.0;" x1="398.5" x2="445.5" y1="662.1504" y2="662.1504"/><line style="stroke:#181818;stroke-width:1.0;" x1="445.5" x2="445.5" y1="662.1504" y2="675.1504"/><line style="stroke:#181818;stroke-width:1.0;" x1="404.5" x2="445.5" y1="675.1504" y2="675.1504"/><polygon fill="#181818" points="414.5,671.1504,404.5,675.1504,414.5,679.1504,410.5,675.1504" style="stroke:#181818;stroke-width:1.0;"/><text fill="#000000" font-family="sans-serif" font-size="13" font-weight="bold" lengthAdjust="spacing" textLength="14" x="410.5" y="656.8877">13</text><text fill="#000000" font-family="sans-serif" font-size="13" lengthAdjust="spacing" textLength="98" x="428.5" y="656.8877">selectBuyOrder()</text><line style="stroke:#181818;stroke-width:1.0;" x1="403.5" x2="445.5" y1="716.4414" y2="716.4414"/><line style="stroke:#181818;stroke-width:1.0;" x1="445.5" x2="445.5" y1="716.4414" y2="729.4414"/><line style="stroke:#181818;stroke-width:1.0;" x1="398.5" x2="445.5" y1="729.4414" y2="729.4414"/><polygon fill="#181818" points="408.5,725.4414,398.5,729.4414,408.5,733.4414,404.5,729.4414" style="stroke:#181818;stroke-width:1.0;"/><text fill="#000000" font-family="sans-serif" font-size="13" font-weight="bold" lengthAdjust="spacing" textLength="14" x="410.5" y="711.1787">14</text><text fill="#000000" font-family="sans-serif" font-size="13" lengthAdjust="spacing" textLength="83" x="428.5" y="711.1787">ValidateInput()</text><polygon fill="#181818" points="57.5,751.7324,47.5,755.7324,57.5,759.7324,53.5,755.7324" style="stroke:#181818;stroke-width:1.0;"/><line style="stroke:#181818;stroke-width:1.0;stroke-dasharray:2.0,2.0;" x1="51.5" x2="392.5" y1="755.7324" y2="755.7324"/><text fill="#000000" font-family="sans-serif" font-size="13" font-weight="bold" lengthAdjust="spacing" textLength="14" x="63.5" y="750.4697">15</text><text fill="#000000" font-family="sans-serif" font-size="13" lengthAdjust="spacing" textLength="198" x="81.5" y="750.4697">asks if is to accept or decline offer</text><path d="M10,777.7324 L83,777.7324 L83,787.0234 L73,797.0234 L10,797.0234 L10,777.7324 " fill="#EEEEEE" style="stroke:#000000;stroke-width:1.5;"/><rect fill="none" height="139.1641" style="stroke:#000000;stroke-width:1.5;" width="528.5" x="10" y="777.7324"/><text fill="#000000" font-family="sans-serif" font-size="13" font-weight="bold" lengthAdjust="spacing" textLength="28" x="25" y="792.7607">loop</text><polygon fill="#181818" points="376.5,816.3145,386.5,820.3145,376.5,824.3145,380.5,820.3145" style="stroke:#181818;stroke-width:1.0;"/><line style="stroke:#181818;stroke-width:1.0;" x1="46.5" x2="382.5" y1="820.3145" y2="820.3145"/><text fill="#000000" font-family="sans-serif" font-size="13" font-weight="bold" lengthAdjust="spacing" textLength="14" x="53.5" y="815.0518">16</text><text fill="#000000" font-family="sans-serif" font-size="13" lengthAdjust="spacing" textLength="84" x="71.5" y="815.0518">submit answer</text><line style="stroke:#181818;stroke-width:1.0;" x1="398.5" x2="445.5" y1="846.6055" y2="846.6055"/><line style="stroke:#181818;stroke-width:1.0;" x1="445.5" x2="445.5" y1="846.6055" y2="859.6055"/><line style="stroke:#181818;stroke-width:1.0;" x1="404.5" x2="445.5" y1="859.6055" y2="859.6055"/><polygon fill="#181818" points="414.5,855.6055,404.5,859.6055,414.5,863.6055,410.5,859.6055" style="stroke:#181818;stroke-width:1.0;"/><text fill="#000000" font-family="sans-serif" font-size="13" font-weight="bold" lengthAdjust="spacing" textLength="14" x="410.5" y="841.3428">17</text><text fill="#000000" font-family="sans-serif" font-size="13" lengthAdjust="spacing" textLength="90" x="428.5" y="841.3428">submitAnswer()</text><line style="stroke:#181818;stroke-width:1.0;" x1="403.5" x2="445.5" y1="900.8965" y2="900.8965"/><line style="stroke:#181818;stroke-width:1.0;" x1="445.5" x2="445.5" y1="900.8965" y2="913.8965"/><line style="stroke:#181818;stroke-width:1.0;" x1="398.5" x2="445.5" y1="913.8965" y2="913.8965"/><polygon fill="#181818" points="408.5,909.8965,398.5,913.8965,408.5,917.8965,404.5,913.8965" style="stroke:#181818;stroke-width:1.0;"/><text fill="#000000" font-family="sans-serif" font-size="13" font-weight="bold" lengthAdjust="spacing" textLength="14" x="410.5" y="895.6338">18</text><text fill="#000000" font-family="sans-serif" font-size="13" lengthAdjust="spacing" textLength="98" x="428.5" y="895.6338">ValidateAnswer()</text><polygon fill="#181818" points="854.5,943.1875,864.5,947.1875,854.5,951.1875,858.5,947.1875" style="stroke:#181818;stroke-width:1.0;"/><line style="stroke:#181818;stroke-width:1.0;" x1="398.5" x2="860.5" y1="947.1875" y2="947.1875"/><text fill="#000000" font-family="sans-serif" font-size="13" font-weight="bold" lengthAdjust="spacing" textLength="14" x="405.5" y="941.9248">19</text><text fill="#000000" font-family="sans-serif" font-size="13" lengthAdjust="spacing" textLength="431" x="423.5" y="941.9248">createEmail(String sender, String receiver, String subject, String message)</text><rect fill="none" height="43.252" style="stroke:#000000;stroke-width:1.5;" width="190" x="776.5" y="955.1875"/><path d="M776.5,955.1875 L838.5,955.1875 L838.5,964.1875 L828.5,974.1875 L776.5,974.1875 L776.5,955.1875 " fill="#EEEEEE" style="stroke:#000000;stroke-width:2.0;"/><text fill="#000000" font-family="sans-serif" font-size="13" font-weight="bold" lengthAdjust="spacing" textLength="17" x="789.5" y="971.2158">ref</text><text fill="#000000" font-family="sans-serif" font-size="12" lengthAdjust="spacing" textLength="68" x="837.5" y="991.1367">create email</text><polygon fill="#181818" points="409.5,1022.7305,399.5,1026.7305,409.5,1030.7305,405.5,1026.7305" style="stroke:#181818;stroke-width:1.0;"/><line style="stroke:#181818;stroke-width:1.0;stroke-dasharray:2.0,2.0;" x1="403.5" x2="870.5" y1="1026.7305" y2="1026.7305"/><text fill="#000000" font-family="sans-serif" font-size="13" font-weight="bold" lengthAdjust="spacing" textLength="14" x="415.5" y="1021.4678">20</text><text fill="#000000" font-family="sans-serif" font-size="13" lengthAdjust="spacing" textLength="53" x="433.5" y="1021.4678">message</text><polygon fill="#181818" points="52.5,1054.0215,42.5,1058.0215,52.5,1062.0215,48.5,1058.0215" style="stroke:#181818;stroke-width:1.0;"/><line style="stroke:#181818;stroke-width:1.0;stroke-dasharray:2.0,2.0;" x1="46.5" x2="392.5" y1="1058.0215" y2="1058.0215"/><text fill="#000000" font-family="sans-serif" font-size="13" font-weight="bold" lengthAdjust="spacing" textLength="14" x="58.5" y="1052.7588">21</text><text fill="#000000" font-family="sans-serif" font-size="13" lengthAdjust="spacing" textLength="300" x="76.5" y="1052.7588">displays operation success and send email to client</text><!--SRC=[jLPDRzim3BthLn0zfKK2RC0m33aKoB9Y212iHTFkr8jgCwbMMJ8akK7-_KWvSVoPBXYgIsA9V2GVgMVxLsLowMG6cJKsUN4sGmYkGE6harmchtA3gx3J20wJ8Cr6rmtyYqpjLfaDhANsA4HGWKnd7gI1sGPD6CC2jj8421Qqye5Wf0RqGGQ4l739Y_G8rgNeFDl89C4yq0Qac6Xb46JB3DPqI9lEvkZ2JWXP16kAx1aT_Ky2dLx4q1SWFSn-FWZADQX4vPp6nVHkZtOROpukejdZugJLt9hWhDReelNyuNxPih_7t7f5mHNwQ5Djx5QAMQCScowkvl5akW1torahTMcCBKo26HLtX2VVMUz1H5dUpfiWpyMkhAc1yBsxMrPnSoSYg-gD6yPi2g15Vs1oJRJ1bCnUVTNULajBQruL1b5TRV8Y349YIg-k22sX0GdODfbSim4TRp2ifCPwnNvqsJHlX8kzWfxbS0tsZUPfq89Y0GU3HZHOKfszzcXIHkr9fffG-D8vvF2JoNL9PIrGRvWKcuKDC5aInGYtEgNBzc1_uPP-H-q0utffSvlnjQRcNxx3fsW6hjNtLRHhWybXK5J0Z8Ekh0kOYlFgukrOLJMg7zbs2W9bbFzhzpSnrEhg7dRmp-xn3_G99KCo4n573UZnWQzpkZjGpUTF7zHTmc15cRAglwaK3-fEMbZAYenS-nmPXyHblMPnwS4_gCl6sI87RMtUqIkFcc08-V0AYUWHKWmgLSbxpVz0w-ZojCInTaMttrAhb4uN9Yz2pQkLlDWxLPH4ULLhK0FlnsFYJQJzYBvFH_6SAMROR_-LWEWnYmvdbzznEv5rP-3BbyDD9fKUhOBZ3mzFrkZ6i7-ahnIa2JbkKB9_g5tLSuRUqpTDymwSbetJab7c1CX9YI6D6Bus-tp4q5rfNf4ffChdMkuyyEpAeAoX4cael8zZp7IKkV2qq8IGhek-CQizyrlzBm00]--></g></svg>