<?xml version="1.0" encoding="us-ascii" standalone="no"?><svg xmlns="http://www.w3.org/2000/svg" xmlns:xlink="http://www.w3.org/1999/xlink" contentStyleType="text/css" height="581px" preserveAspectRatio="none" style="width:1671px;height:581px;background:#FFFFFF;" version="1.1" viewBox="0 0 1671 581" width="1671px" zoomAndPan="magnify"><defs/><g><rect fill="#FFFFFF" height="462.375" style="stroke:#181818;stroke-width:1.0;" width="10" x="461" y="66.1641"/><rect fill="#FFFFFF" height="85.5703" style="stroke:#181818;stroke-width:1.0;" width="10" x="939" y="118.2109"/><rect fill="#FFFFFF" height="85.5703" style="stroke:#181818;stroke-width:1.0;" width="10" x="939" y="262.8281"/><rect fill="#FFFFFF" height="85.5703" style="stroke:#181818;stroke-width:1.0;" width="10" x="939" y="407.4453"/><rect fill="#FFFFFF" height="28.5234" style="stroke:#181818;stroke-width:1.0;" width="10" x="1410" y="146.7344"/><rect fill="#FFFFFF" height="28.5234" style="stroke:#181818;stroke-width:1.0;" width="10" x="1507" y="291.3516"/><rect fill="#FFFFFF" height="28.5234" style="stroke:#181818;stroke-width:1.0;" width="10" x="1606.5" y="435.9688"/><rect fill="none" height="130.6172" style="stroke:#000000;stroke-width:1.5;" width="1059.5" x="406.5" y="81.1641"/><rect fill="none" height="130.6172" style="stroke:#000000;stroke-width:1.5;" width="1161.5" x="406.5" y="225.7813"/><rect fill="none" height="130.6172" style="stroke:#000000;stroke-width:1.5;" width="1258.5" x="406.5" y="370.3984"/><line style="stroke:#181818;stroke-width:0.5;stroke-dasharray:5.0,5.0;" x1="465.5" x2="465.5" y1="35.6406" y2="546.5391"/><line style="stroke:#181818;stroke-width:0.5;stroke-dasharray:5.0,5.0;" x1="944" x2="944" y1="35.6406" y2="546.5391"/><line style="stroke:#181818;stroke-width:0.5;stroke-dasharray:5.0,5.0;" x1="1415" x2="1415" y1="35.6406" y2="546.5391"/><line style="stroke:#181818;stroke-width:0.5;stroke-dasharray:5.0,5.0;" x1="1512" x2="1512" y1="35.6406" y2="546.5391"/><line style="stroke:#181818;stroke-width:0.5;stroke-dasharray:5.0,5.0;" x1="1611" x2="1611" y1="35.6406" y2="546.5391"/><rect fill="#E3E3E3" height="29.6406" rx="2.5" ry="2.5" style="stroke:#181818;stroke-width:0.5;" width="99" x="416.5" y="5"/><text fill="#000000" font-family="sans-serif" font-size="14" lengthAdjust="spacing" textLength="85" x="423.5" y="24.6738">Configuration</text><rect fill="#E3E3E3" height="29.6406" rx="2.5" ry="2.5" style="stroke:#181818;stroke-width:0.5;" width="99" x="416.5" y="545.5391"/><text fill="#000000" font-family="sans-serif" font-size="14" lengthAdjust="spacing" textLength="85" x="423.5" y="565.2129">Configuration</text><rect fill="#E3E3E3" height="29.6406" rx="2.5" ry="2.5" style="stroke:#181818;stroke-width:0.5;" width="80" x="904" y="5"/><text fill="#000000" font-family="sans-serif" font-size="14" lengthAdjust="spacing" textLength="66" x="911" y="24.6738">EmailFilter</text><rect fill="#E3E3E3" height="29.6406" rx="2.5" ry="2.5" style="stroke:#181818;stroke-width:0.5;" width="80" x="904" y="545.5391"/><text fill="#000000" font-family="sans-serif" font-size="14" lengthAdjust="spacing" textLength="66" x="911" y="565.2129">EmailFilter</text><rect fill="#E3E3E3" height="29.6406" rx="2.5" ry="2.5" style="stroke:#181818;stroke-width:0.5;" width="82" x="1374" y="5"/><text fill="#000000" font-family="sans-serif" font-size="14" lengthAdjust="spacing" textLength="68" x="1381" y="24.6738">GmailFilter</text><rect fill="#E3E3E3" height="29.6406" rx="2.5" ry="2.5" style="stroke:#181818;stroke-width:0.5;" width="82" x="1374" y="545.5391"/><text fill="#000000" font-family="sans-serif" font-size="14" lengthAdjust="spacing" textLength="68" x="1381" y="565.2129">GmailFilter</text><rect fill="#E3E3E3" height="29.6406" rx="2.5" ry="2.5" style="stroke:#181818;stroke-width:0.5;" width="92" x="1466" y="5"/><text fill="#000000" font-family="sans-serif" font-size="14" lengthAdjust="spacing" textLength="78" x="1473" y="24.6738">HotmailFilter</text><rect fill="#E3E3E3" height="29.6406" rx="2.5" ry="2.5" style="stroke:#181818;stroke-width:0.5;" width="92" x="1466" y="545.5391"/><text fill="#000000" font-family="sans-serif" font-size="14" lengthAdjust="spacing" textLength="78" x="1473" y="565.2129">HotmailFilter</text><rect fill="#E3E3E3" height="29.6406" rx="2.5" ry="2.5" style="stroke:#181818;stroke-width:0.5;" width="87" x="1568" y="5"/><text fill="#000000" font-family="sans-serif" font-size="14" lengthAdjust="spacing" textLength="73" x="1575" y="24.6738">YahooFilter</text><rect fill="#E3E3E3" height="29.6406" rx="2.5" ry="2.5" style="stroke:#181818;stroke-width:0.5;" width="87" x="1568" y="545.5391"/><text fill="#000000" font-family="sans-serif" font-size="14" lengthAdjust="spacing" textLength="73" x="1575" y="565.2129">YahooFilter</text><rect fill="#FFFFFF" height="462.375" style="stroke:#181818;stroke-width:1.0;" width="10" x="461" y="66.1641"/><rect fill="#FFFFFF" height="85.5703" style="stroke:#181818;stroke-width:1.0;" width="10" x="939" y="118.2109"/><rect fill="#FFFFFF" height="85.5703" style="stroke:#181818;stroke-width:1.0;" width="10" x="939" y="262.8281"/><rect fill="#FFFFFF" height="85.5703" style="stroke:#181818;stroke-width:1.0;" width="10" x="939" y="407.4453"/><rect fill="#FFFFFF" height="28.5234" style="stroke:#181818;stroke-width:1.0;" width="10" x="1410" y="146.7344"/><rect fill="#FFFFFF" height="28.5234" style="stroke:#181818;stroke-width:1.0;" width="10" x="1507" y="291.3516"/><rect fill="#FFFFFF" height="28.5234" style="stroke:#181818;stroke-width:1.0;" width="10" x="1606.5" y="435.9688"/><polygon fill="#181818" points="449,62.1641,459,66.1641,449,70.1641,453,66.1641" style="stroke:#181818;stroke-width:1.0;"/><line style="stroke:#181818;stroke-width:1.0;" x1="0" x2="455" y1="66.1641" y2="66.1641"/><text fill="#000000" font-family="sans-serif" font-size="13" font-weight="bold" lengthAdjust="spacing" textLength="7" x="7" y="61.4092">3</text><text fill="#000000" font-family="sans-serif" font-size="13" lengthAdjust="spacing" textLength="431" x="18" y="61.4092">createEmail(String sender, String receiver, String subject, String message)</text><path d="M406.5,81.1641 L467.5,81.1641 L467.5,87.6875 L457.5,97.6875 L406.5,97.6875 L406.5,81.1641 " fill="#EEEEEE" style="stroke:#000000;stroke-width:1.5;"/><rect fill="none" height="130.6172" style="stroke:#000000;stroke-width:1.5;" width="1059.5" x="406.5" y="81.1641"/><text fill="#000000" font-family="sans-serif" font-size="13" font-weight="bold" lengthAdjust="spacing" textLength="16" x="421.5" y="93.9326">alt</text><text fill="#000000" font-family="sans-serif" font-size="11" font-weight="bold" lengthAdjust="spacing" textLength="43" x="482.5" y="93.1221">[filter =]</text><polygon fill="#181818" points="927,114.2109,937,118.2109,927,122.2109,931,118.2109" style="stroke:#181818;stroke-width:1.0;"/><line style="stroke:#181818;stroke-width:1.0;" x1="471" x2="933" y1="118.2109" y2="118.2109"/><text fill="#000000" font-family="sans-serif" font-size="13" font-weight="bold" lengthAdjust="spacing" textLength="7" x="478" y="113.4561">4</text><text fill="#000000" font-family="sans-serif" font-size="13" lengthAdjust="spacing" textLength="431" x="489" y="113.4561">createEmail(String sender, String receiver, String subject, String message)</text><polygon fill="#181818" points="1398,142.7344,1408,146.7344,1398,150.7344,1402,146.7344" style="stroke:#181818;stroke-width:1.0;"/><line style="stroke:#181818;stroke-width:1.0;" x1="949" x2="1404" y1="146.7344" y2="146.7344"/><text fill="#000000" font-family="sans-serif" font-size="13" font-weight="bold" lengthAdjust="spacing" textLength="7" x="956" y="141.9795">5</text><text fill="#000000" font-family="sans-serif" font-size="13" lengthAdjust="spacing" textLength="431" x="967" y="141.9795">createEmail(String sender, String receiver, String subject, String message)</text><polygon fill="#181818" points="960,171.2578,950,175.2578,960,179.2578,956,175.2578" style="stroke:#181818;stroke-width:1.0;"/><line style="stroke:#181818;stroke-width:1.0;" x1="954" x2="1414" y1="175.2578" y2="175.2578"/><text fill="#000000" font-family="sans-serif" font-size="13" font-weight="bold" lengthAdjust="spacing" textLength="7" x="966" y="170.5029">6</text><text fill="#000000" font-family="sans-serif" font-size="13" lengthAdjust="spacing" textLength="53" x="977" y="170.5029">message</text><polygon fill="#181818" points="482,199.7813,472,203.7813,482,207.7813,478,203.7813" style="stroke:#181818;stroke-width:1.0;"/><line style="stroke:#181818;stroke-width:1.0;stroke-dasharray:2.0,2.0;" x1="476" x2="943" y1="203.7813" y2="203.7813"/><text fill="#000000" font-family="sans-serif" font-size="13" font-weight="bold" lengthAdjust="spacing" textLength="7" x="488" y="199.0264">7</text><text fill="#000000" font-family="sans-serif" font-size="13" lengthAdjust="spacing" textLength="53" x="499" y="199.0264">message</text><path d="M406.5,225.7813 L467.5,225.7813 L467.5,232.3047 L457.5,242.3047 L406.5,242.3047 L406.5,225.7813 " fill="#EEEEEE" style="stroke:#000000;stroke-width:1.5;"/><rect fill="none" height="130.6172" style="stroke:#000000;stroke-width:1.5;" width="1161.5" x="406.5" y="225.7813"/><text fill="#000000" font-family="sans-serif" font-size="13" font-weight="bold" lengthAdjust="spacing" textLength="16" x="421.5" y="238.5498">alt</text><text fill="#000000" font-family="sans-serif" font-size="11" font-weight="bold" lengthAdjust="spacing" textLength="50" x="482.5" y="237.7393">[filter = t]</text><polygon fill="#181818" points="927,258.8281,937,262.8281,927,266.8281,931,262.8281" style="stroke:#181818;stroke-width:1.0;"/><line style="stroke:#181818;stroke-width:1.0;" x1="471" x2="933" y1="262.8281" y2="262.8281"/><text fill="#000000" font-family="sans-serif" font-size="13" font-weight="bold" lengthAdjust="spacing" textLength="7" x="478" y="258.0732">8</text><text fill="#000000" font-family="sans-serif" font-size="13" lengthAdjust="spacing" textLength="431" x="489" y="258.0732">createEmail(String sender, String receiver, String subject, String message)</text><polygon fill="#181818" points="1495,287.3516,1505,291.3516,1495,295.3516,1499,291.3516" style="stroke:#181818;stroke-width:1.0;"/><line style="stroke:#181818;stroke-width:1.0;" x1="949" x2="1501" y1="291.3516" y2="291.3516"/><text fill="#000000" font-family="sans-serif" font-size="13" font-weight="bold" lengthAdjust="spacing" textLength="7" x="956" y="286.5967">9</text><text fill="#000000" font-family="sans-serif" font-size="13" lengthAdjust="spacing" textLength="431" x="967" y="286.5967">createEmail(String sender, String receiver, String subject, String message)</text><polygon fill="#181818" points="960,315.875,950,319.875,960,323.875,956,319.875" style="stroke:#181818;stroke-width:1.0;"/><line style="stroke:#181818;stroke-width:1.0;" x1="954" x2="1511" y1="319.875" y2="319.875"/><text fill="#000000" font-family="sans-serif" font-size="13" font-weight="bold" lengthAdjust="spacing" textLength="14" x="966" y="315.1201">10</text><text fill="#000000" font-family="sans-serif" font-size="13" lengthAdjust="spacing" textLength="53" x="984" y="315.1201">message</text><polygon fill="#181818" points="482,344.3984,472,348.3984,482,352.3984,478,348.3984" style="stroke:#181818;stroke-width:1.0;"/><line style="stroke:#181818;stroke-width:1.0;stroke-dasharray:2.0,2.0;" x1="476" x2="943" y1="348.3984" y2="348.3984"/><text fill="#000000" font-family="sans-serif" font-size="13" font-weight="bold" lengthAdjust="spacing" textLength="14" x="488" y="343.6436">11</text><text fill="#000000" font-family="sans-serif" font-size="13" lengthAdjust="spacing" textLength="53" x="506" y="343.6436">message</text><path d="M406.5,370.3984 L467.5,370.3984 L467.5,376.9219 L457.5,386.9219 L406.5,386.9219 L406.5,370.3984 " fill="#EEEEEE" style="stroke:#000000;stroke-width:1.5;"/><rect fill="none" height="130.6172" style="stroke:#000000;stroke-width:1.5;" width="1258.5" x="406.5" y="370.3984"/><text fill="#000000" font-family="sans-serif" font-size="13" font-weight="bold" lengthAdjust="spacing" textLength="16" x="421.5" y="383.167">alt</text><text fill="#000000" font-family="sans-serif" font-size="11" font-weight="bold" lengthAdjust="spacing" textLength="50" x="482.5" y="382.3564">[filter = t]</text><polygon fill="#181818" points="927,403.4453,937,407.4453,927,411.4453,931,407.4453" style="stroke:#181818;stroke-width:1.0;"/><line style="stroke:#181818;stroke-width:1.0;" x1="471" x2="933" y1="407.4453" y2="407.4453"/><text fill="#000000" font-family="sans-serif" font-size="13" font-weight="bold" lengthAdjust="spacing" textLength="14" x="478" y="402.6904">12</text><text fill="#000000" font-family="sans-serif" font-size="13" lengthAdjust="spacing" textLength="431" x="496" y="402.6904">createEmail(String sender, String receiver, String subject, String message)</text><polygon fill="#181818" points="1594.5,431.9688,1604.5,435.9688,1594.5,439.9688,1598.5,435.9688" style="stroke:#181818;stroke-width:1.0;"/><line style="stroke:#181818;stroke-width:1.0;" x1="949" x2="1600.5" y1="435.9688" y2="435.9688"/><text fill="#000000" font-family="sans-serif" font-size="13" font-weight="bold" lengthAdjust="spacing" textLength="14" x="956" y="431.2139">13</text><text fill="#000000" font-family="sans-serif" font-size="13" lengthAdjust="spacing" textLength="431" x="974" y="431.2139">createEmail(String sender, String receiver, String subject, String message)</text><polygon fill="#181818" points="960,460.4922,950,464.4922,960,468.4922,956,464.4922" style="stroke:#181818;stroke-width:1.0;"/><line style="stroke:#181818;stroke-width:1.0;" x1="954" x2="1610.5" y1="464.4922" y2="464.4922"/><text fill="#000000" font-family="sans-serif" font-size="13" font-weight="bold" lengthAdjust="spacing" textLength="14" x="966" y="459.7373">14</text><text fill="#000000" font-family="sans-serif" font-size="13" lengthAdjust="spacing" textLength="53" x="984" y="459.7373">message</text><polygon fill="#181818" points="482,489.0156,472,493.0156,482,497.0156,478,493.0156" style="stroke:#181818;stroke-width:1.0;"/><line style="stroke:#181818;stroke-width:1.0;stroke-dasharray:2.0,2.0;" x1="476" x2="943" y1="493.0156" y2="493.0156"/><text fill="#000000" font-family="sans-serif" font-size="13" font-weight="bold" lengthAdjust="spacing" textLength="14" x="488" y="488.2607">15</text><text fill="#000000" font-family="sans-serif" font-size="13" lengthAdjust="spacing" textLength="53" x="506" y="488.2607">message</text><polygon fill="#181818" points="11,524.5391,1,528.5391,11,532.5391,7,528.5391" style="stroke:#181818;stroke-width:1.0;"/><line style="stroke:#181818;stroke-width:1.0;stroke-dasharray:2.0,2.0;" x1="5" x2="465" y1="528.5391" y2="528.5391"/><text fill="#000000" font-family="sans-serif" font-size="13" font-weight="bold" lengthAdjust="spacing" textLength="14" x="17" y="523.7842">16</text><text fill="#000000" font-family="sans-serif" font-size="13" lengthAdjust="spacing" textLength="53" x="35" y="523.7842">message</text><!--SRC=[xLLDJyCm3BtdLrYx018xSKF01K5xtsb7htNRi2QP4dV0loVT-f5kwvX00o7Xc-rNv-NvgN5BgLTeKO4osYI5DOg0RKN2TPqL9alCQSRl9O6bX57dPGXm1QRcLUeSCYmT2U7BB1EvGiqmUJGwatbbaQNH4q07syeGzQHGbi-oPB8Rp9FQ9aDKj8EA3g9Ympku-21kZeKn0MfUD2WVMB7HbLgGXHiXBWgP4cJ6yCAy2G5jJ1-Qoy0j99QGQNEFondRMWv7EYLx3KtgjIEv3WgkMhnuFRjSaNDUwQl-01-Oi5pxoQrimsR9a6r8m_sWqT3o15ibpqXnGBFRt1waZewDPzPkxxp4zWX6HmdM4GKaEy9Ul-QCWz-bTC81_UrxvupC3UPrYePzBq-z_N4x0FyvGyI_OuZuKqF4tpD4_6-8hncY_IF_i27wXs0CsY9sv3lH3-Fpp-27i7OtdHwP6anitfeF]--></g></svg>