<?xml version="1.0" encoding="us-ascii" standalone="no"?><svg xmlns="http://www.w3.org/2000/svg" xmlns:xlink="http://www.w3.org/1999/xlink" contentStyleType="text/css" height="896px" preserveAspectRatio="none" style="width:960px;height:896px;background:#FFFFFF;" version="1.1" viewBox="0 0 960 896" width="960px" zoomAndPan="magnify"><defs/><g><text fill="#000000" font-family="sans-serif" font-size="14" font-weight="bold" lengthAdjust="spacing" textLength="744" x="105.5" y="27.6738">As an Agent, I want to list real estate purchase orders to accept or decline a purchase order for a property</text><rect fill="#FFFFFF" height="671.0938" style="stroke:#181818;stroke-width:1.0;" width="10" x="36.5" y="127.2813"/><rect fill="#FFFFFF" height="195.9531" style="stroke:#181818;stroke-width:1.0;" width="10" x="388.5" y="147.8047"/><rect fill="#FFFFFF" height="111.5703" style="stroke:#181818;stroke-width:1.0;" width="10" x="388.5" y="395.8047"/><rect fill="#FFFFFF" height="39.5234" style="stroke:#181818;stroke-width:1.0;" width="10" x="393.5" y="432.3281"/><rect fill="#FFFFFF" height="231.9531" style="stroke:#181818;stroke-width:1.0;" width="10" x="388.5" y="566.4219"/><rect fill="#FFFFFF" height="39.5234" style="stroke:#181818;stroke-width:1.0;" width="10" x="393.5" y="602.9453"/><rect fill="#FFFFFF" height="98.2656" style="stroke:#181818;stroke-width:1.0;" width="10" x="866.5" y="216.9688"/><rect fill="#FFFFFF" height="84.8594" style="stroke:#181818;stroke-width:1.0;" width="10" x="866.5" y="684.9922"/><rect fill="none" height="156.6172" style="stroke:#000000;stroke-width:1.5;" width="514.5" x="10" y="358.7578"/><rect fill="none" height="128.0938" style="stroke:#000000;stroke-width:1.5;" width="528.5" x="10" y="529.375"/><line style="stroke:#181818;stroke-width:0.5;stroke-dasharray:5.0,5.0;" x1="41" x2="41" y1="117.2813" y2="816.375"/><line style="stroke:#181818;stroke-width:0.5;stroke-dasharray:5.0,5.0;" x1="393.5" x2="393.5" y1="117.2813" y2="816.375"/><line style="stroke:#181818;stroke-width:0.5;stroke-dasharray:5.0,5.0;" x1="871" x2="871" y1="186.125" y2="816.375"/><text fill="#000000" font-family="sans-serif" font-size="14" lengthAdjust="spacing" textLength="37" x="20" y="114.3145">Agent</text><ellipse cx="41.5" cy="50.1406" fill="#E3E3E3" rx="8" ry="8" style="stroke:#181818;stroke-width:0.5;"/><path d="M41.5,58.1406 L41.5,85.1406 M28.5,66.1406 L54.5,66.1406 M41.5,85.1406 L28.5,100.1406 M41.5,85.1406 L54.5,100.1406 " fill="none" style="stroke:#181818;stroke-width:0.5;"/><text fill="#000000" font-family="sans-serif" font-size="14" lengthAdjust="spacing" textLength="37" x="20" y="828.0488">Agent</text><ellipse cx="41.5" cy="839.5156" fill="#E3E3E3" rx="8" ry="8" style="stroke:#181818;stroke-width:0.5;"/><path d="M41.5,847.5156 L41.5,874.5156 M28.5,855.5156 L54.5,855.5156 M41.5,874.5156 L28.5,889.5156 M41.5,874.5156 L54.5,889.5156 " fill="none" style="stroke:#181818;stroke-width:0.5;"/><rect fill="#E3E3E3" height="29.6406" rx="2.5" ry="2.5" style="stroke:#181818;stroke-width:0.5;" width="162" x="312.5" y="86.6406"/><text fill="#000000" font-family="sans-serif" font-size="14" lengthAdjust="spacing" textLength="148" x="319.5" y="106.3145">RespondVisitRequestUI</text><rect fill="#E3E3E3" height="29.6406" rx="2.5" ry="2.5" style="stroke:#181818;stroke-width:0.5;" width="162" x="312.5" y="815.375"/><text fill="#000000" font-family="sans-serif" font-size="14" lengthAdjust="spacing" textLength="148" x="319.5" y="835.0488">RespondVisitRequestUI</text><rect fill="#E3E3E3" height="29.6406" rx="2.5" ry="2.5" style="stroke:#181818;stroke-width:0.5;" width="159" x="792" y="815.375"/><text fill="#000000" font-family="sans-serif" font-size="14" lengthAdjust="spacing" textLength="145" x="799" y="835.0488">:VisitRequestController</text><rect fill="#FFFFFF" height="671.0938" style="stroke:#181818;stroke-width:1.0;" width="10" x="36.5" y="127.2813"/><rect fill="#FFFFFF" height="195.9531" style="stroke:#181818;stroke-width:1.0;" width="10" x="388.5" y="147.8047"/><rect fill="#FFFFFF" height="111.5703" style="stroke:#181818;stroke-width:1.0;" width="10" x="388.5" y="395.8047"/><rect fill="#FFFFFF" height="39.5234" style="stroke:#181818;stroke-width:1.0;" width="10" x="393.5" y="432.3281"/><rect fill="#FFFFFF" height="231.9531" style="stroke:#181818;stroke-width:1.0;" width="10" x="388.5" y="566.4219"/><rect fill="#FFFFFF" height="39.5234" style="stroke:#181818;stroke-width:1.0;" width="10" x="393.5" y="602.9453"/><rect fill="#FFFFFF" height="98.2656" style="stroke:#181818;stroke-width:1.0;" width="10" x="866.5" y="216.9688"/><rect fill="#FFFFFF" height="84.8594" style="stroke:#181818;stroke-width:1.0;" width="10" x="866.5" y="684.9922"/><polygon fill="#181818" points="376.5,143.8047,386.5,147.8047,376.5,151.8047,380.5,147.8047" style="stroke:#181818;stroke-width:1.0;"/><line style="stroke:#181818;stroke-width:1.0;" x1="46.5" x2="382.5" y1="147.8047" y2="147.8047"/><text fill="#000000" font-family="sans-serif" font-size="13" font-weight="bold" lengthAdjust="spacing" textLength="7" x="53.5" y="143.0498">1</text><text fill="#000000" font-family="sans-serif" font-size="13" lengthAdjust="spacing" textLength="203" x="64.5" y="143.0498">asks to respond to the visit request</text><polygon fill="#181818" points="780,172.3281,790,176.3281,780,180.3281,784,176.3281" style="stroke:#181818;stroke-width:1.0;"/><line style="stroke:#181818;stroke-width:1.0;" x1="398.5" x2="786" y1="176.3281" y2="176.3281"/><text fill="#000000" font-family="sans-serif" font-size="13" font-weight="bold" lengthAdjust="spacing" textLength="7" x="405.5" y="171.5732">2</text><text fill="#000000" font-family="sans-serif" font-size="13" lengthAdjust="spacing" textLength="44" x="416.5" y="171.5732">create()</text><rect fill="#E3E3E3" height="29.6406" rx="2.5" ry="2.5" style="stroke:#181818;stroke-width:0.5;" width="159" x="792" y="155.8047"/><text fill="#000000" font-family="sans-serif" font-size="14" lengthAdjust="spacing" textLength="145" x="799" y="175.4785">:VisitRequestController</text><polygon fill="#181818" points="854.5,212.9688,864.5,216.9688,854.5,220.9688,858.5,216.9688" style="stroke:#181818;stroke-width:1.0;"/><line style="stroke:#181818;stroke-width:1.0;" x1="398.5" x2="860.5" y1="216.9688" y2="216.9688"/><text fill="#000000" font-family="sans-serif" font-size="13" font-weight="bold" lengthAdjust="spacing" textLength="7" x="405.5" y="212.2139">3</text><text fill="#000000" font-family="sans-serif" font-size="13" lengthAdjust="spacing" textLength="107" x="416.5" y="212.2139">getVisitRequests()</text><rect fill="none" height="64.7422" style="stroke:#000000;stroke-width:1.5;" width="165" x="789" y="224.9688"/><path d="M789,224.9688 L851,224.9688 L851,230.9688 L841,240.9688 L789,240.9688 L789,224.9688 " fill="#EEEEEE" style="stroke:#000000;stroke-width:2.0;"/><text fill="#000000" font-family="sans-serif" font-size="13" font-weight="bold" lengthAdjust="spacing" textLength="17" x="802" y="238.7373">ref</text><text fill="#000000" font-family="sans-serif" font-size="12" lengthAdjust="spacing" textLength="3" x="870" y="255.832">&#160;</text><text fill="#000000" font-family="sans-serif" font-size="12" lengthAdjust="spacing" textLength="93" x="825" y="269.2383">get visit requests</text><text fill="#000000" font-family="sans-serif" font-size="12" lengthAdjust="spacing" textLength="3" x="870" y="282.6445">&#160;</text><polygon fill="#181818" points="409.5,311.2344,399.5,315.2344,409.5,319.2344,405.5,315.2344" style="stroke:#181818;stroke-width:1.0;"/><line style="stroke:#181818;stroke-width:1.0;stroke-dasharray:2.0,2.0;" x1="403.5" x2="870.5" y1="315.2344" y2="315.2344"/><text fill="#000000" font-family="sans-serif" font-size="13" font-weight="bold" lengthAdjust="spacing" textLength="7" x="415.5" y="310.4795">4</text><text fill="#000000" font-family="sans-serif" font-size="13" lengthAdjust="spacing" textLength="155" x="426.5" y="310.4795">provide list of visit requests</text><polygon fill="#181818" points="57.5,339.7578,47.5,343.7578,57.5,347.7578,53.5,343.7578" style="stroke:#181818;stroke-width:1.0;"/><line style="stroke:#181818;stroke-width:1.0;stroke-dasharray:2.0,2.0;" x1="51.5" x2="392.5" y1="343.7578" y2="343.7578"/><text fill="#000000" font-family="sans-serif" font-size="13" font-weight="bold" lengthAdjust="spacing" textLength="7" x="63.5" y="339.0029">5</text><text fill="#000000" font-family="sans-serif" font-size="13" lengthAdjust="spacing" textLength="155" x="74.5" y="339.0029">provide list of visit requests</text><path d="M10,358.7578 L83,358.7578 L83,365.2813 L73,375.2813 L10,375.2813 L10,358.7578 " fill="#EEEEEE" style="stroke:#000000;stroke-width:1.5;"/><rect fill="none" height="156.6172" style="stroke:#000000;stroke-width:1.5;" width="514.5" x="10" y="358.7578"/><text fill="#000000" font-family="sans-serif" font-size="13" font-weight="bold" lengthAdjust="spacing" textLength="28" x="25" y="371.5264">loop</text><polygon fill="#181818" points="376.5,391.8047,386.5,395.8047,376.5,399.8047,380.5,395.8047" style="stroke:#181818;stroke-width:1.0;"/><line style="stroke:#181818;stroke-width:1.0;" x1="46.5" x2="382.5" y1="395.8047" y2="395.8047"/><text fill="#000000" font-family="sans-serif" font-size="13" font-weight="bold" lengthAdjust="spacing" textLength="7" x="53.5" y="391.0498">6</text><text fill="#000000" font-family="sans-serif" font-size="13" lengthAdjust="spacing" textLength="96" x="64.5" y="391.0498">selectes request</text><line style="stroke:#181818;stroke-width:1.0;" x1="398.5" x2="445.5" y1="419.3281" y2="419.3281"/><line style="stroke:#181818;stroke-width:1.0;" x1="445.5" x2="445.5" y1="419.3281" y2="432.3281"/><line style="stroke:#181818;stroke-width:1.0;" x1="404.5" x2="445.5" y1="432.3281" y2="432.3281"/><polygon fill="#181818" points="414.5,428.3281,404.5,432.3281,414.5,436.3281,410.5,432.3281" style="stroke:#181818;stroke-width:1.0;"/><text fill="#000000" font-family="sans-serif" font-size="13" font-weight="bold" lengthAdjust="spacing" textLength="7" x="410.5" y="414.5732">7</text><text fill="#000000" font-family="sans-serif" font-size="13" lengthAdjust="spacing" textLength="91" x="421.5" y="414.5732">selectRequest()</text><line style="stroke:#181818;stroke-width:1.0;" x1="403.5" x2="445.5" y1="470.8516" y2="470.8516"/><line style="stroke:#181818;stroke-width:1.0;" x1="445.5" x2="445.5" y1="470.8516" y2="483.8516"/><line style="stroke:#181818;stroke-width:1.0;" x1="398.5" x2="445.5" y1="483.8516" y2="483.8516"/><polygon fill="#181818" points="408.5,479.8516,398.5,483.8516,408.5,487.8516,404.5,483.8516" style="stroke:#181818;stroke-width:1.0;"/><text fill="#000000" font-family="sans-serif" font-size="13" font-weight="bold" lengthAdjust="spacing" textLength="7" x="410.5" y="466.0967">8</text><text fill="#000000" font-family="sans-serif" font-size="13" lengthAdjust="spacing" textLength="83" x="421.5" y="466.0967">ValidateInput()</text><polygon fill="#181818" points="57.5,503.375,47.5,507.375,57.5,511.375,53.5,507.375" style="stroke:#181818;stroke-width:1.0;"/><line style="stroke:#181818;stroke-width:1.0;stroke-dasharray:2.0,2.0;" x1="51.5" x2="392.5" y1="507.375" y2="507.375"/><text fill="#000000" font-family="sans-serif" font-size="13" font-weight="bold" lengthAdjust="spacing" textLength="7" x="63.5" y="502.6201">9</text><text fill="#000000" font-family="sans-serif" font-size="13" lengthAdjust="spacing" textLength="200" x="74.5" y="502.6201">asks what message wants to write</text><path d="M10,529.375 L83,529.375 L83,535.8984 L73,545.8984 L10,545.8984 L10,529.375 " fill="#EEEEEE" style="stroke:#000000;stroke-width:1.5;"/><rect fill="none" height="128.0938" style="stroke:#000000;stroke-width:1.5;" width="528.5" x="10" y="529.375"/><text fill="#000000" font-family="sans-serif" font-size="13" font-weight="bold" lengthAdjust="spacing" textLength="28" x="25" y="542.1436">loop</text><polygon fill="#181818" points="376.5,562.4219,386.5,566.4219,376.5,570.4219,380.5,566.4219" style="stroke:#181818;stroke-width:1.0;"/><line style="stroke:#181818;stroke-width:1.0;" x1="46.5" x2="382.5" y1="566.4219" y2="566.4219"/><text fill="#000000" font-family="sans-serif" font-size="13" font-weight="bold" lengthAdjust="spacing" textLength="14" x="53.5" y="561.667">10</text><text fill="#000000" font-family="sans-serif" font-size="13" lengthAdjust="spacing" textLength="84" x="71.5" y="561.667">submit answer</text><line style="stroke:#181818;stroke-width:1.0;" x1="398.5" x2="445.5" y1="589.9453" y2="589.9453"/><line style="stroke:#181818;stroke-width:1.0;" x1="445.5" x2="445.5" y1="589.9453" y2="602.9453"/><line style="stroke:#181818;stroke-width:1.0;" x1="404.5" x2="445.5" y1="602.9453" y2="602.9453"/><polygon fill="#181818" points="414.5,598.9453,404.5,602.9453,414.5,606.9453,410.5,602.9453" style="stroke:#181818;stroke-width:1.0;"/><text fill="#000000" font-family="sans-serif" font-size="13" font-weight="bold" lengthAdjust="spacing" textLength="14" x="410.5" y="585.1904">11</text><text fill="#000000" font-family="sans-serif" font-size="13" lengthAdjust="spacing" textLength="90" x="428.5" y="585.1904">submitAnswer()</text><line style="stroke:#181818;stroke-width:1.0;" x1="403.5" x2="445.5" y1="641.4688" y2="641.4688"/><line style="stroke:#181818;stroke-width:1.0;" x1="445.5" x2="445.5" y1="641.4688" y2="654.4688"/><line style="stroke:#181818;stroke-width:1.0;" x1="398.5" x2="445.5" y1="654.4688" y2="654.4688"/><polygon fill="#181818" points="408.5,650.4688,398.5,654.4688,408.5,658.4688,404.5,654.4688" style="stroke:#181818;stroke-width:1.0;"/><text fill="#000000" font-family="sans-serif" font-size="13" font-weight="bold" lengthAdjust="spacing" textLength="14" x="410.5" y="636.7139">12</text><text fill="#000000" font-family="sans-serif" font-size="13" lengthAdjust="spacing" textLength="98" x="428.5" y="636.7139">ValidateAnswer()</text><polygon fill="#181818" points="854.5,680.9922,864.5,684.9922,854.5,688.9922,858.5,684.9922" style="stroke:#181818;stroke-width:1.0;"/><line style="stroke:#181818;stroke-width:1.0;" x1="398.5" x2="860.5" y1="684.9922" y2="684.9922"/><text fill="#000000" font-family="sans-serif" font-size="13" font-weight="bold" lengthAdjust="spacing" textLength="14" x="405.5" y="680.2373">13</text><text fill="#000000" font-family="sans-serif" font-size="13" lengthAdjust="spacing" textLength="431" x="423.5" y="680.2373">createEmail(String sender, String receiver, String subject, String message)</text><rect fill="none" height="51.3359" style="stroke:#000000;stroke-width:1.5;" width="165" x="789" y="692.9922"/><path d="M789,692.9922 L851,692.9922 L851,698.9922 L841,708.9922 L789,708.9922 L789,692.9922 " fill="#EEEEEE" style="stroke:#000000;stroke-width:2.0;"/><text fill="#000000" font-family="sans-serif" font-size="13" font-weight="bold" lengthAdjust="spacing" textLength="17" x="802" y="706.7607">ref</text><text fill="#000000" font-family="sans-serif" font-size="12" lengthAdjust="spacing" textLength="68" x="837.5" y="723.8555">create email</text><text fill="#000000" font-family="sans-serif" font-size="12" lengthAdjust="spacing" textLength="3" x="870" y="737.2617">&#160;</text><polygon fill="#181818" points="409.5,765.8516,399.5,769.8516,409.5,773.8516,405.5,769.8516" style="stroke:#181818;stroke-width:1.0;"/><line style="stroke:#181818;stroke-width:1.0;stroke-dasharray:2.0,2.0;" x1="403.5" x2="870.5" y1="769.8516" y2="769.8516"/><text fill="#000000" font-family="sans-serif" font-size="13" font-weight="bold" lengthAdjust="spacing" textLength="14" x="415.5" y="765.0967">14</text><text fill="#000000" font-family="sans-serif" font-size="13" lengthAdjust="spacing" textLength="53" x="433.5" y="765.0967">message</text><polygon fill="#181818" points="52.5,794.375,42.5,798.375,52.5,802.375,48.5,798.375" style="stroke:#181818;stroke-width:1.0;"/><line style="stroke:#181818;stroke-width:1.0;stroke-dasharray:2.0,2.0;" x1="46.5" x2="392.5" y1="798.375" y2="798.375"/><text fill="#000000" font-family="sans-serif" font-size="13" font-weight="bold" lengthAdjust="spacing" textLength="14" x="58.5" y="793.6201">15</text><text fill="#000000" font-family="sans-serif" font-size="13" lengthAdjust="spacing" textLength="300" x="76.5" y="793.6201">displays operation success and send email to client</text><!--SRC=[bLJ1Rjim3BtxAuXSrXRD3-GG82YA8K0FHPBcj8jgCuuMMV94Ea7-VfJiE8gTRPrF5ib7FZvHf8EsjVAgWifPb- -zgn3ODvXHxwbLVb0bhlbi43pch6nfqW3QgyATj2rXfmnXbh5c2LqGA0kB4Yq_mn9EoZAm0wE99OqoWCIA4Uh6vtj52CuNw2d4g3p7ciK01UP6MmGr28ETECNeNOsUprcc6dQsgJxHot_Euft4qXDG18llcqouiivr7MXCLaYriyLMa-OL_cg4oiSoXduiRoDdQSoBi-oTCUXZxCjczPPzkmrVOUq4uBn6Ya6zuRpMGJYXES3u1FB3ZZEyloqs0yWn8NKj8E3jNKTBvFKzow8u-XXq3w9a89_ym7GkdSDCuWxn1dmhKFZbFKAi9yQODuBwD29OD0XyEW-AF3tD89SBPdnuZ9xM5TMI2YLoIf8ag8tgCqPPMvl77RYZN7TYamItVAXpeF0LG6WodjkAqqjhCYj7NM0xW6utp14H1GvON7kJD46eB-L9qWHvegtqhgd1E5UFH2SqygoG_YxmLSa4rAbuKVhFkEayehRAw4AyIritAUeUOm7rJSUvEEqLGuL4iWxYUuwZSlAQyKxRtPNyk_lcin81bQMJFDuljHuHYmZuxyv7i47h5tDFVJJ1xN2_LagRXpNxiFX8ej4_GtUKBOdwc1Y4yK-vhVxSYVYOZSadapvw01Thom0mKBXXtCt_nNBx0BgYznhlirydVGQ5fjgeCq7OiOgrizA7R6OAYxs8FRSKmXJ8cfPjUs_wasDOERy1]--></g></svg>