<?xml version="1.0" encoding="us-ascii" standalone="no"?><svg xmlns="http://www.w3.org/2000/svg" xmlns:xlink="http://www.w3.org/1999/xlink" contentStyleType="text/css" height="1432px" preserveAspectRatio="none" style="width:2835px;height:1432px;background:#FFFFFF;" version="1.1" viewBox="0 0 2835 1432" width="2835px" zoomAndPan="magnify"><defs/><g><text fill="#000000" font-family="sans-serif" font-size="14" font-weight="bold" lengthAdjust="spacing" textLength="744" x="1044.75" y="27.6738">As an Agent, I want to list real estate purchase orders to accept or decline a purchase order for a property</text><rect fill="#FFFFFF" height="1207.0547" style="stroke:#181818;stroke-width:1.0;" width="10" x="36.5" y="127.2813"/><rect fill="#FFFFFF" height="297.3516" style="stroke:#181818;stroke-width:1.0;" width="10" x="388.5" y="147.8047"/><rect fill="#FFFFFF" height="111.5703" style="stroke:#181818;stroke-width:1.0;" width="10" x="388.5" y="497.2031"/><rect fill="#FFFFFF" height="39.5234" style="stroke:#181818;stroke-width:1.0;" width="10" x="393.5" y="533.7266"/><rect fill="#FFFFFF" height="666.5156" style="stroke:#181818;stroke-width:1.0;" width="10" x="388.5" y="667.8203"/><rect fill="#FFFFFF" height="39.5234" style="stroke:#181818;stroke-width:1.0;" width="10" x="393.5" y="704.3438"/><rect fill="#FFFFFF" height="199.6641" style="stroke:#181818;stroke-width:1.0;" width="10" x="866.5" y="216.9688"/><rect fill="#FFFFFF" height="519.4219" style="stroke:#181818;stroke-width:1.0;" width="10" x="866.5" y="786.3906"/><rect fill="#FFFFFF" height="462.375" style="stroke:#181818;stroke-width:1.0;" width="10" x="1344.5" y="814.9141"/><rect fill="#FFFFFF" height="85.5703" style="stroke:#181818;stroke-width:1.0;" width="10" x="1822.5" y="866.9609"/><rect fill="#FFFFFF" height="85.5703" style="stroke:#181818;stroke-width:1.0;" width="10" x="1822.5" y="1011.5781"/><rect fill="#FFFFFF" height="85.5703" style="stroke:#181818;stroke-width:1.0;" width="10" x="1822.5" y="1156.1953"/><rect fill="#FFFFFF" height="28.5234" style="stroke:#181818;stroke-width:1.0;" width="10" x="2300.5" y="895.4844"/><rect fill="#FFFFFF" height="28.5234" style="stroke:#181818;stroke-width:1.0;" width="10" x="2397.5" y="1040.1016"/><rect fill="#FFFFFF" height="28.5234" style="stroke:#181818;stroke-width:1.0;" width="10" x="2497" y="1184.7188"/><rect fill="#FFFFFF" height="28.5234" style="stroke:#181818;stroke-width:1.0;" width="10" x="2599" y="245.4922"/><rect fill="#FFFFFF" height="28.5234" style="stroke:#181818;stroke-width:1.0;" width="10" x="2741" y="302.5391"/><rect fill="#FFFFFF" height="28.5234" style="stroke:#181818;stroke-width:1.0;" width="10" x="2741" y="359.5859"/><rect fill="none" height="156.6172" style="stroke:#000000;stroke-width:1.5;" width="521.5" x="10" y="460.1563"/><rect fill="none" height="128.0938" style="stroke:#000000;stroke-width:1.5;" width="528.5" x="10" y="630.7734"/><rect fill="none" height="130.6172" style="stroke:#000000;stroke-width:1.5;" width="1066.5" x="1290" y="829.9141"/><rect fill="none" height="130.6172" style="stroke:#000000;stroke-width:1.5;" width="1168.5" x="1290" y="974.5313"/><rect fill="none" height="130.6172" style="stroke:#000000;stroke-width:1.5;" width="1265.5" x="1290" y="1119.1484"/><line style="stroke:#181818;stroke-width:0.5;stroke-dasharray:5.0,5.0;" x1="41" x2="41" y1="117.2813" y2="1352.3359"/><line style="stroke:#181818;stroke-width:0.5;stroke-dasharray:5.0,5.0;" x1="393.5" x2="393.5" y1="117.2813" y2="1352.3359"/><line style="stroke:#181818;stroke-width:0.5;stroke-dasharray:5.0,5.0;" x1="871" x2="871" y1="186.125" y2="1352.3359"/><line style="stroke:#181818;stroke-width:0.5;stroke-dasharray:5.0,5.0;" x1="1349" x2="1349" y1="117.2813" y2="1352.3359"/><line style="stroke:#181818;stroke-width:0.5;stroke-dasharray:5.0,5.0;" x1="1827.5" x2="1827.5" y1="117.2813" y2="1352.3359"/><line style="stroke:#181818;stroke-width:0.5;stroke-dasharray:5.0,5.0;" x1="2305.5" x2="2305.5" y1="117.2813" y2="1352.3359"/><line style="stroke:#181818;stroke-width:0.5;stroke-dasharray:5.0,5.0;" x1="2402.5" x2="2402.5" y1="117.2813" y2="1352.3359"/><line style="stroke:#181818;stroke-width:0.5;stroke-dasharray:5.0,5.0;" x1="2501.5" x2="2501.5" y1="117.2813" y2="1352.3359"/><line style="stroke:#181818;stroke-width:0.5;stroke-dasharray:5.0,5.0;" x1="2603.5" x2="2603.5" y1="117.2813" y2="1352.3359"/><line style="stroke:#181818;stroke-width:0.5;stroke-dasharray:5.0,5.0;" x1="2745.5" x2="2745.5" y1="117.2813" y2="1352.3359"/><text fill="#000000" font-family="sans-serif" font-size="14" lengthAdjust="spacing" textLength="37" x="20" y="114.3145">Agent</text><ellipse cx="41.5" cy="50.1406" fill="#E3E3E3" rx="8" ry="8" style="stroke:#181818;stroke-width:0.5;"/><path d="M41.5,58.1406 L41.5,85.1406 M28.5,66.1406 L54.5,66.1406 M41.5,85.1406 L28.5,100.1406 M41.5,85.1406 L54.5,100.1406 " fill="none" style="stroke:#181818;stroke-width:0.5;"/><text fill="#000000" font-family="sans-serif" font-size="14" lengthAdjust="spacing" textLength="37" x="20" y="1364.0098">Agent</text><ellipse cx="41.5" cy="1375.4766" fill="#E3E3E3" rx="8" ry="8" style="stroke:#181818;stroke-width:0.5;"/><path d="M41.5,1383.4766 L41.5,1410.4766 M28.5,1391.4766 L54.5,1391.4766 M41.5,1410.4766 L28.5,1425.4766 M41.5,1410.4766 L54.5,1425.4766 " fill="none" style="stroke:#181818;stroke-width:0.5;"/><rect fill="#E3E3E3" height="29.6406" rx="2.5" ry="2.5" style="stroke:#181818;stroke-width:0.5;" width="162" x="312.5" y="86.6406"/><text fill="#000000" font-family="sans-serif" font-size="14" lengthAdjust="spacing" textLength="148" x="319.5" y="106.3145">RespondVisitRequestUI</text><rect fill="#E3E3E3" height="29.6406" rx="2.5" ry="2.5" style="stroke:#181818;stroke-width:0.5;" width="162" x="312.5" y="1351.3359"/><text fill="#000000" font-family="sans-serif" font-size="14" lengthAdjust="spacing" textLength="148" x="319.5" y="1371.0098">RespondVisitRequestUI</text><rect fill="#E3E3E3" height="29.6406" rx="2.5" ry="2.5" style="stroke:#181818;stroke-width:0.5;" width="159" x="792" y="1351.3359"/><text fill="#000000" font-family="sans-serif" font-size="14" lengthAdjust="spacing" textLength="145" x="799" y="1371.0098">:VisitRequestController</text><rect fill="#E3E3E3" height="29.6406" rx="2.5" ry="2.5" style="stroke:#181818;stroke-width:0.5;" width="99" x="1300" y="86.6406"/><text fill="#000000" font-family="sans-serif" font-size="14" lengthAdjust="spacing" textLength="85" x="1307" y="106.3145">Configuration</text><rect fill="#E3E3E3" height="29.6406" rx="2.5" ry="2.5" style="stroke:#181818;stroke-width:0.5;" width="99" x="1300" y="1351.3359"/><text fill="#000000" font-family="sans-serif" font-size="14" lengthAdjust="spacing" textLength="85" x="1307" y="1371.0098">Configuration</text><rect fill="#E3E3E3" height="29.6406" rx="2.5" ry="2.5" style="stroke:#181818;stroke-width:0.5;" width="80" x="1787.5" y="86.6406"/><text fill="#000000" font-family="sans-serif" font-size="14" lengthAdjust="spacing" textLength="66" x="1794.5" y="106.3145">EmailFilter</text><rect fill="#E3E3E3" height="29.6406" rx="2.5" ry="2.5" style="stroke:#181818;stroke-width:0.5;" width="80" x="1787.5" y="1351.3359"/><text fill="#000000" font-family="sans-serif" font-size="14" lengthAdjust="spacing" textLength="66" x="1794.5" y="1371.0098">EmailFilter</text><rect fill="#E3E3E3" height="29.6406" rx="2.5" ry="2.5" style="stroke:#181818;stroke-width:0.5;" width="82" x="2264.5" y="86.6406"/><text fill="#000000" font-family="sans-serif" font-size="14" lengthAdjust="spacing" textLength="68" x="2271.5" y="106.3145">GmailFilter</text><rect fill="#E3E3E3" height="29.6406" rx="2.5" ry="2.5" style="stroke:#181818;stroke-width:0.5;" width="82" x="2264.5" y="1351.3359"/><text fill="#000000" font-family="sans-serif" font-size="14" lengthAdjust="spacing" textLength="68" x="2271.5" y="1371.0098">GmailFilter</text><rect fill="#E3E3E3" height="29.6406" rx="2.5" ry="2.5" style="stroke:#181818;stroke-width:0.5;" width="92" x="2356.5" y="86.6406"/><text fill="#000000" font-family="sans-serif" font-size="14" lengthAdjust="spacing" textLength="78" x="2363.5" y="106.3145">HotmailFilter</text><rect fill="#E3E3E3" height="29.6406" rx="2.5" ry="2.5" style="stroke:#181818;stroke-width:0.5;" width="92" x="2356.5" y="1351.3359"/><text fill="#000000" font-family="sans-serif" font-size="14" lengthAdjust="spacing" textLength="78" x="2363.5" y="1371.0098">HotmailFilter</text><rect fill="#E3E3E3" height="29.6406" rx="2.5" ry="2.5" style="stroke:#181818;stroke-width:0.5;" width="87" x="2458.5" y="86.6406"/><text fill="#000000" font-family="sans-serif" font-size="14" lengthAdjust="spacing" textLength="73" x="2465.5" y="106.3145">YahooFilter</text><rect fill="#E3E3E3" height="29.6406" rx="2.5" ry="2.5" style="stroke:#181818;stroke-width:0.5;" width="87" x="2458.5" y="1351.3359"/><text fill="#000000" font-family="sans-serif" font-size="14" lengthAdjust="spacing" textLength="73" x="2465.5" y="1371.0098">YahooFilter</text><rect fill="#E3E3E3" height="29.6406" rx="2.5" ry="2.5" style="stroke:#181818;stroke-width:0.5;" width="97" x="2555.5" y="86.6406"/><text fill="#000000" font-family="sans-serif" font-size="14" lengthAdjust="spacing" textLength="83" x="2562.5" y="106.3145">:Repositories</text><rect fill="#E3E3E3" height="29.6406" rx="2.5" ry="2.5" style="stroke:#181818;stroke-width:0.5;" width="97" x="2555.5" y="1351.3359"/><text fill="#000000" font-family="sans-serif" font-size="14" lengthAdjust="spacing" textLength="83" x="2562.5" y="1371.0098">:Repositories</text><rect fill="#E3E3E3" height="45.2813" rx="2.5" ry="2.5" style="stroke:#181818;stroke-width:0.5;" width="167" x="2662.5" y="71"/><text fill="#000000" font-family="sans-serif" font-size="14" lengthAdjust="spacing" textLength="149" x="2673.5" y="90.6738">visitRequestRepository:</text><text fill="#000000" font-family="sans-serif" font-size="14" lengthAdjust="spacing" textLength="147" x="2672.5" y="106.3145">VisitRequestRepository</text><rect fill="#E3E3E3" height="45.2813" rx="2.5" ry="2.5" style="stroke:#181818;stroke-width:0.5;" width="167" x="2662.5" y="1351.3359"/><text fill="#000000" font-family="sans-serif" font-size="14" lengthAdjust="spacing" textLength="149" x="2673.5" y="1371.0098">visitRequestRepository:</text><text fill="#000000" font-family="sans-serif" font-size="14" lengthAdjust="spacing" textLength="147" x="2672.5" y="1386.6504">VisitRequestRepository</text><rect fill="#FFFFFF" height="1207.0547" style="stroke:#181818;stroke-width:1.0;" width="10" x="36.5" y="127.2813"/><rect fill="#FFFFFF" height="297.3516" style="stroke:#181818;stroke-width:1.0;" width="10" x="388.5" y="147.8047"/><rect fill="#FFFFFF" height="111.5703" style="stroke:#181818;stroke-width:1.0;" width="10" x="388.5" y="497.2031"/><rect fill="#FFFFFF" height="39.5234" style="stroke:#181818;stroke-width:1.0;" width="10" x="393.5" y="533.7266"/><rect fill="#FFFFFF" height="666.5156" style="stroke:#181818;stroke-width:1.0;" width="10" x="388.5" y="667.8203"/><rect fill="#FFFFFF" height="39.5234" style="stroke:#181818;stroke-width:1.0;" width="10" x="393.5" y="704.3438"/><rect fill="#FFFFFF" height="199.6641" style="stroke:#181818;stroke-width:1.0;" width="10" x="866.5" y="216.9688"/><rect fill="#FFFFFF" height="519.4219" style="stroke:#181818;stroke-width:1.0;" width="10" x="866.5" y="786.3906"/><rect fill="#FFFFFF" height="462.375" style="stroke:#181818;stroke-width:1.0;" width="10" x="1344.5" y="814.9141"/><rect fill="#FFFFFF" height="85.5703" style="stroke:#181818;stroke-width:1.0;" width="10" x="1822.5" y="866.9609"/><rect fill="#FFFFFF" height="85.5703" style="stroke:#181818;stroke-width:1.0;" width="10" x="1822.5" y="1011.5781"/><rect fill="#FFFFFF" height="85.5703" style="stroke:#181818;stroke-width:1.0;" width="10" x="1822.5" y="1156.1953"/><rect fill="#FFFFFF" height="28.5234" style="stroke:#181818;stroke-width:1.0;" width="10" x="2300.5" y="895.4844"/><rect fill="#FFFFFF" height="28.5234" style="stroke:#181818;stroke-width:1.0;" width="10" x="2397.5" y="1040.1016"/><rect fill="#FFFFFF" height="28.5234" style="stroke:#181818;stroke-width:1.0;" width="10" x="2497" y="1184.7188"/><rect fill="#FFFFFF" height="28.5234" style="stroke:#181818;stroke-width:1.0;" width="10" x="2599" y="245.4922"/><rect fill="#FFFFFF" height="28.5234" style="stroke:#181818;stroke-width:1.0;" width="10" x="2741" y="302.5391"/><rect fill="#FFFFFF" height="28.5234" style="stroke:#181818;stroke-width:1.0;" width="10" x="2741" y="359.5859"/><polygon fill="#181818" points="376.5,143.8047,386.5,147.8047,376.5,151.8047,380.5,147.8047" style="stroke:#181818;stroke-width:1.0;"/><line style="stroke:#181818;stroke-width:1.0;" x1="46.5" x2="382.5" y1="147.8047" y2="147.8047"/><text fill="#000000" font-family="sans-serif" font-size="13" font-weight="bold" lengthAdjust="spacing" textLength="7" x="53.5" y="143.0498">1</text><text fill="#000000" font-family="sans-serif" font-size="13" lengthAdjust="spacing" textLength="203" x="64.5" y="143.0498">asks to respond to the visit request</text><polygon fill="#181818" points="780,172.3281,790,176.3281,780,180.3281,784,176.3281" style="stroke:#181818;stroke-width:1.0;"/><line style="stroke:#181818;stroke-width:1.0;" x1="398.5" x2="786" y1="176.3281" y2="176.3281"/><text fill="#000000" font-family="sans-serif" font-size="13" font-weight="bold" lengthAdjust="spacing" textLength="7" x="405.5" y="171.5732">2</text><text fill="#000000" font-family="sans-serif" font-size="13" lengthAdjust="spacing" textLength="44" x="416.5" y="171.5732">create()</text><rect fill="#E3E3E3" height="29.6406" rx="2.5" ry="2.5" style="stroke:#181818;stroke-width:0.5;" width="159" x="792" y="155.8047"/><text fill="#000000" font-family="sans-serif" font-size="14" lengthAdjust="spacing" textLength="145" x="799" y="175.4785">:VisitRequestController</text><polygon fill="#181818" points="854.5,212.9688,864.5,216.9688,854.5,220.9688,858.5,216.9688" style="stroke:#181818;stroke-width:1.0;"/><line style="stroke:#181818;stroke-width:1.0;" x1="398.5" x2="860.5" y1="216.9688" y2="216.9688"/><text fill="#000000" font-family="sans-serif" font-size="13" font-weight="bold" lengthAdjust="spacing" textLength="7" x="405.5" y="212.2139">3</text><text fill="#000000" font-family="sans-serif" font-size="13" lengthAdjust="spacing" textLength="107" x="416.5" y="212.2139">getVisitRequests()</text><polygon fill="#181818" points="2587,241.4922,2597,245.4922,2587,249.4922,2591,245.4922" style="stroke:#181818;stroke-width:1.0;"/><line style="stroke:#181818;stroke-width:1.0;" x1="876.5" x2="2593" y1="245.4922" y2="245.4922"/><text fill="#000000" font-family="sans-serif" font-size="13" font-weight="bold" lengthAdjust="spacing" textLength="7" x="883.5" y="240.7373">4</text><text fill="#000000" font-family="sans-serif" font-size="13" lengthAdjust="spacing" textLength="75" x="894.5" y="240.7373">getInstance()</text><polygon fill="#181818" points="887.5,270.0156,877.5,274.0156,887.5,278.0156,883.5,274.0156" style="stroke:#181818;stroke-width:1.0;"/><line style="stroke:#181818;stroke-width:1.0;stroke-dasharray:2.0,2.0;" x1="881.5" x2="2603" y1="274.0156" y2="274.0156"/><text fill="#000000" font-family="sans-serif" font-size="13" font-weight="bold" lengthAdjust="spacing" textLength="7" x="893.5" y="269.2607">5</text><text fill="#000000" font-family="sans-serif" font-size="13" lengthAdjust="spacing" textLength="72" x="904.5" y="269.2607">Repositories</text><polygon fill="#181818" points="2729,298.5391,2739,302.5391,2729,306.5391,2733,302.5391" style="stroke:#181818;stroke-width:1.0;"/><line style="stroke:#181818;stroke-width:1.0;" x1="876.5" x2="2735" y1="302.5391" y2="302.5391"/><text fill="#000000" font-family="sans-serif" font-size="13" font-weight="bold" lengthAdjust="spacing" textLength="7" x="883.5" y="297.7842">6</text><text fill="#000000" font-family="sans-serif" font-size="13" lengthAdjust="spacing" textLength="162" x="894.5" y="297.7842">getVisitRequestRepository()</text><polygon fill="#181818" points="887.5,327.0625,877.5,331.0625,887.5,335.0625,883.5,331.0625" style="stroke:#181818;stroke-width:1.0;"/><line style="stroke:#181818;stroke-width:1.0;stroke-dasharray:2.0,2.0;" x1="881.5" x2="2745" y1="331.0625" y2="331.0625"/><text fill="#000000" font-family="sans-serif" font-size="13" font-weight="bold" lengthAdjust="spacing" textLength="7" x="893.5" y="326.3076">7</text><text fill="#000000" font-family="sans-serif" font-size="13" lengthAdjust="spacing" textLength="132" x="904.5" y="326.3076">visitRequestRepository</text><polygon fill="#181818" points="2729,355.5859,2739,359.5859,2729,363.5859,2733,359.5859" style="stroke:#181818;stroke-width:1.0;"/><line style="stroke:#181818;stroke-width:1.0;" x1="876.5" x2="2735" y1="359.5859" y2="359.5859"/><text fill="#000000" font-family="sans-serif" font-size="13" font-weight="bold" lengthAdjust="spacing" textLength="7" x="883.5" y="354.8311">8</text><text fill="#000000" font-family="sans-serif" font-size="13" lengthAdjust="spacing" textLength="107" x="894.5" y="354.8311">getVisitRequests()</text><polygon fill="#181818" points="887.5,384.1094,877.5,388.1094,887.5,392.1094,883.5,388.1094" style="stroke:#181818;stroke-width:1.0;"/><line style="stroke:#181818;stroke-width:1.0;stroke-dasharray:2.0,2.0;" x1="881.5" x2="2745" y1="388.1094" y2="388.1094"/><text fill="#000000" font-family="sans-serif" font-size="13" font-weight="bold" lengthAdjust="spacing" textLength="7" x="893.5" y="383.3545">9</text><text fill="#000000" font-family="sans-serif" font-size="13" lengthAdjust="spacing" textLength="77" x="904.5" y="383.3545">visitRequests</text><polygon fill="#181818" points="409.5,412.6328,399.5,416.6328,409.5,420.6328,405.5,416.6328" style="stroke:#181818;stroke-width:1.0;"/><line style="stroke:#181818;stroke-width:1.0;stroke-dasharray:2.0,2.0;" x1="403.5" x2="870.5" y1="416.6328" y2="416.6328"/><text fill="#000000" font-family="sans-serif" font-size="13" font-weight="bold" lengthAdjust="spacing" textLength="14" x="415.5" y="411.8779">10</text><text fill="#000000" font-family="sans-serif" font-size="13" lengthAdjust="spacing" textLength="155" x="433.5" y="411.8779">provide list of visit requests</text><polygon fill="#181818" points="57.5,441.1563,47.5,445.1563,57.5,449.1563,53.5,445.1563" style="stroke:#181818;stroke-width:1.0;"/><line style="stroke:#181818;stroke-width:1.0;stroke-dasharray:2.0,2.0;" x1="51.5" x2="392.5" y1="445.1563" y2="445.1563"/><text fill="#000000" font-family="sans-serif" font-size="13" font-weight="bold" lengthAdjust="spacing" textLength="14" x="63.5" y="440.4014">11</text><text fill="#000000" font-family="sans-serif" font-size="13" lengthAdjust="spacing" textLength="155" x="81.5" y="440.4014">provide list of visit requests</text><path d="M10,460.1563 L83,460.1563 L83,466.6797 L73,476.6797 L10,476.6797 L10,460.1563 " fill="#EEEEEE" style="stroke:#000000;stroke-width:1.5;"/><rect fill="none" height="156.6172" style="stroke:#000000;stroke-width:1.5;" width="521.5" x="10" y="460.1563"/><text fill="#000000" font-family="sans-serif" font-size="13" font-weight="bold" lengthAdjust="spacing" textLength="28" x="25" y="472.9248">loop</text><polygon fill="#181818" points="376.5,493.2031,386.5,497.2031,376.5,501.2031,380.5,497.2031" style="stroke:#181818;stroke-width:1.0;"/><line style="stroke:#181818;stroke-width:1.0;" x1="46.5" x2="382.5" y1="497.2031" y2="497.2031"/><text fill="#000000" font-family="sans-serif" font-size="13" font-weight="bold" lengthAdjust="spacing" textLength="14" x="53.5" y="492.4482">12</text><text fill="#000000" font-family="sans-serif" font-size="13" lengthAdjust="spacing" textLength="96" x="71.5" y="492.4482">selectes request</text><line style="stroke:#181818;stroke-width:1.0;" x1="398.5" x2="445.5" y1="520.7266" y2="520.7266"/><line style="stroke:#181818;stroke-width:1.0;" x1="445.5" x2="445.5" y1="520.7266" y2="533.7266"/><line style="stroke:#181818;stroke-width:1.0;" x1="404.5" x2="445.5" y1="533.7266" y2="533.7266"/><polygon fill="#181818" points="414.5,529.7266,404.5,533.7266,414.5,537.7266,410.5,533.7266" style="stroke:#181818;stroke-width:1.0;"/><text fill="#000000" font-family="sans-serif" font-size="13" font-weight="bold" lengthAdjust="spacing" textLength="14" x="410.5" y="515.9717">13</text><text fill="#000000" font-family="sans-serif" font-size="13" lengthAdjust="spacing" textLength="91" x="428.5" y="515.9717">selectRequest()</text><line style="stroke:#181818;stroke-width:1.0;" x1="403.5" x2="445.5" y1="572.25" y2="572.25"/><line style="stroke:#181818;stroke-width:1.0;" x1="445.5" x2="445.5" y1="572.25" y2="585.25"/><line style="stroke:#181818;stroke-width:1.0;" x1="398.5" x2="445.5" y1="585.25" y2="585.25"/><polygon fill="#181818" points="408.5,581.25,398.5,585.25,408.5,589.25,404.5,585.25" style="stroke:#181818;stroke-width:1.0;"/><text fill="#000000" font-family="sans-serif" font-size="13" font-weight="bold" lengthAdjust="spacing" textLength="14" x="410.5" y="567.4951">14</text><text fill="#000000" font-family="sans-serif" font-size="13" lengthAdjust="spacing" textLength="83" x="428.5" y="567.4951">ValidateInput()</text><polygon fill="#181818" points="57.5,604.7734,47.5,608.7734,57.5,612.7734,53.5,608.7734" style="stroke:#181818;stroke-width:1.0;"/><line style="stroke:#181818;stroke-width:1.0;stroke-dasharray:2.0,2.0;" x1="51.5" x2="392.5" y1="608.7734" y2="608.7734"/><text fill="#000000" font-family="sans-serif" font-size="13" font-weight="bold" lengthAdjust="spacing" textLength="14" x="63.5" y="604.0186">15</text><text fill="#000000" font-family="sans-serif" font-size="13" lengthAdjust="spacing" textLength="200" x="81.5" y="604.0186">asks what message wants to write</text><path d="M10,630.7734 L83,630.7734 L83,637.2969 L73,647.2969 L10,647.2969 L10,630.7734 " fill="#EEEEEE" style="stroke:#000000;stroke-width:1.5;"/><rect fill="none" height="128.0938" style="stroke:#000000;stroke-width:1.5;" width="528.5" x="10" y="630.7734"/><text fill="#000000" font-family="sans-serif" font-size="13" font-weight="bold" lengthAdjust="spacing" textLength="28" x="25" y="643.542">loop</text><polygon fill="#181818" points="376.5,663.8203,386.5,667.8203,376.5,671.8203,380.5,667.8203" style="stroke:#181818;stroke-width:1.0;"/><line style="stroke:#181818;stroke-width:1.0;" x1="46.5" x2="382.5" y1="667.8203" y2="667.8203"/><text fill="#000000" font-family="sans-serif" font-size="13" font-weight="bold" lengthAdjust="spacing" textLength="14" x="53.5" y="663.0654">16</text><text fill="#000000" font-family="sans-serif" font-size="13" lengthAdjust="spacing" textLength="84" x="71.5" y="663.0654">submit answer</text><line style="stroke:#181818;stroke-width:1.0;" x1="398.5" x2="445.5" y1="691.3438" y2="691.3438"/><line style="stroke:#181818;stroke-width:1.0;" x1="445.5" x2="445.5" y1="691.3438" y2="704.3438"/><line style="stroke:#181818;stroke-width:1.0;" x1="404.5" x2="445.5" y1="704.3438" y2="704.3438"/><polygon fill="#181818" points="414.5,700.3438,404.5,704.3438,414.5,708.3438,410.5,704.3438" style="stroke:#181818;stroke-width:1.0;"/><text fill="#000000" font-family="sans-serif" font-size="13" font-weight="bold" lengthAdjust="spacing" textLength="14" x="410.5" y="686.5889">17</text><text fill="#000000" font-family="sans-serif" font-size="13" lengthAdjust="spacing" textLength="90" x="428.5" y="686.5889">submitAnswer()</text><line style="stroke:#181818;stroke-width:1.0;" x1="403.5" x2="445.5" y1="742.8672" y2="742.8672"/><line style="stroke:#181818;stroke-width:1.0;" x1="445.5" x2="445.5" y1="742.8672" y2="755.8672"/><line style="stroke:#181818;stroke-width:1.0;" x1="398.5" x2="445.5" y1="755.8672" y2="755.8672"/><polygon fill="#181818" points="408.5,751.8672,398.5,755.8672,408.5,759.8672,404.5,755.8672" style="stroke:#181818;stroke-width:1.0;"/><text fill="#000000" font-family="sans-serif" font-size="13" font-weight="bold" lengthAdjust="spacing" textLength="14" x="410.5" y="738.1123">18</text><text fill="#000000" font-family="sans-serif" font-size="13" lengthAdjust="spacing" textLength="98" x="428.5" y="738.1123">ValidateAnswer()</text><polygon fill="#181818" points="854.5,782.3906,864.5,786.3906,854.5,790.3906,858.5,786.3906" style="stroke:#181818;stroke-width:1.0;"/><line style="stroke:#181818;stroke-width:1.0;" x1="398.5" x2="860.5" y1="786.3906" y2="786.3906"/><text fill="#000000" font-family="sans-serif" font-size="13" font-weight="bold" lengthAdjust="spacing" textLength="14" x="405.5" y="781.6357">19</text><text fill="#000000" font-family="sans-serif" font-size="13" lengthAdjust="spacing" textLength="431" x="423.5" y="781.6357">createEmail(String sender, String receiver, String subject, String message)</text><polygon fill="#181818" points="1332.5,810.9141,1342.5,814.9141,1332.5,818.9141,1336.5,814.9141" style="stroke:#181818;stroke-width:1.0;"/><line style="stroke:#181818;stroke-width:1.0;" x1="876.5" x2="1338.5" y1="814.9141" y2="814.9141"/><text fill="#000000" font-family="sans-serif" font-size="13" font-weight="bold" lengthAdjust="spacing" textLength="14" x="883.5" y="810.1592">20</text><text fill="#000000" font-family="sans-serif" font-size="13" lengthAdjust="spacing" textLength="431" x="901.5" y="810.1592">createEmail(String sender, String receiver, String subject, String message)</text><path d="M1290,829.9141 L1351,829.9141 L1351,836.4375 L1341,846.4375 L1290,846.4375 L1290,829.9141 " fill="#EEEEEE" style="stroke:#000000;stroke-width:1.5;"/><rect fill="none" height="130.6172" style="stroke:#000000;stroke-width:1.5;" width="1066.5" x="1290" y="829.9141"/><text fill="#000000" font-family="sans-serif" font-size="13" font-weight="bold" lengthAdjust="spacing" textLength="16" x="1305" y="842.6826">alt</text><text fill="#000000" font-family="sans-serif" font-size="11" font-weight="bold" lengthAdjust="spacing" textLength="43" x="1366" y="841.8721">[filter =]</text><polygon fill="#181818" points="1810.5,862.9609,1820.5,866.9609,1810.5,870.9609,1814.5,866.9609" style="stroke:#181818;stroke-width:1.0;"/><line style="stroke:#181818;stroke-width:1.0;" x1="1354.5" x2="1816.5" y1="866.9609" y2="866.9609"/><text fill="#000000" font-family="sans-serif" font-size="13" font-weight="bold" lengthAdjust="spacing" textLength="14" x="1361.5" y="862.2061">21</text><text fill="#000000" font-family="sans-serif" font-size="13" lengthAdjust="spacing" textLength="431" x="1379.5" y="862.2061">createEmail(String sender, String receiver, String subject, String message)</text><polygon fill="#181818" points="2288.5,891.4844,2298.5,895.4844,2288.5,899.4844,2292.5,895.4844" style="stroke:#181818;stroke-width:1.0;"/><line style="stroke:#181818;stroke-width:1.0;" x1="1832.5" x2="2294.5" y1="895.4844" y2="895.4844"/><text fill="#000000" font-family="sans-serif" font-size="13" font-weight="bold" lengthAdjust="spacing" textLength="14" x="1839.5" y="890.7295">22</text><text fill="#000000" font-family="sans-serif" font-size="13" lengthAdjust="spacing" textLength="431" x="1857.5" y="890.7295">createEmail(String sender, String receiver, String subject, String message)</text><polygon fill="#181818" points="1843.5,920.0078,1833.5,924.0078,1843.5,928.0078,1839.5,924.0078" style="stroke:#181818;stroke-width:1.0;"/><line style="stroke:#181818;stroke-width:1.0;" x1="1837.5" x2="2304.5" y1="924.0078" y2="924.0078"/><text fill="#000000" font-family="sans-serif" font-size="13" font-weight="bold" lengthAdjust="spacing" textLength="14" x="1849.5" y="919.2529">23</text><text fill="#000000" font-family="sans-serif" font-size="13" lengthAdjust="spacing" textLength="53" x="1867.5" y="919.2529">message</text><polygon fill="#181818" points="1365.5,948.5313,1355.5,952.5313,1365.5,956.5313,1361.5,952.5313" style="stroke:#181818;stroke-width:1.0;"/><line style="stroke:#181818;stroke-width:1.0;stroke-dasharray:2.0,2.0;" x1="1359.5" x2="1826.5" y1="952.5313" y2="952.5313"/><text fill="#000000" font-family="sans-serif" font-size="13" font-weight="bold" lengthAdjust="spacing" textLength="14" x="1371.5" y="947.7764">24</text><text fill="#000000" font-family="sans-serif" font-size="13" lengthAdjust="spacing" textLength="53" x="1389.5" y="947.7764">message</text><path d="M1290,974.5313 L1351,974.5313 L1351,981.0547 L1341,991.0547 L1290,991.0547 L1290,974.5313 " fill="#EEEEEE" style="stroke:#000000;stroke-width:1.5;"/><rect fill="none" height="130.6172" style="stroke:#000000;stroke-width:1.5;" width="1168.5" x="1290" y="974.5313"/><text fill="#000000" font-family="sans-serif" font-size="13" font-weight="bold" lengthAdjust="spacing" textLength="16" x="1305" y="987.2998">alt</text><text fill="#000000" font-family="sans-serif" font-size="11" font-weight="bold" lengthAdjust="spacing" textLength="50" x="1366" y="986.4893">[filter = t]</text><polygon fill="#181818" points="1810.5,1007.5781,1820.5,1011.5781,1810.5,1015.5781,1814.5,1011.5781" style="stroke:#181818;stroke-width:1.0;"/><line style="stroke:#181818;stroke-width:1.0;" x1="1354.5" x2="1816.5" y1="1011.5781" y2="1011.5781"/><text fill="#000000" font-family="sans-serif" font-size="13" font-weight="bold" lengthAdjust="spacing" textLength="14" x="1361.5" y="1006.8232">25</text><text fill="#000000" font-family="sans-serif" font-size="13" lengthAdjust="spacing" textLength="431" x="1379.5" y="1006.8232">createEmail(String sender, String receiver, String subject, String message)</text><polygon fill="#181818" points="2385.5,1036.1016,2395.5,1040.1016,2385.5,1044.1016,2389.5,1040.1016" style="stroke:#181818;stroke-width:1.0;"/><line style="stroke:#181818;stroke-width:1.0;" x1="1832.5" x2="2391.5" y1="1040.1016" y2="1040.1016"/><text fill="#000000" font-family="sans-serif" font-size="13" font-weight="bold" lengthAdjust="spacing" textLength="14" x="1839.5" y="1035.3467">26</text><text fill="#000000" font-family="sans-serif" font-size="13" lengthAdjust="spacing" textLength="431" x="1857.5" y="1035.3467">createEmail(String sender, String receiver, String subject, String message)</text><polygon fill="#181818" points="1843.5,1064.625,1833.5,1068.625,1843.5,1072.625,1839.5,1068.625" style="stroke:#181818;stroke-width:1.0;"/><line style="stroke:#181818;stroke-width:1.0;" x1="1837.5" x2="2401.5" y1="1068.625" y2="1068.625"/><text fill="#000000" font-family="sans-serif" font-size="13" font-weight="bold" lengthAdjust="spacing" textLength="14" x="1849.5" y="1063.8701">27</text><text fill="#000000" font-family="sans-serif" font-size="13" lengthAdjust="spacing" textLength="53" x="1867.5" y="1063.8701">message</text><polygon fill="#181818" points="1365.5,1093.1484,1355.5,1097.1484,1365.5,1101.1484,1361.5,1097.1484" style="stroke:#181818;stroke-width:1.0;"/><line style="stroke:#181818;stroke-width:1.0;stroke-dasharray:2.0,2.0;" x1="1359.5" x2="1826.5" y1="1097.1484" y2="1097.1484"/><text fill="#000000" font-family="sans-serif" font-size="13" font-weight="bold" lengthAdjust="spacing" textLength="14" x="1371.5" y="1092.3936">28</text><text fill="#000000" font-family="sans-serif" font-size="13" lengthAdjust="spacing" textLength="53" x="1389.5" y="1092.3936">message</text><path d="M1290,1119.1484 L1351,1119.1484 L1351,1125.6719 L1341,1135.6719 L1290,1135.6719 L1290,1119.1484 " fill="#EEEEEE" style="stroke:#000000;stroke-width:1.5;"/><rect fill="none" height="130.6172" style="stroke:#000000;stroke-width:1.5;" width="1265.5" x="1290" y="1119.1484"/><text fill="#000000" font-family="sans-serif" font-size="13" font-weight="bold" lengthAdjust="spacing" textLength="16" x="1305" y="1131.917">alt</text><text fill="#000000" font-family="sans-serif" font-size="11" font-weight="bold" lengthAdjust="spacing" textLength="50" x="1366" y="1131.1064">[filter = t]</text><polygon fill="#181818" points="1810.5,1152.1953,1820.5,1156.1953,1810.5,1160.1953,1814.5,1156.1953" style="stroke:#181818;stroke-width:1.0;"/><line style="stroke:#181818;stroke-width:1.0;" x1="1354.5" x2="1816.5" y1="1156.1953" y2="1156.1953"/><text fill="#000000" font-family="sans-serif" font-size="13" font-weight="bold" lengthAdjust="spacing" textLength="14" x="1361.5" y="1151.4404">29</text><text fill="#000000" font-family="sans-serif" font-size="13" lengthAdjust="spacing" textLength="431" x="1379.5" y="1151.4404">createEmail(String sender, String receiver, String subject, String message)</text><polygon fill="#181818" points="2485,1180.7188,2495,1184.7188,2485,1188.7188,2489,1184.7188" style="stroke:#181818;stroke-width:1.0;"/><line style="stroke:#181818;stroke-width:1.0;" x1="1832.5" x2="2491" y1="1184.7188" y2="1184.7188"/><text fill="#000000" font-family="sans-serif" font-size="13" font-weight="bold" lengthAdjust="spacing" textLength="14" x="1839.5" y="1179.9639">30</text><text fill="#000000" font-family="sans-serif" font-size="13" lengthAdjust="spacing" textLength="431" x="1857.5" y="1179.9639">createEmail(String sender, String receiver, String subject, String message)</text><polygon fill="#181818" points="1843.5,1209.2422,1833.5,1213.2422,1843.5,1217.2422,1839.5,1213.2422" style="stroke:#181818;stroke-width:1.0;"/><line style="stroke:#181818;stroke-width:1.0;" x1="1837.5" x2="2501" y1="1213.2422" y2="1213.2422"/><text fill="#000000" font-family="sans-serif" font-size="13" font-weight="bold" lengthAdjust="spacing" textLength="14" x="1849.5" y="1208.4873">31</text><text fill="#000000" font-family="sans-serif" font-size="13" lengthAdjust="spacing" textLength="53" x="1867.5" y="1208.4873">message</text><polygon fill="#181818" points="1365.5,1237.7656,1355.5,1241.7656,1365.5,1245.7656,1361.5,1241.7656" style="stroke:#181818;stroke-width:1.0;"/><line style="stroke:#181818;stroke-width:1.0;stroke-dasharray:2.0,2.0;" x1="1359.5" x2="1826.5" y1="1241.7656" y2="1241.7656"/><text fill="#000000" font-family="sans-serif" font-size="13" font-weight="bold" lengthAdjust="spacing" textLength="14" x="1371.5" y="1237.0107">32</text><text fill="#000000" font-family="sans-serif" font-size="13" lengthAdjust="spacing" textLength="53" x="1389.5" y="1237.0107">message</text><polygon fill="#181818" points="887.5,1273.2891,877.5,1277.2891,887.5,1281.2891,883.5,1277.2891" style="stroke:#181818;stroke-width:1.0;"/><line style="stroke:#181818;stroke-width:1.0;stroke-dasharray:2.0,2.0;" x1="881.5" x2="1348.5" y1="1277.2891" y2="1277.2891"/><text fill="#000000" font-family="sans-serif" font-size="13" font-weight="bold" lengthAdjust="spacing" textLength="14" x="893.5" y="1272.5342">33</text><text fill="#000000" font-family="sans-serif" font-size="13" lengthAdjust="spacing" textLength="53" x="911.5" y="1272.5342">message</text><polygon fill="#181818" points="409.5,1301.8125,399.5,1305.8125,409.5,1309.8125,405.5,1305.8125" style="stroke:#181818;stroke-width:1.0;"/><line style="stroke:#181818;stroke-width:1.0;stroke-dasharray:2.0,2.0;" x1="403.5" x2="870.5" y1="1305.8125" y2="1305.8125"/><text fill="#000000" font-family="sans-serif" font-size="13" font-weight="bold" lengthAdjust="spacing" textLength="14" x="415.5" y="1301.0576">34</text><text fill="#000000" font-family="sans-serif" font-size="13" lengthAdjust="spacing" textLength="53" x="433.5" y="1301.0576">message</text><polygon fill="#181818" points="52.5,1330.3359,42.5,1334.3359,52.5,1338.3359,48.5,1334.3359" style="stroke:#181818;stroke-width:1.0;"/><line style="stroke:#181818;stroke-width:1.0;stroke-dasharray:2.0,2.0;" x1="46.5" x2="392.5" y1="1334.3359" y2="1334.3359"/><text fill="#000000" font-family="sans-serif" font-size="13" font-weight="bold" lengthAdjust="spacing" textLength="14" x="58.5" y="1329.5811">35</text><text fill="#000000" font-family="sans-serif" font-size="13" lengthAdjust="spacing" textLength="300" x="76.5" y="1329.5811">displays operation success and send email to client</text><!--SRC=[xLVRQXin47tVhnZoqhJ4Fs1em8JKDgGGd0i4ygBiZcqrMcahQMtyznrfRzgBDscR40hLqwvqPdHcTAIHp3EN6TCiXLH95M-rIX6ipZ4ozKZ6ucUsmHjx40WQOylaHeG0isM9sdEvWJKJ1gF8SalGcG4cORP1QSzW2NicBLW5WXjBRfW0D9PPX2pNyPOP1AKJrCPXM1nZPga34em5bmYi0uCr3LAdLXbgUuWYbbiby_G9DNt7baPF_DGdm0pCvhSHSRKyvfcZSR92aocPt7F3xGf_vaJbRkcXTyisSXfYBfIqMWc1scClRbTNqQSsV8MP8WEbEHeFgZiEDzmbZcXsR7HWyYZx7gwlPhSTarr0gfc0ZEy71meYbzVjq2YQDT_acbckP16GxscZBbF6nJSkR1dqPLhyj57p3ce-Y5eesy4j1d4FRAjKW7hO3g7wcVhEk6oYRgDXE6VJHpcIi_lLAegyeFZEQTK9AG9gz06JSr8BJ0dtx5Mh2r6vJxl5OZxgz7wzKUs6HEOxo7noxbJqvSiKOjeK5ay_-v5Yo2kCPjYW3KaQ0XMesgEN8fJDMv5rEns5dwMaNIVZUfwMbqx-6aJ7qwHWJHx39MZW2RxiiY99AUu5s1WCqlIhKdVJdoFa7KwFhF8WjRQRWCzOniU9D8a9UPZe-FpLK35z9IawrtOymUAmLEksbif41vxywaUDfiYD4-Yh_0Hkd2nztqQhF0EXLDOJkq519G3DkB0R1GT6PJQ29JrYDpdtLlTCy8H6bpBBGwiXncHK1-ttutxBBAHe39KkNtly5jrhRd4WRDU3Cdav-lmffGGoQVPq6hqgT6ynymQ_7NdFh1DwrLrJxvqSnQ7Yp_3J6wjTaJQ4Hdq6vIzLTEIxe8CO_w3Lgl_B90OReACx25grYufAyiO4eDCQ7aNTwWE4XRMl7F2rDrXI9B9LINjdkYtATHaTXBbMioA6LJbzVu8zelCNYRes3yW6wIodEceQw7bydYOPeRYEkG_SrddkOYXfJX_ZeW7xJyjcyN6oMRnADek_bitYlspUN3RLTVi3P5FVz4VX5UhFPJC-p_l9vfWiceezD4jurIjBNUUoNrqtkjRTIsBxXZY5X9jCi8C1zuxs3q5QG7fz6_TuJ_nY0xhbTxSdUehJYtherXZykYVIBm00]--></g></svg>