<?xml version="1.0" encoding="us-ascii" standalone="no"?><svg xmlns="http://www.w3.org/2000/svg" xmlns:xlink="http://www.w3.org/1999/xlink" contentStyleType="text/css" height="391px" preserveAspectRatio="none" style="width:505px;height:391px;background:#FFFFFF;" version="1.1" viewBox="0 0 505 391" width="505px" zoomAndPan="magnify"><defs/><g><rect fill="#FFFFFF" height="206.0371" style="stroke:#181818;stroke-width:1.0;" width="10" x="26.5" y="93.6211"/><rect fill="#FFFFFF" height="206.0371" style="stroke:#181818;stroke-width:1.0;" width="10" x="26.5" y="93.6211"/><rect fill="#FFFFFF" height="31.291" style="stroke:#181818;stroke-width:1.0;" width="10" x="462.5" y="116.9121"/><rect fill="#FFFFFF" height="31.291" style="stroke:#181818;stroke-width:1.0;" width="10" x="462.5" y="179.4941"/><rect fill="#FFFFFF" height="48.582" style="stroke:#181818;stroke-width:1.0;" width="10" x="462.5" y="242.0762"/><line style="stroke:#181818;stroke-width:0.5;stroke-dasharray:5.0,5.0;" x1="26" x2="26" y1="83.6211" y2="308.6582"/><line style="stroke:#181818;stroke-width:0.5;stroke-dasharray:5.0,5.0;" x1="467.5" x2="467.5" y1="83.6211" y2="308.6582"/><text fill="#000000" font-family="sans-serif" font-size="14" lengthAdjust="spacing" textLength="37" x="5" y="80.1074">Agent</text><ellipse cx="26.5" cy="13.5" fill="#E3E3E3" rx="8" ry="8" style="stroke:#181818;stroke-width:0.5;"/><path d="M26.5,21.5 L26.5,48.5 M13.5,29.5 L39.5,29.5 M26.5,48.5 L13.5,63.5 M26.5,48.5 L39.5,63.5 " fill="none" style="stroke:#181818;stroke-width:0.5;"/><text fill="#000000" font-family="sans-serif" font-size="14" lengthAdjust="spacing" textLength="37" x="5" y="322.7656">Agent</text><ellipse cx="26.5" cy="334.7793" fill="#E3E3E3" rx="8" ry="8" style="stroke:#181818;stroke-width:0.5;"/><path d="M26.5,342.7793 L26.5,369.7793 M13.5,350.7793 L39.5,350.7793 M26.5,369.7793 L13.5,384.7793 M26.5,369.7793 L39.5,384.7793 " fill="none" style="stroke:#181818;stroke-width:0.5;"/><rect fill="#E3E3E3" height="32.6211" rx="2.5" ry="2.5" style="stroke:#181818;stroke-width:0.5;" width="64" x="435.5" y="50"/><text fill="#000000" font-family="sans-serif" font-size="14" lengthAdjust="spacing" textLength="50" x="442.5" y="72.1074">:System</text><rect fill="#E3E3E3" height="32.6211" rx="2.5" ry="2.5" style="stroke:#181818;stroke-width:0.5;" width="64" x="435.5" y="307.6582"/><text fill="#000000" font-family="sans-serif" font-size="14" lengthAdjust="spacing" textLength="50" x="442.5" y="329.7656">:System</text><rect fill="#FFFFFF" height="206.0371" style="stroke:#181818;stroke-width:1.0;" width="10" x="26.5" y="93.6211"/><rect fill="#FFFFFF" height="206.0371" style="stroke:#181818;stroke-width:1.0;" width="10" x="26.5" y="93.6211"/><rect fill="#FFFFFF" height="31.291" style="stroke:#181818;stroke-width:1.0;" width="10" x="462.5" y="116.9121"/><rect fill="#FFFFFF" height="31.291" style="stroke:#181818;stroke-width:1.0;" width="10" x="462.5" y="179.4941"/><rect fill="#FFFFFF" height="48.582" style="stroke:#181818;stroke-width:1.0;" width="10" x="462.5" y="242.0762"/><polygon fill="#181818" points="450.5,112.9121,460.5,116.9121,450.5,120.9121,454.5,116.9121" style="stroke:#181818;stroke-width:1.0;"/><line style="stroke:#181818;stroke-width:1.0;" x1="36.5" x2="456.5" y1="116.9121" y2="116.9121"/><text fill="#000000" font-family="sans-serif" font-size="13" font-weight="bold" lengthAdjust="spacing" textLength="7" x="43.5" y="111.6494">1</text><text fill="#000000" font-family="sans-serif" font-size="13" lengthAdjust="spacing" textLength="319" x="54.5" y="111.6494">asks for the list of all booking requests made for myself</text><polygon fill="#181818" points="47.5,144.2031,37.5,148.2031,47.5,152.2031,43.5,148.2031" style="stroke:#181818;stroke-width:1.0;"/><line style="stroke:#181818;stroke-width:1.0;stroke-dasharray:2.0,2.0;" x1="41.5" x2="466.5" y1="148.2031" y2="148.2031"/><text fill="#000000" font-family="sans-serif" font-size="13" font-weight="bold" lengthAdjust="spacing" textLength="7" x="53.5" y="142.9404">2</text><text fill="#000000" font-family="sans-serif" font-size="13" lengthAdjust="spacing" textLength="273" x="64.5" y="142.9404">asks for the start date to view booking requests</text><polygon fill="#181818" points="450.5,175.4941,460.5,179.4941,450.5,183.4941,454.5,179.4941" style="stroke:#181818;stroke-width:1.0;"/><line style="stroke:#181818;stroke-width:1.0;" x1="36.5" x2="456.5" y1="179.4941" y2="179.4941"/><text fill="#000000" font-family="sans-serif" font-size="13" font-weight="bold" lengthAdjust="spacing" textLength="7" x="43.5" y="174.2314">3</text><text fill="#000000" font-family="sans-serif" font-size="13" lengthAdjust="spacing" textLength="123" x="54.5" y="174.2314">selects the start date</text><polygon fill="#181818" points="47.5,206.7852,37.5,210.7852,47.5,214.7852,43.5,210.7852" style="stroke:#181818;stroke-width:1.0;"/><line style="stroke:#181818;stroke-width:1.0;stroke-dasharray:2.0,2.0;" x1="41.5" x2="466.5" y1="210.7852" y2="210.7852"/><text fill="#000000" font-family="sans-serif" font-size="13" font-weight="bold" lengthAdjust="spacing" textLength="7" x="53.5" y="205.5225">4</text><text fill="#000000" font-family="sans-serif" font-size="13" lengthAdjust="spacing" textLength="268" x="64.5" y="205.5225">asks for the end date to view booking requests</text><polygon fill="#181818" points="450.5,238.0762,460.5,242.0762,450.5,246.0762,454.5,242.0762" style="stroke:#181818;stroke-width:1.0;"/><line style="stroke:#181818;stroke-width:1.0;" x1="36.5" x2="456.5" y1="242.0762" y2="242.0762"/><text fill="#000000" font-family="sans-serif" font-size="13" font-weight="bold" lengthAdjust="spacing" textLength="7" x="43.5" y="236.8135">5</text><text fill="#000000" font-family="sans-serif" font-size="13" lengthAdjust="spacing" textLength="118" x="54.5" y="236.8135">selects the end date</text><polygon fill="#181818" points="47.5,286.6582,37.5,290.6582,47.5,294.6582,43.5,290.6582" style="stroke:#181818;stroke-width:1.0;"/><line style="stroke:#181818;stroke-width:1.0;stroke-dasharray:2.0,2.0;" x1="41.5" x2="466.5" y1="290.6582" y2="290.6582"/><text fill="#000000" font-family="sans-serif" font-size="13" font-weight="bold" lengthAdjust="spacing" textLength="7" x="53.5" y="276.75">6</text><text fill="#000000" font-family="sans-serif" font-size="13" lengthAdjust="spacing" textLength="387" x="64.5" y="268.1045">show the list of booking requests based on the selected date range</text><text fill="#000000" font-family="sans-serif" font-size="13" lengthAdjust="spacing" textLength="351" x="68.5" y="285.3955">and sorted in ascending order and display operation success</text><!--SRC=[jL8xRiCm3Drz2Y9xBf2XGC-GjGiZqRPWINH5ke5lNrfnYoHk-XcgYSBZ-r2K326FM311uiokBvm8j4pKo2SoeXkmewFEaQ2GKynTl6wG7ZsVG-wWnIZKsC59EK_fHCLgfrnWzznHrXsWGAqQusfmOSIii3iSPr5A5RwKbHVUK6djRy3E0wq5-b5lvMyqQmdxfxKH3aOQ15epqfuW1b7W5Z16E34Fovo5NYSI5KZegNQcMIYsjnxNnglstcmkVdSkeXOV_49JXhT0vurPrV6qaNyqXGMoPScT_DSHcz-bfEp_B-E7-5yJIi_dcqrjjdH28G-SBqzHBMaTfDXd9dZ9WEOkN1OWs4sSnLb4k7Wg5VL1neWpy4W5DPYSJCwHV3FqEm00]--></g></svg>