<?xml version="1.0" encoding="us-ascii" standalone="no"?><svg xmlns="http://www.w3.org/2000/svg" xmlns:xlink="http://www.w3.org/1999/xlink" contentStyleType="text/css" height="531.9px" preserveAspectRatio="none" style="width:322px;height:531px;background:#FFFFFF;" version="1.1" viewBox="0 0 322 531" width="322.2px" zoomAndPan="magnify"><defs/><g><!--class Employee--><g id="elem_Employee"><rect codeLine="15" fill="#F1F1F1" height="32.959" id="Employee" rx="2.25" ry="2.25" style="stroke:#181818;stroke-width:0.45;" width="61.2" x="143.55" y="426.6"/><text fill="#000000" font-family="sans-serif" font-size="12.6" lengthAdjust="spacing" textLength="55.8" x="146.25" y="444.6967">Employee</text><line style="stroke:#181818;stroke-width:0.45;" x1="144.45" x2="203.85" y1="452.359" y2="452.359"/></g><!--class Store--><g id="elem_Store"><rect codeLine="19" fill="#F1F1F1" height="99.9949" id="Store" rx="2.25" ry="2.25" style="stroke:#181818;stroke-width:0.45;" width="90.9" x="14.4" y="268.65"/><text fill="#000000" font-family="sans-serif" font-size="12.6" lengthAdjust="spacing" textLength="30.6" x="44.55" y="286.7467">Store</text><line style="stroke:#181818;stroke-width:0.45;" x1="15.3" x2="104.4" y1="294.409" y2="294.409"/><text fill="#000000" font-family="sans-serif" font-size="12.6" lengthAdjust="spacing" textLength="9.9" x="19.8" y="311.6057">id</text><text fill="#000000" font-family="sans-serif" font-size="12.6" lengthAdjust="spacing" textLength="65.7" x="19.8" y="328.3646">designation</text><text fill="#000000" font-family="sans-serif" font-size="12.6" lengthAdjust="spacing" textLength="29.7" x="19.8" y="345.1236">email</text><text fill="#000000" font-family="sans-serif" font-size="12.6" lengthAdjust="spacing" textLength="80.1" x="19.8" y="361.8826">phoneNumber</text></g><!--class Property--><g id="elem_Property"><rect codeLine="26" fill="#F1F1F1" height="99.9949" id="Property" rx="2.25" ry="2.25" style="stroke:#181818;stroke-width:0.45;" width="112.5" x="5.4" y="10.8"/><text fill="#000000" font-family="sans-serif" font-size="12.6" font-style="italic" lengthAdjust="spacing" textLength="48.6" x="37.35" y="28.8967">Property</text><line style="stroke:#181818;stroke-width:0.45;" x1="6.3" x2="117" y1="36.559" y2="36.559"/><text fill="#000000" font-family="sans-serif" font-size="12.6" lengthAdjust="spacing" textLength="27.9" x="10.8" y="53.7557">price</text><text fill="#000000" font-family="sans-serif" font-size="12.6" lengthAdjust="spacing" textLength="26.1" x="10.8" y="70.5146">area</text><text fill="#000000" font-family="sans-serif" font-size="12.6" lengthAdjust="spacing" textLength="101.7" x="10.8" y="87.2736">distanceToCentre</text><text fill="#000000" font-family="sans-serif" font-size="12.6" lengthAdjust="spacing" textLength="72" x="10.8" y="104.0326">photographs</text></g><!--class Person--><g id="elem_Person"><rect codeLine="33" fill="#F1F1F1" height="116.7539" id="Person" rx="2.25" ry="2.25" style="stroke:#181818;stroke-width:0.45;" width="104.4" x="121.95" y="260.1"/><text fill="#000000" font-family="sans-serif" font-size="12.6" lengthAdjust="spacing" textLength="40.5" x="153.9" y="278.1967">Person</text><line style="stroke:#181818;stroke-width:0.45;" x1="122.85" x2="225.45" y1="285.859" y2="285.859"/><text fill="#000000" font-family="sans-serif" font-size="12.6" lengthAdjust="spacing" textLength="29.7" x="127.35" y="303.0557">email</text><text fill="#000000" font-family="sans-serif" font-size="12.6" lengthAdjust="spacing" textLength="31.5" x="127.35" y="319.8146">name</text><text fill="#000000" font-family="sans-serif" font-size="12.6" lengthAdjust="spacing" textLength="93.6" x="127.35" y="336.5736">passportNumber</text><text fill="#000000" font-family="sans-serif" font-size="12.6" lengthAdjust="spacing" textLength="60.3" x="127.35" y="353.3326">taxNumber</text><text fill="#000000" font-family="sans-serif" font-size="12.6" lengthAdjust="spacing" textLength="80.1" x="127.35" y="370.0916">phoneNumber</text></g><!--class StoreManager--><g id="elem_StoreManager"><rect codeLine="41" fill="#F1F1F1" height="32.959" id="StoreManager" rx="2.25" ry="2.25" style="stroke:#181818;stroke-width:0.45;" width="86.4" x="130.95" y="493.2"/><text fill="#000000" font-family="sans-serif" font-size="12.6" lengthAdjust="spacing" textLength="81" x="133.65" y="511.2967">StoreManager</text><line style="stroke:#181818;stroke-width:0.45;" x1="131.85" x2="216.45" y1="518.959" y2="518.959"/></g><!--class Role--><g id="elem_Role"><rect codeLine="45" fill="#F1F1F1" height="66.477" id="Role" rx="2.25" ry="2.25" style="stroke:#181818;stroke-width:0.45;" width="72.9" x="243" y="285.3"/><text fill="#000000" font-family="sans-serif" font-size="12.6" lengthAdjust="spacing" textLength="26.1" x="266.4" y="303.3967">Role</text><line style="stroke:#181818;stroke-width:0.45;" x1="243.9" x2="315" y1="311.059" y2="311.059"/><text fill="#000000" font-family="sans-serif" font-size="12.6" lengthAdjust="spacing" textLength="9.9" x="248.4" y="328.2557">id</text><text fill="#000000" font-family="sans-serif" font-size="12.6" lengthAdjust="spacing" textLength="62.1" x="248.4" y="345.0146">description</text></g><!--class Address--><g id="elem_Address"><rect codeLine="51" fill="#F1F1F1" height="83.2359" id="Address" rx="2.25" ry="2.25" style="stroke:#181818;stroke-width:0.45;" width="90" x="129.15" y="144"/><text fill="#000000" font-family="sans-serif" font-size="12.6" lengthAdjust="spacing" textLength="46.8" x="150.75" y="162.0967">Address</text><line style="stroke:#181818;stroke-width:0.45;" x1="130.05" x2="218.25" y1="169.759" y2="169.759"/><text fill="#000000" font-family="sans-serif" font-size="12.6" lengthAdjust="spacing" textLength="79.2" x="134.55" y="186.9557">streetAddress</text><text fill="#000000" font-family="sans-serif" font-size="12.6" lengthAdjust="spacing" textLength="27.9" x="134.55" y="203.7146">state</text><text fill="#000000" font-family="sans-serif" font-size="12.6" lengthAdjust="spacing" textLength="45.9" x="134.55" y="220.4736">zipCode</text></g><path d="M98.6838,368.7254 C110.3346,382.6276 123.4561,397.4786 136.35,410.4 C141.8125,415.8742 148.1061,421.4482 153.9713,426.3753 " fill="none" style="stroke:#181818;stroke-width:0.9;"/><polygon fill="#181818" points="98.6838,368.7254,101.1274,377.2459,101.5742,372.1744,106.6457,372.6212,98.6838,368.7254" style="stroke:#181818;stroke-width:0.9;"/><text fill="#000000" font-family="sans-serif" font-size="11.7" lengthAdjust="spacing" textLength="32.4" x="137.25" y="406.8255">part of</text><text fill="#000000" font-family="sans-serif" font-size="11.7" lengthAdjust="spacing" textLength="4.5" x="148.5713" y="422.8008">*</text><text fill="#000000" font-family="sans-serif" font-size="11.7" lengthAdjust="spacing" textLength="6.3" x="91.4838" y="382.2509">1</text><path d="M138.6113,227.1555 C127.2085,240.2642 114.4596,254.9204 102.5965,268.5583 " fill="none" style="stroke:#181818;stroke-width:0.9;"/><polygon fill="#181818" points="138.6113,227.1555,130.579,230.9042,135.6579,230.5507,136.0114,235.6296,138.6113,227.1555" style="stroke:#181818;stroke-width:0.9;"/><text fill="#000000" font-family="sans-serif" font-size="11.7" lengthAdjust="spacing" textLength="6.3" x="95.3965" y="264.9838">1</text><text fill="#000000" font-family="sans-serif" font-size="11.7" lengthAdjust="spacing" textLength="6.3" x="131.4113" y="240.681">1</text><path d="M106.7598,110.9099 C116.7851,121.8575 127.3022,133.3422 136.9674,143.8966 " fill="none" style="stroke:#181818;stroke-width:0.9;"/><polygon fill="#181818" points="136.9674,143.8966,134.1519,135.4916,133.9283,140.5779,128.842,140.3542,136.9674,143.8966" style="stroke:#181818;stroke-width:0.9;"/><text fill="#000000" font-family="sans-serif" font-size="11.7" lengthAdjust="spacing" textLength="6.3" x="129.7674" y="140.3221">1</text><text fill="#000000" font-family="sans-serif" font-size="11.7" lengthAdjust="spacing" textLength="6.3" x="99.5598" y="124.4354">1</text><path d="M174.15,227.1555 C174.15,237.5521 174.15,248.922 174.15,259.9854 " fill="none" style="stroke:#181818;stroke-width:0.9;"/><polygon fill="#181818" points="174.15,227.1555,170.55,235.2555,174.15,231.6555,177.75,235.2555,174.15,227.1555" style="stroke:#181818;stroke-width:0.9;"/><text fill="#000000" font-family="sans-serif" font-size="11.7" lengthAdjust="spacing" textLength="6.3" x="175.05" y="256.4109">1</text><text fill="#000000" font-family="sans-serif" font-size="11.7" lengthAdjust="spacing" textLength="6.3" x="166.95" y="240.681">1</text><path d="M174.15,460.168 C174.15,470.2123 174.15,483.1071 174.15,493.1163 " fill="none" style="stroke:#181818;stroke-width:0.9;"/><polygon fill="#181818" points="174.15,460.168,170.55,468.268,174.15,464.668,177.75,468.268,174.15,460.168" style="stroke:#181818;stroke-width:0.9;"/><path d="M254.6845,352.1692 C248.2293,360.4133 241.1901,369.1721 234.45,377.1 C219.6633,394.4924 201.8198,413.5833 189.396,426.5957 " fill="none" style="stroke:#181818;stroke-width:0.9;"/><polygon fill="#181818" points="254.6845,352.1692,246.8564,356.3273,251.9103,355.7123,252.5253,360.7662,254.6845,352.1692" style="stroke:#181818;stroke-width:0.9;"/><text fill="#000000" font-family="sans-serif" font-size="11.7" lengthAdjust="spacing" textLength="6.3" x="182.196" y="423.0212">1</text><text fill="#000000" font-family="sans-serif" font-size="11.7" lengthAdjust="spacing" textLength="18" x="235.7845" y="365.6947">1..*</text><path d="M36.1536,111.0793 C31.8019,121.6782 27.9486,133.0033 25.65,144 C18.1205,180.0215 19.0643,190.5941 25.65,226.8 C28.1847,240.7348 32.7381,255.3117 37.7127,268.6091 " fill="none" style="stroke:#181818;stroke-width:0.9;"/><text fill="#000000" font-family="sans-serif" font-size="11.7" lengthAdjust="spacing" textLength="93.6" x="26.55" y="190.3755">in associated with</text><text fill="#000000" font-family="sans-serif" font-size="11.7" lengthAdjust="spacing" textLength="6.3" x="30.5127" y="265.0346">1</text><text fill="#000000" font-family="sans-serif" font-size="11.7" lengthAdjust="spacing" textLength="4.5" x="30.7536" y="124.6048">*</text><path d="M174.15,377.3277 C174.15,395.3754 174.15,413.8386 174.15,426.4567 " fill="none" style="stroke:#181818;stroke-width:0.9;"/><polygon fill="#181818" points="174.15,377.3277,170.55,385.4277,174.15,381.8277,177.75,385.4277,174.15,377.3277" style="stroke:#181818;stroke-width:0.9;"/><!--SRC=[RLBBRjmm3BppAzYz50YmGNCDWW11saCF2O9kVu2HkROGMHGeBjBDelzU-h5U8wWlelWOpenSts8kfDHZBrb2fz8pcXuOwb8f5DwevPqT4wDoCCfjMZVKZXfvZxd5FQNAyAKejJrXegCS36lFFa80NnFl3KrGOziPDd40Yv9XXHKIrVfWfl7rOFmpIDx53yPl05ri64FKuBl7s64xQQhZMZIdzbrwYXcVfE44C0BXZxuaEJAV0FwUSpiJPJm1-XURyMYunZRJI6QuioEbCIgTP7u-zA-i0qBCnhgdmFYYKbZjE0CLZO77Y9Hf0etLTGV-BO-SJVcCPz8gbQvU6BsmLicdJwipzVECznHHcsaCAQC_gzidaYkPJsvyoufh_RyakH-kt5K7ZMLwWgNyq3JAjKviglDccrDpXcoYzH7BetizJ09CfcvkDdYttUBcQhDOZxSkG0rbZtS0CzIbqy-9AYoE3hdjzdwgdNV_Tt0o3c3PDLJMmc4GwxtNrrUNiNFtQgDNfzeuV8l-7xaN4gABRV0zMeVtC6t34MV1-0S0]--></g></svg>