<?xml version="1.0" encoding="us-ascii" standalone="no"?><svg xmlns="http://www.w3.org/2000/svg" xmlns:xlink="http://www.w3.org/1999/xlink" contentStyleType="text/css" height="967px" preserveAspectRatio="none" style="width:1222px;height:967px;background:#FFFFFF;" version="1.1" viewBox="0 0 1222 967" width="1222px" zoomAndPan="magnify"><defs><filter height="300%" id="f1sdz06lzfnwv4" width="300%" x="-1" y="-1"><feGaussianBlur result="blurOut" stdDeviation="2.0"/><feColorMatrix in="blurOut" result="blurOut2" type="matrix" values="0 0 0 0 0 0 0 0 0 0 0 0 0 0 0 0 0 0 .4 0"/><feOffset dx="4.0" dy="4.0" in="blurOut2" result="blurOut3"/><feBlend in="SourceGraphic" in2="blurOut3" mode="normal"/></filter></defs><g><!--class GetPropertyListUI--><g id="elem_GetPropertyListUI"><rect codeLine="11" fill="#F1F1F1" filter="url(#f1sdz06lzfnwv4)" height="48" id="GetPropertyListUI" rx="2.5" ry="2.5" style="stroke:#181818;stroke-width:0.5;" width="143" x="156.5" y="61.5"/><ellipse cx="171.5" cy="77.5" fill="#ADD1B2" rx="11" ry="11" style="stroke:#181818;stroke-width:1.0;"/><path d="M174.2656,73.375 Q174.4219,73.1563 174.6094,73.0469 Q174.7969,72.9375 175.0156,72.9375 Q175.3906,72.9375 175.625,73.2031 Q175.8594,73.4531 175.8594,74.0625 L175.8594,75.5156 Q175.8594,76.125 175.625,76.3906 Q175.3906,76.6563 175.0156,76.6563 Q174.6719,76.6563 174.4688,76.4531 Q174.2656,76.2656 174.1563,75.75 Q174.1094,75.3906 173.9219,75.2031 Q173.5938,74.8281 172.9844,74.6094 Q172.375,74.3906 171.75,74.3906 Q170.9844,74.3906 170.3438,74.7188 Q169.7188,75.0469 169.2188,75.7969 Q168.7344,76.5469 168.7344,77.5781 L168.7344,78.6719 Q168.7344,79.9063 169.625,80.7344 Q170.5156,81.5469 172.1094,81.5469 Q173.0469,81.5469 173.7031,81.2969 Q174.0938,81.1406 174.5156,80.7031 Q174.7813,80.4375 174.9219,80.3594 Q175.0781,80.2813 175.2813,80.2813 Q175.6094,80.2813 175.8594,80.5469 Q176.125,80.7969 176.125,81.1406 Q176.125,81.4844 175.7813,81.8906 Q175.2813,82.4688 174.4844,82.7969 Q173.4063,83.25 172.1094,83.25 Q170.5938,83.25 169.3906,82.625 Q168.4063,82.125 167.7188,81.0625 Q167.0313,79.9844 167.0313,78.7031 L167.0313,77.5469 Q167.0313,76.2188 167.6406,75.0781 Q168.2656,73.9219 169.3594,73.3125 Q170.4531,72.6875 171.6875,72.6875 Q172.4219,72.6875 173.0625,72.8594 Q173.7188,73.0156 174.2656,73.375 Z " fill="#000000"/><text fill="#000000" font-family="sans-serif" font-size="14" lengthAdjust="spacing" textLength="111" x="185.5" y="82.3535">GetPropertyListUI</text><line style="stroke:#181818;stroke-width:0.5;" x1="157.5" x2="298.5" y1="93.5" y2="93.5"/><line style="stroke:#181818;stroke-width:0.5;" x1="157.5" x2="298.5" y1="101.5" y2="101.5"/></g><!--class GetProperttyListController--><g id="elem_GetProperttyListController"><rect codeLine="14" fill="#F1F1F1" filter="url(#f1sdz06lzfnwv4)" height="157.4844" id="GetProperttyListController" rx="2.5" ry="2.5" style="stroke:#181818;stroke-width:0.5;" width="482" x="335" y="7"/><ellipse cx="489.25" cy="23" fill="#ADD1B2" rx="11" ry="11" style="stroke:#181818;stroke-width:1.0;"/><path d="M492.0156,18.875 Q492.1719,18.6563 492.3594,18.5469 Q492.5469,18.4375 492.7656,18.4375 Q493.1406,18.4375 493.375,18.7031 Q493.6094,18.9531 493.6094,19.5625 L493.6094,21.0156 Q493.6094,21.625 493.375,21.8906 Q493.1406,22.1563 492.7656,22.1563 Q492.4219,22.1563 492.2188,21.9531 Q492.0156,21.7656 491.9063,21.25 Q491.8594,20.8906 491.6719,20.7031 Q491.3438,20.3281 490.7344,20.1094 Q490.125,19.8906 489.5,19.8906 Q488.7344,19.8906 488.0938,20.2188 Q487.4688,20.5469 486.9688,21.2969 Q486.4844,22.0469 486.4844,23.0781 L486.4844,24.1719 Q486.4844,25.4063 487.375,26.2344 Q488.2656,27.0469 489.8594,27.0469 Q490.7969,27.0469 491.4531,26.7969 Q491.8438,26.6406 492.2656,26.2031 Q492.5313,25.9375 492.6719,25.8594 Q492.8281,25.7813 493.0313,25.7813 Q493.3594,25.7813 493.6094,26.0469 Q493.875,26.2969 493.875,26.6406 Q493.875,26.9844 493.5313,27.3906 Q493.0313,27.9688 492.2344,28.2969 Q491.1563,28.75 489.8594,28.75 Q488.3438,28.75 487.1406,28.125 Q486.1563,27.625 485.4688,26.5625 Q484.7813,25.4844 484.7813,24.2031 L484.7813,23.0469 Q484.7813,21.7188 485.3906,20.5781 Q486.0156,19.4219 487.1094,18.8125 Q488.2031,18.1875 489.4375,18.1875 Q490.1719,18.1875 490.8125,18.3594 Q491.4688,18.5156 492.0156,18.875 Z " fill="#000000"/><text fill="#000000" font-family="sans-serif" font-size="14" lengthAdjust="spacing" textLength="165" x="509.75" y="27.8535">GetProperttyListController</text><line style="stroke:#181818;stroke-width:0.5;" x1="336" x2="816" y1="39" y2="39"/><line style="stroke:#181818;stroke-width:0.5;" x1="336" x2="816" y1="47" y2="47"/><text fill="#000000" font-family="sans-serif" font-size="14" lengthAdjust="spacing" textLength="226" x="341" y="63.6738">+CreateGetProperttyListController()</text><text fill="#000000" font-family="sans-serif" font-size="14" lengthAdjust="spacing" textLength="225" x="341" y="79.3145">+getPropertyListByAnnouncement()</text><text fill="#000000" font-family="sans-serif" font-size="14" lengthAdjust="spacing" textLength="127" x="341" y="94.9551">+getBusinessType()</text><text fill="#000000" font-family="sans-serif" font-size="14" lengthAdjust="spacing" textLength="124" x="341" y="110.5957">+getPropertyType()</text><text fill="#000000" font-family="sans-serif" font-size="14" lengthAdjust="spacing" textLength="131" x="341" y="126.2363">+getPropertyFilters()</text><text fill="#000000" font-family="sans-serif" font-size="14" lengthAdjust="spacing" textLength="470" x="341" y="141.877">+getPropertyList(businessType, propertyType, bedroomNo, choosenFilter)</text><text fill="#000000" font-family="sans-serif" font-size="14" lengthAdjust="spacing" textLength="296" x="341" y="157.5176">+getPropertiesByBusinessType(businessType)</text></g><!--class PropertyFiltersRepository--><g id="elem_PropertyFiltersRepository"><rect codeLine="24" fill="#F1F1F1" filter="url(#f1sdz06lzfnwv4)" height="79.2813" id="PropertyFiltersRepository" rx="2.5" ry="2.5" style="stroke:#181818;stroke-width:0.5;" width="224" x="7" y="449"/><ellipse cx="35.95" cy="465" fill="#ADD1B2" rx="11" ry="11" style="stroke:#181818;stroke-width:1.0;"/><path d="M38.7156,460.875 Q38.8719,460.6563 39.0594,460.5469 Q39.2469,460.4375 39.4656,460.4375 Q39.8406,460.4375 40.075,460.7031 Q40.3094,460.9531 40.3094,461.5625 L40.3094,463.0156 Q40.3094,463.625 40.075,463.8906 Q39.8406,464.1563 39.4656,464.1563 Q39.1219,464.1563 38.9188,463.9531 Q38.7156,463.7656 38.6063,463.25 Q38.5594,462.8906 38.3719,462.7031 Q38.0438,462.3281 37.4344,462.1094 Q36.825,461.8906 36.2,461.8906 Q35.4344,461.8906 34.7938,462.2188 Q34.1688,462.5469 33.6688,463.2969 Q33.1844,464.0469 33.1844,465.0781 L33.1844,466.1719 Q33.1844,467.4063 34.075,468.2344 Q34.9656,469.0469 36.5594,469.0469 Q37.4969,469.0469 38.1531,468.7969 Q38.5438,468.6406 38.9656,468.2031 Q39.2313,467.9375 39.3719,467.8594 Q39.5281,467.7813 39.7313,467.7813 Q40.0594,467.7813 40.3094,468.0469 Q40.575,468.2969 40.575,468.6406 Q40.575,468.9844 40.2313,469.3906 Q39.7313,469.9688 38.9344,470.2969 Q37.8563,470.75 36.5594,470.75 Q35.0438,470.75 33.8406,470.125 Q32.8563,469.625 32.1688,468.5625 Q31.4813,467.4844 31.4813,466.2031 L31.4813,465.0469 Q31.4813,463.7188 32.0906,462.5781 Q32.7156,461.4219 33.8094,460.8125 Q34.9031,460.1875 36.1375,460.1875 Q36.8719,460.1875 37.5125,460.3594 Q38.1688,460.5156 38.7156,460.875 Z " fill="#000000"/><text fill="#000000" font-family="sans-serif" font-size="14" lengthAdjust="spacing" textLength="161" x="53.05" y="469.8535">PropertyFiltersRepository</text><line style="stroke:#181818;stroke-width:0.5;" x1="8" x2="230" y1="481" y2="481"/><text fill="#000000" font-family="sans-serif" font-size="14" lengthAdjust="spacing" textLength="212" x="13" y="497.6738">-ArrayList&lt;Filters&gt; propertyFilters</text><line style="stroke:#181818;stroke-width:0.5;" x1="8" x2="230" y1="504.6406" y2="504.6406"/><text fill="#000000" font-family="sans-serif" font-size="14" lengthAdjust="spacing" textLength="131" x="13" y="521.3145">+getPropertyFilters()</text></g><!--class Filters--><g id="elem_Filters"><rect codeLine="29" fill="#F1F1F1" filter="url(#f1sdz06lzfnwv4)" height="63.6406" id="Filters" rx="2.5" ry="2.5" style="stroke:#181818;stroke-width:0.5;" width="85" x="56.5" y="611.5"/><ellipse cx="77.8" cy="627.5" fill="#ADD1B2" rx="11" ry="11" style="stroke:#181818;stroke-width:1.0;"/><path d="M80.5656,623.375 Q80.7219,623.1563 80.9094,623.0469 Q81.0969,622.9375 81.3156,622.9375 Q81.6906,622.9375 81.925,623.2031 Q82.1594,623.4531 82.1594,624.0625 L82.1594,625.5156 Q82.1594,626.125 81.925,626.3906 Q81.6906,626.6563 81.3156,626.6563 Q80.9719,626.6563 80.7688,626.4531 Q80.5656,626.2656 80.4563,625.75 Q80.4094,625.3906 80.2219,625.2031 Q79.8938,624.8281 79.2844,624.6094 Q78.675,624.3906 78.05,624.3906 Q77.2844,624.3906 76.6438,624.7188 Q76.0188,625.0469 75.5188,625.7969 Q75.0344,626.5469 75.0344,627.5781 L75.0344,628.6719 Q75.0344,629.9063 75.925,630.7344 Q76.8156,631.5469 78.4094,631.5469 Q79.3469,631.5469 80.0031,631.2969 Q80.3938,631.1406 80.8156,630.7031 Q81.0813,630.4375 81.2219,630.3594 Q81.3781,630.2813 81.5813,630.2813 Q81.9094,630.2813 82.1594,630.5469 Q82.425,630.7969 82.425,631.1406 Q82.425,631.4844 82.0813,631.8906 Q81.5813,632.4688 80.7844,632.7969 Q79.7063,633.25 78.4094,633.25 Q76.8938,633.25 75.6906,632.625 Q74.7063,632.125 74.0188,631.0625 Q73.3313,629.9844 73.3313,628.7031 L73.3313,627.5469 Q73.3313,626.2188 73.9406,625.0781 Q74.5656,623.9219 75.6594,623.3125 Q76.7531,622.6875 77.9875,622.6875 Q78.7219,622.6875 79.3625,622.8594 Q80.0188,623.0156 80.5656,623.375 Z " fill="#000000"/><text fill="#000000" font-family="sans-serif" font-size="14" lengthAdjust="spacing" textLength="39" x="93.2" y="632.3535">Filters</text><line style="stroke:#181818;stroke-width:0.5;" x1="57.5" x2="140.5" y1="643.5" y2="643.5"/><text fill="#000000" font-family="sans-serif" font-size="14" lengthAdjust="spacing" textLength="73" x="62.5" y="660.1738">-String filter</text><line style="stroke:#181818;stroke-width:0.5;" x1="57.5" x2="140.5" y1="667.1406" y2="667.1406"/></g><!--class BusinessTypeRepository--><g id="elem_BusinessTypeRepository"><rect codeLine="33" fill="#F1F1F1" filter="url(#f1sdz06lzfnwv4)" height="79.2813" id="BusinessTypeRepository" rx="2.5" ry="2.5" style="stroke:#181818;stroke-width:0.5;" width="241" x="276.5" y="449"/><ellipse cx="314.9" cy="465" fill="#ADD1B2" rx="11" ry="11" style="stroke:#181818;stroke-width:1.0;"/><path d="M317.6656,460.875 Q317.8219,460.6563 318.0094,460.5469 Q318.1969,460.4375 318.4156,460.4375 Q318.7906,460.4375 319.025,460.7031 Q319.2594,460.9531 319.2594,461.5625 L319.2594,463.0156 Q319.2594,463.625 319.025,463.8906 Q318.7906,464.1563 318.4156,464.1563 Q318.0719,464.1563 317.8688,463.9531 Q317.6656,463.7656 317.5563,463.25 Q317.5094,462.8906 317.3219,462.7031 Q316.9938,462.3281 316.3844,462.1094 Q315.775,461.8906 315.15,461.8906 Q314.3844,461.8906 313.7438,462.2188 Q313.1188,462.5469 312.6188,463.2969 Q312.1344,464.0469 312.1344,465.0781 L312.1344,466.1719 Q312.1344,467.4063 313.025,468.2344 Q313.9156,469.0469 315.5094,469.0469 Q316.4469,469.0469 317.1031,468.7969 Q317.4938,468.6406 317.9156,468.2031 Q318.1813,467.9375 318.3219,467.8594 Q318.4781,467.7813 318.6813,467.7813 Q319.0094,467.7813 319.2594,468.0469 Q319.525,468.2969 319.525,468.6406 Q319.525,468.9844 319.1813,469.3906 Q318.6813,469.9688 317.8844,470.2969 Q316.8063,470.75 315.5094,470.75 Q313.9938,470.75 312.7906,470.125 Q311.8063,469.625 311.1188,468.5625 Q310.4313,467.4844 310.4313,466.2031 L310.4313,465.0469 Q310.4313,463.7188 311.0406,462.5781 Q311.6656,461.4219 312.7594,460.8125 Q313.8531,460.1875 315.0875,460.1875 Q315.8219,460.1875 316.4625,460.3594 Q317.1188,460.5156 317.6656,460.875 Z " fill="#000000"/><text fill="#000000" font-family="sans-serif" font-size="14" lengthAdjust="spacing" textLength="157" x="334.1" y="469.8535">BusinessTypeRepository</text><line style="stroke:#181818;stroke-width:0.5;" x1="277.5" x2="516.5" y1="481" y2="481"/><text fill="#000000" font-family="sans-serif" font-size="14" lengthAdjust="spacing" textLength="229" x="282.5" y="497.6738">-ArrayList&lt;String&gt; BusinessTypeList</text><line style="stroke:#181818;stroke-width:0.5;" x1="277.5" x2="516.5" y1="504.6406" y2="504.6406"/><text fill="#000000" font-family="sans-serif" font-size="14" lengthAdjust="spacing" textLength="127" x="282.5" y="521.3145">+getBusinessType()</text></g><!--class BusinessType--><g id="elem_BusinessType"><rect codeLine="39" fill="#F1F1F1" filter="url(#f1sdz06lzfnwv4)" height="63.6406" id="BusinessType" rx="2.5" ry="2.5" style="stroke:#181818;stroke-width:0.5;" width="127" x="176.5" y="611.5"/><ellipse cx="194.2" cy="627.5" fill="#ADD1B2" rx="11" ry="11" style="stroke:#181818;stroke-width:1.0;"/><path d="M196.9656,623.375 Q197.1219,623.1563 197.3094,623.0469 Q197.4969,622.9375 197.7156,622.9375 Q198.0906,622.9375 198.325,623.2031 Q198.5594,623.4531 198.5594,624.0625 L198.5594,625.5156 Q198.5594,626.125 198.325,626.3906 Q198.0906,626.6563 197.7156,626.6563 Q197.3719,626.6563 197.1688,626.4531 Q196.9656,626.2656 196.8563,625.75 Q196.8094,625.3906 196.6219,625.2031 Q196.2938,624.8281 195.6844,624.6094 Q195.075,624.3906 194.45,624.3906 Q193.6844,624.3906 193.0438,624.7188 Q192.4188,625.0469 191.9188,625.7969 Q191.4344,626.5469 191.4344,627.5781 L191.4344,628.6719 Q191.4344,629.9063 192.325,630.7344 Q193.2156,631.5469 194.8094,631.5469 Q195.7469,631.5469 196.4031,631.2969 Q196.7938,631.1406 197.2156,630.7031 Q197.4813,630.4375 197.6219,630.3594 Q197.7781,630.2813 197.9813,630.2813 Q198.3094,630.2813 198.5594,630.5469 Q198.825,630.7969 198.825,631.1406 Q198.825,631.4844 198.4813,631.8906 Q197.9813,632.4688 197.1844,632.7969 Q196.1063,633.25 194.8094,633.25 Q193.2938,633.25 192.0906,632.625 Q191.1063,632.125 190.4188,631.0625 Q189.7313,629.9844 189.7313,628.7031 L189.7313,627.5469 Q189.7313,626.2188 190.3406,625.0781 Q190.9656,623.9219 192.0594,623.3125 Q193.1531,622.6875 194.3875,622.6875 Q195.1219,622.6875 195.7625,622.8594 Q196.4188,623.0156 196.9656,623.375 Z " fill="#000000"/><text fill="#000000" font-family="sans-serif" font-size="14" lengthAdjust="spacing" textLength="89" x="208.8" y="632.3535">BusinessType</text><line style="stroke:#181818;stroke-width:0.5;" x1="177.5" x2="302.5" y1="643.5" y2="643.5"/><text fill="#000000" font-family="sans-serif" font-size="14" lengthAdjust="spacing" textLength="115" x="182.5" y="660.1738">-String description</text><line style="stroke:#181818;stroke-width:0.5;" x1="177.5" x2="302.5" y1="667.1406" y2="667.1406"/></g><!--class Repositories--><g id="elem_Repositories"><rect codeLine="43" fill="#F1F1F1" filter="url(#f1sdz06lzfnwv4)" height="157.4844" id="Repositories" rx="2.5" ry="2.5" style="stroke:#181818;stroke-width:0.5;" width="213" x="469.5" y="224"/><ellipse cx="532.25" cy="240" fill="#ADD1B2" rx="11" ry="11" style="stroke:#181818;stroke-width:1.0;"/><path d="M535.0156,235.875 Q535.1719,235.6563 535.3594,235.5469 Q535.5469,235.4375 535.7656,235.4375 Q536.1406,235.4375 536.375,235.7031 Q536.6094,235.9531 536.6094,236.5625 L536.6094,238.0156 Q536.6094,238.625 536.375,238.8906 Q536.1406,239.1563 535.7656,239.1563 Q535.4219,239.1563 535.2188,238.9531 Q535.0156,238.7656 534.9063,238.25 Q534.8594,237.8906 534.6719,237.7031 Q534.3438,237.3281 533.7344,237.1094 Q533.125,236.8906 532.5,236.8906 Q531.7344,236.8906 531.0938,237.2188 Q530.4688,237.5469 529.9688,238.2969 Q529.4844,239.0469 529.4844,240.0781 L529.4844,241.1719 Q529.4844,242.4063 530.375,243.2344 Q531.2656,244.0469 532.8594,244.0469 Q533.7969,244.0469 534.4531,243.7969 Q534.8438,243.6406 535.2656,243.2031 Q535.5313,242.9375 535.6719,242.8594 Q535.8281,242.7813 536.0313,242.7813 Q536.3594,242.7813 536.6094,243.0469 Q536.875,243.2969 536.875,243.6406 Q536.875,243.9844 536.5313,244.3906 Q536.0313,244.9688 535.2344,245.2969 Q534.1563,245.75 532.8594,245.75 Q531.3438,245.75 530.1406,245.125 Q529.1563,244.625 528.4688,243.5625 Q527.7813,242.4844 527.7813,241.2031 L527.7813,240.0469 Q527.7813,238.7188 528.3906,237.5781 Q529.0156,236.4219 530.1094,235.8125 Q531.2031,235.1875 532.4375,235.1875 Q533.1719,235.1875 533.8125,235.3594 Q534.4688,235.5156 535.0156,235.875 Z " fill="#000000"/><text fill="#000000" font-family="sans-serif" font-size="14" lengthAdjust="spacing" textLength="79" x="552.75" y="244.8535">Repositories</text><line style="stroke:#181818;stroke-width:0.5;" x1="470.5" x2="681.5" y1="256" y2="256"/><line style="stroke:#181818;stroke-width:0.5;" x1="470.5" x2="681.5" y1="264" y2="264"/><text fill="#000000" font-family="sans-serif" font-size="14" lengthAdjust="spacing" textLength="94" x="475.5" y="280.6738">-Repositories()</text><text fill="#000000" font-family="sans-serif" font-size="14" lengthAdjust="spacing" textLength="182" x="475.5" y="296.3145">+getInstance() : Repositories</text><text fill="#000000" font-family="sans-serif" font-size="14" lengthAdjust="spacing" textLength="201" x="475.5" y="311.9551">+getAnnouncementRepository()</text><text fill="#000000" font-family="sans-serif" font-size="14" lengthAdjust="spacing" textLength="199" x="475.5" y="327.5957">+getPropertyFiltersRepository()</text><text fill="#000000" font-family="sans-serif" font-size="14" lengthAdjust="spacing" textLength="195" x="475.5" y="343.2363">+getBusinessTypeRepository()</text><text fill="#000000" font-family="sans-serif" font-size="14" lengthAdjust="spacing" textLength="192" x="475.5" y="358.877">+getPropertyTypeRepository()</text><text fill="#000000" font-family="sans-serif" font-size="14" lengthAdjust="spacing" textLength="160" x="475.5" y="374.5176">+getPropertyRepository()</text></g><!--class PropertyRepository--><g id="elem_PropertyRepository"><rect codeLine="53" fill="#F1F1F1" filter="url(#f1sdz06lzfnwv4)" height="94.9219" id="PropertyRepository" rx="2.5" ry="2.5" style="stroke:#181818;stroke-width:0.5;" width="486" x="339" y="596"/><ellipse cx="516.75" cy="612" fill="#ADD1B2" rx="11" ry="11" style="stroke:#181818;stroke-width:1.0;"/><path d="M519.5156,607.875 Q519.6719,607.6563 519.8594,607.5469 Q520.0469,607.4375 520.2656,607.4375 Q520.6406,607.4375 520.875,607.7031 Q521.1094,607.9531 521.1094,608.5625 L521.1094,610.0156 Q521.1094,610.625 520.875,610.8906 Q520.6406,611.1563 520.2656,611.1563 Q519.9219,611.1563 519.7188,610.9531 Q519.5156,610.7656 519.4063,610.25 Q519.3594,609.8906 519.1719,609.7031 Q518.8438,609.3281 518.2344,609.1094 Q517.625,608.8906 517,608.8906 Q516.2344,608.8906 515.5938,609.2188 Q514.9688,609.5469 514.4688,610.2969 Q513.9844,611.0469 513.9844,612.0781 L513.9844,613.1719 Q513.9844,614.4063 514.875,615.2344 Q515.7656,616.0469 517.3594,616.0469 Q518.2969,616.0469 518.9531,615.7969 Q519.3438,615.6406 519.7656,615.2031 Q520.0313,614.9375 520.1719,614.8594 Q520.3281,614.7813 520.5313,614.7813 Q520.8594,614.7813 521.1094,615.0469 Q521.375,615.2969 521.375,615.6406 Q521.375,615.9844 521.0313,616.3906 Q520.5313,616.9688 519.7344,617.2969 Q518.6563,617.75 517.3594,617.75 Q515.8438,617.75 514.6406,617.125 Q513.6563,616.625 512.9688,615.5625 Q512.2813,614.4844 512.2813,613.2031 L512.2813,612.0469 Q512.2813,610.7188 512.8906,609.5781 Q513.5156,608.4219 514.6094,607.8125 Q515.7031,607.1875 516.9375,607.1875 Q517.6719,607.1875 518.3125,607.3594 Q518.9688,607.5156 519.5156,607.875 Z " fill="#000000"/><text fill="#000000" font-family="sans-serif" font-size="14" lengthAdjust="spacing" textLength="122" x="537.25" y="616.8535">PropertyRepository</text><line style="stroke:#181818;stroke-width:0.5;" x1="340" x2="824" y1="628" y2="628"/><text fill="#000000" font-family="sans-serif" font-size="14" lengthAdjust="spacing" textLength="203" x="345" y="644.6738">+ArrayList&lt;Property&gt; Properties</text><line style="stroke:#181818;stroke-width:0.5;" x1="340" x2="824" y1="651.6406" y2="651.6406"/><text fill="#000000" font-family="sans-serif" font-size="14" lengthAdjust="spacing" textLength="474" x="345" y="668.3145">+getPropertyList (businessType, propertyType, bedroomNo, choosenFilter)</text><text fill="#000000" font-family="sans-serif" font-size="14" lengthAdjust="spacing" textLength="208" x="345" y="683.9551">+sortPropertyList (choosenFilter)</text></g><!--class Property--><g id="elem_Property"><rect codeLine="59" fill="#F1F1F1" filter="url(#f1sdz06lzfnwv4)" height="204.4063" id="Property" rx="2.5" ry="2.5" style="stroke:#181818;stroke-width:0.5;" width="214" x="475" y="751"/><ellipse cx="550.75" cy="767" fill="#ADD1B2" rx="11" ry="11" style="stroke:#181818;stroke-width:1.0;"/><path d="M553.5156,762.875 Q553.6719,762.6563 553.8594,762.5469 Q554.0469,762.4375 554.2656,762.4375 Q554.6406,762.4375 554.875,762.7031 Q555.1094,762.9531 555.1094,763.5625 L555.1094,765.0156 Q555.1094,765.625 554.875,765.8906 Q554.6406,766.1563 554.2656,766.1563 Q553.9219,766.1563 553.7188,765.9531 Q553.5156,765.7656 553.4063,765.25 Q553.3594,764.8906 553.1719,764.7031 Q552.8438,764.3281 552.2344,764.1094 Q551.625,763.8906 551,763.8906 Q550.2344,763.8906 549.5938,764.2188 Q548.9688,764.5469 548.4688,765.2969 Q547.9844,766.0469 547.9844,767.0781 L547.9844,768.1719 Q547.9844,769.4063 548.875,770.2344 Q549.7656,771.0469 551.3594,771.0469 Q552.2969,771.0469 552.9531,770.7969 Q553.3438,770.6406 553.7656,770.2031 Q554.0313,769.9375 554.1719,769.8594 Q554.3281,769.7813 554.5313,769.7813 Q554.8594,769.7813 555.1094,770.0469 Q555.375,770.2969 555.375,770.6406 Q555.375,770.9844 555.0313,771.3906 Q554.5313,771.9688 553.7344,772.2969 Q552.6563,772.75 551.3594,772.75 Q549.8438,772.75 548.6406,772.125 Q547.6563,771.625 546.9688,770.5625 Q546.2813,769.4844 546.2813,768.2031 L546.2813,767.0469 Q546.2813,765.7188 546.8906,764.5781 Q547.5156,763.4219 548.6094,762.8125 Q549.7031,762.1875 550.9375,762.1875 Q551.6719,762.1875 552.3125,762.3594 Q552.9688,762.5156 553.5156,762.875 Z " fill="#000000"/><text fill="#000000" font-family="sans-serif" font-size="14" lengthAdjust="spacing" textLength="54" x="571.25" y="771.8535">Property</text><line style="stroke:#181818;stroke-width:0.5;" x1="476" x2="688" y1="783" y2="783"/><text fill="#000000" font-family="sans-serif" font-size="14" lengthAdjust="spacing" textLength="71" x="481" y="799.6738">-float price;</text><text fill="#000000" font-family="sans-serif" font-size="14" lengthAdjust="spacing" textLength="69" x="481" y="815.3145">-float area;</text><text fill="#000000" font-family="sans-serif" font-size="14" lengthAdjust="spacing" textLength="116" x="481" y="830.9551">-Address address;</text><text fill="#000000" font-family="sans-serif" font-size="14" lengthAdjust="spacing" textLength="153" x="481" y="846.5957">-float distanceToCentre;</text><text fill="#000000" font-family="sans-serif" font-size="14" lengthAdjust="spacing" textLength="168" x="481" y="862.2363">-List&lt;String&gt; photographs;</text><text fill="#000000" font-family="sans-serif" font-size="14" lengthAdjust="spacing" textLength="184" x="481" y="877.877">-PropertyType propertyType;</text><text fill="#000000" font-family="sans-serif" font-size="14" lengthAdjust="spacing" textLength="79" x="481" y="893.5176">-Store store;</text><text fill="#000000" font-family="sans-serif" font-size="14" lengthAdjust="spacing" textLength="86" x="481" y="909.1582">-Agent agent;</text><text fill="#000000" font-family="sans-serif" font-size="14" lengthAdjust="spacing" textLength="82" x="481" y="924.7988">-Client client;</text><text fill="#000000" font-family="sans-serif" font-size="14" lengthAdjust="spacing" textLength="202" x="481" y="940.4395">-Announcement announcement;</text><line style="stroke:#181818;stroke-width:0.5;" x1="476" x2="688" y1="947.4063" y2="947.4063"/></g><!--class PropertyTypeRepository--><g id="elem_PropertyTypeRepository"><rect codeLine="72" fill="#F1F1F1" filter="url(#f1sdz06lzfnwv4)" height="79.2813" id="PropertyTypeRepository" rx="2.5" ry="2.5" style="stroke:#181818;stroke-width:0.5;" width="238" x="629" y="449"/><ellipse cx="667.4" cy="465" fill="#ADD1B2" rx="11" ry="11" style="stroke:#181818;stroke-width:1.0;"/><path d="M670.1656,460.875 Q670.3219,460.6563 670.5094,460.5469 Q670.6969,460.4375 670.9156,460.4375 Q671.2906,460.4375 671.525,460.7031 Q671.7594,460.9531 671.7594,461.5625 L671.7594,463.0156 Q671.7594,463.625 671.525,463.8906 Q671.2906,464.1563 670.9156,464.1563 Q670.5719,464.1563 670.3688,463.9531 Q670.1656,463.7656 670.0563,463.25 Q670.0094,462.8906 669.8219,462.7031 Q669.4938,462.3281 668.8844,462.1094 Q668.275,461.8906 667.65,461.8906 Q666.8844,461.8906 666.2438,462.2188 Q665.6188,462.5469 665.1188,463.2969 Q664.6344,464.0469 664.6344,465.0781 L664.6344,466.1719 Q664.6344,467.4063 665.525,468.2344 Q666.4156,469.0469 668.0094,469.0469 Q668.9469,469.0469 669.6031,468.7969 Q669.9938,468.6406 670.4156,468.2031 Q670.6813,467.9375 670.8219,467.8594 Q670.9781,467.7813 671.1813,467.7813 Q671.5094,467.7813 671.7594,468.0469 Q672.025,468.2969 672.025,468.6406 Q672.025,468.9844 671.6813,469.3906 Q671.1813,469.9688 670.3844,470.2969 Q669.3063,470.75 668.0094,470.75 Q666.4938,470.75 665.2906,470.125 Q664.3063,469.625 663.6188,468.5625 Q662.9313,467.4844 662.9313,466.2031 L662.9313,465.0469 Q662.9313,463.7188 663.5406,462.5781 Q664.1656,461.4219 665.2594,460.8125 Q666.3531,460.1875 667.5875,460.1875 Q668.3219,460.1875 668.9625,460.3594 Q669.6188,460.5156 670.1656,460.875 Z " fill="#000000"/><text fill="#000000" font-family="sans-serif" font-size="14" lengthAdjust="spacing" textLength="154" x="686.6" y="469.8535">PropertyTypeRepository</text><line style="stroke:#181818;stroke-width:0.5;" x1="630" x2="866" y1="481" y2="481"/><text fill="#000000" font-family="sans-serif" font-size="14" lengthAdjust="spacing" textLength="226" x="635" y="497.6738">-ArrayList&lt;String&gt; PropertyTypeList</text><line style="stroke:#181818;stroke-width:0.5;" x1="630" x2="866" y1="504.6406" y2="504.6406"/><text fill="#000000" font-family="sans-serif" font-size="14" lengthAdjust="spacing" textLength="124" x="635" y="521.3145">+getPropertyType()</text></g><!--class PropertyType--><g id="elem_PropertyType"><rect codeLine="77" fill="#F1F1F1" filter="url(#f1sdz06lzfnwv4)" height="63.6406" id="PropertyType" rx="2.5" ry="2.5" style="stroke:#181818;stroke-width:0.5;" width="131" x="860.5" y="611.5"/><ellipse cx="881.35" cy="627.5" fill="#ADD1B2" rx="11" ry="11" style="stroke:#181818;stroke-width:1.0;"/><path d="M884.1156,623.375 Q884.2719,623.1563 884.4594,623.0469 Q884.6469,622.9375 884.8656,622.9375 Q885.2406,622.9375 885.475,623.2031 Q885.7094,623.4531 885.7094,624.0625 L885.7094,625.5156 Q885.7094,626.125 885.475,626.3906 Q885.2406,626.6563 884.8656,626.6563 Q884.5219,626.6563 884.3188,626.4531 Q884.1156,626.2656 884.0063,625.75 Q883.9594,625.3906 883.7719,625.2031 Q883.4438,624.8281 882.8344,624.6094 Q882.225,624.3906 881.6,624.3906 Q880.8344,624.3906 880.1938,624.7188 Q879.5688,625.0469 879.0688,625.7969 Q878.5844,626.5469 878.5844,627.5781 L878.5844,628.6719 Q878.5844,629.9063 879.475,630.7344 Q880.3656,631.5469 881.9594,631.5469 Q882.8969,631.5469 883.5531,631.2969 Q883.9438,631.1406 884.3656,630.7031 Q884.6313,630.4375 884.7719,630.3594 Q884.9281,630.2813 885.1313,630.2813 Q885.4594,630.2813 885.7094,630.5469 Q885.975,630.7969 885.975,631.1406 Q885.975,631.4844 885.6313,631.8906 Q885.1313,632.4688 884.3344,632.7969 Q883.2563,633.25 881.9594,633.25 Q880.4438,633.25 879.2406,632.625 Q878.2563,632.125 877.5688,631.0625 Q876.8813,629.9844 876.8813,628.7031 L876.8813,627.5469 Q876.8813,626.2188 877.4906,625.0781 Q878.1156,623.9219 879.2094,623.3125 Q880.3031,622.6875 881.5375,622.6875 Q882.2719,622.6875 882.9125,622.8594 Q883.5688,623.0156 884.1156,623.375 Z " fill="#000000"/><text fill="#000000" font-family="sans-serif" font-size="14" lengthAdjust="spacing" textLength="86" x="896.65" y="632.3535">PropertyType</text><line style="stroke:#181818;stroke-width:0.5;" x1="861.5" x2="990.5" y1="643.5" y2="643.5"/><text fill="#000000" font-family="sans-serif" font-size="14" lengthAdjust="spacing" textLength="119" x="866.5" y="660.1738">-String description;</text><line style="stroke:#181818;stroke-width:0.5;" x1="861.5" x2="990.5" y1="667.1406" y2="667.1406"/></g><!--class AnnouncementRepository--><g id="elem_AnnouncementRepository"><rect codeLine="81" fill="#F1F1F1" filter="url(#f1sdz06lzfnwv4)" height="94.9219" id="AnnouncementRepository" rx="2.5" ry="2.5" style="stroke:#181818;stroke-width:0.5;" width="308" x="902" y="441"/><ellipse cx="970.25" cy="457" fill="#ADD1B2" rx="11" ry="11" style="stroke:#181818;stroke-width:1.0;"/><path d="M973.0156,452.875 Q973.1719,452.6563 973.3594,452.5469 Q973.5469,452.4375 973.7656,452.4375 Q974.1406,452.4375 974.375,452.7031 Q974.6094,452.9531 974.6094,453.5625 L974.6094,455.0156 Q974.6094,455.625 974.375,455.8906 Q974.1406,456.1563 973.7656,456.1563 Q973.4219,456.1563 973.2188,455.9531 Q973.0156,455.7656 972.9063,455.25 Q972.8594,454.8906 972.6719,454.7031 Q972.3438,454.3281 971.7344,454.1094 Q971.125,453.8906 970.5,453.8906 Q969.7344,453.8906 969.0938,454.2188 Q968.4688,454.5469 967.9688,455.2969 Q967.4844,456.0469 967.4844,457.0781 L967.4844,458.1719 Q967.4844,459.4063 968.375,460.2344 Q969.2656,461.0469 970.8594,461.0469 Q971.7969,461.0469 972.4531,460.7969 Q972.8438,460.6406 973.2656,460.2031 Q973.5313,459.9375 973.6719,459.8594 Q973.8281,459.7813 974.0313,459.7813 Q974.3594,459.7813 974.6094,460.0469 Q974.875,460.2969 974.875,460.6406 Q974.875,460.9844 974.5313,461.3906 Q974.0313,461.9688 973.2344,462.2969 Q972.1563,462.75 970.8594,462.75 Q969.3438,462.75 968.1406,462.125 Q967.1563,461.625 966.4688,460.5625 Q965.7813,459.4844 965.7813,458.2031 L965.7813,457.0469 Q965.7813,455.7188 966.3906,454.5781 Q967.0156,453.4219 968.1094,452.8125 Q969.2031,452.1875 970.4375,452.1875 Q971.1719,452.1875 971.8125,452.3594 Q972.4688,452.5156 973.0156,452.875 Z " fill="#000000"/><text fill="#000000" font-family="sans-serif" font-size="14" lengthAdjust="spacing" textLength="163" x="990.75" y="461.8535">AnnouncementRepository</text><line style="stroke:#181818;stroke-width:0.5;" x1="903" x2="1209" y1="473" y2="473"/><text fill="#000000" font-family="sans-serif" font-size="14" lengthAdjust="spacing" textLength="281" x="908" y="489.6738">-ArrayList&lt;Announcement&gt; announcements;</text><line style="stroke:#181818;stroke-width:0.5;" x1="903" x2="1209" y1="496.6406" y2="496.6406"/><text fill="#000000" font-family="sans-serif" font-size="14" lengthAdjust="spacing" textLength="296" x="908" y="513.3145">+getPropertiesByBusinessType(businessType)</text><text fill="#000000" font-family="sans-serif" font-size="14" lengthAdjust="spacing" textLength="225" x="908" y="528.9551">+getPropertyListByAnnouncement()</text></g><!--link Repositories to Repositories--><g id="link_Repositories_Repositories"><path codeLine="88" d="M540.5,223.94 C540.5,206.97 540.5,194 540.5,194 C540.5,194 402.25,194 402.25,194 C402.25,194 402.25,411 402.25,411 C402.25,411 501.5,411 501.5,411 C501.5,411 501.5,386.06 501.5,386.06 " fill="none" id="Repositories-to-Repositories" style="stroke:#181818;stroke-width:1.0;"/><polygon fill="#181818" points="501.5,381.06,497.5,390.06,501.5,386.06,505.5,390.06,501.5,381.06" style="stroke:#181818;stroke-width:1.0;"/><text fill="#000000" font-family="sans-serif" font-size="13" lengthAdjust="spacing" textLength="49" x="347.25" y="272.2686">instance</text></g><!--link GetPropertyListUI to GetProperttyListController--><g id="link_GetPropertyListUI_GetProperttyListController"><path codeLine="90" d="M299.68,86 C299.68,86 329.72,86 329.72,86 " fill="none" id="GetPropertyListUI-to-GetProperttyListController" style="stroke:#181818;stroke-width:1.0;stroke-dasharray:7.0,7.0;"/><polygon fill="#181818" points="334.72,86,325.72,82,329.72,86,325.72,90,334.72,86" style="stroke:#181818;stroke-width:1.0;"/></g><!--link GetProperttyListController to Repositories--><g id="link_GetProperttyListController_Repositories"><path codeLine="92" d="M611.5,164.15 C611.5,164.15 611.5,218.76 611.5,218.76 " fill="none" id="GetProperttyListController-to-Repositories" style="stroke:#181818;stroke-width:1.0;stroke-dasharray:7.0,7.0;"/><polygon fill="#181818" points="611.5,223.76,615.5,214.76,611.5,218.76,607.5,214.76,611.5,223.76" style="stroke:#181818;stroke-width:1.0;"/><text fill="#000000" font-family="sans-serif" font-size="13" lengthAdjust="spacing" textLength="67" x="543.5" y="188.2186">repositories</text></g><!--link Repositories to PropertyFiltersRepository--><g id="link_Repositories_PropertyFiltersRepository"><path codeLine="94" d="M469.27,303 C356.17,303 193.75,303 193.75,303 C193.75,303 193.75,443.71 193.75,443.71 " fill="none" id="Repositories-to-PropertyFiltersRepository" style="stroke:#181818;stroke-width:1.0;"/><polygon fill="#181818" points="193.75,448.71,197.75,439.71,193.75,443.71,189.75,439.71,193.75,448.71" style="stroke:#181818;stroke-width:1.0;"/><text fill="#000000" font-family="sans-serif" font-size="13" lengthAdjust="spacing" textLength="7" x="199.4414" y="438.1657">1</text></g><!--link Repositories to AnnouncementRepository--><g id="link_Repositories_AnnouncementRepository"><path codeLine="96" d="M664.67,381.25 C664.67,414.21 664.67,445 664.67,445 C664.67,445 896.9,445 896.9,445 " fill="none" id="Repositories-to-AnnouncementRepository" style="stroke:#181818;stroke-width:1.0;"/><polygon fill="#181818" points="901.9,445,892.9,441,896.9,445,892.9,449,901.9,445" style="stroke:#181818;stroke-width:1.0;"/><text fill="#000000" font-family="sans-serif" font-size="13" lengthAdjust="spacing" textLength="7" x="886.7738" y="440.1802">1</text></g><!--link Repositories to BusinessTypeRepository--><g id="link_Repositories_BusinessTypeRepository"><path codeLine="98" d="M485.5,381.11 C485.5,381.11 485.5,443.92 485.5,443.92 " fill="none" id="Repositories-to-BusinessTypeRepository" style="stroke:#181818;stroke-width:1.0;"/><polygon fill="#181818" points="485.5,448.92,489.5,439.92,485.5,443.92,481.5,439.92,485.5,448.92" style="stroke:#181818;stroke-width:1.0;"/><text fill="#000000" font-family="sans-serif" font-size="13" lengthAdjust="spacing" textLength="7" x="494.1719" y="438.1227">1</text></g><!--link Repositories to PropertyTypeRepository--><g id="link_Repositories_PropertyTypeRepository"><path codeLine="100" d="M646.83,381.11 C646.83,381.11 646.83,443.92 646.83,443.92 " fill="none" id="Repositories-to-PropertyTypeRepository" style="stroke:#181818;stroke-width:1.0;"/><polygon fill="#181818" points="646.83,448.92,650.83,439.92,646.83,443.92,642.83,439.92,646.83,448.92" style="stroke:#181818;stroke-width:1.0;"/><text fill="#000000" font-family="sans-serif" font-size="13" lengthAdjust="spacing" textLength="7" x="620.5315" y="438.1227">1</text></g><!--link PropertyFiltersRepository to Filters--><g id="link_PropertyFiltersRepository_Filters"><path codeLine="102" d="M99,528.01 C99,528.01 99,606.36 99,606.36 " fill="none" id="PropertyFiltersRepository-to-Filters" style="stroke:#181818;stroke-width:1.0;"/><polygon fill="#181818" points="99,611.36,103,602.36,99,606.36,95,602.36,99,611.36" style="stroke:#181818;stroke-width:1.0;"/><text fill="#000000" font-family="sans-serif" font-size="13" lengthAdjust="spacing" textLength="7" x="91.2344" y="600.6632">1</text></g><!--link Repositories to PropertyRepository--><g id="link_Repositories_PropertyRepository"><path codeLine="104" d="M573.25,381.16 C573.25,381.16 573.25,590.74 573.25,590.74 " fill="none" id="Repositories-to-PropertyRepository" style="stroke:#181818;stroke-width:1.0;"/><polygon fill="#181818" points="573.25,595.74,577.25,586.74,573.25,590.74,569.25,586.74,573.25,595.74" style="stroke:#181818;stroke-width:1.0;"/><text fill="#000000" font-family="sans-serif" font-size="13" lengthAdjust="spacing" textLength="7" x="564.3742" y="585.1695">1</text></g><!--link BusinessTypeRepository to BusinessType--><g id="link_BusinessTypeRepository_BusinessType"><path codeLine="106" d="M290,528.01 C290,528.01 290,606.36 290,606.36 " fill="none" id="BusinessTypeRepository-to-BusinessType" style="stroke:#181818;stroke-width:1.0;"/><polygon fill="#181818" points="290,611.36,294,602.36,290,606.36,286,602.36,290,611.36" style="stroke:#181818;stroke-width:1.0;"/><text fill="#000000" font-family="sans-serif" font-size="13" lengthAdjust="spacing" textLength="7" x="293.1719" y="600.6632">1</text></g><!--link PropertyTypeRepository to PropertyType--><g id="link_PropertyTypeRepository_PropertyType"><path codeLine="108" d="M842.75,528.14 C842.75,574.21 842.75,644 842.75,644 C842.75,644 855.41,644 855.41,644 " fill="none" id="PropertyTypeRepository-to-PropertyType" style="stroke:#181818;stroke-width:1.0;"/><polygon fill="#181818" points="860.41,644,851.41,640,855.41,644,851.41,648,860.41,644" style="stroke:#181818;stroke-width:1.0;"/><text fill="#000000" font-family="sans-serif" font-size="13" lengthAdjust="spacing" textLength="7" x="845.4215" y="641.068">1</text></g><!--link PropertyRepository to Property--><g id="link_PropertyRepository_Property"><path codeLine="110" d="M582,691.04 C582,691.04 582,745.91 582,745.91 " fill="none" id="PropertyRepository-to-Property" style="stroke:#181818;stroke-width:1.0;"/><polygon fill="#181818" points="582,750.91,586,741.91,582,745.91,578,741.91,582,750.91" style="stroke:#181818;stroke-width:1.0;"/><text fill="#000000" font-family="sans-serif" font-size="13" lengthAdjust="spacing" textLength="5" x="576.8086" y="740.3308">*</text></g><!--SRC=[dLNRRjim37ttLn1zQRicnVRQ50QI01i23CEmT1-Ws8mjr14DIi7W3VltoPV8aYzPjppO27b87bE7rAr-bQeKB4vm8aL9pdH2C7p6gFUK8daL6UvDLI0m9aQehF01EXSf_P0g6qOMKg6fIWHYazDyXET92g7rsXYMXxF1NK9gBtyYl8-YsmAF1Wm1oomtaCgQYYGLHKqCV4BpbQb4DjLdgStt7VoAVe-ThNTBoZ0L1R95WVqzm9PH69m7tjrtm2mijAdMIj5P9NX2PNpKvgnj0xH-iIsOYfwpVvI5GTPp1UyENju5b5ws1HmmPQBJ5rf0aXDfL6ssSIw9UbC55Fsyzttl1hI-OKbQ6kAgxTmIrioYOVRSGM97gZDS-qPNfpF19UtUYi0gvDYOUvXF-HgNDZmEyBLZzdocIpI97PaKTSAoR7Jdu8w5RQbZxnlzazmfRGSeiGNXAG3r45zF_HTUKSeqQBfHSqAyZWYy8sKCZc6aMFX_oJw0jiiZJ3Q5wi_zWesX5_gOiZkdOq72M4OomLLW4dOVN2phD6NB7aJx3e6fR4_qXRRsmDYb2LHOvcGeOr7cBjhlVj2IbHi0OWHTFnsHp9O0KJylfcqXQrlIl1pEan08xyzgt8gt3fAF3mTfiD0cAmocsXiaZzAqyiUKV5mSV5_NtNzPT6_RwfPZ50pwSXc7a_y4ifljA1fVHe_nbKl83nXTK8_ZGkplZJ6jcmytyrjx1Z_T-Xdmz6hv2vCXU9QXYxpS7iEyWyH-qcbcayHx1ZDWtzs3Xy1tFT1Av0y0]--></g></svg>