<?xml version="1.0" encoding="us-ascii" standalone="no"?><svg xmlns="http://www.w3.org/2000/svg" xmlns:xlink="http://www.w3.org/1999/xlink" contentStyleType="text/css" height="2199px" preserveAspectRatio="none" style="width:1443px;height:2199px;background:#FFFFFF;" version="1.1" viewBox="0 0 1443 2199" width="1443px" zoomAndPan="magnify"><defs/><g><rect fill="#FFFFFF" height="2011.0391" style="stroke:#181818;stroke-width:1.0;" width="10" x="75" y="90.6406"/><rect fill="#FFFFFF" height="169.1406" style="stroke:#181818;stroke-width:1.0;" width="10" x="860" y="111.1641"/><rect fill="#FFFFFF" height="128.5" style="stroke:#181818;stroke-width:1.0;" width="10" x="860" y="308.8281"/><rect fill="#FFFFFF" height="170.0234" style="stroke:#181818;stroke-width:1.0;" width="10" x="860" y="465.8516"/><rect fill="#FFFFFF" height="70.0469" style="stroke:#181818;stroke-width:1.0;" width="10" x="860" y="664.3984"/><rect fill="#FFFFFF" height="193.5469" style="stroke:#181818;stroke-width:1.0;" width="10" x="860" y="762.9688"/><rect fill="#FFFFFF" height="128.5" style="stroke:#181818;stroke-width:1.0;" width="10" x="860" y="985.0391"/><rect fill="#FFFFFF" height="270" style="stroke:#181818;stroke-width:1.0;" width="10" x="860" y="1142.0625"/><rect fill="#FFFFFF" height="128.5" style="stroke:#181818;stroke-width:1.0;" width="10" x="860" y="1440.5859"/><rect fill="#FFFFFF" height="170.0234" style="stroke:#181818;stroke-width:1.0;" width="10" x="860" y="1597.6094"/><rect fill="#FFFFFF" height="99.9766" style="stroke:#181818;stroke-width:1.0;" width="10" x="860" y="1803.1563"/><rect fill="#FFFFFF" height="170.0234" style="stroke:#181818;stroke-width:1.0;" width="10" x="860" y="1931.6563"/><rect fill="#FFFFFF" height="71.4531" style="stroke:#181818;stroke-width:1.0;" width="10" x="1321" y="180.3281"/><rect fill="#FFFFFF" height="71.4531" style="stroke:#181818;stroke-width:1.0;" width="10" x="1321" y="337.3516"/><rect fill="#FFFFFF" height="71.4531" style="stroke:#181818;stroke-width:1.0;" width="10" x="1321" y="535.8984"/><rect fill="#FFFFFF" height="71.4531" style="stroke:#181818;stroke-width:1.0;" width="10" x="1321" y="856.5391"/><rect fill="#FFFFFF" height="71.4531" style="stroke:#181818;stroke-width:1.0;" width="10" x="1321" y="1013.5625"/><rect fill="#FFFFFF" height="71.4531" style="stroke:#181818;stroke-width:1.0;" width="10" x="1321" y="1212.1094"/><rect fill="#FFFFFF" height="71.4531" style="stroke:#181818;stroke-width:1.0;" width="10" x="1321" y="1312.0859"/><rect fill="#FFFFFF" height="71.4531" style="stroke:#181818;stroke-width:1.0;" width="10" x="1321" y="1469.1094"/><rect fill="#FFFFFF" height="71.4531" style="stroke:#181818;stroke-width:1.0;" width="10" x="1321" y="1667.6563"/><rect fill="#FFFFFF" height="71.4531" style="stroke:#181818;stroke-width:1.0;" width="10" x="1321" y="1803.1563"/><rect fill="#FFFFFF" height="71.4531" style="stroke:#181818;stroke-width:1.0;" width="10" x="1321" y="2001.7031"/><rect fill="none" height="956.1406" style="stroke:#000000;stroke-width:1.5;" width="1404" x="10" y="819.4922"/><line style="stroke:#181818;stroke-width:0.5;stroke-dasharray:5.0,5.0;" x1="80" x2="80" y1="80.6406" y2="2119.6797"/><line style="stroke:#181818;stroke-width:0.5;stroke-dasharray:5.0,5.0;" x1="865" x2="865" y1="80.6406" y2="2119.6797"/><line style="stroke:#181818;stroke-width:0.5;stroke-dasharray:5.0,5.0;" x1="1326" x2="1326" y1="149.4844" y2="2119.6797"/><text fill="#000000" font-family="sans-serif" font-size="14" lengthAdjust="spacing" textLength="114" x="20" y="77.6738">Unregistered User</text><ellipse cx="80" cy="13.5" fill="#E3E3E3" rx="8" ry="8" style="stroke:#181818;stroke-width:0.5;"/><path d="M80,21.5 L80,48.5 M67,29.5 L93,29.5 M80,48.5 L67,63.5 M80,48.5 L93,63.5 " fill="none" style="stroke:#181818;stroke-width:0.5;"/><text fill="#000000" font-family="sans-serif" font-size="14" lengthAdjust="spacing" textLength="114" x="20" y="2131.3535">Unregistered User</text><ellipse cx="80" cy="2142.8203" fill="#E3E3E3" rx="8" ry="8" style="stroke:#181818;stroke-width:0.5;"/><path d="M80,2150.8203 L80,2177.8203 M67,2158.8203 L93,2158.8203 M80,2177.8203 L67,2192.8203 M80,2177.8203 L93,2192.8203 " fill="none" style="stroke:#181818;stroke-width:0.5;"/><rect fill="#E3E3E3" height="29.6406" rx="2.5" ry="2.5" style="stroke:#181818;stroke-width:0.5;" width="160" x="785" y="50"/><text fill="#000000" font-family="sans-serif" font-size="14" lengthAdjust="spacing" textLength="146" x="792" y="69.6738">:GetPropertyListUI</text><rect fill="#E3E3E3" height="29.6406" rx="2.5" ry="2.5" style="stroke:#181818;stroke-width:0.5;" width="160" x="785" y="2118.6797"/><text fill="#000000" font-family="sans-serif" font-size="14" lengthAdjust="spacing" textLength="146" x="792" y="2138.3535">:GetPropertyListUI</text><rect fill="#E3E3E3" height="29.6406" rx="2.5" ry="2.5" style="stroke:#181818;stroke-width:0.5;" width="156" x="1248" y="2118.6797"/><text fill="#000000" font-family="sans-serif" font-size="14" lengthAdjust="spacing" textLength="142" x="1255" y="2138.3535">:PropertyListController</text><rect fill="#FFFFFF" height="2011.0391" style="stroke:#181818;stroke-width:1.0;" width="10" x="75" y="90.6406"/><rect fill="#FFFFFF" height="169.1406" style="stroke:#181818;stroke-width:1.0;" width="10" x="860" y="111.1641"/><rect fill="#FFFFFF" height="128.5" style="stroke:#181818;stroke-width:1.0;" width="10" x="860" y="308.8281"/><rect fill="#FFFFFF" height="170.0234" style="stroke:#181818;stroke-width:1.0;" width="10" x="860" y="465.8516"/><rect fill="#FFFFFF" height="70.0469" style="stroke:#181818;stroke-width:1.0;" width="10" x="860" y="664.3984"/><rect fill="#FFFFFF" height="193.5469" style="stroke:#181818;stroke-width:1.0;" width="10" x="860" y="762.9688"/><rect fill="#FFFFFF" height="128.5" style="stroke:#181818;stroke-width:1.0;" width="10" x="860" y="985.0391"/><rect fill="#FFFFFF" height="270" style="stroke:#181818;stroke-width:1.0;" width="10" x="860" y="1142.0625"/><rect fill="#FFFFFF" height="128.5" style="stroke:#181818;stroke-width:1.0;" width="10" x="860" y="1440.5859"/><rect fill="#FFFFFF" height="170.0234" style="stroke:#181818;stroke-width:1.0;" width="10" x="860" y="1597.6094"/><rect fill="#FFFFFF" height="99.9766" style="stroke:#181818;stroke-width:1.0;" width="10" x="860" y="1803.1563"/><rect fill="#FFFFFF" height="170.0234" style="stroke:#181818;stroke-width:1.0;" width="10" x="860" y="1931.6563"/><rect fill="#FFFFFF" height="71.4531" style="stroke:#181818;stroke-width:1.0;" width="10" x="1321" y="180.3281"/><rect fill="#FFFFFF" height="71.4531" style="stroke:#181818;stroke-width:1.0;" width="10" x="1321" y="337.3516"/><rect fill="#FFFFFF" height="71.4531" style="stroke:#181818;stroke-width:1.0;" width="10" x="1321" y="535.8984"/><rect fill="#FFFFFF" height="71.4531" style="stroke:#181818;stroke-width:1.0;" width="10" x="1321" y="856.5391"/><rect fill="#FFFFFF" height="71.4531" style="stroke:#181818;stroke-width:1.0;" width="10" x="1321" y="1013.5625"/><rect fill="#FFFFFF" height="71.4531" style="stroke:#181818;stroke-width:1.0;" width="10" x="1321" y="1212.1094"/><rect fill="#FFFFFF" height="71.4531" style="stroke:#181818;stroke-width:1.0;" width="10" x="1321" y="1312.0859"/><rect fill="#FFFFFF" height="71.4531" style="stroke:#181818;stroke-width:1.0;" width="10" x="1321" y="1469.1094"/><rect fill="#FFFFFF" height="71.4531" style="stroke:#181818;stroke-width:1.0;" width="10" x="1321" y="1667.6563"/><rect fill="#FFFFFF" height="71.4531" style="stroke:#181818;stroke-width:1.0;" width="10" x="1321" y="1803.1563"/><rect fill="#FFFFFF" height="71.4531" style="stroke:#181818;stroke-width:1.0;" width="10" x="1321" y="2001.7031"/><polygon fill="#181818" points="848,107.1641,858,111.1641,848,115.1641,852,111.1641" style="stroke:#181818;stroke-width:1.0;"/><line style="stroke:#181818;stroke-width:1.0;" x1="85" x2="854" y1="111.1641" y2="111.1641"/><text fill="#000000" font-family="sans-serif" font-size="13" font-weight="bold" lengthAdjust="spacing" textLength="7" x="92" y="106.4092">1</text><text fill="#000000" font-family="sans-serif" font-size="13" lengthAdjust="spacing" textLength="164" x="103" y="106.4092">asks to see list of properties</text><polygon fill="#181818" points="1236,135.6875,1246,139.6875,1236,143.6875,1240,139.6875" style="stroke:#181818;stroke-width:1.0;"/><line style="stroke:#181818;stroke-width:1.0;" x1="870" x2="1242" y1="139.6875" y2="139.6875"/><text fill="#000000" font-family="sans-serif" font-size="13" font-weight="bold" lengthAdjust="spacing" textLength="7" x="877" y="134.9326">2</text><text fill="#000000" font-family="sans-serif" font-size="13" lengthAdjust="spacing" textLength="194" x="888" y="134.9326">CreateGetPropertiesListController</text><rect fill="#E3E3E3" height="29.6406" rx="2.5" ry="2.5" style="stroke:#181818;stroke-width:0.5;" width="156" x="1248" y="119.1641"/><text fill="#000000" font-family="sans-serif" font-size="14" lengthAdjust="spacing" textLength="142" x="1255" y="138.8379">:PropertyListController</text><polygon fill="#181818" points="1309,176.3281,1319,180.3281,1309,184.3281,1313,180.3281" style="stroke:#181818;stroke-width:1.0;"/><line style="stroke:#181818;stroke-width:1.0;" x1="870" x2="1315" y1="180.3281" y2="180.3281"/><text fill="#000000" font-family="sans-serif" font-size="13" font-weight="bold" lengthAdjust="spacing" textLength="7" x="877" y="175.5732">3</text><text fill="#000000" font-family="sans-serif" font-size="13" lengthAdjust="spacing" textLength="199" x="888" y="175.5732">getPropertyListByAnnouncement()</text><rect fill="none" height="37.9297" style="stroke:#000000;stroke-width:1.5;" width="192" x="1245" y="188.3281"/><path d="M1245,188.3281 L1307,188.3281 L1307,194.3281 L1297,204.3281 L1245,204.3281 L1245,188.3281 " fill="#EEEEEE" style="stroke:#000000;stroke-width:2.0;"/><text fill="#000000" font-family="sans-serif" font-size="13" font-weight="bold" lengthAdjust="spacing" textLength="17" x="1258" y="202.0967">ref</text><text fill="#000000" font-family="sans-serif" font-size="12" lengthAdjust="spacing" textLength="184" x="1249" y="219.1914">get property list by announcement</text><polygon fill="#181818" points="881,247.7813,871,251.7813,881,255.7813,877,251.7813" style="stroke:#181818;stroke-width:1.0;"/><line style="stroke:#181818;stroke-width:1.0;stroke-dasharray:2.0,2.0;" x1="875" x2="1325" y1="251.7813" y2="251.7813"/><text fill="#000000" font-family="sans-serif" font-size="13" font-weight="bold" lengthAdjust="spacing" textLength="7" x="887" y="247.0264">4</text><text fill="#000000" font-family="sans-serif" font-size="13" lengthAdjust="spacing" textLength="171" x="898" y="247.0264">propertyListByAnnouncement</text><polygon fill="#181818" points="96,276.3047,86,280.3047,96,284.3047,92,280.3047" style="stroke:#181818;stroke-width:1.0;"/><line style="stroke:#181818;stroke-width:1.0;stroke-dasharray:2.0,2.0;" x1="90" x2="864" y1="280.3047" y2="280.3047"/><text fill="#000000" font-family="sans-serif" font-size="13" font-weight="bold" lengthAdjust="spacing" textLength="7" x="102" y="275.5498">5</text><text fill="#000000" font-family="sans-serif" font-size="13" lengthAdjust="spacing" textLength="279" x="113" y="275.5498">show list of properties available and asks to filter</text><polygon fill="#181818" points="848,304.8281,858,308.8281,848,312.8281,852,308.8281" style="stroke:#181818;stroke-width:1.0;"/><line style="stroke:#181818;stroke-width:1.0;" x1="85" x2="854" y1="308.8281" y2="308.8281"/><text fill="#000000" font-family="sans-serif" font-size="13" font-weight="bold" lengthAdjust="spacing" textLength="7" x="92" y="304.0732">6</text><text fill="#000000" font-family="sans-serif" font-size="13" lengthAdjust="spacing" textLength="156" x="103" y="304.0732">confirmation to filter the list</text><polygon fill="#181818" points="1309,333.3516,1319,337.3516,1309,341.3516,1313,337.3516" style="stroke:#181818;stroke-width:1.0;"/><line style="stroke:#181818;stroke-width:1.0;" x1="870" x2="1315" y1="337.3516" y2="337.3516"/><text fill="#000000" font-family="sans-serif" font-size="13" font-weight="bold" lengthAdjust="spacing" textLength="7" x="877" y="332.5967">7</text><text fill="#000000" font-family="sans-serif" font-size="13" lengthAdjust="spacing" textLength="102" x="888" y="332.5967">getRequestType()</text><rect fill="none" height="37.9297" style="stroke:#000000;stroke-width:1.5;" width="162" x="1245" y="345.3516"/><path d="M1245,345.3516 L1307,345.3516 L1307,351.3516 L1297,361.3516 L1245,361.3516 L1245,345.3516 " fill="#EEEEEE" style="stroke:#000000;stroke-width:2.0;"/><text fill="#000000" font-family="sans-serif" font-size="13" font-weight="bold" lengthAdjust="spacing" textLength="17" x="1258" y="359.1201">ref</text><text fill="#000000" font-family="sans-serif" font-size="12" lengthAdjust="spacing" textLength="120" x="1266" y="376.2148">get business type List</text><polygon fill="#181818" points="881,404.8047,871,408.8047,881,412.8047,877,408.8047" style="stroke:#181818;stroke-width:1.0;"/><line style="stroke:#181818;stroke-width:1.0;stroke-dasharray:2.0,2.0;" x1="875" x2="1325" y1="408.8047" y2="408.8047"/><text fill="#000000" font-family="sans-serif" font-size="13" font-weight="bold" lengthAdjust="spacing" textLength="7" x="887" y="404.0498">4</text><text fill="#000000" font-family="sans-serif" font-size="13" lengthAdjust="spacing" textLength="92" x="898" y="404.0498">requestTypeList</text><polygon fill="#181818" points="96,433.3281,86,437.3281,96,441.3281,92,437.3281" style="stroke:#181818;stroke-width:1.0;"/><line style="stroke:#181818;stroke-width:1.0;stroke-dasharray:2.0,2.0;" x1="90" x2="864" y1="437.3281" y2="437.3281"/><text fill="#000000" font-family="sans-serif" font-size="13" font-weight="bold" lengthAdjust="spacing" textLength="7" x="102" y="432.5732">5</text><text fill="#000000" font-family="sans-serif" font-size="13" lengthAdjust="spacing" textLength="314" x="113" y="432.5732">show filters of type of business and asks to select one</text><polygon fill="#181818" points="848,461.8516,858,465.8516,848,469.8516,852,465.8516" style="stroke:#181818;stroke-width:1.0;"/><line style="stroke:#181818;stroke-width:1.0;" x1="85" x2="854" y1="465.8516" y2="465.8516"/><text fill="#000000" font-family="sans-serif" font-size="13" font-weight="bold" lengthAdjust="spacing" textLength="7" x="92" y="461.0967">6</text><text fill="#000000" font-family="sans-serif" font-size="13" lengthAdjust="spacing" textLength="92" x="103" y="461.0967">select an option</text><line style="stroke:#181818;stroke-width:1.0;stroke-dasharray:2.0,2.0;" x1="870" x2="912" y1="494.375" y2="494.375"/><line style="stroke:#181818;stroke-width:1.0;stroke-dasharray:2.0,2.0;" x1="912" x2="912" y1="494.375" y2="507.375"/><line style="stroke:#181818;stroke-width:1.0;stroke-dasharray:2.0,2.0;" x1="871" x2="912" y1="507.375" y2="507.375"/><polygon fill="#181818" points="881,503.375,871,507.375,881,511.375,877,507.375" style="stroke:#181818;stroke-width:1.0;"/><text fill="#000000" font-family="sans-serif" font-size="13" font-weight="bold" lengthAdjust="spacing" textLength="7" x="877" y="489.6201">7</text><text fill="#000000" font-family="sans-serif" font-size="13" lengthAdjust="spacing" textLength="100" x="888" y="489.6201">add(requestType)</text><polygon fill="#181818" points="1309,531.8984,1319,535.8984,1309,539.8984,1313,535.8984" style="stroke:#181818;stroke-width:1.0;"/><line style="stroke:#181818;stroke-width:1.0;" x1="870" x2="1315" y1="535.8984" y2="535.8984"/><text fill="#000000" font-family="sans-serif" font-size="13" font-weight="bold" lengthAdjust="spacing" textLength="7" x="877" y="531.1436">8</text><text fill="#000000" font-family="sans-serif" font-size="13" lengthAdjust="spacing" textLength="103" x="888" y="531.1436">getPropertyType()</text><rect fill="none" height="37.9297" style="stroke:#000000;stroke-width:1.5;" width="162" x="1245" y="543.8984"/><path d="M1245,543.8984 L1307,543.8984 L1307,549.8984 L1297,559.8984 L1245,559.8984 L1245,543.8984 " fill="#EEEEEE" style="stroke:#000000;stroke-width:2.0;"/><text fill="#000000" font-family="sans-serif" font-size="13" font-weight="bold" lengthAdjust="spacing" textLength="17" x="1258" y="557.667">ref</text><text fill="#000000" font-family="sans-serif" font-size="12" lengthAdjust="spacing" textLength="119" x="1266.5" y="574.7617">get property types List</text><polygon fill="#181818" points="881,603.3516,871,607.3516,881,611.3516,877,607.3516" style="stroke:#181818;stroke-width:1.0;"/><line style="stroke:#181818;stroke-width:1.0;stroke-dasharray:2.0,2.0;" x1="875" x2="1325" y1="607.3516" y2="607.3516"/><text fill="#000000" font-family="sans-serif" font-size="13" font-weight="bold" lengthAdjust="spacing" textLength="7" x="887" y="602.5967">9</text><text fill="#000000" font-family="sans-serif" font-size="13" lengthAdjust="spacing" textLength="98" x="898" y="602.5967">PropertyTypeList</text><polygon fill="#181818" points="96,631.875,86,635.875,96,639.875,92,635.875" style="stroke:#181818;stroke-width:1.0;"/><line style="stroke:#181818;stroke-width:1.0;stroke-dasharray:2.0,2.0;" x1="90" x2="864" y1="635.875" y2="635.875"/><text fill="#000000" font-family="sans-serif" font-size="13" font-weight="bold" lengthAdjust="spacing" textLength="14" x="102" y="631.1201">10</text><text fill="#000000" font-family="sans-serif" font-size="13" lengthAdjust="spacing" textLength="309" x="120" y="631.1201">show filters of type of property and asks to select one</text><polygon fill="#181818" points="848,660.3984,858,664.3984,848,668.3984,852,664.3984" style="stroke:#181818;stroke-width:1.0;"/><line style="stroke:#181818;stroke-width:1.0;" x1="85" x2="854" y1="664.3984" y2="664.3984"/><text fill="#000000" font-family="sans-serif" font-size="13" font-weight="bold" lengthAdjust="spacing" textLength="14" x="92" y="659.6436">11</text><text fill="#000000" font-family="sans-serif" font-size="13" lengthAdjust="spacing" textLength="92" x="110" y="659.6436">select an option</text><line style="stroke:#181818;stroke-width:1.0;stroke-dasharray:2.0,2.0;" x1="870" x2="912" y1="692.9219" y2="692.9219"/><line style="stroke:#181818;stroke-width:1.0;stroke-dasharray:2.0,2.0;" x1="912" x2="912" y1="692.9219" y2="705.9219"/><line style="stroke:#181818;stroke-width:1.0;stroke-dasharray:2.0,2.0;" x1="871" x2="912" y1="705.9219" y2="705.9219"/><polygon fill="#181818" points="881,701.9219,871,705.9219,881,709.9219,877,705.9219" style="stroke:#181818;stroke-width:1.0;"/><text fill="#000000" font-family="sans-serif" font-size="13" font-weight="bold" lengthAdjust="spacing" textLength="14" x="877" y="688.167">12</text><text fill="#000000" font-family="sans-serif" font-size="13" lengthAdjust="spacing" textLength="108" x="895" y="688.167">add(propertyType))</text><polygon fill="#181818" points="96,730.4453,86,734.4453,96,738.4453,92,734.4453" style="stroke:#181818;stroke-width:1.0;"/><line style="stroke:#181818;stroke-width:1.0;stroke-dasharray:2.0,2.0;" x1="90" x2="864" y1="734.4453" y2="734.4453"/><text fill="#000000" font-family="sans-serif" font-size="13" font-weight="bold" lengthAdjust="spacing" textLength="14" x="102" y="729.6904">13</text><text fill="#000000" font-family="sans-serif" font-size="13" lengthAdjust="spacing" textLength="165" x="120" y="729.6904">request number of bedrooms</text><polygon fill="#181818" points="848,758.9688,858,762.9688,848,766.9688,852,762.9688" style="stroke:#181818;stroke-width:1.0;"/><line style="stroke:#181818;stroke-width:1.0;" x1="85" x2="854" y1="762.9688" y2="762.9688"/><text fill="#000000" font-family="sans-serif" font-size="13" font-weight="bold" lengthAdjust="spacing" textLength="14" x="92" y="758.2139">14</text><text fill="#000000" font-family="sans-serif" font-size="13" lengthAdjust="spacing" textLength="157" x="110" y="758.2139">select number of bedrooms</text><line style="stroke:#181818;stroke-width:1.0;stroke-dasharray:2.0,2.0;" x1="870" x2="912" y1="791.4922" y2="791.4922"/><line style="stroke:#181818;stroke-width:1.0;stroke-dasharray:2.0,2.0;" x1="912" x2="912" y1="791.4922" y2="804.4922"/><line style="stroke:#181818;stroke-width:1.0;stroke-dasharray:2.0,2.0;" x1="871" x2="912" y1="804.4922" y2="804.4922"/><polygon fill="#181818" points="881,800.4922,871,804.4922,881,808.4922,877,804.4922" style="stroke:#181818;stroke-width:1.0;"/><text fill="#000000" font-family="sans-serif" font-size="13" font-weight="bold" lengthAdjust="spacing" textLength="14" x="877" y="786.7373">15</text><text fill="#000000" font-family="sans-serif" font-size="13" lengthAdjust="spacing" textLength="95" x="895" y="786.7373">add(bedroomNo)</text><path d="M10,819.4922 L75,819.4922 L75,826.0156 L65,836.0156 L10,836.0156 L10,819.4922 " fill="#EEEEEE" style="stroke:#000000;stroke-width:1.5;"/><rect fill="none" height="956.1406" style="stroke:#000000;stroke-width:1.5;" width="1404" x="10" y="819.4922"/><text fill="#000000" font-family="sans-serif" font-size="13" font-weight="bold" lengthAdjust="spacing" textLength="20" x="25" y="832.2607">opt</text><text fill="#000000" font-family="sans-serif" font-size="11" font-weight="bold" lengthAdjust="spacing" textLength="347" x="90" y="831.4502">[Type of business, property and number of bedrooms are null]</text><polygon fill="#181818" points="1309,852.5391,1319,856.5391,1309,860.5391,1313,856.5391" style="stroke:#181818;stroke-width:1.0;"/><line style="stroke:#181818;stroke-width:1.0;" x1="870" x2="1315" y1="856.5391" y2="856.5391"/><text fill="#000000" font-family="sans-serif" font-size="13" font-weight="bold" lengthAdjust="spacing" textLength="14" x="877" y="851.7842">16</text><text fill="#000000" font-family="sans-serif" font-size="13" lengthAdjust="spacing" textLength="135" x="895" y="851.7842">getAllPropertiesOnSale</text><rect fill="none" height="37.9297" style="stroke:#000000;stroke-width:1.5;" width="162" x="1245" y="864.5391"/><path d="M1245,864.5391 L1307,864.5391 L1307,870.5391 L1297,880.5391 L1245,880.5391 L1245,864.5391 " fill="#EEEEEE" style="stroke:#000000;stroke-width:2.0;"/><text fill="#000000" font-family="sans-serif" font-size="13" font-weight="bold" lengthAdjust="spacing" textLength="17" x="1258" y="878.3076">ref</text><text fill="#000000" font-family="sans-serif" font-size="12" lengthAdjust="spacing" textLength="118" x="1267" y="895.4023">get PropertiesOnSale</text><polygon fill="#181818" points="881,923.9922,871,927.9922,881,931.9922,877,927.9922" style="stroke:#181818;stroke-width:1.0;"/><line style="stroke:#181818;stroke-width:1.0;stroke-dasharray:2.0,2.0;" x1="875" x2="1325" y1="927.9922" y2="927.9922"/><text fill="#000000" font-family="sans-serif" font-size="13" font-weight="bold" lengthAdjust="spacing" textLength="14" x="887" y="923.2373">17</text><text fill="#000000" font-family="sans-serif" font-size="13" lengthAdjust="spacing" textLength="102" x="905" y="923.2373">PropertiesOnSale</text><polygon fill="#181818" points="96,952.5156,86,956.5156,96,960.5156,92,956.5156" style="stroke:#181818;stroke-width:1.0;"/><line style="stroke:#181818;stroke-width:1.0;stroke-dasharray:2.0,2.0;" x1="90" x2="864" y1="956.5156" y2="956.5156"/><text fill="#000000" font-family="sans-serif" font-size="13" font-weight="bold" lengthAdjust="spacing" textLength="14" x="102" y="951.7607">18</text><text fill="#000000" font-family="sans-serif" font-size="13" lengthAdjust="spacing" textLength="441" x="120" y="951.7607">show list of all properties that are on sale and asks to filter by property filters</text><polygon fill="#181818" points="848,981.0391,858,985.0391,848,989.0391,852,985.0391" style="stroke:#181818;stroke-width:1.0;"/><line style="stroke:#181818;stroke-width:1.0;" x1="85" x2="854" y1="985.0391" y2="985.0391"/><text fill="#000000" font-family="sans-serif" font-size="13" font-weight="bold" lengthAdjust="spacing" textLength="14" x="92" y="980.2842">19</text><text fill="#000000" font-family="sans-serif" font-size="13" lengthAdjust="spacing" textLength="42" x="110" y="980.2842">confirm</text><polygon fill="#181818" points="1309,1009.5625,1319,1013.5625,1309,1017.5625,1313,1013.5625" style="stroke:#181818;stroke-width:1.0;"/><line style="stroke:#181818;stroke-width:1.0;" x1="870" x2="1315" y1="1013.5625" y2="1013.5625"/><text fill="#000000" font-family="sans-serif" font-size="13" font-weight="bold" lengthAdjust="spacing" textLength="14" x="877" y="1008.8076">20</text><text fill="#000000" font-family="sans-serif" font-size="13" lengthAdjust="spacing" textLength="115" x="895" y="1008.8076">getPropertyFilters ()</text><rect fill="none" height="37.9297" style="stroke:#000000;stroke-width:1.5;" width="162" x="1245" y="1021.5625"/><path d="M1245,1021.5625 L1307,1021.5625 L1307,1027.5625 L1297,1037.5625 L1245,1037.5625 L1245,1021.5625 " fill="#EEEEEE" style="stroke:#000000;stroke-width:2.0;"/><text fill="#000000" font-family="sans-serif" font-size="13" font-weight="bold" lengthAdjust="spacing" textLength="17" x="1258" y="1035.3311">ref</text><text fill="#000000" font-family="sans-serif" font-size="12" lengthAdjust="spacing" textLength="131" x="1260.5" y="1052.4258">get ListOfPropertyFilters</text><polygon fill="#181818" points="881,1081.0156,871,1085.0156,881,1089.0156,877,1085.0156" style="stroke:#181818;stroke-width:1.0;"/><line style="stroke:#181818;stroke-width:1.0;stroke-dasharray:2.0,2.0;" x1="875" x2="1325" y1="1085.0156" y2="1085.0156"/><text fill="#000000" font-family="sans-serif" font-size="13" font-weight="bold" lengthAdjust="spacing" textLength="14" x="887" y="1080.2607">21</text><text fill="#000000" font-family="sans-serif" font-size="13" lengthAdjust="spacing" textLength="119" x="905" y="1080.2607">ListOfPropertyFilters</text><polygon fill="#181818" points="96,1109.5391,86,1113.5391,96,1117.5391,92,1113.5391" style="stroke:#181818;stroke-width:1.0;"/><line style="stroke:#181818;stroke-width:1.0;stroke-dasharray:2.0,2.0;" x1="90" x2="864" y1="1113.5391" y2="1113.5391"/><text fill="#000000" font-family="sans-serif" font-size="13" font-weight="bold" lengthAdjust="spacing" textLength="14" x="102" y="1108.7842">22</text><text fill="#000000" font-family="sans-serif" font-size="13" lengthAdjust="spacing" textLength="151" x="120" y="1108.7842">show list of property filters</text><polygon fill="#181818" points="848,1138.0625,858,1142.0625,848,1146.0625,852,1142.0625" style="stroke:#181818;stroke-width:1.0;"/><line style="stroke:#181818;stroke-width:1.0;" x1="85" x2="854" y1="1142.0625" y2="1142.0625"/><text fill="#000000" font-family="sans-serif" font-size="13" font-weight="bold" lengthAdjust="spacing" textLength="14" x="92" y="1137.3076">23</text><text fill="#000000" font-family="sans-serif" font-size="13" lengthAdjust="spacing" textLength="74" x="110" y="1137.3076">select a filter</text><line style="stroke:#181818;stroke-width:1.0;stroke-dasharray:2.0,2.0;" x1="870" x2="912" y1="1170.5859" y2="1170.5859"/><line style="stroke:#181818;stroke-width:1.0;stroke-dasharray:2.0,2.0;" x1="912" x2="912" y1="1170.5859" y2="1183.5859"/><line style="stroke:#181818;stroke-width:1.0;stroke-dasharray:2.0,2.0;" x1="871" x2="912" y1="1183.5859" y2="1183.5859"/><polygon fill="#181818" points="881,1179.5859,871,1183.5859,881,1187.5859,877,1183.5859" style="stroke:#181818;stroke-width:1.0;"/><text fill="#000000" font-family="sans-serif" font-size="13" font-weight="bold" lengthAdjust="spacing" textLength="14" x="877" y="1165.8311">24</text><text fill="#000000" font-family="sans-serif" font-size="13" lengthAdjust="spacing" textLength="107" x="895" y="1165.8311">add(choosenFilter)</text><polygon fill="#181818" points="1309,1208.1094,1319,1212.1094,1309,1216.1094,1313,1212.1094" style="stroke:#181818;stroke-width:1.0;"/><line style="stroke:#181818;stroke-width:1.0;stroke-dasharray:2.0,2.0;" x1="870" x2="1315" y1="1212.1094" y2="1212.1094"/><text fill="#000000" font-family="sans-serif" font-size="13" font-weight="bold" lengthAdjust="spacing" textLength="14" x="877" y="1207.3545">25</text><text fill="#000000" font-family="sans-serif" font-size="13" lengthAdjust="spacing" textLength="414" x="895" y="1207.3545">getPropertyList (requestType, propertyType, bedroomNo, choosenFilter)</text><rect fill="none" height="37.9297" style="stroke:#000000;stroke-width:1.5;" width="162" x="1245" y="1220.1094"/><path d="M1245,1220.1094 L1307,1220.1094 L1307,1226.1094 L1297,1236.1094 L1245,1236.1094 L1245,1220.1094 " fill="#EEEEEE" style="stroke:#000000;stroke-width:2.0;"/><text fill="#000000" font-family="sans-serif" font-size="13" font-weight="bold" lengthAdjust="spacing" textLength="17" x="1258" y="1233.8779">ref</text><text fill="#000000" font-family="sans-serif" font-size="12" lengthAdjust="spacing" textLength="109" x="1271.5" y="1250.9727">get ListOfProperties</text><polygon fill="#181818" points="881,1279.5625,871,1283.5625,881,1287.5625,877,1283.5625" style="stroke:#181818;stroke-width:1.0;"/><line style="stroke:#181818;stroke-width:1.0;" x1="875" x2="1325" y1="1283.5625" y2="1283.5625"/><text fill="#000000" font-family="sans-serif" font-size="13" font-weight="bold" lengthAdjust="spacing" textLength="14" x="887" y="1278.8076">26</text><text fill="#000000" font-family="sans-serif" font-size="13" lengthAdjust="spacing" textLength="93" x="905" y="1278.8076">ListOfProperties</text><polygon fill="#181818" points="1309,1308.0859,1319,1312.0859,1309,1316.0859,1313,1312.0859" style="stroke:#181818;stroke-width:1.0;"/><line style="stroke:#181818;stroke-width:1.0;" x1="870" x2="1315" y1="1312.0859" y2="1312.0859"/><text fill="#000000" font-family="sans-serif" font-size="13" font-weight="bold" lengthAdjust="spacing" textLength="14" x="877" y="1307.3311">27</text><text fill="#000000" font-family="sans-serif" font-size="13" lengthAdjust="spacing" textLength="144" x="895" y="1307.3311">getAllPropertiesOnRent()</text><rect fill="none" height="37.9297" style="stroke:#000000;stroke-width:1.5;" width="162" x="1245" y="1320.0859"/><path d="M1245,1320.0859 L1307,1320.0859 L1307,1326.0859 L1297,1336.0859 L1245,1336.0859 L1245,1320.0859 " fill="#EEEEEE" style="stroke:#000000;stroke-width:2.0;"/><text fill="#000000" font-family="sans-serif" font-size="13" font-weight="bold" lengthAdjust="spacing" textLength="17" x="1258" y="1333.8545">ref</text><text fill="#000000" font-family="sans-serif" font-size="12" lengthAdjust="spacing" textLength="119" x="1266.5" y="1350.9492">get PropertiesOnRent</text><polygon fill="#181818" points="881,1379.5391,871,1383.5391,881,1387.5391,877,1383.5391" style="stroke:#181818;stroke-width:1.0;"/><line style="stroke:#181818;stroke-width:1.0;stroke-dasharray:2.0,2.0;" x1="875" x2="1325" y1="1383.5391" y2="1383.5391"/><text fill="#000000" font-family="sans-serif" font-size="13" font-weight="bold" lengthAdjust="spacing" textLength="14" x="887" y="1378.7842">28</text><text fill="#000000" font-family="sans-serif" font-size="13" lengthAdjust="spacing" textLength="103" x="905" y="1378.7842">PropertiesOnRent</text><polygon fill="#181818" points="96,1408.0625,86,1412.0625,96,1416.0625,92,1412.0625" style="stroke:#181818;stroke-width:1.0;"/><line style="stroke:#181818;stroke-width:1.0;stroke-dasharray:2.0,2.0;" x1="90" x2="864" y1="1412.0625" y2="1412.0625"/><text fill="#000000" font-family="sans-serif" font-size="13" font-weight="bold" lengthAdjust="spacing" textLength="14" x="102" y="1407.3076">29</text><text fill="#000000" font-family="sans-serif" font-size="13" lengthAdjust="spacing" textLength="733" x="120" y="1407.3076">shows list of properties according to the filters and show list of all properties that are on rent and asks to filter by property filters</text><polygon fill="#181818" points="848,1436.5859,858,1440.5859,848,1444.5859,852,1440.5859" style="stroke:#181818;stroke-width:1.0;"/><line style="stroke:#181818;stroke-width:1.0;" x1="85" x2="854" y1="1440.5859" y2="1440.5859"/><text fill="#000000" font-family="sans-serif" font-size="13" font-weight="bold" lengthAdjust="spacing" textLength="14" x="92" y="1435.8311">30</text><text fill="#000000" font-family="sans-serif" font-size="13" lengthAdjust="spacing" textLength="42" x="110" y="1435.8311">confirm</text><polygon fill="#181818" points="1309,1465.1094,1319,1469.1094,1309,1473.1094,1313,1469.1094" style="stroke:#181818;stroke-width:1.0;"/><line style="stroke:#181818;stroke-width:1.0;" x1="870" x2="1315" y1="1469.1094" y2="1469.1094"/><text fill="#000000" font-family="sans-serif" font-size="13" font-weight="bold" lengthAdjust="spacing" textLength="14" x="877" y="1464.3545">31</text><text fill="#000000" font-family="sans-serif" font-size="13" lengthAdjust="spacing" textLength="115" x="895" y="1464.3545">getPropertyFilters ()</text><rect fill="none" height="37.9297" style="stroke:#000000;stroke-width:1.5;" width="162" x="1245" y="1477.1094"/><path d="M1245,1477.1094 L1307,1477.1094 L1307,1483.1094 L1297,1493.1094 L1245,1493.1094 L1245,1477.1094 " fill="#EEEEEE" style="stroke:#000000;stroke-width:2.0;"/><text fill="#000000" font-family="sans-serif" font-size="13" font-weight="bold" lengthAdjust="spacing" textLength="17" x="1258" y="1490.8779">ref</text><text fill="#000000" font-family="sans-serif" font-size="12" lengthAdjust="spacing" textLength="131" x="1260.5" y="1507.9727">get ListOfPropertyFilters</text><polygon fill="#181818" points="881,1536.5625,871,1540.5625,881,1544.5625,877,1540.5625" style="stroke:#181818;stroke-width:1.0;"/><line style="stroke:#181818;stroke-width:1.0;stroke-dasharray:2.0,2.0;" x1="875" x2="1325" y1="1540.5625" y2="1540.5625"/><text fill="#000000" font-family="sans-serif" font-size="13" font-weight="bold" lengthAdjust="spacing" textLength="14" x="887" y="1535.8076">33</text><text fill="#000000" font-family="sans-serif" font-size="13" lengthAdjust="spacing" textLength="119" x="905" y="1535.8076">ListOfPropertyFilters</text><polygon fill="#181818" points="96,1565.0859,86,1569.0859,96,1573.0859,92,1569.0859" style="stroke:#181818;stroke-width:1.0;"/><line style="stroke:#181818;stroke-width:1.0;stroke-dasharray:2.0,2.0;" x1="90" x2="864" y1="1569.0859" y2="1569.0859"/><text fill="#000000" font-family="sans-serif" font-size="13" font-weight="bold" lengthAdjust="spacing" textLength="14" x="102" y="1564.3311">34</text><text fill="#000000" font-family="sans-serif" font-size="13" lengthAdjust="spacing" textLength="151" x="120" y="1564.3311">show list of property filters</text><polygon fill="#181818" points="848,1593.6094,858,1597.6094,848,1601.6094,852,1597.6094" style="stroke:#181818;stroke-width:1.0;"/><line style="stroke:#181818;stroke-width:1.0;" x1="85" x2="854" y1="1597.6094" y2="1597.6094"/><text fill="#000000" font-family="sans-serif" font-size="13" font-weight="bold" lengthAdjust="spacing" textLength="14" x="92" y="1592.8545">35</text><text fill="#000000" font-family="sans-serif" font-size="13" lengthAdjust="spacing" textLength="74" x="110" y="1592.8545">select a filter</text><line style="stroke:#181818;stroke-width:1.0;stroke-dasharray:2.0,2.0;" x1="870" x2="912" y1="1626.1328" y2="1626.1328"/><line style="stroke:#181818;stroke-width:1.0;stroke-dasharray:2.0,2.0;" x1="912" x2="912" y1="1626.1328" y2="1639.1328"/><line style="stroke:#181818;stroke-width:1.0;stroke-dasharray:2.0,2.0;" x1="871" x2="912" y1="1639.1328" y2="1639.1328"/><polygon fill="#181818" points="881,1635.1328,871,1639.1328,881,1643.1328,877,1639.1328" style="stroke:#181818;stroke-width:1.0;"/><text fill="#000000" font-family="sans-serif" font-size="13" font-weight="bold" lengthAdjust="spacing" textLength="14" x="877" y="1621.3779">36</text><text fill="#000000" font-family="sans-serif" font-size="13" lengthAdjust="spacing" textLength="107" x="895" y="1621.3779">add(choosenFilter)</text><polygon fill="#181818" points="1309,1663.6563,1319,1667.6563,1309,1671.6563,1313,1667.6563" style="stroke:#181818;stroke-width:1.0;"/><line style="stroke:#181818;stroke-width:1.0;stroke-dasharray:2.0,2.0;" x1="870" x2="1315" y1="1667.6563" y2="1667.6563"/><text fill="#000000" font-family="sans-serif" font-size="13" font-weight="bold" lengthAdjust="spacing" textLength="14" x="877" y="1662.9014">37</text><text fill="#000000" font-family="sans-serif" font-size="13" lengthAdjust="spacing" textLength="414" x="895" y="1662.9014">getPropertyList (requestType, propertyType, bedroomNo, choosenFilter)</text><rect fill="none" height="37.9297" style="stroke:#000000;stroke-width:1.5;" width="162" x="1245" y="1675.6563"/><path d="M1245,1675.6563 L1307,1675.6563 L1307,1681.6563 L1297,1691.6563 L1245,1691.6563 L1245,1675.6563 " fill="#EEEEEE" style="stroke:#000000;stroke-width:2.0;"/><text fill="#000000" font-family="sans-serif" font-size="13" font-weight="bold" lengthAdjust="spacing" textLength="17" x="1258" y="1689.4248">ref</text><text fill="#000000" font-family="sans-serif" font-size="12" lengthAdjust="spacing" textLength="109" x="1271.5" y="1706.5195">get ListOfProperties</text><polygon fill="#181818" points="881,1735.1094,871,1739.1094,881,1743.1094,877,1739.1094" style="stroke:#181818;stroke-width:1.0;"/><line style="stroke:#181818;stroke-width:1.0;" x1="875" x2="1325" y1="1739.1094" y2="1739.1094"/><text fill="#000000" font-family="sans-serif" font-size="13" font-weight="bold" lengthAdjust="spacing" textLength="14" x="887" y="1734.3545">38</text><text fill="#000000" font-family="sans-serif" font-size="13" lengthAdjust="spacing" textLength="93" x="905" y="1734.3545">ListOfProperties</text><polygon fill="#181818" points="96,1763.6328,86,1767.6328,96,1771.6328,92,1767.6328" style="stroke:#181818;stroke-width:1.0;"/><line style="stroke:#181818;stroke-width:1.0;stroke-dasharray:2.0,2.0;" x1="90" x2="864" y1="1767.6328" y2="1767.6328"/><text fill="#000000" font-family="sans-serif" font-size="13" font-weight="bold" lengthAdjust="spacing" textLength="14" x="102" y="1762.8779">39</text><text fill="#000000" font-family="sans-serif" font-size="13" lengthAdjust="spacing" textLength="133" x="120" y="1762.8779">shows list of properties</text><polygon fill="#181818" points="1309,1799.1563,1319,1803.1563,1309,1807.1563,1313,1803.1563" style="stroke:#181818;stroke-width:1.0;"/><line style="stroke:#181818;stroke-width:1.0;" x1="870" x2="1315" y1="1803.1563" y2="1803.1563"/><text fill="#000000" font-family="sans-serif" font-size="13" font-weight="bold" lengthAdjust="spacing" textLength="14" x="877" y="1798.4014">40</text><text fill="#000000" font-family="sans-serif" font-size="13" lengthAdjust="spacing" textLength="115" x="895" y="1798.4014">getPropertyFilters ()</text><rect fill="none" height="37.9297" style="stroke:#000000;stroke-width:1.5;" width="162" x="1245" y="1811.1563"/><path d="M1245,1811.1563 L1307,1811.1563 L1307,1817.1563 L1297,1827.1563 L1245,1827.1563 L1245,1811.1563 " fill="#EEEEEE" style="stroke:#000000;stroke-width:2.0;"/><text fill="#000000" font-family="sans-serif" font-size="13" font-weight="bold" lengthAdjust="spacing" textLength="17" x="1258" y="1824.9248">ref</text><text fill="#000000" font-family="sans-serif" font-size="12" lengthAdjust="spacing" textLength="131" x="1260.5" y="1842.0195">get ListOfPropertyFilters</text><polygon fill="#181818" points="881,1870.6094,871,1874.6094,881,1878.6094,877,1874.6094" style="stroke:#181818;stroke-width:1.0;"/><line style="stroke:#181818;stroke-width:1.0;stroke-dasharray:2.0,2.0;" x1="875" x2="1325" y1="1874.6094" y2="1874.6094"/><text fill="#000000" font-family="sans-serif" font-size="13" font-weight="bold" lengthAdjust="spacing" textLength="14" x="887" y="1869.8545">17</text><text fill="#000000" font-family="sans-serif" font-size="13" lengthAdjust="spacing" textLength="119" x="905" y="1869.8545">ListOfPropertyFilters</text><polygon fill="#181818" points="96,1899.1328,86,1903.1328,96,1907.1328,92,1903.1328" style="stroke:#181818;stroke-width:1.0;"/><line style="stroke:#181818;stroke-width:1.0;stroke-dasharray:2.0,2.0;" x1="90" x2="864" y1="1903.1328" y2="1903.1328"/><text fill="#000000" font-family="sans-serif" font-size="13" font-weight="bold" lengthAdjust="spacing" textLength="14" x="102" y="1898.3779">18</text><text fill="#000000" font-family="sans-serif" font-size="13" lengthAdjust="spacing" textLength="287" x="120" y="1898.3779">show list of property filters and asks to select one</text><polygon fill="#181818" points="848,1927.6563,858,1931.6563,848,1935.6563,852,1931.6563" style="stroke:#181818;stroke-width:1.0;"/><line style="stroke:#181818;stroke-width:1.0;" x1="85" x2="854" y1="1931.6563" y2="1931.6563"/><text fill="#000000" font-family="sans-serif" font-size="13" font-weight="bold" lengthAdjust="spacing" textLength="14" x="92" y="1926.9014">19</text><text fill="#000000" font-family="sans-serif" font-size="13" lengthAdjust="spacing" textLength="92" x="110" y="1926.9014">select an option</text><line style="stroke:#181818;stroke-width:1.0;stroke-dasharray:2.0,2.0;" x1="870" x2="912" y1="1960.1797" y2="1960.1797"/><line style="stroke:#181818;stroke-width:1.0;stroke-dasharray:2.0,2.0;" x1="912" x2="912" y1="1960.1797" y2="1973.1797"/><line style="stroke:#181818;stroke-width:1.0;stroke-dasharray:2.0,2.0;" x1="871" x2="912" y1="1973.1797" y2="1973.1797"/><polygon fill="#181818" points="881,1969.1797,871,1973.1797,881,1977.1797,877,1973.1797" style="stroke:#181818;stroke-width:1.0;"/><text fill="#000000" font-family="sans-serif" font-size="13" font-weight="bold" lengthAdjust="spacing" textLength="14" x="877" y="1955.4248">20</text><text fill="#000000" font-family="sans-serif" font-size="13" lengthAdjust="spacing" textLength="107" x="895" y="1955.4248">add(choosenFilter)</text><polygon fill="#181818" points="1309,1997.7031,1319,2001.7031,1309,2005.7031,1313,2001.7031" style="stroke:#181818;stroke-width:1.0;"/><line style="stroke:#181818;stroke-width:1.0;stroke-dasharray:2.0,2.0;" x1="870" x2="1315" y1="2001.7031" y2="2001.7031"/><text fill="#000000" font-family="sans-serif" font-size="13" font-weight="bold" lengthAdjust="spacing" textLength="14" x="877" y="1996.9482">21</text><text fill="#000000" font-family="sans-serif" font-size="13" lengthAdjust="spacing" textLength="414" x="895" y="1996.9482">getPropertyList (requestType, propertyType, bedroomNo, choosenFilter)</text><rect fill="none" height="37.9297" style="stroke:#000000;stroke-width:1.5;" width="162" x="1245" y="2009.7031"/><path d="M1245,2009.7031 L1307,2009.7031 L1307,2015.7031 L1297,2025.7031 L1245,2025.7031 L1245,2009.7031 " fill="#EEEEEE" style="stroke:#000000;stroke-width:2.0;"/><text fill="#000000" font-family="sans-serif" font-size="13" font-weight="bold" lengthAdjust="spacing" textLength="17" x="1258" y="2023.4717">ref</text><text fill="#000000" font-family="sans-serif" font-size="12" lengthAdjust="spacing" textLength="109" x="1271.5" y="2040.5664">get ListOfProperties</text><polygon fill="#181818" points="881,2069.1563,871,2073.1563,881,2077.1563,877,2073.1563" style="stroke:#181818;stroke-width:1.0;"/><line style="stroke:#181818;stroke-width:1.0;" x1="875" x2="1325" y1="2073.1563" y2="2073.1563"/><text fill="#000000" font-family="sans-serif" font-size="13" font-weight="bold" lengthAdjust="spacing" textLength="14" x="887" y="2068.4014">22</text><text fill="#000000" font-family="sans-serif" font-size="13" lengthAdjust="spacing" textLength="93" x="905" y="2068.4014">ListOfProperties</text><polygon fill="#181818" points="91,2097.6797,81,2101.6797,91,2105.6797,87,2101.6797" style="stroke:#181818;stroke-width:1.0;"/><line style="stroke:#181818;stroke-width:1.0;stroke-dasharray:2.0,2.0;" x1="85" x2="864" y1="2101.6797" y2="2101.6797"/><text fill="#000000" font-family="sans-serif" font-size="13" font-weight="bold" lengthAdjust="spacing" textLength="14" x="97" y="2096.9248">23</text><text fill="#000000" font-family="sans-serif" font-size="13" lengthAdjust="spacing" textLength="133" x="115" y="2096.9248">shows list of properties</text><!--SRC=[nLZRJjmm47tFLunuALHSHAdQYWSaYjGA2PKAo0TuazdT2CTERIze_xxsvkOupcrtWNrXrundJkQScN7yQQbK9Y_FpZ9Ac5gbz3JYwPd4Voja4Px42La8aWQ1V4vOHlHNI3dZqLBm54695Lh_oKZqJ1RugDOKGM2a25jGsq0kISnV4xQ0EQ4IWu2i56UhT8OY897Y0Wv29d2HI8K2OmWbYWCW4i8mq1vK4YMPHWa7bpS2YSA_WcUebr7UwItXRMvxwzWMLcjZSyEP4fpImk_DqyDT49ZOoOlsP-84e3zX22TNsXDSQgjd2Og3H0IgFG2VGrR5pSth_RV5_bkpttZ__5dxoD7-HjK4N8DnT-azYyfw0_pd-fenljASfCZKuP56lTdJ29y_JhaiS0xy1KM-NAvgloN-TVv0ipKGotTbYIoklXiN9oTNcunadR0gynWxC9b7D9aDjH-vvA-Ub09v8GabCwqXmk8g__E4gZ9HJWYTzNAr-W9Mp9hCYBDv8bAY4ivgfw2MERSUDltCF9ZwaEffdQ6ceeS3g1KENq_Fw_LkWYgMPYkPC9JwwNKOCDbkscX-Z8lceXtFraYBHL4_GjDrYxiUzlByIKFW1gJ-Mw6soPD8TJi0ph2Bm0PGYx5Y9s70CyDQmywdW0RGJG77yQ7ri9lAQJoHh-GiPllO7M3HBJUJ8pcMIPSm6rhRXSjQozKOxYgW7TmDKESixvLIbz7CoiRHKOT62zgXA0YZJem5vwdin3m0kiVJ5FJ5vZ-ywkCw5G1FJWqTDnbf1mSYK2zJ6lZejeLzJMazVExP8w4Oj3RrIwXVwANOMr5QLgNQs-7htdN-FV3LGft5mJ2T8sXm515AxN6abaHjygn7XYJUgMH6QCLKKLTzWDnsvHrIFVIu_RAla_qgojpgPhxFGBAcwS3LX6bNztC7KV_EJf5q2ERBUQzbKppJyMolfltfekoRrL5eG27T8Cis52qvbyZo11m5dKF3VoG5UwpMhIh_LNMuOnYCyY4oD8Vt_IhmsmW5-WGuXAHz88E9tVuXVsKOd_Zzvjs5CYxlCBwU9mKOEYcvbIozxoXHn4LitcJr432l3-LfoWo7iTD4QAZlDatwMWNiUPXiMT5RYsptSJDLV_uMS74nUjUk0saNHR_3R9gYjibJwKCdrExQtbxSMqonoHEjIze_9afxcqctqudBrwS7RelC3TU8om1Fr_CUnIVTmurhLcupyhyYJMacMr_DhHipRlpjmDlU0tILxflsXTs9jhNfSZokVhgQ_Wvb4TW_mo3u3m00]--></g></svg>