<?xml version="1.0" encoding="us-ascii" standalone="no"?><svg xmlns="http://www.w3.org/2000/svg" xmlns:xlink="http://www.w3.org/1999/xlink" contentStyleType="text/css" height="452px" preserveAspectRatio="none" style="width:974px;height:452px;background:#FFFFFF;" version="1.1" viewBox="0 0 974 452" width="974px" zoomAndPan="magnify"><defs/><g><rect fill="#FFFFFF" height="302.2344" style="stroke:#181818;stroke-width:1.0;" width="10" x="293" y="81.8047"/><rect fill="#FFFFFF" height="28.5234" style="stroke:#181818;stroke-width:1.0;" width="10" x="429.5" y="110.3281"/><rect fill="#FFFFFF" height="28.5234" style="stroke:#181818;stroke-width:1.0;" width="10" x="536.5" y="167.375"/><rect fill="#FFFFFF" height="131.0938" style="stroke:#181818;stroke-width:1.0;" width="10" x="769" y="224.4219"/><rect fill="none" height="88.5703" style="stroke:#000000;stroke-width:1.5;" width="388" x="580" y="239.4219"/><rect fill="none" height="58.0469" style="stroke:#000000;stroke-width:1.5;" width="368" x="590" y="262.9453"/><line style="stroke:#181818;stroke-width:0.5;stroke-dasharray:5.0,5.0;" x1="298" x2="298" y1="51.2813" y2="402.0391"/><line style="stroke:#181818;stroke-width:0.5;stroke-dasharray:5.0,5.0;" x1="434" x2="434" y1="51.2813" y2="402.0391"/><line style="stroke:#181818;stroke-width:0.5;stroke-dasharray:5.0,5.0;" x1="541" x2="541" y1="51.2813" y2="402.0391"/><line style="stroke:#181818;stroke-width:0.5;stroke-dasharray:5.0,5.0;" x1="774" x2="774" y1="51.2813" y2="402.0391"/><rect fill="#E3E3E3" height="29.6406" rx="2.5" ry="2.5" style="stroke:#181818;stroke-width:0.5;" width="156" x="220" y="20.6406"/><text fill="#000000" font-family="sans-serif" font-size="14" lengthAdjust="spacing" textLength="142" x="227" y="40.3145">:PropertyListController</text><rect fill="#E3E3E3" height="29.6406" rx="2.5" ry="2.5" style="stroke:#181818;stroke-width:0.5;" width="156" x="220" y="401.0391"/><text fill="#000000" font-family="sans-serif" font-size="14" lengthAdjust="spacing" textLength="142" x="227" y="420.7129">:PropertyListController</text><rect fill="#E3E3E3" height="29.6406" rx="2.5" ry="2.5" style="stroke:#181818;stroke-width:0.5;" width="97" x="386" y="20.6406"/><text fill="#000000" font-family="sans-serif" font-size="14" lengthAdjust="spacing" textLength="83" x="393" y="40.3145">:Repositories</text><rect fill="#E3E3E3" height="29.6406" rx="2.5" ry="2.5" style="stroke:#181818;stroke-width:0.5;" width="97" x="386" y="401.0391"/><text fill="#000000" font-family="sans-serif" font-size="14" lengthAdjust="spacing" textLength="83" x="393" y="420.7129">:Repositories</text><rect fill="#E3E3E3" height="45.2813" rx="2.5" ry="2.5" style="stroke:#181818;stroke-width:0.5;" width="97" x="493" y="5"/><text fill="#000000" font-family="sans-serif" font-size="14" lengthAdjust="spacing" textLength="79" x="502" y="24.6738">Repositories</text><text fill="#000000" font-family="sans-serif" font-size="14" lengthAdjust="spacing" textLength="83" x="500" y="40.3145">:Repositories</text><rect fill="#E3E3E3" height="45.2813" rx="2.5" ry="2.5" style="stroke:#181818;stroke-width:0.5;" width="97" x="493" y="401.0391"/><text fill="#000000" font-family="sans-serif" font-size="14" lengthAdjust="spacing" textLength="79" x="502" y="420.7129">Repositories</text><text fill="#000000" font-family="sans-serif" font-size="14" lengthAdjust="spacing" textLength="83" x="500" y="436.3535">:Repositories</text><rect fill="#E3E3E3" height="29.6406" rx="2.5" ry="2.5" style="stroke:#181818;stroke-width:0.5;" width="348" x="600" y="20.6406"/><text fill="#000000" font-family="sans-serif" font-size="14" lengthAdjust="spacing" textLength="334" x="607" y="40.3145">AnnouncementRepository:\AnnouncementRepository</text><rect fill="#E3E3E3" height="29.6406" rx="2.5" ry="2.5" style="stroke:#181818;stroke-width:0.5;" width="348" x="600" y="401.0391"/><text fill="#000000" font-family="sans-serif" font-size="14" lengthAdjust="spacing" textLength="334" x="607" y="420.7129">AnnouncementRepository:\AnnouncementRepository</text><rect fill="#FFFFFF" height="302.2344" style="stroke:#181818;stroke-width:1.0;" width="10" x="293" y="81.8047"/><rect fill="#FFFFFF" height="28.5234" style="stroke:#181818;stroke-width:1.0;" width="10" x="429.5" y="110.3281"/><rect fill="#FFFFFF" height="28.5234" style="stroke:#181818;stroke-width:1.0;" width="10" x="536.5" y="167.375"/><rect fill="#FFFFFF" height="131.0938" style="stroke:#181818;stroke-width:1.0;" width="10" x="769" y="224.4219"/><polygon fill="#181818" points="281,77.8047,291,81.8047,281,85.8047,285,81.8047" style="stroke:#181818;stroke-width:1.0;"/><line style="stroke:#181818;stroke-width:1.0;" x1="0" x2="287" y1="81.8047" y2="81.8047"/><text fill="#000000" font-family="sans-serif" font-size="13" font-weight="bold" lengthAdjust="spacing" textLength="7" x="7" y="77.0498">1</text><text fill="#000000" font-family="sans-serif" font-size="13" lengthAdjust="spacing" textLength="263" x="18" y="77.0498">getPropertiesByBusinessType(businessType)</text><polygon fill="#181818" points="417.5,106.3281,427.5,110.3281,417.5,114.3281,421.5,110.3281" style="stroke:#181818;stroke-width:1.0;"/><line style="stroke:#181818;stroke-width:1.0;" x1="303" x2="423.5" y1="110.3281" y2="110.3281"/><text fill="#000000" font-family="sans-serif" font-size="13" font-weight="bold" lengthAdjust="spacing" textLength="7" x="310" y="105.5732">2</text><text fill="#000000" font-family="sans-serif" font-size="13" lengthAdjust="spacing" textLength="75" x="321" y="105.5732">getInstance()</text><polygon fill="#181818" points="314,134.8516,304,138.8516,314,142.8516,310,138.8516" style="stroke:#181818;stroke-width:1.0;"/><line style="stroke:#181818;stroke-width:1.0;stroke-dasharray:2.0,2.0;" x1="308" x2="433.5" y1="138.8516" y2="138.8516"/><text fill="#000000" font-family="sans-serif" font-size="13" font-weight="bold" lengthAdjust="spacing" textLength="7" x="320" y="134.0967">3</text><text fill="#000000" font-family="sans-serif" font-size="13" lengthAdjust="spacing" textLength="67" x="331" y="134.0967">repositories</text><polygon fill="#181818" points="524.5,163.375,534.5,167.375,524.5,171.375,528.5,167.375" style="stroke:#181818;stroke-width:1.0;"/><line style="stroke:#181818;stroke-width:1.0;" x1="303" x2="530.5" y1="167.375" y2="167.375"/><text fill="#000000" font-family="sans-serif" font-size="13" font-weight="bold" lengthAdjust="spacing" textLength="7" x="310" y="162.6201">4</text><text fill="#000000" font-family="sans-serif" font-size="13" lengthAdjust="spacing" textLength="175" x="321" y="162.6201">getAnnouncementRepository()</text><polygon fill="#181818" points="314,191.8984,304,195.8984,314,199.8984,310,195.8984" style="stroke:#181818;stroke-width:1.0;"/><line style="stroke:#181818;stroke-width:1.0;" x1="308" x2="540.5" y1="195.8984" y2="195.8984"/><text fill="#000000" font-family="sans-serif" font-size="13" font-weight="bold" lengthAdjust="spacing" textLength="7" x="320" y="191.1436">5</text><text fill="#000000" font-family="sans-serif" font-size="13" lengthAdjust="spacing" textLength="149" x="331" y="191.1436">AnnouncementRepository</text><polygon fill="#181818" points="757,220.4219,767,224.4219,757,228.4219,761,224.4219" style="stroke:#181818;stroke-width:1.0;"/><line style="stroke:#181818;stroke-width:1.0;" x1="303" x2="763" y1="224.4219" y2="224.4219"/><text fill="#000000" font-family="sans-serif" font-size="13" font-weight="bold" lengthAdjust="spacing" textLength="7" x="310" y="219.667">6</text><text fill="#000000" font-family="sans-serif" font-size="13" lengthAdjust="spacing" textLength="316" x="321" y="219.667">getAllPropertiesByBusinessType(String businessType)</text><path d="M580,239.4219 L653,239.4219 L653,245.9453 L643,255.9453 L580,255.9453 L580,239.4219 " fill="#EEEEEE" style="stroke:#000000;stroke-width:1.5;"/><rect fill="none" height="88.5703" style="stroke:#000000;stroke-width:1.5;" width="388" x="580" y="239.4219"/><text fill="#000000" font-family="sans-serif" font-size="13" font-weight="bold" lengthAdjust="spacing" textLength="28" x="595" y="252.1904">loop</text><text fill="#000000" font-family="sans-serif" font-size="11" font-weight="bold" lengthAdjust="spacing" textLength="120" x="668" y="251.3799">[each announcement]</text><path d="M590,262.9453 L651,262.9453 L651,269.4688 L641,279.4688 L590,279.4688 L590,262.9453 " fill="#EEEEEE" style="stroke:#000000;stroke-width:1.5;"/><rect fill="none" height="58.0469" style="stroke:#000000;stroke-width:1.5;" width="368" x="590" y="262.9453"/><text fill="#000000" font-family="sans-serif" font-size="13" font-weight="bold" lengthAdjust="spacing" textLength="16" x="605" y="275.7139">alt</text><text fill="#000000" font-family="sans-serif" font-size="11" font-weight="bold" lengthAdjust="spacing" textLength="261" x="666" y="274.9033">[announcementBusinessType = businessType]</text><line style="stroke:#181818;stroke-width:1.0;stroke-dasharray:2.0,2.0;" x1="779" x2="821" y1="299.9922" y2="299.9922"/><line style="stroke:#181818;stroke-width:1.0;stroke-dasharray:2.0,2.0;" x1="821" x2="821" y1="299.9922" y2="312.9922"/><line style="stroke:#181818;stroke-width:1.0;stroke-dasharray:2.0,2.0;" x1="780" x2="821" y1="312.9922" y2="312.9922"/><polygon fill="#181818" points="790,308.9922,780,312.9922,790,316.9922,786,312.9922" style="stroke:#181818;stroke-width:1.0;"/><text fill="#000000" font-family="sans-serif" font-size="13" font-weight="bold" lengthAdjust="spacing" textLength="7" x="786" y="295.2373">7</text><text fill="#000000" font-family="sans-serif" font-size="13" lengthAdjust="spacing" textLength="114" x="797" y="295.2373">add(announcement)</text><polygon fill="#181818" points="314,351.5156,304,355.5156,314,359.5156,310,355.5156" style="stroke:#181818;stroke-width:1.0;"/><line style="stroke:#181818;stroke-width:1.0;stroke-dasharray:2.0,2.0;" x1="308" x2="773" y1="355.5156" y2="355.5156"/><text fill="#000000" font-family="sans-serif" font-size="13" font-weight="bold" lengthAdjust="spacing" textLength="7" x="320" y="350.7607">8</text><text fill="#000000" font-family="sans-serif" font-size="13" lengthAdjust="spacing" textLength="103" x="331" y="350.7607">PropertiesOnRent</text><polygon fill="#181818" points="11,380.0391,1,384.0391,11,388.0391,7,384.0391" style="stroke:#181818;stroke-width:1.0;"/><line style="stroke:#181818;stroke-width:1.0;stroke-dasharray:2.0,2.0;" x1="5" x2="297" y1="384.0391" y2="384.0391"/><text fill="#000000" font-family="sans-serif" font-size="13" font-weight="bold" lengthAdjust="spacing" textLength="7" x="17" y="379.2842">9</text><text fill="#000000" font-family="sans-serif" font-size="13" lengthAdjust="spacing" textLength="103" x="28" y="379.2842">PropertiesOnRent</text><!--SRC=[bLCxRyCW4Dxv5IXBay6Dkbfj9ITJfKYDd8nP2BxQA1Wed5lvtnS_KXl7aLec0tVVVG_yK20Q5w_NHZA5LIaVkIxN3ZuhK1oYJB3Sif8GTn7ACFz9IwqqBwmkWQAjO7HZ6B-m70vOIw0ME3ALot61ArYcluNAwGUJ3WXX5MfLbMUmz8du6XHS6C-3BkAzrGOirZlXSAiLMYqbs0LbZcwFwMvIdOBHJg2s0bnRytjG7qJ3miy9MyOT9tKBiDybnx0ZKKfNtfGI50xmyMd-l0L9Ka88fT5hovd6D0ViXVavctfJEQ70kMDjO7aURLPDsx0OH_7543hf_M5GqUBxEJEwkx5lolayE2nNGTy0FUTOMDgiEVoernVxq0SNmzuC_Z7eAgR9e6C_x_5TBMruj-HRl26CUT2xl3lGMTUJjASfvTru3sYRb_-NbFspeNCXIwqDzOGAoaRKGmo9mUMO0dq9fWTzNa5q5SAoR3d625q6bKttBJ4oPTj3zcOFlhohTCfwv7BpozmgVuwY_m8rvJy0]--></g></svg>