<?xml version="1.0" encoding="us-ascii" standalone="no"?><svg xmlns="http://www.w3.org/2000/svg" xmlns:xlink="http://www.w3.org/1999/xlink" contentStyleType="text/css" height="456px" preserveAspectRatio="none" style="width:1268px;height:456px;background:#FFFFFF;" version="1.1" viewBox="0 0 1268 456" width="1268px" zoomAndPan="magnify"><defs/><g><rect fill="#FFFFFF" height="306.2344" style="stroke:#181818;stroke-width:1.0;" width="10" x="451" y="81.8047"/><rect fill="#FFFFFF" height="28.5234" style="stroke:#181818;stroke-width:1.0;" width="10" x="587.5" y="133.8516"/><rect fill="#FFFFFF" height="28.5234" style="stroke:#181818;stroke-width:1.0;" width="10" x="694.5" y="190.8984"/><rect fill="#FFFFFF" height="111.5703" style="stroke:#181818;stroke-width:1.0;" width="10" x="905" y="247.9453"/><line style="stroke:#181818;stroke-width:0.5;stroke-dasharray:5.0,5.0;" x1="456" x2="456" y1="51.2813" y2="406.0391"/><line style="stroke:#181818;stroke-width:0.5;stroke-dasharray:5.0,5.0;" x1="592" x2="592" y1="51.2813" y2="406.0391"/><line style="stroke:#181818;stroke-width:0.5;stroke-dasharray:5.0,5.0;" x1="699" x2="699" y1="51.2813" y2="406.0391"/><line style="stroke:#181818;stroke-width:0.5;stroke-dasharray:5.0,5.0;" x1="910" x2="910" y1="51.2813" y2="406.0391"/><rect fill="#E3E3E3" height="29.6406" rx="2.5" ry="2.5" style="stroke:#181818;stroke-width:0.5;" width="156" x="378" y="20.6406"/><text fill="#000000" font-family="sans-serif" font-size="14" lengthAdjust="spacing" textLength="142" x="385" y="40.3145">:PropertyListController</text><rect fill="#E3E3E3" height="29.6406" rx="2.5" ry="2.5" style="stroke:#181818;stroke-width:0.5;" width="156" x="378" y="405.0391"/><text fill="#000000" font-family="sans-serif" font-size="14" lengthAdjust="spacing" textLength="142" x="385" y="424.7129">:PropertyListController</text><rect fill="#E3E3E3" height="29.6406" rx="2.5" ry="2.5" style="stroke:#181818;stroke-width:0.5;" width="97" x="544" y="20.6406"/><text fill="#000000" font-family="sans-serif" font-size="14" lengthAdjust="spacing" textLength="83" x="551" y="40.3145">:Repositories</text><rect fill="#E3E3E3" height="29.6406" rx="2.5" ry="2.5" style="stroke:#181818;stroke-width:0.5;" width="97" x="544" y="405.0391"/><text fill="#000000" font-family="sans-serif" font-size="14" lengthAdjust="spacing" textLength="83" x="551" y="424.7129">:Repositories</text><rect fill="#E3E3E3" height="45.2813" rx="2.5" ry="2.5" style="stroke:#181818;stroke-width:0.5;" width="97" x="651" y="5"/><text fill="#000000" font-family="sans-serif" font-size="14" lengthAdjust="spacing" textLength="79" x="660" y="24.6738">Repositories</text><text fill="#000000" font-family="sans-serif" font-size="14" lengthAdjust="spacing" textLength="83" x="658" y="40.3145">:Repositories</text><rect fill="#E3E3E3" height="45.2813" rx="2.5" ry="2.5" style="stroke:#181818;stroke-width:0.5;" width="97" x="651" y="405.0391"/><text fill="#000000" font-family="sans-serif" font-size="14" lengthAdjust="spacing" textLength="79" x="660" y="424.7129">Repositories</text><text fill="#000000" font-family="sans-serif" font-size="14" lengthAdjust="spacing" textLength="83" x="658" y="440.3535">:Repositories</text><rect fill="#E3E3E3" height="29.6406" rx="2.5" ry="2.5" style="stroke:#181818;stroke-width:0.5;" width="266" x="777" y="20.6406"/><text fill="#000000" font-family="sans-serif" font-size="14" lengthAdjust="spacing" textLength="252" x="784" y="40.3145">PropertyRepository:\PropertyRepository</text><rect fill="#E3E3E3" height="29.6406" rx="2.5" ry="2.5" style="stroke:#181818;stroke-width:0.5;" width="266" x="777" y="405.0391"/><text fill="#000000" font-family="sans-serif" font-size="14" lengthAdjust="spacing" textLength="252" x="784" y="424.7129">PropertyRepository:\PropertyRepository</text><rect fill="#FFFFFF" height="306.2344" style="stroke:#181818;stroke-width:1.0;" width="10" x="451" y="81.8047"/><rect fill="#FFFFFF" height="28.5234" style="stroke:#181818;stroke-width:1.0;" width="10" x="587.5" y="133.8516"/><rect fill="#FFFFFF" height="28.5234" style="stroke:#181818;stroke-width:1.0;" width="10" x="694.5" y="190.8984"/><rect fill="#FFFFFF" height="111.5703" style="stroke:#181818;stroke-width:1.0;" width="10" x="905" y="247.9453"/><polygon fill="#181818" points="439,77.8047,449,81.8047,439,85.8047,443,81.8047" style="stroke:#181818;stroke-width:1.0;"/><line style="stroke:#181818;stroke-width:1.0;" x1="0" x2="445" y1="81.8047" y2="81.8047"/><text fill="#000000" font-family="sans-serif" font-size="13" font-weight="bold" lengthAdjust="spacing" textLength="7" x="7" y="77.0498">1</text><text fill="#000000" font-family="sans-serif" font-size="13" lengthAdjust="spacing" textLength="414" x="18" y="77.0498">getPropertyList (requestType, propertyType, bedroomNo, choosenFilter)</text><polygon fill="#181818" points="575.5,129.8516,585.5,133.8516,575.5,137.8516,579.5,133.8516" style="stroke:#181818;stroke-width:1.0;"/><line style="stroke:#181818;stroke-width:1.0;" x1="461" x2="581.5" y1="133.8516" y2="133.8516"/><text fill="#000000" font-family="sans-serif" font-size="13" font-weight="bold" lengthAdjust="spacing" textLength="7" x="468" y="129.0967">2</text><text fill="#000000" font-family="sans-serif" font-size="13" lengthAdjust="spacing" textLength="75" x="479" y="129.0967">getInstance()</text><polygon fill="#181818" points="472,158.375,462,162.375,472,166.375,468,162.375" style="stroke:#181818;stroke-width:1.0;"/><line style="stroke:#181818;stroke-width:1.0;stroke-dasharray:2.0,2.0;" x1="466" x2="591.5" y1="162.375" y2="162.375"/><text fill="#000000" font-family="sans-serif" font-size="13" font-weight="bold" lengthAdjust="spacing" textLength="7" x="478" y="157.6201">3</text><text fill="#000000" font-family="sans-serif" font-size="13" lengthAdjust="spacing" textLength="67" x="489" y="157.6201">repositories</text><polygon fill="#181818" points="682.5,186.8984,692.5,190.8984,682.5,194.8984,686.5,190.8984" style="stroke:#181818;stroke-width:1.0;"/><line style="stroke:#181818;stroke-width:1.0;" x1="461" x2="688.5" y1="190.8984" y2="190.8984"/><text fill="#000000" font-family="sans-serif" font-size="13" font-weight="bold" lengthAdjust="spacing" textLength="7" x="468" y="186.1436">4</text><text fill="#000000" font-family="sans-serif" font-size="13" lengthAdjust="spacing" textLength="137" x="479" y="186.1436">getPropertyRepository()</text><polygon fill="#181818" points="472,215.4219,462,219.4219,472,223.4219,468,219.4219" style="stroke:#181818;stroke-width:1.0;"/><line style="stroke:#181818;stroke-width:1.0;stroke-dasharray:2.0,2.0;" x1="466" x2="698.5" y1="219.4219" y2="219.4219"/><text fill="#000000" font-family="sans-serif" font-size="13" font-weight="bold" lengthAdjust="spacing" textLength="7" x="478" y="214.667">5</text><text fill="#000000" font-family="sans-serif" font-size="13" lengthAdjust="spacing" textLength="111" x="489" y="214.667">PropertyRepository</text><polygon fill="#181818" points="893,243.9453,903,247.9453,893,251.9453,897,247.9453" style="stroke:#181818;stroke-width:1.0;"/><line style="stroke:#181818;stroke-width:1.0;" x1="461" x2="899" y1="247.9453" y2="247.9453"/><text fill="#000000" font-family="sans-serif" font-size="13" font-weight="bold" lengthAdjust="spacing" textLength="7" x="468" y="243.1904">6</text><text fill="#000000" font-family="sans-serif" font-size="13" lengthAdjust="spacing" textLength="414" x="479" y="243.1904">getPropertyList (requestType, propertyType, bedroomNo, choosenFilter)</text><line style="stroke:#181818;stroke-width:1.0;stroke-dasharray:2.0,2.0;" x1="915" x2="957" y1="276.4688" y2="276.4688"/><line style="stroke:#181818;stroke-width:1.0;stroke-dasharray:2.0,2.0;" x1="957" x2="957" y1="276.4688" y2="289.4688"/><line style="stroke:#181818;stroke-width:1.0;stroke-dasharray:2.0,2.0;" x1="916" x2="957" y1="289.4688" y2="289.4688"/><polygon fill="#181818" points="926,285.4688,916,289.4688,926,293.4688,922,289.4688" style="stroke:#181818;stroke-width:1.0;"/><text fill="#000000" font-family="sans-serif" font-size="13" font-weight="bold" lengthAdjust="spacing" textLength="7" x="922" y="271.7139">7</text><text fill="#000000" font-family="sans-serif" font-size="13" lengthAdjust="spacing" textLength="328" x="933" y="271.7139">getPropertyList (requestType, propertyType, bedroomNo)</text><line style="stroke:#181818;stroke-width:1.0;stroke-dasharray:2.0,2.0;" x1="915" x2="957" y1="317.9922" y2="317.9922"/><line style="stroke:#181818;stroke-width:1.0;stroke-dasharray:2.0,2.0;" x1="957" x2="957" y1="317.9922" y2="330.9922"/><line style="stroke:#181818;stroke-width:1.0;stroke-dasharray:2.0,2.0;" x1="916" x2="957" y1="330.9922" y2="330.9922"/><polygon fill="#181818" points="926,326.9922,916,330.9922,926,334.9922,922,330.9922" style="stroke:#181818;stroke-width:1.0;"/><text fill="#000000" font-family="sans-serif" font-size="13" font-weight="bold" lengthAdjust="spacing" textLength="7" x="922" y="313.2373">8</text><text fill="#000000" font-family="sans-serif" font-size="13" lengthAdjust="spacing" textLength="182" x="933" y="313.2373">sortPropertyList (choosenFilter)</text><polygon fill="#181818" points="472,355.5156,462,359.5156,472,363.5156,468,359.5156" style="stroke:#181818;stroke-width:1.0;"/><line style="stroke:#181818;stroke-width:1.0;stroke-dasharray:2.0,2.0;" x1="466" x2="909" y1="359.5156" y2="359.5156"/><text fill="#000000" font-family="sans-serif" font-size="13" font-weight="bold" lengthAdjust="spacing" textLength="7" x="478" y="354.7607">9</text><text fill="#000000" font-family="sans-serif" font-size="13" lengthAdjust="spacing" textLength="93" x="489" y="354.7607">ListOfProperties</text><polygon fill="#181818" points="11,384.0391,1,388.0391,11,392.0391,7,388.0391" style="stroke:#181818;stroke-width:1.0;"/><line style="stroke:#181818;stroke-width:1.0;stroke-dasharray:2.0,2.0;" x1="5" x2="455" y1="388.0391" y2="388.0391"/><text fill="#000000" font-family="sans-serif" font-size="13" font-weight="bold" lengthAdjust="spacing" textLength="14" x="17" y="383.2842">10</text><text fill="#000000" font-family="sans-serif" font-size="13" lengthAdjust="spacing" textLength="93" x="35" y="383.2842">ListOfProperties</text><!--SRC=[hPBDQiCm48JlUWgHInE86terfL02XK9eWvDZBegyiKLihIgjM_BsbUN4VqdfeTN9NktCVXhfBYSoBbuiJ24qLMLnBx5SEFYeG4k8KYKoAqh6t55f8_mdBr6Zp2sMmCbMqDinGXv51Xiw5S0jI18wA_eDBXSfVYcTyOCe730cAa9TbNkm_84ntqHAAkD1-2HUMpHWwRHIZfQeoM9HW9rmuVXocwn6tGaOT8hGAd2XfosSDgh6y8E6ahvYfwyDrgldxL1n8UgiuzrrhH4dZB7eAP3oc6T0_UFmgQq3ThGz6PXpSzvg_lQGMiJo3UTSveWEz8ig2EpCnoL9VGg29W3kLsQnChKzhttV3-Sf_Wmix3S07kH670tNgtR-dYHCPq7GZhYLNsFfrostw7pSs5zz5sMGfF2xxGMqZdsOM2VnZ4F8S4SjLP1s6DVwCKmdRwSd_tPRGz24yL3n0w8_pPbTsJYq8v_nk-afpW_ozclfHvE4ocCK_IZfTTSjtm00]--></g></svg>