<?xml version="1.0" encoding="us-ascii" standalone="no"?><svg xmlns="http://www.w3.org/2000/svg" xmlns:xlink="http://www.w3.org/1999/xlink" contentStyleType="text/css" height="1220px" preserveAspectRatio="none" style="width:1538px;height:1220px;background:#FFFFFF;" version="1.1" viewBox="0 0 1538 1220" width="1538px" zoomAndPan="magnify"><defs/><g><rect fill="#FFFFFF" height="1031.3906" style="stroke:#181818;stroke-width:1.0;" width="10" x="58" y="90.6406"/><rect fill="#FFFFFF" height="441.4453" style="stroke:#181818;stroke-width:1.0;" width="10" x="536" y="111.1641"/><rect fill="#FFFFFF" height="111.5703" style="stroke:#181818;stroke-width:1.0;" width="10" x="536" y="581.1328"/><rect fill="#FFFFFF" height="400.8047" style="stroke:#181818;stroke-width:1.0;" width="10" x="536" y="721.2266"/><rect fill="#FFFFFF" height="343.7578" style="stroke:#181818;stroke-width:1.0;" width="10" x="830" y="180.3281"/><rect fill="#FFFFFF" height="85.5703" style="stroke:#181818;stroke-width:1.0;" width="10" x="830" y="814.7969"/><rect fill="#FFFFFF" height="85.5703" style="stroke:#181818;stroke-width:1.0;" width="10" x="830" y="959.4141"/><rect fill="#FFFFFF" height="28.5234" style="stroke:#181818;stroke-width:1.0;" width="10" x="954" y="208.8516"/><rect fill="#FFFFFF" height="28.5234" style="stroke:#181818;stroke-width:1.0;" width="10" x="1061" y="265.8984"/><rect fill="#FFFFFF" height="172.6172" style="stroke:#181818;stroke-width:1.0;" width="10" x="1210.5" y="322.9453"/><rect fill="#FFFFFF" height="28.5234" style="stroke:#181818;stroke-width:1.0;" width="10" x="1365.5" y="843.3203"/><rect fill="#FFFFFF" height="28.5234" style="stroke:#181818;stroke-width:1.0;" width="10" x="1468.5" y="987.9375"/><rect fill="none" height="88.5703" style="stroke:#000000;stroke-width:1.5;" width="284" x="1104.5" y="379.4688"/><rect fill="none" height="58.0469" style="stroke:#000000;stroke-width:1.5;" width="264" x="1114.5" y="402.9922"/><rect fill="none" height="130.6172" style="stroke:#000000;stroke-width:1.5;" width="945.5" x="479" y="777.75"/><rect fill="none" height="130.6172" style="stroke:#000000;stroke-width:1.5;" width="1053.5" x="479" y="922.3672"/><line style="stroke:#181818;stroke-width:0.5;stroke-dasharray:5.0,5.0;" x1="63" x2="63" y1="80.6406" y2="1140.0313"/><line style="stroke:#181818;stroke-width:0.5;stroke-dasharray:5.0,5.0;" x1="541" x2="541" y1="80.6406" y2="1140.0313"/><line style="stroke:#181818;stroke-width:0.5;stroke-dasharray:5.0,5.0;" x1="834.5" x2="834.5" y1="149.4844" y2="1140.0313"/><line style="stroke:#181818;stroke-width:0.5;stroke-dasharray:5.0,5.0;" x1="958.5" x2="958.5" y1="80.6406" y2="1140.0313"/><line style="stroke:#181818;stroke-width:0.5;stroke-dasharray:5.0,5.0;" x1="1065.5" x2="1065.5" y1="80.6406" y2="1140.0313"/><line style="stroke:#181818;stroke-width:0.5;stroke-dasharray:5.0,5.0;" x1="1215.5" x2="1215.5" y1="80.6406" y2="1140.0313"/><line style="stroke:#181818;stroke-width:0.5;stroke-dasharray:5.0,5.0;" x1="1370.5" x2="1370.5" y1="80.6406" y2="1140.0313"/><line style="stroke:#181818;stroke-width:0.5;stroke-dasharray:5.0,5.0;" x1="1473.5" x2="1473.5" y1="80.6406" y2="1140.0313"/><text fill="#000000" font-family="sans-serif" font-size="14" lengthAdjust="spacing" textLength="110" x="5" y="77.6738">Network Manager</text><ellipse cx="63" cy="13.5" fill="#E3E3E3" rx="8" ry="8" style="stroke:#181818;stroke-width:0.5;"/><path d="M63,21.5 L63,48.5 M50,29.5 L76,29.5 M63,48.5 L50,63.5 M63,48.5 L76,63.5 " fill="none" style="stroke:#181818;stroke-width:0.5;"/><text fill="#000000" font-family="sans-serif" font-size="14" lengthAdjust="spacing" textLength="110" x="5" y="1151.7051">Network Manager</text><ellipse cx="63" cy="1163.1719" fill="#E3E3E3" rx="8" ry="8" style="stroke:#181818;stroke-width:0.5;"/><path d="M63,1171.1719 L63,1198.1719 M50,1179.1719 L76,1179.1719 M63,1198.1719 L50,1213.1719 M63,1198.1719 L76,1213.1719 " fill="none" style="stroke:#181818;stroke-width:0.5;"/><rect fill="#E3E3E3" height="29.6406" rx="2.5" ry="2.5" style="stroke:#181818;stroke-width:0.5;" width="104" x="489" y="50"/><text fill="#000000" font-family="sans-serif" font-size="14" lengthAdjust="spacing" textLength="90" x="496" y="69.6738">:GetDealListUI</text><rect fill="#E3E3E3" height="29.6406" rx="2.5" ry="2.5" style="stroke:#181818;stroke-width:0.5;" width="104" x="489" y="1139.0313"/><text fill="#000000" font-family="sans-serif" font-size="14" lengthAdjust="spacing" textLength="90" x="496" y="1158.7051">:GetDealListUI</text><rect fill="#E3E3E3" height="29.6406" rx="2.5" ry="2.5" style="stroke:#181818;stroke-width:0.5;" width="131" x="769.5" y="1139.0313"/><text fill="#000000" font-family="sans-serif" font-size="14" lengthAdjust="spacing" textLength="117" x="776.5" y="1158.7051">:DealListController</text><rect fill="#E3E3E3" height="29.6406" rx="2.5" ry="2.5" style="stroke:#181818;stroke-width:0.5;" width="97" x="910.5" y="50"/><text fill="#000000" font-family="sans-serif" font-size="14" lengthAdjust="spacing" textLength="83" x="917.5" y="69.6738">:Repositories</text><rect fill="#E3E3E3" height="29.6406" rx="2.5" ry="2.5" style="stroke:#181818;stroke-width:0.5;" width="97" x="910.5" y="1139.0313"/><text fill="#000000" font-family="sans-serif" font-size="14" lengthAdjust="spacing" textLength="83" x="917.5" y="1158.7051">:Repositories</text><rect fill="#E3E3E3" height="45.2813" rx="2.5" ry="2.5" style="stroke:#181818;stroke-width:0.5;" width="97" x="1017.5" y="34.3594"/><text fill="#000000" font-family="sans-serif" font-size="14" lengthAdjust="spacing" textLength="74" x="1029" y="54.0332">repositories</text><text fill="#000000" font-family="sans-serif" font-size="14" lengthAdjust="spacing" textLength="83" x="1024.5" y="69.6738">:Repositories</text><rect fill="#E3E3E3" height="45.2813" rx="2.5" ry="2.5" style="stroke:#181818;stroke-width:0.5;" width="97" x="1017.5" y="1139.0313"/><text fill="#000000" font-family="sans-serif" font-size="14" lengthAdjust="spacing" textLength="74" x="1029" y="1158.7051">repositories</text><text fill="#000000" font-family="sans-serif" font-size="14" lengthAdjust="spacing" textLength="83" x="1024.5" y="1174.3457">:Repositories</text><rect fill="#E3E3E3" height="45.2813" rx="2.5" ry="2.5" style="stroke:#181818;stroke-width:0.5;" width="182" x="1124.5" y="34.3594"/><text fill="#000000" font-family="sans-serif" font-size="14" lengthAdjust="spacing" textLength="168" x="1131.5" y="54.0332">purchaseOrderRepository:</text><text fill="#000000" font-family="sans-serif" font-size="14" lengthAdjust="spacing" textLength="165" x="1133" y="69.6738">PurchaseOrderRepository</text><rect fill="#E3E3E3" height="45.2813" rx="2.5" ry="2.5" style="stroke:#181818;stroke-width:0.5;" width="182" x="1124.5" y="1139.0313"/><text fill="#000000" font-family="sans-serif" font-size="14" lengthAdjust="spacing" textLength="168" x="1131.5" y="1158.7051">purchaseOrderRepository:</text><text fill="#000000" font-family="sans-serif" font-size="14" lengthAdjust="spacing" textLength="165" x="1133" y="1174.3457">PurchaseOrderRepository</text><rect fill="#E3E3E3" height="29.6406" rx="2.5" ry="2.5" style="stroke:#181818;stroke-width:0.5;" width="88" x="1326.5" y="50"/><text fill="#000000" font-family="sans-serif" font-size="14" lengthAdjust="spacing" textLength="74" x="1333.5" y="69.6738">:BubbleSort</text><rect fill="#E3E3E3" height="29.6406" rx="2.5" ry="2.5" style="stroke:#181818;stroke-width:0.5;" width="88" x="1326.5" y="1139.0313"/><text fill="#000000" font-family="sans-serif" font-size="14" lengthAdjust="spacing" textLength="74" x="1333.5" y="1158.7051">:BubbleSort</text><rect fill="#E3E3E3" height="29.6406" rx="2.5" ry="2.5" style="stroke:#181818;stroke-width:0.5;" width="98" x="1424.5" y="50"/><text fill="#000000" font-family="sans-serif" font-size="14" lengthAdjust="spacing" textLength="84" x="1431.5" y="69.6738">:InsertionSort</text><rect fill="#E3E3E3" height="29.6406" rx="2.5" ry="2.5" style="stroke:#181818;stroke-width:0.5;" width="98" x="1424.5" y="1139.0313"/><text fill="#000000" font-family="sans-serif" font-size="14" lengthAdjust="spacing" textLength="84" x="1431.5" y="1158.7051">:InsertionSort</text><rect fill="#FFFFFF" height="1031.3906" style="stroke:#181818;stroke-width:1.0;" width="10" x="58" y="90.6406"/><rect fill="#FFFFFF" height="441.4453" style="stroke:#181818;stroke-width:1.0;" width="10" x="536" y="111.1641"/><rect fill="#FFFFFF" height="111.5703" style="stroke:#181818;stroke-width:1.0;" width="10" x="536" y="581.1328"/><rect fill="#FFFFFF" height="400.8047" style="stroke:#181818;stroke-width:1.0;" width="10" x="536" y="721.2266"/><rect fill="#FFFFFF" height="343.7578" style="stroke:#181818;stroke-width:1.0;" width="10" x="830" y="180.3281"/><rect fill="#FFFFFF" height="85.5703" style="stroke:#181818;stroke-width:1.0;" width="10" x="830" y="814.7969"/><rect fill="#FFFFFF" height="85.5703" style="stroke:#181818;stroke-width:1.0;" width="10" x="830" y="959.4141"/><rect fill="#FFFFFF" height="28.5234" style="stroke:#181818;stroke-width:1.0;" width="10" x="954" y="208.8516"/><rect fill="#FFFFFF" height="28.5234" style="stroke:#181818;stroke-width:1.0;" width="10" x="1061" y="265.8984"/><rect fill="#FFFFFF" height="172.6172" style="stroke:#181818;stroke-width:1.0;" width="10" x="1210.5" y="322.9453"/><rect fill="#FFFFFF" height="28.5234" style="stroke:#181818;stroke-width:1.0;" width="10" x="1365.5" y="843.3203"/><rect fill="#FFFFFF" height="28.5234" style="stroke:#181818;stroke-width:1.0;" width="10" x="1468.5" y="987.9375"/><polygon fill="#181818" points="524,107.1641,534,111.1641,524,115.1641,528,111.1641" style="stroke:#181818;stroke-width:1.0;"/><line style="stroke:#181818;stroke-width:1.0;" x1="68" x2="530" y1="111.1641" y2="111.1641"/><text fill="#000000" font-family="sans-serif" font-size="13" font-weight="bold" lengthAdjust="spacing" textLength="7" x="75" y="106.4092">1</text><text fill="#000000" font-family="sans-serif" font-size="13" lengthAdjust="spacing" textLength="145" x="86" y="106.4092">aks to list all deals made</text><polygon fill="#181818" points="757.5,135.6875,767.5,139.6875,757.5,143.6875,761.5,139.6875" style="stroke:#181818;stroke-width:1.0;"/><line style="stroke:#181818;stroke-width:1.0;" x1="546" x2="763.5" y1="139.6875" y2="139.6875"/><text fill="#000000" font-family="sans-serif" font-size="13" font-weight="bold" lengthAdjust="spacing" textLength="7" x="553" y="134.9326">2</text><text fill="#000000" font-family="sans-serif" font-size="13" lengthAdjust="spacing" textLength="174" x="564" y="134.9326">createGetDealsListController()</text><rect fill="#E3E3E3" height="29.6406" rx="2.5" ry="2.5" style="stroke:#181818;stroke-width:0.5;" width="131" x="769.5" y="119.1641"/><text fill="#000000" font-family="sans-serif" font-size="14" lengthAdjust="spacing" textLength="117" x="776.5" y="138.8379">:DealListController</text><polygon fill="#181818" points="818,176.3281,828,180.3281,818,184.3281,822,180.3281" style="stroke:#181818;stroke-width:1.0;"/><line style="stroke:#181818;stroke-width:1.0;" x1="546" x2="824" y1="180.3281" y2="180.3281"/><text fill="#000000" font-family="sans-serif" font-size="13" font-weight="bold" lengthAdjust="spacing" textLength="7" x="553" y="175.5732">3</text><text fill="#000000" font-family="sans-serif" font-size="13" lengthAdjust="spacing" textLength="51" x="564" y="175.5732">getDeals</text><polygon fill="#181818" points="942,204.8516,952,208.8516,942,212.8516,946,208.8516" style="stroke:#181818;stroke-width:1.0;"/><line style="stroke:#181818;stroke-width:1.0;" x1="840" x2="948" y1="208.8516" y2="208.8516"/><text fill="#000000" font-family="sans-serif" font-size="13" font-weight="bold" lengthAdjust="spacing" textLength="7" x="847" y="204.0967">4</text><text fill="#000000" font-family="sans-serif" font-size="13" lengthAdjust="spacing" textLength="75" x="858" y="204.0967">getInstance()</text><polygon fill="#181818" points="851,233.375,841,237.375,851,241.375,847,237.375" style="stroke:#181818;stroke-width:1.0;"/><line style="stroke:#181818;stroke-width:1.0;stroke-dasharray:2.0,2.0;" x1="845" x2="958" y1="237.375" y2="237.375"/><text fill="#000000" font-family="sans-serif" font-size="13" font-weight="bold" lengthAdjust="spacing" textLength="7" x="857" y="232.6201">5</text><text fill="#000000" font-family="sans-serif" font-size="13" lengthAdjust="spacing" textLength="67" x="868" y="232.6201">repositories</text><polygon fill="#181818" points="1049,261.8984,1059,265.8984,1049,269.8984,1053,265.8984" style="stroke:#181818;stroke-width:1.0;"/><line style="stroke:#181818;stroke-width:1.0;" x1="840" x2="1055" y1="265.8984" y2="265.8984"/><text fill="#000000" font-family="sans-serif" font-size="13" font-weight="bold" lengthAdjust="spacing" textLength="7" x="847" y="261.1436">6</text><text fill="#000000" font-family="sans-serif" font-size="13" lengthAdjust="spacing" textLength="175" x="858" y="261.1436">getPurchaseOrderRepository()</text><polygon fill="#181818" points="851,290.4219,841,294.4219,851,298.4219,847,294.4219" style="stroke:#181818;stroke-width:1.0;"/><line style="stroke:#181818;stroke-width:1.0;stroke-dasharray:2.0,2.0;" x1="845" x2="1065" y1="294.4219" y2="294.4219"/><text fill="#000000" font-family="sans-serif" font-size="13" font-weight="bold" lengthAdjust="spacing" textLength="7" x="857" y="289.667">7</text><text fill="#000000" font-family="sans-serif" font-size="13" lengthAdjust="spacing" textLength="149" x="868" y="289.667">PurchaseOrderRepository</text><polygon fill="#181818" points="1198.5,318.9453,1208.5,322.9453,1198.5,326.9453,1202.5,322.9453" style="stroke:#181818;stroke-width:1.0;"/><line style="stroke:#181818;stroke-width:1.0;" x1="840" x2="1204.5" y1="322.9453" y2="322.9453"/><text fill="#000000" font-family="sans-serif" font-size="13" font-weight="bold" lengthAdjust="spacing" textLength="7" x="847" y="318.1904">8</text><text fill="#000000" font-family="sans-serif" font-size="13" lengthAdjust="spacing" textLength="121" x="858" y="318.1904">getDealsFromOrder()</text><line style="stroke:#181818;stroke-width:1.0;" x1="1220.5" x2="1262.5" y1="351.4688" y2="351.4688"/><line style="stroke:#181818;stroke-width:1.0;" x1="1262.5" x2="1262.5" y1="351.4688" y2="364.4688"/><line style="stroke:#181818;stroke-width:1.0;" x1="1221.5" x2="1262.5" y1="364.4688" y2="364.4688"/><polygon fill="#181818" points="1231.5,360.4688,1221.5,364.4688,1231.5,368.4688,1227.5,364.4688" style="stroke:#181818;stroke-width:1.0;"/><text fill="#000000" font-family="sans-serif" font-size="13" font-weight="bold" lengthAdjust="spacing" textLength="7" x="1227.5" y="346.7139">9</text><text fill="#000000" font-family="sans-serif" font-size="13" lengthAdjust="spacing" textLength="120" x="1238.5" y="346.7139">getPurchaseOrders()</text><path d="M1104.5,379.4688 L1169.5,379.4688 L1169.5,385.9922 L1159.5,395.9922 L1104.5,395.9922 L1104.5,379.4688 " fill="#EEEEEE" style="stroke:#000000;stroke-width:1.5;"/><rect fill="none" height="88.5703" style="stroke:#000000;stroke-width:1.5;" width="284" x="1104.5" y="379.4688"/><text fill="#000000" font-family="sans-serif" font-size="13" font-weight="bold" lengthAdjust="spacing" textLength="20" x="1119.5" y="392.2373">opt</text><text fill="#000000" font-family="sans-serif" font-size="11" font-weight="bold" lengthAdjust="spacing" textLength="142" x="1184.5" y="391.4268">[for each purchase order]</text><path d="M1114.5,402.9922 L1175.5,402.9922 L1175.5,409.5156 L1165.5,419.5156 L1114.5,419.5156 L1114.5,402.9922 " fill="#EEEEEE" style="stroke:#000000;stroke-width:1.5;"/><rect fill="none" height="58.0469" style="stroke:#000000;stroke-width:1.5;" width="264" x="1114.5" y="402.9922"/><text fill="#000000" font-family="sans-serif" font-size="13" font-weight="bold" lengthAdjust="spacing" textLength="16" x="1129.5" y="415.7607">alt</text><text fill="#000000" font-family="sans-serif" font-size="11" font-weight="bold" lengthAdjust="spacing" textLength="183" x="1190.5" y="414.9502">[if purchase order was accepted]</text><line style="stroke:#181818;stroke-width:1.0;stroke-dasharray:2.0,2.0;" x1="1220.5" x2="1262.5" y1="440.0391" y2="440.0391"/><line style="stroke:#181818;stroke-width:1.0;stroke-dasharray:2.0,2.0;" x1="1262.5" x2="1262.5" y1="440.0391" y2="453.0391"/><line style="stroke:#181818;stroke-width:1.0;stroke-dasharray:2.0,2.0;" x1="1221.5" x2="1262.5" y1="453.0391" y2="453.0391"/><polygon fill="#181818" points="1231.5,449.0391,1221.5,453.0391,1231.5,457.0391,1227.5,453.0391" style="stroke:#181818;stroke-width:1.0;"/><text fill="#000000" font-family="sans-serif" font-size="13" font-weight="bold" lengthAdjust="spacing" textLength="14" x="1227.5" y="435.2842">10</text><text fill="#000000" font-family="sans-serif" font-size="13" lengthAdjust="spacing" textLength="80" x="1245.5" y="435.2842">add (property)</text><polygon fill="#181818" points="851,491.5625,841,495.5625,851,499.5625,847,495.5625" style="stroke:#181818;stroke-width:1.0;"/><line style="stroke:#181818;stroke-width:1.0;stroke-dasharray:2.0,2.0;" x1="845" x2="1214.5" y1="495.5625" y2="495.5625"/><text fill="#000000" font-family="sans-serif" font-size="13" font-weight="bold" lengthAdjust="spacing" textLength="14" x="857" y="490.8076">11</text><text fill="#000000" font-family="sans-serif" font-size="13" lengthAdjust="spacing" textLength="52" x="875" y="490.8076">dealsList</text><polygon fill="#181818" points="557,520.0859,547,524.0859,557,528.0859,553,524.0859" style="stroke:#181818;stroke-width:1.0;"/><line style="stroke:#181818;stroke-width:1.0;stroke-dasharray:2.0,2.0;" x1="551" x2="834" y1="524.0859" y2="524.0859"/><text fill="#000000" font-family="sans-serif" font-size="13" font-weight="bold" lengthAdjust="spacing" textLength="14" x="563" y="519.3311">12</text><text fill="#000000" font-family="sans-serif" font-size="13" lengthAdjust="spacing" textLength="52" x="581" y="519.3311">dealsList</text><polygon fill="#181818" points="79,548.6094,69,552.6094,79,556.6094,75,552.6094" style="stroke:#181818;stroke-width:1.0;"/><line style="stroke:#181818;stroke-width:1.0;stroke-dasharray:2.0,2.0;" x1="73" x2="540" y1="552.6094" y2="552.6094"/><text fill="#000000" font-family="sans-serif" font-size="13" font-weight="bold" lengthAdjust="spacing" textLength="14" x="85" y="547.8545">13</text><text fill="#000000" font-family="sans-serif" font-size="13" lengthAdjust="spacing" textLength="426" x="103" y="547.8545">asks to order a list of properties by area in ascending or descendent order</text><polygon fill="#181818" points="524,577.1328,534,581.1328,524,585.1328,528,581.1328" style="stroke:#181818;stroke-width:1.0;"/><line style="stroke:#181818;stroke-width:1.0;" x1="68" x2="530" y1="581.1328" y2="581.1328"/><text fill="#000000" font-family="sans-serif" font-size="13" font-weight="bold" lengthAdjust="spacing" textLength="14" x="75" y="576.3779">14</text><text fill="#000000" font-family="sans-serif" font-size="13" lengthAdjust="spacing" textLength="184" x="93" y="576.3779">select ascending or descendent</text><line style="stroke:#181818;stroke-width:1.0;stroke-dasharray:2.0,2.0;" x1="546" x2="588" y1="609.6563" y2="609.6563"/><line style="stroke:#181818;stroke-width:1.0;stroke-dasharray:2.0,2.0;" x1="588" x2="588" y1="609.6563" y2="622.6563"/><line style="stroke:#181818;stroke-width:1.0;stroke-dasharray:2.0,2.0;" x1="547" x2="588" y1="622.6563" y2="622.6563"/><polygon fill="#181818" points="557,618.6563,547,622.6563,557,626.6563,553,622.6563" style="stroke:#181818;stroke-width:1.0;"/><text fill="#000000" font-family="sans-serif" font-size="13" font-weight="bold" lengthAdjust="spacing" textLength="14" x="553" y="604.9014">15</text><text fill="#000000" font-family="sans-serif" font-size="13" lengthAdjust="spacing" textLength="69" x="571" y="604.9014">keep (order)</text><line style="stroke:#181818;stroke-width:1.0;stroke-dasharray:2.0,2.0;" x1="546" x2="588" y1="651.1797" y2="651.1797"/><line style="stroke:#181818;stroke-width:1.0;stroke-dasharray:2.0,2.0;" x1="588" x2="588" y1="651.1797" y2="664.1797"/><line style="stroke:#181818;stroke-width:1.0;stroke-dasharray:2.0,2.0;" x1="547" x2="588" y1="664.1797" y2="664.1797"/><polygon fill="#181818" points="557,660.1797,547,664.1797,557,668.1797,553,664.1797" style="stroke:#181818;stroke-width:1.0;"/><text fill="#000000" font-family="sans-serif" font-size="13" font-weight="bold" lengthAdjust="spacing" textLength="14" x="553" y="646.4248">16</text><text fill="#000000" font-family="sans-serif" font-size="13" lengthAdjust="spacing" textLength="173" x="571" y="646.4248">displaySortingMethods (order)</text><polygon fill="#181818" points="79,688.7031,69,692.7031,79,696.7031,75,692.7031" style="stroke:#181818;stroke-width:1.0;"/><line style="stroke:#181818;stroke-width:1.0;stroke-dasharray:2.0,2.0;" x1="73" x2="540" y1="692.7031" y2="692.7031"/><text fill="#000000" font-family="sans-serif" font-size="13" font-weight="bold" lengthAdjust="spacing" textLength="14" x="85" y="687.9482">17</text><text fill="#000000" font-family="sans-serif" font-size="13" lengthAdjust="spacing" textLength="140" x="103" y="687.9482">asks the sorting method</text><polygon fill="#181818" points="524,717.2266,534,721.2266,524,725.2266,528,721.2266" style="stroke:#181818;stroke-width:1.0;"/><line style="stroke:#181818;stroke-width:1.0;" x1="68" x2="530" y1="721.2266" y2="721.2266"/><text fill="#000000" font-family="sans-serif" font-size="13" font-weight="bold" lengthAdjust="spacing" textLength="14" x="75" y="716.4717">18</text><text fill="#000000" font-family="sans-serif" font-size="13" lengthAdjust="spacing" textLength="136" x="93" y="716.4717">select a sorting method</text><line style="stroke:#181818;stroke-width:1.0;stroke-dasharray:2.0,2.0;" x1="546" x2="588" y1="749.75" y2="749.75"/><line style="stroke:#181818;stroke-width:1.0;stroke-dasharray:2.0,2.0;" x1="588" x2="588" y1="749.75" y2="762.75"/><line style="stroke:#181818;stroke-width:1.0;stroke-dasharray:2.0,2.0;" x1="547" x2="588" y1="762.75" y2="762.75"/><polygon fill="#181818" points="557,758.75,547,762.75,557,766.75,553,762.75" style="stroke:#181818;stroke-width:1.0;"/><text fill="#000000" font-family="sans-serif" font-size="13" font-weight="bold" lengthAdjust="spacing" textLength="14" x="553" y="744.9951">19</text><text fill="#000000" font-family="sans-serif" font-size="13" lengthAdjust="spacing" textLength="83" x="571" y="744.9951">keep (method)</text><path d="M479,777.75 L540,777.75 L540,784.2734 L530,794.2734 L479,794.2734 L479,777.75 " fill="#EEEEEE" style="stroke:#000000;stroke-width:1.5;"/><rect fill="none" height="130.6172" style="stroke:#000000;stroke-width:1.5;" width="945.5" x="479" y="777.75"/><text fill="#000000" font-family="sans-serif" font-size="13" font-weight="bold" lengthAdjust="spacing" textLength="16" x="494" y="790.5186">alt</text><text fill="#000000" font-family="sans-serif" font-size="11" font-weight="bold" lengthAdjust="spacing" textLength="124" x="555" y="789.708">[method = BubbleSort]</text><polygon fill="#181818" points="818,810.7969,828,814.7969,818,818.7969,822,814.7969" style="stroke:#181818;stroke-width:1.0;"/><line style="stroke:#181818;stroke-width:1.0;" x1="546" x2="824" y1="814.7969" y2="814.7969"/><text fill="#000000" font-family="sans-serif" font-size="13" font-weight="bold" lengthAdjust="spacing" textLength="14" x="553" y="810.042">20</text><text fill="#000000" font-family="sans-serif" font-size="13" lengthAdjust="spacing" textLength="189" x="571" y="810.042">getBubbleSort (propertyAreaList)</text><polygon fill="#181818" points="1353.5,839.3203,1363.5,843.3203,1353.5,847.3203,1357.5,843.3203" style="stroke:#181818;stroke-width:1.0;"/><line style="stroke:#181818;stroke-width:1.0;" x1="840" x2="1359.5" y1="843.3203" y2="843.3203"/><text fill="#000000" font-family="sans-serif" font-size="13" font-weight="bold" lengthAdjust="spacing" textLength="14" x="847" y="838.5654">21</text><text fill="#000000" font-family="sans-serif" font-size="13" lengthAdjust="spacing" textLength="129" x="865" y="838.5654">sort (propertyAreaList)</text><polygon fill="#181818" points="851,867.8438,841,871.8438,851,875.8438,847,871.8438" style="stroke:#181818;stroke-width:1.0;"/><line style="stroke:#181818;stroke-width:1.0;stroke-dasharray:2.0,2.0;" x1="845" x2="1369.5" y1="871.8438" y2="871.8438"/><text fill="#000000" font-family="sans-serif" font-size="13" font-weight="bold" lengthAdjust="spacing" textLength="14" x="857" y="867.0889">22</text><text fill="#000000" font-family="sans-serif" font-size="13" lengthAdjust="spacing" textLength="90" x="875" y="867.0889">sortedDealsList</text><polygon fill="#181818" points="557,896.3672,547,900.3672,557,904.3672,553,900.3672" style="stroke:#181818;stroke-width:1.0;"/><line style="stroke:#181818;stroke-width:1.0;stroke-dasharray:2.0,2.0;" x1="551" x2="834" y1="900.3672" y2="900.3672"/><text fill="#000000" font-family="sans-serif" font-size="13" font-weight="bold" lengthAdjust="spacing" textLength="14" x="563" y="895.6123">23</text><text fill="#000000" font-family="sans-serif" font-size="13" lengthAdjust="spacing" textLength="90" x="581" y="895.6123">sortedDealsList</text><path d="M479,922.3672 L540,922.3672 L540,928.8906 L530,938.8906 L479,938.8906 L479,922.3672 " fill="#EEEEEE" style="stroke:#000000;stroke-width:1.5;"/><rect fill="none" height="130.6172" style="stroke:#000000;stroke-width:1.5;" width="1053.5" x="479" y="922.3672"/><text fill="#000000" font-family="sans-serif" font-size="13" font-weight="bold" lengthAdjust="spacing" textLength="16" x="494" y="935.1357">alt</text><text fill="#000000" font-family="sans-serif" font-size="11" font-weight="bold" lengthAdjust="spacing" textLength="136" x="555" y="934.3252">[method = InsertionSort]</text><polygon fill="#181818" points="818,955.4141,828,959.4141,818,963.4141,822,959.4141" style="stroke:#181818;stroke-width:1.0;"/><line style="stroke:#181818;stroke-width:1.0;" x1="546" x2="824" y1="959.4141" y2="959.4141"/><text fill="#000000" font-family="sans-serif" font-size="13" font-weight="bold" lengthAdjust="spacing" textLength="14" x="553" y="954.6592">24</text><text fill="#000000" font-family="sans-serif" font-size="13" lengthAdjust="spacing" textLength="198" x="571" y="954.6592">getInsertionSort (propertyAreaList)</text><polygon fill="#181818" points="1456.5,983.9375,1466.5,987.9375,1456.5,991.9375,1460.5,987.9375" style="stroke:#181818;stroke-width:1.0;"/><line style="stroke:#181818;stroke-width:1.0;" x1="840" x2="1462.5" y1="987.9375" y2="987.9375"/><text fill="#000000" font-family="sans-serif" font-size="13" font-weight="bold" lengthAdjust="spacing" textLength="14" x="847" y="983.1826">25</text><text fill="#000000" font-family="sans-serif" font-size="13" lengthAdjust="spacing" textLength="129" x="865" y="983.1826">sort (propertyAreaList)</text><polygon fill="#181818" points="851,1012.4609,841,1016.4609,851,1020.4609,847,1016.4609" style="stroke:#181818;stroke-width:1.0;"/><line style="stroke:#181818;stroke-width:1.0;stroke-dasharray:2.0,2.0;" x1="845" x2="1472.5" y1="1016.4609" y2="1016.4609"/><text fill="#000000" font-family="sans-serif" font-size="13" font-weight="bold" lengthAdjust="spacing" textLength="14" x="857" y="1011.7061">26</text><text fill="#000000" font-family="sans-serif" font-size="13" lengthAdjust="spacing" textLength="90" x="875" y="1011.7061">sortedDealsList</text><polygon fill="#181818" points="557,1040.9844,547,1044.9844,557,1048.9844,553,1044.9844" style="stroke:#181818;stroke-width:1.0;"/><line style="stroke:#181818;stroke-width:1.0;stroke-dasharray:2.0,2.0;" x1="551" x2="834" y1="1044.9844" y2="1044.9844"/><text fill="#000000" font-family="sans-serif" font-size="13" font-weight="bold" lengthAdjust="spacing" textLength="14" x="563" y="1040.2295">27</text><text fill="#000000" font-family="sans-serif" font-size="13" lengthAdjust="spacing" textLength="90" x="581" y="1040.2295">sortedDealsList</text><line style="stroke:#181818;stroke-width:1.0;stroke-dasharray:2.0,2.0;" x1="546" x2="588" y1="1080.5078" y2="1080.5078"/><line style="stroke:#181818;stroke-width:1.0;stroke-dasharray:2.0,2.0;" x1="588" x2="588" y1="1080.5078" y2="1093.5078"/><line style="stroke:#181818;stroke-width:1.0;stroke-dasharray:2.0,2.0;" x1="547" x2="588" y1="1093.5078" y2="1093.5078"/><polygon fill="#181818" points="557,1089.5078,547,1093.5078,557,1097.5078,553,1093.5078" style="stroke:#181818;stroke-width:1.0;"/><text fill="#000000" font-family="sans-serif" font-size="13" font-weight="bold" lengthAdjust="spacing" textLength="14" x="553" y="1075.7529">28</text><text fill="#000000" font-family="sans-serif" font-size="13" lengthAdjust="spacing" textLength="252" x="571" y="1075.7529">displaySortedDeals(sortedProperties, order)</text><polygon fill="#181818" points="74,1118.0313,64,1122.0313,74,1126.0313,70,1122.0313" style="stroke:#181818;stroke-width:1.0;"/><line style="stroke:#181818;stroke-width:1.0;stroke-dasharray:2.0,2.0;" x1="68" x2="540" y1="1122.0313" y2="1122.0313"/><text fill="#000000" font-family="sans-serif" font-size="13" font-weight="bold" lengthAdjust="spacing" textLength="14" x="80" y="1117.2764">29</text><text fill="#000000" font-family="sans-serif" font-size="13" lengthAdjust="spacing" textLength="378" x="98" y="1117.2764">shows list of properties according to the sorting method and order</text><!--SRC=[dLR1Rjim3BthAuXUbXRh3mJOWAx5bW9DKYJjhHV5OcCZZcH8ohBy_IWhjYNPNjFb9f5y8X_vw9XT8Ikk-HxsIgeirsgFOFK1cMaj5SzsV8jhUoeHD6QMosqPEfYS2tKiv1RUUMcGCSOFLid3VeEQiIzv8H3UbR8RzOVnp2eDLmkqHwLtCEUIeFKLS0EBEICyMsH5nQM5g-alj0_8owV2sDV7skNrCN5fxFTAMgtAyWnr_x9wIZnNM2bJqEC5cjgdlJYj2rSGPHo7w23YJVO1df_kNkA8wg2pd1jSQe6wmv- -oUTXIuspN2Mf_ZXiDYMkbRQrVRvEx8_I89sLR5rcQ-POpspncrjqJ386z5lCuVOxiGPJu3i3La59P04lIn34d84z5-XTss3Ys9qfY48TaJSt59vf9EEv8oQcV7BDaX0AWEtPjpP5BzJTyTUj4NmSnG_qXU08ZSgcqSkmUIv17Ufdu3S4UtjETmfXhuCW8kao-2PvDnC-sv6EK_AzpEj12bxrABSTboDOR23D1Al9QxdoMTKT-Kaghw62PEACQ2J3-zYBi0B4A3SJzuP-gh90ujT0AURG20IKyquUBoqKxuaB76cwUPPXPL6mVXvD8bm8c5HQLIICKr8LoZIIRbnY7zJOyI-QcO-T0jfZmc8ttuD6XntMA9ZNHwSf2YKXKv76QzWpmxsM5L7cwwRHXSq9E2aL2adU6TNfjZAnBx0-8UqFJxr73nubsVTsXi6IrlqOqlZUQE9tY1LCwWUlMSyg2bEL_EIM667FqUPAc47teFeSmVW0sDSHdwaZ3UqLm0OByDw1S6bI_HryWsvPD_Pe3P92EezkHE-eIMu8eb6D1w0TfdXG6aNFrwwmZq4xLFgEXFS448ouGqBnC3Ze0RiT1XiVyGkneYe7XHeH7Ntr8hUKyCZpOdgwT0RvddsQxrdCz-n_-7OVzbvE5xFz3x9Jhllh9o1tGB7d5oV-zUTs0ts5CVsQN1tDqCwYzKunJfQqs_e21-wsjLzQGreFplI_voy0]--></g></svg>