<?xml version="1.0" encoding="us-ascii" standalone="no"?><svg xmlns="http://www.w3.org/2000/svg" xmlns:xlink="http://www.w3.org/1999/xlink" contentStyleType="text/css" height="1344px" preserveAspectRatio="none" style="width:1538px;height:1344px;background:#FFFFFF;" version="1.1" viewBox="0 0 1538 1344" width="1538px" zoomAndPan="magnify"><defs/><g><rect fill="#FFFFFF" height="1155.9609" style="stroke:#181818;stroke-width:1.0;" width="10" x="58" y="90.6406"/><rect fill="#FFFFFF" height="524.4922" style="stroke:#181818;stroke-width:1.0;" width="10" x="536" y="111.1641"/><rect fill="#FFFFFF" height="111.5703" style="stroke:#181818;stroke-width:1.0;" width="10" x="536" y="664.1797"/><rect fill="#FFFFFF" height="442.3281" style="stroke:#181818;stroke-width:1.0;" width="10" x="536" y="804.2734"/><rect fill="#FFFFFF" height="343.7578" style="stroke:#181818;stroke-width:1.0;" width="10" x="830" y="180.3281"/><rect fill="#FFFFFF" height="85.5703" style="stroke:#181818;stroke-width:1.0;" width="10" x="830" y="897.8438"/><rect fill="#FFFFFF" height="85.5703" style="stroke:#181818;stroke-width:1.0;" width="10" x="830" y="1042.4609"/><rect fill="#FFFFFF" height="28.5234" style="stroke:#181818;stroke-width:1.0;" width="10" x="954" y="208.8516"/><rect fill="#FFFFFF" height="28.5234" style="stroke:#181818;stroke-width:1.0;" width="10" x="1061" y="265.8984"/><rect fill="#FFFFFF" height="172.6172" style="stroke:#181818;stroke-width:1.0;" width="10" x="1210.5" y="322.9453"/><rect fill="#FFFFFF" height="28.5234" style="stroke:#181818;stroke-width:1.0;" width="10" x="1365.5" y="926.3672"/><rect fill="#FFFFFF" height="28.5234" style="stroke:#181818;stroke-width:1.0;" width="10" x="1468.5" y="1070.9844"/><rect fill="none" height="88.5703" style="stroke:#000000;stroke-width:1.5;" width="284" x="1104.5" y="379.4688"/><rect fill="none" height="58.0469" style="stroke:#000000;stroke-width:1.5;" width="264" x="1114.5" y="402.9922"/><rect fill="none" height="130.6172" style="stroke:#000000;stroke-width:1.5;" width="945.5" x="479" y="860.7969"/><rect fill="none" height="130.6172" style="stroke:#000000;stroke-width:1.5;" width="1053.5" x="479" y="1005.4141"/><line style="stroke:#181818;stroke-width:0.5;stroke-dasharray:5.0,5.0;" x1="63" x2="63" y1="80.6406" y2="1264.6016"/><line style="stroke:#181818;stroke-width:0.5;stroke-dasharray:5.0,5.0;" x1="541" x2="541" y1="80.6406" y2="1264.6016"/><line style="stroke:#181818;stroke-width:0.5;stroke-dasharray:5.0,5.0;" x1="834.5" x2="834.5" y1="149.4844" y2="1264.6016"/><line style="stroke:#181818;stroke-width:0.5;stroke-dasharray:5.0,5.0;" x1="958.5" x2="958.5" y1="80.6406" y2="1264.6016"/><line style="stroke:#181818;stroke-width:0.5;stroke-dasharray:5.0,5.0;" x1="1065.5" x2="1065.5" y1="80.6406" y2="1264.6016"/><line style="stroke:#181818;stroke-width:0.5;stroke-dasharray:5.0,5.0;" x1="1215.5" x2="1215.5" y1="80.6406" y2="1264.6016"/><line style="stroke:#181818;stroke-width:0.5;stroke-dasharray:5.0,5.0;" x1="1370.5" x2="1370.5" y1="80.6406" y2="1264.6016"/><line style="stroke:#181818;stroke-width:0.5;stroke-dasharray:5.0,5.0;" x1="1473.5" x2="1473.5" y1="80.6406" y2="1264.6016"/><text fill="#000000" font-family="sans-serif" font-size="14" lengthAdjust="spacing" textLength="110" x="5" y="77.6738">Network Manager</text><ellipse cx="63" cy="13.5" fill="#E3E3E3" rx="8" ry="8" style="stroke:#181818;stroke-width:0.5;"/><path d="M63,21.5 L63,48.5 M50,29.5 L76,29.5 M63,48.5 L50,63.5 M63,48.5 L76,63.5 " fill="none" style="stroke:#181818;stroke-width:0.5;"/><text fill="#000000" font-family="sans-serif" font-size="14" lengthAdjust="spacing" textLength="110" x="5" y="1276.2754">Network Manager</text><ellipse cx="63" cy="1287.7422" fill="#E3E3E3" rx="8" ry="8" style="stroke:#181818;stroke-width:0.5;"/><path d="M63,1295.7422 L63,1322.7422 M50,1303.7422 L76,1303.7422 M63,1322.7422 L50,1337.7422 M63,1322.7422 L76,1337.7422 " fill="none" style="stroke:#181818;stroke-width:0.5;"/><rect fill="#E3E3E3" height="29.6406" rx="2.5" ry="2.5" style="stroke:#181818;stroke-width:0.5;" width="104" x="489" y="50"/><text fill="#000000" font-family="sans-serif" font-size="14" lengthAdjust="spacing" textLength="90" x="496" y="69.6738">:GetDealListUI</text><rect fill="#E3E3E3" height="29.6406" rx="2.5" ry="2.5" style="stroke:#181818;stroke-width:0.5;" width="104" x="489" y="1263.6016"/><text fill="#000000" font-family="sans-serif" font-size="14" lengthAdjust="spacing" textLength="90" x="496" y="1283.2754">:GetDealListUI</text><rect fill="#E3E3E3" height="29.6406" rx="2.5" ry="2.5" style="stroke:#181818;stroke-width:0.5;" width="131" x="769.5" y="1263.6016"/><text fill="#000000" font-family="sans-serif" font-size="14" lengthAdjust="spacing" textLength="117" x="776.5" y="1283.2754">:DealListController</text><rect fill="#E3E3E3" height="29.6406" rx="2.5" ry="2.5" style="stroke:#181818;stroke-width:0.5;" width="97" x="910.5" y="50"/><text fill="#000000" font-family="sans-serif" font-size="14" lengthAdjust="spacing" textLength="83" x="917.5" y="69.6738">:Repositories</text><rect fill="#E3E3E3" height="29.6406" rx="2.5" ry="2.5" style="stroke:#181818;stroke-width:0.5;" width="97" x="910.5" y="1263.6016"/><text fill="#000000" font-family="sans-serif" font-size="14" lengthAdjust="spacing" textLength="83" x="917.5" y="1283.2754">:Repositories</text><rect fill="#E3E3E3" height="45.2813" rx="2.5" ry="2.5" style="stroke:#181818;stroke-width:0.5;" width="97" x="1017.5" y="34.3594"/><text fill="#000000" font-family="sans-serif" font-size="14" lengthAdjust="spacing" textLength="74" x="1029" y="54.0332">repositories</text><text fill="#000000" font-family="sans-serif" font-size="14" lengthAdjust="spacing" textLength="83" x="1024.5" y="69.6738">:Repositories</text><rect fill="#E3E3E3" height="45.2813" rx="2.5" ry="2.5" style="stroke:#181818;stroke-width:0.5;" width="97" x="1017.5" y="1263.6016"/><text fill="#000000" font-family="sans-serif" font-size="14" lengthAdjust="spacing" textLength="74" x="1029" y="1283.2754">repositories</text><text fill="#000000" font-family="sans-serif" font-size="14" lengthAdjust="spacing" textLength="83" x="1024.5" y="1298.916">:Repositories</text><rect fill="#E3E3E3" height="45.2813" rx="2.5" ry="2.5" style="stroke:#181818;stroke-width:0.5;" width="182" x="1124.5" y="34.3594"/><text fill="#000000" font-family="sans-serif" font-size="14" lengthAdjust="spacing" textLength="168" x="1131.5" y="54.0332">purchaseOrderRepository:</text><text fill="#000000" font-family="sans-serif" font-size="14" lengthAdjust="spacing" textLength="165" x="1133" y="69.6738">PurchaseOrderRepository</text><rect fill="#E3E3E3" height="45.2813" rx="2.5" ry="2.5" style="stroke:#181818;stroke-width:0.5;" width="182" x="1124.5" y="1263.6016"/><text fill="#000000" font-family="sans-serif" font-size="14" lengthAdjust="spacing" textLength="168" x="1131.5" y="1283.2754">purchaseOrderRepository:</text><text fill="#000000" font-family="sans-serif" font-size="14" lengthAdjust="spacing" textLength="165" x="1133" y="1298.916">PurchaseOrderRepository</text><rect fill="#E3E3E3" height="29.6406" rx="2.5" ry="2.5" style="stroke:#181818;stroke-width:0.5;" width="88" x="1326.5" y="50"/><text fill="#000000" font-family="sans-serif" font-size="14" lengthAdjust="spacing" textLength="74" x="1333.5" y="69.6738">:BubbleSort</text><rect fill="#E3E3E3" height="29.6406" rx="2.5" ry="2.5" style="stroke:#181818;stroke-width:0.5;" width="88" x="1326.5" y="1263.6016"/><text fill="#000000" font-family="sans-serif" font-size="14" lengthAdjust="spacing" textLength="74" x="1333.5" y="1283.2754">:BubbleSort</text><rect fill="#E3E3E3" height="29.6406" rx="2.5" ry="2.5" style="stroke:#181818;stroke-width:0.5;" width="98" x="1424.5" y="50"/><text fill="#000000" font-family="sans-serif" font-size="14" lengthAdjust="spacing" textLength="84" x="1431.5" y="69.6738">:InsertionSort</text><rect fill="#E3E3E3" height="29.6406" rx="2.5" ry="2.5" style="stroke:#181818;stroke-width:0.5;" width="98" x="1424.5" y="1263.6016"/><text fill="#000000" font-family="sans-serif" font-size="14" lengthAdjust="spacing" textLength="84" x="1431.5" y="1283.2754">:InsertionSort</text><rect fill="#FFFFFF" height="1155.9609" style="stroke:#181818;stroke-width:1.0;" width="10" x="58" y="90.6406"/><rect fill="#FFFFFF" height="524.4922" style="stroke:#181818;stroke-width:1.0;" width="10" x="536" y="111.1641"/><rect fill="#FFFFFF" height="111.5703" style="stroke:#181818;stroke-width:1.0;" width="10" x="536" y="664.1797"/><rect fill="#FFFFFF" height="442.3281" style="stroke:#181818;stroke-width:1.0;" width="10" x="536" y="804.2734"/><rect fill="#FFFFFF" height="343.7578" style="stroke:#181818;stroke-width:1.0;" width="10" x="830" y="180.3281"/><rect fill="#FFFFFF" height="85.5703" style="stroke:#181818;stroke-width:1.0;" width="10" x="830" y="897.8438"/><rect fill="#FFFFFF" height="85.5703" style="stroke:#181818;stroke-width:1.0;" width="10" x="830" y="1042.4609"/><rect fill="#FFFFFF" height="28.5234" style="stroke:#181818;stroke-width:1.0;" width="10" x="954" y="208.8516"/><rect fill="#FFFFFF" height="28.5234" style="stroke:#181818;stroke-width:1.0;" width="10" x="1061" y="265.8984"/><rect fill="#FFFFFF" height="172.6172" style="stroke:#181818;stroke-width:1.0;" width="10" x="1210.5" y="322.9453"/><rect fill="#FFFFFF" height="28.5234" style="stroke:#181818;stroke-width:1.0;" width="10" x="1365.5" y="926.3672"/><rect fill="#FFFFFF" height="28.5234" style="stroke:#181818;stroke-width:1.0;" width="10" x="1468.5" y="1070.9844"/><polygon fill="#181818" points="524,107.1641,534,111.1641,524,115.1641,528,111.1641" style="stroke:#181818;stroke-width:1.0;"/><line style="stroke:#181818;stroke-width:1.0;" x1="68" x2="530" y1="111.1641" y2="111.1641"/><text fill="#000000" font-family="sans-serif" font-size="13" font-weight="bold" lengthAdjust="spacing" textLength="7" x="75" y="106.4092">1</text><text fill="#000000" font-family="sans-serif" font-size="13" lengthAdjust="spacing" textLength="145" x="86" y="106.4092">aks to list all deals made</text><polygon fill="#181818" points="757.5,135.6875,767.5,139.6875,757.5,143.6875,761.5,139.6875" style="stroke:#181818;stroke-width:1.0;"/><line style="stroke:#181818;stroke-width:1.0;" x1="546" x2="763.5" y1="139.6875" y2="139.6875"/><text fill="#000000" font-family="sans-serif" font-size="13" font-weight="bold" lengthAdjust="spacing" textLength="7" x="553" y="134.9326">2</text><text fill="#000000" font-family="sans-serif" font-size="13" lengthAdjust="spacing" textLength="174" x="564" y="134.9326">createGetDealsListController()</text><rect fill="#E3E3E3" height="29.6406" rx="2.5" ry="2.5" style="stroke:#181818;stroke-width:0.5;" width="131" x="769.5" y="119.1641"/><text fill="#000000" font-family="sans-serif" font-size="14" lengthAdjust="spacing" textLength="117" x="776.5" y="138.8379">:DealListController</text><polygon fill="#181818" points="818,176.3281,828,180.3281,818,184.3281,822,180.3281" style="stroke:#181818;stroke-width:1.0;"/><line style="stroke:#181818;stroke-width:1.0;" x1="546" x2="824" y1="180.3281" y2="180.3281"/><text fill="#000000" font-family="sans-serif" font-size="13" font-weight="bold" lengthAdjust="spacing" textLength="7" x="553" y="175.5732">3</text><text fill="#000000" font-family="sans-serif" font-size="13" lengthAdjust="spacing" textLength="129" x="564" y="175.5732">getPropertyDealsList()</text><polygon fill="#181818" points="942,204.8516,952,208.8516,942,212.8516,946,208.8516" style="stroke:#181818;stroke-width:1.0;"/><line style="stroke:#181818;stroke-width:1.0;" x1="840" x2="948" y1="208.8516" y2="208.8516"/><text fill="#000000" font-family="sans-serif" font-size="13" font-weight="bold" lengthAdjust="spacing" textLength="7" x="847" y="204.0967">4</text><text fill="#000000" font-family="sans-serif" font-size="13" lengthAdjust="spacing" textLength="75" x="858" y="204.0967">getInstance()</text><polygon fill="#181818" points="851,233.375,841,237.375,851,241.375,847,237.375" style="stroke:#181818;stroke-width:1.0;"/><line style="stroke:#181818;stroke-width:1.0;stroke-dasharray:2.0,2.0;" x1="845" x2="958" y1="237.375" y2="237.375"/><text fill="#000000" font-family="sans-serif" font-size="13" font-weight="bold" lengthAdjust="spacing" textLength="7" x="857" y="232.6201">5</text><text fill="#000000" font-family="sans-serif" font-size="13" lengthAdjust="spacing" textLength="67" x="868" y="232.6201">repositories</text><polygon fill="#181818" points="1049,261.8984,1059,265.8984,1049,269.8984,1053,265.8984" style="stroke:#181818;stroke-width:1.0;"/><line style="stroke:#181818;stroke-width:1.0;" x1="840" x2="1055" y1="265.8984" y2="265.8984"/><text fill="#000000" font-family="sans-serif" font-size="13" font-weight="bold" lengthAdjust="spacing" textLength="7" x="847" y="261.1436">6</text><text fill="#000000" font-family="sans-serif" font-size="13" lengthAdjust="spacing" textLength="175" x="858" y="261.1436">getPurchaseOrderRepository()</text><polygon fill="#181818" points="851,290.4219,841,294.4219,851,298.4219,847,294.4219" style="stroke:#181818;stroke-width:1.0;"/><line style="stroke:#181818;stroke-width:1.0;stroke-dasharray:2.0,2.0;" x1="845" x2="1065" y1="294.4219" y2="294.4219"/><text fill="#000000" font-family="sans-serif" font-size="13" font-weight="bold" lengthAdjust="spacing" textLength="7" x="857" y="289.667">7</text><text fill="#000000" font-family="sans-serif" font-size="13" lengthAdjust="spacing" textLength="149" x="868" y="289.667">PurchaseOrderRepository</text><polygon fill="#181818" points="1198.5,318.9453,1208.5,322.9453,1198.5,326.9453,1202.5,322.9453" style="stroke:#181818;stroke-width:1.0;"/><line style="stroke:#181818;stroke-width:1.0;" x1="840" x2="1204.5" y1="322.9453" y2="322.9453"/><text fill="#000000" font-family="sans-serif" font-size="13" font-weight="bold" lengthAdjust="spacing" textLength="7" x="847" y="318.1904">8</text><text fill="#000000" font-family="sans-serif" font-size="13" lengthAdjust="spacing" textLength="121" x="858" y="318.1904">getDealsFromOrder()</text><line style="stroke:#181818;stroke-width:1.0;" x1="1220.5" x2="1262.5" y1="351.4688" y2="351.4688"/><line style="stroke:#181818;stroke-width:1.0;" x1="1262.5" x2="1262.5" y1="351.4688" y2="364.4688"/><line style="stroke:#181818;stroke-width:1.0;" x1="1221.5" x2="1262.5" y1="364.4688" y2="364.4688"/><polygon fill="#181818" points="1231.5,360.4688,1221.5,364.4688,1231.5,368.4688,1227.5,364.4688" style="stroke:#181818;stroke-width:1.0;"/><text fill="#000000" font-family="sans-serif" font-size="13" font-weight="bold" lengthAdjust="spacing" textLength="7" x="1227.5" y="346.7139">9</text><text fill="#000000" font-family="sans-serif" font-size="13" lengthAdjust="spacing" textLength="120" x="1238.5" y="346.7139">getPurchaseOrders()</text><path d="M1104.5,379.4688 L1169.5,379.4688 L1169.5,385.9922 L1159.5,395.9922 L1104.5,395.9922 L1104.5,379.4688 " fill="#EEEEEE" style="stroke:#000000;stroke-width:1.5;"/><rect fill="none" height="88.5703" style="stroke:#000000;stroke-width:1.5;" width="284" x="1104.5" y="379.4688"/><text fill="#000000" font-family="sans-serif" font-size="13" font-weight="bold" lengthAdjust="spacing" textLength="20" x="1119.5" y="392.2373">opt</text><text fill="#000000" font-family="sans-serif" font-size="11" font-weight="bold" lengthAdjust="spacing" textLength="142" x="1184.5" y="391.4268">[for each purchase order]</text><path d="M1114.5,402.9922 L1175.5,402.9922 L1175.5,409.5156 L1165.5,419.5156 L1114.5,419.5156 L1114.5,402.9922 " fill="#EEEEEE" style="stroke:#000000;stroke-width:1.5;"/><rect fill="none" height="58.0469" style="stroke:#000000;stroke-width:1.5;" width="264" x="1114.5" y="402.9922"/><text fill="#000000" font-family="sans-serif" font-size="13" font-weight="bold" lengthAdjust="spacing" textLength="16" x="1129.5" y="415.7607">alt</text><text fill="#000000" font-family="sans-serif" font-size="11" font-weight="bold" lengthAdjust="spacing" textLength="183" x="1190.5" y="414.9502">[if purchase order was accepted]</text><line style="stroke:#181818;stroke-width:1.0;stroke-dasharray:2.0,2.0;" x1="1220.5" x2="1262.5" y1="440.0391" y2="440.0391"/><line style="stroke:#181818;stroke-width:1.0;stroke-dasharray:2.0,2.0;" x1="1262.5" x2="1262.5" y1="440.0391" y2="453.0391"/><line style="stroke:#181818;stroke-width:1.0;stroke-dasharray:2.0,2.0;" x1="1221.5" x2="1262.5" y1="453.0391" y2="453.0391"/><polygon fill="#181818" points="1231.5,449.0391,1221.5,453.0391,1231.5,457.0391,1227.5,453.0391" style="stroke:#181818;stroke-width:1.0;"/><text fill="#000000" font-family="sans-serif" font-size="13" font-weight="bold" lengthAdjust="spacing" textLength="14" x="1227.5" y="435.2842">10</text><text fill="#000000" font-family="sans-serif" font-size="13" lengthAdjust="spacing" textLength="80" x="1245.5" y="435.2842">add (property)</text><polygon fill="#181818" points="851,491.5625,841,495.5625,851,499.5625,847,495.5625" style="stroke:#181818;stroke-width:1.0;"/><line style="stroke:#181818;stroke-width:1.0;stroke-dasharray:2.0,2.0;" x1="845" x2="1214.5" y1="495.5625" y2="495.5625"/><text fill="#000000" font-family="sans-serif" font-size="13" font-weight="bold" lengthAdjust="spacing" textLength="14" x="857" y="490.8076">11</text><text fill="#000000" font-family="sans-serif" font-size="13" lengthAdjust="spacing" textLength="68" x="875" y="490.8076">propertyList</text><polygon fill="#181818" points="557,520.0859,547,524.0859,557,528.0859,553,524.0859" style="stroke:#181818;stroke-width:1.0;"/><line style="stroke:#181818;stroke-width:1.0;stroke-dasharray:2.0,2.0;" x1="551" x2="834" y1="524.0859" y2="524.0859"/><text fill="#000000" font-family="sans-serif" font-size="13" font-weight="bold" lengthAdjust="spacing" textLength="14" x="563" y="519.3311">12</text><text fill="#000000" font-family="sans-serif" font-size="13" lengthAdjust="spacing" textLength="68" x="581" y="519.3311">propertyList</text><line style="stroke:#181818;stroke-width:1.0;stroke-dasharray:2.0,2.0;" x1="546" x2="588" y1="552.6094" y2="552.6094"/><line style="stroke:#181818;stroke-width:1.0;stroke-dasharray:2.0,2.0;" x1="588" x2="588" y1="552.6094" y2="565.6094"/><line style="stroke:#181818;stroke-width:1.0;stroke-dasharray:2.0,2.0;" x1="547" x2="588" y1="565.6094" y2="565.6094"/><polygon fill="#181818" points="557,561.6094,547,565.6094,557,569.6094,553,565.6094" style="stroke:#181818;stroke-width:1.0;"/><text fill="#000000" font-family="sans-serif" font-size="13" font-weight="bold" lengthAdjust="spacing" textLength="14" x="553" y="547.8545">13</text><text fill="#000000" font-family="sans-serif" font-size="13" lengthAdjust="spacing" textLength="210" x="571" y="547.8545">displayListOfProperties(propertyList)</text><line style="stroke:#181818;stroke-width:1.0;stroke-dasharray:2.0,2.0;" x1="546" x2="588" y1="594.1328" y2="594.1328"/><line style="stroke:#181818;stroke-width:1.0;stroke-dasharray:2.0,2.0;" x1="588" x2="588" y1="594.1328" y2="607.1328"/><line style="stroke:#181818;stroke-width:1.0;stroke-dasharray:2.0,2.0;" x1="547" x2="588" y1="607.1328" y2="607.1328"/><polygon fill="#181818" points="557,603.1328,547,607.1328,557,611.1328,553,607.1328" style="stroke:#181818;stroke-width:1.0;"/><text fill="#000000" font-family="sans-serif" font-size="13" font-weight="bold" lengthAdjust="spacing" textLength="14" x="553" y="589.3779">14</text><text fill="#000000" font-family="sans-serif" font-size="13" lengthAdjust="spacing" textLength="152" x="571" y="589.3779">displayAndRequestOrder()</text><polygon fill="#181818" points="79,631.6563,69,635.6563,79,639.6563,75,635.6563" style="stroke:#181818;stroke-width:1.0;"/><line style="stroke:#181818;stroke-width:1.0;stroke-dasharray:2.0,2.0;" x1="73" x2="540" y1="635.6563" y2="635.6563"/><text fill="#000000" font-family="sans-serif" font-size="13" font-weight="bold" lengthAdjust="spacing" textLength="14" x="85" y="630.9014">15</text><text fill="#000000" font-family="sans-serif" font-size="13" lengthAdjust="spacing" textLength="426" x="103" y="630.9014">asks to order a list of properties by area in ascending or descendent order</text><polygon fill="#181818" points="524,660.1797,534,664.1797,524,668.1797,528,664.1797" style="stroke:#181818;stroke-width:1.0;"/><line style="stroke:#181818;stroke-width:1.0;" x1="68" x2="530" y1="664.1797" y2="664.1797"/><text fill="#000000" font-family="sans-serif" font-size="13" font-weight="bold" lengthAdjust="spacing" textLength="14" x="75" y="659.4248">16</text><text fill="#000000" font-family="sans-serif" font-size="13" lengthAdjust="spacing" textLength="184" x="93" y="659.4248">select ascending or descendent</text><line style="stroke:#181818;stroke-width:1.0;stroke-dasharray:2.0,2.0;" x1="546" x2="588" y1="692.7031" y2="692.7031"/><line style="stroke:#181818;stroke-width:1.0;stroke-dasharray:2.0,2.0;" x1="588" x2="588" y1="692.7031" y2="705.7031"/><line style="stroke:#181818;stroke-width:1.0;stroke-dasharray:2.0,2.0;" x1="547" x2="588" y1="705.7031" y2="705.7031"/><polygon fill="#181818" points="557,701.7031,547,705.7031,557,709.7031,553,705.7031" style="stroke:#181818;stroke-width:1.0;"/><text fill="#000000" font-family="sans-serif" font-size="13" font-weight="bold" lengthAdjust="spacing" textLength="14" x="553" y="687.9482">17</text><text fill="#000000" font-family="sans-serif" font-size="13" lengthAdjust="spacing" textLength="69" x="571" y="687.9482">keep (order)</text><line style="stroke:#181818;stroke-width:1.0;stroke-dasharray:2.0,2.0;" x1="546" x2="588" y1="734.2266" y2="734.2266"/><line style="stroke:#181818;stroke-width:1.0;stroke-dasharray:2.0,2.0;" x1="588" x2="588" y1="734.2266" y2="747.2266"/><line style="stroke:#181818;stroke-width:1.0;stroke-dasharray:2.0,2.0;" x1="547" x2="588" y1="747.2266" y2="747.2266"/><polygon fill="#181818" points="557,743.2266,547,747.2266,557,751.2266,553,747.2266" style="stroke:#181818;stroke-width:1.0;"/><text fill="#000000" font-family="sans-serif" font-size="13" font-weight="bold" lengthAdjust="spacing" textLength="14" x="553" y="729.4717">18</text><text fill="#000000" font-family="sans-serif" font-size="13" lengthAdjust="spacing" textLength="173" x="571" y="729.4717">displaySortingMethods (order)</text><polygon fill="#181818" points="79,771.75,69,775.75,79,779.75,75,775.75" style="stroke:#181818;stroke-width:1.0;"/><line style="stroke:#181818;stroke-width:1.0;stroke-dasharray:2.0,2.0;" x1="73" x2="540" y1="775.75" y2="775.75"/><text fill="#000000" font-family="sans-serif" font-size="13" font-weight="bold" lengthAdjust="spacing" textLength="14" x="85" y="770.9951">19</text><text fill="#000000" font-family="sans-serif" font-size="13" lengthAdjust="spacing" textLength="140" x="103" y="770.9951">asks the sorting method</text><polygon fill="#181818" points="524,800.2734,534,804.2734,524,808.2734,528,804.2734" style="stroke:#181818;stroke-width:1.0;"/><line style="stroke:#181818;stroke-width:1.0;" x1="68" x2="530" y1="804.2734" y2="804.2734"/><text fill="#000000" font-family="sans-serif" font-size="13" font-weight="bold" lengthAdjust="spacing" textLength="14" x="75" y="799.5186">20</text><text fill="#000000" font-family="sans-serif" font-size="13" lengthAdjust="spacing" textLength="136" x="93" y="799.5186">select a sorting method</text><line style="stroke:#181818;stroke-width:1.0;stroke-dasharray:2.0,2.0;" x1="546" x2="588" y1="832.7969" y2="832.7969"/><line style="stroke:#181818;stroke-width:1.0;stroke-dasharray:2.0,2.0;" x1="588" x2="588" y1="832.7969" y2="845.7969"/><line style="stroke:#181818;stroke-width:1.0;stroke-dasharray:2.0,2.0;" x1="547" x2="588" y1="845.7969" y2="845.7969"/><polygon fill="#181818" points="557,841.7969,547,845.7969,557,849.7969,553,845.7969" style="stroke:#181818;stroke-width:1.0;"/><text fill="#000000" font-family="sans-serif" font-size="13" font-weight="bold" lengthAdjust="spacing" textLength="14" x="553" y="828.042">21</text><text fill="#000000" font-family="sans-serif" font-size="13" lengthAdjust="spacing" textLength="83" x="571" y="828.042">keep (method)</text><path d="M479,860.7969 L540,860.7969 L540,867.3203 L530,877.3203 L479,877.3203 L479,860.7969 " fill="#EEEEEE" style="stroke:#000000;stroke-width:1.5;"/><rect fill="none" height="130.6172" style="stroke:#000000;stroke-width:1.5;" width="945.5" x="479" y="860.7969"/><text fill="#000000" font-family="sans-serif" font-size="13" font-weight="bold" lengthAdjust="spacing" textLength="16" x="494" y="873.5654">alt</text><text fill="#000000" font-family="sans-serif" font-size="11" font-weight="bold" lengthAdjust="spacing" textLength="124" x="555" y="872.7549">[method = BubbleSort]</text><polygon fill="#181818" points="818,893.8438,828,897.8438,818,901.8438,822,897.8438" style="stroke:#181818;stroke-width:1.0;"/><line style="stroke:#181818;stroke-width:1.0;" x1="546" x2="824" y1="897.8438" y2="897.8438"/><text fill="#000000" font-family="sans-serif" font-size="13" font-weight="bold" lengthAdjust="spacing" textLength="14" x="553" y="893.0889">22</text><text fill="#000000" font-family="sans-serif" font-size="13" lengthAdjust="spacing" textLength="189" x="571" y="893.0889">getBubbleSort (propertyAreaList)</text><polygon fill="#181818" points="1353.5,922.3672,1363.5,926.3672,1353.5,930.3672,1357.5,926.3672" style="stroke:#181818;stroke-width:1.0;"/><line style="stroke:#181818;stroke-width:1.0;" x1="840" x2="1359.5" y1="926.3672" y2="926.3672"/><text fill="#000000" font-family="sans-serif" font-size="13" font-weight="bold" lengthAdjust="spacing" textLength="14" x="847" y="921.6123">23</text><text fill="#000000" font-family="sans-serif" font-size="13" lengthAdjust="spacing" textLength="129" x="865" y="921.6123">sort (propertyAreaList)</text><polygon fill="#181818" points="851,950.8906,841,954.8906,851,958.8906,847,954.8906" style="stroke:#181818;stroke-width:1.0;"/><line style="stroke:#181818;stroke-width:1.0;stroke-dasharray:2.0,2.0;" x1="845" x2="1369.5" y1="954.8906" y2="954.8906"/><text fill="#000000" font-family="sans-serif" font-size="13" font-weight="bold" lengthAdjust="spacing" textLength="14" x="857" y="950.1357">24</text><text fill="#000000" font-family="sans-serif" font-size="13" lengthAdjust="spacing" textLength="90" x="875" y="950.1357">sortedDealsList</text><polygon fill="#181818" points="557,979.4141,547,983.4141,557,987.4141,553,983.4141" style="stroke:#181818;stroke-width:1.0;"/><line style="stroke:#181818;stroke-width:1.0;stroke-dasharray:2.0,2.0;" x1="551" x2="834" y1="983.4141" y2="983.4141"/><text fill="#000000" font-family="sans-serif" font-size="13" font-weight="bold" lengthAdjust="spacing" textLength="14" x="563" y="978.6592">25</text><text fill="#000000" font-family="sans-serif" font-size="13" lengthAdjust="spacing" textLength="90" x="581" y="978.6592">sortedDealsList</text><path d="M479,1005.4141 L540,1005.4141 L540,1011.9375 L530,1021.9375 L479,1021.9375 L479,1005.4141 " fill="#EEEEEE" style="stroke:#000000;stroke-width:1.5;"/><rect fill="none" height="130.6172" style="stroke:#000000;stroke-width:1.5;" width="1053.5" x="479" y="1005.4141"/><text fill="#000000" font-family="sans-serif" font-size="13" font-weight="bold" lengthAdjust="spacing" textLength="16" x="494" y="1018.1826">alt</text><text fill="#000000" font-family="sans-serif" font-size="11" font-weight="bold" lengthAdjust="spacing" textLength="136" x="555" y="1017.3721">[method = InsertionSort]</text><polygon fill="#181818" points="818,1038.4609,828,1042.4609,818,1046.4609,822,1042.4609" style="stroke:#181818;stroke-width:1.0;"/><line style="stroke:#181818;stroke-width:1.0;" x1="546" x2="824" y1="1042.4609" y2="1042.4609"/><text fill="#000000" font-family="sans-serif" font-size="13" font-weight="bold" lengthAdjust="spacing" textLength="14" x="553" y="1037.7061">26</text><text fill="#000000" font-family="sans-serif" font-size="13" lengthAdjust="spacing" textLength="198" x="571" y="1037.7061">getInsertionSort (propertyAreaList)</text><polygon fill="#181818" points="1456.5,1066.9844,1466.5,1070.9844,1456.5,1074.9844,1460.5,1070.9844" style="stroke:#181818;stroke-width:1.0;"/><line style="stroke:#181818;stroke-width:1.0;" x1="840" x2="1462.5" y1="1070.9844" y2="1070.9844"/><text fill="#000000" font-family="sans-serif" font-size="13" font-weight="bold" lengthAdjust="spacing" textLength="14" x="847" y="1066.2295">27</text><text fill="#000000" font-family="sans-serif" font-size="13" lengthAdjust="spacing" textLength="129" x="865" y="1066.2295">sort (propertyAreaList)</text><polygon fill="#181818" points="851,1095.5078,841,1099.5078,851,1103.5078,847,1099.5078" style="stroke:#181818;stroke-width:1.0;"/><line style="stroke:#181818;stroke-width:1.0;stroke-dasharray:2.0,2.0;" x1="845" x2="1472.5" y1="1099.5078" y2="1099.5078"/><text fill="#000000" font-family="sans-serif" font-size="13" font-weight="bold" lengthAdjust="spacing" textLength="14" x="857" y="1094.7529">28</text><text fill="#000000" font-family="sans-serif" font-size="13" lengthAdjust="spacing" textLength="90" x="875" y="1094.7529">sortedDealsList</text><polygon fill="#181818" points="557,1124.0313,547,1128.0313,557,1132.0313,553,1128.0313" style="stroke:#181818;stroke-width:1.0;"/><line style="stroke:#181818;stroke-width:1.0;stroke-dasharray:2.0,2.0;" x1="551" x2="834" y1="1128.0313" y2="1128.0313"/><text fill="#000000" font-family="sans-serif" font-size="13" font-weight="bold" lengthAdjust="spacing" textLength="14" x="563" y="1123.2764">29</text><text fill="#000000" font-family="sans-serif" font-size="13" lengthAdjust="spacing" textLength="90" x="581" y="1123.2764">sortedDealsList</text><line style="stroke:#181818;stroke-width:1.0;stroke-dasharray:2.0,2.0;" x1="546" x2="588" y1="1163.5547" y2="1163.5547"/><line style="stroke:#181818;stroke-width:1.0;stroke-dasharray:2.0,2.0;" x1="588" x2="588" y1="1163.5547" y2="1176.5547"/><line style="stroke:#181818;stroke-width:1.0;stroke-dasharray:2.0,2.0;" x1="547" x2="588" y1="1176.5547" y2="1176.5547"/><polygon fill="#181818" points="557,1172.5547,547,1176.5547,557,1180.5547,553,1176.5547" style="stroke:#181818;stroke-width:1.0;"/><text fill="#000000" font-family="sans-serif" font-size="13" font-weight="bold" lengthAdjust="spacing" textLength="14" x="553" y="1158.7998">30</text><text fill="#000000" font-family="sans-serif" font-size="13" lengthAdjust="spacing" textLength="206" x="571" y="1158.7998">GetPropertySorted(sortedDealsList)</text><line style="stroke:#181818;stroke-width:1.0;stroke-dasharray:2.0,2.0;" x1="546" x2="588" y1="1205.0781" y2="1205.0781"/><line style="stroke:#181818;stroke-width:1.0;stroke-dasharray:2.0,2.0;" x1="588" x2="588" y1="1205.0781" y2="1218.0781"/><line style="stroke:#181818;stroke-width:1.0;stroke-dasharray:2.0,2.0;" x1="547" x2="588" y1="1218.0781" y2="1218.0781"/><polygon fill="#181818" points="557,1214.0781,547,1218.0781,557,1222.0781,553,1218.0781" style="stroke:#181818;stroke-width:1.0;"/><text fill="#000000" font-family="sans-serif" font-size="13" font-weight="bold" lengthAdjust="spacing" textLength="14" x="553" y="1200.3232">31</text><text fill="#000000" font-family="sans-serif" font-size="13" lengthAdjust="spacing" textLength="252" x="571" y="1200.3232">displaySortedDeals(sortedProperties, order)</text><polygon fill="#181818" points="74,1242.6016,64,1246.6016,74,1250.6016,70,1246.6016" style="stroke:#181818;stroke-width:1.0;"/><line style="stroke:#181818;stroke-width:1.0;stroke-dasharray:2.0,2.0;" x1="68" x2="540" y1="1246.6016" y2="1246.6016"/><text fill="#000000" font-family="sans-serif" font-size="13" font-weight="bold" lengthAdjust="spacing" textLength="14" x="80" y="1241.8467">32</text><text fill="#000000" font-family="sans-serif" font-size="13" lengthAdjust="spacing" textLength="378" x="98" y="1241.8467">shows list of properties according to the sorting method and order</text><!--SRC=[dLR1Rjim3BthAuXUbXRh3mHOWMx3cW9DKoJjhHV5Pc8ZZkH9ohBy_IZ9TYHRxjhw9eby8X_vAEjTAMgk-1xsKiYiK7AFODG1cUvEQfxj-1PNvbGXACmC5zigDD05p-Mn55lOy4eZOumVZ1I7_HeLOr-ACaVOI6dMyY_ZcP4ABXxH7ANQmPmBWbONm3KypXdXcJ8hQouCN4plqFn4NZsKshpSEvEN-vv9U_v32gDaLJLGFvwN3ptB9TPIbtHvYThPT1kdLMaJeeXZ5nLul8eXmDF3xNFiKHzKLd2D2vMZEkDFNyLJ-iJXB9QzKByVrkiALr8PTpvVzSxlXKPQIz6Pp5RCifwPyWytQ9ba3EXxdCFr3R46K-0x3KP2HMG1hoh8YJaDUvwZD-sSYMEx9YTojKHUNP5xff0EcuhecFB99Ukva0DiqJmfMLEafyw7BA7vkljShLYt3nw0W1858bo2fVof1pDix-q1fWeRsALWhvkufn0MFN0Yjju7tmPlcyD7ErBw51Mkeu9RFShrcTGHB9O8iuVLnhLO-gXSINwHt1rK44mS4VLcV4B-0KeKZuxhGP-i3P3o5L1O1RJg06cjUnTM1ifDpmIErDeyox0sc2VYQ0FXUGwJkkcrNYOe-fwqOmDBupKyjs2sPsExWE41DvxZLd0HnYY8x_xerCge1SbBNLVSOImsZPoeCoSX-2MB0HB-jo9Vuky34afJRXPOqfGW4hKV49vvxWU5tBHfqAMmFW6dCG2b8EkCUBGZdwgReriX3ITVMeyUP4apPJ2GD5RqbemXZG-brd-7MCF4NHYd4oPk9oHXpz4KCjT9yo3x0a5x1zWxZu_aqNST9C2I2NZhO1YG4lmUV8FpIy22udPjIWeyMvmbS4j5yesHadGpRzcmSs_egR49_H_iZ4QFKxXF086CB1BctVHd8neW33QketU2kBJUL7x4RFI63kGJCXnPlfkNeQvRZcSVvdWMSppx3CVk3-4p7Bz1SP_Xb6dOy7VdFuALkt3IkpUOP2DQRemRn_D0_0fZojQ5FEhKDAE7XNoiO6dg3QKFtBuJVfobfa2mfj-jVm00]--></g></svg>