<?xml version="1.0" encoding="us-ascii" standalone="no"?><svg xmlns="http://www.w3.org/2000/svg" xmlns:xlink="http://www.w3.org/1999/xlink" contentStyleType="text/css" height="455px" preserveAspectRatio="none" style="width:808px;height:455px;background:#FFFFFF;" version="1.1" viewBox="0 0 808 455" width="808px" zoomAndPan="magnify"><defs><filter height="300%" id="f1p8tx8924mldw" width="300%" x="-1" y="-1"><feGaussianBlur result="blurOut" stdDeviation="2.0"/><feColorMatrix in="blurOut" result="blurOut2" type="matrix" values="0 0 0 0 0 0 0 0 0 0 0 0 0 0 0 0 0 0 .4 0"/><feOffset dx="4.0" dy="4.0" in="blurOut2" result="blurOut3"/><feBlend in="SourceGraphic" in2="blurOut3" mode="normal"/></filter></defs><g><!--class GetDealListUI--><g id="elem_GetDealListUI"><rect codeLine="12" fill="#F1F1F1" filter="url(#f1p8tx8924mldw)" height="48" id="GetDealListUI" rx="2.5" ry="2.5" style="stroke:#181818;stroke-width:0.5;" width="118" x="182.5" y="30.5"/><ellipse cx="197.5" cy="46.5" fill="#ADD1B2" rx="11" ry="11" style="stroke:#181818;stroke-width:1.0;"/><path d="M200.2656,42.375 Q200.4219,42.1563 200.6094,42.0469 Q200.7969,41.9375 201.0156,41.9375 Q201.3906,41.9375 201.625,42.2031 Q201.8594,42.4531 201.8594,43.0625 L201.8594,44.5156 Q201.8594,45.125 201.625,45.3906 Q201.3906,45.6563 201.0156,45.6563 Q200.6719,45.6563 200.4688,45.4531 Q200.2656,45.2656 200.1563,44.75 Q200.1094,44.3906 199.9219,44.2031 Q199.5938,43.8281 198.9844,43.6094 Q198.375,43.3906 197.75,43.3906 Q196.9844,43.3906 196.3438,43.7188 Q195.7188,44.0469 195.2188,44.7969 Q194.7344,45.5469 194.7344,46.5781 L194.7344,47.6719 Q194.7344,48.9063 195.625,49.7344 Q196.5156,50.5469 198.1094,50.5469 Q199.0469,50.5469 199.7031,50.2969 Q200.0938,50.1406 200.5156,49.7031 Q200.7813,49.4375 200.9219,49.3594 Q201.0781,49.2813 201.2813,49.2813 Q201.6094,49.2813 201.8594,49.5469 Q202.125,49.7969 202.125,50.1406 Q202.125,50.4844 201.7813,50.8906 Q201.2813,51.4688 200.4844,51.7969 Q199.4063,52.25 198.1094,52.25 Q196.5938,52.25 195.3906,51.625 Q194.4063,51.125 193.7188,50.0625 Q193.0313,48.9844 193.0313,47.7031 L193.0313,46.5469 Q193.0313,45.2188 193.6406,44.0781 Q194.2656,42.9219 195.3594,42.3125 Q196.4531,41.6875 197.6875,41.6875 Q198.4219,41.6875 199.0625,41.8594 Q199.7188,42.0156 200.2656,42.375 Z " fill="#000000"/><text fill="#000000" font-family="sans-serif" font-size="14" lengthAdjust="spacing" textLength="86" x="211.5" y="51.3535">GetDealListUI</text><line style="stroke:#181818;stroke-width:0.5;" x1="183.5" x2="299.5" y1="62.5" y2="62.5"/><line style="stroke:#181818;stroke-width:0.5;" x1="183.5" x2="299.5" y1="70.5" y2="70.5"/></g><!--class GetDealListController--><g id="elem_GetDealListController"><rect codeLine="15" fill="#F1F1F1" filter="url(#f1p8tx8924mldw)" height="94.9219" id="GetDealListController" rx="2.5" ry="2.5" style="stroke:#181818;stroke-width:0.5;" width="272" x="335.5" y="7"/><ellipse cx="399.25" cy="23" fill="#ADD1B2" rx="11" ry="11" style="stroke:#181818;stroke-width:1.0;"/><path d="M402.0156,18.875 Q402.1719,18.6563 402.3594,18.5469 Q402.5469,18.4375 402.7656,18.4375 Q403.1406,18.4375 403.375,18.7031 Q403.6094,18.9531 403.6094,19.5625 L403.6094,21.0156 Q403.6094,21.625 403.375,21.8906 Q403.1406,22.1563 402.7656,22.1563 Q402.4219,22.1563 402.2188,21.9531 Q402.0156,21.7656 401.9063,21.25 Q401.8594,20.8906 401.6719,20.7031 Q401.3438,20.3281 400.7344,20.1094 Q400.125,19.8906 399.5,19.8906 Q398.7344,19.8906 398.0938,20.2188 Q397.4688,20.5469 396.9688,21.2969 Q396.4844,22.0469 396.4844,23.0781 L396.4844,24.1719 Q396.4844,25.4063 397.375,26.2344 Q398.2656,27.0469 399.8594,27.0469 Q400.7969,27.0469 401.4531,26.7969 Q401.8438,26.6406 402.2656,26.2031 Q402.5313,25.9375 402.6719,25.8594 Q402.8281,25.7813 403.0313,25.7813 Q403.3594,25.7813 403.6094,26.0469 Q403.875,26.2969 403.875,26.6406 Q403.875,26.9844 403.5313,27.3906 Q403.0313,27.9688 402.2344,28.2969 Q401.1563,28.75 399.8594,28.75 Q398.3438,28.75 397.1406,28.125 Q396.1563,27.625 395.4688,26.5625 Q394.7813,25.4844 394.7813,24.2031 L394.7813,23.0469 Q394.7813,21.7188 395.3906,20.5781 Q396.0156,19.4219 397.1094,18.8125 Q398.2031,18.1875 399.4375,18.1875 Q400.1719,18.1875 400.8125,18.3594 Q401.4688,18.5156 402.0156,18.875 Z " fill="#000000"/><text fill="#000000" font-family="sans-serif" font-size="14" lengthAdjust="spacing" textLength="136" x="419.75" y="27.8535">GetDealListController</text><line style="stroke:#181818;stroke-width:0.5;" x1="336.5" x2="606.5" y1="39" y2="39"/><line style="stroke:#181818;stroke-width:0.5;" x1="336.5" x2="606.5" y1="47" y2="47"/><text fill="#000000" font-family="sans-serif" font-size="14" lengthAdjust="spacing" textLength="111" x="341.5" y="63.6738">+getDealsOrder()</text><text fill="#000000" font-family="sans-serif" font-size="14" lengthAdjust="spacing" textLength="250" x="341.5" y="79.3145">+getBubbleSort (double[] areaProperty)</text><text fill="#000000" font-family="sans-serif" font-size="14" lengthAdjust="spacing" textLength="260" x="341.5" y="94.9551">+getInsertionSort (double[] areaProperty)</text></g><!--class Repositories--><g id="elem_Repositories"><rect codeLine="23" fill="#F1F1F1" filter="url(#f1p8tx8924mldw)" height="94.9219" id="Repositories" rx="2.5" ry="2.5" style="stroke:#181818;stroke-width:0.5;" width="215" x="7" y="162"/><ellipse cx="70.75" cy="178" fill="#ADD1B2" rx="11" ry="11" style="stroke:#181818;stroke-width:1.0;"/><path d="M73.5156,173.875 Q73.6719,173.6563 73.8594,173.5469 Q74.0469,173.4375 74.2656,173.4375 Q74.6406,173.4375 74.875,173.7031 Q75.1094,173.9531 75.1094,174.5625 L75.1094,176.0156 Q75.1094,176.625 74.875,176.8906 Q74.6406,177.1563 74.2656,177.1563 Q73.9219,177.1563 73.7188,176.9531 Q73.5156,176.7656 73.4063,176.25 Q73.3594,175.8906 73.1719,175.7031 Q72.8438,175.3281 72.2344,175.1094 Q71.625,174.8906 71,174.8906 Q70.2344,174.8906 69.5938,175.2188 Q68.9688,175.5469 68.4688,176.2969 Q67.9844,177.0469 67.9844,178.0781 L67.9844,179.1719 Q67.9844,180.4063 68.875,181.2344 Q69.7656,182.0469 71.3594,182.0469 Q72.2969,182.0469 72.9531,181.7969 Q73.3438,181.6406 73.7656,181.2031 Q74.0313,180.9375 74.1719,180.8594 Q74.3281,180.7813 74.5313,180.7813 Q74.8594,180.7813 75.1094,181.0469 Q75.375,181.2969 75.375,181.6406 Q75.375,181.9844 75.0313,182.3906 Q74.5313,182.9688 73.7344,183.2969 Q72.6563,183.75 71.3594,183.75 Q69.8438,183.75 68.6406,183.125 Q67.6563,182.625 66.9688,181.5625 Q66.2813,180.4844 66.2813,179.2031 L66.2813,178.0469 Q66.2813,176.7188 66.8906,175.5781 Q67.5156,174.4219 68.6094,173.8125 Q69.7031,173.1875 70.9375,173.1875 Q71.6719,173.1875 72.3125,173.3594 Q72.9688,173.5156 73.5156,173.875 Z " fill="#000000"/><text fill="#000000" font-family="sans-serif" font-size="14" lengthAdjust="spacing" textLength="79" x="91.25" y="182.8535">Repositories</text><line style="stroke:#181818;stroke-width:0.5;" x1="8" x2="221" y1="194" y2="194"/><line style="stroke:#181818;stroke-width:0.5;" x1="8" x2="221" y1="202" y2="202"/><text fill="#000000" font-family="sans-serif" font-size="14" lengthAdjust="spacing" textLength="94" x="13" y="218.6738">-Repositories()</text><text fill="#000000" font-family="sans-serif" font-size="14" lengthAdjust="spacing" textLength="182" x="13" y="234.3145">+getInstance() : Repositories</text><text fill="#000000" font-family="sans-serif" font-size="14" lengthAdjust="spacing" textLength="203" x="13" y="249.9551">+getPurchaseOrderRepository()</text></g><!--class PurchaseOrderRepository--><g id="elem_PurchaseOrderRepository"><rect codeLine="29" fill="#F1F1F1" filter="url(#f1p8tx8924mldw)" height="63.6406" id="PurchaseOrderRepository" rx="2.5" ry="2.5" style="stroke:#181818;stroke-width:0.5;" width="197" x="275" y="177.5"/><ellipse cx="290" cy="193.5" fill="#ADD1B2" rx="11" ry="11" style="stroke:#181818;stroke-width:1.0;"/><path d="M292.7656,189.375 Q292.9219,189.1563 293.1094,189.0469 Q293.2969,188.9375 293.5156,188.9375 Q293.8906,188.9375 294.125,189.2031 Q294.3594,189.4531 294.3594,190.0625 L294.3594,191.5156 Q294.3594,192.125 294.125,192.3906 Q293.8906,192.6563 293.5156,192.6563 Q293.1719,192.6563 292.9688,192.4531 Q292.7656,192.2656 292.6563,191.75 Q292.6094,191.3906 292.4219,191.2031 Q292.0938,190.8281 291.4844,190.6094 Q290.875,190.3906 290.25,190.3906 Q289.4844,190.3906 288.8438,190.7188 Q288.2188,191.0469 287.7188,191.7969 Q287.2344,192.5469 287.2344,193.5781 L287.2344,194.6719 Q287.2344,195.9063 288.125,196.7344 Q289.0156,197.5469 290.6094,197.5469 Q291.5469,197.5469 292.2031,197.2969 Q292.5938,197.1406 293.0156,196.7031 Q293.2813,196.4375 293.4219,196.3594 Q293.5781,196.2813 293.7813,196.2813 Q294.1094,196.2813 294.3594,196.5469 Q294.625,196.7969 294.625,197.1406 Q294.625,197.4844 294.2813,197.8906 Q293.7813,198.4688 292.9844,198.7969 Q291.9063,199.25 290.6094,199.25 Q289.0938,199.25 287.8906,198.625 Q286.9063,198.125 286.2188,197.0625 Q285.5313,195.9844 285.5313,194.7031 L285.5313,193.5469 Q285.5313,192.2188 286.1406,191.0781 Q286.7656,189.9219 287.8594,189.3125 Q288.9531,188.6875 290.1875,188.6875 Q290.9219,188.6875 291.5625,188.8594 Q292.2188,189.0156 292.7656,189.375 Z " fill="#000000"/><text fill="#000000" font-family="sans-serif" font-size="14" lengthAdjust="spacing" textLength="165" x="304" y="198.3535">PurchaseOrderRepository</text><line style="stroke:#181818;stroke-width:0.5;" x1="276" x2="471" y1="209.5" y2="209.5"/><line style="stroke:#181818;stroke-width:0.5;" x1="276" x2="471" y1="217.5" y2="217.5"/><text fill="#000000" font-family="sans-serif" font-size="14" lengthAdjust="spacing" textLength="144" x="281" y="234.1738">+getDealsFromOrder()</text></g><!--class PurchaseOrder--><g id="elem_PurchaseOrder"><rect codeLine="34" fill="#F1F1F1" filter="url(#f1p8tx8924mldw)" height="126.2031" id="PurchaseOrder" rx="2.5" ry="2.5" style="stroke:#181818;stroke-width:0.5;" width="214" x="266.5" y="317"/><ellipse cx="320.75" cy="333" fill="#ADD1B2" rx="11" ry="11" style="stroke:#181818;stroke-width:1.0;"/><path d="M323.5156,328.875 Q323.6719,328.6563 323.8594,328.5469 Q324.0469,328.4375 324.2656,328.4375 Q324.6406,328.4375 324.875,328.7031 Q325.1094,328.9531 325.1094,329.5625 L325.1094,331.0156 Q325.1094,331.625 324.875,331.8906 Q324.6406,332.1563 324.2656,332.1563 Q323.9219,332.1563 323.7188,331.9531 Q323.5156,331.7656 323.4063,331.25 Q323.3594,330.8906 323.1719,330.7031 Q322.8438,330.3281 322.2344,330.1094 Q321.625,329.8906 321,329.8906 Q320.2344,329.8906 319.5938,330.2188 Q318.9688,330.5469 318.4688,331.2969 Q317.9844,332.0469 317.9844,333.0781 L317.9844,334.1719 Q317.9844,335.4063 318.875,336.2344 Q319.7656,337.0469 321.3594,337.0469 Q322.2969,337.0469 322.9531,336.7969 Q323.3438,336.6406 323.7656,336.2031 Q324.0313,335.9375 324.1719,335.8594 Q324.3281,335.7813 324.5313,335.7813 Q324.8594,335.7813 325.1094,336.0469 Q325.375,336.2969 325.375,336.6406 Q325.375,336.9844 325.0313,337.3906 Q324.5313,337.9688 323.7344,338.2969 Q322.6563,338.75 321.3594,338.75 Q319.8438,338.75 318.6406,338.125 Q317.6563,337.625 316.9688,336.5625 Q316.2813,335.4844 316.2813,334.2031 L316.2813,333.0469 Q316.2813,331.7188 316.8906,330.5781 Q317.5156,329.4219 318.6094,328.8125 Q319.7031,328.1875 320.9375,328.1875 Q321.6719,328.1875 322.3125,328.3594 Q322.9688,328.5156 323.5156,328.875 Z " fill="#000000"/><text fill="#000000" font-family="sans-serif" font-size="14" lengthAdjust="spacing" textLength="97" x="341.25" y="337.8535">PurchaseOrder</text><line style="stroke:#181818;stroke-width:0.5;" x1="267.5" x2="479.5" y1="349" y2="349"/><text fill="#000000" font-family="sans-serif" font-size="14" lengthAdjust="spacing" textLength="140" x="272.5" y="365.6738">-Double orderAmount;</text><text fill="#000000" font-family="sans-serif" font-size="14" lengthAdjust="spacing" textLength="202" x="272.5" y="381.3145">-Announcement announcement;</text><text fill="#000000" font-family="sans-serif" font-size="14" lengthAdjust="spacing" textLength="82" x="272.5" y="396.9551">-Client client;</text><text fill="#000000" font-family="sans-serif" font-size="14" lengthAdjust="spacing" textLength="140" x="272.5" y="412.5957">-Integer wasAccepted;</text><text fill="#000000" font-family="sans-serif" font-size="14" lengthAdjust="spacing" textLength="151" x="272.5" y="428.2363">-DateTime creationDate</text><line style="stroke:#181818;stroke-width:0.5;" x1="267.5" x2="479.5" y1="435.2031" y2="435.2031"/></g><!--class BubbleSort--><g id="elem_BubbleSort"><rect codeLine="42" fill="#F1F1F1" filter="url(#f1p8tx8924mldw)" height="63.6406" id="BubbleSort" rx="2.5" ry="2.5" style="stroke:#181818;stroke-width:0.5;" width="127" x="507" y="177.5"/><ellipse cx="533.25" cy="193.5" fill="#ADD1B2" rx="11" ry="11" style="stroke:#181818;stroke-width:1.0;"/><path d="M536.0156,189.375 Q536.1719,189.1563 536.3594,189.0469 Q536.5469,188.9375 536.7656,188.9375 Q537.1406,188.9375 537.375,189.2031 Q537.6094,189.4531 537.6094,190.0625 L537.6094,191.5156 Q537.6094,192.125 537.375,192.3906 Q537.1406,192.6563 536.7656,192.6563 Q536.4219,192.6563 536.2188,192.4531 Q536.0156,192.2656 535.9063,191.75 Q535.8594,191.3906 535.6719,191.2031 Q535.3438,190.8281 534.7344,190.6094 Q534.125,190.3906 533.5,190.3906 Q532.7344,190.3906 532.0938,190.7188 Q531.4688,191.0469 530.9688,191.7969 Q530.4844,192.5469 530.4844,193.5781 L530.4844,194.6719 Q530.4844,195.9063 531.375,196.7344 Q532.2656,197.5469 533.8594,197.5469 Q534.7969,197.5469 535.4531,197.2969 Q535.8438,197.1406 536.2656,196.7031 Q536.5313,196.4375 536.6719,196.3594 Q536.8281,196.2813 537.0313,196.2813 Q537.3594,196.2813 537.6094,196.5469 Q537.875,196.7969 537.875,197.1406 Q537.875,197.4844 537.5313,197.8906 Q537.0313,198.4688 536.2344,198.7969 Q535.1563,199.25 533.8594,199.25 Q532.3438,199.25 531.1406,198.625 Q530.1563,198.125 529.4688,197.0625 Q528.7813,195.9844 528.7813,194.7031 L528.7813,193.5469 Q528.7813,192.2188 529.3906,191.0781 Q530.0156,189.9219 531.1094,189.3125 Q532.2031,188.6875 533.4375,188.6875 Q534.1719,188.6875 534.8125,188.8594 Q535.4688,189.0156 536.0156,189.375 Z " fill="#000000"/><text fill="#000000" font-family="sans-serif" font-size="14" lengthAdjust="spacing" textLength="70" x="549.75" y="198.3535">BubbleSort</text><line style="stroke:#181818;stroke-width:0.5;" x1="508" x2="633" y1="209.5" y2="209.5"/><line style="stroke:#181818;stroke-width:0.5;" x1="508" x2="633" y1="217.5" y2="217.5"/><text fill="#000000" font-family="sans-serif" font-size="14" lengthAdjust="spacing" textLength="115" x="513" y="234.1738">+sort(double[] arr)</text></g><!--class InsertionSort--><g id="elem_InsertionSort"><rect codeLine="47" fill="#F1F1F1" filter="url(#f1p8tx8924mldw)" height="63.6406" id="InsertionSort" rx="2.5" ry="2.5" style="stroke:#181818;stroke-width:0.5;" width="127" x="669" y="177.5"/><ellipse cx="690.75" cy="193.5" fill="#ADD1B2" rx="11" ry="11" style="stroke:#181818;stroke-width:1.0;"/><path d="M693.5156,189.375 Q693.6719,189.1563 693.8594,189.0469 Q694.0469,188.9375 694.2656,188.9375 Q694.6406,188.9375 694.875,189.2031 Q695.1094,189.4531 695.1094,190.0625 L695.1094,191.5156 Q695.1094,192.125 694.875,192.3906 Q694.6406,192.6563 694.2656,192.6563 Q693.9219,192.6563 693.7188,192.4531 Q693.5156,192.2656 693.4063,191.75 Q693.3594,191.3906 693.1719,191.2031 Q692.8438,190.8281 692.2344,190.6094 Q691.625,190.3906 691,190.3906 Q690.2344,190.3906 689.5938,190.7188 Q688.9688,191.0469 688.4688,191.7969 Q687.9844,192.5469 687.9844,193.5781 L687.9844,194.6719 Q687.9844,195.9063 688.875,196.7344 Q689.7656,197.5469 691.3594,197.5469 Q692.2969,197.5469 692.9531,197.2969 Q693.3438,197.1406 693.7656,196.7031 Q694.0313,196.4375 694.1719,196.3594 Q694.3281,196.2813 694.5313,196.2813 Q694.8594,196.2813 695.1094,196.5469 Q695.375,196.7969 695.375,197.1406 Q695.375,197.4844 695.0313,197.8906 Q694.5313,198.4688 693.7344,198.7969 Q692.6563,199.25 691.3594,199.25 Q689.8438,199.25 688.6406,198.625 Q687.6563,198.125 686.9688,197.0625 Q686.2813,195.9844 686.2813,194.7031 L686.2813,193.5469 Q686.2813,192.2188 686.8906,191.0781 Q687.5156,189.9219 688.6094,189.3125 Q689.7031,188.6875 690.9375,188.6875 Q691.6719,188.6875 692.3125,188.8594 Q692.9688,189.0156 693.5156,189.375 Z " fill="#000000"/><text fill="#000000" font-family="sans-serif" font-size="14" lengthAdjust="spacing" textLength="80" x="706.25" y="198.3535">InsertionSort</text><line style="stroke:#181818;stroke-width:0.5;" x1="670" x2="795" y1="209.5" y2="209.5"/><line style="stroke:#181818;stroke-width:0.5;" x1="670" x2="795" y1="217.5" y2="217.5"/><text fill="#000000" font-family="sans-serif" font-size="14" lengthAdjust="spacing" textLength="115" x="675" y="234.1738">+sort(double[] arr)</text></g><!--link Repositories to Repositories--><g id="link_Repositories_Repositories"><path codeLine="59" d="M208.83,161.74 C208.83,145.79 208.83,132 208.83,132 C208.83,132 244.25,132 244.25,132 C244.25,132 244.25,287 244.25,287 C244.25,287 114.5,287 114.5,287 C114.5,287 114.5,262.26 114.5,262.26 " fill="none" id="Repositories-to-Repositories" style="stroke:#181818;stroke-width:1.0;"/><polygon fill="#181818" points="114.5,257.26,110.5,266.26,114.5,262.26,118.5,266.26,114.5,257.26" style="stroke:#181818;stroke-width:1.0;"/><text fill="#000000" font-family="sans-serif" font-size="13" lengthAdjust="spacing" textLength="49" x="250.25" y="271.9386">instance</text></g><!--link GetDealListUI to GetDealListController--><g id="link_GetDealListUI_GetDealListController"><path codeLine="61" d="M300.73,55 C300.73,55 330.12,55 330.12,55 " fill="none" id="GetDealListUI-to-GetDealListController" style="stroke:#181818;stroke-width:1.0;stroke-dasharray:7.0,7.0;"/><polygon fill="#181818" points="335.12,55,326.12,51,330.12,55,326.12,59,335.12,55" style="stroke:#181818;stroke-width:1.0;"/></g><!--link GetDealListController to Repositories--><g id="link_GetDealListController_Repositories"><path codeLine="63" d="M335.2,91 C265.71,91 195.67,91 195.67,91 C195.67,91 195.67,156.98 195.67,156.98 " fill="none" id="GetDealListController-to-Repositories" style="stroke:#181818;stroke-width:1.0;stroke-dasharray:7.0,7.0;"/><polygon fill="#181818" points="195.67,161.98,199.67,152.98,195.67,156.98,191.67,152.98,195.67,161.98" style="stroke:#181818;stroke-width:1.0;"/><text fill="#000000" font-family="sans-serif" font-size="13" lengthAdjust="spacing" textLength="67" x="164.44" y="103.7686">repositories</text></g><!--link GetDealListController to PurchaseOrderRepository--><g id="link_GetDealListController_PurchaseOrderRepository"><path codeLine="65" d="M403.75,102.27 C403.75,102.27 403.75,172.33 403.75,172.33 " fill="none" id="GetDealListController-to-PurchaseOrderRepository" style="stroke:#181818;stroke-width:1.0;"/><polygon fill="#181818" points="403.75,177.33,407.75,168.33,403.75,172.33,399.75,168.33,403.75,177.33" style="stroke:#181818;stroke-width:1.0;"/></g><!--link GetDealListController to BubbleSort--><g id="link_GetDealListController_BubbleSort"><path codeLine="67" d="M557.25,102.27 C557.25,102.27 557.25,172.33 557.25,172.33 " fill="none" id="GetDealListController-to-BubbleSort" style="stroke:#181818;stroke-width:1.0;"/><polygon fill="#181818" points="557.25,177.33,561.25,168.33,557.25,172.33,553.25,168.33,557.25,177.33" style="stroke:#181818;stroke-width:1.0;"/></g><!--link GetDealListController to InsertionSort--><g id="link_GetDealListController_InsertionSort"><path codeLine="69" d="M607.73,55 C671.02,55 732.5,55 732.5,55 C732.5,55 732.5,172.49 732.5,172.49 " fill="none" id="GetDealListController-to-InsertionSort" style="stroke:#181818;stroke-width:1.0;"/><polygon fill="#181818" points="732.5,177.49,736.5,168.49,732.5,172.49,728.5,168.49,732.5,177.49" style="stroke:#181818;stroke-width:1.0;"/></g><!--link PurchaseOrderRepository to PurchaseOrder--><g id="link_PurchaseOrderRepository_PurchaseOrder"><path codeLine="71" d="M373.5,241.57 C373.5,241.57 373.5,311.99 373.5,311.99 " fill="none" id="PurchaseOrderRepository-to-PurchaseOrder" style="stroke:#181818;stroke-width:1.0;"/><polygon fill="#181818" points="373.5,316.99,377.5,307.99,373.5,311.99,369.5,307.99,373.5,316.99" style="stroke:#181818;stroke-width:1.0;"/></g><!--SRC=[VLB1JiCm3BtdAtpR9ZJ46IIamGIQXCJ4u8GuPAbf8zAuSbnD0_7lfDswjcnTBqtydfENzpmANzONcdKEENao6LEE85oYQf52co-Tuags3e7HYFQfwn92fXFQM9_-xtJMesmB16B9I8rE8wHKfySu7S9CXEsw55mOyYlxZN2brCZXfu0Gi4qpWSHMMYnvfUeUW4UKEMhtP8EyBU17_JP81xWdBqpE8KS205n0kWF3CoV8uycXU5UkrmvNKI2C4ohZ-lq3DADUCXN8icsf2nzY8Kevouvo6a4lM52mGcmnx7J0j5VSwJYS7YqtE9x0TO_KKfObcqm7hDzme6p7azQ30Se_4nxY03H63FGsSkVrAsE0iJRBgVHoiqTctiUjmHozWEvi6iAzinLawbzJN7Z1DCQoqM5c31Q2IGFDjU2hZPDfeg6LprMXbTSczREt9CHrDmRklgQNrfaEg0FRVRt0fjFRVeBNOFSPATKVmilRqyFNutLcylBuQEucFj1MAHe8-5nBQzmvLiylfGRkETPG-VO7]--></g></svg>