<?xml version="1.0" encoding="us-ascii" standalone="no"?><svg xmlns="http://www.w3.org/2000/svg" xmlns:xlink="http://www.w3.org/1999/xlink" contentStyleType="text/css" height="486px" preserveAspectRatio="none" style="width:886px;height:486px;background:#FFFFFF;" version="1.1" viewBox="0 0 886 486" width="886px" zoomAndPan="magnify"><defs><filter height="300%" id="fnbi3moz6l5g4" width="300%" x="-1" y="-1"><feGaussianBlur result="blurOut" stdDeviation="2.0"/><feColorMatrix in="blurOut" result="blurOut2" type="matrix" values="0 0 0 0 0 0 0 0 0 0 0 0 0 0 0 0 0 0 .4 0"/><feOffset dx="4.0" dy="4.0" in="blurOut2" result="blurOut3"/><feBlend in="SourceGraphic" in2="blurOut3" mode="normal"/></filter></defs><g><!--class GetDealListUI--><g id="elem_GetDealListUI"><rect codeLine="12" fill="#F1F1F1" filter="url(#fnbi3moz6l5g4)" height="48" id="GetDealListUI" rx="2.5" ry="2.5" style="stroke:#181818;stroke-width:0.5;" width="118" x="93.5" y="46"/><ellipse cx="108.5" cy="62" fill="#ADD1B2" rx="11" ry="11" style="stroke:#181818;stroke-width:1.0;"/><path d="M111.2656,57.875 Q111.4219,57.6563 111.6094,57.5469 Q111.7969,57.4375 112.0156,57.4375 Q112.3906,57.4375 112.625,57.7031 Q112.8594,57.9531 112.8594,58.5625 L112.8594,60.0156 Q112.8594,60.625 112.625,60.8906 Q112.3906,61.1563 112.0156,61.1563 Q111.6719,61.1563 111.4688,60.9531 Q111.2656,60.7656 111.1563,60.25 Q111.1094,59.8906 110.9219,59.7031 Q110.5938,59.3281 109.9844,59.1094 Q109.375,58.8906 108.75,58.8906 Q107.9844,58.8906 107.3438,59.2188 Q106.7188,59.5469 106.2188,60.2969 Q105.7344,61.0469 105.7344,62.0781 L105.7344,63.1719 Q105.7344,64.4063 106.625,65.2344 Q107.5156,66.0469 109.1094,66.0469 Q110.0469,66.0469 110.7031,65.7969 Q111.0938,65.6406 111.5156,65.2031 Q111.7813,64.9375 111.9219,64.8594 Q112.0781,64.7813 112.2813,64.7813 Q112.6094,64.7813 112.8594,65.0469 Q113.125,65.2969 113.125,65.6406 Q113.125,65.9844 112.7813,66.3906 Q112.2813,66.9688 111.4844,67.2969 Q110.4063,67.75 109.1094,67.75 Q107.5938,67.75 106.3906,67.125 Q105.4063,66.625 104.7188,65.5625 Q104.0313,64.4844 104.0313,63.2031 L104.0313,62.0469 Q104.0313,60.7188 104.6406,59.5781 Q105.2656,58.4219 106.3594,57.8125 Q107.4531,57.1875 108.6875,57.1875 Q109.4219,57.1875 110.0625,57.3594 Q110.7188,57.5156 111.2656,57.875 Z " fill="#000000"/><text fill="#000000" font-family="sans-serif" font-size="14" lengthAdjust="spacing" textLength="86" x="122.5" y="66.8535">GetDealListUI</text><line style="stroke:#181818;stroke-width:0.5;" x1="94.5" x2="210.5" y1="78" y2="78"/><line style="stroke:#181818;stroke-width:0.5;" x1="94.5" x2="210.5" y1="86" y2="86"/></g><!--class GetDealListController--><g id="elem_GetDealListController"><rect codeLine="15" fill="#F1F1F1" filter="url(#fnbi3moz6l5g4)" height="126.2031" id="GetDealListController" rx="2.5" ry="2.5" style="stroke:#181818;stroke-width:0.5;" width="467" x="247" y="7"/><ellipse cx="408.25" cy="23" fill="#ADD1B2" rx="11" ry="11" style="stroke:#181818;stroke-width:1.0;"/><path d="M411.0156,18.875 Q411.1719,18.6563 411.3594,18.5469 Q411.5469,18.4375 411.7656,18.4375 Q412.1406,18.4375 412.375,18.7031 Q412.6094,18.9531 412.6094,19.5625 L412.6094,21.0156 Q412.6094,21.625 412.375,21.8906 Q412.1406,22.1563 411.7656,22.1563 Q411.4219,22.1563 411.2188,21.9531 Q411.0156,21.7656 410.9063,21.25 Q410.8594,20.8906 410.6719,20.7031 Q410.3438,20.3281 409.7344,20.1094 Q409.125,19.8906 408.5,19.8906 Q407.7344,19.8906 407.0938,20.2188 Q406.4688,20.5469 405.9688,21.2969 Q405.4844,22.0469 405.4844,23.0781 L405.4844,24.1719 Q405.4844,25.4063 406.375,26.2344 Q407.2656,27.0469 408.8594,27.0469 Q409.7969,27.0469 410.4531,26.7969 Q410.8438,26.6406 411.2656,26.2031 Q411.5313,25.9375 411.6719,25.8594 Q411.8281,25.7813 412.0313,25.7813 Q412.3594,25.7813 412.6094,26.0469 Q412.875,26.2969 412.875,26.6406 Q412.875,26.9844 412.5313,27.3906 Q412.0313,27.9688 411.2344,28.2969 Q410.1563,28.75 408.8594,28.75 Q407.3438,28.75 406.1406,28.125 Q405.1563,27.625 404.4688,26.5625 Q403.7813,25.4844 403.7813,24.2031 L403.7813,23.0469 Q403.7813,21.7188 404.3906,20.5781 Q405.0156,19.4219 406.1094,18.8125 Q407.2031,18.1875 408.4375,18.1875 Q409.1719,18.1875 409.8125,18.3594 Q410.4688,18.5156 411.0156,18.875 Z " fill="#000000"/><text fill="#000000" font-family="sans-serif" font-size="14" lengthAdjust="spacing" textLength="136" x="428.75" y="27.8535">GetDealListController</text><line style="stroke:#181818;stroke-width:0.5;" x1="248" x2="713" y1="39" y2="39"/><line style="stroke:#181818;stroke-width:0.5;" x1="248" x2="713" y1="47" y2="47"/><text fill="#000000" font-family="sans-serif" font-size="14" lengthAdjust="spacing" textLength="111" x="253" y="63.6738">+getDealsOrder()</text><text fill="#000000" font-family="sans-serif" font-size="14" lengthAdjust="spacing" textLength="250" x="253" y="79.3145">+getBubbleSort (double[] areaProperty)</text><text fill="#000000" font-family="sans-serif" font-size="14" lengthAdjust="spacing" textLength="260" x="253" y="94.9551">+getInsertionSort (double[] areaProperty)</text><text fill="#000000" font-family="sans-serif" font-size="14" lengthAdjust="spacing" textLength="312" x="253" y="110.5957">+sortDeals(List&lt;Property&gt; properties, int method)</text><text fill="#000000" font-family="sans-serif" font-size="14" lengthAdjust="spacing" textLength="455" x="253" y="126.2363">+getPropertySorted (List&lt;Property&gt; propertyList ,double[] areaProperty)</text></g><!--class Repositories--><g id="elem_Repositories"><rect codeLine="25" fill="#F1F1F1" filter="url(#fnbi3moz6l5g4)" height="94.9219" id="Repositories" rx="2.5" ry="2.5" style="stroke:#181818;stroke-width:0.5;" width="215" x="7" y="193"/><ellipse cx="70.75" cy="209" fill="#ADD1B2" rx="11" ry="11" style="stroke:#181818;stroke-width:1.0;"/><path d="M73.5156,204.875 Q73.6719,204.6563 73.8594,204.5469 Q74.0469,204.4375 74.2656,204.4375 Q74.6406,204.4375 74.875,204.7031 Q75.1094,204.9531 75.1094,205.5625 L75.1094,207.0156 Q75.1094,207.625 74.875,207.8906 Q74.6406,208.1563 74.2656,208.1563 Q73.9219,208.1563 73.7188,207.9531 Q73.5156,207.7656 73.4063,207.25 Q73.3594,206.8906 73.1719,206.7031 Q72.8438,206.3281 72.2344,206.1094 Q71.625,205.8906 71,205.8906 Q70.2344,205.8906 69.5938,206.2188 Q68.9688,206.5469 68.4688,207.2969 Q67.9844,208.0469 67.9844,209.0781 L67.9844,210.1719 Q67.9844,211.4063 68.875,212.2344 Q69.7656,213.0469 71.3594,213.0469 Q72.2969,213.0469 72.9531,212.7969 Q73.3438,212.6406 73.7656,212.2031 Q74.0313,211.9375 74.1719,211.8594 Q74.3281,211.7813 74.5313,211.7813 Q74.8594,211.7813 75.1094,212.0469 Q75.375,212.2969 75.375,212.6406 Q75.375,212.9844 75.0313,213.3906 Q74.5313,213.9688 73.7344,214.2969 Q72.6563,214.75 71.3594,214.75 Q69.8438,214.75 68.6406,214.125 Q67.6563,213.625 66.9688,212.5625 Q66.2813,211.4844 66.2813,210.2031 L66.2813,209.0469 Q66.2813,207.7188 66.8906,206.5781 Q67.5156,205.4219 68.6094,204.8125 Q69.7031,204.1875 70.9375,204.1875 Q71.6719,204.1875 72.3125,204.3594 Q72.9688,204.5156 73.5156,204.875 Z " fill="#000000"/><text fill="#000000" font-family="sans-serif" font-size="14" lengthAdjust="spacing" textLength="79" x="91.25" y="213.8535">Repositories</text><line style="stroke:#181818;stroke-width:0.5;" x1="8" x2="221" y1="225" y2="225"/><line style="stroke:#181818;stroke-width:0.5;" x1="8" x2="221" y1="233" y2="233"/><text fill="#000000" font-family="sans-serif" font-size="14" lengthAdjust="spacing" textLength="94" x="13" y="249.6738">-Repositories()</text><text fill="#000000" font-family="sans-serif" font-size="14" lengthAdjust="spacing" textLength="182" x="13" y="265.3145">+getInstance() : Repositories</text><text fill="#000000" font-family="sans-serif" font-size="14" lengthAdjust="spacing" textLength="203" x="13" y="280.9551">+getPurchaseOrderRepository()</text></g><!--class PurchaseOrderRepository--><g id="elem_PurchaseOrderRepository"><rect codeLine="31" fill="#F1F1F1" filter="url(#fnbi3moz6l5g4)" height="63.6406" id="PurchaseOrderRepository" rx="2.5" ry="2.5" style="stroke:#181818;stroke-width:0.5;" width="197" x="275" y="208.5"/><ellipse cx="290" cy="224.5" fill="#ADD1B2" rx="11" ry="11" style="stroke:#181818;stroke-width:1.0;"/><path d="M292.7656,220.375 Q292.9219,220.1563 293.1094,220.0469 Q293.2969,219.9375 293.5156,219.9375 Q293.8906,219.9375 294.125,220.2031 Q294.3594,220.4531 294.3594,221.0625 L294.3594,222.5156 Q294.3594,223.125 294.125,223.3906 Q293.8906,223.6563 293.5156,223.6563 Q293.1719,223.6563 292.9688,223.4531 Q292.7656,223.2656 292.6563,222.75 Q292.6094,222.3906 292.4219,222.2031 Q292.0938,221.8281 291.4844,221.6094 Q290.875,221.3906 290.25,221.3906 Q289.4844,221.3906 288.8438,221.7188 Q288.2188,222.0469 287.7188,222.7969 Q287.2344,223.5469 287.2344,224.5781 L287.2344,225.6719 Q287.2344,226.9063 288.125,227.7344 Q289.0156,228.5469 290.6094,228.5469 Q291.5469,228.5469 292.2031,228.2969 Q292.5938,228.1406 293.0156,227.7031 Q293.2813,227.4375 293.4219,227.3594 Q293.5781,227.2813 293.7813,227.2813 Q294.1094,227.2813 294.3594,227.5469 Q294.625,227.7969 294.625,228.1406 Q294.625,228.4844 294.2813,228.8906 Q293.7813,229.4688 292.9844,229.7969 Q291.9063,230.25 290.6094,230.25 Q289.0938,230.25 287.8906,229.625 Q286.9063,229.125 286.2188,228.0625 Q285.5313,226.9844 285.5313,225.7031 L285.5313,224.5469 Q285.5313,223.2188 286.1406,222.0781 Q286.7656,220.9219 287.8594,220.3125 Q288.9531,219.6875 290.1875,219.6875 Q290.9219,219.6875 291.5625,219.8594 Q292.2188,220.0156 292.7656,220.375 Z " fill="#000000"/><text fill="#000000" font-family="sans-serif" font-size="14" lengthAdjust="spacing" textLength="165" x="304" y="229.3535">PurchaseOrderRepository</text><line style="stroke:#181818;stroke-width:0.5;" x1="276" x2="471" y1="240.5" y2="240.5"/><line style="stroke:#181818;stroke-width:0.5;" x1="276" x2="471" y1="248.5" y2="248.5"/><text fill="#000000" font-family="sans-serif" font-size="14" lengthAdjust="spacing" textLength="144" x="281" y="265.1738">+getDealsFromOrder()</text></g><!--class PurchaseOrder--><g id="elem_PurchaseOrder"><rect codeLine="36" fill="#F1F1F1" filter="url(#fnbi3moz6l5g4)" height="126.2031" id="PurchaseOrder" rx="2.5" ry="2.5" style="stroke:#181818;stroke-width:0.5;" width="214" x="266.5" y="348"/><ellipse cx="320.75" cy="364" fill="#ADD1B2" rx="11" ry="11" style="stroke:#181818;stroke-width:1.0;"/><path d="M323.5156,359.875 Q323.6719,359.6563 323.8594,359.5469 Q324.0469,359.4375 324.2656,359.4375 Q324.6406,359.4375 324.875,359.7031 Q325.1094,359.9531 325.1094,360.5625 L325.1094,362.0156 Q325.1094,362.625 324.875,362.8906 Q324.6406,363.1563 324.2656,363.1563 Q323.9219,363.1563 323.7188,362.9531 Q323.5156,362.7656 323.4063,362.25 Q323.3594,361.8906 323.1719,361.7031 Q322.8438,361.3281 322.2344,361.1094 Q321.625,360.8906 321,360.8906 Q320.2344,360.8906 319.5938,361.2188 Q318.9688,361.5469 318.4688,362.2969 Q317.9844,363.0469 317.9844,364.0781 L317.9844,365.1719 Q317.9844,366.4063 318.875,367.2344 Q319.7656,368.0469 321.3594,368.0469 Q322.2969,368.0469 322.9531,367.7969 Q323.3438,367.6406 323.7656,367.2031 Q324.0313,366.9375 324.1719,366.8594 Q324.3281,366.7813 324.5313,366.7813 Q324.8594,366.7813 325.1094,367.0469 Q325.375,367.2969 325.375,367.6406 Q325.375,367.9844 325.0313,368.3906 Q324.5313,368.9688 323.7344,369.2969 Q322.6563,369.75 321.3594,369.75 Q319.8438,369.75 318.6406,369.125 Q317.6563,368.625 316.9688,367.5625 Q316.2813,366.4844 316.2813,365.2031 L316.2813,364.0469 Q316.2813,362.7188 316.8906,361.5781 Q317.5156,360.4219 318.6094,359.8125 Q319.7031,359.1875 320.9375,359.1875 Q321.6719,359.1875 322.3125,359.3594 Q322.9688,359.5156 323.5156,359.875 Z " fill="#000000"/><text fill="#000000" font-family="sans-serif" font-size="14" lengthAdjust="spacing" textLength="97" x="341.25" y="368.8535">PurchaseOrder</text><line style="stroke:#181818;stroke-width:0.5;" x1="267.5" x2="479.5" y1="380" y2="380"/><text fill="#000000" font-family="sans-serif" font-size="14" lengthAdjust="spacing" textLength="140" x="272.5" y="396.6738">-Double orderAmount;</text><text fill="#000000" font-family="sans-serif" font-size="14" lengthAdjust="spacing" textLength="202" x="272.5" y="412.3145">-Announcement announcement;</text><text fill="#000000" font-family="sans-serif" font-size="14" lengthAdjust="spacing" textLength="82" x="272.5" y="427.9551">-Client client;</text><text fill="#000000" font-family="sans-serif" font-size="14" lengthAdjust="spacing" textLength="140" x="272.5" y="443.5957">-Integer wasAccepted;</text><text fill="#000000" font-family="sans-serif" font-size="14" lengthAdjust="spacing" textLength="151" x="272.5" y="459.2363">-DateTime creationDate</text><line style="stroke:#181818;stroke-width:0.5;" x1="267.5" x2="479.5" y1="466.2031" y2="466.2031"/></g><!--class BubbleSortAlgorithm--><g id="elem_BubbleSortAlgorithm"><rect codeLine="44" fill="#F1F1F1" filter="url(#fnbi3moz6l5g4)" height="63.6406" id="BubbleSortAlgorithm" rx="2.5" ry="2.5" style="stroke:#181818;stroke-width:0.5;" width="161" x="507" y="208.5"/><ellipse cx="522" cy="224.5" fill="#ADD1B2" rx="11" ry="11" style="stroke:#181818;stroke-width:1.0;"/><path d="M524.7656,220.375 Q524.9219,220.1563 525.1094,220.0469 Q525.2969,219.9375 525.5156,219.9375 Q525.8906,219.9375 526.125,220.2031 Q526.3594,220.4531 526.3594,221.0625 L526.3594,222.5156 Q526.3594,223.125 526.125,223.3906 Q525.8906,223.6563 525.5156,223.6563 Q525.1719,223.6563 524.9688,223.4531 Q524.7656,223.2656 524.6563,222.75 Q524.6094,222.3906 524.4219,222.2031 Q524.0938,221.8281 523.4844,221.6094 Q522.875,221.3906 522.25,221.3906 Q521.4844,221.3906 520.8438,221.7188 Q520.2188,222.0469 519.7188,222.7969 Q519.2344,223.5469 519.2344,224.5781 L519.2344,225.6719 Q519.2344,226.9063 520.125,227.7344 Q521.0156,228.5469 522.6094,228.5469 Q523.5469,228.5469 524.2031,228.2969 Q524.5938,228.1406 525.0156,227.7031 Q525.2813,227.4375 525.4219,227.3594 Q525.5781,227.2813 525.7813,227.2813 Q526.1094,227.2813 526.3594,227.5469 Q526.625,227.7969 526.625,228.1406 Q526.625,228.4844 526.2813,228.8906 Q525.7813,229.4688 524.9844,229.7969 Q523.9063,230.25 522.6094,230.25 Q521.0938,230.25 519.8906,229.625 Q518.9063,229.125 518.2188,228.0625 Q517.5313,226.9844 517.5313,225.7031 L517.5313,224.5469 Q517.5313,223.2188 518.1406,222.0781 Q518.7656,220.9219 519.8594,220.3125 Q520.9531,219.6875 522.1875,219.6875 Q522.9219,219.6875 523.5625,219.8594 Q524.2188,220.0156 524.7656,220.375 Z " fill="#000000"/><text fill="#000000" font-family="sans-serif" font-size="14" lengthAdjust="spacing" textLength="129" x="536" y="229.3535">BubbleSortAlgorithm</text><line style="stroke:#181818;stroke-width:0.5;" x1="508" x2="667" y1="240.5" y2="240.5"/><line style="stroke:#181818;stroke-width:0.5;" x1="508" x2="667" y1="248.5" y2="248.5"/><text fill="#000000" font-family="sans-serif" font-size="14" lengthAdjust="spacing" textLength="115" x="513" y="265.1738">+sort(double[] arr)</text></g><!--class InsertionSortAlgorithm--><g id="elem_InsertionSortAlgorithm"><rect codeLine="49" fill="#F1F1F1" filter="url(#fnbi3moz6l5g4)" height="63.6406" id="InsertionSortAlgorithm" rx="2.5" ry="2.5" style="stroke:#181818;stroke-width:0.5;" width="171" x="703" y="208.5"/><ellipse cx="718" cy="224.5" fill="#ADD1B2" rx="11" ry="11" style="stroke:#181818;stroke-width:1.0;"/><path d="M720.7656,220.375 Q720.9219,220.1563 721.1094,220.0469 Q721.2969,219.9375 721.5156,219.9375 Q721.8906,219.9375 722.125,220.2031 Q722.3594,220.4531 722.3594,221.0625 L722.3594,222.5156 Q722.3594,223.125 722.125,223.3906 Q721.8906,223.6563 721.5156,223.6563 Q721.1719,223.6563 720.9688,223.4531 Q720.7656,223.2656 720.6563,222.75 Q720.6094,222.3906 720.4219,222.2031 Q720.0938,221.8281 719.4844,221.6094 Q718.875,221.3906 718.25,221.3906 Q717.4844,221.3906 716.8438,221.7188 Q716.2188,222.0469 715.7188,222.7969 Q715.2344,223.5469 715.2344,224.5781 L715.2344,225.6719 Q715.2344,226.9063 716.125,227.7344 Q717.0156,228.5469 718.6094,228.5469 Q719.5469,228.5469 720.2031,228.2969 Q720.5938,228.1406 721.0156,227.7031 Q721.2813,227.4375 721.4219,227.3594 Q721.5781,227.2813 721.7813,227.2813 Q722.1094,227.2813 722.3594,227.5469 Q722.625,227.7969 722.625,228.1406 Q722.625,228.4844 722.2813,228.8906 Q721.7813,229.4688 720.9844,229.7969 Q719.9063,230.25 718.6094,230.25 Q717.0938,230.25 715.8906,229.625 Q714.9063,229.125 714.2188,228.0625 Q713.5313,226.9844 713.5313,225.7031 L713.5313,224.5469 Q713.5313,223.2188 714.1406,222.0781 Q714.7656,220.9219 715.8594,220.3125 Q716.9531,219.6875 718.1875,219.6875 Q718.9219,219.6875 719.5625,219.8594 Q720.2188,220.0156 720.7656,220.375 Z " fill="#000000"/><text fill="#000000" font-family="sans-serif" font-size="14" lengthAdjust="spacing" textLength="139" x="732" y="229.3535">InsertionSortAlgorithm</text><line style="stroke:#181818;stroke-width:0.5;" x1="704" x2="873" y1="240.5" y2="240.5"/><line style="stroke:#181818;stroke-width:0.5;" x1="704" x2="873" y1="248.5" y2="248.5"/><text fill="#000000" font-family="sans-serif" font-size="14" lengthAdjust="spacing" textLength="115" x="709" y="265.1738">+sort(double[] arr)</text></g><!--link Repositories to Repositories--><g id="link_Repositories_Repositories"><path codeLine="61" d="M216.75,192.74 C216.75,176.79 216.75,163 216.75,163 C216.75,163 234.5,163 234.5,163 C234.5,163 234.5,318 234.5,318 C234.5,318 114.5,318 114.5,318 C114.5,318 114.5,310.21 114.5,294.26 " fill="none" id="Repositories-to-Repositories" style="stroke:#181818;stroke-width:1.0;"/><polygon fill="#181818" points="114.5,288.26,110.5,297.26,114.5,293.26,118.5,297.26,114.5,288.26" style="stroke:#181818;stroke-width:1.0;"/><text fill="#000000" font-family="sans-serif" font-size="13" lengthAdjust="spacing" textLength="49" x="179.5" y="309.3886">instance</text></g><!--link GetDealListUI to GetDealListController--><g id="link_GetDealListUI_GetDealListController"><path codeLine="63" d="M211.52,70 C222.4,70 228.35,70 240.97,70 " fill="none" id="GetDealListUI-to-GetDealListController" style="stroke:#181818;stroke-width:1.0;stroke-dasharray:7.0,7.0;"/><polygon fill="#181818" points="246.97,70,237.97,66,241.97,70,237.97,74,246.97,70" style="stroke:#181818;stroke-width:1.0;"/></g><!--link GetDealListController to Repositories--><g id="link_GetDealListController_Repositories"><path codeLine="65" d="M256.75,133.2 C256.75,166.7 256.75,201 256.75,201 C256.75,201 248.16,201 228.32,201 " fill="none" id="GetDealListController-to-Repositories" style="stroke:#181818;stroke-width:1.0;stroke-dasharray:7.0,7.0;"/><polygon fill="#181818" points="222.32,201,231.32,205,227.32,201,231.32,197,222.32,201" style="stroke:#181818;stroke-width:1.0;"/><text fill="#000000" font-family="sans-serif" font-size="13" lengthAdjust="spacing" textLength="67" x="188.75" y="181.0886">repositories</text></g><!--link GetDealListController to PurchaseOrderRepository--><g id="link_GetDealListController_PurchaseOrderRepository"><path codeLine="67" d="M373.5,133 C373.5,158.62 373.5,181.11 373.5,202.32 " fill="none" id="GetDealListController-to-PurchaseOrderRepository" style="stroke:#181818;stroke-width:1.0;"/><polygon fill="#181818" points="373.5,208.32,377.5,199.32,373.5,203.32,369.5,199.32,373.5,208.32" style="stroke:#181818;stroke-width:1.0;"/></g><!--link GetDealListController to BubbleSortAlgorithm--><g id="link_GetDealListController_BubbleSortAlgorithm"><path codeLine="69" d="M587.5,133 C587.5,158.62 587.5,181.11 587.5,202.32 " fill="none" id="GetDealListController-to-BubbleSortAlgorithm" style="stroke:#181818;stroke-width:1.0;"/><polygon fill="#181818" points="587.5,208.32,591.5,199.32,587.5,203.32,583.5,199.32,587.5,208.32" style="stroke:#181818;stroke-width:1.0;"/></g><!--link GetDealListController to InsertionSortAlgorithm--><g id="link_GetDealListController_InsertionSortAlgorithm"><path codeLine="71" d="M708.5,133 C708.5,158.62 708.5,181.11 708.5,202.32 " fill="none" id="GetDealListController-to-InsertionSortAlgorithm" style="stroke:#181818;stroke-width:1.0;"/><polygon fill="#181818" points="708.5,208.32,712.5,199.32,708.5,203.32,704.5,199.32,708.5,208.32" style="stroke:#181818;stroke-width:1.0;"/></g><!--link PurchaseOrderRepository to PurchaseOrder--><g id="link_PurchaseOrderRepository_PurchaseOrder"><path codeLine="73" d="M373.5,272.57 C373.5,293.79 373.5,316.33 373.5,341.99 " fill="none" id="PurchaseOrderRepository-to-PurchaseOrder" style="stroke:#181818;stroke-width:1.0;"/><polygon fill="#181818" points="373.5,347.99,377.5,338.99,373.5,342.99,369.5,338.99,373.5,347.99" style="stroke:#181818;stroke-width:1.0;"/></g><!--SRC=[ZLF1Rjim3BthAtYBWpN5pbqHm6km8S205Kjt6dPGPCuMAak6HAFmYlvxARkAxJRkbajilaVpwJrg5UwrRQINDTJEEbLvLoEGRr6CI2FLlIpnG9r1yAX8sj9C2Q6IXNlGjdpTQRH5wXe4vwboOdKUSK9CUfIH8UH4NXzRmhrozg3_8dmKOcNm3m4vyBgi20eTjMXdXUXx0BuYxL2QRphGppqyYgU4J80RPyaxOz0p0G0-G3c0uRilq6VhK_5pUpmQFB10o0hNylElto0zobll6lJKZTIz3LnWAVzc1sRquxAevZgXMsY69utX0hGbg94jAyOPYHb7O04BxLqimyM20ZOaMV836nSqESy31oTWCoiEJfpEnw4hpDPmDIEDbDlMgqe6x5qyKRfiFQQmG7aLmnTUmHJ5Gc-Ik-jFoIl4jRnshQLFBqXkBRygh96Tb9ENHBWnEaAg_ql5lIKiUJ4UPCYLmePzJj1E4jvflXkA3Or9ny8eRzoLt9Ji35NruuitCV3fHlZfiMQByp-jq4Su_6OHRZRRUQPNl4L3QaBCByRbzlo5cF4cz-JoxQVzT0SMsgAYXSZVQpbZvNlqymuAiJ3vhQhev3C0]--></g></svg>