<?xml version="1.0" encoding="us-ascii" standalone="no"?><svg xmlns="http://www.w3.org/2000/svg" xmlns:xlink="http://www.w3.org/1999/xlink" contentStyleType="text/css" height="961px" preserveAspectRatio="none" style="width:890px;height:961px;background:#FFFFFF;" version="1.1" viewBox="0 0 890 961" width="890px" zoomAndPan="magnify"><defs/><g><rect fill="#FFFFFF" height="772.375" style="stroke:#181818;stroke-width:1.0;" width="10" x="58" y="90.6406"/><rect fill="#FFFFFF" height="210.6641" style="stroke:#181818;stroke-width:1.0;" width="10" x="498" y="111.1641"/><rect fill="#FFFFFF" height="111.5703" style="stroke:#181818;stroke-width:1.0;" width="10" x="498" y="350.3516"/><rect fill="#FFFFFF" height="372.5703" style="stroke:#181818;stroke-width:1.0;" width="10" x="498" y="490.4453"/><rect fill="#FFFFFF" height="71.4531" style="stroke:#181818;stroke-width:1.0;" width="10" x="792" y="180.3281"/><rect fill="#FFFFFF" height="71.4531" style="stroke:#181818;stroke-width:1.0;" width="10" x="792" y="584.0156"/><rect fill="#FFFFFF" height="71.4531" style="stroke:#181818;stroke-width:1.0;" width="10" x="792" y="714.5156"/><rect fill="none" height="116.5" style="stroke:#000000;stroke-width:1.5;" width="443" x="441" y="546.9688"/><rect fill="none" height="116.5" style="stroke:#000000;stroke-width:1.5;" width="443" x="441" y="677.4688"/><line style="stroke:#181818;stroke-width:0.5;stroke-dasharray:5.0,5.0;" x1="63" x2="63" y1="80.6406" y2="881.0156"/><line style="stroke:#181818;stroke-width:0.5;stroke-dasharray:5.0,5.0;" x1="503" x2="503" y1="80.6406" y2="881.0156"/><line style="stroke:#181818;stroke-width:0.5;stroke-dasharray:5.0,5.0;" x1="797" x2="797" y1="149.4844" y2="881.0156"/><text fill="#000000" font-family="sans-serif" font-size="14" lengthAdjust="spacing" textLength="110" x="5" y="77.6738">Network Manager</text><ellipse cx="63" cy="13.5" fill="#E3E3E3" rx="8" ry="8" style="stroke:#181818;stroke-width:0.5;"/><path d="M63,21.5 L63,48.5 M50,29.5 L76,29.5 M63,48.5 L50,63.5 M63,48.5 L76,63.5 " fill="none" style="stroke:#181818;stroke-width:0.5;"/><text fill="#000000" font-family="sans-serif" font-size="14" lengthAdjust="spacing" textLength="110" x="5" y="892.6895">Network Manager</text><ellipse cx="63" cy="904.1563" fill="#E3E3E3" rx="8" ry="8" style="stroke:#181818;stroke-width:0.5;"/><path d="M63,912.1563 L63,939.1563 M50,920.1563 L76,920.1563 M63,939.1563 L50,954.1563 M63,939.1563 L76,954.1563 " fill="none" style="stroke:#181818;stroke-width:0.5;"/><rect fill="#E3E3E3" height="29.6406" rx="2.5" ry="2.5" style="stroke:#181818;stroke-width:0.5;" width="104" x="451" y="50"/><text fill="#000000" font-family="sans-serif" font-size="14" lengthAdjust="spacing" textLength="90" x="458" y="69.6738">:GetDealListUI</text><rect fill="#E3E3E3" height="29.6406" rx="2.5" ry="2.5" style="stroke:#181818;stroke-width:0.5;" width="104" x="451" y="880.0156"/><text fill="#000000" font-family="sans-serif" font-size="14" lengthAdjust="spacing" textLength="90" x="458" y="899.6895">:GetDealListUI</text><rect fill="#E3E3E3" height="29.6406" rx="2.5" ry="2.5" style="stroke:#181818;stroke-width:0.5;" width="154" x="720" y="880.0156"/><text fill="#000000" font-family="sans-serif" font-size="14" lengthAdjust="spacing" textLength="140" x="727" y="899.6895">:GetDealListController</text><rect fill="#FFFFFF" height="772.375" style="stroke:#181818;stroke-width:1.0;" width="10" x="58" y="90.6406"/><rect fill="#FFFFFF" height="210.6641" style="stroke:#181818;stroke-width:1.0;" width="10" x="498" y="111.1641"/><rect fill="#FFFFFF" height="111.5703" style="stroke:#181818;stroke-width:1.0;" width="10" x="498" y="350.3516"/><rect fill="#FFFFFF" height="372.5703" style="stroke:#181818;stroke-width:1.0;" width="10" x="498" y="490.4453"/><rect fill="#FFFFFF" height="71.4531" style="stroke:#181818;stroke-width:1.0;" width="10" x="792" y="180.3281"/><rect fill="#FFFFFF" height="71.4531" style="stroke:#181818;stroke-width:1.0;" width="10" x="792" y="584.0156"/><rect fill="#FFFFFF" height="71.4531" style="stroke:#181818;stroke-width:1.0;" width="10" x="792" y="714.5156"/><polygon fill="#181818" points="486,107.1641,496,111.1641,486,115.1641,490,111.1641" style="stroke:#181818;stroke-width:1.0;"/><line style="stroke:#181818;stroke-width:1.0;" x1="68" x2="492" y1="111.1641" y2="111.1641"/><text fill="#000000" font-family="sans-serif" font-size="13" font-weight="bold" lengthAdjust="spacing" textLength="7" x="75" y="106.4092">1</text><text fill="#000000" font-family="sans-serif" font-size="13" lengthAdjust="spacing" textLength="145" x="86" y="106.4092">aks to list all deals made</text><polygon fill="#181818" points="708,135.6875,718,139.6875,708,143.6875,712,139.6875" style="stroke:#181818;stroke-width:1.0;"/><line style="stroke:#181818;stroke-width:1.0;" x1="508" x2="714" y1="139.6875" y2="139.6875"/><text fill="#000000" font-family="sans-serif" font-size="13" font-weight="bold" lengthAdjust="spacing" textLength="7" x="515" y="134.9326">2</text><text fill="#000000" font-family="sans-serif" font-size="13" lengthAdjust="spacing" textLength="167" x="526" y="134.9326">createGetDealListController()</text><rect fill="#E3E3E3" height="29.6406" rx="2.5" ry="2.5" style="stroke:#181818;stroke-width:0.5;" width="154" x="720" y="119.1641"/><text fill="#000000" font-family="sans-serif" font-size="14" lengthAdjust="spacing" textLength="140" x="727" y="138.8379">:GetDealListController</text><polygon fill="#181818" points="780,176.3281,790,180.3281,780,184.3281,784,180.3281" style="stroke:#181818;stroke-width:1.0;"/><line style="stroke:#181818;stroke-width:1.0;" x1="508" x2="786" y1="180.3281" y2="180.3281"/><text fill="#000000" font-family="sans-serif" font-size="13" font-weight="bold" lengthAdjust="spacing" textLength="7" x="515" y="175.5732">3</text><text fill="#000000" font-family="sans-serif" font-size="13" lengthAdjust="spacing" textLength="59" x="526" y="175.5732">getDeals()</text><rect fill="none" height="37.9297" style="stroke:#000000;stroke-width:1.5;" width="160" x="717" y="188.3281"/><path d="M717,188.3281 L779,188.3281 L779,194.3281 L769,204.3281 L717,204.3281 L717,188.3281 " fill="#EEEEEE" style="stroke:#000000;stroke-width:2.0;"/><text fill="#000000" font-family="sans-serif" font-size="13" font-weight="bold" lengthAdjust="spacing" textLength="17" x="730" y="202.0967">ref</text><text fill="#000000" font-family="sans-serif" font-size="12" lengthAdjust="spacing" textLength="72" x="761" y="219.1914">Get deals list</text><polygon fill="#181818" points="519,247.7813,509,251.7813,519,255.7813,515,251.7813" style="stroke:#181818;stroke-width:1.0;"/><line style="stroke:#181818;stroke-width:1.0;stroke-dasharray:2.0,2.0;" x1="513" x2="796" y1="251.7813" y2="251.7813"/><text fill="#000000" font-family="sans-serif" font-size="13" font-weight="bold" lengthAdjust="spacing" textLength="7" x="525" y="247.0264">4</text><text fill="#000000" font-family="sans-serif" font-size="13" lengthAdjust="spacing" textLength="52" x="536" y="247.0264">dealsList</text><line style="stroke:#181818;stroke-width:1.0;stroke-dasharray:2.0,2.0;" x1="508" x2="550" y1="280.3047" y2="280.3047"/><line style="stroke:#181818;stroke-width:1.0;stroke-dasharray:2.0,2.0;" x1="550" x2="550" y1="280.3047" y2="293.3047"/><line style="stroke:#181818;stroke-width:1.0;stroke-dasharray:2.0,2.0;" x1="509" x2="550" y1="293.3047" y2="293.3047"/><polygon fill="#181818" points="519,289.3047,509,293.3047,519,297.3047,515,293.3047" style="stroke:#181818;stroke-width:1.0;"/><text fill="#000000" font-family="sans-serif" font-size="13" font-weight="bold" lengthAdjust="spacing" textLength="7" x="515" y="275.5498">5</text><text fill="#000000" font-family="sans-serif" font-size="13" lengthAdjust="spacing" textLength="152" x="526" y="275.5498">displayAndRequestOrder()</text><polygon fill="#181818" points="79,317.8281,69,321.8281,79,325.8281,75,321.8281" style="stroke:#181818;stroke-width:1.0;"/><line style="stroke:#181818;stroke-width:1.0;stroke-dasharray:2.0,2.0;" x1="73" x2="502" y1="321.8281" y2="321.8281"/><text fill="#000000" font-family="sans-serif" font-size="13" font-weight="bold" lengthAdjust="spacing" textLength="7" x="85" y="317.0732">6</text><text fill="#000000" font-family="sans-serif" font-size="13" lengthAdjust="spacing" textLength="395" x="96" y="317.0732">asks list of all properties by area and ascending or descendent order</text><polygon fill="#181818" points="486,346.3516,496,350.3516,486,354.3516,490,350.3516" style="stroke:#181818;stroke-width:1.0;"/><line style="stroke:#181818;stroke-width:1.0;" x1="68" x2="492" y1="350.3516" y2="350.3516"/><text fill="#000000" font-family="sans-serif" font-size="13" font-weight="bold" lengthAdjust="spacing" textLength="7" x="75" y="345.5967">7</text><text fill="#000000" font-family="sans-serif" font-size="13" lengthAdjust="spacing" textLength="184" x="86" y="345.5967">select ascending or descendent</text><line style="stroke:#181818;stroke-width:1.0;stroke-dasharray:2.0,2.0;" x1="508" x2="550" y1="378.875" y2="378.875"/><line style="stroke:#181818;stroke-width:1.0;stroke-dasharray:2.0,2.0;" x1="550" x2="550" y1="378.875" y2="391.875"/><line style="stroke:#181818;stroke-width:1.0;stroke-dasharray:2.0,2.0;" x1="509" x2="550" y1="391.875" y2="391.875"/><polygon fill="#181818" points="519,387.875,509,391.875,519,395.875,515,391.875" style="stroke:#181818;stroke-width:1.0;"/><text fill="#000000" font-family="sans-serif" font-size="13" font-weight="bold" lengthAdjust="spacing" textLength="7" x="515" y="374.1201">8</text><text fill="#000000" font-family="sans-serif" font-size="13" lengthAdjust="spacing" textLength="69" x="526" y="374.1201">keep (order)</text><line style="stroke:#181818;stroke-width:1.0;stroke-dasharray:2.0,2.0;" x1="508" x2="550" y1="420.3984" y2="420.3984"/><line style="stroke:#181818;stroke-width:1.0;stroke-dasharray:2.0,2.0;" x1="550" x2="550" y1="420.3984" y2="433.3984"/><line style="stroke:#181818;stroke-width:1.0;stroke-dasharray:2.0,2.0;" x1="509" x2="550" y1="433.3984" y2="433.3984"/><polygon fill="#181818" points="519,429.3984,509,433.3984,519,437.3984,515,433.3984" style="stroke:#181818;stroke-width:1.0;"/><text fill="#000000" font-family="sans-serif" font-size="13" font-weight="bold" lengthAdjust="spacing" textLength="7" x="515" y="415.6436">9</text><text fill="#000000" font-family="sans-serif" font-size="13" lengthAdjust="spacing" textLength="163" x="526" y="415.6436">displayAndRequestMethod()</text><polygon fill="#181818" points="79,457.9219,69,461.9219,79,465.9219,75,461.9219" style="stroke:#181818;stroke-width:1.0;"/><line style="stroke:#181818;stroke-width:1.0;stroke-dasharray:2.0,2.0;" x1="73" x2="502" y1="461.9219" y2="461.9219"/><text fill="#000000" font-family="sans-serif" font-size="13" font-weight="bold" lengthAdjust="spacing" textLength="14" x="85" y="457.167">10</text><text fill="#000000" font-family="sans-serif" font-size="13" lengthAdjust="spacing" textLength="140" x="103" y="457.167">asks the sorting method</text><polygon fill="#181818" points="486,486.4453,496,490.4453,486,494.4453,490,490.4453" style="stroke:#181818;stroke-width:1.0;"/><line style="stroke:#181818;stroke-width:1.0;" x1="68" x2="492" y1="490.4453" y2="490.4453"/><text fill="#000000" font-family="sans-serif" font-size="13" font-weight="bold" lengthAdjust="spacing" textLength="14" x="75" y="485.6904">11</text><text fill="#000000" font-family="sans-serif" font-size="13" lengthAdjust="spacing" textLength="136" x="93" y="485.6904">select a sorting method</text><line style="stroke:#181818;stroke-width:1.0;stroke-dasharray:2.0,2.0;" x1="508" x2="550" y1="518.9688" y2="518.9688"/><line style="stroke:#181818;stroke-width:1.0;stroke-dasharray:2.0,2.0;" x1="550" x2="550" y1="518.9688" y2="531.9688"/><line style="stroke:#181818;stroke-width:1.0;stroke-dasharray:2.0,2.0;" x1="509" x2="550" y1="531.9688" y2="531.9688"/><polygon fill="#181818" points="519,527.9688,509,531.9688,519,535.9688,515,531.9688" style="stroke:#181818;stroke-width:1.0;"/><text fill="#000000" font-family="sans-serif" font-size="13" font-weight="bold" lengthAdjust="spacing" textLength="14" x="515" y="514.2139">12</text><text fill="#000000" font-family="sans-serif" font-size="13" lengthAdjust="spacing" textLength="83" x="533" y="514.2139">keep (method)</text><path d="M441,546.9688 L502,546.9688 L502,553.4922 L492,563.4922 L441,563.4922 L441,546.9688 " fill="#EEEEEE" style="stroke:#000000;stroke-width:1.5;"/><rect fill="none" height="116.5" style="stroke:#000000;stroke-width:1.5;" width="443" x="441" y="546.9688"/><text fill="#000000" font-family="sans-serif" font-size="13" font-weight="bold" lengthAdjust="spacing" textLength="16" x="456" y="559.7373">alt</text><text fill="#000000" font-family="sans-serif" font-size="11" font-weight="bold" lengthAdjust="spacing" textLength="124" x="517" y="558.9268">[method = BubbleSort]</text><polygon fill="#181818" points="780,580.0156,790,584.0156,780,588.0156,784,584.0156" style="stroke:#181818;stroke-width:1.0;"/><line style="stroke:#181818;stroke-width:1.0;" x1="508" x2="786" y1="584.0156" y2="584.0156"/><text fill="#000000" font-family="sans-serif" font-size="13" font-weight="bold" lengthAdjust="spacing" textLength="14" x="515" y="579.2607">13</text><text fill="#000000" font-family="sans-serif" font-size="13" lengthAdjust="spacing" textLength="158" x="533" y="579.2607">getBubbleSort(propertyList)</text><rect fill="none" height="37.9297" style="stroke:#000000;stroke-width:1.5;" width="160" x="717" y="592.0156"/><path d="M717,592.0156 L779,592.0156 L779,598.0156 L769,608.0156 L717,608.0156 L717,592.0156 " fill="#EEEEEE" style="stroke:#000000;stroke-width:2.0;"/><text fill="#000000" font-family="sans-serif" font-size="13" font-weight="bold" lengthAdjust="spacing" textLength="17" x="730" y="605.7842">ref</text><text fill="#000000" font-family="sans-serif" font-size="12" lengthAdjust="spacing" textLength="136" x="729" y="622.8789">sort deals by Bubble sort</text><polygon fill="#181818" points="519,651.4688,509,655.4688,519,659.4688,515,655.4688" style="stroke:#181818;stroke-width:1.0;"/><line style="stroke:#181818;stroke-width:1.0;stroke-dasharray:2.0,2.0;" x1="513" x2="796" y1="655.4688" y2="655.4688"/><text fill="#000000" font-family="sans-serif" font-size="13" font-weight="bold" lengthAdjust="spacing" textLength="14" x="525" y="650.7139">14</text><text fill="#000000" font-family="sans-serif" font-size="13" lengthAdjust="spacing" textLength="90" x="543" y="650.7139">sortedDealsList</text><path d="M441,677.4688 L502,677.4688 L502,683.9922 L492,693.9922 L441,693.9922 L441,677.4688 " fill="#EEEEEE" style="stroke:#000000;stroke-width:1.5;"/><rect fill="none" height="116.5" style="stroke:#000000;stroke-width:1.5;" width="443" x="441" y="677.4688"/><text fill="#000000" font-family="sans-serif" font-size="13" font-weight="bold" lengthAdjust="spacing" textLength="16" x="456" y="690.2373">alt</text><text fill="#000000" font-family="sans-serif" font-size="11" font-weight="bold" lengthAdjust="spacing" textLength="136" x="517" y="689.4268">[method = InsertionSort]</text><polygon fill="#181818" points="780,710.5156,790,714.5156,780,718.5156,784,714.5156" style="stroke:#181818;stroke-width:1.0;"/><line style="stroke:#181818;stroke-width:1.0;" x1="508" x2="786" y1="714.5156" y2="714.5156"/><text fill="#000000" font-family="sans-serif" font-size="13" font-weight="bold" lengthAdjust="spacing" textLength="14" x="515" y="709.7607">15</text><text fill="#000000" font-family="sans-serif" font-size="13" lengthAdjust="spacing" textLength="171" x="533" y="709.7607">getInsertionSort (propertyList)</text><rect fill="none" height="37.9297" style="stroke:#000000;stroke-width:1.5;" width="160" x="717" y="722.5156"/><path d="M717,722.5156 L779,722.5156 L779,728.5156 L769,738.5156 L717,738.5156 L717,722.5156 " fill="#EEEEEE" style="stroke:#000000;stroke-width:2.0;"/><text fill="#000000" font-family="sans-serif" font-size="13" font-weight="bold" lengthAdjust="spacing" textLength="17" x="730" y="736.2842">ref</text><text fill="#000000" font-family="sans-serif" font-size="12" lengthAdjust="spacing" textLength="145" x="724.5" y="753.3789">sort deals by Insertion sort</text><polygon fill="#181818" points="519,781.9688,509,785.9688,519,789.9688,515,785.9688" style="stroke:#181818;stroke-width:1.0;"/><line style="stroke:#181818;stroke-width:1.0;stroke-dasharray:2.0,2.0;" x1="513" x2="796" y1="785.9688" y2="785.9688"/><text fill="#000000" font-family="sans-serif" font-size="13" font-weight="bold" lengthAdjust="spacing" textLength="25" x="525" y="781.2139">14.1</text><text fill="#000000" font-family="sans-serif" font-size="13" lengthAdjust="spacing" textLength="90" x="554" y="781.2139">sortedDealsList</text><line style="stroke:#181818;stroke-width:1.0;stroke-dasharray:2.0,2.0;" x1="508" x2="550" y1="821.4922" y2="821.4922"/><line style="stroke:#181818;stroke-width:1.0;stroke-dasharray:2.0,2.0;" x1="550" x2="550" y1="821.4922" y2="834.4922"/><line style="stroke:#181818;stroke-width:1.0;stroke-dasharray:2.0,2.0;" x1="509" x2="550" y1="834.4922" y2="834.4922"/><polygon fill="#181818" points="519,830.4922,509,834.4922,519,838.4922,515,834.4922" style="stroke:#181818;stroke-width:1.0;"/><text fill="#000000" font-family="sans-serif" font-size="13" font-weight="bold" lengthAdjust="spacing" textLength="14" x="515" y="816.7373">15</text><text fill="#000000" font-family="sans-serif" font-size="13" lengthAdjust="spacing" textLength="252" x="533" y="816.7373">displaySortedDeals(sortedProperties, order)</text><polygon fill="#181818" points="74,859.0156,64,863.0156,74,867.0156,70,863.0156" style="stroke:#181818;stroke-width:1.0;"/><line style="stroke:#181818;stroke-width:1.0;stroke-dasharray:2.0,2.0;" x1="68" x2="502" y1="863.0156" y2="863.0156"/><text fill="#000000" font-family="sans-serif" font-size="13" font-weight="bold" lengthAdjust="spacing" textLength="14" x="80" y="858.2607">16</text><text fill="#000000" font-family="sans-serif" font-size="13" lengthAdjust="spacing" textLength="378" x="98" y="858.2607">shows list of properties according to the sorting method and order</text><!--SRC=[hLJRQXin47tNLmn-Sa9J2AGlWHRI188XTalSVC1OE_OkgvKsaXpZl-z8kzxxqXQgDqbdpfmvcf7BCrsYnG8AeurChIa8l3sISCrDYJB70stzMH5OaXxrGNK1BiN4d39zW3qgHq88F7gZZyMEh43fZON5Xlp9s1pMg9dBBW0TRDQ22NmcinArXyNzC_adGlMIEV-sYf2trJpaqMXlZL8rs-ElrnSHSakVVQ2dG2y4yDgiuUORKy4zOEx06r0S3gWK9CpbeC24AcWJp8d3deCuD51VNtEujCINangMLs8GmVX3XNHysMEFMiE9fJsO3xBj2PFNgeB8U4Gw2S2Aed4Mxk91p7HpgIz61c5rwRplvMmaDW6PAnMU7tJoIkz7Slw7JVh5C98DPEjSNca2iu_UbTQKn6z33dPdGBO6a9MYaomuT0E_Uq9nH_ns9X2FPR7HerTofBZDvfZcN-eIdnELi8m9h_wYv3Nvr2IpDVkKm1akb8KK4VelDGn3H-9dr5Vmkc-KhyFXAtm_xdQAjimwsM_jzR9-e7FeXugeiyQzsAvnLxOhb5CtABzwbIqU3d3TfXsrQS1JyjGqQmqQTkk5I5m0FIDMseNsCthRoJwqemU2QKichUWCsktTvrln1s_wjZHP1yxyDrDwjdIbVccIZKP_RX2sRTvbfU5dCzcVO6AAucYur9pQ_w3p5w2K71CwdZ_QyUp4FwB-2wR6gBFd3_mt]--></g></svg>