<?xml version="1.0" encoding="us-ascii" standalone="no"?><svg xmlns="http://www.w3.org/2000/svg" xmlns:xlink="http://www.w3.org/1999/xlink" contentStyleType="text/css" height="1044px" preserveAspectRatio="none" style="width:890px;height:1044px;background:#FFFFFF;" version="1.1" viewBox="0 0 890 1044" width="890px" zoomAndPan="magnify"><defs/><g><rect fill="#FFFFFF" height="855.4219" style="stroke:#181818;stroke-width:1.0;" width="10" x="58" y="90.6406"/><rect fill="#FFFFFF" height="252.1875" style="stroke:#181818;stroke-width:1.0;" width="10" x="498" y="111.1641"/><rect fill="#FFFFFF" height="111.5703" style="stroke:#181818;stroke-width:1.0;" width="10" x="498" y="391.875"/><rect fill="#FFFFFF" height="414.0938" style="stroke:#181818;stroke-width:1.0;" width="10" x="498" y="531.9688"/><rect fill="#FFFFFF" height="71.4531" style="stroke:#181818;stroke-width:1.0;" width="10" x="792" y="180.3281"/><rect fill="#FFFFFF" height="71.4531" style="stroke:#181818;stroke-width:1.0;" width="10" x="792" y="625.5391"/><rect fill="#FFFFFF" height="71.4531" style="stroke:#181818;stroke-width:1.0;" width="10" x="792" y="756.0391"/><rect fill="none" height="116.5" style="stroke:#000000;stroke-width:1.5;" width="443" x="441" y="588.4922"/><rect fill="none" height="116.5" style="stroke:#000000;stroke-width:1.5;" width="443" x="441" y="718.9922"/><line style="stroke:#181818;stroke-width:0.5;stroke-dasharray:5.0,5.0;" x1="63" x2="63" y1="80.6406" y2="964.0625"/><line style="stroke:#181818;stroke-width:0.5;stroke-dasharray:5.0,5.0;" x1="503" x2="503" y1="80.6406" y2="964.0625"/><line style="stroke:#181818;stroke-width:0.5;stroke-dasharray:5.0,5.0;" x1="797" x2="797" y1="149.4844" y2="964.0625"/><text fill="#000000" font-family="sans-serif" font-size="14" lengthAdjust="spacing" textLength="110" x="5" y="77.6738">Network Manager</text><ellipse cx="63" cy="13.5" fill="#E3E3E3" rx="8" ry="8" style="stroke:#181818;stroke-width:0.5;"/><path d="M63,21.5 L63,48.5 M50,29.5 L76,29.5 M63,48.5 L50,63.5 M63,48.5 L76,63.5 " fill="none" style="stroke:#181818;stroke-width:0.5;"/><text fill="#000000" font-family="sans-serif" font-size="14" lengthAdjust="spacing" textLength="110" x="5" y="975.7363">Network Manager</text><ellipse cx="63" cy="987.2031" fill="#E3E3E3" rx="8" ry="8" style="stroke:#181818;stroke-width:0.5;"/><path d="M63,995.2031 L63,1022.2031 M50,1003.2031 L76,1003.2031 M63,1022.2031 L50,1037.2031 M63,1022.2031 L76,1037.2031 " fill="none" style="stroke:#181818;stroke-width:0.5;"/><rect fill="#E3E3E3" height="29.6406" rx="2.5" ry="2.5" style="stroke:#181818;stroke-width:0.5;" width="104" x="451" y="50"/><text fill="#000000" font-family="sans-serif" font-size="14" lengthAdjust="spacing" textLength="90" x="458" y="69.6738">:GetDealListUI</text><rect fill="#E3E3E3" height="29.6406" rx="2.5" ry="2.5" style="stroke:#181818;stroke-width:0.5;" width="104" x="451" y="963.0625"/><text fill="#000000" font-family="sans-serif" font-size="14" lengthAdjust="spacing" textLength="90" x="458" y="982.7363">:GetDealListUI</text><rect fill="#E3E3E3" height="29.6406" rx="2.5" ry="2.5" style="stroke:#181818;stroke-width:0.5;" width="154" x="720" y="963.0625"/><text fill="#000000" font-family="sans-serif" font-size="14" lengthAdjust="spacing" textLength="140" x="727" y="982.7363">:GetDealListController</text><rect fill="#FFFFFF" height="855.4219" style="stroke:#181818;stroke-width:1.0;" width="10" x="58" y="90.6406"/><rect fill="#FFFFFF" height="252.1875" style="stroke:#181818;stroke-width:1.0;" width="10" x="498" y="111.1641"/><rect fill="#FFFFFF" height="111.5703" style="stroke:#181818;stroke-width:1.0;" width="10" x="498" y="391.875"/><rect fill="#FFFFFF" height="414.0938" style="stroke:#181818;stroke-width:1.0;" width="10" x="498" y="531.9688"/><rect fill="#FFFFFF" height="71.4531" style="stroke:#181818;stroke-width:1.0;" width="10" x="792" y="180.3281"/><rect fill="#FFFFFF" height="71.4531" style="stroke:#181818;stroke-width:1.0;" width="10" x="792" y="625.5391"/><rect fill="#FFFFFF" height="71.4531" style="stroke:#181818;stroke-width:1.0;" width="10" x="792" y="756.0391"/><polygon fill="#181818" points="486,107.1641,496,111.1641,486,115.1641,490,111.1641" style="stroke:#181818;stroke-width:1.0;"/><line style="stroke:#181818;stroke-width:1.0;" x1="68" x2="492" y1="111.1641" y2="111.1641"/><text fill="#000000" font-family="sans-serif" font-size="13" font-weight="bold" lengthAdjust="spacing" textLength="7" x="75" y="106.4092">1</text><text fill="#000000" font-family="sans-serif" font-size="13" lengthAdjust="spacing" textLength="145" x="86" y="106.4092">aks to list all deals made</text><polygon fill="#181818" points="708,135.6875,718,139.6875,708,143.6875,712,139.6875" style="stroke:#181818;stroke-width:1.0;"/><line style="stroke:#181818;stroke-width:1.0;" x1="508" x2="714" y1="139.6875" y2="139.6875"/><text fill="#000000" font-family="sans-serif" font-size="13" font-weight="bold" lengthAdjust="spacing" textLength="7" x="515" y="134.9326">2</text><text fill="#000000" font-family="sans-serif" font-size="13" lengthAdjust="spacing" textLength="167" x="526" y="134.9326">createGetDealListController()</text><rect fill="#E3E3E3" height="29.6406" rx="2.5" ry="2.5" style="stroke:#181818;stroke-width:0.5;" width="154" x="720" y="119.1641"/><text fill="#000000" font-family="sans-serif" font-size="14" lengthAdjust="spacing" textLength="140" x="727" y="138.8379">:GetDealListController</text><polygon fill="#181818" points="780,176.3281,790,180.3281,780,184.3281,784,180.3281" style="stroke:#181818;stroke-width:1.0;"/><line style="stroke:#181818;stroke-width:1.0;" x1="508" x2="786" y1="180.3281" y2="180.3281"/><text fill="#000000" font-family="sans-serif" font-size="13" font-weight="bold" lengthAdjust="spacing" textLength="7" x="515" y="175.5732">3</text><text fill="#000000" font-family="sans-serif" font-size="13" lengthAdjust="spacing" textLength="129" x="526" y="175.5732">getPropertyDealsList()</text><rect fill="none" height="37.9297" style="stroke:#000000;stroke-width:1.5;" width="160" x="717" y="188.3281"/><path d="M717,188.3281 L779,188.3281 L779,194.3281 L769,204.3281 L717,204.3281 L717,188.3281 " fill="#EEEEEE" style="stroke:#000000;stroke-width:2.0;"/><text fill="#000000" font-family="sans-serif" font-size="13" font-weight="bold" lengthAdjust="spacing" textLength="17" x="730" y="202.0967">ref</text><text fill="#000000" font-family="sans-serif" font-size="12" lengthAdjust="spacing" textLength="72" x="761" y="219.1914">Get deals list</text><polygon fill="#181818" points="519,247.7813,509,251.7813,519,255.7813,515,251.7813" style="stroke:#181818;stroke-width:1.0;"/><line style="stroke:#181818;stroke-width:1.0;stroke-dasharray:2.0,2.0;" x1="513" x2="796" y1="251.7813" y2="251.7813"/><text fill="#000000" font-family="sans-serif" font-size="13" font-weight="bold" lengthAdjust="spacing" textLength="7" x="525" y="247.0264">4</text><text fill="#000000" font-family="sans-serif" font-size="13" lengthAdjust="spacing" textLength="68" x="536" y="247.0264">propertyList</text><line style="stroke:#181818;stroke-width:1.0;stroke-dasharray:2.0,2.0;" x1="508" x2="550" y1="280.3047" y2="280.3047"/><line style="stroke:#181818;stroke-width:1.0;stroke-dasharray:2.0,2.0;" x1="550" x2="550" y1="280.3047" y2="293.3047"/><line style="stroke:#181818;stroke-width:1.0;stroke-dasharray:2.0,2.0;" x1="509" x2="550" y1="293.3047" y2="293.3047"/><polygon fill="#181818" points="519,289.3047,509,293.3047,519,297.3047,515,293.3047" style="stroke:#181818;stroke-width:1.0;"/><text fill="#000000" font-family="sans-serif" font-size="13" font-weight="bold" lengthAdjust="spacing" textLength="7" x="515" y="275.5498">5</text><text fill="#000000" font-family="sans-serif" font-size="13" lengthAdjust="spacing" textLength="210" x="526" y="275.5498">displayListOfProperties(propertyList)</text><line style="stroke:#181818;stroke-width:1.0;stroke-dasharray:2.0,2.0;" x1="508" x2="550" y1="321.8281" y2="321.8281"/><line style="stroke:#181818;stroke-width:1.0;stroke-dasharray:2.0,2.0;" x1="550" x2="550" y1="321.8281" y2="334.8281"/><line style="stroke:#181818;stroke-width:1.0;stroke-dasharray:2.0,2.0;" x1="509" x2="550" y1="334.8281" y2="334.8281"/><polygon fill="#181818" points="519,330.8281,509,334.8281,519,338.8281,515,334.8281" style="stroke:#181818;stroke-width:1.0;"/><text fill="#000000" font-family="sans-serif" font-size="13" font-weight="bold" lengthAdjust="spacing" textLength="7" x="515" y="317.0732">6</text><text fill="#000000" font-family="sans-serif" font-size="13" lengthAdjust="spacing" textLength="152" x="526" y="317.0732">displayAndRequestOrder()</text><polygon fill="#181818" points="79,359.3516,69,363.3516,79,367.3516,75,363.3516" style="stroke:#181818;stroke-width:1.0;"/><line style="stroke:#181818;stroke-width:1.0;stroke-dasharray:2.0,2.0;" x1="73" x2="502" y1="363.3516" y2="363.3516"/><text fill="#000000" font-family="sans-serif" font-size="13" font-weight="bold" lengthAdjust="spacing" textLength="7" x="85" y="358.5967">7</text><text fill="#000000" font-family="sans-serif" font-size="13" lengthAdjust="spacing" textLength="395" x="96" y="358.5967">asks list of all properties by area and ascending or descendent order</text><polygon fill="#181818" points="486,387.875,496,391.875,486,395.875,490,391.875" style="stroke:#181818;stroke-width:1.0;"/><line style="stroke:#181818;stroke-width:1.0;" x1="68" x2="492" y1="391.875" y2="391.875"/><text fill="#000000" font-family="sans-serif" font-size="13" font-weight="bold" lengthAdjust="spacing" textLength="7" x="75" y="387.1201">8</text><text fill="#000000" font-family="sans-serif" font-size="13" lengthAdjust="spacing" textLength="184" x="86" y="387.1201">select ascending or descendent</text><line style="stroke:#181818;stroke-width:1.0;stroke-dasharray:2.0,2.0;" x1="508" x2="550" y1="420.3984" y2="420.3984"/><line style="stroke:#181818;stroke-width:1.0;stroke-dasharray:2.0,2.0;" x1="550" x2="550" y1="420.3984" y2="433.3984"/><line style="stroke:#181818;stroke-width:1.0;stroke-dasharray:2.0,2.0;" x1="509" x2="550" y1="433.3984" y2="433.3984"/><polygon fill="#181818" points="519,429.3984,509,433.3984,519,437.3984,515,433.3984" style="stroke:#181818;stroke-width:1.0;"/><text fill="#000000" font-family="sans-serif" font-size="13" font-weight="bold" lengthAdjust="spacing" textLength="7" x="515" y="415.6436">9</text><text fill="#000000" font-family="sans-serif" font-size="13" lengthAdjust="spacing" textLength="69" x="526" y="415.6436">keep (order)</text><line style="stroke:#181818;stroke-width:1.0;stroke-dasharray:2.0,2.0;" x1="508" x2="550" y1="461.9219" y2="461.9219"/><line style="stroke:#181818;stroke-width:1.0;stroke-dasharray:2.0,2.0;" x1="550" x2="550" y1="461.9219" y2="474.9219"/><line style="stroke:#181818;stroke-width:1.0;stroke-dasharray:2.0,2.0;" x1="509" x2="550" y1="474.9219" y2="474.9219"/><polygon fill="#181818" points="519,470.9219,509,474.9219,519,478.9219,515,474.9219" style="stroke:#181818;stroke-width:1.0;"/><text fill="#000000" font-family="sans-serif" font-size="13" font-weight="bold" lengthAdjust="spacing" textLength="14" x="515" y="457.167">10</text><text fill="#000000" font-family="sans-serif" font-size="13" lengthAdjust="spacing" textLength="163" x="533" y="457.167">displayAndRequestMethod()</text><polygon fill="#181818" points="79,499.4453,69,503.4453,79,507.4453,75,503.4453" style="stroke:#181818;stroke-width:1.0;"/><line style="stroke:#181818;stroke-width:1.0;stroke-dasharray:2.0,2.0;" x1="73" x2="502" y1="503.4453" y2="503.4453"/><text fill="#000000" font-family="sans-serif" font-size="13" font-weight="bold" lengthAdjust="spacing" textLength="14" x="85" y="498.6904">11</text><text fill="#000000" font-family="sans-serif" font-size="13" lengthAdjust="spacing" textLength="140" x="103" y="498.6904">asks the sorting method</text><polygon fill="#181818" points="486,527.9688,496,531.9688,486,535.9688,490,531.9688" style="stroke:#181818;stroke-width:1.0;"/><line style="stroke:#181818;stroke-width:1.0;" x1="68" x2="492" y1="531.9688" y2="531.9688"/><text fill="#000000" font-family="sans-serif" font-size="13" font-weight="bold" lengthAdjust="spacing" textLength="14" x="75" y="527.2139">12</text><text fill="#000000" font-family="sans-serif" font-size="13" lengthAdjust="spacing" textLength="136" x="93" y="527.2139">select a sorting method</text><line style="stroke:#181818;stroke-width:1.0;stroke-dasharray:2.0,2.0;" x1="508" x2="550" y1="560.4922" y2="560.4922"/><line style="stroke:#181818;stroke-width:1.0;stroke-dasharray:2.0,2.0;" x1="550" x2="550" y1="560.4922" y2="573.4922"/><line style="stroke:#181818;stroke-width:1.0;stroke-dasharray:2.0,2.0;" x1="509" x2="550" y1="573.4922" y2="573.4922"/><polygon fill="#181818" points="519,569.4922,509,573.4922,519,577.4922,515,573.4922" style="stroke:#181818;stroke-width:1.0;"/><text fill="#000000" font-family="sans-serif" font-size="13" font-weight="bold" lengthAdjust="spacing" textLength="14" x="515" y="555.7373">13</text><text fill="#000000" font-family="sans-serif" font-size="13" lengthAdjust="spacing" textLength="83" x="533" y="555.7373">keep (method)</text><path d="M441,588.4922 L502,588.4922 L502,595.0156 L492,605.0156 L441,605.0156 L441,588.4922 " fill="#EEEEEE" style="stroke:#000000;stroke-width:1.5;"/><rect fill="none" height="116.5" style="stroke:#000000;stroke-width:1.5;" width="443" x="441" y="588.4922"/><text fill="#000000" font-family="sans-serif" font-size="13" font-weight="bold" lengthAdjust="spacing" textLength="16" x="456" y="601.2607">alt</text><text fill="#000000" font-family="sans-serif" font-size="11" font-weight="bold" lengthAdjust="spacing" textLength="124" x="517" y="600.4502">[method = BubbleSort]</text><polygon fill="#181818" points="780,621.5391,790,625.5391,780,629.5391,784,625.5391" style="stroke:#181818;stroke-width:1.0;"/><line style="stroke:#181818;stroke-width:1.0;" x1="508" x2="786" y1="625.5391" y2="625.5391"/><text fill="#000000" font-family="sans-serif" font-size="13" font-weight="bold" lengthAdjust="spacing" textLength="14" x="515" y="620.7842">14</text><text fill="#000000" font-family="sans-serif" font-size="13" lengthAdjust="spacing" textLength="158" x="533" y="620.7842">getBubbleSort(propertyList)</text><rect fill="none" height="37.9297" style="stroke:#000000;stroke-width:1.5;" width="160" x="717" y="633.5391"/><path d="M717,633.5391 L779,633.5391 L779,639.5391 L769,649.5391 L717,649.5391 L717,633.5391 " fill="#EEEEEE" style="stroke:#000000;stroke-width:2.0;"/><text fill="#000000" font-family="sans-serif" font-size="13" font-weight="bold" lengthAdjust="spacing" textLength="17" x="730" y="647.3076">ref</text><text fill="#000000" font-family="sans-serif" font-size="12" lengthAdjust="spacing" textLength="136" x="729" y="664.4023">sort deals by Bubble sort</text><polygon fill="#181818" points="519,692.9922,509,696.9922,519,700.9922,515,696.9922" style="stroke:#181818;stroke-width:1.0;"/><line style="stroke:#181818;stroke-width:1.0;stroke-dasharray:2.0,2.0;" x1="513" x2="796" y1="696.9922" y2="696.9922"/><text fill="#000000" font-family="sans-serif" font-size="13" font-weight="bold" lengthAdjust="spacing" textLength="14" x="525" y="692.2373">15</text><text fill="#000000" font-family="sans-serif" font-size="13" lengthAdjust="spacing" textLength="90" x="543" y="692.2373">sortedDealsList</text><path d="M441,718.9922 L502,718.9922 L502,725.5156 L492,735.5156 L441,735.5156 L441,718.9922 " fill="#EEEEEE" style="stroke:#000000;stroke-width:1.5;"/><rect fill="none" height="116.5" style="stroke:#000000;stroke-width:1.5;" width="443" x="441" y="718.9922"/><text fill="#000000" font-family="sans-serif" font-size="13" font-weight="bold" lengthAdjust="spacing" textLength="16" x="456" y="731.7607">alt</text><text fill="#000000" font-family="sans-serif" font-size="11" font-weight="bold" lengthAdjust="spacing" textLength="136" x="517" y="730.9502">[method = InsertionSort]</text><polygon fill="#181818" points="780,752.0391,790,756.0391,780,760.0391,784,756.0391" style="stroke:#181818;stroke-width:1.0;"/><line style="stroke:#181818;stroke-width:1.0;" x1="508" x2="786" y1="756.0391" y2="756.0391"/><text fill="#000000" font-family="sans-serif" font-size="13" font-weight="bold" lengthAdjust="spacing" textLength="14" x="515" y="751.2842">16</text><text fill="#000000" font-family="sans-serif" font-size="13" lengthAdjust="spacing" textLength="171" x="533" y="751.2842">getInsertionSort (propertyList)</text><rect fill="none" height="37.9297" style="stroke:#000000;stroke-width:1.5;" width="160" x="717" y="764.0391"/><path d="M717,764.0391 L779,764.0391 L779,770.0391 L769,780.0391 L717,780.0391 L717,764.0391 " fill="#EEEEEE" style="stroke:#000000;stroke-width:2.0;"/><text fill="#000000" font-family="sans-serif" font-size="13" font-weight="bold" lengthAdjust="spacing" textLength="17" x="730" y="777.8076">ref</text><text fill="#000000" font-family="sans-serif" font-size="12" lengthAdjust="spacing" textLength="145" x="724.5" y="794.9023">sort deals by Insertion sort</text><polygon fill="#181818" points="519,823.4922,509,827.4922,519,831.4922,515,827.4922" style="stroke:#181818;stroke-width:1.0;"/><line style="stroke:#181818;stroke-width:1.0;stroke-dasharray:2.0,2.0;" x1="513" x2="796" y1="827.4922" y2="827.4922"/><text fill="#000000" font-family="sans-serif" font-size="13" font-weight="bold" lengthAdjust="spacing" textLength="25" x="525" y="822.7373">14.1</text><text fill="#000000" font-family="sans-serif" font-size="13" lengthAdjust="spacing" textLength="90" x="554" y="822.7373">sortedDealsList</text><line style="stroke:#181818;stroke-width:1.0;stroke-dasharray:2.0,2.0;" x1="508" x2="550" y1="863.0156" y2="863.0156"/><line style="stroke:#181818;stroke-width:1.0;stroke-dasharray:2.0,2.0;" x1="550" x2="550" y1="863.0156" y2="876.0156"/><line style="stroke:#181818;stroke-width:1.0;stroke-dasharray:2.0,2.0;" x1="509" x2="550" y1="876.0156" y2="876.0156"/><polygon fill="#181818" points="519,872.0156,509,876.0156,519,880.0156,515,876.0156" style="stroke:#181818;stroke-width:1.0;"/><text fill="#000000" font-family="sans-serif" font-size="13" font-weight="bold" lengthAdjust="spacing" textLength="14" x="515" y="858.2607">15</text><text fill="#000000" font-family="sans-serif" font-size="13" lengthAdjust="spacing" textLength="206" x="533" y="858.2607">GetPropertySorted(sortedDealsList)</text><line style="stroke:#181818;stroke-width:1.0;stroke-dasharray:2.0,2.0;" x1="508" x2="550" y1="904.5391" y2="904.5391"/><line style="stroke:#181818;stroke-width:1.0;stroke-dasharray:2.0,2.0;" x1="550" x2="550" y1="904.5391" y2="917.5391"/><line style="stroke:#181818;stroke-width:1.0;stroke-dasharray:2.0,2.0;" x1="509" x2="550" y1="917.5391" y2="917.5391"/><polygon fill="#181818" points="519,913.5391,509,917.5391,519,921.5391,515,917.5391" style="stroke:#181818;stroke-width:1.0;"/><text fill="#000000" font-family="sans-serif" font-size="13" font-weight="bold" lengthAdjust="spacing" textLength="14" x="515" y="899.7842">16</text><text fill="#000000" font-family="sans-serif" font-size="13" lengthAdjust="spacing" textLength="252" x="533" y="899.7842">displaySortedDeals(sortedProperties, order)</text><polygon fill="#181818" points="74,942.0625,64,946.0625,74,950.0625,70,946.0625" style="stroke:#181818;stroke-width:1.0;"/><line style="stroke:#181818;stroke-width:1.0;stroke-dasharray:2.0,2.0;" x1="68" x2="502" y1="946.0625" y2="946.0625"/><text fill="#000000" font-family="sans-serif" font-size="13" font-weight="bold" lengthAdjust="spacing" textLength="14" x="80" y="941.3076">17</text><text fill="#000000" font-family="sans-serif" font-size="13" lengthAdjust="spacing" textLength="378" x="98" y="941.3076">shows list of properties according to the sorting method and order</text><!--SRC=[hLNRQjmm47tNLmpxj0bD892-15f8KmWBsMs9cm-OjMVNnhBaI7AM_VkEjBvVQ0lLcwLpvipTDizKYGOBABJISMfqGU1CHSAsBoN6EHufScT9O2Xsg8wo3x0f9lgKgICSK5eIGc3bjAgAFHc1iTC6LZjo9srosA9YMsO5Q66t5Mp0PN5MedAmUdWczvrGlcJMlMq2v6sp37dIoXajPMtjwTVhY_3QiSi-q94tBmJmsMtXvYkRWWV0t8BJ89aEA2KaRCj2WGbTe2sPXVqtavZgJLzVCpqsn8-pFgoln8Z1-2EvdqQNPDpPCwodC72W5FpsDuOEe3_8T3SiL7le7GvNf18Fl9XeimptuIAetZInbhMo5wqpmSO6igt73IV9R2anK7uSQjSpikk-hQj5sgDANkcz8YQRP9WIHd8Pk00slqG3-X0gKBOYi3y3Se81EKQqCOVgUugx9w7mHTm1sXkUHiFbcjJQakHcNRAqNE-6dnELi0w2VnFobbogayMONKfWDGVAZXG1-YynZAaJvnUyly3hZfEkfiCN-5Rjzv8YjZhRjTtpgFGmFDCkxiwqdxlZmwbRcwj-KGkN8ro_tISDxl6Kj8FLWCPDtXWI3M2GY8sollsqYdhgutGCG32VajbKz4RqxlxsJlmXDyEqjAgZpFotf0pIqdVrSoissHZJJdlkbbmKnDSZ7vQd9-g0DQdREPzWPlJ2FDbKdxebqbiW6CVCyMF2EtuwS66nr0jaRlPwt_pl-0q0]--></g></svg>