<?xml version="1.0" encoding="us-ascii" standalone="no"?><svg xmlns="http://www.w3.org/2000/svg" xmlns:xlink="http://www.w3.org/1999/xlink" contentStyleType="text/css" height="493px" preserveAspectRatio="none" style="width:653px;height:493px;background:#FFFFFF;" version="1.1" viewBox="0 0 653 493" width="653px" zoomAndPan="magnify"><defs/><g><rect fill="#FFFFFF" height="343.7578" style="stroke:#181818;stroke-width:1.0;" width="10" x="89" y="81.8047"/><rect fill="#FFFFFF" height="28.5234" style="stroke:#181818;stroke-width:1.0;" width="10" x="213" y="110.3281"/><rect fill="#FFFFFF" height="28.5234" style="stroke:#181818;stroke-width:1.0;" width="10" x="320" y="167.375"/><rect fill="#FFFFFF" height="172.6172" style="stroke:#181818;stroke-width:1.0;" width="10" x="469.5" y="224.4219"/><rect fill="none" height="88.5703" style="stroke:#000000;stroke-width:1.5;" width="284" x="363.5" y="280.9453"/><rect fill="none" height="58.0469" style="stroke:#000000;stroke-width:1.5;" width="264" x="373.5" y="304.4688"/><line style="stroke:#181818;stroke-width:0.5;stroke-dasharray:5.0,5.0;" x1="93.5" x2="93.5" y1="51.2813" y2="443.5625"/><line style="stroke:#181818;stroke-width:0.5;stroke-dasharray:5.0,5.0;" x1="217.5" x2="217.5" y1="51.2813" y2="443.5625"/><line style="stroke:#181818;stroke-width:0.5;stroke-dasharray:5.0,5.0;" x1="324.5" x2="324.5" y1="51.2813" y2="443.5625"/><line style="stroke:#181818;stroke-width:0.5;stroke-dasharray:5.0,5.0;" x1="474.5" x2="474.5" y1="51.2813" y2="443.5625"/><rect fill="#E3E3E3" height="29.6406" rx="2.5" ry="2.5" style="stroke:#181818;stroke-width:0.5;" width="131" x="28.5" y="20.6406"/><text fill="#000000" font-family="sans-serif" font-size="14" lengthAdjust="spacing" textLength="117" x="35.5" y="40.3145">:DealListController</text><rect fill="#E3E3E3" height="29.6406" rx="2.5" ry="2.5" style="stroke:#181818;stroke-width:0.5;" width="131" x="28.5" y="442.5625"/><text fill="#000000" font-family="sans-serif" font-size="14" lengthAdjust="spacing" textLength="117" x="35.5" y="462.2363">:DealListController</text><rect fill="#E3E3E3" height="29.6406" rx="2.5" ry="2.5" style="stroke:#181818;stroke-width:0.5;" width="97" x="169.5" y="20.6406"/><text fill="#000000" font-family="sans-serif" font-size="14" lengthAdjust="spacing" textLength="83" x="176.5" y="40.3145">:Repositories</text><rect fill="#E3E3E3" height="29.6406" rx="2.5" ry="2.5" style="stroke:#181818;stroke-width:0.5;" width="97" x="169.5" y="442.5625"/><text fill="#000000" font-family="sans-serif" font-size="14" lengthAdjust="spacing" textLength="83" x="176.5" y="462.2363">:Repositories</text><rect fill="#E3E3E3" height="45.2813" rx="2.5" ry="2.5" style="stroke:#181818;stroke-width:0.5;" width="97" x="276.5" y="5"/><text fill="#000000" font-family="sans-serif" font-size="14" lengthAdjust="spacing" textLength="79" x="285.5" y="24.6738">Repositories</text><text fill="#000000" font-family="sans-serif" font-size="14" lengthAdjust="spacing" textLength="83" x="283.5" y="40.3145">:Repositories</text><rect fill="#E3E3E3" height="45.2813" rx="2.5" ry="2.5" style="stroke:#181818;stroke-width:0.5;" width="97" x="276.5" y="442.5625"/><text fill="#000000" font-family="sans-serif" font-size="14" lengthAdjust="spacing" textLength="79" x="285.5" y="462.2363">Repositories</text><text fill="#000000" font-family="sans-serif" font-size="14" lengthAdjust="spacing" textLength="83" x="283.5" y="477.877">:Repositories</text><rect fill="#E3E3E3" height="45.2813" rx="2.5" ry="2.5" style="stroke:#181818;stroke-width:0.5;" width="182" x="383.5" y="5"/><text fill="#000000" font-family="sans-serif" font-size="14" lengthAdjust="spacing" textLength="168" x="390.5" y="24.6738">purchaseOrderRepository:</text><text fill="#000000" font-family="sans-serif" font-size="14" lengthAdjust="spacing" textLength="165" x="392" y="40.3145">PurchaseOrderRepository</text><rect fill="#E3E3E3" height="45.2813" rx="2.5" ry="2.5" style="stroke:#181818;stroke-width:0.5;" width="182" x="383.5" y="442.5625"/><text fill="#000000" font-family="sans-serif" font-size="14" lengthAdjust="spacing" textLength="168" x="390.5" y="462.2363">purchaseOrderRepository:</text><text fill="#000000" font-family="sans-serif" font-size="14" lengthAdjust="spacing" textLength="165" x="392" y="477.877">PurchaseOrderRepository</text><rect fill="#FFFFFF" height="343.7578" style="stroke:#181818;stroke-width:1.0;" width="10" x="89" y="81.8047"/><rect fill="#FFFFFF" height="28.5234" style="stroke:#181818;stroke-width:1.0;" width="10" x="213" y="110.3281"/><rect fill="#FFFFFF" height="28.5234" style="stroke:#181818;stroke-width:1.0;" width="10" x="320" y="167.375"/><rect fill="#FFFFFF" height="172.6172" style="stroke:#181818;stroke-width:1.0;" width="10" x="469.5" y="224.4219"/><polygon fill="#181818" points="77,77.8047,87,81.8047,77,85.8047,81,81.8047" style="stroke:#181818;stroke-width:1.0;"/><line style="stroke:#181818;stroke-width:1.0;" x1="0" x2="83" y1="81.8047" y2="81.8047"/><text fill="#000000" font-family="sans-serif" font-size="13" font-weight="bold" lengthAdjust="spacing" textLength="7" x="7" y="77.0498">1</text><text fill="#000000" font-family="sans-serif" font-size="13" lengthAdjust="spacing" textLength="51" x="18" y="77.0498">getDeals</text><polygon fill="#181818" points="201,106.3281,211,110.3281,201,114.3281,205,110.3281" style="stroke:#181818;stroke-width:1.0;"/><line style="stroke:#181818;stroke-width:1.0;" x1="99" x2="207" y1="110.3281" y2="110.3281"/><text fill="#000000" font-family="sans-serif" font-size="13" font-weight="bold" lengthAdjust="spacing" textLength="7" x="106" y="105.5732">2</text><text fill="#000000" font-family="sans-serif" font-size="13" lengthAdjust="spacing" textLength="75" x="117" y="105.5732">getInstance()</text><polygon fill="#181818" points="110,134.8516,100,138.8516,110,142.8516,106,138.8516" style="stroke:#181818;stroke-width:1.0;"/><line style="stroke:#181818;stroke-width:1.0;stroke-dasharray:2.0,2.0;" x1="104" x2="217" y1="138.8516" y2="138.8516"/><text fill="#000000" font-family="sans-serif" font-size="13" font-weight="bold" lengthAdjust="spacing" textLength="7" x="116" y="134.0967">3</text><text fill="#000000" font-family="sans-serif" font-size="13" lengthAdjust="spacing" textLength="67" x="127" y="134.0967">repositories</text><polygon fill="#181818" points="308,163.375,318,167.375,308,171.375,312,167.375" style="stroke:#181818;stroke-width:1.0;"/><line style="stroke:#181818;stroke-width:1.0;" x1="99" x2="314" y1="167.375" y2="167.375"/><text fill="#000000" font-family="sans-serif" font-size="13" font-weight="bold" lengthAdjust="spacing" textLength="7" x="106" y="162.6201">4</text><text fill="#000000" font-family="sans-serif" font-size="13" lengthAdjust="spacing" textLength="175" x="117" y="162.6201">getPurchaseOrderRepository()</text><polygon fill="#181818" points="110,191.8984,100,195.8984,110,199.8984,106,195.8984" style="stroke:#181818;stroke-width:1.0;"/><line style="stroke:#181818;stroke-width:1.0;stroke-dasharray:2.0,2.0;" x1="104" x2="324" y1="195.8984" y2="195.8984"/><text fill="#000000" font-family="sans-serif" font-size="13" font-weight="bold" lengthAdjust="spacing" textLength="7" x="116" y="191.1436">5</text><text fill="#000000" font-family="sans-serif" font-size="13" lengthAdjust="spacing" textLength="149" x="127" y="191.1436">PurchaseOrderRepository</text><polygon fill="#181818" points="457.5,220.4219,467.5,224.4219,457.5,228.4219,461.5,224.4219" style="stroke:#181818;stroke-width:1.0;"/><line style="stroke:#181818;stroke-width:1.0;" x1="99" x2="463.5" y1="224.4219" y2="224.4219"/><text fill="#000000" font-family="sans-serif" font-size="13" font-weight="bold" lengthAdjust="spacing" textLength="7" x="106" y="219.667">6</text><text fill="#000000" font-family="sans-serif" font-size="13" lengthAdjust="spacing" textLength="121" x="117" y="219.667">getDealsFromOrder()</text><line style="stroke:#181818;stroke-width:1.0;" x1="479.5" x2="521.5" y1="252.9453" y2="252.9453"/><line style="stroke:#181818;stroke-width:1.0;" x1="521.5" x2="521.5" y1="252.9453" y2="265.9453"/><line style="stroke:#181818;stroke-width:1.0;" x1="480.5" x2="521.5" y1="265.9453" y2="265.9453"/><polygon fill="#181818" points="490.5,261.9453,480.5,265.9453,490.5,269.9453,486.5,265.9453" style="stroke:#181818;stroke-width:1.0;"/><text fill="#000000" font-family="sans-serif" font-size="13" font-weight="bold" lengthAdjust="spacing" textLength="7" x="486.5" y="248.1904">7</text><text fill="#000000" font-family="sans-serif" font-size="13" lengthAdjust="spacing" textLength="120" x="497.5" y="248.1904">getPurchaseOrders()</text><path d="M363.5,280.9453 L428.5,280.9453 L428.5,287.4688 L418.5,297.4688 L363.5,297.4688 L363.5,280.9453 " fill="#EEEEEE" style="stroke:#000000;stroke-width:1.5;"/><rect fill="none" height="88.5703" style="stroke:#000000;stroke-width:1.5;" width="284" x="363.5" y="280.9453"/><text fill="#000000" font-family="sans-serif" font-size="13" font-weight="bold" lengthAdjust="spacing" textLength="20" x="378.5" y="293.7139">opt</text><text fill="#000000" font-family="sans-serif" font-size="11" font-weight="bold" lengthAdjust="spacing" textLength="142" x="443.5" y="292.9033">[for each purchase order]</text><path d="M373.5,304.4688 L434.5,304.4688 L434.5,310.9922 L424.5,320.9922 L373.5,320.9922 L373.5,304.4688 " fill="#EEEEEE" style="stroke:#000000;stroke-width:1.5;"/><rect fill="none" height="58.0469" style="stroke:#000000;stroke-width:1.5;" width="264" x="373.5" y="304.4688"/><text fill="#000000" font-family="sans-serif" font-size="13" font-weight="bold" lengthAdjust="spacing" textLength="16" x="388.5" y="317.2373">alt</text><text fill="#000000" font-family="sans-serif" font-size="11" font-weight="bold" lengthAdjust="spacing" textLength="183" x="449.5" y="316.4268">[if purchase order was accepted]</text><line style="stroke:#181818;stroke-width:1.0;stroke-dasharray:2.0,2.0;" x1="479.5" x2="521.5" y1="341.5156" y2="341.5156"/><line style="stroke:#181818;stroke-width:1.0;stroke-dasharray:2.0,2.0;" x1="521.5" x2="521.5" y1="341.5156" y2="354.5156"/><line style="stroke:#181818;stroke-width:1.0;stroke-dasharray:2.0,2.0;" x1="480.5" x2="521.5" y1="354.5156" y2="354.5156"/><polygon fill="#181818" points="490.5,350.5156,480.5,354.5156,490.5,358.5156,486.5,354.5156" style="stroke:#181818;stroke-width:1.0;"/><text fill="#000000" font-family="sans-serif" font-size="13" font-weight="bold" lengthAdjust="spacing" textLength="7" x="486.5" y="336.7607">8</text><text fill="#000000" font-family="sans-serif" font-size="13" lengthAdjust="spacing" textLength="80" x="497.5" y="336.7607">add (property)</text><polygon fill="#181818" points="110,393.0391,100,397.0391,110,401.0391,106,397.0391" style="stroke:#181818;stroke-width:1.0;"/><line style="stroke:#181818;stroke-width:1.0;stroke-dasharray:2.0,2.0;" x1="104" x2="473.5" y1="397.0391" y2="397.0391"/><text fill="#000000" font-family="sans-serif" font-size="13" font-weight="bold" lengthAdjust="spacing" textLength="7" x="116" y="392.2842">9</text><text fill="#000000" font-family="sans-serif" font-size="13" lengthAdjust="spacing" textLength="52" x="127" y="392.2842">dealsList</text><polygon fill="#181818" points="11,421.5625,1,425.5625,11,429.5625,7,425.5625" style="stroke:#181818;stroke-width:1.0;"/><line style="stroke:#181818;stroke-width:1.0;stroke-dasharray:2.0,2.0;" x1="5" x2="93" y1="425.5625" y2="425.5625"/><text fill="#000000" font-family="sans-serif" font-size="13" font-weight="bold" lengthAdjust="spacing" textLength="14" x="17" y="420.8076">10</text><text fill="#000000" font-family="sans-serif" font-size="13" lengthAdjust="spacing" textLength="52" x="35" y="420.8076">dealsList</text><!--SRC=[ZPD1JyGW48Nl_8g95_LGzzuO4wCnCTbapUhHoqXdMo85XAbc_xtGjLtQxIPoel3cySs3NZRCBfIhbTDek6lrZRJjAj1NHqPIKIciFROYV2hZCCwWjSRAnjkMW7r7sOv3-OarlV9U4tYIZARMkI0qMDaVPMhOeGuaXC2EhUdQ3_8GlwAAbLGkWi15-KYerohmWpNihTRaBm03FBnjrpFbbfmDYgrN57hDkB1_LOaX7Z8joIlUpQd1o_h-RLhXEYyR3BJn5VcZV_bkNfPtUf_DDhObYhkU6ageYLDRGK0SA5bz8zEX9G7zOXgzE1Ojj77mU3OXXYlfwbgCHQFRKlEZQico-EChuwKTSnXBAlgNzG2TeZjGdWacGa-1-x37umu6nJ6pCpPY3ZUn6MWssoprf_XgUvS1OPPSkgriFPz3Sihy9b0XluT-MCS0E-iXuZKml1smIJrLecPGkva4VkBRGId9CLNYb6C0mQg2A-Uj8y_xwwcEpBmohYGmSRw_O-XLoYlzVLDH5dSUrZ3BnRT5SMecbhsIxXS0]--></g></svg>