<?xml version="1.0" encoding="us-ascii" standalone="no"?><svg xmlns="http://www.w3.org/2000/svg" xmlns:xlink="http://www.w3.org/1999/xlink" contentStyleType="text/css" height="493px" preserveAspectRatio="none" style="width:723px;height:493px;background:#FFFFFF;" version="1.1" viewBox="0 0 723 493" width="723px" zoomAndPan="magnify"><defs/><g><rect fill="#FFFFFF" height="343.7578" style="stroke:#181818;stroke-width:1.0;" width="10" x="159" y="81.8047"/><rect fill="#FFFFFF" height="28.5234" style="stroke:#181818;stroke-width:1.0;" width="10" x="283" y="110.3281"/><rect fill="#FFFFFF" height="28.5234" style="stroke:#181818;stroke-width:1.0;" width="10" x="390" y="167.375"/><rect fill="#FFFFFF" height="172.6172" style="stroke:#181818;stroke-width:1.0;" width="10" x="539.5" y="224.4219"/><rect fill="none" height="88.5703" style="stroke:#000000;stroke-width:1.5;" width="284" x="433.5" y="280.9453"/><rect fill="none" height="58.0469" style="stroke:#000000;stroke-width:1.5;" width="264" x="443.5" y="304.4688"/><line style="stroke:#181818;stroke-width:0.5;stroke-dasharray:5.0,5.0;" x1="163.5" x2="163.5" y1="51.2813" y2="443.5625"/><line style="stroke:#181818;stroke-width:0.5;stroke-dasharray:5.0,5.0;" x1="287.5" x2="287.5" y1="51.2813" y2="443.5625"/><line style="stroke:#181818;stroke-width:0.5;stroke-dasharray:5.0,5.0;" x1="394.5" x2="394.5" y1="51.2813" y2="443.5625"/><line style="stroke:#181818;stroke-width:0.5;stroke-dasharray:5.0,5.0;" x1="544.5" x2="544.5" y1="51.2813" y2="443.5625"/><rect fill="#E3E3E3" height="29.6406" rx="2.5" ry="2.5" style="stroke:#181818;stroke-width:0.5;" width="131" x="98.5" y="20.6406"/><text fill="#000000" font-family="sans-serif" font-size="14" lengthAdjust="spacing" textLength="117" x="105.5" y="40.3145">:DealListController</text><rect fill="#E3E3E3" height="29.6406" rx="2.5" ry="2.5" style="stroke:#181818;stroke-width:0.5;" width="131" x="98.5" y="442.5625"/><text fill="#000000" font-family="sans-serif" font-size="14" lengthAdjust="spacing" textLength="117" x="105.5" y="462.2363">:DealListController</text><rect fill="#E3E3E3" height="29.6406" rx="2.5" ry="2.5" style="stroke:#181818;stroke-width:0.5;" width="97" x="239.5" y="20.6406"/><text fill="#000000" font-family="sans-serif" font-size="14" lengthAdjust="spacing" textLength="83" x="246.5" y="40.3145">:Repositories</text><rect fill="#E3E3E3" height="29.6406" rx="2.5" ry="2.5" style="stroke:#181818;stroke-width:0.5;" width="97" x="239.5" y="442.5625"/><text fill="#000000" font-family="sans-serif" font-size="14" lengthAdjust="spacing" textLength="83" x="246.5" y="462.2363">:Repositories</text><rect fill="#E3E3E3" height="45.2813" rx="2.5" ry="2.5" style="stroke:#181818;stroke-width:0.5;" width="97" x="346.5" y="5"/><text fill="#000000" font-family="sans-serif" font-size="14" lengthAdjust="spacing" textLength="79" x="355.5" y="24.6738">Repositories</text><text fill="#000000" font-family="sans-serif" font-size="14" lengthAdjust="spacing" textLength="83" x="353.5" y="40.3145">:Repositories</text><rect fill="#E3E3E3" height="45.2813" rx="2.5" ry="2.5" style="stroke:#181818;stroke-width:0.5;" width="97" x="346.5" y="442.5625"/><text fill="#000000" font-family="sans-serif" font-size="14" lengthAdjust="spacing" textLength="79" x="355.5" y="462.2363">Repositories</text><text fill="#000000" font-family="sans-serif" font-size="14" lengthAdjust="spacing" textLength="83" x="353.5" y="477.877">:Repositories</text><rect fill="#E3E3E3" height="45.2813" rx="2.5" ry="2.5" style="stroke:#181818;stroke-width:0.5;" width="182" x="453.5" y="5"/><text fill="#000000" font-family="sans-serif" font-size="14" lengthAdjust="spacing" textLength="168" x="460.5" y="24.6738">purchaseOrderRepository:</text><text fill="#000000" font-family="sans-serif" font-size="14" lengthAdjust="spacing" textLength="165" x="462" y="40.3145">PurchaseOrderRepository</text><rect fill="#E3E3E3" height="45.2813" rx="2.5" ry="2.5" style="stroke:#181818;stroke-width:0.5;" width="182" x="453.5" y="442.5625"/><text fill="#000000" font-family="sans-serif" font-size="14" lengthAdjust="spacing" textLength="168" x="460.5" y="462.2363">purchaseOrderRepository:</text><text fill="#000000" font-family="sans-serif" font-size="14" lengthAdjust="spacing" textLength="165" x="462" y="477.877">PurchaseOrderRepository</text><rect fill="#FFFFFF" height="343.7578" style="stroke:#181818;stroke-width:1.0;" width="10" x="159" y="81.8047"/><rect fill="#FFFFFF" height="28.5234" style="stroke:#181818;stroke-width:1.0;" width="10" x="283" y="110.3281"/><rect fill="#FFFFFF" height="28.5234" style="stroke:#181818;stroke-width:1.0;" width="10" x="390" y="167.375"/><rect fill="#FFFFFF" height="172.6172" style="stroke:#181818;stroke-width:1.0;" width="10" x="539.5" y="224.4219"/><polygon fill="#181818" points="147,77.8047,157,81.8047,147,85.8047,151,81.8047" style="stroke:#181818;stroke-width:1.0;"/><line style="stroke:#181818;stroke-width:1.0;" x1="0" x2="153" y1="81.8047" y2="81.8047"/><text fill="#000000" font-family="sans-serif" font-size="13" font-weight="bold" lengthAdjust="spacing" textLength="7" x="7" y="77.0498">1</text><text fill="#000000" font-family="sans-serif" font-size="13" lengthAdjust="spacing" textLength="129" x="18" y="77.0498">getPropertyDealsList()</text><polygon fill="#181818" points="271,106.3281,281,110.3281,271,114.3281,275,110.3281" style="stroke:#181818;stroke-width:1.0;"/><line style="stroke:#181818;stroke-width:1.0;" x1="169" x2="277" y1="110.3281" y2="110.3281"/><text fill="#000000" font-family="sans-serif" font-size="13" font-weight="bold" lengthAdjust="spacing" textLength="7" x="176" y="105.5732">2</text><text fill="#000000" font-family="sans-serif" font-size="13" lengthAdjust="spacing" textLength="75" x="187" y="105.5732">getInstance()</text><polygon fill="#181818" points="180,134.8516,170,138.8516,180,142.8516,176,138.8516" style="stroke:#181818;stroke-width:1.0;"/><line style="stroke:#181818;stroke-width:1.0;stroke-dasharray:2.0,2.0;" x1="174" x2="287" y1="138.8516" y2="138.8516"/><text fill="#000000" font-family="sans-serif" font-size="13" font-weight="bold" lengthAdjust="spacing" textLength="7" x="186" y="134.0967">3</text><text fill="#000000" font-family="sans-serif" font-size="13" lengthAdjust="spacing" textLength="67" x="197" y="134.0967">repositories</text><polygon fill="#181818" points="378,163.375,388,167.375,378,171.375,382,167.375" style="stroke:#181818;stroke-width:1.0;"/><line style="stroke:#181818;stroke-width:1.0;" x1="169" x2="384" y1="167.375" y2="167.375"/><text fill="#000000" font-family="sans-serif" font-size="13" font-weight="bold" lengthAdjust="spacing" textLength="7" x="176" y="162.6201">4</text><text fill="#000000" font-family="sans-serif" font-size="13" lengthAdjust="spacing" textLength="175" x="187" y="162.6201">getPurchaseOrderRepository()</text><polygon fill="#181818" points="180,191.8984,170,195.8984,180,199.8984,176,195.8984" style="stroke:#181818;stroke-width:1.0;"/><line style="stroke:#181818;stroke-width:1.0;stroke-dasharray:2.0,2.0;" x1="174" x2="394" y1="195.8984" y2="195.8984"/><text fill="#000000" font-family="sans-serif" font-size="13" font-weight="bold" lengthAdjust="spacing" textLength="7" x="186" y="191.1436">5</text><text fill="#000000" font-family="sans-serif" font-size="13" lengthAdjust="spacing" textLength="149" x="197" y="191.1436">PurchaseOrderRepository</text><polygon fill="#181818" points="527.5,220.4219,537.5,224.4219,527.5,228.4219,531.5,224.4219" style="stroke:#181818;stroke-width:1.0;"/><line style="stroke:#181818;stroke-width:1.0;" x1="169" x2="533.5" y1="224.4219" y2="224.4219"/><text fill="#000000" font-family="sans-serif" font-size="13" font-weight="bold" lengthAdjust="spacing" textLength="7" x="176" y="219.667">6</text><text fill="#000000" font-family="sans-serif" font-size="13" lengthAdjust="spacing" textLength="121" x="187" y="219.667">getDealsFromOrder()</text><line style="stroke:#181818;stroke-width:1.0;" x1="549.5" x2="591.5" y1="252.9453" y2="252.9453"/><line style="stroke:#181818;stroke-width:1.0;" x1="591.5" x2="591.5" y1="252.9453" y2="265.9453"/><line style="stroke:#181818;stroke-width:1.0;" x1="550.5" x2="591.5" y1="265.9453" y2="265.9453"/><polygon fill="#181818" points="560.5,261.9453,550.5,265.9453,560.5,269.9453,556.5,265.9453" style="stroke:#181818;stroke-width:1.0;"/><text fill="#000000" font-family="sans-serif" font-size="13" font-weight="bold" lengthAdjust="spacing" textLength="7" x="556.5" y="248.1904">7</text><text fill="#000000" font-family="sans-serif" font-size="13" lengthAdjust="spacing" textLength="120" x="567.5" y="248.1904">getPurchaseOrders()</text><path d="M433.5,280.9453 L498.5,280.9453 L498.5,287.4688 L488.5,297.4688 L433.5,297.4688 L433.5,280.9453 " fill="#EEEEEE" style="stroke:#000000;stroke-width:1.5;"/><rect fill="none" height="88.5703" style="stroke:#000000;stroke-width:1.5;" width="284" x="433.5" y="280.9453"/><text fill="#000000" font-family="sans-serif" font-size="13" font-weight="bold" lengthAdjust="spacing" textLength="20" x="448.5" y="293.7139">opt</text><text fill="#000000" font-family="sans-serif" font-size="11" font-weight="bold" lengthAdjust="spacing" textLength="142" x="513.5" y="292.9033">[for each purchase order]</text><path d="M443.5,304.4688 L504.5,304.4688 L504.5,310.9922 L494.5,320.9922 L443.5,320.9922 L443.5,304.4688 " fill="#EEEEEE" style="stroke:#000000;stroke-width:1.5;"/><rect fill="none" height="58.0469" style="stroke:#000000;stroke-width:1.5;" width="264" x="443.5" y="304.4688"/><text fill="#000000" font-family="sans-serif" font-size="13" font-weight="bold" lengthAdjust="spacing" textLength="16" x="458.5" y="317.2373">alt</text><text fill="#000000" font-family="sans-serif" font-size="11" font-weight="bold" lengthAdjust="spacing" textLength="183" x="519.5" y="316.4268">[if purchase order was accepted]</text><line style="stroke:#181818;stroke-width:1.0;stroke-dasharray:2.0,2.0;" x1="549.5" x2="591.5" y1="341.5156" y2="341.5156"/><line style="stroke:#181818;stroke-width:1.0;stroke-dasharray:2.0,2.0;" x1="591.5" x2="591.5" y1="341.5156" y2="354.5156"/><line style="stroke:#181818;stroke-width:1.0;stroke-dasharray:2.0,2.0;" x1="550.5" x2="591.5" y1="354.5156" y2="354.5156"/><polygon fill="#181818" points="560.5,350.5156,550.5,354.5156,560.5,358.5156,556.5,354.5156" style="stroke:#181818;stroke-width:1.0;"/><text fill="#000000" font-family="sans-serif" font-size="13" font-weight="bold" lengthAdjust="spacing" textLength="7" x="556.5" y="336.7607">8</text><text fill="#000000" font-family="sans-serif" font-size="13" lengthAdjust="spacing" textLength="80" x="567.5" y="336.7607">add (property)</text><polygon fill="#181818" points="180,393.0391,170,397.0391,180,401.0391,176,397.0391" style="stroke:#181818;stroke-width:1.0;"/><line style="stroke:#181818;stroke-width:1.0;stroke-dasharray:2.0,2.0;" x1="174" x2="543.5" y1="397.0391" y2="397.0391"/><text fill="#000000" font-family="sans-serif" font-size="13" font-weight="bold" lengthAdjust="spacing" textLength="7" x="186" y="392.2842">9</text><text fill="#000000" font-family="sans-serif" font-size="13" lengthAdjust="spacing" textLength="68" x="197" y="392.2842">propertyList</text><polygon fill="#181818" points="11,421.5625,1,425.5625,11,429.5625,7,425.5625" style="stroke:#181818;stroke-width:1.0;"/><line style="stroke:#181818;stroke-width:1.0;stroke-dasharray:2.0,2.0;" x1="5" x2="163" y1="425.5625" y2="425.5625"/><text fill="#000000" font-family="sans-serif" font-size="13" font-weight="bold" lengthAdjust="spacing" textLength="14" x="17" y="420.8076">10</text><text fill="#000000" font-family="sans-serif" font-size="13" lengthAdjust="spacing" textLength="68" x="35" y="420.8076">propertyList</text><!--SRC=[ZP91Qzmm48Nl-XL3BaqExjvDA9IKG65XbqsEkKpbMLj4bbHfdB3_lfBMzjgk2jN9bjvyUlCqNpfc5-hTpcaqFFJwgxJzBj3lWOoagb7OUkn5U5V6OVo2tXehEszx0lO3BKuSodTiwOKlci2JP3IjNWf2XutzLAQ5C-f0GWWSs9gX_qK-_aGHAwbSz05tzGz2lLU1dwnXRxKcVmSOuEdrjDyeJ-HiK6ozef0ryyRbHIKByOvroRBYpVmDEEw_lwuhtE1bXu4ElY5_uzTlvbW-oPp3ARObgc_PDTJG4X-zTUJvajeBgR_x1m5neMJrWKpN1aNUIojNHaAXfolmfmanQ4cHCnVDi58Iiwg4h4QpTNp0MoXpIKF_XPvCfnp7jiifZStV3EVav-kkWEeMu3ymOcjkXPdS74vNBpdwvpZ1cJ9Ps2INdmwMAvOl82idOHb-NjOnmDbwY9uwcAO7R5AlbQWPr7aZWSyuFIWbEQQcu6CoWaq3zsuSgOUrZiosCkuaOsNUcF04IwEvrYtYJU5Cs-kO7gkgI19bK9B-0G00]--></g></svg>