<?xml version="1.0" encoding="us-ascii" standalone="no"?><svg xmlns="http://www.w3.org/2000/svg" xmlns:xlink="http://www.w3.org/1999/xlink" contentStyleType="text/css" height="782px" preserveAspectRatio="none" style="width:770px;height:782px;background:#FFFFFF;" version="1.1" viewBox="0 0 770 782" width="770px" zoomAndPan="magnify"><defs/><g><rect fill="#FFFFFF" height="618.1035" style="stroke:#181818;stroke-width:1.0;" width="10" x="163" y="90.5332"/><rect fill="#FFFFFF" height="30" style="stroke:#181818;stroke-width:1.0;" width="10" x="416" y="210.3574"/><rect fill="#FFFFFF" height="30" style="stroke:#181818;stroke-width:1.0;" width="10" x="508" y="271.6484"/><rect fill="#FFFFFF" height="30" style="stroke:#181818;stroke-width:1.0;" width="10" x="508" y="332.9395"/><rect fill="#FFFFFF" height="30" style="stroke:#181818;stroke-width:1.0;" width="10" x="508" y="394.2305"/><rect fill="#FFFFFF" height="30" style="stroke:#181818;stroke-width:1.0;" width="10" x="508" y="455.5215"/><rect fill="#FFFFFF" height="30" style="stroke:#181818;stroke-width:1.0;" width="10" x="508" y="516.8125"/><rect fill="#FFFFFF" height="30" style="stroke:#181818;stroke-width:1.0;" width="10" x="601" y="640.3457"/><rect fill="none" height="510.5703" style="stroke:#000000;stroke-width:1.5;" width="655" x="109" y="167.7754"/><line style="stroke:#181818;stroke-width:0.5;stroke-dasharray:5.0,5.0;" x1="168" x2="168" y1="57.2422" y2="726.6367"/><line style="stroke:#181818;stroke-width:0.5;stroke-dasharray:5.0,5.0;" x1="290" x2="290" y1="57.2422" y2="726.6367"/><line style="stroke:#181818;stroke-width:0.5;stroke-dasharray:5.0,5.0;" x1="421" x2="421" y1="57.2422" y2="726.6367"/><line style="stroke:#181818;stroke-width:0.5;stroke-dasharray:5.0,5.0;" x1="513" x2="513" y1="57.2422" y2="726.6367"/><line style="stroke:#181818;stroke-width:0.5;stroke-dasharray:5.0,5.0;" x1="606" x2="606" y1="139.6543" y2="726.6367"/><line style="stroke:#181818;stroke-width:0.5;stroke-dasharray:5.0,5.0;" x1="714" x2="714" y1="595.9336" y2="726.6367"/><rect fill="#E3E3E3" height="51.2422" rx="2.5" ry="2.5" style="stroke:#181818;stroke-width:0.5;" width="98" x="119" y="5"/><text fill="#000000" font-family="sans-serif" font-size="14" lengthAdjust="spacing" textLength="84" x="126" y="27.1074">storeMapper:</text><text fill="#000000" font-family="sans-serif" font-size="14" lengthAdjust="spacing" textLength="82" x="127" y="45.7285">StoreMapper</text><rect fill="#E3E3E3" height="51.2422" rx="2.5" ry="2.5" style="stroke:#181818;stroke-width:0.5;" width="98" x="119" y="725.6367"/><text fill="#000000" font-family="sans-serif" font-size="14" lengthAdjust="spacing" textLength="84" x="126" y="747.7441">storeMapper:</text><text fill="#000000" font-family="sans-serif" font-size="14" lengthAdjust="spacing" textLength="82" x="127" y="766.3652">StoreMapper</text><rect fill="#E3E3E3" height="51.2422" rx="2.5" ry="2.5" style="stroke:#181818;stroke-width:0.5;" width="127" x="227" y="5"/><text fill="#000000" font-family="sans-serif" font-size="14" lengthAdjust="spacing" textLength="113" x="234" y="27.1074">employeeMapper:</text><text fill="#000000" font-family="sans-serif" font-size="14" lengthAdjust="spacing" textLength="110" x="235.5" y="45.7285">EmployeeMapper</text><rect fill="#E3E3E3" height="51.2422" rx="2.5" ry="2.5" style="stroke:#181818;stroke-width:0.5;" width="127" x="227" y="725.6367"/><text fill="#000000" font-family="sans-serif" font-size="14" lengthAdjust="spacing" textLength="113" x="234" y="747.7441">employeeMapper:</text><text fill="#000000" font-family="sans-serif" font-size="14" lengthAdjust="spacing" textLength="110" x="235.5" y="766.3652">EmployeeMapper</text><rect fill="#E3E3E3" height="51.2422" rx="2.5" ry="2.5" style="stroke:#181818;stroke-width:0.5;" width="114" x="364" y="5"/><text fill="#000000" font-family="sans-serif" font-size="14" lengthAdjust="spacing" textLength="100" x="371" y="27.1074">storeListSorted:</text><text fill="#000000" font-family="sans-serif" font-size="14" lengthAdjust="spacing" textLength="72" x="385" y="45.7285">List&lt;Store&gt;</text><rect fill="#E3E3E3" height="51.2422" rx="2.5" ry="2.5" style="stroke:#181818;stroke-width:0.5;" width="114" x="364" y="725.6367"/><text fill="#000000" font-family="sans-serif" font-size="14" lengthAdjust="spacing" textLength="100" x="371" y="747.7441">storeListSorted:</text><text fill="#000000" font-family="sans-serif" font-size="14" lengthAdjust="spacing" textLength="72" x="385" y="766.3652">List&lt;Store&gt;</text><rect fill="#E3E3E3" height="51.2422" rx="2.5" ry="2.5" style="stroke:#181818;stroke-width:0.5;" width="50" x="488" y="5"/><text fill="#000000" font-family="sans-serif" font-size="14" lengthAdjust="spacing" textLength="36" x="495" y="27.1074">store:</text><text fill="#000000" font-family="sans-serif" font-size="14" lengthAdjust="spacing" textLength="34" x="496" y="45.7285">Store</text><rect fill="#E3E3E3" height="51.2422" rx="2.5" ry="2.5" style="stroke:#181818;stroke-width:0.5;" width="50" x="488" y="725.6367"/><text fill="#000000" font-family="sans-serif" font-size="14" lengthAdjust="spacing" textLength="36" x="495" y="747.7441">store:</text><text fill="#000000" font-family="sans-serif" font-size="14" lengthAdjust="spacing" textLength="34" x="496" y="766.3652">Store</text><rect fill="#E3E3E3" height="51.2422" rx="2.5" ry="2.5" style="stroke:#181818;stroke-width:0.5;" width="116" x="548" y="725.6367"/><text fill="#000000" font-family="sans-serif" font-size="14" lengthAdjust="spacing" textLength="71" x="570.5" y="747.7441">lStoreDTO:</text><text fill="#000000" font-family="sans-serif" font-size="14" lengthAdjust="spacing" textLength="102" x="555" y="766.3652">List&lt;StoreDTO&gt;</text><rect fill="#E3E3E3" height="51.2422" rx="2.5" ry="2.5" style="stroke:#181818;stroke-width:0.5;" width="80" x="674" y="725.6367"/><text fill="#000000" font-family="sans-serif" font-size="14" lengthAdjust="spacing" textLength="66" x="681" y="747.7441">storeDTO:</text><text fill="#000000" font-family="sans-serif" font-size="14" lengthAdjust="spacing" textLength="64" x="682" y="766.3652">StoreDTO</text><rect fill="#FFFFFF" height="618.1035" style="stroke:#181818;stroke-width:1.0;" width="10" x="163" y="90.5332"/><rect fill="#FFFFFF" height="30" style="stroke:#181818;stroke-width:1.0;" width="10" x="416" y="210.3574"/><rect fill="#FFFFFF" height="30" style="stroke:#181818;stroke-width:1.0;" width="10" x="508" y="271.6484"/><rect fill="#FFFFFF" height="30" style="stroke:#181818;stroke-width:1.0;" width="10" x="508" y="332.9395"/><rect fill="#FFFFFF" height="30" style="stroke:#181818;stroke-width:1.0;" width="10" x="508" y="394.2305"/><rect fill="#FFFFFF" height="30" style="stroke:#181818;stroke-width:1.0;" width="10" x="508" y="455.5215"/><rect fill="#FFFFFF" height="30" style="stroke:#181818;stroke-width:1.0;" width="10" x="508" y="516.8125"/><rect fill="#FFFFFF" height="30" style="stroke:#181818;stroke-width:1.0;" width="10" x="601" y="640.3457"/><polygon fill="#181818" points="151,86.5332,161,90.5332,151,94.5332,155,90.5332" style="stroke:#181818;stroke-width:1.0;"/><line style="stroke:#181818;stroke-width:1.0;" x1="0" x2="157" y1="90.5332" y2="90.5332"/><text fill="#000000" font-family="sans-serif" font-size="13" font-weight="bold" lengthAdjust="spacing" textLength="7" x="7" y="85.2705">1</text><text fill="#000000" font-family="sans-serif" font-size="13" lengthAdjust="spacing" textLength="133" x="18" y="85.2705">toDTO(storeListSorted)</text><polygon fill="#181818" points="536,117.8242,546,121.8242,536,125.8242,540,121.8242" style="stroke:#181818;stroke-width:1.0;"/><line style="stroke:#181818;stroke-width:1.0;" x1="173" x2="542" y1="121.8242" y2="121.8242"/><text fill="#000000" font-family="sans-serif" font-size="13" font-weight="bold" lengthAdjust="spacing" textLength="7" x="180" y="116.5615">2</text><text fill="#000000" font-family="sans-serif" font-size="13" lengthAdjust="spacing" textLength="44" x="191" y="116.5615">create()</text><rect fill="#E3E3E3" height="51.2422" rx="2.5" ry="2.5" style="stroke:#181818;stroke-width:0.5;" width="116" x="548" y="98.5332"/><text fill="#000000" font-family="sans-serif" font-size="14" lengthAdjust="spacing" textLength="71" x="570.5" y="120.6406">lStoreDTO:</text><text fill="#000000" font-family="sans-serif" font-size="14" lengthAdjust="spacing" textLength="102" x="555" y="139.2617">List&lt;StoreDTO&gt;</text><path d="M109,167.7754 L182,167.7754 L182,177.0664 L172,187.0664 L109,187.0664 L109,167.7754 " fill="#EEEEEE" style="stroke:#000000;stroke-width:1.5;"/><rect fill="none" height="510.5703" style="stroke:#000000;stroke-width:1.5;" width="655" x="109" y="167.7754"/><text fill="#000000" font-family="sans-serif" font-size="13" font-weight="bold" lengthAdjust="spacing" textLength="28" x="124" y="182.8037">loop</text><text fill="#000000" font-family="sans-serif" font-size="11" font-weight="bold" lengthAdjust="spacing" textLength="194" x="197" y="181.6455">[for each object in storeListSorted]</text><polygon fill="#181818" points="404,206.3574,414,210.3574,404,214.3574,408,210.3574" style="stroke:#181818;stroke-width:1.0;"/><line style="stroke:#181818;stroke-width:1.0;" x1="173" x2="410" y1="210.3574" y2="210.3574"/><text fill="#000000" font-family="sans-serif" font-size="13" font-weight="bold" lengthAdjust="spacing" textLength="7" x="180" y="205.0947">3</text><text fill="#000000" font-family="sans-serif" font-size="13" lengthAdjust="spacing" textLength="102" x="191" y="205.0947">store = getStore()</text><polygon fill="#181818" points="496,267.6484,506,271.6484,496,275.6484,500,271.6484" style="stroke:#181818;stroke-width:1.0;"/><line style="stroke:#181818;stroke-width:1.0;stroke-dasharray:2.0,2.0;" x1="173" x2="502" y1="271.6484" y2="271.6484"/><text fill="#000000" font-family="sans-serif" font-size="13" font-weight="bold" lengthAdjust="spacing" textLength="7" x="180" y="266.3857">4</text><text fill="#000000" font-family="sans-serif" font-size="13" lengthAdjust="spacing" textLength="62" x="191" y="266.3857">id = getId()</text><polygon fill="#181818" points="496,328.9395,506,332.9395,496,336.9395,500,332.9395" style="stroke:#181818;stroke-width:1.0;"/><line style="stroke:#181818;stroke-width:1.0;" x1="173" x2="502" y1="332.9395" y2="332.9395"/><text fill="#000000" font-family="sans-serif" font-size="13" font-weight="bold" lengthAdjust="spacing" textLength="7" x="180" y="327.6768">5</text><text fill="#000000" font-family="sans-serif" font-size="13" lengthAdjust="spacing" textLength="176" x="191" y="327.6768">designation = getDesignation()</text><polygon fill="#181818" points="496,390.2305,506,394.2305,496,398.2305,500,394.2305" style="stroke:#181818;stroke-width:1.0;"/><line style="stroke:#181818;stroke-width:1.0;" x1="173" x2="502" y1="394.2305" y2="394.2305"/><text fill="#000000" font-family="sans-serif" font-size="13" font-weight="bold" lengthAdjust="spacing" textLength="7" x="180" y="388.9678">6</text><text fill="#000000" font-family="sans-serif" font-size="13" lengthAdjust="spacing" textLength="136" x="191" y="388.9678">address = getAddress()</text><polygon fill="#181818" points="496,451.5215,506,455.5215,496,459.5215,500,455.5215" style="stroke:#181818;stroke-width:1.0;"/><line style="stroke:#181818;stroke-width:1.0;" x1="173" x2="502" y1="455.5215" y2="455.5215"/><text fill="#000000" font-family="sans-serif" font-size="13" font-weight="bold" lengthAdjust="spacing" textLength="7" x="180" y="450.2588">7</text><text fill="#000000" font-family="sans-serif" font-size="13" lengthAdjust="spacing" textLength="106" x="191" y="450.2588">email = getEmail()</text><polygon fill="#181818" points="496,512.8125,506,516.8125,496,520.8125,500,516.8125" style="stroke:#181818;stroke-width:1.0;"/><line style="stroke:#181818;stroke-width:1.0;" x1="173" x2="502" y1="516.8125" y2="516.8125"/><text fill="#000000" font-family="sans-serif" font-size="13" font-weight="bold" lengthAdjust="spacing" textLength="7" x="180" y="511.5498">8</text><text fill="#000000" font-family="sans-serif" font-size="13" lengthAdjust="spacing" textLength="204" x="191" y="511.5498">phoneNumber = getPhoneNumber()</text><polygon fill="#181818" points="662,574.1035,672,578.1035,662,582.1035,666,578.1035" style="stroke:#181818;stroke-width:1.0;"/><line style="stroke:#181818;stroke-width:1.0;" x1="173" x2="668" y1="578.1035" y2="578.1035"/><text fill="#000000" font-family="sans-serif" font-size="13" font-weight="bold" lengthAdjust="spacing" textLength="7" x="180" y="572.8408">9</text><text fill="#000000" font-family="sans-serif" font-size="13" lengthAdjust="spacing" textLength="44" x="191" y="572.8408">create()</text><rect fill="#E3E3E3" height="51.2422" rx="2.5" ry="2.5" style="stroke:#181818;stroke-width:0.5;" width="80" x="674" y="554.8125"/><text fill="#000000" font-family="sans-serif" font-size="14" lengthAdjust="spacing" textLength="66" x="681" y="576.9199">storeDTO:</text><text fill="#000000" font-family="sans-serif" font-size="14" lengthAdjust="spacing" textLength="64" x="682" y="595.541">StoreDTO</text><polygon fill="#181818" points="589,636.3457,599,640.3457,589,644.3457,593,640.3457" style="stroke:#181818;stroke-width:1.0;"/><line style="stroke:#181818;stroke-width:1.0;stroke-dasharray:2.0,2.0;" x1="173" x2="595" y1="640.3457" y2="640.3457"/><text fill="#000000" font-family="sans-serif" font-size="13" font-weight="bold" lengthAdjust="spacing" textLength="14" x="180" y="635.083">10</text><text fill="#000000" font-family="sans-serif" font-size="13" lengthAdjust="spacing" textLength="84" x="198" y="635.083">add(storeDTO)</text><polygon fill="#181818" points="11,704.6367,1,708.6367,11,712.6367,7,708.6367" style="stroke:#181818;stroke-width:1.0;"/><line style="stroke:#181818;stroke-width:1.0;stroke-dasharray:2.0,2.0;" x1="5" x2="167" y1="708.6367" y2="708.6367"/><text fill="#000000" font-family="sans-serif" font-size="13" font-weight="bold" lengthAdjust="spacing" textLength="14" x="17" y="703.374">11</text><text fill="#000000" font-family="sans-serif" font-size="13" lengthAdjust="spacing" textLength="76" x="35" y="703.374">storeListDTO</text><!--SRC=[jPJFRi8m3CRlVGfhby4aNg1YaoR1OH8C11ntCOrfCzguIiB-lFtIfAMqC3Z1YSJVvvyJnpLxgKhKM431YfDCSq5WzO4YSuoKcEmnfRNzpGaq9HPLcfyAJ8Q2lwLAOOUveIYA7ZCf27RCTii_aLDPcSWIbOK7OrdJ7CkITFoXrktg0T30UhEQlowx3YhAd7-fDKqx6zutdIzdPqQFcabZrwmj2UUi5cFFVF6scUDTy3I5rIKjUfhS1oURHIUZMxT9tU92tc1frCVibJZ2WsLrABQaemXEVwEN-bPYiEoaWzwnXXqv9bP-eQNc9Zl1i5Tbh6jyUeeXqUJqWs5NcZENhe4Q29CCUFlf-WvIGG_UBVKC4GSzF4DArfzxC3op74lstUX71LsFDq1_JOiLn215uBs9Qp3VrYkmY_7sT3LBa96fGYjP1UYatRW_7ONGP4mWluR5_QbKeCm3SrhzlJ-np5ZHkn-Em5ss6tUc-o61_wQazm3hgGgT6JGZV-F5LzD_uz5Vaf0IVaZRWiQZKLrBt8xfgRLpyl1r-0C0]--></g></svg>