<?xml version="1.0" encoding="us-ascii" standalone="no"?><svg xmlns="http://www.w3.org/2000/svg" xmlns:xlink="http://www.w3.org/1999/xlink" contentStyleType="text/css" height="728px" preserveAspectRatio="none" style="width:932px;height:728px;background:#FFFFFF;" version="1.1" viewBox="0 0 932 728" width="932px" zoomAndPan="magnify"><defs><filter height="300%" id="fnoxppyu2cbmt" width="300%" x="-1" y="-1"><feGaussianBlur result="blurOut" stdDeviation="2.0"/><feColorMatrix in="blurOut" result="blurOut2" type="matrix" values="0 0 0 0 0 0 0 0 0 0 0 0 0 0 0 0 0 0 .4 0"/><feOffset dx="4.0" dy="4.0" in="blurOut2" result="blurOut3"/><feBlend in="SourceGraphic" in2="blurOut3" mode="normal"/></filter></defs><g><!--class Store--><g id="elem_Store"><rect codeLine="17" fill="#F1F1F1" filter="url(#fnoxppyu2cbmt)" height="122.4844" id="Store" rx="2.5" ry="2.5" style="stroke:#181818;stroke-width:0.5;" width="154" x="470.5" y="392"/><ellipse cx="526.25" cy="408" fill="#ADD1B2" rx="11" ry="11" style="stroke:#181818;stroke-width:1.0;"/><path d="M529.0156,403.875 Q529.1719,403.6563 529.3594,403.5469 Q529.5469,403.4375 529.7656,403.4375 Q530.1406,403.4375 530.375,403.7031 Q530.6094,403.9531 530.6094,404.5625 L530.6094,406.0156 Q530.6094,406.625 530.375,406.8906 Q530.1406,407.1563 529.7656,407.1563 Q529.4219,407.1563 529.2188,406.9531 Q529.0156,406.7656 528.9063,406.25 Q528.8594,405.8906 528.6719,405.7031 Q528.3438,405.3281 527.7344,405.1094 Q527.125,404.8906 526.5,404.8906 Q525.7344,404.8906 525.0938,405.2188 Q524.4688,405.5469 523.9688,406.2969 Q523.4844,407.0469 523.4844,408.0781 L523.4844,409.1719 Q523.4844,410.4063 524.375,411.2344 Q525.2656,412.0469 526.8594,412.0469 Q527.7969,412.0469 528.4531,411.7969 Q528.8438,411.6406 529.2656,411.2031 Q529.5313,410.9375 529.6719,410.8594 Q529.8281,410.7813 530.0313,410.7813 Q530.3594,410.7813 530.6094,411.0469 Q530.875,411.2969 530.875,411.6406 Q530.875,411.9844 530.5313,412.3906 Q530.0313,412.9688 529.2344,413.2969 Q528.1563,413.75 526.8594,413.75 Q525.3438,413.75 524.1406,413.125 Q523.1563,412.625 522.4688,411.5625 Q521.7813,410.4844 521.7813,409.2031 L521.7813,408.0469 Q521.7813,406.7188 522.3906,405.5781 Q523.0156,404.4219 524.1094,403.8125 Q525.2031,403.1875 526.4375,403.1875 Q527.1719,403.1875 527.8125,403.3594 Q528.4688,403.5156 529.0156,403.875 Z " fill="#000000"/><text fill="#000000" font-family="sans-serif" font-size="14" lengthAdjust="spacing" textLength="34" x="546.75" y="413.7969">Store</text><line style="stroke:#181818;stroke-width:0.5;" x1="471.5" x2="623.5" y1="424" y2="424"/><text fill="#000000" font-family="sans-serif" font-size="14" lengthAdjust="spacing" textLength="64" x="476.5" y="443.1074">-Integer id</text><text fill="#000000" font-family="sans-serif" font-size="14" lengthAdjust="spacing" textLength="119" x="476.5" y="461.7285">-String designation</text><text fill="#000000" font-family="sans-serif" font-size="14" lengthAdjust="spacing" textLength="79" x="476.5" y="480.3496">-String email</text><text fill="#000000" font-family="sans-serif" font-size="14" lengthAdjust="spacing" textLength="142" x="476.5" y="498.9707">-Integer phoneNumber</text><line style="stroke:#181818;stroke-width:0.5;" x1="471.5" x2="623.5" y1="506.4844" y2="506.4844"/></g><!--class Employee--><g id="elem_Employee"><rect codeLine="24" fill="#F1F1F1" filter="url(#fnoxppyu2cbmt)" height="159.7266" id="Employee" rx="2.5" ry="2.5" style="stroke:#181818;stroke-width:0.5;" width="169" x="266" y="373"/><ellipse cx="315.25" cy="389" fill="#ADD1B2" rx="11" ry="11" style="stroke:#181818;stroke-width:1.0;"/><path d="M318.0156,384.875 Q318.1719,384.6563 318.3594,384.5469 Q318.5469,384.4375 318.7656,384.4375 Q319.1406,384.4375 319.375,384.7031 Q319.6094,384.9531 319.6094,385.5625 L319.6094,387.0156 Q319.6094,387.625 319.375,387.8906 Q319.1406,388.1563 318.7656,388.1563 Q318.4219,388.1563 318.2188,387.9531 Q318.0156,387.7656 317.9063,387.25 Q317.8594,386.8906 317.6719,386.7031 Q317.3438,386.3281 316.7344,386.1094 Q316.125,385.8906 315.5,385.8906 Q314.7344,385.8906 314.0938,386.2188 Q313.4688,386.5469 312.9688,387.2969 Q312.4844,388.0469 312.4844,389.0781 L312.4844,390.1719 Q312.4844,391.4063 313.375,392.2344 Q314.2656,393.0469 315.8594,393.0469 Q316.7969,393.0469 317.4531,392.7969 Q317.8438,392.6406 318.2656,392.2031 Q318.5313,391.9375 318.6719,391.8594 Q318.8281,391.7813 319.0313,391.7813 Q319.3594,391.7813 319.6094,392.0469 Q319.875,392.2969 319.875,392.6406 Q319.875,392.9844 319.5313,393.3906 Q319.0313,393.9688 318.2344,394.2969 Q317.1563,394.75 315.8594,394.75 Q314.3438,394.75 313.1406,394.125 Q312.1563,393.625 311.4688,392.5625 Q310.7813,391.4844 310.7813,390.2031 L310.7813,389.0469 Q310.7813,387.7188 311.3906,386.5781 Q312.0156,385.4219 313.1094,384.8125 Q314.2031,384.1875 315.4375,384.1875 Q316.1719,384.1875 316.8125,384.3594 Q317.4688,384.5156 318.0156,384.875 Z " fill="#000000"/><text fill="#000000" font-family="sans-serif" font-size="14" lengthAdjust="spacing" textLength="62" x="335.75" y="394.7969">Employee</text><line style="stroke:#181818;stroke-width:0.5;" x1="267" x2="434" y1="405" y2="405"/><text fill="#000000" font-family="sans-serif" font-size="14" lengthAdjust="spacing" textLength="81" x="272" y="424.1074">-String name</text><text fill="#000000" font-family="sans-serif" font-size="14" lengthAdjust="spacing" textLength="79" x="272" y="442.7285">-String email</text><text fill="#000000" font-family="sans-serif" font-size="14" lengthAdjust="spacing" textLength="157" x="272" y="461.3496">-Integer passportNumber</text><text fill="#000000" font-family="sans-serif" font-size="14" lengthAdjust="spacing" textLength="113" x="272" y="479.9707">-String taxNumber</text><text fill="#000000" font-family="sans-serif" font-size="14" lengthAdjust="spacing" textLength="142" x="272" y="498.5918">-Integer phoneNumber</text><line style="stroke:#181818;stroke-width:0.5;" x1="267" x2="434" y1="506.1055" y2="506.1055"/><text fill="#000000" font-family="sans-serif" font-size="14" lengthAdjust="spacing" textLength="72" x="272" y="525.2129">+getStore()</text></g><!--class Address--><g id="elem_Address"><rect codeLine="38" fill="#F1F1F1" filter="url(#fnoxppyu2cbmt)" height="122.4844" id="Address" rx="2.5" ry="2.5" style="stroke:#181818;stroke-width:0.5;" width="146" x="474.5" y="594"/><ellipse cx="517.4" cy="610" fill="#ADD1B2" rx="11" ry="11" style="stroke:#181818;stroke-width:1.0;"/><path d="M520.1656,605.875 Q520.3219,605.6563 520.5094,605.5469 Q520.6969,605.4375 520.9156,605.4375 Q521.2906,605.4375 521.525,605.7031 Q521.7594,605.9531 521.7594,606.5625 L521.7594,608.0156 Q521.7594,608.625 521.525,608.8906 Q521.2906,609.1563 520.9156,609.1563 Q520.5719,609.1563 520.3688,608.9531 Q520.1656,608.7656 520.0563,608.25 Q520.0094,607.8906 519.8219,607.7031 Q519.4938,607.3281 518.8844,607.1094 Q518.275,606.8906 517.65,606.8906 Q516.8844,606.8906 516.2438,607.2188 Q515.6188,607.5469 515.1188,608.2969 Q514.6344,609.0469 514.6344,610.0781 L514.6344,611.1719 Q514.6344,612.4063 515.525,613.2344 Q516.4156,614.0469 518.0094,614.0469 Q518.9469,614.0469 519.6031,613.7969 Q519.9938,613.6406 520.4156,613.2031 Q520.6813,612.9375 520.8219,612.8594 Q520.9781,612.7813 521.1813,612.7813 Q521.5094,612.7813 521.7594,613.0469 Q522.025,613.2969 522.025,613.6406 Q522.025,613.9844 521.6813,614.3906 Q521.1813,614.9688 520.3844,615.2969 Q519.3063,615.75 518.0094,615.75 Q516.4938,615.75 515.2906,615.125 Q514.3063,614.625 513.6188,613.5625 Q512.9313,612.4844 512.9313,611.2031 L512.9313,610.0469 Q512.9313,608.7188 513.5406,607.5781 Q514.1656,606.4219 515.2594,605.8125 Q516.3531,605.1875 517.5875,605.1875 Q518.3219,605.1875 518.9625,605.3594 Q519.6188,605.5156 520.1656,605.875 Z " fill="#000000"/><text fill="#000000" font-family="sans-serif" font-size="14" lengthAdjust="spacing" textLength="52" x="537.6" y="615.7969">Address</text><line style="stroke:#181818;stroke-width:0.5;" x1="475.5" x2="619.5" y1="626" y2="626"/><text fill="#000000" font-family="sans-serif" font-size="14" lengthAdjust="spacing" textLength="134" x="480.5" y="645.1074">-String streetAddress</text><text fill="#000000" font-family="sans-serif" font-size="14" lengthAdjust="spacing" textLength="77" x="480.5" y="663.7285">-String state</text><text fill="#000000" font-family="sans-serif" font-size="14" lengthAdjust="spacing" textLength="67" x="480.5" y="682.3496">-String city</text><text fill="#000000" font-family="sans-serif" font-size="14" lengthAdjust="spacing" textLength="97" x="480.5" y="700.9707">-String zipCode</text><line style="stroke:#181818;stroke-width:0.5;" x1="475.5" x2="619.5" y1="708.4844" y2="708.4844"/></g><!--class EmployeeRepository--><g id="elem_EmployeeRepository"><rect codeLine="46" fill="#F1F1F1" filter="url(#fnoxppyu2cbmt)" height="66.6211" id="EmployeeRepository" rx="2.5" ry="2.5" style="stroke:#181818;stroke-width:0.5;" width="162" x="308.5" y="227"/><ellipse cx="323.5" cy="243" fill="#ADD1B2" rx="11" ry="11" style="stroke:#181818;stroke-width:1.0;"/><path d="M326.2656,238.875 Q326.4219,238.6563 326.6094,238.5469 Q326.7969,238.4375 327.0156,238.4375 Q327.3906,238.4375 327.625,238.7031 Q327.8594,238.9531 327.8594,239.5625 L327.8594,241.0156 Q327.8594,241.625 327.625,241.8906 Q327.3906,242.1563 327.0156,242.1563 Q326.6719,242.1563 326.4688,241.9531 Q326.2656,241.7656 326.1563,241.25 Q326.1094,240.8906 325.9219,240.7031 Q325.5938,240.3281 324.9844,240.1094 Q324.375,239.8906 323.75,239.8906 Q322.9844,239.8906 322.3438,240.2188 Q321.7188,240.5469 321.2188,241.2969 Q320.7344,242.0469 320.7344,243.0781 L320.7344,244.1719 Q320.7344,245.4063 321.625,246.2344 Q322.5156,247.0469 324.1094,247.0469 Q325.0469,247.0469 325.7031,246.7969 Q326.0938,246.6406 326.5156,246.2031 Q326.7813,245.9375 326.9219,245.8594 Q327.0781,245.7813 327.2813,245.7813 Q327.6094,245.7813 327.8594,246.0469 Q328.125,246.2969 328.125,246.6406 Q328.125,246.9844 327.7813,247.3906 Q327.2813,247.9688 326.4844,248.2969 Q325.4063,248.75 324.1094,248.75 Q322.5938,248.75 321.3906,248.125 Q320.4063,247.625 319.7188,246.5625 Q319.0313,245.4844 319.0313,244.2031 L319.0313,243.0469 Q319.0313,241.7188 319.6406,240.5781 Q320.2656,239.4219 321.3594,238.8125 Q322.4531,238.1875 323.6875,238.1875 Q324.4219,238.1875 325.0625,238.3594 Q325.7188,238.5156 326.2656,238.875 Z " fill="#000000"/><text fill="#000000" font-family="sans-serif" font-size="14" lengthAdjust="spacing" textLength="130" x="337.5" y="248.7969">EmployeeRepository</text><line style="stroke:#181818;stroke-width:0.5;" x1="309.5" x2="469.5" y1="259" y2="259"/><line style="stroke:#181818;stroke-width:0.5;" x1="309.5" x2="469.5" y1="267" y2="267"/><text fill="#000000" font-family="sans-serif" font-size="14" lengthAdjust="spacing" textLength="107" x="314.5" y="286.1074">+getEmployees()</text></g><!--class PropertyRepository--><g id="elem_PropertyRepository"><rect codeLine="50" fill="#F1F1F1" filter="url(#fnoxppyu2cbmt)" height="66.6211" id="PropertyRepository" rx="2.5" ry="2.5" style="stroke:#181818;stroke-width:0.5;" width="154" x="655.5" y="227"/><ellipse cx="670.5" cy="243" fill="#ADD1B2" rx="11" ry="11" style="stroke:#181818;stroke-width:1.0;"/><path d="M673.2656,238.875 Q673.4219,238.6563 673.6094,238.5469 Q673.7969,238.4375 674.0156,238.4375 Q674.3906,238.4375 674.625,238.7031 Q674.8594,238.9531 674.8594,239.5625 L674.8594,241.0156 Q674.8594,241.625 674.625,241.8906 Q674.3906,242.1563 674.0156,242.1563 Q673.6719,242.1563 673.4688,241.9531 Q673.2656,241.7656 673.1563,241.25 Q673.1094,240.8906 672.9219,240.7031 Q672.5938,240.3281 671.9844,240.1094 Q671.375,239.8906 670.75,239.8906 Q669.9844,239.8906 669.3438,240.2188 Q668.7188,240.5469 668.2188,241.2969 Q667.7344,242.0469 667.7344,243.0781 L667.7344,244.1719 Q667.7344,245.4063 668.625,246.2344 Q669.5156,247.0469 671.1094,247.0469 Q672.0469,247.0469 672.7031,246.7969 Q673.0938,246.6406 673.5156,246.2031 Q673.7813,245.9375 673.9219,245.8594 Q674.0781,245.7813 674.2813,245.7813 Q674.6094,245.7813 674.8594,246.0469 Q675.125,246.2969 675.125,246.6406 Q675.125,246.9844 674.7813,247.3906 Q674.2813,247.9688 673.4844,248.2969 Q672.4063,248.75 671.1094,248.75 Q669.5938,248.75 668.3906,248.125 Q667.4063,247.625 666.7188,246.5625 Q666.0313,245.4844 666.0313,244.2031 L666.0313,243.0469 Q666.0313,241.7188 666.6406,240.5781 Q667.2656,239.4219 668.3594,238.8125 Q669.4531,238.1875 670.6875,238.1875 Q671.4219,238.1875 672.0625,238.3594 Q672.7188,238.5156 673.2656,238.875 Z " fill="#000000"/><text fill="#000000" font-family="sans-serif" font-size="14" lengthAdjust="spacing" textLength="122" x="684.5" y="248.7969">PropertyRepository</text><line style="stroke:#181818;stroke-width:0.5;" x1="656.5" x2="808.5" y1="259" y2="259"/><line style="stroke:#181818;stroke-width:0.5;" x1="656.5" x2="808.5" y1="267" y2="267"/><text fill="#000000" font-family="sans-serif" font-size="14" lengthAdjust="spacing" textLength="103" x="661.5" y="286.1074">+getProperties()</text></g><!--class Repositories--><g id="elem_Repositories"><rect codeLine="54" fill="#F1F1F1" filter="url(#fnoxppyu2cbmt)" height="141.1055" id="Repositories" rx="2.5" ry="2.5" style="stroke:#181818;stroke-width:0.5;" width="194" x="635.5" y="7"/><ellipse cx="688.75" cy="23" fill="#ADD1B2" rx="11" ry="11" style="stroke:#181818;stroke-width:1.0;"/><path d="M691.5156,18.875 Q691.6719,18.6563 691.8594,18.5469 Q692.0469,18.4375 692.2656,18.4375 Q692.6406,18.4375 692.875,18.7031 Q693.1094,18.9531 693.1094,19.5625 L693.1094,21.0156 Q693.1094,21.625 692.875,21.8906 Q692.6406,22.1563 692.2656,22.1563 Q691.9219,22.1563 691.7188,21.9531 Q691.5156,21.7656 691.4063,21.25 Q691.3594,20.8906 691.1719,20.7031 Q690.8438,20.3281 690.2344,20.1094 Q689.625,19.8906 689,19.8906 Q688.2344,19.8906 687.5938,20.2188 Q686.9688,20.5469 686.4688,21.2969 Q685.9844,22.0469 685.9844,23.0781 L685.9844,24.1719 Q685.9844,25.4063 686.875,26.2344 Q687.7656,27.0469 689.3594,27.0469 Q690.2969,27.0469 690.9531,26.7969 Q691.3438,26.6406 691.7656,26.2031 Q692.0313,25.9375 692.1719,25.8594 Q692.3281,25.7813 692.5313,25.7813 Q692.8594,25.7813 693.1094,26.0469 Q693.375,26.2969 693.375,26.6406 Q693.375,26.9844 693.0313,27.3906 Q692.5313,27.9688 691.7344,28.2969 Q690.6563,28.75 689.3594,28.75 Q687.8438,28.75 686.6406,28.125 Q685.6563,27.625 684.9688,26.5625 Q684.2813,25.4844 684.2813,24.2031 L684.2813,23.0469 Q684.2813,21.7188 684.8906,20.5781 Q685.5156,19.4219 686.6094,18.8125 Q687.7031,18.1875 688.9375,18.1875 Q689.6719,18.1875 690.3125,18.3594 Q690.9688,18.5156 691.5156,18.875 Z " fill="#000000"/><text fill="#000000" font-family="sans-serif" font-size="14" lengthAdjust="spacing" textLength="79" x="709.25" y="28.7969">Repositories</text><line style="stroke:#181818;stroke-width:0.5;" x1="636.5" x2="828.5" y1="39" y2="39"/><line style="stroke:#181818;stroke-width:0.5;" x1="636.5" x2="828.5" y1="47" y2="47"/><text fill="#000000" font-family="sans-serif" font-size="14" lengthAdjust="spacing" textLength="94" x="641.5" y="66.1074">-Repositories()</text><text fill="#000000" font-family="sans-serif" font-size="14" lengthAdjust="spacing" textLength="182" x="641.5" y="84.7285">+getInstance() : Repositories</text><text fill="#000000" font-family="sans-serif" font-size="14" lengthAdjust="spacing" textLength="168" x="641.5" y="103.3496">+getEmployeeRepository()</text><text fill="#000000" font-family="sans-serif" font-size="14" lengthAdjust="spacing" textLength="160" x="641.5" y="121.9707">+getPropertyRepository()</text><text fill="#000000" font-family="sans-serif" font-size="14" lengthAdjust="spacing" textLength="140" x="641.5" y="140.5918">+getStoreRepository()</text></g><!--class ListEmployeesEveryStoreController--><g id="elem_ListEmployeesEveryStoreController"><rect codeLine="62" fill="#F1F1F1" filter="url(#fnoxppyu2cbmt)" height="122.4844" id="ListEmployeesEveryStoreController" rx="2.5" ry="2.5" style="stroke:#181818;stroke-width:0.5;" width="284" x="247.5" y="16.5"/><ellipse cx="275.55" cy="32.5" fill="#ADD1B2" rx="11" ry="11" style="stroke:#181818;stroke-width:1.0;"/><path d="M278.3156,28.375 Q278.4719,28.1563 278.6594,28.0469 Q278.8469,27.9375 279.0656,27.9375 Q279.4406,27.9375 279.675,28.2031 Q279.9094,28.4531 279.9094,29.0625 L279.9094,30.5156 Q279.9094,31.125 279.675,31.3906 Q279.4406,31.6563 279.0656,31.6563 Q278.7219,31.6563 278.5188,31.4531 Q278.3156,31.2656 278.2063,30.75 Q278.1594,30.3906 277.9719,30.2031 Q277.6438,29.8281 277.0344,29.6094 Q276.425,29.3906 275.8,29.3906 Q275.0344,29.3906 274.3938,29.7188 Q273.7688,30.0469 273.2688,30.7969 Q272.7844,31.5469 272.7844,32.5781 L272.7844,33.6719 Q272.7844,34.9063 273.675,35.7344 Q274.5656,36.5469 276.1594,36.5469 Q277.0969,36.5469 277.7531,36.2969 Q278.1438,36.1406 278.5656,35.7031 Q278.8313,35.4375 278.9719,35.3594 Q279.1281,35.2813 279.3313,35.2813 Q279.6594,35.2813 279.9094,35.5469 Q280.175,35.7969 280.175,36.1406 Q280.175,36.4844 279.8313,36.8906 Q279.3313,37.4688 278.5344,37.7969 Q277.4563,38.25 276.1594,38.25 Q274.6438,38.25 273.4406,37.625 Q272.4563,37.125 271.7688,36.0625 Q271.0813,34.9844 271.0813,33.7031 L271.0813,32.5469 Q271.0813,31.2188 271.6906,30.0781 Q272.3156,28.9219 273.4094,28.3125 Q274.5031,27.6875 275.7375,27.6875 Q276.4719,27.6875 277.1125,27.8594 Q277.7688,28.0156 278.3156,28.375 Z " fill="#000000"/><text fill="#000000" font-family="sans-serif" font-size="14" lengthAdjust="spacing" textLength="223" x="292.45" y="38.2969">ListEmployeesEveryStoreController</text><line style="stroke:#181818;stroke-width:0.5;" x1="248.5" x2="530.5" y1="48.5" y2="48.5"/><line style="stroke:#181818;stroke-width:0.5;" x1="248.5" x2="530.5" y1="56.5" y2="56.5"/><text fill="#000000" font-family="sans-serif" font-size="14" lengthAdjust="spacing" textLength="241" x="253.5" y="75.6074">+ListEmployeesEveryStoreController()</text><text fill="#000000" font-family="sans-serif" font-size="14" lengthAdjust="spacing" textLength="272" x="253.5" y="94.2285">+getListAscendingOrder(items,comparator)</text><text fill="#000000" font-family="sans-serif" font-size="14" lengthAdjust="spacing" textLength="248" x="253.5" y="112.8496">+getEmployeeFromSpecificStore(store)</text><text fill="#000000" font-family="sans-serif" font-size="14" lengthAdjust="spacing" textLength="240" x="253.5" y="131.4707">+getPropertyFromSpecificStore(store)</text></g><!--class Property--><g id="elem_Property"><rect codeLine="69" fill="#F1F1F1" filter="url(#fnoxppyu2cbmt)" height="122.4844" id="Property" rx="2.5" ry="2.5" style="stroke:#181818;stroke-width:0.5;" width="171" x="660" y="392"/><ellipse cx="714.25" cy="408" fill="#ADD1B2" rx="11" ry="11" style="stroke:#181818;stroke-width:1.0;"/><path d="M717.0156,403.875 Q717.1719,403.6563 717.3594,403.5469 Q717.5469,403.4375 717.7656,403.4375 Q718.1406,403.4375 718.375,403.7031 Q718.6094,403.9531 718.6094,404.5625 L718.6094,406.0156 Q718.6094,406.625 718.375,406.8906 Q718.1406,407.1563 717.7656,407.1563 Q717.4219,407.1563 717.2188,406.9531 Q717.0156,406.7656 716.9063,406.25 Q716.8594,405.8906 716.6719,405.7031 Q716.3438,405.3281 715.7344,405.1094 Q715.125,404.8906 714.5,404.8906 Q713.7344,404.8906 713.0938,405.2188 Q712.4688,405.5469 711.9688,406.2969 Q711.4844,407.0469 711.4844,408.0781 L711.4844,409.1719 Q711.4844,410.4063 712.375,411.2344 Q713.2656,412.0469 714.8594,412.0469 Q715.7969,412.0469 716.4531,411.7969 Q716.8438,411.6406 717.2656,411.2031 Q717.5313,410.9375 717.6719,410.8594 Q717.8281,410.7813 718.0313,410.7813 Q718.3594,410.7813 718.6094,411.0469 Q718.875,411.2969 718.875,411.6406 Q718.875,411.9844 718.5313,412.3906 Q718.0313,412.9688 717.2344,413.2969 Q716.1563,413.75 714.8594,413.75 Q713.3438,413.75 712.1406,413.125 Q711.1563,412.625 710.4688,411.5625 Q709.7813,410.4844 709.7813,409.2031 L709.7813,408.0469 Q709.7813,406.7188 710.3906,405.5781 Q711.0156,404.4219 712.1094,403.8125 Q713.2031,403.1875 714.4375,403.1875 Q715.1719,403.1875 715.8125,403.3594 Q716.4688,403.5156 717.0156,403.875 Z " fill="#000000"/><text fill="#000000" font-family="sans-serif" font-size="14" lengthAdjust="spacing" textLength="54" x="734.75" y="413.7969">Property</text><line style="stroke:#181818;stroke-width:0.5;" x1="661" x2="830" y1="424" y2="424"/><text fill="#000000" font-family="sans-serif" font-size="14" lengthAdjust="spacing" textLength="84" x="666" y="443.1074">-Integer price</text><text fill="#000000" font-family="sans-serif" font-size="14" lengthAdjust="spacing" textLength="82" x="666" y="461.7285">-Integer area</text><text fill="#000000" font-family="sans-serif" font-size="14" lengthAdjust="spacing" textLength="159" x="666" y="480.3496">-String distanceToCentre</text><line style="stroke:#181818;stroke-width:0.5;" x1="661" x2="830" y1="487.8633" y2="487.8633"/><text fill="#000000" font-family="sans-serif" font-size="14" lengthAdjust="spacing" textLength="72" x="666" y="506.9707">+getStore()</text></g><!--class ListEmployeesEveryStoreUI--><g id="elem_ListEmployeesEveryStoreUI"><rect codeLine="79" fill="#F1F1F1" filter="url(#fnoxppyu2cbmt)" height="48" id="ListEmployeesEveryStoreUI" rx="2.5" ry="2.5" style="stroke:#181818;stroke-width:0.5;" width="205" x="7" y="53.5"/><ellipse cx="22" cy="69.5" fill="#ADD1B2" rx="11" ry="11" style="stroke:#181818;stroke-width:1.0;"/><path d="M24.7656,65.375 Q24.9219,65.1563 25.1094,65.0469 Q25.2969,64.9375 25.5156,64.9375 Q25.8906,64.9375 26.125,65.2031 Q26.3594,65.4531 26.3594,66.0625 L26.3594,67.5156 Q26.3594,68.125 26.125,68.3906 Q25.8906,68.6563 25.5156,68.6563 Q25.1719,68.6563 24.9688,68.4531 Q24.7656,68.2656 24.6563,67.75 Q24.6094,67.3906 24.4219,67.2031 Q24.0938,66.8281 23.4844,66.6094 Q22.875,66.3906 22.25,66.3906 Q21.4844,66.3906 20.8438,66.7188 Q20.2188,67.0469 19.7188,67.7969 Q19.2344,68.5469 19.2344,69.5781 L19.2344,70.6719 Q19.2344,71.9063 20.125,72.7344 Q21.0156,73.5469 22.6094,73.5469 Q23.5469,73.5469 24.2031,73.2969 Q24.5938,73.1406 25.0156,72.7031 Q25.2813,72.4375 25.4219,72.3594 Q25.5781,72.2813 25.7813,72.2813 Q26.1094,72.2813 26.3594,72.5469 Q26.625,72.7969 26.625,73.1406 Q26.625,73.4844 26.2813,73.8906 Q25.7813,74.4688 24.9844,74.7969 Q23.9063,75.25 22.6094,75.25 Q21.0938,75.25 19.8906,74.625 Q18.9063,74.125 18.2188,73.0625 Q17.5313,71.9844 17.5313,70.7031 L17.5313,69.5469 Q17.5313,68.2188 18.1406,67.0781 Q18.7656,65.9219 19.8594,65.3125 Q20.9531,64.6875 22.1875,64.6875 Q22.9219,64.6875 23.5625,64.8594 Q24.2188,65.0156 24.7656,65.375 Z " fill="#000000"/><text fill="#000000" font-family="sans-serif" font-size="14" lengthAdjust="spacing" textLength="173" x="36" y="75.2969">ListEmployeesEveryStoreUI</text><line style="stroke:#181818;stroke-width:0.5;" x1="8" x2="211" y1="85.5" y2="85.5"/><line style="stroke:#181818;stroke-width:0.5;" x1="8" x2="211" y1="93.5" y2="93.5"/></g><!--link Repositories to Repositories--><g id="link_Repositories_Repositories"><path codeLine="82" d="M829.78,57.6 C849.98,59.69 864.5,66.33 864.5,77.5 C864.5,87.71 852.37,94.13 834.86,96.76 " fill="none" id="Repositories-to-Repositories" style="stroke:#181818;stroke-width:1.0;"/><polygon fill="#181818" points="829.78,97.4,839.2117,100.2361,834.7403,96.771,838.2053,92.2996,829.78,97.4" style="stroke:#181818;stroke-width:1.0;"/><text fill="#000000" font-family="sans-serif" font-size="13" lengthAdjust="spacing" textLength="49" x="870.5" y="83.0283">instance</text></g><!--link ListEmployeesEveryStoreUI to ListEmployeesEveryStoreController--><g id="link_ListEmployeesEveryStoreUI_ListEmployeesEveryStoreController"><path codeLine="84" d="M212.12,77.5 C219.55,77.5 230.61,77.5 242.29,77.5 " fill="none" id="ListEmployeesEveryStoreUI-to-ListEmployeesEveryStoreController" style="stroke:#181818;stroke-width:1.0;stroke-dasharray:7.0,7.0;"/><polygon fill="#181818" points="247.33,77.5,238.33,73.5,242.33,77.5,238.33,81.5,247.33,77.5" style="stroke:#181818;stroke-width:1.0;"/></g><!--link ListEmployeesEveryStoreController to Repositories--><g id="link_ListEmployeesEveryStoreController_Repositories"><path codeLine="86" d="M531.98,77.5 C564.87,77.5 599.22,77.5 630.01,77.5 " fill="none" id="ListEmployeesEveryStoreController-to-Repositories" style="stroke:#181818;stroke-width:1.0;stroke-dasharray:7.0,7.0;"/><polygon fill="#181818" points="635.32,77.5,626.32,73.5,630.32,77.5,626.32,81.5,635.32,77.5" style="stroke:#181818;stroke-width:1.0;"/><text fill="#000000" font-family="sans-serif" font-size="13" lengthAdjust="spacing" textLength="67" x="550" y="70.5283">repositories</text></g><!--link Repositories to PropertyRepository--><g id="link_Repositories_PropertyRepository"><path codeLine="88" d="M732.5,148.22 C732.5,173.3 732.5,200.63 732.5,221.92 " fill="none" id="Repositories-to-PropertyRepository" style="stroke:#181818;stroke-width:1.0;"/><polygon fill="#181818" points="732.5,226.93,736.5,217.93,732.5,221.93,728.5,217.93,732.5,226.93" style="stroke:#181818;stroke-width:1.0;"/><text fill="#000000" font-family="sans-serif" font-size="13" lengthAdjust="spacing" textLength="7" x="724.8109" y="215.7417">1</text></g><!--link Repositories to EmployeeRepository--><g id="link_Repositories_EmployeeRepository"><path codeLine="89" d="M694.9,148.12 C680.97,173.91 668.5,197 668.5,197 C668.5,197 557.86,221.78 475.93,240.14 " fill="none" id="Repositories-to-EmployeeRepository" style="stroke:#181818;stroke-width:1.0;"/><polygon fill="#181818" points="470.57,241.34,480.2246,243.2864,475.4503,240.2523,478.4843,235.478,470.57,241.34" style="stroke:#181818;stroke-width:1.0;"/><text fill="#000000" font-family="sans-serif" font-size="13" lengthAdjust="spacing" textLength="7" x="478.6306" y="235.7639">1</text></g><!--link ListEmployeesEveryStoreController to PropertyRepository--><g id="link_ListEmployeesEveryStoreController_PropertyRepository"><path codeLine="93" d="M502.13,138.62 C557.08,167.95 611.5,197 611.5,197 C611.5,197 637.29,210.32 665.05,224.66 " fill="none" id="ListEmployeesEveryStoreController-to-PropertyRepository" style="stroke:#181818;stroke-width:1.0;stroke-dasharray:7.0,7.0;"/><polygon fill="#181818" points="669.52,226.97,663.3664,219.2802,665.0797,224.6713,659.6886,226.3846,669.52,226.97" style="stroke:#181818;stroke-width:1.0;"/><text fill="#000000" font-family="sans-serif" font-size="13" lengthAdjust="spacing" textLength="111" x="612.5" y="193.0283">PropertyRepository</text></g><!--link ListEmployeesEveryStoreController to EmployeeRepository--><g id="link_ListEmployeesEveryStoreController_EmployeeRepository"><path codeLine="94" d="M388.29,138.67 C387.87,159.63 387.5,178 387.5,178 C387.5,178 387.5,197 387.5,197 C387.5,197 387.87,208.43 388.28,221.51 " fill="none" id="ListEmployeesEveryStoreController-to-EmployeeRepository" style="stroke:#181818;stroke-width:1.0;stroke-dasharray:7.0,7.0;"/><polygon fill="#181818" points="388.45,226.79,392.1653,217.6688,388.2929,221.7925,384.1693,217.9201,388.45,226.79" style="stroke:#181818;stroke-width:1.0;"/><text fill="#000000" font-family="sans-serif" font-size="13" lengthAdjust="spacing" textLength="120" x="388.5" y="193.0283">EmployeeRepository</text></g><!--link EmployeeRepository to Employee--><g id="link_EmployeeRepository_Employee"><path codeLine="97" d="M382.8,294.25 C378.63,314.59 373.07,341.75 367.74,367.79 " fill="none" id="EmployeeRepository-to-Employee" style="stroke:#181818;stroke-width:1.0;"/><polygon fill="#181818" points="366.68,372.98,372.4034,364.9649,367.6826,368.0816,364.5659,363.3607,366.68,372.98" style="stroke:#181818;stroke-width:1.0;"/><text fill="#000000" font-family="sans-serif" font-size="13" lengthAdjust="spacing" textLength="56" x="377.5" y="339.0283">employee</text><text fill="#000000" font-family="sans-serif" font-size="13" lengthAdjust="spacing" textLength="7" x="374.0469" y="315.5976">1</text><text fill="#000000" font-family="sans-serif" font-size="13" lengthAdjust="spacing" textLength="5" x="362.9411" y="361.8739">*</text></g><!--link PropertyRepository to Property--><g id="link_PropertyRepository_Property"><path codeLine="98" d="M734.73,294.25 C736.46,319.49 738.9,355.21 741.02,386.29 " fill="none" id="PropertyRepository-to-Property" style="stroke:#181818;stroke-width:1.0;"/><polygon fill="#181818" points="741.38,391.63,744.7549,382.3774,741.0379,386.6417,736.7737,382.9247,741.38,391.63" style="stroke:#181818;stroke-width:1.0;"/><text fill="#000000" font-family="sans-serif" font-size="13" lengthAdjust="spacing" textLength="47" x="738.5" y="339.0283">property</text><text fill="#000000" font-family="sans-serif" font-size="13" lengthAdjust="spacing" textLength="7" x="727.5117" y="315.5976">1</text><text fill="#000000" font-family="sans-serif" font-size="13" lengthAdjust="spacing" textLength="5" x="735.6146" y="380.5684">*</text></g><!--link Employee to Store--><g id="link_Employee_Store"><path codeLine="100" d="M435.16,453 C442,453 449.81,453 457.07,453 " fill="none" id="Employee-to-Store" style="stroke:#181818;stroke-width:1.0;"/><polygon fill="none" points="470.3,453,464.3,449,458.3,453,464.3,457,470.3,453" style="stroke:#181818;stroke-width:1.0;"/></g><!--link Employee to Address--><g id="link_Employee_Address"><path codeLine="101" d="M428.36,533.05 C444.99,549.93 462.45,567.65 478.71,584.16 " fill="none" id="Employee-to-Address" style="stroke:#181818;stroke-width:1.0;"/><polygon fill="none" points="488.13,593.73,486.7653,586.6492,479.7043,585.1856,481.069,592.2664,488.13,593.73" style="stroke:#181818;stroke-width:1.0;"/></g><!--link Store to Address--><g id="link_Store_Address"><path codeLine="102" d="M547.5,514.01 C547.5,534.97 547.5,558.75 547.5,580.67 " fill="none" id="Store-to-Address" style="stroke:#181818;stroke-width:1.0;"/><polygon fill="none" points="547.5,593.69,551.5,587.69,547.5,581.69,543.5,587.69,547.5,593.69" style="stroke:#181818;stroke-width:1.0;"/></g><!--link Property to Address--><g id="link_Property_Address"><path codeLine="103" d="M686.09,514.01 C664.17,536.15 639.14,561.43 616.44,584.36 " fill="none" id="Property-to-Address" style="stroke:#181818;stroke-width:1.0;"/><polygon fill="none" points="607.21,593.69,614.2733,592.2373,615.649,585.1587,608.5857,586.6113,607.21,593.69" style="stroke:#181818;stroke-width:1.0;"/></g><!--reverse link Store to Property--><g id="link_Store_Property"><path codeLine="104" d="M637.9,453 C645.17,453 653.04,453 659.95,453 " fill="none" id="Store-backto-Property" style="stroke:#181818;stroke-width:1.0;"/><polygon fill="none" points="624.7,453,630.7,457,636.7,453,630.7,449,624.7,453" style="stroke:#181818;stroke-width:1.0;"/></g><!--SRC=[ZLNBRjim4BppAuXSrBHrq5vz260OBc2WQ0kh-G26siX4A98WwRPAu7_lKg8awk74EGJsxkpkp2n9P-vPACCigsYbbUP7gokWtfw031d3-3Ch8VUr16g1UwPAcGBSaHNwhr3bj58A1RusG8sMTVX2ieMajbwJJCAJfrvJAygZfuK8WuHM96d79NDkuxqLZoSFUwvLBbw0VY64P4sEFZYmEJWN2hDNab7y-qHBy26ngvYG7sv9TiQ25fzxRO6-ae1RqRtoK8AbeeY174UXgWASA1Lhw8mI43fEYirHA_XngXx1adCtPrSPgMiOHiK6YbLmHKjiOT2bs7M4z-pVABn4etUXaOiEd7l33bf2z6caFxjeGDQBsXI5HQzRIGFOUGlWOtAMOnucCIvyFGcz2BFL1P1XKPs11p3Q2PHHHoiRNLtMjThQabzM6x2-dfNqPH4XndKz7kFzlj8WWliMUuMI54TJwNe4cfCRUAGDvYpJRBEmKQgd-LsuGVVk3zYw0M-rybPBYMli37eNcKuCu8tZe0fSn4zRO5PugDndhgjm2x7oTgxj6xuRkG4kdWHl3vaB_nTqNaJEzZQzbSOA3fCOiy0cTrMq2_cjju3wO7xucrFrjeaFUpGFOQEZiBeV7uqr5N7vX5pkStV_llyNwvDbtiscs_IqJQWYrvklDmjNO1atFwBXIJr0YRJ2kzbcKpP8fs5u3NF4Bjp5zHAxwxejF0RhPGqBoA2tqVrnq8tb43-I1QffIPV64XC_3cFeIaTRqaZt5BO_DgiaqZTBW_57IQ_wMIZaFm00]--></g></svg>