<?xml version="1.0" encoding="us-ascii" standalone="no"?><svg xmlns="http://www.w3.org/2000/svg" xmlns:xlink="http://www.w3.org/1999/xlink" contentStyleType="text/css" height="1175px" preserveAspectRatio="none" style="width:2524px;height:1175px;background:#FFFFFF;" version="1.1" viewBox="0 0 2524 1175" width="2524px" zoomAndPan="magnify"><defs/><g><rect fill="#FFFFFF" height="980.6621" style="stroke:#181818;stroke-width:1.0;" width="10" x="58" y="93.6211"/><rect fill="#FFFFFF" height="957.3711" style="stroke:#181818;stroke-width:1.0;" width="10" x="460" y="116.9121"/><rect fill="#FFFFFF" height="222.2988" style="stroke:#181818;stroke-width:1.0;" width="10" x="746" y="191.8242"/><rect fill="#FFFFFF" height="597.5781" style="stroke:#181818;stroke-width:1.0;" width="10" x="746" y="445.4141"/><rect fill="#FFFFFF" height="95.5039" style="stroke:#181818;stroke-width:1.0;" width="10" x="1421" y="287.3281"/><rect fill="#FFFFFF" height="95.5039" style="stroke:#181818;stroke-width:1.0;" width="10" x="1543.5" y="840.9063"/><rect fill="#FFFFFF" height="31.291" style="stroke:#181818;stroke-width:1.0;" width="10" x="1766" y="752.0332"/><rect fill="#FFFFFF" height="30" style="stroke:#181818;stroke-width:1.0;" width="10" x="2074" y="629.4512"/><rect fill="#FFFFFF" height="30" style="stroke:#181818;stroke-width:1.0;" width="10" x="2180.5" y="690.7422"/><rect fill="#FFFFFF" height="30" style="stroke:#181818;stroke-width:1.0;" width="10" x="2421" y="967.7012"/><rect fill="none" height="425.832" style="stroke:#000000;stroke-width:1.5;" width="1904" x="614" y="586.8691"/><rect fill="none" height="207.377" style="stroke:#000000;stroke-width:1.5;" width="1884" x="624" y="798.3242"/><line style="stroke:#181818;stroke-width:0.5;stroke-dasharray:5.0,5.0;" x1="63" x2="63" y1="83.6211" y2="1092.2832"/><line style="stroke:#181818;stroke-width:0.5;stroke-dasharray:5.0,5.0;" x1="464.5" x2="464.5" y1="83.6211" y2="1092.2832"/><line style="stroke:#181818;stroke-width:0.5;stroke-dasharray:5.0,5.0;" x1="751" x2="751" y1="156.7227" y2="1092.2832"/><line style="stroke:#181818;stroke-width:0.5;stroke-dasharray:5.0,5.0;" x1="926" x2="926" y1="83.6211" y2="1092.2832"/><line style="stroke:#181818;stroke-width:0.5;stroke-dasharray:5.0,5.0;" x1="1033" x2="1033" y1="83.6211" y2="1092.2832"/><line style="stroke:#181818;stroke-width:0.5;stroke-dasharray:5.0,5.0;" x1="1151" x2="1151" y1="83.6211" y2="1092.2832"/><line style="stroke:#181818;stroke-width:0.5;stroke-dasharray:5.0,5.0;" x1="1293" x2="1293" y1="83.6211" y2="1092.2832"/><line style="stroke:#181818;stroke-width:0.5;stroke-dasharray:5.0,5.0;" x1="1426" x2="1426" y1="83.6211" y2="1092.2832"/><line style="stroke:#181818;stroke-width:0.5;stroke-dasharray:5.0,5.0;" x1="1548" x2="1548" y1="83.6211" y2="1092.2832"/><line style="stroke:#181818;stroke-width:0.5;stroke-dasharray:5.0,5.0;" x1="1679" x2="1679" y1="83.6211" y2="1092.2832"/><line style="stroke:#181818;stroke-width:0.5;stroke-dasharray:5.0,5.0;" x1="1771" x2="1771" y1="83.6211" y2="1092.2832"/><line style="stroke:#181818;stroke-width:0.5;stroke-dasharray:5.0,5.0;" x1="1864" x2="1864" y1="83.6211" y2="1092.2832"/><line style="stroke:#181818;stroke-width:0.5;stroke-dasharray:5.0,5.0;" x1="1972" x2="1972" y1="83.6211" y2="1092.2832"/><line style="stroke:#181818;stroke-width:0.5;stroke-dasharray:5.0,5.0;" x1="2079" x2="2079" y1="83.6211" y2="1092.2832"/><line style="stroke:#181818;stroke-width:0.5;stroke-dasharray:5.0,5.0;" x1="2185" x2="2185" y1="83.6211" y2="1092.2832"/><line style="stroke:#181818;stroke-width:0.5;stroke-dasharray:5.0,5.0;" x1="2289" x2="2289" y1="83.6211" y2="1092.2832"/><line style="stroke:#181818;stroke-width:0.5;stroke-dasharray:5.0,5.0;" x1="2426" x2="2426" y1="558.748" y2="1092.2832"/><text fill="#000000" font-family="sans-serif" font-size="14" lengthAdjust="spacing" textLength="110" x="5" y="80.1074">Network Manager</text><ellipse cx="63" cy="13.5" fill="#E3E3E3" rx="8" ry="8" style="stroke:#181818;stroke-width:0.5;"/><path d="M63,21.5 L63,48.5 M50,29.5 L76,29.5 M63,48.5 L50,63.5 M63,48.5 L76,63.5 " fill="none" style="stroke:#181818;stroke-width:0.5;"/><text fill="#000000" font-family="sans-serif" font-size="14" lengthAdjust="spacing" textLength="110" x="5" y="1106.3906">Network Manager</text><ellipse cx="63" cy="1118.4043" fill="#E3E3E3" rx="8" ry="8" style="stroke:#181818;stroke-width:0.5;"/><path d="M63,1126.4043 L63,1153.4043 M50,1134.4043 L76,1134.4043 M63,1153.4043 L50,1168.4043 M63,1153.4043 L76,1168.4043 " fill="none" style="stroke:#181818;stroke-width:0.5;"/><rect fill="#E3E3E3" height="32.6211" rx="2.5" ry="2.5" style="stroke:#181818;stroke-width:0.5;" width="191" x="369.5" y="50"/><text fill="#000000" font-family="sans-serif" font-size="14" lengthAdjust="spacing" textLength="177" x="376.5" y="72.1074">:ListEmployeesEveryStoreUI</text><rect fill="#E3E3E3" height="32.6211" rx="2.5" ry="2.5" style="stroke:#181818;stroke-width:0.5;" width="191" x="369.5" y="1091.2832"/><text fill="#000000" font-family="sans-serif" font-size="14" lengthAdjust="spacing" textLength="177" x="376.5" y="1113.3906">:ListEmployeesEveryStoreUI</text><rect fill="#E3E3E3" height="32.6211" rx="2.5" ry="2.5" style="stroke:#181818;stroke-width:0.5;" width="234" x="634" y="1091.2832"/><text fill="#000000" font-family="sans-serif" font-size="14" lengthAdjust="spacing" textLength="220" x="641" y="1113.3906">:ListEmployeeEveryStoreController</text><rect fill="#E3E3E3" height="32.6211" rx="2.5" ry="2.5" style="stroke:#181818;stroke-width:0.5;" width="97" x="878" y="50"/><text fill="#000000" font-family="sans-serif" font-size="14" lengthAdjust="spacing" textLength="83" x="885" y="72.1074">:Repositories</text><rect fill="#E3E3E3" height="32.6211" rx="2.5" ry="2.5" style="stroke:#181818;stroke-width:0.5;" width="97" x="878" y="1091.2832"/><text fill="#000000" font-family="sans-serif" font-size="14" lengthAdjust="spacing" textLength="83" x="885" y="1113.3906">:Repositories</text><rect fill="#E3E3E3" height="51.2422" rx="2.5" ry="2.5" style="stroke:#181818;stroke-width:0.5;" width="97" x="985" y="31.3789"/><text fill="#000000" font-family="sans-serif" font-size="14" lengthAdjust="spacing" textLength="74" x="996.5" y="53.4863">repositories</text><text fill="#000000" font-family="sans-serif" font-size="14" lengthAdjust="spacing" textLength="83" x="992" y="72.1074">:Repositories</text><rect fill="#E3E3E3" height="51.2422" rx="2.5" ry="2.5" style="stroke:#181818;stroke-width:0.5;" width="97" x="985" y="1091.2832"/><text fill="#000000" font-family="sans-serif" font-size="14" lengthAdjust="spacing" textLength="74" x="996.5" y="1113.3906">repositories</text><text fill="#000000" font-family="sans-serif" font-size="14" lengthAdjust="spacing" textLength="83" x="992" y="1132.0117">:Repositories</text><rect fill="#E3E3E3" height="51.2422" rx="2.5" ry="2.5" style="stroke:#181818;stroke-width:0.5;" width="118" x="1092" y="31.3789"/><text fill="#000000" font-family="sans-serif" font-size="14" lengthAdjust="spacing" textLength="104" x="1099" y="53.4863">storeRepository:</text><text fill="#000000" font-family="sans-serif" font-size="14" lengthAdjust="spacing" textLength="102" x="1100" y="72.1074">StoreRepository</text><rect fill="#E3E3E3" height="51.2422" rx="2.5" ry="2.5" style="stroke:#181818;stroke-width:0.5;" width="118" x="1092" y="1091.2832"/><text fill="#000000" font-family="sans-serif" font-size="14" lengthAdjust="spacing" textLength="104" x="1099" y="1113.3906">storeRepository:</text><text fill="#000000" font-family="sans-serif" font-size="14" lengthAdjust="spacing" textLength="102" x="1100" y="1132.0117">StoreRepository</text><rect fill="#E3E3E3" height="51.2422" rx="2.5" ry="2.5" style="stroke:#181818;stroke-width:0.5;" width="147" x="1220" y="31.3789"/><text fill="#000000" font-family="sans-serif" font-size="14" lengthAdjust="spacing" textLength="133" x="1227" y="53.4863">employeeRepository:</text><text fill="#000000" font-family="sans-serif" font-size="14" lengthAdjust="spacing" textLength="130" x="1228.5" y="72.1074">EmployeeRepository</text><rect fill="#E3E3E3" height="51.2422" rx="2.5" ry="2.5" style="stroke:#181818;stroke-width:0.5;" width="147" x="1220" y="1091.2832"/><text fill="#000000" font-family="sans-serif" font-size="14" lengthAdjust="spacing" textLength="133" x="1227" y="1113.3906">employeeRepository:</text><text fill="#000000" font-family="sans-serif" font-size="14" lengthAdjust="spacing" textLength="130" x="1228.5" y="1132.0117">EmployeeRepository</text><rect fill="#E3E3E3" height="51.2422" rx="2.5" ry="2.5" style="stroke:#181818;stroke-width:0.5;" width="98" x="1377" y="31.3789"/><text fill="#000000" font-family="sans-serif" font-size="14" lengthAdjust="spacing" textLength="84" x="1384" y="53.4863">storeMapper:</text><text fill="#000000" font-family="sans-serif" font-size="14" lengthAdjust="spacing" textLength="82" x="1385" y="72.1074">StoreMapper</text><rect fill="#E3E3E3" height="51.2422" rx="2.5" ry="2.5" style="stroke:#181818;stroke-width:0.5;" width="98" x="1377" y="1091.2832"/><text fill="#000000" font-family="sans-serif" font-size="14" lengthAdjust="spacing" textLength="84" x="1384" y="1113.3906">storeMapper:</text><text fill="#000000" font-family="sans-serif" font-size="14" lengthAdjust="spacing" textLength="82" x="1385" y="1132.0117">StoreMapper</text><rect fill="#E3E3E3" height="51.2422" rx="2.5" ry="2.5" style="stroke:#181818;stroke-width:0.5;" width="127" x="1485" y="31.3789"/><text fill="#000000" font-family="sans-serif" font-size="14" lengthAdjust="spacing" textLength="113" x="1492" y="53.4863">employeeMapper:</text><text fill="#000000" font-family="sans-serif" font-size="14" lengthAdjust="spacing" textLength="110" x="1493.5" y="72.1074">EmployeeMapper</text><rect fill="#E3E3E3" height="51.2422" rx="2.5" ry="2.5" style="stroke:#181818;stroke-width:0.5;" width="127" x="1485" y="1091.2832"/><text fill="#000000" font-family="sans-serif" font-size="14" lengthAdjust="spacing" textLength="113" x="1492" y="1113.3906">employeeMapper:</text><text fill="#000000" font-family="sans-serif" font-size="14" lengthAdjust="spacing" textLength="110" x="1493.5" y="1132.0117">EmployeeMapper</text><rect fill="#E3E3E3" height="51.2422" rx="2.5" ry="2.5" style="stroke:#181818;stroke-width:0.5;" width="114" x="1622" y="31.3789"/><text fill="#000000" font-family="sans-serif" font-size="14" lengthAdjust="spacing" textLength="100" x="1629" y="53.4863">storeListSorted:</text><text fill="#000000" font-family="sans-serif" font-size="14" lengthAdjust="spacing" textLength="72" x="1643" y="72.1074">List&lt;Store&gt;</text><rect fill="#E3E3E3" height="51.2422" rx="2.5" ry="2.5" style="stroke:#181818;stroke-width:0.5;" width="114" x="1622" y="1091.2832"/><text fill="#000000" font-family="sans-serif" font-size="14" lengthAdjust="spacing" textLength="100" x="1629" y="1113.3906">storeListSorted:</text><text fill="#000000" font-family="sans-serif" font-size="14" lengthAdjust="spacing" textLength="72" x="1643" y="1132.0117">List&lt;Store&gt;</text><rect fill="#E3E3E3" height="51.2422" rx="2.5" ry="2.5" style="stroke:#181818;stroke-width:0.5;" width="50" x="1746" y="31.3789"/><text fill="#000000" font-family="sans-serif" font-size="14" lengthAdjust="spacing" textLength="36" x="1753" y="53.4863">store:</text><text fill="#000000" font-family="sans-serif" font-size="14" lengthAdjust="spacing" textLength="34" x="1754" y="72.1074">Store</text><rect fill="#E3E3E3" height="51.2422" rx="2.5" ry="2.5" style="stroke:#181818;stroke-width:0.5;" width="50" x="1746" y="1091.2832"/><text fill="#000000" font-family="sans-serif" font-size="14" lengthAdjust="spacing" textLength="36" x="1753" y="1113.3906">store:</text><text fill="#000000" font-family="sans-serif" font-size="14" lengthAdjust="spacing" textLength="34" x="1754" y="1132.0117">Store</text><rect fill="#E3E3E3" height="51.2422" rx="2.5" ry="2.5" style="stroke:#181818;stroke-width:0.5;" width="116" x="1806" y="31.3789"/><text fill="#000000" font-family="sans-serif" font-size="14" lengthAdjust="spacing" textLength="71" x="1828.5" y="53.4863">lStoreDTO:</text><text fill="#000000" font-family="sans-serif" font-size="14" lengthAdjust="spacing" textLength="102" x="1813" y="72.1074">List&lt;StoreDTO&gt;</text><rect fill="#E3E3E3" height="51.2422" rx="2.5" ry="2.5" style="stroke:#181818;stroke-width:0.5;" width="116" x="1806" y="1091.2832"/><text fill="#000000" font-family="sans-serif" font-size="14" lengthAdjust="spacing" textLength="71" x="1828.5" y="1113.3906">lStoreDTO:</text><text fill="#000000" font-family="sans-serif" font-size="14" lengthAdjust="spacing" textLength="102" x="1813" y="1132.0117">List&lt;StoreDTO&gt;</text><rect fill="#E3E3E3" height="51.2422" rx="2.5" ry="2.5" style="stroke:#181818;stroke-width:0.5;" width="80" x="1932" y="31.3789"/><text fill="#000000" font-family="sans-serif" font-size="14" lengthAdjust="spacing" textLength="66" x="1939" y="53.4863">storeDTO:</text><text fill="#000000" font-family="sans-serif" font-size="14" lengthAdjust="spacing" textLength="64" x="1940" y="72.1074">StoreDTO</text><rect fill="#E3E3E3" height="51.2422" rx="2.5" ry="2.5" style="stroke:#181818;stroke-width:0.5;" width="80" x="1932" y="1091.2832"/><text fill="#000000" font-family="sans-serif" font-size="14" lengthAdjust="spacing" textLength="66" x="1939" y="1113.3906">storeDTO:</text><text fill="#000000" font-family="sans-serif" font-size="14" lengthAdjust="spacing" textLength="64" x="1940" y="1132.0117">StoreDTO</text><rect fill="#E3E3E3" height="51.2422" rx="2.5" ry="2.5" style="stroke:#181818;stroke-width:0.5;" width="114" x="2022" y="31.3789"/><text fill="#000000" font-family="sans-serif" font-size="14" lengthAdjust="spacing" textLength="87" x="2035.5" y="53.4863">employeeList:</text><text fill="#000000" font-family="sans-serif" font-size="14" lengthAdjust="spacing" textLength="100" x="2029" y="72.1074">List&lt;Employee&gt;</text><rect fill="#E3E3E3" height="51.2422" rx="2.5" ry="2.5" style="stroke:#181818;stroke-width:0.5;" width="114" x="2022" y="1091.2832"/><text fill="#000000" font-family="sans-serif" font-size="14" lengthAdjust="spacing" textLength="87" x="2035.5" y="1113.3906">employeeList:</text><text fill="#000000" font-family="sans-serif" font-size="14" lengthAdjust="spacing" textLength="100" x="2029" y="1132.0117">List&lt;Employee&gt;</text><rect fill="#E3E3E3" height="51.2422" rx="2.5" ry="2.5" style="stroke:#181818;stroke-width:0.5;" width="79" x="2146" y="31.3789"/><text fill="#000000" font-family="sans-serif" font-size="14" lengthAdjust="spacing" textLength="65" x="2153" y="53.4863">employee:</text><text fill="#000000" font-family="sans-serif" font-size="14" lengthAdjust="spacing" textLength="62" x="2154.5" y="72.1074">Employee</text><rect fill="#E3E3E3" height="51.2422" rx="2.5" ry="2.5" style="stroke:#181818;stroke-width:0.5;" width="79" x="2146" y="1091.2832"/><text fill="#000000" font-family="sans-serif" font-size="14" lengthAdjust="spacing" textLength="65" x="2153" y="1113.3906">employee:</text><text fill="#000000" font-family="sans-serif" font-size="14" lengthAdjust="spacing" textLength="62" x="2154.5" y="1132.0117">Employee</text><rect fill="#E3E3E3" height="51.2422" rx="2.5" ry="2.5" style="stroke:#181818;stroke-width:0.5;" width="109" x="2235" y="31.3789"/><text fill="#000000" font-family="sans-serif" font-size="14" lengthAdjust="spacing" textLength="95" x="2242" y="53.4863">employeeDTO:</text><text fill="#000000" font-family="sans-serif" font-size="14" lengthAdjust="spacing" textLength="92" x="2243.5" y="72.1074">EmployeeDTO</text><rect fill="#E3E3E3" height="51.2422" rx="2.5" ry="2.5" style="stroke:#181818;stroke-width:0.5;" width="109" x="2235" y="1091.2832"/><text fill="#000000" font-family="sans-serif" font-size="14" lengthAdjust="spacing" textLength="95" x="2242" y="1113.3906">employeeDTO:</text><text fill="#000000" font-family="sans-serif" font-size="14" lengthAdjust="spacing" textLength="92" x="2243.5" y="1132.0117">EmployeeDTO</text><rect fill="#E3E3E3" height="51.2422" rx="2.5" ry="2.5" style="stroke:#181818;stroke-width:0.5;" width="144" x="2354" y="1091.2832"/><text fill="#000000" font-family="sans-serif" font-size="14" lengthAdjust="spacing" textLength="117" x="2367.5" y="1113.3906">employeeListDTO:</text><text fill="#000000" font-family="sans-serif" font-size="14" lengthAdjust="spacing" textLength="130" x="2361" y="1132.0117">List&lt;EmployeeDTO&gt;</text><rect fill="#FFFFFF" height="980.6621" style="stroke:#181818;stroke-width:1.0;" width="10" x="58" y="93.6211"/><rect fill="#FFFFFF" height="957.3711" style="stroke:#181818;stroke-width:1.0;" width="10" x="460" y="116.9121"/><rect fill="#FFFFFF" height="222.2988" style="stroke:#181818;stroke-width:1.0;" width="10" x="746" y="191.8242"/><rect fill="#FFFFFF" height="597.5781" style="stroke:#181818;stroke-width:1.0;" width="10" x="746" y="445.4141"/><rect fill="#FFFFFF" height="95.5039" style="stroke:#181818;stroke-width:1.0;" width="10" x="1421" y="287.3281"/><rect fill="#FFFFFF" height="95.5039" style="stroke:#181818;stroke-width:1.0;" width="10" x="1543.5" y="840.9063"/><rect fill="#FFFFFF" height="31.291" style="stroke:#181818;stroke-width:1.0;" width="10" x="1766" y="752.0332"/><rect fill="#FFFFFF" height="30" style="stroke:#181818;stroke-width:1.0;" width="10" x="2074" y="629.4512"/><rect fill="#FFFFFF" height="30" style="stroke:#181818;stroke-width:1.0;" width="10" x="2180.5" y="690.7422"/><rect fill="#FFFFFF" height="30" style="stroke:#181818;stroke-width:1.0;" width="10" x="2421" y="967.7012"/><polygon fill="#181818" points="448,112.9121,458,116.9121,448,120.9121,452,116.9121" style="stroke:#181818;stroke-width:1.0;"/><line style="stroke:#181818;stroke-width:1.0;" x1="68" x2="454" y1="116.9121" y2="116.9121"/><text fill="#000000" font-family="sans-serif" font-size="13" font-weight="bold" lengthAdjust="spacing" textLength="7" x="75" y="111.6494">1</text><text fill="#000000" font-family="sans-serif" font-size="13" lengthAdjust="spacing" textLength="362" x="86" y="111.6494">asks to list all employees working in every store of the network</text><polygon fill="#181818" points="622,144.2031,632,148.2031,622,152.2031,626,148.2031" style="stroke:#181818;stroke-width:1.0;"/><line style="stroke:#181818;stroke-width:1.0;" x1="470" x2="628" y1="148.2031" y2="148.2031"/><text fill="#000000" font-family="sans-serif" font-size="13" font-weight="bold" lengthAdjust="spacing" textLength="7" x="477" y="142.9404">2</text><text fill="#000000" font-family="sans-serif" font-size="13" lengthAdjust="spacing" textLength="36" x="488" y="142.9404">create</text><rect fill="#E3E3E3" height="32.6211" rx="2.5" ry="2.5" style="stroke:#181818;stroke-width:0.5;" width="234" x="634" y="124.9121"/><text fill="#000000" font-family="sans-serif" font-size="14" lengthAdjust="spacing" textLength="220" x="641" y="147.0195">:ListEmployeeEveryStoreController</text><polygon fill="#181818" points="734,187.8242,744,191.8242,734,195.8242,738,191.8242" style="stroke:#181818;stroke-width:1.0;"/><line style="stroke:#181818;stroke-width:1.0;" x1="470" x2="740" y1="191.8242" y2="191.8242"/><text fill="#000000" font-family="sans-serif" font-size="13" font-weight="bold" lengthAdjust="spacing" textLength="7" x="477" y="186.5615">3</text><text fill="#000000" font-family="sans-serif" font-size="13" lengthAdjust="spacing" textLength="161" x="488" y="186.5615">getStoresOrderByProperty()</text><rect fill="none" height="59.2129" style="stroke:#000000;stroke-width:1.5;" width="251" x="631" y="199.8242"/><path d="M631,199.8242 L693,199.8242 L693,208.8242 L683,218.8242 L631,218.8242 L631,199.8242 " fill="#EEEEEE" style="stroke:#000000;stroke-width:2.0;"/><text fill="#000000" font-family="sans-serif" font-size="13" font-weight="bold" lengthAdjust="spacing" textLength="17" x="644" y="215.8525">ref</text><text fill="#000000" font-family="sans-serif" font-size="12" lengthAdjust="spacing" textLength="243" x="635" y="235.7734">Get Store List sorted by Number of Propertys</text><text fill="#000000" font-family="sans-serif" font-size="12" lengthAdjust="spacing" textLength="3" x="755" y="251.7344">&#160;</text><polygon fill="#181818" points="1409,283.3281,1419,287.3281,1409,291.3281,1413,287.3281" style="stroke:#181818;stroke-width:1.0;"/><line style="stroke:#181818;stroke-width:1.0;" x1="756" x2="1415" y1="287.3281" y2="287.3281"/><text fill="#000000" font-family="sans-serif" font-size="13" font-weight="bold" lengthAdjust="spacing" textLength="7" x="763" y="282.0654">4</text><text fill="#000000" font-family="sans-serif" font-size="13" lengthAdjust="spacing" textLength="133" x="774" y="282.0654">toDTO(storeListSorted)</text><rect fill="none" height="59.2129" style="stroke:#000000;stroke-width:1.5;" width="104" x="1374" y="295.3281"/><path d="M1374,295.3281 L1436,295.3281 L1436,304.3281 L1426,314.3281 L1374,314.3281 L1374,295.3281 " fill="#EEEEEE" style="stroke:#000000;stroke-width:2.0;"/><text fill="#000000" font-family="sans-serif" font-size="13" font-weight="bold" lengthAdjust="spacing" textLength="17" x="1387" y="311.3564">ref</text><text fill="#000000" font-family="sans-serif" font-size="12" lengthAdjust="spacing" textLength="94" x="1379" y="331.2773">Create StoreDTO</text><text fill="#000000" font-family="sans-serif" font-size="12" lengthAdjust="spacing" textLength="3" x="1424.5" y="347.2383">&#160;</text><polygon fill="#181818" points="767,378.832,757,382.832,767,386.832,763,382.832" style="stroke:#181818;stroke-width:1.0;"/><line style="stroke:#181818;stroke-width:1.0;stroke-dasharray:2.0,2.0;" x1="761" x2="1425" y1="382.832" y2="382.832"/><text fill="#000000" font-family="sans-serif" font-size="13" font-weight="bold" lengthAdjust="spacing" textLength="7" x="773" y="377.5693">5</text><text fill="#000000" font-family="sans-serif" font-size="13" lengthAdjust="spacing" textLength="76" x="784" y="377.5693">storeListDTO</text><polygon fill="#181818" points="481,410.123,471,414.123,481,418.123,477,414.123" style="stroke:#181818;stroke-width:1.0;"/><line style="stroke:#181818;stroke-width:1.0;stroke-dasharray:2.0,2.0;" x1="475" x2="750" y1="414.123" y2="414.123"/><text fill="#000000" font-family="sans-serif" font-size="13" font-weight="bold" lengthAdjust="spacing" textLength="7" x="487" y="408.8604">6</text><text fill="#000000" font-family="sans-serif" font-size="13" lengthAdjust="spacing" textLength="76" x="498" y="408.8604">storeListDTO</text><polygon fill="#181818" points="734,441.4141,744,445.4141,734,449.4141,738,445.4141" style="stroke:#181818;stroke-width:1.0;"/><line style="stroke:#181818;stroke-width:1.0;" x1="470" x2="740" y1="445.4141" y2="445.4141"/><text fill="#000000" font-family="sans-serif" font-size="13" font-weight="bold" lengthAdjust="spacing" textLength="7" x="477" y="440.1514">7</text><text fill="#000000" font-family="sans-serif" font-size="13" lengthAdjust="spacing" textLength="246" x="488" y="440.1514">getEmployeeFromSpecificStore(storeDTO)</text><rect fill="none" height="59.2129" style="stroke:#000000;stroke-width:1.5;" width="240" x="631" y="453.4141"/><path d="M631,453.4141 L693,453.4141 L693,462.4141 L683,472.4141 L631,472.4141 L631,453.4141 " fill="#EEEEEE" style="stroke:#000000;stroke-width:2.0;"/><text fill="#000000" font-family="sans-serif" font-size="13" font-weight="bold" lengthAdjust="spacing" textLength="17" x="644" y="469.4424">ref</text><text fill="#000000" font-family="sans-serif" font-size="12" lengthAdjust="spacing" textLength="191" x="655.5" y="489.3633">Get Employee List Sorted by Name</text><text fill="#000000" font-family="sans-serif" font-size="12" lengthAdjust="spacing" textLength="3" x="749.5" y="505.3242">&#160;</text><polygon fill="#181818" points="2342,536.918,2352,540.918,2342,544.918,2346,540.918" style="stroke:#181818;stroke-width:1.0;"/><line style="stroke:#181818;stroke-width:1.0;" x1="756" x2="2348" y1="540.918" y2="540.918"/><text fill="#000000" font-family="sans-serif" font-size="13" font-weight="bold" lengthAdjust="spacing" textLength="7" x="763" y="535.6553">8</text><text fill="#000000" font-family="sans-serif" font-size="13" lengthAdjust="spacing" textLength="44" x="774" y="535.6553">create()</text><rect fill="#E3E3E3" height="51.2422" rx="2.5" ry="2.5" style="stroke:#181818;stroke-width:0.5;" width="144" x="2354" y="517.627"/><text fill="#000000" font-family="sans-serif" font-size="14" lengthAdjust="spacing" textLength="117" x="2367.5" y="539.7344">employeeListDTO:</text><text fill="#000000" font-family="sans-serif" font-size="14" lengthAdjust="spacing" textLength="130" x="2361" y="558.3555">List&lt;EmployeeDTO&gt;</text><path d="M614,586.8691 L687,586.8691 L687,596.1602 L677,606.1602 L614,606.1602 L614,586.8691 " fill="#EEEEEE" style="stroke:#000000;stroke-width:1.5;"/><rect fill="none" height="425.832" style="stroke:#000000;stroke-width:1.5;" width="1904" x="614" y="586.8691"/><text fill="#000000" font-family="sans-serif" font-size="13" font-weight="bold" lengthAdjust="spacing" textLength="28" x="629" y="601.8975">loop</text><text fill="#000000" font-family="sans-serif" font-size="11" font-weight="bold" lengthAdjust="spacing" textLength="182" x="702" y="600.7393">[for each object in employeeList]</text><polygon fill="#181818" points="2062,625.4512,2072,629.4512,2062,633.4512,2066,629.4512" style="stroke:#181818;stroke-width:1.0;"/><line style="stroke:#181818;stroke-width:1.0;" x1="756" x2="2068" y1="629.4512" y2="629.4512"/><text fill="#000000" font-family="sans-serif" font-size="13" font-weight="bold" lengthAdjust="spacing" textLength="7" x="763" y="624.1885">9</text><text fill="#000000" font-family="sans-serif" font-size="13" lengthAdjust="spacing" textLength="156" x="774" y="624.1885">employee = getEmployee()</text><polygon fill="#181818" points="2168.5,686.7422,2178.5,690.7422,2168.5,694.7422,2172.5,690.7422" style="stroke:#181818;stroke-width:1.0;"/><line style="stroke:#181818;stroke-width:1.0;" x1="756" x2="2174.5" y1="690.7422" y2="690.7422"/><text fill="#000000" font-family="sans-serif" font-size="13" font-weight="bold" lengthAdjust="spacing" textLength="14" x="763" y="685.4795">10</text><text fill="#000000" font-family="sans-serif" font-size="13" lengthAdjust="spacing" textLength="102" x="781" y="685.4795">store = getStore()</text><polygon fill="#181818" points="1754,748.0332,1764,752.0332,1754,756.0332,1758,752.0332" style="stroke:#181818;stroke-width:1.0;"/><line style="stroke:#181818;stroke-width:1.0;" x1="756" x2="1760" y1="752.0332" y2="752.0332"/><text fill="#000000" font-family="sans-serif" font-size="13" font-weight="bold" lengthAdjust="spacing" textLength="14" x="763" y="746.7705">11</text><text fill="#000000" font-family="sans-serif" font-size="13" lengthAdjust="spacing" textLength="75" x="781" y="746.7705">equals(store)</text><polygon fill="#181818" points="767,779.3242,757,783.3242,767,787.3242,763,783.3242" style="stroke:#181818;stroke-width:1.0;"/><line style="stroke:#181818;stroke-width:1.0;stroke-dasharray:2.0,2.0;" x1="761" x2="1770" y1="783.3242" y2="783.3242"/><text fill="#000000" font-family="sans-serif" font-size="13" font-weight="bold" lengthAdjust="spacing" textLength="14" x="773" y="778.0615">12</text><text fill="#000000" font-family="sans-serif" font-size="13" lengthAdjust="spacing" textLength="41" x="791" y="778.0615">answer</text><path d="M624,798.3242 L685,798.3242 L685,807.6152 L675,817.6152 L624,817.6152 L624,798.3242 " fill="#EEEEEE" style="stroke:#000000;stroke-width:1.5;"/><rect fill="none" height="207.377" style="stroke:#000000;stroke-width:1.5;" width="1884" x="624" y="798.3242"/><text fill="#000000" font-family="sans-serif" font-size="13" font-weight="bold" lengthAdjust="spacing" textLength="16" x="639" y="813.3525">alt</text><text fill="#000000" font-family="sans-serif" font-size="11" font-weight="bold" lengthAdjust="spacing" textLength="85" x="700" y="812.1943">[answer = true]</text><polygon fill="#181818" points="1531.5,836.9063,1541.5,840.9063,1531.5,844.9063,1535.5,840.9063" style="stroke:#181818;stroke-width:1.0;"/><line style="stroke:#181818;stroke-width:1.0;" x1="756" x2="1537.5" y1="840.9063" y2="840.9063"/><text fill="#000000" font-family="sans-serif" font-size="13" font-weight="bold" lengthAdjust="spacing" textLength="14" x="763" y="835.6436">13</text><text fill="#000000" font-family="sans-serif" font-size="13" lengthAdjust="spacing" textLength="101" x="781" y="835.6436">toDTO(employee)</text><rect fill="none" height="59.2129" style="stroke:#000000;stroke-width:1.5;" width="133" x="1482" y="848.9063"/><path d="M1482,848.9063 L1544,848.9063 L1544,857.9063 L1534,867.9063 L1482,867.9063 L1482,848.9063 " fill="#EEEEEE" style="stroke:#000000;stroke-width:2.0;"/><text fill="#000000" font-family="sans-serif" font-size="13" font-weight="bold" lengthAdjust="spacing" textLength="17" x="1495" y="864.9346">ref</text><text fill="#000000" font-family="sans-serif" font-size="12" lengthAdjust="spacing" textLength="120" x="1488.5" y="884.8555">Create EmployeeDTO</text><text fill="#000000" font-family="sans-serif" font-size="12" lengthAdjust="spacing" textLength="3" x="1547" y="900.8164">&#160;</text><polygon fill="#181818" points="767,932.4102,757,936.4102,767,940.4102,763,936.4102" style="stroke:#181818;stroke-width:1.0;"/><line style="stroke:#181818;stroke-width:1.0;stroke-dasharray:2.0,2.0;" x1="761" x2="1547.5" y1="936.4102" y2="936.4102"/><text fill="#000000" font-family="sans-serif" font-size="13" font-weight="bold" lengthAdjust="spacing" textLength="14" x="773" y="931.1475">14</text><text fill="#000000" font-family="sans-serif" font-size="13" lengthAdjust="spacing" textLength="82" x="791" y="931.1475">employeeDTO</text><polygon fill="#181818" points="2409,963.7012,2419,967.7012,2409,971.7012,2413,967.7012" style="stroke:#181818;stroke-width:1.0;"/><line style="stroke:#181818;stroke-width:1.0;" x1="756" x2="2415" y1="967.7012" y2="967.7012"/><text fill="#000000" font-family="sans-serif" font-size="13" font-weight="bold" lengthAdjust="spacing" textLength="14" x="763" y="962.4385">15</text><text fill="#000000" font-family="sans-serif" font-size="13" lengthAdjust="spacing" textLength="111" x="781" y="962.4385">add(employeeDTO)</text><polygon fill="#181818" points="481,1038.9922,471,1042.9922,481,1046.9922,477,1042.9922" style="stroke:#181818;stroke-width:1.0;"/><line style="stroke:#181818;stroke-width:1.0;stroke-dasharray:2.0,2.0;" x1="475" x2="750" y1="1042.9922" y2="1042.9922"/><text fill="#000000" font-family="sans-serif" font-size="13" font-weight="bold" lengthAdjust="spacing" textLength="14" x="487" y="1037.7295">16</text><text fill="#000000" font-family="sans-serif" font-size="13" lengthAdjust="spacing" textLength="103" x="505" y="1037.7295">employeeListDTO</text><polygon fill="#181818" points="74,1070.2832,64,1074.2832,74,1078.2832,70,1074.2832" style="stroke:#181818;stroke-width:1.0;"/><line style="stroke:#181818;stroke-width:1.0;stroke-dasharray:2.0,2.0;" x1="68" x2="464" y1="1074.2832" y2="1074.2832"/><text fill="#000000" font-family="sans-serif" font-size="13" font-weight="bold" lengthAdjust="spacing" textLength="14" x="80" y="1069.0205">17</text><text fill="#000000" font-family="sans-serif" font-size="13" lengthAdjust="spacing" textLength="272" x="98" y="1069.0205">show the list of all employees grouped by store</text><!--SRC=[jLTDR-8m4BtdLunwAKNY3w1Tf6wNNLM25X5wwyKa0sG9STOsPVdtExRZn84KGbQRGoMRUVEUFH-UocsIvKom7UnungEDu3i49VOOoFANd4LRjiPG7LC4WP5YsJhr3UI6nVoGP6jOiLHY4B2zujb-jqGH1FUR94POSQwM_4_08iK5tBsWEd2nXIdBoBEu0oRXPHgGEvL4ISuo1NV3IIBLU9Ud_8WennyeZY61yUtPcByzNp2lh9zufWHFquBaQJ6VdE3cc7EPa6s2qjYK6ySmqIUbizGXmaEyP-SEPfF7HHqXjPJAx_0z2-ix1XSkvlCw3elprA3Ziqs37azdymRMASjp58xHhXpRz77Mp5U2nhKDnpCv0neg7O6G2uKn8VNYY-4S6TY4-1emJbWXwVN49ZK_Vb-yrZpIkd9AYmQ_5kAiI-zdnkx4shdZS8SkEEZ0pHZlVigRQRQqQiRLghI_ACWxjuUjP6cm-QYiaW-cK1SH0Fs5mOWg18P0fbi9YaDANe2bAJW22Re4TTKc6Q0k630t1tm5QeEGsHeDj4Ce2QZipCRRCp7eQkhtYIKII3-Ia7ielXXha7BVaoOnfMO2F2DAGVs7gAbIITUAbbg1K-h1ptI05GE56dAxHcN2Bbz5ZEBRSIOufQuwzXugWFUL7arhQ3Hndy0LSBeeQth9yYSgC2901m-aAGfO7k75T4LznKwMlCo9MQnvBnlfpvoURi6MzP12JjdHEwdBXwjkokiesiDLG7af1U2gJfCgu2hpEa6h6x3aWy6eI8Bot9hY4j3Bqsidrgw9mURkDV-UNvjOpNvFCzUL-GzwYCCSesILHEQgUgwhVHx2EY6q_DedzMc2EwqsnyCgnzaEWzQUN7ZRsfieZ8hkr- -xtaFLtTf5odbkcWp5Q0Dy-Kkt8Tq4lTORt2H81r5B6fO-uAiVpjv3QtTb5CsxqnRbfPl1tQnUlqKkhwrsctOTX9jdi8DmWxjPk7xLIJZ-tjFiQQkaWsOpURGdjos7Y0TLzR9C7cZWxN1mIzvQSweABegJ6TKx1Tjx95pETenrgsVYhDquP6ljzjtmvg3_rsCARIwuLLLVUqqkPBQvfMvTZd8hZdkUXexTfAFwMw7wjYb9RmkFxidLcDSvG6sU_7yAaZy4j6Oz7mRyzvyEGLCnzTuDFvYvrupgD2BMf_MruFlSlh2comMVZDhUaluR-0i0]--></g></svg>