<?xml version="1.0" encoding="us-ascii" standalone="no"?><svg xmlns="http://www.w3.org/2000/svg" xmlns:xlink="http://www.w3.org/1999/xlink" contentStyleType="text/css" height="1382px" preserveAspectRatio="none" style="width:2577px;height:1382px;background:#FFFFFF;" version="1.1" viewBox="0 0 2577 1382" width="2577px" zoomAndPan="magnify"><defs/><g><rect fill="#FFFFFF" height="1194.1641" style="stroke:#181818;stroke-width:1.0;" width="10" x="58" y="90.6406"/><rect fill="#FFFFFF" height="1173.6406" style="stroke:#181818;stroke-width:1.0;" width="10" x="460" y="111.1641"/><rect fill="#FFFFFF" height="198.2422" style="stroke:#181818;stroke-width:1.0;" width="10" x="799" y="180.3281"/><rect fill="#FFFFFF" height="548.1875" style="stroke:#181818;stroke-width:1.0;" width="10" x="799" y="407.0938"/><rect fill="#FFFFFF" height="272.4766" style="stroke:#181818;stroke-width:1.0;" width="10" x="799" y="983.8047"/><rect fill="#FFFFFF" height="84.8594" style="stroke:#181818;stroke-width:1.0;" width="10" x="1474" y="265.1875"/><rect fill="#FFFFFF" height="84.8594" style="stroke:#181818;stroke-width:1.0;" width="10" x="1474" y="1012.3281"/><rect fill="#FFFFFF" height="84.8594" style="stroke:#181818;stroke-width:1.0;" width="10" x="1596.5" y="769.375"/><rect fill="#FFFFFF" height="28.5234" style="stroke:#181818;stroke-width:1.0;" width="10" x="1819" y="688.8047"/><rect fill="#FFFFFF" height="30" style="stroke:#181818;stroke-width:1.0;" width="10" x="1819" y="1149.2344"/><rect fill="#FFFFFF" height="30" style="stroke:#181818;stroke-width:1.0;" width="10" x="2127" y="571.7578"/><rect fill="#FFFFFF" height="30" style="stroke:#181818;stroke-width:1.0;" width="10" x="2233.5" y="630.2813"/><rect fill="#FFFFFF" height="30" style="stroke:#181818;stroke-width:1.0;" width="10" x="2474" y="882.7578"/><rect fill="none" height="393.0469" style="stroke:#000000;stroke-width:1.5;" width="1904" x="667" y="534.7109"/><rect fill="none" height="188.4297" style="stroke:#000000;stroke-width:1.5;" width="1884" x="677" y="732.3281"/><rect fill="none" height="116.5703" style="stroke:#000000;stroke-width:1.5;" width="1182" x="677" y="1112.1875"/><line style="stroke:#181818;stroke-width:0.5;stroke-dasharray:5.0,5.0;" x1="63" x2="63" y1="80.6406" y2="1302.8047"/><line style="stroke:#181818;stroke-width:0.5;stroke-dasharray:5.0,5.0;" x1="464.5" x2="464.5" y1="80.6406" y2="1302.8047"/><line style="stroke:#181818;stroke-width:0.5;stroke-dasharray:5.0,5.0;" x1="804" x2="804" y1="149.4844" y2="1302.8047"/><line style="stroke:#181818;stroke-width:0.5;stroke-dasharray:5.0,5.0;" x1="979" x2="979" y1="80.6406" y2="1302.8047"/><line style="stroke:#181818;stroke-width:0.5;stroke-dasharray:5.0,5.0;" x1="1086" x2="1086" y1="80.6406" y2="1302.8047"/><line style="stroke:#181818;stroke-width:0.5;stroke-dasharray:5.0,5.0;" x1="1204" x2="1204" y1="80.6406" y2="1302.8047"/><line style="stroke:#181818;stroke-width:0.5;stroke-dasharray:5.0,5.0;" x1="1346" x2="1346" y1="80.6406" y2="1302.8047"/><line style="stroke:#181818;stroke-width:0.5;stroke-dasharray:5.0,5.0;" x1="1479" x2="1479" y1="80.6406" y2="1302.8047"/><line style="stroke:#181818;stroke-width:0.5;stroke-dasharray:5.0,5.0;" x1="1601" x2="1601" y1="80.6406" y2="1302.8047"/><line style="stroke:#181818;stroke-width:0.5;stroke-dasharray:5.0,5.0;" x1="1732" x2="1732" y1="80.6406" y2="1302.8047"/><line style="stroke:#181818;stroke-width:0.5;stroke-dasharray:5.0,5.0;" x1="1824" x2="1824" y1="80.6406" y2="1302.8047"/><line style="stroke:#181818;stroke-width:0.5;stroke-dasharray:5.0,5.0;" x1="1917" x2="1917" y1="80.6406" y2="1302.8047"/><line style="stroke:#181818;stroke-width:0.5;stroke-dasharray:5.0,5.0;" x1="2025" x2="2025" y1="80.6406" y2="1302.8047"/><line style="stroke:#181818;stroke-width:0.5;stroke-dasharray:5.0,5.0;" x1="2132" x2="2132" y1="80.6406" y2="1302.8047"/><line style="stroke:#181818;stroke-width:0.5;stroke-dasharray:5.0,5.0;" x1="2238" x2="2238" y1="80.6406" y2="1302.8047"/><line style="stroke:#181818;stroke-width:0.5;stroke-dasharray:5.0,5.0;" x1="2342" x2="2342" y1="80.6406" y2="1302.8047"/><line style="stroke:#181818;stroke-width:0.5;stroke-dasharray:5.0,5.0;" x1="2479" x2="2479" y1="509.5703" y2="1302.8047"/><text fill="#000000" font-family="sans-serif" font-size="14" lengthAdjust="spacing" textLength="110" x="5" y="77.6738">Network Manager</text><ellipse cx="63" cy="13.5" fill="#E3E3E3" rx="8" ry="8" style="stroke:#181818;stroke-width:0.5;"/><path d="M63,21.5 L63,48.5 M50,29.5 L76,29.5 M63,48.5 L50,63.5 M63,48.5 L76,63.5 " fill="none" style="stroke:#181818;stroke-width:0.5;"/><text fill="#000000" font-family="sans-serif" font-size="14" lengthAdjust="spacing" textLength="110" x="5" y="1314.4785">Network Manager</text><ellipse cx="63" cy="1325.9453" fill="#E3E3E3" rx="8" ry="8" style="stroke:#181818;stroke-width:0.5;"/><path d="M63,1333.9453 L63,1360.9453 M50,1341.9453 L76,1341.9453 M63,1360.9453 L50,1375.9453 M63,1360.9453 L76,1375.9453 " fill="none" style="stroke:#181818;stroke-width:0.5;"/><rect fill="#E3E3E3" height="29.6406" rx="2.5" ry="2.5" style="stroke:#181818;stroke-width:0.5;" width="191" x="369.5" y="50"/><text fill="#000000" font-family="sans-serif" font-size="14" lengthAdjust="spacing" textLength="177" x="376.5" y="69.6738">:ListEmployeesEveryStoreUI</text><rect fill="#E3E3E3" height="29.6406" rx="2.5" ry="2.5" style="stroke:#181818;stroke-width:0.5;" width="191" x="369.5" y="1301.8047"/><text fill="#000000" font-family="sans-serif" font-size="14" lengthAdjust="spacing" textLength="177" x="376.5" y="1321.4785">:ListEmployeesEveryStoreUI</text><rect fill="#E3E3E3" height="29.6406" rx="2.5" ry="2.5" style="stroke:#181818;stroke-width:0.5;" width="234" x="687" y="1301.8047"/><text fill="#000000" font-family="sans-serif" font-size="14" lengthAdjust="spacing" textLength="220" x="694" y="1321.4785">:ListEmployeeEveryStoreController</text><rect fill="#E3E3E3" height="29.6406" rx="2.5" ry="2.5" style="stroke:#181818;stroke-width:0.5;" width="97" x="931" y="50"/><text fill="#000000" font-family="sans-serif" font-size="14" lengthAdjust="spacing" textLength="83" x="938" y="69.6738">:Repositories</text><rect fill="#E3E3E3" height="29.6406" rx="2.5" ry="2.5" style="stroke:#181818;stroke-width:0.5;" width="97" x="931" y="1301.8047"/><text fill="#000000" font-family="sans-serif" font-size="14" lengthAdjust="spacing" textLength="83" x="938" y="1321.4785">:Repositories</text><rect fill="#E3E3E3" height="45.2813" rx="2.5" ry="2.5" style="stroke:#181818;stroke-width:0.5;" width="97" x="1038" y="34.3594"/><text fill="#000000" font-family="sans-serif" font-size="14" lengthAdjust="spacing" textLength="74" x="1049.5" y="54.0332">repositories</text><text fill="#000000" font-family="sans-serif" font-size="14" lengthAdjust="spacing" textLength="83" x="1045" y="69.6738">:Repositories</text><rect fill="#E3E3E3" height="45.2813" rx="2.5" ry="2.5" style="stroke:#181818;stroke-width:0.5;" width="97" x="1038" y="1301.8047"/><text fill="#000000" font-family="sans-serif" font-size="14" lengthAdjust="spacing" textLength="74" x="1049.5" y="1321.4785">repositories</text><text fill="#000000" font-family="sans-serif" font-size="14" lengthAdjust="spacing" textLength="83" x="1045" y="1337.1191">:Repositories</text><rect fill="#E3E3E3" height="45.2813" rx="2.5" ry="2.5" style="stroke:#181818;stroke-width:0.5;" width="118" x="1145" y="34.3594"/><text fill="#000000" font-family="sans-serif" font-size="14" lengthAdjust="spacing" textLength="104" x="1152" y="54.0332">storeRepository:</text><text fill="#000000" font-family="sans-serif" font-size="14" lengthAdjust="spacing" textLength="102" x="1153" y="69.6738">StoreRepository</text><rect fill="#E3E3E3" height="45.2813" rx="2.5" ry="2.5" style="stroke:#181818;stroke-width:0.5;" width="118" x="1145" y="1301.8047"/><text fill="#000000" font-family="sans-serif" font-size="14" lengthAdjust="spacing" textLength="104" x="1152" y="1321.4785">storeRepository:</text><text fill="#000000" font-family="sans-serif" font-size="14" lengthAdjust="spacing" textLength="102" x="1153" y="1337.1191">StoreRepository</text><rect fill="#E3E3E3" height="45.2813" rx="2.5" ry="2.5" style="stroke:#181818;stroke-width:0.5;" width="147" x="1273" y="34.3594"/><text fill="#000000" font-family="sans-serif" font-size="14" lengthAdjust="spacing" textLength="133" x="1280" y="54.0332">employeeRepository:</text><text fill="#000000" font-family="sans-serif" font-size="14" lengthAdjust="spacing" textLength="130" x="1281.5" y="69.6738">EmployeeRepository</text><rect fill="#E3E3E3" height="45.2813" rx="2.5" ry="2.5" style="stroke:#181818;stroke-width:0.5;" width="147" x="1273" y="1301.8047"/><text fill="#000000" font-family="sans-serif" font-size="14" lengthAdjust="spacing" textLength="133" x="1280" y="1321.4785">employeeRepository:</text><text fill="#000000" font-family="sans-serif" font-size="14" lengthAdjust="spacing" textLength="130" x="1281.5" y="1337.1191">EmployeeRepository</text><rect fill="#E3E3E3" height="45.2813" rx="2.5" ry="2.5" style="stroke:#181818;stroke-width:0.5;" width="98" x="1430" y="34.3594"/><text fill="#000000" font-family="sans-serif" font-size="14" lengthAdjust="spacing" textLength="84" x="1437" y="54.0332">storeMapper:</text><text fill="#000000" font-family="sans-serif" font-size="14" lengthAdjust="spacing" textLength="82" x="1438" y="69.6738">StoreMapper</text><rect fill="#E3E3E3" height="45.2813" rx="2.5" ry="2.5" style="stroke:#181818;stroke-width:0.5;" width="98" x="1430" y="1301.8047"/><text fill="#000000" font-family="sans-serif" font-size="14" lengthAdjust="spacing" textLength="84" x="1437" y="1321.4785">storeMapper:</text><text fill="#000000" font-family="sans-serif" font-size="14" lengthAdjust="spacing" textLength="82" x="1438" y="1337.1191">StoreMapper</text><rect fill="#E3E3E3" height="45.2813" rx="2.5" ry="2.5" style="stroke:#181818;stroke-width:0.5;" width="127" x="1538" y="34.3594"/><text fill="#000000" font-family="sans-serif" font-size="14" lengthAdjust="spacing" textLength="113" x="1545" y="54.0332">employeeMapper:</text><text fill="#000000" font-family="sans-serif" font-size="14" lengthAdjust="spacing" textLength="110" x="1546.5" y="69.6738">EmployeeMapper</text><rect fill="#E3E3E3" height="45.2813" rx="2.5" ry="2.5" style="stroke:#181818;stroke-width:0.5;" width="127" x="1538" y="1301.8047"/><text fill="#000000" font-family="sans-serif" font-size="14" lengthAdjust="spacing" textLength="113" x="1545" y="1321.4785">employeeMapper:</text><text fill="#000000" font-family="sans-serif" font-size="14" lengthAdjust="spacing" textLength="110" x="1546.5" y="1337.1191">EmployeeMapper</text><rect fill="#E3E3E3" height="45.2813" rx="2.5" ry="2.5" style="stroke:#181818;stroke-width:0.5;" width="114" x="1675" y="34.3594"/><text fill="#000000" font-family="sans-serif" font-size="14" lengthAdjust="spacing" textLength="100" x="1682" y="54.0332">storeListSorted:</text><text fill="#000000" font-family="sans-serif" font-size="14" lengthAdjust="spacing" textLength="72" x="1696" y="69.6738">List&lt;Store&gt;</text><rect fill="#E3E3E3" height="45.2813" rx="2.5" ry="2.5" style="stroke:#181818;stroke-width:0.5;" width="114" x="1675" y="1301.8047"/><text fill="#000000" font-family="sans-serif" font-size="14" lengthAdjust="spacing" textLength="100" x="1682" y="1321.4785">storeListSorted:</text><text fill="#000000" font-family="sans-serif" font-size="14" lengthAdjust="spacing" textLength="72" x="1696" y="1337.1191">List&lt;Store&gt;</text><rect fill="#E3E3E3" height="45.2813" rx="2.5" ry="2.5" style="stroke:#181818;stroke-width:0.5;" width="50" x="1799" y="34.3594"/><text fill="#000000" font-family="sans-serif" font-size="14" lengthAdjust="spacing" textLength="36" x="1806" y="54.0332">store:</text><text fill="#000000" font-family="sans-serif" font-size="14" lengthAdjust="spacing" textLength="34" x="1807" y="69.6738">Store</text><rect fill="#E3E3E3" height="45.2813" rx="2.5" ry="2.5" style="stroke:#181818;stroke-width:0.5;" width="50" x="1799" y="1301.8047"/><text fill="#000000" font-family="sans-serif" font-size="14" lengthAdjust="spacing" textLength="36" x="1806" y="1321.4785">store:</text><text fill="#000000" font-family="sans-serif" font-size="14" lengthAdjust="spacing" textLength="34" x="1807" y="1337.1191">Store</text><rect fill="#E3E3E3" height="45.2813" rx="2.5" ry="2.5" style="stroke:#181818;stroke-width:0.5;" width="116" x="1859" y="34.3594"/><text fill="#000000" font-family="sans-serif" font-size="14" lengthAdjust="spacing" textLength="71" x="1881.5" y="54.0332">lStoreDTO:</text><text fill="#000000" font-family="sans-serif" font-size="14" lengthAdjust="spacing" textLength="102" x="1866" y="69.6738">List&lt;StoreDTO&gt;</text><rect fill="#E3E3E3" height="45.2813" rx="2.5" ry="2.5" style="stroke:#181818;stroke-width:0.5;" width="116" x="1859" y="1301.8047"/><text fill="#000000" font-family="sans-serif" font-size="14" lengthAdjust="spacing" textLength="71" x="1881.5" y="1321.4785">lStoreDTO:</text><text fill="#000000" font-family="sans-serif" font-size="14" lengthAdjust="spacing" textLength="102" x="1866" y="1337.1191">List&lt;StoreDTO&gt;</text><rect fill="#E3E3E3" height="45.2813" rx="2.5" ry="2.5" style="stroke:#181818;stroke-width:0.5;" width="80" x="1985" y="34.3594"/><text fill="#000000" font-family="sans-serif" font-size="14" lengthAdjust="spacing" textLength="66" x="1992" y="54.0332">storeDTO:</text><text fill="#000000" font-family="sans-serif" font-size="14" lengthAdjust="spacing" textLength="64" x="1993" y="69.6738">StoreDTO</text><rect fill="#E3E3E3" height="45.2813" rx="2.5" ry="2.5" style="stroke:#181818;stroke-width:0.5;" width="80" x="1985" y="1301.8047"/><text fill="#000000" font-family="sans-serif" font-size="14" lengthAdjust="spacing" textLength="66" x="1992" y="1321.4785">storeDTO:</text><text fill="#000000" font-family="sans-serif" font-size="14" lengthAdjust="spacing" textLength="64" x="1993" y="1337.1191">StoreDTO</text><rect fill="#E3E3E3" height="45.2813" rx="2.5" ry="2.5" style="stroke:#181818;stroke-width:0.5;" width="114" x="2075" y="34.3594"/><text fill="#000000" font-family="sans-serif" font-size="14" lengthAdjust="spacing" textLength="87" x="2088.5" y="54.0332">employeeList:</text><text fill="#000000" font-family="sans-serif" font-size="14" lengthAdjust="spacing" textLength="100" x="2082" y="69.6738">List&lt;Employee&gt;</text><rect fill="#E3E3E3" height="45.2813" rx="2.5" ry="2.5" style="stroke:#181818;stroke-width:0.5;" width="114" x="2075" y="1301.8047"/><text fill="#000000" font-family="sans-serif" font-size="14" lengthAdjust="spacing" textLength="87" x="2088.5" y="1321.4785">employeeList:</text><text fill="#000000" font-family="sans-serif" font-size="14" lengthAdjust="spacing" textLength="100" x="2082" y="1337.1191">List&lt;Employee&gt;</text><rect fill="#E3E3E3" height="45.2813" rx="2.5" ry="2.5" style="stroke:#181818;stroke-width:0.5;" width="79" x="2199" y="34.3594"/><text fill="#000000" font-family="sans-serif" font-size="14" lengthAdjust="spacing" textLength="65" x="2206" y="54.0332">employee:</text><text fill="#000000" font-family="sans-serif" font-size="14" lengthAdjust="spacing" textLength="62" x="2207.5" y="69.6738">Employee</text><rect fill="#E3E3E3" height="45.2813" rx="2.5" ry="2.5" style="stroke:#181818;stroke-width:0.5;" width="79" x="2199" y="1301.8047"/><text fill="#000000" font-family="sans-serif" font-size="14" lengthAdjust="spacing" textLength="65" x="2206" y="1321.4785">employee:</text><text fill="#000000" font-family="sans-serif" font-size="14" lengthAdjust="spacing" textLength="62" x="2207.5" y="1337.1191">Employee</text><rect fill="#E3E3E3" height="45.2813" rx="2.5" ry="2.5" style="stroke:#181818;stroke-width:0.5;" width="109" x="2288" y="34.3594"/><text fill="#000000" font-family="sans-serif" font-size="14" lengthAdjust="spacing" textLength="95" x="2295" y="54.0332">employeeDTO:</text><text fill="#000000" font-family="sans-serif" font-size="14" lengthAdjust="spacing" textLength="92" x="2296.5" y="69.6738">EmployeeDTO</text><rect fill="#E3E3E3" height="45.2813" rx="2.5" ry="2.5" style="stroke:#181818;stroke-width:0.5;" width="109" x="2288" y="1301.8047"/><text fill="#000000" font-family="sans-serif" font-size="14" lengthAdjust="spacing" textLength="95" x="2295" y="1321.4785">employeeDTO:</text><text fill="#000000" font-family="sans-serif" font-size="14" lengthAdjust="spacing" textLength="92" x="2296.5" y="1337.1191">EmployeeDTO</text><rect fill="#E3E3E3" height="45.2813" rx="2.5" ry="2.5" style="stroke:#181818;stroke-width:0.5;" width="144" x="2407" y="1301.8047"/><text fill="#000000" font-family="sans-serif" font-size="14" lengthAdjust="spacing" textLength="117" x="2420.5" y="1321.4785">employeeListDTO:</text><text fill="#000000" font-family="sans-serif" font-size="14" lengthAdjust="spacing" textLength="130" x="2414" y="1337.1191">List&lt;EmployeeDTO&gt;</text><rect fill="#FFFFFF" height="1194.1641" style="stroke:#181818;stroke-width:1.0;" width="10" x="58" y="90.6406"/><rect fill="#FFFFFF" height="1173.6406" style="stroke:#181818;stroke-width:1.0;" width="10" x="460" y="111.1641"/><rect fill="#FFFFFF" height="198.2422" style="stroke:#181818;stroke-width:1.0;" width="10" x="799" y="180.3281"/><rect fill="#FFFFFF" height="548.1875" style="stroke:#181818;stroke-width:1.0;" width="10" x="799" y="407.0938"/><rect fill="#FFFFFF" height="272.4766" style="stroke:#181818;stroke-width:1.0;" width="10" x="799" y="983.8047"/><rect fill="#FFFFFF" height="84.8594" style="stroke:#181818;stroke-width:1.0;" width="10" x="1474" y="265.1875"/><rect fill="#FFFFFF" height="84.8594" style="stroke:#181818;stroke-width:1.0;" width="10" x="1474" y="1012.3281"/><rect fill="#FFFFFF" height="84.8594" style="stroke:#181818;stroke-width:1.0;" width="10" x="1596.5" y="769.375"/><rect fill="#FFFFFF" height="28.5234" style="stroke:#181818;stroke-width:1.0;" width="10" x="1819" y="688.8047"/><rect fill="#FFFFFF" height="30" style="stroke:#181818;stroke-width:1.0;" width="10" x="1819" y="1149.2344"/><rect fill="#FFFFFF" height="30" style="stroke:#181818;stroke-width:1.0;" width="10" x="2127" y="571.7578"/><rect fill="#FFFFFF" height="30" style="stroke:#181818;stroke-width:1.0;" width="10" x="2233.5" y="630.2813"/><rect fill="#FFFFFF" height="30" style="stroke:#181818;stroke-width:1.0;" width="10" x="2474" y="882.7578"/><polygon fill="#181818" points="448,107.1641,458,111.1641,448,115.1641,452,111.1641" style="stroke:#181818;stroke-width:1.0;"/><line style="stroke:#181818;stroke-width:1.0;" x1="68" x2="454" y1="111.1641" y2="111.1641"/><text fill="#000000" font-family="sans-serif" font-size="13" font-weight="bold" lengthAdjust="spacing" textLength="7" x="75" y="106.4092">1</text><text fill="#000000" font-family="sans-serif" font-size="13" lengthAdjust="spacing" textLength="362" x="86" y="106.4092">asks to list all employees working in every store of the network</text><polygon fill="#181818" points="675,135.6875,685,139.6875,675,143.6875,679,139.6875" style="stroke:#181818;stroke-width:1.0;"/><line style="stroke:#181818;stroke-width:1.0;" x1="470" x2="681" y1="139.6875" y2="139.6875"/><text fill="#000000" font-family="sans-serif" font-size="13" font-weight="bold" lengthAdjust="spacing" textLength="7" x="477" y="134.9326">2</text><text fill="#000000" font-family="sans-serif" font-size="13" lengthAdjust="spacing" textLength="36" x="488" y="134.9326">create</text><rect fill="#E3E3E3" height="29.6406" rx="2.5" ry="2.5" style="stroke:#181818;stroke-width:0.5;" width="234" x="687" y="119.1641"/><text fill="#000000" font-family="sans-serif" font-size="14" lengthAdjust="spacing" textLength="220" x="694" y="138.8379">:ListEmployeeEveryStoreController</text><polygon fill="#181818" points="787,176.3281,797,180.3281,787,184.3281,791,180.3281" style="stroke:#181818;stroke-width:1.0;"/><line style="stroke:#181818;stroke-width:1.0;" x1="470" x2="793" y1="180.3281" y2="180.3281"/><text fill="#000000" font-family="sans-serif" font-size="13" font-weight="bold" lengthAdjust="spacing" textLength="7" x="477" y="175.5732">3</text><text fill="#000000" font-family="sans-serif" font-size="13" lengthAdjust="spacing" textLength="161" x="488" y="175.5732">getStoresOrderByProperty()</text><rect fill="none" height="51.3359" style="stroke:#000000;stroke-width:1.5;" width="251" x="684" y="188.3281"/><path d="M684,188.3281 L746,188.3281 L746,194.3281 L736,204.3281 L684,204.3281 L684,188.3281 " fill="#EEEEEE" style="stroke:#000000;stroke-width:2.0;"/><text fill="#000000" font-family="sans-serif" font-size="13" font-weight="bold" lengthAdjust="spacing" textLength="17" x="697" y="202.0967">ref</text><text fill="#000000" font-family="sans-serif" font-size="12" lengthAdjust="spacing" textLength="243" x="688" y="219.1914">Get Store List sorted by Number of Propertys</text><text fill="#000000" font-family="sans-serif" font-size="12" lengthAdjust="spacing" textLength="3" x="808" y="232.5977">&#160;</text><polygon fill="#181818" points="1462,261.1875,1472,265.1875,1462,269.1875,1466,265.1875" style="stroke:#181818;stroke-width:1.0;"/><line style="stroke:#181818;stroke-width:1.0;" x1="809" x2="1468" y1="265.1875" y2="265.1875"/><text fill="#000000" font-family="sans-serif" font-size="13" font-weight="bold" lengthAdjust="spacing" textLength="7" x="816" y="260.4326">4</text><text fill="#000000" font-family="sans-serif" font-size="13" lengthAdjust="spacing" textLength="133" x="827" y="260.4326">toDTO(storeListSorted)</text><rect fill="none" height="51.3359" style="stroke:#000000;stroke-width:1.5;" width="104" x="1427" y="273.1875"/><path d="M1427,273.1875 L1489,273.1875 L1489,279.1875 L1479,289.1875 L1427,289.1875 L1427,273.1875 " fill="#EEEEEE" style="stroke:#000000;stroke-width:2.0;"/><text fill="#000000" font-family="sans-serif" font-size="13" font-weight="bold" lengthAdjust="spacing" textLength="17" x="1440" y="286.9561">ref</text><text fill="#000000" font-family="sans-serif" font-size="12" lengthAdjust="spacing" textLength="94" x="1432" y="304.0508">Create StoreDTO</text><text fill="#000000" font-family="sans-serif" font-size="12" lengthAdjust="spacing" textLength="3" x="1477.5" y="317.457">&#160;</text><polygon fill="#181818" points="820,346.0469,810,350.0469,820,354.0469,816,350.0469" style="stroke:#181818;stroke-width:1.0;"/><line style="stroke:#181818;stroke-width:1.0;stroke-dasharray:2.0,2.0;" x1="814" x2="1478" y1="350.0469" y2="350.0469"/><text fill="#000000" font-family="sans-serif" font-size="13" font-weight="bold" lengthAdjust="spacing" textLength="7" x="826" y="345.292">5</text><text fill="#000000" font-family="sans-serif" font-size="13" lengthAdjust="spacing" textLength="76" x="837" y="345.292">storeListDTO</text><polygon fill="#181818" points="481,374.5703,471,378.5703,481,382.5703,477,378.5703" style="stroke:#181818;stroke-width:1.0;"/><line style="stroke:#181818;stroke-width:1.0;stroke-dasharray:2.0,2.0;" x1="475" x2="803" y1="378.5703" y2="378.5703"/><text fill="#000000" font-family="sans-serif" font-size="13" font-weight="bold" lengthAdjust="spacing" textLength="7" x="487" y="373.8154">6</text><text fill="#000000" font-family="sans-serif" font-size="13" lengthAdjust="spacing" textLength="76" x="498" y="373.8154">storeListDTO</text><polygon fill="#181818" points="787,403.0938,797,407.0938,787,411.0938,791,407.0938" style="stroke:#181818;stroke-width:1.0;"/><line style="stroke:#181818;stroke-width:1.0;" x1="470" x2="793" y1="407.0938" y2="407.0938"/><text fill="#000000" font-family="sans-serif" font-size="13" font-weight="bold" lengthAdjust="spacing" textLength="7" x="477" y="402.3389">7</text><text fill="#000000" font-family="sans-serif" font-size="13" lengthAdjust="spacing" textLength="246" x="488" y="402.3389">getEmployeeFromSpecificStore(storeDTO)</text><rect fill="none" height="51.3359" style="stroke:#000000;stroke-width:1.5;" width="240" x="684" y="415.0938"/><path d="M684,415.0938 L746,415.0938 L746,421.0938 L736,431.0938 L684,431.0938 L684,415.0938 " fill="#EEEEEE" style="stroke:#000000;stroke-width:2.0;"/><text fill="#000000" font-family="sans-serif" font-size="13" font-weight="bold" lengthAdjust="spacing" textLength="17" x="697" y="428.8623">ref</text><text fill="#000000" font-family="sans-serif" font-size="12" lengthAdjust="spacing" textLength="191" x="708.5" y="445.957">Get Employee List Sorted by Name</text><text fill="#000000" font-family="sans-serif" font-size="12" lengthAdjust="spacing" textLength="3" x="802.5" y="459.3633">&#160;</text><polygon fill="#181818" points="2395,487.9531,2405,491.9531,2395,495.9531,2399,491.9531" style="stroke:#181818;stroke-width:1.0;"/><line style="stroke:#181818;stroke-width:1.0;" x1="809" x2="2401" y1="491.9531" y2="491.9531"/><text fill="#000000" font-family="sans-serif" font-size="13" font-weight="bold" lengthAdjust="spacing" textLength="7" x="816" y="487.1982">8</text><text fill="#000000" font-family="sans-serif" font-size="13" lengthAdjust="spacing" textLength="44" x="827" y="487.1982">create()</text><rect fill="#E3E3E3" height="45.2813" rx="2.5" ry="2.5" style="stroke:#181818;stroke-width:0.5;" width="144" x="2407" y="471.4297"/><text fill="#000000" font-family="sans-serif" font-size="14" lengthAdjust="spacing" textLength="117" x="2420.5" y="491.1035">employeeListDTO:</text><text fill="#000000" font-family="sans-serif" font-size="14" lengthAdjust="spacing" textLength="130" x="2414" y="506.7441">List&lt;EmployeeDTO&gt;</text><path d="M667,534.7109 L740,534.7109 L740,541.2344 L730,551.2344 L667,551.2344 L667,534.7109 " fill="#EEEEEE" style="stroke:#000000;stroke-width:1.5;"/><rect fill="none" height="393.0469" style="stroke:#000000;stroke-width:1.5;" width="1904" x="667" y="534.7109"/><text fill="#000000" font-family="sans-serif" font-size="13" font-weight="bold" lengthAdjust="spacing" textLength="28" x="682" y="547.4795">loop</text><text fill="#000000" font-family="sans-serif" font-size="11" font-weight="bold" lengthAdjust="spacing" textLength="182" x="755" y="546.6689">[for each object in employeeList]</text><polygon fill="#181818" points="2115,567.7578,2125,571.7578,2115,575.7578,2119,571.7578" style="stroke:#181818;stroke-width:1.0;"/><line style="stroke:#181818;stroke-width:1.0;" x1="809" x2="2121" y1="571.7578" y2="571.7578"/><text fill="#000000" font-family="sans-serif" font-size="13" font-weight="bold" lengthAdjust="spacing" textLength="7" x="816" y="567.0029">9</text><text fill="#000000" font-family="sans-serif" font-size="13" lengthAdjust="spacing" textLength="156" x="827" y="567.0029">employee = getEmployee()</text><polygon fill="#181818" points="2221.5,626.2813,2231.5,630.2813,2221.5,634.2813,2225.5,630.2813" style="stroke:#181818;stroke-width:1.0;"/><line style="stroke:#181818;stroke-width:1.0;" x1="809" x2="2227.5" y1="630.2813" y2="630.2813"/><text fill="#000000" font-family="sans-serif" font-size="13" font-weight="bold" lengthAdjust="spacing" textLength="14" x="816" y="625.5264">10</text><text fill="#000000" font-family="sans-serif" font-size="13" lengthAdjust="spacing" textLength="102" x="834" y="625.5264">store = getStore()</text><polygon fill="#181818" points="1807,684.8047,1817,688.8047,1807,692.8047,1811,688.8047" style="stroke:#181818;stroke-width:1.0;"/><line style="stroke:#181818;stroke-width:1.0;" x1="809" x2="1813" y1="688.8047" y2="688.8047"/><text fill="#000000" font-family="sans-serif" font-size="13" font-weight="bold" lengthAdjust="spacing" textLength="14" x="816" y="684.0498">11</text><text fill="#000000" font-family="sans-serif" font-size="13" lengthAdjust="spacing" textLength="75" x="834" y="684.0498">equals(store)</text><polygon fill="#181818" points="820,713.3281,810,717.3281,820,721.3281,816,717.3281" style="stroke:#181818;stroke-width:1.0;"/><line style="stroke:#181818;stroke-width:1.0;stroke-dasharray:2.0,2.0;" x1="814" x2="1823" y1="717.3281" y2="717.3281"/><text fill="#000000" font-family="sans-serif" font-size="13" font-weight="bold" lengthAdjust="spacing" textLength="14" x="826" y="712.5732">12</text><text fill="#000000" font-family="sans-serif" font-size="13" lengthAdjust="spacing" textLength="41" x="844" y="712.5732">answer</text><path d="M677,732.3281 L738,732.3281 L738,738.8516 L728,748.8516 L677,748.8516 L677,732.3281 " fill="#EEEEEE" style="stroke:#000000;stroke-width:1.5;"/><rect fill="none" height="188.4297" style="stroke:#000000;stroke-width:1.5;" width="1884" x="677" y="732.3281"/><text fill="#000000" font-family="sans-serif" font-size="13" font-weight="bold" lengthAdjust="spacing" textLength="16" x="692" y="745.0967">alt</text><text fill="#000000" font-family="sans-serif" font-size="11" font-weight="bold" lengthAdjust="spacing" textLength="85" x="753" y="744.2861">[answer = true]</text><polygon fill="#181818" points="1584.5,765.375,1594.5,769.375,1584.5,773.375,1588.5,769.375" style="stroke:#181818;stroke-width:1.0;"/><line style="stroke:#181818;stroke-width:1.0;" x1="809" x2="1590.5" y1="769.375" y2="769.375"/><text fill="#000000" font-family="sans-serif" font-size="13" font-weight="bold" lengthAdjust="spacing" textLength="14" x="816" y="764.6201">13</text><text fill="#000000" font-family="sans-serif" font-size="13" lengthAdjust="spacing" textLength="101" x="834" y="764.6201">toDTO(employee)</text><rect fill="none" height="51.3359" style="stroke:#000000;stroke-width:1.5;" width="133" x="1535" y="777.375"/><path d="M1535,777.375 L1597,777.375 L1597,783.375 L1587,793.375 L1535,793.375 L1535,777.375 " fill="#EEEEEE" style="stroke:#000000;stroke-width:2.0;"/><text fill="#000000" font-family="sans-serif" font-size="13" font-weight="bold" lengthAdjust="spacing" textLength="17" x="1548" y="791.1436">ref</text><text fill="#000000" font-family="sans-serif" font-size="12" lengthAdjust="spacing" textLength="120" x="1541.5" y="808.2383">Create EmployeeDTO</text><text fill="#000000" font-family="sans-serif" font-size="12" lengthAdjust="spacing" textLength="3" x="1600" y="821.6445">&#160;</text><polygon fill="#181818" points="820,850.2344,810,854.2344,820,858.2344,816,854.2344" style="stroke:#181818;stroke-width:1.0;"/><line style="stroke:#181818;stroke-width:1.0;stroke-dasharray:2.0,2.0;" x1="814" x2="1600.5" y1="854.2344" y2="854.2344"/><text fill="#000000" font-family="sans-serif" font-size="13" font-weight="bold" lengthAdjust="spacing" textLength="14" x="826" y="849.4795">14</text><text fill="#000000" font-family="sans-serif" font-size="13" lengthAdjust="spacing" textLength="82" x="844" y="849.4795">employeeDTO</text><polygon fill="#181818" points="2462,878.7578,2472,882.7578,2462,886.7578,2466,882.7578" style="stroke:#181818;stroke-width:1.0;"/><line style="stroke:#181818;stroke-width:1.0;" x1="809" x2="2468" y1="882.7578" y2="882.7578"/><text fill="#000000" font-family="sans-serif" font-size="13" font-weight="bold" lengthAdjust="spacing" textLength="14" x="816" y="878.0029">15</text><text fill="#000000" font-family="sans-serif" font-size="13" lengthAdjust="spacing" textLength="111" x="834" y="878.0029">add(employeeDTO)</text><polygon fill="#181818" points="481,951.2813,471,955.2813,481,959.2813,477,955.2813" style="stroke:#181818;stroke-width:1.0;"/><line style="stroke:#181818;stroke-width:1.0;stroke-dasharray:2.0,2.0;" x1="475" x2="803" y1="955.2813" y2="955.2813"/><text fill="#000000" font-family="sans-serif" font-size="13" font-weight="bold" lengthAdjust="spacing" textLength="14" x="487" y="950.5264">16</text><text fill="#000000" font-family="sans-serif" font-size="13" lengthAdjust="spacing" textLength="103" x="505" y="950.5264">employeeListDTO</text><polygon fill="#181818" points="787,979.8047,797,983.8047,787,987.8047,791,983.8047" style="stroke:#181818;stroke-width:1.0;"/><line style="stroke:#181818;stroke-width:1.0;" x1="470" x2="793" y1="983.8047" y2="983.8047"/><text fill="#000000" font-family="sans-serif" font-size="13" font-weight="bold" lengthAdjust="spacing" textLength="14" x="477" y="979.0498">17</text><text fill="#000000" font-family="sans-serif" font-size="13" lengthAdjust="spacing" textLength="292" x="495" y="979.0498">getNumberPropertiesFromSpecificStore(storeDTO)</text><polygon fill="#181818" points="1462,1008.3281,1472,1012.3281,1462,1016.3281,1466,1012.3281" style="stroke:#181818;stroke-width:1.0;"/><line style="stroke:#181818;stroke-width:1.0;" x1="809" x2="1468" y1="1012.3281" y2="1012.3281"/><text fill="#000000" font-family="sans-serif" font-size="13" font-weight="bold" lengthAdjust="spacing" textLength="14" x="816" y="1007.5732">18</text><text fill="#000000" font-family="sans-serif" font-size="13" lengthAdjust="spacing" textLength="108" x="834" y="1007.5732">toEntity(storeDTO)</text><rect fill="none" height="51.3359" style="stroke:#000000;stroke-width:1.5;" width="104" x="1427" y="1020.3281"/><path d="M1427,1020.3281 L1489,1020.3281 L1489,1026.3281 L1479,1036.3281 L1427,1036.3281 L1427,1020.3281 " fill="#EEEEEE" style="stroke:#000000;stroke-width:2.0;"/><text fill="#000000" font-family="sans-serif" font-size="13" font-weight="bold" lengthAdjust="spacing" textLength="17" x="1440" y="1034.0967">ref</text><text fill="#000000" font-family="sans-serif" font-size="12" lengthAdjust="spacing" textLength="66" x="1446" y="1051.1914">create Store</text><text fill="#000000" font-family="sans-serif" font-size="12" lengthAdjust="spacing" textLength="3" x="1477.5" y="1064.5977">&#160;</text><polygon fill="#181818" points="820,1093.1875,810,1097.1875,820,1101.1875,816,1097.1875" style="stroke:#181818;stroke-width:1.0;"/><line style="stroke:#181818;stroke-width:1.0;stroke-dasharray:2.0,2.0;" x1="814" x2="1478" y1="1097.1875" y2="1097.1875"/><text fill="#000000" font-family="sans-serif" font-size="13" font-weight="bold" lengthAdjust="spacing" textLength="14" x="826" y="1092.4326">19</text><text fill="#000000" font-family="sans-serif" font-size="13" lengthAdjust="spacing" textLength="29" x="844" y="1092.4326">store</text><path d="M677,1112.1875 L750,1112.1875 L750,1118.7109 L740,1128.7109 L677,1128.7109 L677,1112.1875 " fill="#EEEEEE" style="stroke:#000000;stroke-width:1.5;"/><rect fill="none" height="116.5703" style="stroke:#000000;stroke-width:1.5;" width="1182" x="677" y="1112.1875"/><text fill="#000000" font-family="sans-serif" font-size="13" font-weight="bold" lengthAdjust="spacing" textLength="28" x="692" y="1124.9561">loop</text><text fill="#000000" font-family="sans-serif" font-size="11" font-weight="bold" lengthAdjust="spacing" textLength="85" x="765" y="1124.1455">[each property]</text><polygon fill="#181818" points="1807,1145.2344,1817,1149.2344,1807,1153.2344,1811,1149.2344" style="stroke:#181818;stroke-width:1.0;"/><line style="stroke:#181818;stroke-width:1.0;" x1="809" x2="1813" y1="1149.2344" y2="1149.2344"/><text fill="#000000" font-family="sans-serif" font-size="13" font-weight="bold" lengthAdjust="spacing" textLength="14" x="816" y="1144.4795">20</text><text fill="#000000" font-family="sans-serif" font-size="13" lengthAdjust="spacing" textLength="102" x="834" y="1144.4795">store = getStore()</text><line style="stroke:#181818;stroke-width:1.0;stroke-dasharray:2.0,2.0;" x1="809" x2="851" y1="1207.7578" y2="1207.7578"/><line style="stroke:#181818;stroke-width:1.0;stroke-dasharray:2.0,2.0;" x1="851" x2="851" y1="1207.7578" y2="1220.7578"/><line style="stroke:#181818;stroke-width:1.0;stroke-dasharray:2.0,2.0;" x1="810" x2="851" y1="1220.7578" y2="1220.7578"/><polygon fill="#181818" points="820,1216.7578,810,1220.7578,820,1224.7578,816,1220.7578" style="stroke:#181818;stroke-width:1.0;"/><text fill="#000000" font-family="sans-serif" font-size="13" font-weight="bold" lengthAdjust="spacing" textLength="14" x="816" y="1203.0029">21</text><text fill="#000000" font-family="sans-serif" font-size="13" lengthAdjust="spacing" textLength="76" x="834" y="1203.0029">add(property)</text><polygon fill="#181818" points="481,1252.2813,471,1256.2813,481,1260.2813,477,1256.2813" style="stroke:#181818;stroke-width:1.0;"/><line style="stroke:#181818;stroke-width:1.0;stroke-dasharray:2.0,2.0;" x1="475" x2="803" y1="1256.2813" y2="1256.2813"/><text fill="#000000" font-family="sans-serif" font-size="13" font-weight="bold" lengthAdjust="spacing" textLength="14" x="487" y="1251.5264">22</text><text fill="#000000" font-family="sans-serif" font-size="13" lengthAdjust="spacing" textLength="115" x="505" y="1251.5264">numberOfProperties</text><polygon fill="#181818" points="74,1280.8047,64,1284.8047,74,1288.8047,70,1284.8047" style="stroke:#181818;stroke-width:1.0;"/><line style="stroke:#181818;stroke-width:1.0;stroke-dasharray:2.0,2.0;" x1="68" x2="464" y1="1284.8047" y2="1284.8047"/><text fill="#000000" font-family="sans-serif" font-size="13" font-weight="bold" lengthAdjust="spacing" textLength="14" x="80" y="1280.0498">23</text><text fill="#000000" font-family="sans-serif" font-size="13" lengthAdjust="spacing" textLength="272" x="98" y="1280.0498">show the list of all employees grouped by store</text><!--SRC=[jLXVRzem47_FfpZrfO3KBu2sIjt6fafGAg1lVN63WOmGPxOfuzllV8uJ1sXYKYqFbHBkxlVp_NVLDibo9jaETY8JyKQA7GSjzpnIvIyvYxTipUVwc7AGFDOiMwU-WDgmfJWasHfMB5KyYjXUYso_U-CoYcutoPB3IWZz9lv6BDP2miqJrmSXjp1X6LgMDy0KF4qYDAUJECbPfk5cE4wK7ktoL1mvLwDtBezpLEOlZoJ-yjWWNab_5vcM8aqBaE-BsVX4RyPpeHAKJRWYcVB3SPwOa-9PwYhIqtZDpWqyZnyMTGrbg5HsXw_PlFw5zEQBsQoknulpr5H7Pnz9UpHvdbr0dR0yvz8XsZU7DdbulenNAerg7npE-4oHe4m4va9glaHDy_A5CEz9ROnu5tGSiOBIz4GcfHz_BAOrY_XU6SMN2tQjYfCkhPy9knCRumx37Rh0m0DVrl7yKthcigHbCwhUIlb6GjwvFTsAbb6c1yigUMUQco82mBzmTuyL0aD0qQq2BI15Ay3I51o00bE2fcgJ3BWf623FWLY1td38R8r6nY2K05XszE7b4H5CDGq6Y19BZZyYaLiedYMlgPJVFMgAfzXCG6G8AR7_83HMAl9QuQjXu9XwwcSym9A1WWsQNNDDOLTJkUJos_5P2anTVUprAmNlAIrIQxWeuXx9Lo3GKLQqIV8Nrq0am0GF51K5l1tXYRgYSR6ZfPenUROqkCr2vg7JenTiMGynv9WTlPEwxBUQATrHj8TMXT8fXK8hJqeLS9NP3X3a0Gj-TtTV945vRWFHfEZbQTk9ZMb4iBdRPj-pQnFhijtJp7Lb_XC7yJpdSR9AOd9LptMrZqDO1uJ09pofJnFSSRKvFgzodEru56p9XJTKdg9mNtI_mS3r7gpkO1Ef43ar6OpH1iJRRzE6J1FqMczq5I4JH4DfMDg0htuuU_rWSsKKQUw4QddfHdfNipUpoEMrvMxJhWDn6eCTY9FUrSJDL4VY_CyUTqzR9Hquq-OH3cvR3WBVLTNBCdN0XRV3mIruCETK5rWO9rhLEmNR6n8kPpl6EcXCdBKRfndCtSuDRm_wVpscuEQ2MrLrspHfo6poKhSkXxcrNFOy3XsxIKVsrweQRsEINXSUqvEhDQzpW496_gU2v2y1mQXdoy17WkLMRRS1koqMcoBUBZ-_5KHXwoEOrZ3AT89hynKGBIjWwAeOUolYnunRzyBYA5wBfgD4GHsvUHMa3OAsXxnOuqCyIuFgYWaRE2229ubbuaqix2gEVp-AcbrD1HfWcoh3_lDdkgfIDuBWueZyvHWjufKHtROH1xeKqZqMxq_rg-nQYdrkryzwa4_keTuhNfN_0G00]--></g></svg>