<?xml version="1.0" encoding="us-ascii" standalone="no"?><svg xmlns="http://www.w3.org/2000/svg" xmlns:xlink="http://www.w3.org/1999/xlink" contentStyleType="text/css" height="719.1px" preserveAspectRatio="none" style="width:455px;height:719px;background:#FFFFFF;" version="1.1" viewBox="0 0 455 719" width="455.4px" zoomAndPan="magnify"><defs/><g><text fill="#000000" font-family="sans-serif" font-size="12.6" font-weight="bold" lengthAdjust="spacing" textLength="430.2" x="9" y="22.5967">Domain Model: US016 - Respond to the user that scheduled the visit</text><!--class Employee--><g id="elem_Employee"><rect codeLine="14" fill="#F1F1F1" height="32.959" id="Employee" rx="2.25" ry="2.25" style="stroke:#181818;stroke-width:0.45;" width="61.2" x="223.65" y="591.859"/><text fill="#000000" font-family="sans-serif" font-size="12.6" lengthAdjust="spacing" textLength="55.8" x="226.35" y="609.9557">Employee</text><line style="stroke:#181818;stroke-width:0.45;" x1="224.55" x2="283.95" y1="617.618" y2="617.618"/></g><!--class Property--><g id="elem_Property"><rect codeLine="25" fill="#F1F1F1" height="32.959" id="Property" rx="2.25" ry="2.25" style="stroke:#181818;stroke-width:0.45;" width="54" x="222.75" y="195.859"/><text fill="#000000" font-family="sans-serif" font-size="12.6" lengthAdjust="spacing" textLength="48.6" x="225.45" y="213.9557">Property</text><line style="stroke:#181818;stroke-width:0.45;" x1="223.65" x2="275.85" y1="221.618" y2="221.618"/></g><!--class Person--><g id="elem_Person"><rect codeLine="29" fill="#F1F1F1" height="66.477" id="Person" rx="2.25" ry="2.25" style="stroke:#181818;stroke-width:0.45;" width="45.9" x="124.2" y="454.159"/><text fill="#000000" font-family="sans-serif" font-size="12.6" lengthAdjust="spacing" textLength="40.5" x="126.9" y="472.2557">Person</text><line style="stroke:#181818;stroke-width:0.45;" x1="125.1" x2="169.2" y1="479.918" y2="479.918"/><text fill="#000000" font-family="sans-serif" font-size="12.6" lengthAdjust="spacing" textLength="29.7" x="129.6" y="497.1146">email</text><text fill="#000000" font-family="sans-serif" font-size="12.6" lengthAdjust="spacing" textLength="31.5" x="129.6" y="513.8736">name</text></g><!--class Agent--><g id="elem_Agent"><rect codeLine="35" fill="#F1F1F1" height="32.959" id="Agent" rx="2.25" ry="2.25" style="stroke:#181818;stroke-width:0.45;" width="38.7" x="284.4" y="680.059"/><text fill="#000000" font-family="sans-serif" font-size="12.6" lengthAdjust="spacing" textLength="33.3" x="287.1" y="698.1557">Agent</text><line style="stroke:#181818;stroke-width:0.45;" x1="285.3" x2="322.2" y1="705.818" y2="705.818"/></g><!--class Role--><g id="elem_Role"><rect codeLine="39" fill="#F1F1F1" height="66.477" id="Role" rx="2.25" ry="2.25" style="stroke:#181818;stroke-width:0.45;" width="72.9" x="217.8" y="454.159"/><text fill="#000000" font-family="sans-serif" font-size="12.6" lengthAdjust="spacing" textLength="26.1" x="241.2" y="472.2557">Role</text><line style="stroke:#181818;stroke-width:0.45;" x1="218.7" x2="289.8" y1="479.918" y2="479.918"/><text fill="#000000" font-family="sans-serif" font-size="12.6" lengthAdjust="spacing" textLength="9.9" x="223.2" y="497.1146">id</text><text fill="#000000" font-family="sans-serif" font-size="12.6" lengthAdjust="spacing" textLength="62.1" x="223.2" y="513.8736">description</text></g><!--class Address--><g id="elem_Address"><rect codeLine="45" fill="#F1F1F1" height="83.2359" id="Address" rx="2.25" ry="2.25" style="stroke:#181818;stroke-width:0.45;" width="90" x="102.15" y="300.259"/><text fill="#000000" font-family="sans-serif" font-size="12.6" lengthAdjust="spacing" textLength="46.8" x="123.75" y="318.3557">Address</text><line style="stroke:#181818;stroke-width:0.45;" x1="103.05" x2="191.25" y1="326.018" y2="326.018"/><text fill="#000000" font-family="sans-serif" font-size="12.6" lengthAdjust="spacing" textLength="79.2" x="107.55" y="343.2146">streetAddress</text><text fill="#000000" font-family="sans-serif" font-size="12.6" lengthAdjust="spacing" textLength="27.9" x="107.55" y="359.9736">state</text><text fill="#000000" font-family="sans-serif" font-size="12.6" lengthAdjust="spacing" textLength="45.9" x="107.55" y="376.7326">zipCode</text></g><!--class VisitRequest--><g id="elem_VisitRequest"><rect codeLine="51" fill="#F1F1F1" height="83.2359" id="VisitRequest" rx="2.25" ry="2.25" style="stroke:#181818;stroke-width:0.45;" width="92.7" x="203.4" y="41.959"/><text fill="#000000" font-family="sans-serif" font-size="12.6" lengthAdjust="spacing" textLength="71.1" x="214.2" y="60.0557">VisitRequest</text><line style="stroke:#181818;stroke-width:0.45;" x1="204.3" x2="295.2" y1="67.718" y2="67.718"/><text fill="#000000" font-family="sans-serif" font-size="12.6" lengthAdjust="spacing" textLength="81.9" x="208.8" y="84.9146">preferred date</text><text fill="#000000" font-family="sans-serif" font-size="12.6" lengthAdjust="spacing" textLength="46.8" x="208.8" y="101.6736">time slot</text><text fill="#000000" font-family="sans-serif" font-size="12.6" lengthAdjust="spacing" textLength="74.7" x="208.8" y="118.4326">wasAccepted</text></g><!--class Client--><g id="elem_Client"><rect codeLine="57" fill="#F1F1F1" height="32.959" id="Client" rx="2.25" ry="2.25" style="stroke:#181818;stroke-width:0.45;" width="37.8" x="51.75" y="66.709"/><text fill="#000000" font-family="sans-serif" font-size="12.6" lengthAdjust="spacing" textLength="32.4" x="54.45" y="84.8057">Client</text><line style="stroke:#181818;stroke-width:0.45;" x1="52.65" x2="88.65" y1="92.468" y2="92.468"/></g><!--class PropertyType--><g id="elem_PropertyType"><rect codeLine="60" fill="#F1F1F1" height="49.718" id="PropertyType" rx="2.25" ry="2.25" style="stroke:#181818;stroke-width:0.45;" width="82.8" x="223.65" y="316.909"/><text fill="#000000" font-family="sans-serif" font-size="12.6" lengthAdjust="spacing" textLength="77.4" x="226.35" y="335.0057">PropertyType</text><line style="stroke:#181818;stroke-width:0.45;" x1="224.55" x2="305.55" y1="342.668" y2="342.668"/><text fill="#000000" font-family="sans-serif" font-size="12.6" lengthAdjust="spacing" textLength="62.1" x="229.05" y="359.8646">description</text></g><!--link Property to PropertyType--><g id="link_Property_PropertyType"><path codeLine="65" d="M251.658,229.276 C254.304,251.281 259.101,291.232 262.179,316.855 " fill="none" id="Property-PropertyType" style="stroke:#181818;stroke-width:0.9;"/><polygon fill="#000000" points="261.0867,269.3078,262.7419,260.9099,257.4896,261.5408,261.0867,269.3078" style="stroke:#000000;stroke-width:0.9;"/><text fill="#000000" font-family="sans-serif" font-size="11.7" lengthAdjust="spacing" textLength="35.1" x="268.65" y="269.6845">has an</text><text fill="#000000" font-family="sans-serif" font-size="11.7" lengthAdjust="spacing" textLength="6.3" x="245.0242" y="248.5446">1</text><text fill="#000000" font-family="sans-serif" font-size="11.7" lengthAdjust="spacing" textLength="6.3" x="254.4866" y="306.6806">1</text></g><!--link Client to VisitRequest--><g id="link_Client_VisitRequest"><path codeLine="67" d="M89.82,83.359 C116.712,83.359 166.473,83.359 203.382,83.359 " fill="none" id="Client-VisitRequest" style="stroke:#181818;stroke-width:0.9;"/><polygon fill="#000000" points="129.375,72.2399,121.2344,69.5949,121.2344,74.885,129.375,72.2399" style="stroke:#000000;stroke-width:0.9;"/><text fill="#000000" font-family="sans-serif" font-size="11.7" lengthAdjust="spacing" textLength="38.7" x="132.975" y="77.0845">request</text><text fill="#000000" font-family="sans-serif" font-size="11.7" lengthAdjust="spacing" textLength="6.3" x="96.6555" y="78.434">1</text><text fill="#000000" font-family="sans-serif" font-size="11.7" lengthAdjust="spacing" textLength="4.5" x="191.7412" y="79.5481">*</text></g><!--link VisitRequest to Property--><g id="link_VisitRequest_Property"><path codeLine="68" d="M249.75,124.903 C249.75,148.924 249.75,178.003 249.75,195.634 " fill="none" id="VisitRequest-Property" style="stroke:#181818;stroke-width:0.9;"/><polygon fill="#000000" points="254.25,164.9399,256.895,156.7994,251.605,156.7994,254.25,164.9399" style="stroke:#000000;stroke-width:0.9;"/><text fill="#000000" font-family="sans-serif" font-size="11.7" lengthAdjust="spacing" textLength="42.3" x="262.35" y="165.2845">refers to</text><text fill="#000000" font-family="sans-serif" font-size="11.7" lengthAdjust="spacing" textLength="4.5" x="244.9055" y="145.048">*</text><text fill="#000000" font-family="sans-serif" font-size="11.7" lengthAdjust="spacing" textLength="6.3" x="242.5247" y="185.8438">1</text></g><!--link Property to Address--><g id="link_Property_Address"><path codeLine="73" d="M227.61,229.231 C217.989,236.737 206.991,246.232 198.45,256.159 C187.02,269.443 176.553,285.571 168.102,300.169 " fill="none" id="Property-Address" style="stroke:#181818;stroke-width:0.9;"/><polygon fill="#000000" points="200.0579,268.2875,207.3162,263.7507,203.2633,260.3509,200.0579,268.2875" style="stroke:#000000;stroke-width:0.9;"/><text fill="#000000" font-family="sans-serif" font-size="11.7" lengthAdjust="spacing" textLength="35.1" x="211.05" y="269.6845">has an</text><text fill="#000000" font-family="sans-serif" font-size="11.7" lengthAdjust="spacing" textLength="6.3" x="214.1972" y="248.7959">1</text><text fill="#000000" font-family="sans-serif" font-size="11.7" lengthAdjust="spacing" textLength="6.3" x="164.4167" y="290.2643">1</text></g><!--link Address to Person--><g id="link_Address_Person"><path codeLine="74" d="M147.15,383.437 C147.15,405.802 147.15,433.135 147.15,454.042 " fill="none" id="Address-Person" style="stroke:#181818;stroke-width:0.9;"/><polygon fill="#000000" points="151.65,414.2399,149.005,422.3805,154.295,422.3805,151.65,414.2399" style="stroke:#000000;stroke-width:0.9;"/><text fill="#000000" font-family="sans-serif" font-size="11.7" lengthAdjust="spacing" textLength="35.1" x="159.75" y="423.5845">has an</text><text fill="#000000" font-family="sans-serif" font-size="11.7" lengthAdjust="spacing" textLength="6.3" x="140.3873" y="403.3094">1</text><text fill="#000000" font-family="sans-serif" font-size="11.7" lengthAdjust="spacing" textLength="6.3" x="140.2889" y="444.0867">1</text></g><!--reverse link Employee to Agent--><g id="link_Employee_Agent"><path codeLine="76" d="M272.457,641.188 C279.972,654.31 288.36,668.953 294.561,679.771 " fill="none" id="Employee-backto-Agent" style="stroke:#181818;stroke-width:0.9;"/><polygon fill="none" points="266.814,644.005,263.331,625.258,277.74,637.741,266.814,644.005" style="stroke:#181818;stroke-width:0.9;"/></g><!--link Role to Employee--><g id="link_Role_Employee"><path codeLine="77" d="M254.25,520.948 C254.25,543.979 254.25,573.841 254.25,591.823 " fill="none" id="Role-Employee" style="stroke:#181818;stroke-width:0.9;"/><polygon fill="#000000" points="258.75,551.9399,256.105,560.0805,261.395,560.0805,258.75,551.9399" style="stroke:#000000;stroke-width:0.9;"/><text fill="#000000" font-family="sans-serif" font-size="11.7" lengthAdjust="spacing" textLength="35.1" x="266.85" y="561.2845">has an</text><text fill="#000000" font-family="sans-serif" font-size="11.7" lengthAdjust="spacing" textLength="18" x="234.7594" y="540.419">1..*</text><text fill="#000000" font-family="sans-serif" font-size="11.7" lengthAdjust="spacing" textLength="6.3" x="246.9853" y="581.7879">1</text></g><!--reverse link Person to Client--><g id="link_Person_Client"><path codeLine="79" d="M114.21,441.694 C103.185,424.261 92.124,403.561 85.95,383.059 C54.639,279.109 64.251,145.738 68.841,100.261 " fill="none" id="Person-backto-Client" style="stroke:#181818;stroke-width:0.9;"/><polygon fill="none" points="119.466,438.22,124.2,456.697,108.981,445.204,119.466,438.22" style="stroke:#181818;stroke-width:0.9;"/></g><!--reverse link Person to Employee--><g id="link_Person_Employee"><path codeLine="80" d="M182.322,527.518 C201.888,549.307 225.189,575.254 239.85,591.58 " fill="none" id="Person-backto-Employee" style="stroke:#181818;stroke-width:0.9;"/><polygon fill="none" points="177.462,531.541,170.127,513.937,186.84,523.126,177.462,531.541" style="stroke:#181818;stroke-width:0.9;"/></g><!--link VisitRequest to Agent--><g id="link_VisitRequest_Agent"><path codeLine="81" d="M296.145,115.588 C324.036,138.475 354.15,172.297 354.15,211.609 C354.15,211.609 354.15,211.609 354.15,609.409 C354.15,637.021 334.71,663.661 319.977,679.888 " fill="none" id="VisitRequest-Agent" style="stroke:#181818;stroke-width:0.9;"/><polygon fill="#000000" points="358.4601,414.2439,356.1609,422.4889,361.4463,422.2657,358.4601,414.2439" style="stroke:#000000;stroke-width:0.9;"/><text fill="#000000" font-family="sans-serif" font-size="11.7" lengthAdjust="spacing" textLength="41.4" x="366.75" y="423.5845">respond</text></g><!--SRC=[RLDDRzim3BthLn2v12YGOhti40G1Ycx73KEoxQv9Z2rKbZIHMP1b_U-Z9N_4G7CnGpy-FZxIzEf2qbbtqCKGJPjZXy3vZ8gcDqcRLztWaQyU8QDX7Hf_3w1MstXneO6JzeHAhJsU63X2TatBO5rVvM9GIhNE8XYNZJ2Kk4DkeoMbsB7mVugTTW6-H8j-2p-E7vu-mWOEI2a6srDoYt0cp19e1Z8jshD7M_9_73cM9iPh8lZS9H-lY3UbtaHJJHuvPeIRMeFydArFY-IQe8l4aa0HuMkOsXZmwxdxXLcjtqRkRpacp7o5IZuaCLCCDpKpz57G7Tw1dXiCl2WxH2yQHOl8CDcbwjHSO6r6eafBd15vI0qPpLYYlowzY6rpvS_UZWF-FYDnBKyPJvYps6N7AdQoSVAHox-BfcTZC37QcUV5kqdpSlplruIL-Lwx5Ah9eDNJ2ZQRybYKmHRsq6e2BSCE7GeMLW-hXNH1vY7QgyMB7ZbmJ_rwiCn8_QtiPUrbuUk2YPjAFXw6OEM06U89Te8SN9sXlUHI_luq8_vka7kAQUXo5OBQJUDE0dR_15KkGlLN80MFZ_DC8smBS-rwbl9Gp19SqRW5-MnaDz4uMQs5Y-DM31YwrqxLvcLkRB9qTb1LtAoVdZZq7m00]--></g></svg>